<svg id="Layer_1" data-name="Layer 1" xmlns="http://www.w3.org/2000/svg" viewBox="0 0 663 524"><defs><style>.cls-1{fill:#fff;}.cls-2{fill:#b10121;}</style></defs><rect class="cls-1" x="32.21283" y="34.41348" width="599.11308" height="398.83652"/><path d="M68.42924,483.53818v13.53338a11.34179,11.34179,0,0,0,1.092,5.4686q2.04594,3.582,7.76734,3.58624,5.72356,0,7.75461-3.58624a11.34615,11.34615,0,0,0,1.08778-5.4686V483.53818H81.457v13.53338a7.67413,7.67413,0,0,1-.53538,3.31855q-.84132,1.84835-3.633,1.8526-2.80438,0-3.64572-1.8526a7.6742,7.6742,0,0,1-.53539-3.31855V483.53818Zm34.90635,6.67111a6.27187,6.27187,0,0,0-4.13012-1.32147,5.38349,5.38349,0,0,0-3.3313.98581,7.14545,7.14545,0,0,0-1.55516,1.80584v-2.37524H90.21013V505.557H94.455v-8.81262a6.29919,6.29919,0,0,1,.41642-2.48148,2.96755,2.96755,0,0,1,2.97437-1.8356,2.41256,2.41256,0,0,1,2.388,1.25348,4.52054,4.52054,0,0,1,.34418,1.97158v9.90467h4.36382V494.59439q0-3.06573-1.60616-4.38507Zm9.90891-2.87665v-3.93042h-4.3171v3.93042Zm-4.3171,1.94184V505.557h4.3171V489.27444Zm6.76883,3.18258h2.269v10.02362a3.1259,3.1259,0,0,0,.7181,2.25626q1.10265,1.14724,4.12163,1.04529l2.01832-.07648v-3.18259q-.212.01927-.4249.02552c-.14448.00424-.28045.00851-.41217.00851a2.77682,2.77682,0,0,1-1.55517-.2507,1.95351,1.95351,0,0,1-.2507-1.245v-8.60443h2.64294v-3.03387h-2.64294v-4.53806h-4.2151v4.538h-2.269Zm15.98935.82007a2.901,2.901,0,0,1,2.29451-.9263,3.18021,3.18021,0,0,1,2.27752.87531,3.7,3.7,0,0,1,1.024,2.56219h-6.61586a4.62555,4.62555,0,0,1,1.01979-2.51123Zm5.953-3.67548a8.55045,8.55045,0,0,0-3.65848-.76059,7.33516,7.33516,0,0,0-5.56632,2.25626q-2.14155,2.25627-2.14154,6.48413,0,4.51254,2.37524,6.51386a8.26244,8.26244,0,0,0,5.48134,2.00134,7.39688,7.39688,0,0,0,5.85526-2.37524,5.39346,5.39346,0,0,0,1.50843-2.94465h-4.34683a3.542,3.542,0,0,1-.79033,1.12177,3.05521,3.05521,0,0,1-2.1373.74783,3.59773,3.59773,0,0,1-2.1203-.61612,4.04241,4.04241,0,0,1-1.53817-3.43329H141.705a21.971,21.971,0,0,0-.136-3.2293,8.25006,8.25006,0,0,0-1.24073-3.36106,6.42607,6.42607,0,0,0-2.68969-2.405Zm15.5687-.06375a5.2601,5.2601,0,0,0-2.6302-.65008,6.24482,6.24482,0,0,0-5.1329,2.388,10.20567,10.20567,0,0,0-1.9206,6.56061,8.869,8.869,0,0,0,1.95034,5.92324,6.05622,6.05622,0,0,0,4.80573,2.30726,5.84647,5.84647,0,0,0,2.89789-.6586,6.00566,6.00566,0,0,0,2.07356-2.10758V505.557h4.13862V483.5679h-4.31709v7.76737A5.17537,5.17537,0,0,0,153.20727,489.5379Zm1.04528,11.6a3.15686,3.15686,0,0,1-2.74916,1.34271,3.0113,3.0113,0,0,1-2.69819-1.35119,7.61313,7.61313,0,0,1-.01274-7.113,2.99215,2.99215,0,0,1,2.74067-1.41071,3.24128,3.24128,0,0,1,2.15.77759c1.007.85407,1.50843,2.28177,1.50843,4.27033a5.96481,5.96481,0,0,1-.939,3.48428Zm21.18176-2.37524h-4.39357a6.5278,6.5278,0,0,0,2.46448,5.39636,10.56468,10.56468,0,0,0,6.76881,1.96731,9.65972,9.65972,0,0,0,6.51813-1.99707,6.33036,6.33036,0,0,0,2.31149-5.0097,5.38052,5.38052,0,0,0-1.97157-4.49555,9.79931,9.79931,0,0,0-3.7647-1.59765l-3.79443-.91355a12.73286,12.73286,0,0,1-2.86815-.9093,1.89894,1.89894,0,0,1-1.04527-1.76339,2.27958,2.27958,0,0,1,1.058-2.00132,4.98054,4.98054,0,0,1,2.83839-.71811,5.77931,5.77931,0,0,1,2.67269.55237,3.14631,3.14631,0,0,1,1.73364,2.82141h4.42329a6.59145,6.59145,0,0,0-2.57919-5.35385,9.609,9.609,0,0,0-5.936-1.84411q-4.16835,0-6.3184,1.95459a6.36493,6.36493,0,0,0-2.15006,4.91619,5.3705,5.3705,0,0,0,2.22228,4.76749,14.77489,14.77489,0,0,0,4.75048,1.68689l2.33277.52264a10.177,10.177,0,0,1,3.0041,1.03254,1.88005,1.88005,0,0,1,.95606,1.68689,2.55839,2.55839,0,0,1-1.92911,2.55371,8.13029,8.13029,0,0,1-2.64295.35693q-2.72154,0-3.84118-1.35971a4.527,4.527,0,0,1-.82009-2.252Zm15.05881-6.30567h2.269v10.02362a3.1072,3.1072,0,0,0,.71809,2.25626q1.10266,1.14724,4.12163,1.04529l2.01833-.07648v-3.18259c-.14022.01276-.28469.02124-.42916.02552s-.28044.00851-.40791.00851a2.77687,2.77687,0,0,1-1.55518-.2507,1.91832,1.91832,0,0,1-.25494-1.245V492.457h2.64719v-3.03387H196.973v-4.538h-4.21086v4.538h-2.269Zm20.83758,5.1839v1.5849a3.42826,3.42826,0,0,1-1.2025,2.94037,4.3247,4.3247,0,0,1-2.53245.80734,2.27678,2.27678,0,0,1-1.47019-.4844,1.90389,1.90389,0,0,1-.60762-1.57642,1.96557,1.96557,0,0,1,.9858-1.81012,6.25939,6.25939,0,0,1,1.92907-.58212l.95606-.17847a7.04386,7.04386,0,0,0,1.126-.28894,4.59466,4.59466,0,0,0,.81582-.41217Zm-2.58345-1.98859-1.44894.17847a10.31532,10.31532,0,0,0-3.735,1.04953,4.64666,4.64666,0,0,0-2.31576,4.34683,4.50529,4.50529,0,0,0,1.44044,3.57773,5.34561,5.34561,0,0,0,3.65424,1.262,6.07839,6.07839,0,0,0,3.10609-.79458,8.70529,8.70529,0,0,0,2.03107-1.62741c.02974.36966.068.69684.119.98578a4.93207,4.93207,0,0,0,.2677.9263h4.63152v-.62888a1.49131,1.49131,0,0,1-.62461-.49289,2.32692,2.32692,0,0,1-.25494-1.13449c-.02124-.73511-.02974-1.36395-.02974-1.88235V493.9527q0-2.94466-2.0778-4.0069a10.31593,10.31593,0,0,0-4.75051-1.058q-4.10463,0-5.79577,2.15a6.26093,6.26093,0,0,0-1.194,3.50974h4.10888a3.07033,3.07033,0,0,1,.59488-1.49143,2.64942,2.64942,0,0,1,2.1373-.74783,4.38621,4.38621,0,0,1,2.03957.37817,1.441,1.441,0,0,1,.69259,1.3852,1.274,1.274,0,0,1-.9093,1.20675,6.419,6.419,0,0,1-1.6869.37393Zm8.9486-3.19534h2.269v10.02362a3.10721,3.10721,0,0,0,.71809,2.25626q1.10267,1.14725,4.12163,1.04529l2.01833-.07648V502.5231c-.14022.01276-.2847.02124-.42916.02551s-.28044.00852-.40791.00852a2.77694,2.77694,0,0,1-1.55518-.2507,1.91838,1.91838,0,0,1-.25494-1.245V492.457h2.64719v-3.03387H224.1757v-4.53806h-4.21084v4.538h-2.269Zm15.98936.82007a2.901,2.901,0,0,1,2.29452-.9263,3.18029,3.18029,0,0,1,2.27753.8753,3.719,3.719,0,0,1,1.024,2.5622h-6.6201a4.62786,4.62786,0,0,1,1.024-2.5112Zm5.953-3.67548a8.564,8.564,0,0,0-3.65848-.76059,7.32871,7.32871,0,0,0-5.56631,2.25626q-2.14155,2.25627-2.14156,6.48413,0,4.51254,2.37525,6.51386a8.24655,8.24655,0,0,0,5.48134,2.00134,7.40283,7.40283,0,0,0,5.85525-2.37525,5.42217,5.42217,0,0,0,1.50843-2.94464h-4.34684a3.54164,3.54164,0,0,1-.79034,1.12177,3.06246,3.06246,0,0,1-2.1373.74783,3.58861,3.58861,0,0,1-2.1203-.61612,4.03143,4.03143,0,0,1-1.53818-3.43329h11.14115a22.09171,22.09171,0,0,0-.13172-3.22931,8.24959,8.24959,0,0,0-1.24074-3.361,6.47667,6.47667,0,0,0-2.68968-2.405ZM249.887,500.36032H245.57a5.28036,5.28036,0,0,0,1.8271,4.13013q1.82925,1.61892,5.67255,1.61889,3.76045,0,5.56207-1.52966a4.93984,4.93984,0,0,0,1.80162-3.95166,4.10763,4.10763,0,0,0-1.25773-3.0636,8.14787,8.14787,0,0,0-3.80719-1.80584,26.81781,26.81781,0,0,1-4.43607-1.18125,1.10662,1.10662,0,0,1-.62888-1.058,1.24637,1.24637,0,0,1,.59064-1.01978,3.47833,3.47833,0,0,1,1.98009-.42917,2.90525,2.90525,0,0,1,2.388.86255,2.502,2.502,0,0,1,.46315,1.30023h4.2576a5.2086,5.2086,0,0,0-2.201-4.20236,9.14076,9.14076,0,0,0-4.96719-1.21951,7.10393,7.10393,0,0,0-4.98421,1.62317,5.08105,5.08105,0,0,0-1.76762,3.87518,3.72292,3.72292,0,0,0,1.13451,2.92764,9.23158,9.23158,0,0,0,3.90068,1.71665,24.11642,24.11642,0,0,1,4.43606,1.28747,1.25319,1.25319,0,0,1-.14447,2.20954,4.48883,4.48883,0,0,1-1.99283.37393,3.92926,3.92926,0,0,1-2.92762-.85407,2.8407,2.8407,0,0,1-.58213-1.61041Zm20.91406-5.34961v4.03241h8.57469v-4.03241Zm26.33591,2.22653,2.83841-8.66391,2.74917,8.66391Zm.28042-13.69909L289.56087,505.557h4.81l1.52542-4.5253h8.11155l1.41919,4.5253h4.98843l-7.79709-22.01883ZM317.214,505.557V483.53815h-4.2576V505.557Zm13.12973-7.91608v1.5849a3.42832,3.42832,0,0,1-1.20251,2.94037,4.32472,4.32472,0,0,1-2.53247.80734,2.27676,2.27676,0,0,1-1.47019-.4844,1.90388,1.90388,0,0,1-.6076-1.57642,1.96553,1.96553,0,0,1,.98581-1.81012,6.25956,6.25956,0,0,1,1.92908-.58212l.95605-.17847a7.04443,7.04443,0,0,0,1.126-.28894,4.595,4.595,0,0,0,.81582-.41217Zm-2.58343-1.98859-1.44895.17847a10.3152,10.3152,0,0,0-3.735,1.04953,4.63888,4.63888,0,0,0-2.31577,4.34683,4.50528,4.50528,0,0,0,1.44043,3.57773,5.34558,5.34558,0,0,0,3.65424,1.262,6.07825,6.07825,0,0,0,3.10608-.79458,8.7057,8.7057,0,0,0,2.03107-1.62741c.02975.36966.068.69684.11895.98578a4.93282,4.93282,0,0,0,.2677.9263h4.63153v-.62888a1.49144,1.49144,0,0,1-.62463-.49289,2.3268,2.3268,0,0,1-.25494-1.13449c-.02124-.73511-.02976-1.36395-.02976-1.88236v-7.46566q0-2.94467-2.07782-4.0069a10.3159,10.3159,0,0,0-4.75049-1.058q-4.10463,0-5.79577,2.15005a6.26093,6.26093,0,0,0-1.194,3.50974h4.10888a3.07,3.07,0,0,1,.59488-1.49143,2.64939,2.64939,0,0,1,2.1373-.74783,4.38609,4.38609,0,0,1,2.03955.37817,1.441,1.441,0,0,1,.6926,1.38519,1.274,1.274,0,0,1-.9093,1.20676,6.419,6.419,0,0,1-1.68689.37393Zm24.44507-4.41906a6.02361,6.02361,0,0,0-5.02668-2.31577,5.24532,5.24532,0,0,0-2.92764.74786,6.14635,6.14635,0,0,0-1.77612,1.72937v-7.82684h-4.24484V505.557h4.16836v-2.04383a6.50676,6.50676,0,0,0,1.5849,1.66989,6.47917,6.47917,0,0,0,8.24326-1.68688,10.48283,10.48283,0,0,0,1.79312-6.28867,9.39019,9.39019,0,0,0-1.81436-5.97424Zm-3.56076,9.91738a2.92406,2.92406,0,0,1-2.558,1.33,3.16787,3.16787,0,0,1-2.82141-1.37671,6.06713,6.06713,0,0,1-.9263-3.463,7.93784,7.93784,0,0,1,.44617-2.89789,3.16789,3.16789,0,0,1,3.18256-2.10754,3.12682,3.12682,0,0,1,3.14007,2.15,7.93987,7.93987,0,0,1,.44614,2.86814,6.07659,6.07659,0,0,1-.9093,3.497Zm17.40008-3.50973v1.5849a3.42832,3.42832,0,0,1-1.20251,2.94037,4.31531,4.31531,0,0,1-2.53247.80734,2.27676,2.27676,0,0,1-1.47019-.4844,1.9022,1.9022,0,0,1-.60336-1.57642,1.95761,1.95761,0,0,1,.98581-1.81012,6.18666,6.18666,0,0,1,1.92483-.58212l.95606-.17847a7.11382,7.11382,0,0,0,1.13025-.28894,4.70921,4.70921,0,0,0,.81158-.41217Zm-2.58343-1.98859-1.44895.17847a10.3152,10.3152,0,0,0-3.735,1.04953,4.64667,4.64667,0,0,0-2.31577,4.34683,4.5053,4.5053,0,0,0,1.44046,3.57773,5.35306,5.35306,0,0,0,3.65424,1.262,6.06727,6.06727,0,0,0,3.10608-.79458,8.61873,8.61873,0,0,0,2.03106-1.62741c.02976.36966.07224.69684.12323.98578a4.36717,4.36717,0,0,0,.2677.9263h4.6315v-.62888a1.50578,1.50578,0,0,1-.62884-.49289,2.3268,2.3268,0,0,1-.25494-1.13449c-.017-.73511-.02976-1.36395-.02976-1.88236v-7.46566q0-2.94467-2.07355-4.0069a10.32836,10.32836,0,0,0-4.75048-1.058q-4.111,0-5.8,2.15005a6.26093,6.26093,0,0,0-1.194,3.50974h4.10888a3.03184,3.03184,0,0,1,.59912-1.49143,2.63958,2.63958,0,0,1,2.13306-.74783,4.38609,4.38609,0,0,1,2.03955.37817,1.44364,1.44364,0,0,1,.69687,1.38519,1.27829,1.27829,0,0,1-.91357,1.20676,6.37643,6.37643,0,0,1-1.68689.37393Zm30.93768-6.31842a5.72439,5.72439,0,0,0-2.1203-.41641,6.30518,6.30518,0,0,0-2.92764.67136,5.38615,5.38615,0,0,0-2.07779,2.10757,4.76311,4.76311,0,0,0-1.40647-1.95883,5.915,5.915,0,0,0-6.22915.136,6.82214,6.82214,0,0,0-1.49143,1.80587V489.3042h-4.13864V505.557h4.31708v-9.79843a4.52706,4.52706,0,0,1,.34418-2.00135,2.51663,2.51663,0,0,1,2.45172-1.18124,2.082,2.082,0,0,1,2.1033,1.18124,5.41979,5.41979,0,0,1,.3017,2.10755v9.6922h4.28735v-9.6922a4.59324,4.59324,0,0,1,.33993-1.8696,2.4473,2.4473,0,0,1,2.43473-1.4617,2.12824,2.12824,0,0,1,2.09479,1.13452,3.43781,3.43781,0,0,1,.29745,1.52118V505.557h4.35959l.034-10.26157a14.10368,14.10368,0,0,0-.153-2.405,4.621,4.621,0,0,0-.9263-2.09054,4.7343,4.7343,0,0,0-1.89511-1.466Zm15.86188,8.307v1.5849a3.42832,3.42832,0,0,1-1.20252,2.94037,4.31192,4.31192,0,0,1-2.5282.80734,2.2885,2.2885,0,0,1-1.47442-.48441,1.90215,1.90215,0,0,1-.6034-1.57641,1.95761,1.95761,0,0,1,.98581-1.81012,6.22547,6.22547,0,0,1,1.92484-.58212l.95605-.17847a7.11461,7.11461,0,0,0,1.13028-.28894,4.70893,4.70893,0,0,0,.81159-.41217Zm-2.58344-1.98859-1.44894.17847a10.36827,10.36827,0,0,0-3.735,1.04953,4.64665,4.64665,0,0,0-2.31576,4.34683,4.50785,4.50785,0,0,0,1.4447,3.57773,5.33446,5.33446,0,0,0,3.65,1.262,6.094,6.094,0,0,0,3.11035-.79458,8.794,8.794,0,0,0,2.03107-1.62741c.02976.36966.068.69683.119.98578a4.633,4.633,0,0,0,.2677.9263H415.432V504.928a1.506,1.506,0,0,1-.62888-.49289,2.3771,2.3771,0,0,1-.25494-1.13449c-.017-.73511-.02975-1.36395-.02975-1.88236v-7.46566q0-2.94466-2.07355-4.0069a10.32829,10.32829,0,0,0-4.75049-1.058q-4.111,0-5.79578,2.15005a6.26329,6.26329,0,0,0-1.19824,3.50974h4.10889a3.11345,3.11345,0,0,1,.59912-1.49143,2.64357,2.64357,0,0,1,2.1373-.74783,4.38637,4.38637,0,0,1,2.03958.37817,1.441,1.441,0,0,1,.6926,1.38519,1.274,1.274,0,0,1-.90931,1.20676,6.46076,6.46076,0,0,1-1.69116.37393ZM427.8011,488.841a22.09688,22.09688,0,0,0-1.94183,8.84238A20.13159,20.13159,0,0,0,427.35069,505.2a29.71063,29.71063,0,0,0,3.69248,6.52661h2.524l-.91357-1.67413a25.126,25.126,0,0,1-2.61319-7.24472,28.32208,28.32208,0,0,1-.47589-5.39209,25.64647,25.64647,0,0,1,1.23651-8.21353,41.3428,41.3428,0,0,1,2.82565-5.99124l-2.45172-.02976-1.058,1.4617a22.45249,22.45249,0,0,0-2.31577,4.19812Zm24.33459,1.5679h4.5253a7.93459,7.93459,0,0,0-2.91912-5.31137,10.20262,10.20262,0,0,0-6.74756-2.12454,10.02338,10.02338,0,0,0-7.78009,3.22507,12.22647,12.22647,0,0,0-2.94464,8.57468q0,5.29014,2.91488,8.33673a9.31873,9.31873,0,0,0,7.16825,3.0296,8.44329,8.44329,0,0,0,4.48278-1.11749,10.58657,10.58657,0,0,0,2.388-2.21378l.46314,2.74918h3.05084V493.7402h-9.1738v3.67548h5.09467a5.79035,5.79035,0,0,1-1.82285,3.50552,5.457,5.457,0,0,1-3.79446,1.33423,6.07212,6.07212,0,0,1-4.21085-1.68689q-1.85476-1.689-1.8526-5.75326,0-4.02819,1.70813-6.04221a5.48859,5.48859,0,0,1,4.36808-2.00983,6.25753,6.25753,0,0,1,2.52822.49717,4.306,4.306,0,0,1,2.55372,3.14859Zm12.89176-1.13449h-4.36383v9.81543a9.96354,9.96354,0,0,0,.70111,4.22785q1.2556,2.60046,4.87372,2.60046a6.56556,6.56556,0,0,0,2.18829-.33142,5.87236,5.87236,0,0,0,1.93335-1.22375,3.00748,3.00748,0,0,0,.56513-.6586c.16146-.24646.25918-.39942.30169-.44617V505.557h4.13861V489.27438h-4.31707v8.85938a6.34677,6.34677,0,0,1-.42066,2.524,2.98345,2.98345,0,0,1-2.98712,1.76337,2.276,2.276,0,0,1-2.286-1.24072,5.1756,5.1756,0,0,1-.32718-2.09055Zm18.81927-1.94186V483.4021h-4.31707v3.93042Zm-4.31707,1.94183V505.557h4.31707V489.27444Zm17.07711.26343a5.26,5.26,0,0,0-2.63018-.65008,6.25047,6.25047,0,0,0-5.13291,2.388,10.2048,10.2048,0,0,0-1.91635,6.5606,8.889,8.889,0,0,0,1.94611,5.92325,6.05623,6.05623,0,0,0,4.80572,2.30725,5.83511,5.83511,0,0,0,2.89789-.6586,5.97022,5.97022,0,0,0,2.07355-2.10757v2.25625h4.13864v-21.9891h-4.31708v7.76736a5.17537,5.17537,0,0,0-1.86536-1.79736Zm1.04529,11.6a3.15181,3.15181,0,0,1-2.74914,1.34271,3.01125,3.01125,0,0,1-2.69818-1.3512,7.61311,7.61311,0,0,1-.01276-7.113,2.99212,2.99212,0,0,1,2.74066-1.41071,3.24137,3.24137,0,0,1,2.15006.77759c1.007.85406,1.50842,2.28177,1.50842,4.27032a5.93365,5.93365,0,0,1-.93906,3.48429Zm13.13822-7.86084a2.90094,2.90094,0,0,1,2.29452-.9263,3.18029,3.18029,0,0,1,2.27753.8753,3.69775,3.69775,0,0,1,1.01977,2.5622h-6.61584A4.62812,4.62812,0,0,1,510.79027,493.277Zm5.953-3.67548a8.57762,8.57762,0,0,0-3.65848-.76059,7.32871,7.32871,0,0,0-5.56631,2.25626,9.06427,9.06427,0,0,0-2.14582,6.48413q0,4.51254,2.37525,6.51385a8.2654,8.2654,0,0,0,5.48559,2.00135,7.40286,7.40286,0,0,0,5.85526-2.37525,5.42221,5.42221,0,0,0,1.50842-2.94464h-4.34683a3.54192,3.54192,0,0,1-.79034,1.12177,3.0625,3.0625,0,0,1-2.1373.74783,3.58859,3.58859,0,0,1-2.1203-.61612A4.04459,4.04459,0,0,1,509.66,498.5968h11.14538a21.39476,21.39476,0,0,0-.136-3.22931,8.18491,8.18491,0,0,0-1.23648-3.361,6.47688,6.47688,0,0,0-2.68967-2.405Zm10.60574,9.16107h-4.39358a6.52783,6.52783,0,0,0,2.46448,5.39637,10.56476,10.56476,0,0,0,6.76882,1.96731,9.67923,9.67923,0,0,0,6.52237-1.99707,6.33949,6.33949,0,0,0,2.30725-5.0097,5.38046,5.38046,0,0,0-1.97158-4.49555,9.79943,9.79943,0,0,0-3.76471-1.59765l-3.79447-.91355a12.73338,12.73338,0,0,1-2.86816-.9093,1.899,1.899,0,0,1-1.04526-1.7634,2.27954,2.27954,0,0,1,1.058-2.00131,4.98055,4.98055,0,0,1,2.8384-.71811,5.81,5.81,0,0,1,2.677.55237,3.15033,3.15033,0,0,1,1.7294,2.82141h4.42331a6.6,6.6,0,0,0-2.575-5.35385,9.63033,9.63033,0,0,0-5.94024-1.84412q-4.16835,0-6.31839,1.95459a6.365,6.365,0,0,0-2.15006,4.9162,5.36361,5.36361,0,0,0,2.22654,4.76749,14.69429,14.69429,0,0,0,4.75048,1.68689l2.32849.52264a10.17678,10.17678,0,0,1,3.00412,1.03253,1.88011,1.88011,0,0,1,.95606,1.68689,2.55837,2.55837,0,0,1-1.92911,2.55371,8.13,8.13,0,0,1-2.64294.35694q-2.72154,0-3.84119-1.35971a4.52692,4.52692,0,0,1-.82007-2.252Zm25.707-1.12176v1.5849a3.42813,3.42813,0,0,1-1.20251,2.94037,4.31542,4.31542,0,0,1-2.53247.80734,2.27685,2.27685,0,0,1-1.47022-.48441,1.90208,1.90208,0,0,1-.60339-1.57641,1.95769,1.95769,0,0,1,.98578-1.81012,6.18635,6.18635,0,0,1,1.92486-.58212l.95606-.17847a7.11382,7.11382,0,0,0,1.13025-.28894,4.71029,4.71029,0,0,0,.81158-.41217Zm-2.58343-1.98859-1.449.17847a10.31545,10.31545,0,0,0-3.735,1.04953,4.64666,4.64666,0,0,0-2.31577,4.34683,4.49423,4.49423,0,0,0,1.44468,3.57773,5.33448,5.33448,0,0,0,3.65,1.262,6.06729,6.06729,0,0,0,3.10608-.79458,8.72856,8.72856,0,0,0,2.03534-1.62741c.02972.36965.068.69683.119.98577a4.36876,4.36876,0,0,0,.2677.9263h4.63154V504.928a1.50556,1.50556,0,0,1-.62885-.49289,2.32684,2.32684,0,0,1-.25494-1.13449c-.017-.73511-.02973-1.36395-.02973-1.88236v-7.46566q0-2.94467-2.07354-4.0069a10.32844,10.32844,0,0,0-4.75049-1.058q-4.111,0-5.79578,2.15006a6.23139,6.23139,0,0,0-1.19824,3.50973h4.10888a3.072,3.072,0,0,1,.59913-1.49142,2.64356,2.64356,0,0,1,2.13733-.74783,4.37886,4.37886,0,0,1,2.03533.37817,1.44361,1.44361,0,0,1,.69684,1.38519,1.27826,1.27826,0,0,1-.91357,1.20676A6.37714,6.37714,0,0,1,550.47261,495.65222Zm17.3576-12.3139c-.21667-.017-.46313-.02548-.73083-.02548q-3.53742,0-4.46582,1.46594a5.50723,5.50723,0,0,0-.88379,3.599v1.04529h-2.32849v3.00412h2.37524v13.12973h4.2406V492.42719h2.7959v-3.00412h-2.7959V488.0506a1.36877,1.36877,0,0,1,.32294-.87531,1.39046,1.39046,0,0,1,1.16425-.37393c.56512.017.96453.03824,1.20251.068V483.4021c-.37817-.02976-.6756-.051-.89654-.06372Zm7.58039,9.93866a2.90091,2.90091,0,0,1,2.29449-.9263,3.18024,3.18024,0,0,1,2.27753.8753,3.70008,3.70008,0,0,1,1.024,2.5622h-6.61585A4.62571,4.62571,0,0,1,575.4106,493.277Zm5.953-3.67548a8.55045,8.55045,0,0,0-3.65845-.76059,7.31924,7.31924,0,0,0-5.56207,2.25626q-2.14792,2.25627-2.14581,6.48413,0,4.51254,2.37524,6.51385a8.26238,8.26238,0,0,0,5.48132,2.00135,7.39694,7.39694,0,0,0,5.85529-2.37525,5.39324,5.39324,0,0,0,1.50842-2.94464h-4.3468a3.47666,3.47666,0,0,1-.79034,1.12177,3.05532,3.05532,0,0,1-2.13733.74783,3.59765,3.59765,0,0,1-2.1203-.61612,4.04234,4.04234,0,0,1-1.53815-3.43329H585.43a21.97771,21.97771,0,0,0-.136-3.22931,8.18981,8.18981,0,0,0-1.24072-3.361,6.42586,6.42586,0,0,0-2.6897-2.405Zm11.99945-.50564a32.12851,32.12851,0,0,0-3.45453-5.91477h-3.20807l.90931,1.66989a25.0047,25.0047,0,0,1,2.61322,7.232,28.59155,28.59155,0,0,1,.48016,5.40908,25.60566,25.60566,0,0,1-1.33,8.409,38.67053,38.67053,0,0,1-2.74914,5.8255h3.15283l1.058-1.44894a19.33359,19.33359,0,0,0,2.19678-3.91342,22.27974,22.27974,0,0,0,2.07782-9.14408,20.2884,20.2884,0,0,0-1.7464-8.12427Z"/><path class="cls-2" d="M631.32591,34.41348V75.55957c-.85732-.0067-1.36606.66523-1.98438,1.0769Q512.48636,154.442,395.65722,232.28654a7.34228,7.34228,0,0,0-2.0394,1.54032,5.23484,5.23484,0,0,0,1.65319,1.2865q117.3215,78.15969,234.65547,156.30056c.42567.28349.75865.81867,1.39943.69V433.25H570.01043a5.8413,5.8413,0,0,0-1.82772-1.40154Q451.2313,353.93407,334.26413,276.04325c-2.54032-1.6916-1.67246-1.73444-4.18766-.05934Q213.11294,353.87956,96.1657,431.79966c-.61467.40958-1.43206.62142-1.70127,1.45034H32.21283V392.57148a6.97045,6.97045,0,0,0,2.42878-1.35753q13.82139-9.187,27.62831-18.39578,103.10564-68.6802,206.20814-137.365a6.785,6.785,0,0,0,2.18908-1.72167c-.66015-.46657-1.21844-.88175-1.79672-1.26694Q151.66117,154.38876,34.44668,76.3208a6.21686,6.21686,0,0,0-2.23385-1.2288V34.41348c.46247-.03892.92493-.1119,1.3874-.11189q30.19845.00089,60.3969.0139c.62609.46022,1.23473.94658,1.88076,1.377Q211.4363,112.674,327,189.64751c1.36186.90714,2.74784,1.78081,4.07516,2.73587a1.48123,1.48123,0,0,0,2.07843.00429,12.09654,12.09654,0,0,1,1.15806-.78951Q430.617,127.45677,526.92141,63.314q21.78944-14.51418,43.555-29.064c.85441.01547,1.70882.04433,2.56323.04445q27.8665.00387,55.733.00693C629.62366,34.30167,630.47482,34.37446,631.32591,34.41348Z"/></svg>