<svg id="Layer_1" data-name="Layer 1" xmlns="http://www.w3.org/2000/svg" viewBox="0 0 900 795.16713"><defs><style>.cls-1{fill:#ed2939;}.cls-2{fill:#fff;}</style></defs><rect class="cls-1" x="-0.76389" width="900" height="600"/><rect class="cls-2" x="-0.76389" y="200" width="900" height="200"/><path d="M83.99181,663.87713H95.90392L113.72814,714.258h-11.416L98.9879,703.90154H80.43517l-3.416,10.35645H66.00743Zm-.69336,31.34277H96.20177l-6.36426-19.82422Z"/><path d="M129.05821,677.00213v22.45605a11.802,11.802,0,0,0,.74805,4.78516q1.32716,2.8374,5.20313,2.83692,4.96581,0,6.80273-4.03321a14.66587,14.66587,0,0,0,.95215-5.77637V677.00213h9.87793V714.258h-9.46778v-5.26367q-.13623.17139-.68164,1.02539a6.82239,6.82239,0,0,1-1.29492,1.5039,13.51939,13.51939,0,0,1-4.41406,2.80274,15.01661,15.01661,0,0,1-4.99316.75195q-8.24854,0-11.11133-5.94726-1.60254-3.28125-1.60157-9.67286V677.00213Z"/><path d="M169.66368,702.36346a6.47792,6.47792,0,0,0,1.33985,3.6914q1.81933,1.94825,6.73046,1.94825a10.29106,10.29106,0,0,0,4.585-.8545,2.73646,2.73646,0,0,0,1.70019-2.56347A2.765,2.765,0,0,0,182.65,702.09q-1.36964-.854-10.19141-2.93945-6.35008-1.57178-8.94726-3.93067a8.51808,8.51808,0,0,1-2.59766-6.69922,11.61159,11.61159,0,0,1,4.0586-8.87011q4.05907-3.70752,11.42382-3.708,6.98731,0,11.38868,2.78613,4.40185,2.78613,5.05273,9.6211H183.0963a5.7597,5.7597,0,0,0-1.0625-2.97364q-1.61133-1.98194-5.48438-1.98242a7.90277,7.90277,0,0,0-4.541.99121,2.85186,2.85186,0,0,0-1.35352,2.32422,2.54135,2.54135,0,0,0,1.43946,2.42676q1.43994.78661,10.17089,2.70019,5.82129,1.36816,8.72657,4.13575a9.39074,9.39074,0,0,1,2.87109,7.00683,11.31469,11.31469,0,0,1-4.12695,9.041q-4.12794,3.50244-12.75684,3.50293-8.80371,0-12.998-3.708a12.056,12.056,0,0,1-4.19531-9.45117Z"/><path d="M197.21251,684.2824v-6.93847h5.19531V666.9533h9.63867v10.39063h6.04981v6.93847h-6.04981v19.6875q0,2.291.58106,2.8545.58008.5625,3.55469.56347c.2959,0,.60937-.00488.93945-.0166s.65527-.02832.97461-.05176v7.28028l-4.61426.17089q-6.90527.23877-9.43359-2.39257-1.64062-1.67432-1.64063-5.16114V684.2824Z"/><path d="M245.04747,676.131q.186.01758.83692.05078v9.98047q-.92286-.10254-1.64063-.13672-.71778-.03369-1.16211-.03418-5.87988,0-7.89551,3.82812a14.89408,14.89408,0,0,0-1.12793,6.63086V714.258h-9.80957V677.00213h9.29688v6.49414a20.59862,20.59862,0,0,1,3.93066-5.09277,10.70041,10.70041,0,0,1,7.10938-2.29C244.7672,676.11346,244.92149,676.11932,245.04747,676.131Z"/><path d="M261.607,672.55877h-9.87793v-8.98926H261.607Zm-9.87793,4.44336H261.607V714.258h-9.87793Z"/><path d="M285.79649,691.59686a15.393,15.393,0,0,0,3.89063-.8545,2.9299,2.9299,0,0,0,2.10059-2.76855,3.27161,3.27161,0,0,0-1.61133-3.16113,10.16825,10.16825,0,0,0-4.72852-.87207q-3.49951,0-4.95508,1.709a7.04472,7.04472,0,0,0-1.38574,3.418h-9.39941a14.25823,14.25823,0,0,1,2.74609-8.03223q3.87891-4.92187,13.31934-4.92187a23.75693,23.75693,0,0,1,10.916,2.42676q4.771,2.42724,4.77149,9.16015v17.08985q0,1.77831.06836,4.30664a5.40809,5.40809,0,0,0,.581,2.59765,3.47848,3.47848,0,0,0,1.43555,1.12793V714.258H292.94981a10.75438,10.75438,0,0,1-.61523-2.11914q-.17139-.99024-.27344-2.25586a20.10433,20.10433,0,0,1-4.67578,3.72559,14.13484,14.13484,0,0,1-7.15137,1.81152,12.33778,12.33778,0,0,1-8.40527-2.88867q-3.31786-2.88721-3.31738-8.18555,0-6.87012,5.33691-9.94629a23.8405,23.8405,0,0,1,8.6084-2.39258Zm5.95606,4.5459a10.685,10.685,0,0,1-1.8877.93945,15.888,15.888,0,0,1-2.61621.667l-2.21777.41016a14.6268,14.6268,0,0,0-4.47754,1.333,4.44889,4.44889,0,0,0-2.30078,4.13575,4.32262,4.32262,0,0,0,1.40527,3.60644,5.34658,5.34658,0,0,0,3.41895,1.11035,10.18226,10.18226,0,0,0,5.88281-1.8457q2.68945-1.8457,2.793-6.7334Z"/><path d="M331.91466,676.592a73.2529,73.2529,0,0,1,7.89551-13.53515h7.34863l-2.085,3.82812a56.99421,56.99421,0,0,0-5.98145,16.543,65.426,65.426,0,0,0-1.09375,12.37305,58.44762,58.44762,0,0,0,3.042,19.24316,87.81082,87.81082,0,0,0,6.28906,13.33008h-7.21192l-2.42675-3.31543a44.44058,44.44058,0,0,1-5.02442-8.95508,50.9864,50.9864,0,0,1-4.751-20.918A46.4004,46.4004,0,0,1,331.91466,676.592Z"/><path d="M361.10411,698.70623a10.22582,10.22582,0,0,0,1.91895,5.16113q2.61766,3.11133,8.96972,3.11036a19.29946,19.29946,0,0,0,6.17676-.82032q4.50147-1.57178,4.502-5.84472a4.30764,4.30764,0,0,0-2.20507-3.86231,23.932,23.932,0,0,0-6.99512-2.3584l-5.4541-1.19629q-8.042-1.77685-11.04883-3.8623-5.09327-3.48633-5.09277-10.90332a14.47873,14.47873,0,0,1,4.98242-11.24512q4.98193-4.47656,14.63574-4.47754a22.43982,22.43982,0,0,1,13.75391,4.22168q5.69238,4.22169,5.96875,12.25293H381.09923a7.21249,7.21249,0,0,0-4.06445-6.46,13.92853,13.92853,0,0,0-6.27247-1.26465,11.94052,11.94052,0,0,0-6.6582,1.64063,5.19231,5.19231,0,0,0-2.4873,4.58008,4.31955,4.31955,0,0,0,2.45312,4.0332,30.41438,30.41438,0,0,0,6.69336,2.085l8.84082,2.085a22.50965,22.50965,0,0,1,8.71387,3.65723q4.5044,3.55518,4.50488,10.28808a14.4572,14.4572,0,0,1-5.33789,11.46778q-5.33788,4.56152-15.08008,4.5625-9.94921,0-15.64941-4.49414-5.70117-4.49415-5.7002-12.35645Z"/><path d="M395.59142,684.2824v-6.93847h5.19531V666.9533h9.63867v10.39063h6.04981v6.93847H410.4254v19.6875q0,2.291.58106,2.8545.58006.5625,3.55468.56347c.2959,0,.60938-.00488.93946-.0166s.65527-.02832.97461-.05176v7.28028l-4.61426.17089q-6.90528.23877-9.4336-2.39257-1.64062-1.67432-1.64062-5.16114V684.2824Z"/><path d="M453.79942,709.70037q-4.71679,5.82276-14.32128,5.82227-9.605,0-14.32129-5.82227a23.11486,23.11486,0,0,1,0-27.98633q4.71679-5.9077,14.32129-5.9082,9.60351,0,14.32128,5.9082a23.11486,23.11486,0,0,1,0,27.98633Zm-7.793-5.38379q2.28954-3.03809,2.29-8.63476,0-5.59863-2.29-8.61817a8.65837,8.65837,0,0,0-13.14258,0q-2.30566,3.02052-2.30664,8.61817,0,5.59716,2.30664,8.63476a8.62758,8.62758,0,0,0,13.14258,0Z"/><path d="M496.819,681.00115q4.55859,4.81933,4.55859,14.15039,0,9.84375-4.45508,15.00489a14.45826,14.45826,0,0,1-11.47266,5.16113,12.03068,12.03068,0,0,1-7.43066-2.22168,14.3532,14.3532,0,0,1-3.165-3.58887v19.41407h-9.63867V677.00213h9.33105v5.50293a15.68685,15.68685,0,0,1,3.3711-3.82813,12.4405,12.4405,0,0,1,7.77441-2.49511A14.73035,14.73035,0,0,1,496.819,681.00115Zm-7.47559,7.00684q-1.98633-3.31494-6.43945-3.31543a7.3241,7.3241,0,0,0-7.35547,5.02441,18.86154,18.86154,0,0,0-1.03614,6.76758q0,6.49512,3.48438,9.126a8.00137,8.00137,0,0,0,4.9043,1.53808,7.1307,7.1307,0,0,0,6.26953-3.14453,16.47143,16.47143,0,0,0,.17285-15.99609Z"/><path d="M539.57774,681.00115q4.55861,4.81933,4.5586,14.15039,0,9.84375-4.45508,15.00489a14.45827,14.45827,0,0,1-11.47266,5.16113,12.03068,12.03068,0,0,1-7.43066-2.22168,14.353,14.353,0,0,1-3.165-3.58887v19.41407h-9.63867V677.00213h9.33105v5.50293a15.68664,15.68664,0,0,1,3.3711-3.82813,12.4405,12.4405,0,0,1,7.77441-2.49511A14.73033,14.73033,0,0,1,539.57774,681.00115Zm-7.47558,7.00684q-1.98633-3.31494-6.43945-3.31543a7.3241,7.3241,0,0,0-7.35547,5.02441,18.86154,18.86154,0,0,0-1.03614,6.76758q0,6.49512,3.48438,9.126a8.00135,8.00135,0,0,0,4.9043,1.53808,7.1307,7.1307,0,0,0,6.26953-3.14453,16.47143,16.47143,0,0,0,.17285-15.99609Z"/><path d="M576.05333,669.1408a20.74306,20.74306,0,0,1,15.48731-6.2207q12.57861,0,18.39453,8.33984a18.18019,18.18019,0,0,1,3.44922,9.39942H602.857a14.3512,14.3512,0,0,0-2.57812-5.46875q-2.8125-3.28125-8.33789-3.28125a10.27238,10.27238,0,0,0-8.873,4.63183q-3.24756,4.63184-3.24805,13.10742,0,8.47706,3.42676,12.69727a10.73851,10.73851,0,0,0,8.71,4.22168q5.41553,0,8.25879-3.623a15.918,15.918,0,0,0,2.60742-5.84472h10.459a22.69513,22.69513,0,0,1-6.915,13.39843q-5.562,5.16212-14.252,5.16114-10.75341,0-16.90722-6.97266-6.15381-7.00635-6.1543-19.209Q569.05333,676.28533,576.05333,669.1408Z"/><path d="M652.07579,709.70037q-4.7168,5.82276-14.32129,5.82227-9.605,0-14.32129-5.82227a23.1149,23.1149,0,0,1,0-27.98633q4.71679-5.9077,14.32129-5.9082,9.60352,0,14.32129,5.9082a23.11486,23.11486,0,0,1,0,27.98633Zm-7.793-5.38379q2.28955-3.03809,2.29-8.63476,0-5.59863-2.29-8.61817a8.65837,8.65837,0,0,0-13.14258,0q-2.30565,3.02052-2.30664,8.61817,0,5.59716,2.30664,8.63476a8.62758,8.62758,0,0,0,13.14258,0Z"/><path d="M684.46153,676.131q.186.01758.83692.05078v9.98047q-.92286-.10254-1.64063-.13672-.71776-.03369-1.16211-.03418-5.87988,0-7.8955,3.82812a14.89394,14.89394,0,0,0-1.12793,6.63086V714.258h-9.80957V677.00213h9.29687v6.49414a20.5991,20.5991,0,0,1,3.93066-5.09277,10.70043,10.70043,0,0,1,7.10938-2.29C684.18126,676.11346,684.33556,676.11932,684.46153,676.131Z"/><path d="M722.07579,709.70037q-4.7168,5.82276-14.32129,5.82227-9.605,0-14.32129-5.82227a23.1149,23.1149,0,0,1,0-27.98633q4.71679-5.9077,14.32129-5.9082,9.60352,0,14.32129,5.9082a23.11486,23.11486,0,0,1,0,27.98633Zm-7.793-5.38379q2.28955-3.03809,2.29-8.63476,0-5.59863-2.29-8.61817a8.65837,8.65837,0,0,0-13.14258,0q-2.30565,3.02052-2.30664,8.61817,0,5.59716,2.30664,8.63476a8.62758,8.62758,0,0,0,13.14258,0Z"/><path d="M763.80724,679.13885q3.65917,3.02343,3.65918,10.03125V714.258H757.486V691.59686a10.40763,10.40763,0,0,0-.78028-4.51172q-1.42529-2.87109-5.42871-2.8711-4.92041,0-6.752,4.20411a14.53043,14.53043,0,0,0-.9502,5.67382v20.166H733.8336v-37.1875h9.4336v5.43457a16.50007,16.50007,0,0,1,3.54-4.13574,12.2627,12.2627,0,0,1,7.58984-2.25586A14.27542,14.27542,0,0,1,763.80724,679.13885Z"/><path d="M791.27989,691.59686a15.39306,15.39306,0,0,0,3.89063-.8545,2.92989,2.92989,0,0,0,2.10058-2.76855,3.27162,3.27162,0,0,0-1.61132-3.16113,10.16825,10.16825,0,0,0-4.72852-.87207q-3.49951,0-4.95508,1.709a7.04472,7.04472,0,0,0-1.38574,3.418H775.191a14.25823,14.25823,0,0,1,2.74609-8.03223q3.87891-4.92187,13.31934-4.92187a23.75693,23.75693,0,0,1,10.916,2.42676q4.771,2.42724,4.77149,9.16015v17.08985q0,1.77831.06835,4.30664a5.40795,5.40795,0,0,0,.58106,2.59765,3.47842,3.47842,0,0,0,1.43555,1.12793V714.258H798.43321a10.75438,10.75438,0,0,1-.61523-2.11914q-.17139-.99024-.27344-2.25586a20.10433,20.10433,0,0,1-4.67578,3.72559,14.13484,14.13484,0,0,1-7.15137,1.81152,12.33776,12.33776,0,0,1-8.40527-2.88867q-3.31787-2.88721-3.31738-8.18555,0-6.87012,5.33691-9.94629a23.8405,23.8405,0,0,1,8.6084-2.39258Zm5.95606,4.5459a10.685,10.685,0,0,1-1.8877.93945,15.888,15.888,0,0,1-2.61621.667l-2.21777.41016a14.6268,14.6268,0,0,0-4.47754,1.333,4.44889,4.44889,0,0,0-2.30078,4.13575,4.32262,4.32262,0,0,0,1.40527,3.60644,5.34658,5.34658,0,0,0,3.41895,1.11035,10.18228,10.18228,0,0,0,5.88281-1.8457q2.68945-1.8457,2.793-6.7334Z"/><path d="M827.01427,676.592a46.47357,46.47357,0,0,1,3.99219,18.59375,51.08113,51.08113,0,0,1-4.74219,20.918,44.57486,44.57486,0,0,1-5.01563,8.95508l-2.42285,3.31543h-7.19922a87.9669,87.9669,0,0,0,6.26563-13.33008,58.65384,58.65384,0,0,0,3.03125-19.24316,65.68,65.68,0,0,0-1.08985-12.37305,57.14012,57.14012,0,0,0-5.959-16.543l-2.07813-3.82812h7.33594A73.287,73.287,0,0,1,827.01427,676.592Z"/></svg>