<svg id="Layer_1" data-name="Layer 1" xmlns="http://www.w3.org/2000/svg" xmlns:xlink="http://www.w3.org/1999/xlink" viewBox="0 0 1280 800.98979"><defs><style>.cls-1{fill:none;}.cls-2{fill:#00008b;}.cls-3{clip-path:url(#clip-path);}.cls-4,.cls-7{stroke:#fff;}.cls-4,.cls-6,.cls-7,.cls-8{stroke-miterlimit:426.66669;}.cls-4,.cls-8{stroke-width:64.00001px;}.cls-5{clip-path:url(#clip-path-2);}.cls-6,.cls-8{stroke:red;}.cls-6{stroke-width:42.66667px;}.cls-7{stroke-width:106.66667px;}.cls-9{fill:#fff;}</style><clipPath id="clip-path"><rect class="cls-1" x="-0.00006" y="-0.00003" width="640.00004" height="320.00002"/></clipPath><clipPath id="clip-path-2"><path class="cls-1" d="M-.00006,0V160H640V320h0ZM640,0H320V320h-320Z"/></clipPath></defs><rect class="cls-2" x="-0.00006" y="-0.00003" width="1280.00007" height="640.00004"/><g class="cls-3"><path class="cls-4" d="M-.00006,0,640,320M640,0l-640,320"/></g><g class="cls-5"><path class="cls-6" d="M-.00006,0,640,320M640,0l-640,320"/></g><path class="cls-7" d="M320,0V320m-320-160H640"/><path class="cls-8" d="M320,0V320m-320-160H640"/><g id="Comwlth"><g id="Cstar"><path id="Star7" class="cls-9" d="M320,384l18.51237,57.55866L395.05578,420.145l-33.4589,50.36079L413.593,501.362l-60.23494,5.24022,8.2947,59.89078L320,522.66666,278.34712,566.493l8.29469-59.89078L226.40687,501.362,278.403,470.50577,244.94414,420.145l56.54345,21.41368Z"/></g></g><g id="αCrucis"><path id="Star7-2" data-name="Star7" class="cls-9" d="M960,487.61905l8.81542,27.40888,26.92545-10.197-15.93281,23.98133,24.76008,14.69345-28.6833,2.49534,3.94985,28.51942L960,553.6508l-19.83468,20.86968,3.94985-28.51942-28.6833-2.49534,24.76007-14.69345-15.9328-23.98133,26.92545,10.197Z"/></g><g id="βCrucis"><path id="Star7-3" data-name="Star7" class="cls-9" d="M800,234.2857l8.81541,27.40889,26.92545-10.197-15.9328,23.98134,24.76007,14.69344-28.6833,2.49535,3.94985,28.51942L800,300.31745,780.1653,321.18714l3.94985-28.51942-28.6833-2.49535,24.76008-14.69344-15.93281-23.98134,26.92545,10.197Z"/></g><g id="γCrucis"><path id="Star7-4" data-name="Star7" class="cls-9" d="M960,60.95235l8.81542,27.40889,26.92545-10.197-15.93281,23.98133,24.76008,14.69345-28.6833,2.49534,3.94985,28.51942L960,126.9841l-19.83468,20.86969,3.94985-28.51942-28.6833-2.49534,24.76007-14.69345-15.9328-23.98133,26.92545,10.197Z"/></g><g id="δCrucis"><path id="Star7-5" data-name="Star7" class="cls-9" d="M1102.22222,191.619l8.81542,27.40889,26.92545-10.197-15.93281,23.98134,24.76008,14.69344-28.6833,2.49535,3.94985,28.51942-19.83469-20.86969-19.83468,20.86969,3.94985-28.51942-28.6833-2.49535,24.76007-14.69344-15.9328-23.98134,26.92545,10.197Z"/></g><g id="εCrucis"><path id="Star5" class="cls-9" d="M1024,320l6.96634,17.07832,18.39517,1.34789-14.08973,11.90288,4.40249,17.91136L1024,358.51851l-15.67428,9.72193,4.4025-17.91136L998.63849,338.4262l18.39516-1.34789Z"/></g><path d="M275.7003,705.96482a21.15323,21.15323,0,0,1,15.79429-6.34405q12.82764,0,18.75944,8.505a18.53966,18.53966,0,0,1,3.51753,9.58553h-10.7361a14.63647,14.63647,0,0,0-2.62966-5.5772q-2.86837-3.34614-8.50231-3.34584a10.47712,10.47712,0,0,0-9.04984,4.723q-3.312,4.72392-3.31186,13.36758,0,8.64518,3.49478,12.94957a10.95275,10.95275,0,0,0,8.88209,4.305q5.52381,0,8.42253-3.69528a16.21588,16.21588,0,0,0,2.65938-5.96063h10.66634a23.14467,23.14467,0,0,1-7.052,13.66424q-5.67306,5.26356-14.53482,5.26355-10.96618,0-17.24244-7.11089-6.276-7.14546-6.2758-19.58968Q268.5618,713.25014,275.7003,705.96482Z"/><path d="M361.90915,747.40952q-5.8214,5.99611-16.836,5.99581-11.01488,0-16.836-5.99581-7.80843-7.35387-7.808-21.19314,0-14.11711,7.808-21.19313,5.82093-5.9943,16.836-5.99521,11.01441,0,16.836,5.99521,7.77247,7.07722,7.77308,21.19313Q369.68223,740.055,361.90915,747.40952Zm-6.70987-7.808q3.74655-4.70571,3.74715-13.38518,0-8.64426-3.74715-13.36757a12.24655,12.24655,0,0,0-10.12609-4.723,12.409,12.409,0,0,0-10.17826,4.7054q-3.79978,4.70571-3.79933,13.38517,0,8.67976,3.79933,13.38518a12.40948,12.40948,0,0,0,10.17826,4.706A12.26433,12.26433,0,0,0,355.19928,739.60156Z"/><path d="M407.93793,700.59692H419.092L401.57537,751.976H391.4326l-17.3759-51.37908h11.46806l11.15441,39.00464Z"/><path d="M435.2831,751.976H424.61676V700.59692H435.2831Z"/><path d="M475.42768,701.712a16.98157,16.98157,0,0,1,8.75621,6.51817,22.85746,22.85746,0,0,1,3.66283,8.29634,39.791,39.791,0,0,1,.97706,8.505q0,10.24773-4.11633,17.35892-5.58159,9.58614-17.233,9.58554h-22.1523V700.59692h22.1523A27.05352,27.05352,0,0,1,475.42768,701.712Zm-19.68311,7.808v33.53239h9.915q7.61094,0,10.613-7.49431a26.39358,26.39358,0,0,0,1.64106-9.79484q0-7.84255-2.46129-12.04259-2.46161-4.20066-9.79272-4.20065Z"/><path d="M504.61382,736.11618a10.42554,10.42554,0,0,0,1.95745,5.26355q2.6691,3.17142,9.14691,3.17172a19.68337,19.68337,0,0,0,6.29915-.83661q4.59151-1.60254,4.59136-5.96062a4.39216,4.39216,0,0,0-2.24866-3.93857,24.39865,24.39865,0,0,0-7.134-2.40548l-5.56234-1.22q-8.20064-1.81185-11.26755-3.93857-5.19439-3.55544-5.19379-11.11983a14.76659,14.76659,0,0,1,5.08094-11.46745q5.08155-4.56648,14.92675-4.56648a22.88536,22.88536,0,0,1,14.02612,4.305q5.80456,4.3053,6.08682,12.49638h-10.3178a7.35624,7.35624,0,0,0-4.14514-6.58854,14.20883,14.20883,0,0,0-6.39622-1.28919,12.17917,12.17917,0,0,0-6.79026,1.67262,5.29494,5.29494,0,0,0-2.53683,4.67082,4.4061,4.4061,0,0,0,2.50164,4.11329,31.02271,31.02271,0,0,0,6.82606,2.12641L523.481,722.731q5.92786,1.39414,8.88634,3.72987,4.59378,3.62552,4.59408,10.49191a14.74342,14.74342,0,0,1-5.44374,11.69436q-5.44328,4.65384-15.37841,4.65323-10.14672,0-15.96022-4.58347-5.81367-4.58284-5.8129-12.60073Z"/><path d="M558.73722,728.86575a15.71309,15.71309,0,0,0,3.968-.87119,2.98919,2.98919,0,0,0,2.14188-2.82348,3.33884,3.33884,0,0,0-1.64319-3.22451,10.38248,10.38248,0,0,0-4.8228-.88878q-3.56818,0-5.05273,1.743a7.18654,7.18654,0,0,0-1.41326,3.48537h-9.58554a14.53473,14.53473,0,0,1,2.80043-8.19138q3.95586-5.01968,13.58325-5.01906a24.22486,24.22486,0,0,1,11.13257,2.47464q4.86588,2.47526,4.86588,9.34165v17.42869q0,1.81276.06976,4.39176a5.52047,5.52047,0,0,0,.59243,2.64936,3.55,3.55,0,0,0,1.46422,1.15027V751.976H566.03224a11.03661,11.03661,0,0,1-.62731-2.161q-.17472-1.011-.27907-2.30052a20.51024,20.51024,0,0,1-4.7682,3.799,14.41015,14.41015,0,0,1-7.29289,1.84734,12.58162,12.58162,0,0,1-8.57208-2.94543q-3.38391-2.94482-3.38315-8.34791,0-7.00623,5.44252-10.14368a24.32473,24.32473,0,0,1,8.779-2.44006Zm6.07468,4.63625a11.07538,11.07538,0,0,1-1.9259.95855,16.32286,16.32286,0,0,1-2.66788.67948l-2.26109.418a14.90135,14.90135,0,0,0-4.56648,1.35956,4.53766,4.53766,0,0,0-2.34694,4.21764,4.40577,4.40577,0,0,0,1.43359,3.67769,5.447,5.447,0,0,0,3.48628,1.13267,10.38338,10.38338,0,0,0,5.99915-1.88192q2.74371-1.88283,2.84927-6.867Z"/><path d="M599.11174,700.12613q.76623.05187,2.09153.15653v8.087q-.83676-.10464-2.8062-.15652a3.22978,3.22978,0,0,0-2.71883.87119,3.16056,3.16056,0,0,0-.74925,2.03905v3.20691h6.51816v7.00654H594.929V751.976h-9.86461V721.33686h-5.57721v-7.00654h5.43767v-2.44006q0-6.099,2.05665-8.4007,2.16084-3.41529,10.42214-3.4156Q598.345,700.074,599.11174,700.12613Z"/><path d="M631.92188,714.75136a15.45434,15.45434,0,0,1,6.56579,5.62088,18.66131,18.66131,0,0,1,3.02672,7.85468,48.51349,48.51349,0,0,1,.32761,7.54042H614.16983q.23115,5.71766,3.97314,8.01727a10.09081,10.09081,0,0,0,5.47771,1.42934,7.71676,7.71676,0,0,0,7.56075-4.35718h10.14246a12.40622,12.40622,0,0,1-3.68315,6.8664q-5.10521,5.54293-14.29428,5.54263a20.7129,20.7129,0,0,1-13.38274-4.67447q-5.79819-4.67476-5.79773-15.21188,0-9.87189,5.23382-15.14029,5.23352-5.2681,13.58689-5.26841A21.63281,21.63281,0,0,1,631.92188,714.75136Zm-14.86153,8.58208a10.31886,10.31886,0,0,0-2.64633,5.88116h17.11473a8.28814,8.28814,0,0,0-2.64634-6.00371,8.70585,8.70585,0,0,0-5.89207-2.04875A7.87721,7.87721,0,0,0,617.06035,723.33344Z"/><path d="M669.2445,709.2148a74.68452,74.68452,0,0,1,8.05185-13.80317h7.49431l-2.12641,3.904a58.12074,58.12074,0,0,0-6.09956,16.87054,66.68375,66.68375,0,0,0-1.11568,12.61833,59.6136,59.6136,0,0,0,3.10195,19.62426,89.54173,89.54173,0,0,0,6.41382,13.59448H677.61l-2.47464-3.381a45.32667,45.32667,0,0,1-5.124-9.13235,52.00474,52.00474,0,0,1-4.84494-21.33267A47.31474,47.31474,0,0,1,669.2445,709.2148Z"/><path d="M705.9662,700.59692h12.14755L736.29168,751.976H724.6495l-3.39073-10.56169H702.33826L698.85531,751.976H687.62507Zm-.708,31.96351h13.15888l-6.49087-20.217Z"/><path d="M751.92521,713.98148V736.883a12.03636,12.03636,0,0,0,.7632,4.88013q1.35229,2.893,5.306,2.89265,5.06426,0,6.93738-4.11268a14.96962,14.96962,0,0,0,.97129-5.89086V713.98148h10.07331V751.976h-9.6553v-5.3679q-.13924.17472-.69465,1.04591a7.02227,7.02227,0,0,1-1.32074,1.53369,13.79136,13.79136,0,0,1-4.50156,2.85807,15.31657,15.31657,0,0,1-5.09247.76684q-8.41131,0-11.33156-6.065-1.63348-3.34614-1.63318-9.86461V713.98148Z"/><path d="M793.33533,739.84544a6.61662,6.61662,0,0,0,1.36624,3.765q1.85553,1.98657,6.86458,1.98688a10.5027,10.5027,0,0,0,4.67568-.8718,2.919,2.919,0,0,0,.33732-5.1586q-1.39689-.87088-10.393-2.9976-6.47569-1.60346-9.12507-4.00894a8.68948,8.68948,0,0,1-2.64876-6.83182,11.84177,11.84177,0,0,1,4.13877-9.04559q4.13967-3.78113,11.65006-3.782,7.12545,0,11.61488,2.84108,4.48822,2.84109,5.15253,9.81244h-9.93438a5.87337,5.87337,0,0,0-1.08292-3.03279q-1.64441-2.02116-5.593-2.02146a8.05282,8.05282,0,0,0-4.63139,1.01073,2.90829,2.90829,0,0,0-1.3808,2.3703,2.59224,2.59224,0,0,0,1.46877,2.47464q1.467.80264,10.37179,2.75372,5.93606,1.39506,8.9,4.21764a9.57714,9.57714,0,0,1,2.92784,7.14607,11.53667,11.53667,0,0,1-4.20915,9.21971q-4.20883,3.57183-13.00963,3.57274-8.97733,0-13.25534-3.782a12.293,12.293,0,0,1-4.2783-9.63832Z"/><path d="M821.43066,721.406v-7.0757h5.29813V703.73406h9.82942v10.59626h6.16993v7.0757h-6.16993v20.07806q0,2.336.59273,2.91024.59243.57513,3.62491.57514.4532,0,.95855-.017.50506-.01729.99374-.05218v7.42455l-4.706.17411q-7.04082.243-9.62012-2.44006-1.67352-1.7072-1.67322-5.26355V721.406Z"/><path d="M870.21255,713.09269q.1911.01821.8542.05278v10.17827q-.94186-.10466-1.67322-.13954-.73257-.03458-1.18545-.03519-5.99522,0-8.05185,3.904a15.18855,15.18855,0,0,0-1.15027,6.76265V751.976H849.00182V713.98148H858.483v6.62312a21.01016,21.01016,0,0,1,4.00894-5.19378,10.91179,10.91179,0,0,1,7.24982-2.33511Q870.02024,713.07571,870.21255,713.09269Z"/><path d="M891.93592,728.86575a15.70655,15.70655,0,0,0,3.96768-.87119,2.98911,2.98911,0,0,0,2.14219-2.82348,3.33917,3.33917,0,0,0-1.64289-3.22451,10.3847,10.3847,0,0,0-4.8231-.88878q-3.56818,0-5.05243,1.743a7.18083,7.18083,0,0,0-1.41356,3.48537h-9.58554a14.5325,14.5325,0,0,1,2.80043-8.19138q3.95586-5.01968,13.58356-5.01906a24.22664,24.22664,0,0,1,11.13257,2.47464q4.86586,2.47526,4.86557,9.34165v17.42869q0,1.81276.06977,4.39176a5.51609,5.51609,0,0,0,.59272,2.64936,3.549,3.549,0,0,0,1.46392,1.15027V751.976H899.23124a11.04083,11.04083,0,0,1-.62791-2.161q-.17473-1.011-.27847-2.30052a20.51166,20.51166,0,0,1-4.7685,3.799,14.40934,14.40934,0,0,1-7.29289,1.84734,12.5803,12.5803,0,0,1-8.57178-2.94543q-3.38436-2.94482-3.38345-8.34791,0-7.00623,5.44252-10.14368a24.32287,24.32287,0,0,1,8.77926-2.44006Zm6.07468,4.63625a11.05625,11.05625,0,0,1-1.92621.95855,16.30941,16.30941,0,0,1-2.66757.67948l-2.26109.418a14.9069,14.9069,0,0,0-4.56648,1.35956,4.53741,4.53741,0,0,0-2.34663,4.21764,4.40489,4.40489,0,0,0,1.43358,3.67769,5.44553,5.44553,0,0,0,3.486,1.13267,10.38563,10.38563,0,0,0,5.99945-1.88192q2.74281-1.88283,2.849-6.867Z"/><path d="M926.73324,751.976h-9.93438V700.59692h9.93438Z"/><path d="M946.63657,709.45019H936.56266v-9.16753h10.07391Zm-10.07391,4.53129h10.07391V751.976H936.56266Z"/><path d="M971.306,728.86575a15.70655,15.70655,0,0,0,3.96768-.87119,2.98911,2.98911,0,0,0,2.14219-2.82348,3.33917,3.33917,0,0,0-1.64289-3.22451,10.3847,10.3847,0,0,0-4.8231-.88878q-3.56818,0-5.05243,1.743a7.18083,7.18083,0,0,0-1.41356,3.48537h-9.58554a14.5325,14.5325,0,0,1,2.80043-8.19138q3.95586-5.01968,13.58356-5.01906a24.22664,24.22664,0,0,1,11.13257,2.47464q4.86586,2.47526,4.86557,9.34165v17.42869q0,1.81276.06977,4.39176a5.51609,5.51609,0,0,0,.59272,2.64936,3.549,3.549,0,0,0,1.46392,1.15027V751.976H978.6013a11.04083,11.04083,0,0,1-.62791-2.161q-.17473-1.011-.27847-2.30052a20.51166,20.51166,0,0,1-4.7685,3.799,14.40934,14.40934,0,0,1-7.29289,1.84734,12.5803,12.5803,0,0,1-8.57178-2.94543q-3.38436-2.94482-3.38345-8.34791,0-7.00623,5.44252-10.14368a24.32287,24.32287,0,0,1,8.77926-2.44006Zm6.07468,4.63625a11.05625,11.05625,0,0,1-1.92621.95855,16.30941,16.30941,0,0,1-2.66757.67948l-2.26109.418a14.9069,14.9069,0,0,0-4.56648,1.35956,4.53741,4.53741,0,0,0-2.34663,4.21764,4.40489,4.40489,0,0,0,1.43358,3.67769,5.44553,5.44553,0,0,0,3.486,1.13267,10.38563,10.38563,0,0,0,5.99945-1.88192q2.74281-1.88283,2.849-6.867Z"/><path d="M1007.74861,709.2148a47.38761,47.38761,0,0,1,4.07143,18.96237,52.0876,52.0876,0,0,1-4.83645,21.33267,45.36423,45.36423,0,0,1-5.11552,9.13235l-2.4704,3.381h-7.34143a89.736,89.736,0,0,0,6.39015-13.59448,59.82155,59.82155,0,0,0,3.09043-19.62426,67.00024,67.00024,0,0,0-1.11083-12.61833,58.29889,58.29889,0,0,0-6.07772-16.87054l-2.11852-3.904h7.481A74.79028,74.79028,0,0,1,1007.74861,709.2148Z"/></svg>