<svg xmlns="http://www.w3.org/2000/svg" role="img" viewBox="-23.98 -23.98 1246.96 772.96"><path fill="#3f9c35" d="M0 0h1200v600H0z"/><path fill="#ed2939" d="M0 0h1200v400H0z"/><path fill="#00b9e4" d="M0 0h1200v200H0z"/><circle cx="580" cy="300" r="90" fill="#fff"/><circle cx="600" cy="300" r="75" fill="#ed2939"/><path fill="#fff" d="M680 250l9.567 26.903 25.788-12.258-12.258 25.788L730 300l-26.903 9.567 12.258 25.788-25.788-12.258L680 350l-9.567-26.903-25.788 12.258 12.258-25.788L630 300l26.903-9.567-12.258-25.788 25.788 12.258L680 250z"/><path d="M129.20437 674.96947l9.6846-29.56122 9.38014 29.56122zm.97136-46.74123l-26.80661 75.12812h16.41162l5.19025-15.44027h27.67649l4.8423 15.44027h17.03503l-26.61815-75.12812zm8.77123 0zm40.7681 31.40245h26.56015l-28.48837 32.4173v11.30837h47.95905v-11.93177h-29.15528l28.18392-31.54743V647.8004h-45.05947zm22.52973-13.30907zm46.9152 15.1358c1.85574-2.10219 4.46536-3.16054 7.82887-3.16054 3.08806 0 5.68318 1.00036 7.77088 2.98657s3.24753 4.9003 3.494 8.74224H245.666c.47843-3.60998 1.65276-6.45157 3.494-8.56826zm20.31157-12.54068c-3.69697-1.72525-7.85787-2.59512-12.4827-2.59512-7.78537 0-14.10645 2.56613-18.99224 7.69838-4.8713 5.13226-7.30695 12.5117-7.30695 22.1238 0 10.26451 2.69661 17.67294 8.10433 22.22528 5.39322 4.55234 11.64181 6.82851 18.7023 6.82851 8.56825 0 15.22279-2.7111 19.9781-8.10433 3.05905-3.407 4.7698-6.75602 5.14675-10.04704H267.7898c-.78289 1.63826-1.68176 2.91408-2.69661 3.82745-1.87023 1.69625-4.30588 2.55163-7.29244 2.55163-2.8126 0-5.23375-.6959-7.23446-2.1022-3.29102-2.23268-5.04526-6.1471-5.24824-11.7143h38.0135c.07249-4.7988-.0725-8.46678-.44944-11.0184-.6524-4.34938-2.0587-8.16232-4.23338-11.46785-2.40665-3.72596-5.46571-6.46606-9.17717-8.2058zm-11.46784-2.59512zm65.97994.17397c-.18847-.0145-.42044-.0145-.6814-.0145-4.34937 0-7.88686 1.13084-10.61246 3.40701-1.65276 1.3628-3.60998 3.89994-5.85716 7.5969v-9.6846h-13.85999v55.55596h14.62838V676.8107c0-4.46535.56542-7.75637 1.68176-9.90206 2.00071-3.79845 5.92964-5.69768 11.7723-5.69768.44943 0 1.01485.0145 1.73974.0435.7104.04349 1.52228.10148 2.43565.20297v-14.87485c-.6379-.0435-1.05835-.05799-1.24682-.08699zm56.93325 7.98835c-4.1319-5.27724-9.84407-7.90136-17.15101-7.90136-4.04492 0-7.36494.84088-9.98906 2.55163-2.20368 1.3483-4.23338 3.32002-6.06012 5.90065v-26.70513h-14.4834v75.02663h14.22244v-6.9735c1.94272 2.71111 3.74046 4.61034 5.40772 5.69768 2.7836 1.84124 6.46606 2.7546 11.0619 2.7546 7.30694 0 12.99011-2.84159 17.06402-8.51026 4.08841-5.66868 6.11812-12.83065 6.11812-21.4569 0-8.3218-2.0587-15.1213-6.1906-20.38404zm-12.14924 33.8381c-2.0732 3.03006-4.98727 4.53784-8.71323 4.53784-4.32038 0-7.53891-1.56578-9.6411-4.69732-2.1022-3.11705-3.16055-7.06048-3.16055-11.81579 0-4.04491.50743-7.33594 1.53678-9.88757 1.95721-4.7988 5.58169-7.19096 10.84443-7.19096 5.20474 0 8.77123 2.45015 10.71394 7.33594 1.01486 2.59513 1.52228 5.85715 1.52228 9.78608 0 4.92929-1.02935 8.90171-3.10255 11.93178zm59.3689-11.97527v5.40772c-.10148 4.8568-1.46428 8.2058-4.1029 10.03254-2.62412 1.84124-5.5092 2.7546-8.64075 2.7546-1.95722 0-3.63897-.55092-5.01627-1.65276-1.3773-1.10184-2.0587-2.89958-2.0587-5.37872 0-2.7836 1.11633-4.8423 3.3635-6.1761 1.31932-.78289 3.5085-1.4353 6.56756-1.98621l3.26202-.60892c1.63827-.30445 2.91408-.6379 3.85644-.98585.92787-.36245 1.85574-.82638 2.7691-1.4063zm-8.81472-6.78502l-4.94378.60891c-5.6107.7249-9.85858 1.91373-12.74366 3.58099-5.26274 3.05905-7.90135 8.00284-7.90135 14.83135 0 5.26274 1.63826 9.33665 4.92928 12.20723 3.27653 2.87058 7.42293 4.30588 12.4537 4.30588 3.94343 0 7.48092-.89887 10.59796-2.71111 2.62412-1.52228 4.92929-3.37801 6.9445-5.5527.10148 1.26132.23196 2.37766.40594 3.36352.15948.98585.46393 2.0442.91337 3.16054h15.8027v-2.1457c-.95685-.43493-1.66725-1.00035-2.14568-1.68175-.47843-.6669-.76839-1.95721-.86988-3.87094-.05799-2.50813-.10148-4.65382-.10148-6.42257v-25.4728c0-6.69804-2.36316-11.25038-7.07498-13.67153-4.72631-2.40665-10.13403-3.60997-16.20865-3.60997-9.35114 0-15.94769 2.43564-19.77513 7.33593-2.42115 3.13155-3.78396 7.11847-4.08841 11.97527h14.01947c.34795-2.14569 1.01485-3.84194 2.0442-5.08876 1.4208-1.71076 3.85644-2.55163 7.29245-2.55163 3.04455 0 5.36422.43493 6.94449 1.2903 1.58027.86988 2.37766 2.45015 2.37766 4.72632 0 1.87023-1.04385 3.23304-3.11705 4.1174-1.14534.52193-3.07356.94237-5.75567 1.27582zm.76839-23.24013zm50.4092-5.14676v-13.41055h-14.72987v13.41055zm-14.72987 6.62554v55.55596h14.72987V647.8004zm43.98663-6.62554v-13.41055h-14.5269v13.41055zm-21.51488 72.83745v11.61282c1.2903.0435 2.37765.0725 3.23303.11599.86987.029 1.52228.04349 1.97171.04349 6.45157 0 10.78644-1.3483 12.99012-4.03042 2.21818-2.6821 3.32002-6.8285 3.32002-12.4392v-61.25362h-14.5269v61.00716c0 2.00071-.36244 3.34902-1.10184 4.04491-.7249.6959-1.81223 1.04385-3.23303 1.04385-.27546 0-.57991 0-.91337-.0145-.34795-.0145-.92786-.05799-1.73974-.13048zm65.95094-37.66554v5.40772c-.10148 4.8568-1.46428 8.2058-4.1029 10.03254-2.62412 1.84124-5.5092 2.7546-8.62625 2.7546-1.97172 0-3.65347-.55092-5.03077-1.65276-1.3773-1.10184-2.0587-2.89958-2.0587-5.37872 0-2.7836 1.11633-4.8423 3.3635-6.1761 1.31932-.78289 3.5085-1.4353 6.56756-1.98621l3.26202-.60892c1.63827-.30445 2.91408-.6379 3.85644-.98585.92787-.36245 1.85574-.82638 2.7691-1.4063zm-8.81472-6.78502l-4.94378.60891c-5.5962.7249-9.84408 1.91373-12.74366 3.58099-5.26274 3.05905-7.90135 8.00284-7.90135 14.83135 0 5.26274 1.63826 9.33665 4.92928 12.20723 3.27653 2.87058 7.42293 4.30588 12.4537 4.30588 3.94343 0 7.48091-.89887 10.59796-2.71111 2.62412-1.52228 4.92929-3.37801 6.9445-5.5527.10148 1.26132.23196 2.37766.40594 3.36352.15948.98585.47843 2.0442.91337 3.16054h15.8027v-2.1457c-.95685-.43493-1.66725-1.00035-2.14568-1.68175-.47843-.6669-.7684-1.95721-.86988-3.87094-.05799-2.50813-.10148-4.65382-.10148-6.42257v-25.4728c0-6.69804-2.34866-11.25038-7.07498-13.67153-4.72631-2.40665-10.13403-3.60997-16.20865-3.60997-9.35114 0-15.9332 2.43564-19.77513 7.33593-2.42115 3.13155-3.76946 7.11847-4.08841 11.97527h14.01947c.34795-2.14569 1.02935-3.84194 2.0442-5.08876 1.4208-1.71076 3.85644-2.55163 7.29244-2.55163 3.05906 0 5.37873.43493 6.9445 1.2903 1.58027.86988 2.37765 2.45015 2.37765 4.72632 0 1.87023-1.04384 3.23304-3.10255 4.1174-1.15983.52193-3.08805.94237-5.77016 1.27582zm.76839-23.24013zm80.34736 4.66832c-3.65347-3.01556-8.35079-4.50884-14.09196-4.50884-4.58133 0-8.36529 1.11633-11.36635 3.3635-1.66726 1.24683-3.4215 3.30553-5.29174 6.16162v-8.10433h-14.01946v55.45447h14.4689V673.2877c0-3.436.47843-6.2486 1.4353-8.46677 1.82673-4.1754 5.21924-6.2631 10.13402-6.2631 4.01592 0 6.72703 1.4208 8.16232 4.27689.78289 1.56577 1.17433 3.81294 1.17433 6.72702v33.7946h14.87485v-37.40457c0-6.9735-1.82674-11.96077-5.48021-14.96184zm-19.44168-4.66832zm70.74975 0c-4.42186 10.19202-6.62554 20.25357-6.62554 30.17013 0 8.59725 1.69625 17.15101 5.08876 25.64678 2.89958 7.30695 7.08947 14.72987 12.59868 22.26878h8.61175l-3.11705-5.71217c-4.27688-7.87236-7.24895-16.12167-8.9162-24.71892-1.08735-5.5962-1.62377-11.7288-1.62377-18.39784 0-10.3225 1.4063-19.67365 4.21889-28.02444 1.71075-5.00177 4.91478-11.81579 9.6411-20.44204l-8.36529-.10148-3.60998 4.98727c-2.82709 3.91444-5.4512 8.68425-7.90135 14.32393zm45.43642 15.1358c1.85573-2.10219 4.46535-3.16054 7.82886-3.16054 3.08806 0 5.68318 1.00036 7.77088 2.98657s3.24753 4.9003 3.494 8.74224h-22.58774c.47843-3.60998 1.63827-6.45157 3.494-8.56826zm20.31155-12.54068c-3.69696-1.72525-7.87235-2.59512-12.48269-2.59512-7.78537 0-14.12095 2.56613-18.99225 7.69838-4.87129 5.13226-7.30694 12.5117-7.30694 22.1238 0 10.26451 2.69661 17.67294 8.10433 22.22528 5.39322 4.55234 11.62731 6.82851 18.70229 6.82851 8.55376 0 15.2228-2.7111 19.9781-8.10433 3.05906-3.407 4.76981-6.75602 5.14676-10.04704h-14.83135c-.78289 1.63826-1.68176 2.91408-2.69661 3.82745-1.87023 1.69625-4.30588 2.55163-7.29244 2.55163-2.8271 0-5.23375-.6959-7.23446-2.1022-3.30552-2.23268-5.04527-6.1471-5.24824-11.7143h38.0135c.07249-4.7988-.08699-8.46678-.44944-11.0184-.6524-4.34938-2.0587-8.16232-4.23338-11.46785-2.42115-3.72596-5.48021-6.46606-9.17717-8.2058zm-11.46783-2.59512zm30.73554 21.05095v13.7585h29.25677v-13.7585zm94.90326-39.14433H786.8581v13.30907h22.58773v61.81905h15.80271V641.5373h22.47175zm38.6369 48.11853v5.40772c-.10148 4.8568-1.47878 8.2058-4.1029 10.03254-2.63862 1.84124-5.5092 2.7546-8.64075 2.7546-1.97172 0-3.63898-.55092-5.01628-1.65276-1.3773-1.10184-2.0732-2.89958-2.0732-5.37872 0-2.7836 1.13084-4.8423 3.36352-6.1761 1.3338-.78289 3.52299-1.4353 6.58204-1.98621l3.26203-.60892c1.62377-.30445 2.91408-.6379 3.84194-.98585.94237-.36245 1.87023-.82638 2.7836-1.4063zm-8.81472-6.78502l-4.94379.60891c-5.61068.7249-9.85857 1.91373-12.74365 3.58099-5.27724 3.05905-7.90136 8.00284-7.90136 14.83135 0 5.26274 1.63827 9.33665 4.9148 12.20723 3.27652 2.87058 7.43742 4.30588 12.46819 4.30588 3.92893 0 7.46641-.89887 10.59796-2.71111 2.60962-1.52228 4.92929-3.37801 6.93-5.5527.10148 1.26132.23196 2.37766.40594 3.36352.17397.98585.47843 2.0442.91337 3.16054h15.8027v-2.1457c-.94236-.43493-1.66725-1.00035-2.13118-1.68175-.47843-.6669-.7684-1.95721-.86988-3.87094-.07249-2.50813-.10148-4.65382-.10148-6.42257v-25.4728c0-6.69804-2.36316-11.25038-7.08948-13.67153-4.72631-2.40665-10.11953-3.60997-16.20865-3.60997-9.33665 0-15.9332 2.43564-19.77513 7.33593-2.40666 3.13155-3.76946 7.11847-4.07391 11.97527h14.01947c.33345-2.14569 1.01485-3.84194 2.0297-5.08876 1.4353-1.71076 3.85644-2.55163 7.29245-2.55163 3.05905 0 5.37872.43493 6.95899 1.2903 1.58027.86988 2.36315 2.45015 2.36315 4.72632 0 1.87023-1.02935 3.23304-3.10255 4.1174-1.15983.52193-3.07355.94237-5.75566 1.27582zm.75389-23.24013zm82.65253 8.16232c-4.1319-5.27724-9.84408-7.90136-17.15102-7.90136-4.04491 0-7.37943.84088-9.98905 2.55163-2.20368 1.3483-4.23339 3.32002-6.06012 5.90065v-26.70513h-14.4834v75.02663h14.22243v-6.9735c1.94272 2.71112 3.74046 4.61034 5.40772 5.69768 2.7836 1.84124 6.46606 2.7546 11.0619 2.7546 7.29244 0 12.99012-2.84158 17.06403-8.51026 4.0739-5.66868 6.11811-12.83065 6.11811-21.4569 0-8.32179-2.0587-15.1213-6.1906-20.38404zm-12.16374 33.8381c-2.0587 3.03006-4.97278 4.53784-8.71324 4.53784-4.30588 0-7.52441-1.56578-9.6266-4.69732-2.1022-3.11705-3.16055-7.06048-3.16055-11.81579 0-4.04491.50743-7.33594 1.52228-9.88757 1.97172-4.7988 5.5962-7.19096 10.85893-7.19096 5.20475 0 8.77123 2.45015 10.69945 7.33594 1.02935 2.59513 1.53678 5.85715 1.53678 9.78608 0 4.92929-1.04385 8.90171-3.11705 11.93178zm43.68217-47.14718v-13.41055h-14.72987v13.41055zm-14.72987 6.62554v55.55596h14.72987V647.8004zm75.969 6.68354c-4.1174-5.27724-9.84407-7.90136-17.15101-7.90136-4.04492 0-7.36494.84088-9.98906 2.55163-2.20368 1.3483-4.21889 3.32002-6.06012 5.90065v-26.70513h-14.4689v75.02663h14.20794v-6.9735c1.94272 2.71112 3.74046 4.61034 5.40771 5.69768 2.7836 1.84124 6.48057 2.7546 11.0619 2.7546 7.30694 0 12.99012-2.84158 17.07853-8.51026 4.0739-5.66868 6.11811-12.83065 6.11811-21.4569 0-8.32179-2.0732-15.1213-6.2051-20.38404zm-12.14924 33.8381c-2.0732 3.03006-4.97278 4.53784-8.71324 4.53784-4.32037 0-7.5244-1.56578-9.6411-4.69732-2.1022-3.11705-3.16054-7.06048-3.16054-11.81579 0-4.04491.50742-7.33594 1.53677-9.88757 1.97172-4.7988 5.5817-7.19096 10.85893-7.19096 5.19025 0 8.75673 2.45015 10.69945 7.33594 1.01485 2.59513 1.52228 5.85715 1.52228 9.78608 0 4.92929-1.02935 8.90171-3.10255 11.93178zm46.03083-41.13055c-2.6966-6.2486-6.61104-12.97562-11.78679-20.18107h-10.94591l3.10255 5.69767c4.27688 7.85786 7.24895 16.07817 8.9162 24.67543 1.08735 5.63968 1.63827 11.78679 1.63827 18.45582 0 10.395-1.52228 19.96361-4.53785 28.69135-1.76874 5.16125-4.90029 11.78679-9.38014 19.87662h10.75745l3.60997-4.94379c2.34866-2.98656 4.8423-7.43742 7.49542-13.35256 4.72631-10.56897 7.08947-20.96396 7.08947-31.19948 0-9.30765-1.98621-18.54282-5.95864-27.71999z"/></svg>