<svg id="Layer_1" data-name="Layer 1" xmlns="http://www.w3.org/2000/svg" viewBox="0 0 1500 1157.82728"><defs><style>.cls-1{fill:#fff;}.cls-2{fill:#ce1126;}</style></defs><path class="cls-1" d="M-.17285,0h1500V900h-1500"/><path class="cls-2" d="M1499.82715,0h-1125l225,90-225,90,225,90-225,90,225,90-225,90,225,90-225,90,225,90-225,90h1125"/><path d="M330.71538,998.29788a21.76579,21.76579,0,0,1,3.92691,13.06q0,7.836-3.96259,12.59519a20.43721,20.43721,0,0,1-6.52507,4.87607,19.0576,19.0576,0,0,1,9.88283,7.54605,22.64191,22.64191,0,0,1,3.33279,12.5372,25.01593,25.01593,0,0,1-3.80915,13.63981,23.556,23.556,0,0,1-15.72592,11.0287,59.23059,59.23059,0,0,1-12.08938,1.16059H267.19573v-85.5561H308.542Q324.19054,989.41818,330.71538,998.29788Zm-46.45473,5.74674v18.86379h20.79379a17.18911,17.18911,0,0,0,9.04786-2.11868q3.4744-2.11822,3.47507-7.51661,0-5.97733-4.59507-7.894a32.23418,32.23418,0,0,0-10.11076-1.33454Zm0,33.02635v22.81121h20.77149a20.17037,20.17037,0,0,0,8.66382-1.50939q5.62206-2.78593,5.62274-10.6799,0-6.67315-5.45057-9.17052a21.62848,21.62848,0,0,0-8.54964-1.4514Z"/><path d="M392.64357,1012.75572a25.73068,25.73068,0,0,1,10.93326,9.35964,31.09688,31.09688,0,0,1,5.04066,13.07958,80.86618,80.86618,0,0,1,.54506,12.55593H363.08338q.38471,9.52066,6.61606,13.35078a16.80133,16.80133,0,0,0,9.121,2.37916,12.847,12.847,0,0,0,12.58983-7.25524H408.299q-.66773,5.63077-6.13256,11.4346-8.501,9.22894-23.80231,9.2285a34.48747,34.48747,0,0,1-22.28489-7.78334q-9.65512-7.78512-9.65446-25.33043,0-16.43868,8.71556-25.21089,8.7151-8.77265,22.62432-8.77354A36.02573,36.02573,0,0,1,392.64357,1012.75572Zm-24.747,14.29013a17.18857,17.18857,0,0,0-4.40684,9.79318h28.49907q-.4516-6.58752-4.40639-9.99658a14.49674,14.49674,0,0,0-9.81148-3.41129Q371.40152,1023.43116,367.89656,1027.04585Z"/><path d="M443.32852,989.18535h20.22821l30.2694,85.5561H474.43958l-5.64548-17.58723H437.2874l-5.79982,17.58723H412.78749Zm-1.178,53.22557h21.91112l-10.80792-33.66507Z"/><path d="M531.11926,1011.47381h16.77455l9.63529,45.56444,9.86722-45.56444H584.6352l-18.34148,63.26764H549.28678l-9.92521-46.0863-10.04162,46.0863H512.13906l-17.76119-63.26764h17.76119l9.86722,45.39049Z"/><path d="M618.807,1036.25829a26.17575,26.17575,0,0,0,6.60669-1.45051q3.5674-1.50939,3.567-4.70212,0-3.88722-2.736-5.3685-2.73576-1.47994-8.03089-1.47995-5.94255,0-8.41359,2.90192a11.96521,11.96521,0,0,0-2.35329,5.80472H591.48454q.52387-8.3003,4.66376-13.6407,6.58685-8.35784,22.61852-8.35784a40.33956,40.33956,0,0,1,18.53774,4.12049q8.10225,4.12272,8.1027,15.556v29.02183q0,3.01878.116,7.31322a9.18286,9.18286,0,0,0,.98664,4.4113,5.91686,5.91686,0,0,0,2.438,1.91528v2.438H630.95433a18.37089,18.37089,0,0,1-1.04506-3.59862q-.291-1.68334-.46433-3.83057a34.16057,34.16057,0,0,1-7.9399,6.32659,24.00248,24.00248,0,0,1-12.14379,3.07587q-8.64152,0-14.27407-4.90462-5.63478-4.90417-5.63389-13.90119,0-11.667,9.063-16.89052,4.97042-2.84347,14.61841-4.06339Zm10.11477,7.72a18.27128,18.27128,0,0,1-3.207,1.59592,27.0307,27.0307,0,0,1-4.44208,1.132l-3.76544.6967a24.73986,24.73986,0,0,0-7.60359,2.26409,7.55385,7.55385,0,0,0-3.90818,7.02329q0,4.23646,2.38719,6.1232a9.06945,9.06945,0,0,0,5.80517,1.88673,17.29177,17.29177,0,0,0,9.98989-3.13475q4.56831-3.13385,4.744-11.43459Z"/><path d="M695.00477,1009.99386q.31847.03078,1.422.08742v16.94851q-1.56691-.174-2.78594-.23194-1.219-.05754-1.97327-.058-9.98431,0-13.40831,6.50054-1.9155,3.657-1.91528,11.26064v30.2404H659.68535v-63.26764h15.78791v11.02871q3.831-6.32659,6.67494-8.64866,4.64325-3.88854,12.07288-3.88855Q694.68541,1009.96531,695.00477,1009.99386Z"/><path d="M747.34718,1012.75572a25.72817,25.72817,0,0,1,10.93326,9.35964,31.10218,31.10218,0,0,1,5.04021,13.07958,80.78606,80.78606,0,0,1,.54595,12.55593H717.787q.38471,9.52066,6.61606,13.35078a16.80133,16.80133,0,0,0,9.121,2.37916,12.84857,12.84857,0,0,0,12.59028-7.25524h16.88873q-.669,5.63077-6.133,11.4346-8.501,9.22894-23.80231,9.2285a34.48747,34.48747,0,0,1-22.28489-7.78334q-9.65512-7.78512-9.65446-25.33043,0-16.43868,8.71556-25.21089,8.7151-8.77265,22.62432-8.77354A36.02573,36.02573,0,0,1,747.34718,1012.75572Zm-24.747,14.29013a17.18857,17.18857,0,0,0-4.40684,9.79318H746.6924q-.45228-6.58752-4.4064-9.99658a14.4967,14.4967,0,0,0-9.81147-3.41129Q726.10513,1023.43116,722.60017,1027.04585Z"/><path d="M870.40338,998.29788a21.76586,21.76586,0,0,1,3.92691,13.06q0,7.836-3.9626,12.59519a20.44911,20.44911,0,0,1-6.52641,4.87607,19.05748,19.05748,0,0,1,9.88418,7.54605,22.64564,22.64564,0,0,1,3.33279,12.5372,25.02347,25.02347,0,0,1-3.80916,13.63981,23.55453,23.55453,0,0,1-15.72725,11.0287,59.21809,59.21809,0,0,1-12.08938,1.16059H806.88417v-85.5561H848.23Q863.87787,989.41818,870.40338,998.29788Zm-46.45562,5.74674v18.86379H844.742a17.1896,17.1896,0,0,0,9.04741-2.11868q3.47373-2.11822,3.47552-7.51661,0-5.97733-4.596-7.894a32.226,32.226,0,0,0-10.109-1.33454Zm0,33.02635v22.81121h20.771a20.17032,20.17032,0,0,0,8.66381-1.50939q5.62275-2.78593,5.62364-10.6799,0-6.67315-5.45057-9.17052a21.63322,21.63322,0,0,0-8.54964-1.4514Z"/><path d="M916.16318,1036.25829a26.17094,26.17094,0,0,0,6.6067-1.45051q3.56741-1.50939,3.56829-4.70212,0-3.88722-2.73688-5.3685-2.7351-1.47994-8.03044-1.47995-5.94389,0-8.414,2.90192a11.95236,11.95236,0,0,0-2.35329,5.80472H888.84075q.52455-8.3003,4.66376-13.6407,6.58619-8.35784,22.61942-8.35784a40.33766,40.33766,0,0,1,18.53729,4.12049q8.1036,4.12272,8.10181,15.556v29.02183q0,3.01878.116,7.31322a9.2,9.2,0,0,0,.98842,4.4113,5.90219,5.90219,0,0,0,2.43714,1.91528v2.438H928.31144a18.34307,18.34307,0,0,1-1.04551-3.59862q-.29171-1.68334-.46388-3.83057a34.1495,34.1495,0,0,1-7.94124,6.32659,23.99682,23.99682,0,0,1-12.1429,3.07587q-8.64151,0-14.275-4.90462-5.63345-4.90417-5.63256-13.90119,0-11.667,9.06169-16.89052,4.97241-2.84347,14.6193-4.06339Zm10.11612,7.72a18.32523,18.32523,0,0,1-3.2079,1.59592,27.01375,27.01375,0,0,1-4.44253,1.132l-3.76455.6967a24.74358,24.74358,0,0,0-7.604,2.26409,7.55472,7.55472,0,0,0-3.90728,7.02329q0,4.23646,2.3854,6.1232a9.07417,9.07417,0,0,0,5.80562,1.88673,17.28738,17.28738,0,0,0,9.98944-3.13475q4.56829-3.13385,4.74583-11.43459Z"/><path d="M1002.6854,1011.8244a18.58051,18.58051,0,0,1,7.83062,6.216,16.58212,16.58212,0,0,1,3.17756,7.29181,90.1985,90.1985,0,0,1,.57807,12.22766v37.18162H997.38113v-38.526a17.08428,17.08428,0,0,0-1.72706-8.25168q-2.248-4.41576-8.52822-4.41666-6.51125,0-9.88239,4.38811-3.36936,4.38633-3.36847,12.52115v34.28506H957.33238V989.47528H973.875v30.18331a20.2208,20.2208,0,0,1,8.29271-7.69146,23.35734,23.35734,0,0,1,9.91094-2.17666A26.79145,26.79145,0,0,1,1002.6854,1011.8244Z"/><path d="M1064.97354,1009.99386q.31847.03078,1.422.08742v16.94851q-1.5656-.174-2.78506-.23194-1.22035-.05754-1.97326-.058-9.985,0-13.40787,6.50054-1.91617,3.657-1.91617,11.26064v30.2404h-16.65859v-63.26764h15.78792v11.02871q3.82968-6.32659,6.6745-8.64866,4.64323-3.88854,12.07332-3.88855C1064.499,1009.96531,1064.76123,1009.97513,1064.97354,1009.99386Z"/><path d="M1101.14712,1036.25829a26.17094,26.17094,0,0,0,6.6067-1.45051q3.56741-1.50939,3.56829-4.70212,0-3.88722-2.73688-5.3685-2.7351-1.47994-8.03044-1.47995-5.94388,0-8.414,2.90192a11.95236,11.95236,0,0,0-2.35329,5.80472h-15.96277q.52455-8.3003,4.66376-13.6407,6.58618-8.35784,22.61942-8.35784a40.33766,40.33766,0,0,1,18.53729,4.12049q8.1036,4.12272,8.10181,15.556v29.02183q0,3.01878.116,7.31322a9.2,9.2,0,0,0,.98842,4.4113,5.90219,5.90219,0,0,0,2.43714,1.91528v2.438h-17.99312a18.34307,18.34307,0,0,1-1.04551-3.59862q-.29171-1.68334-.46388-3.83057a34.1495,34.1495,0,0,1-7.94124,6.32659,23.99682,23.99682,0,0,1-12.1429,3.07587q-8.64151,0-14.275-4.90462-5.63344-4.90417-5.63256-13.90119,0-11.667,9.06169-16.89052,4.97241-2.84347,14.6193-4.06339Zm10.11612,7.72a18.32523,18.32523,0,0,1-3.2079,1.59592,27.01375,27.01375,0,0,1-4.44253,1.132l-3.76455.6967a24.74358,24.74358,0,0,0-7.604,2.26409,7.55472,7.55472,0,0,0-3.90728,7.02329q0,4.23646,2.3854,6.1232a9.07417,9.07417,0,0,0,5.80562,1.88673,17.28738,17.28738,0,0,0,9.98944-3.13475q4.5683-3.13385,4.74583-11.43459Z"/><path d="M1159.20684,1003.92865h-16.77455v-15.266h16.77455Zm-16.77455,7.54516h16.77455v63.26764h-16.77455Z"/><path d="M1226.24438,1015.10187q6.21418,5.137,6.21419,17.03593v42.60365h-16.9494v-38.48316a17.67517,17.67517,0,0,0-1.32562-7.66113q-2.422-4.87607-9.21869-4.87607-8.35517,0-11.46671,7.13926a24.68118,24.68118,0,0,0-1.61287,9.63529v34.24581h-16.54262v-63.15167h16.01986v9.22939a28.05874,28.05874,0,0,1,6.01079-7.02329q5.0875-3.831,12.89047-3.83057Q1220.032,1009.96531,1226.24438,1015.10187Z"/></svg>