<svg xmlns="http://www.w3.org/2000/svg" role="img" viewBox="-191.80 -191.80 9973.60 6113.60"><path fill="#d52b1e" d="M0 0h2400l99 99h4602l99-99h2400v4800H7200l-99-99H2499l-99 99H0z"/><path fill="#fff" d="M2400 0h4800v4800H2400zm2490 4430l-45-863a95 95 0 0 1 111-98l859 151-116-320a65 65 0 0 1 20-73l941-762-212-99a65 65 0 0 1-34-79l186-572-542 115a65 65 0 0 1-73-38l-105-247-423 454a65 65 0 0 1-111-57l204-1052-327 189a65 65 0 0 1-91-27l-332-652-332 652a65 65 0 0 1-91 27l-327-189 204 1052a65 65 0 0 1-111 57l-423-454-105 247a65 65 0 0 1-73 38l-542-115 186 572a65 65 0 0 1-34 79l-212 99 941 762a65 65 0 0 1 20 73l-116 320 859-151a95 95 0 0 1 111 98l-45 863z"/><path d="M918.86495 5079.25735c-52.2863 52.71752-78.48335 127.96667-78.48335 225.42402 0 90.23429 23.07065 161.27897 68.99635 213.02623 46.0335 51.53165 109.20829 77.29748 189.52435 77.29748 64.8997 0 118.15626-19.0818 159.76968-57.24541 41.50562-38.0558 67.37925-87.64693 77.51309-148.55777h-115.56889c-7.8699 28.78441-17.68032 50.45358-29.64687 64.79188-21.45355 26.8439-52.60972 40.21194-93.5763 40.21194-39.88852 0-72.8774-15.63199-98.75103-46.78815-25.87363-31.26397-38.81045-78.15993-38.81045-140.79568s12.28998-111.14881 36.76212-145.32357c24.47214-34.28256 58.00006-51.42384 100.47594-51.42384 41.61342 0 73.093 12.18217 94.33095 36.4387 11.85875 13.58365 21.56136 33.85133 29.21564 60.58742h116.64696c-1.72491-34.8216-14.66173-69.53539-38.59484-104.24918-43.44614-61.55768-112.22688-92.39042-206.2344-92.39042-70.18223 0-128.07448 22.96284-173.56895 68.99635zm170.22693-75.46476zm555.20502 374.84424v40.21194c-.75464 36.11528-10.88848 61.01865-30.50932 74.6023-19.62084 13.69147-40.96658 20.4833-64.25285 20.4833-14.66173 0-27.05951-4.09666-37.30116-12.28998-10.24164-8.19332-15.30856-21.56136-15.30856-39.99632 0-20.6989 8.30112-36.00747 25.01118-45.9257 9.81041-5.82157 26.08924-10.67287 48.83648-14.76953l24.25653-4.52789c12.18216-2.26394 21.66916-4.7435 28.5688-7.33086 7.00744-2.69517 13.90708-6.14499 20.6989-10.45726zm-65.54653-50.45358l-36.76212 4.52788c-41.72123 5.39034-73.30862 14.2305-94.76218 26.62828-39.13386 22.74724-58.7547 59.50936-58.7547 110.28636 0 39.13387 12.18217 69.42758 36.5465 90.77333 24.36434 21.34574 55.3049 32.01862 92.71385 32.01862 29.32345 0 55.5205-6.68403 78.80677-20.15988 19.51303-11.31971 36.65431-25.11898 51.53165-41.29.75465 9.3792 1.83272 17.68031 3.0186 25.01118 1.29367 7.33086 3.55762 15.20076 6.89963 23.50188h117.4016v-15.9554c-7.00744-3.23421-12.28997-7.43868-15.8476-12.5056-3.55762-4.9591-5.71376-14.55391-6.4684-28.78441-.53904-18.65058-.75465-34.60598-.75465-47.75841v-189.41655c0-49.80674-17.57251-83.65808-52.71753-101.66181-35.0372-17.89593-75.24914-26.8439-120.528-26.8439-69.42758 0-118.47967 18.11155-147.04848 54.55024-17.89592 23.28627-28.02976 52.93314-30.2937 89.04842h104.24917c2.47956-15.9554 7.54648-28.5688 15.20076-37.84019 10.56506-12.7212 28.6766-18.974 54.11901-18.974 22.74724 0 39.99632 3.23421 51.74727 9.59481 11.75094 6.46841 17.68031 18.21935 17.68031 35.14502 0 13.90708-7.76209 24.04092-23.17846 30.61713-8.62454 3.88104-22.85504 7.00744-42.7993 9.487zm5.71376-172.8143zm597.46529 34.71379c-27.16732-22.42382-62.09672-33.52792-104.78821-33.52792-34.06695 0-62.31233 8.30113-84.52054 25.01118-12.39778 9.27139-25.5502 24.57995-39.45728 45.81789v-60.264h-104.14137v412.361h107.59118v-223.5913c0-25.5502 3.55763-46.46472 10.56507-62.95917 13.69146-31.04835 38.81045-46.57253 75.46476-46.57253 29.86248 0 50.02236 10.56506 60.69523 31.803 5.71376 11.64314 8.62454 28.3532 8.62454 50.02236v251.29765h110.71759v-278.14154c0-51.85508-13.58366-88.94061-40.75097-111.25662zm-144.56892-34.7138zm512.72914 223.2679v40.21193c-.75465 36.11528-10.88849 61.01865-30.50933 74.6023-19.51303 13.69147-40.96658 20.4833-64.14504 20.4833-14.66173 0-27.16732-4.09666-37.40896-12.28998-10.24165-8.19332-15.30857-21.56136-15.30857-39.99632 0-20.6989 8.30113-36.00747 25.01118-45.9257 9.81042-5.82157 26.08925-10.67287 48.83648-14.76953l24.25653-4.52789c12.18217-2.26394 21.66917-4.7435 28.6766-7.33086 6.89964-2.69517 13.79928-6.14499 20.5911-10.45726zm-65.54654-50.4536l-36.76212 4.5279c-41.72123 5.39033-73.20081 14.2305-94.76217 26.62827-39.13387 22.74724-58.7547 59.50936-58.7547 110.28636 0 39.13387 12.18216 69.42758 36.6543 90.77333 24.36434 21.34574 55.19708 32.01862 92.60604 32.01862 29.32345 0 55.62831-6.68403 78.80678-20.15988 19.51303-11.31971 36.6543-25.11898 51.63945-41.29.75465 9.3792 1.72491 17.68031 3.0186 25.01118 1.18587 7.33086 3.55762 15.20076 6.79182 23.50188h117.50941v-15.9554c-7.11525-3.23421-12.39778-7.43868-15.9554-12.5056-3.55763-4.9591-5.71376-14.55391-6.46841-28.78441-.43123-18.65058-.75465-34.60598-.75465-47.75841v-189.41655c0-49.80674-17.5725-83.65808-52.60972-101.66181-35.14501-17.89593-75.35695-26.8439-120.528-26.8439-69.53539 0-118.47967 18.11155-147.04847 54.55024-18.00374 23.28627-28.02977 52.93314-30.40152 89.04842h104.24917c2.58737-15.9554 7.65429-28.5688 15.20076-37.84019 10.56507-12.7212 28.67661-18.974 54.22682-18.974 22.74724 0 39.88852 3.23421 51.63946 9.59481 11.75094 6.46841 17.68031 18.21935 17.68031 35.14502 0 13.90708-7.76208 24.04092-23.17846 30.61713-8.51673 3.88104-22.85504 7.00744-42.7993 9.487zm5.71376-172.8143zm482.86666 17.68032c-19.51303-10.99629-41.72123-16.49444-66.7324-16.49444-54.33464 0-97.67297 20.15987-130.23062 60.58742-32.44985 40.42755-48.62087 95.94806-48.62087 166.4537 0 61.12646 16.49444 111.14881 49.48332 150.28268 32.88108 39.02606 73.52424 58.5391 121.82169 58.5391 29.32345 0 53.79559-5.60596 73.52423-16.71006 19.72865-11.1041 37.30116-28.89222 52.71753-53.47217v57.2454h104.89601v-557.90018h-109.5317v197.07083c-12.07437-19.40522-27.92197-34.60598-47.32719-45.60228zm26.52047 294.31257c-15.9554 22.63943-39.13386 34.06695-69.751 34.06695-30.61713 0-53.36436-11.42752-68.3495-34.28257-15.09296-22.85504-22.63944-53.36436-22.63944-91.52797 0-35.36063 7.43867-65.0075 22.2082-88.94061 14.76954-23.8253 37.948-35.79186 69.5354-35.79186 20.6989 0 38.91825 6.57622 54.55023 19.72865 25.55021 21.66916 38.27142 57.89225 38.27142 108.34583 0 36.22309-7.8699 65.65434-23.8253 88.40158zm456.34619-88.725v40.21194c-.75465 36.11528-10.9963 61.01865-30.50933 74.6023-19.62083 13.69147-41.07439 20.4833-64.25285 20.4833-14.66172 0-27.16731-4.09666-37.30115-12.28998-10.24165-8.19332-15.41637-21.56136-15.41637-39.99632 0-20.6989 8.40893-36.00747 25.01117-45.9257 9.91823-5.82157 26.19706-10.67287 48.94429-14.76953l24.25653-4.52789c12.07436-2.26394 21.66917-4.7435 28.5688-7.33086 7.00744-2.69517 13.79927-6.14499 20.6989-10.45726zm-65.54654-50.45358l-36.76212 4.52788c-41.72123 5.39034-73.30862 14.2305-94.76217 26.62828-39.24168 22.74724-58.7547 59.50936-58.7547 110.28636 0 39.13387 12.18216 69.42758 36.5465 90.77333 24.36433 21.34574 55.30489 32.01862 92.71384 32.01862 29.21565 0 55.5205-6.68403 78.80678-20.15988 19.40522-11.31971 36.6543-25.11898 51.53165-41.29.75464 9.3792 1.7249 17.68031 3.01859 25.01118 1.29368 7.33086 3.55762 15.20076 6.79182 23.50188h117.50942v-15.9554c-7.00745-3.23421-12.39779-7.43868-15.8476-12.5056-3.55763-4.9591-5.71376-14.55391-6.46841-28.78441-.53903-18.65058-.75465-34.60598-.75465-47.75841v-189.41655c0-49.80674-17.5725-83.65808-52.71752-101.66181-35.14502-17.89593-75.24915-26.8439-120.528-26.8439-69.42759 0-118.47968 18.11155-147.04848 54.55024-17.89593 23.28627-28.02977 52.93314-30.29371 89.04842h104.24917c2.47956-15.9554 7.54648-28.5688 15.09296-37.84019 10.67287-12.7212 28.6766-18.974 54.22682-18.974 22.74723 0 39.99632 3.23421 51.74726 9.59481 11.75094 6.46841 17.5725 18.21935 17.5725 35.14502 0 13.90708-7.65427 24.04092-23.07065 30.61713-8.62454 3.88104-22.85504 7.00744-42.7993 9.487zm5.60596-172.8143zm504.85924 0c-32.88107 75.78818-49.2677 150.6061-49.2677 224.34595 0 63.92943 12.61339 127.53544 37.94799 190.71023 21.45355 54.33463 52.60972 109.5317 93.5763 165.59124h64.03724l-23.07066-42.47588c-31.9108-58.53909-54.0112-119.88116-66.40898-183.81059-8.08551-41.61343-12.07437-87.2157-12.07437-136.80683 0-76.75844 10.45726-146.29383 31.47959-208.39054 12.6134-37.19335 36.4387-87.86255 71.58371-152.0076l-62.09671-.75464-26.9517 37.08554c-20.91452 29.10784-40.53536 64.57627-58.7547 106.51312zm296.03747-76.1116c-52.2863 52.71752-78.48335 127.96667-78.48335 225.42402 0 90.23429 22.96285 161.27897 68.99636 213.02623 45.9257 51.53165 109.10048 77.29748 189.52435 77.29748 64.8997 0 118.15625-19.0818 159.76968-57.24541 41.50562-38.0558 67.37925-87.64693 77.51309-148.55777h-115.6767c-7.76209 28.78441-17.68031 50.45358-29.53906 64.79188-21.45356 26.8439-52.71753 40.21194-93.5763 40.21194-39.99633 0-72.8774-15.63199-98.75103-46.78815-25.87364-31.26397-38.81045-78.15993-38.81045-140.79568s12.18217-111.14881 36.76212-145.32357c24.47214-34.28256 57.89225-51.42384 100.36813-51.42384 41.72123 0 73.20082 12.18217 94.43875 36.4387 11.85875 13.58365 21.56136 33.85133 29.10784 60.58742h116.75477c-1.72491-34.8216-14.66173-69.53539-38.70265-104.24918-43.44614-61.55768-112.11907-92.39042-206.1266-92.39042-70.29003 0-128.07448 22.96284-173.56895 68.99635zm170.11913-75.46476zm693.41334 441.14542c-27.16731 34.17476-63.82162 51.20823-110.07074 51.20823s-83.11904-17.03347-110.71758-51.20823c-27.49074-34.06695-41.29-82.58-41.29-145.53918 0-62.85136 13.79926-111.36442 41.29-145.53918 27.59854-34.06695 64.46846-51.20823 110.71758-51.20823 46.24912 0 82.90343 17.14128 110.07074 51.42385 27.16732 34.17475 40.75097 82.68781 40.75097 145.32356 0 62.95917-13.58365 111.47223-40.75097 145.53918zm72.9852 84.95176c56.38296-53.36436 84.52054-130.1228 84.52054-230.49094 0-102.30865-28.13758-179.1749-84.52053-230.38313-42.15246-43.55395-103.17111-65.22311-183.05595-65.22311s-140.90349 21.66916-183.05595 65.22311c-56.59857 51.20823-84.95176 128.07448-84.95176 230.38313 0 100.36813 28.3532 177.12658 84.95176 230.49094 42.15246 43.44614 103.17111 65.1153 183.05595 65.1153s140.90349-21.66916 183.05595-65.1153zm-183.05594-526.09718zm683.71073 17.03347l-122.36072 424.11195-121.28265-424.11195h-124.73247l188.7697 558.65484H5564.799l190.60243-558.65484zm297.54676 558.65484v-558.65484h-116.00011v558.65484zm-58.00006-569.65113zm280.08207 108.02241h107.59119c53.14875 0 88.50938 15.20076 106.4053 45.71008 17.78813 30.40152 26.62829 74.06328 26.62829 130.87746 0 41.1822-5.92938 76.75844-17.78812 106.51312-21.66917 54.33463-60.1562 81.50194-115.24547 81.50194h-107.59119zm213.78089-84.84395c-22.96285-7.65428-51.85508-11.64313-86.46106-12.18217H6040.4426v558.65484h240.62478c84.41273 0 146.83286-34.71379 187.26041-104.24918 29.86249-51.53165 44.73983-114.38301 44.73983-188.6619 0-29.32345-3.55763-60.1562-10.67288-92.49823-7.00744-32.34204-20.26768-62.42014-39.7807-90.2343-24.25654-34.39036-55.95174-58.00005-95.0856-70.82906zm601.88536 335.38695l72.01494-219.81806 69.6432 219.81806zm7.11525-347.56912l-199.33477 558.65484h122.0373l38.70263-114.81424h205.80319l36.00747 114.81424h126.56518l-197.82548-558.65484zm65.22311 0zm437.04877 558.65484v-558.65484h-108.02241v558.65484zm210.11545-311.56165c13.79927-15.63199 33.2045-23.50189 58.21568-23.50189 22.96284 0 42.26026 7.43867 57.78444 22.2082 15.52418 14.76954 24.14872 36.4387 25.98144 65.0075h-167.963c3.55763-26.84389 12.18217-47.97402 25.98144-63.71381zm151.03733-93.25288c-27.49073-12.82901-58.5391-19.29742-92.82165-19.29742-57.89226 0-105.00383 19.0818-141.22691 57.2454-36.22309 38.16362-54.33463 93.03728-54.33463 164.51319 0 76.32721 20.05206 131.41648 60.264 165.26782 40.10413 33.85134 86.46105 50.777 139.07077 50.777 63.60602 0 113.19714-20.15987 148.55777-60.264 22.74724-25.3346 35.46844-50.23797 38.27142-74.71011H7827.4481c-5.82157 12.18217-12.50559 21.66917-20.05206 28.461-13.90708 12.61339-32.01862 18.974-54.22682 18.974-21.02233 0-38.91826-5.17474-53.7956-15.632-24.57995-16.60224-37.51676-45.71008-39.02606-87.10789H7943.017c.53903-35.68405-.64684-62.95917-3.34201-81.93317-4.8513-32.34204-15.30857-60.69523-31.47959-85.27518-18.00373-27.70634-40.75097-48.08183-68.2417-61.01864zm-85.27518-19.29742zm490.62875 1.29368c-1.40149-.1078-3.1264-.1078-5.06692-.1078-32.34204 0-58.6469 8.40892-78.91458 25.3346-12.39778 10.13383-26.8439 29.00002-43.55395 56.49075v-72.01494h-103.0633v413.11566h108.77706v-197.39425c0-33.2045 4.09666-57.67664 12.5056-73.63205 14.87733-28.24538 44.09297-42.36807 87.53911-42.36807 3.2342 0 7.54648.1078 12.82901.32342 5.39034.32342 11.42752.75465 18.21935 1.5093v-110.60978c-4.7435-.32342-7.8699-.43123-9.27138-.64684zm30.0781 90.4499h57.67663v254.31625c0 25.76582 6.03718 44.84762 18.21935 57.2454 18.65058 19.40523 53.47218 28.24539 104.5726 26.52048l51.20823-1.94052v-80.7473c-3.55763.32342-7.22306.53904-10.88849.64684-3.66543.10781-7.11525.21562-10.34945.21562-21.99259 0-35.14502-2.15614-39.45729-6.3606-4.31227-4.09666-6.4684-14.66173-6.4684-31.5874v-218.30877h67.16363v-76.97405h-67.16364v-115.13766H8333.062v115.13766h-57.67663zm429.50229-85.27517c-20.05207-46.46473-49.1599-96.48709-87.53913-150.06707h-81.50194l23.07066 42.36807c31.803 58.43129 54.0112 119.55774 66.30118 183.48718 8.08551 41.93684 12.18217 87.64692 12.18217 137.23805 0 77.29748-11.2119 148.44997-33.74353 213.34966-13.15243 38.37922-36.4387 87.64693-69.751 147.80312h79.99265l26.9517-36.76212c17.3569-22.2082 36.00747-55.30488 55.6283-99.29006 35.14502-78.59116 52.71753-155.88863 52.71753-232.00023 0-69.21197-14.76953-137.8849-44.3086-206.1266z"/></svg>