<svg id="Layer_1" data-name="Layer 1" xmlns="http://www.w3.org/2000/svg" viewBox="0 0 900 795.16713"><defs><style>.cls-1{fill:#de2910;}.cls-2{fill:#ffde00;}</style></defs><rect class="cls-1" x="-2.34906" y="-0.9" width="900" height="600"/><g id="s"><path class="cls-2" d="M147.65094,59.1l52.90065,162.81153L62.05581,121.28847H233.24607L94.75029,221.91153Z"/></g><g id="s-2" data-name="s"><path class="cls-2" d="M309.39034,31.49227,304.381,88.33536,275.02209,39.4039l52.51305,22.32968-55.609,12.8013Z"/></g><g id="s-3" data-name="s"><path class="cls-2" d="M379.18376,98.2113,352.50859,148.656l-8.07-56.48988L384.17129,133.124l-56.21883-9.78134Z"/></g><g id="s-4" data-name="s"><path class="cls-2" d="M385.83193,198.81253,340.89886,233.9871l15.67652-54.86783,19.56793,53.60345-47.33809-31.86435Z"/></g><g id="s-5" data-name="s"><path class="cls-2" d="M308.2355,241.02925l-2.64808,57.00191-31.36256-47.672,53.39377,20.133-55.03034,15.09609Z"/></g><path d="M113.76367,715.06641V663.96582h10.6084v19.4834h19.86475v-19.4834h10.60839v51.10059H144.23682V692.25488H124.37207v22.81153Z"/><path d="M188.93359,678.044a15.36811,15.36811,0,0,1,6.52979,5.58984,18.56181,18.56181,0,0,1,3.01074,7.8125,48.24607,48.24607,0,0,1,.32568,7.499h-27.522q.23,5.68653,3.95166,7.97364a10.03227,10.03227,0,0,0,5.44776,1.42187,7.67192,7.67192,0,0,0,7.51953-4.334h10.0874a12.34,12.34,0,0,1-3.66309,6.83007q-5.07714,5.51221-14.2163,5.51172a20.59892,20.59892,0,0,1-13.31055-4.64941q-5.76636-4.64941-5.76612-15.12793,0-9.81885,5.20557-15.05859,5.20533-5.23975,13.51319-5.24024A21.5087,21.5087,0,0,1,188.93359,678.044Zm-14.78125,8.53515a10.26435,10.26435,0,0,0-2.63183,5.84863h17.022a8.24259,8.24259,0,0,0-2.63184-5.9707,8.65833,8.65833,0,0,0-5.86035-2.03711A7.83543,7.83543,0,0,0,174.15234,686.5791Z"/><path d="M218.76318,692.08105a15.61555,15.61555,0,0,0,3.94629-.86621,2.97267,2.97267,0,0,0,2.13037-2.80859,3.31909,3.31909,0,0,0-1.63427-3.20605,10.32011,10.32011,0,0,0-4.79639-.88477q-3.54931,0-5.02539,1.7334a7.14651,7.14651,0,0,0-1.40576,3.46679h-9.53369a14.45577,14.45577,0,0,1,2.78515-8.14648q3.93457-4.99218,13.50977-4.99219a24.09444,24.09444,0,0,1,11.07226,2.46094q4.83912,2.4624,4.83936,9.291v17.334q0,1.80322.06933,4.36816a5.48732,5.48732,0,0,0,.58936,2.63477,3.536,3.536,0,0,0,1.45605,1.14453v1.45606H226.01855a10.9671,10.9671,0,0,1-.624-2.14942q-.17358-1.00488-.27734-2.28808a20.389,20.389,0,0,1-4.74268,3.77832,14.33282,14.33282,0,0,1-7.25293,1.83789,12.514,12.514,0,0,1-8.52588-2.92969q-3.36548-2.92969-3.36474-8.30273,0-6.96826,5.41308-10.08887a24.187,24.187,0,0,1,8.73145-2.42676Zm6.04151,4.61133a10.94882,10.94882,0,0,1-1.91553.95313,16.15681,16.15681,0,0,1-2.65332.67578l-2.249.416a14.8068,14.8068,0,0,0-4.54151,1.35254,4.51219,4.51219,0,0,0-2.334,4.19434,4.38342,4.38342,0,0,0,1.42578,3.6582,5.41837,5.41837,0,0,0,3.46728,1.126,10.32732,10.32732,0,0,0,5.9668-1.87207q2.72827-1.87207,2.8335-6.8291Z"/><path d="M253.37158,715.06641h-9.88037V663.96582h9.88037Z"/><path d="M259.12646,684.66211V677.625H264.396V667.08594h9.77636V677.625h6.13623v7.03711h-6.13623v19.96875q0,2.32325.58936,2.89551.58887.57129,3.60547.57129c.30029,0,.61816-.00489.95312-.01661s.66455-.02929.98828-.05273v7.38477l-4.68017.17285q-7.00342.24316-9.56836-2.42676-1.66407-1.69776-1.66406-5.23438V684.66211Z"/><path d="M313.81055,677.4873a11.09359,11.09359,0,0,1,4.67724,3.7129,9.89628,9.89628,0,0,1,1.89795,4.35449,53.81641,53.81641,0,0,1,.34571,7.30371v22.208H310.64307V692.05566a10.20209,10.20209,0,0,0-1.03223-4.92871q-1.34253-2.63671-5.09326-2.63769a6.98659,6.98659,0,0,0-5.90235,2.62012q-2.01342,2.6206-2.01269,7.47949v20.47754h-9.88037V664.13867h9.88037V682.166a12.07827,12.07827,0,0,1,4.95312-4.59278,13.94148,13.94148,0,0,1,5.91993-1.30078A15.99491,15.99491,0,0,1,313.81055,677.4873Z"/><path d="M355.42725,669.30469a21.0381,21.0381,0,0,1,15.708-6.30957q12.75879,0,18.65821,8.459a18.43555,18.43555,0,0,1,3.498,9.5332H382.61377a14.552,14.552,0,0,0-2.61523-5.54687q-2.85279-3.32812-8.45655-3.32813a10.42052,10.42052,0,0,0-9.00049,4.69825q-3.2937,4.69774-3.29394,13.29492,0,8.59716,3.47607,12.87891a10.89251,10.89251,0,0,0,8.834,4.28124q5.49317,0,8.37646-3.6748a16.13755,16.13755,0,0,0,2.645-5.92773h10.6084a23.0222,23.0222,0,0,1-7.01367,13.58984q-5.64258,5.23534-14.45606,5.23437-10.90648,0-17.14892-7.07226-6.24171-7.106-6.2417-19.4834Q348.32715,676.55029,355.42725,669.30469Z"/><path d="M432.53564,710.44336q-4.78418,5.90625-14.52587,5.90527-9.74195,0-14.52588-5.90527a23.4445,23.4445,0,0,1,0-28.38574q4.78418-5.99268,14.52588-5.99317,9.74121,0,14.52587,5.99317a23.4445,23.4445,0,0,1,0,28.38574Zm-7.90429-5.46094q2.32251-3.08056,2.32275-8.75781,0-5.67774-2.32275-8.74121a8.78211,8.78211,0,0,0-13.33008,0q-2.33936,3.063-2.33984,8.74121,0,5.67774,2.33984,8.75781a8.74953,8.74953,0,0,0,13.33008,0Z"/><path d="M464.42969,677.88477a12.01243,12.01243,0,0,1,4.334,4.17773V664.03516h10.01856v51.03125h-9.60254v-5.23536a13.93649,13.93649,0,0,1-4.81934,4.88868,13.5329,13.5329,0,0,1-6.72558,1.52539,14.04205,14.04205,0,0,1-11.14551-5.35645q-4.52344-5.35547-4.52393-13.74609,0-9.67236,4.45459-15.21875a14.49217,14.49217,0,0,1,11.9082-5.54688A12.19188,12.19188,0,0,1,464.42969,677.88477Zm2.42676,26.91992a13.78488,13.78488,0,0,0,2.18457-8.07813q0-6.9331-3.502-9.915a7.53778,7.53778,0,0,0-4.99218-1.80273,6.94123,6.94123,0,0,0-6.36133,3.27637,15.18538,15.18538,0,0,0-2.02832,8.12988,15.03394,15.03394,0,0,0,2.06347,8.37207,6.97538,6.97538,0,0,0,6.25684,3.13769A7.29441,7.29441,0,0,0,466.85645,704.80469Z"/><path d="M512.38574,678.044a15.36692,15.36692,0,0,1,6.5293,5.58984,18.56181,18.56181,0,0,1,3.01074,7.8125,48.17226,48.17226,0,0,1,.32617,7.499H494.72949q.23,5.68653,3.95215,7.97364a10.02938,10.02938,0,0,0,5.44727,1.42187,7.67192,7.67192,0,0,0,7.51953-4.334h10.08789a12.34622,12.34622,0,0,1-3.66309,6.83007q-5.07714,5.51221-14.21679,5.51172a20.59892,20.59892,0,0,1-13.31055-4.64941q-5.76562-4.64941-5.76563-15.12793,0-9.81885,5.20508-15.05859,5.20605-5.23975,13.51367-5.24024A21.51033,21.51033,0,0,1,512.38574,678.044Zm-14.78125,8.53515a10.26429,10.26429,0,0,0-2.63183,5.84863h17.02148a8.24259,8.24259,0,0,0-2.63184-5.9707,8.65659,8.65659,0,0,0-5.86035-2.03711A7.83352,7.83352,0,0,0,497.60449,686.5791Z"/><path d="M549.50488,676.8623a74.28112,74.28112,0,0,1,8.00879-13.72851h7.45313l-2.11426,3.88281a57.82192,57.82192,0,0,0-6.06738,16.7793,66.40681,66.40681,0,0,0-1.10938,12.5498,59.27278,59.27278,0,0,0,3.08594,19.51758,89.00329,89.00329,0,0,0,6.3789,13.52051H557.8252l-2.46094-3.36231a45.06353,45.06353,0,0,1-5.09668-9.083,51.72177,51.72177,0,0,1-4.81836-21.2168A47.06032,47.06032,0,0,1,549.50488,676.8623Z"/><path d="M576.29688,669.30469a21.03734,21.03734,0,0,1,15.708-6.30957q12.75879,0,18.65821,8.459a18.43555,18.43555,0,0,1,3.498,9.5332H603.4834a14.56635,14.56635,0,0,0-2.61524-5.54687q-2.85351-3.32812-8.457-3.32813a10.42027,10.42027,0,0,0-9,4.69825q-3.29444,4.69774-3.29394,13.29492,0,8.59716,3.47558,12.87891a10.89251,10.89251,0,0,0,8.834,4.28124q5.49317,0,8.377-3.6748a16.14593,16.14593,0,0,0,2.64453-5.92773h10.6084a23.0222,23.0222,0,0,1-7.01367,13.58984q-5.64258,5.23534-14.45606,5.23437-10.90575,0-17.14843-7.07226-6.24171-7.106-6.24219-19.4834Q569.19629,676.55029,576.29688,669.30469Z"/><path d="M649.0498,677.4873a11.09514,11.09514,0,0,1,4.67676,3.7129,9.903,9.903,0,0,1,1.89844,4.35449,53.81684,53.81684,0,0,1,.3457,7.30371v22.208H645.88184V692.05566a10.20209,10.20209,0,0,0-1.03223-4.92871q-1.3418-2.63671-5.09277-2.63769a6.98536,6.98536,0,0,0-5.90235,2.62012q-2.01416,2.6206-2.01269,7.47949v20.47754h-9.88086V664.13867h9.88086V682.166a12.07525,12.07525,0,0,1,4.95312-4.59278,13.93983,13.93983,0,0,1,5.91992-1.30078A15.99825,15.99825,0,0,1,649.0498,677.4873Z"/><path d="M675.419,672.77148H665.40039v-9.11816H675.419Zm-10.01856,4.50684H675.419v37.78809H665.40039Z"/><path d="M715.459,679.44531q3.71046,3.06738,3.71094,10.17481v25.44629h-10.123V692.08105a10.56407,10.56407,0,0,0-.791-4.57617q-1.4458-2.9121-5.50684-2.91211-4.98925,0-6.84765,4.26465a14.73943,14.73943,0,0,0-.96387,5.75488v20.45411h-9.88086V677.34766H694.625v5.51172a16.74662,16.74662,0,0,1,3.59082-4.19434,12.43708,12.43708,0,0,1,7.69824-2.28809A14.48174,14.48174,0,0,1,715.459,679.44531Z"/><path d="M743.32422,692.08105a15.61555,15.61555,0,0,0,3.94629-.86621,2.9728,2.9728,0,0,0,2.12988-2.80859,3.31962,3.31962,0,0,0-1.63379-3.20605,10.32232,10.32232,0,0,0-4.79687-.88477q-3.54931,0-5.02539,1.7334a7.14168,7.14168,0,0,0-1.40528,3.46679h-9.53418a14.46315,14.46315,0,0,1,2.78516-8.14648q3.93458-4.99218,13.50976-4.99219a24.09158,24.09158,0,0,1,11.07227,2.46094q4.83984,2.4624,4.83984,9.291v17.334q0,1.80322.06934,4.36816a5.49433,5.49433,0,0,0,.58887,2.63477,3.536,3.536,0,0,0,1.45605,1.14453v1.45606H750.5791a10.96641,10.96641,0,0,1-.624-2.14942q-.17286-1.00488-.27735-2.28808a20.37607,20.37607,0,0,1-4.74218,3.77832,14.33411,14.33411,0,0,1-7.25293,1.83789,12.51437,12.51437,0,0,1-8.52637-2.92969q-3.36474-2.92969-3.36426-8.30273,0-6.96826,5.41309-10.08887a24.18692,24.18692,0,0,1,8.73144-2.42676Zm6.041,4.61133a10.9617,10.9617,0,0,1-1.915.95313,16.17039,16.17039,0,0,1-2.65332.67578l-2.249.416a14.81057,14.81057,0,0,0-4.542,1.35254,4.51308,4.51308,0,0,0-2.334,4.19434,4.38482,4.38482,0,0,0,1.42578,3.6582,5.41973,5.41973,0,0,0,3.46777,1.126,10.32734,10.32734,0,0,0,5.9668-1.87207q2.72754-1.87207,2.833-6.8291Z"/><path d="M779.56836,676.8623a47.1347,47.1347,0,0,1,4.0498,18.85938,51.80241,51.80241,0,0,1-4.81054,21.2168,45.15471,45.15471,0,0,1-5.08692,9.083l-2.458,3.36231h-7.30176a89.15912,89.15912,0,0,0,6.35547-13.52051,59.479,59.479,0,0,0,3.07421-19.51758,66.66516,66.66516,0,0,0-1.10449-12.5498,57.96765,57.96765,0,0,0-6.04492-16.7793l-2.10742-3.88281h7.44043A74.30579,74.30579,0,0,1,779.56836,676.8623Z"/></svg>