<svg id="Layer_1" data-name="Layer 1" xmlns="http://www.w3.org/2000/svg" viewBox="0 0 181.66129 40"><defs><style>.cls-1{fill:#0db987;}</style></defs><path class="cls-1" d="M64.6016,29.2812c3.7382,0,6.2461-1.8632,7.0195-5.2031H69.4883c-.6094,2.0625-2.3906,3.2578-4.875,3.2578-3.3399,0-5.461-2.6484-5.461-6.7968,0-4.1133,2.1446-6.7852,5.4493-6.7852a4.83755,4.83755,0,0,1,4.8867,3.668h2.1328c-.5391-3.375-3.3399-5.6133-7.0195-5.6133-4.6289,0-7.6172,3.4219-7.6172,8.7305C56.9844,25.8945,59.9375,29.2812,64.6016,29.2812ZM81.7339,11.8086c-4.793,0-7.793,3.375-7.793,8.7422s3,8.7304,7.793,8.7304,7.793-3.3632,7.793-8.7304S86.5269,11.8086,81.7339,11.8086Zm0,1.9453c3.457,0,5.625,2.625,5.625,6.7969,0,4.1601-2.168,6.7851-5.625,6.7851s-5.625-2.625-5.625-6.7851C76.1089,16.3789,78.2769,13.7539,81.7339,13.7539ZM103.155,29h2.215L99.1358,12.0898h-2.086L90.8155,29h2.2148l1.6992-4.8398h6.7265ZM98.0577,14.6562h.0703l2.707,7.711H95.3506ZM118.049,27.1016h-8.156V12.0898h-2.109V29h10.265ZM122.959,29V12.0898H120.85V29Zm10.148,0V13.9883h5.332V12.0898H125.666v1.8985h5.332V29Zm10.148,0V12.0898h-2.109V29Zm10.898-17.1914c-4.793,0-7.793,3.375-7.793,8.7422s3,8.7304,7.793,8.7304,7.793-3.3632,7.793-8.7304S158.946,11.8086,154.153,11.8086Zm0,1.9453c3.457,0,5.625,2.625,5.625,6.7969,0,4.1601-2.168,6.7851-5.625,6.7851s-5.625-2.625-5.625-6.7851C148.528,16.3789,150.696,13.7539,154.153,13.7539ZM167.137,29V15.7695h.105L176.5,29h2.051V12.0898h-2.086V25.3672h-.105l-9.258-13.2774h-2.051V29Z"/><path class="cls-1" d="M27.2847,0C21.5452,13.8556,16.4548,13.8556,10.7153,0,16.4548,13.8556,12.8556,17.4548-1,11.7153c13.8556,5.7395,13.8556,10.8299,0,16.5694C12.8556,22.5452,16.4548,26.1444,10.7153,40c5.7395-13.8556,10.8299-13.8556,16.5694,0C21.5452,26.1444,25.1444,22.5452,39,28.2847c-13.8556-5.7395-13.8556-10.8299,0-16.5694C25.1444,17.4548,21.5452,13.8556,27.2847,0Z"/></svg>