<svg id="Layer_1" data-name="Layer 1" xmlns="http://www.w3.org/2000/svg" viewBox="0 0 500 674.28042"><defs><style>.cls-1{fill:#93f;fill-rule:evenodd;}.cls-2{fill:#fff;}</style></defs><path class="cls-1" d="M242.24432,144.874a245.47444,245.47444,0,0,1-34.001-26.256c-24.182-22.437-36.444-44.25-36.444-64.8315,0-46.618,46.228-68.7398,78.125-42.716,31.826-25.9659,78.125-4.02555,78.125,42.716,0,20.5815-12.262,42.3945-36.445,64.8315a245.40623,245.40623,0,0,1-34.001,26.256A14.60626,14.60626,0,0,1,242.24432,144.874Zm-125.132,119.83a73.53057,73.53057,0,1,0-73.2427-73.53A73.387,73.387,0,0,0,117.11232,264.704Zm41.562,78.697,7.344-8.285a88.62026,88.62026,0,0,1,.351-53.667,102.12737,102.12737,0,0,1-127.5388-23.873A102.91557,102.91557,0,0,0-.07568,338.234v147.06A14.68247,14.68247,0,0,0,14.57272,500h120.6836a43.9104,43.9104,0,0,1-2.52-14.706v-73.53A102.943,102.943,0,0,1,158.67432,343.401Zm174.805-61.962a102.1035,102.1035,0,0,0,127.539-23.863,102.91659,102.91659,0,0,1,38.906,80.658v147.06A14.68208,14.68208,0,0,1,485.27631,500h-120.684a43.91013,43.91013,0,0,0,2.52-14.706v-73.53a102.94307,102.94307,0,0,0-25.938-68.363l-7.344-8.285A88.668,88.668,0,0,0,333.47931,281.439Zm49.257-16.735a73.53057,73.53057,0,1,0-73.242-73.53A73.38723,73.38723,0,0,0,382.73633,264.704Zm-202.177,98.246a87.58735,87.58735,0,0,0,138.73,0,73.35588,73.35588,0,0,1,18.526,48.814v73.53A14.68291,14.68291,0,0,1,323.16632,500h-146.484a14.68292,14.68292,0,0,1-14.649-14.706v-73.53A73.35593,73.35593,0,0,1,180.55931,362.95Zm69.365,4.696a58.82445,58.82445,0,1,0-58.594-58.824A58.70945,58.70945,0,0,0,249.92432,367.646Z"/><path class="cls-2" d="M239.24931,37.579a6.46522,6.46522,0,0,1,6.426-6.5394l8.564.0384a6.529,6.529,0,0,1,6.42,6.5969l-.028,65.6811a6.46571,6.46571,0,0,1-6.426,6.539l-8.564-.038a6.52954,6.52954,0,0,1-6.42-6.597Z"/><path class="cls-2" d="M282.05933,59.6644a6.52837,6.52837,0,0,1,6.42,6.5968l-.004,8.7575a6.46422,6.46422,0,0,1-6.425,6.5393l-64.229-.2876a6.52841,6.52841,0,0,1-6.42-6.5969l.003-8.7574a6.46579,6.46579,0,0,1,6.426-6.5394Z"/><path d="M86.48047,565.39453q11.04273-11.28516,28.09814-11.28613,22.82081,0,33.37354,15.13086,5.82788,8.49756,6.25732,17.05371H135.10986q-1.82226-6.57276-4.67773-9.92188-5.10279-5.95312-15.126-5.95312a18.63844,18.63844,0,0,0-16.09961,8.40234q-5.89233,8.40381-5.89209,23.78125,0,15.3794,6.21729,23.03711a19.48472,19.48472,0,0,0,15.80127,7.65918q9.82691,0,14.98388-6.57324,2.84987-3.53467,4.731-10.60449h18.97559q-2.45434,14.94579-12.54541,24.30859-10.09278,9.36475-25.85791,9.36328-19.50879,0-30.67432-12.64941-11.165-12.71191-11.165-34.85059Q73.78076,578.355,86.48047,565.39453Z"/><path d="M224.40625,638.98145q-8.55762,10.563-25.98242,10.5625-17.42652,0-25.98291-10.5625-8.55762-10.563-8.55762-25.43457a39.39012,39.39012,0,0,1,8.55762-25.34083q8.55762-10.71825,25.98291-10.71875,17.42431,0,25.98242,10.71875a39.39012,39.39012,0,0,1,8.55762,25.34083Q232.96387,628.418,224.40625,638.98145Zm-14.13818-9.76758q4.15356-5.51222,4.15429-15.667,0-10.15431-4.15429-15.63477-4.15577-5.47851-11.90625-5.48047-7.75269,0-11.9375,5.48047-4.18579,5.48-4.18555,15.63477,0,10.15575,4.18555,15.667,4.18578,5.51074,11.9375,5.50976Q206.11231,634.72363,210.26807,629.21387Z"/><path d="M314.63232,572.03027H266.26416v19.40918h44.39941v15.875H266.26416v23.50293h50.60059V647.25H247.59863V555.84473h67.03369Z"/><path d="M387.16455,586.91309q8.269,8.74365,8.26953,25.67285,0,17.85938-8.083,27.22265a26.23212,26.23212,0,0,1-20.81445,9.36329q-8.11377,0-13.48144-4.03028a26.02167,26.02167,0,0,1-5.74122-6.51074v35.22168H329.82568V579.65723h16.92969v9.98437a28.441,28.441,0,0,1,6.11524-6.94531,22.57233,22.57233,0,0,1,14.10546-4.52734A26.73033,26.73033,0,0,1,387.16455,586.91309ZM373.60107,599.625q-3.60351-6.01319-11.68359-6.01465-9.71191,0-13.34473,9.11524a34.25289,34.25289,0,0,0-1.87988,12.27832q0,11.7832,6.32227,16.55761a14.51183,14.51183,0,0,0,8.89843,2.79q7.45607,0,11.37305-5.70508,3.91552-5.70409,3.916-15.19238A26.40416,26.40416,0,0,0,373.60107,599.625Z"/><path d="M426.06787,571.5957H408.146V555.28711h17.92187ZM408.146,579.65723h17.92187V647.25H408.146Z"/></svg>