<svg xmlns="http://www.w3.org/2000/svg" xmlns:xlink="http://www.w3.org/1999/xlink" version="1.1" id="Layer_1" x="0px" y="0px" viewBox="0 0 565.2 99.4" style="enable-background:new 0 0 565.2 99.4;" xml:space="preserve"><style type="text/css">
	.st0{fill:#2551A3;}
	.st1{fill:#245D38;}
	.st2{fill:#FFFFFF;}
	.st3{fill:#FFD100;}
	.st4{fill:#C3002F;}
	.st5{fill:#7A853B;}
	.st6{fill:#6D3A5D;}
	.st7{fill:#001970;}
	.st8{fill:#35647E;}
</style><g><path d="M284.1,6c1.9,0,3.9,0.7,5.4,2c0.3,0.3,0.7,0.3,1,0l3.1-3.2c0.3-0.3,0.3-0.8,0-1.1c-2.7-2.5-5.6-3.7-9.6-3.7   c-8,0-14.4,6.4-14.4,14.4c0,8,6.4,14.3,14.4,14.3c3.5,0,7-1.2,9.7-3.9c0.3-0.3,0.3-0.8,0-1.1l-3.1-3.3c-0.2-0.3-0.8-0.3-1,0   c-1.4,1.2-3.5,1.9-5.3,1.9c-4.5,0-7.8-3.7-7.8-8.1C276.3,9.7,279.6,6,284.1,6"/><path d="M319.2,0c-8,0-14.3,6.4-14.3,14.4c0,8,6.3,14.3,14.3,14.3c8,0,14.3-6.3,14.3-14.3C333.6,6.4,327.2,0,319.2,0 M319.2,22.3   c-4.3,0-7.9-3.6-7.9-7.9c0-4.4,3.6-8,7.9-8c4.4,0,8,3.6,8,8C327.2,18.7,323.6,22.3,319.2,22.3"/><path d="M362.7,22.4h-9.6V1.2c0-0.4-0.4-0.8-0.8-0.8h-4.7c-0.4,0-0.8,0.4-0.8,0.8v26.3c0,0.4,0.3,0.8,0.8,0.8h15.1   c0.4,0,0.8-0.4,0.8-0.8v-4.3C363.4,22.7,363.1,22.4,362.7,22.4"/><path d="M388.6,0c-8,0-14.3,6.4-14.3,14.4c0,8,6.3,14.3,14.3,14.3c8,0,14.3-6.3,14.3-14.3C403,6.4,396.6,0,388.6,0 M388.6,22.3   c-4.3,0-7.9-3.6-7.9-7.9c0-4.4,3.6-8,7.9-8c4.4,0,8,3.6,8,8C396.6,18.7,393,22.3,388.6,22.3"/><path d="M432.5,17c3.5-1.4,5.9-4.3,5.9-8c0-4.7-3.9-8.6-8.7-8.6h-11.9c-0.4,0-0.8,0.4-0.8,0.8v26.3c0,0.4,0.3,0.8,0.8,0.8h4.7   c0.4,0,0.8-0.4,0.8-0.8V17.3h2.7l5.7,10.5c0.1,0.2,0.3,0.4,0.6,0.4h5.3c0.7,0,1-0.6,0.7-1.1L432.5,17z M429.2,12.3h-5.9V6.1h5.9   c1.6,0,3,1.4,3,3C432.2,10.8,430.8,12.3,429.2,12.3"/><path d="M502.5,0.4h-9.7c-0.4,0-0.7,0.4-0.7,0.8v26.3c0,0.4,0.3,0.8,0.7,0.8h9.7c7.7,0,14-6.2,14-14C516.5,6.6,510.2,0.4,502.5,0.4    M502.1,22.3h-3.8V6.2h3.8c4.5,0,7.8,3.5,7.8,8C509.9,18.8,506.6,22.3,502.1,22.3"/><path d="M543.2,0c-8,0-14.3,6.4-14.3,14.4c0,8,6.3,14.3,14.3,14.3c7.9,0,14.3-6.3,14.3-14.3C557.5,6.4,551.1,0,543.2,0 M543.2,22.3   c-4.3,0-7.9-3.6-7.9-7.9c0-4.4,3.6-8,7.9-8c4.4,0,7.9,3.6,7.9,8C551.1,18.7,547.6,22.3,543.2,22.3"/><path d="M465.8,0.4c-0.1-0.2-0.4-0.4-0.7-0.4h-0.4c-0.3,0-0.6,0.2-0.7,0.4l-12.4,26.8c-0.2,0.5,0.1,1,0.7,1h4.4   c0.8,0,1.2-0.2,1.4-1l1.4-3.2h10.8l1.4,3.1c0.4,0.9,0.6,1,1.4,1h4.4c0.6,0,0.9-0.5,0.7-1L465.8,0.4z M461.3,19.4l3.6-8.3l3.7,8.3   H461.3z"/></g><g><path d="M269.5,67.4h2.3V53.6h-2.3v-2.7h8.3c1.5,0,2.8,0.1,4,0.5c3.7,1.1,6.2,4.4,6.2,9.1c0,4.5-2.3,7.8-5.9,9   c-1.3,0.5-2.6,0.6-4.2,0.6h-8.3V67.4z M277.7,67.3c1.2,0,2.2-0.1,3.1-0.5c2.2-0.9,3.6-3.1,3.6-6.3c0-3.2-1.5-5.5-3.7-6.3   c-1-0.4-1.9-0.4-3-0.4h-2.3v13.5H277.7z"/><path d="M296.9,56c4,0,6.1,2.9,6.1,6.5c0,0.4-0.1,1.2-0.1,1.2h-9.5c0.2,2.5,2.1,3.8,4.1,3.8c2.2,0,4-1.5,4-1.5l1.3,2.4   c0,0-2.1,1.9-5.6,1.9c-4.6,0-7.4-3.3-7.4-7.2C289.9,59,292.8,56,296.9,56z M299.5,61.7c-0.1-1.9-1.2-3-2.7-3c-1.8,0-3,1.2-3.3,3   H299.5z"/><path d="M306.7,72.9V59.5c0-0.4-0.2-0.6-0.6-0.6h-1.5v-2.6h3.5c1.3,0,1.7,0.6,1.7,1.3v0.1c0,0.3,0,0.6,0,0.6h0.1   c0,0,1.2-2.3,4.4-2.3c3.7,0,6.1,2.9,6.1,7.2c0,4.4-2.7,7.2-6.3,7.2c-2.7,0-4-1.9-4-1.9H310c0,0,0.1,0.5,0.1,1.2v3.3h2v2.6h-7.4   v-2.6H306.7z M313.4,67.5c1.9,0,3.5-1.5,3.5-4.3c0-2.6-1.4-4.3-3.4-4.3c-1.8,0-3.5,1.3-3.5,4.3C310,65.4,311.2,67.5,313.4,67.5z"/><path d="M329.6,61.6h0.9v-0.5c0-1.8-1.1-2.4-2.5-2.4c-2.1,0-3.9,1.3-3.9,1.3l-1.3-2.4c0,0,2.1-1.7,5.5-1.7c3.7,0,5.7,1.9,5.7,5.4   v5.5c0,0.4,0.2,0.6,0.6,0.6h1.2v2.6h-3.2c-1.3,0-1.8-0.7-1.8-1.5v-0.2c0-0.4,0.1-0.7,0.1-0.7h-0.1c0,0-1.2,2.6-4.3,2.6   c-2.3,0-4.6-1.4-4.6-4.2C321.8,62,327.3,61.6,329.6,61.6z M327.3,67.9c1.9,0,3.2-2,3.2-3.7v-0.5h-0.6c-1.3,0-4.6,0.2-4.6,2.3   C325.3,67,326,67.9,327.3,67.9z"/><path d="M337.3,67.5h2v-8c0-0.4-0.2-0.6-0.6-0.6h-1.5v-2.6h3.6c1.2,0,1.8,0.5,1.8,1.7v0.8c0,0.5-0.1,0.9-0.1,0.9h0.1   c0.6-2,2.3-3.5,4.4-3.5c0.3,0,0.6,0.1,0.6,0.1v3.4c0,0-0.4-0.1-0.8-0.1c-2.8,0-4,2.4-4,5v3h2v2.6h-7.4V67.5z"/><path d="M350.4,58.9h-2.1v-2.6h2.2v-3.8h3.3v3.8h3.1v2.6h-3.1v5.8c0,2.3,1.8,2.7,2.8,2.7c0.4,0,0.6,0,0.6,0v2.8   c0,0-0.4,0.1-1.1,0.1c-1.9,0-5.7-0.6-5.7-5.2V58.9z"/><path d="M359,67.5h2v-8.1c0-0.4-0.2-0.6-0.6-0.6h-1.5v-2.6h3.6c1.2,0,1.8,0.6,1.8,1.5v0.6c0,0.3-0.1,0.6-0.1,0.6h0.1   c0.7-1.4,2.4-3.1,4.7-3.1c1.9,0,3.3,0.9,3.8,3h0.1c0.8-1.6,2.6-3,4.8-3c2.8,0,4.4,1.6,4.4,5.2v6.3h2v2.6h-5.4v-8.2   c0-1.6-0.3-2.8-1.9-2.8c-2.3,0-3.5,2.3-3.5,4.9v3.5h2v2.6h-5.4v-8.2c0-1.5-0.2-2.8-1.9-2.8c-2.4,0-3.5,2.6-3.5,5v3.3h2v2.6H359   V67.5z"/><path d="M392.4,56c4,0,6.1,2.9,6.1,6.5c0,0.4-0.1,1.2-0.1,1.2h-9.5c0.2,2.5,2.1,3.8,4.1,3.8c2.2,0,4-1.5,4-1.5l1.3,2.4   c0,0-2.1,1.9-5.6,1.9c-4.6,0-7.4-3.3-7.4-7.2C385.4,59,388.3,56,392.4,56z M395,61.7c-0.1-1.9-1.2-3-2.7-3c-1.8,0-3,1.2-3.3,3H395z   "/><path d="M400.5,67.5h2v-8c0-0.4-0.2-0.6-0.6-0.6h-1.5v-2.6h3.6c1.2,0,1.8,0.6,1.8,1.5v0.6c0,0.3-0.1,0.6-0.1,0.6h0.1   c0.2-0.4,1.6-3.1,5.1-3.1c2.9,0,4.6,1.6,4.6,5.2v6.3h2v2.6H412v-8.2c0-1.7-0.5-2.8-2.2-2.8c-2.5,0-3.9,2.4-3.9,4.8v3.6h2v2.6h-7.4   V67.5z"/><path d="M420.4,58.9h-2.1v-2.6h2.2v-3.8h3.3v3.8h3.1v2.6h-3.1v5.8c0,2.3,1.8,2.7,2.8,2.7c0.4,0,0.6,0,0.6,0v2.8   c0,0-0.4,0.1-1.1,0.1c-1.9,0-5.7-0.6-5.7-5.2V58.9z"/><path d="M442.8,56c4.2,0,7.6,3,7.6,7.2c0,4.2-3.4,7.2-7.6,7.2c-4.2,0-7.6-3-7.6-7.2C435.2,59,438.6,56,442.8,56z M442.8,67.5   c2.2,0,4.1-1.7,4.1-4.3c0-2.5-1.9-4.3-4.1-4.3c-2.2,0-4.1,1.8-4.1,4.3C438.7,65.8,440.6,67.5,442.8,67.5z"/><path d="M452.2,67.5h2v-8.6h-2.1v-2.6h2.1v-0.6c0-4.5,3.6-5,5.4-5c0.8,0,1.4,0.1,1.4,0.1v2.8c0,0-0.4-0.1-1.1-0.1   c-0.8,0-2.3,0.2-2.3,2.2v0.7h3.1v2.6h-3.1v8.6h2.3v2.6h-7.7V67.5z"/><path d="M469.1,67.4h2.3V53.6h-2.3v-2.7h9.2c1.1,0,2.3,0.1,3.2,0.5c2.1,0.9,3.4,3,3.4,5.7c0,2.7-1.4,5-3.6,5.8   c-0.9,0.3-1.9,0.4-2.9,0.4H475v4.2h2.3v2.6h-8.2V67.4z M477.9,60.5c0.8,0,1.4-0.1,1.9-0.4c1-0.5,1.6-1.6,1.6-3   c0-1.3-0.5-2.3-1.4-2.9c-0.5-0.3-1.2-0.5-2.1-0.5h-3v6.7H477.9z"/><path d="M488.1,58.9H486v-2.6h5.6v8.3c0,1.6,0.4,2.8,2.2,2.8c2.4,0,3.8-2.4,3.8-4.9v-3.6h-2.1v-2.6h5.5V67c0,0.4,0.2,0.6,0.6,0.6   h1.3v2.5h-3.4c-1.2,0-1.8-0.6-1.8-1.5V68c0-0.4,0-0.6,0-0.6h-0.1c-0.2,0.5-1.6,3-5,3c-2.8,0-4.5-1.5-4.5-5.2V58.9z"/><path d="M505.5,53.5h-2.1v-2.6h5.5v6c0,0.7-0.1,1.2-0.1,1.2h0.1c0,0,1.2-2.1,4.1-2.1c3.7,0,6.1,2.9,6.1,7.2c0,4.4-2.7,7.2-6.3,7.2   c-3,0-4.1-2.2-4.1-2.2h-0.1c0,0,0.1,0.5,0.1,1v0.8h-3.2V53.5z M512.3,67.5c1.9,0,3.5-1.5,3.5-4.3c0-2.6-1.4-4.3-3.4-4.3   c-1.8,0-3.5,1.3-3.5,4.3C508.9,65.4,510,67.5,512.3,67.5z"/><path d="M522,53.5h-2.1v-2.6h5.5v14.6c0,1.2,0.3,1.9,1.4,1.9c0.4,0,0.6,0,0.6,0v2.8c0,0-0.6,0.1-1.2,0.1c-2.2,0-4.2-0.7-4.2-4.5   V53.5z"/><path d="M529.2,67.5h2v-8.6h-2.1v-2.6h5.6v11.2h2v2.6h-7.4V67.5z M531.2,50.9h3.5V54h-3.5V50.9z"/><path d="M545.5,56c2.3,0,5.6,0.9,5.6,3.3v1.9h-3v-0.9c0-0.9-1.4-1.3-2.6-1.3c-2.5,0-4,1.7-4,4.2c0,2.8,2,4.4,4.3,4.4   c1.9,0,3.5-1.1,4.3-1.7l1.2,2.4c-0.9,0.9-3.1,2.1-5.7,2.1c-4,0-7.6-2.7-7.6-7.2C538.1,59.1,541.2,56,545.5,56z"/><path d="M269.5,96.4h2.3V82.6h-2.3v-2.7h8.2v2.7h-2.3v5.5h8.7v-5.5h-2.3v-2.7h8.2v2.7h-2.3v13.8h2.3v2.6h-8.2v-2.6h2.3V91h-8.7v5.5   h2.3v2.6h-8.2V96.4z"/><path d="M298.9,85c4,0,6.1,2.9,6.1,6.5c0,0.4-0.1,1.2-0.1,1.2h-9.5c0.2,2.5,2.1,3.8,4.1,3.8c2.2,0,4-1.5,4-1.5l1.3,2.4   c0,0-2.1,1.9-5.6,1.9c-4.6,0-7.4-3.3-7.4-7.2C291.9,88,294.8,85,298.9,85z M301.5,90.7c-0.1-1.9-1.2-3-2.7-3c-1.8,0-3,1.2-3.3,3   H301.5z"/><path d="M314.3,90.6h0.9v-0.5c0-1.8-1.1-2.4-2.5-2.4c-2.1,0-3.9,1.3-3.9,1.3l-1.3-2.4c0,0,2.1-1.7,5.5-1.7c3.7,0,5.7,1.9,5.7,5.4   v5.5c0,0.4,0.2,0.6,0.6,0.6h1.2v2.6h-3.2c-1.3,0-1.8-0.7-1.8-1.5v-0.2c0-0.4,0.1-0.7,0.1-0.7h-0.1c0,0-1.2,2.6-4.3,2.6   c-2.3,0-4.6-1.4-4.6-4.2C306.5,91,312.1,90.6,314.3,90.6z M312,96.9c1.9,0,3.2-2,3.2-3.7v-0.5h-0.6c-1.3,0-4.6,0.2-4.6,2.3   C310,96,310.7,96.9,312,96.9z"/><path d="M322.8,82.5h-2.1v-2.6h5.5v14.6c0,1.2,0.3,1.9,1.4,1.9c0.4,0,0.6,0,0.6,0v2.8c0,0-0.6,0.1-1.2,0.1c-2.2,0-4.2-0.7-4.2-4.5   V82.5z"/><path d="M331.5,87.9h-2.1v-2.6h2.2v-3.8h3.3v3.8h3.1v2.6h-3.1v5.8c0,2.3,1.8,2.7,2.8,2.7c0.4,0,0.6,0,0.6,0v2.8   c0,0-0.4,0.1-1.1,0.1c-1.9,0-5.7-0.6-5.7-5.2V87.9z"/><path d="M339.6,96.5h2v-14h-2.1v-2.6h5.6v6.7c0,0.7-0.1,1.2-0.1,1.2h0.1c0.7-1.3,2.4-2.8,4.8-2.8c3,0,4.8,1.6,4.8,5.2v6.3h2v2.6   h-5.4v-8.2c0-1.7-0.4-2.8-2.2-2.8c-2.4,0-3.9,2.1-3.9,4.6v3.8h2v2.6h-7.4V96.5z"/><path d="M367.9,88.9L367.9,88.9c0-0.1-2.6-1-2.6-4.2c0-3.4,2.9-5,6.3-5c1.3,0,2.5,0.3,2.5,0.3l-0.8,2.8c0,0-0.7-0.2-1.3-0.2   c-1.8,0-3.2,0.9-3.2,2.5c0,1.2,0.6,2.7,2.9,2.7h3.6v-2.6h3.4v2.6h2.5v2.8h-2.5v2.4c0,3.9-2.7,6.5-7.1,6.5c-4.3,0-7.1-2.5-7.1-5.7   C364.5,91.6,365.8,89.6,367.9,88.9z M371.7,96.3c2.2,0,3.7-1.2,3.7-3.6v-2.2h-3.8c-2.1,0-3.5,1-3.5,2.9   C368.1,95.1,369.5,96.3,371.7,96.3z"/><path d="M389.4,96.4h2.3V82.6h-2.3v-2.7h14.2v4.9h-3v-2.1h-5.4V88h6.3v2.8h-6.3v5.4h5.8v-2.2h3v5h-14.6V96.4z"/><path d="M406.3,96.5h2v-8c0-0.4-0.2-0.6-0.6-0.6h-1.5v-2.6h3.6c1.2,0,1.8,0.6,1.8,1.5v0.6c0,0.3-0.1,0.6-0.1,0.6h0.1   c0.2-0.4,1.6-3.1,5.1-3.1c2.9,0,4.6,1.6,4.6,5.2v6.3h2v2.6h-5.4v-8.2c0-1.7-0.5-2.8-2.2-2.8c-2.5,0-3.9,2.4-3.9,4.8v3.6h2v2.6h-7.4   V96.5z"/><path d="M423.9,85.3h6.6v2.6h-1.5l2.4,6.8c0.3,0.7,0.4,1.5,0.4,1.5h0.1c0,0,0.1-0.8,0.3-1.5l2.4-6.8h-1.6v-2.6h6.6v2.6h-1.6   l-4.2,11.2h-3.9l-4.2-11.2h-1.7V85.3z"/><path d="M440.8,96.5h2v-8.6h-2.1v-2.6h5.6v11.2h2v2.6h-7.4V96.5z M442.7,79.9h3.5V83h-3.5V79.9z"/><path d="M450,96.5h2v-8c0-0.4-0.2-0.6-0.6-0.6h-1.5v-2.6h3.6c1.2,0,1.8,0.5,1.8,1.7v0.8c0,0.5-0.1,0.9-0.1,0.9h0.1   c0.6-2,2.3-3.5,4.4-3.5c0.3,0,0.6,0.1,0.6,0.1v3.4c0,0-0.4-0.1-0.8-0.1c-2.8,0-4,2.4-4,5v3h2v2.6H450V96.5z"/><path d="M468.9,85c4.2,0,7.6,3,7.6,7.2c0,4.2-3.4,7.2-7.6,7.2c-4.2,0-7.6-3-7.6-7.2C461.4,88,464.7,85,468.9,85z M469,96.5   c2.2,0,4.1-1.7,4.1-4.3c0-2.5-1.9-4.3-4.1-4.3c-2.2,0-4.1,1.8-4.1,4.3C464.9,94.8,466.7,96.5,469,96.5z"/><path d="M478.4,96.5h2v-8c0-0.4-0.2-0.6-0.6-0.6h-1.5v-2.6h3.6c1.2,0,1.8,0.6,1.8,1.5v0.6c0,0.3-0.1,0.6-0.1,0.6h0.1   c0.2-0.4,1.6-3.1,5.1-3.1c2.9,0,4.6,1.6,4.6,5.2v6.3h2v2.6H490v-8.2c0-1.7-0.5-2.8-2.2-2.8c-2.5,0-3.9,2.4-3.9,4.8v3.6h2v2.6h-7.4   V96.5z"/><path d="M497,96.5h2v-8.1c0-0.4-0.2-0.6-0.6-0.6h-1.5v-2.6h3.6c1.2,0,1.8,0.6,1.8,1.5v0.6c0,0.3-0.1,0.6-0.1,0.6h0.1   c0.7-1.4,2.4-3.1,4.7-3.1c1.9,0,3.3,0.9,3.8,3h0.1c0.8-1.6,2.6-3,4.8-3c2.8,0,4.4,1.6,4.4,5.2v6.3h2v2.6h-5.4v-8.2   c0-1.6-0.3-2.8-1.9-2.8c-2.3,0-3.5,2.3-3.5,4.9v3.5h2v2.6h-5.4v-8.2c0-1.5-0.2-2.8-1.9-2.8c-2.4,0-3.5,2.6-3.5,5v3.3h2v2.6H497   V96.5z"/><path d="M530.3,85c4,0,6.1,2.9,6.1,6.5c0,0.4-0.1,1.2-0.1,1.2h-9.5c0.2,2.5,2.1,3.8,4.1,3.8c2.2,0,4-1.5,4-1.5l1.3,2.4   c0,0-2.1,1.9-5.6,1.9c-4.6,0-7.4-3.3-7.4-7.2C523.3,88,526.2,85,530.3,85z M532.9,90.7c-0.1-1.9-1.2-3-2.7-3c-1.8,0-3,1.2-3.3,3   H532.9z"/><path d="M538.4,96.5h2v-8c0-0.4-0.2-0.6-0.6-0.6h-1.5v-2.6h3.6c1.2,0,1.8,0.6,1.8,1.5v0.6c0,0.3-0.1,0.6-0.1,0.6h0.1   c0.2-0.4,1.6-3.1,5.1-3.1c2.9,0,4.6,1.6,4.6,5.2v6.3h2v2.6H550v-8.2c0-1.7-0.5-2.8-2.2-2.8c-2.5,0-3.9,2.4-3.9,4.8v3.6h2v2.6h-7.4   V96.5z"/><path d="M558.4,87.9h-2.1v-2.6h2.2v-3.8h3.3v3.8h3.1v2.6h-3.1v5.8c0,2.3,1.8,2.7,2.8,2.7c0.4,0,0.6,0,0.6,0v2.8   c0,0-0.4,0.1-1.1,0.1c-1.9,0-5.7-0.6-5.7-5.2V87.9z"/></g><rect x="252.2" y="0.1" width="1.3" height="99"/><g><path class="st0" d="M236.4,51.1c0-0.5,0-1,0-1.5c0-27.3-22.2-49.5-49.5-49.5s-49.5,22.2-49.5,49.5c0,0.5,0,1,0,1.5l49.5,20.1   L236.4,51.1z"/><path class="st1" d="M186.9,74.2l-0.5-0.2l-48.8-19.8c2.3,25.2,23.5,45,49.3,45s47-19.7,49.3-45L186.9,74.2z"/><g><path class="st2" d="M164.9,77.4c1.7,0,2.9,0.5,4,1.5c0.2,0.1,0.2,0.3,0,0.5l-1.3,1.4c-0.1,0.1-0.3,0.1-0.4,0    c-0.6-0.6-1.4-0.9-2.2-0.9c-1.9,0-3.3,1.6-3.3,3.4c0,1.8,1.4,3.4,3.3,3.4c0.8,0,1.6-0.3,2.2-0.8c0.1-0.1,0.3-0.1,0.4,0l1.3,1.4    c0.1,0.1,0.1,0.3,0,0.4c-1.1,1.1-2.6,1.6-4,1.6c-3.3,0-6-2.6-6-6S161.6,77.4,164.9,77.4z"/><path class="st2" d="M171.3,77.8c0-0.2,0.1-0.3,0.3-0.3h4.1c3.2,0,5.8,2.6,5.8,5.8c0,3.2-2.6,5.8-5.8,5.8h-4.1    c-0.2,0-0.3-0.1-0.3-0.3V77.8z M175.5,86.7c1.9,0,3.2-1.5,3.2-3.4c0-1.9-1.4-3.4-3.2-3.4h-1.6v6.7H175.5z"/><path class="st2" d="M183.9,77.8c0-0.2,0.1-0.3,0.3-0.3h4c2,0,3.7,1.7,3.7,3.7c0,2.1-1.7,3.7-3.7,3.7h-1.7v3.9    c0,0.2-0.2,0.3-0.3,0.3h-2c-0.2,0-0.3-0.1-0.3-0.3V77.8z M188,82.5c0.7,0,1.3-0.6,1.3-1.3c0-0.7-0.6-1.2-1.3-1.2h-1.6v2.5H188z"/><path class="st2" d="M194,77.8c0-0.2,0.2-0.3,0.3-0.3h2c0.2,0,0.3,0.1,0.3,0.3V82h4.8v-4.2c0-0.2,0.1-0.3,0.3-0.3h2    c0.2,0,0.3,0.1,0.3,0.3v11c0,0.2-0.2,0.3-0.3,0.3h-2c-0.2,0-0.3-0.1-0.3-0.3v-4.4h-4.8v4.4c0,0.2-0.1,0.3-0.3,0.3h-2    c-0.2,0-0.3-0.1-0.3-0.3V77.8z"/><path class="st2" d="M207.2,77.8c0-0.2,0.1-0.3,0.3-0.3h6.9c0.2,0,0.3,0.1,0.3,0.3v1.8c0,0.2-0.1,0.3-0.3,0.3h-4.6V82h3.8    c0.2,0,0.3,0.1,0.3,0.3v1.8c0,0.2-0.1,0.3-0.3,0.3h-3.8v2.2h4.6c0.2,0,0.3,0.1,0.3,0.3v1.8c0,0.2-0.1,0.3-0.3,0.3h-6.9    c-0.2,0-0.3-0.1-0.3-0.3V77.8z"/></g><g><g><path class="st2" d="M185.4,17.3c-0.5-1.3-1-2.6-0.8-4.1c1.3,0.9,1.8,2.1,2.4,3.3c0,0,0-0.1,0-0.1c0,0,0,0.1,0,0.1     c0.6-1.2,1.2-2.4,2.5-3.3c0.1,1.6-0.4,2.8-0.9,4.1c3.2-1.4,4.7-5.9,3-8.8c-0.2-0.4-0.5-0.3-0.8-0.2c-1.9,0.7-3.2,2.3-3.8,4.2     c-0.5-1.9-1.9-3.5-3.7-4.3c-0.3-0.1-0.5-0.3-0.8,0.1C180.8,11.3,182.2,15.8,185.4,17.3z"/><path class="st2" d="M180.1,21.5c-1.1-1.4-2.1-2.6-2.4-4.3c1,0.1,1.8,0.6,3.9,2.7c-0.1-4.2-3.1-7.5-7.1-7.9     c-0.5,0-0.7,0.1-0.8,0.6c-0.2,2.1,0.1,4,1.3,5.7C176.2,19.9,177.8,21,180.1,21.5z"/><path class="st2" d="M194.7,21.5c2.2-0.5,3.9-1.6,5.1-3.2c1.3-1.7,1.6-3.6,1.3-5.7c-0.1-0.5-0.3-0.6-0.8-0.6     c-4,0.3-7.1,3.7-7.1,7.9c2.1-2.1,2.8-2.6,3.9-2.7C196.8,18.9,195.8,20.1,194.7,21.5z"/><path class="st2" d="M203.7,28.4c-0.2-1.1,0.2-2.1,0.6-3.3c-1.3,0.8-2.2,1.9-2.6,3.2c-0.5,1.4-0.2,2.7,0.4,3.9     c0.2,0.3,0.3,0.3,0.6,0.2c2.5-1.1,3.7-3.9,2.9-6.6C204.7,27.7,204.4,28.2,203.7,28.4z"/><path class="st2" d="M207.4,22.6c1,0.9,2,1.8,2.4,3c-0.8,0.1-1.4-0.2-3.4-1.6c0.6,3.3,3.5,5.4,6.6,5.2c0.4,0,0.6-0.1,0.5-0.6     c-0.1-1.6-0.6-3.1-1.8-4.2C210.7,23.3,209.3,22.7,207.4,22.6z"/><path class="st2" d="M204.8,16.9c0.5,0.5,0.7,1.1,0.8,2.8c-0.1,0.4-0.1,0.8-0.1,1.2c1.4-1.5,2.6-2.9,4.4-3.6     c0.1,1.2-0.3,2.1-2.3,5c4.8-0.9,8-5.1,7.6-9.8c-0.1-0.6-0.2-0.8-0.8-0.8c-2.4,0.1-4.5,0.9-6.2,2.7c-0.3,0.4-0.7,0.8-0.9,1.2     c-0.2-1.3-0.7-2.5-1.6-3.5c-0.3-0.3-0.5-0.4-0.8-0.1c-1.2,1.1-2.1,2.4-2.2,4.1c-0.1,1.6,0.3,3.1,1.3,4.6     C204,19.3,204.1,18.1,204.8,16.9z"/><path class="st2" d="M187.1,19.8c-2.2,0-4,1.9-4,4.3c0,2.4,1.7,4.3,4,4.3c2.2,0,3.9-1.8,4-4.2C191.1,21.7,189.4,19.8,187.1,19.8z     "/><path class="st2" d="M203.3,22.9c-3.7,2-7.4,4-11.1,5.9c-1.1,0.6-2.2,1.2-3.3,1.8c-1,0.5-2,0.7-3,0.1c-1.2-0.6-2.4-1.2-3.6-1.9     c-3.9-2.4-7.8-4.8-12.5-6.4c1.7,1.3,3.5,2.5,5.2,3.8c3.1,2.4,6,4.9,7.8,7.9c1.9,3.1,1.6,6.4,1.4,9.6c-0.1,1.5-1.1,9.2-1.9,11.3     c4.2-1.3,9.7-1.2,9.3-1.3c-0.1-3.2-1.3-11.9-1.2-15c0.1-1.6,0.6-3.2,1.4-4.7c1.6-2.8,4.2-5.1,7.1-7.3c1.8-1.4,3.8-2.8,5.6-4.2     C204.1,22.6,203.7,22.7,203.3,22.9z"/><path class="st2" d="M169.4,24.9c0.4,1.1,0.8,2.1,0.6,3.3c-0.7-0.3-1-0.7-1.9-2.5c-0.9,2.7,0.4,5.5,2.9,6.6     c0.3,0.1,0.5,0.1,0.6-0.2c0.6-1.3,0.8-2.6,0.4-3.9C171.5,26.8,170.7,25.7,169.4,24.9z"/><path class="st2" d="M165.5,22.8c-2.1,0.2-3.6,1-4.9,2.3c-1.3,1.4-1.8,3.1-1.8,4.9c0,0.5,0.2,0.6,0.6,0.6     c3.6,0.1,6.7-2.5,7.2-6.3c-2.1,1.6-2.8,2-3.7,2C163.4,24.9,164.4,23.9,165.5,22.8z"/><path class="st2" d="M167.3,22.5c-2.1-2.7-2.6-3.6-2.5-4.8c1.9,0.6,3.1,1.9,4.6,3.4c0-0.4-0.1-0.8-0.2-1.2c0-1.7,0.2-2.3,0.7-2.8     c0.7,1.1,0.9,2.3,1,3.7c1-1.5,1.3-3,1.1-4.7c-0.2-1.7-1.1-2.9-2.4-3.9c-0.3-0.3-0.5-0.2-0.8,0.1c-0.9,1-1.4,2.3-1.4,3.5     c-0.3-0.4-0.6-0.8-1-1.1c-1.8-1.7-3.9-2.3-6.3-2.3c-0.6,0-0.8,0.3-0.8,0.8C159.1,17.8,162.5,21.8,167.3,22.5z"/><path class="st2" d="M157.1,21.5c1.6-0.4,2.9-0.2,4.3,0.1c-2.1-2.9-6.8-3.6-9.4-1.3c-0.4,0.3-0.2,0.5,0,0.8     c1.8,2.9,5.8,3.9,8.9,2.3C159.6,22.9,158.3,22.6,157.1,21.5z"/><path class="st2" d="M222.1,21.7c-2.4-2.5-7.2-2.3-9.5,0.4c1.4-0.1,2.8-0.2,4.3,0.3c-1.3,1-2.6,1.2-3.9,1.5c2.9,2,7,1.3,9.1-1.4     C222.2,22.2,222.4,22,222.1,21.7z"/></g><g><path class="st2" d="M230.5,32.2h-3.6v0.9c-1-0.7-1.9-1.2-1.9-1.2c-0.3,0.1-2.1,1.9-3,2.7c-0.4,0.4-0.3,0.6-0.3,1.2     c0,3.9,0,7.8,0,11.8c-0.5,0.1-1,0.1-1.5,0.2V35.3h-3.9v2.6c-0.2,0-0.4,0-0.5,0v-1.1h-4v10.5c0,0.1,0,0.1,0,0.2     c-0.1,0.4-0.8,0.6-1.7,1.2c0-2.2,0-1.7,0-4c0,0,0-0.8,0-0.8v-0.3h-0.4c0,0,0,0,0,0v-0.1c0-0.4-0.3-0.7-0.7-0.7h-2.5     c-0.4,0-0.7,0.3-0.7,0.7v0.1c0,0,0,0,0,0h-0.6c0,0,0,1.6,0,3.4h-3.3l0,4.5c-3.3-0.1-5.1,0-8.9,0.6c0,0,0.2,1.7,0.2,1.7     s4.9-0.3,11.3,0.2c6.9,0.5,11,2.4,11,2.4c0.3,0,15.4-5.9,15.5-6C230.7,49.3,230.5,32.2,230.5,32.2z"/><path class="st2" d="M188.8,55.4c-3.4,0.6-6.5,1-8.3,1.5c0,0,0,0-0.1,0c0.1-0.1,0.8-2.4,1.4-5.1c-0.6-0.4-8.1-7.7-8.1-7.7     l-6.4,5.3l-5.3-4.2l-2,2.4l-9.4-9.9l-10.8,11.1c0,0,10.2,3.9,20.4,8c13.1,0.2,19.3,2.4,22.7,3.5c7.5,2.4,10.8,4.8,10.8,4.8l2.5-1     c0,0-2.9-1.9-8.4-3.8c-1.1-0.4-2.1-0.8-3-1.3c2-0.6,5.7-1.9,10.3-2c9.3-0.3,14,1.8,14,1.8l3.8-1.4     C212.9,57.1,202.7,53,188.8,55.4z M149.8,42.4l-3.6,1.6l3.9-3.8l5.9,6.2L149.8,42.4z M172.9,57.2     C172.9,57.2,172.9,57.2,172.9,57.2L172.9,57.2C172.9,57.2,172.9,57.2,172.9,57.2z"/><path class="st2" d="M194.7,58c-1.8,0.1-4.8,0.8-6,1.1c0.5,0.1,4.3,1.4,4,1.4c1.5-0.3,2.4-0.7,4.9-0.7c2.8,0,5.8,1.3,5.8,1.3     l3.4-1.4C206.8,59.6,202.1,57.4,194.7,58z"/><path class="st2" d="M195.3,61.6l2.9,1.4l3-1.2c0,0-1.1-0.8-3.1-0.7C196.7,61.2,195.3,61.6,195.3,61.6z"/><path class="st2" d="M163.5,58.2c1.4,0.6,4.3,1.7,5.6,2.3c0-0.1,5.5,0.3,11,1.5c5.3,1.3,10.5,4.3,10.5,4.3l1.9-0.8     c0,0-3-2.1-8.3-4C177.4,59.1,169,58,163.5,58.2z"/><path class="st2" d="M173.1,62.1c6.4,2.6,10.1,4.3,13.8,5.9c0,0,2.3-1,2.3-1s-4.4-2.2-7.7-3.1C178.8,63,175.9,62.2,173.1,62.1z"/></g></g></g><g><g><path class="st1" d="M43.5,80.6c-1.5-1.9-2.9-3.9-4.1-6c-0.1-0.1-0.2-0.2-0.2-0.3c-0.9-1.7-1.8-3.3-2.5-5.1    c-0.2-0.5-0.4-1-0.6-1.6c-2.6-6.6-3.7-13.5-3.4-20.6c0.4-7.8,2.6-15,6.4-21.8c0-0.1,0.1-0.2,0.1-0.3c1.1-1.7,2.1-3.4,3.3-5    c-0.6-1-1.1-2-1.8-3.2c-3.9-7-5.9-10.3-9.8-16.8c-3.9,6.6-5.9,10-9.8,17.1c-3.9,6.9-5.9,10.4-9.7,17.8c3.2-0.8,4.8-1.2,8-1.6    c-0.8,2-1.2,3-2,5.1c-4.7,9.2-9.1,18.7-13.3,28.1c3.3-1.2,4.9-1.7,8.3-2.5C8,74.1,4,84.3,0,94.6c21.7-7.5,39.4-7.6,61.1-0.2    c-4.5-2.1-8.6-4.9-12.5-8.4C46.7,84.4,45,82.6,43.5,80.6z"/><path class="st3" d="M82.2,25.7c-7.2,0-13.9,3.2-18.5,8.7l-0.1,0.1c-3.5,4.3-5.5,9.7-5.5,15.3c0,0.2,0,0.5,0,0.7l14.6-12.7l10,8.7    l10-8.7l13.7,11.9c0-3.2-0.6-6.2-1.9-9.1C100.7,31.5,92,25.7,82.2,25.7z"/><path class="st4" d="M39,25.3c-3.8,6.7-6,14-6.4,21.8c-0.3,7.1,0.8,14,3.4,20.6c0.2,0.5,0.4,1.1,0.6,1.6l18.9-16.5    c0-0.3-0.1-0.7-0.1-1c0-0.6-0.1-1.2-0.1-1.9c0-6.2,2.2-12.3,6.1-17.1l0.1-0.1c5.1-6.1,12.6-9.6,20.6-9.6    c10.9,0,20.6,6.5,24.8,16.5c0,0,0,0,0,0c6.7-2.7,13.3-5.4,20-8.1c0.4-0.2,0.6-0.3,0.3-0.8c-0.8-1.9-1.8-3.8-2.7-5.6    c-0.1-0.2-0.2-0.3-0.3-0.4c-9-14.5-22-22.5-39-24.1c-4.9-0.4-9.7,0-14.5,1.1c-11.3,2.7-20.6,8.5-27.8,17.6    c-0.2,0.3-0.4,0.5-0.6,0.8c-1.2,1.6-2.3,3.3-3.3,5C39.1,25.1,39,25.2,39,25.3z"/><path class="st5" d="M72.7,37.7L58.1,50.5c0,0.4,0,0.7,0.1,1c0.3,3.8,1.4,7.5,3.4,10.7c0.4,0.7,0.8,1.2,1.1,1.6l20-17.5L72.7,37.7    z"/><path class="st6" d="M59.2,63.8c-2-3.4-3.3-7.2-3.7-11L36.6,69.3c0.8,1.7,1.6,3.4,2.5,5.1c0.1,0.1,0.2,0.2,0.2,0.3    c1.2,2.1,2.6,4.1,4.1,6l0.7-0.6l16.4-14.3c0,0-0.1-0.1-0.1-0.1C60.1,65.1,59.7,64.5,59.2,63.8z"/><path class="st7" d="M126.8,67.8c-6.5-2.7-13.1-5.3-19.6-7.9c0,0,0,0,0,0c-0.7,1.8-1.7,3.6-2.8,5.2c-5,7.3-13.3,11.6-22.1,11.6    c-8.5,0-16.6-4.1-21.7-11L44.2,80l-0.7,0.6c1.5,1.9,3.2,3.7,5.1,5.4c3.9,3.5,8.1,6.3,12.5,8.4c6,2.8,12.5,4.3,19.5,4.6    c5.1,0.2,10.1-0.5,15-1.9c9.6-2.8,17.6-8.1,24.1-15.7c0.4-0.5,0.8-1,1.3-1.5c1.3-1.7,2.5-3.6,3.7-5.5c1-1.7,1.9-3.5,2.6-5.3    c0.1-0.2,0.1-0.3,0.2-0.4l0.1-0.2l-0.1-0.2C127.3,68,127.1,68,126.8,67.8z"/><path class="st8" d="M82.7,46.4l19.2,16.7l0.3,0.2c1-1.4,1.8-3,2.4-4.5c1.2-2.9,1.8-5.9,1.8-9c0-0.1,0-0.1,0-0.2L92.7,37.7    L82.7,46.4z"/><path class="st7" d="M82.7,46.4l-20,17.5c0,0,0,0.1,0.1,0.1c4.5,6.2,11.8,9.9,19.5,9.9c7.9,0,15.3-3.9,19.8-10.4    c0,0,0.1-0.1,0.1-0.1l-0.3-0.2L82.7,46.4z"/></g><g><path d="M111.4,93.9h-1.1c-0.1,0-0.1-0.1-0.1-0.1v-0.6c0-0.1,0.1-0.1,0.1-0.1h3c0.1,0,0.1,0.1,0.1,0.1v0.6c0,0.1-0.1,0.1-0.1,0.1    h-1.1v3.9c0,0.1-0.1,0.1-0.1,0.1h-0.6c-0.1,0-0.1-0.1-0.1-0.1V93.9z"/><path d="M115.3,93.1c0-0.1,0-0.1,0.1-0.1h0.1c0.1,0,0.1,0,0.1,0.1l1.5,3.3h0l1.5-3.3c0,0,0.1-0.1,0.1-0.1h0.1c0.1,0,0.1,0,0.1,0.1    l0.8,4.7c0,0.1,0,0.2-0.1,0.2h-0.6c-0.1,0-0.1-0.1-0.1-0.1l-0.4-2.6h0l-1.2,2.7c0,0-0.1,0.1-0.1,0.1h-0.1c-0.1,0-0.1,0-0.1-0.1    l-1.2-2.7h0l-0.4,2.6c0,0-0.1,0.1-0.1,0.1h-0.6c-0.1,0-0.1-0.1-0.1-0.2L115.3,93.1z"/></g></g></svg>