<svg xmlns="http://www.w3.org/2000/svg" viewBox="0 0 170 42"><path fill="currentColor" d="M56.239,24.067c-1.072,0.742-2.15,1.305-3.231,1.683c-1.082,0.381-2.159,0.567-3.232,0.567&#10;&#9;c-1.669,0-3-0.496-3.986-1.495c-0.99-0.995-1.483-2.331-1.483-4.001c0-1.723,0.519-3.071,1.552-4.052&#10;&#9;c1.034-0.981,2.456-1.47,4.262-1.47c0.994,0,1.994,0.157,2.988,0.475c0.999,0.314,1.989,0.79,2.979,1.432v-4.192&#10;&#9;c-1.011-0.493-2.037-0.859-3.075-1.1c-1.034-0.24-2.098-0.357-3.188-0.357c-3.04,0-5.487,0.85-7.34,2.547&#10;&#9;c-1.854,1.7-2.778,3.938-2.778,6.716c0,1.322,0.235,2.556,0.711,3.704c0.471,1.152,1.161,2.16,2.063,3.02&#10;&#9;c0.875,0.824,1.901,1.452,3.07,1.879c1.173,0.424,2.456,0.637,3.855,0.637c1.234,0,2.413-0.146,3.538-0.444&#10;&#9;c1.125-0.301,2.225-0.754,3.297-1.37h0V24.067z"/><path fill="currentColor" d="M111.915,18.593c-0.707-0.807-1.729-1.208-3.054-1.208c-0.903,0-1.7,0.165-2.395,0.497&#10;&#9;c-0.693,0.331-1.43,0.907-2.207,1.727c-0.313-0.75-0.763-1.308-1.352-1.675c-0.588-0.366-1.334-0.549-2.237-0.549&#10;&#9;c-0.807,0-1.544,0.144-2.203,0.427c-0.658,0.289-1.282,0.732-1.871,1.335v-1.518h-3.794v12.113h3.794v-7.721&#10;&#9;c0.375-0.636,0.789-1.117,1.243-1.435c0.457-0.319,0.946-0.48,1.466-0.48c0.602,0,1.038,0.192,1.308,0.58&#10;&#9;c0.266,0.389,0.401,1.026,0.401,1.91v7.146h3.708v-7.721c0.385-0.636,0.798-1.117,1.253-1.435c0.449-0.319,0.939-0.48,1.469-0.48&#10;&#9;c0.602,0,1.038,0.192,1.309,0.576c0.266,0.383,0.401,1.021,0.401,1.914v7.146h3.82v-7.669&#10;&#9;C112.975,20.56,112.621,19.395,111.915,18.593z"/><path fill="currentColor" d="M87.044,17.385c-0.901,0-1.701,0.165-2.395,0.497c-0.693,0.331-1.431,0.907-2.215,1.727&#10;&#9;c-0.313-0.75-0.763-1.308-1.352-1.675c-0.59-0.366-1.336-0.549-2.239-0.549c-0.806,0-1.544,0.144-2.202,0.427&#10;&#9;c-0.658,0.289-1.282,0.732-1.871,1.335v-1.518h-3.794v12.113h3.794v-7.721c0.375-0.636,0.789-1.117,1.243-1.435&#10;&#9;c0.458-0.319,0.947-0.48,1.465-0.48c0.602,0,1.039,0.192,1.309,0.58c0.266,0.389,0.4,1.026,0.4,1.91v7.146H82.9v-7.721&#10;&#9;c0.389-0.636,0.803-1.117,1.256-1.435c0.45-0.319,0.942-0.48,1.471-0.48c0.601,0,1.039,0.192,1.309,0.576&#10;&#9;c0.265,0.383,0.4,1.021,0.4,1.914v7.146h3.817v-7.669c0-1.514-0.353-2.678-1.059-3.48C89.389,17.786,88.369,17.385,87.044,17.385z"/><path fill="currentColor" d="M63.353,17.385h-0.002c-1.971,0-3.567,0.584-4.801,1.757c-1.23,1.169-1.845,2.691-1.845,4.554&#10;&#9;c0,1.858,0.615,3.367,1.845,4.532c1.234,1.165,2.83,1.745,4.801,1.745h0.001c1.985,0,3.594-0.584,4.829-1.749&#10;&#9;c1.234-1.17,1.853-2.679,1.853-4.528c0-1.853-0.619-3.372-1.858-4.549C66.934,17.973,65.328,17.385,63.353,17.385z M65.333,26.174&#10;&#9;c-0.493,0.615-1.156,0.924-1.98,0.924h-0.002c-0.82-0.001-1.478-0.309-1.974-0.924c-0.502-0.619-0.75-1.443-0.75-2.478&#10;&#9;c0-1.029,0.253-1.857,0.755-2.486c0.501-0.623,1.159-0.938,1.97-0.938h0.002c0.814,0,1.474,0.314,1.971,0.938&#10;&#9;c0.501,0.629,0.75,1.457,0.75,2.486C66.074,24.73,65.825,25.555,65.333,26.174z"/><path fill="currentColor" d="M130.632,24.067c-1.071,0.742-2.148,1.305-3.231,1.683c-1.081,0.381-2.157,0.567-3.23,0.567&#10;&#9;c-1.67,0-3.001-0.496-3.987-1.495c-0.989-0.995-1.481-2.331-1.481-4.001c0-1.723,0.519-3.071,1.552-4.052&#10;&#9;c1.034-0.981,2.455-1.47,4.261-1.47c0.995,0,1.994,0.157,2.989,0.475c0.998,0.314,1.988,0.79,2.979,1.432v-4.192&#10;&#9;c-1.012-0.493-2.037-0.859-3.076-1.1c-1.032-0.24-2.097-0.357-3.188-0.357c-3.041,0-5.487,0.85-7.341,2.547&#10;&#9;c-1.853,1.7-2.778,3.938-2.778,6.716c0,1.322,0.235,2.556,0.712,3.704c0.47,1.152,1.16,2.16,2.062,3.02&#10;&#9;c0.877,0.824,1.902,1.452,3.071,1.879c1.172,0.424,2.455,0.637,3.854,0.637c1.234,0,2.412-0.146,3.537-0.444&#10;&#9;c1.126-0.301,2.226-0.754,3.297-1.37h-0.001V24.067z"/><path fill="currentColor" d="M143.074,27.134c-0.176,0.042-0.343,0.063-0.508,0.063c-0.178,0-0.305-0.056-0.384-0.165&#10;&#9;c-0.073-0.108-0.112-0.306-0.112-0.588v-4.82c0-1.479-0.394-2.557-1.178-3.233c-0.782-0.671-2.046-1.007-3.796-1.007&#10;&#9;c-0.182,0-0.36,0.003-0.535,0.01c-0.889,0.034-1.698,0.151-2.434,0.352c-0.882,0.245-1.688,0.615-2.422,1.108l-0.053,3.014&#10;&#9;c0.682-0.628,1.379-1.113,2.094-1.444c0.721-0.332,1.418-0.497,2.099-0.497c0.259,0,0.497,0.014,0.716,0.043v0&#10;&#9;c0.456,0.06,0.818,0.185,1.081,0.371c0.384,0.278,0.579,0.707,0.579,1.282c0,0.088-0.003,0.157-0.008,0.209&#10;&#9;c-0.004,0.048-0.009,0.096-0.019,0.14c-0.584,0.17-1.13,0.333-1.634,0.493c-2.066,0.655-3.453,1.235-4.161,1.736&#10;&#9;c-0.882,0.628-1.321,1.427-1.321,2.398c0,1.113,0.295,1.954,0.893,2.521c0.598,0.565,1.479,0.851,2.647,0.851&#10;&#9;c0.592,0,1.146-0.094,1.675-0.249l-0.002,0.019l0.11-0.033c0.026-0.01,0.056-0.023,0.083-0.033c0.024-0.009,0.051-0.011,0.075-0.02&#10;&#9;v-0.012c0.593-0.231,1.303-0.603,1.828-1.028c0.06,0.454,0.261,0.795,0.605,1.017c0.346,0.227,0.821,0.34,1.428,0.34&#10;&#9;c0.475,0,0.979-0.078,1.513-0.23c0.536-0.153,1.148-0.397,1.836-0.729v-2.118C143.482,27.012,143.248,27.094,143.074,27.134z&#10;&#9; M138.195,26.84c-0.356,0.25-0.697,0.437-1.02,0.564c-0.216,0.083-0.421,0.14-0.614,0.169l-0.001,0.008v-0.008&#10;&#9;c-0.101,0.015-0.197,0.021-0.293,0.021c-0.418,0-0.745-0.111-0.985-0.344c-0.24-0.23-0.357-0.541-0.357-0.934&#10;&#9;c0-0.476,0.218-0.886,0.658-1.229c0.218-0.172,0.545-0.359,0.979-0.56c0.435-0.202,0.979-0.42,1.634-0.65V26.84z"/><path fill="currentColor" d="M160.047,24.35h6.197v-0.125c0-2.134-0.55-3.805-1.649-5.018c-1.099-1.216-2.598-1.822-4.496-1.822h-0.052&#10;&#9;c-1.899,0.01-3.426,0.568-4.574,1.679c-0.685,0.663-1.167,1.457-1.447,2.381c-0.193,0.638-0.289,1.337-0.289,2.099&#10;&#9;c0,0.817,0.096,1.561,0.289,2.233c0.285,0.993,0.781,1.83,1.485,2.509c1.114,1.073,2.627,1.644,4.536,1.707&#10;&#9;c0.122,0.004,0.245,0.006,0.37,0.008c1.043,0,2.019-0.132,2.936-0.389c0.916-0.262,1.789-0.66,2.612-1.194v-2.521&#10;&#9;c-0.775,0.536-1.547,0.94-2.312,1.216c-0.766,0.274-1.535,0.41-2.301,0.41c-0.479,0-0.913-0.048-1.305-0.146&#10;&#9;c-0.547-0.135-1.011-0.365-1.391-0.69c-0.66-0.559-0.988-1.316-0.988-2.281V24.35H160.047z M158.494,20.643&#10;&#9;c0.415-0.423,0.929-0.646,1.553-0.663l0.078,0c0.638,0,1.16,0.222,1.562,0.663c0.406,0.444,0.642,1.055,0.711,1.839l-2.351,0.009&#10;&#9;l-2.352,0.005C157.795,21.703,158.062,21.087,158.494,20.643z"/><path fill="currentColor" d="M154.315,18.331c-0.099-0.063-0.194-0.124-0.29-0.179c-0.363-0.216-0.7-0.382-1.004-0.497&#10;&#9;c-0.39-0.144-0.761-0.218-1.109-0.218c-0.705,0-1.355,0.267-1.953,0.798c-0.598,0.531-1.222,1.414-1.867,2.639v-3.245h-3.82v12.113&#10;&#9;h3.82V24.53c0.249-1.109,0.658-1.981,1.234-2.618c0.576-0.641,1.226-0.96,1.95-0.96c0.313,0,0.631,0.07,0.955,0.206&#10;&#9;c0.327,0.136,0.68,0.354,1.063,0.651l0.73-2.489L154.315,18.331z"/><path fill="currentColor" d="M13.091,33.185l-0.028,0.055l-0.028,0.057c-0.038,0.019-0.066,0.037-0.094,0.053&#10;&#9;c-0.028,0.014-0.056,0.023-0.095,0.023c-0.81,0.575-1.652,1.062-2.504,1.484s-1.714,0.774-2.561,1.074&#10;&#9;c0-0.412,0.02-0.831,0.038-1.244c0.02-0.411,0.037-0.816,0.037-1.201v-0.095v-0.095v-0.057v-0.055&#10;&#9;c-0.018-0.341-0.084-0.661-0.195-0.966c-0.11-0.306-0.266-0.598-0.463-0.881c-0.65-0.867-1.516-1.318-2.462-1.554&#10;&#9;S2.764,29.53,1.795,29.53c0.65-2.222,1.92-4.179,3.591-5.691c1.672-1.51,3.742-2.574,5.992-3.008&#10;&#9;c0.848-0.198,1.705-0.396,2.57-0.509c0.867-0.113,1.742-0.141,2.626,0c-0.838,0.537-1.742,0.952-2.629,1.403&#10;&#9;s-1.758,0.941-2.53,1.629c-0.838,0.772-1.699,1.623-2.351,2.596c-0.652,0.972-1.094,2.064-1.094,3.316&#10;&#9;c-0.076,0.207-0.033,0.38,0.073,0.536c0.105,0.156,0.275,0.292,0.454,0.423c0.471,0.282,1.027,0.433,1.58,0.429&#10;&#9;c0.553-0.005,1.103-0.166,1.564-0.504c0.311-0.348,0.477-0.771,0.582-1.222c0.106-0.453,0.153-0.935,0.229-1.395&#10;&#9;c0.988-0.273,1.911,0.107,2.499,0.785c0.588,0.678,0.842,1.652,0.494,2.564c-0.321,0.435-0.678,0.839-1.071,1.221&#10;&#9;C13.981,32.486,13.553,32.844,13.091,33.185z"/><path fill="currentColor" d="M6.747,33.297c0.065,0.244,0.131,0.485,0.165,0.733c0.033,0.25,0.033,0.509-0.033,0.791&#10;&#9;c-0.028,0.235-0.084,0.434-0.158,0.618c-0.073,0.188-0.163,0.361-0.256,0.55c-0.132,0.188-0.273,0.372-0.433,0.554&#10;&#9;c-0.16,0.18-0.339,0.359-0.546,0.539C5.25,37.175,5.01,37.27,4.766,37.343c-0.246,0.072-0.495,0.123-0.75,0.135&#10;&#9;c-0.395,0.036-0.799,0.018-1.182-0.066c-0.38-0.085-0.739-0.236-1.04-0.462c-0.188-0.142-0.372-0.287-0.535-0.444&#10;&#9;c-0.163-0.159-0.303-0.328-0.407-0.516c-0.179-0.274-0.339-0.604-0.454-0.943c-0.115-0.342-0.186-0.694-0.186-1.016&#10;&#9;c0,0,0-0.103,0.01-0.247c0.009-0.143,0.028-0.326,0.066-0.486c0.029-0.121,0.029-0.121,0.021-0.092&#10;&#9;c-0.007,0.03-0.021,0.092-0.021,0.092c0.029-0.217,0.099-0.457,0.2-0.686c0.101-0.227,0.232-0.444,0.383-0.613&#10;&#9;c0.151-0.198,0.33-0.364,0.513-0.506c0.183-0.143,0.372-0.267,0.541-0.379c0.141-0.076,0.283-0.146,0.433-0.204&#10;&#9;c0.15-0.055,0.311-0.099,0.49-0.116c0.141-0.047,0.268-0.069,0.407-0.083c0.139-0.012,0.289-0.012,0.478-0.012&#10;&#9;c0.254,0.048,0.489,0.112,0.703,0.204c0.214,0.093,0.407,0.21,0.577,0.361c0.236,0.092,0.457,0.225,0.657,0.39&#10;&#9;c0.2,0.16,0.379,0.354,0.529,0.57c0.132,0.17,0.245,0.345,0.336,0.521C6.628,32.925,6.699,33.109,6.747,33.297z"/><path fill="currentColor" d="M29.435,24.767l0.047,0.066l0.046,0.066c0,0.027,0.01,0.051,0.031,0.075&#10;&#9;c0.022,0.022,0.055,0.049,0.102,0.075c0.537,0.745,0.989,1.563,1.394,2.422c0.404,0.859,0.763,1.758,1.111,2.663&#10;&#9;c-0.415,0-0.829-0.043-1.245-0.085c-0.417-0.043-0.836-0.086-1.26-0.086h-0.066h-0.066c-0.009,0-0.032,0-0.054,0&#10;&#9;c-0.021,0-0.04,0-0.04,0c-0.329,0.02-0.673,0.086-1.007,0.205c-0.334,0.12-0.659,0.295-0.951,0.529&#10;&#9;c-0.875,0.649-1.313,1.516-1.544,2.452c-0.231,0.937-0.254,1.945-0.301,2.877c-2.175-0.603-4.095-1.868-5.587-3.543&#10;&#9;c-1.493-1.674-2.556-3.754-3.018-5.984c-0.16-0.848-0.333-1.719-0.438-2.594c-0.103-0.876-0.136-1.757-0.015-2.623&#10;&#9;c0.509,0.857,0.909,1.775,1.356,2.662c0.447,0.888,0.942,1.746,1.639,2.48c0.771,0.848,1.637,1.728,2.606,2.395&#10;&#9;c0.971,0.67,2.043,1.126,3.23,1.126c0.207,0.028,0.419-0.038,0.595-0.142c0.176-0.105,0.317-0.245,0.383-0.368&#10;&#9;c0.273-0.509,0.415-1.085,0.415-1.654c0-0.566-0.141-1.121-0.433-1.584c-0.415-0.292-0.838-0.456-1.276-0.557&#10;&#9;c-0.438-0.103-0.889-0.138-1.36-0.177c-0.273-0.998,0.1-1.929,0.77-2.53c0.671-0.601,1.641-0.871,2.563-0.54&#10;&#9;c0.48,0.311,0.922,0.674,1.32,1.075C28.78,23.867,29.134,24.308,29.435,24.767z"/><path fill="currentColor" d="M29.529,31.112c0.226-0.075,0.49-0.133,0.751-0.161c0.261-0.027,0.52-0.027,0.735,0.01&#10;&#9;c0.209,0.029,0.415,0.076,0.615,0.151s0.393,0.18,0.571,0.319c0.217,0.095,0.41,0.236,0.578,0.396&#10;&#9;c0.167,0.16,0.308,0.338,0.42,0.508c0.16,0.245,0.273,0.495,0.352,0.754c0.077,0.259,0.12,0.528,0.139,0.809&#10;&#9;c0.028,0.349-0.005,0.735-0.097,1.106c-0.092,0.373-0.242,0.729-0.45,1.022c-0.122,0.187-0.254,0.361-0.402,0.534&#10;&#9;c-0.148,0.171-0.313,0.341-0.501,0.521c-0.291,0.158-0.612,0.305-0.939,0.412c-0.327,0.104-0.661,0.171-0.982,0.171&#10;&#9;c0,0-0.14,0-0.31-0.015c-0.169-0.014-0.367-0.042-0.481-0.099c-0.16-0.038-0.16-0.038-0.12-0.029c0.041,0.01,0.12,0.029,0.12,0.029&#10;&#9;c-0.253-0.038-0.489-0.109-0.722-0.209c-0.233-0.102-0.463-0.234-0.709-0.394c-0.14-0.141-0.296-0.292-0.444-0.459&#10;&#9;c-0.148-0.167-0.29-0.35-0.403-0.56c-0.065-0.13-0.141-0.262-0.203-0.402c-0.061-0.143-0.107-0.292-0.117-0.462&#10;&#9;c-0.029-0.198-0.043-0.344-0.043-0.48c0-0.136,0.014-0.263,0.043-0.423c0-0.227,0.047-0.481,0.125-0.723&#10;&#9;c0.077-0.242,0.185-0.473,0.308-0.651c0.142-0.227,0.306-0.424,0.48-0.612c0.174-0.188,0.358-0.368,0.536-0.556&#10;&#9;c0.226-0.094,0.424-0.183,0.609-0.269C29.176,31.269,29.35,31.188,29.529,31.112z"/><path fill="currentColor" d="M20.906,8.423l0.103-0.085l0.104-0.084c0,0,0.01-0.005,0.029-0.017c0.019-0.012,0.047-0.031,0.084-0.059&#10;&#9;c0.809-0.527,1.657-0.975,2.517-1.376c0.858-0.402,1.729-0.761,2.586-1.109c0,0.415-0.033,0.819-0.066,1.219&#10;&#9;s-0.066,0.795-0.066,1.191v0.075v0.076c0,0.076,0,0.113,0,0.135c0,0.021,0,0.025,0,0.035c0.027,0.358,0.075,0.692,0.176,1.002&#10;&#9;c0.101,0.311,0.257,0.598,0.501,0.862c0.612,0.894,1.492,1.365,2.45,1.618c0.957,0.251,1.994,0.284,2.916,0.303&#10;&#9;c-0.592,2.184-1.874,4.105-3.561,5.597c-1.687,1.492-3.782,2.556-6.004,3.027c-0.838,0.179-1.708,0.348-2.577,0.445&#10;&#9;c-0.869,0.097-1.735,0.12-2.563,0.008c0.81-0.556,1.714-0.952,2.599-1.383c0.884-0.431,1.75-0.896,2.484-1.593&#10;&#9;c0.876-0.791,1.757-1.652,2.418-2.625c0.661-0.972,1.104-2.055,1.104-3.288c0.056-0.226,0.023-0.419-0.088-0.579&#10;&#9;c-0.11-0.16-0.299-0.288-0.553-0.381c-0.442-0.283-0.984-0.424-1.535-0.424c-0.55,0-1.11,0.141-1.591,0.424&#10;&#9;c-0.226,0.386-0.395,0.823-0.515,1.276c-0.121,0.452-0.191,0.917-0.219,1.36c-0.999,0.302-1.911-0.07-2.493-0.743&#10;&#9;c-0.582-0.674-0.831-1.647-0.501-2.552c0.273-0.443,0.622-0.871,1.009-1.269C20.044,9.109,20.473,8.742,20.906,8.423z"/><path fill="currentColor" d="M27.25,8.253c-0.065-0.216-0.113-0.457-0.136-0.708s-0.023-0.516,0.005-0.779&#10;&#9;c0.029-0.16,0.089-0.349,0.179-0.544c0.089-0.195,0.207-0.398,0.348-0.585c0.084-0.208,0.198-0.382,0.351-0.533&#10;&#9;c0.154-0.151,0.347-0.278,0.591-0.391c0.197-0.188,0.433-0.32,0.699-0.414c0.265-0.095,0.562-0.151,0.883-0.189&#10;&#9;c0.348-0.02,0.71,0.009,1.064,0.109c0.353,0.098,0.696,0.267,1.006,0.531C32.438,4.873,32.622,5,32.784,5.14&#10;&#9;c0.163,0.139,0.304,0.289,0.417,0.458c0.18,0.273,0.339,0.608,0.455,0.961c0.114,0.353,0.185,0.725,0.185,1.073&#10;&#9;c0,0,0.009,0.104,0.015,0.233c0.004,0.129,0.004,0.284-0.015,0.388c-0.047,0.15-0.047,0.15-0.035,0.113&#10;&#9;c0.012-0.038,0.035-0.113,0.035-0.113c-0.075,0.273-0.159,0.532-0.264,0.776c-0.103,0.245-0.226,0.475-0.376,0.692&#10;&#9;c-0.15,0.151-0.296,0.292-0.461,0.44c-0.165,0.148-0.348,0.304-0.574,0.483c-0.142,0.065-0.292,0.122-0.447,0.166&#10;&#9;c-0.155,0.045-0.315,0.078-0.476,0.097c-0.112,0.056-0.254,0.084-0.402,0.084c-0.149,0-0.304-0.028-0.445-0.084&#10;&#9;c-0.273,0-0.536-0.033-0.777-0.094c-0.24-0.062-0.457-0.15-0.635-0.264c-0.198-0.169-0.419-0.333-0.626-0.522&#10;&#9;c-0.207-0.188-0.399-0.4-0.542-0.664c-0.16-0.151-0.272-0.329-0.36-0.52C27.369,8.654,27.308,8.451,27.25,8.253z"/><path fill="currentColor" d="M4.657,16.896L4.59,16.811l-0.065-0.085c0-0.028-0.014-0.042-0.041-0.05c-0.026-0.01-0.063-0.016-0.11-0.024&#10;&#9;c-0.556-0.8-1.017-1.633-1.415-2.488c-0.397-0.854-0.733-1.73-1.034-2.615c0.377,0,0.782,0.028,1.195,0.057&#10;&#9;c0.415,0.028,0.839,0.057,1.253,0.057h0.075h0.076c0.046,0,0.08,0,0.102-0.005c0.021-0.004,0.03-0.014,0.03-0.033&#10;&#9;c0.329,0,0.659-0.046,0.974-0.16c0.315-0.112,0.617-0.292,0.89-0.555c0.895-0.593,1.346-1.445,1.574-2.387&#10;&#9;C8.323,7.581,8.328,6.55,8.328,5.599c2.221,0.584,4.185,1.878,5.698,3.577s2.577,3.804,3.001,6.006&#10;&#9;c0.169,0.838,0.353,1.694,0.466,2.556c0.113,0.862,0.156,1.728,0.042,2.584c-0.527-0.856-0.933-1.769-1.374-2.652&#10;&#9;c-0.443-0.883-0.923-1.734-1.601-2.469c-0.8-0.847-1.671-1.718-2.646-2.384c-0.975-0.666-2.052-1.127-3.267-1.155&#10;&#9;c-0.253-0.02-0.451,0.052-0.619,0.174c-0.167,0.123-0.303,0.297-0.436,0.485c-0.235,0.499-0.376,1.055-0.384,1.605&#10;&#9;c-0.007,0.55,0.12,1.096,0.421,1.576c0.396,0.217,0.815,0.358,1.265,0.474c0.449,0.115,0.929,0.205,1.447,0.318&#10;&#9;c0.235,0.913-0.156,1.802-0.827,2.389c-0.671,0.585-1.622,0.869-2.507,0.566c-0.443-0.338-0.866-0.691-1.261-1.077&#10;&#9;C5.353,17.786,4.986,17.367,4.657,16.896z"/><path fill="currentColor" d="M4.525,10.588c-0.235,0.094-0.48,0.156-0.722,0.186c-0.243,0.031-0.483,0.031-0.709,0.003&#10;&#9;c-0.263-0.019-0.475-0.076-0.673-0.169c-0.197-0.095-0.381-0.227-0.588-0.396C1.645,10.117,1.452,9.995,1.28,9.845&#10;&#9;c-0.172-0.151-0.323-0.33-0.427-0.537C0.712,9.101,0.599,8.837,0.514,8.555C0.429,8.272,0.373,7.97,0.345,7.688&#10;&#9;C0.317,7.321,0.354,6.945,0.446,6.587C0.538,6.229,0.684,5.89,0.872,5.598c0.15-0.188,0.296-0.354,0.447-0.499&#10;&#9;C1.47,4.953,1.625,4.826,1.795,4.713C2.096,4.469,2.43,4.299,2.776,4.19C3.122,4.083,3.48,4.035,3.828,4.035&#10;&#9;c0,0,0.113-0.028,0.257-0.042c0.143-0.014,0.318-0.014,0.44,0.042c0.16,0.02,0.16,0.02,0.12,0.015&#10;&#9;c-0.041-0.005-0.12-0.015-0.12-0.015C4.751,4.073,4.99,4.149,5.226,4.261c0.235,0.113,0.467,0.264,0.673,0.452&#10;&#9;c0.207,0.141,0.362,0.278,0.494,0.433c0.132,0.156,0.241,0.33,0.354,0.546c0.065,0.113,0.136,0.264,0.202,0.421&#10;&#9;c0.066,0.157,0.127,0.322,0.174,0.463C7.16,6.709,7.18,6.85,7.189,7.003C7.198,7.156,7.198,7.321,7.198,7.5&#10;&#9;C7.16,7.754,7.08,7.985,6.982,8.21c-0.1,0.227-0.217,0.448-0.33,0.683C6.511,9.101,6.351,9.307,6.185,9.5&#10;&#9;c-0.168,0.194-0.342,0.373-0.512,0.523c-0.235,0.123-0.418,0.254-0.595,0.359C4.901,10.489,4.732,10.569,4.525,10.588z"/></svg>