<?xml version="1.0" encoding="utf-8"?>
<!-- Generator: Adobe Illustrator 24.1.3, SVG Export Plug-In . SVG Version: 6.00 Build 0)  -->
<svg version="1.1" id="CommonCircle_StackedLogo_RGB"
	 xmlns="http://www.w3.org/2000/svg" xmlns:xlink="http://www.w3.org/1999/xlink" x="0px" y="0px" viewBox="0 0 284 143.7"
	 style="enable-background:new 0 0 284 143.7;" xml:space="preserve">
<style type="text/css">
	.st0{fill:#1B1159;}
	.st1{fill:url(#SVGID_1_);}
</style>
<path class="st0" d="M15.5,116.2c-2.2-0.1-4.3,0.9-5.6,2.7c-1.4,2.2-2.1,4.8-1.9,7.5c0,3.2,0.6,5.7,1.8,7.4s3.1,2.6,5.7,2.6
	c1.2,0,2.5-0.1,3.6-0.4c1.3-0.3,2.7-0.7,4-1.2v5.3c-1.3,0.5-2.6,0.9-3.9,1.2c-1.4,0.3-2.9,0.4-4.3,0.4c-2.7,0.1-5.3-0.6-7.6-1.9
	c-2-1.3-3.5-3.2-4.4-5.4c-1-2.6-1.5-5.3-1.4-8.1c-0.1-2.8,0.5-5.5,1.6-8c1-2.2,2.7-4.1,4.8-5.5c2.3-1.4,5-2.1,7.7-2
	c1.5,0,3,0.2,4.5,0.6c1.5,0.4,2.9,0.9,4.3,1.5l-2.1,5.2c-1.1-0.5-2.2-1-3.4-1.4C17.8,116.4,16.7,116.2,15.5,116.2z"/>
<path class="st0" d="M48,129.7c0,3.8-1,6.7-3,8.8c-2.2,2.1-5.1,3.3-8.2,3.1c-2,0-3.9-0.4-5.7-1.4c-1.7-0.9-3-2.3-3.9-4
	c-1-2-1.5-4.2-1.4-6.5c0-3.8,1-6.7,3-8.8c2.2-2.1,5.1-3.2,8.2-3.1c2,0,4,0.4,5.7,1.4c1.7,0.9,3,2.3,3.9,4
	C47.5,125.3,48,127.5,48,129.7z M32.2,129.7c-0.1,1.8,0.3,3.6,1.1,5.1c0.8,1.2,2.2,1.9,3.6,1.7c1.4,0.1,2.8-0.6,3.6-1.7
	c0.8-1.6,1.2-3.4,1.1-5.1c0.1-1.8-0.3-3.5-1.1-5.1c-0.8-1.2-2.2-1.8-3.6-1.7c-1.4-0.1-2.8,0.5-3.6,1.7C32.4,126.2,32,128,32.2,129.7
	z"/>
<path class="st0" d="M79.2,117.9c2.6,0,4.6,0.7,5.9,2c1.3,1.3,2,3.5,2,6.4v14.9h-6.2v-13.4c0-3.3-1.1-4.9-3.4-4.9
	c-1.4-0.1-2.8,0.6-3.5,1.8c-0.8,1.6-1.1,3.3-1,5.1v11.5h-6.2v-13.4c0-3.3-1.1-4.9-3.4-4.9c-1.5-0.1-2.9,0.6-3.6,1.9
	c-0.7,1.8-1.1,3.7-1,5.6v10.8h-6.2v-22.9h4.8l0.8,2.9h0.3c0.7-1.1,1.7-2,2.9-2.6c1.2-0.5,2.5-0.8,3.8-0.8c1.5,0,2.9,0.2,4.3,0.8
	c1.1,0.5,2.1,1.4,2.7,2.5h0.5c0.7-1.1,1.7-2,2.9-2.6C76.5,118.2,77.8,117.9,79.2,117.9z"/>
<path class="st0" d="M119.3,117.9c2.6,0,4.6,0.7,5.9,2c1.3,1.3,2,3.5,2,6.4v14.9H121v-13.4c0-3.3-1.1-4.9-3.4-4.9
	c-1.4-0.1-2.8,0.6-3.5,1.8c-0.8,1.6-1.1,3.3-1,5.1v11.5h-6.2v-13.4c0-3.3-1.1-4.9-3.4-4.9c-1.5-0.1-2.9,0.6-3.6,1.9
	c-0.7,1.8-1.1,3.7-1,5.6v10.8h-6.2v-22.9h4.8l0.8,2.9h0.3c0.7-1.1,1.7-2,2.9-2.6c1.2-0.5,2.5-0.8,3.8-0.8c1.5,0,2.9,0.2,4.3,0.8
	c1.1,0.5,2.1,1.4,2.7,2.5h0.5c0.7-1.1,1.7-2,2.9-2.6C116.7,118.2,118,117.9,119.3,117.9z"/>
<path class="st0" d="M153.5,129.7c0,3.8-1,6.7-3,8.8c-2.2,2.1-5.1,3.3-8.2,3.1c-2,0-3.9-0.4-5.7-1.4c-1.7-0.9-3-2.3-3.9-4
	c-1-2-1.5-4.2-1.4-6.5c0-3.8,1-6.7,3-8.8c2.2-2.1,5.1-3.2,8.2-3.1c2,0,4,0.4,5.7,1.4c1.7,0.9,3,2.3,3.9,4
	C153.1,125.3,153.6,127.5,153.5,129.7z M137.7,129.7c-0.1,1.8,0.3,3.6,1.1,5.1c0.8,1.2,2.2,1.9,3.6,1.7c1.4,0.1,2.8-0.6,3.6-1.7
	c0.8-1.6,1.2-3.4,1.1-5.1c0.1-1.8-0.3-3.5-1.1-5.1c-0.8-1.2-2.2-1.8-3.6-1.7c-1.4-0.1-2.8,0.5-3.6,1.7
	C138,126.2,137.6,128,137.7,129.7L137.7,129.7z"/>
<path class="st0" d="M170.9,117.9c2.2-0.1,4.3,0.6,5.9,2c1.5,1.3,2.2,3.5,2.2,6.4v14.9h-6.2v-13.4c0.1-1.3-0.2-2.6-0.9-3.7
	c-0.7-0.9-1.7-1.3-2.8-1.2c-1.9,0-3.2,0.7-3.9,1.9c-0.8,1.8-1.2,3.7-1,5.6v10.8h-6.2v-22.9h4.8l0.8,2.9h0.3c0.7-1.2,1.8-2,3-2.6
	C168.1,118.2,169.5,117.9,170.9,117.9z"/>
<path class="st0" d="M198.3,114.2c-2.9-0.1-5.7,1-7.6,3.2c-1.8,2.2-2.8,5.1-2.8,8.8c0,3.7,0.9,6.7,2.6,8.8c1.7,2.2,4.3,3.3,7.7,3.2
	c1.2,0,2.5-0.1,3.7-0.3c1.2-0.2,2.3-0.5,3.5-0.8v3.3c-1.1,0.4-2.3,0.7-3.5,0.9c-1.4,0.2-2.8,0.3-4.3,0.3c-2.7,0.1-5.3-0.6-7.6-1.9
	c-2.1-1.3-3.7-3.1-4.6-5.4c-1.1-2.6-1.6-5.4-1.5-8.2c-0.1-2.8,0.5-5.5,1.7-8c1.1-2.2,2.8-4.1,4.9-5.4c2.4-1.4,5.1-2,7.8-1.9
	c2.9-0.1,5.7,0.5,8.3,1.8l-1.5,3.2c-1-0.4-2-0.8-3.1-1.1C200.8,114.3,199.5,114.2,198.3,114.2z"/>
<path class="st0" d="M212.7,110.3c0.5,0,1.1,0.2,1.5,0.6c0.9,1,0.9,2.5,0,3.6c-0.4,0.4-0.9,0.6-1.5,0.6c-0.6,0-1.1-0.2-1.6-0.6
	c-0.8-1-0.8-2.5,0-3.6C211.6,110.5,212.2,110.3,212.7,110.3z M214.5,118.8v22.5h-3.7v-22.5H214.5z"/>
<path class="st0" d="M231.1,118.3c0.4,0,0.9,0,1.3,0.1c0.4,0,0.9,0.1,1.3,0.2l-0.5,3.4c-0.4-0.1-0.8-0.2-1.2-0.2
	c-0.4-0.1-0.8-0.1-1.2-0.1c-1.1,0-2.3,0.3-3.2,0.9c-1,0.6-1.9,1.6-2.4,2.6c-0.6,1.2-0.9,2.6-0.9,4v12h-3.7v-22.5h3l0.4,4.1h0.2
	c0.7-1.2,1.7-2.3,2.8-3.2C228.2,118.8,229.6,118.3,231.1,118.3z"/>
<path class="st0" d="M245.2,141.7c-1.8,0-3.7-0.4-5.3-1.2c-1.6-0.8-2.8-2.2-3.6-3.8c-1-2-1.4-4.3-1.3-6.5c-0.1-2.3,0.4-4.6,1.4-6.8
	c0.8-1.6,2.1-3,3.8-3.8c1.7-0.8,3.5-1.2,5.4-1.2c1.1,0,2.2,0.1,3.3,0.4c0.9,0.2,1.8,0.5,2.6,0.9l-1.1,3.1c-0.8-0.3-1.6-0.5-2.3-0.7
	c-0.8-0.2-1.7-0.3-2.5-0.3c-4.4,0-6.6,2.8-6.6,8.5c-0.1,2.2,0.4,4.4,1.6,6.2c1.1,1.5,2.9,2.3,4.8,2.2c1.1,0,2.2-0.1,3.2-0.4
	c0.9-0.2,1.8-0.5,2.6-0.9v3.3c-0.8,0.4-1.6,0.7-2.5,0.9C247.4,141.6,246.3,141.7,245.2,141.7z"/>
<path class="st0" d="M259.1,141.2h-3.7v-31.9h3.7L259.1,141.2z"/>
<path class="st0" d="M273.2,118.3c1.7,0,3.4,0.4,4.9,1.3c1.4,0.8,2.5,2.1,3.2,3.5c0.8,1.7,1.2,3.5,1.1,5.3v2.2h-15.4
	c-0.1,2.1,0.6,4.2,2,5.8c1.4,1.4,3.3,2.1,5.2,2c1.3,0,2.6-0.1,3.8-0.4c1.2-0.3,2.3-0.7,3.4-1.2v3.2c-1.1,0.5-2.2,0.9-3.4,1.1
	c-1.3,0.3-2.6,0.4-4,0.4c-2,0-3.9-0.4-5.7-1.3c-1.6-0.9-3-2.2-3.8-3.9c-1-2-1.4-4.1-1.4-6.3c-0.1-2.2,0.4-4.3,1.2-6.3
	c0.7-1.7,2-3.1,3.5-4.1C269.6,118.8,271.4,118.3,273.2,118.3z M273.2,121.4c-1.6-0.1-3.1,0.5-4.2,1.7c-1.1,1.3-1.7,3-1.8,4.7h11.4
	c0-1.6-0.4-3.3-1.3-4.6C276.3,121.9,274.8,121.2,273.2,121.4z"/>
<linearGradient id="SVGID_1_" gradientUnits="userSpaceOnUse" x1="131.8679" y1="47.376" x2="156.9658" y2="141.0425" gradientTransform="matrix(1 0 0 -1 0 146)">
	<stop  offset="0" style="stop-color:#4B2E83"/>
	<stop  offset="1.330000e-02" style="stop-color:#4C2F85"/>
	<stop  offset="0.3064" style="stop-color:#5840AB"/>
	<stop  offset="0.5778" style="stop-color:#614CC6"/>
	<stop  offset="0.8175" style="stop-color:#6653D6"/>
	<stop  offset="1" style="stop-color:#6856DC"/>
</linearGradient>
<path class="st1" d="M176.2,34.9l-1-0.7c0-0.1,0-0.2,0-0.3C174.2,15.3,158.2,1,139.6,2c-16.9,0.9-30.5,14.2-31.8,31.1l-0.1,1.2
	c-0.1,0-0.1,0.1-0.2,0.1C92.1,45,88.3,66,98.8,81.4c9.2,13.3,26.4,18.3,41.3,11.8c0.2-0.1,0.3-0.1,0.4-0.2l0.1-0.1l0.8-0.4
	c0.1,0,0.2,0.1,0.3,0.1c16.8,8.2,37,1.2,45.2-15.5C194.1,62.3,189.6,44.4,176.2,34.9L176.2,34.9z M171.5,51.2l0.6,0.9
	c5.7,8.6,3.3,20.1-5.3,25.8c-3.3,2.2-7.2,3.2-11.1,3c-2.2-0.1-4.4-0.6-6.5-1.5c-0.8-0.3-1.6-0.7-2.4-1.2c-0.5-0.3-0.9-0.6-1.3-0.9
	c-1.7-1.2-3.2-2.8-4.4-4.5c-1.3-1.9-2.3-4.1-2.8-6.4l0-0.1l0-0.1c2.2-6.7-1.5-14-8.3-16.2c-1.3-0.4-2.6-0.6-4-0.6
	c-0.4,0-0.8,0-1.2,0.1c-7.1,0.6-12.3,6.8-11.7,13.9c0.5,6.2,5.4,11.1,11.6,11.7l0.3,0l0.1,0.3c0.7,1.6,1.5,3.2,2.4,4.7l0,0
	c0.1,0.2,0.3,0.5,0.4,0.7l-1.1,0.1c-10.3,0.2-18.8-8-19-18.3c-0.1-6.8,3.5-13.2,9.4-16.6c0.5-0.3,1-0.6,1.6-0.8
	c1.9-0.8,4-1.3,6.1-1.5c0.7,0,1.5-0.1,2.2,0c1.5,0.1,3,0.3,4.5,0.7l0.1,0l0.1,0.1c0.4,0.5,0.9,0.9,1.5,1.3c3,2.4,6.9,3.3,10.6,2.5
	c1.3-0.3,2.5-0.7,3.6-1.3c0.6-0.3,1.2-0.7,1.7-1.2c1.6-1.3,2.8-2.9,3.7-4.8c0.4-0.9,0.7-1.9,0.9-2.9c0.2-1.3,0.3-2.6,0.1-4
	c-0.2-1.6-0.7-3.2-1.5-4.7c-0.2-0.3-0.4-0.7-0.6-1c-3.8-5.5-11.1-7.2-16.9-4c-1.7,1-3.2,2.3-4.3,3.9l-0.2,0.2l-0.3,0
	c-1.3-0.2-2.6-0.2-3.9-0.2c-0.5,0-1.1,0-1.6,0c-0.3,0-0.6,0-0.8,0.1l0.5-1c3.1-6.4,9.6-10.4,16.7-10.4c0.1,0,0.3,0,0.4,0
	c10.3,0.3,18.4,8.8,18.2,19.1c-0.1,2.9-0.8,5.7-2.2,8.2c-0.3,0.5-0.6,1-0.9,1.5c-0.8,1.3-1.8,2.5-2.9,3.5l-0.1,0.1l-0.1,0
	c-1.9,0.4-3.7,1.3-5.2,2.5c-0.6,0.4-1.1,0.9-1.6,1.4c-1.1,1.2-1.9,2.6-2.5,4.1c-0.3,0.8-0.5,1.6-0.7,2.4c-1,6.1,2.5,12.1,8.3,14.2
	c1.3,0.5,2.7,0.7,4.1,0.8c0.7,0,1.3,0,2-0.1c6.3-0.9,11-6.1,11.2-12.4c0-2-0.4-3.9-1.2-5.7l-0.1-0.3l0.2-0.2c1-1.4,2-2.8,2.8-4.3
	C171.2,51.7,171.4,51.5,171.5,51.2L171.5,51.2z M142.1,7.1c15.9,0.4,28.4,13.5,28,29.4c0,0.2,0,0.4,0,0.6l0,0.3
	c-0.2,3.6-1.1,7.1-2.6,10.4c-1.4,3.1-3.4,6-5.9,8.4c1.6,1.4,2.6,3.3,2.7,5.4c0,0.2,0,0.4,0,0.7c-0.1,2.7-1.5,5.1-3.8,6.5
	c-2,1.2-4.5,1.5-6.7,0.6c-0.6-0.2-1.1-0.5-1.6-0.8c-1.9-1.3-3.2-3.3-3.4-5.6c0-0.3-0.1-0.7-0.1-1.1c0-0.9,0.2-1.9,0.6-2.7l0.3-0.7
	c0.1-0.2,0.2-0.4,0.3-0.5l0.1-0.1c0.1-0.1,0.1-0.2,0.2-0.3l0.5-0.6c1.4-1.6,3.4-2.6,5.5-2.7c3-2.4,5.3-5.4,6.9-8.9
	c1.3-2.9,2-5.9,2.1-9.1c0-0.1,0-0.3,0-0.4c0-0.1,0-0.2,0-0.3C165,22.5,154.4,12,141.3,12.1c-10.2,0.1-19.2,6.6-22.3,16.3l-0.3,1.1
	c-0.1,0-0.2,0-0.3,0.1c-1.5,0.4-3,0.9-4.5,1.5c-0.3,0.1-0.6,0.2-0.8,0.4l0.2-1.1C115.9,16.5,128.1,6.7,142.1,7.1z M135.2,89.7
	c-15.2,4.6-31.3-3.9-35.9-19.1c-3.9-12.9,1.6-26.8,13.4-33.4c0.1,0,0.2-0.1,0.2-0.1L113,37c4.7-2.5,10.1-3.7,15.4-3.4
	c1.9,0.1,3.7,0.4,5.5,0.9c0.4-2.1,1.6-3.9,3.3-5.1c0.2-0.1,0.4-0.2,0.6-0.4c3.8-2.1,8.5-0.8,10.6,3c0.5,1,0.9,2,1,3.1
	c0.2,1.8-0.3,3.5-1.3,5c-0.5,0.7-1.1,1.4-1.8,1.9c-0.3,0.2-0.6,0.4-0.9,0.6c-1.1,0.6-2.3,0.9-3.5,1l-0.1,0c-0.1,0-0.2,0-0.3,0
	c-2.5-0.1-4.9-1.4-6.3-3.5c-3.7-1.4-7.7-1.9-11.6-1.4c-3,0.4-5.8,1.4-8.4,2.8c-0.2,0.1-0.4,0.3-0.6,0.4l-0.3,0.2
	c-11.1,6.9-14.5,21.5-7.5,32.6c5.1,8.2,14.7,12.4,24.2,10.8l1.1-0.2c0.1,0.1,0.1,0.1,0.2,0.2c1.1,1.2,2.3,2.2,3.5,3.2
	c0.2,0.2,0.5,0.4,0.7,0.5L135.2,89.7z M181.1,77.3c-8.3,13.5-25.9,17.7-39.5,9.6l-0.3-0.2c-3.1-1.9-5.8-4.5-7.9-7.4
	c-2.1-2.9-3.7-6.2-4.6-9.6c-2,0.7-4.2,0.6-6.1-0.4c-0.2-0.1-0.4-0.2-0.6-0.3c-3.7-2.2-4.8-7-2.6-10.7c2.2-3.7,7-4.8,10.7-2.6
	c3.5,2.1,4.7,6.6,2.9,10.2c0.6,3.9,2.2,7.7,4.6,10.9c1.8,2.3,4,4.3,6.5,5.9c0.3,0.2,0.5,0.3,0.8,0.4l0.4,0.2
	c11.5,6.2,25.8,1.9,32-9.6c4.7-8.7,3.5-19.3-3-26.8l-0.7-0.9c0-0.1,0-0.1,0.1-0.2c0.5-1.5,0.8-3,1.1-4.6c0.1-0.3,0.1-0.6,0.1-0.9
	l0.9,0.8l0,0C186,50.3,188.3,65.5,181.1,77.3z"/>
</svg>
