<?xml version="1.0" encoding="UTF-8" standalone="no"?>

<svg
    xmlns="http://www.w3.org/2000/svg"
    xmlns:xlink="http://www.w3.org/1999/xlink"
    viewBox="0 0 118 28"
    id="vector">
  <defs>
    <linearGradient id="a">
      <stop offset="0" stop-color="#56b4ea"/>
      <stop offset="1" stop-color="#98ea56"/>
    </linearGradient>
    <linearGradient id="c" x1="11.74" x2="12.19" y1="5.01" y2="18.99" gradientUnits="userSpaceOnUse" xlink:href="#a"/>
    <linearGradient id="b" x1="9.54" x2="9.5" y1=".24" y2="24.32" gradientUnits="userSpaceOnUse" xlink:href="#a"/>
  </defs>
    <g
        id="group_1"
        transform="translate(-60.58206 -128.0671)">
        <path
            id="path"
            d="M 89.171 137.153 Q 89.041 138.341 88.318 138.972 Q 87.6 139.602 86.401 139.602 Q 85.564 139.602 84.918 139.184 Q 84.277 138.765 83.925 138 Q 83.574 137.23 83.569 136.243 L 83.569 135.266 Q 83.569 134.264 83.92 133.489 Q 84.272 132.714 84.928 132.295 Q 85.589 131.871 86.447 131.871 Q 87.656 131.871 88.354 132.528 Q 89.057 133.179 89.171 134.331 L 88.53 134.331 Q 88.292 132.414 86.447 132.414 Q 85.424 132.414 84.814 133.179 Q 84.21 133.944 84.21 135.292 L 84.21 136.212 Q 84.21 137.514 84.799 138.29 Q 85.393 139.065 86.401 139.065 Q 87.398 139.065 87.905 138.589 Q 88.411 138.109 88.53 137.153 Z"
            fill="#000000"/>
        <path
            id="path_1"
            d="M 96.276 136.145 Q 96.276 137.184 95.914 137.969 Q 95.558 138.755 94.891 139.178 Q 94.225 139.602 93.351 139.602 Q 92.033 139.602 91.222 138.662 Q 90.411 137.716 90.411 136.114 L 90.411 135.339 Q 90.411 134.31 90.773 133.52 Q 91.139 132.724 91.806 132.3 Q 92.473 131.871 93.341 131.871 Q 94.209 131.871 94.87 132.29 Q 95.537 132.708 95.899 133.473 Q 96.261 134.238 96.276 135.246 Z M 95.64 135.328 Q 95.64 133.969 95.026 133.199 Q 94.411 132.429 93.341 132.429 Q 92.292 132.429 91.667 133.205 Q 91.046 133.975 91.046 135.359 L 91.046 136.145 Q 91.046 137.483 91.667 138.269 Q 92.287 139.049 93.351 139.049 Q 94.431 139.049 95.036 138.279 Q 95.64 137.504 95.64 136.124 Z"
            fill="#000000"/>
        <path
            id="path_2"
            d="M 100.689 136.367 L 98.503 136.367 L 98.503 139.499 L 97.863 139.499 L 97.863 131.975 L 100.307 131.975 Q 101.511 131.975 102.188 132.559 Q 102.865 133.143 102.865 134.192 Q 102.865 134.915 102.441 135.468 Q 102.017 136.021 101.304 136.233 L 103.185 139.432 L 103.185 139.499 L 102.508 139.499 Z M 98.503 135.825 L 100.452 135.825 Q 101.253 135.825 101.738 135.37 Q 102.224 134.915 102.224 134.192 Q 102.224 133.396 101.718 132.957 Q 101.211 132.517 100.296 132.517 L 98.503 132.517 Z"
            fill="#000000"/>
        <path
            id="path_3"
            d="M 110.156 136.145 Q 110.156 137.184 109.795 137.969 Q 109.438 138.755 108.771 139.178 Q 108.105 139.602 107.231 139.602 Q 105.914 139.602 105.102 138.662 Q 104.291 137.716 104.291 136.114 L 104.291 135.339 Q 104.291 134.31 104.653 133.52 Q 105.02 132.724 105.686 132.3 Q 106.353 131.871 107.221 131.871 Q 108.089 131.871 108.751 132.29 Q 109.417 132.708 109.779 133.473 Q 110.141 134.238 110.156 135.246 Z M 109.521 135.328 Q 109.521 133.969 108.906 133.199 Q 108.291 132.429 107.221 132.429 Q 106.172 132.429 105.547 133.205 Q 104.927 133.975 104.927 135.359 L 104.927 136.145 Q 104.927 137.483 105.547 138.269 Q 106.167 139.049 107.231 139.049 Q 108.311 139.049 108.916 138.279 Q 109.521 137.504 109.521 136.124 Z"
            fill="#000000"/>
        <path
            id="path_4"
            d="M 117.36 139.499 L 116.724 139.499 L 112.399 133.06 L 112.399 139.499 L 111.758 139.499 L 111.758 131.975 L 112.399 131.975 L 116.73 138.419 L 116.73 131.975 L 117.36 131.975 Z"
            fill="#000000"/>
        <path
            id="path_5"
            d="M 123.427 137.39 L 120.011 137.39 L 119.236 139.499 L 118.569 139.499 L 121.417 131.975 L 122.021 131.975 L 124.869 139.499 L 124.207 139.499 Z M 120.207 136.848 L 123.225 136.848 L 121.716 132.75 Z"
            fill="#000000"/>
        <path
            id="path_6"
            d="M 133.876 137.153 Q 133.747 138.341 133.023 138.972 Q 132.305 139.602 131.106 139.602 Q 130.269 139.602 129.623 139.184 Q 128.982 138.765 128.631 138 Q 128.279 137.23 128.274 136.243 L 128.274 135.266 Q 128.274 134.264 128.625 133.489 Q 128.977 132.714 129.633 132.295 Q 130.295 131.871 131.152 131.871 Q 132.362 131.871 133.059 132.528 Q 133.762 133.179 133.876 134.331 L 133.235 134.331 Q 132.997 132.414 131.152 132.414 Q 130.129 132.414 129.519 133.179 Q 128.915 133.944 128.915 135.292 L 128.915 136.212 Q 128.915 137.514 129.504 138.29 Q 130.098 139.065 131.106 139.065 Q 132.103 139.065 132.61 138.589 Q 133.116 138.109 133.235 137.153 Z"
            fill="#000000"/>
        <path
            id="path_7"
            d="M 140.981 136.145 Q 140.981 137.184 140.619 137.969 Q 140.263 138.755 139.596 139.178 Q 138.93 139.602 138.056 139.602 Q 136.739 139.602 135.927 138.662 Q 135.116 137.716 135.116 136.114 L 135.116 135.339 Q 135.116 134.31 135.478 133.52 Q 135.845 132.724 136.511 132.3 Q 137.178 131.871 138.046 131.871 Q 138.914 131.871 139.576 132.29 Q 140.242 132.708 140.604 133.473 Q 140.966 134.238 140.981 135.246 Z M 140.346 135.328 Q 140.346 133.969 139.731 133.199 Q 139.116 132.429 138.046 132.429 Q 136.997 132.429 136.372 133.205 Q 135.752 133.975 135.752 135.359 L 135.752 136.145 Q 135.752 137.483 136.372 138.269 Q 136.992 139.049 138.056 139.049 Q 139.136 139.049 139.741 138.279 Q 140.346 137.504 140.346 136.124 Z"
            fill="#000000"/>
        <path
            id="path_8"
            d="M 148.185 139.499 L 147.549 139.499 L 143.224 133.06 L 143.224 139.499 L 142.583 139.499 L 142.583 131.975 L 143.224 131.975 L 147.554 138.419 L 147.554 131.975 L 148.185 131.975 Z"
            fill="#000000"/>
        <path
            id="path_9"
            d="M 155.053 132.517 L 152.474 132.517 L 152.474 139.499 L 151.838 139.499 L 151.838 132.517 L 149.265 132.517 L 149.265 131.975 L 155.053 131.975 Z"
            fill="#000000"/>
        <path
            id="path_10"
            d="M 159.921 137.39 L 156.505 137.39 L 155.73 139.499 L 155.063 139.499 L 157.91 131.975 L 158.515 131.975 L 161.362 139.499 L 160.701 139.499 Z M 156.701 136.848 L 159.719 136.848 L 158.21 132.75 Z"
            fill="#000000"/>
        <path
            id="path_11"
            d="M 167.739 137.153 Q 167.61 138.341 166.887 138.972 Q 166.168 139.602 164.969 139.602 Q 164.132 139.602 163.486 139.184 Q 162.845 138.765 162.494 138 Q 162.143 137.23 162.137 136.243 L 162.137 135.266 Q 162.137 134.264 162.489 133.489 Q 162.84 132.714 163.497 132.295 Q 164.158 131.871 165.016 131.871 Q 166.225 131.871 166.923 132.528 Q 167.625 133.179 167.739 134.331 L 167.098 134.331 Q 166.861 132.414 165.016 132.414 Q 163.993 132.414 163.383 133.179 Q 162.778 133.944 162.778 135.292 L 162.778 136.212 Q 162.778 137.514 163.367 138.29 Q 163.962 139.065 164.969 139.065 Q 165.967 139.065 166.473 138.589 Q 166.98 138.109 167.098 137.153 Z"
            fill="#000000"/>
        <path
            id="path_12"
            d="M 174.24 132.517 L 171.661 132.517 L 171.661 139.499 L 171.026 139.499 L 171.026 132.517 L 168.452 132.517 L 168.452 131.975 L 174.24 131.975 Z"
            fill="#000000"/>
        <path
            id="path_13"
            d="M 88.948 145.746 L 86.37 145.746 L 86.37 152.728 L 85.734 152.728 L 85.734 145.746 L 83.161 145.746 L 83.161 145.204 L 88.948 145.204 Z"
            fill="#000000"/>
        <path
            id="path_14"
            d="M 92.974 149.596 L 90.788 149.596 L 90.788 152.728 L 90.147 152.728 L 90.147 145.204 L 92.592 145.204 Q 93.796 145.204 94.473 145.788 Q 95.15 146.372 95.15 147.421 Q 95.15 148.144 94.726 148.697 Q 94.302 149.25 93.589 149.462 L 95.47 152.661 L 95.47 152.728 L 94.793 152.728 Z M 90.788 149.054 L 92.736 149.054 Q 93.537 149.054 94.023 148.599 Q 94.509 148.144 94.509 147.421 Q 94.509 146.625 94.002 146.186 Q 93.496 145.746 92.581 145.746 L 90.788 145.746 Z"
            fill="#000000"/>
        <path
            id="path_15"
            d="M 100.942 150.619 L 97.527 150.619 L 96.752 152.728 L 96.085 152.728 L 98.932 145.204 L 99.537 145.204 L 102.384 152.728 L 101.723 152.728 Z M 97.723 150.077 L 100.741 150.077 L 99.232 145.979 Z"
            fill="#000000"/>
        <path
            id="path_16"
            d="M 108.761 150.382 Q 108.632 151.57 107.908 152.201 Q 107.19 152.831 105.991 152.831 Q 105.154 152.831 104.508 152.413 Q 103.867 151.994 103.516 151.229 Q 103.165 150.459 103.159 149.472 L 103.159 148.496 Q 103.159 147.493 103.511 146.718 Q 103.862 145.943 104.518 145.524 Q 105.18 145.1 106.038 145.1 Q 107.247 145.1 107.945 145.757 Q 108.647 146.408 108.761 147.56 L 108.12 147.56 Q 107.883 145.643 106.038 145.643 Q 105.015 145.643 104.405 146.408 Q 103.8 147.173 103.8 148.521 L 103.8 149.441 Q 103.8 150.744 104.389 151.519 Q 104.984 152.294 105.991 152.294 Q 106.989 152.294 107.495 151.818 Q 108.001 151.338 108.12 150.382 Z"
            fill="#000000"/>
        <path
            id="path_17"
            d="M 111.081 152.728 L 110.446 152.728 L 110.446 145.204 L 111.081 145.204 Z"
            fill="#000000"/>
        <path
            id="path_18"
            d="M 118.724 152.728 L 118.089 152.728 L 113.763 146.289 L 113.763 152.728 L 113.123 152.728 L 113.123 145.204 L 113.763 145.204 L 118.094 151.648 L 118.094 145.204 L 118.724 145.204 Z"
            fill="#000000"/>
        <path
            id="path_19"
            d="M 126.067 151.834 Q 125.737 152.304 125.029 152.568 Q 124.326 152.831 123.453 152.831 Q 122.569 152.831 121.882 152.407 Q 121.194 151.984 120.817 151.209 Q 120.44 150.433 120.435 149.431 L 120.435 148.48 Q 120.435 146.914 121.225 146.01 Q 122.016 145.1 123.349 145.1 Q 124.512 145.1 125.22 145.695 Q 125.928 146.284 126.062 147.323 L 125.427 147.323 Q 125.287 146.496 124.75 146.072 Q 124.217 145.643 123.354 145.643 Q 122.3 145.643 121.685 146.392 Q 121.07 147.142 121.07 148.506 L 121.07 149.395 Q 121.07 150.253 121.36 150.914 Q 121.654 151.57 122.197 151.932 Q 122.745 152.294 123.453 152.294 Q 124.274 152.294 124.863 152.035 Q 125.246 151.865 125.432 151.638 L 125.432 149.694 L 123.411 149.694 L 123.411 149.157 L 126.067 149.157 Z"
            fill="#000000"/>
        <path
            id="path_20"
            d="M 135.876 151.834 Q 135.545 152.304 134.837 152.568 Q 134.134 152.831 133.261 152.831 Q 132.377 152.831 131.69 152.407 Q 131.003 151.984 130.625 151.209 Q 130.248 150.433 130.243 149.431 L 130.243 148.48 Q 130.243 146.914 131.034 146.01 Q 131.824 145.1 133.157 145.1 Q 134.32 145.1 135.028 145.695 Q 135.736 146.284 135.87 147.323 L 135.235 147.323 Q 135.095 146.496 134.558 146.072 Q 134.026 145.643 133.163 145.643 Q 132.108 145.643 131.493 146.392 Q 130.879 147.142 130.879 148.506 L 130.879 149.395 Q 130.879 150.253 131.168 150.914 Q 131.462 151.57 132.005 151.932 Q 132.553 152.294 133.261 152.294 Q 134.082 152.294 134.672 152.035 Q 135.054 151.865 135.24 151.638 L 135.24 149.694 L 133.219 149.694 L 133.219 149.157 L 135.876 149.157 Z"
            fill="#000000"/>
        <path
            id="path_21"
            d="M 141.834 149.121 L 138.315 149.121 L 138.315 152.19 L 142.361 152.19 L 142.361 152.728 L 137.679 152.728 L 137.679 145.204 L 142.335 145.204 L 142.335 145.746 L 138.315 145.746 L 138.315 148.583 L 141.834 148.583 Z"
            fill="#000000"/>
        <path
            id="path_22"
            d="M 146.511 149.596 L 144.325 149.596 L 144.325 152.728 L 143.684 152.728 L 143.684 145.204 L 146.128 145.204 Q 147.332 145.204 148.009 145.788 Q 148.686 146.372 148.686 147.421 Q 148.686 148.144 148.262 148.697 Q 147.839 149.25 147.126 149.462 L 149.007 152.661 L 149.007 152.728 L 148.33 152.728 Z M 144.325 149.054 L 146.273 149.054 Q 147.074 149.054 147.56 148.599 Q 148.045 148.144 148.045 147.421 Q 148.045 146.625 147.539 146.186 Q 147.033 145.746 146.118 145.746 L 144.325 145.746 Z"
            fill="#000000"/>
        <path
            id="path_23"
            d="M 151.26 145.204 L 154.035 151.844 L 156.82 145.204 L 157.667 145.204 L 157.667 152.728 L 157.032 152.728 L 157.032 149.452 L 157.084 146.093 L 154.283 152.728 L 153.792 152.728 L 151.001 146.118 L 151.053 149.431 L 151.053 152.728 L 150.417 152.728 L 150.417 145.204 Z"
            fill="#000000"/>
        <path
            id="path_24"
            d="M 163.729 150.619 L 160.313 150.619 L 159.538 152.728 L 158.872 152.728 L 161.719 145.204 L 162.324 145.204 L 165.171 152.728 L 164.509 152.728 Z M 160.51 150.077 L 163.528 150.077 L 162.019 145.979 Z"
            fill="#000000"/>
        <path
            id="path_25"
            d="M 171.878 152.728 L 171.243 152.728 L 166.918 146.289 L 166.918 152.728 L 166.277 152.728 L 166.277 145.204 L 166.918 145.204 L 171.248 151.648 L 171.248 145.204 L 171.878 145.204 Z"
            fill="#000000"/>
        <path
            id="path_26"
            d="M 175.852 149.307 L 178.152 145.204 L 178.886 145.204 L 176.168 149.896 L 176.168 152.728 L 175.532 152.728 L 175.532 149.896 L 172.819 145.204 L 173.573 145.204 Z"
            fill="#000000"/>
        <g
            id="group"
            transform="translate(60.02362 127.7778) scale(1.220208 1.220208)">
            <path
                id="path_27"
                d="M 9.535 0.244 C 9.359 0.228 9.179 0.239 8.998 0.283 C 8.058 0.49 7.458 1.421 7.674 2.365 C 7.801 2.948 8.199 3.395 8.707 3.605 L 9.156 5.607 C 8.595 5.841 8.097 6.154 7.627 6.533 C 7.473 6.383 7.294 6.266 7.1 6.186 C 6.684 6.014 6.203 6.001 5.754 6.172 C 4.867 6.563 4.447 7.578 4.799 8.48 C 4.964 8.841 5.229 9.115 5.531 9.326 C 5.325 9.825 5.191 10.332 5.102 10.836 L 3.758 10.658 C 3.571 10.299 3.258 10.008 2.879 9.852 C 2.74 9.794 2.593 9.734 2.432 9.732 C 1.477 9.608 0.6 10.283 0.473 11.248 C 0.365 12.058 0.85 12.799 1.543 13.086 C 1.682 13.143 1.819 13.201 1.99 13.207 C 2.578 13.277 3.135 13.052 3.5 12.641 L 5.053 12.84 C 5.167 13.742 5.454 14.616 5.879 15.42 L 4.1 16.85 C 3.561 16.713 2.98 16.808 2.51 17.188 C 1.76 17.797 1.65 18.899 2.26 19.648 C 2.447 19.877 2.689 20.053 2.947 20.16 C 3.52 20.397 4.2 20.321 4.721 19.898 C 5.178 19.525 5.399 18.966 5.355 18.418 L 7.096 17.006 C 7.722 17.611 8.467 18.113 9.326 18.469 C 9.382 18.492 9.437 18.514 9.492 18.537 C 9.273 18.728 9.112 18.986 8.99 19.281 C 8.713 20.162 9.147 21.1 9.988 21.447 C 10.025 21.463 10.072 21.483 10.109 21.498 C 11.036 21.795 12.022 21.293 12.324 20.379 C 12.478 19.902 12.415 19.4 12.193 18.994 C 12.708 18.98 13.226 18.901 13.732 18.775 L 14.797 20.952 C 14.491 21.432 14.42 22.02 14.635 22.574 C 14.832 23.012 15.184 23.341 15.6 23.513 C 16.016 23.685 16.496 23.7 16.946 23.529 C 17.832 23.138 18.252 22.121 17.901 21.218 C 17.703 20.779 17.352 20.451 16.936 20.279 C 16.843 20.24 16.752 20.203 16.639 20.189 L 15.574 18.012 C 16.071 17.719 16.532 17.36 16.947 16.947 L 15.535 15.535 C 14.148 16.92 12.013 17.416 10.09 16.621 C 7.539 15.567 6.326 12.64 7.381 10.09 C 8.435 7.539 11.36 6.324 13.91 7.379 C 14.537 7.638 15.081 8.015 15.533 8.467 L 16.947 7.053 C 16.542 6.648 16.081 6.289 15.568 5.986 L 16.104 4.693 C 16.638 4.579 17.116 4.203 17.342 3.658 C 17.712 2.762 17.291 1.742 16.395 1.371 C 15.498 1.001 14.478 1.424 14.107 2.32 C 13.882 2.866 13.958 3.471 14.256 3.93 L 13.721 5.223 C 12.839 4.999 11.952 4.946 11.082 5.063 L 10.662 3.168 C 11.036 2.76 11.221 2.187 11.09 1.613 C 10.954 1.027 10.553 0.581 10.045 0.371 C 9.883 0.304 9.711 0.26 9.535 0.244 Z M 11.176 8.539 C 10.591 8.543 10.039 8.892 9.801 9.467 C 9.484 10.234 9.848 11.109 10.615 11.426 C 11.382 11.743 12.257 11.38 12.574 10.613 C 12.891 9.846 12.527 8.971 11.76 8.654 C 11.568 8.575 11.371 8.538 11.176 8.539 Z M 13.078 13.613 C 12.689 13.617 12.318 13.849 12.16 14.23 C 11.95 14.739 12.195 15.327 12.703 15.537 C 13.211 15.747 13.8 15.502 14.01 14.994 C 14.22 14.486 13.975 13.898 13.467 13.688 C 13.34 13.635 13.208 13.612 13.078 13.613 Z"
                 opacity=".5"
                fill="url(#b)" />
            <path
                id="path_28"
                d="M 11.738 5.008 C 11.519 5.016 11.3 5.033 11.082 5.062 L 11.082 5.061 C 10.417 5.148 9.769 5.331 9.156 5.604 L 9.156 5.607 C 8.905 5.712 8.67 5.837 8.441 5.973 C 8.384 6.007 8.326 6.042 8.27 6.078 C 8.057 6.214 7.849 6.357 7.648 6.518 C 7.641 6.523 7.634 6.528 7.627 6.533 C 6.704 7.272 5.983 8.233 5.531 9.326 C 5.529 9.332 5.528 9.338 5.525 9.344 C 5.323 9.837 5.19 10.338 5.102 10.836 L 5.098 10.836 C 5.033 11.221 5 11.61 5 12 C 5 12.281 5.017 12.561 5.051 12.84 L 5.053 12.84 C 5.137 13.509 5.317 14.162 5.578 14.783 C 5.585 14.8 5.592 14.817 5.6 14.834 C 5.648 14.948 5.706 15.058 5.76 15.17 C 6.143 15.923 6.659 16.601 7.283 17.17 C 7.353 17.233 7.422 17.297 7.494 17.357 C 7.497 17.359 7.499 17.361 7.502 17.363 C 7.556 17.408 7.611 17.453 7.666 17.496 C 7.667 17.497 7.667 17.497 7.668 17.498 C 7.798 17.6 7.93 17.698 8.068 17.791 C 8.104 17.815 8.14 17.838 8.176 17.861 C 8.332 17.963 8.494 18.06 8.66 18.15 C 8.685 18.164 8.711 18.178 8.736 18.191 C 8.919 18.287 9.107 18.376 9.301 18.457 C 9.309 18.461 9.317 18.465 9.326 18.469 C 9.349 18.478 9.372 18.487 9.395 18.496 C 10.223 18.829 11.107 19 12 19 C 12.065 19 12.13 18.998 12.195 18.996 C 12.195 18.995 12.194 18.995 12.193 18.994 C 12.708 18.98 13.226 18.901 13.732 18.775 L 13.734 18.781 C 14.382 18.615 15.002 18.357 15.576 18.016 L 15.574 18.012 C 16.071 17.719 16.532 17.36 16.947 16.947 L 15.535 15.535 C 14.148 16.92 12.013 17.416 10.09 16.621 C 7.539 15.567 6.326 12.64 7.381 10.09 C 8.435 7.539 11.36 6.324 13.91 7.379 C 14.537 7.638 15.081 8.015 15.533 8.467 L 16.947 7.053 C 16.542 6.648 16.081 6.289 15.568 5.986 L 15.57 5.98 C 14.994 5.638 14.372 5.38 13.723 5.215 L 13.721 5.223 C 13.06 5.055 12.396 4.984 11.738 5.008 Z M 11.176 8.539 C 10.591 8.543 10.039 8.892 9.801 9.467 C 9.484 10.234 9.848 11.109 10.615 11.426 C 11.382 11.743 12.257 11.38 12.574 10.613 C 12.891 9.846 12.527 8.971 11.76 8.654 C 11.568 8.575 11.371 8.538 11.176 8.539 Z M 13.078 13.613 C 12.689 13.617 12.318 13.849 12.16 14.23 C 11.95 14.739 12.195 15.327 12.703 15.537 C 13.211 15.747 13.8 15.502 14.01 14.994 C 14.22 14.486 13.975 13.898 13.467 13.688 C 13.34 13.635 13.208 13.612 13.078 13.613 Z"
                fill="url(#c)" />
        </g>
    </g>
</svg>
