<svg id="Layer_1" data-name="Layer 1" xmlns="http://www.w3.org/2000/svg" xmlns:xlink="http://www.w3.org/1999/xlink" viewBox="0 0 334.93974 400"><defs><style>.cls-1{fill:#404040;}.cls-2{fill:url(#linear-gradient);}</style><linearGradient id="linear-gradient" x1="154.79034" y1="235.61232" x2="154.79034" y2="6.73695" gradientUnits="userSpaceOnUse"><stop offset="0" stop-color="#b62316"/><stop offset="0.13994" stop-color="#ab4c49"/><stop offset="0.29572" stop-color="#a0737b"/><stop offset="0.45015" stop-color="#9694a4"/><stop offset="0.60014" stop-color="#8faec4"/><stop offset="0.74444" stop-color="#8ac0db"/><stop offset="0.88054" stop-color="#87cbe8"/><stop offset="1" stop-color="#86cfed"/></linearGradient></defs><path class="cls-1" d="M52.09385,360.96485,58.26,380.4592l9.36044-19.4832,9.02039,19.4832,6.63864-19.49435h4.77882L77.73641,391.98049l-10.21-19.23653L58.27886,392,47.315,360.96485Z"/><path class="cls-1" d="M108.24491,384.47291H95.75921l-3.24859,7.08391H87.76943l14.43122-30.99613,13.92115,30.99613h-4.81714Zm-1.79433-4.13635-4.32588-9.91581-4.53284,9.91581Z"/><path class="cls-1" d="M126.7336,391.55682h-4.65339V361.57945h11.61257c6.17038,0,10.01336,3.57331,10.01336,9.16184a8.60075,8.60075,0,0,1-5.81708,8.55839l6.71041,12.25714h-5.36l-6.10766-11.52965H126.7336Zm0-15.28971h6.523c3.59422,0,5.65055-1.97341,5.65055-5.40178,0-3.34476-2.18106-5.37949-5.77528-5.37949H126.7336Z"/><path class="cls-1" d="M152.53031,391.55682v-31.148l19.84276,20.82389V360.96485h4.40114v30.94038l-19.84276-20.76675v20.41834Z"/><path class="cls-1" d="M186.30927,375.78936h8.4246v3.70153h-8.4246Z"/><path class="cls-1" d="M219.86581,384.47291H207.38012l-3.25,7.08391h-4.74119l14.43122-30.99613,13.92116,30.99613h-4.81645Zm-1.795-4.13635-4.32588-9.91581-4.53354,9.91581Z"/><path class="cls-1" d="M243.8059,361.02338a17.13873,17.13873,0,0,1,5.10354.6801,9.88929,9.88929,0,0,1,3.59282,1.92463,7.61755,7.61755,0,0,1,2.11556,3.00889,10.63227,10.63227,0,0,1,.69125,3.912,10.20135,10.20135,0,0,1-.74421,3.944,8.44566,8.44566,0,0,1-2.18942,3.0939,10.02081,10.02081,0,0,1-3.604,2.00964,15.82859,15.82859,0,0,1-4.96557.71216h-4.72029v11.24813h-4.52935V361.02338Zm0,15.71339a9.39083,9.39083,0,0,0,3.02979-.446,6.05578,6.05578,0,0,0,2.19081-1.26543,5.24622,5.24622,0,0,0,1.32815-1.95669,6.83005,6.83005,0,0,0,.44736-2.51971,5.659,5.659,0,0,0-1.7337-4.38024,7.55061,7.55061,0,0,0-5.26241-1.59433h-4.72029v12.16237Z"/><path class="cls-1" d="M272.7241,361.02338a17.13873,17.13873,0,0,1,5.10354.6801,9.88929,9.88929,0,0,1,3.59282,1.92463A7.61755,7.61755,0,0,1,283.536,366.637a10.63227,10.63227,0,0,1,.69125,3.912,10.20135,10.20135,0,0,1-.74421,3.944,8.44566,8.44566,0,0,1-2.18942,3.0939,10.02081,10.02081,0,0,1-3.604,2.00964,15.82859,15.82859,0,0,1-4.96557.71216h-4.72029v11.24813h-4.52936V361.02338Zm0,15.71339a9.39083,9.39083,0,0,0,3.02979-.446,6.05578,6.05578,0,0,0,2.19081-1.26543,5.24622,5.24622,0,0,0,1.32815-1.95669,6.83005,6.83005,0,0,0,.44736-2.51971,5.659,5.659,0,0,0-1.7337-4.38024,7.55061,7.55061,0,0,0-5.26241-1.59433h-4.72029v12.16237Z"/><path class="cls-1" d="M34.63244,337.01094a26.48426,26.48426,0,0,1-18.65332-44.88086,25.05314,25.05314,0,0,1,18.65332-7.57348q11.36022,0,18.44314,8.20479L48.447,297.24962a17.13962,17.13962,0,0,0-13.81453-6.52179,18.94533,18.94533,0,0,0-13.9549,5.60974q-5.541,5.541-5.53992,14.44584,0,8.90664,5.53992,14.44583a18.93745,18.93745,0,0,0,13.9549,5.61047q8.76481,0,15.21751-7.36329l4.69843,4.55806a24.35875,24.35875,0,0,1-8.76627,6.62725A26.72279,26.72279,0,0,1,34.63244,337.01094Z"/><path class="cls-1" d="M34.63255,337.546A27.01949,27.01949,0,0,1,15.60089,291.7514a25.67587,25.67587,0,0,1,19.03166-7.72987,23.82339,23.82339,0,0,1,18.8477,8.38977l.33029.38255-5.40666,5.24291-.36862-.446a16.7012,16.7012,0,0,0-13.40271-6.32786,18.50982,18.50982,0,0,0-13.57692,5.45335c-3.57192,3.57192-5.383,8.30474-5.383,14.06678,0,5.76413,1.811,10.497,5.383,14.06749a18.501,18.501,0,0,0,13.57692,5.454c5.654,0,10.63841-2.41589,14.81448-7.18077l.37141-.42367,5.45961,5.29586-.31914.38186a24.99923,24.99923,0,0,1-8.95559,6.77174A27.38647,27.38647,0,0,1,34.63255,337.546Zm0-52.45413a24.6431,24.6431,0,0,0-18.27143,7.41281,25.65917,25.65917,0,0,0,18.27143,43.971,26.31306,26.31306,0,0,0,10.929-2.30161,23.9533,23.9533,0,0,0,8.25388-6.10557l-3.93845-3.82c-4.31125,4.72935-9.43779,7.12642-15.24442,7.12642a19.537,19.537,0,0,1-14.33367-5.76761c-3.78027-3.77818-5.69654-8.76605-5.69654-14.82424,0-6.0561,1.91627-11.044,5.69654-14.82354a19.54429,19.54429,0,0,1,14.33367-5.76691,17.67106,17.67106,0,0,1,13.85216,6.2749l3.852-3.73567A22.79407,22.79407,0,0,0,34.63255,285.09186Z"/><path class="cls-1" d="M62.2712,310.34472A24.27041,24.27041,0,0,1,69.94163,292.372a25.24643,25.24643,0,0,1,18.35773-7.50969,25.91543,25.91543,0,0,1,25.77171,25.77171,24.366,24.366,0,0,1-7.63828,18.13269,26.18423,26.18423,0,0,1-35.7532.83441Q62.2712,322.25259,62.2712,310.34472Zm7.54183.09644a17.9094,17.9094,0,0,0,5.52011,13.512,18.285,18.285,0,0,0,25.836-.09645,19.23374,19.23374,0,0,0,.0643-26.574,18.4802,18.4802,0,0,0-26.09246,0A17.87772,17.87772,0,0,0,69.813,310.44116Z"/><path class="cls-1" d="M133.72524,335.38792h-7.325V285.48148h18.28043c9.71186,0,15.76154,5.94909,15.76154,15.252,0,6.74421-3.40074,12.20834-9.15647,14.24916l10.56255,20.40526h-8.43649l-9.61433-19.19467H133.72524Zm0-25.45465h10.26861c5.65684,0,8.89435-3.28578,8.89435-8.992,0-5.568-3.43325-8.95766-9.09077-8.95766H133.72524Z"/><path class="cls-1" d="M234.50079,334.95979V284.48743l32.74558,34.33643.25393-33.66372h7.16961v51.24974l-33.03782-34.53739v33.0873Z"/><path class="cls-1" d="M314.68963,325.33693H294.458l-3.98082,10.051h-8.96617l23.384-51.65487,22.55759,51.65487h-8.37527Zm-2.90715-6.70275-7.01005-17.49656-7.34592,17.49656Z"/><path class="cls-1" d="M171.36645,309.95427a24.27043,24.27043,0,0,1,7.67042-17.97268,25.2465,25.2465,0,0,1,18.35774-7.50968,25.9154,25.9154,0,0,1,25.7717,25.7717A24.36592,24.36592,0,0,1,215.528,328.3763a26.18419,26.18419,0,0,1-35.75319.83441Q171.36644,321.86214,171.36645,309.95427Zm7.54183.09645a17.90938,17.90938,0,0,0,5.52011,13.512,18.285,18.285,0,0,0,25.836-.09645,19.23373,19.23373,0,0,0,.06429-26.574,18.4802,18.4802,0,0,0-26.09246,0A17.87772,17.87772,0,0,0,178.90828,310.05072Z"/><path class="cls-2" d="M123.75579,117.86455c-2.53708.00276-5.076-.05459-7.61055.02451a3.26493,3.26493,0,0,1-3.241-1.783,9.14051,9.14051,0,0,0-9.9539-4.39212,9.29382,9.29382,0,0,0-7.33633,7.803,9.432,9.432,0,0,0,5.66075,10.07294c4.16861,1.63161,9.30213.18761,11.35551-3.54,1.03515-1.87914,2.29353-2.32588,4.23631-2.28475,4.71967.09993,9.44481.11218,14.16377-.00309,2.14207-.05234,3.03443.50881,3.33744,2.86007a35.1884,35.1884,0,0,0,7.33009,17.31946c1.00733,1.2916.91657,2.10753-.20788,3.20433-3.68267,3.59224-7.33981,7.214-10.89938,10.92732a3.67349,3.67349,0,0,1-4.07508,1.17661,9.12241,9.12241,0,0,0-11.05626,6.708,9.32229,9.32229,0,0,0,17.91112,5.14872,9.13924,9.13924,0,0,0-.03006-5.61832,2.15614,2.15614,0,0,1,.64153-2.455q6.08944-6.02039,12.11566-12.1045a1.50435,1.50435,0,0,1,2.34942-.14368,37.23276,37.23276,0,0,0,18.49838,7.71538c1.48717.17427,1.99386.96416,1.98178,2.41578-.04519,5.42684-.066,10.8552.023,16.281.02621,1.59814-.92169,2.15109-2.04206,2.84224A9.14217,9.14217,0,0,0,162.91468,190.51a9.5268,9.5268,0,0,0,8.791,6.7478,9.378,9.378,0,0,0,9.04413-6.667,9.09924,9.09924,0,0,0-4.26522-10.71392,2.889,2.889,0,0,1-1.73615-2.8098q.09133-8.03417.01105-16.0698c-.01613-1.55715.54487-2.33261,2.11488-2.5248a36.98975,36.98975,0,0,0,20.40943-9.40086c1.377-1.22257,2.12869-.931,3.27536.21909q25.304,25.37932,50.70162,50.66508c1.4608,1.45263,1.42926,2.33241-.04432,3.718-17.54994,16.50245-38.11912,26.96259-61.96674,30.53778-28.61472,4.2899-55.37357-1.23713-79.58038-17.08454-27.961-18.30509-44.943-44.20539-50.7328-77.18894C55.136,118.28718,57.8025,97.25883,66.174,76.97492A114.6064,114.6064,0,0,1,87.05812,44.15174c5.422-6.05933,11.68769-11.0269,18.12485-15.89161a95.73134,95.73134,0,0,1,16.561-9.84277,106.73217,106.73217,0,0,1,31.08375-9.83c3.6719-.52082,7.43847-.68294,11.007-1.35741,3.897-.73656,7.67683.00588,11.50953-.42842,3.00633-.34066,6.15008.76829,9.24947.95191A78.7657,78.7657,0,0,1,195.4138,9.39874a108.40907,108.40907,0,0,1,19.05769,5.716A121.47581,121.47581,0,0,1,235.79662,26.3178,115.917,115.917,0,0,1,251.1523,38.37016c1.243,1.15242,1.37324,1.95331.08337,3.23893q-25.45809,25.37464-50.81428,50.85149c-1.17851,1.18321-2.012,1.36537-3.31635.12367a35.17835,35.17835,0,0,0-19.95589-9.33689c-1.84507-.25536-2.35461-1.02625-2.33458-2.72555.06074-5.14461.05026-10.29058.00873-15.43555a2.92573,2.92573,0,0,1,1.63515-2.88517,9.38509,9.38509,0,0,0,4.564-10.81542,9.7921,9.7921,0,0,0-8.809-7.07993c-3.81163-.27368-8.04181,2.7101-9.38371,6.61882a9.49746,9.49746,0,0,0,4.04789,11.05872,3.51415,3.51415,0,0,1,1.99568,3.53889c-.07546,5.0032-.06555,10.00879-.00292,15.01236.0214,1.7094-.5066,2.47216-2.34608,2.71391A35.18005,35.18005,0,0,0,149.14263,90.405c-1.35969,1.0631-2.27065,1.14789-3.54771-.192-3.64593-3.82539-7.4144-7.53546-11.1865-11.23806a2.74105,2.74105,0,0,1-.82245-2.972c1.1735-5.10926-1.22968-9.731-5.72452-11.372a9.303,9.303,0,0,0-11.62469,4.312,8.98438,8.98438,0,0,0,.54475,9.99336c2.33284,3.22064,5.54768,4.819,9.562,3.81175a3.91928,3.91928,0,0,1,4.28795,1.25427c3.51354,3.65982,7.12275,7.23,10.76427,10.7633,1.06572,1.03408,1.20444,1.83764.26954,3.04123a36.38174,36.38174,0,0,0-7.434,18.16262,1.88517,1.88517,0,0,1-2.23015,1.90332C129.25311,117.836,126.50427,117.86177,123.75579,117.86455Z"/></svg>