<svg id="Layer_1" data-name="Layer 1" xmlns="http://www.w3.org/2000/svg" viewBox="0 0 304.14407 369.08824"><defs><style>.cls-1{fill:#8d55e8;}.cls-2{fill:#fdfcfe;}.cls-3{fill:#fefefe;}</style></defs><path class="cls-1" d="M297.68925,149.06985c.38011,80.16435-65.92023,147.21773-148.89658,145.40349C70.65975,292.765,4.84862,227.84462,6.81307,145.15122,8.66328,67.2671,73.48794,1.51263,156.19855,3.562,234.1047,5.4923,297.96893,69.59965,297.68925,149.06985ZM59.3135,139.91954c-1.51468,0-3.03428-.0788-4.54306.01555a7.10724,7.10724,0,0,0-6.719,6.90441,7.30252,7.30252,0,0,0,6.39294,7.55718,35.80172,35.80172,0,0,0,3.93475.062c6.52244.0044,6.52244.00209,7.348,6.37883,5.02862,38.843,36.94824,70.28744,75.99261,74.76064,1.89942.21761,2.36219.92806,2.28907,2.64307-.10316,2.419-.098,4.84866-.00668,7.26878.1734,4.59672,3.10276,7.65909,7.2587,7.71194,4.28655.0545,7.29424-3.06006,7.46125-7.81305a51.99362,51.99362,0,0,0-.02482-6.35781c-.20423-2.32378.6771-3.08482,2.97454-3.3844,33.62158-4.38391,57.26558-22.27033,71.13667-53.08871a71.62164,71.62164,0,0,0,6.15664-24.52713c.1849-2.6571.91852-4.048,3.93336-3.64762a36.52393,36.52393,0,0,0,6.65578.02424,7.21351,7.21351,0,0,0,6.93245-7.35029,7.06,7.06,0,0,0-7.08772-7.14639c-2.623-.0811-5.25583-.11978-7.87407.01727-1.89493.09919-2.4652-.49029-2.75081-2.465-3.52213-24.351-15.09038-44.04117-34.80883-58.77518a83.14385,83.14385,0,0,0-42.35287-16.38943c-2.06818-.20274-3.11469-.82342-2.917-3.12013a54.31875,54.31875,0,0,0,.0242-6.66054c-.17176-4.61079-3.06508-7.67435-7.21912-7.74937-4.28308-.07737-7.3348,3.04339-7.50053,7.77868-.08472,2.42057-.10546,4.85078.01164,7.26856.08656,1.78717-.53034,2.37381-2.35964,2.5767-37.71625,4.183-69.44683,34.44423-75.428,71.84175C65.31872,139.91371,65.31872,139.91371,59.3135,139.91954Z"/><path class="cls-2" d="M59.3135,139.91662c6.00522-.00291,6.00522-.00291,6.91038-5.66246,5.98119-37.39752,37.71177-67.65875,75.428-71.84175,1.8293-.20289,2.4462-.78953,2.35964-2.5767-.1171-2.41778-.09636-4.848-.01164-7.26856.16573-4.73529,3.21745-7.856,7.50053-7.77868,4.154.075,7.04736,3.13858,7.21912,7.74937a54.31875,54.31875,0,0,1-.0242,6.66054c-.19771,2.29671.8488,2.91739,2.917,3.12013A83.14385,83.14385,0,0,1,203.9652,78.70794c19.71845,14.734,31.2867,34.42415,34.80883,58.77518.28561,1.97468.85588,2.56416,2.75081,2.465,2.61824-.13705,5.25109-.09837,7.87407-.01727a7.06,7.06,0,0,1,7.08772,7.14639,7.21351,7.21351,0,0,1-6.93245,7.35029,36.52393,36.52393,0,0,1-6.65578-.02424c-3.01484-.40035-3.74846.99052-3.93336,3.64762A71.62164,71.62164,0,0,1,232.8084,182.578c-13.87109,30.81838-37.51509,48.7048-71.13667,53.08871-2.29744.29958-3.17877,1.06062-2.97454,3.3844a51.99362,51.99362,0,0,1,.02482,6.35781c-.167,4.753-3.1747,7.86755-7.46125,7.81305-4.15594-.05285-7.0853-3.11522-7.2587-7.71194-.09129-2.42012-.09648-4.84974.00668-7.26878.07312-1.715-.38965-2.42546-2.28907-2.64307-39.04437-4.4732-70.964-35.91761-75.99261-74.76064-.82553-6.37674-.82553-6.37443-7.348-6.37883a35.80172,35.80172,0,0,1-3.93475-.062,7.30252,7.30252,0,0,1-6.39294-7.55718,7.10724,7.10724,0,0,1,6.719-6.90441C56.27922,139.84074,57.79882,139.91954,59.3135,139.91662Zm29.22027,14.54406-1.81756,0c-7.1,0-7.1,0-6.025,6.9911,4.62695,30.09028,30.58913,55.40146,61.00715,59.5405,1.76167.23972,2.36241-.22169,2.31085-2.00275-.09639-3.3294-.087-6.665-.01113-9.9955.10925-4.79382,3.03354-7.87678,7.35072-7.88116,4.32215-.00438,7.25051,3.07334,7.37346,7.85964.07257,2.8255.012,5.65434.01442,8.48169.00346,4.1004.08421,4.16063,4.00079,3.53152,18.72137-3.00714,34.18775-11.73326,46.14632-26.47537a70.98779,70.98779,0,0,0,15.58576-37.14477c.26-2.2061-.1878-3.08216-2.616-2.95864-3.92788.19982-7.87433.106-11.81122.03739a7.32126,7.32126,0,0,1-7.47769-7.4556c.07829-4.007,3.24374-7.016,7.52488-7.065,3.93756-.04513,7.87818-.0869,11.8132.02256,1.95121.05427,2.52342-.28335,2.14387-2.49923-3.40736-19.89228-13.35324-35.69257-29.55862-47.57033a72.44069,72.44069,0,0,0-32.24851-12.95332c-2.7554-.4295-3.81838.32193-3.55751,3.23665a83.04735,83.04735,0,0,1,.0473,8.47706c-.06688,5.04863-2.88829,8.22586-7.28282,8.25969-4.54924.035-7.40555-3.1582-7.45785-8.38876-.03129-3.13-.093-6.26374.02467-9.38956.075-1.99059-.66654-2.34522-2.51571-2.05628a72.939,72.939,0,0,0-60.99879,60.28762c-.4155,2.47228.35407,2.65259,2.34077,2.59585,3.834-.10953,7.67358-.06216,11.51029-.02368,4.45477.04465,7.65109,3.12427,7.62151,7.27216-.0293,4.10841-3.26046,7.17757-7.68209,7.25971C92.37143,154.48945,90.45232,154.45977,88.53377,154.46068Z"/><path class="cls-1" d="M88.53377,154.46021c1.91855-.00044,3.83766.02924,5.75554-.00639,4.42163-.08214,7.65279-3.1513,7.68209-7.25971.02958-4.14789-3.16674-7.22751-7.62151-7.27216-3.83671-.03848-7.67633-.08585-11.51029.02368-1.9867.05674-2.75627-.12357-2.34077-2.59585a72.939,72.939,0,0,1,60.99879-60.28762c1.84917-.28894,2.59066.06569,2.51571,2.05628-.11771,3.12582-.056,6.2596-.02467,9.38956.0523,5.23056,2.90861,8.42378,7.45785,8.38876,4.39453-.03383,7.21594-3.21106,7.28282-8.25969A83.04735,83.04735,0,0,0,158.682,80.16c-.26087-2.91472.80211-3.66615,3.55751-3.23665A72.44069,72.44069,0,0,1,194.488,89.87668c16.20538,11.87776,26.15126,27.67805,29.55862,47.57033.37955,2.21588-.19266,2.5535-2.14387,2.49923-3.935-.10946-7.87564-.06769-11.8132-.02256-4.28114.04906-7.44659,3.05805-7.52488,7.065a7.32126,7.32126,0,0,0,7.47769,7.4556c3.93689.06864,7.88334.16243,11.81122-.03739,2.42817-.12352,2.876.75254,2.616,2.95864a70.98779,70.98779,0,0,1-15.58576,37.14477c-11.95857,14.74211-27.42495,23.46823-46.14632,26.47537-3.91658.62911-3.99733.56888-4.00079-3.53152-.00239-2.82735.05815-5.65619-.01442-8.48169-.123-4.7863-3.05131-7.864-7.37346-7.85964-4.31718.00438-7.24147,3.08734-7.35072,7.88116-.0759,3.3305-.08526,6.6661.01113,9.9955.05156,1.78106-.54918,2.24247-2.31085,2.00275-30.418-4.139-56.3802-29.45022-61.00715-59.5405-1.075-6.99108-1.075-6.9911,6.025-6.9911Q87.625,154.46066,88.53377,154.46021ZM151.525,133.43426a24.25451,24.25451,0,0,0-4.33671-5.51211,18.44873,18.44873,0,0,0-19.75047-3.03354c-6.0331,2.79292-9.55366,8.92-9.06437,16.07143.36536,5.33992,2.914,9.80808,6.14858,13.8817,7.50677,9.45393,16.9172,16.96469,25.75749,25.05826,1.38652,1.26941,2.14438.27166,3.03286-.50851,7.34686-6.45132,14.77634-12.82121,21.44686-19.99,3.92724-4.22059,7.48778-8.73469,9.19923-14.389,3.75469-12.40472-5.4944-23.2452-18.32765-21.53016C159.36108,124.32025,154.99781,127.90988,151.525,133.43426Z"/><path class="cls-3" d="M151.525,133.43426c3.47286-5.52438,7.83613-9.114,14.10582-9.9519,12.83325-1.715,22.08234,9.12544,18.32765,21.53016-1.71145,5.65429-5.272,10.16839-9.19923,14.389-6.67052,7.16878-14.1,13.53867-21.44686,19.99-.88848.78017-1.64634,1.77792-3.03286.50851-8.84029-8.09357-18.25072-15.60433-25.75749-25.05826-3.2346-4.07362-5.78322-8.54178-6.14858-13.8817-.48929-7.15148,3.03127-13.27851,9.06437-16.07143a18.44873,18.44873,0,0,1,19.75047,3.03354A24.25451,24.25451,0,0,1,151.525,133.43426Z"/><path d="M12.78109,323.87313a17.81253,17.81253,0,0,1,13.29853-5.34147q10.80129,0,15.79574,7.16123a15.61305,15.61305,0,0,1,2.96154,8.07166H35.797a12.32864,12.32864,0,0,0-2.21393-4.69668q-2.41554-2.81642-7.15909-2.81694a8.82158,8.82158,0,0,0-7.61966,3.97691q-2.78908,3.97639-2.78909,11.256,0,7.278,2.94279,10.90252a9.22084,9.22084,0,0,0,7.47881,3.6256,8.47432,8.47432,0,0,0,7.09162-3.11148,13.655,13.655,0,0,0,2.23909-5.01908h8.98154A19.49093,19.49093,0,0,1,38.811,359.38691,17.28381,17.28381,0,0,1,26.57231,363.818q-9.23323,0-14.51794-5.98734Q6.7702,351.81545,6.7702,341.33708,6.7702,330.00721,12.78109,323.87313Z"/><path d="M78.06071,358.70142q-4.05029,4.9998-12.2976,4.9998-8.24757,0-12.2976-4.9998a19.8488,19.8488,0,0,1,0-24.03181q4.05028-5.0721,12.2976-5.07263,8.24678,0,12.2976,5.07263a19.84876,19.84876,0,0,1,0,24.03181Zm-6.69157-4.62278q1.9657-2.60915,1.966-7.41508,0-4.807-1.966-7.40009a6.6496,6.6496,0,0,0-5.63548-2.59308,6.68909,6.68909,0,0,0-5.64995,2.59308q-1.981,2.59308-1.981,7.40009t1.981,7.41508a6.675,6.675,0,0,0,5.64995,2.60808A6.63572,6.63572,0,0,0,71.36914,354.07864Z"/><path d="M107.80673,330.62414h8.981l-11.55213,31.991H96.4158l-11.47233-31.991h9.39176l6.66211,23.597Z"/><path d="M130.12749,326.80789h-8.48241v-7.7182h8.48241Zm-8.48241,3.81625h8.48241v31.991h-8.48241Z"/><path d="M155.19236,331.13719a10.16643,10.16643,0,0,1,3.66845,3.53671V319.41208h8.48241v43.20307h-8.13V358.183a11.8024,11.8024,0,0,1-4.07974,4.13865,11.45134,11.45134,0,0,1-5.69386,1.29172,11.88915,11.88915,0,0,1-9.43567-4.53495q-3.83019-4.53387-3.83018-11.63728,0-8.18894,3.77127-12.884a12.26885,12.26885,0,0,1,10.08153-4.69669A10.32762,10.32762,0,0,1,155.19236,331.13719Zm2.05433,22.79043a11.6684,11.6684,0,0,0,1.84922-6.83884q0-5.869-2.96475-8.394a6.38452,6.38452,0,0,0-4.22594-1.52629,5.87578,5.87578,0,0,0-5.38593,2.7741,14.95251,14.95251,0,0,0,.02946,13.97009,5.90556,5.90556,0,0,0,5.29756,2.65627A6.17661,6.17661,0,0,0,157.24669,353.92762Z"/><path d="M182.13536,349.26093a8.77043,8.77043,0,0,0,1.64839,4.43212q2.24686,2.67021,7.70107,2.67021a16.59007,16.59007,0,0,0,5.30452-.7037q3.86551-1.34957,3.86552-5.01908a3.69737,3.69737,0,0,0-1.89313-3.31606,20.53323,20.53323,0,0,0-6.00661-2.02542l-4.68383-1.02716q-6.90525-1.5263-9.48709-3.31713-4.374-2.99315-4.37322-9.36231a12.433,12.433,0,0,1,4.27789-9.65578q4.27923-3.84463,12.56858-3.84518a19.27075,19.27075,0,0,1,11.80973,3.62454q4.88733,3.62613,5.12511,10.52228h-8.68752a6.193,6.193,0,0,0-3.49012-5.54712,11.95378,11.95378,0,0,0-5.38592-1.08607,10.24873,10.24873,0,0,0-5.71689,1.40847,4.4574,4.4574,0,0,0-2.13626,3.933,3.71184,3.71184,0,0,0,2.10627,3.46387,26.15888,26.15888,0,0,0,5.74742,1.78977l7.59234,1.79085a19.3148,19.3148,0,0,1,7.482,3.1404q3.86793,3.05259,3.8682,8.83427a12.41265,12.41265,0,0,1-4.58368,9.84643q-4.58289,3.91854-12.94882,3.918-8.54319,0-13.4383-3.8591a12.76873,12.76873,0,0,1-4.89429-10.61011Z"/><path d="M227.70712,343.15577a13.207,13.207,0,0,0,3.34069-.73369,2.51523,2.51523,0,0,0,1.8037-2.37672,2.81137,2.81137,0,0,0-1.3833-2.71519,8.74119,8.74119,0,0,0-4.061-.74868q-3.00436,0-4.25432,1.46738a6.05556,6.05556,0,0,0-1.19,2.93583H213.8918a12.23465,12.23465,0,0,1,2.358-6.89776q3.33053-4.2254,11.437-4.22648a20.394,20.394,0,0,1,9.37355,2.08433q4.09769,2.08378,4.09741,7.866v14.67486q0,1.52629.05838,3.69737a4.64633,4.64633,0,0,0,.49912,2.23106,2.99239,2.99239,0,0,0,1.23281.96825v1.23282h-9.09882a9.2881,9.2881,0,0,1-.528-1.81977q-.147-.85151-.2351-1.93651a17.2626,17.2626,0,0,1-4.01494,3.19824,12.13346,12.13346,0,0,1-6.1405,1.55628,10.59237,10.59237,0,0,1-7.21747-2.48062,8.818,8.818,0,0,1-2.84907-7.02949q0-5.89789,4.58315-8.54079a20.49851,20.49851,0,0,1,7.39205-2.05433Zm5.1144,3.90409a9.15982,9.15982,0,0,1-1.62161.80652,13.74424,13.74424,0,0,1-2.24606.573l-1.90384.35238a12.52309,12.52309,0,0,0-3.84518,1.14392,3.821,3.821,0,0,0-1.9756,3.5517,3.71135,3.71135,0,0,0,1.20657,3.09649,4.58581,4.58581,0,0,0,2.93583.95326,8.74425,8.74425,0,0,0,5.05121-1.58413q2.31032-1.58573,2.39868-5.78168Z"/><path d="M261.70264,318.95688q.64506.045,1.76086.13281v6.80885q-.7045-.08837-2.3628-.13174a2.71817,2.71817,0,0,0-2.28943.73369,2.65948,2.65948,0,0,0-.63087,1.71694v2.70019h5.48821v5.89951H258.1804v25.798h-8.30569v-25.798h-4.69614v-5.89951h4.57833v-2.05433q0-5.13636,1.73193-7.07341,1.8195-2.87584,8.77535-2.87692Q261.05705,318.913,261.70264,318.95688Z"/><path d="M289.32846,331.27215a13.01029,13.01029,0,0,1,5.52838,4.732,15.72972,15.72972,0,0,1,2.54917,6.61391,40.92664,40.92664,0,0,1,.27527,6.34936H274.38155q.1944,4.81344,3.345,6.751a8.49809,8.49809,0,0,0,4.61207,1.20282,6.49727,6.49727,0,0,0,6.36649-3.66845h8.53972a10.44751,10.44751,0,0,1-3.10077,5.78169q-4.29932,4.66722-12.03572,4.66669a17.43991,17.43991,0,0,1-11.26883-3.93622q-4.88172-3.93621-4.88145-12.808,0-8.31265,4.407-12.748a15.42317,15.42317,0,0,1,11.4402-4.43641A18.21367,18.21367,0,0,1,289.32846,331.27215Zm-12.51342,7.2255a8.69266,8.69266,0,0,0-2.22838,4.9516H288.9975a6.97681,6.97681,0,0,0-2.22838-5.05442,7.32661,7.32661,0,0,0-4.96071-1.72444A6.63614,6.63614,0,0,0,276.815,338.49765Z"/></svg>