<svg id="Layer_1" data-name="Layer 1" xmlns="http://www.w3.org/2000/svg" viewBox="0 0 360 57.59546"><defs><style>.cls-1{fill:#e75351;}.cls-2{fill:#fdfafa;}.cls-3{fill:#7fb9d7;}.cls-4{fill:#7fb9d6;}.cls-5{fill:#313e4e;}.cls-6{fill:none;}.cls-7{fill:#191919;}</style></defs><path class="cls-1" d="M55.55968,10.831c-.01014-5.38858-2.9913-8.35391-8.41709-8.35823Q28.846,2.45838,10.54936,2.47237C5.08479,2.47606,2.07989,5.41448,2.075,10.773q-.01692,18.32054.00072,36.6411c.00566,5.211,3.035,8.21883,8.28178,8.22436q18.43016.01932,36.86032.00052c5.38527-.005,8.33393-2.99577,8.34243-8.43236q.01413-9.02748.00213-18.055Q55.56233,19.99129,55.55968,10.831ZM44.39814,45.65452c-.96622.08518-1.94326.20473-2.91635.2065q-12.666.023-25.33216-.00282a21.50079,21.50079,0,0,1-3.17669-.26391,4.42275,4.42275,0,0,1-4.01026-4.27244,4.61523,4.61523,0,0,1,2.93067-5.12113c1.97011-.86927,4.15694-1.28595,5.86216-2.7.00994-.00824.02086-.01455.03077-.02289,1.67559-5.69363,2.84062-11.45158,4.15734-17.03249.01667-.07066.03776-.14162.05558-.21241a14.98532,14.98532,0,0,1,.89023-2.55715,2.02336,2.02336,0,0,1,3.86154.18589,41.86806,41.86806,0,0,1,2.20254,9.31c6.27341-1.37859,8.49651.43244,11.478,5.05145A51.68286,51.68286,0,0,0,47.38993,37.498C50.43736,40.49012,49.14089,45.2364,44.39814,45.65452Z"/><polygon class="cls-1" points="18.083 33.233 18.084 33.231 18.075 33.239 18.083 33.233"/><path class="cls-2" d="M40.43154,28.2231c-2.98152-4.619-5.20462-6.43-11.478-5.05145l.00166.01026c-2.95709.91044-4.67751,2.827-6.32857,4.94434-.43572.55879-.86688,1.13073-1.31433,1.70283a23.78769,23.78769,0,0,1-3.22846,3.40228l-.001.00141-.008.00664c-.09777.08694-.19041.17075-.29387.26126l.00543-.02289c-.00991.00834-.02083.01465-.03077.02289-1.70522,1.4141-3.89205,1.83078-5.86216,2.7a4.61523,4.61523,0,0,0-2.93067,5.12113,4.42275,4.42275,0,0,0,4.01026,4.27244,21.50079,21.50079,0,0,0,3.17669.26391q12.666.03135,25.33216.00282c.97309-.00177,1.95013-.12132,2.91635-.2065,4.74275-.41812,6.03922-5.1644,2.99179-8.15651A51.68286,51.68286,0,0,1,40.43154,28.2231Zm6.73414,14.234C46.353,43.89516,45.023,44.295,43.3524,44.32181c-6.20759.09957-12.26219.20176-18.39329.20189-3.46543.00006-6.87655.07308-10.39622-.04892-2.22925-.07727-3.80723-.91158-4.24131-3.10414-.45435-2.2951.92943-3.45568,2.96458-4.28143a27.87955,27.87955,0,0,0,4.01-1.74818,26.93759,26.93759,0,0,0,2.32921-1.84036,23.538,23.538,0,0,0,3.00124-3.32312c.3949-.49771.812-1.01684,1.31443-1.58652,1.49264-1.69256,2.89807-3.25109,5.33391-3.98792.02043-.00628.03623-.01537.058-.0208,3.856-.99143,6.32838-.518,8.73283,2.57775,2.96523,3.81779,4.55548,7.575,8.532,11.53009A3.16421,3.16421,0,0,1,47.16568,42.45706Z"/><path class="cls-1" d="M38.06577,27.16006c-2.40445-3.09577-4.87688-3.56918-8.73283-2.57775-.02177.00543-.03757.01452-.058.0208.0202-.00612.03757-.01452.05791-.02051.20413.85295.40814,1.86695.61218,2.72019l-.00075.00072.00053-.00026a5.14034,5.14034,0,0,1,6.41163,2.41691c2.23444,3.60822,4.17581,7.41189,7.51577,10.22805.89759.75678.52439,1.39516-.52635,1.66015a4.38212,4.38212,0,0,1-1.05954.095q-13.48766.00892-26.97525.004c-.70322-.00026-1.52472.10339-1.89281-.65166-.302-.61941.09434-.932.53705-1.19566A18.05122,18.05122,0,0,0,17.206,35.40653c.03169-.02244.05892-.04323.09018-.0655a27.87955,27.87955,0,0,1-4.01,1.74818c-2.03515.82575-3.41893,1.98633-2.96458,4.28143.43408,2.19256,2.01206,3.02687,4.24131,3.10414,3.51967.122,6.93079.049,10.39622.04892,6.1311-.00013,12.1857-.10232,18.39329-.20189,1.67062-.02681,3.00061-.42665,3.81328-1.86475a3.16421,3.16421,0,0,0-.56789-3.76691C42.62125,34.735,41.031,30.97785,38.06577,27.16006Z"/><path class="cls-3" d="M18.07472,33.23941l.00909-.008a23.78769,23.78769,0,0,0,3.22846-3.40228c.44745-.5721.87861-1.144,1.31433-1.70283,1.65106-2.11739,3.37148-4.0339,6.32857-4.94434l-.00166-.01026a41.86806,41.86806,0,0,0-2.20254-9.31,2.02336,2.02336,0,0,0-3.86154-.18589,14.98532,14.98532,0,0,0-.89023,2.55715c-.01782.07079-.03891.14175-.05558.21241-1.31672,5.58091-2.48175,11.33886-4.15734,17.03249l-.00543.02289C17.88431,33.41016,17.977,33.32635,18.07472,33.23941Z"/><path class="cls-4" d="M13.95531,39.86c.10787-.06426.21781-.12642.32185-.18851.39056-.10967.77373-.22978,1.15257-.356a16.38952,16.38952,0,0,0,8.57833-6.09311c1.57167-2.22283,3.11833-4.53023,5.692-5.79.08348-.04084.15852-.09031.24419-.1289l.00075-.00072c-.204-.85324-.408-1.86724-.61218-2.72019-.02034.006-.03771.01439-.05791.02051-2.43584.73683-3.84127,2.29536-5.33391,3.98792-.50239.56968-.91953,1.08881-1.31443,1.58652a23.538,23.538,0,0,1-3.00124,3.32312A26.93759,26.93759,0,0,1,17.29615,35.341c-.03126.02227-.05849.04306-.09018.0655A18.05122,18.05122,0,0,1,13.95531,39.86Z"/><path class="cls-5" d="M24.00806,33.2224a16.38952,16.38952,0,0,1-8.57833,6.09311c-.37884.12622-.762.24633-1.15257.356-.104.06209-.214.12425-.32185.18851-.44271.26371-.83905.57625-.53705,1.19566.36809.755,1.18959.6514,1.89281.65166q13.48761.00555,26.97525-.004a4.38212,4.38212,0,0,0,1.05954-.095c1.05074-.265,1.42394-.90337.52635-1.66015-3.34-2.81616-5.28133-6.61983-7.51577-10.22805a5.14034,5.14034,0,0,0-6.41163-2.41691l-.00053.00026c-.08567.03859-.16071.08806-.24419.1289C27.12639,28.69217,25.57973,30.99957,24.00806,33.2224Z"/><path class="cls-6" d="M117.3393,22.40086c-4.21435,0-7.15771,3.13232-7.15771,7.61767s2.94336,7.61817,7.15771,7.61817,7.15772-3.13282,7.15772-7.61817S121.55366,22.40086,117.3393,22.40086Z"/><path class="cls-6" d="M287.76264,37.71726c0,.97119.83008,1.55127,2.21973,1.55127a3.19983,3.19983,0,0,0,3.18359-2.019V36.166H290.4853C287.76264,36.166,287.76264,37.25291,287.76264,37.71726Z"/><path class="cls-6" d="M206.78217,30.01853c0-4.49267-2.90283-7.2832-7.57617-7.2832h-4.48v14.5664h4.48C203.87934,37.30173,206.78217,34.51121,206.78217,30.01853Z"/><path class="cls-6" d="M346.415,38.22263a6.5556,6.5556,0,0,0,4.74023-1.78418l.41113-.35595h-9.59179C342.77436,37.47117,344.31342,38.22263,346.415,38.22263Z"/><path class="cls-6" d="M345.36909,28.0073a3.66968,3.66968,0,0,0-3.65332,2.39111h7.31836A3.68771,3.68771,0,0,0,345.36909,28.0073Z"/><path class="cls-7" d="M86.29926,22.40086a7.89662,7.89662,0,0,1,6.32618,3.15966l.5.602,6.37548-5.76806L99.06,19.84324c-3.0376-3.79688-7.59473-5.8042-13.1792-5.8042-9.76856,0-16.8584,6.72021-16.8584,15.97949s7.08984,15.98,16.8584,15.98c5.584,0,10.14111-2.00732,13.1792-5.8042l.44091-.55127L93.12544,33.875l-.5.602a7.89663,7.89663,0,0,1-6.32618,3.15967c-4.43115,0-7.40869-3.06153-7.40869-7.61817C78.89057,25.46238,81.86811,22.40086,86.29926,22.40086Z"/><path class="cls-7" d="M117.3393,14.039c-9.86523,0-17.02588,6.72021-17.02588,15.97949s7.16065,15.98,17.02588,15.98,17.02539-6.7207,17.02539-15.98S127.20454,14.039,117.3393,14.039Zm0,23.59766c-4.21435,0-7.15771-3.13282-7.15771-7.61817s2.94336-7.61767,7.15771-7.61767,7.15772,3.13232,7.15772,7.61767S121.55366,37.6367,117.3393,37.6367Z"/><polygon class="cls-7" points="151.399 32.521 143.942 14.625 133.352 14.625 146.503 45.413 155.652 45.413 168.846 14.625 159.013 14.625 151.399 32.521"/><rect class="cls-7" x="169.71479" y="14.62498" width="9.78418" height="30.7876"/><path class="cls-7" d="M199.541,14.625H184.94184V45.41257H199.541c10.23389,0,17.10938-6.18652,17.10938-15.394S209.77485,14.625,199.541,14.625ZM194.726,22.73533h4.48c4.67334,0,7.57617,2.79053,7.57617,7.2832s-2.90283,7.2832-7.57617,7.2832h-4.48Z"/><polygon class="cls-7" points="230.999 22.694 239.995 22.694 239.995 45.413 249.779 45.413 249.779 22.694 258.732 22.694 258.732 14.625 230.999 14.625 230.999 22.694"/><path class="cls-7" d="M269.60639,22.914V21.23533h-9.07275V45.41257h9.44971v-11.168c0-3.22266,1.57714-4.85645,4.68847-4.85645a13.76179,13.76179,0,0,1,1.71192.12012l.83789.09912V20.85886h-.75A10.94483,10.94483,0,0,0,269.60639,22.914Z"/><path class="cls-7" d="M290.27534,20.85886a19.6359,19.6359,0,0,0-10.41309,2.76075l-.55176.36523,3.38086,6.81592.72559-.56836a9.75926,9.75926,0,0,1,5.6875-1.80664c2.8877,0,3.70508,1.18945,3.9502,2.09814h-3.65723c-8.9541,0-10.834,4.09375-10.834,7.52783,0,4.62793,3.69825,7.73731,9.20215,7.73731a8.6192,8.6192,0,0,0,5.94434-1.8916v1.51513h8.90527V32.06882C302.61518,24.73533,298.34858,20.85886,290.27534,20.85886ZM293.166,36.166v1.0835a3.19983,3.19983,0,0,1-3.18359,2.019c-1.38965,0-2.21973-.58008-2.21973-1.55127,0-.46435,0-1.55127,2.72266-1.55127Z"/><path class="cls-7" d="M319.80952,28.67673a4.20946,4.20946,0,0,1,3.85058,2.64454L324,31.99021l7.42676-3.78809-.249-.63378c-1.65527-4.20118-5.88867-6.70948-11.32617-6.70948-7.97363,0-13.76172,5.22461-13.76172,12.42334,0,7.36377,5.65918,12.50684,13.76172,12.50684,5.4375,0,9.6709-2.50781,11.32617-6.709l.249-.63378L324,34.65769l-.33985.66895a4.20947,4.20947,0,0,1-3.85058,2.64453c-2.543,0-4.18653-1.84033-4.18653-4.689C315.623,30.48435,317.26655,28.67673,319.80952,28.67673Z"/><path class="cls-7" d="M345.3271,20.85886c-7.65918,0-13.21778,5.22461-13.21778,12.42334,0,7.36377,5.7793,12.50684,14.05469,12.50684,4.44531,0,7.88477-1.32275,10.22363-3.93115l.46485-.51807L351.7978,36.0825h6.23828l.09375-1.30127c.04-.48828.08106-.99317.08106-1.41553C358.21089,26.00193,352.913,20.85886,345.3271,20.85886Zm5.82812,15.57959a6.5556,6.5556,0,0,1-4.74023,1.78418c-2.10157,0-3.64063-.75146-4.44043-2.14013h9.59179Zm-2.12109-6.04h-7.31836a3.99542,3.99542,0,0,1,7.31836,0Z"/></svg>