<?xml version="1.0" encoding="UTF-8"?>
<svg width="2853px" height="1884px" viewBox="0 0 2853 1884" version="1.1" xmlns="http://www.w3.org/2000/svg" xmlns:xlink="http://www.w3.org/1999/xlink">
    <title>covid-green-logo-inverse</title>
    <g id="covid-green-logo-inverse" stroke="none" stroke-width="1" fill="none" fill-rule="evenodd">
        <rect fill="#FFFFFF" x="0" y="0" width="2853" height="1884"></rect>
        <path d="M891.67,1264.136 C915.320667,1264.136 935.802667,1260.314 953.116,1252.67 C970.429333,1245.026 984.835333,1233.69067 996.334,1218.664 L996.334,1218.664 L970.07,1191.028 C968.632667,1189.59067 967.13,1188.578 965.562,1187.99 C963.994,1187.402 962.426,1187.108 960.858,1187.108 C958.898,1187.108 957.003333,1187.53267 955.174,1188.382 C953.344667,1189.23133 951.646,1190.30933 950.078,1191.616 C946.158,1195.01333 942.270667,1197.85533 938.416,1200.142 C934.561333,1202.42867 930.510667,1204.29067 926.264,1205.728 C922.017333,1207.16533 917.411333,1208.178 912.446,1208.766 C907.480667,1209.354 901.992667,1209.648 895.982,1209.648 C885.528667,1209.648 875.728667,1207.62267 866.582,1203.572 C857.435333,1199.52133 849.432,1193.60867 842.572,1185.834 C835.712,1178.05933 830.289333,1168.488 826.304,1157.12 C822.318667,1145.752 820.326,1132.75067 820.326,1118.116 C820.326,1104.13467 822.318667,1091.52533 826.304,1080.288 C830.289333,1069.05067 835.842667,1059.47933 842.964,1051.574 C850.085333,1043.66867 858.611333,1037.59267 868.542,1033.346 C878.472667,1029.09933 889.448667,1026.976 901.47,1026.976 C908.395333,1026.976 914.438667,1027.49867 919.6,1028.544 C924.761333,1029.58933 929.269333,1030.86333 933.124,1032.366 C936.978667,1033.86867 940.310667,1035.502 943.12,1037.266 C945.929333,1039.03 948.51,1040.66333 950.862,1042.166 C953.214,1043.66867 955.435333,1044.94267 957.526,1045.988 C959.616667,1047.03333 961.838,1047.556 964.19,1047.556 C967.718,1047.556 970.462,1046.80467 972.422,1045.302 C974.382,1043.79933 976.080667,1042.13333 977.518,1040.304 L977.518,1040.304 L999.862,1010.316 C994.504667,1004.69733 988.363333,999.568667 981.438,994.93 C974.512667,990.291333 966.934,986.306 958.702,982.974 C950.47,979.642 941.617333,977.028667 932.144,975.134 C922.670667,973.239333 912.576667,972.292 901.862,972.292 C879.779333,972.292 859.591333,975.885333 841.298,983.072 C823.004667,990.258667 807.292,1000.32 794.16,1013.256 C781.028,1026.192 770.803333,1041.578 763.486,1059.414 C756.168667,1077.25 752.51,1096.81733 752.51,1118.116 C752.51,1139.02267 755.711333,1158.394 762.114,1176.23 C768.516667,1194.066 777.696,1209.48467 789.652,1222.486 C801.608,1235.48733 816.177333,1245.67933 833.36,1253.062 C850.542667,1260.44467 869.979333,1264.136 891.67,1264.136 Z M1205.09,1264.136 C1227.30333,1264.136 1247.524,1260.412 1265.752,1252.964 C1283.98,1245.516 1299.562,1235.226 1312.498,1222.094 C1325.434,1208.962 1335.46267,1193.51067 1342.584,1175.74 C1349.70533,1157.96933 1353.266,1138.76133 1353.266,1118.116 C1353.266,1097.60133 1349.70533,1078.45867 1342.584,1060.688 C1335.46267,1042.91733 1325.434,1027.49867 1312.498,1014.432 C1299.562,1001.36533 1283.98,991.075333 1265.752,983.562 C1247.524,976.048667 1227.30333,972.292 1205.09,972.292 C1182.87667,972.292 1162.62333,976.016 1144.33,983.464 C1126.03667,990.912 1110.38933,1001.16933 1097.388,1014.236 C1084.38667,1027.30267 1074.32533,1042.72133 1067.204,1060.492 C1060.08267,1078.26267 1056.522,1097.47067 1056.522,1118.116 C1056.522,1138.76133 1060.08267,1157.96933 1067.204,1175.74 C1074.32533,1193.51067 1084.38667,1208.962 1097.388,1222.094 C1110.38933,1235.226 1126.03667,1245.516 1144.33,1252.964 C1162.62333,1260.412 1182.87667,1264.136 1205.09,1264.136 Z M1205.09,1209.256 C1192.28467,1209.256 1180.884,1207.198 1170.888,1203.082 C1160.892,1198.966 1152.464,1192.988 1145.604,1185.148 C1138.744,1177.308 1133.48467,1167.73667 1129.826,1156.434 C1126.16733,1145.13133 1124.338,1132.35867 1124.338,1118.116 C1124.338,1104.004 1126.16733,1091.29667 1129.826,1079.994 C1133.48467,1068.69133 1138.744,1059.12 1145.604,1051.28 C1152.464,1043.44 1160.892,1037.42933 1170.888,1033.248 C1180.884,1029.06667 1192.28467,1026.976 1205.09,1026.976 C1217.76467,1026.976 1229.06733,1029.06667 1238.998,1033.248 C1248.92867,1037.42933 1257.324,1043.44 1264.184,1051.28 C1271.044,1059.12 1276.30333,1068.69133 1279.962,1079.994 C1283.62067,1091.29667 1285.45,1104.004 1285.45,1118.116 C1285.45,1132.35867 1283.62067,1145.13133 1279.962,1156.434 C1276.30333,1167.73667 1271.044,1177.308 1264.184,1185.148 C1257.324,1192.988 1248.92867,1198.966 1238.998,1203.082 C1229.06733,1207.198 1217.76467,1209.256 1205.09,1209.256 Z M1569.078,1261 L1683.542,975.428 L1629.838,975.428 C1624.35,975.428 1619.71133,976.898 1615.922,979.838 C1612.13267,982.778 1609.58467,986.077333 1608.278,989.736 L1608.278,989.736 L1553.398,1142.616 C1551.046,1149.28 1548.66133,1156.532 1546.244,1164.372 C1543.82667,1172.212 1541.70333,1180.444 1539.874,1189.068 C1537.65267,1180.444 1535.268,1172.212 1532.72,1164.372 C1530.172,1156.532 1527.65667,1149.28 1525.174,1142.616 L1525.174,1142.616 L1469.902,989.736 C1468.334,985.424 1465.72067,981.961333 1462.062,979.348 C1458.40333,976.734667 1453.69933,975.428 1447.95,975.428 L1447.95,975.428 L1394.638,975.428 L1509.102,1261 L1569.078,1261 Z M1824.482,1261 L1824.482,975.428 L1757.842,975.428 L1757.842,1261 L1824.482,1261 Z M2033.238,1261 C2055.45133,1261 2075.672,1257.43933 2093.9,1250.318 C2112.128,1243.19667 2127.71,1233.266 2140.646,1220.526 C2153.582,1207.786 2163.61067,1192.694 2170.732,1175.25 C2177.85333,1157.806 2181.414,1138.76133 2181.414,1118.116 C2181.414,1097.60133 2177.85333,1078.622 2170.732,1061.178 C2163.61067,1043.734 2153.582,1028.67467 2140.646,1016 C2127.71,1003.32533 2112.128,993.394667 2093.9,986.208 C2075.672,979.021333 2055.45133,975.428 2033.238,975.428 L2033.238,975.428 L1922.302,975.428 L1922.302,1261 L2033.238,1261 Z M2033.238,1210.04 L1988.942,1210.04 L1988.942,1026.388 L2033.238,1026.388 C2045.91267,1026.388 2057.21533,1028.51133 2067.146,1032.758 C2077.07667,1037.00467 2085.472,1043.08067 2092.332,1050.986 C2099.192,1058.89133 2104.45133,1068.528 2108.11,1079.896 C2111.76867,1091.264 2113.598,1104.004 2113.598,1118.116 C2113.598,1132.35867 2111.76867,1145.164 2108.11,1156.532 C2104.45133,1167.9 2099.192,1177.53667 2092.332,1185.442 C2085.472,1193.34733 2077.07667,1199.42333 2067.146,1203.67 C2057.21533,1207.91667 2045.91267,1210.04 2033.238,1210.04 L2033.238,1210.04 Z" id="COVID" fill="#00746D" fill-rule="nonzero"></path>
        <path d="M845.717285,1545.016 C853.193285,1545.016 860.123285,1544.617 866.507285,1543.819 C872.891285,1543.021 878.876285,1541.803 884.462285,1540.165 C890.048285,1538.527 895.298285,1536.49 900.212285,1534.054 C905.126285,1531.618 909.851285,1528.762 914.387285,1525.486 L914.387285,1525.486 L914.387285,1456.186 L858.947285,1456.186 L858.947285,1470.046 C858.947285,1471.39 859.430285,1472.524 860.396285,1473.448 C861.362285,1474.372 862.643285,1474.834 864.239285,1474.834 L864.239285,1474.834 L892.211285,1474.834 L892.211285,1514.65 C889.019285,1516.33 885.827285,1517.821 882.635285,1519.123 C879.443285,1520.425 876.041285,1521.538 872.429285,1522.462 C868.817285,1523.386 864.974285,1524.079 860.900285,1524.541 C856.826285,1525.003 852.353285,1525.234 847.481285,1525.234 C837.737285,1525.234 828.833285,1523.596 820.769285,1520.32 C812.705285,1517.044 805.733285,1512.298 799.853285,1506.082 C793.973285,1499.866 789.416285,1492.285 786.182285,1483.339 C782.948285,1474.393 781.331285,1464.208 781.331285,1452.784 C781.331285,1441.864 782.885285,1432.015 785.993285,1423.237 C789.101285,1414.459 793.553285,1406.983 799.349285,1400.809 C805.145285,1394.635 812.159285,1389.889 820.391285,1386.571 C828.623285,1383.253 837.821285,1381.594 847.985285,1381.594 C854.957285,1381.594 860.984285,1382.14 866.066285,1383.232 C871.148285,1384.324 875.558285,1385.647 879.296285,1387.201 C883.034285,1388.755 886.205285,1390.372 888.809285,1392.052 C891.413285,1393.732 893.765285,1395.16 895.865285,1396.336 C897.461285,1397.26 898.931285,1397.722 900.275285,1397.722 C902.543285,1397.722 904.391285,1396.588 905.819285,1394.32 L905.819285,1394.32 L912.749285,1383.232 C908.885285,1379.704 904.727285,1376.533 900.275285,1373.719 C895.823285,1370.905 890.972285,1368.511 885.722285,1366.537 C880.472285,1364.563 874.781285,1363.051 868.649285,1362.001 C862.517285,1360.951 855.881285,1360.426 848.741285,1360.426 C834.629285,1360.426 821.882285,1362.652 810.500285,1367.104 C799.118285,1371.556 789.416285,1377.835 781.394285,1385.941 C773.372285,1394.047 767.198285,1403.77 762.872285,1415.11 C758.546285,1426.45 756.383285,1439.008 756.383285,1452.784 C756.383285,1466.392 758.588285,1478.866 762.998285,1490.206 C767.408285,1501.546 773.561285,1511.269 781.457285,1519.375 C789.353285,1527.481 798.761285,1533.781 809.681285,1538.275 C820.601285,1542.769 832.613285,1545.016 845.717285,1545.016 Z M1130.63757,1543 L1130.63757,1467.652 L1149.15957,1467.652 C1152.51957,1467.652 1155.03957,1468.093 1156.71957,1468.975 C1158.39957,1469.857 1159.95357,1471.306 1161.38157,1473.322 L1161.38157,1473.322 L1208.25357,1537.834 C1210.35357,1541.278 1213.62957,1543 1218.08157,1543 L1218.08157,1543 L1239.75357,1543 L1187.08557,1471.306 C1184.73357,1467.946 1182.04557,1465.384 1179.02157,1463.62 C1185.99357,1462.024 1192.23057,1459.672 1197.73257,1456.564 C1203.23457,1453.456 1207.89657,1449.697 1211.71857,1445.287 C1215.54057,1440.877 1218.45957,1435.9 1220.47557,1430.356 C1222.49157,1424.812 1223.49957,1418.848 1223.49957,1412.464 C1223.49957,1404.82 1222.19757,1397.911 1219.59357,1391.737 C1216.98957,1385.563 1212.97857,1380.292 1207.56057,1375.924 C1202.14257,1371.556 1195.27557,1368.217 1186.95957,1365.907 C1178.64357,1363.597 1168.77357,1362.442 1157.34957,1362.442 L1157.34957,1362.442 L1106.31957,1362.442 L1106.31957,1543 L1130.63757,1543 Z M1156.21557,1449.886 L1130.63757,1449.886 L1130.63757,1381.72 L1157.34957,1381.72 C1171.37757,1381.72 1181.94057,1384.45 1189.03857,1389.91 C1196.13657,1395.37 1199.68557,1403.476 1199.68557,1414.228 C1199.68557,1419.52 1198.76157,1424.35 1196.91357,1428.718 C1195.06557,1433.086 1192.31457,1436.845 1188.66057,1439.995 C1185.00657,1443.145 1180.47057,1445.581 1175.05257,1447.303 C1169.63457,1449.025 1163.35557,1449.886 1156.21557,1449.886 L1156.21557,1449.886 Z M1529.20986,1543 L1529.20986,1523.092 L1442.52186,1523.092 L1442.52186,1461.478 L1512.70386,1461.478 L1512.70386,1442.326 L1442.52186,1442.326 L1442.52186,1382.35 L1529.20986,1382.35 L1529.20986,1362.442 L1417.95186,1362.442 L1417.95186,1543 L1529.20986,1543 Z M1827.48614,1543 L1827.48614,1523.092 L1740.79814,1523.092 L1740.79814,1461.478 L1810.98014,1461.478 L1810.98014,1442.326 L1740.79814,1442.326 L1740.79814,1382.35 L1827.48614,1382.35 L1827.48614,1362.442 L1716.22814,1362.442 L1716.22814,1543 L1827.48614,1543 Z M2035.92443,1543 L2035.92443,1414.354 C2035.92443,1412.674 2035.88243,1410.826 2035.79843,1408.81 C2035.71443,1406.794 2035.58843,1404.736 2035.42043,1402.636 L2035.42043,1402.636 L2139.87443,1538.59 C2141.13443,1540.186 2142.41543,1541.32 2143.71743,1541.992 C2145.01943,1542.664 2146.63643,1543 2148.56843,1543 L2148.56843,1543 L2160.91643,1543 L2160.91643,1362.442 L2139.49643,1362.442 L2139.49643,1490.332 C2139.49643,1492.264 2139.53843,1494.259 2139.62243,1496.317 C2139.70643,1498.375 2139.87443,1500.496 2140.12643,1502.68 L2140.12643,1502.68 L2035.54643,1366.6 C2034.20243,1364.92 2033.00543,1363.807 2031.95543,1363.261 C2030.90543,1362.715 2029.28843,1362.442 2027.10443,1362.442 L2027.10443,1362.442 L2014.50443,1362.442 L2014.50443,1543 L2035.92443,1543 Z" id="GREEN" fill="#00746D" fill-rule="nonzero"></path>
        <g id="Group" transform="translate(1118.000000, 211.000000)" fill="#6DC612">
            <g id="knot" transform="translate(371.500000, 372.000000) rotate(45.000000) translate(-371.500000, -372.000000) ">
                <g id="Combined-Shape" transform="translate(238.141026, 19.107544)">
                    <g transform="translate(35.721154, 0.000000)">
                        <path d="M89.7872159,5.43069068e-13 C139.107837,5.34009016e-13 179.090101,39.9822633 179.090101,89.3028846 L179.090133,121.145811 C166.807827,116.560155 154.07976,112.893083 140.988955,110.227864 L140.987536,89.408376 C140.987536,59.8160033 116.998178,35.8266453 87.4058057,35.8266453 C58.1093566,35.8266453 34.3044224,59.338615 33.8312533,88.5223041 L33.8240749,89.408376 L33.8234263,256.757 L0.483426282,256.757 L0.484331333,89.3028846 C0.484331333,39.9822633 40.4665947,5.52129119e-13 89.7872159,5.43069068e-13 Z"></path>
                        <path d="M89.7872159,123.004815 C183.708525,123.004815 264.930733,177.5367 303.695175,256.75392 L263.009459,256.75452 C227.529865,198.055317 163.225664,158.831461 89.7872159,158.831461 C76.7615261,158.831461 64.0231969,160.065431 51.6820999,162.423176 L51.6832687,126.045803 C64.0901866,124.044676 76.8176226,123.004815 89.7872159,123.004815 Z"></path>
                    </g>
                    <path d="M176.224875,183.169554 C189.066952,186.492511 201.41521,191.047829 213.136799,196.702264 L213.136218,396.481541 L176.224359,396.481541 Z M213.136218,152.860353 L213.136543,157.607177 C208.838706,155.900464 204.479537,154.315578 200.06327,152.856766 L213.136218,152.860353 Z"></path>
                </g>
                <g id="Group" transform="translate(171.461538, 68.070626)">
                    <g transform="translate(182.177885, 372.000000) rotate(90.000000) translate(-182.177885, -372.000000) " id="Combined-Shape">
                        <g transform="translate(35.721154, 0.000000)">
                            <path d="M89.7872159,5.43069068e-13 C139.107837,5.34009016e-13 179.090101,39.9822633 179.090101,89.3028846 L179.090133,121.145811 C166.807827,116.560155 154.07976,112.893083 140.988955,110.227864 L140.987536,89.408376 C140.987536,59.8160033 116.998178,35.8266453 87.4058057,35.8266453 C58.1093566,35.8266453 34.3044224,59.338615 33.8312533,88.5223041 L33.8240749,89.408376 L33.8234263,256.757 L0.483426282,256.757 L0.484331333,89.3028846 C0.484331333,39.9822633 40.4665947,5.52129119e-13 89.7872159,5.43069068e-13 Z"></path>
                            <path d="M89.7872159,123.004815 C183.708525,123.004815 264.930733,177.5367 303.695175,256.75392 L263.009459,256.75452 C227.529865,198.055317 163.225664,158.831461 89.7872159,158.831461 C76.7615261,158.831461 64.0231969,160.065431 51.6820999,162.423176 L51.6832687,126.045803 C64.0901866,124.044676 76.8176226,123.004815 89.7872159,123.004815 Z"></path>
                        </g>
                        <path d="M176.224875,183.169554 C189.066952,186.492511 201.41521,191.047829 213.136799,196.702264 L213.136218,396.481541 L176.224359,396.481541 Z M213.136218,152.860353 L213.136543,157.607177 C208.838706,155.900464 204.479537,154.315578 200.06327,152.856766 L213.136218,152.860353 Z"></path>
                    </g>
                </g>
                <g id="Group" transform="translate(123.833333, 0.000000)">
                    <g transform="translate(182.177885, 372.000000) rotate(180.000000) translate(-182.177885, -372.000000) " id="Combined-Shape">
                        <g transform="translate(35.721154, 0.000000)">
                            <path d="M89.7872159,5.43069068e-13 C139.107837,5.34009016e-13 179.090101,39.9822633 179.090101,89.3028846 L179.090133,121.145811 C166.807827,116.560155 154.07976,112.893083 140.988955,110.227864 L140.987536,89.408376 C140.987536,59.8160033 116.998178,35.8266453 87.4058057,35.8266453 C58.1093566,35.8266453 34.3044224,59.338615 33.8312533,88.5223041 L33.8240749,89.408376 L33.8234263,256.757 L0.483426282,256.757 L0.484331333,89.3028846 C0.484331333,39.9822633 40.4665947,5.52129119e-13 89.7872159,5.43069068e-13 Z"></path>
                            <path d="M89.7872159,123.004815 C183.708525,123.004815 264.930733,177.5367 303.695175,256.75392 L263.009459,256.75452 C227.529865,198.055317 163.225664,158.831461 89.7872159,158.831461 C76.7615261,158.831461 64.0231969,160.065431 51.6820999,162.423176 L51.6832687,126.045803 C64.0901866,124.044676 76.8176226,123.004815 89.7872159,123.004815 Z"></path>
                        </g>
                        <path d="M176.224875,183.169554 C189.066952,186.492511 201.41521,191.047829 213.136799,196.702264 L213.136218,396.481541 L176.224359,396.481541 Z M213.136218,152.860353 L213.136543,157.607177 C208.838706,155.900464 204.479537,154.315578 200.06327,152.856766 L213.136218,152.860353 Z"></path>
                    </g>
                </g>
                <g id="Group" transform="translate(189.322115, -48.963082)">
                    <g transform="translate(182.177885, 372.000000) rotate(270.000000) translate(-182.177885, -372.000000) " id="Combined-Shape">
                        <g transform="translate(35.721154, 0.000000)">
                            <path d="M89.7872159,5.43069068e-13 C139.107837,5.34009016e-13 179.090101,39.9822633 179.090101,89.3028846 L179.090133,121.145811 C166.807827,116.560155 154.07976,112.893083 140.988955,110.227864 L140.987536,89.408376 C140.987536,59.8160033 116.998178,35.8266453 87.4058057,35.8266453 C58.1093566,35.8266453 34.3044224,59.338615 33.8312533,88.5223041 L33.8240749,89.408376 L33.8234263,256.757 L0.483426282,256.757 L0.484331333,89.3028846 C0.484331333,39.9822633 40.4665947,5.52129119e-13 89.7872159,5.43069068e-13 Z"></path>
                            <path d="M89.7872159,123.004815 C183.708525,123.004815 264.930733,177.5367 303.695175,256.75392 L263.009459,256.75452 C227.529865,198.055317 163.225664,158.831461 89.7872159,158.831461 C76.7615261,158.831461 64.0231969,160.065431 51.6820999,162.423176 L51.6832687,126.045803 C64.0901866,124.044676 76.8176226,123.004815 89.7872159,123.004815 Z"></path>
                        </g>
                        <path d="M176.224875,183.169554 C189.066952,186.492511 201.41521,191.047829 213.136799,196.702264 L213.136218,396.481541 L176.224359,396.481541 Z M213.136218,152.860353 L213.136543,157.607177 C208.838706,155.900464 204.479537,154.315578 200.06327,152.856766 L213.136218,152.860353 Z"></path>
                    </g>
                </g>
            </g>
        </g>
    </g>
</svg>