<svg id="Layer_1" data-name="Layer 1" xmlns="http://www.w3.org/2000/svg" viewBox="0 0 1000 280.00253"><defs><style>.cls-1{fill:none;}.cls-2{fill:#178e59;}.cls-3{fill:#09b480;}.cls-4{fill:#8cdbc3;}</style></defs><path class="cls-1" d="M842.18,139.6736a16.15339,16.15339,0,0,0-2.5802-5.56732,12.29751,12.29751,0,0,0-4.59974-3.79333,15.2135,15.2135,0,0,0-6.69612-1.37075,15.90284,15.90284,0,0,0-11.94458,4.84156,21.503,21.503,0,0,0-5.6479,12.75092l32.27489-.32252A26.19409,26.19409,0,0,0,842.18,139.6736Z"/><path class="cls-1" d="M139.35169,245.62249l.0262-.02315-.05128-.002Z"/><polygon class="cls-2" points="245.84 65.357 245.84 65.295 216.887 67.349 245.84 65.357"/><polygon class="cls-2" points="35.087 215.613 35.087 215.675 64.216 213.608 35.087 215.613"/><polygon class="cls-2" points="214.039 216.598 214.043 216.666 215.813 242.385 215.868 242.385 214.043 216.666 214.039 216.598"/><path class="cls-2" d="M106.3264,66.70805l-38.299-2.12283-.7634-.04232.06782.71176,3.68524,38.65775L35.57174,139.72655,66.3816,174.546l-2.094,37.77948-.07113,1.28282,1.20423-.11481,38.16528-3.63826,32.50227,32.50369,3.23838,3.23845.05128.002,3.65954-3.23813,31.5635-27.92885,39.43759,2.16514L209.91015,177.228l35.925-36.29864.005-.0051v-.24l-.002.00274-31.11578-34.27531,2.11356-38.13156.05159-.93074-.87977.08389L177.518,71.10243,144.33942,38.269l-2.54169-2.51524c-.16067-.00168-.321-.005-.48183-.00609l-2.84728,2.5194Z"/><path class="cls-3" d="M454.76764,171.39648a40.18652,40.18652,0,0,1-9.36066,3.55146,53.48185,53.48185,0,0,1-12.749,1.2901,37.44223,37.44223,0,0,1-12.66852-2.09644,26.27628,26.27628,0,0,1-10.24756-6.61554c-2.9046-3.01263-6.22094-6.86108-7.93994-11.54138a48.40883,48.40883,0,0,1-2.582-16.70184,48.1159,48.1159,0,0,1,2.66266-17.02442,31.96,31.96,0,0,1,7.10113-11.46075c2.95777-2.95777,7.45423-5.10919,11.48951-6.45429a40.30078,40.30078,0,0,1,12.82971-2.0158,41.86663,41.86663,0,0,1,11.62018,1.45135c3.33343.96765,5.48962,2.25775,8.71862,3.874L458.159,92.80566a45.1835,45.1835,0,0,0-10.16993-4.19659,67.00842,67.00842,0,0,0-16.94561-1.77386,58.93744,58.93744,0,0,0-21.14032,3.62847A46.61436,46.61436,0,0,0,393.522,100.87256a45.73338,45.73338,0,0,0-10.57019,16.54425,61.10051,61.10051,0,0,0-3.71094,21.866,59.76248,59.76248,0,0,0,3.8722,22.18853,45.393,45.393,0,0,0,27.032,26.71125,57.58581,57.58581,0,0,0,20.41461,3.54779,76.19406,76.19406,0,0,0,16.94562-1.61261,52.26775,52.26775,0,0,0,11.45709-3.874Z"/><path class="cls-3" d="M563.05312,142.673q-.96758,2.90273-2.09645,6.37359-1.1325,3.469-2.26135,7.09936-1.127,3.63387-2.17709,7.26419-1.05,3.62847-1.85451,6.53489h-.48381q-.81366-3.06215-1.93883-6.77676-1.13252-3.711-2.33832-7.42549-1.20952-3.711-2.342-7.26059-1.1271-3.55146-2.09645-6.13172L527.22672,88.4478H506.40893l37.604,101.67h20.81779l37.439-101.67h-20.334Z"/><polygon class="cls-3" points="735.614 96.984 723.143 86.176 679.772 128.592 679.772 88.448 660.083 88.448 660.083 190.118 679.772 190.118 679.772 154.775 688.165 145.737 720.601 190.118 741.217 190.118 698.614 132.99 735.614 96.984"/><path class="cls-1" d="M842.18,139.67358a16.153,16.153,0,0,0-2.5802-5.56732,12.298,12.298,0,0,0-4.59973-3.79333,15.2138,15.2138,0,0,0-6.6961-1.37073,15.90294,15.90294,0,0,0-11.94458,4.84155,21.50305,21.50305,0,0,0-5.64789,12.75092l32.27484-.32251A26.195,26.195,0,0,0,842.18,139.67358Z"/><path class="cls-3" d="M854.98657,171.11591c-2.63275,2.56335-6.4828,4.03535-9.49164,5.54254a26.49154,26.49154,0,0,1-12.055,2.52417c-4.4363,0-12.09288-.78438-16.55765-5.25692-8.14094-8.15511-5.33542-14.48252-5.33542-14.48252h49.60584v-8.55762c0-11.08325-2.84631-18.69983-8.868-24.94147-6.02912-6.238-13.33759-10.54828-23.55591-10.54828a39.027,39.027,0,0,0-15.272,2.89557,28.808,28.808,0,0,0-10.98188,7.79914,36.4102,36.4102,0,0,0-7.41711,12.74,47.26185,47.26185,0,0,0-2.77124,16.489c0,6.88306.70343,11.12555,2.90985,16.07343a37.0795,37.0795,0,0,0,7.75958,11.60278,29.00429,29.00429,0,0,0,12.88642,8.03668,53.65623,53.65623,0,0,0,15.79626,2.53076,60.54117,60.54117,0,0,0,15.79626-2.07849c6.71247-1.92865,10.808-4.71118,13.995-8.03668Zm-38.62719-37.33216A15.90294,15.90294,0,0,1,828.304,128.9422a15.2138,15.2138,0,0,1,6.6961,1.37073,12.298,12.298,0,0,1,4.59973,3.79333,16.153,16.153,0,0,1,2.5802,5.56732,26.195,26.195,0,0,1,.80634,6.53858l-32.27484.32251A21.50305,21.50305,0,0,1,816.35938,133.78375Z"/><path class="cls-3" d="M963.13552,117.19706,946.353,164.29069l-18.147-49.70264-17.43,6.78342,26.1306,65.40217s-.92539,5.03626-1.61076,6.16028c-2.59806,4.26084-2.23266,5.01485-6.26432,8.88522-4.03527,3.874-8.9884,5.51013-14.68764,7.66158l6.52979,14.67046c11.46972-3.43054,18.53423-6.46843,23.80833-12.92634,5.27036-6.45425,7.01709-12.17887,10.13979-21.107l27.25673-72.92075Z"/><path class="cls-4" d="M67.26405,64.5429,65.24439,38.24311,63.65323,17.523s.08569-.01332.24636-.03622c-.26945-.02321-4.02588-.30734-12.02878,1.12813-15.45626,2.77236-13.19043,2.29974-26.44273,5.8197,0,0-2.0232,6.972-3.69488,12.34365-2.3761,7.63476-4.76937,24.27758-4.76937,24.27758l18.12334,1.25638Z"/><path class="cls-3" d="M65.24439,38.24311,67.26405,64.5429l.7634.04232,38.299,2.12283,32.14222-28.441,2.84728-2.5194.27368-.24213a119.1808,119.1808,0,0,0-36.926-16.18632c-19.56764-4.617-38.42291-2.16627-40.764-1.83242-.16067.0229-.24636.03622-.24636.03622Z"/><path class="cls-3" d="M177.518,71.10243l38.48974-3.66918.87977-.08389,2.01431-29.05591,1.4728-21.2443s-20.24773-4.31331-41.0323,1.12588-37.75271,17.37275-37.75271,17.37275l.20815.206,2.54169,2.51524Z"/><path class="cls-4" d="M216.88748,67.34936l28.95268-2.054,18.10125-1.28419s-.36216-4.82227-1.50124-12.055c-2.14249-13.60456-5.44435-26.44273-5.44435-26.44273s-7.78641-2.68979-12.34371-4.07024c-7.65256-2.318-24.27752-4.394-24.27752-4.394l-1.4728,21.2443Z"/><path class="cls-3" d="M216.83589,68.2801l-2.11356,38.13156L245.83811,140.687l.002-.00274a106.47834,106.47834,0,0,0,16.271-35.93529,117.838,117.838,0,0,0,1.7962-40.6351l-18.06721,1.24325-28.95268,1.99227Z"/><path class="cls-3" d="M245.84016,140.92425l-.005.0051-35.925,36.29864,4.12837,39.36951.0695.00479,31.73214,2.19987,18.49864,1.28239s3.93794-20.24773-1.50124-41.0323S245.84016,140.92425,245.84016,140.92425Z"/><path class="cls-4" d="M214.108,216.60229l-.0695-.00479.00485.06858,1.82464,25.719,1.5087,21.26633a73.94461,73.94461,0,0,0,12.0551-.75059c18.43747-2.48051,26.44267-6.195,26.44267-6.195s2.48008-6.81566,4.07024-11.96835c2.3578-7.64036,4.39408-24.65288,4.39408-24.65288l-18.49864-1.28239Z"/><path class="cls-3" d="M214.03852,216.5975l-39.43759-2.16514-31.5635,27.92885-3.65954,3.23813-.0262.02315-.02508-.02514-3.23838-3.23845L103.586,209.85521l-38.16528,3.63826-1.20423.11481L62.225,242.3347l-1.49557,21.57386s20.24772,4.3133,41.03229-1.126,37.75271-16.99739,37.75271-16.99739l-.091-.091a119.34492,119.34492,0,0,0,36.84027,16.127c20.91033,4.93377,41.01039,1.7962,41.01039,1.7962L215.813,242.385l-1.76976-25.71884Z"/><path class="cls-4" d="M64.21645,213.60828l-29.12928,2.06657-17.92459,1.27169a114.6091,114.6091,0,0,0,1.50118,12.055c1.49751,8.69151,5.44441,26.44273,5.44441,26.44273s8.00745,3.15525,12.34365,4.44548c8.76793,2.60889,24.27759,4.01878,24.27759,4.01878L62.225,242.3347Z"/><path class="cls-3" d="M64.28758,212.32546l2.094-37.77948L35.57174,139.72655l35.44537-35.81414L67.33187,65.25466l-.06782-.71176L35.08717,62.31223,16.96383,61.05585s-4.31331,20.24773,1.12588,41.0323c4.94933,18.91245,14.96193,34.97077,16.726,37.71108a108.65139,108.65139,0,0,0-15.82291,36.40954,117.83852,117.83852,0,0,0-1.79626,40.635l17.89061-1.23111,29.12928-2.00441Z"/></svg>