<svg id="Layer_1" data-name="Layer 1" xmlns="http://www.w3.org/2000/svg" viewBox="0 0 900 795.16713"><defs><style>.cls-1{fill:#3044b5;}.cls-2{fill:#fff;}.cls-3{fill:#ffc61e;}.cls-4{fill:#d81e05;}</style></defs><path d="M130.87786,669.30469a21.04179,21.04179,0,0,1,15.708-6.3086q12.75879,0,18.6582,8.459a18.43554,18.43554,0,0,1,3.49805,9.5332H158.06438a14.53737,14.53737,0,0,0-2.61523-5.54687q-2.85206-3.32812-8.45605-3.32813a10.42214,10.42214,0,0,0-9.001,4.69727q-3.293,4.69921-3.29395,13.29492,0,8.59863,3.47657,12.87891a10.89069,10.89069,0,0,0,8.834,4.28222q5.49316,0,8.376-3.6748a16.1294,16.1294,0,0,0,2.64551-5.92774H168.6386a23.02223,23.02223,0,0,1-7.01367,13.58985q-5.64258,5.23534-14.45605,5.23437-10.90724,0-17.14942-7.07226-6.2417-7.10744-6.24121-19.4834Q123.77825,676.55127,130.87786,669.30469Z"/><path d="M207.98626,710.44434q-4.78417,5.90478-14.52539,5.90527-9.74268,0-14.52637-5.90527a23.44451,23.44451,0,0,1,0-28.38575q4.78419-5.99414,14.52637-5.99316,9.74121,0,14.52539,5.99316a23.44451,23.44451,0,0,1,0,28.38575Zm-7.9043-5.46094q2.32324-3.08056,2.32325-8.75879,0-5.67774-2.32325-8.74023a8.78028,8.78028,0,0,0-13.33008,0q-2.33936,3.063-2.33984,8.74023,0,5.67774,2.33984,8.75879a8.74955,8.74955,0,0,0,13.33008,0Z"/><path d="M243.123,677.2793h10.6084l-13.64649,37.78711h-10.417L216.11614,677.2793h11.09375l7.87012,27.873Z"/><path d="M297.25677,663.9668v9.04785H281.96771v42.05176H271.22063V673.01465H255.86321V663.9668Z"/><path d="M319.80853,676.39453q.189.01758.84863.05274v10.123c-.624-.07031-1.17871-.11523-1.66406-.13867s-.87793-.03516-1.17872-.03516q-5.96337,0-8.00781,3.88282a15.1048,15.1048,0,0,0-1.14453,6.72558v18.06153h-9.94922V677.2793h9.42969v6.58593a20.897,20.897,0,0,1,3.98633-5.165,10.857,10.857,0,0,1,7.21094-2.32325Q319.61664,676.377,319.80853,676.39453Z"/><path d="M341.414,692.082a15.56351,15.56351,0,0,0,3.94629-.86719,2.97081,2.97081,0,0,0,2.12989-2.80761,3.31871,3.31871,0,0,0-1.63379-3.20606,10.32251,10.32251,0,0,0-4.79688-.88476q-3.54932,0-5.02539,1.73339a7.14181,7.14181,0,0,0-1.40527,3.4668h-9.53418a14.46889,14.46889,0,0,1,2.78515-8.14746q3.93457-4.99218,13.50977-4.99219a24.09182,24.09182,0,0,1,11.07227,2.46192q4.83984,2.4624,4.83984,9.291v17.334q0,1.80322.06934,4.36816a5.4943,5.4943,0,0,0,.58886,2.63477,3.53608,3.53608,0,0,0,1.45606,1.14453v1.45508H348.66888a10.94,10.94,0,0,1-.624-2.14844q-.17284-1.00488-.27734-2.28906a20.35446,20.35446,0,0,1-4.74219,3.77929,14.33411,14.33411,0,0,1-7.25293,1.83789,12.51436,12.51436,0,0,1-8.52636-2.92968q-3.36476-2.92969-3.36426-8.30274,0-6.96972,5.41308-10.08887a24.18721,24.18721,0,0,1,8.73145-2.42675Zm6.041,4.61133a10.96067,10.96067,0,0,1-1.915.95312,16.26969,16.26969,0,0,1-2.65332.67579l-2.249.416a14.8153,14.8153,0,0,0-4.542,1.35156,4.51558,4.51558,0,0,0-2.334,4.19532,4.38612,4.38612,0,0,0,1.42578,3.6582,5.42542,5.42542,0,0,0,3.46778,1.126,10.32739,10.32739,0,0,0,5.96679-1.87207q2.72754-1.87208,2.833-6.83008Z"/><path d="M388.537,690.834a8.74468,8.74468,0,0,0-1.4248-3.81347,5.97962,5.97962,0,0,0-5.17774-2.28809q-5.00536,0-6.84668,4.957a20.5943,20.5943,0,0,0-.97265,6.98535,18.93778,18.93778,0,0,0,.97265,6.67481,6.60926,6.60926,0,0,0,6.67285,4.71484q3.47609,0,4.93457-1.873a9.29327,9.29327,0,0,0,1.77247-4.85352h10.08886a16.531,16.531,0,0,1-3.26269,8.5293q-4.65089,6.48339-13.77637,6.48242-9.12744,0-13.42969-5.4082-4.30371-5.4082-4.30371-14.02442,0-9.72216,4.75391-15.13183,4.75488-5.4082,13.11816-5.40821,7.11328,0,11.64258,3.18946,4.52783,3.19042,5.36133,11.26757Z"/><path d="M430.04485,678.04492a15.35348,15.35348,0,0,1,6.5293,5.58985,18.56176,18.56176,0,0,1,3.01074,7.8125,48.17226,48.17226,0,0,1,.32617,7.499H412.3886q.23,5.68506,3.95215,7.97363a10.03778,10.03778,0,0,0,5.44727,1.42188,7.67574,7.67574,0,0,0,7.51953-4.334h10.08789a12.34621,12.34621,0,0,1-3.66309,6.83008q-5.07714,5.51074-14.21679,5.51172A20.599,20.599,0,0,1,408.205,711.7002q-5.76562-4.64941-5.76563-15.12793,0-9.82032,5.20508-15.0586,5.20606-5.23974,13.51367-5.24023A21.4948,21.4948,0,0,1,430.04485,678.04492Zm-14.78125,8.53516a10.26435,10.26435,0,0,0-2.63183,5.84863h17.02148a8.24671,8.24671,0,0,0-2.63183-5.97168,8.66149,8.66149,0,0,0-5.86036-2.03711A7.834,7.834,0,0,0,415.2636,686.58008Z"/><path d="M465.89935,676.39453q.189.01758.84863.05274v10.123c-.624-.07031-1.17871-.11523-1.66406-.13867s-.87793-.03516-1.17871-.03516q-5.96339,0-8.00782,3.88282a15.1048,15.1048,0,0,0-1.14453,6.72558v18.06153h-9.94922V677.2793h9.42969v6.58593a20.897,20.897,0,0,1,3.98633-5.165,10.857,10.857,0,0,1,7.21094-2.32325Q465.70746,676.377,465.89935,676.39453Z"/><path d="M494.79485,676.86328a74.2714,74.2714,0,0,1,8.00782-13.72851h7.4541l-2.11524,3.88281a57.78079,57.78079,0,0,0-6.0664,16.7793,66.31539,66.31539,0,0,0-1.10938,12.54882,59.30446,59.30446,0,0,0,3.085,19.51856,89.09989,89.09989,0,0,0,6.37891,13.52051h-7.31445l-2.46192-3.36329a45.028,45.028,0,0,1-5.0957-9.082,51.72341,51.72341,0,0,1-4.81934-21.21679A47.06172,47.06172,0,0,1,494.79485,676.86328Z"/><path d="M521.58587,669.30469a21.04179,21.04179,0,0,1,15.708-6.3086q12.75879,0,18.6582,8.459a18.43554,18.43554,0,0,1,3.498,9.5332H548.77239a14.53737,14.53737,0,0,0-2.61523-5.54687q-2.85205-3.32812-8.45606-3.32813a10.42214,10.42214,0,0,0-9.001,4.69727q-3.293,4.69921-3.29395,13.29492,0,8.59863,3.47656,12.87891a10.89071,10.89071,0,0,0,8.834,4.28222q5.49316,0,8.376-3.6748a16.12924,16.12924,0,0,0,2.6455-5.92774h10.6084a23.02223,23.02223,0,0,1-7.01367,13.58985q-5.64258,5.23534-14.45606,5.23437-10.90722,0-17.14941-7.07226-6.2417-7.10744-6.24121-19.4834Q514.48626,676.55127,521.58587,669.30469Z"/><path d="M568.67181,722.3125l1.248.06934a15.63015,15.63015,0,0,0,2.77344-.1045,4.97477,4.97477,0,0,0,2.21875-.79687,5.32592,5.32592,0,0,0,1.61231-2.46094,5.93187,5.93187,0,0,0,.6416-2.28906L563.28118,677.2793h10.98926l8.251,27.873,7.80078-27.873h10.5039L587.872,714.44336q-3.75585,10.74609-5.94238,13.33008-2.18555,2.581-8.74609,2.582-1.31837,0-2.11622-.01758-.7998-.01758-2.3955-.12109Z"/><path d="M638.44622,681.335q4.623,4.88818,4.623,14.35254,0,9.98438-4.51856,15.21875A14.668,14.668,0,0,1,626.914,716.1416a12.20265,12.20265,0,0,1-7.53711-2.25293,14.574,14.574,0,0,1-3.21-3.64062v19.6914h-9.77636V677.2793h9.46484v5.58105a15.88966,15.88966,0,0,1,3.41895-3.88281,12.62074,12.62074,0,0,1,7.88574-2.53027A14.94172,14.94172,0,0,1,638.44622,681.335Zm-7.583,7.10645q-2.01415-3.36182-6.53125-3.36231a7.429,7.429,0,0,0-7.46093,5.09668,19.14953,19.14953,0,0,0-1.05079,6.86328q0,6.58887,3.53516,9.25684a8.11,8.11,0,0,0,4.97363,1.55957,7.23066,7.23066,0,0,0,6.3584-3.18945,16.70556,16.70556,0,0,0,.17578-16.22461Z"/><path d="M671.02923,676.39453q.19042.01758.84961.05274v10.123c-.624-.07031-1.17871-.11523-1.66406-.13867s-.87891-.03516-1.17872-.03516q-5.96337,0-8.00878,3.88282a15.10674,15.10674,0,0,0-1.14356,6.72558v18.06153h-9.95019V677.2793h9.42968v6.58593a20.89547,20.89547,0,0,1,3.98731-5.165,10.85519,10.85519,0,0,1,7.21094-2.32325C670.746,676.377,670.90228,676.38281,671.02923,676.39453Z"/><path d="M687.5136,677.2793v22.77636a11.97663,11.97663,0,0,0,.75879,4.85352q1.34619,2.87841,5.27832,2.87793,5.03613,0,6.89942-4.0918a14.87676,14.87676,0,0,0,.96582-5.8584V677.2793H711.4345v37.78711H701.832v-5.33789q-.13915.17284-.6914,1.03906a6.94658,6.94658,0,0,1-1.31348,1.52539,13.73419,13.73419,0,0,1-4.47754,2.84375,15.23692,15.23692,0,0,1-5.06445.76172q-8.36572,0-11.26953-6.03125-1.626-3.32812-1.625-9.81153V677.2793Z"/><path d="M728.69915,703.002a6.574,6.574,0,0,0,1.3584,3.74414q1.84716,1.97754,6.82812,1.97657a10.44646,10.44646,0,0,0,4.65039-.86719,2.77435,2.77435,0,0,0,1.72364-2.59961,2.80365,2.80365,0,0,0-1.38867-2.53125q-1.38869-.86572-10.33692-2.98047-6.44091-1.59522-9.07519-3.9873a8.64232,8.64232,0,0,1-2.63477-6.79493,11.77745,11.77745,0,0,1,4.11719-8.99707q4.11621-3.76025,11.58691-3.76074,7.08692,0,11.55078,2.8252,4.46486,2.82714,5.125,9.75976h-9.87988a5.8424,5.8424,0,0,0-1.07812-3.0166q-1.63478-2.01123-5.5625-2.01074a8.00849,8.00849,0,0,0-4.60547,1.00586A2.88872,2.88872,0,0,0,729.705,687.125a2.577,2.577,0,0,0,1.46,2.46094q1.459.79688,10.31641,2.73828,5.90331,1.38867,8.85058,4.19531a9.52393,9.52393,0,0,1,2.91211,7.10742,11.476,11.476,0,0,1-4.18554,9.16993q-4.18653,3.55224-12.93946,3.55273-8.92822,0-13.18359-3.76172a12.22681,12.22681,0,0,1-4.25488-9.58594Z"/><path d="M772.249,676.86328a47.13487,47.13487,0,0,1,4.0498,18.85938,51.80238,51.80238,0,0,1-4.81055,21.21679,45.11386,45.11386,0,0,1-5.08691,9.082l-2.458,3.36329h-7.30176a89.15859,89.15859,0,0,0,6.35547-13.52051,59.48477,59.48477,0,0,0,3.07422-19.51856,66.65448,66.65448,0,0,0-1.10449-12.54882,57.95792,57.95792,0,0,0-6.04492-16.7793l-2.10743-3.88281h7.44043A74.305,74.305,0,0,1,772.249,676.86328Z"/><g id="blue_field" data-name="blue field"><rect class="cls-1" x="-0.48564" y="-0.9" width="901.11769" height="120.14903"/></g><g id="white_fields" data-name="white fields"><rect class="cls-2" x="-0.48564" y="119.24903" width="901.11769" height="360.44708"/></g><g id="yellow_field" data-name="yellow field"><rect class="cls-3" x="-0.48564" y="149.28628" width="901.11769" height="300.37256"/></g><g id="red_field" data-name="red field"><rect class="cls-4" x="-0.48564" y="479.6961" width="901.11769" height="120.14903"/></g></svg>