<svg id="Layer_1" data-name="Layer 1" xmlns="http://www.w3.org/2000/svg" viewBox="0 0 507.72611 400"><defs><style>.cls-1{fill:#bb1f85;}.cls-2{fill:#39bacc;}</style></defs><path class="cls-1" d="M88.64313,252.85448c7.315-7.2805,14.39487-14.3023,21.44775-21.35115q37.03147-37.0101,74.07418-74.0089c1.45814-1.45364,1.63278-2.23557-.03338-3.75693q-38.73952-35.37251-77.39324-70.839c-1.65414-1.51037-.42682-2.03431.39235-2.85365q27.38265-27.3886,54.77881-54.76367c4.072-4.07047,8.21011-8.07851,12.1701-12.25529a3.35315,3.35315,0,0,1,4.22566-.94593,127.98928,127.98928,0,0,1,42.418,26.13846C241.479,57.5,254.7999,81.05966,259.81671,108.90375c6.5,36.076-.74084,69.44411-22.37116,99.16673-21.05529,28.93246-49.66907,45.97494-84.99109,51.6537C132.08019,262.99976,105.46824,260.116,88.64313,252.85448Z"/><path class="cls-1" d="M401.23947,269.47643c3.72967-8.12828,7.30948-15.93,11.08291-24.15366-6.25485,0-12.14475-.1627-18.01869.0726-2.702.10824-3.35571-.71518-3.16414-3.27591a93.0133,93.0133,0,0,0,.01839-9.71244c-.04518-1.50257.4017-2.04917,1.96645-2.04466q20.38025.05878,40.76077-.022c1.92186-.0072,1.53562.8004.9813,1.94864-3.74875,7.76549-7.45478,15.55161-11.21233,23.31282-1.57872,3.26084-1.52859,3.00539,1.89557,4.34226,3.76014,1.46805,6.12645,4.552,7.86719,8.146,4.76009,9.82815,2.82215,21.85886-5.0424,28.97031-6.09175,5.5084-13.45828,7.32673-21.54034,6.20483-3.35729-.466-3.40976-.49748-3.48081,3.0036-.42036,20.70924-14.54787,38.69045-34.15968,42.89659-13.58127,2.91282-25.45307-.44673-35.14415-11.38253-.05925,1.232-.14227,2.15944-.14273,3.08694-.00824,17.54614-.05906,35.09265.05329,52.63807.01552,2.42551-.63193,3.01118-3.00074,2.94234-6.20354-.18027-12.417-.12507-18.62393-.01539-1.82645.03226-2.24078-.57206-2.239-2.30886q.06713-67.0803,0-134.16062c-.002-1.91652.35082-2.67894,2.494-2.62771,6.29512.15051,12.59717.10208,18.89463.00781,1.83377-.02745,2.589.45759,2.465,2.41136-.15911,2.50616-.03866,5.03007-.03866,7.47513.51095.38474.70444.02636.91812-.21951,9.71546-11.18107,22.02736-14.02985,35.91472-10.58529,13.24851,3.28611,22.2684,11.907,28.14788,24.01944,2.58171,5.31865,9.12107,8.29382,14.17847,6.44421,3.93026-1.4374,6.01984-4.987,5.6916-9.66844-.264-3.76442-2.46178-6.0484-6.60709-7.0834C408.69475,269.27508,405.16668,269.824,401.23947,269.47643Zm-67.34528,33.34662q0,6.074.003,12.148a3.694,3.694,0,0,0,.60131,2.54649c5.66072,7.09945,13.027,10.99622,22.07383,10.13594,15.68481-1.49152,25.2089-14.91015,21.963-30.32747-2.03338-9.65826-7.74719-16.0331-17.38326-18.58678-9.72868-2.57809-17.817.6035-24.83014,7.34892a7.68684,7.68684,0,0,0-2.47928,6.48019C334.06652,295.973,333.897,299.4036,333.89419,302.82305Z"/><path class="cls-2" d="M275.5925,338.75a31.51708,31.51708,0,0,1-17.76777,10.33851c-21.373,4.41474-41.54637-5.70023-49.01814-27.289-5.01206-14.48174-4.53862-28.99432,2.02495-42.94681,6.246-13.27739,16.7374-21.19022,31.4097-23.3276a39.01381,39.01381,0,0,1,24.49532,4.29425,34.17677,34.17677,0,0,1,8.26856,6.75049c.971-.38955.54368-1.11468.5445-1.65659.02567-17.00229.06308-34.00477-.00514-51.0068-.00837-2.08234.50706-2.79685,2.69132-2.745,6.29387.14943,12.5943.11886,18.89018.0259,1.78186-.0263,2.27429.51824,2.27245,2.2913q-.06848,65.85072.01344,131.70146c.0032,2.16637-.623,2.761-2.72846,2.71493-6.11472-.134-12.237-.18343-18.3497-.01869-2.36525.06373-2.98519-.74553-2.77562-2.92563C275.72778,343.18614,275.5925,341.39213,275.5925,338.75Zm-.0087-36.02443h.01951c0-3.95938-.0615-7.92021.0318-11.87739a4.51676,4.51676,0,0,0-1.46717-3.5572c-7.03765-7.12851-15.48268-10.31735-25.44111-8.95541a19.50967,19.50967,0,0,0-14.51489,9.21549c-4.52944,7.24-4.83664,15.13779-2.97859,23.14794,1.77784,7.66428,6.16232,13.38584,14.04035,15.5522,11.42875,3.14267,20.98971-.65978,29.36172-8.43292a3.53125,3.53125,0,0,0,.9554-2.94448C275.57315,310.82449,275.5838,306.775,275.5838,302.72561Z"/><path class="cls-2" d="M67.79141,119.61232c0,4.144-.0008,7.54864.00012,10.95325q.01482,54.66537.0067,109.33074c-.00039.8272.46445,1.96865-.47066,2.44326-.77945.39555-1.44555-.5079-2.10759-.92344a127.229,127.229,0,0,1-41.54367-42.2044,119.19331,119.19331,0,0,1-10.77612-22.24937,2.9309,2.9309,0,0,1,.70346-3.55749q25.79121-25.6675,51.49952-51.4183C65.77918,121.31132,66.5356,120.71662,67.79141,119.61232Z"/><path class="cls-2" d="M436.66236,257.41917c3.47745,0,6.56909-.0496,9.65845.01257,3.84685.07739,3.8511.11723,3.85555-3.73506.00481-4.13521.04327-8.27119-.02775-12.40521a2.73583,2.73583,0,0,1,1.66471-2.74671c6.683-3.66251,13.37127-7.31961,19.95944-11.14774,1.99426-1.15879,2.17977-.51519,2.17035,1.31213-.04351,8.45253.08512,16.90775-.09624,25.35667-.05661,2.63866.91279,3.52451,3.33054,3.49034,5.84286-.08259,11.69044-.01131,17.52768-.22872,2.43769-.09079,3.09621.7262,3.01218,3.0732-.17055,4.76014-.13269,9.53208-.02548,14.29564.04149,1.84335-.44309,2.48075-2.39577,2.44368-6.38262-.12134-12.77012.02715-19.15356-.07069-1.80487-.02765-2.28514.5596-2.27713,2.30072.05991,13.03906-.02956,26.07894.05734,39.11774.04535,6.80638,4.30738,10.51277,11.15561,9.94206a26.46915,26.46915,0,0,0,9.48088-2.76986c3.03462-1.48769,3.09928-1.46831,3.95449,1.63254,1.33531,4.84144,2.6464,9.68966,4.01153,14.52267.29806,1.055.325,1.75225-.79434,2.45846-11.13309,7.02415-29.964,8.32038-40.93424.32569-7.52478-5.48378-10.50133-13.23306-10.60521-22.186-.1627-14.02648-.14682-28.05635-.03806-42.08348.0199-2.567-.58211-3.71809-3.2406-3.23514-1.92536.34971-2.6086-.40488-2.84618-2.41816a30.44316,30.44316,0,0,0-6.58675-15.93438C437.27168,258.48585,437.12727,258.17781,436.66236,257.41917Z"/><path class="cls-2" d="M5.19011,132.10679c.264-28.73279,8.89488-54.64015,26.25061-77.62092,1.35507-1.79425,2.12194-.9636,3.14558-.027q8.241,7.54005,16.45827,15.10605c4.2292,3.88576,8.42213,7.812,12.70489,11.63779,1.20461,1.076,1.34328,1.6835.09464,2.92737q-28.224,28.11621-56.35222,56.3286c-.47694.4769-.95035,1.27-1.76773.90882-.66785-.29513-.50789-1.11019-.51727-1.70657C5.16726,137.1434,5.19011,134.62492,5.19011,132.10679Z"/><path class="cls-2" d="M95.7289,206.21213c0-2.95718.00005-5.193,0-7.42878q-.00114-41.9532-.00173-83.90639a10.55032,10.55032,0,0,1,.0307-1.616c.08839-.56544-.32224-1.40774.49282-1.6229.639-.16867,1.11508.44057,1.57672.86039,3.31747,3.01684,6.64825,6.01919,9.95208,9.05089q17.94544,16.46724,35.90253,32.92156c1.52616,1.38979,2.01027,2.2308.25251,3.91534-5.43739,5.21089-10.69684,10.60776-16.01416,15.94361Q113.96618,188.33268,100.01652,202.34C98.83091,203.527,97.52671,204.59545,95.7289,206.21213Z"/><path class="cls-2" d="M95.72539,51.27166c0-1.521.0012-2.91469-.00019-4.30841-.01188-11.85741.00724-23.715-.07865-35.57191-.01006-1.3887.40606-1.7698,1.68357-2.135A131.19116,131.19116,0,0,1,137.463,4.12523c1.664.04878,3.32227.29143,4.85178.43214Z"/><path class="cls-2" d="M67.665,22.20425V46.43611c-1.50162-.25711-2.20675-1.49057-3.15021-2.33728-3.4625-3.10746-6.83862-6.31326-10.3553-9.35722-1.43755-1.24433-1.63958-2.00723.01521-3.25166C58.39036,28.3197,62.68358,25.2783,67.665,22.20425Z"/></svg>