<svg xmlns="http://www.w3.org/2000/svg" role="img" viewBox="-0.66 -0.66 34.26 26.63"><title>estonia</title><path fill="#FFF" d="M0 0h33v21H0z"/><path d="M0 0h33v14H0z"/><path fill="#0072ce" d="M0 0h33v7H0z"/><path d="M5.12901 22.28056v-.49526h-2.0501v2.79569h2.11862v-.50228H3.6497v-.71915h1.35792v-.48555H3.6497v-.59345zm-1.01048-.49526zm1.91144 2.13588h-.54813c0 .21202.0777.38682.23253.5244.15483.13703.39491.20554.71969.20554.31884 0 .55407-.06474.70675-.19422.15213-.12948.2282-.29672.2282-.50173 0-.15538-.05287-.2854-.15915-.38898-.10736-.1025-.26867-.17858-.4834-.22929-.32261-.07067-.51036-.12085-.56377-.14998-.05287-.02751-.0793-.07283-.0793-.13434 0-.04963.02481-.09279.07499-.12948.04963-.03614.1338-.05449.2514-.05449.14243 0 .24386.03615.3032.10952.03183.04047.05125.0955.0588.16509h.54059c-.02428-.25249-.11708-.43052-.28-.53357-.1624-.10304-.37226-.15483-.63068-.15483-.27137 0-.48231.06851-.6323.20609-.14997.13703-.22496.30104-.22496.49202 0 .16185.04801.28594.14458.37172.09603.0874.26112.15969.49472.21795.32478.07715.51307.13164.56324.16347.05071.0313.07607.0777.07607.13812 0 .06312-.0313.1106-.09387.14242-.06258.0313-.14729.04748-.25303.04748-.18127 0-.30482-.03615-.37171-.10844-.0383-.04046-.06313-.10844-.07445-.20447zm.4138-1.46258zm1.11299.4591h.28863v1.27269c0 .12894.03021.22443.09118.28647.09333.09711.26759.14135.52331.13272l.25627-.00971v-.40409a.89567.89567 0 0 1-.0545.00324c-.01834.00054-.0356.00108-.05179.00108-.11005 0-.17587-.01079-.19745-.03183-.02158-.0205-.03237-.07337-.03237-.15807v-1.0925h.3361v-.3852h-.3361v-.57618h-.53465v.57619h-.28863zm2.79785 1.11354c-.0847.11221-.2061.16886-.36417.16886s-.28-.05665-.36524-.16886c-.08524-.11276-.12786-.27245-.12786-.48016 0-.20717.04262-.36686.12786-.47907.08524-.11168.20717-.16779.36524-.16779.15808 0 .27947.05611.36417.16779.0847.11221.12732.2719.12732.47907 0 .20771-.04262.3674-.12732.48016zm.43268.29834c.17425-.21526.26165-.47476.26165-.7785 0-.29834-.0874-.55676-.26165-.7758-.1748-.2185-.4397-.32801-.79469-.32801-.35553 0-.62042.10951-.79522.32801-.17426.21904-.26166.47746-.26166.7758 0 .30374.0874.56324.26166.7785.1748.2158.4397.3237.79522.3237.355 0 .61989-.1079.79469-.3237zM9.9926 22.4586zm3.11292.17372c-.13596-.11221-.31075-.16778-.5244-.16778-.17048 0-.31129.04154-.42296.12516-.0615.0464-.12733.123-.19692.2293v-.30159h-.5217V24.581h.53842v-1.11892c0-.12787.0178-.23253.05341-.31507.06798-.15538.19422-.23307.37711-.23307.14944 0 .25087.05287.30374.15916.02913.05826.0437.14188.0437.25032V24.581h.55353v-1.39191c0-.2595-.06798-.44509-.20393-.55677zm-.72347-.17372zm1.98212-.19152v-.49904h-.54813v.49904zm-.54813.24655V24.581h.54813v-2.06737zm2.2114 1.06228v.20123c-.00377.18074-.05448.30536-.15267.37334-.09765.06851-.205.1025-.32154.1025-.07337 0-.13542-.0205-.18667-.0615-.05125-.041-.0766-.1079-.0766-.20016 0-.10358.04153-.18019.12516-.22982.0491-.02914.13056-.05341.24439-.07391l.12139-.02266c.06096-.01133.10844-.02374.1435-.03669a.598.598 0 0 0 .10305-.05233zm-.328-.25249l-.18398.02266c-.20878.02698-.36686.07122-.47422.13326-.19584.11383-.29402.2978-.29402.5519 0 .19585.06096.34745.18289.45427.12246.10682.27676.16023.46397.16023.14674 0 .27838-.03345.39437-.10089.09765-.05665.18343-.1257.25788-.20663.00378.04694.00917.08848.01565.12517.00593.03668.01726.07607.03399.1176h.58805v-.07984c-.0356-.01618-.06204-.03722-.07985-.06258-.0178-.02482-.02859-.07283-.03237-.14405-.00215-.09333-.00377-.17318-.00377-.239v-.9479c0-.24925-.08794-.41865-.26328-.50875-.17587-.08955-.3771-.13433-.60316-.13433-.34798 0-.59345.09064-.73588.27299-.0901.11653-.1408.2649-.15214.44562h.5217c.0124-.07984.03777-.14296.07607-.18936.05287-.06366.1435-.09495.27083-.09495.11383 0 .20015.01618.25896.04801.0588.03237.08848.09118.08848.17588 0 .0696-.03885.1203-.116.15322-.04262.01942-.11437.03506-.21418.04747zm.02859-.86482zm2.52648 0c-.16455.37927-.24656.75369-.24656 1.1227 0 .31993.06313.63823.18937.95438.10736.2719.26381.54813.46828.82867h.321l-.11599-.21256c-.15915-.29295-.26975-.59993-.33179-.91985-.04046-.20825-.06096-.43645-.06096-.68462 0-.38413.05287-.7321.15753-1.04286.06312-.18612.1829-.43969.35877-.7607l-.3113-.00377-.13433.18559c-.1052.14566-.20339.32316-.29402.53302zm1.20632 2.1224h.57834v-1.24787h1.09249V24.581h.5805v-2.7957h-.5805v1.06606h-1.09249V21.7853h-.57834zm4.59654-.6733c-.13596.17102-.31993.25626-.55137.25626-.23145 0-.41596-.08524-.55353-.25626-.13811-.17048-.20663-.41326-.20663-.72832 0-.31453.06852-.5573.20663-.72833.13757-.17048.32208-.25626.55353-.25626.23144 0 .41541.08578.55137.25734.13595.17102.20393.4138.20393.72725 0 .31506-.06798.55784-.20393.72832zm.3647.42513c.28216-.26705.42297-.65118.42297-1.15345 0-.51199-.14081-.89665-.42297-1.15291-.21095-.21796-.5163-.3264-.91607-.3264-.39923 0-.70459.10844-.91607.3264-.28324.25626-.42459.64092-.42459 1.1529 0 .50228.14135.8864.42459 1.15346.21148.21742.51684.32586.91607.32586.39977 0 .70512-.10844.91607-.32586zm-.91607-2.63276zm2.31985 2.88093v-2.7957h-.5805v2.7957zm-.29025-2.85072zm1.59908 1.79438l.36038-1.10004.34906 1.10004zm.03614-1.73935l-.99807 2.79569h.61071l.19368-.57457h1.0299l.1802.57457h.63337l-.98998-2.7957zm.32586 0zm2.2783.70566c-.10034-.23252-.246-.48285-.4386-.75098h-.40733l.11546.21202c.15915.29241.26975.59831.33179.91823.04046.20987.06096.43862.06096.68679 0 .38682-.05665.74289-.16886 1.06767-.06582.19206-.18235.43861-.34906.73965h.40031l.13434-.18397c.0874-.11113.18019-.27676.27892-.49688.17587-.3933.26381-.78011.26381-1.161 0-.34636-.0739-.69002-.22173-1.03153z"/></svg>