<svg xmlns="http://www.w3.org/2000/svg" role="img" viewBox="-35.98 -35.98 1870.96 1340.96"><title>finland</title><path fill="#fff" d="M0 0h1800v1100H0z"/><path fill="#003580" d="M0 400h1800v300H0z"/><path fill="#003580" d="M500 0h300v1100H500z"/><path d="M161.63113 1142.06045v99.29893h20.6465v-41.69596h43.65316v-17.26938h-43.65315v-22.85314h49.85094v-17.48045zm102.6185 17.00074v-17.74908h-19.49521v17.74908zm-19.49521 8.769v73.5292h19.4952v-73.5292zm97.51443 4.22141c-4.83543-3.99114-11.0524-5.96753-18.67012-5.96753-6.06347 0-11.0716 1.4775-15.04355 4.45166-2.18745 1.65019-4.52841 4.37491-7.0037 8.15499v-10.7262H282.9965v73.39486h19.14982v-39.79633c0-4.5476.63321-8.27011 1.89963-11.2059 2.41772-5.5262 6.90776-8.2893 13.43174-8.2893 5.29595 0 8.90333 1.88044 10.78377 5.66051 1.03617 2.07233 1.55425 5.0465 1.55425 8.90333v44.7277h19.68709v-49.50557c0-9.22952-2.41771-15.83026-7.23395-19.80222zm-25.75057-6.1786zm70.36313 75.48638v-99.43325h-19.22657v99.43325zm59.29154-35.74762v7.1572c-.13432 6.42805-1.938 10.86052-5.43026 13.27824-3.47306 2.4369-7.29152 3.64576-11.43617 3.64576-2.6096 0-4.81623-.72916-6.63911-2.18746-1.82288-1.4583-2.72473-3.83764-2.72473-7.11882 0-3.68414 1.4775-6.40886 4.45166-8.17418 1.74613-1.03616 4.64355-1.89963 8.69226-2.62878l4.31734-.8059c2.16827-.40296 3.85683-.84428 5.10407-1.3048 1.22804-.4797 2.45608-1.09373 3.66494-1.86126zm-11.66642-8.98007l-6.54318.8059c-7.42583.95941-13.04798 2.53284-16.86643 4.73949-6.96531 4.0487-10.45757 10.59188-10.45757 19.62952 0 6.96532 2.16827 12.3572 6.524 16.15647 4.33652 3.79926 9.82435 5.6989 16.48265 5.6989 5.2192 0 9.90112-1.18967 14.02658-3.5882 3.47306-2.01476 6.52399-4.47085 9.19115-7.34908.13431 1.66937.307 3.14687.53727 4.45166.21107 1.3048.61402 2.70554 1.20885 4.18303H469.525v-2.83985c-1.26642-.57565-2.20664-1.32399-2.83985-2.22583-.63321-.88266-1.01698-2.59041-1.1513-5.12325-.07675-3.31956-.13431-6.15942-.13431-8.50038v-33.71366c0-8.86495-3.12768-14.89005-9.36384-18.09448-6.25536-3.18524-13.41256-4.77786-21.45241-4.77786-12.37639 0-21.10702 3.22362-26.1727 9.70923-3.20444 4.14465-5.00813 9.4214-5.41108 15.84945h18.555c.4605-2.83985 1.34316-5.08487 2.70553-6.73505 1.88044-2.26421 5.10406-3.37713 9.65166-3.37713 4.02952 0 7.09964.57565 9.19115 1.70775 2.09151 1.1513 3.14686 3.2428 3.14686 6.25536 0 2.47527-1.38155 4.27896-4.12546 5.44945-1.51587.69077-4.0679 1.24723-7.61771 1.68856zm1.01697-30.75869zm106.341 6.1786c-4.83542-3.99114-11.0524-5.96753-18.65093-5.96753-6.06347 0-11.09078 1.4775-15.04354 4.45166-2.20665 1.65019-4.5476 4.37491-7.0037 8.15499v-10.7262h-18.55499v73.39486h19.14983v-39.79633c0-4.5476.6332-8.27011 1.89963-11.2059 2.41771-5.5262 6.88856-8.2893 13.41255-8.2893 5.31513 0 8.90333 1.88044 10.80296 5.66051 1.03616 2.07233 1.55424 5.0465 1.55424 8.90333v44.7277h19.6871v-49.50557c0-9.22952-2.41772-15.83026-7.25315-19.80222zm-25.73137-6.1786zm89.72402 3.14687c-3.47306-1.9572-7.42583-2.9358-11.8775-2.9358-9.67085 0-17.3845 3.5882-23.17934 10.78377-5.77565 7.19558-8.65388 17.0775-8.65388 29.62658 0 10.87971 2.9358 19.78304 8.7882 26.74835 5.87159 6.94613 13.10554 10.4192 21.70185 10.4192 5.2192 0 9.57491-.9978 13.08635-2.97418 3.51144-1.97638 6.61993-5.14243 9.36385-9.51734v10.18893h18.6893v-99.29893h-19.4952v35.07603c-2.14909-3.45388-4.96975-6.15942-8.42363-8.11661zm4.7203 52.38378c-2.83985 4.02952-6.96532 6.06347-12.41477 6.06347-5.44945 0-9.49816-2.03395-12.1845-6.10184-2.66716-4.0679-4.01034-9.49816-4.01034-16.29079 0-6.29372 1.32399-11.57048 3.95277-15.83026 2.62879-4.2406 6.75425-6.37048 12.3764-6.37048 3.68413 0 6.92693 1.17048 9.70922 3.51144 4.5476 3.85683 6.81181 10.30406 6.81181 19.28414 0 6.44723-1.40074 11.68561-4.2406 15.73432zm83.5838-55.53065c-5.8524 13.4893-8.769 26.80592-8.769 39.93065 0 11.3786 2.24501 22.69964 6.73505 33.94392 3.83764 9.67085 9.38303 19.49521 16.67454 29.47308h11.3978l-4.12547-7.56015c-5.66052-10.4192-9.5941-21.33728-11.80074-32.71588-1.43912-7.40665-2.14908-15.52326-2.14908-24.34983 0-13.662 1.86126-26.03839 5.58377-37.0908 2.2642-6.61992 6.5048-15.63837 12.76015-27.05535l-11.0716-.13432-4.77785 6.60074c-3.7417 5.18081-7.21477 11.49373-10.45757 18.95794zm43.36533-23.94687v99.43325h20.45462v-33.25315l9.90111-10.18893 30.70112 43.44208h26.70998l-42.82807-58.48563 40.73655-40.94762H796.3576l-38.3764 40.94762v-40.94762zm143.83475 79.88048c-3.01255 3.99114-7.3299 6.0059-12.95204 6.0059s-9.95867-2.01476-12.9904-6.0059c-3.03174-4.01034-4.54761-9.69005-4.54761-17.0775 0-7.36827 1.51587-13.04798 4.5476-17.03912 3.03174-3.97196 7.36827-5.96753 12.99041-5.96753 5.62214 0 9.93949 1.99557 12.95204 5.96753 3.01254 3.99114 4.50922 9.67085 4.50922 17.03912 0 7.38745-1.49668 13.06716-4.50922 17.0775zm15.36975 10.61107c6.21697-7.6561 9.30627-16.88562 9.30627-27.68857 0-10.61108-3.0893-19.80223-9.30627-27.59263-6.1978-7.77123-15.6192-11.66643-28.26422-11.66643-12.62584 0-22.04724 3.8952-28.26422 11.66643-6.19779 7.7904-9.30628 16.98155-9.30628 27.59263 0 10.80295 3.10849 20.03248 9.30628 27.68857 6.21698 7.67528 15.63838 11.51292 28.26422 11.51292 12.64502 0 22.06643-3.83764 28.26422-11.51292zm-28.26422-66.54468zm92.18011.23026c-.24945-.01919-.53727-.01919-.90185-.01919-5.75646 0-10.43838 1.49668-14.02657 4.50923-2.20664 1.80369-4.79705 5.16163-7.77122 10.05462v-12.81772H919.6034v73.52918h19.3609v-35.1336c0-5.90996.74833-10.26568 2.22583-13.10553 2.64797-5.02731 7.84797-7.54097 15.58081-7.54097.59484 0 1.34318.0192 2.30259.05757.94022.05756 2.01476.13432 3.22362.26863v-19.68709c-.84429-.05756-1.40074-.07675-1.65019-.11513zm58.8694 55.70335c-3.01255 3.99114-7.3299 6.0059-12.95204 6.0059s-9.95867-2.01476-12.9904-6.0059c-3.03174-4.01034-4.54761-9.69005-4.54761-17.0775 0-7.36827 1.51587-13.04798 4.5476-17.03912 3.03174-3.97196 7.36827-5.96753 12.99041-5.96753 5.62214 0 9.93949 1.99557 12.95204 5.96753 3.01254 3.99114 4.50922 9.67085 4.50922 17.03912 0 7.38745-1.49668 13.06716-4.50922 17.0775zm15.36975 10.61107c6.21697-7.6561 9.30627-16.88562 9.30627-27.68857 0-10.61108-3.0893-19.80223-9.30627-27.59263-6.1978-7.77123-15.6192-11.66643-28.26422-11.66643-12.62584 0-22.04724 3.8952-28.26422 11.66643-6.19779 7.7904-9.30628 16.98155-9.30628 27.59263 0 10.80295 3.10849 20.03248 9.30628 27.68857 6.21698 7.67528 15.63838 11.51292 28.26422 11.51292 12.64502 0 22.06643-3.83764 28.26422-11.51292zm-28.26422-66.54468zm110.7351 6.1786c-4.83543-3.99114-11.0524-5.96753-18.65093-5.96753-6.06347 0-11.09078 1.4775-15.04355 4.45166-2.20664 1.65019-4.5476 4.37491-7.02288 8.15499v-10.7262h-18.5358v73.39486h19.14982v-39.79633c0-4.5476.63321-8.27011 1.88044-11.2059 2.4369-5.5262 6.90776-8.2893 13.43174-8.2893 5.31514 0 8.90333 1.88044 10.80296 5.66051 1.01698 2.07233 1.53506 5.0465 1.53506 8.90333v44.7277h19.70628v-49.50557c0-9.22952-2.41771-15.83026-7.25314-19.80222zm-25.73138-6.1786zm91.25908 39.73876v7.1572c-.13432 6.42805-1.938 10.86052-5.43026 13.27824-3.47306 2.4369-7.29151 3.64576-11.41698 3.64576-2.6096 0-4.83542-.72916-6.6583-2.18746-1.82288-1.4583-2.72473-3.83764-2.72473-7.11882 0-3.68414 1.4775-6.40886 4.45167-8.17418 1.74612-1.03616 4.66273-1.89963 8.69225-2.62878l4.31734-.8059c2.16827-.40295 3.85683-.84428 5.10407-1.3048 1.22804-.4797 2.45609-1.09373 3.66494-1.86126zm-11.66642-8.98007l-6.54318.8059c-7.40664.95941-13.02879 2.53284-16.86643 4.73949-6.96531 4.0487-10.45757 10.59188-10.45757 19.62953 0 6.96531 2.18746 12.3572 6.524 16.15646 4.33652 3.79926 9.82435 5.6989 16.48266 5.6989 5.21919 0 9.9011-1.18967 14.04576-3.5882 3.45387-2.01476 6.5048-4.47085 9.17196-7.34908.13431 1.66937.307 3.14687.53727 4.45166.21107 1.3048.6332 2.70554 1.20885 4.18303h20.91514v-2.83985c-1.26642-.57565-2.20664-1.32399-2.83985-2.22583-.63321-.88266-.99779-2.59041-1.1513-5.12325-.07675-3.31956-.13431-6.15942-.13431-8.50038v-33.71366c0-8.86495-3.10849-14.89005-9.36384-18.09448-6.25536-3.18524-13.41255-4.77786-21.45241-4.77786-12.37639 0-21.08783 3.22362-26.1727 9.70923-3.20443 4.14465-4.98894 9.4214-5.41108 15.84945h18.555c.4605-2.83985 1.36235-5.08487 2.70553-6.73505 1.88044-2.26421 5.10406-3.37713 9.65166-3.37713 4.04871 0 7.11882.57565 9.21034 1.70775 2.09151 1.1513 3.12767 3.2428 3.12767 6.25536 0 2.47527-1.36236 4.27896-4.10627 5.44945-1.53506.69077-4.08709 1.24723-7.6369 1.68856zm1.01697-30.75869zm92.27605 1.9572l-15.63838 54.24504-15.31218-54.24504H1211.974l26.36459 73.52918h20.3203l26.4989-73.52918zm51.27088-8.769v-17.7491h-19.49522v17.7491zm-19.49522 8.769v73.52918h19.49522v-73.52918zm57.75649 73.52918v-99.43325h-19.22658v99.43325zm18.5358-99.08786v99.08786h18.90037v-23.14097l7.9631-8.2893 17.59559 31.43027h23.21772l-26.72916-45.0539 25.71218-28.1299h-23.81255l-23.94688 27.6502v-53.55426zm76.84874 0v99.08786h18.88119v-23.14097l7.9631-8.2893 17.61477 31.43027h23.19853l-26.70997-45.0539 25.693-28.1299h-23.81256l-23.94687 27.6502v-53.55426zm96.19044 25.55868h-19.70628v44.32474c0 8.40443 1.07454 14.77491 3.18524 19.09226 3.78008 7.82879 11.10997 11.74318 21.98968 11.74318 3.78008 0 7.06126-.4989 9.88192-1.49668 2.80148-.9786 5.71809-2.82067 8.73064-5.5262.99778-.86347 1.84206-1.84207 2.57121-2.97417.70997-1.11292 1.17048-1.8037 1.34318-2.01477v10.38082h18.6893v-73.52918h-19.4952v40.0074c0 4.7203-.63322 8.51956-1.89964 11.39779-2.41771 5.31513-6.92694 7.9631-13.4893 7.9631-5.12325 0-8.55794-1.86126-10.32325-5.60296-.9786-2.1107-1.4775-5.25756-1.4775-9.44059zm13.48931-1.9572zm74.60372 1.1513c-3.54982-8.27012-8.73063-17.17344-15.58082-26.70998h-14.50628l4.12547 7.54096c5.66052 10.4 9.5941 21.27972 11.80074 32.65832 1.43911 7.4642 2.16827 15.6 2.16827 24.42658 0 13.75794-2.01476 26.42215-6.00591 37.97345-2.34096 6.831-6.48561 15.6-12.41477 26.30702h14.23765l4.77786-6.54318c3.10849-3.95277 6.40886-9.84355 9.9203-17.67233 6.25535-13.9882 9.38303-27.74614 9.38303-41.293 0-12.31883-2.62878-24.54172-7.90554-36.68785z"/></svg>