<svg xmlns="http://www.w3.org/2000/svg" width="173.344" height="80.602" viewBox="0 0 173.344 80.602"><g transform="translate(-290.15 -2398.844)"><path d="M315.176,2398.844c-9.316,0-17.768,6.175-17.768,18.309v16.467H290.15v6.391h7.258v38.46h7.584v-38.46h11.483v-6.391H304.992v-16.359c0-8.126,4.225-11.593,10.183-11.593s9.967,3.467,9.967,11.593v61.21h7.584v-61.752C332.727,2404.37,324.384,2398.844,315.176,2398.844Z" fill="#fff"/><path d="M408.715,2462.513c-8.559,0-14.409,3.358-18.309,8.667l4.658,4.225a15.313,15.313,0,0,1,13.109-6.5c6.608,0,10.509,3.358,10.509,12.026v1.083H404.706c-9.425,0-17.009,4.333-17.009,13.543,0,9.316,6.933,13.65,16.467,13.65,7.15,0,11.81-3.034,14.842-7.583l-.324,6.717h7.583v-27.518C426.265,2468.363,418.682,2462.513,408.715,2462.513Zm9.967,30.876c0,5.85-5.851,9.642-12.785,9.642-7.042,0-10.833-2.709-10.833-7.8,0-5.417,4.442-7.475,10.183-7.475h13.435Z" transform="translate(-45.761 -29.868)" fill="#fff"/><path d="M496.672,2462.513c-8.559,0-14.409,3.358-18.309,8.667l4.659,4.225a15.313,15.313,0,0,1,13.109-6.5c6.608,0,10.509,3.358,10.509,12.026v1.083H492.663c-9.425,0-17.009,4.333-17.009,13.543,0,9.316,6.933,13.65,16.467,13.65,7.15,0,11.809-3.034,14.842-7.583l-.324,6.717h7.583v-27.518C514.222,2468.363,506.639,2462.513,496.672,2462.513Zm9.967,30.876c0,5.85-5.851,9.642-12.785,9.642-7.041,0-10.833-2.709-10.833-7.8,0-5.417,4.442-7.475,10.184-7.475h13.434Z" transform="translate(-87.023 -29.868)" fill="#fff"/><path d="M586.131,2480.29a8.17,8.17,0,0,1-6.067,2.6c-3.25,0-5.309-1.841-5.309-7.8v-25.027h12.568v-6.391H574.756v-23.4h-7.475v23.4h-6.934v6.391h6.934v24.918c0,10.617,5.2,14.517,12.025,14.517a14.565,14.565,0,0,0,10.942-4.442Z" transform="translate(-126.754 -10.052)" fill="#fff"/></g></svg>