<svg id="Layer_1" data-name="Layer 1" xmlns="http://www.w3.org/2000/svg" viewBox="0 0 173.34399 80.602"><defs><style>.cls-1{fill:#3349db;}</style></defs><path class="cls-1" d="M25.026,0C15.71,0,7.258,6.17505,7.258,18.30908v16.467H0v6.39112H7.258v38.46h7.584v-38.46H26.325V34.77612H14.842V18.41724c0-8.126,4.225-11.593,10.183-11.593s9.967,3.467,9.967,11.593v61.21h7.584v-61.752C42.577,5.52612,34.234,0,25.026,0Z"/><path class="cls-1" d="M72.804,33.801c-8.559,0-14.409,3.35791-18.309,8.667l4.658,4.2251a15.31271,15.31271,0,0,1,13.109-6.5c6.608,0,10.509,3.35791,10.509,12.02587v1.083H68.795c-9.425,0-17.009,4.333-17.009,13.543,0,9.31592,6.933,13.6499,16.467,13.6499,7.15,0,11.81-3.03393,14.842-7.583l-.324,6.717h7.583V52.11076C90.354,39.651,82.771,33.801,72.804,33.801Zm9.967,30.876c0,5.8501-5.851,9.64209-12.785,9.64209-7.042,0-10.833-2.709-10.833-7.8,0-5.417,4.442-7.47509,10.183-7.47509H82.771Z"/><path class="cls-1" d="M119.499,33.801c-8.559,0-14.409,3.35791-18.309,8.667l4.659,4.2251a15.31271,15.31271,0,0,1,13.109-6.5c6.608,0,10.509,3.35791,10.509,12.02587v1.083H115.49c-9.425,0-17.009,4.333-17.009,13.543,0,9.31592,6.933,13.6499,16.467,13.6499,7.15,0,11.809-3.03393,14.842-7.583l-.324,6.717h7.583V52.11076C137.049,39.651,129.466,33.801,119.499,33.801Zm9.967,30.876c0,5.8501-5.851,9.64209-12.785,9.64209-7.041,0-10.833-2.709-10.833-7.8,0-5.417,4.442-7.47509,10.184-7.47509h13.434Z"/><path class="cls-1" d="M169.227,71.394a8.17022,8.17022,0,0,1-6.067,2.6001c-3.25,0-5.309-1.84106-5.309-7.8V41.167h12.568V34.77588H157.852V11.376h-7.475v23.3999h-6.934V41.167h6.934V66.085c0,10.617,5.2,14.51709,12.025,14.51709a14.56518,14.56518,0,0,0,10.942-4.44189Z"/></svg>