<svg id="Layer_1" data-name="Layer 1" xmlns="http://www.w3.org/2000/svg" xmlns:xlink="http://www.w3.org/1999/xlink" viewBox="0 0 756 913.92699"><defs><style>.cls-1{fill:none;}.cls-2{clip-path:url(#clip-path);}.cls-3{clip-path:url(#clip-path-2);}.cls-4{fill:#b6d4ee;}.cls-5{fill:#b7d4ed;}.cls-6{fill:#b7d5ec;}.cls-7{fill:#b8d5eb;}.cls-8{fill:#b9d6ea;}.cls-9{fill:#bad6e9;}.cls-10{fill:#bad7e8;}.cls-11{fill:#bbd7e7;}.cls-12{fill:#bcd8e6;}.cls-13{fill:#bcd8e5;}.cls-14{fill:#bdd9e4;}.cls-15{fill:#bed9e3;}.cls-16{fill:#bed9e2;}.cls-17{fill:#bfdae1;}.cls-18{fill:#c0dae0;}.cls-19{fill:#c1dbdf;}.cls-20{fill:#c1dbde;}.cls-21{fill:#c2dcdd;}.cls-22{fill:#c3dcdc;}.cls-23{fill:#c3dddb;}.cls-24{fill:#c4ddda;}.cls-25{fill:#c5ded9;}.cls-26{fill:#c6ded8;}.cls-27{fill:#c6ded6;}.cls-28{fill:#c7dfd5;}.cls-29{fill:#c8dfd4;}.cls-30{fill:#c8e0d3;}.cls-31{fill:#c9e0d2;}.cls-32{fill:#cae1d1;}.cls-33{fill:#cae1d0;}.cls-34{fill:#cbe2cf;}.cls-35{fill:#cce2ce;}.cls-36{fill:#cde3cd;}.cls-37{fill:#cde3cc;}.cls-38{fill:#cee3cb;}.cls-39{fill:#cfe4ca;}.cls-40{fill:#cfe4c9;}.cls-41{fill:#d0e5c8;}.cls-42{fill:#d1e5c7;}.cls-43{fill:#d1e6c6;}.cls-44{fill:#d2e6c5;}.cls-45{fill:#d3e7c4;}.cls-46{fill:#d4e7c3;}.cls-47{fill:#d4e8c2;}.cls-48{fill:#d5e8c1;}.cls-49{fill:#d6e8c1;}.cls-50{fill:#d7e9c1;}.cls-51{fill:#d8e9c2;}.cls-52{fill:#d9eac2;}.cls-53{fill:#daeac2;}.cls-54{fill:#dbebc2;}.cls-55{fill:#dcebc3;}.cls-56{fill:#ddecc3;}.cls-57{fill:#deecc3;}.cls-58{fill:#dfecc3;}.cls-59{fill:#e0edc3;}.cls-60{fill:#e1edc4;}.cls-61{fill:#e2eec4;}.cls-62{fill:#e3eec4;}.cls-63{fill:#e4efc4;}.cls-64{fill:#e5efc5;}.cls-65{fill:#e6efc5;}.cls-66{fill:#e7f0c5;}.cls-67{fill:#e8f0c5;}.cls-68{fill:#e9f1c5;}.cls-69{fill:#ebf1c6;}.cls-70{fill:#ecf2c6;}.cls-71{fill:#edf2c6;}.cls-72{fill:#eef3c6;}.cls-73{fill:#eff3c6;}.cls-74{fill:#f0f3c7;}.cls-75{fill:#f1f4c7;}.cls-76{fill:#f2f4c7;}.cls-77{fill:#f3f5c7;}.cls-78{fill:#f4f5c8;}.cls-79{fill:#f5f6c8;}.cls-80{fill:#f6f6c8;}.cls-81{fill:#f7f6c8;}.cls-82{fill:#f8f7c8;}.cls-83{fill:#f9f7c9;}.cls-84{fill:#faf8c9;}.cls-85{fill:#fbf8c9;}.cls-86{fill:#fcf9c9;}.cls-87{fill:#fdf9ca;}.cls-88{fill:#fefaca;}.cls-89{fill:#fffaca;}.cls-90{fill:#fff9ca;}.cls-91{fill:#fff8cb;}.cls-92{fill:#fff7cb;}.cls-93{fill:#fff6cc;}.cls-94{fill:#fff5cc;}.cls-95{fill:#fff4cd;}.cls-96{fill:#fef3cd;}.cls-97{fill:#fef2cd;}.cls-98{fill:#fef1ce;}.cls-99{fill:#fef0ce;}.cls-100{fill:#feefcf;}.cls-101{fill:#feeecf;}.cls-102{fill:#feeccf;}.cls-103{fill:#feebd0;}.cls-104{fill:#feead0;}.cls-105{fill:#fee9d1;}.cls-106{fill:#fee8d1;}.cls-107{fill:#fee7d2;}.cls-108{fill:#fde6d2;}.cls-109{fill:#fde5d2;}.cls-110{fill:#fde4d3;}.cls-111{fill:#fde3d3;}.cls-112{fill:#fde2d4;}.cls-113{fill:#fde1d4;}.cls-114{fill:#fde0d4;}.cls-115{fill:#fddfd5;}.cls-116{fill:#fcded5;}.cls-117{fill:#fcddd6;}.cls-118{fill:#fcdcd6;}.cls-119{fill:#fcdbd6;}.cls-120{fill:#fcdad7;}.cls-121{fill:#fcd9d7;}.cls-122{fill:#fbd8d8;}.cls-123{fill:#fbd7d8;}.cls-124{fill:#fbd6d8;}.cls-125{fill:#fbd4d9;}.cls-126{fill:#fbd3d9;}.cls-127{fill:#fbd2d9;}.cls-128{fill:#fad1da;}.cls-129{fill:#fad0da;}.cls-130{fill:#facfdb;}.cls-131{fill:#facedb;}.cls-132{fill:#facddb;}.cls-133{fill:#faccdc;}.cls-134{fill:#f9cbdc;}.cls-135{fill:#f9cadd;}.cls-136{fill:#f9c9dd;}.cls-137{fill:#e82828;fill-rule:evenodd;}.cls-138{opacity:0.2;}.cls-139{fill:#111;}.cls-140{fill:#fff;}</style><clipPath id="clip-path"><rect class="cls-1" x="1.8" y="1.8" width="752.40001" height="752.40001" rx="36"/></clipPath><clipPath id="clip-path-2"><rect class="cls-1" width="757.5" height="757.5"/></clipPath></defs><g class="cls-2"><g class="cls-3"><path class="cls-4" d="M757.5,8.51093,748.98907,0Z"/><polygon class="cls-5" points="757.5 17.022 740.478 0 748.989 0 757.5 8.511 757.5 17.022"/><polygon class="cls-6" points="757.5 25.533 731.967 0 740.478 0 757.5 17.022 757.5 25.533"/><polygon class="cls-7" points="757.5 34.044 723.456 0 731.967 0 757.5 25.533 757.5 34.044"/><polygon class="cls-8" points="757.5 42.555 714.945 0 723.456 0 757.5 34.044 757.5 42.555"/><polygon class="cls-9" points="757.5 51.066 706.434 0 714.945 0 757.5 42.555 757.5 51.066"/><polygon class="cls-10" points="757.5 59.577 697.923 0 706.434 0 757.5 51.066 757.5 59.577"/><polygon class="cls-11" points="757.5 68.087 689.413 0 697.923 0 757.5 59.577 757.5 68.087"/><polygon class="cls-12" points="757.5 76.598 680.902 0 689.413 0 757.5 68.087 757.5 76.598"/><polygon class="cls-13" points="757.5 85.109 672.391 0 680.902 0 757.5 76.598 757.5 85.109"/><polygon class="cls-14" points="757.5 93.62 663.88 0 672.391 0 757.5 85.109 757.5 93.62"/><polygon class="cls-15" points="757.5 102.131 655.369 0 663.88 0 757.5 93.62 757.5 102.131"/><polygon class="cls-16" points="757.5 110.642 646.858 0 655.369 0 757.5 102.131 757.5 110.642"/><polygon class="cls-17" points="757.5 119.153 638.347 0 646.858 0 757.5 110.642 757.5 119.153"/><polygon class="cls-18" points="757.5 127.664 629.836 0 638.347 0 757.5 119.153 757.5 127.664"/><polygon class="cls-19" points="757.5 136.175 621.325 0 629.836 0 757.5 127.664 757.5 136.175"/><polygon class="cls-20" points="757.5 144.686 612.814 0 621.325 0 757.5 136.175 757.5 144.686"/><polygon class="cls-21" points="757.5 153.197 604.303 0 612.814 0 757.5 144.686 757.5 153.197"/><polygon class="cls-22" points="757.5 161.708 595.792 0 604.303 0 757.5 153.197 757.5 161.708"/><polygon class="cls-23" points="757.5 170.219 587.281 0 595.792 0 757.5 161.708 757.5 170.219"/><polygon class="cls-24" points="757.5 178.73 578.77 0 587.281 0 757.5 170.219 757.5 178.73"/><polygon class="cls-25" points="757.5 187.241 570.259 0 578.77 0 757.5 178.73 757.5 187.241"/><polygon class="cls-26" points="757.5 195.751 561.749 0 570.259 0 757.5 187.241 757.5 195.751"/><polygon class="cls-27" points="757.5 204.262 553.238 0 561.749 0 757.5 195.751 757.5 204.262"/><polygon class="cls-28" points="757.5 212.773 544.727 0 553.238 0 757.5 204.262 757.5 212.773"/><polygon class="cls-29" points="757.5 221.284 536.216 0 544.727 0 757.5 212.773 757.5 221.284"/><polygon class="cls-30" points="757.5 229.795 527.705 0 536.216 0 757.5 221.284 757.5 229.795"/><polygon class="cls-31" points="757.5 238.306 519.194 0 527.705 0 757.5 229.795 757.5 238.306"/><polygon class="cls-32" points="757.5 246.817 510.683 0 519.194 0 757.5 238.306 757.5 246.817"/><polygon class="cls-33" points="757.5 255.328 502.172 0 510.683 0 757.5 246.817 757.5 255.328"/><polygon class="cls-34" points="757.5 263.839 493.661 0 502.172 0 757.5 255.328 757.5 263.839"/><polygon class="cls-35" points="757.5 272.35 485.15 0 493.661 0 757.5 263.839 757.5 272.35"/><polygon class="cls-36" points="757.5 280.861 476.639 0 485.15 0 757.5 272.35 757.5 280.861"/><polygon class="cls-37" points="757.5 289.372 468.128 0 476.639 0 757.5 280.861 757.5 289.372"/><polygon class="cls-38" points="757.5 297.883 459.617 0 468.128 0 757.5 289.372 757.5 297.883"/><polygon class="cls-39" points="757.5 306.394 451.106 0 459.617 0 757.5 297.883 757.5 306.394"/><polygon class="cls-40" points="757.5 314.905 442.595 0 451.106 0 757.5 306.394 757.5 314.905"/><polygon class="cls-41" points="757.5 323.415 434.085 0 442.595 0 757.5 314.905 757.5 323.415"/><polygon class="cls-42" points="757.5 331.926 425.574 0 434.085 0 757.5 323.415 757.5 331.926"/><polygon class="cls-43" points="757.5 340.437 417.063 0 425.574 0 757.5 331.926 757.5 340.437"/><polygon class="cls-44" points="757.5 348.948 408.552 0 417.063 0 757.5 340.437 757.5 348.948"/><polygon class="cls-45" points="757.5 357.459 400.041 0 408.552 0 757.5 348.948 757.5 357.459"/><polygon class="cls-46" points="757.5 365.97 391.53 0 400.041 0 757.5 357.459 757.5 365.97"/><polygon class="cls-47" points="757.5 374.481 383.019 0 391.53 0 757.5 365.97 757.5 374.481"/><polygon class="cls-48" points="757.5 382.992 374.508 0 383.019 0 757.5 374.481 757.5 382.992"/><polygon class="cls-48" points="757.5 391.909 365.591 0 374.508 0 757.5 382.992 757.5 391.909"/><polygon class="cls-49" points="757.5 400.826 356.674 0 365.591 0 757.5 391.909 757.5 400.826"/><polygon class="cls-50" points="757.5 409.743 347.757 0 356.674 0 757.5 400.826 757.5 409.743"/><polygon class="cls-51" points="757.5 418.659 338.841 0 347.757 0 757.5 409.743 757.5 418.659"/><polygon class="cls-52" points="757.5 427.576 329.924 0 338.841 0 757.5 418.659 757.5 427.576"/><polygon class="cls-53" points="757.5 436.493 321.007 0 329.924 0 757.5 427.576 757.5 436.493"/><polygon class="cls-54" points="757.5 445.41 312.09 0 321.007 0 757.5 436.493 757.5 445.41"/><polygon class="cls-55" points="757.5 454.327 303.173 0 312.09 0 757.5 445.41 757.5 454.327"/><polygon class="cls-56" points="757.5 463.244 294.256 0 303.173 0 757.5 454.327 757.5 463.244"/><polygon class="cls-57" points="757.5 472.161 285.339 0 294.256 0 757.5 463.244 757.5 472.161"/><polygon class="cls-58" points="757.5 481.077 276.423 0 285.339 0 757.5 472.161 757.5 481.077"/><polygon class="cls-59" points="757.5 489.994 267.506 0 276.423 0 757.5 481.077 757.5 489.994"/><polygon class="cls-60" points="757.5 498.911 258.589 0 267.506 0 757.5 489.994 757.5 498.911"/><polygon class="cls-61" points="757.5 507.828 249.672 0 258.589 0 757.5 498.911 757.5 507.828"/><polygon class="cls-62" points="757.5 516.745 240.755 0 249.672 0 757.5 507.828 757.5 516.745"/><polygon class="cls-63" points="757.5 525.662 231.838 0 240.755 0 757.5 516.745 757.5 525.662"/><polygon class="cls-64" points="757.5 534.579 222.921 0 231.838 0 757.5 525.662 757.5 534.579"/><polygon class="cls-65" points="757.5 543.495 214.005 0 222.921 0 757.5 534.579 757.5 543.495"/><polygon class="cls-66" points="757.5 552.412 205.088 0 214.005 0 757.5 543.495 757.5 552.412"/><polygon class="cls-67" points="757.5 561.329 196.171 0 205.088 0 757.5 552.412 757.5 561.329"/><polygon class="cls-68" points="757.5 570.246 187.254 0 196.171 0 757.5 561.329 757.5 570.246"/><polygon class="cls-69" points="757.5 579.163 178.337 0 187.254 0 757.5 570.246 757.5 579.163"/><polygon class="cls-70" points="757.5 588.08 169.42 0 178.337 0 757.5 579.163 757.5 588.08"/><polygon class="cls-71" points="757.5 596.997 160.503 0 169.42 0 757.5 588.08 757.5 596.997"/><polygon class="cls-72" points="757.5 605.913 151.587 0 160.503 0 757.5 596.997 757.5 605.913"/><polygon class="cls-73" points="757.5 614.83 142.67 0 151.587 0 757.5 605.913 757.5 614.83"/><polygon class="cls-74" points="757.5 623.747 133.753 0 142.67 0 757.5 614.83 757.5 623.747"/><polygon class="cls-75" points="757.5 632.664 124.836 0 133.753 0 757.5 623.747 757.5 632.664"/><polygon class="cls-76" points="757.5 641.581 115.919 0 124.836 0 757.5 632.664 757.5 641.581"/><polygon class="cls-77" points="757.5 650.498 107.002 0 115.919 0 757.5 641.581 757.5 650.498"/><polygon class="cls-78" points="757.5 659.415 98.085 0 107.002 0 757.5 650.498 757.5 659.415"/><polygon class="cls-79" points="757.5 668.331 89.169 0 98.085 0 757.5 659.415 757.5 668.331"/><polygon class="cls-80" points="757.5 677.248 80.252 0 89.169 0 757.5 668.331 757.5 677.248"/><polygon class="cls-81" points="757.5 686.165 71.335 0 80.252 0 757.5 677.248 757.5 686.165"/><polygon class="cls-82" points="757.5 695.082 62.418 0 71.335 0 757.5 686.165 757.5 695.082"/><polygon class="cls-83" points="757.5 703.999 53.501 0 62.418 0 757.5 695.082 757.5 703.999"/><polygon class="cls-84" points="757.5 712.916 44.584 0 53.501 0 757.5 703.999 757.5 712.916"/><polygon class="cls-85" points="757.5 721.833 35.667 0 44.584 0 757.5 712.916 757.5 721.833"/><polygon class="cls-86" points="757.5 730.749 26.751 0 35.667 0 757.5 721.833 757.5 730.749"/><polygon class="cls-87" points="757.5 739.666 17.834 0 26.751 0 757.5 730.749 757.5 739.666"/><polygon class="cls-88" points="757.5 748.583 8.917 0 17.834 0 757.5 739.666 757.5 748.583"/><polygon class="cls-89" points="757.5 757.5 0 0 8.917 0 757.5 748.583 757.5 757.5"/><polygon class="cls-89" points="741.841 757.5 0 15.659 0 0 757.5 757.5 741.841 757.5"/><polygon class="cls-90" points="726.182 757.5 0 31.318 0 15.659 741.841 757.5 726.182 757.5"/><polygon class="cls-91" points="710.523 757.5 0 46.977 0 31.318 726.182 757.5 710.523 757.5"/><polygon class="cls-92" points="694.864 757.5 0 62.636 0 46.977 710.523 757.5 694.864 757.5"/><polygon class="cls-93" points="679.205 757.5 0 78.295 0 62.636 694.864 757.5 679.205 757.5"/><polygon class="cls-94" points="663.546 757.5 0 93.954 0 78.295 679.205 757.5 663.546 757.5"/><polygon class="cls-95" points="647.887 757.5 0 109.613 0 93.954 663.546 757.5 647.887 757.5"/><polygon class="cls-96" points="632.228 757.5 0 125.272 0 109.613 647.887 757.5 632.228 757.5"/><polygon class="cls-97" points="616.569 757.5 0 140.931 0 125.272 632.228 757.5 616.569 757.5"/><polygon class="cls-98" points="600.91 757.5 0 156.59 0 140.931 616.569 757.5 600.91 757.5"/><polygon class="cls-99" points="585.251 757.5 0 172.249 0 156.59 600.91 757.5 585.251 757.5"/><polygon class="cls-100" points="569.591 757.5 0 187.909 0 172.249 585.251 757.5 569.591 757.5"/><polygon class="cls-101" points="553.932 757.5 0 203.568 0 187.909 569.591 757.5 553.932 757.5"/><polygon class="cls-102" points="538.273 757.5 0 219.227 0 203.568 553.932 757.5 538.273 757.5"/><polygon class="cls-103" points="522.614 757.5 0 234.886 0 219.227 538.273 757.5 522.614 757.5"/><polygon class="cls-104" points="506.955 757.5 0 250.545 0 234.886 522.614 757.5 506.955 757.5"/><polygon class="cls-105" points="491.296 757.5 0 266.204 0 250.545 506.955 757.5 491.296 757.5"/><polygon class="cls-106" points="475.637 757.5 0 281.863 0 266.204 491.296 757.5 475.637 757.5"/><polygon class="cls-107" points="459.978 757.5 0 297.522 0 281.863 475.637 757.5 459.978 757.5"/><polygon class="cls-108" points="444.319 757.5 0 313.181 0 297.522 459.978 757.5 444.319 757.5"/><polygon class="cls-109" points="428.66 757.5 0 328.84 0 313.181 444.319 757.5 428.66 757.5"/><polygon class="cls-110" points="413.001 757.5 0 344.499 0 328.84 428.66 757.5 413.001 757.5"/><polygon class="cls-111" points="397.342 757.5 0 360.158 0 344.499 413.001 757.5 397.342 757.5"/><polygon class="cls-112" points="381.683 757.5 0 375.817 0 360.158 397.342 757.5 381.683 757.5"/><polygon class="cls-113" points="366.024 757.5 0 391.476 0 375.817 381.683 757.5 366.024 757.5"/><polygon class="cls-113" points="351.48 757.5 0 406.02 0 391.476 366.024 757.5 351.48 757.5"/><polygon class="cls-114" points="336.936 757.5 0 420.564 0 406.02 351.48 757.5 336.936 757.5"/><polygon class="cls-115" points="322.392 757.5 0 435.108 0 420.564 336.936 757.5 322.392 757.5"/><polygon class="cls-116" points="307.848 757.5 0 449.652 0 435.108 322.392 757.5 307.848 757.5"/><polygon class="cls-117" points="293.304 757.5 0 464.196 0 449.652 307.848 757.5 293.304 757.5"/><polygon class="cls-118" points="278.76 757.5 0 478.74 0 464.196 293.304 757.5 278.76 757.5"/><polygon class="cls-119" points="264.216 757.5 0 493.284 0 478.74 278.76 757.5 264.216 757.5"/><polygon class="cls-120" points="249.672 757.5 0 507.828 0 493.284 264.216 757.5 249.672 757.5"/><polygon class="cls-121" points="235.128 757.5 0 522.372 0 507.828 249.672 757.5 235.128 757.5"/><polygon class="cls-122" points="220.584 757.5 0 536.916 0 522.372 235.128 757.5 220.584 757.5"/><polygon class="cls-123" points="206.04 757.5 0 551.46 0 536.916 220.584 757.5 206.04 757.5"/><polygon class="cls-124" points="191.496 757.5 0 566.004 0 551.46 206.04 757.5 191.496 757.5"/><polygon class="cls-125" points="176.952 757.5 0 580.548 0 566.004 191.496 757.5 176.952 757.5"/><polygon class="cls-126" points="162.408 757.5 0 595.092 0 580.548 176.952 757.5 162.408 757.5"/><polygon class="cls-127" points="147.864 757.5 0 609.636 0 595.092 162.408 757.5 147.864 757.5"/><polygon class="cls-128" points="133.32 757.5 0 624.18 0 609.636 147.864 757.5 133.32 757.5"/><polygon class="cls-129" points="118.776 757.5 0 638.724 0 624.18 133.32 757.5 118.776 757.5"/><polygon class="cls-130" points="104.232 757.5 0 653.268 0 638.724 118.776 757.5 104.232 757.5"/><polygon class="cls-131" points="89.688 757.5 0 667.812 0 653.268 104.232 757.5 89.688 757.5"/><polygon class="cls-132" points="75.144 757.5 0 682.356 0 667.812 89.688 757.5 75.144 757.5"/><polygon class="cls-133" points="60.6 757.5 0 696.9 0 682.356 75.144 757.5 60.6 757.5"/><polygon class="cls-134" points="46.056 757.5 0 711.444 0 696.9 60.6 757.5 46.056 757.5"/><polygon class="cls-135" points="31.512 757.5 0 725.988 0 711.444 46.056 757.5 31.512 757.5"/><polygon class="cls-136" points="16.968 757.5 0 740.532 0 725.988 31.512 757.5 16.968 757.5"/><polygon class="cls-136" points="0 740.532 16.968 757.5 0 757.5 0 740.532"/></g><path class="cls-137" d="M167.5,597.4c-4.8,8.7.5,16.3-5.9,22.7-7.6,7.5-18.3.1-22.8-4.6-4.7-4.8-11.8-15.8-4-23.5,6-6,13.5-.5,22.2-5.1a158.46253,158.46253,0,0,1-24.1-34.9c-18.3,6.4-35.4,12.3-39.9,14.2-19.1,8.1-12.8,23.8-25.8,29.2-13.1,5.5-22.7-9-25.8-17-3.4-8.3-6.7-25.2,6.8-30.8,12.3-5,19.2,10.5,38.2,2.7,6.7-2.9,22.1-10.2,38.2-18a159.11892,159.11892,0,0,1-8.6-43.7c-8.5,3.3-10.2,11.7-18.8,11.8-10.6,0-13.3-12.8-13.2-19.3.1-6.7,2.6-19.6,13.5-19.6,8.1-.1,9.9,8.4,18.4,11.5a158.77679,158.77679,0,0,1,8-43.2c-17.8-8.6-34.5-16.6-38.9-18.5-19.2-7.8-25.8,7.8-39,2.4s-9.7-22.4-6.3-30.3c3.5-8.2,13.2-22.6,26.7-17,12.3,5,6.2,21,25.2,28.9,6.8,2.8,23.4,8.6,40.6,14.6a154.07309,154.07309,0,0,1,25.7-37.5c-8.4-3.9-15.5.8-21.6-5.4-7.6-7.6-.3-18.4,4.5-22.9,4.8-4.7,15.7-11.8,23.4-3.9,5.7,5.8.9,12.9,4.8,21.3a159.37432,159.37432,0,0,1,35.6-24.1c-6.5-18.5-12.5-35.9-14.3-40.4-8.1-19.1-23.8-12.8-29.2-25.8-5.4-13.1,9.1-22.7,17-25.8,8.4-3.4,25.3-6.6,30.9,6.8,5,12.3-10.5,19.2-2.7,38.2,2.9,6.8,10.4,22.5,18.2,38.9a163.83985,163.83985,0,0,1,42.8-8.1c-3-9.2-11.8-10.7-11.9-19.7-.1-10.7,12.7-13.3,19.1-13.3,6.6.1,19.4,2.6,19.5,13.6.1,8.4-8.8,10.1-11.8,19.4a160.9782,160.9782,0,0,1,44.7,8.5c8.6-17.9,16.8-34.8,18.6-39.3,7.8-19.2-7.8-25.8-2.4-38.9s22.4-9.7,30.3-6.3c8.2,3.5,22.6,13.2,17,26.7-5,12.4-21,6.2-28.9,25.2-2.9,6.9-8.8,23.8-14.9,41.1a157.69869,157.69869,0,0,1,35.9,24.9c4.7-8.7-.6-16.2,5.8-22.5,7.6-7.5,18.3-.1,22.8,4.6,4.7,4.8,11.8,15.8,4,23.5-6,6-13.4.7-22.1,5.1a158.41148,158.41148,0,0,1,25,37c19.1-6.6,37.3-12.9,42-14.9,19.1-8.1,12.8-23.8,25.8-29.2,13.1-5.5,22.7,9,25.8,17,3.4,8.3,6.6,25.2-6.8,30.8-12.3,5-19.2-10.5-38.2-2.7-7,2.9-23.7,10.8-40.5,19.1a155.98285,155.98285,0,0,1,7.6,40.7c9.9-2.9,11.2-12.2,20.3-12.3,10.6-.1,13.3,12.8,13.2,19.2-.1,6.7-2.6,19.6-13.5,19.6-8.6.1-10.2-9.3-19.9-12a156.00254,156.00254,0,0,1-8.4,45.5c18.5,9,36.4,17.6,41,19.6,19.2,7.8,25.8-7.8,38.9-2.4s9.7,22.4,6.3,30.3c-3.5,8.2-13.2,22.6-26.7,17-12.4-5-6.2-21-25.2-28.9-7.1-2.8-24.9-9.1-43-15.4a161.15177,161.15177,0,0,1-25.6,36.7c9.1,5.4,16.8-.3,23.3,6.3,7.6,7.6.3,18.4-4.5,22.9-4.8,4.7-15.7,11.8-23.4,3.9-6.1-6.2-.3-14-5.6-23.1a154.70961,154.70961,0,0,1-35.2,24.1c6.7,19.6,13.3,38.5,15.4,43.1,8.1,19.1,23.8,12.8,29.2,25.8,5.4,13.1-9.1,22.7-17,25.8-8.4,3.4-25.3,6.6-30.9-6.8-5-12.3,10.5-19.2,2.7-38.2-2.9-7.1-11.2-24.3-19.6-41.5a157.96425,157.96425,0,0,1-41.9,8.1c2.9,10.1,12.2,11.4,12.3,20.6.1,10.7-12.7,13.3-19.1,13.3-6.6-.1-19.4-2.6-19.5-13.6-.1-8.6,9.2-10.2,11.9-20.1a160.60112,160.60112,0,0,1-44.1-7.8c-8.9,18.4-17.5,36.1-19.4,40.8-7.8,19.2,7.8,25.8,2.4,39-5.4,13.1-22.4,9.7-30.3,6.3-8.2-3.5-22.6-13.2-17-26.7,5-12.3,21-6.2,28.9-25.2,2.9-7,9.1-24.5,15.3-42.4A167.55122,167.55122,0,0,1,167.5,597.4Z"/><g class="cls-138"><g id="circle833"><circle cx="221.64974" cy="558.99479" r="17.503"/></g><g id="circle835"><circle cx="276.0269" cy="481.17147" r="47.02978"/></g><g id="circle837"><circle cx="241.31248" cy="387.3469" r="16.73802"/></g><g id="circle839"><circle cx="365.23261" cy="516.0423" r="14.00586"/></g><g id="circle8391"><circle cx="185.3501" cy="467.52715" r="13.69581"/></g><g id="circle841"><circle cx="297.35035" cy="585.12153" r="7.61"/></g><g id="circle8411"><circle cx="359.42381" cy="569.65469" r="5.65184"/></g><g id="circle8412"><circle cx="182.44068" cy="402.48353" r="7.61"/></g><g id="circle8413"><circle cx="159.28566" cy="518.69843" r="7.61"/></g><g id="circle843"><circle cx="359.03382" cy="423.49923" r="10.24124"/></g><g id="circle845"><circle cx="311.73088" cy="366.26814" r="10.14422"/></g></g><path class="cls-139" d="M652.2,222.9a97.74127,97.74127,0,0,0,6.6-35.1,99.43407,99.43407,0,0,0-6.7-35.4l-35.2,35.2C616.7,187.5,652.2,222.9,652.2,222.9Zm67.3-34a151.43643,151.43643,0,0,0-23.4-80.8l-18.2,18.2a132.348,132.348,0,0,1,0,122.4l19.2,19.2A149.22358,149.22358,0,0,0,719.5,188.9Zm-145.7-1.3L639,122.3,552.3,35.6H537V150.9L467.3,81.2l-21.5,21.5,84.9,84.9-84.8,84.9L467.4,294l69.7-69.7V339.6h15.2l86.7-86.7C639.1,253,573.8,187.6,573.8,187.6Zm-6.3,36.8,28.6,28.5-28.6,28.6Zm0-73.4V93.9l28.6,28.5Z"/><rect class="cls-140" x="283.32357" y="84.08349" width="188.0982" height="591.09426" transform="translate(-157.90949 378.034) rotate(-45)"/><path class="cls-139" d="M519.85352,666.542l-5.7129-5.71191L90.46191,237.1499,234.89209,92.71973,664.2832,522.11133ZM113.31152,237.1499l406.542,406.54248,121.58007-121.581-406.5415-406.542Z"/><circle class="cls-140" cx="196.8" cy="237.10001" r="19"/><path class="cls-139" d="M196.7998,264.17871a27.07862,27.07862,0,1,1,27.07862-27.07861A27.10934,27.10934,0,0,1,196.7998,264.17871Zm0-38a10.92139,10.92139,0,1,0,10.92139,10.92139A10.93388,10.93388,0,0,0,196.7998,226.17871Z"/><rect class="cls-139" x="366.91578" y="333.52128" width="96.7678" height="16.15763" transform="translate(-119.90928 393.71357) rotate(-45)"/><rect class="cls-139" x="446.85128" y="381.02109" width="69.89706" height="16.15729" transform="translate(-134.01916 454.64858) rotate(-45)"/><rect class="cls-139" x="252.91582" y="219.5212" width="96.76798" height="16.1578" transform="translate(-72.6889 279.71366) rotate(-45)"/><rect class="cls-139" x="332.85081" y="267.02128" width="69.89775" height="16.15763" transform="translate(-86.79911 340.6486) rotate(-45)"/><rect class="cls-139" x="480.91616" y="447.52105" width="96.76729" height="16.15711" transform="translate(-167.12925 507.71352) rotate(-45)"/></g><path d="M718.2002,757.7832H37.7998a39.62779,39.62779,0,0,1-39.583-39.583V37.7998a39.62779,39.62779,0,0,1,39.583-39.583H718.2002a39.62779,39.62779,0,0,1,39.583,39.583V718.2002A39.62779,39.62779,0,0,1,718.2002,757.7832ZM37.7998,5.38281a32.45343,32.45343,0,0,0-32.417,32.417V718.2002a32.45343,32.45343,0,0,0,32.417,32.417H718.2002a32.45343,32.45343,0,0,0,32.417-32.417V37.7998a32.45343,32.45343,0,0,0-32.417-32.417Z"/><path d="M61.85254,836.63086a14.6087,14.6087,0,0,0-8.65479-10.67969,21.25922,21.25922,0,0,0-8.55322-1.66992,18.58808,18.58808,0,0,0-14.8042,6.79492q-5.79639,6.79395-5.79541,20.43262,0,13.7417,6.27588,19.44824a20.62843,20.62843,0,0,0,14.273,5.708q7.845,0,12.85547-4.501a19.42322,19.42322,0,0,0,6.1748-11.7959H46.36523V847.917H77.44141v40.03516H67.1167l-1.56934-9.3125a35.71273,35.71273,0,0,1-8.09814,7.457q-6.175,3.77783-15.1836,3.77832-14.83006,0-24.29443-10.26758-9.86938-10.31835-9.86914-28.22363,0-18.10693,9.9707-29.0332,9.97047-10.92482,26.36914-10.92481,14.22218,0,22.85157,7.21192a26.82053,26.82053,0,0,1,9.895,17.99316Z"/><path d="M113.65527,813.34863H131.294l26.39453,74.60352H140.78369l-4.92285-15.33594H108.3877l-5.05762,15.33594H87.02393Zm-1.02734,46.41211h19.10645l-9.42432-29.35547Z"/><path d="M222.34619,826.55859h-39.478v15.8418h36.23877v12.957H182.86816V874.54h41.3003v13.41211H167.63379V813.34863h54.7124Z"/><path d="M236.0625,813.34863h16.34229L282.019,865.36816V813.34863h14.52588v74.60352H280.95947l-30.37109-52.9336v52.9336H236.0625Z"/><path d="M395.13867,826.55859H355.66016v15.8418h36.23828v12.957H355.66016V874.54h41.30078v13.41211H340.42578V813.34863h54.71289Z"/><path d="M402.45215,887.95215l18.82812-27.93848-18.01855-27.12793h17.66406l9.21582,15.97949,9.00488-15.97949h17.15723l-18.11914,26.875,18.82813,28.19141H439.04492l-9.49414-16.58594-9.58691,16.58594Z"/><path d="M511.98535,838.70605q6.75,7.13673,6.75,20.95313,0,14.57665-6.59668,22.21973a21.41681,21.41681,0,0,1-16.98926,7.64257,17.81359,17.81359,0,0,1-11.00293-3.29A21.2501,21.2501,0,0,1,479.46,880.917v28.748H465.18652V832.78418h13.81739v8.14844a23.24856,23.24856,0,0,1,4.99218-5.66895,18.424,18.424,0,0,1,11.51172-3.69433A21.81486,21.81486,0,0,1,511.98535,838.70605Zm-11.07031,10.375q-2.94141-4.90869-9.53613-4.90917-7.92627,0-10.89063,7.44042a27.93653,27.93653,0,0,0-1.53418,10.02149q0,9.6167,5.16016,13.51367a11.84788,11.84788,0,0,0,7.26172,2.27734,10.55712,10.55712,0,0,0,9.28222-4.65625q3.19629-4.65674,3.19727-12.40039A21.54242,21.54242,0,0,0,500.915,849.08105Z"/><path d="M543.63672,887.95215H529.21191V813.34863h14.42481Z"/><path d="M603.71387,881.20312q-6.98437,8.62208-21.20606,8.62208-14.22363,0-21.207-8.62208-6.98437-8.62206-6.98437-20.75878a32.14694,32.14694,0,0,1,6.98437-20.68262q6.98438-8.748,21.207-8.749,14.22071,0,21.20606,8.749a32.14772,32.14772,0,0,1,6.98535,20.68262Q610.69922,872.582,603.71387,881.20312Zm-11.53907-7.97265q3.38965-4.49707,3.39063-12.78613,0-8.28809-3.39063-12.76075-3.39256-4.47216-9.71777-4.47363-6.32812,0-9.74316,4.47363-3.416,4.47217-3.416,12.76075,0,8.28954,3.416,12.78613,3.416,4.49853,9.74316,4.49805Q588.78223,877.72852,592.1748,873.23047Z"/><path d="M651.66992,831.49316c.18457.01758.59863.043,1.23926.07618v14.77929q-1.36524-.15234-2.42871-.20312-1.06348-.04981-1.7207-.04981-8.707,0-11.69239,5.668-1.66992,3.189-1.66992,9.81934v26.36914H620.87207v-55.168h13.7666v9.61621q3.33984-5.51514,5.82031-7.541,4.04883-3.39112,10.52735-3.39161Q651.39063,831.46777,651.66992,831.49316Z"/><path d="M697.31152,833.90137a22.44316,22.44316,0,0,1,9.53321,8.16113,27.10766,27.10766,0,0,1,4.3955,11.40527,70.43917,70.43917,0,0,1,.47559,10.94922H671.53516q.33691,8.30127,5.76953,11.6416a14.65132,14.65132,0,0,0,7.95312,2.07422,11.20229,11.20229,0,0,0,10.97852-6.32617h14.72656q-.583,4.91016-5.34766,9.9707-7.4121,8.04786-20.75488,8.04786a30.0725,30.0725,0,0,1-19.43262-6.78809q-8.41845-6.78809-8.418-22.08691,0-14.335,7.59961-21.98438,7.5996-7.64794,19.72851-7.64941A31.41574,31.41574,0,0,1,697.31152,833.90137Zm-21.5791,12.46093a14.98542,14.98542,0,0,0-3.84277,8.54h24.85156q-.394-5.74365-3.84277-8.71777a12.64284,12.64284,0,0,0-8.55567-2.97461Q678.78955,843.21,675.73242,846.3623Z"/><path d="M749.65625,831.49316c.18457.01758.59863.043,1.23926.07618v14.77929q-1.36524-.15234-2.42871-.20312-1.06349-.04981-1.72071-.04981-8.707,0-11.69238,5.668-1.66992,3.189-1.66992,9.81934v26.36914H718.8584v-55.168H732.625v9.61621q3.33984-5.51514,5.82031-7.541,4.04883-3.39112,10.52735-3.39161Q749.377,831.46777,749.65625,831.49316Z"/></svg>