<svg id="Layer_1" data-name="Layer 1" xmlns="http://www.w3.org/2000/svg" viewBox="0 0 198 103.4587"><defs><style>.cls-1{fill-opacity:0.85;}</style></defs><path d="M83.66,44A16.69023,16.69023,0,0,1,67,27.5,16.68762,16.68762,0,0,1,83.66,11a15.611,15.611,0,0,1,11.254,4.547l-3.164,3.18a11.41546,11.41546,0,0,0-8.091-3.22A11.80863,11.80863,0,0,0,71.883,27.5,11.80777,11.80777,0,0,0,83.659,39.492a10.95867,10.95867,0,0,0,8.29-3.3,9.417,9.417,0,0,0,2.443-5.674H83.661V26.012h15.1A14.8045,14.8045,0,0,1,99,28.829c0,3.382-.92,7.566-3.885,10.545A14.9849,14.9849,0,0,1,83.66,44ZM123,33.5c0,6.047-4.939,10.5-11,10.5-6.06,0-11-4.455-11-10.5,0-6.084,4.94-10.5,11-10.5C118.061,23,123,27.416,123,33.5Zm-4.814,0a6.18848,6.18848,0,1,0-12.372.001,6.18849,6.18849,0,1,0,12.372,0ZM146,33.5c0,6.047-4.939,10.5-11,10.5-6.06,0-11-4.455-11-10.5,0-6.084,4.94-10.5,11-10.5C141.061,23,146,27.416,146,33.5Zm-4.814,0a6.18848,6.18848,0,1,0-12.372.001,6.18849,6.18849,0,1,0,12.372,0ZM168,23.668V42.856C168,50.758,163.228,54,157.584,54a10.43585,10.43585,0,0,1-9.711-6.32l4.19-1.703a6.05177,6.05177,0,0,0,5.52,3.808c3.61,0,5.85-2.19,5.85-6.281v-1.54h-.165a7.54844,7.54844,0,0,1-5.769,2.432A10.69988,10.69988,0,0,1,157.5,23a7.67247,7.67247,0,0,1,5.768,2.392h.165V23.668Zm-4.233,10.07c0-3.768-2.574-6.523-5.851-6.523a6.25019,6.25019,0,0,0-6.1,6.524,6.20351,6.20351,0,0,0,6.1,6.443c3.277,0,5.85-2.715,5.85-6.443ZM176,12V44h-5V12Zm18.074,24.96,3.72,2.386A10.95694,10.95694,0,0,1,188.7,44,10.36887,10.36887,0,0,1,178,33.5c0-6.244,4.542-10.5,10.164-10.5a10.07334,10.07334,0,0,1,9.34,6.682L198,30.875l-14.589,5.806a5.57437,5.57437,0,0,0,5.29,3.182,6.28588,6.28588,0,0,0,5.373-2.903Zm-11.449-3.779,9.753-3.897a4.25306,4.25306,0,0,0-4.05-2.227A5.85836,5.85836,0,0,0,182.625,33.181ZM25.976,12.382c-3.545-.245-6.54,1.979-8.21,1.979-1.69,0-4.318-1.918-7.089-1.877a10.51771,10.51771,0,0,0-8.881,5.385c-3.79,6.588-.958,16.338,2.73,21.682,1.812,2.611,3.951,5.548,6.783,5.446,2.73-.102,3.748-1.754,7.048-1.754,3.28,0,4.217,1.754,7.09,1.714,2.933-.062,4.786-2.672,6.579-5.283A22.7374,22.7374,0,0,0,35,33.554a9.48142,9.48142,0,0,1-5.765-8.71,9.66745,9.66745,0,0,1,4.645-8.178,10.209,10.209,0,0,0-7.904-4.284m-2.18-3.508A9.48822,9.48822,0,0,0,26.036,2a9.67471,9.67471,0,0,0-6.334,3.264,9.03041,9.03041,0,0,0-2.282,6.65,7.97828,7.97828,0,0,0,6.376-3.04"/><path class="cls-1" d="M49.5,0h0c.27614,0,.5.67157.5,1.5v52c0,.82843-.22386,1.5-.5,1.5h0c-.27614,0-.5-.67157-.5-1.5V1.5C49,.67157,49.22386,0,49.5,0Z"/><path d="M9.79541,68.63965A2.46746,2.46746,0,0,0,8.334,66.83594a3.58449,3.58449,0,0,0-1.44482-.28223,3.14037,3.14037,0,0,0-2.5,1.14746,5.20574,5.20574,0,0,0-.979,3.45117,4.28132,4.28132,0,0,0,1.06005,3.28418,3.48477,3.48477,0,0,0,2.41065.96387,3.12505,3.12505,0,0,0,2.1709-.75977,3.28274,3.28274,0,0,0,1.043-1.99218h-2.915V70.54492h5.24853v6.76172H10.68457l-.26514-1.57324a6.0334,6.0334,0,0,1-1.36767,1.25976,4.82412,4.82412,0,0,1-2.56446.63868,5.32847,5.32847,0,0,1-4.10253-1.73438,6.61148,6.61148,0,0,1-1.667-4.7666,6.9903,6.9903,0,0,1,1.68409-4.90332A5.73836,5.73836,0,0,1,6.855,64.38281a5.81948,5.81948,0,0,1,3.85938,1.21778,4.52821,4.52821,0,0,1,1.67089,3.03906Z"/><path d="M22.51465,76.167a4.3366,4.3366,0,0,1-3.58154,1.45606A4.336,4.336,0,0,1,15.35156,76.167a5.78046,5.78046,0,0,1,0-6.999,4.30515,4.30515,0,0,1,3.58155-1.47754A4.30578,4.30578,0,0,1,22.51465,69.168a5.78042,5.78042,0,0,1,0,6.999Zm-1.94873-1.34668a4.34889,4.34889,0,0,0,0-4.31445A1.936,1.936,0,0,0,18.9248,69.75a1.94674,1.94674,0,0,0-1.6455.75586,4.32012,4.32012,0,0,0,0,4.31445,1.942,1.942,0,0,0,1.6455.75977A1.93133,1.93133,0,0,0,20.56592,74.82031Z"/><path d="M33.20752,76.167A4.3366,4.3366,0,0,1,29.626,77.62305,4.336,4.336,0,0,1,26.04443,76.167a5.78046,5.78046,0,0,1,0-6.999A4.30515,4.30515,0,0,1,29.626,67.69043,4.30578,4.30578,0,0,1,33.20752,69.168a5.78042,5.78042,0,0,1,0,6.999Zm-1.94873-1.34668a4.34889,4.34889,0,0,0,0-4.31445,2.16428,2.16428,0,0,0-3.28662,0,4.32012,4.32012,0,0,0,0,4.31445,2.157,2.157,0,0,0,3.28662,0Z"/><path d="M40.74023,67.98145A2.9256,2.9256,0,0,1,42.17432,69.332V67.98926h2.376v8.83886a4.95111,4.95111,0,0,1-.60644,2.71778q-1.043,1.57325-4.00049,1.57324a5.457,5.457,0,0,1-2.915-.70117,2.58447,2.58447,0,0,1-1.24756-2.09375h2.64942a1.10132,1.10132,0,0,0,.33349.61523,2.06211,2.06211,0,0,0,1.32471.333,1.78042,1.78042,0,0,0,1.76123-.87988,4.47068,4.47068,0,0,0,.29053-1.89844v-.59766a2.974,2.974,0,0,1-.75244.89747,3.02563,3.02563,0,0,1-1.88868.55566,3.5748,3.5748,0,0,1-2.86816-1.26074,5.101,5.101,0,0,1-1.07275-3.415,5.76428,5.76428,0,0,1,1.0332-3.49219,3.41219,3.41219,0,0,1,2.92822-1.41406A3.20011,3.20011,0,0,1,40.74023,67.98145Zm.82959,6.67968a2.99646,2.99646,0,0,0,.58741-2.05566,3.15843,3.15843,0,0,0-.55762-2.01758,1.8209,1.8209,0,0,0-1.49365-.69238,1.76162,1.76162,0,0,0-1.76221,1.20508,4.29148,4.29148,0,0,0-.25537,1.582,3.62142,3.62142,0,0,0,.27246,1.44433,1.77542,1.77542,0,0,0,1.77051,1.17969A1.86949,1.86949,0,0,0,41.56982,74.66113Z"/><path d="M49.31152,77.30664h-2.436V64.707h2.436Z"/><path d="M57.75879,68.17871a3.78741,3.78741,0,0,1,1.61035,1.37793,4.58212,4.58212,0,0,1,.74219,1.92578,11.91886,11.91886,0,0,1,.08008,1.84961H53.40576a2.23524,2.23524,0,0,0,.97412,1.96582,2.47716,2.47716,0,0,0,1.34326.35059,2.05984,2.05984,0,0,0,1.35254-.42774,2.03624,2.03624,0,0,0,.50147-.64062h2.4873a3.03888,3.03888,0,0,1-.90332,1.68359,4.52655,4.52655,0,0,1-3.50488,1.35938A5.07793,5.07793,0,0,1,52.374,76.47656a4.51768,4.51768,0,0,1-1.42138-3.73047,5.0469,5.0469,0,0,1,1.2832-3.71289,4.49526,4.49526,0,0,1,3.332-1.291A5.30481,5.30481,0,0,1,57.75879,68.17871Zm-3.644,2.10449a2.52882,2.52882,0,0,0-.64942,1.44141H57.6626a2.033,2.033,0,0,0-.64893-1.47168A2.13541,2.13541,0,0,0,55.56885,69.75,1.929,1.929,0,0,0,54.11475,70.2832Z"/><path d="M69.4458,64.707h2.97852l4.458,12.59961h-2.855L73.1958,74.7168H68.55615l-.85449,2.58984H64.94824ZM69.272,72.5459H72.499l-1.59179-4.958Z"/><path d="M86.12354,68.98926a4.968,4.968,0,0,1,1.13964,3.53906,5.58857,5.58857,0,0,1-1.11377,3.75293,3.617,3.617,0,0,1-2.86914,1.29,3.00374,3.00374,0,0,1-1.85839-.55567,3.57634,3.57634,0,0,1-.79151-.89746v4.85547H78.21973V67.98926h2.33349v1.37695a3.92943,3.92943,0,0,1,.84326-.958,3.111,3.111,0,0,1,1.94434-.624A3.68736,3.68736,0,0,1,86.12354,68.98926Zm-1.86963,1.75293a1.73379,1.73379,0,0,0-1.61084-.8291A1.8324,1.8324,0,0,0,80.80371,71.169a4.7244,4.7244,0,0,0-.25879,1.69335,2.688,2.688,0,0,0,.87158,2.28223,2.002,2.002,0,0,0,1.22608.38379,1.78241,1.78241,0,0,0,1.56787-.78613,4.11726,4.11726,0,0,0,.04346-4Z"/><path d="M96.81689,68.98926a4.968,4.968,0,0,1,1.13965,3.53906,5.58857,5.58857,0,0,1-1.11377,3.75293,3.617,3.617,0,0,1-2.86914,1.29,3.00379,3.00379,0,0,1-1.8584-.55567,3.57651,3.57651,0,0,1-.7915-.89746v4.85547H88.91309V67.98926h2.33349v1.37695a3.92943,3.92943,0,0,1,.84326-.958,3.111,3.111,0,0,1,1.94434-.624A3.68734,3.68734,0,0,1,96.81689,68.98926Zm-1.86962,1.75293a1.73379,1.73379,0,0,0-1.61084-.8291A1.83239,1.83239,0,0,0,91.49707,71.169a4.7244,4.7244,0,0,0-.25879,1.69335,2.688,2.688,0,0,0,.87158,2.28223,2.002,2.002,0,0,0,1.22608.38379,1.78241,1.78241,0,0,0,1.56787-.78613,4.11726,4.11726,0,0,0,.04346-4Z"/><path d="M102.16211,77.30664H99.72656V64.707h2.43555Z"/><path d="M110.60938,68.17871a3.78741,3.78741,0,0,1,1.61035,1.37793,4.57575,4.57575,0,0,1,.74218,1.92578A11.97988,11.97988,0,0,1,113.042,73.332h-6.78613a2.23665,2.23665,0,0,0,.97461,1.96582,2.47886,2.47886,0,0,0,1.34375.35059,1.89216,1.89216,0,0,0,1.85351-1.06836H112.915a3.03578,3.03578,0,0,1-.90332,1.68359,4.52585,4.52585,0,0,1-3.50488,1.35938,5.07789,5.07789,0,0,1-3.28223-1.14649,4.51933,4.51933,0,0,1-1.42188-3.73047,5.04329,5.04329,0,0,1,1.28418-3.71289,4.493,4.493,0,0,1,3.33106-1.291A5.30234,5.30234,0,0,1,110.60938,68.17871Zm-3.64454,2.10449a2.528,2.528,0,0,0-.64843,1.44141h4.19629a2.029,2.029,0,0,0-.64844-1.47168A2.13582,2.13582,0,0,0,108.419,69.75,1.93125,1.93125,0,0,0,106.96484,70.2832Z"/><path d="M128.65137,66.93848h-6.667v2.6748h6.12011v2.18848h-6.12011V75.041h6.9746v2.26562h-9.54785V64.707h9.24024Z"/><path d="M129.88574,77.30664l3.18067-4.71875-3.04395-4.58105h2.9834l1.55664,2.69824,1.52051-2.69824h2.89746L135.9209,72.5459l3.17969,4.76074h-3.03418l-1.60352-2.80078-1.61914,2.80078Z"/><path d="M148.38477,68.98926a4.9638,4.9638,0,0,1,1.14062,3.53906,5.59122,5.59122,0,0,1-1.11426,3.75293,3.617,3.617,0,0,1-2.86914,1.29,3.0028,3.0028,0,0,1-1.8584-.55567,3.59666,3.59666,0,0,1-.792-.89746v4.85547h-2.41015V67.98926h2.334v1.37695a3.92828,3.92828,0,0,1,.84277-.958,3.11,3.11,0,0,1,1.94434-.624A3.68632,3.68632,0,0,1,148.38477,68.98926Zm-1.86915,1.75293a1.73348,1.73348,0,0,0-1.61035-.8291,1.83258,1.83258,0,0,0-1.83984,1.25586,4.7244,4.7244,0,0,0-.25879,1.69335,2.68786,2.68786,0,0,0,.87109,2.28223,2.00544,2.00544,0,0,0,1.22657.38379,1.78384,1.78384,0,0,0,1.56836-.78613,4.12226,4.12226,0,0,0,.043-4Z"/><path d="M159.0127,76.167a5.13168,5.13168,0,0,1-7.16211,0,5.78042,5.78042,0,0,1,0-6.999,5.0784,5.0784,0,0,1,7.16211,0,5.78046,5.78046,0,0,1,0,6.999Zm-1.94825-1.34668a4.35206,4.35206,0,0,0,0-4.31445,2.16482,2.16482,0,0,0-3.28711,0,4.32649,4.32649,0,0,0,0,4.31445,2.15757,2.15757,0,0,0,3.28711,0Z"/><path d="M163.82617,74.332a1.61139,1.61139,0,0,0,.335.92285,2.26731,2.26731,0,0,0,1.68262.48731,2.57213,2.57213,0,0,0,1.14648-.21387.68246.68246,0,0,0,.42579-.64062.69111.69111,0,0,0-.34278-.624,13.97105,13.97105,0,0,0-2.54883-.73535,5.29387,5.29387,0,0,1-2.2373-.98242,2.13041,2.13041,0,0,1-.64941-1.67578,2.90189,2.90189,0,0,1,1.01464-2.21778,4.08383,4.08383,0,0,1,2.85743-.92773,5.254,5.254,0,0,1,2.84765.69629,2.98415,2.98415,0,0,1,1.26367,2.40625h-2.43652a1.43047,1.43047,0,0,0-.26562-.74317,1.6722,1.6722,0,0,0-1.3711-.49609,1.97671,1.97671,0,0,0-1.13574.248.71387.71387,0,0,0-.33887.58105.63709.63709,0,0,0,.36035.60742,15.68791,15.68791,0,0,0,2.54395.67481,4.67775,4.67775,0,0,1,2.18164,1.03418,2.3512,2.3512,0,0,1,.71875,1.75293,2.83079,2.83079,0,0,1-1.03223,2.26074,6.20308,6.20308,0,0,1-6.4414-.05176,3.015,3.015,0,0,1-1.04883-2.36328Z"/><path d="M174.09961,67.98926v5.61621a2.94344,2.94344,0,0,0,.1875,1.19629,1.29206,1.29206,0,0,0,1.30078.71,1.69992,1.69992,0,0,0,1.70117-1.00879,3.67366,3.67366,0,0,0,.23828-1.44434V67.98926h2.46973v9.31738h-2.36719V75.99023c-.02246.02832-.08008.11426-.1709.25684a1.70913,1.70913,0,0,1-.32324.376,3.39515,3.39515,0,0,1-1.10449.70117,3.7585,3.7585,0,0,1-1.24805.1875,2.78373,2.78373,0,0,1-2.77929-1.48731,5.71274,5.71274,0,0,1-.40039-2.41894V67.98926Z"/><path d="M187.541,67.77148c.03125.00293.10156.00782.209.0127v2.49609c-.15332-.0166-.29-.02832-.41016-.03418-.11914-.00586-.21679-.00879-.29-.00879a2.0196,2.0196,0,0,0-1.9746.958,3.71416,3.71416,0,0,0-.28223,1.65821v4.45312h-2.45313V67.98926h2.3252v1.624a5.15743,5.15743,0,0,1,.98242-1.27344,2.67689,2.67689,0,0,1,1.77832-.57226C187.4707,67.76758,187.50977,67.76855,187.541,67.77148Z"/><path d="M195.249,68.17871a3.78744,3.78744,0,0,1,1.61036,1.37793,4.57575,4.57575,0,0,1,.74218,1.92578,11.97988,11.97988,0,0,1,.08008,1.84961h-6.78613a2.23663,2.23663,0,0,0,.97461,1.96582,2.47886,2.47886,0,0,0,1.34375.35059,1.89216,1.89216,0,0,0,1.85351-1.06836h2.48731a3.03578,3.03578,0,0,1-.90332,1.68359,4.52586,4.52586,0,0,1-3.50489,1.35938,5.07788,5.07788,0,0,1-3.28222-1.14649,4.51933,4.51933,0,0,1-1.42188-3.73047,5.04329,5.04329,0,0,1,1.28418-3.71289,4.493,4.493,0,0,1,3.33106-1.291A5.30226,5.30226,0,0,1,195.249,68.17871Zm-3.64453,2.10449a2.5281,2.5281,0,0,0-.64844,1.44141h4.19629a2.02891,2.02891,0,0,0-.64843-1.47168,2.13584,2.13584,0,0,0-1.44532-.50293A1.93123,1.93123,0,0,0,191.60449,70.2832Z"/><path d="M18.48828,85.71387h2.76026L26.25,94.499V85.71387h2.45312V98.31348H26.0708L20.94189,89.374v8.93946H18.48828Z"/><path d="M38.74658,97.17383A4.33662,4.33662,0,0,1,35.165,98.62988a4.336,4.336,0,0,1-3.58154-1.45605,5.78043,5.78043,0,0,1,0-6.999A4.30514,4.30514,0,0,1,35.165,88.69727a4.30577,4.30577,0,0,1,3.58154,1.47753,5.78043,5.78043,0,0,1,0,6.999Zm-1.94873-1.34668a4.34883,4.34883,0,0,0,0-4.31445,2.16428,2.16428,0,0,0-3.28662,0,4.32012,4.32012,0,0,0,0,4.31445,2.15706,2.15706,0,0,0,3.28662,0Z"/><path d="M40.71289,90.81738V89.082h1.29883V86.4834h2.41064V89.082h1.51319v1.73535H44.42236v4.92285a1.10649,1.10649,0,0,0,.14551.71387,1.5901,1.5901,0,0,0,.88867.1416c.07422,0,.15235-.00195.23535-.00488.08252-.00293.16358-.00684.24366-.0127v1.82129l-1.1543.042a3.09672,3.09672,0,0,1-2.35889-.59766,1.78321,1.78321,0,0,1-.41064-1.291V90.81738Z"/><path d="M50.00391,87.88477H47.53369V85.63672h2.47022Zm-2.47022,1.11132h2.47022v9.31739H47.53369Z"/><path d="M56.21777,85.59863q.18823.01319.51319.03809v1.9834q-.20508-.0249-.68848-.03809a.78979.78979,0,0,0-.6665.21387.77306.77306,0,0,0-.1836.5V89.082h1.59815V90.7998H55.19238v7.51368H52.77344V90.7998H51.40576V89.082h1.3335V88.4834a3.14872,3.14872,0,0,1,.5039-2.05957q.53028-.8379,2.55616-.83789C55.95312,85.58594,56.09277,85.58984,56.21777,85.59863Z"/><path d="M60.69678,87.88477H58.22656V85.63672h2.47022Zm-2.47022,1.11132h2.47022v9.31739H58.22656Z"/><path d="M68.62939,92.33887a2.162,2.162,0,0,0-.35107-.94043,1.47577,1.47577,0,0,0-1.27686-.56446,1.68151,1.68151,0,0,0-1.688,1.22266,5.06576,5.06576,0,0,0-.23975,1.72168,4.66534,4.66534,0,0,0,.23975,1.64648,1.62937,1.62937,0,0,0,1.645,1.16211,1.45257,1.45257,0,0,0,1.21679-.46191,2.292,2.292,0,0,0,.437-1.19629h2.48731a4.07658,4.07658,0,0,1-.8042,2.10254,3.91192,3.91192,0,0,1-3.397,1.59863,3.97325,3.97325,0,0,1-3.311-1.334,5.38189,5.38189,0,0,1-1.061-3.457,5.46753,5.46753,0,0,1,1.17187-3.73145,4.08371,4.08371,0,0,1,3.23438-1.333,4.87155,4.87155,0,0,1,2.8706.78614,3.657,3.657,0,0,1,1.32227,2.77832Z"/><path d="M76.48242,92.64648a3.81418,3.81418,0,0,0,.97266-.21386.73283.73283,0,0,0,.52539-.69239.81932.81932,0,0,0-.40283-.791,2.55592,2.55592,0,0,0-1.18262-.21777,1.55258,1.55258,0,0,0-1.23926.42773,1.7631,1.7631,0,0,0-.34619.85449H72.459a3.56585,3.56585,0,0,1,.68653-2.00879,4.00443,4.00443,0,0,1,3.33105-1.23047,5.944,5.944,0,0,1,2.73.60645,2.329,2.329,0,0,1,1.19287,2.291v4.27343q0,.44532.01709,1.07715a1.354,1.354,0,0,0,.14551.65039.8684.8684,0,0,0,.35889.28125v.35938H78.271a2.756,2.756,0,0,1-.15381-.53028q-.04248-.24756-.06836-.56347a5.05283,5.05283,0,0,1-1.16895.93164,3.53663,3.53663,0,0,1-1.78857.45312,3.08668,3.08668,0,0,1-2.102-.72265,2.56825,2.56825,0,0,1-.82959-2.04688,2.65233,2.65233,0,0,1,1.33447-2.4873A5.94871,5.94871,0,0,1,75.647,92.749Zm1.48926,1.13672a2.7623,2.7623,0,0,1-.47217.23535,3.97792,3.97792,0,0,1-.65381.166l-.55468.10254a3.6623,3.6623,0,0,0-1.11963.334,1.11131,1.11131,0,0,0-.57569,1.03418,1.07888,1.07888,0,0,0,.35157.90137,1.334,1.334,0,0,0,.855.27832,2.54818,2.54818,0,0,0,1.47119-.46191,1.95451,1.95451,0,0,0,.69824-1.6836Z"/><path d="M81.5708,90.81738V89.082h1.29883V86.4834h2.41064V89.082h1.51319v1.73535H85.28027v4.92285a1.10649,1.10649,0,0,0,.14551.71387,1.5901,1.5901,0,0,0,.88867.1416c.07422,0,.15235-.00195.23535-.00488.08252-.00293.16358-.00684.24366-.0127v1.82129l-1.1543.042a3.09672,3.09672,0,0,1-2.35889-.59766,1.78321,1.78321,0,0,1-.41064-1.291V90.81738Z"/><path d="M90.86182,87.88477H88.3916V85.63672h2.47022ZM88.3916,88.99609h2.47022v9.31739H88.3916Z"/><path d="M100.99023,97.17383a5.1317,5.1317,0,0,1-7.16211,0,5.78047,5.78047,0,0,1,0-6.999,5.07842,5.07842,0,0,1,7.16211,0,5.78043,5.78043,0,0,1,0,6.999ZM99.043,95.82715a4.35213,4.35213,0,0,0,0-4.31445,2.16482,2.16482,0,0,0-3.28711,0,4.32012,4.32012,0,0,0,0,4.31445,2.15759,2.15759,0,0,0,3.28711,0Z"/><path d="M111.42676,89.53027a3.08305,3.08305,0,0,1,.915,2.50879v6.27442h-2.49512v-5.667a2.61,2.61,0,0,0-.19531-1.1289,1.37155,1.37155,0,0,0-1.35742-.71778,1.682,1.682,0,0,0-1.68848,1.05176,3.61667,3.61667,0,0,0-.23828,1.41895v5.043h-2.43555V89.01367H106.29v1.35938a4.12679,4.12679,0,0,1,.88574-1.03516,3.067,3.067,0,0,1,1.89844-.56348A3.5695,3.5695,0,0,1,111.42676,89.53027Z"/><path d="M120.09473,88.89355a18.34069,18.34069,0,0,1,1.97461-3.38476h1.83789l-.52149.958a14.25578,14.25578,0,0,0-1.49609,4.13672,16.34681,16.34681,0,0,0-.27344,3.09375,14.62467,14.62467,0,0,0,.76074,4.8125,21.86,21.86,0,0,0,1.57325,3.334h-1.80372l-.60742-.8291a11.15536,11.15536,0,0,1-1.25586-2.23926,12.76,12.76,0,0,1-1.18847-5.23144A11.602,11.602,0,0,1,120.09473,88.89355Z"/><path d="M133.96875,89.64648a2.47022,2.47022,0,0,0-1.46191-1.80371,3.5857,3.5857,0,0,0-1.44434-.28222,3.14163,3.14163,0,0,0-2.501,1.14746,5.20848,5.20848,0,0,0-.97851,3.45117,4.2795,4.2795,0,0,0,1.06054,3.28418,3.48275,3.48275,0,0,0,2.41016.96387,3.12588,3.12588,0,0,0,2.1709-.75977,3.27777,3.27777,0,0,0,1.043-1.99219h-2.915V91.55176h5.24805v6.76172h-1.74317l-.26465-1.57325A6.0542,6.0542,0,0,1,133.22461,98a4.8242,4.8242,0,0,1-2.56445.63867,5.32775,5.32775,0,0,1-4.10254-1.73437,6.61148,6.61148,0,0,1-1.667-4.7666,6.99453,6.99453,0,0,1,1.6836-4.90332,5.74048,5.74048,0,0,1,4.4541-1.84473,5.81582,5.81582,0,0,1,3.8584,1.21777,4.52949,4.52949,0,0,1,1.67187,3.03906Z"/><path d="M142.7168,85.71387h2.97851l4.458,12.59961h-2.85547l-.83105-2.58985h-4.63965l-.85449,2.58985h-2.75391Zm-.17383,7.83886h3.22656l-1.59082-4.958Z"/><path d="M161.07324,87.94531h-6.667v2.67481h6.12012v2.18847h-6.12012v3.23926h6.97461v2.26563H151.833V85.71387h9.24023Z"/><path d="M163.38965,85.71387h2.75976l5.001,8.78515V85.71387h2.45313V98.31348h-2.63184L165.84277,89.374v8.93946h-2.45312Z"/><path d="M178.76758,88.89355a11.6174,11.6174,0,0,1,.999,4.6504,12.77238,12.77238,0,0,1-1.18652,5.23144,11.11569,11.11569,0,0,1-1.25391,2.23926l-.60644.8291h-1.79981a21.99546,21.99546,0,0,0,1.56641-3.334,14.65031,14.65031,0,0,0,.75879-4.8125,16.431,16.431,0,0,0-.27246-3.09375,14.27241,14.27241,0,0,0-1.49121-4.13672l-.51954-.958h1.835A18.35955,18.35955,0,0,1,178.76758,88.89355Z"/></svg>