<svg id="Layer_1" data-name="Layer 1" xmlns="http://www.w3.org/2000/svg" viewBox="0 0 900 795.16713"><defs><style>.cls-1{fill:#006b3f;}.cls-2{fill:#fcd116;}.cls-3{fill:#ce1126;}</style></defs><path d="M36.29736,681.42835a9.13458,9.13458,0,0,0-5.41162-6.67676,13.28756,13.28756,0,0,0-5.34765-1.04395,11.62331,11.62331,0,0,0-9.25635,4.24805q-3.624,4.248-3.62354,12.77539,0,8.59131,3.92383,12.16016a12.90049,12.90049,0,0,0,8.92432,3.56933,11.57469,11.57469,0,0,0,8.03808-2.81445,12.14678,12.14678,0,0,0,3.86036-7.376h-10.791V688.486H46.044v25.03125H39.58838l-.981-5.82324a22.29435,22.29435,0,0,1-5.063,4.66309,17.87228,17.87228,0,0,1-9.49365,2.3623,19.72912,19.72912,0,0,1-15.18994-6.41992q-6.17139-6.45117-6.1709-17.64649,0-11.32178,6.23389-18.15234,6.23438-6.832,16.4873-6.83105,8.89234,0,14.28809,4.50879a16.77023,16.77023,0,0,1,6.18652,11.25Z"/><path d="M54.3125,713.51721V666.8717h9.68359v17.78516H82.12891V666.8717H91.812v46.64551h-9.6831V692.69495H63.99609v20.82226Z"/><path d="M121.69678,671.74475a19.20668,19.20668,0,0,1,14.33886-5.75879q11.64624,0,17.03125,7.72168a16.831,16.831,0,0,1,3.19336,8.70215h-9.74658a13.28468,13.28468,0,0,0-2.38769-5.06348q-2.60376-3.03809-7.71875-3.03808a9.51185,9.51185,0,0,0-8.21582,4.28808q-3.00733,4.28907-3.00684,12.13575,0,7.84863,3.17285,11.75683a9.94351,9.94351,0,0,0,8.06348,3.90821q5.01489,0,7.64648-3.3545a14.731,14.731,0,0,0,2.41455-5.41113h9.6836a21.011,21.011,0,0,1-6.40235,12.4043q-5.15038,4.77978-13.1958,4.77929-9.9558,0-15.65381-6.45605-5.69751-6.48633-5.69726-17.78516Q115.21631,678.36,121.69678,671.74475Z"/><path d="M198.99072,709.3717q-5.28588,5.44336-15.28515,5.44336-9.99976,0-15.28467-5.44336-7.08912-6.67676-7.08838-19.24023,0-12.81738,7.08838-19.24023,5.28443-5.44336,15.28467-5.44336,9.99975,0,15.28515,5.44336,7.05615,6.42333,7.05664,19.24023Q206.04736,702.694,198.99072,709.3717Zm-6.09179-7.08886q3.40136-4.27149,3.40185-12.15137,0-7.84863-3.40185-12.13672a11.11828,11.11828,0,0,0-9.19336-4.28711,11.26667,11.26667,0,0,0-9.24024,4.27149q-3.4497,4.27294-3.44922,12.15234,0,7.87939,3.44922,12.15137a11.26475,11.26475,0,0,0,9.24024,4.27246A11.13312,11.13312,0,0,0,192.89893,702.28284Z"/><path d="M239.80615,666.8717h10.12647l-15.90283,46.64551h-9.2085L209.04688,666.8717H219.458l10.12646,35.41114Z"/><path d="M263.66016,713.51721h-9.6836V666.8717h9.6836Z"/><path d="M299.1333,667.8844a15.414,15.414,0,0,1,7.94922,5.918,20.74442,20.74442,0,0,1,3.32519,7.53125,36.09748,36.09748,0,0,1,.88721,7.72168q0,9.30322-3.7373,15.75976-5.06689,8.70264-15.645,8.70215H271.80127V666.8717H291.9126A24.582,24.582,0,0,1,299.1333,667.8844Zm-17.86963,7.08887v30.44238h9.00147q6.90966,0,9.63476-6.80371a23.9599,23.9599,0,0,0,1.49024-8.89258q0-7.11914-2.23487-10.93262-2.23461-3.813-8.89013-3.81347Z"/><path d="M314.18359,691.17542H331.8418v8.54394H314.18359Z"/><path d="M337.80029,681.8717v-6.13964a39.73605,39.73605,0,0,0,5.96582-.56934,8.4025,8.4025,0,0,0,4.41944-2.40527,7.92011,7.92011,0,0,0,1.76757-3.291,7.56919,7.56919,0,0,0,.34717-1.835H357.832v45.88574h-9.24072V681.8717Z"/><path d="M374.56494,671.82385a14.418,14.418,0,0,1,11.06006-4.57226q10.47437,0,14.36719,9.27246,2.21484,5.25293,2.21533,13.8291a39.35454,39.35454,0,0,1-2.12012,13.8916q-4.05175,10.60254-14.87353,10.60156a15.17086,15.17086,0,0,1-9.272-3.05371,12.03636,12.03636,0,0,1-4.71533-8.9082h8.98731a5.42305,5.42305,0,0,0,1.709,3.291A5.29115,5.29115,0,0,0,385.625,707.441q4.46265,0,6.26611-4.93652a28.83791,28.83791,0,0,0,1.23389-7.94336,9.75339,9.75339,0,0,1-2.62646,2.374,11.92024,11.92024,0,0,1-6.23389,1.51856,14.1738,14.1738,0,0,1-9.71533-3.78125q-4.24073-3.78077-4.24073-10.90235Q370.30859,676.39758,374.56494,671.82385Zm15.17432,18.21289q3.06885-1.96288,3.06933-6.80468a9.61994,9.61994,0,0,0-1.81933-6.1709,6.03474,6.03474,0,0,0-4.98438-2.27832,6.19138,6.19138,0,0,0-3.95556,1.29785q-2.595,2.02589-2.59522,6.86719,0,4.08252,1.66162,6.123a6.20022,6.20022,0,0,0,5.11084,2.041A6.30969,6.30969,0,0,0,389.73926,690.03674Z"/><path d="M459.31445,666.8717v8.25977H445.3584v38.38574h-9.81006V675.13147h-14.019V666.8717Z"/><path d="M478.92676,678.21643c.11621.01074.374.02735.77539.04785v9.24024q-.854-.09522-1.51856-.126c-.44336-.02148-.80273-.03223-1.07617-.03223q-5.44335,0-7.31054,3.54395a13.7896,13.7896,0,0,0-1.04395,6.13965v16.4873h-9.082V679.02405h8.60742v6.01269a19.086,19.086,0,0,1,3.63867-4.71582,9.90948,9.90948,0,0,1,6.583-2.12011C478.668,678.20081,478.81055,678.20667,478.92676,678.21643Z"/><path d="M497.67676,692.53674a14.25743,14.25743,0,0,0,3.60156-.792,2.71247,2.71247,0,0,0,1.94531-2.5625,3.03265,3.03265,0,0,0-1.49218-2.92773,9.425,9.425,0,0,0-4.37793-.80664q-3.24024,0-4.5879,1.582a6.53276,6.53276,0,0,0-1.2832,3.165h-8.70215a13.19568,13.19568,0,0,1,2.543-7.4375q3.59034-4.55566,12.33106-4.55664a21.98778,21.98778,0,0,1,10.10742,2.24707q4.41649,2.24706,4.417,8.48047v15.82324q0,1.645.06348,3.9873a5.00935,5.00935,0,0,0,.53808,2.40528,3.231,3.231,0,0,0,1.32911,1.04394v1.3291h-9.81055a10.02283,10.02283,0,0,1-.56934-1.96191q-.15821-.917-.25293-2.08887a18.60886,18.60886,0,0,1-4.3291,3.44922,13.08113,13.08113,0,0,1-6.62109,1.67773,11.42582,11.42582,0,0,1-7.78223-2.67382,9.511,9.511,0,0,1-3.07129-7.57911q0-6.36182,4.94141-9.209a22.05829,22.05829,0,0,1,7.96972-2.21582Zm5.51465,4.208a9.99277,9.99277,0,0,1-1.749.8711,14.8062,14.8062,0,0,1-2.42187.61621l-2.05274.37988a13.49591,13.49591,0,0,0-4.1455,1.23437,4.11936,4.11936,0,0,0-2.13086,3.82911,4,4,0,0,0,1.30175,3.33886,4.94678,4.94678,0,0,0,3.165,1.02832,9.4224,9.4224,0,0,0,5.44629-1.709q2.49024-1.70947,2.58692-6.23438Z"/><path d="M539.71973,691.3971a7.988,7.988,0,0,0-1.30078-3.48145,5.46083,5.46083,0,0,0-4.72657-2.08789q-4.56885,0-6.249,4.52539a18.76952,18.76952,0,0,0-.88867,6.376,17.25573,17.25573,0,0,0,.88867,6.09179,6.03117,6.03117,0,0,0,6.09082,4.30371q3.17139,0,4.50391-1.709a8.48588,8.48588,0,0,0,1.61816-4.42969h9.209a15.08935,15.08935,0,0,1-2.97753,7.78418q-4.24512,5.918-12.57618,5.918-8.33056,0-12.25879-4.93652-3.92724-4.93653-3.92773-12.80176,0-8.87549,4.33887-13.8125,4.34033-4.93653,11.97461-4.93652a18.04946,18.04946,0,0,1,10.62793,2.91113q4.13232,2.91212,4.89355,10.28516Z"/><path d="M554.06445,667.02991h8.86035V692.193l11.376-13.01074h11.21484l-12.36328,12.84961,12.8418,21.48535H575.01758l-8.35742-14.7373-3.73536,3.88281v10.85449h-8.86035Z"/><path d="M611.708,679.72229a14.03693,14.03693,0,0,1,5.96094,5.10254,16.94676,16.94676,0,0,1,2.748,7.13184,44.07522,44.07522,0,0,1,.29785,6.8457h-25.123q.21093,5.18994,3.60742,7.27832a9.16132,9.16132,0,0,0,4.97266,1.29687,7.00549,7.00549,0,0,0,6.86425-3.95507h9.208a11.264,11.264,0,0,1-3.34375,6.23437q-4.63476,5.03173-12.97754,5.03125a18.80329,18.80329,0,0,1-12.14941-4.24414q-5.26466-4.24365-5.26367-13.80957,0-8.96339,4.75195-13.74512a16.62793,16.62793,0,0,1,12.335-4.7832A19.63731,19.63731,0,0,1,611.708,679.72229Zm-13.49219,7.791a9.37454,9.37454,0,0,0-2.40234,5.33984h15.53808a7.52806,7.52806,0,0,0-2.40234-5.45117,7.90833,7.90833,0,0,0-5.34961-1.85938A7.15516,7.15516,0,0,0,598.21582,687.51331Z"/><path d="M643.46387,678.21643c.11621.01074.374.02735.77539.04785v9.24024q-.854-.09522-1.51856-.126c-.44336-.02148-.80273-.03223-1.07617-.03223q-5.44337,0-7.31055,3.54395a13.78976,13.78976,0,0,0-1.04394,6.13965v16.4873h-9.082V679.02405h8.60742v6.01269a19.086,19.086,0,0,1,3.63867-4.71582,9.90948,9.90948,0,0,1,6.583-2.12011C643.20508,678.20081,643.34766,678.20667,643.46387,678.21643Z"/><path d="M667.89648,678.64417a67.882,67.882,0,0,1,7.31055-12.53223h6.80371l-1.93066,3.54492a52.78019,52.78019,0,0,0-5.53809,15.31641,60.61526,60.61526,0,0,0-1.01172,11.45508,54.11513,54.11513,0,0,0,2.81641,17.8164,81.19944,81.19944,0,0,0,5.82227,12.3418h-6.67676l-2.24707-3.06934a41.10113,41.10113,0,0,1-4.65235-8.291,47.21808,47.21808,0,0,1-4.39843-19.36719A42.96832,42.96832,0,0,1,667.89648,678.64417Z"/><path d="M718.28418,681.42835a9.13291,9.13291,0,0,0-5.41113-6.67676,13.28764,13.28764,0,0,0-5.34766-1.04395,11.625,11.625,0,0,0-9.25684,4.24805q-3.624,4.248-3.623,12.77539,0,8.59131,3.92383,12.16016a12.90192,12.90192,0,0,0,8.92382,3.56933,11.57136,11.57136,0,0,0,8.03809-2.81445,12.15035,12.15035,0,0,0,3.86133-7.376h-10.791V688.486h19.42969v25.03125h-6.45508l-.98144-5.82324a22.28477,22.28477,0,0,1-5.06348,4.66309,17.87048,17.87048,0,0,1-9.49316,2.3623,19.73161,19.73161,0,0,1-15.19043-6.41992q-6.16992-6.45117-6.1709-17.64649,0-11.32178,6.23437-18.15234,6.23438-6.832,16.48731-6.83105,8.89306,0,14.28808,4.50879a16.77028,16.77028,0,0,1,6.18653,11.25Z"/><path d="M760.42578,679.21448a10.1358,10.1358,0,0,1,4.26953,3.38867,9.04692,9.04692,0,0,1,1.73242,3.97559,49.20676,49.20676,0,0,1,.31543,6.667v20.27148h-9.209V692.51233a9.30352,9.30352,0,0,0-.94238-4.49805q-1.22461-2.4082-4.64844-2.4082a6.378,6.378,0,0,0-5.3877,2.3916q-1.83837,2.3921-1.83789,6.82715v18.69238h-9.01855v-46.4873h9.01855V683.486a11.0335,11.0335,0,0,1,4.52149-4.19336,12.73278,12.73278,0,0,1,5.40429-1.18652A14.614,14.614,0,0,1,760.42578,679.21448Z"/><path d="M787.91406,692.53674a14.25733,14.25733,0,0,0,3.60156-.792,2.71248,2.71248,0,0,0,1.94532-2.5625,3.03266,3.03266,0,0,0-1.49219-2.92773,9.425,9.425,0,0,0-4.37793-.80664q-3.24024,0-4.58789,1.582a6.53266,6.53266,0,0,0-1.2832,3.165h-8.70215a13.1956,13.1956,0,0,1,2.543-7.4375q3.59033-4.55566,12.33105-4.55664a21.98778,21.98778,0,0,1,10.10742,2.24707q4.41651,2.24706,4.417,8.48047v15.82324q0,1.645.06347,3.9873a5.00932,5.00932,0,0,0,.53809,2.40528,3.23093,3.23093,0,0,0,1.3291,1.04394v1.3291h-9.81055a10.02345,10.02345,0,0,1-.56933-1.96191q-.15821-.917-.25293-2.08887a18.60928,18.60928,0,0,1-4.3291,3.44922,13.08114,13.08114,0,0,1-6.6211,1.67773,11.42581,11.42581,0,0,1-7.78222-2.67382,9.51092,9.51092,0,0,1-3.07129-7.57911q0-6.36182,4.9414-9.209a22.05829,22.05829,0,0,1,7.96973-2.21582Zm5.51465,4.208a9.99234,9.99234,0,0,1-1.749.8711,14.80609,14.80609,0,0,1-2.42188.61621l-2.05273.37988a13.496,13.496,0,0,0-4.14551,1.23437,4.11936,4.11936,0,0,0-2.13086,3.82911,3.99993,3.99993,0,0,0,1.30176,3.33886,4.94676,4.94676,0,0,0,3.165,1.02832,9.42245,9.42245,0,0,0,5.44629-1.709q2.49022-1.70947,2.58691-6.23438Z"/><path d="M837.13867,681.00159q3.38819,2.80079,3.3877,9.28808v23.22754h-9.24024V692.53674a9.642,9.642,0,0,0-.72265-4.17773q-1.31984-2.65869-5.02637-2.6582a6.22969,6.22969,0,0,0-6.251,3.89257,13.44572,13.44572,0,0,0-.87988,5.25293v18.6709H809.3877V679.08655h8.73339v5.03223a15.27885,15.27885,0,0,1,3.27735-3.82911,11.35517,11.35517,0,0,1,7.02734-2.08886A13.22077,13.22077,0,0,1,837.13867,681.00159Z"/><path d="M861.60254,692.53674a14.25733,14.25733,0,0,0,3.60156-.792,2.71247,2.71247,0,0,0,1.94531-2.5625,3.03265,3.03265,0,0,0-1.49218-2.92773,9.425,9.425,0,0,0-4.37793-.80664q-3.24024,0-4.58789,1.582a6.53267,6.53267,0,0,0-1.28321,3.165h-8.70215a13.19568,13.19568,0,0,1,2.543-7.4375q3.59034-4.55566,12.33106-4.55664a21.98778,21.98778,0,0,1,10.10742,2.24707q4.41651,2.24706,4.417,8.48047v15.82324q0,1.645.06348,3.9873a5.00947,5.00947,0,0,0,.53808,2.40528,3.231,3.231,0,0,0,1.32911,1.04394v1.3291h-9.81055a10.02352,10.02352,0,0,1-.56934-1.96191q-.1582-.917-.25293-2.08887a18.60886,18.60886,0,0,1-4.3291,3.44922,13.08113,13.08113,0,0,1-6.62109,1.67773,11.42582,11.42582,0,0,1-7.78223-2.67382,9.511,9.511,0,0,1-3.07129-7.57911q0-6.36182,4.94141-9.209a22.05829,22.05829,0,0,1,7.96973-2.21582Zm5.51465,4.208a9.99277,9.99277,0,0,1-1.749.8711,14.8062,14.8062,0,0,1-2.42187.61621l-2.05274.37988a13.49591,13.49591,0,0,0-4.1455,1.23437,4.11936,4.11936,0,0,0-2.13086,3.82911,3.99993,3.99993,0,0,0,1.30176,3.33886,4.94673,4.94673,0,0,0,3.165,1.02832,9.4224,9.4224,0,0,0,5.44629-1.709q2.49024-1.70947,2.58692-6.23438Z"/><path d="M893.71484,678.64417a43.02612,43.02612,0,0,1,3.69629,17.21484,47.29861,47.29861,0,0,1-4.39062,19.36719,41.23562,41.23562,0,0,1-4.64356,8.291l-2.24316,3.06934h-6.665a81.3979,81.3979,0,0,0,5.80078-12.3418,54.29552,54.29552,0,0,0,2.80664-17.8164,60.86664,60.86664,0,0,0-1.00879-11.45508,52.902,52.902,0,0,0-5.51758-15.31641l-1.92382-3.54492h6.792A67.85934,67.85934,0,0,1,893.71484,678.64417Z"/><path class="cls-1" d="M-.5863-1.96884h900v600h-900Z"/><path class="cls-2" d="M-.5863-1.96884h900v400h-900Z"/><path class="cls-3" d="M-.5863-1.96884h900v200h-900Z"/><path d="M449.4137,198.03116l64.98,200-170.13-123.61h210.3l-170.12994,123.61Z"/></svg>