<svg xmlns="http://www.w3.org/2000/svg" role="img" xmlns:xlink="http://www.w3.org/1999/xlink" viewBox="-10.23 -10.23 531.96 324.46"><path fill="#da000c" d="M0 0H512V256H0z"/><path fill="#fff" d="M0 0H512V171.5H0z"/><g stroke="#000"><g id="a" fill="#da000c" stroke-linecap="square"><path fill="#000" stroke="none" d="M196.571 116.303H260.571V160.296H196.571z"/><path d="M229.81889 153.86465H190.75L182.08989 159.56444V165.60411H229.81889M213.46875 128.59375C219.09357 128.59375 223.6875 133.28303 223.6875 139.0625V153.84375H231.03125V97.84375H190.75V153.84375H203.25V139.0625C203.24999 133.50878 207.76491 128.59375 213.46875 128.59375z"/><path fill="#000" stroke="none" d="M204.528 59.962H223.051V93.921H204.528z"/><path d="M223 88.65625H206.79108V82.90625H194.90625V88.65625H186.84375V82.90625H182.03125V93.34375H223M186.84375 93.306038H221.81414V97.843752H186.84375zM200.71875 47.625V82.90625H206.79108V73.21875C206.79108 69.589448 209.35314 66.619386 212.9375 66.4375 213.05312 66.431633 213.16418 66.4375 213.28125 66.4375 217.02763 66.437497 220.0625 69.472374 220.0625 73.21875V82.90625H225.84375V47.625zM198.53125 42.84375V47.625H227.78125V42.84375zM194.78125 33.6875V42.84375H229.875V33.6875H224.46875V38.34375H217.9375V33.6875H207.96875V38.34375H201.4375V33.6875zM182.08989 159.56444H230M261 156.8125H228.5625L218.78125 161.53125V168.5625H261"/><path stroke-linecap="butt" d="M218.771,161.51923H262"/></g><use transform="matrix(-1 0 0 1 512 0)" xlink:href="#a"/><g fill="#f8d80e"><g stroke-linecap="round"><path stroke-width=".768" d="m273.297,150.031c-2.65428,0.88339-5.05329,2.369-7.46888,3.75283-3.1004,1.83163-6.10683,3.82731-8.90451,6.09885-0.98462,0.64912-1.92929,1.36065-2.68911,2.27332-1.02583,0.8776-2.06486,2.05478-1.86885,3.51297,0.0518,0.64315,0.87359-0.75523,1.41401-0.82297,0.94235-0.54095,2.0838-0.7154,3.14219-0.4713,1.27117-1.33857,2.90994-2.23563,4.3249-3.40609,3.00467-2.24222,6.23664-4.16769,9.52502-5.96082,1.1481-0.58838,2.30104-1.18568,3.52508-1.60184-0.33328-1.12498-0.66657-2.24997-0.99985-3.37495z"/><path d="M260.40041 157.3913V161.3032M262.81691 155.68544V159.56821M265.23339 154.17984V158.03797M267.64986 152.69367V156.67498"/><path stroke-width=".768" d="m238.891,150.156c-0.39583,1.10417-0.79167,2.20833-1.1875,3.3125,5.53699,2.10036,10.8089,4.87874,15.7978,8.06036,1.69067,1.15075,3.46718,2.26632,4.79593,3.84589,0.2927,0.81098-0.51392,1.48903-1.31413,1.24403-0.73225-0.24871-1.45351-0.53169-2.22629-0.004-1.10637,0.50311-2.10598,2.1416-0.42575,2.69112,2.31528,1.55489,6.08158,0.87915,7.19454-1.84522,0.58146-1.40134,0.61878-3.19523-0.50753-4.34456-2.06261-2.36404-4.79728-4.00804-7.4215-5.67182-4.68917-2.82023-9.57283-5.37389-14.7055-7.28801z"/><path d="M254.04985 158.03521L253.73747 161.37469M256.8319 159.73914L255.96991 163.00882M259.80442 162.01152L257.99552 164.54884M260.71528 168.18078L258.10512 166.78032M261.52792 165.42898L258.53251 165.70943M257.66497 169.7646L257.45987 167.13228M256.56809 166.75559L254.09509 168.57779M244.67669 152.9368V156.05184M250.96338 156.24386V159.77805M247.82004 154.59318V157.9121"/></g><path d="M235.78125,227.5625V235.59375H240.8125V231.5625H247.65625V235.59375H253.0625V227.5625zM235.78125,238.625V246.6875H253.0625V238.625H247.65625V242.65625H240.8125V238.625z"/><path d="M253.052 193.651H258.042V251.76600000000002H253.052z"/><path d="M253.052 198.679H258.042V248.739H253.052z"/><path stroke-width="1.024" d="M255.54688,179.40625 266.17188,185.59375 255.54688,191.75 244.92188,185.59375zM241.32813,183.375H238.54688V187.8125H241.32813L255.54688,196.0625 269.76563,187.8125H272.54688V183.375H269.76563L255.54688,175.125z"/><path stroke-width="1.024" d="m255.344,164.281c-2.41872,0.33922-4.22593,2.73018-4.09375,5.13412,0.009,3.73773-0.0185,7.47634,0.0141,11.2135,0.12824,2.40829,2.23219,4.56615,4.6744,4.58823,1.98493,0.18804,3.97892-0.97232,4.81154-2.77961-0.57292-0.34375-1.14583-0.6875-1.71875-1.03125-0.44378,1.18388-1.72345,1.91762-2.96875,1.78125-1.63507,0.046-2.95917-1.54398-2.8125-3.13412,0.01-3.71344-0.0192-7.42801,0.0146-11.1407,0.0899-1.5151,1.53488-2.75487,3.04795-2.60016,0.6265-0.17973,1.48748,0.67715,1.8747-0.0623,0.5838-0.82944-0.41442-1.47737-0.96875-1.9374-0.61348-0.0841-1.25418-0.008-1.8747-0.0316zm5.78125,3.90625c-0.39638,0.7459-1.21626,1.18923-1.875,1.58041v7.51334c0.66667,0.38542,1.33333,0.77083,2,1.15625-0.008-3.20377,0.0153-6.40813-0.0117-9.61152-0.0315-0.19722-0.008-0.4984-0.11328-0.63848z"/></g><g fill="#da000c"><path fill="#000" stroke="none" d="M240.803 38.351H270.132V91.606H240.803z"/><path d="M238.75 38.375V82.9375H248.0625V69.71875C248.0625 66.669822 250.01501 62.4375 256 62.4375 261.98499 62.4375 263.9375 66.669822 263.9375 69.71875V82.9375H273.25V38.375zM254.5625 43.375H257.4375V58.625H254.5625zM246.3125 46.375H249.21875V57.53125H246.3125zM262.78125 46.375H265.6875V57.53125H262.78125zM235.59375 31.96875V38.3125H276.40625V31.96875zM231.75 24.59375V31.96875H280.25V24.59375H274.15625V28.65625H267.28125V24.59375H259.4375V28.65625H252.5625V24.59375H244.71875V28.65625H237.84375V24.59375zM222.75 97.84375V102.4375H289.25V97.84375z"/><path d="M220.03125,82.90625V97.84375H291.96875V82.90625H285.15625V88.65625H276.09375V82.90625H263.9375V88.65625H248.0625V82.90625H235.90625V88.65625H226.84375V82.90625z"/><path stroke-linejoin="round" d="M228.6875,102.4375V156.78125H241.53125V136.4375C241.53125,126.85477 247.92755,122.34375 256,122.34375C263.75894,122.34375 270.46875,126.85477 270.46875,136.4375V156.78125H283.3125V102.4375z"/></g></g><path d="M40.32 19.79L50.98 19.79C50.39 14.80 48.10 10.63 44.10 7.29C40.11 3.96 34.82 2.29 28.23 2.29C20.64 2.29 14.53 4.82 9.91 9.88C5.30 14.94 2.99 21.67 2.99 30.06C2.99 38.36 5.27 44.89 9.84 49.68C14.23 54.43 19.85 56.81 26.72 56.81C30.89 56.81 34.41 55.93 37.27 54.18C38.93 53.17 40.80 51.43 42.89 48.97L43.98 55.44L51.15 55.44L51.15 27.63L29.57 27.63L29.57 36.28L41.55 36.28C41.02 39.68 39.59 42.43 37.27 44.53C34.95 46.62 31.97 47.67 28.34 47.67C24.63 47.67 21.33 46.35 18.42 43.70C15.52 41.05 14.06 36.54 14.06 30.16C14.06 23.84 15.40 19.10 18.09 15.94C20.77 12.79 24.20 11.21 28.37 11.21C30.55 11.21 32.53 11.60 34.31 12.38C37.50 13.78 39.50 16.25 40.32 19.79ZM28.20 2.29ZM70.98 12.55L70.98 3.30L60.82 3.30L60.82 12.55ZM60.82 17.12L60.82 55.44L70.98 55.44L70.98 17.12ZM113.22 21.73C110.37 18.09 106.43 16.28 101.39 16.28C98.60 16.28 96.30 16.86 94.50 18.04C92.98 18.97 91.58 20.33 90.32 22.11L90.32 3.69L80.33 3.69L80.33 55.44L90.14 55.44L90.14 50.63C91.48 52.50 92.72 53.81 93.87 54.56C95.79 55.83 98.33 56.46 101.50 56.46C106.54 56.46 110.46 54.50 113.27 50.59C116.09 46.68 117.49 41.74 117.49 35.79C117.49 30.05 116.07 25.36 113.22 21.73ZM104.84 45.07C103.41 47.16 101.40 48.20 98.82 48.20C95.85 48.20 93.63 47.12 92.18 44.96C90.73 42.81 90 40.09 90 36.81C90 34.02 90.35 31.75 91.05 29.99C92.41 26.68 94.91 25.03 98.54 25.03C102.13 25.03 104.59 26.72 105.93 30.09C106.63 31.88 106.98 34.13 106.98 36.84C106.98 40.24 106.27 42.98 104.84 45.07ZM145.95 16.22C145.82 16.21 145.66 16.21 145.48 16.21C142.48 16.21 140.04 16.99 138.16 18.56C137.02 19.50 135.67 21.25 134.12 23.80L134.12 17.12L124.56 17.12L124.56 55.44L134.65 55.44L134.65 37.13C134.65 34.05 135.04 31.78 135.81 30.30C137.19 27.68 139.90 26.37 143.93 26.37C144.23 26.37 144.63 26.38 145.13 26.40C145.62 26.43 146.18 26.47 146.81 26.54L146.81 16.28C146.37 16.25 146.08 16.24 145.95 16.22ZM173.81 36.81L173.81 40.54C173.74 43.89 172.80 46.20 170.98 47.46C169.17 48.73 167.18 49.36 165.02 49.36C163.66 49.36 162.51 48.98 161.56 48.22C160.61 47.46 160.14 46.22 160.14 44.51C160.14 42.59 160.91 41.17 162.46 40.25C163.37 39.71 164.88 39.26 166.99 38.88L169.24 38.46C170.37 38.25 171.25 38.02 171.90 37.78C172.54 37.53 173.18 37.21 173.81 36.81ZM167.73 32.13L164.32 32.55C160.45 33.05 157.52 33.87 155.53 35.02C151.90 37.13 150.08 40.54 150.08 45.25C150.08 48.88 151.21 51.69 153.47 53.67C155.74 55.65 158.60 56.64 162.07 56.64C164.79 56.64 167.23 56.02 169.38 54.77C171.19 53.72 172.78 52.44 174.16 50.94C174.23 51.81 174.33 52.58 174.45 53.26C174.56 53.94 174.77 54.67 175.08 55.44L185.98 55.44L185.98 53.96C185.32 53.66 184.83 53.27 184.50 52.80C184.17 52.34 183.97 51.45 183.90 50.13C183.86 48.40 183.83 46.92 183.83 45.70L183.83 28.13C183.83 23.51 182.20 20.37 178.95 18.70C175.69 17.04 171.96 16.21 167.77 16.21C161.32 16.21 156.77 17.89 154.13 21.27C152.46 23.43 151.52 26.18 151.31 29.53L160.98 29.53C161.21 28.05 161.68 26.88 162.39 26.02C163.37 24.84 165.05 24.26 167.41 24.26C169.52 24.26 171.12 24.56 172.21 25.15C173.30 25.75 173.85 26.84 173.85 28.41C173.85 29.70 173.13 30.64 171.70 31.25C170.91 31.61 169.58 31.90 167.73 32.13ZM168.26 16.10ZM202.96 55.44L202.96 3.62L192.94 3.62L192.94 55.44ZM208.79 24.61L214.14 24.61L214.14 48.20C214.14 50.59 214.70 52.36 215.82 53.51C217.56 55.31 220.79 56.13 225.53 55.97L230.27 55.79L230.27 48.30C229.95 48.33 229.61 48.35 229.27 48.36C228.93 48.37 228.61 48.38 228.30 48.38C226.27 48.38 225.05 48.18 224.65 47.79C224.25 47.41 224.05 46.43 224.05 44.86L224.05 24.61L230.27 24.61L230.27 17.47L224.05 17.47L224.05 6.79L214.14 6.79L214.14 17.47L208.79 17.47ZM257.84 36.81L257.84 40.54C257.77 43.89 256.82 46.20 255.01 47.46C253.19 48.73 251.20 49.36 249.05 49.36C247.69 49.36 246.53 48.98 245.58 48.22C244.63 47.46 244.16 46.22 244.16 44.51C244.16 42.59 244.93 41.17 246.48 40.25C247.39 39.71 248.91 39.26 251.02 38.88L253.27 38.46C254.39 38.25 255.28 38.02 255.92 37.78C256.56 37.53 257.20 37.21 257.84 36.81ZM251.75 32.13L248.34 32.55C244.48 33.05 241.55 33.87 239.55 35.02C235.92 37.13 234.11 40.54 234.11 45.25C234.11 48.88 235.24 51.69 237.50 53.67C239.76 55.65 242.62 56.64 246.09 56.64C248.81 56.64 251.25 56.02 253.41 54.77C255.21 53.72 256.80 52.44 258.19 50.94C258.26 51.81 258.35 52.58 258.47 53.26C258.59 53.94 258.80 54.67 259.10 55.44L270 55.44L270 53.96C269.34 53.66 268.85 53.27 268.52 52.80C268.20 52.34 268.00 51.45 267.93 50.13C267.88 48.40 267.86 46.92 267.86 45.70L267.86 28.13C267.86 23.51 266.23 20.37 262.97 18.70C259.71 17.04 255.98 16.21 251.79 16.21C245.34 16.21 240.80 17.89 238.15 21.27C236.48 23.43 235.55 26.18 235.34 29.53L245.00 29.53C245.24 28.05 245.71 26.88 246.41 26.02C247.39 24.84 249.07 24.26 251.44 24.26C253.55 24.26 255.15 24.56 256.24 25.15C257.33 25.75 257.87 26.84 257.87 28.41C257.87 29.70 257.16 30.64 255.73 31.25C254.93 31.61 253.61 31.90 251.75 32.13ZM252.28 16.10ZM298.04 16.22C297.91 16.21 297.75 16.21 297.56 16.21C294.56 16.21 292.12 16.99 290.25 18.56C289.10 19.50 287.75 21.25 286.21 23.80L286.21 17.12L276.64 17.12L276.64 55.44L286.73 55.44L286.73 37.13C286.73 34.05 287.12 31.78 287.89 30.30C289.28 27.68 291.98 26.37 296.02 26.37C296.32 26.37 296.72 26.38 297.21 26.40C297.70 26.43 298.27 26.47 298.90 26.54L298.90 16.28C298.45 16.25 298.17 16.24 298.04 16.22ZM327.13 16.10C324.08 23.13 322.56 30.07 322.56 36.91C322.56 42.84 323.73 48.74 326.07 54.60C328.07 59.64 330.96 64.76 334.76 69.96L340.70 69.96L338.55 66.02C335.60 60.59 333.55 54.90 332.40 48.97C331.65 45.11 331.28 40.88 331.28 36.28C331.28 29.16 332.25 22.71 334.20 16.95C335.37 13.50 337.58 8.80 340.84 2.85L335.07 2.78L332.58 6.22C330.63 8.92 328.82 12.21 327.13 16.10ZM360.07 12.62L371.46 12.62C373.97 12.62 376.03 12.89 377.65 13.43C379.52 14.20 380.46 15.80 380.46 18.21C380.46 20.39 379.75 21.91 378.33 22.76C376.92 23.62 375.07 24.05 372.80 24.05L360.07 24.05ZM360.07 32.63L372.97 32.63C375.22 32.65 376.97 32.94 378.21 33.50C380.44 34.51 381.55 36.36 381.55 39.06C381.55 42.25 380.40 44.40 378.11 45.53C376.84 46.14 375.07 46.44 372.80 46.44L360.07 46.44ZM388.41 9.14C385.76 5.55 381.26 3.71 374.91 3.62L349.73 3.62L349.73 55.44L373.22 55.44C375.87 55.44 378.32 55.21 380.58 54.74C382.85 54.27 384.81 53.40 386.47 52.14C387.95 51.04 389.18 49.68 390.16 48.06C391.71 45.62 392.48 42.87 392.48 39.80C392.48 36.82 391.81 34.29 390.46 32.20C389.12 30.12 387.12 28.59 384.47 27.63C386.20 26.74 387.52 25.76 388.41 24.68C390.00 22.76 390.80 20.21 390.80 17.05C390.80 13.98 390.00 11.34 388.41 9.14ZM410.47 26.54C411.74 25.09 413.54 24.36 415.86 24.36C418.00 24.36 419.78 25.05 421.22 26.42C422.67 27.79 423.47 29.80 423.63 32.45L408.06 32.45C408.39 29.96 409.19 28.00 410.47 26.54ZM424.48 17.89C421.92 16.70 419.05 16.10 415.86 16.10C410.50 16.10 406.13 17.87 402.77 21.41C399.40 24.95 397.72 30.04 397.72 36.67C397.72 43.75 399.59 48.86 403.31 52.00C407.04 55.14 411.34 56.71 416.21 56.71C422.12 56.71 426.71 54.84 430.00 51.12C432.11 48.77 433.29 46.46 433.55 44.19L423.32 44.19C422.78 45.32 422.16 46.20 421.45 46.83C420.16 48.00 418.49 48.59 416.43 48.59C414.48 48.59 412.82 48.11 411.43 47.14C409.16 45.60 407.95 42.90 407.81 39.06L434.04 39.06C434.09 35.75 433.98 33.22 433.72 31.46C433.28 28.46 432.30 25.83 430.80 23.55C429.14 20.98 427.03 19.09 424.48 17.89ZM416.57 16.10ZM461.92 36.81L461.92 40.54C461.85 43.89 460.90 46.20 459.09 47.46C457.27 48.73 455.29 49.36 453.13 49.36C451.77 49.36 450.62 48.98 449.67 48.22C448.72 47.46 448.24 46.22 448.24 44.51C448.24 42.59 449.02 41.17 450.56 40.25C451.48 39.71 452.99 39.26 455.10 38.88L457.35 38.46C458.47 38.25 459.36 38.02 460.00 37.78C460.65 37.53 461.29 37.21 461.92 36.81ZM455.84 32.13L452.43 32.55C448.56 33.05 445.63 33.87 443.64 35.02C440.00 37.13 438.19 40.54 438.19 45.25C438.19 48.88 439.32 51.69 441.58 53.67C443.84 55.65 446.71 56.64 450.18 56.64C452.89 56.64 455.33 56.02 457.49 54.77C459.29 53.72 460.89 52.44 462.27 50.94C462.34 51.81 462.43 52.58 462.55 53.26C462.67 53.94 462.88 54.67 463.18 55.44L474.08 55.44L474.08 53.96C473.43 53.66 472.93 53.27 472.61 52.80C472.28 52.34 472.08 51.45 472.01 50.13C471.96 48.40 471.94 46.92 471.94 45.70L471.94 28.13C471.94 23.51 470.31 20.37 467.05 18.70C463.79 17.04 460.07 16.21 455.87 16.21C449.43 16.21 444.88 17.89 442.23 21.27C440.57 23.43 439.63 26.18 439.42 29.53L449.09 29.53C449.32 28.05 449.79 26.88 450.49 26.02C451.48 24.84 453.15 24.26 455.52 24.26C457.63 24.26 459.23 24.56 460.32 25.15C461.41 25.75 461.95 26.84 461.95 28.41C461.95 29.70 461.24 30.64 459.81 31.25C459.01 31.61 457.69 31.90 455.84 32.13ZM456.36 16.10ZM476.89 24.61L482.24 24.61L482.24 48.20C482.24 50.59 482.80 52.36 483.93 53.51C485.66 55.31 488.89 56.13 493.63 55.97L498.38 55.79L498.38 48.30C498.05 48.33 497.71 48.35 497.37 48.36C497.03 48.37 496.71 48.38 496.41 48.38C494.37 48.38 493.15 48.18 492.75 47.79C492.35 47.41 492.15 46.43 492.15 44.86L492.15 24.61L498.38 24.61L498.38 17.47L492.15 17.47L492.15 6.79L482.24 6.79L482.24 17.47L476.89 17.47ZM530.65 9.04C525.80 13.93 523.37 20.91 523.37 29.95C523.37 38.32 525.50 44.91 529.77 49.71C534.04 54.49 539.89 56.88 547.35 56.88C553.37 56.88 558.31 55.11 562.17 51.57C566.02 48.04 568.42 43.44 569.36 37.79L558.63 37.79C557.91 40.46 556.99 42.47 555.89 43.80C553.90 46.29 551.00 47.53 547.21 47.53C543.50 47.53 540.45 46.08 538.05 43.19C535.65 40.29 534.45 35.94 534.45 30.13C534.45 24.32 535.58 19.82 537.86 16.65C540.13 13.47 543.23 11.88 547.17 11.88C551.04 11.88 553.96 13.01 555.93 15.26C557.03 16.52 557.93 18.40 558.63 20.88L569.46 20.88C569.30 17.65 568.10 14.43 565.88 11.21C561.84 5.50 555.47 2.64 546.75 2.64C540.23 2.64 534.87 4.77 530.65 9.04ZM546.43 2.04ZM610.75 42.96C608.23 46.13 604.83 47.71 600.54 47.71C596.25 47.71 592.83 46.13 590.27 42.96C587.72 39.80 586.44 35.30 586.44 29.46C586.44 23.63 587.72 19.13 590.27 15.96C592.83 12.80 596.25 11.21 600.54 11.21C604.83 11.21 608.23 12.80 610.75 15.98C613.27 19.15 614.53 23.65 614.53 29.46C614.53 35.30 613.27 39.80 610.75 42.96ZM617.52 50.84C622.75 45.89 625.36 38.77 625.36 29.46C625.36 19.97 622.75 12.84 617.52 8.09C613.61 4.05 607.95 2.04 600.54 2.04C593.13 2.04 587.47 4.05 583.56 8.09C578.31 12.84 575.68 19.97 575.68 29.46C575.68 38.77 578.31 45.89 583.56 50.84C587.47 54.87 593.13 56.88 600.54 56.88C607.95 56.88 613.61 54.87 617.52 50.84ZM600.54 2.04ZM663.96 3.62L652.61 42.96L641.36 3.62L629.79 3.62L647.30 55.44L657.53 55.44L675.21 3.62ZM691.56 55.44L691.56 3.62L680.80 3.62L680.80 55.44ZM686.18 2.60ZM712.16 12.62L722.14 12.62C727.07 12.62 730.35 14.03 732.01 16.86C733.66 19.68 734.48 23.73 734.48 29.00C734.48 32.82 733.93 36.12 732.83 38.88C730.82 43.92 727.25 46.44 722.14 46.44L712.16 46.44ZM731.99 4.75C729.86 4.04 727.18 3.67 723.97 3.62L701.65 3.62L701.65 55.44L723.97 55.44C731.80 55.44 737.59 52.22 741.34 45.77C744.11 40.99 745.49 35.16 745.49 28.27C745.49 25.55 745.16 22.69 744.50 19.69C743.85 16.69 742.62 13.90 740.81 11.32C738.56 8.13 735.62 5.94 731.99 4.75ZM764.75 16.70C762.90 12.39 760.20 7.75 756.63 2.78L749.07 2.78L751.22 6.71C754.17 12.13 756.22 17.80 757.37 23.73C758.12 27.62 758.50 31.86 758.50 36.46C758.50 43.63 757.45 50.23 755.37 56.25C754.15 59.81 751.99 64.38 748.90 69.96L756.32 69.96L758.81 66.55C760.43 64.49 762.15 61.42 763.98 57.34C767.24 50.05 768.87 42.88 768.87 35.82C768.87 29.40 767.50 23.03 764.75 16.70Z" transform="translate(42.966 265.73) scale(.55116)"/></svg>