<svg xmlns="http://www.w3.org/2000/svg" role="img" viewBox="-0.96 -0.96 49.85 28.79"><clipPath id="a"><path d="M0 0h24v15H0z"/></clipPath><clipPath id="b"><path d="M0 0v6h22v6h-1zm21 0H10.5v13H0v-1z"/></clipPath><path fill="#012169" d="M0 0h48v24H0z"/><path stroke="#fff" stroke-width="2.4" d="M0 0l21 12m0-12L0 12" clip-path="url(#a)"/><path stroke="#c8102e" stroke-width="1.6" d="M0 0l21 12m0-12L0 12" clip-path="url(#b)"/><path stroke="#fff" stroke-width="4" d="M10.5 0v15M0 6h24"/><path stroke="#c8102e" stroke-width="2.4" d="M10.5 0v15M0 6h24"/><path fill="#fff" d="M21 12V9l3-3-3-3V0h27v24H0v-6z"/><path fill="#012169" d="M21 6v3h27V3zM0 15v3h48v-6z"/><path stroke="#c8102e" stroke-width="3" d="M21 4.5h27m-48 9h48m-48 9h48"/><path d="M4.18381 25.0049v.92302c0 .15968.02492.284.07448.37297.09302.16287.2698.2446.52975.2446.26024 0 .43644-.08173.52889-.2446.04955-.08897.07419-.21329.07419-.37297v-.92301h-.31878v.92301c0 .10346-.01217.1788-.03652.22633-.03825.08405-.12084.12636-.24778.12636-.1275 0-.2104-.04231-.24865-.12636-.02434-.04752-.03651-.12287-.03651-.22633v-.92301zm.60423 0zm1.77648.455c-.07303-.06028-.16693-.09013-.28169-.09013-.09186 0-.1675.02231-.2272.06723-.03333.02492-.06868.06607-.10607.12316v-.162h-.28023v1.1085h.2895v-.60105c0-.06869.00928-.1249.0284-.16925.03681-.08346.10433-.1252.20287-.1252.07998 0 .13446.02841.16286.0855.01565.0313.02348.07622.02348.13447v.67552h.29762v-.74768c0-.1394-.03651-.23909-.10954-.29908zm-.38891-.09332zm1.06472-.10288v-.26807H6.9459v.26807zm-.29444.13244v1.11051h.29444v-1.11051zm.46166.21706h.15475v.68364c0 .06926.01652.12055.04898.15388.05013.05216.14403.07593.2811.0713l.13766-.00523v-.21706a.47156.47156 0 0 1-.02898.00174c-.00986.0003-.01913.00058-.02811.00058-.05912 0-.09448-.0058-.10607-.0171-.0113-.011-.0171-.0394-.0171-.0849v-.58685h.18026v-.20692h-.18026v-.3095H7.5623v.3095h-.15475zm1.09051.05593c.0371-.04202.08926-.06318.1565-.06318.06172 0 .1136.02.15533.0597.04173.0397.0652.09795.06984.17475h-.45122c.00927-.07216.03275-.12896.06955-.17127zm.40601-.25068c-.0739-.03448-.15707-.05187-.24951-.05187-.15563 0-.28198.0513-.37964.15388-.09738.1026-.14606.2501-.14606.44224 0 .20517.0539.35326.162.44426.1081.091.2327.1365.37384.1365.17127 0 .30429-.0542.39934-.162.06115-.0681.09564-.13505.10288-.20083h-.29646c-.01565.03274-.03362.05825-.0539.0765-.0374.03391-.08579.051-.14578.051-.05622 0-.10461-.0139-.1446-.04201-.0658-.04463-.10086-.12288-.10491-.23416h.76014c.00116-.09592-.00174-.16924-.00927-.22025-.01304-.08694-.04115-.16316-.08462-.22923-.04811-.07448-.10926-.12925-.18345-.16403zm-.22923-.05187zm1.29106.04753c-.05245-.02956-.11215-.04434-.17939-.04434-.14606 0-.26284.05419-.35007.16286-.08723.10868-.131.25793-.131.44745 0 .16432.04435.29879.13302.40399.08868.1049.19794.15736.32777.15736.07853 0 .1446-.01507.19764-.04492.05275-.02985.09998-.07767.14142-.14374v.15388h.28227v-1.49971h-.29444v.52975c-.03246-.05216-.07506-.09303-.12722-.12258zm.0713.79115c-.0429.06086-.1055.09158-.18751.09158-.0823 0-.14345-.03072-.18402-.09216-.04028-.06144-.06057-.14345-.06057-.24604 0-.09506.02-.17475.0597-.23909.0397-.06404.102-.0962.18692-.0962.05564 0 .10462.01767.14664.05302.06868.05825.10288.15563.10288.29125 0 .09738-.02145.1765-.06405.23764zm1.44464-.162h-.29965c0 .1562.05622.27879.16808.36805.11216.08955.26604.13417.46166.13417.19155 0 .33964-.0455.44455-.1362.1052-.09042.15765-.2046.15765-.34168 0-.13388-.04492-.23618-.13447-.3066-.05796-.0455-.14345-.08202-.25676-.10897l-.2588-.0623c-.09997-.02377-.16518-.04435-.1956-.06202-.04753-.02666-.0713-.06666-.0713-.12027 0-.05854.02406-.10404.07216-.1365.0484-.03274.11274-.04897.19359-.04897.07274 0 .1336.01246.18228.03767.07361.03797.11303.1023.11824.19243h.30168c-.0055-.1594-.06404-.2811-.1759-.36515-.11158-.08375-.24662-.12577-.40485-.12577-.18953 0-.33327.04434-.43094.1333-.09795.08926-.14664.20084-.14664.3353 0 .14751.05043.2559.15157.32516.05999.04144.1678.0797.324.11505l.1591.03565c.09302.02028.16141.04376.20488.07042.04347.02695.0652.0655.0652.11505 0 .0849-.04404.14287-.13156.17417-.04608.01623-.10636.02434-.18026.02434-.12374 0-.21097-.03072-.26197-.09273-.02783-.03391-.04637-.0852-.05594-.1536zm.30458-1.08414zm.72247.65408h.15476v.68364c0 .06926.01623.12055.04897.15388.05014.05216.14404.07593.28111.0713l.13766-.00523v-.21706a.48112.48112 0 0 1-.02927.00174c-.00986.0003-.01913.00058-.02783.00058-.05911 0-.09447-.0058-.10606-.0171-.0116-.011-.01739-.0394-.01739-.0849v-.58685h.18055v-.20692h-.18055v-.3095h-.2872v.3095h-.15474zm1.42118.35355v.1081c-.00202.09708-.02927.16403-.082.20054-.05275.0368-.11013.05506-.17273.05506-.03941 0-.07274-.01101-.10027-.03303-.02753-.02203-.04144-.05796-.04144-.10752 0-.05564.0226-.0968.06723-.12346.02666-.01564.07042-.02869.13157-.0397l.0652-.01217c.03246-.00609.05826-.01275.0768-.0197a.31348.31348 0 0 0 .05564-.02812zm-.1762-.13562l-.09882.01217c-.11215.01449-.19706.03825-.25473.07158-.1052.06115-.15794.15997-.15794.29646 0 .1052.03275.18664.09824.24402.0655.05738.14867.08607.24923.08607.07882 0 .14925-.01797.21184-.0542.05217-.03042.09853-.06752.13853-.11099.00203.02521.00463.04753.00811.06723.00348.01971.00956.04087.01826.06318h.31588v-.04289c-.01884-.0087-.03333-.02-.0426-.03362-.00956-.01333-.01536-.03912-.01739-.07737a4.48817 4.48817 0 0 1-.00203-.12838v-.50918c0-.13389-.04723-.22489-.1417-.27328-.09448-.04811-.20229-.07216-.324-.07216-.18664 0-.3185.04868-.3953.14663-.0481.0626-.07534.1423-.08143.23938h.28024c.00667-.0429.02029-.0768.04057-.10172.0287-.0342.07709-.051.14577-.051.06115 0 .10752.00869.1391.02579.0316.01738.04724.04897.04724.09447 0 .03739-.02057.06463-.06201.0823-.02319.01044-.06144.01884-.11505.0255zm.01508-.46455zm.59524.24662h.15476v.68364c0 .06926.01623.12055.04897.15388.05014.05216.14403.07593.28111.0713l.13765-.00523v-.21706a.48112.48112 0 0 1-.02926.00174c-.00986.0003-.01913.00058-.02783.00058-.05911 0-.09447-.0058-.10606-.0171-.0116-.011-.01739-.0394-.01739-.0849v-.58685h.18055v-.20692h-.18055v-.3095h-.2872v.3095h-.15475zm1.09052.05593c.0371-.04202.08926-.06318.1565-.06318.06172 0 .1136.02.15533.0597.04173.0397.06491.09795.06984.17475h-.45151c.00956-.07216.03275-.12896.06984-.17127zm.40601-.25068c-.0739-.03448-.15736-.05187-.24952-.05187-.15562 0-.28226.0513-.37963.15388-.09738.1026-.14606.2501-.14606.44224 0 .20517.0539.35326.162.44426.1078.091.23241.1365.37384.1365.17098 0 .30429-.0542.39934-.162.06115-.0681.09535-.13505.10288-.20083h-.29646c-.01565.03274-.03362.05825-.0539.0765-.0374.03391-.08608.051-.14578.051-.0565 0-.10461-.0139-.1446-.04201-.06608-.04463-.10086-.12288-.10491-.23416h.75985c.00145-.09592-.00174-.16924-.00898-.22025-.01304-.08694-.04115-.16316-.08462-.22923-.0484-.07448-.10955-.12925-.18345-.16403zm-.22923-.05187zm.92823.78565h-.29444c0 .11389.04144.20778.12462.28168.08317.07361.21213.11042.38688.11042.17098 0 .29762-.03478.37935-.10433.08201-.06955.12287-.1594.12287-.26952 0-.08346-.02869-.1533-.08578-.20894-.05767-.05506-.14432-.09593-.25966-.12317-.1733-.03796-.27415-.06491-.30255-.08056-.02869-.01478-.04289-.03913-.04289-.07216 0-.02666.01333-.04985.04028-.06955.02695-.01942.07187-.02927.13505-.02927.0768 0 .13099.01941.16287.05883.0171.02173.02753.05129.03158.08867h.29038c-.01275-.13562-.06288-.23126-.15011-.2866-.08723-.05536-.20025-.08318-.33878-.08318-.14606 0-.25937.0368-.33993.1107-.08028.07361-.12056.16171-.12056.2643 0 .08694.0258.1536.07738.19967.05158.04695.14026.08578.26603.11708.17446.04144.27531.07071.30255.08781.02695.01681.04058.04173.04058.07419 0 .0339-.01681.0594-.05043.0765-.03362.01682-.07883.02551-.13592.02551-.09708 0-.16373-.01942-.19967-.05825-.02028-.02174-.03361-.05825-.0397-.10983zm.22199-.78565zm1.2044.42079v.27502h.58482v-.27502zm1.38351.71928h.31067v-.6703h.58684v.6703h.31183v-1.50174h-.31183v.57264h-.58684v-.57264h-.31067zm2.09786-.5399v.1081c-.00232.09708-.02956.16403-.0823.20054-.05245.0368-.11012.05506-.17243.05506-.03941 0-.07303-.01101-.10056-.03303-.02753-.02203-.04115-.05796-.04115-.10752 0-.05564.02231-.0968.06723-.12346.02637-.01564.07042-.02869.13128-.0397l.0652-.01217c.03275-.00609.05825-.01275.0771-.0197a.33441.33441 0 0 0 .05563-.02812zm-.17649-.13562l-.09882.01217c-.11186.01449-.19677.03825-.25473.07158-.1052.06115-.15794.15997-.15794.29646 0 .1052.03303.18664.09853.24402.0655.05738.14838.08607.24894.08607.07882 0 .14953-.01797.21213-.0542a.59981.59981 0 0 0 .13853-.11099c.00202.02521.00463.04753.00811.06723.00319.01971.00956.04087.01826.06318h.31588v-.04289c-.01913-.0087-.03333-.02-.0429-.03362-.00955-.01333-.01506-.03912-.01738-.07737-.00116-.05014-.00203-.09303-.00203-.12838v-.50918c0-.13389-.04695-.22489-.14142-.27328-.09448-.04811-.20257-.07216-.324-.07216-.18692 0-.31849.04868-.39528.14663-.0484.0626-.07535.1423-.08144.23938h.27995c.00695-.0429.02057-.0768.04086-.10172.0284-.0342.07709-.051.14577-.051.06115 0 .10752.00869.1391.02579.0316.01738.04724.04897.04724.09447 0 .03739-.02057.06463-.06202.0823-.02318.01044-.06172.01884-.11534.0255zm.01536-.46455zm1.23281.02956l-.15997.79666-.1733-.79666h-.31153l.31153 1.11051h.30168l.1762-.80883.17417.80883h.2985l.32196-1.11051h-.30255l-.173.79985-.16925-.79985zm1.71156.57061v.1081c-.00203.09708-.02927.16403-.08201.20054-.05246.0368-.11013.05506-.17272.05506-.03942 0-.07274-.01101-.10027-.03303-.02753-.02203-.04116-.05796-.04116-.10752 0-.05564.02232-.0968.06724-.12346.02637-.01564.07013-.02869.13128-.0397l.0652-.01217c.03275-.00609.05825-.01275.07709-.0197a.32122.32122 0 0 0 .05535-.02812zm-.1762-.13562l-.09882.01217c-.11215.01449-.19706.03825-.25473.07158-.1052.06115-.15794.15997-.15794.29646 0 .1052.03274.18664.09824.24402.06578.05738.14867.08607.24923.08607.07882 0 .14953-.01797.21184-.0542a.58784.58784 0 0 0 .13852-.11099.84173.84173 0 0 0 .00812.06723c.00348.01971.00956.04087.01855.06318h.31588v-.04289c-.01913-.0087-.03333-.02-.0429-.03362-.00956-.01333-.01535-.03912-.01738-.07737a4.48817 4.48817 0 0 1-.00203-.12838v-.50918c0-.13389-.04724-.22489-.14171-.27328-.09419-.04811-.20228-.07216-.3237-.07216-.18693 0-.31879.04868-.39558.14663-.04811.0626-.07535.1423-.08144.23938h.28024c.00666-.0429.02028-.0768.04086-.10172.0284-.0342.07709-.051.14548-.051.06115 0 .10752.00869.1391.02579.0316.01738.04753.04897.04753.09447 0 .03739-.02086.06463-.0623.0823-.0229.01044-.06144.01884-.11506.0255zm.01536-.46455zm1.00764-.10288v-.26807h-.29444v.26807zm-.29444.13244v1.11051h.29444v-1.11051zm.87404-.13244v-.26807h-.29444v.26807zm-.29444.13244v1.11051h.29444v-1.11051zm1.22354-.02956c-.0881.20373-.13244.40485-.13244.60307 0 .17185.0339.34284.102.51266.05768.14606.14172.29443.25155.44513h.17214l-.06201-.11418c-.0855-.15736-.1449-.32226-.17823-.4941-.02173-.11187-.03275-.23446-.03275-.36777 0-.20633.02811-.39325.08462-.56018.03391-.09998.09825-.23619.19243-.40862l-.16692-.00203-.07245.0997c-.05622.07824-.10897.17359-.15794.28632zm1.06066.57264l.19359-.5909.1875.5909zm.01942-.93431l-.53584 1.50174h.32805l.10375-.30864h.55323l.0968.30864h.34022l-.53178-1.50174zm.17533 0zm1.17456 1.50174v-1.50174h-.29038v1.50174zm.9772-.2953c-.0455.06027-.1107.0907-.19561.0907s-.1504-.03043-.1962-.0907c-.04578-.06057-.06868-.14635-.06868-.25793 0-.11128.0229-.19706.06868-.25734.0458-.05999.11129-.09013.1962-.09013.08491 0 .15012.03014.19561.09013.0455.06028.0681.14606.0681.25734 0 .11158-.0226.19736-.0681.25792zm.23213.16025c.0939-.11563.14056-.25502.14056-.41818 0-.16026-.04666-.29907-.14056-.41673-.0936-.11737-.2359-.1762-.42687-.1762-.19098 0-.33327.05883-.42688.1762-.0936.11766-.14055.25647-.14055.41673 0 .16316.04695.30255.14055.41818.0936.11592.2359.17388.42688.17388.19098 0 .33327-.05796.42687-.17388zm-.42687-1.00502zm1.57448.0368c-.05593-.02376-.11824-.03564-.18692-.03564-.06115 0-.1194.01275-.17475.03825-.05535.02521-.10404.07042-.14606.13476v-.53063h-.28922v1.49653h.28922v-.60104c0-.09506.0197-.16838.0597-.21967.0397-.0513.09795-.0768.17475-.0768.0739 0 .12404.0258.1507.07738.02028.0368.03043.0849.03043.1446v.67553h.29646v-.65205c0-.09911-.00319-.1707-.01014-.21445-.00667-.04376-.0255-.08636-.05593-.1278-.03594-.04898-.08202-.0852-.13824-.10897zm1.08762.56337v.1081c-.00203.09708-.02927.16403-.08201.20054-.05246.0368-.11013.05506-.17243.05506-.03942 0-.07303-.01101-.10056-.03303-.02753-.02203-.04115-.05796-.04115-.10752 0-.05564.02231-.0968.06723-.12346.02637-.01564.07013-.02869.13128-.0397l.0652-.01217c.03275-.00608.05825-.01275.07709-.0197a.32122.32122 0 0 0 .05535-.02812zm-.1762-.13562l-.09882.01217c-.11215.01449-.19677.03825-.25473.07158-.1052.06115-.15794.15997-.15794.29646 0 .1052.03274.18664.09853.24402.0655.05738.14838.08607.24894.08607.07882 0 .14953-.01797.21184-.0542a.59532.59532 0 0 0 .13881-.11099c.00203.02521.00464.04753.00812.06723.00319.01971.00927.04087.01826.06318h.31588v-.04289c-.01913-.0087-.03333-.02-.0429-.03362-.00956-.01333-.01535-.03912-.01738-.07737-.00116-.05014-.00203-.09303-.00203-.12838v-.50918c0-.13389-.04724-.22489-.14142-.27328-.09448-.04811-.20257-.07216-.324-.07216-.18692 0-.31878.04868-.39528.14663-.0484.0626-.07535.1423-.08173.23938h.28024c.00695-.0429.02057-.0768.04086-.10172.0284-.0342.07709-.051.14577-.051.06115 0 .10723.00869.13881.02579.0316.01739.04753.04897.04753.09447 0 .03739-.02086.06463-.0623.0823-.0229.01044-.06144.01884-.11506.0255zm.01536-.46455zm1.53942.67668h-.29965c0 .1562.05622.27879.16837.36805.11186.08955.26575.13417.46136.13417.19156 0 .33994-.0455.44485-.1362.1049-.09042.15736-.2046.15736-.34168 0-.13388-.04492-.23618-.13447-.3066-.05767-.0455-.14345-.08202-.25676-.10897l-.2588-.0623c-.09998-.02377-.16518-.04435-.1956-.06202-.04754-.02666-.0713-.06666-.0713-.12027 0-.05854.02405-.10404.07216-.1365.0484-.03274.11273-.04897.19359-.04897.07274 0 .1336.01246.18257.03767.07332.03797.11273.1023.11795.19243h.30168c-.0055-.1594-.06404-.2811-.17562-.36515-.11186-.08375-.2469-.12577-.40514-.12577-.18953 0-.33298.04434-.43093.1333-.09766.08926-.14664.20084-.14664.3353 0 .14751.05043.2559.15186.32516.0597.04144.16779.0797.324.11505l.1588.03565c.09303.02028.16142.04376.2049.07042.04346.02695.0652.0655.0652.11505 0 .0849-.04376.14287-.13157.17417-.04608.01623-.10636.02434-.18026.02434-.12374 0-.21097-.03072-.26198-.09273-.02782-.03391-.04637-.0852-.05593-.1536zm.30458-1.08414zm1.44871 1.00763v.1081c-.00203.09708-.02927.16403-.08201.20054-.05246.0368-.11013.05506-.17243.05506-.03942 0-.07303-.01101-.10056-.03303-.02754-.02203-.04116-.05796-.04116-.10752 0-.05564.02232-.0968.06724-.12346.02637-.01564.07013-.02869.13128-.0397l.0652-.01217c.03275-.00608.05825-.01275.07709-.0197a.32122.32122 0 0 0 .05535-.02812zm-.1762-.13562l-.09882.01217c-.11186.01449-.19677.03825-.25473.07158-.1052.06115-.15795.15997-.15795.29646 0 .1052.03275.18664.09854.24402.0655.05738.14837.08607.24894.08607.07882 0 .14953-.01797.21184-.0542a.59532.59532 0 0 0 .13881-.11099c.00203.02521.00464.04753.00812.06723.00319.01971.00956.04087.01825.06318h.31589v-.04289c-.01913-.0087-.03333-.02-.0429-.03362-.00956-.01333-.01535-.03912-.01738-.07737-.00116-.05014-.00203-.09303-.00203-.12838v-.50918c0-.13389-.04695-.22489-.14142-.27328-.09448-.04811-.20257-.07216-.324-.07216-.18692 0-.31849.04868-.39529.14663-.0484.0626-.07534.1423-.08172.23938h.28024c.00695-.0429.02057-.0768.04086-.10172.0284-.0342.07709-.051.14577-.051.06115 0 .10722.00869.13881.02579.0316.01739.04753.04897.04753.09447 0 .03739-.02087.06463-.06202.0823-.02318.01044-.06173.01884-.11534.0255zm.01536-.46455zm1.16848-.3753a.64646.64646 0 0 0-.04985-.00173c-.16084 0-.26256.03333-.30458.09998-.04.04492-.05999.12664-.05999.24546v.0713h-.1591v.20488h.162v.89548h.2895v-.89548h.1904v-.20489h-.1904v-.0936c0-.02174.00725-.04174.02174-.0597.0145-.01797.04116-.02638.0794-.0255.03855.00115.0658.0026.08202.00463v-.23648a3.10888 3.10888 0 0 0-.06114-.00434zm.51729.67785c.0368-.04202.08897-.06318.1562-.06318.06202 0 .1136.02.15533.0597.04173.0397.0652.09795.06984.17475h-.45121c.00956-.07216.03274-.12896.06984-.17127zm.406-.25068c-.07418-.03448-.15735-.05187-.2498-.05187-.15562 0-.28198.0513-.37935.15388-.09766.1026-.14635.2501-.14635.44224 0 .20517.0539.35326.162.44426.1081.091.23271.1365.37384.1365.17127 0 .3043-.0542.39964-.162.06086-.0681.09534-.13505.10288-.20083h-.29647c-.01565.03274-.03362.05825-.0542.0765-.03738.03391-.08577.051-.14576.051-.05622 0-.10433-.0139-.14461-.04201-.06579-.04463-.10085-.12288-.1049-.23416h.76014c.00116-.09592-.00174-.16924-.00928-.22025-.01275-.08694-.04115-.16316-.08462-.22923-.0481-.07448-.10925-.12925-.18315-.16403zm-.22922-.05187zm1.71561.57264l.19359-.5909.1875.5909zm.01942-.93431l-.53613 1.50174h.32805l.10404-.30864h.55323l.0968.30864h.34022l-.53179-1.50174zm.17504 0zm1.17485 1.50174v-1.50174h-.29038v1.50174zm.56482-.83752c.0371-.04202.08926-.06318.15649-.06318.06173 0 .1136.02.15533.0597.04173.0397.06492.09795.06984.17475h-.4515c.00956-.07216.03303-.12896.06984-.17127zm.406-.25068c-.0739-.03448-.15706-.05187-.24951-.05187-.15562 0-.28198.0513-.37964.15388-.09737.1026-.14606.2501-.14606.44224 0 .20517.0539.35326.162.44426.1078.091.23271.1365.37384.1365.17127 0 .3043-.0542.39935-.162.06114-.0681.09534-.13505.10288-.20083h-.29647c-.01565.03274-.03362.05825-.0539.0765-.03739.03391-.08607.051-.14577.051-.05622 0-.10462-.0139-.14461-.04201-.06579-.04463-.10085-.12288-.10491-.23416h.75986c.00144-.09592-.00145-.16924-.00899-.22025-.01304-.08694-.04115-.16316-.08462-.22923-.0481-.07448-.10925-.12925-.18344-.16403zm-.22922-.05187zm1.31888.00348c-.00377-.0003-.0084-.0003-.01363-.0003-.08694 0-.15765.02261-.21213.0681-.03304.02725-.07216.07796-.11708.15186v-.19358h-.27705v1.11051h.29241v-.53062c0-.08926.0113-.15505.03362-.19794.03999-.07592.11853-.11389.23532-.11389a.90017.90017 0 0 1 .03477.00087.96854.96854 0 0 1 .04869.00406v-.29734c-.01275-.00087-.02116-.00115-.02493-.00173zm.08114.24314h.15475v.68364c0 .06926.01623.12055.04898.15388.05013.05216.14403.07593.2811.0713l.13766-.00523v-.21706a.47156.47156 0 0 1-.02898.00174c-.00985.0003-.01942.00058-.02811.00058-.05912 0-.09448-.0058-.10607-.0171-.01159-.011-.01739-.0394-.01739-.0849v-.58685h.18055v-.20692h-.18055v-.3095h-.28719v.3095h-.15475zm1.15427-.22923c-.05361-.1249-.13215-.25938-.23532-.4034h-.21908l.06201.11389c.08578.15707.1452.32138.17852.49324.02173.11273.03246.2356.03246.36891 0 .20779-.03014.39906-.09071.57351-.03536.10317-.09766.23561-.1875.39732h.21503l.07245-.09882c.04666-.0597.0968-.14867.14983-.2669.09418-.21127.14142-.41906.14142-.62366 0-.18605-.0397-.37065-.1191-.5541z"/></svg>