<svg id="artwork" xmlns="http://www.w3.org/2000/svg" viewBox="0 0 346 240"><metadata><?xpacket begin="﻿" id="W5M0MpCehiHzreSzNTczkc9d"?>
<x:xmpmeta xmlns:x="adobe:ns:meta/" x:xmptk="Adobe XMP Core 6.0-c002 79.164352, 2020/01/30-15:50:38        ">
   <rdf:RDF xmlns:rdf="http://www.w3.org/1999/02/22-rdf-syntax-ns#">
      <rdf:Description rdf:about=""
            xmlns:lr="http://ns.adobe.com/lightroom/1.0/"
            xmlns:dc="http://purl.org/dc/elements/1.1/"
            xmlns:xmp="http://ns.adobe.com/xap/1.0/"
            xmlns:xmpMM="http://ns.adobe.com/xap/1.0/mm/"
            xmlns:stEvt="http://ns.adobe.com/xap/1.0/sType/ResourceEvent#">
         <lr:hierarchicalSubject>
            <rdf:Bag>
               <rdf:li>open source identity</rdf:li>
               <rdf:li>open source identity|Herald</rdf:li>
               <rdf:li>open source identity|661330</rdf:li>
            </rdf:Bag>
         </lr:hierarchicalSubject>
         <dc:subject>
            <rdf:Bag>
               <rdf:li>open source identity</rdf:li>
               <rdf:li>Herald</rdf:li>
               <rdf:li>661330</rdf:li>
            </rdf:Bag>
         </dc:subject>
         <xmp:MetadataDate>2020-10-16T15:00:25-07:00</xmp:MetadataDate>
         <xmpMM:InstanceID>xmp.iid:90e82b27-20a0-4a25-b8a6-00e2396dd1c7</xmpMM:InstanceID>
         <xmpMM:DocumentID>xmp.did:f04d5f08-3095-43ea-8bae-3a9961414147</xmpMM:DocumentID>
         <xmpMM:OriginalDocumentID>xmp.did:f04d5f08-3095-43ea-8bae-3a9961414147</xmpMM:OriginalDocumentID>
         <xmpMM:History>
            <rdf:Seq>
               <rdf:li>
                  <rdf:Description>
                     <stEvt:action>saved</stEvt:action>
                     <stEvt:instanceID>xmp.iid:f04d5f08-3095-43ea-8bae-3a9961414147</stEvt:instanceID>
                     <stEvt:when>2020-10-16T15:00:17-07:00</stEvt:when>
                     <stEvt:softwareAgent>Adobe Bridge 2020 (Macintosh)</stEvt:softwareAgent>
                     <stEvt:changed>/metadata</stEvt:changed>
                  </rdf:Description>
               </rdf:li>
               <rdf:li>
                  <rdf:Description>
                     <stEvt:action>saved</stEvt:action>
                     <stEvt:instanceID>xmp.iid:90e82b27-20a0-4a25-b8a6-00e2396dd1c7</stEvt:instanceID>
                     <stEvt:when>2020-10-16T15:00:25-07:00</stEvt:when>
                     <stEvt:softwareAgent>Adobe Bridge 2020 (Macintosh)</stEvt:softwareAgent>
                     <stEvt:changed>/metadata</stEvt:changed>
                  </rdf:Description>
               </rdf:li>
            </rdf:Seq>
         </xmpMM:History>
      </rdf:Description>
   </rdf:RDF>
</x:xmpmeta>
                                                                                                    
                                                                                                    
                                                                                                    
                                                                                                    
                                                                                                    
                                                                                                    
                                                                                                    
                                                                                                    
                                                                                                    
                                                                                                    
                                                                                                    
                                                                                                    
                                                                                                    
                           
<?xpacket end="w"?></metadata>
<defs><style>.cls-1{fill:#706f73;}.cls-2{fill:#727174;}.cls-3{fill:#fff;}.cls-4{fill:#ec7700;}.cls-5{fill:#794499;}.cls-6{fill:#1e4488;}</style></defs><path class="cls-1" d="M91.17,162.4v41.22H86.49V184.84H62.19v18.78H57.51V162.4h4.68v18h24.3v-18Z"/><path class="cls-1" d="M107.19,166.84V180.4h22.38v4.44H107.19v14.34H132v4.44H102.45V162.4H132v4.44Z"/><path class="cls-1" d="M170.4,181.84a13.18,13.18,0,0,1-4.59,4.62,16,16,0,0,1-6.6,2.22l10.5,14.94h-5.34L153.93,188.8h-9.12v14.82h-4.68V162.4h16.74a17.43,17.43,0,0,1,7.68,1.68,13.45,13.45,0,0,1,5.49,4.71,12.58,12.58,0,0,1,.36,13.05Zm-25.59,2.52H156a13.23,13.23,0,0,0,8.19-2.34,8.21,8.21,0,0,0,0-12.84,13.23,13.23,0,0,0-8.19-2.34H144.81Z"/><path class="cls-1" d="M206.91,194.26h-23l-4.14,9.36h-5.1l18.18-41.22H198l18.18,41.22h-5.1ZM205,189.82l-9.54-21.66-9.6,21.66Z"/><path class="cls-1" d="M249.57,199.18v4.44H222.39V162.4h4.68v36.78Z"/><path class="cls-1" d="M255.81,162.4h13.92A24.64,24.64,0,0,1,281.28,165a19.73,19.73,0,0,1,7.92,7.32,21.27,21.27,0,0,1,0,21.27,19.66,19.66,0,0,1-7.92,7.35,24.64,24.64,0,0,1-11.55,2.64H255.81Zm13.92,37a19.22,19.22,0,0,0,9.09-2.1,15.65,15.65,0,0,0,6.24-5.82,17,17,0,0,0,0-16.89,15.72,15.72,0,0,0-6.24-5.79,19.22,19.22,0,0,0-9.09-2.1h-9.24v32.7Z"/><path class="cls-2" d="M174.24,26.38a52.5,52.5,0,1,0,52.5,52.5A52.51,52.51,0,0,0,174.24,26.38Zm.19,98.09a45.75,45.75,0,1,1,45.75-45.75A45.75,45.75,0,0,1,174.43,124.47Z"/><circle class="cls-3" cx="174.43" cy="78.72" r="45.75"/><rect class="cls-4" x="145.8" y="67.8" width="2.77" height="3" transform="translate(-15.48 71.95) rotate(-26.15)"/><rect class="cls-4" x="150.77" y="65.36" width="2.77" height="3" transform="translate(-13.89 73.89) rotate(-26.15)"/><rect class="cls-4" x="140.82" y="70.24" width="2.77" height="3" transform="translate(-17.06 69.97) rotate(-26.13)"/><path class="cls-4" d="M137.82,72.22l-1.61.79a11,11,0,1,0-.11,11.83l1.7.82,1.3-2.7-1.72-.83a10.85,10.85,0,0,0,.06-6.38l1.7-.83Z"/><rect class="cls-4" x="140.73" y="84.73" width="3" height="2.8" transform="translate(2.99 177.01) rotate(-64.33)"/><rect class="cls-4" x="150.82" y="89.58" width="3" height="2.8" transform="translate(4.34 188.85) rotate(-64.33)"/><rect class="cls-4" x="145.78" y="87.15" width="3" height="2.8" transform="translate(3.66 182.93) rotate(-64.33)"/><rect class="cls-5" x="176.53" y="47.02" width="3.2" height="3" transform="translate(17.86 140.17) rotate(-45)"/><rect class="cls-5" x="181.05" y="42.5" width="3.2" height="3" transform="translate(22.38 142.04) rotate(-45)"/><rect class="cls-5" x="181.01" y="111.56" width="3" height="3.08" transform="translate(-25.9 164.75) rotate(-45.71)"/><rect class="cls-5" x="176.59" y="107.25" width="3" height="3.09" transform="translate(-24.13 160.36) rotate(-45.72)"/><rect class="cls-5" x="183.83" y="72.47" width="3" height="3.08" transform="matrix(0.54, -0.84, 0.84, 0.54, 22.82, 189.84)"/><rect class="cls-5" x="194.18" y="79.13" width="3" height="3.08" transform="translate(21.98 201.62) rotate(-57.25)"/><rect class="cls-5" x="189" y="75.8" width="3" height="3.08" transform="translate(22.42 195.76) rotate(-57.26)"/><rect class="cls-5" x="178.65" y="69.14" width="3" height="3.08" transform="translate(23.25 183.96) rotate(-57.25)"/><rect class="cls-5" x="204.54" y="85.79" width="3" height="3.08" transform="translate(21.15 213.41) rotate(-57.26)"/><rect class="cls-5" x="199.36" y="82.46" width="3" height="3.08" transform="translate(21.58 207.53) rotate(-57.26)"/><rect class="cls-5" x="199.94" y="70.67" width="3.13" height="3" transform="translate(-5.57 126.33) rotate(-34.36)"/><rect class="cls-5" x="185.57" y="80.42" width="3.13" height="3" transform="translate(-13.59 119.89) rotate(-34.35)"/><rect class="cls-5" x="194.78" y="74.2" width="3.13" height="3" transform="translate(-8.46 124.03) rotate(-34.36)"/><rect class="cls-5" x="180.41" y="83.95" width="3.13" height="3" transform="translate(-16.47 117.62) rotate(-34.36)"/><rect class="cls-5" x="175.25" y="87.48" width="3.13" height="3" transform="translate(-19.37 115.33) rotate(-34.36)"/><rect class="cls-5" x="205.11" y="67.15" width="3.13" height="3" transform="translate(-2.68 128.63) rotate(-34.36)"/><path class="cls-5" d="M164.82,72.13a11,11,0,0,0,8.52-4l2.11,1.36,1.63-2.53-2.18-1.4a10.95,10.95,0,0,0-1-10.63L175.8,53l-2.12-2.12-1.83,1.83a11,11,0,1,0-7,19.45Z"/><path class="cls-5" d="M176.18,96.53a11,11,0,1,0-4.06,8.53l1.61,1.57,2.1-2.14-1.66-1.63A11,11,0,0,0,176.18,96.53Z"/><circle class="cls-6" cx="192.78" cy="122.53" r="11" transform="translate(5.8 253.74) rotate(-67.5)"/><circle class="cls-6" cx="192.78" cy="34.49" r="11" transform="translate(-2.77 45.21) rotate(-13.28)"/><circle class="cls-6" cx="218.21" cy="61.13" r="11" transform="translate(20.69 172.2) rotate(-45)"/><circle class="cls-6" cx="218.21" cy="96.53" r="11" transform="translate(-4.34 182.57) rotate(-45)"/></svg>