<svg id="Layer_1" data-name="Layer 1" xmlns="http://www.w3.org/2000/svg" viewBox="0 0 292 332.64898"><defs><style>.cls-1{fill:#073ff5;}</style></defs><path class="cls-1" d="M3.93494,327.42383V290.45117h7.67529v14.09668H25.98279V290.45117h7.67578v36.97266H25.98279V310.919H11.61023v16.50488Z"/><path class="cls-1" d="M63.82019,324.0791q-3.46143,4.27294-10.50977,4.27246-7.04881,0-10.51025-4.27246a16.96332,16.96332,0,0,1,0-20.53808q3.46216-4.33594,10.51025-4.33594T63.82019,303.541a16.96328,16.96328,0,0,1,0,20.53808ZM58.101,320.12793a12.763,12.763,0,0,0,0-12.66113A5.68206,5.68206,0,0,0,53.285,305.25a5.7165,5.7165,0,0,0-4.82861,2.2168,12.68314,12.68314,0,0,0,0,12.66113,5.703,5.703,0,0,0,4.82861,2.22949A5.6687,5.6687,0,0,0,58.101,320.12793Z"/><path class="cls-1" d="M85.80457,300.083h7.249l4.16406,19.69043,4.26416-19.69043h7.44971l-7.92627,27.34082H93.65564l-4.28906-19.916-4.33936,19.916h-7.4248L69.92712,300.083h7.6753l4.26416,19.61523Z"/><path class="cls-1" d="M118.98914,290.45117,123.871,311.624l1.063,5.8916,1.06641-5.77148,4.17578-21.293h8.15234l4.39307,21.16992,1.125,5.89453,1.1416-5.666,4.92871-21.39844h7.86621l-10.40185,36.97266h-7.39747l-4.46484-21.62207-1.3042-7.14844-1.3042,7.14844-4.46484,21.62207h-7.17481L110.787,290.45117Z"/><path class="cls-1" d="M179.29578,300.63672a11.12328,11.12328,0,0,1,4.72461,4.04492,13.44552,13.44552,0,0,1,2.17773,5.65234,34.9356,34.9356,0,0,1,.23633,5.42579H166.52136q.16553,4.11474,2.8584,5.76953a7.26758,7.26758,0,0,0,3.94238,1.02832,5.55179,5.55179,0,0,0,5.44043-3.13574h7.29785a8.92255,8.92255,0,0,1-2.64941,4.9414q-3.67383,3.98877-10.28613,3.98828a14.90788,14.90788,0,0,1-9.63086-3.36328q-4.17187-3.36474-4.17188-10.94629,0-7.10449,3.76661-10.89551a13.1837,13.1837,0,0,1,9.77734-3.791A15.57546,15.57546,0,0,1,179.29578,300.63672Zm-10.69434,6.17578a7.4207,7.4207,0,0,0-1.9043,4.23242h12.31543a5.9625,5.9625,0,0,0-1.90429-4.32031A6.2657,6.2657,0,0,0,172.868,305.25,5.6689,5.6689,0,0,0,168.60144,306.8125Z"/><path class="cls-1" d="M191.13953,290.502h26.3623v6.4961h-18.6875V305.501h16.37988v6.42187H198.81433v15.501h-7.6748Z"/><path class="cls-1" d="M240.27136,300.63672a11.12322,11.12322,0,0,1,4.72461,4.04492,13.44567,13.44567,0,0,1,2.17774,5.65234,34.93459,34.93459,0,0,1,.23632,5.42579H227.497q.16553,4.11474,2.8584,5.76953a7.26758,7.26758,0,0,0,3.94238,1.02832,5.55179,5.55179,0,0,0,5.44043-3.13574H247.036a8.92255,8.92255,0,0,1-2.64941,4.9414q-3.67383,3.98877-10.28614,3.98828a14.90788,14.90788,0,0,1-9.63086-3.36328q-4.17187-3.36474-4.17187-10.94629,0-7.10449,3.7666-10.89551a13.1837,13.1837,0,0,1,9.77734-3.791A15.57543,15.57543,0,0,1,240.27136,300.63672ZM229.577,306.8125a7.42063,7.42063,0,0,0-1.9043,4.23242h12.31543a5.96247,5.96247,0,0,0-1.9043-4.32031,6.26567,6.26567,0,0,0-4.24023-1.47461A5.66889,5.66889,0,0,0,229.577,306.8125Z"/><path class="cls-1" d="M269.35535,300.63672a11.12328,11.12328,0,0,1,4.72461,4.04492,13.44552,13.44552,0,0,1,2.17773,5.65234,34.9356,34.9356,0,0,1,.23633,5.42579H256.58093q.16552,4.11474,2.8584,5.76953a7.26758,7.26758,0,0,0,3.94238,1.02832,5.55179,5.55179,0,0,0,5.44043-3.13574H276.12a8.92263,8.92263,0,0,1-2.64942,4.9414q-3.67383,3.98877-10.28613,3.98828a14.90788,14.90788,0,0,1-9.63086-3.36328q-4.17187-3.36474-4.17188-10.94629,0-7.10449,3.76661-10.89551a13.1837,13.1837,0,0,1,9.77734-3.791A15.57546,15.57546,0,0,1,269.35535,300.63672ZM258.661,306.8125a7.4207,7.4207,0,0,0-1.9043,4.23242h12.31543a5.96246,5.96246,0,0,0-1.90429-4.32031,6.2657,6.2657,0,0,0-4.24024-1.47461A5.6689,5.6689,0,0,0,258.661,306.8125Z"/><path class="cls-1" d="M287.92078,327.42383h-7.14844V290.45117h7.14844Z"/><polygon class="cls-1" points="7.105 3 7.105 118.877 42.671 118.877 42.671 75.28 74.795 75.28 74.795 118.877 109.214 118.877 109.214 3 75.943 3 75.943 31.682 41.524 31.682 41.524 3 7.105 3"/><polygon class="cls-1" points="127.571 3 156.254 118.877 189.525 118.877 207.882 58.07 222.797 118.877 256.068 118.877 284.751 3 245.743 3 236.564 60.938 220.502 3 191.82 3 174.61 60.938 165.432 3 127.571 3"/><polygon class="cls-1" points="7.105 145.265 7.105 263.436 48.408 263.436 48.408 229.017 87.416 229.017 87.416 200.909 47.26 200.909 47.26 177.389 105.772 177.389 105.772 145.265 7.105 145.265"/><path class="cls-1" d="M201.78146,157.36145c.61129-.48913,1.20013-.74852,1.4601-1.19861,13.11632-22.71173,45.83755-18.58351,59.54188,2.27509,9.78511,14.89336,10.23766,30.8313,3.89264,47.11689-4.7974,12.3132-12.77,22.50474-21.96867,31.82392A198.6593,198.6593,0,0,1,209.313,265.35967c-4.61309,2.92533-9.009,3.483-13.85581.40139-16.51314-10.49893-31.93561-22.29977-44.35-37.5896-11.097-13.66744-18.72294-28.66852-17.59517-47.08235,1.5151-24.73821,22.42672-43.045,45.72851-39.73437C189.47761,142.80922,196.39425,148.93835,201.78146,157.36145Z"/></svg>