<svg id="Layer_1" data-name="Layer 1" xmlns="http://www.w3.org/2000/svg" viewBox="0 0 900 795.16713"><defs><style>.cls-1{fill:#cc2a3e;}.cls-2{fill:#436f4d;}.cls-3{fill:#fefefe;}</style></defs><path class="cls-1" d="M-166.03372,202.42823c0-65.10518.09016-130.21071-.15929-195.31493-.02157-5.6309,1.13767-6.76021,6.76594-6.75784q597.42435.25118,1194.84871,0c5.62834-.00237,6.78758,1.12694,6.766,6.75784-.24955,65.10422-.15934,130.20975-.15934,195.31493-3.44408-.15424-6.88816-.44339-10.33224-.44356q-593.69874-.03046-1187.39754,0C-159.14555,201.98484-162.58963,202.274-166.03372,202.42823Z"/><path class="cls-2" d="M1042.02834,402.46154c0,64.79065-.12085,129.58188.1871,194.37106.03065,6.46637-1.275,7.7307-7.73748,7.72748q-600.25549-.29734-1200.51143-.17813-.00037-100.96017-.00025-201.92041c3.44351.15687,6.887.45107,10.33053.45124q593.70053.031,1187.401,0C1035.14133,402.91255,1038.58484,402.61841,1042.02834,402.46154Z"/><path class="cls-3" d="M1042.02834,402.46154c-3.4435.15687-6.887.451-10.33051.45119q-593.70056.031-1187.401,0c-3.44352-.00017-6.887-.29437-10.33053-.45124V202.42823c3.44409-.15424,6.88817-.44339,10.33228-.44357q593.69876-.03045,1187.39754,0c3.44408.00017,6.88816.28932,10.33224.44356Z"/><path d="M95.47522,713.457v-50.335h10.44922v19.19141h19.56738V663.12206H135.941v50.335H125.49182V690.98729H105.92444V713.457Z"/><path d="M154.96253,676.23534v22.43555a11.79822,11.79822,0,0,0,.74707,4.78027q1.32568,2.83594,5.19824,2.835,4.96143,0,6.79688-4.02929a14.66266,14.66266,0,0,0,.95117-5.77149v-20.25H178.525V713.457h-9.46v-5.25879q-.13477.17139-.68067,1.02442a6.83563,6.83563,0,0,1-1.29394,1.50293,13.51623,13.51623,0,0,1-4.41016,2.7998,15.00876,15.00876,0,0,1-4.98828.751q-8.24121,0-11.10059-5.94141-1.60107-3.27833-1.60058-9.66406V676.23534Z"/><path d="M217.99866,678.36913q3.65478,3.02343,3.65527,10.02344V713.457h-9.9707V690.8164a10.40589,10.40589,0,0,0-.78027-4.50782q-1.42383-2.86816-5.42383-2.86816-4.91455,0-6.74512,4.20019a14.52717,14.52717,0,0,0-.94922,5.66895V713.457h-9.73242V676.3037h9.42481v5.42969a16.48841,16.48841,0,0,1,3.53613-4.13184,12.25134,12.25134,0,0,1,7.583-2.2539A14.26929,14.26929,0,0,1,217.99866,678.36913Z"/><path d="M249.11585,676.20116a11.68716,11.68716,0,0,1,5.72949,5.39551v-5.36133h9.49316v35.30957q0,7.20411-2.4248,10.85938-4.166,6.28271-15.98145,6.2832-7.13672,0-11.64453-2.80078a10.329,10.329,0,0,1-4.98535-8.36621h10.58594a4.381,4.381,0,0,0,1.332,2.459q1.57032,1.33155,5.293,1.332,5.25879,0,7.03418-3.51758,1.16161-2.25439,1.16113-7.58105v-2.39063a11.86667,11.86667,0,0,1-3.00488,3.58594,12.08148,12.08148,0,0,1-7.54688,2.21973,14.28186,14.28186,0,0,1-11.457-5.03711q-4.28466-5.03613-4.28515-13.64258a23.01128,23.01128,0,0,1,4.12695-13.94922q4.12647-5.65137,11.69726-5.65136A12.80476,12.80476,0,0,1,249.11585,676.20116Zm3.31445,26.68652q2.34668-2.57666,2.34668-8.21191,0-5.29395-2.22754-8.05957a7.26854,7.26854,0,0,0-5.96777-2.76562,7.03323,7.03323,0,0,0-7.03906,4.81445,17.1307,17.1307,0,0,0-1.02051,6.31738A14.46686,14.46686,0,0,0,239.61,700.7539a7.09316,7.09316,0,0,0,7.07422,4.71191A7.46954,7.46954,0,0,0,252.4303,702.88768Z"/><path d="M288.16468,690.8164a15.37276,15.37276,0,0,0,3.88671-.85352,2.92755,2.92755,0,0,0,2.09864-2.76563,3.27086,3.27086,0,0,0-1.60938-3.15917,10.17944,10.17944,0,0,0-4.72461-.8711q-3.49658,0-4.95019,1.708a7.04229,7.04229,0,0,0-1.38477,3.415h-9.39062a14.24139,14.24139,0,0,1,2.74316-8.02539q3.876-4.91748,13.30762-4.917a23.74243,23.74243,0,0,1,10.90625,2.42382q4.76659,2.42578,4.7666,9.15235V703.998q0,1.77539.06836,4.30273a5.39727,5.39727,0,0,0,.58105,2.59473,3.46863,3.46863,0,0,0,1.4336,1.127V713.457H295.31116a10.79815,10.79815,0,0,1-.61426-2.11719q-.17139-.99023-.27343-2.2539a20.09158,20.09158,0,0,1-4.6709,3.72265,14.12567,14.12567,0,0,1-7.14453,1.80957,12.32757,12.32757,0,0,1-8.39844-2.88574q-3.31494-2.88574-3.31446-8.17871,0-6.8628,5.332-9.93652a23.80213,23.80213,0,0,1,8.60058-2.39063Zm5.95117,4.542a10.77836,10.77836,0,0,1-1.88672.93945,15.968,15.968,0,0,1-2.61328.665L287.4,697.373a14.581,14.581,0,0,0-4.47364,1.332,4.44581,4.44581,0,0,0-2.29882,4.13183,4.31518,4.31518,0,0,0,1.40429,3.60254,5.33366,5.33366,0,0,0,3.415,1.11035,10.17343,10.17343,0,0,0,5.87793-1.84472q2.68653-1.84423,2.791-6.72657Z"/><path d="M332.99475,675.36425c.125.01172.40332.02929.83692.05175v9.97071q-.92286-.10254-1.63965-.13672c-.47754-.02149-.86523-.03418-1.16113-.03418q-5.874,0-7.8877,3.82519a14.87032,14.87032,0,0,0-1.127,6.625v17.791h-9.80078V676.23534h9.28808v6.48828a20.58248,20.58248,0,0,1,3.92676-5.08789,10.69022,10.69022,0,0,1,7.10352-2.28808C332.71546,675.34765,332.86878,675.3535,332.99475,675.36425Z"/><path d="M341.00159,720.59374l1.22949.06836a15.27326,15.27326,0,0,0,2.73242-.10254,4.91272,4.91272,0,0,0,2.18555-.78516,5.26724,5.26724,0,0,0,1.58789-2.4248,5.86012,5.86012,0,0,0,.63184-2.25391L335.692,676.23534h10.8252l8.12695,27.45508,7.68359-27.45508h10.34668L359.9137,712.84276q-3.69873,10.585-5.85254,13.12989-2.15332,2.543-8.61523,2.54394-1.29931,0-2.085-.01758-.78663-.01758-2.35938-.11914Z"/><path d="M400.35218,675.82518a73.2,73.2,0,0,1,7.88867-13.52246h7.34179l-2.083,3.82422a56.94965,56.94965,0,0,0-5.97559,16.52832,65.30949,65.30949,0,0,0-1.09277,12.36133,58.39688,58.39688,0,0,0,3.03906,19.22559,87.70664,87.70664,0,0,0,6.2832,13.31836h-7.20507l-2.42481-3.3125a44.34445,44.34445,0,0,1-5.01953-8.94727,50.94351,50.94351,0,0,1-4.74707-20.89844A46.371,46.371,0,0,1,400.35218,675.82518Z"/><path d="M451.38733,663.12206h10.92774l-17.16114,50.335h-9.93652l-17.02246-50.335h11.23437L440.35706,701.334Z"/><path d="M476.57093,671.79589h-9.86817v-8.98047h9.86817Zm-9.86817,4.43945h9.86817V713.457h-9.86817Z"/><path d="M506.67347,675.36425c.125.01172.40332.02929.83691.05175v9.97071q-.92286-.10254-1.63965-.13672c-.47754-.02149-.86523-.03418-1.16113-.03418q-5.874,0-7.8877,3.82519a14.87032,14.87032,0,0,0-1.127,6.625v17.791h-9.80078V676.23534h9.28808v6.48828a20.58248,20.58248,0,0,1,3.92676-5.08789,10.69022,10.69022,0,0,1,7.10352-2.28808C506.39417,675.34765,506.54749,675.3535,506.67347,675.36425Z"/><path d="M522.91077,676.23534v22.43555a11.79822,11.79822,0,0,0,.74707,4.78027q1.32569,2.83594,5.19824,2.835,4.96143,0,6.79688-4.02929a14.66248,14.66248,0,0,0,.95117-5.77149v-20.25h9.86914V713.457h-9.46v-5.25879q-.13476.17139-.68067,1.02442a6.83563,6.83563,0,0,1-1.29394,1.50293,13.51623,13.51623,0,0,1-4.41016,2.7998,15.00876,15.00876,0,0,1-4.98828.751q-8.24121,0-11.10058-5.94141-1.60108-3.27833-1.60059-9.66406V676.23534Z"/><path d="M563.47913,701.57323a6.48074,6.48074,0,0,0,1.33789,3.68848q1.81786,1.9453,6.72461,1.94629a10.29027,10.29027,0,0,0,4.581-.85352,2.86056,2.86056,0,0,0,.33008-5.05469q-1.36816-.85254-10.18164-2.93652-6.34423-1.5703-8.93945-3.92676a8.51613,8.51613,0,0,1-2.59473-6.69336,11.59957,11.59957,0,0,1,4.05469-8.86132q4.05615-3.7046,11.41309-3.70508,6.98144,0,11.3789,2.7832,4.396,2.7832,5.04785,9.6123h-9.73242a5.74848,5.74848,0,0,0-1.06152-2.9707q-1.60986-1.98046-5.47852-1.98047a7.8892,7.8892,0,0,0-4.53711.99024,2.84752,2.84752,0,0,0-1.35254,2.32226,2.53962,2.53962,0,0,0,1.43848,2.42481q1.437.78516,10.16113,2.69726,5.81544,1.36671,8.71875,4.13184a9.38255,9.38255,0,0,1,2.86817,7.001,11.30246,11.30246,0,0,1-4.12305,9.03222q-4.12353,3.49952-12.74609,3.5-8.79346,0-12.98536-3.70508a12.04083,12.04083,0,0,1-4.1914-9.44238Z"/><path d="M627.86975,664.41991a12.43673,12.43673,0,0,1,4.71192,3.51758,15.68469,15.68469,0,0,1,2.53027,4.23437,14.10274,14.10274,0,0,1,.93262,5.293,15.08535,15.08535,0,0,1-1.80957,7.05176,10.12139,10.12139,0,0,1-5.97656,4.90039,9.399,9.399,0,0,1,4.93457,3.97754q1.45165,2.57959,1.45117,7.87109v3.38086a25.508,25.508,0,0,0,.27734,4.67871,4.20088,4.20088,0,0,0,1.94238,2.86817V713.457H625.25354q-.479-1.67285-.68261-2.69727a24.7423,24.7423,0,0,1-.44434-4.33691l-.06836-4.67871q-.06445-4.81494-1.66309-6.41992-1.5996-1.604-5.99218-1.60449H606.1305V713.457H595.85218v-50.335h24.07519A21.93445,21.93445,0,0,1,627.86975,664.41991Zm-21.73925,7.44434v13.52246h11.31933a12.04206,12.04206,0,0,0,5.05957-.81934q2.98389-1.43408,2.9834-5.66894,0-4.57471-2.88672-6.14649a10.4291,10.4291,0,0,0-4.86426-.88769Z"/><path d="M660.07483,690.8164a15.37286,15.37286,0,0,0,3.88672-.85352,2.92754,2.92754,0,0,0,2.09863-2.76563,3.27085,3.27085,0,0,0-1.60937-3.15917,10.17947,10.17947,0,0,0-4.72461-.8711q-3.49659,0-4.9502,1.708a7.04228,7.04228,0,0,0-1.38476,3.415h-9.39063a14.2414,14.2414,0,0,1,2.74317-8.02539q3.876-4.91748,13.30761-4.917a23.7424,23.7424,0,0,1,10.90625,2.42382q4.76661,2.42578,4.76661,9.15235V703.998q0,1.77539.06836,4.30273a5.39715,5.39715,0,0,0,.58105,2.59473,3.46867,3.46867,0,0,0,1.43359,1.127V713.457H667.22132a10.79815,10.79815,0,0,1-.61426-2.11719q-.17139-.99023-.27344-2.2539a20.09116,20.09116,0,0,1-4.6709,3.72265,14.12561,14.12561,0,0,1-7.14453,1.80957,12.32759,12.32759,0,0,1-8.39844-2.88574q-3.31494-2.88574-3.31445-8.17871,0-6.8628,5.332-9.93652a23.80225,23.80225,0,0,1,8.60059-2.39063Zm5.95117,4.542a10.77828,10.77828,0,0,1-1.88671.93945,15.96788,15.96788,0,0,1-2.61329.665l-2.21582.41016a14.58094,14.58094,0,0,0-4.47363,1.332,4.4458,4.4458,0,0,0-2.29883,4.13183,4.31519,4.31519,0,0,0,1.4043,3.60254,5.33366,5.33366,0,0,0,3.415,1.11035,10.17345,10.17345,0,0,0,5.87793-1.84472q2.68651-1.84423,2.791-6.72657Z"/><path d="M703.96546,676.833a11.82758,11.82758,0,0,1,4.26855,4.11425V663.19042h9.86914V713.457h-9.459v-5.15625a13.71723,13.71723,0,0,1-4.74707,4.81445,13.32075,13.32075,0,0,1-6.625,1.50293,13.83324,13.83324,0,0,1-10.97852-5.27636q-4.45605-5.27491-4.45605-13.53907,0-9.52734,4.38769-14.99121a14.27624,14.27624,0,0,1,11.73047-5.46386A12.0041,12.0041,0,0,1,703.96546,676.833Zm2.39062,26.51562a13.57278,13.57278,0,0,0,2.15137-7.95605q0-6.82911-3.44922-9.7666a7.42479,7.42479,0,0,0-4.917-1.77539,6.83506,6.83506,0,0,0-6.2666,3.22656,17.40346,17.40346,0,0,0,.03418,16.25488,6.87371,6.87371,0,0,0,6.16406,3.09082A7.18509,7.18509,0,0,0,706.35608,703.34862Z"/><path d="M741.69007,690.8164a15.373,15.373,0,0,0,3.88672-.85352,2.92756,2.92756,0,0,0,2.09863-2.76563,3.27084,3.27084,0,0,0-1.60938-3.15917,10.17944,10.17944,0,0,0-4.72461-.8711q-3.49657,0-4.95019,1.708a7.04229,7.04229,0,0,0-1.38477,3.415h-9.39062a14.24147,14.24147,0,0,1,2.74316-8.02539q3.876-4.91748,13.30762-4.917a23.74243,23.74243,0,0,1,10.90625,2.42382q4.76659,2.42578,4.7666,9.15235V703.998q0,1.77539.06836,4.30273a5.39727,5.39727,0,0,0,.58105,2.59473,3.46863,3.46863,0,0,0,1.4336,1.127V713.457H748.83655a10.79815,10.79815,0,0,1-.61426-2.11719q-.17138-.99023-.27343-2.2539a20.09158,20.09158,0,0,1-4.6709,3.72265,14.12564,14.12564,0,0,1-7.14453,1.80957,12.32757,12.32757,0,0,1-8.39844-2.88574q-3.31494-2.88574-3.31445-8.17871,0-6.8628,5.332-9.93652a23.80219,23.80219,0,0,1,8.60058-2.39063Zm5.95117,4.542a10.77836,10.77836,0,0,1-1.88672.93945,15.968,15.968,0,0,1-2.61328.665l-2.21582.41016a14.58094,14.58094,0,0,0-4.47363,1.332,4.4458,4.4458,0,0,0-2.29883,4.13183,4.31518,4.31518,0,0,0,1.40429,3.60254,5.33366,5.33366,0,0,0,3.415,1.11035,10.17343,10.17343,0,0,0,5.87793-1.84472q2.68653-1.84423,2.791-6.72657Z"/><path d="M786.51917,675.36425c.125.01172.40332.02929.83691.05175v9.97071q-.92285-.10254-1.63965-.13672c-.47754-.02149-.86523-.03418-1.16113-.03418q-5.874,0-7.88769,3.82519a14.87016,14.87016,0,0,0-1.127,6.625v17.791h-9.80078V676.23534H775.028v6.48828a20.58224,20.58224,0,0,1,3.92676-5.08789,10.69018,10.69018,0,0,1,7.10351-2.28808C786.23987,675.34765,786.39319,675.3535,786.51917,675.36425Z"/><path d="M804.608,675.82518a46.42757,46.42757,0,0,1,3.98828,18.57715,51.02247,51.02247,0,0,1-4.73828,20.89844,44.43065,44.43065,0,0,1-5.01075,8.94727l-2.4209,3.3125H789.234a87.88317,87.88317,0,0,0,6.26074-13.31836,58.60286,58.60286,0,0,0,3.02832-19.22559,65.64529,65.64529,0,0,0-1.08886-12.36133,57.12669,57.12669,0,0,0-5.9541-16.52832l-2.0752-3.82422h7.3291A73.28047,73.28047,0,0,1,804.608,675.82518Z"/></svg>