<svg id="Layer_1" data-name="Layer 1" xmlns="http://www.w3.org/2000/svg" viewBox="0 0 900 824.4079"><defs><style>.cls-1{fill:#02529c;}.cls-2{fill:#fff;}.cls-3{fill:#dc1e35;}</style></defs><path class="cls-1" d="M.48369-1.96884H900.86407V646.305H.48369Z"/><path d="M.48369,322.16809H900.86407M324.62063-1.96884V646.305"/><polygon class="cls-2" points="424.619 646.307 224.619 646.307 224.619 422.168 0.484 422.168 0.484 222.168 224.619 222.168 224.619 -1.967 424.619 -1.967 424.619 222.168 900.864 222.168 900.864 422.168 424.619 422.168 424.619 646.307"/><path d="M.48369,322.16809H900.86407M324.62063-1.96884V646.305"/><polygon class="cls-3" points="374.621 646.304 274.621 646.304 274.621 372.168 0.485 372.168 0.485 272.168 274.621 272.168 274.621 -1.969 374.621 -1.969 374.621 272.168 900.864 272.168 900.864 372.168 374.621 372.168 374.621 646.304"/><path d="M86.19847,754.191h-10.459V703.81018h10.459Z"/><path d="M117.54124,730.29944a8.63315,8.63315,0,0,0-1.4043-3.75977,5.897,5.897,0,0,0-5.10547-2.25586q-4.93359,0-6.75,4.8877a20.29191,20.29191,0,0,0-.959,6.88672,18.64931,18.64931,0,0,0,.959,6.58008,6.51493,6.51493,0,0,0,6.57911,4.64843q3.42627,0,4.86523-1.8457a9.17126,9.17126,0,0,0,1.74707-4.78516h9.94629a16.28586,16.28586,0,0,1-3.21582,8.40821q-4.585,6.39258-13.583,6.3916-8.99853,0-13.24023-5.332-4.24365-5.332-4.24317-13.82617,0-9.58594,4.6875-14.91895,4.686-5.332,12.93262-5.332,7.01367,0,11.47852,3.14453,4.46484,3.145,5.28613,11.1084Z"/><path d="M158.46409,717.69006a15.15458,15.15458,0,0,1,6.43848,5.51172,18.31835,18.31835,0,0,1,2.96777,7.70215,47.55785,47.55785,0,0,1,.32129,7.39356H141.05686q.22705,5.606,3.89649,7.86132a9.89058,9.89058,0,0,0,5.37109,1.40137,7.56554,7.56554,0,0,0,7.41309-4.27246h9.94531a12.1582,12.1582,0,0,1-3.61133,6.7334q-5.00536,5.43458-14.01562,5.43457a20.30291,20.30291,0,0,1-13.12305-4.584q-5.68506-4.58349-5.68555-14.915,0-9.68116,5.13282-14.84668,5.13135-5.165,13.32226-5.166A21.20644,21.20644,0,0,1,158.46409,717.69006Zm-14.57226,8.415a10.11961,10.11961,0,0,0-2.59571,5.7666h16.78223a8.1258,8.1258,0,0,0-2.59473-5.88671,8.53581,8.53581,0,0,0-5.77734-2.00879A7.72359,7.72359,0,0,0,143.89183,726.1051Z"/><path d="M183.0637,754.191h-9.74121V703.81018h9.74121Z"/><path d="M207.32151,731.52991a15.3936,15.3936,0,0,0,3.89063-.85449,2.92991,2.92991,0,0,0,2.10058-2.76856,3.27257,3.27257,0,0,0-1.61132-3.16113,10.178,10.178,0,0,0-4.72852-.87207q-3.49952,0-4.95508,1.709a7.05413,7.05413,0,0,0-1.38574,3.418h-9.39941a14.25823,14.25823,0,0,1,2.74609-8.03223q3.87891-4.92187,13.31934-4.92187a23.75406,23.75406,0,0,1,10.916,2.42676q4.77246,2.42724,4.77149,9.16015v17.08985q0,1.77831.06836,4.30664a5.40778,5.40778,0,0,0,.581,2.59765,3.4912,3.4912,0,0,0,1.43555,1.12793V754.191H214.47483a10.88961,10.88961,0,0,1-.61523-2.11914q-.17139-.99024-.27344-2.25586a20.08343,20.08343,0,0,1-4.67578,3.72559,14.124,14.124,0,0,1-7.15039,1.81152,12.34277,12.34277,0,0,1-8.40625-2.8877q-3.31786-2.88867-3.31738-8.18652,0-6.87012,5.33691-9.94629a23.8405,23.8405,0,0,1,8.6084-2.39258Zm5.957,4.5459a10.80032,10.80032,0,0,1-1.88867.94043,15.97513,15.97513,0,0,1-2.61621.666l-2.2168.41016a14.60834,14.60834,0,0,0-4.47753,1.333,4.44966,4.44966,0,0,0-2.30176,4.13574,4.32016,4.32016,0,0,0,1.40625,3.60644,5.34191,5.34191,0,0,0,3.418,1.11035,10.18006,10.18006,0,0,0,5.88281-1.8457q2.68946-1.8457,2.79394-6.7334Z"/><path d="M261.53929,719.0719q3.65771,3.0249,3.6582,10.03125V754.191H255.217V731.52991a10.40765,10.40765,0,0,0-.78027-4.51172q-1.4253-2.87109-5.42871-2.87109-4.92042,0-6.752,4.2041a14.54854,14.54854,0,0,0-.95019,5.67383v20.166h-9.74121v-37.1875h9.43359v5.43457a16.52035,16.52035,0,0,1,3.54-4.13574,12.26272,12.26272,0,0,1,7.58984-2.25586A14.28343,14.28343,0,0,1,261.53929,719.0719Z"/><path d="M294.011,717.53381a11.83373,11.83373,0,0,1,4.27246,4.11817V703.87854h9.87793V754.191h-9.46778v-5.16113a13.72634,13.72634,0,0,1-4.751,4.81933,13.33371,13.33371,0,0,1-6.63086,1.50391,13.843,13.843,0,0,1-10.98828-5.28027q-4.46046-5.28077-4.46094-13.55274,0-9.53613,4.39258-15.00488a14.28828,14.28828,0,0,1,11.74023-5.46875A12.01734,12.01734,0,0,1,294.011,717.53381Zm2.39257,26.54a13.58964,13.58964,0,0,0,2.15332-7.96386q0-6.835-3.45214-9.77539a7.43243,7.43243,0,0,0-4.92188-1.77735,6.84109,6.84109,0,0,0-6.27148,3.23047,17.41062,17.41062,0,0,0,.03418,16.26953,6.87826,6.87826,0,0,0,6.16894,3.09278A7.19242,7.19242,0,0,0,296.40354,744.07385Z"/><path d="M338.95726,716.525a73.25309,73.25309,0,0,1,7.8955-13.53516h7.34864l-2.085,3.82812a56.99432,56.99432,0,0,0-5.98145,16.543,65.4261,65.4261,0,0,0-1.09375,12.37305,58.44784,58.44784,0,0,0,3.042,19.24316,87.7229,87.7229,0,0,0,6.28906,13.33008h-7.21191l-2.42676-3.31543a44.41276,44.41276,0,0,1-5.02441-8.95508,51.00212,51.00212,0,0,1-4.751-20.918A46.40034,46.40034,0,0,1,338.95726,716.525Z"/><path d="M392.845,705.109a12.44189,12.44189,0,0,1,4.71582,3.52051,15.66549,15.66549,0,0,1,2.5332,4.23828,14.12851,14.12851,0,0,1,.9336,5.29785,15.091,15.091,0,0,1-1.81153,7.05859,10.12457,10.12457,0,0,1-5.98144,4.9043,9.41009,9.41009,0,0,1,4.93945,3.98242q1.45167,2.58107,1.45215,7.87793v3.38379a25.43358,25.43358,0,0,0,.27832,4.68262,4.2017,4.2017,0,0,0,1.94336,2.87109V754.191H390.22679q-.479-1.67432-.6836-2.70019a24.76859,24.76859,0,0,1-.44433-4.34082l-.06836-4.68262q-.06446-4.81934-1.665-6.42578-1.60107-1.60548-5.99707-1.60645H371.08616V754.191H360.79808V703.81018h24.09765A21.96075,21.96075,0,0,1,392.845,705.109Zm-21.75879,7.45117v13.53516h11.33008a12.05719,12.05719,0,0,0,5.06348-.82031q2.98682-1.43556,2.98632-5.67383,0-4.57911-2.88867-6.15235a10.44731,10.44731,0,0,0-4.86914-.88867Z"/><path d="M425.0803,731.52991a15.3936,15.3936,0,0,0,3.89063-.85449,2.92991,2.92991,0,0,0,2.10058-2.76856,3.27257,3.27257,0,0,0-1.61132-3.16113,10.178,10.178,0,0,0-4.72852-.87207q-3.49951,0-4.95508,1.709a7.05413,7.05413,0,0,0-1.38574,3.418h-9.39941a14.25823,14.25823,0,0,1,2.74609-8.03223q3.87891-4.92187,13.31933-4.92187a23.75411,23.75411,0,0,1,10.916,2.42676q4.77246,2.42724,4.77148,9.16015v17.08985q0,1.77831.06836,4.30664a5.40788,5.40788,0,0,0,.58106,2.59765,3.49113,3.49113,0,0,0,1.43555,1.12793V754.191H432.23362a10.88891,10.88891,0,0,1-.61523-2.11914q-.17139-.99024-.27344-2.25586a20.08343,20.08343,0,0,1-4.67578,3.72559,14.124,14.124,0,0,1-7.15039,1.81152,12.34277,12.34277,0,0,1-8.40625-2.8877q-3.31788-2.88867-3.31738-8.18652,0-6.87012,5.33691-9.94629a23.8405,23.8405,0,0,1,8.6084-2.39258Zm5.957,4.5459a10.80032,10.80032,0,0,1-1.88867.94043,15.97513,15.97513,0,0,1-2.61621.666l-2.2168.41016a14.60842,14.60842,0,0,0-4.47754,1.333,4.44967,4.44967,0,0,0-2.30175,4.13574,4.32016,4.32016,0,0,0,1.40625,3.60644,5.34191,5.34191,0,0,0,3.418,1.11035,10.18006,10.18006,0,0,0,5.88281-1.8457q2.68946-1.8457,2.79394-6.7334Z"/><path d="M449.15257,703.98108h9.57031v27.17871L471.01,717.10608h12.11328L469.76976,730.985,483.63987,754.191H471.7844l-9.02636-15.917-4.03516,4.19336V754.191h-9.57031Z"/><path d="M518.22874,719.0719q3.65772,3.0249,3.6582,10.03125V754.191h-9.98047V731.52991a10.40765,10.40765,0,0,0-.78027-4.51172q-1.42528-2.87109-5.42871-2.87109-4.92041,0-6.752,4.2041a14.54834,14.54834,0,0,0-.9502,5.67383v20.166h-9.74121v-37.1875h9.43359v5.43457a16.52035,16.52035,0,0,1,3.54-4.13574,12.26275,12.26275,0,0,1,7.58985-2.25586A14.2834,14.2834,0,0,1,518.22874,719.0719Z"/><path d="M540.95921,712.49182h-9.87793v-8.98926h9.87793Zm-9.87793,4.44336h9.87793V754.191h-9.87793Z"/><path d="M580.43577,719.0719q3.65772,3.0249,3.6582,10.03125V754.191h-9.98046V731.52991a10.40763,10.40763,0,0,0-.78028-4.51172q-1.42528-2.87109-5.42871-2.87109-4.92041,0-6.752,4.2041a14.54852,14.54852,0,0,0-.9502,5.67383v20.166h-9.74121v-37.1875h9.4336v5.43457a16.52014,16.52014,0,0,1,3.54-4.13574,12.26275,12.26275,0,0,1,7.58985-2.25586A14.2834,14.2834,0,0,1,580.43577,719.0719Z"/><path d="M611.58226,716.901a11.70287,11.70287,0,0,1,5.73437,5.40039v-5.36621h9.50195V752.277q0,7.21143-2.42675,10.86914-4.17042,6.28857-15.9961,6.28906-7.144,0-11.65527-2.80273a10.34133,10.34133,0,0,1-4.99024-8.374h10.59571a4.38428,4.38428,0,0,0,1.333,2.46094q1.57178,1.333,5.29785,1.333,5.26318,0,7.041-3.52051,1.16163-2.25587,1.16211-7.58789v-2.39258a11.86272,11.86272,0,0,1-3.00781,3.58887,12.09292,12.09292,0,0,1-7.55371,2.22168,14.29176,14.29176,0,0,1-11.4668-5.041q-4.29053-5.042-4.29-13.65527a23.03523,23.03523,0,0,1,4.13086-13.96191q4.1294-5.65724,11.708-5.65723A12.81154,12.81154,0,0,1,611.58226,716.901Zm3.31738,26.71192q2.3496-2.58107,2.34863-8.22071,0-5.29687-2.22949-8.0664a7.27489,7.27489,0,0,0-5.97266-2.76856,7.03976,7.03976,0,0,0-7.0459,4.81934,17.159,17.159,0,0,0-1.02148,6.32324,14.4878,14.4878,0,0,0,1.08887,5.77637,7.09925,7.09925,0,0,0,7.08008,4.71679A7.47874,7.47874,0,0,0,614.89964,743.61292Z"/><path d="M660.95726,709.07385a20.743,20.743,0,0,1,15.4873-6.2207q12.57861,0,18.39551,8.33984a18.187,18.187,0,0,1,3.44824,9.39942H687.761a14.3512,14.3512,0,0,0-2.57813-5.46875q-2.8125-3.28125-8.33691-3.28125a10.27288,10.27288,0,0,0-8.874,4.63183q-3.24756,4.63184-3.248,13.10743,0,8.477,3.42773,12.69824a10.73718,10.73718,0,0,0,8.709,4.2207q5.41552,0,8.25878-3.62305a15.90179,15.90179,0,0,0,2.60743-5.84472h10.459a22.68967,22.68967,0,0,1-6.915,13.39844q-5.562,5.1621-14.25195,5.16113-10.75342,0-16.90723-6.97266-6.15381-7.00635-6.15429-19.209Q653.95726,716.21839,660.95726,709.07385Z"/><path d="M702.97093,730.06018h19.07226v9.22852H702.97093Z"/><path d="M729.52854,720.01135v-6.63086a42.94557,42.94557,0,0,0,6.44336-.61523,9.07605,9.07605,0,0,0,4.77344-2.59766,8.5564,8.5564,0,0,0,1.90918-3.55468,8.17335,8.17335,0,0,0,.375-1.98243h8.13477V754.191h-9.98047V720.01135Z"/><path d="M770.28831,709.15979a15.56845,15.56845,0,0,1,11.94531-4.93945q11.313,0,15.51758,10.01465,2.39209,5.6748,2.39258,14.93652a42.50638,42.50638,0,0,1-2.29,15.00488q-4.37549,11.45068-16.06445,11.4502a16.38649,16.38649,0,0,1-10.01465-3.29785,13.00486,13.00486,0,0,1-5.09278-9.62207h9.707a5.85832,5.85832,0,0,0,1.8457,3.55468,5.71435,5.71435,0,0,0,3.999,1.36719q4.81934,0,6.76758-5.332a31.12938,31.12938,0,0,0,1.333-8.5791,10.507,10.507,0,0,1-2.83692,2.56347,12.87636,12.87636,0,0,1-6.73339,1.64063,15.31367,15.31367,0,0,1-10.49317-4.084q-4.58056-4.084-4.58008-11.7754Q765.69065,714.09925,770.28831,709.15979ZM786.677,728.82971q3.31494-2.11816,3.31543-7.34863a10.3913,10.3913,0,0,0-1.96484-6.665,6.51736,6.51736,0,0,0-5.38379-2.46094,6.69336,6.69336,0,0,0-4.27246,1.40137q-2.80225,2.18847-2.80274,7.417,0,4.40919,1.79493,6.61426,1.79442,2.20459,5.51953,2.2041A6.80418,6.80418,0,0,0,786.677,728.82971Z"/><path d="M818.64183,716.525a46.47348,46.47348,0,0,1,3.99218,18.59375,51.08111,51.08111,0,0,1-4.74218,20.918,44.49911,44.49911,0,0,1-5.01563,8.95508l-2.42285,3.31543h-7.19922a87.89917,87.89917,0,0,0,6.2666-13.33008A58.65392,58.65392,0,0,0,812.551,735.734a65.76557,65.76557,0,0,0-1.08887-12.37305,57.17128,57.17128,0,0,0-5.96-16.543l-2.07715-3.82812H810.761A73.33292,73.33292,0,0,1,818.64183,716.525Z"/></svg>