<svg id="Layer_1" data-name="Layer 1" xmlns="http://www.w3.org/2000/svg" viewBox="0 0 900 795.16713"><defs><style>.cls-1{fill:#f93;}.cls-2{fill:#fff;}.cls-3{fill:#128807;}.cls-4{fill:#008;}</style></defs><rect class="cls-1" x="0.675" y="-1.51884" width="898.65" height="599.1"/><rect class="cls-2" x="0.675" y="198.18116" width="898.65" height="199.7"/><rect class="cls-3" x="0.675" y="397.88116" width="898.65" height="199.7"/><circle class="cls-4" cx="450" cy="298.03116" r="79.88"/><circle class="cls-2" cx="450" cy="298.03116" r="69.895"/><circle class="cls-4" cx="450" cy="298.03116" r="13.979"/><g id="d"><g id="c"><g id="b"><g id="a"><circle class="cls-4" cx="519.29704" cy="307.15429" r="3.49475"/><path class="cls-4" d="M450,367.92616l2.3964-41.937L450,306.01916l-2.3964,19.97Z"/></g><g id="a-2" data-name="a"><circle class="cls-4" cx="514.57456" cy="324.77882" r="3.49475"/><path class="cls-4" d="M431.90984,365.54454l13.16884-39.88779,2.85387-19.90977-7.48336,18.6693Z"/></g></g><g id="b-2" data-name="b"><g id="a-3" data-name="a"><circle class="cls-4" cx="505.45143" cy="340.58054" r="3.49475"/><path class="cls-4" d="M415.0525,358.562l23.04384-35.1203L446.006,304.949,433.94566,321.0453Z"/></g><g id="a-4" data-name="a"><circle class="cls-4" cx="492.54938" cy="353.48259" r="3.49475"/><path class="cls-4" d="M400.57677,347.45439,431.92522,319.495l12.42641-15.81543L428.5362,316.10594Z"/></g></g></g><g id="c-2" data-name="c"><g id="b-3" data-name="b"><g id="a-5" data-name="a"><circle class="cls-4" cx="476.74766" cy="362.60572" r="3.49475"/><path class="cls-4" d="M389.46916,332.97866l37.5167-18.89316,16.09633-12.06034-18.49273,7.90966Z"/></g><g id="a-6" data-name="a"><circle class="cls-4" cx="459.12313" cy="367.32819" r="3.49475"/><path class="cls-4" d="M382.48662,316.12132l41.12826-8.53935,18.6693-7.48336-19.90977,2.85387Z"/></g></g><g id="b-4" data-name="b"><g id="a-7" data-name="a"><circle class="cls-4" cx="440.87687" cy="367.32819" r="3.49475"/><path class="cls-4" d="M380.105,298.03116l41.937,2.3964,19.97-2.3964-19.97-2.3964Z"/></g><g id="a-8" data-name="a"><circle class="cls-4" cx="423.25234" cy="362.60572" r="3.49475"/><path class="cls-4" d="M382.48662,279.941l39.88779,13.16884,19.90977,2.85387-18.6693-7.48336Z"/></g></g></g></g><g id="d-2" data-name="d"><g id="c-3" data-name="c"><g id="b-5" data-name="b"><g id="a-9" data-name="a"><circle class="cls-4" cx="407.45062" cy="353.48259" r="3.49475"/><path class="cls-4" d="M389.46916,263.08366l35.1203,23.04384,18.49273,7.90966-16.09633-12.06034Z"/></g><g id="a-10" data-name="a"><circle class="cls-4" cx="394.54857" cy="340.58054" r="3.49475"/><path class="cls-4" d="M400.57677,248.60793l27.95943,31.34845,15.81543,12.42641-12.42641-15.81543Z"/></g></g><g id="b-6" data-name="b"><g id="a-11" data-name="a"><circle class="cls-4" cx="385.42544" cy="324.77882" r="3.49475"/><path class="cls-4" d="M415.0525,237.50032l18.89316,37.5167L446.006,291.11335l-7.90966-18.49273Z"/></g><g id="a-12" data-name="a"><circle class="cls-4" cx="380.70297" cy="307.15429" r="3.49475"/><path class="cls-4" d="M431.90984,230.51778l8.53935,41.12826,7.48336,18.6693-2.85387-19.90977Z"/></g></g></g><g id="c-4" data-name="c"><g id="b-7" data-name="b"><g id="a-13" data-name="a"><circle class="cls-4" cx="380.70297" cy="288.90803" r="3.49475"/><path class="cls-4" d="M450,228.13616l-2.3964,41.937,2.3964,19.97,2.3964-19.97Z"/></g><g id="a-14" data-name="a"><circle class="cls-4" cx="385.42544" cy="271.2835" r="3.49475"/><path class="cls-4" d="M468.09016,230.51778l-13.16884,39.88779-2.85387,19.90978,7.48336-18.66931Z"/></g></g><g id="b-8" data-name="b"><g id="a-15" data-name="a"><circle class="cls-4" cx="394.54857" cy="255.48178" r="3.49475"/><path class="cls-4" d="M484.9475,237.50032l-23.04384,35.1203L453.994,291.11335,466.05434,275.017Z"/></g><g id="a-16" data-name="a"><circle class="cls-4" cx="407.45062" cy="242.57973" r="3.49475"/><path class="cls-4" d="M499.42323,248.60793l-31.34845,27.95943-12.42641,15.81543,15.81543-12.42641Z"/></g></g></g></g><g id="d-3" data-name="d"><g id="c-5" data-name="c"><g id="b-9" data-name="b"><g id="a-17" data-name="a"><circle class="cls-4" cx="423.25234" cy="233.4566" r="3.49475"/><path class="cls-4" d="M510.53084,263.08366l-37.5167,18.89316-16.09633,12.06034,18.49273-7.90966Z"/></g><g id="a-18" data-name="a"><circle class="cls-4" cx="440.87687" cy="228.73413" r="3.49475"/><path class="cls-4" d="M517.51338,279.941l-41.12826,8.53935-18.6693,7.48336,19.90977-2.85387Z"/></g></g><g id="b-10" data-name="b"><g id="a-19" data-name="a"><circle class="cls-4" cx="459.12313" cy="228.73413" r="3.49475"/><path class="cls-4" d="M519.895,298.03116l-41.937-2.3964-19.97,2.3964,19.97,2.3964Z"/></g><g id="a-20" data-name="a"><circle class="cls-4" cx="476.74766" cy="233.4566" r="3.49475"/><path class="cls-4" d="M517.51338,316.12132l-39.88779-13.16884-19.90977-2.85387,18.6693,7.48336Z"/></g></g></g><g id="c-6" data-name="c"><g id="b-11" data-name="b"><g id="a-21" data-name="a"><circle class="cls-4" cx="492.54938" cy="242.57973" r="3.49475"/><path class="cls-4" d="M510.53084,332.97866l-35.1203-23.04384-18.49273-7.90966,16.09633,12.06034Z"/></g><g id="a-22" data-name="a"><circle class="cls-4" cx="505.45143" cy="255.48178" r="3.49475"/><path class="cls-4" d="M499.42323,347.45439,471.4638,316.10594l-15.81543-12.42641L468.07478,319.495Z"/></g></g><g id="b-12" data-name="b"><g id="a-23" data-name="a"><circle class="cls-4" cx="514.57456" cy="271.2835" r="3.49475"/><path class="cls-4" d="M484.9475,358.562l-18.89316-37.5167L453.994,304.949l7.90966,18.49273Z"/></g><g id="a-24" data-name="a"><circle class="cls-4" cx="519.29703" cy="288.90803" r="3.49475"/><path class="cls-4" d="M468.09016,365.54454l-8.53935-41.12826-7.48336-18.6693,2.85387,19.90977Z"/></g></g></g></g><path d="M131.35353,717.20276h-10.459V666.8219h10.459Z"/><path d="M170.45313,682.08362q3.65919,3.0249,3.65918,10.03125v25.08789h-9.98046V694.5426a10.41637,10.41637,0,0,0-.78028-4.51172q-1.42676-2.87109-5.42871-2.87109-4.9204,0-6.75195,4.20313a14.5338,14.5338,0,0,0-.9502,5.67382v20.166H140.4795v-37.1875h9.4336v5.43555a16.52682,16.52682,0,0,1,3.53906-4.13672,12.26764,12.26764,0,0,1,7.59082-2.25586A14.28067,14.28067,0,0,1,170.45313,682.08362Z"/><path d="M202.92579,680.54553a11.84129,11.84129,0,0,1,4.27246,4.11817V666.89026h9.87793v50.3125h-9.46777V712.0426a13.73932,13.73932,0,0,1-4.751,4.81836,13.33623,13.33623,0,0,1-6.63086,1.50391,13.84484,13.84484,0,0,1-10.98926-5.28027q-4.46045-5.28077-4.46-13.55176,0-9.53613,4.3916-15.00586a14.2929,14.2929,0,0,1,11.74122-5.46875A12.01727,12.01727,0,0,1,202.92579,680.54553Zm2.39258,26.54a13.58854,13.58854,0,0,0,2.15332-7.96289q0-6.83643-3.45215-9.77539a7.42736,7.42736,0,0,0-4.92187-1.77734,6.842,6.842,0,0,0-6.27247,3.22949,17.4181,17.4181,0,0,0,.03418,16.26953,6.87884,6.87884,0,0,0,6.16993,3.09277A7.19243,7.19243,0,0,0,205.31837,707.08557Z"/><path d="M235.94337,675.50354h-9.87793v-8.98828h9.87793Zm-9.87793,4.44336h9.87793v37.25586h-9.87793Z"/><path d="M260.13282,694.5426a15.43794,15.43794,0,0,0,3.89063-.85547,2.92964,2.92964,0,0,0,2.10058-2.76757,3.27317,3.27317,0,0,0-1.61133-3.16211,10.18389,10.18389,0,0,0-4.72949-.8711q-3.498,0-4.9541,1.709a7.04069,7.04069,0,0,0-1.38574,3.418H244.044a14.25425,14.25425,0,0,1,2.7461-8.03321q3.87891-4.92187,13.31933-4.92187a23.74785,23.74785,0,0,1,10.916,2.42773q4.771,2.42579,4.77148,9.16016V707.736q0,1.77686.06836,4.30664a5.41447,5.41447,0,0,0,.58106,2.59766,3.47679,3.47679,0,0,0,1.43555,1.12695v1.43555H267.28614a10.73537,10.73537,0,0,1-.61523-2.11914q-.17139-.99024-.27344-2.25586a20.1079,20.1079,0,0,1-4.67578,3.72656,14.13424,14.13424,0,0,1-7.15137,1.81055,12.34019,12.34019,0,0,1-8.40527-2.8877q-3.31788-2.8872-3.31738-8.18652,0-6.87012,5.33691-9.94531a23.81462,23.81462,0,0,1,8.6084-2.39258Zm5.95606,4.54493a10.69843,10.69843,0,0,1-1.88868.94042,15.94448,15.94448,0,0,1-2.61523.667l-2.21777.41015a14.5949,14.5949,0,0,0-4.47754,1.332,4.44939,4.44939,0,0,0-2.30078,4.13672,4.31894,4.31894,0,0,0,1.40527,3.60547,5.34342,5.34342,0,0,0,3.41895,1.11133,10.18228,10.18228,0,0,0,5.88281-1.8457q2.68946-1.8457,2.793-6.73438Z"/><path d="M306.251,679.53674a73.31711,73.31711,0,0,1,7.8955-13.53515h7.34864l-2.085,3.82812a57.0045,57.0045,0,0,0-5.98145,16.543,65.43338,65.43338,0,0,0-1.09375,12.37305,58.458,58.458,0,0,0,3.042,19.24414,87.81006,87.81006,0,0,0,6.28907,13.33008h-7.21192l-2.42676-3.31641a44.41276,44.41276,0,0,1-5.02441-8.95508,50.98642,50.98642,0,0,1-4.751-20.918A46.40391,46.40391,0,0,1,306.251,679.53674Z"/><path d="M342.2588,666.8219h11.91211l17.82422,50.38086h-11.416l-3.32422-10.35547H338.70216l-3.416,10.35547H324.27442Zm-.69336,31.34375h12.90234l-6.36425-19.82422Z"/><path d="M392.374,694.5426a15.43794,15.43794,0,0,0,3.89063-.85547,2.92964,2.92964,0,0,0,2.10058-2.76757,3.27318,3.27318,0,0,0-1.61132-3.16211,10.18394,10.18394,0,0,0-4.7295-.8711q-3.498,0-4.9541,1.709a7.04069,7.04069,0,0,0-1.38574,3.418h-9.39941a14.25417,14.25417,0,0,1,2.74609-8.03321q3.87891-4.92187,13.31934-4.92187a23.74783,23.74783,0,0,1,10.916,2.42773q4.771,2.42579,4.77149,9.16016V707.736q0,1.77686.06835,4.30664a5.41447,5.41447,0,0,0,.58106,2.59766,3.47679,3.47679,0,0,0,1.43555,1.12695v1.43555H399.52735a10.73537,10.73537,0,0,1-.61523-2.11914q-.17139-.99024-.27344-2.25586a20.1079,20.1079,0,0,1-4.67578,3.72656,14.13424,14.13424,0,0,1-7.15137,1.81055,12.34019,12.34019,0,0,1-8.40527-2.8877q-3.31786-2.8872-3.31738-8.18652,0-6.87012,5.33691-9.94531a23.81462,23.81462,0,0,1,8.6084-2.39258Zm5.95606,4.54493a10.69868,10.69868,0,0,1-1.88867.94042,15.94491,15.94491,0,0,1-2.61524.667l-2.21777.41015a14.5949,14.5949,0,0,0-4.47754,1.332,4.44939,4.44939,0,0,0-2.30078,4.13672,4.31894,4.31894,0,0,0,1.40527,3.60547,5.34342,5.34342,0,0,0,3.41895,1.11133,10.18228,10.18228,0,0,0,5.88281-1.8457q2.68945-1.8457,2.793-6.73438Z"/><path d="M437.24415,679.07581c.125.01172.4043.02929.83789.05078v9.98047q-.92284-.10254-1.64062-.13672-.71778-.03224-1.16211-.03321-5.8799,0-7.89551,3.82813a14.89121,14.89121,0,0,0-1.12793,6.63086v17.80664H416.4463V679.9469h9.29687V686.441a20.58981,20.58981,0,0,1,3.93067-5.0918,10.6957,10.6957,0,0,1,7.10937-2.291C436.96485,679.05823,437.11915,679.06409,437.24415,679.07581Z"/><path d="M474.85938,712.64612q-4.71679,5.82129-14.32128,5.82226-9.605,0-14.32129-5.82226a23.11486,23.11486,0,0,1,0-27.98633q4.71679-5.90918,14.32129-5.9082,9.60351,0,14.32128,5.9082a23.11486,23.11486,0,0,1,0,27.98633Zm-7.793-5.38477q2.28954-3.03809,2.29-8.63476,0-5.59717-2.29-8.61719a8.65654,8.65654,0,0,0-13.14258,0q-2.30714,3.0205-2.30664,8.61719,0,5.59863,2.30664,8.63476a8.62758,8.62758,0,0,0,13.14258,0Z"/><path d="M504.97853,679.9137a11.69193,11.69193,0,0,1,5.73535,5.40039V679.9469h9.50195v35.3418q0,7.21289-2.42676,10.86914-4.17041,6.29-15.99609,6.28906-7.144,0-11.65528-2.80273a10.33869,10.33869,0,0,1-4.99023-8.37305h10.5957a4.39122,4.39122,0,0,0,1.333,2.46094q1.57178,1.333,5.29785,1.332,5.26318,0,7.041-3.51953,1.16161-2.25587,1.16211-7.58789v-2.39258a11.88381,11.88381,0,0,1-3.00781,3.58789,12.08908,12.08908,0,0,1-7.55372,2.22265,14.2945,14.2945,0,0,1-11.46777-5.042q-4.28906-5.04052-4.28906-13.65527a23.04125,23.04125,0,0,1,4.12988-13.96192q4.13086-5.65575,11.709-5.65722A12.78334,12.78334,0,0,1,504.97853,679.9137Zm3.31835,26.71093q2.34814-2.58105,2.34864-8.2207,0-5.29687-2.22949-8.0664a7.27467,7.27467,0,0,0-5.97364-2.76758,7.04053,7.04053,0,0,0-7.0459,4.81836,17.1622,17.1622,0,0,0-1.0205,6.32422,14.46945,14.46945,0,0,0,1.08886,5.77539,7.09844,7.09844,0,0,0,7.08008,4.71679A7.48014,7.48014,0,0,0,508.29688,706.62463Z"/><path d="M530.77735,724.34729l1.23047.06836a15.38111,15.38111,0,0,0,2.73438-.10352,4.90493,4.90493,0,0,0,2.1875-.78515,5.27233,5.27233,0,0,0,1.58886-2.42774,5.84457,5.84457,0,0,0,.63282-2.25586L525.46192,679.9469h10.835l8.13477,27.48047,7.69043-27.48047h10.35645l-12.77247,36.64063q-3.70165,10.59668-5.85742,13.14257-2.15625,2.5459-8.623,2.54688-1.30078,0-2.0879-.01758-.78661-.01758-2.36035-.11914Z"/><path d="M582.99415,694.5426a15.43794,15.43794,0,0,0,3.89063-.85547,2.92964,2.92964,0,0,0,2.10058-2.76757,3.27317,3.27317,0,0,0-1.61133-3.16211,10.18392,10.18392,0,0,0-4.72949-.8711q-3.498,0-4.9541,1.709a7.04069,7.04069,0,0,0-1.38574,3.418h-9.39942a14.25425,14.25425,0,0,1,2.7461-8.03321q3.87889-4.92187,13.31933-4.92187a23.74785,23.74785,0,0,1,10.916,2.42773q4.771,2.42579,4.77148,9.16016V707.736q0,1.77686.06836,4.30664a5.41447,5.41447,0,0,0,.58106,2.59766,3.47682,3.47682,0,0,0,1.43554,1.12695v1.43555h-10.5957a10.73537,10.73537,0,0,1-.61523-2.11914q-.17139-.99024-.27344-2.25586a20.1079,20.1079,0,0,1-4.67578,3.72656,14.13424,14.13424,0,0,1-7.15137,1.81055,12.34019,12.34019,0,0,1-8.40527-2.8877q-3.31788-2.8872-3.31739-8.18652,0-6.87012,5.33692-9.94531a23.81462,23.81462,0,0,1,8.6084-2.39258Zm5.95605,4.54493a10.698,10.698,0,0,1-1.88867.94042,15.94448,15.94448,0,0,1-2.61523.667l-2.21777.41015a14.5949,14.5949,0,0,0-4.47754,1.332,4.4494,4.4494,0,0,0-2.30079,4.13672,4.319,4.319,0,0,0,1.40528,3.60547,5.34342,5.34342,0,0,0,3.41894,1.11133,10.18229,10.18229,0,0,0,5.88282-1.8457q2.68944-1.8457,2.793-6.73438Z"/><path d="M634.99122,701.652a10.21669,10.21669,0,0,0,1.91895,5.16015q2.61766,3.11133,8.96875,3.11133a19.30187,19.30187,0,0,0,6.17773-.82031q4.50147-1.57325,4.50195-5.8457a4.30612,4.30612,0,0,0-2.20507-3.86133,23.92786,23.92786,0,0,0-6.99512-2.35938l-5.4541-1.19531q-8.042-1.77832-11.04883-3.86328-5.09326-3.48633-5.09278-10.90234a14.48218,14.48218,0,0,1,4.98243-11.2461q4.98194-4.47655,14.63574-4.47656a22.44124,22.44124,0,0,1,13.75391,4.2207q5.69091,4.22169,5.96875,12.25391H654.98634a7.21483,7.21483,0,0,0-4.06543-6.46094,13.93768,13.93768,0,0,0-6.27149-1.26367,11.94052,11.94052,0,0,0-6.6582,1.64063,5.19119,5.19119,0,0,0-2.4873,4.58007,4.32054,4.32054,0,0,0,2.45312,4.03321,30.48535,30.48535,0,0,0,6.69336,2.084l8.84082,2.08594a22.51026,22.51026,0,0,1,8.71387,3.65625q4.5044,3.55664,4.50488,10.28906a14.45528,14.45528,0,0,1-5.33789,11.4668q-5.33789,4.563-15.08008,4.5625-9.94922,0-15.64941-4.49414-5.70117-4.49415-5.7002-12.35547Z"/><path d="M697.584,680.70178a15.153,15.153,0,0,1,6.4375,5.51172,18.30651,18.30651,0,0,1,2.96875,7.70215,47.59021,47.59021,0,0,1,.32032,7.39453H680.17677q.227,5.6045,3.89551,7.86133a9.9034,9.9034,0,0,0,5.37109,1.40039,7.56733,7.56733,0,0,0,7.41406-4.27148h9.94531a12.16212,12.16212,0,0,1-3.61132,6.73242q-5.00684,5.43456-14.01661,5.43554a20.31024,20.31024,0,0,1-13.123-4.584q-5.68506-4.585-5.68457-14.916,0-9.67968,5.13183-14.8457,5.13282-5.16649,13.32325-5.166A21.22193,21.22193,0,0,1,697.584,680.70178Zm-14.57324,8.415a10.12479,10.12479,0,0,0-2.59472,5.76758h16.78222a8.12469,8.12469,0,0,0-2.5957-5.88672,8.5317,8.5317,0,0,0-5.77735-2.00976A7.72881,7.72881,0,0,0,683.01075,689.11682Z"/><path d="M708.40919,687.22815V680.2887h5.19531V669.89807h9.63867V680.2887H729.293v6.93945h-6.04981v19.6875q0,2.28955.58106,2.85352.58008.564,3.55469.56445.44383,0,.93945-.01758.49512-.01758.97461-.05078v7.2793l-4.61426.17187q-6.90528.2373-9.43359-2.39258-1.64062-1.67577-1.64063-5.16211V687.22815Z"/><path d="M745.25489,679.9469v22.457a11.80526,11.80526,0,0,0,.748,4.78516q1.32714,2.83593,5.20312,2.83594,4.96582,0,6.80274-4.03321a14.6751,14.6751,0,0,0,.95215-5.77539V679.9469h9.87793v37.25586H759.3711v-5.26367q-.13623.17284-.68164,1.02539a6.80036,6.80036,0,0,1-1.29492,1.5039,13.503,13.503,0,0,1-4.41406,2.80274,14.99171,14.99171,0,0,1-4.99317.75195q-8.24853,0-11.11132-5.94726-1.60254-3.28125-1.60157-9.67188v-22.457Z"/><path d="M789.86622,679.53674a46.47707,46.47707,0,0,1,3.99219,18.59375,51.08113,51.08113,0,0,1-4.74219,20.918,44.49486,44.49486,0,0,1-5.0166,8.95508l-2.42188,3.31641h-7.19921a88.0623,88.0623,0,0,0,6.26562-13.33008,58.664,58.664,0,0,0,3.03125-19.24414,65.68826,65.68826,0,0,0-1.08984-12.37305,57.17918,57.17918,0,0,0-5.959-16.543l-2.07812-3.82812h7.33593A73.35026,73.35026,0,0,1,789.86622,679.53674Z"/></svg>