<svg id="Layer_1" data-name="Layer 1" xmlns="http://www.w3.org/2000/svg" viewBox="0 0 900 795.16713"><defs><style>.cls-1{fill:#fff;}.cls-2{fill:#0f4d92;}.cls-3{opacity:0;}</style></defs><rect class="cls-1" x="0.04484" y="-1.16802" width="898.52544" height="653.47305"/><rect class="cls-2" x="0.04484" y="60.09508" width="898.52544" height="102.10516"/><rect class="cls-2" x="0.04484" y="488.93677" width="898.52544" height="102.10516"/><g id="triangle"><g class="cls-3"><polygon points="449.308 206.551 346.235 385.077 552.38 385.077 449.308 206.551"/></g><path class="cls-2" d="M571.83271,396.30962H326.78165l122.5262-212.22186ZM365.688,373.84649H532.92639L449.30785,229.014Z"/></g><g id="triangle-2" data-name="triangle"><g class="cls-3"><polygon points="449.308 444.586 552.38 266.06 346.235 266.06 449.308 444.586"/></g><path class="cls-2" d="M449.30785,467.04936,326.78165,254.8275H571.83271ZM365.688,277.29063l83.61988,144.83245,83.61854-144.83245Z"/></g><path d="M182.19344,712.27577h-10.459V661.89491h10.459Z"/><path d="M198.80477,700.38124a6.47792,6.47792,0,0,0,1.33984,3.69141q1.81933,1.94825,6.73047,1.94824a10.29114,10.29114,0,0,0,4.585-.85449,2.73648,2.73648,0,0,0,1.7002-2.56348,2.76505,2.76505,0,0,0-1.36914-2.49512q-1.36964-.854-10.19141-2.93945-6.3501-1.57178-8.94727-3.93066a8.5181,8.5181,0,0,1-2.59765-6.69922,11.61162,11.61162,0,0,1,4.05859-8.87012q4.05909-3.70752,11.42383-3.708,6.9873,0,11.38867,2.78614,4.40186,2.78613,5.05274,9.62109h-9.74122a5.75954,5.75954,0,0,0-1.0625-2.97363q-1.61131-1.98194-5.48437-1.98243a7.90272,7.90272,0,0,0-4.541.99122,2.85184,2.85184,0,0,0-1.35351,2.32421,2.54134,2.54134,0,0,0,1.43945,2.42676q1.43994.78663,10.1709,2.7002,5.82129,1.36817,8.72656,4.13574a9.39072,9.39072,0,0,1,2.8711,7.00684,11.31466,11.31466,0,0,1-4.127,9.041q-4.12793,3.50244-12.75683,3.50293-8.80371,0-12.99805-3.708a12.05594,12.05594,0,0,1-4.19531-9.45117Z"/><path d="M250.878,674.14882q.186.01758.83691.05078v9.98047q-.92284-.10254-1.64062-.13672-.71778-.03369-1.16211-.03418-5.87988,0-7.89551,3.82813a14.894,14.894,0,0,0-1.12793,6.63086v17.80761h-9.80957V675.01991h9.29688v6.49414a20.59881,20.59881,0,0,1,3.93066-5.09277,10.70041,10.70041,0,0,1,7.10938-2.29C250.59774,674.13124,250.752,674.1371,250.878,674.14882Z"/><path d="M272.17879,689.61464a15.3936,15.3936,0,0,0,3.89063-.85449,2.92991,2.92991,0,0,0,2.10058-2.76856,3.27162,3.27162,0,0,0-1.61133-3.16113,10.16821,10.16821,0,0,0-4.72851-.87207q-3.49951,0-4.95508,1.709a7.04476,7.04476,0,0,0-1.38574,3.418h-9.39942a14.25828,14.25828,0,0,1,2.7461-8.03222q3.87891-4.92187,13.31933-4.92188a23.757,23.757,0,0,1,10.916,2.42676q4.771,2.42724,4.77148,9.16016V702.808q0,1.77832.06836,4.30664a5.408,5.408,0,0,0,.58106,2.59766,3.47853,3.47853,0,0,0,1.43554,1.12793v1.43554h-10.5957a10.75438,10.75438,0,0,1-.61523-2.11914q-.17139-.99022-.27344-2.25586a20.10381,20.10381,0,0,1-4.67578,3.72559,14.13484,14.13484,0,0,1-7.15137,1.81152,12.33776,12.33776,0,0,1-8.40527-2.88867q-3.31788-2.8872-3.31739-8.18555,0-6.8701,5.33692-9.94629a23.84032,23.84032,0,0,1,8.6084-2.39257Zm5.95606,4.5459a10.685,10.685,0,0,1-1.8877.93945,15.886,15.886,0,0,1-2.61621.667l-2.21777.41016a14.62637,14.62637,0,0,0-4.47754,1.333,4.44887,4.44887,0,0,0-2.30078,4.13574,4.32265,4.32265,0,0,0,1.40527,3.60645,5.34663,5.34663,0,0,0,3.41894,1.11035,10.1823,10.1823,0,0,0,5.88282-1.84571q2.68945-1.8457,2.793-6.73339Z"/><path d="M320.63094,675.7748a15.1506,15.1506,0,0,1,6.4375,5.51074,18.31077,18.31077,0,0,1,2.96875,7.70312,47.68167,47.68167,0,0,1,.32129,7.39356H303.22371q.22706,5.606,3.89551,7.86133a9.89524,9.89524,0,0,0,5.37109,1.40136,7.56575,7.56575,0,0,0,7.41407-4.27246h9.94531a12.16442,12.16442,0,0,1-3.61133,6.7334q-5.00536,5.43457-14.0166,5.43457a20.31214,20.31214,0,0,1-13.12305-4.584q-5.68506-4.58351-5.68457-14.915,0-9.68115,5.13184-14.84668,5.13281-5.165,13.32324-5.166A21.20628,21.20628,0,0,1,320.63094,675.7748Zm-14.57324,8.415a10.1188,10.1188,0,0,0-2.59473,5.7666H320.2452a8.12958,8.12958,0,0,0-2.59473-5.88672,8.53932,8.53932,0,0,0-5.77734-2.00879A7.72738,7.72738,0,0,0,306.0577,684.18984Z"/><path d="M345.23055,712.27577h-9.74121V661.89491h9.74121Z"/><path d="M376.67586,674.60976a73.25352,73.25352,0,0,1,7.89551-13.53516H391.92l-2.085,3.82813a56.99452,56.99452,0,0,0-5.98144,16.543,65.42528,65.42528,0,0,0-1.09375,12.37305,58.4479,58.4479,0,0,0,3.042,19.24317A87.81034,87.81034,0,0,0,392.0909,726.392H384.879l-2.42676-3.31543a44.44074,44.44074,0,0,1-5.02442-8.95507,50.98664,50.98664,0,0,1-4.751-20.918A46.4005,46.4005,0,0,1,376.67586,674.60976Z"/><path d="M398.20906,712.27577V661.89491h10.459v19.209h19.585v-19.209h10.459v50.38086H428.253V689.78554h-19.585v22.49023Z"/><path d="M462.79891,689.61464a15.39349,15.39349,0,0,0,3.89062-.85449,2.92992,2.92992,0,0,0,2.10059-2.76856,3.27162,3.27162,0,0,0-1.61133-3.16113,10.16823,10.16823,0,0,0-4.72851-.87207q-3.49951,0-4.95508,1.709a7.04466,7.04466,0,0,0-1.38574,3.418H446.71a14.25827,14.25827,0,0,1,2.74609-8.03222q3.87891-4.92187,13.31934-4.92188a23.757,23.757,0,0,1,10.916,2.42676q4.771,2.42724,4.77148,9.16016V702.808q0,1.77832.06836,4.30664a5.4081,5.4081,0,0,0,.581,2.59766,3.47856,3.47856,0,0,0,1.43555,1.12793v1.43554h-10.5957a10.75445,10.75445,0,0,1-.61524-2.11914q-.17138-.99022-.27343-2.25586a20.104,20.104,0,0,1-4.67578,3.72559,14.13484,14.13484,0,0,1-7.15137,1.81152,12.3378,12.3378,0,0,1-8.40528-2.88867q-3.31786-2.8872-3.31738-8.18555,0-6.8701,5.33692-9.94629a23.84032,23.84032,0,0,1,8.60839-2.39257Zm5.95605,4.5459a10.68491,10.68491,0,0,1-1.88769.93945,15.886,15.886,0,0,1-2.61621.667l-2.21778.41016a14.62656,14.62656,0,0,0-4.47754,1.333,4.44887,4.44887,0,0,0-2.30078,4.13574,4.32263,4.32263,0,0,0,1.40528,3.60645,5.34661,5.34661,0,0,0,3.41894,1.11035A10.18225,10.18225,0,0,0,465.962,704.517q2.68945-1.8457,2.793-6.73339Z"/><path d="M533.45809,675.15663a10.8391,10.8391,0,0,1,4.34082,3.34961,10.71646,10.71646,0,0,1,2.11914,4.78516,33.11735,33.11735,0,0,1,.3418,5.50293l-.06836,23.48144H530.211v-23.7207a7.79838,7.79838,0,0,0-.6836-3.48633q-1.29932-2.59716-4.78515-2.59765a5.59937,5.59937,0,0,0-5.57129,3.3496,10.51664,10.51664,0,0,0-.78613,4.27247v22.18261h-9.80957V690.09316a12.47317,12.47317,0,0,0-.6836-4.81934q-1.23047-2.69971-4.81933-2.7002-4.17042,0-5.60547,2.7002a10.4012,10.4012,0,0,0-.78614,4.58008v22.42187h-9.87793v-37.1875h9.46778v5.43457a15.66325,15.66325,0,0,1,3.418-4.13574,13.52394,13.52394,0,0,1,14.25293-.30762,10.94841,10.94841,0,0,1,3.21289,4.47754,12.38,12.38,0,0,1,4.751-4.81933,14.49692,14.49692,0,0,1,6.69922-1.53809A12.97711,12.97711,0,0,1,533.45809,675.15663Z"/><path d="M563.97078,689.61464a15.3936,15.3936,0,0,0,3.89063-.85449,2.92991,2.92991,0,0,0,2.10058-2.76856,3.27163,3.27163,0,0,0-1.61132-3.16113,10.16825,10.16825,0,0,0-4.72852-.87207q-3.49952,0-4.95508,1.709a7.04476,7.04476,0,0,0-1.38574,3.418h-9.39941a14.2582,14.2582,0,0,1,2.74609-8.03222q3.87891-4.92187,13.31934-4.92188a23.75693,23.75693,0,0,1,10.916,2.42676q4.771,2.42724,4.77149,9.16016V702.808q0,1.77832.06836,4.30664a5.40787,5.40787,0,0,0,.58105,2.59766,3.4785,3.4785,0,0,0,1.43555,1.12793v1.43554H571.1241a10.75438,10.75438,0,0,1-.61523-2.11914q-.17139-.99022-.27344-2.25586a20.10381,20.10381,0,0,1-4.67578,3.72559,14.13484,14.13484,0,0,1-7.15137,1.81152,12.33776,12.33776,0,0,1-8.40527-2.88867q-3.31786-2.8872-3.31738-8.18555,0-6.8701,5.33691-9.94629a23.84032,23.84032,0,0,1,8.6084-2.39257Zm5.95606,4.5459a10.685,10.685,0,0,1-1.8877.93945,15.886,15.886,0,0,1-2.61621.667l-2.21777.41016a14.62647,14.62647,0,0,0-4.47754,1.333,4.44887,4.44887,0,0,0-2.30078,4.13574,4.32265,4.32265,0,0,0,1.40527,3.60645,5.34664,5.34664,0,0,0,3.419,1.11035,10.18229,10.18229,0,0,0,5.88281-1.84571q2.68945-1.8457,2.793-6.73339Z"/><path d="M606.57625,674.98573a11.70288,11.70288,0,0,1,5.73438,5.40039v-5.36621h9.502v35.3418q0,7.21143-2.42676,10.86914-4.1704,6.28857-15.99609,6.28906-7.144,0-11.65527-2.80273a10.34036,10.34036,0,0,1-4.99024-8.374h10.5957a4.39116,4.39116,0,0,0,1.333,2.46093q1.57178,1.333,5.29785,1.333,5.26318,0,7.041-3.52051,1.16161-2.25585,1.16211-7.58789v-2.39258a11.87655,11.87655,0,0,1-3.00781,3.58887,12.09481,12.09481,0,0,1-7.55372,2.22168,14.29155,14.29155,0,0,1-11.46777-5.042q-4.28905-5.04053-4.28906-13.6543a23.04021,23.04021,0,0,1,4.13086-13.96289q4.12939-5.65577,11.708-5.65625A12.81145,12.81145,0,0,1,606.57625,674.98573Zm3.31738,26.71192q2.34814-2.58106,2.34864-8.22071,0-5.29687-2.22949-8.0664a7.27492,7.27492,0,0,0-5.97266-2.76856,7.03975,7.03975,0,0,0-7.0459,4.81934,17.13866,17.13866,0,0,0-1.02148,6.32324,14.471,14.471,0,0,0,1.08886,5.77637,7.09926,7.09926,0,0,0,7.08008,4.7168A7.48017,7.48017,0,0,0,609.89363,701.69765Z"/><path d="M655.18172,675.7748a15.1506,15.1506,0,0,1,6.4375,5.51074,18.31064,18.31064,0,0,1,2.96875,7.70312,47.68167,47.68167,0,0,1,.32129,7.39356H637.77449q.22705,5.606,3.89551,7.86133a9.89525,9.89525,0,0,0,5.3711,1.40136,7.56571,7.56571,0,0,0,7.41406-4.27246h9.94531a12.16436,12.16436,0,0,1-3.61133,6.7334q-5.00536,5.43457-14.0166,5.43457a20.31214,20.31214,0,0,1-13.12305-4.584q-5.685-4.58351-5.68457-14.915,0-9.68115,5.13184-14.84668,5.13281-5.165,13.32324-5.166A21.20628,21.20628,0,0,1,655.18172,675.7748Zm-14.57324,8.415a10.11886,10.11886,0,0,0-2.59473,5.7666H654.796a8.12958,8.12958,0,0,0-2.59473-5.88672,8.53932,8.53932,0,0,0-5.77734-2.00879A7.72738,7.72738,0,0,0,640.60848,684.18984Z"/><path d="M699.877,677.15663q3.65919,3.02345,3.65918,10.03125v25.08789h-9.98047V689.61464a10.40768,10.40768,0,0,0-.78027-4.51172q-1.42529-2.87109-5.42871-2.87109-4.9204,0-6.75195,4.2041a14.53049,14.53049,0,0,0-.9502,5.67383v20.166H669.9034v-37.1875H679.337v5.43457a16.50027,16.50027,0,0,1,3.54-4.13574,12.26275,12.26275,0,0,1,7.58985-2.25586A14.27538,14.27538,0,0,1,699.877,677.15663Z"/><path d="M724.1534,674.60976a46.47349,46.47349,0,0,1,3.99219,18.59375,51.08121,51.08121,0,0,1-4.74219,20.918,44.57555,44.57555,0,0,1-5.01562,8.95507l-2.42286,3.31543h-7.19921a87.96522,87.96522,0,0,0,6.26562-13.33007,58.65386,58.65386,0,0,0,3.03125-19.24317,65.681,65.681,0,0,0-1.08984-12.37305,57.14048,57.14048,0,0,0-5.959-16.543l-2.07812-3.82813h7.33593A73.28653,73.28653,0,0,1,724.1534,674.60976Z"/></svg>