<svg id="Layer_1" data-name="Layer 1" xmlns="http://www.w3.org/2000/svg" xmlns:xlink="http://www.w3.org/1999/xlink" viewBox="0 0 1189.86682 436.88782"><defs><style>.cls-1{opacity:0.65;}.cls-2{fill:#edf3da;}.cls-3{fill:#d6e488;}.cls-4{fill:#222563;}.cls-13,.cls-5{fill:none;}.cls-6{fill:url(#linear-gradient);}.cls-7{fill:#4fc1de;}.cls-8{fill:#bfd374;}.cls-9{fill:#2596c7;}.cls-10{fill:#4cc3e0;}.cls-11{fill:#fff;}.cls-12{fill:url(#linear-gradient-2);}.cls-13{stroke:#1f75bb;stroke-linecap:round;stroke-linejoin:round;stroke-width:0;}.cls-14{fill:#1f75bb;}.cls-15{fill:url(#linear-gradient-3);}.cls-16{fill:url(#linear-gradient-4);}.cls-17{fill:url(#linear-gradient-5);}.cls-18{fill:#4e9dc9;}.cls-19{fill:url(#linear-gradient-6);}.cls-20{fill:url(#linear-gradient-7);}</style><linearGradient id="linear-gradient" x1="94.1963" y1="162.38999" x2="225.28424" y2="162.38999" gradientUnits="userSpaceOnUse"><stop offset="0" stop-color="#1fbfe2"/><stop offset="0.02775" stop-color="#1dbde0"/><stop offset="0.28831" stop-color="#0db1d6"/><stop offset="0.58573" stop-color="#04aacf"/><stop offset="1" stop-color="#01a8cd"/><stop offset="1" stop-color="#09a9ce"/><stop offset="1" stop-color="#2bb0d4"/><stop offset="1" stop-color="#47b5d9"/><stop offset="1" stop-color="#5db9dc"/><stop offset="1" stop-color="#6cbcdf"/><stop offset="1" stop-color="#75bde1"/><stop offset="1" stop-color="#78bee1"/></linearGradient><linearGradient id="linear-gradient-2" x1="210.83292" y1="144.53129" x2="210.83292" y2="93.49342" gradientUnits="userSpaceOnUse"><stop offset="0" stop-color="#9acae5"/><stop offset="0" stop-color="#86c6e2"/><stop offset="0" stop-color="#01a8cd"/><stop offset="0.08041" stop-color="#079dc7"/><stop offset="0.22602" stop-color="#0e92c0"/><stop offset="0.43095" stop-color="#128bbc"/><stop offset="1" stop-color="#1389bb"/></linearGradient><linearGradient id="linear-gradient-3" x1="73.9313" y1="227.56241" x2="101.87279" y2="179.16632" gradientUnits="userSpaceOnUse"><stop offset="0" stop-color="#cddd68"/><stop offset="0.29952" stop-color="#cadc67"/><stop offset="0.50631" stop-color="#c1d863"/><stop offset="0.68517" stop-color="#b2d15d"/><stop offset="0.84719" stop-color="#9cc754"/><stop offset="0.99808" stop-color="#80bb49"/><stop offset="1" stop-color="#80bb49"/></linearGradient><linearGradient id="linear-gradient-4" x1="209.89642" y1="187.72428" x2="278.72302" y2="187.72428" gradientUnits="userSpaceOnUse"><stop offset="0" stop-color="#80bb49"/><stop offset="0.04045" stop-color="#89bf50"/><stop offset="0.18531" stop-color="#a5cd65"/><stop offset="0.34181" stop-color="#bbd776"/><stop offset="0.51363" stop-color="#cade82"/><stop offset="0.71229" stop-color="#d3e389"/><stop offset="1" stop-color="#d6e48b"/></linearGradient><linearGradient id="linear-gradient-5" x1="61.6057" y1="26.33529" x2="110.93619" y2="111.7782" xlink:href="#linear-gradient-3"/><linearGradient id="linear-gradient-6" x1="6.09523" y1="114.44747" x2="68.25804" y2="114.44747" gradientUnits="userSpaceOnUse"><stop offset="0" stop-color="#78bee1"/><stop offset="0.4033" stop-color="#7bbfe1"/><stop offset="0.68173" stop-color="#84c2e2"/><stop offset="0.92176" stop-color="#93c8e4"/><stop offset="1" stop-color="#9acae5"/></linearGradient><linearGradient id="linear-gradient-7" x1="62.97285" y1="135.42558" x2="175.40109" y2="135.42558" gradientUnits="userSpaceOnUse"><stop offset="0" stop-color="#63cae5"/><stop offset="0.00659" stop-color="#62cae5"/><stop offset="0.1568" stop-color="#46c1de"/><stop offset="0.31802" stop-color="#30bbd9"/><stop offset="0.49606" stop-color="#21b6d5"/><stop offset="0.70188" stop-color="#18b4d3"/><stop offset="1" stop-color="#15b3d2"/></linearGradient></defs><g class="cls-1"><path d="M248.55052,394.085V331.55865h12.98082v23.84049H285.838V331.55865H298.8175V394.085H285.838V366.17242H261.53134V394.085Z"/><path d="M328.711,365.9603a19.12982,19.12982,0,0,0,4.82886-1.06058q2.6082-1.09983,2.6069-3.4357a4.06106,4.06106,0,0,0-1.99936-3.92279,12.61616,12.61616,0,0,0-5.86978-1.08151q-4.34244,0-6.14868,2.12112a8.72428,8.72428,0,0,0-1.71918,4.24228h-11.6662a17.68553,17.68553,0,0,1,3.40823-9.96933q4.8138-6.10807,16.53043-6.10937A29.49653,29.49653,0,0,1,342.23,349.75589q5.92145,3.01277,5.92215,11.37033v21.20871q0,2.20757.0838,5.34473a6.72551,6.72551,0,0,0,.72144,3.2236,4.34472,4.34472,0,0,0,1.782,1.401v1.7807H337.58966a13.3386,13.3386,0,0,1-.76334-2.62915q-.2141-1.2295-.34042-2.79938a24.93935,24.93935,0,0,1-5.803,4.622,17.54192,17.54192,0,0,1-8.87472,2.24945,15.31878,15.31878,0,0,1-10.43152-3.585q-4.11855-3.58236-4.11789-10.16049,0-8.52384,6.624-12.34186,3.63341-2.07792,10.68424-2.9696Zm7.39255,5.64325a13.4181,13.4181,0,0,1-2.34372,1.16531,19.581,19.581,0,0,1-3.24585.82751l-2.75223.508a18.13381,18.13381,0,0,0-5.55685,1.655,5.52238,5.52238,0,0,0-2.85569,5.13263,5.36183,5.36183,0,0,0,1.744,4.47534,6.62951,6.62951,0,0,0,4.24228,1.38,12.63855,12.63855,0,0,0,7.30087-2.29135q3.33879-2.29005,3.46714-8.35623Z"/><path d="M416.40549,348.01709a13.4605,13.4605,0,0,1,5.38662,4.15848,13.285,13.285,0,0,1,2.63047,5.93655,41.20621,41.20621,0,0,1,.42422,6.82953l-.08511,29.14334H412.37534V364.64572a9.66326,9.66326,0,0,0-.84845-4.32605q-1.61248-3.22494-5.93918-3.2236-5.00625,0-6.91464,4.15585a13.05829,13.05829,0,0,0-.97547,5.30283V394.085H385.52335V366.55475a15.46326,15.46326,0,0,0-.84845-5.98108q-1.526-3.35059-5.98108-3.35193-5.17521,0-6.95655,3.35193a12.9141,12.9141,0,0,0-.97546,5.68515V394.085H358.50247v-46.1517h11.75v6.7431a19.4905,19.4905,0,0,1,4.24225-5.1326,16.78927,16.78927,0,0,1,17.68921-.3797,13.57881,13.57881,0,0,1,3.98694,5.55686,15.34267,15.34267,0,0,1,5.896-5.98108,17.98813,17.98813,0,0,1,8.31434-1.909A16.1217,16.1217,0,0,1,416.40549,348.01709Z"/><path d="M454.273,365.9603a19.12982,19.12982,0,0,0,4.82886-1.06058q2.6082-1.09983,2.6069-3.4357a4.06106,4.06106,0,0,0-1.99936-3.92279,12.61616,12.61616,0,0,0-5.86978-1.08151q-4.34244,0-6.14868,2.12112a8.72428,8.72428,0,0,0-1.71918,4.24228H434.30548a17.68553,17.68553,0,0,1,3.40823-9.96933q4.81376-6.10807,16.53043-6.10937a29.49681,29.49681,0,0,1,13.54776,3.0115q5.92145,3.01277,5.92215,11.37033V382.335q0,2.20752.0838,5.34473a6.72556,6.72556,0,0,0,.72144,3.2236,4.34472,4.34472,0,0,0,1.782,1.401v1.7807H463.15158a13.3386,13.3386,0,0,1-.76334-2.62915q-.21409-1.22946-.34042-2.79938a24.93935,24.93935,0,0,1-5.803,4.622,17.54192,17.54192,0,0,1-8.87472,2.24945,15.3188,15.3188,0,0,1-10.43152-3.585q-4.11855-3.58236-4.11789-10.16049,0-8.52384,6.624-12.34186,3.63341-2.07792,10.68424-2.9696Zm7.39255,5.64325a13.4181,13.4181,0,0,1-2.34372,1.16531,19.58072,19.58072,0,0,1-3.24585.82751l-2.75223.508a18.13381,18.13381,0,0,0-5.55685,1.655,5.52238,5.52238,0,0,0-2.85569,5.13263,5.36186,5.36186,0,0,0,1.744,4.47534,6.62953,6.62953,0,0,0,4.24228,1.38,12.63855,12.63855,0,0,0,7.30087-2.29135q3.33879-2.29005,3.46714-8.35623Z"/><path d="M507.1481,347.805a14.52892,14.52892,0,0,1,7.11759,6.70383v-6.66193h11.79193v43.863q0,8.948-3.01148,13.48883-5.1752,7.805-19.85223,7.8063-8.86556,0-14.4643-3.48022a12.82784,12.82784,0,0,1-6.19317-10.39093h13.14972a5.44431,5.44431,0,0,0,1.65368,3.05337q1.95026,1.65368,6.5755,1.655,6.53233,0,8.73853-4.37057,1.44159-2.80069,1.44159-9.41678v-2.9696a14.75468,14.75468,0,0,1-3.73294,4.45437,15.00773,15.00773,0,0,1-9.37357,2.75748q-8.90872,0-14.23254-6.256-5.32443-6.25736-5.32379-16.94812,0-10.30715,5.12607-17.32782,5.12607-7.0194,14.53106-7.02069A15.88686,15.88686,0,0,1,507.1481,347.805ZM511.266,380.9549q2.91459-3.20138,2.91461-10.19977,0-6.57555-2.76663-10.01123a9.027,9.027,0,0,0-7.41348-3.4357q-6.336,0-8.74378,5.98108a21.26822,21.26822,0,0,0-1.26745,7.84558,17.97353,17.97353,0,0,0,1.35122,7.17,8.80979,8.80979,0,0,0,8.787,5.85275A9.2785,9.2785,0,0,0,511.266,380.9549Z"/><path d="M567.47205,348.78436a18.81193,18.81193,0,0,1,7.9909,6.84,22.72693,22.72693,0,0,1,3.68317,9.5582,58.98732,58.98732,0,0,1,.398,9.17846h-33.675q.28089,6.95651,4.83539,9.75461a12.27533,12.27533,0,0,0,6.66583,1.7388,9.38627,9.38627,0,0,0,9.20075-5.3002H578.913q-.48705,4.11264-4.48187,8.35623-6.21222,6.74442-17.39459,6.7431a25.20858,25.20858,0,0,1-16.28693-5.68777q-7.0545-5.68776-7.05456-18.51147,0-12.01584,6.36865-18.425,6.36933-6.41053,16.53436-6.41053A26.30138,26.30138,0,0,1,567.47205,348.78436Zm-18.08594,10.4433a12.568,12.568,0,0,0-3.21967,7.15686h20.8277a10.09183,10.09183,0,0,0-3.221-7.30612,10.60043,10.60043,0,0,0-7.17-2.493A9.59533,9.59533,0,0,0,549.38611,359.22766Z"/><path d="M622.9436,350.4996q4.54074,3.75129,4.54078,12.44922V394.085h-12.3863V365.9603a12.92225,12.92225,0,0,0-.96893-5.59876q-1.76963-3.56268-6.73657-3.564-6.10812,0-8.37976,5.219a18.02062,18.02062,0,0,0-1.17975,7.04163V394.085H585.744v-46.1517h11.70685v6.7431a20.52271,20.52271,0,0,1,4.39416-5.1326,15.22993,15.22993,0,0,1,9.41937-2.79937Q618.40152,346.74436,622.9436,350.4996Z"/><path d="M665.95679,347.33884A91.04254,91.04254,0,0,1,675.75592,330.54h9.12347l-2.59252,4.7529a70.84053,70.84053,0,0,0-7.42133,20.53048,81.11272,81.11272,0,0,0-1.35651,15.356,72.50746,72.50746,0,0,0,3.77613,23.88239,108.4124,108.4124,0,0,0,7.80365,16.5422h-8.95063l-3.01147-4.114a55.16,55.16,0,0,1-6.23511-11.11368,63.28551,63.28551,0,0,1-5.89728-25.96161A57.60655,57.60655,0,0,1,665.95679,347.33884Z"/><path d="M704.68579,394.085H691.705V331.55865h12.98083Z"/><path d="M725.30011,379.32343a8.05541,8.05541,0,0,0,1.66284,4.58007q2.25861,2.41965,8.35358,2.41968a12.78189,12.78189,0,0,0,5.69043-1.06058,3.55354,3.55354,0,0,0,.41113-6.2796q-1.70087-1.06055-12.64825-3.64783-7.87959-1.94832-11.10321-4.8786-3.225-2.88318-3.2262-8.31433a14.4129,14.4129,0,0,1,5.03833-11.00631q5.0397-4.60369,14.17755-4.60364,8.67317,0,14.133,3.45666,5.46385,3.46061,6.27173,11.9412h-12.0904a7.14306,7.14306,0,0,0-1.3172-3.68973q-1.99941-2.45887-6.806-2.459-3.95544,0-5.63537,1.22815a3.54388,3.54388,0,0,0-1.68122,2.88581,3.15355,3.15355,0,0,0,1.78858,3.01147q1.78335.97412,12.622,3.35193,7.2236,1.69693,10.82824,5.13263a11.64017,11.64017,0,0,1,3.564,8.694,14.03963,14.03963,0,0,1-5.12213,11.22107q-5.12211,4.34834-15.83252,4.347-10.92379,0-16.13111-4.601a14.9665,14.9665,0,0,1-5.20593-11.72906Z"/><path d="M789.9292,346.76535c.15448.01572.50018.03665,1.03961.06546v12.38638c-.76465-.08642-1.44287-.14141-2.03735-.17019s-1.07367-.0419-1.44287-.0419q-7.29438,0-9.79914,4.75027-1.39846,2.671-1.39837,8.22791V394.085H764.11682V347.84686h11.5379v8.06031a25.65583,25.65583,0,0,1,4.87861-6.32151,13.2867,13.2867,0,0,1,8.82232-2.84128C789.58087,346.74438,789.77209,346.75226,789.9292,346.76535Z"/><path d="M816.36481,365.9603a19.14323,19.14323,0,0,0,4.82885-1.06058q2.60432-1.09983,2.6056-3.4357a4.06182,4.06182,0,0,0-2.00068-3.92279,12.61373,12.61373,0,0,0-5.86847-1.08151q-4.34051,0-6.14868,2.12112a8.76252,8.76252,0,0,0-1.72046,4.24228H796.39734a17.67533,17.67533,0,0,1,3.40692-9.96933q4.81568-6.10807,16.53174-6.10937a29.49864,29.49864,0,0,1,13.54645,3.0115q5.92337,3.01277,5.92083,11.37033V382.335q0,2.20752.08643,5.34473a6.71339,6.71339,0,0,0,.72015,3.2236,4.34885,4.34885,0,0,0,1.7807,1.401v1.7807H825.24219a13.34436,13.34436,0,0,1-.76465-2.62915c-.14142-.81964-.254-1.75452-.33783-2.79938a24.994,24.994,0,0,1-5.803,4.622,17.549,17.549,0,0,1-8.87469,2.24945,15.32006,15.32006,0,0,1-10.4328-3.585q-4.11658-3.58236-4.11658-10.16049,0-8.52384,6.62262-12.34186,3.63336-2.07792,10.6842-2.9696Zm7.39251,5.64325a13.45911,13.45911,0,0,1-2.34375,1.16531,19.707,19.707,0,0,1-3.24713.82751l-2.75226.508a18.14555,18.14555,0,0,0-5.55682,1.655,5.52336,5.52336,0,0,0-2.857,5.13263q-.00009,3.09919,1.74664,4.47534a6.62449,6.62449,0,0,0,4.24225,1.38,12.63873,12.63873,0,0,0,7.3009-2.29135q3.33883-2.29005,3.4671-8.35623Z"/><path d="M876.495,348.78436a18.79348,18.79348,0,0,1,7.98962,6.84,22.74658,22.74658,0,0,1,3.68451,9.5582,59.15292,59.15292,0,0,1,.398,9.17846H854.89087q.28281,6.95651,4.83667,9.75461a12.27071,12.27071,0,0,0,6.66455,1.7388,9.38216,9.38216,0,0,0,9.202-5.3002H887.936q-.487,4.11264-4.48059,8.35623-6.214,6.74442-17.39593,6.7431a25.20238,25.20238,0,0,1-16.28559-5.68777q-7.05861-5.68776-7.05737-18.51147,0-12.01584,6.37128-18.425,6.3674-6.41053,16.53436-6.41053A26.30008,26.30008,0,0,1,876.495,348.78436Zm-18.0846,10.4433a12.55218,12.55218,0,0,0-3.221,7.15686h20.82636a10.09713,10.09713,0,0,0-3.21839-7.30612,10.605,10.605,0,0,0-7.17254-2.493A9.587,9.587,0,0,0,858.4104,359.22766Z"/><path d="M907.02625,394.085h-12.0879V331.55865h12.08783Z"/><path d="M933.16589,347.33884a57.6836,57.6836,0,0,1,4.95453,23.07583,63.37129,63.37129,0,0,1-5.88678,25.96161A55.20546,55.20546,0,0,1,926.009,407.49l-3.00622,4.114h-8.93494a109.38023,109.38023,0,0,0,7.77747-16.5422,72.851,72.851,0,0,0,3.76043-23.88239,81.56214,81.56214,0,0,0-1.35125-15.356,70.93641,70.93641,0,0,0-7.39777-20.53049L914.28,330.54h9.10516A91.16412,91.16412,0,0,1,933.16589,347.33884Z"/></g><path class="cls-2" d="M279.22107,224.02213l-.00977,2.49382.00006.00013a1.51125,1.51125,0,0,0,.213-.00869V224.033A.617.617,0,0,0,279.22107,224.02213Z"/><path class="cls-3" d="M273.24216,206.71259c-.00418-.27512.028-.5622-.24478-.74967l-.00007-.00008C273.00217,206.2379,272.94852,206.532,273.24216,206.71259Z"/><path class="cls-3" d="M274.22723,209.92776c-.00225-.274.03-.5592-.24145-.74613l-.00006-.00007C273.9917,209.4545,273.93756,209.74683,274.22723,209.92776Z"/><path class="cls-3" d="M274.46576,210.66714a.53226.53226,0,0,0-.226-.50939l-.00058-.00074A.50782.50782,0,0,0,274.46576,210.66714Z"/><path class="cls-3" d="M273.48535,207.45348a.55829.55829,0,0,0-.23175-.518l-.00067-.00079A.50474.50474,0,0,0,273.48535,207.45348Z"/><path class="cls-3" d="M273.96844,208.93414a.51287.51287,0,0,0-.22683-.50151l-.00034-.00039A.50991.50991,0,0,0,273.96844,208.93414Z"/><path class="cls-3" d="M272.97946,205.71761a.51011.51011,0,0,0-.22784-.499l-.00061-.00073A.51.51,0,0,0,272.97946,205.71761Z"/><path class="cls-3" d="M273.72687,208.19389a.536.536,0,0,0-.22858-.51059l-.00079-.001A.50758.50758,0,0,0,273.72687,208.19389Z"/><path class="cls-4" d="M318.37225,68.949l4.71222-5.54912a17.90845,17.90845,0,0,0,11.87918,5.20064c5.13065,0,7.94791-2.32882,7.94791-5.885,0-3.74933-2.9418-4.94872-7.083-6.70514l-6.23208-2.70528c-4.48969-1.86837-9.21729-5.42456-9.21729-12.0891,0-7.26353,6.414-12.85465,15.30942-12.85465a19.98444,19.98444,0,0,1,14.054,5.81363l-4.15377,5.13066a14.68631,14.68631,0,0,0-9.90024-3.91727c-4.32175,0-7.139,2.02232-7.139,5.3546,0,3.58277,3.47223,4.90673,7.25095,6.4546l6.1481,2.57934c5.42456,2.25883,9.21728,5.68907,9.21728,12.29763,0,7.38949-6.13553,13.553-16.36883,13.553A23.4901,23.4901,0,0,1,318.37225,68.949Z"/><path class="cls-4" d="M368.632,63.24588V46.933h-4.88016V40.90945l5.29862-.36248.94747-9.34183h6.666V40.547h8.72745v6.386h-8.72742V63.23188c0,4.02924,1.56046,6.00957,4.85074,6.00957a10.74309,10.74309,0,0,0,3.57019-.78094l1.36594,5.9116a22.22179,22.22179,0,0,1-6.999,1.25537C371.55984,75.62748,368.632,70.63538,368.632,63.24588Z"/><path class="cls-4" d="M399.74908,65.58869c0-7.33492,6.07953-11.15422,20.13358-12.66011-.112-3.68076-1.58987-6.74852-6.21808-6.74852-3.40225,0-6.60855,1.53388-9.62033,3.37426l-2.95581-5.35458a26.69723,26.69723,0,0,1,14.054-4.48968c8.56091,0,12.77206,5.27061,12.77206,14.80838V74.79057h-6.582l-.613-3.79271h-.22394c-3.06634,2.6213-6.58056,4.62963-10.62381,4.62963C403.87628,75.62748,399.74908,71.55626,399.74908,65.58869Zm20.13358.028v-7.6974c-9.28586,1.1714-12.38159,3.59818-12.38159,7.055,0,3.02578,2.0643,4.35113,4.93612,4.35113,2.78925,0,4.90812-1.36734,7.44547-3.70874Z"/><path class="cls-4" d="M448.09848,63.24588V46.933h-4.88016V40.90945L448.517,40.547l.94748-9.34183H456.129V40.547h8.72885v6.386H456.129V63.23188c0,4.02924,1.56186,6.00957,4.85214,6.00957a10.74333,10.74333,0,0,0,3.57019-.78094l1.36594,5.9116a22.22179,22.22179,0,0,1-6.999,1.25537C451.02631,75.62748,448.09848,70.63538,448.09848,63.24588Z"/><path class="cls-4" d="M479.14557,57.69676c0-11.12623,7.72537-17.9867,15.78384-17.9867,9.25788,0,14.138,6.69253,14.138,16.25829a20.87325,20.87325,0,0,1-.34848,3.90327H486.98151c.67038,6.07954,4.57364,9.53637,10.09478,9.53637a14.606,14.606,0,0,0,7.94791-2.48136l2.73187,4.99211a21.25187,21.25187,0,0,1-11.73922,3.70874C486.56305,75.62748,479.14557,68.99093,479.14557,57.69676Zm22.97882-3.29028c0-5.27062-2.3428-8.47693-7.02841-8.47693-3.98725,0-7.50006,2.98379-8.197,8.47693Z"/><path class="cls-4" d="M549.34021,57.69676c0-11.40473,7.75336-17.9867,16.28625-17.9867s16.28486,6.582,16.28486,17.9867c0,11.34875-7.752,17.93072-16.28486,17.93072S549.34021,69.04551,549.34021,57.69676Zm24.31677,0c0-6.86047-3.01178-11.43272-8.03045-11.43272-5.02008,0-8.03186,4.57225-8.03186,11.43272s3.01178,11.37675,8.03186,11.37675c5.01861,0,8.03039-4.51627,8.03039-11.37675Z"/><path class="cls-4" d="M596.81207,40.90945l5.01868-.36248h14.306v6.386H596.81207Zm4.60163-3.90328c0-7.097,3.26226-12.29763,11.34875-12.29763a17.42853,17.42853,0,0,1,6.27405,1.198l-1.53388,5.99557a9.58872,9.58872,0,0,0-3.70874-.80752c-2.84381,0-4.34973,1.79839-4.34973,5.77164V74.79057H601.4137Z"/><path class="cls-4" d="M657.69147,29.19822H665.778V74.79057h-8.08648Z"/><path class="cls-4" d="M683.70862,70.8593l3.73675-5.10407c3.0398,2.37079,5.98157,3.8207,9.4524,3.8207,3.73675,0,5.4945-1.7564,5.4945-4.09921,0-2.87182-3.70874-4.15519-7.36432-5.54912-4.48687-1.68642-9.62036-4.26715-9.62036-9.98281,0-5.93959,4.79755-10.23473,12.467-10.23473A18.44763,18.44763,0,0,1,709.25,43.80927l-3.68073,4.93612c-2.396-1.7564-4.80877-2.98378-7.50146-2.98378-3.44281,0-5.07471,1.64584-5.07471,3.79271,0,2.70528,3.45966,3.73673,7.1684,5.10267,4.62683,1.72981,9.81348,3.96066,9.81348,10.34528,0,5.88361-4.65485,10.6252-13.30109,10.6252A21.40874,21.40874,0,0,1,683.70862,70.8593Z"/><path class="cls-4" d="M727.609,40.547h6.58057l.613,6.10753h.22394c2.4408-4.46168,6.06555-6.94444,9.7323-6.94444a8.73845,8.73845,0,0,1,3.87671.697l-1.39392,6.97244a11.61081,11.61081,0,0,0-3.51563-.55841c-2.73187,0-6.02075,1.86836-8.08648,7.083V74.79057H727.609Z"/><path class="cls-4" d="M760.41382,65.58869c0-7.33492,6.07672-11.15422,20.1336-12.66011-.112-3.68076-1.58984-6.74852-6.21948-6.74852-3.40362,0-6.60858,1.53388-9.6203,3.37426l-2.95581-5.35458a26.69725,26.69725,0,0,1,14.054-4.48968c8.55951,0,12.77209,5.27061,12.77209,14.80838V74.79057h-6.58056l-.61579-3.79271h-.22113c-3.06775,2.6213-6.58056,4.62963-10.62518,4.62963C764.53961,75.62748,760.41382,71.55626,760.41382,65.58869Zm20.1336.028v-7.6974c-9.28723,1.1714-12.383,3.59818-12.383,7.055,0,3.02578,2.06293,4.35113,4.9375,4.35113,2.78784,0,4.90674-1.36734,7.44549-3.70874Z"/><path class="cls-4" d="M806.41907,57.69676c0-11.12623,7.7254-17.9867,15.78387-17.9867,9.25647,0,14.138,6.69253,14.138,16.25829a20.7348,20.7348,0,0,1-.34985,3.90327H814.25641c.669,6.07954,4.57367,9.53637,10.09338,9.53637a14.59785,14.59785,0,0,0,7.94654-2.48136l2.73468,4.99211a21.25742,21.25742,0,0,1-11.742,3.70874C813.83655,75.62748,806.41907,68.99093,806.41907,57.69676Zm22.97741-3.29028c0-5.27062-2.34277-8.47693-7.02563-8.47693-3.98865,0-7.50147,2.98379-8.19843,8.47693Z"/><path class="cls-4" d="M854.476,65.97915V25.54406h8.03046V66.39761c0,1.97893.89288,2.67591,1.7298,2.67591a4.7118,4.7118,0,0,0,1.254-.13856l1.00488,5.99557a11.25247,11.25247,0,0,1-4.23779.697C856.56683,75.62748,854.476,71.94673,854.476,65.97915Z"/><path class="cls-4" d="M318.37225,107.47649h19.03214l10.13678,27.51327c1.24139,3.72414,2.27563,7.86113,3.517,11.791h.41287c1.24139-3.92987,2.27563-8.06686,3.517-11.791l9.7225-27.51328h19.03217V174.7083H367.60757V154.849c0-6.82687,1.44712-17.27293,2.27564-23.99626H369.469l-5.58551,16.13513L355.608,169.225h-9.51538l-8.274-22.23706-5.37835-16.13514H332.026c.82712,6.72333,2.27564,17.16938,2.27564,23.99627V174.7083H318.37225Z"/><path class="cls-4" d="M398.73022,107.68362c0-5.17266,4.137-8.8954,9.92823-8.8954,5.79263,0,9.931,3.72274,9.931,8.89539,0,5.17125-4.1384,8.89538-9.931,8.89538C402.86722,116.579,398.73022,112.85487,398.73022,107.68362Zm1.03425,15.308h17.78936V174.7083H399.76447Z"/><path class="cls-4" d="M432.1355,122.99163H446.615l1.24139,6.2055h.41425c4.137-3.92987,9.30963-7.44688,16.34225-7.44688,11.37815,0,16.13514,8.274,16.13514,21.10066v31.8574H462.95865V145.12653c0-6.61977-1.65564-8.27541-5.17264-8.27541-3.30987,0-5.17123,1.44852-7.86114,3.93127V174.7083H432.1355Z"/><path class="cls-4" d="M493.87558,107.68362c0-5.17266,4.1384-8.8954,9.931-8.8954,5.79123,0,9.92822,3.72274,9.92822,8.89539,0,5.17125-4.137,8.89538-9.92822,8.89538C498.014,116.579,493.87558,112.85487,493.87558,107.68362Zm1.03564,15.308h17.7894V174.7083h-17.7894Z"/><path class="cls-4" d="M523.14386,168.71l7.86114-10.96389c4.75837,3.51561,8.999,5.16985,12.61951,5.16985,3.72272,0,5.17127-1.03285,5.17127-3.10135,0-2.6899-4.75837-3.92987-9.92963-5.99976-5.99976-2.37919-13.03241-6.82688-13.03241-15.308,0-10.13677,8.274-16.75652,20.47925-16.75652,8.48254,0,14.48089,3.41345,19.03216,6.82689L557.484,139.12675c-3.72272-2.68849-7.34332-4.34411-10.54962-4.34411-3.00061,0-4.55127.82712-4.55127,2.897,0,2.68849,4.55127,3.72273,9.72253,5.58411,6.20551,2.27563,13.2395,6.20689,13.2395,15.51513,0,9.72391-7.654,17.16939-22.13488,17.16939A34.49232,34.49232,0,0,1,523.14386,168.71Z"/><path class="cls-4" d="M576.82263,154.849V136.8511h-6.8269V123.61162l7.86114-.62,2.06848-13.44664H594.612v13.44664h11.79242v13.8595H594.612v17.68721c0,5.69048,2.897,7.55183,6.20691,7.55183a14.86285,14.86285,0,0,0,4.55127-.82852l2.68847,12.82526a39.02637,39.02637,0,0,1-12.20526,1.86137C582.4068,175.94827,576.82263,167.46716,576.82263,154.849Z"/><path class="cls-4" d="M618.502,122.99163h14.4795l1.24279,8.89539h.41144c3.8291-7.034,9.62036-10.13677,14.68939-10.13677a15.38349,15.38349,0,0,1,6.41266,1.03425l-2.897,15.308a24.45065,24.45065,0,0,0-5.79126-.82712c-3.72272,0-8.274,2.27564-10.75678,8.68826V174.7083H618.502Z"/><path class="cls-4" d="M664.10968,193.12045l3.10413-13.44664a17.03815,17.03815,0,0,0,3.30847.61859c4.75836,0,7.034-2.06849,8.06964-5.16984l.6214-2.27564-19.655-49.8553h17.79077l6.20831,19.85927c1.44709,4.75839,2.48,9.51538,3.72272,14.688h.41425c1.03283-4.96551,2.06848-9.72389,3.30847-14.688l5.17267-19.85927h16.96228l-17.37653,50.88816c-5.37976,13.96446-10.96387,20.27353-23.78912,20.27353A26.86974,26.86974,0,0,1,664.10968,193.12045Z"/><path class="cls-4" d="M743.53558,148.84927c0-17.16937,12.41382-27.099,25.65332-27.099s25.65052,9.92965,25.65052,27.099c0,17.17078-12.411,27.099-25.65052,27.099S743.53558,166.02005,743.53558,148.84927Zm33.10157,0c0-7.85974-2.07129-12.82525-7.44825-12.82525-5.37976,0-7.4483,4.96551-7.4483,12.82525,0,7.86113,2.06848,12.82665,7.4483,12.82665C774.56586,161.67592,776.63715,156.7104,776.63715,148.84927Z"/><path class="cls-4" d="M802.38562,123.61162l7.85974-.62h25.44617v13.8595H802.38562Zm6.8269-1.24138c0-11.06745,5.17267-20.89352,20.48066-20.89352a32.88951,32.88951,0,0,1,10.96386,1.86277l-3.10412,13.03238a15.31859,15.31859,0,0,0-5.17267-1.03425c-3.30847,0-5.377,1.55067-5.377,6.41262V174.7083H809.21252Z"/><path class="cls-4" d="M870.64325,107.47649H888.434V132.507h20.0636V107.47649h17.79077V174.7083H908.49762V148.02216H888.434V174.7083H870.64325Z"/><path class="cls-4" d="M939.62592,148.84927c0-16.75512,12.20385-27.099,24.822-27.099,15.308,0,22.54913,11.171,22.54913,25.03052a36.95632,36.95632,0,0,1-.725,7.44827h-29.4768c1.65423,6.20411,6.2055,8.27541,11.99676,8.27541a21.24346,21.24346,0,0,0,10.55243-3.10416L985.13574,169.95a34.84827,34.84827,0,0,1-18.82641,5.99837C951.20837,175.94827,939.62592,166.02005,939.62592,148.84927Zm32.27026-6.2055c0-3.92987-1.65424-7.44687-7.034-7.44687-3.92987,0-7.24115,2.27562-8.274,7.44687Z"/><path class="cls-4" d="M996.1947,160.02168c0-10.75815,8.274-16.75792,28.1333-18.82641-.41144-3.72274-2.68707-5.37838-7.23834-5.37838-3.72552,0-7.65539,1.44852-13.03241,4.34414l-6.20831-11.58388c7.24115-4.34413,14.68939-6.82689,22.75628-6.82689,13.44666,0,21.51355,7.23975,21.51355,24.2034V174.7083h-14.47949l-1.24-4.96552h-.4143c-4.137,3.72553-8.68824,6.20549-14.27515,6.20549C1001.98877,175.94827,996.1947,168.50281,996.1947,160.02168Zm28.1333-1.24278v-7.03261c-8.48114,1.24138-11.16821,3.93126-11.16821,6.82549,0,2.37919,1.65424,3.72554,4.75562,3.72554C1020.81238,162.29732,1022.46661,160.8474,1024.328,158.7789Z"/><path class="cls-4" d="M1056.282,156.50327V102.7181h17.79077v54.40656c0,3.51561,1.6543,4.55126,2.897,4.55126a6.37209,6.37209,0,0,0,1.86132-.20712l2.06849,13.03237a21.98971,21.98971,0,0,1-8.68824,1.44712C1060.2146,175.94827,1056.282,168.08855,1056.282,156.50327Z"/><path class="cls-4" d="M1091.96143,154.849V136.8511h-6.82691V123.61162l7.86255-.62,2.06848-13.44664h14.68665v13.44664h11.79236v13.8595H1109.7522v17.68721c0,5.69048,2.897,7.55183,6.20544,7.55183a14.83918,14.83918,0,0,0,4.55127-.82852l2.68994,12.82526a39.03045,39.03045,0,0,1-12.20385,1.86137C1097.54834,175.94827,1091.96143,167.46716,1091.96143,154.849Z"/><path class="cls-4" d="M1133.6394,102.7181h17.79078v16.75652l-.82569,8.89539c3.51563-3.10275,8.48108-6.61976,15.51514-6.61976,11.37537,0,16.13379,8.274,16.13379,21.10066v31.8574h-17.7909V145.12653c0-6.61977-1.65429-8.27541-5.1698-8.27541-3.31127,0-5.1726,1.44852-7.86254,3.93127V174.7083H1133.6394Z"/><path class="cls-4" d="M670.83478,252.50874a37.38894,37.38894,0,0,0,5.33636-.19346,5.67265,5.67265,0,0,0,4.54016-3.6034,15.47858,15.47858,0,0,0,1.19336-5.92834c.08081-4.14212.06879-8.28618.08033-12.42951.01068-3.85363-.00025-7.70732.004-11.561.00122-1.10484.01026-1.11655,1.05787-1.119q4.22433-.00982,8.44879.00193c.86816.00333.89282.025.8916.90508-.01148,8.20431.00964,16.409-.07587,24.61266a26.94784,26.94784,0,0,1-1.11951,7.21791,13.70591,13.70591,0,0,1-11.00817,10.2494,32.34189,32.34189,0,0,1-6.77228.74353q-14.22629.01355-28.45252.004c-.04144,0-.08282.00021-.12426-.00006-1.21381-.00769-1.22181-.00769-1.222-1.21323q-.00293-20.63578-.001-41.27148c0-.20719.01374-.41506.001-.62139-.03046-.49272.22229-.66587.678-.62964.08227.00655.16559-.00064.24841-.00064,2.85767-.00013,5.71539-.00625,8.573.00327.93359.00311.94366.02165.9527.97723.011,1.16016.00268,2.32047.00268,3.48072v28.716c0,.29005.02124.58192-.00366.8698-.04883.56428.1311.8199.757.8106,2.11176-.03134,4.22436-.02443,6.3363-.00331.55756.00557.82007-.16794.88324-.75509.47815-4.44507,1.03266-8.88408,1.23529-13.35294.18036-3.97778-.18139-7.94977-.23053-11.926-.03222-2.60912-.14776-5.21714-.20916-7.826-.02277-.9689-.001-.98738.9143-.991q3.78938-.01489,7.579.00048c.86621.00375.88983.0236.91516.898.10431,3.60178.18891,7.20415.28913,10.806.04724,1.697.09088,3.39458.1759,5.08991a59.1404,59.1404,0,0,1-.83447,10.63093C671.55933,247.52,671.19812,249.93338,670.83478,252.50874Z"/><path class="cls-4" d="M696.30078,217.66167h6.00458c.86938,0,1.7409.03756,2.60742-.01207a.88834.88834,0,0,1,1.09265.845c.147.8551.36316,1.69823.54547,2.54736.05176.241.05909.5.32953.64908a3.21113,3.21113,0,0,0,1.1756-.62125,31.33162,31.33162,0,0,1,9.45349-3.96319,13.86089,13.86089,0,0,1,6.74933.235c3.57459.99151,5.44745,3.5569,6.35895,6.97369a17.11392,17.11392,0,0,1,.56274,4.42116c.00147,7.86993.0492,15.74033-.02533,23.60954-.02063,2.18294-.40313,4.36254-.6217,6.54344-.04535.45255-.10712.90348-.14881,1.35633-.106,1.15042-.10308,1.15985-1.22772,1.16107q-5.89929.00645-11.79876.00165c-.621,0-1.24311-.0239-1.86261.006-.55628.02692-.70942-.23068-.70643-.744q.02188-3.72775-.00067-7.45564c-.00384-.55631.24359-.70953.75165-.70169,1.2417.01916,2.48395.014,3.72583.00343,1.6507-.01408,1.48139.20484,1.484-1.42825q.01053-6.5859.00238-13.17182c0-2.4024.00446-4.80482-.003-7.20721a8.665,8.665,0,0,0-.18738-1.96954,2.64071,2.64071,0,0,0-2.18963-2.09339,9.9274,9.9274,0,0,0-4.43311.04895,23.90464,23.90464,0,0,0-5.706,2.05046,1.17417,1.17417,0,0,0-.75678,1.13274c-.13147,3.64006-.309,7.27855-.4837,10.917q-.432,8.99227-.87744,17.984-.04816.99266-.05829,1.987c-.00513.47189-.22687.64725-.69068.64575-3.02209-.00976-6.04437-.01883-9.06628.00662-.66943.00562-.73352-.32351-.696-.85186.12042-1.69257.21087-3.38727.329-5.08.219-3.13676.451-6.27258.67474-9.409.39752-5.57169.75647-11.14647,1.20764-16.71378a24.247,24.247,0,0,0-.57074-6.27632C696.93274,221.34074,696.6358,219.59091,696.30078,217.66167Z"/><path class="cls-4" d="M597.15619,244.06364q0,7.94964-.00025,15.89925c0,.2898-.01123.5799-.00195.86939.01386.43133-.21185.57681-.61249.57623q-4.65554-.007-9.311-.00012c-.41144.0007-.61169-.17707-.61115-.58783.00043-.33118-.00653-.66239-.00659-.99356q-.00054-15.7129-.0003-31.42585c0-.16562.00067-.33123-.00012-.49685-.00739-1.45444.10351-1.34761-1.33759-1.34844q-7.07638-.004-14.15289-.00114c-.28968,0-.58-.01476-.86884.00021-.47668.02471-.66022-.19017-.65808-.66356q.01675-3.7884,0-7.5769c-.00226-.47437.17767-.685.65381-.65346.24713.01639.4964.00076.74469.00076q15.70477-.00015,31.40942.00231c1.38849.00058,1.39838-.19452,1.24646,1.33134-.22534,2.263-.50787,4.5203-.7257,6.78391-.05591.58119-.28583.79049-.85108.78109-1.28247-.02128-2.56567-.01217-3.84845-.00349-1.05414.00716-1.06512.01479-1.06592,1.11066Q597.152,235.86559,597.15619,244.06364Z"/><path class="cls-4" d="M638.7262,244.66647q0,7.644-.00037,15.288c0,.33142.00055.663-.01007.99414a.42289.42289,0,0,1-.46771.454c-.04138.0007-.08283.00265-.12421.00265-3.06427.00055-6.12854-.00406-9.19281.00653-.47717.00165-.68079-.19027-.6546-.66259.016-.28913.00177-.57987.00177-.86988-.00006-9.36337-.05286-18.72723.02923-28.08989.0279-3.18039-1.27984-4.66912-4.25659-5.25184a17.47013,17.47013,0,0,0-4.94-.30919c-3.5014.31714-7.00739.59256-10.49133,1.0767-.51575.07166-.771-.03161-.76746-.6125.01532-2.52719.02026-5.05466-.00433-7.58169-.00537-.55045.25769-.7061.72217-.77323,1.3908-.201,2.77673-.43707,4.16888-.62768a79.70439,79.70439,0,0,1,8.88641-.874,29.89767,29.89767,0,0,1,8.85663.87563c4.71454,1.32247,7.17554,4.62081,7.96436,9.32328a24.4019,24.4019,0,0,1,.28247,4.08368Q638.71894,237.89253,638.7262,244.66647Z"/><path class="cls-4" d="M316.94431,257.45718l.65234-5.59793a7.479,7.479,0,0,0,2.6163.41552,2.9553,2.9553,0,0,0,3.20349-3.01174c.03974-.45.036-.9046.03611-1.35709q.00311-10.0643.00143-20.12858c0-.08234.00061-.16466-.00012-.247-.00989-1.15873-.00992-1.1631-1.12128-1.16888-1.11078-.00578-2.22211-.02125-3.33224.00649-.56.014-.83512-.10947-.7522-.756.28229-2.20094.52417-4.407.783-6.611.06341-.53981.25888-.85047.90954-.90119,2.129-.166,4.24949-.4376,6.37674-.62991,3.92917-.35523,7.85846-.721,11.80045-.902a33.78644,33.78644,0,0,1,10.15649.90565,11.41349,11.41349,0,0,1,9.01691,10.33566,29.67981,29.67981,0,0,1,.17261,3.19962q.00879,14.26289.00326,28.52579c-.00009,1.45132.09961,1.33966-1.32391,1.3403q-3.88788.00179-7.7757-.00028c-1.32116-.001-1.29406.13129-1.29272-1.24774q.00466-4.816.001-9.63209c0-6.25675-.04093-12.51389.02212-18.77.022-2.1864-.802-3.481-3.03757-4.39967a17.25577,17.25577,0,0,0-5.316-.9446,31.67051,31.67051,0,0,0-4.182.21108c-.49051.02615-.64795.252-.63193.69627.01038.28774,0,.57619,0,.86434-.00012,6.54487.02774,13.09-.01556,19.63455a27.41765,27.41765,0,0,1-.62091,6.61685,12.58175,12.58175,0,0,1-1.55689,3.7408,7.85916,7.85916,0,0,1-4.77447,3.47742,18.17166,18.17166,0,0,1-7.70359.3139,12.56859,12.56859,0,0,1-2.77176-1.008v-.98815A8.74892,8.74892,0,0,0,316.94431,257.45718Z"/><path class="cls-4" d="M382.89,217.405h6.9701c1.193,0,2.38882.05069,3.57779-.018a1.40086,1.40086,0,0,1,1.5014.93537c2.135,4.21914,4.30908,8.41852,6.47174,12.62365.99448,1.93369,1.99228,3.86565,3.12143,6.05611.12711-.77617.26285-1.298.29123-1.82555a142.0434,142.0434,0,0,1,2.30957-16.71778c.18115-1.04009.17929-1.04972,1.23856-1.05194q3.949-.00834,7.89813.00024c.28268.00037.56534.029.918.0484a34.31827,34.31827,0,0,1-.75138,4.13188q-2.46048,12.32817-4.98883,24.64272a2.45769,2.45769,0,0,0,.32315,1.96426c2.36243,3.81,4.68641,7.64389,7.01389,11.47548a2.22587,2.22587,0,0,1,.5278,1.08426c-.31494.21719-.65011.11417-.96054.11514-3.12631.00974-6.25345-.0329-9.37854.02988a1.76358,1.76358,0,0,1-1.80078-1.10077Q401.22789,248.918,395.217,238.0739c-.1886-.34146-.27991-.76769-.67142-.978-.26632.22487-.22543.52634-.24359.80762-.17746,2.74771-.30426,5.49974-.54068,8.24234-.34231,3.97114-.766,7.93526-1.14874,11.903-.06317.655-.0979,1.3128-.13934,1.96973-.03592.56924-.23081.87774-.90265.87054-3.04373-.03272-6.08808-.02387-9.132-.0065-.62381.00357-.74054-.19013-.6315-.80762,1.09286-6.18945,2.14935-12.38537,3.2189-18.579q1.25835-7.28673,2.52841-14.57141a2.20623,2.20623,0,0,0-.315-1.52082c-1.21774-2.193-2.41513-4.39738-3.617-6.59921C383.40869,218.41347,383.20847,218.01489,382.89,217.405Z"/><path class="cls-4" d="M477.00119,227.00139c0-2.8552.00851-5.56647-.00589-8.27764-.00366-.68511.52673-.66122.932-.73281,1.57724-.27871,3.16037-.52547,4.74408-.766a64.90409,64.90409,0,0,1,6.497-.67455,29.14423,29.14423,0,0,1,8.20773.69889c4.20254.99643,6.76123,4.01759,7.50961,8.637a31.84291,31.84291,0,0,1,.32755,5.04192q.02137,9.57143.00573,19.14291c0,.247-.002.494.00034.741.01129,1.20837.01169,1.21181,1.21741,1.216,1.27551.00436,2.55111.00888,3.82657-.00232.48541-.00428.73788.06033.65762.68826q-.4687,3.66867-.80911,7.35318c-.06034.65054-.31031.82388-.91773.81763-2.34509-.02411-4.69055-.00953-7.03586-.00953q-11.66487.0001-23.32983,0c-.20572,0-.41147-.00085-.61719.00016-1.26864.006-1.21457.06094-1.21313-1.2059.0025-2.18189-.00354-4.36379.00256-6.54564.003-1.07979.01166-1.09182,1.072-1.09278,5.061-.00462,10.122.00429,15.18292-.00567,1.74247-.00344,1.54837.23649,1.55042-1.596q.01067-9.57147.00265-19.14291c0-.32933.00412-.65881-.00366-.988a4.00129,4.00129,0,0,0-3.75946-4.22928l-.02154-.0012a26.62664,26.62664,0,0,0-7.12641.13864C481.65485,226.45506,479.41437,226.72244,477.00119,227.00139Z"/><path class="cls-4" d="M514.68982,226.98941a1.31267,1.31267,0,0,1-.18646-.98306q-.01008-3.39415-.00171-6.78842c.00281-1.03812.008-1.06813,1.06463-1.20809,2.198-.29114,4.3974-.57742,6.60218-.80935,2.36847-.2492,4.74-.50535,7.11688-.62952a32.47165,32.47165,0,0,1,10.14654.94067c5.44971,1.46083,8.63154,5.54409,8.948,11.18566.17078,3.04377.10028,6.08621.10822,9.12909.01855,7.11753.00592,14.23515.00592,21.35275,0,.24685.00622.49389-.00141.74054-.02868.93139-.03033.94888-.98614.95215q-4.13261.01419-8.2652.00207c-1.17969-.00183-1.18768-.00864-1.188-1.24594q-.00375-12.34263-.0014-24.68523c0-1.39883-.03082-2.79841.0058-4.19627a3.665,3.665,0,0,0-2.09369-3.49486,11.04717,11.04717,0,0,0-3.86957-1.15968,36.12837,36.12837,0,0,0-8.60474.11949C520.54785,226.473,517.606,226.73169,514.68982,226.98941Z"/><path class="cls-4" d="M472.23346,244.765q0,7.22555,0,14.45113c0,.2882-.01923.57782.0029.86428.0444.57459-.18625.80594-.77927.80222q-4.444-.02784-8.88824-.00226c-.51029.0022-.77512-.164-.74665-.70486.01731-.3284.0011-.65857.0011-.98792q-.00023-13.77177-.003-27.54359c-.00021-.53394-.03366-1.06835-.0654-1.6017a3.77467,3.77467,0,0,0-2.51931-3.35843,12.31237,12.31237,0,0,0-4.34031-.80078,35.919,35.919,0,0,0-5.53649.31329c-2.414.22348-4.82447.48924-7.23264.76918-.50308.05849-.66721-.08832-.66534-.57365.0097-2.51142.01867-5.023-.00739-7.5342-.00562-.54053.2406-.72513.70389-.79417,1.34085-.19979,2.67886-.41968,4.02133-.60779,2.76785-.38783,5.54114-.73839,8.334-.881a30.09786,30.09786,0,0,1,9.41886.84653c4.42169,1.19089,6.9364,4.18916,7.85486,8.60271a23.6757,23.6757,0,0,1,.44363,4.7839Q472.24477,237.78643,472.23346,244.765Z"/><path class="cls-4" d="M377.66751,239.14272q0,10.19.00037,20.38008c.00015,1.44314.06811,1.353-1.33014,1.35269q-3.88871-.00087-7.77741-.00061c-1.36273-.00086-1.36715-.003-1.3684-1.31555q-.00431-4.44658-.00092-8.89313V227.93933c0-.28819.00748-.57664-.00171-.86455-.02832-.88565-.03058-.9024-.89722-.91395-1.23431-.01645-2.4693-.02182-3.70333.00178-.54221.01035-.73111-.18454-.66681-.72732.21762-1.83719.4086-3.67754.611-5.51654.03146-.28586.078-.57025.1029-.85659.16593-1.90748-.01233-1.649,1.752-1.65382,3.95041-.01074,7.90088-.00345,11.85129-.00314.288,0,.57623.00958.864.00288.42682-.00993.58188.21135.56415.61365-.01267.2876.00012.57626.00012.86447Q377.66763,229.01443,377.66751,239.14272Z"/><path class="cls-4" d="M436.8913,231.52127c.00006,4.1561.00656,8.31223-.00376,12.46829-.00326,1.31038.34464,1.45285-1.41986,1.633-2.45065.25024-4.89282.58372-7.33865.88118-.16318.01985-.3266.03822-.49027.05408-1.175.11381-1.18152.1136-1.18792-1.03074-.00739-1.31675-.00177-2.63354-.00177-3.95033V227.75052a7.32315,7.32315,0,0,1,.00369-.74027c.06506-.637-.1872-.88623-.84354-.86454-1.1914.03935-2.38519.021-3.57773.00671-.88842-.01067-.92443-.02834-.83883-.8902.23965-2.413.52548-4.82132.76166-7.23457.057-.5826.38943-.6283.84078-.62557,1.48057.009,2.96119.003,4.44181.00292,2.879-.00006,5.75793-.00473,8.63687.00261.99853.00253,1.01343.01617,1.01483,1.0281Q436.89771,224.97853,436.8913,231.52127Z"/><path class="cls-4" d="M524.89587,249.60089q.00029,5.12235-.00232,10.24469c-.00189,1.01047-.01544,1.02426-1.014,1.027q-4.19441.01135-8.38886-.00021c-.965-.00278-.98657-.01789-.98749-.92957-.0064-6.62408.00525-13.24818-.0166-19.87219-.00219-.67186.1991-.92093.878-.97963,2.0448-.17684,4.08356-.42339,6.125-.64.85755-.091,1.71436-.19727,2.57422-.25592.7992-.05449.8252-.03075.82746.79083C524.90137,242.5242,524.89569,246.06255,524.89587,249.60089Z"/><path class="cls-5" d="M138.85218,97.57818c-.78429.03708-1.41409.06888-1.8684.0947A6.66479,6.66479,0,0,0,138.85218,97.57818Z"/><path class="cls-5" d="M209.03671,119.68754a1.47979,1.47979,0,0,0,.16025.07939,1.44362,1.44362,0,0,1-.16016-.07961Z"/><path class="cls-5" d="M175.71842,118.22145a4.84256,4.84256,0,0,1,.73087.31586c2.52774,1.27269,5.07114,2.51457,7.59277,3.79921-.63969-.3259-3.957-2.02821-8.58947-4.40633-.01766.03967-.03378.08014-.0515.11982C175.61727,118.16393,175.73191,118.22562,175.71842,118.22145Z"/><path class="cls-5" d="M209.2399,119.76687a.06925.06925,0,0,1-.04294.00006.06935.06935,0,0,0,.043-.00006c.0249-.00982.04109-.04166.05489-.0797C209.281,119.72521,209.2648,119.757,209.2399,119.76687Z"/><path class="cls-5" d="M209.33506,119.57036c-.01512.03457-.02647.07879-.04024.11681.01377-.038.02512-.08224.04027-.11681a.60389.60389,0,0,1-.05388-.02792C209.29962,119.55286,209.31784,119.56283,209.33506,119.57036Z"/><path class="cls-6" d="M209.16465,135.24587c-2.72905-1.47437-5.47627-2.91405-8.21708-4.36678-5.58075-2.95806-11.27985-5.67657-16.90551-8.54257-2.52163-1.28464-5.065-2.52652-7.59277-3.79921a4.84256,4.84256,0,0,0-.73087-.31586,2.08514,2.08514,0,0,0-.358-.07684,101.17667,101.17667,0,0,1-81.16411,59.239l.0288.01778c6.18351,3.83262,12.39692,7.61743,18.56952,11.46757.3879.2419.77747.48107,1.165.72356q3.41311,2.136,6.80328,4.30866c5.4881,3.52569,10.94253,7.10342,16.25667,10.89109a2.07767,2.07767,0,0,1,.305.28129c.09586.10294.19.21025.29158.3062l.00236.00238a.96067.96067,0,0,0,.78575.30764q1.068-.03843,2.13664-.07616c-.10156-.26266-.71167-.60991.11872-.71712a1.68485,1.68485,0,0,1,.24585-.00709c3.07277.05818,6.13772-.20529,9.20406-.31291,3.48062-.12214,6.96575-.02927,10.43722-.22069,7.58229-.41818,15.16559-.16088,22.74625-.13312,2.27982.00837,4.58822.01016,6.86281.228,1.802.17251,3.60816.04284,5.39117.236,2.71842.29453,5.453.32831,8.17189.64072a25.4917,25.4917,0,0,0,4.02768.31724c.6723-.02971.99707.2784.94864.95808q.60063.01628,1.20126.03259a9.46713,9.46713,0,0,0,.5678-2.90753.50237.50237,0,0,1,.13042-.52818,3.417,3.417,0,0,0,.12123-1.18087.28323.28323,0,0,1,.11439-.29965v0l.056-.52717a1.03225,1.03225,0,0,1-.0626-.1706c-.00233-.01151.05824-.03579.0898-.054.08945-.4518.171-.90545.24939-1.35945s.15351-.90843.23-1.36164c1.04967-6.22219,2.286-12.4057,3.66464-18.56293,1.46026-6.52165,3.19155-12.97181,5.07378-19.38135q.58017-1.9757,1.19-3.942,1.83065-5.89835,3.96294-11.69843a.4554.4554,0,0,0-.04993-.13011c-1.47911-.8732-2.97757-1.71545-4.43312-2.62617-2.91446-1.82354-5.90809-3.507-8.91448-5.17164Q210.52961,135.98218,209.16465,135.24587Z"/><path class="cls-7" d="M134.80994,97.53292a.28906.28906,0,0,0-.20868.01362A.28938.28938,0,0,1,134.80994,97.53292Z"/><path class="cls-8" d="M210.59483,203.19944a3.41969,3.41969,0,0,0,.121-1.18065,3.417,3.417,0,0,1-.12123,1.18087Z"/><path class="cls-8" d="M225.28431,144.66168l-.00007-.00016q-2.14263,5.79588-3.96294,11.69843Q223.152,150.4615,225.28431,144.66168Z"/><path class="cls-8" d="M210.83026,201.71914l.00025-.00031q.02766-.26315.0558-.52689l-.056.52717Z"/><path class="cls-8" d="M94.19627,177.38366l.02883.01778-.0288-.01778Z"/><path class="cls-9" d="M208.358,208.427c-.02625.20441-.05037.40917-.074.614-.03159.27314-.06233.54644-.09611.81929-.20523,1.65746-.38712,3.31921-.65264,4.96726-.13663.84805-.16577,1.71065-.25177,2.55453-.11951,1.17231-.24268,2.3584-.36278,3.53218a28.99294,28.99294,0,0,1-.3923,3.89137,1.19163,1.19163,0,0,0-.04878.36435,25.93054,25.93054,0,0,1-.32646,5.01458c-.21815,1.9141-.09767,3.83212-.35516,5.74624-.20473,1.52233-.2838,3.08745-.346,4.64268-.251,6.27473-.28283,12.55149-.16546,18.82468.04671,2.49347.08033,4.99772.24049,7.48716.16006,2.48688.2604,4.98131.49486,7.45925a60.54494,60.54494,0,0,0,.67087,6.57132,2.5458,2.5458,0,0,1-.60779,2.06444.9969.9969,0,0,1-1.19389.38445,3.72439,3.72439,0,0,1-1.49006-.81812,10.52809,10.52809,0,0,1-2.528-3.88892,133.85523,133.85523,0,0,0-7.095-15.54217c-1.702-3.22216-3.57732-6.35082-5.53382-9.431-2.19746-3.45958-4.62634-6.75391-7.0634-10.04009-1.60621-2.16584-3.40826-4.18282-5.15163-6.244a184.94443,184.94443,0,0,0-13.412-14.05036c-2.30087-2.2033-4.74142-4.26917-7.18064-6.33144-3.09564-2.61723-6.27131-5.12955-9.47146-7.61027a34.75694,34.75694,0,0,0-5.42423-3.79473q-1.0685.03793-2.13664.07616l-.00012.00038h.00041a.33726.33726,0,0,1-.03924.11828c2.22136,1.48049,4.34015,3.10216,6.4664,4.71256a189.2608,189.2608,0,0,1,30.67712,28.56329,140.498,140.498,0,0,1,20.82777,32.86177c1.08238,2.39262,2.07221,4.82338,3.05234,7.25935a10.68086,10.68086,0,0,0,3.63357,5.01754c2.32558,1.62609,4.74687.57055,5.22972-2.23071a3.83093,3.83093,0,0,0-.0217-1.09989c-.6443-5.7538-1.02972-11.52861-1.20475-17.31214q-.40984-13.54354.23541-27.08361.20255-4.11908.526-8.23211c.4321-5.56346.96837-11.11768,1.67593-16.65332a38.30658,38.30658,0,0,1,.688-4.7221c-.1739.0356-.14837-.10056-.15611-.20783l-.0001,0-.09843-.04589q-.60067-.01633-1.20126-.03234A13.84571,13.84571,0,0,0,208.358,208.427Z"/><path class="cls-9" d="M208.69516,206.603q.60059.0159,1.20126.03234-.60067-.01633-1.20126-.03259Z"/><polygon class="cls-9" points="209.995 206.681 209.995 206.681 209.896 206.635 209.995 206.681 209.995 206.681"/><path class="cls-9" d="M138.40411,205.69021a.32939.32939,0,0,1-.03883.11828.33726.33726,0,0,0,.03924-.11828Z"/><path class="cls-9" d="M62.66543,154.58942c-2.80857-1.97853-5.52072-4.08744-8.1568-6.2927-2.38268-1.99327-4.80117-3.94488-7.14875-5.97845-1.14342-.99045-2.24278-2.03915-3.34154-3.08045-1.96642-1.8635-3.87515-3.78986-5.76349-5.73315-2.99557-3.08281-5.81436-6.31962-8.51277-9.67013a131.86874,131.86874,0,0,1-7.83925-10.83375c-1.67458-2.57467-3.22376-5.22471-4.71319-7.91333-1.31334-2.3707-2.55359-4.77865-3.6909-7.23162A121.19074,121.19074,0,0,1,6.63427,79.72752a11.2651,11.2651,0,0,1-.539-2.99821,4.85337,4.85337,0,0,1,.57058-2.5975c.55785-.90944,1.06347-1.13537,2.03611-.6299,1.08875.56578,2.14,1.20769,3.18484,1.85321A115.92742,115.92742,0,0,0,26.7344,83.00978,150.03408,150.03408,0,0,0,41.79613,88.655q7.669,2.39124,15.52935,4.06789c3.11216.66067,6.24182,1.23888,9.36091,1.86774.30658.06179.5922.14137.69906-.23757.12042-.42692.81289-.30268.77986-.85024l-.11291-.03529-.65427-.20423v-.00006c-.326-.02854-.657-.03046-.9775-.08955-3.8733-.714-7.73389-1.49068-11.56515-2.4062A159.23681,159.23681,0,0,1,23.94073,80.17859,116.76233,116.76233,0,0,1,10.146,72.58306c-2.78015-1.79945-4.877-.30324-5.35642,2.51843-.01374.0808-.01624.16345-.02838.2446a12.28181,12.28181,0,0,0,.56117,5.46425A131.16,131.16,0,0,0,22.054,116.02942,153.47319,153.47319,0,0,0,52.13342,148.3899c3.51748,2.89922,7.15941,5.63718,10.79047,8.38894l.049-.07142.25488-.60606C63.49855,155.42536,63.27986,155.02224,62.66543,154.58942Z"/><path class="cls-9" d="M68.0524,93.46751q-.327-.10211-.65415-.20429h-.00012v.00006Z"/><path class="cls-10" d="M136.18181,97.73138a4.11789,4.11789,0,0,1,.802-.0585c.45431-.02582,1.08411-.05762,1.8684-.0947a2.31369,2.31369,0,0,0,.27881-.09121q-1.78717-.01412-3.57491-.02835.22315.11381.50707.25889Z"/><path class="cls-10" d="M136.043,97.71516l-.49738-.25664-.02854-.00022a1.06362,1.06362,0,0,0-.09661.18418Q135.7317,97.67909,136.043,97.71516Z"/><path class="cls-10" d="M136.98378,97.67288a4.11789,4.11789,0,0,0-.802.0585C136.24921,97.71858,136.53054,97.69866,136.98378,97.67288Z"/><path class="cls-10" d="M135.54454,97.458c-.008,0-.02161.00037-.02751.00031l.02854.00022Z"/><path class="cls-10" d="M139.131,97.487a2.31369,2.31369,0,0,1-.27881.09121c9.7465-.46092,42.74071-1.72216,43.56473-2.0681-1.19641-.00944-45.09371,1.93132-46.86224,1.94781l.00141.00073Q137.34405,97.473,139.131,97.487Z"/><path class="cls-9" d="M210.59464,203.19966a.50237.50237,0,0,0-.13042.52818.65181.65181,0,0,0,.09353-.117A.454.454,0,0,0,210.59464,203.19966Z"/><path class="cls-9" d="M210.55775,203.61084a.4548.4548,0,0,0,.03708-.4114l-.00019.00022A.454.454,0,0,1,210.55775,203.61084Z"/><path class="cls-9" d="M210.88631,201.19194a.23512.23512,0,0,0,.02717-.22449l0-.00015c-.03156.01825-.09213.04253-.0898.054A1.03225,1.03225,0,0,0,210.88631,201.19194Z"/><path class="cls-9" d="M210.92866,201.08313a.24636.24636,0,0,0-.01515-.11583l0,.00015A.24607.24607,0,0,1,210.92866,201.08313Z"/><path class="cls-9" d="M210.83026,201.71914a.28323.28323,0,0,0-.11439.29965.43813.43813,0,0,0,.06712-.06023A.22606.22606,0,0,0,210.83026,201.71914Z"/><path class="cls-9" d="M210.783,201.95856a.22686.22686,0,0,0,.04752-.23973l-.00025.00031A.22606.22606,0,0,1,210.783,201.95856Z"/><path class="cls-11" d="M209.995,206.68129c.00774.10727-.01779.24343.15611.20783l.00329-.01411.01829-.00195a.1818.1818,0,0,0-.003-.07245C210.14635,206.7306,210.07026,206.70632,209.995,206.68129Z"/><path class="cls-11" d="M210.16962,206.80061c-.02324-.07005-.0994-.09439-.17467-.1196v.00028C210.07026,206.70632,210.14635,206.7306,210.16962,206.80061Z"/><path class="cls-11" d="M210.17323,206.88762c.001-.0059-.00116-.009-.00059-.01456l-.01829.00195Z"/><path class="cls-11" d="M210.15106,206.88912c.00893-.00182.0121.00129.02217-.0015l-.01888-.01261Z"/><path class="cls-10" d="M135.00576,97.639a.49985.49985,0,0,0-.09811-.06822.46613.46613,0,0,0-.09771-.03786.28938.28938,0,0,0-.20868.01362.48672.48672,0,0,0-.13293.09987l-.00022.00015Q134.73667,97.643,135.00576,97.639Z"/><path class="cls-10" d="M135.00579,97.639a.49971.49971,0,0,0-.09814-.06822.49985.49985,0,0,1,.09811.06822Z"/><path class="cls-10" d="M155.43656,217.01867c2.43922,2.06227,4.87977,4.12814,7.18064,6.33144a184.94443,184.94443,0,0,1,13.412,14.05036c1.74337,2.06117,3.54542,4.07815,5.15163,6.244,2.43706,3.28618,4.86594,6.58051,7.0634,10.04009,1.9565,3.0802,3.83179,6.20886,5.53382,9.431a133.85523,133.85523,0,0,1,7.095,15.54217,10.52809,10.52809,0,0,0,2.528,3.88892,3.72439,3.72439,0,0,0,1.49006.81812.9969.9969,0,0,0,1.19389-.38445,2.5458,2.5458,0,0,0,.60779-2.06444,60.54494,60.54494,0,0,1-.67087-6.57132c-.23446-2.47794-.3348-4.97237-.49486-7.45925-.16016-2.48944-.19378-4.99369-.24049-7.48716-.11737-6.27319-.0855-12.55.16546-18.82468.06223-1.55523.1413-3.12035.346-4.64268.25749-1.91412.137-3.83214.35516-5.74624a25.93054,25.93054,0,0,0,.32646-5.01458,1.19163,1.19163,0,0,1,.04878-.36435,28.99294,28.99294,0,0,0,.3923-3.89137c.1201-1.17378.24327-2.35987.36278-3.53218.086-.84388.11514-1.70648.25177-2.55453.26552-1.64805.44741-3.3098.65264-4.96726.03378-.27285.06452-.54615.09611-.81929.02368-.20485.0478-.40961.074-.614a13.85784,13.85784,0,0,1,.3371-1.8242h0c.04843-.67968-.27634-.98779-.94864-.95808a25.4917,25.4917,0,0,1-4.02768-.31724c-2.71892-.31241-5.45347-.34619-8.17189-.64072-1.783-.19319-3.58921-.06352-5.39117-.236-2.27459-.21781-4.583-.2196-6.86281-.228-7.58066-.02776-15.164-.28506-22.74625.13312-3.47147.19142-6.9566.09855-10.43722.22069-3.06634.10762-6.13129.37109-9.20406.31291a1.68485,1.68485,0,0,0-.24585.00709c-.83039.10721-.22028.45446-.11872.71712a34.75694,34.75694,0,0,1,5.42423,3.79473C149.16525,211.88912,152.34092,214.40144,155.43656,217.01867Z"/><path class="cls-10" d="M208.358,208.427a13.84571,13.84571,0,0,1,.33713-1.82395v-.00025h0A13.85784,13.85784,0,0,0,208.358,208.427Z"/><path class="cls-12" d="M243.19194,94.2905a13.2052,13.2052,0,0,0-4.12012-.64094c-8.17336-.32837-16.3427-.08055-24.50982.20862-8.78309.311-17.55755.80586-26.331,1.32368-1.93774.11437-3.87608.21847-5.81411.32822q-.27411,1.47312-.59075,2.93093c-.12525.577-.26517,1.14847-.40024,1.72179-.09171.38953-.17612.78189-.27229,1.16968-.19447.7834-.40374,1.56087-.61638,2.33694-.04705.17182-.08886.34578-.13675.51726q-.37879,1.35432-.79555,2.69245c-.01276.04121-.024.08306-.03682.12424a100.23065,100.23065,0,0,1-4.11491,10.92537l-.00063.00145c4.63249,2.37812,7.94978,4.08043,8.58947,4.40633,5.62566,2.866,11.32476,5.58451,16.90551,8.54257,2.74081,1.45273,5.488,2.89241,8.21708,4.36678q1.36452.73722,2.72206,1.48773c3.00639,1.66467,6,3.3481,8.91448,5.17164,1.45558.91075,2.954,1.753,4.43318,2.62605a3.37185,3.37185,0,0,0,.48414-1.11946q3.81307-10.47174,8.44885-20.60613c3.47522-7.57678,7.268-14.99164,11.44956-22.20531a3.73971,3.73971,0,0,0,.59016-1.72606A4.40764,4.40764,0,0,0,243.19194,94.2905Zm-33.89712,25.39667c-.0138.038-.03.06988-.05489.0797a.06935.06935,0,0,1-.043.00006,1.47979,1.47979,0,0,1-.16025-.07939l.00009-.00022-.00019-.00009a1.43629,1.43629,0,0,1,.06405-.16693.07181.07181,0,0,1,.0319-.02952.0677.0677,0,0,1,.04253-.00012.51672.51672,0,0,1,.10612.05178.60389.60389,0,0,0,.05388.02792C209.31994,119.60493,209.30859,119.64915,209.29482,119.68717Z"/><path class="cls-13" d="M179.605,106.87913q.41517-1.33871.79555-2.69245"/><path class="cls-13" d="M181.42592,100.1628c.13507-.57332.275-1.14478.40024-1.72179"/><path class="cls-13" d="M180.53725,103.66942c.21264-.77607.42191-1.55354.61638-2.33694"/><path class="cls-14" d="M179.56813,107.00337a100.40808,100.40808,0,0,1-4.11491,10.92537A100.23065,100.23065,0,0,0,179.56813,107.00337Z"/><path class="cls-14" d="M175.36041,118.14461a2.08514,2.08514,0,0,1,.358.07684c.01349.00417-.10115-.05752-.31733-.17144C175.38713,118.08131,175.3744,118.1133,175.36041,118.14461Z"/><path class="cls-14" d="M134.90639,97.12839c-.01847-.00928.20875.108.63815.3296l.01013-.0001C135.24872,97.30185,135.02831,97.18978,134.90639,97.12839Z"/><path class="cls-14" d="M136.043,97.71516c6.21849,3.20811,35.9826,18.55616,39.35814,20.33485.01772-.03968.03384-.08015.0515-.11982-12.31828-6.32369-33.95091-17.43359-39.38944-20.21268Z"/><path class="cls-14" d="M135.55608,97.45862l-.01051-.0001.49738.25664.0202.00235Q135.77977,97.57275,135.55608,97.45862Z"/><polygon class="cls-14" points="135.556 97.459 135.555 97.458 135.545 97.458 135.546 97.459 135.556 97.459"/><path class="cls-9" d="M160.54985,106.25616c.11948.003.21207-.07553.20479-.14613-.04112-.20611-.14632-.25934-.26081-.25416-.17076.00768-.30387.10429-.23424.28593C160.28553,106.20952,160.44823,106.25369,160.54985,106.25616Z"/><path class="cls-9" d="M209.28121,119.54244a.51672.51672,0,0,0-.10612-.05178.0676.0676,0,0,0-.0425.00012.07172.07172,0,0,0-.03193.02952,1.40692,1.40692,0,0,0-.06386.167,1.44362,1.44362,0,0,0,.16016.07961.06925.06925,0,0,0,.04294-.00006c.0249-.00985.04112-.04166.05492-.0797s.02512-.08224.04024-.11681C209.31784,119.56283,209.29962,119.55286,209.28121,119.54244Z"/><path class="cls-9" d="M209.03661,119.68723l.00019.00009a1.40692,1.40692,0,0,1,.06386-.167A1.43629,1.43629,0,0,0,209.03661,119.68723Z"/><path class="cls-9" d="M209.17509,119.49066a.0677.0677,0,0,0-.04253.00012.07181.07181,0,0,0-.0319.02952.07172.07172,0,0,1,.03193-.02952A.0676.0676,0,0,1,209.17509,119.49066Z"/><path class="cls-15" d="M137.61612,205.37981c-.10162-.09595-.19572-.20326-.29158-.3062a2.07767,2.07767,0,0,0-.305-.28129c-5.31414-3.78767-10.76857-7.3654-16.25667-10.89109q-3.38782-2.17646-6.80328-4.30866c-.38753-.24249-.7771-.48166-1.165-.72356-6.173-3.84945-12.38594-7.63492-18.56952-11.46757l-.02883-.01778h0c-.34164-.21176-.68453-.42147-1.026-.63357-9.8135-6.09666-19.54993-12.31374-28.93362-19.06376-.43235-.311-.84306-.65194-1.26387-.97891l-.049.07142c-.61049,2.0007-1.16972,4.01834-1.84045,5.99824A110.10614,110.10614,0,0,1,56.37037,174.439a113.43073,113.43073,0,0,1-12.08871,19.94945c-1.97877,2.623-4.06607,5.15821-6.22464,7.63367a2.93925,2.93925,0,0,0-.68466,2.63928,4.27386,4.27386,0,0,0,2.13011,3.02308,8.802,8.802,0,0,0,2.664.9186,38.07475,38.07475,0,0,0,6.62409.42429q9.0531.15093,18.10922-.09793,7.08027-.18678,14.16118-.39562c2.21386-.066,4.43127-.1302,6.6451-.23823,4.18005-.204,8.35757-.462,12.53857-.64141,3.03412-.13017,6.06529-.29841,9.09716-.47,5.20338-.29456,10.41008-.5315,15.61619-.77566,2.66529-.125,5.33839-.13609,7.99646-.34487,1.80415-.14162,3.61176-.088,5.41087-.2551a.32939.32939,0,0,0,.03883-.11828.96178.96178,0,0,1-.78563-.308Z"/><path class="cls-16" d="M277.98632,220.67848a166.12828,166.12828,0,0,0-9.547-29.30575,92.50706,92.50706,0,0,0-18.68959-27.56147,121.28924,121.28924,0,0,0-17.26405-14.4289c-2.36126-1.6328-4.69958-3.30183-7.20129-4.72112l-.0001.00028.00007.00016q-2.14267,5.79555-3.963,11.69827-.61023,1.96614-1.19,3.942c-1.88223,6.40954-3.61352,12.8597-5.07378,19.38135-1.37867,6.15723-2.615,12.34074-3.66464,18.56293-.07647.45321-.15163.90761-.23,1.36164s-.15994.90765-.24939,1.35945a.23546.23546,0,0,1-.0272.22464q-.028.26357-.0558.52689a.22686.22686,0,0,1-.04752.23973.43813.43813,0,0,1-.06712.06023,3.41969,3.41969,0,0,1-.121,1.18065.4548.4548,0,0,1-.03708.4114.65181.65181,0,0,1-.09353.117,9.46713,9.46713,0,0,1-.5678,2.90753l.09853.04564c.07527.02521.15143.04955.17467.1196a.1818.1818,0,0,1,.003.07245,6.77386,6.77386,0,0,1,2.0623.06044c5.55656.754,11.09108,1.61995,16.56945,2.85295a117.58055,117.58055,0,0,1,34.78829,13.855c3.34493,2.001,6.59,4.15047,9.79682,6.36377,2.33866,1.61414,4.59936.64612,5.11006-2.13375.03676-.2004.02773-.41065.22346-.54173v-3.20419C278.47883,222.97619,278.26105,221.8205,277.98632,220.67848Z"/><path class="cls-17" d="M67.39813,93.26322h.00012q.327.10224.65415.20429l.11307.03532c1.2538.18126,2.51112.34136,3.76072.54806,2.82729.46764,5.66945.82343,8.51369,1.16359q3.96231.4739,7.92945.90749c1.09936.1217,2.2075.1797,3.30858.25172,3.02587.19789,6.047.45719,9.07777.61076,6.47569.32809,12.954.409,19.43325.55635,3.19839.07273,6.39781-.01791,9.59366.13362q2.34287-.014,4.68574-.028a.48672.48672,0,0,1,.13293-.09987.28906.28906,0,0,1,.20868-.01362.46613.46613,0,0,1,.09771.03786.49971.49971,0,0,1,.09814.06822h0l0,0,.41451.00327a1.07756,1.07756,0,0,1,.09673-.184,22.098,22.098,0,0,0-3.02816-1.865c-9.71953-5.84291-19.10268-12.14534-27.51979-19.80153A83.42962,83.42962,0,0,1,89.58957,57.64294,56.84535,56.84535,0,0,1,82.156,38.88167a59.45892,59.45892,0,0,1-.99139-7.66826,42.6789,42.6789,0,0,1,.01144-7.12033,9.43971,9.43971,0,0,0,.01359-1.72161c-.15721-1.923-.54888-3.74089-2.43381-4.79311H76.78332a8.32347,8.32347,0,0,0-4.1225,5.52762c-.33267,1.22548-.73707,2.43183-1.05748,3.66025A142.405,142.405,0,0,0,67.8568,47.91494c-.48722,4.64977-.85634,9.30621-.921,13.97869-.06411,4.63355-.07054,9.26578.16426,13.90178C67.39461,81.61125,67.12351,87.443,67.39813,93.26322Z"/><path class="cls-18" d="M136.98378,97.67288c-.45324.02578-.73457.0457-.802.0585l-.11866-.01387c5.43853,2.77909,27.07116,13.889,39.38944,20.21268l.00063-.00145a100.40808,100.40808,0,0,0,4.11491-10.92537c.01283-.04118.02406-.083.03682-.12424q.41517-1.33871.79555-2.69245c.04789-.17148.0897-.34544.13675-.51726.21264-.77607.42191-1.55354.61638-2.33694.09617-.38779.18058-.78015.27229-1.16968.13507-.57332.275-1.14478.40024-1.72179q.31626-1.45784.59075-2.93093c-.824.34594-33.81823,1.60718-43.56473,2.0681A6.66479,6.66479,0,0,1,136.98378,97.67288Zm23.51005,8.183c.11449-.00518.21969.04805.26081.25416.00728.0706-.08531.14908-.20479.14613-.10162-.00247-.26432-.04664-.29026-.11436C160.19,105.96016,160.32307,105.86355,160.49383,105.85587Z"/><path class="cls-19" d="M67.48081,94.19254a.38436.38436,0,0,0-.09536.1605c-.10686.37894-.39248.29936-.69906.23757-3.11909-.62886-6.24875-1.20707-9.36091-1.86774Q49.46668,91.0546,41.79613,88.655a150.03408,150.03408,0,0,1-15.06173-5.6452,115.92742,115.92742,0,0,1-14.84763-7.65466c-1.04485-.64552-2.09609-1.28743-3.18484-1.85321-.97264-.50547-1.47826-.27954-2.03611.6299a4.85337,4.85337,0,0,0-.57058,2.5975,11.2651,11.2651,0,0,0,.539,2.99821,121.19074,121.19074,0,0,0,6.86447,18.12832c1.13731,2.453,2.37756,4.86092,3.6909,7.23162,1.48943,2.68862,3.03861,5.33866,4.71319,7.91333a131.86874,131.86874,0,0,0,7.83925,10.83375c2.69841,3.35051,5.5172,6.58732,8.51277,9.67013,1.88834,1.94329,3.79707,3.86965,5.76349,5.73315,1.09876,1.0413,2.19812,2.09,3.34154,3.08045,2.34758,2.03357,4.76607,3.98518,7.14875,5.97845,2.63608,2.20526,5.34823,4.31417,8.1568,6.2927.46651.32862.70335.64081.67258,1.06761.91094-2.79941,3.29456-11.29079,4.38727-26.31815A241.35877,241.35877,0,0,0,67.48081,94.19254Z"/><path class="cls-20" d="M136.043,97.71516q-.31128-.03614-.62253-.07268a1.06362,1.06362,0,0,1,.09661-.18418,1.07756,1.07756,0,0,0-.09673.184l-.41451-.00327,0,0q-.269.00387-.53765.00756l.00022-.00015q-2.34287.014-4.68574.028c-3.19585-.15153-6.39527-.06089-9.59366-.13362-6.47923-.14739-12.95756-.22826-19.43325-.55635-3.03073-.15357-6.0519-.41287-9.07777-.61076-1.10108-.072-2.20922-.13-3.30858-.25172q-3.96631-.43915-7.92945-.90749c-2.84424-.34016-5.6864-.69595-8.51369-1.16359-1.2496-.2067-2.50692-.3668-3.76072-.54806l-.11307-.03532.11291.03529c.02792.46268-.45923.44857-.6845.68974a241.35877,241.35877,0,0,1,.24447,35.14634c-1.09271,15.02736-3.47633,23.51874-4.38727,26.31815a1.48206,1.48206,0,0,1-.11028.44433l-.25488.60606c.42081.327.83152.66792,1.26387.97891,9.38369,6.75,19.12012,12.9671,28.93362,19.06376.34143.2121.68432.42181,1.026.63357a101.17667,101.17667,0,0,0,81.16411-59.239c.014-.03131.02672-.0633.04068-.0946C172.02555,116.27132,142.26144,100.92327,136.043,97.71516Z"/></svg>