<svg id="Layer_1" data-name="Layer 1" xmlns="http://www.w3.org/2000/svg" viewBox="0 0 973.13746 369.39584"><defs><style>.cls-1{fill:none;}.cls-2{fill:#91e5d2;}</style></defs><path class="cls-1" d="M215.56338,269.62626c-4.98274-6.75456-12.80452-15.84043-12.80452-15.84043s-11.02927,6.87326-15.84115,9.37666c-20.94962,10.89922-41.90285,4.42037-59.4835-10.08417-17.1973-14.18813-23.459-40.35085-15.9206-59.062a58.40559,58.40559,0,0,1,4.04848-7.908,104.56567,104.56567,0,0,1,6.16069-9.11232s-4.41707-4.28618-9.85557-9.5468c-3.80841-3.68383-8.1135-7.8415-11.7714-11.35664L90.17269,147.226l-2.05632-1.83731-5.95243-5.31858s-5.17984,6.23352-7.58883,9.81973c-12.1345,18.06472-20.24055,37.3954-19.12438,59.66965-.13264,82.01941,86.41829,137.38986,158.22492,101.22364,5.18521-2.61156,10.24646-5.613,14.30806-8.16855,5.25556-3.30688,8.8365-5.8671,8.8365-5.8671s-7.41208-9.64453-14.79327-19.03989C219.89594,274.99525,217.60926,272.39949,215.56338,269.62626Z"/><path class="cls-1" d="M217.615,52.31049c-14.99563-1.14861-28.97386,2.23224-42.23372,8.27919-4.22523,1.92678-8.45687,4.00562-12.3943,6.01452-10.51432,5.36475-18.861,10.21423-18.861,10.21423s6.78008,8.55066,15.2104,18.06771c2.25094,2.54111,4.61272,5.1471,7.0027,7.68252l3.54437,3.91967L182.42358,120.356s8.19107-6.41088,13.204-9.07781c20.82545-11.07979,44.78041-4.9063,62.66663,13.45676,17.17694,17.63467,22.00122,40.746,10.768,61.69135-2.37067,4.42058-7.9539,11.48629-7.9539,11.48629s3.519,3.69034,7.7132,7.69946c1.42339,1.36048,2.92374,2.75732,4.39176,4.05954,4.72076,4.18773,9.26943,8.65407,13.958,12.93136,2.02316,1.84579,4.03557,3.56555,5.89448,5.09648,4.80548,3.95768,8.55087,6.61211,8.55087,6.61211s2.29618-2.99667,5.092-7.05992c1.83938-2.67334,3.89291-5.80378,5.65864-8.86223,21.03267-36.43066,21.48162-73.39085.14648-109.55686C291.39349,73.0315,259.37276,54.06393,217.615,52.31049Z"/><path class="cls-1" d="M835.12241,166.81735c-34.78022-.11146-60.77311,26.87127-61.09975,63.42662-.32292,36.16921,25.91893,64.42843,59.91819,64.52471,36.25547.10237,61.11246-25.15646,61.30274-62.29392C895.44286,193.61155,871.01292,166.93222,835.12241,166.81735Z"/><rect class="cls-2" x="426.06498" y="114.60875" width="59.93131" height="235.66385"/><path class="cls-2" d="M302.3643,21.60778q-108.36075-.2442-216.72262-.01043c-38.47686.076-68.21721,29.40514-68.33332,67.50691q-.29535,96.746-.00847,193.49345c.10247,39.18231,28.01274,67.36064,67.357,67.78428,35.82739.38573,71.66211.08161,107.49353.08429q54.61392.00419,109.22816-.00185c1.155-.00021,2.31043-.06333,3.46524-.10723,35.6118-1.358,62.74338-27.53973,63.02-62.5749q.79816-101.05785.05527-202.12572C367.63557,49.48448,338.6365,21.68929,302.3643,21.60778ZM227.98371,302.61462c-4.0616,2.55557-9.12285,5.557-14.30806,8.16855C141.869,346.94939,55.31809,291.57894,55.45073,209.55953c-1.11617-22.27425,6.98988-41.60493,19.12438-59.66965,2.409-3.58621,7.58883-9.81973,7.58883-9.81973l5.95243,5.31858,2.05632,1.83731,9.92312,8.86646c3.6579,3.51514,7.963,7.67281,11.7714,11.35664,5.4385,5.26062,9.85557,9.5468,9.85557,9.5468a104.56567,104.56567,0,0,0-6.16069,9.11232,58.40559,58.40559,0,0,0-4.04848,7.908c-7.53842,18.71118-1.2767,44.8739,15.9206,59.062,17.58065,14.50454,38.53388,20.98339,59.4835,10.08417,4.81188-2.5034,15.84115-9.37666,15.84115-9.37666s7.82178,9.08587,12.80452,15.84043c2.04588,2.77323,4.33256,5.369,6.46356,8.08137,7.38119,9.39536,14.79327,19.03989,14.79327,19.03989S233.23927,299.30774,227.98371,302.61462Zm84.38357-84.22521c-1.76573,3.05845-3.81926,6.18889-5.65864,8.86223-2.79586,4.06325-5.092,7.05992-5.092,7.05992s-3.74539-2.65443-8.55087-6.61211c-1.85891-1.53093-3.87132-3.25069-5.89448-5.09648-4.68854-4.27729-9.23721-8.74363-13.958-12.93136-1.468-1.30222-2.96837-2.69906-4.39176-4.05954-4.19424-4.00912-7.7132-7.69946-7.7132-7.69946s5.58323-7.06571,7.9539-11.48629c11.23319-20.94538,6.40891-44.05668-10.768-61.69135-17.88622-18.36306-41.84118-24.53655-62.66663-13.45676-5.01291,2.66693-13.204,9.07781-13.204,9.07781l-12.54006-13.86769-3.54437-3.91967c-2.39-2.53542-4.75176-5.14141-7.0027-7.68252-8.43032-9.517-15.2104-18.06771-15.2104-18.06771S152.4727,71.969,162.987,66.6042c3.93743-2.0089,8.16907-4.08774,12.3943-6.01452,13.25986-6.047,27.23809-9.4278,42.23372-8.27919,41.75772,1.75344,73.77845,20.721,94.89872,56.52206C333.8489,144.99856,333.4,181.95875,312.36728,218.38941Z"/><path class="cls-2" d="M836.84682,106.47655C763.885,105.44509,714.6311,162.33831,714.26045,230.643c-.37725,69.54763,51.4636,125.31156,120.37169,125.05135,73.56255-.27737,121.90593-58.50844,119.84279-124.90652C958.1,166.08236,910.69179,107.52072,836.84682,106.47655Zm-2.906,188.29213c-33.99926-.09628-60.24111-28.3555-59.91819-64.52471.32664-36.55535,26.31953-63.53808,61.09975-63.42662,35.89051.11487,60.32045,26.7942,60.12118,65.65741C895.05331,269.61222,870.19632,294.87105,833.94085,294.76868Z"/><path class="cls-2" d="M455.09648,11.20523c-22.29181-.2004-38.94482,16.33587-39.1069,38.83253C415.826,72.78482,431.7919,90.06848,453.57671,90.7263c21.80309.65844,41.63757-17.85254,42.06885-39.26185C496.08573,29.61663,477.74685,11.40894,455.09648,11.20523Z"/><path class="cls-2" d="M646.45262,291.29661c-25.72865-.4227-44.87669-18.31594-45.89493-44.21246-.03-.76236-.05661-1.56377-.08161-2.38378V174.46021h93.46613V114.52879H600.47608V20.93209H540.54477v93.5967H509.90508v59.93142h31.47127c-.61279,20.68568-.93984,55.71475.09256,74.877,2.05931,38.21943,19.48253,67.36642,52.85041,87.56628,17.09328,10.34769,35.074,12.83684,53.31652,13.27381l49.46512.09534V291.193l-49.46512.10516C647.24143,291.29816,646.84682,291.303,646.45262,291.29661Z"/></svg>