<?xml version="1.0" encoding="UTF-8" standalone="no"?>
<svg
   xmlns:dc="http://purl.org/dc/elements/1.1/"
   xmlns:cc="http://creativecommons.org/ns#"
   xmlns:rdf="http://www.w3.org/1999/02/22-rdf-syntax-ns#"
   xmlns:svg="http://www.w3.org/2000/svg"
   xmlns="http://www.w3.org/2000/svg"
   xmlns:sodipodi="http://sodipodi.sourceforge.net/DTD/sodipodi-0.dtd"
   xmlns:inkscape="http://www.inkscape.org/namespaces/inkscape"
   inkscape:version="1.0 (4035a4f, 2020-05-01)"
   sodipodi:docname="japan2.svg"
   id="svg62"
   version="1.1"
   height="700"
   width="900">
  <metadata
     id="metadata68">
    <rdf:RDF>
      <cc:Work
         rdf:about="">
        <dc:format>image/svg+xml</dc:format>
        <dc:type
           rdf:resource="http://purl.org/dc/dcmitype/StillImage" />
        <dc:title></dc:title>
      </cc:Work>
    </rdf:RDF>
  </metadata>
  <defs
     id="defs66" />
  <sodipodi:namedview
     inkscape:current-layer="svg62"
     inkscape:window-maximized="0"
     inkscape:window-y="23"
     inkscape:window-x="117"
     inkscape:cy="411.71505"
     inkscape:cx="393.22408"
     inkscape:zoom="0.57848045"
     showgrid="false"
     id="namedview64"
     inkscape:window-height="696"
     inkscape:window-width="1112"
     inkscape:pageshadow="2"
     inkscape:pageopacity="0"
     guidetolerance="10"
     gridtolerance="10"
     objecttolerance="10"
     borderopacity="1"
     bordercolor="#666666"
     pagecolor="#ffffff" />
  <rect
     y="0"
     x="0"
     id="rect58"
     width="900"
     height="600"
     fill="#ffffff" />
  <circle
     id="circle60"
     r="180"
     cy="300"
     cx="450"
     fill="#bc002d" />
  <g
     style="font-size:40px;line-height:1.25;font-family:sans-serif;text-align:center;text-anchor:middle"
     id="text72"
     aria-label="Japan (COCOA)">
    <path
       d="m 486.54297,627.22461 c -4.11459,0 -7.25911,1.11979 -9.43359,3.35937 -2.91667,2.64323 -4.375,6.60156 -4.375,11.875 0,5.16928 1.45833,9.12761 4.375,11.875 2.17448,2.23958 5.319,3.35938 9.43359,3.35938 4.11458,0 7.25911,-1.1198 9.43359,-3.35938 2.90365,-2.74739 4.35547,-6.70572 4.35547,-11.875 0,-5.27344 -1.45182,-9.23177 -4.35547,-11.875 -2.17448,-2.23958 -5.31901,-3.35937 -9.43359,-3.35937 z m 60,0 c -4.11459,0 -7.25912,1.11979 -9.43359,3.35937 -2.91667,2.64323 -4.375,6.60156 -4.375,11.875 0,5.16928 1.45833,9.12761 4.375,11.875 2.17447,2.23958 5.319,3.35938 9.43359,3.35938 4.11458,0 7.25911,-1.1198 9.43359,-3.35938 2.90365,-2.74739 4.35547,-6.70572 4.35547,-11.875 0,-5.27344 -1.45182,-9.23177 -4.35547,-11.875 -2.17448,-2.23958 -5.31901,-3.35937 -9.43359,-3.35937 z m -89.90235,0.33203 c -3.61978,0 -6.60155,1.1849 -8.94531,3.55469 -2.69531,2.72135 -4.04297,6.59505 -4.04297,11.62109 0,4.64844 1.1849,8.30729 3.55469,10.97656 2.36979,2.65625 5.625,3.98438 9.76563,3.98438 3.34635,0 6.08724,-0.98308 8.22265,-2.94922 2.14844,-1.96615 3.48308,-4.51823 4.00391,-7.65625 h -5.95703 c -0.40365,1.48437 -0.91146,2.59766 -1.52344,3.33984 -1.10677,1.38021 -2.71485,2.07032 -4.82422,2.07032 -2.05729,0 -3.75651,-0.80079 -5.09765,-2.40235 -1.32813,-1.61458 -1.99219,-4.03646 -1.99219,-7.26562 0,-3.22917 0.63151,-5.72266 1.89453,-7.48047 1.26302,-1.77083 2.98828,-2.65625 5.17578,-2.65625 2.14844,0 3.76953,0.625 4.86328,1.875 0.61198,0.70313 1.11328,1.74479 1.50391,3.125 h 6.01562 c -0.0911,-1.79687 -0.7552,-3.58724 -1.99219,-5.37109 -2.23958,-3.17708 -5.78124,-4.76563 -10.625,-4.76563 z m 60,0 c -3.61978,0 -6.60155,1.1849 -8.94531,3.55469 -2.69531,2.72135 -4.04297,6.59505 -4.04297,11.62109 0,4.64844 1.1849,8.30729 3.55469,10.97656 2.36979,2.65625 5.625,3.98438 9.76563,3.98438 3.34635,0 6.08724,-0.98308 8.22265,-2.94922 2.14844,-1.96615 3.48308,-4.51823 4.00391,-7.65625 h -5.95703 c -0.40365,1.48437 -0.91146,2.59766 -1.52344,3.33984 -1.10677,1.38021 -2.71485,2.07032 -4.82422,2.07032 -2.05729,0 -3.75651,-0.80079 -5.09765,-2.40235 -1.32813,-1.61458 -1.99219,-4.03646 -1.99219,-7.26562 0,-3.22917 0.63151,-5.72266 1.89453,-7.48047 1.26302,-1.77083 2.98828,-2.65625 5.17578,-2.65625 2.14844,0 3.76953,0.625 4.86328,1.875 0.61198,0.70313 1.11328,1.74479 1.50391,3.125 h 6.01562 c -0.0911,-1.79687 -0.75521,-3.58724 -1.99219,-5.37109 -2.23957,-3.17708 -5.78124,-4.76563 -10.625,-4.76563 z m -79.60937,0.0781 c -1.97917,2.76042 -3.48307,5.33854 -4.51172,7.73437 -1.52344,3.51562 -2.28515,7.05729 -2.28515,10.625 -10e-6,3.91927 0.90494,7.90365 2.71484,11.95313 1.01563,2.26562 1.97266,3.97135 2.87109,5.11718 l 1.38672,1.89453 h 4.12109 c -1.71874,-3.09896 -2.91666,-5.63802 -3.59374,-7.61718 -1.15886,-3.34636 -1.73829,-7.01172 -1.73829,-10.9961 0,-2.55208 0.20834,-4.90886 0.625,-7.07031 0.63802,-3.29427 1.77735,-6.44531 3.41797,-9.45312 l 1.19141,-2.1875 z m 154.23828,0 1.19141,2.1875 c 1.64062,3.00781 2.77994,6.15885 3.41797,9.45312 0.41666,2.16145 0.625,4.51823 0.625,7.07031 0,3.98438 -0.57942,7.64974 -1.73829,10.9961 -0.67708,1.97916 -1.87499,4.51822 -3.59374,7.61718 h 4.12109 l 1.38672,-1.89453 c 0.89843,-1.14583 1.85546,-2.85156 2.87109,-5.11718 1.80989,-4.04948 2.71484,-8.03386 2.71484,-11.95313 0,-3.56771 -0.76172,-7.10938 -2.28515,-10.625 -1.02865,-2.39583 -2.53255,-4.97395 -4.51172,-7.73437 z m -276.25,0.46875 v 20.13671 c 0,1.39323 -0.13671,2.38281 -0.41015,2.96875 -0.45573,0.98958 -1.39323,1.48438 -2.8125,1.48438 -1.43229,0 -2.36979,-0.44922 -2.8125,-1.34766 -0.4297,-0.91146 -0.67059,-2.48047 -0.72266,-4.70703 v -0.66406 h -5.6836 v 0.66406 c 0,3.38542 0.63802,6.0612 1.91407,8.02735 1.27604,1.95312 3.78255,2.92968 7.51953,2.92968 3.73698,0 6.32162,-1.21094 7.7539,-3.63281 0.84637,-1.43229 1.26954,-3.37239 1.26954,-5.82031 v -20.03906 z m 258.125,0 -10.27344,28.78906 h 6.28907 l 1.99218,-5.91797 h 10.60547 l 1.85547,5.91797 h 6.52344 l -10.19531,-28.78906 z m -86.60156,4.21875 c 2.38281,0 4.27083,0.88541 5.66406,2.65625 1.40625,1.75781 2.10938,4.2513 2.10938,7.48046 0,3.24219 -0.70313,5.74219 -2.10938,7.5 -1.39323,1.75782 -3.28125,2.63672 -5.66406,2.63672 -2.38281,0 -4.28385,-0.8789 -5.70313,-2.63672 -1.41926,-1.75781 -2.1289,-4.25781 -2.1289,-7.5 0,-3.24218 0.70964,-5.74218 2.1289,-7.5 1.41928,-1.75781 3.32032,-2.63671 5.70313,-2.63671 z m 60,0 c 2.38281,0 4.27083,0.88541 5.66406,2.65625 1.40625,1.75781 2.10938,4.2513 2.10938,7.48046 0,3.24219 -0.70313,5.74219 -2.10938,7.5 -1.39323,1.75782 -3.28125,2.63672 -5.66406,2.63672 -2.38281,0 -4.28385,-0.8789 -5.70313,-2.63672 -1.41926,-1.75781 -2.1289,-4.25781 -2.1289,-7.5 0,-3.24218 0.70964,-5.74218 2.1289,-7.5 1.41928,-1.75781 3.32032,-2.63671 5.70313,-2.63671 z m 29.94141,2.36328 3.59374,11.32812 h -7.30468 z m -241.54297,0.41015 c -3.58074,0 -6.10678,0.9375 -7.57813,2.8125 -0.92448,1.19792 -1.44531,2.72787 -1.5625,4.58985 h 5.3711 c 0.13021,-0.82032 0.39062,-1.47136 0.78124,-1.95313 0.54688,-0.65104 1.47787,-0.97656 2.79297,-0.97656 1.17188,0 2.0573,0.16927 2.65625,0.50781 0.61198,0.32552 0.91797,0.92448 0.91797,1.79688 0,0.71614 -0.39714,1.24349 -1.1914,1.58203 -0.44272,0.19531 -1.17839,0.35807 -2.20703,0.48828 l -1.89454,0.23437 c -2.14843,0.27344 -3.77604,0.72917 -4.88281,1.36719 -2.01823,1.17188 -3.02734,3.06641 -3.02734,5.6836 0,2.01822 0.625,3.58072 1.875,4.6875 1.26302,1.09375 2.85807,1.64062 4.78515,1.64062 1.51042,0 2.86459,-0.34505 4.0625,-1.03516 1.00261,-0.58594 1.88803,-1.29557 2.65625,-2.1289 0.0391,0.48177 0.0912,0.91145 0.15625,1.28906 0.0651,0.3776 0.18229,0.78125 0.35157,1.21094 h 6.05468 v -0.82031 c -0.36458,-0.16928 -0.63802,-0.38412 -0.82031,-0.64454 -0.18229,-0.26042 -0.29296,-0.7552 -0.33203,-1.48437 -0.0261,-0.96354 -0.0391,-1.78386 -0.0391,-2.46094 v -9.76562 c 0,-2.5651 -0.90495,-4.3099 -2.71485,-5.23438 -1.80989,-0.92448 -3.88021,-1.38672 -6.21093,-1.38672 z m 46.71875,0 c -3.58074,0 -6.10678,0.9375 -7.57813,2.8125 -0.92448,1.19792 -1.44531,2.72787 -1.5625,4.58985 h 5.37109 c 0.13022,-0.82032 0.39064,-1.47136 0.78126,-1.95313 0.54687,-0.65104 1.47786,-0.97656 2.79296,-0.97656 1.17188,0 2.0573,0.16927 2.65625,0.50781 0.61198,0.32552 0.91797,0.92448 0.91797,1.79688 0,0.71614 -0.39714,1.24349 -1.1914,1.58203 -0.44272,0.19531 -1.17839,0.35807 -2.20704,0.48828 l -1.89453,0.23437 c -2.14843,0.27344 -3.77604,0.72917 -4.88281,1.36719 -2.01823,1.17188 -3.02734,3.06641 -3.02734,5.6836 0,2.01822 0.625,3.58072 1.875,4.6875 1.26302,1.09375 2.85807,1.64062 4.78515,1.64062 1.51042,0 2.86459,-0.34505 4.0625,-1.03516 1.00261,-0.58594 1.88803,-1.29557 2.65625,-2.1289 0.0391,0.48177 0.0912,0.91145 0.15625,1.28906 0.0651,0.3776 0.18229,0.78125 0.35157,1.21094 h 6.05468 v -0.82031 c -0.36458,-0.16928 -0.63802,-0.38412 -0.82031,-0.64454 -0.18229,-0.26042 -0.29296,-0.7552 -0.33203,-1.48437 -0.0261,-0.96354 -0.0391,-1.78386 -0.0391,-2.46094 v -9.76562 c 0,-2.5651 -0.90495,-4.3099 -2.71485,-5.23438 -1.80989,-0.92448 -3.88021,-1.38672 -6.21093,-1.38672 z m 25.68359,0 c -1.75781,0 -3.20964,0.42969 -4.35547,1.28907 -0.63802,0.48177 -1.3151,1.26953 -2.03125,2.36328 v -3.10547 h -5.37109 v 21.25 h 5.54687 v -11.52344 c 0,-1.31511 0.18229,-2.39583 0.54688,-3.24219 0.70312,-1.60156 1.99869,-2.40234 3.88672,-2.40234 1.53645,0 2.57812,0.54687 3.125,1.64062 0.29947,0.59896 0.44921,1.45834 0.44921,2.57813 v 12.94922 h 5.70313 v -14.33594 c 0,-2.66927 -0.70312,-4.57682 -2.10937,-5.72266 -1.39323,-1.15885 -3.19011,-1.73828 -5.39063,-1.73828 z m -47.01172,0.0391 c -1.70573,0 -3.17708,0.47526 -4.41406,1.42578 -0.67709,0.53385 -1.31511,1.26302 -1.91406,2.1875 v -3.14453 h -5.33203 v 29.66796 h 5.50781 v -11.09375 c 0.58593,0.89844 1.18489,1.58204 1.79687,2.05079 1.1198,0.84635 2.52605,1.26953 4.21875,1.26953 2.65626,0 4.82422,-0.98308 6.50391,-2.94922 1.69271,-1.96615 2.53906,-4.82422 2.53906,-8.57422 0,-3.55469 -0.86588,-6.25 -2.59766,-8.08594 -1.71874,-1.83594 -3.82161,-2.7539 -6.30859,-2.7539 z m -1.60156,4.86328 c 1.67969,0 2.89062,0.63151 3.63281,1.89453 0.75521,1.26302 1.13281,2.71484 1.13281,4.35547 0,1.99218 -0.41015,3.58723 -1.23047,4.78515 -0.80728,1.19792 -1.98567,1.79688 -3.53515,1.79688 -1.06771,0 -1.99219,-0.29297 -2.77344,-0.87891 -1.31511,-1.0026 -1.97265,-2.74088 -1.97265,-5.21484 0,-1.5625 0.19531,-2.85157 0.58593,-3.86719 0.75521,-1.91407 2.14193,-2.87109 4.16016,-2.87109 z m -20.42969,6.54297 v 2.07031 c -0.0391,1.86198 -0.5664,3.14453 -1.58203,3.84765 -1.00261,0.70313 -2.10287,1.05469 -3.30078,1.05469 -0.75521,0 -1.39973,-0.20833 -1.93359,-0.625 -0.52084,-0.42968 -0.78126,-1.11978 -0.78126,-2.07031 0,-1.06771 0.42969,-1.85547 1.28907,-2.36328 0.50781,-0.29948 1.34766,-0.55339 2.51953,-0.76172 l 1.25,-0.23438 c 0.625,-0.11718 1.11328,-0.24088 1.46484,-0.37109 0.36459,-0.14323 0.72266,-0.32552 1.07422,-0.54687 z m 46.71875,0 v 2.07031 c -0.0391,1.86198 -0.5664,3.14453 -1.58203,3.84765 -1.00261,0.70313 -2.10287,1.05469 -3.30078,1.05469 -0.75521,0 -1.39973,-0.20833 -1.9336,-0.625 -0.52083,-0.42968 -0.78124,-1.11978 -0.78124,-2.07031 -10e-6,-1.06771 0.42968,-1.85547 1.28906,-2.36328 0.50781,-0.29948 1.34766,-0.55339 2.51953,-0.76172 l 1.25,-0.23438 c 0.625,-0.11718 1.11328,-0.24088 1.46484,-0.37109 0.36459,-0.14323 0.72266,-0.32552 1.07422,-0.54687 z"
       inkscape:original="M 486.54297 627.22461 C 482.42838 627.22461 479.28386 628.3444 477.10938 630.58398 C 474.19271 633.22721 472.73438 637.18554 472.73438 642.45898 C 472.73438 647.62826 474.19271 651.58659 477.10938 654.33398 C 479.28386 656.57356 482.42838 657.69336 486.54297 657.69336 C 490.65755 657.69336 493.80208 656.57356 495.97656 654.33398 C 498.88021 651.58659 500.33203 647.62826 500.33203 642.45898 C 500.33203 637.18554 498.88021 633.22721 495.97656 630.58398 C 493.80208 628.3444 490.65755 627.22461 486.54297 627.22461 z M 546.54297 627.22461 C 542.42838 627.22461 539.28385 628.3444 537.10938 630.58398 C 534.19271 633.22721 532.73438 637.18554 532.73438 642.45898 C 532.73438 647.62826 534.19271 651.58659 537.10938 654.33398 C 539.28385 656.57356 542.42838 657.69336 546.54297 657.69336 C 550.65755 657.69336 553.80208 656.57356 555.97656 654.33398 C 558.88021 651.58659 560.33203 647.62826 560.33203 642.45898 C 560.33203 637.18554 558.88021 633.22721 555.97656 630.58398 C 553.80208 628.3444 550.65755 627.22461 546.54297 627.22461 z M 456.64062 627.55664 C 453.02084 627.55664 450.03907 628.74154 447.69531 631.11133 C 445 633.83268 443.65234 637.70638 443.65234 642.73242 C 443.65234 647.38086 444.83724 651.03971 447.20703 653.70898 C 449.57682 656.36523 452.83203 657.69336 456.97266 657.69336 C 460.31901 657.69336 463.0599 656.71028 465.19531 654.74414 C 467.34375 652.77799 468.67839 650.22591 469.19922 647.08789 L 463.24219 647.08789 C 462.83854 648.57226 462.33073 649.68555 461.71875 650.42773 C 460.61198 651.80794 459.0039 652.49805 456.89453 652.49805 C 454.83724 652.49805 453.13802 651.69726 451.79688 650.0957 C 450.46875 648.48112 449.80469 646.05924 449.80469 642.83008 C 449.80469 639.60091 450.4362 637.10742 451.69922 635.34961 C 452.96224 633.57878 454.6875 632.69336 456.875 632.69336 C 459.02344 632.69336 460.64453 633.31836 461.73828 634.56836 C 462.35026 635.27149 462.85156 636.31315 463.24219 637.69336 L 469.25781 637.69336 C 469.16667 635.89649 468.50261 634.10612 467.26562 632.32227 C 465.02604 629.14519 461.48438 627.55664 456.64062 627.55664 z M 516.64062 627.55664 C 513.02084 627.55664 510.03907 628.74154 507.69531 631.11133 C 505 633.83268 503.65234 637.70638 503.65234 642.73242 C 503.65234 647.38086 504.83724 651.03971 507.20703 653.70898 C 509.57682 656.36523 512.83203 657.69336 516.97266 657.69336 C 520.31901 657.69336 523.0599 656.71028 525.19531 654.74414 C 527.34375 652.77799 528.67839 650.22591 529.19922 647.08789 L 523.24219 647.08789 C 522.83854 648.57226 522.33073 649.68555 521.71875 650.42773 C 520.61198 651.80794 519.0039 652.49805 516.89453 652.49805 C 514.83724 652.49805 513.13802 651.69726 511.79688 650.0957 C 510.46875 648.48112 509.80469 646.05924 509.80469 642.83008 C 509.80469 639.60091 510.4362 637.10742 511.69922 635.34961 C 512.96224 633.57878 514.6875 632.69336 516.875 632.69336 C 519.02344 632.69336 520.64453 633.31836 521.73828 634.56836 C 522.35026 635.27149 522.85156 636.31315 523.24219 637.69336 L 529.25781 637.69336 C 529.16667 635.89649 528.5026 634.10612 527.26562 632.32227 C 525.02605 629.14519 521.48438 627.55664 516.64062 627.55664 z M 437.03125 627.63477 C 435.05208 630.39519 433.54818 632.97331 432.51953 635.36914 C 430.99609 638.88476 430.23438 642.42643 430.23438 645.99414 C 430.23437 649.91341 431.13932 653.89779 432.94922 657.94727 C 433.96485 660.21289 434.92188 661.91862 435.82031 663.06445 L 437.20703 664.95898 L 441.32812 664.95898 C 439.60938 661.86002 438.41146 659.32096 437.73438 657.3418 C 436.57552 653.99544 435.99609 650.33008 435.99609 646.3457 C 435.99609 643.79362 436.20443 641.43684 436.62109 639.27539 C 437.25911 635.98112 438.39844 632.83008 440.03906 629.82227 L 441.23047 627.63477 L 437.03125 627.63477 z M 591.26953 627.63477 L 592.46094 629.82227 C 594.10156 632.83008 595.24088 635.98112 595.87891 639.27539 C 596.29557 641.43684 596.50391 643.79362 596.50391 646.3457 C 596.50391 650.33008 595.92449 653.99544 594.76562 657.3418 C 594.08854 659.32096 592.89063 661.86002 591.17188 664.95898 L 595.29297 664.95898 L 596.67969 663.06445 C 597.57812 661.91862 598.53515 660.21289 599.55078 657.94727 C 601.36067 653.89779 602.26562 649.91341 602.26562 645.99414 C 602.26562 642.42643 601.5039 638.88476 599.98047 635.36914 C 598.95182 632.97331 597.44792 630.39519 595.46875 627.63477 L 591.26953 627.63477 z M 315.01953 628.10352 L 315.01953 648.24023 C 315.01953 649.63346 314.88282 650.62304 314.60938 651.20898 C 314.15365 652.19856 313.21615 652.69336 311.79688 652.69336 C 310.36459 652.69336 309.42709 652.24414 308.98438 651.3457 C 308.55468 650.43424 308.31379 648.86523 308.26172 646.63867 L 308.26172 645.97461 L 302.57812 645.97461 L 302.57812 646.63867 C 302.57812 650.02409 303.21614 652.69987 304.49219 654.66602 C 305.76823 656.61914 308.27474 657.5957 312.01172 657.5957 C 315.7487 657.5957 318.33334 656.38476 319.76562 653.96289 C 320.61199 652.5306 321.03516 650.5905 321.03516 648.14258 L 321.03516 628.10352 L 315.01953 628.10352 z M 573.14453 628.10352 L 562.87109 656.89258 L 569.16016 656.89258 L 571.15234 650.97461 L 581.75781 650.97461 L 583.61328 656.89258 L 590.13672 656.89258 L 579.94141 628.10352 L 573.14453 628.10352 z M 486.54297 632.32227 C 488.92578 632.32227 490.8138 633.20768 492.20703 634.97852 C 493.61328 636.73633 494.31641 639.22982 494.31641 642.45898 C 494.31641 645.70117 493.61328 648.20117 492.20703 649.95898 C 490.8138 651.7168 488.92578 652.5957 486.54297 652.5957 C 484.16016 652.5957 482.25912 651.7168 480.83984 649.95898 C 479.42058 648.20117 478.71094 645.70117 478.71094 642.45898 C 478.71094 639.2168 479.42058 636.7168 480.83984 634.95898 C 482.25912 633.20117 484.16016 632.32227 486.54297 632.32227 z M 546.54297 632.32227 C 548.92578 632.32227 550.8138 633.20768 552.20703 634.97852 C 553.61328 636.73633 554.31641 639.22982 554.31641 642.45898 C 554.31641 645.70117 553.61328 648.20117 552.20703 649.95898 C 550.8138 651.7168 548.92578 652.5957 546.54297 652.5957 C 544.16016 652.5957 542.25912 651.7168 540.83984 649.95898 C 539.42058 648.20117 538.71094 645.70117 538.71094 642.45898 C 538.71094 639.2168 539.42058 636.7168 540.83984 634.95898 C 542.25912 633.20117 544.16016 632.32227 546.54297 632.32227 z M 576.48438 634.68555 L 580.07812 646.01367 L 572.77344 646.01367 L 576.48438 634.68555 z M 334.94141 635.0957 C 331.36067 635.0957 328.83463 636.0332 327.36328 637.9082 C 326.4388 639.10612 325.91797 640.63607 325.80078 642.49805 L 331.17188 642.49805 C 331.30209 641.67773 331.5625 641.02669 331.95312 640.54492 C 332.5 639.89388 333.43099 639.56836 334.74609 639.56836 C 335.91797 639.56836 336.80339 639.73763 337.40234 640.07617 C 338.01432 640.40169 338.32031 641.00065 338.32031 641.87305 C 338.32031 642.58919 337.92317 643.11654 337.12891 643.45508 C 336.68619 643.65039 335.95052 643.81315 334.92188 643.94336 L 333.02734 644.17773 C 330.87891 644.45117 329.2513 644.9069 328.14453 645.54492 C 326.1263 646.7168 325.11719 648.61133 325.11719 651.22852 C 325.11719 653.24674 325.74219 654.80924 326.99219 655.91602 C 328.25521 657.00977 329.85026 657.55664 331.77734 657.55664 C 333.28776 657.55664 334.64193 657.21159 335.83984 656.52148 C 336.84245 655.93554 337.72787 655.22591 338.49609 654.39258 C 338.53519 654.87435 338.58728 655.30403 338.65234 655.68164 C 338.71745 656.05924 338.83463 656.46289 339.00391 656.89258 L 345.05859 656.89258 L 345.05859 656.07227 C 344.69401 655.90299 344.42057 655.68815 344.23828 655.42773 C 344.05599 655.16731 343.94532 654.67253 343.90625 653.94336 C 343.88018 652.97982 343.86719 652.1595 343.86719 651.48242 L 343.86719 641.7168 C 343.86719 639.1517 342.96224 637.4069 341.15234 636.48242 C 339.34245 635.55794 337.27213 635.0957 334.94141 635.0957 z M 381.66016 635.0957 C 378.07942 635.0957 375.55338 636.0332 374.08203 637.9082 C 373.15755 639.10612 372.63672 640.63607 372.51953 642.49805 L 377.89062 642.49805 C 378.02084 641.67773 378.28126 641.02669 378.67188 640.54492 C 379.21875 639.89388 380.14974 639.56836 381.46484 639.56836 C 382.63672 639.56836 383.52214 639.73763 384.12109 640.07617 C 384.73307 640.40169 385.03906 641.00065 385.03906 641.87305 C 385.03906 642.58919 384.64192 643.11654 383.84766 643.45508 C 383.40494 643.65039 382.66927 643.81315 381.64062 643.94336 L 379.74609 644.17773 C 377.59766 644.45117 375.97005 644.9069 374.86328 645.54492 C 372.84505 646.7168 371.83594 648.61133 371.83594 651.22852 C 371.83594 653.24674 372.46094 654.80924 373.71094 655.91602 C 374.97396 657.00977 376.56901 657.55664 378.49609 657.55664 C 380.00651 657.55664 381.36068 657.21159 382.55859 656.52148 C 383.5612 655.93554 384.44662 655.22591 385.21484 654.39258 C 385.25394 654.87435 385.30603 655.30403 385.37109 655.68164 C 385.4362 656.05924 385.55338 656.46289 385.72266 656.89258 L 391.77734 656.89258 L 391.77734 656.07227 C 391.41276 655.90299 391.13932 655.68815 390.95703 655.42773 C 390.77474 655.16731 390.66407 654.67253 390.625 653.94336 C 390.59893 652.97982 390.58594 652.1595 390.58594 651.48242 L 390.58594 641.7168 C 390.58594 639.1517 389.68099 637.4069 387.87109 636.48242 C 386.0612 635.55794 383.99088 635.0957 381.66016 635.0957 z M 407.34375 635.0957 C 405.58594 635.0957 404.13411 635.52539 402.98828 636.38477 C 402.35026 636.86654 401.67318 637.6543 400.95703 638.74805 L 400.95703 635.64258 L 395.58594 635.64258 L 395.58594 656.89258 L 401.13281 656.89258 L 401.13281 645.36914 C 401.13281 644.05403 401.3151 642.97331 401.67969 642.12695 C 402.38281 640.52539 403.67838 639.72461 405.56641 639.72461 C 407.10286 639.72461 408.14453 640.27148 408.69141 641.36523 C 408.99088 641.96419 409.14062 642.82357 409.14062 643.94336 L 409.14062 656.89258 L 414.84375 656.89258 L 414.84375 642.55664 C 414.84375 639.88737 414.14063 637.97982 412.73438 636.83398 C 411.34115 635.67513 409.54427 635.0957 407.34375 635.0957 z M 360.33203 635.13477 C 358.6263 635.13477 357.15495 635.61003 355.91797 636.56055 C 355.24088 637.0944 354.60286 637.82357 354.00391 638.74805 L 354.00391 635.60352 L 348.67188 635.60352 L 348.67188 665.27148 L 354.17969 665.27148 L 354.17969 654.17773 C 354.76562 655.07617 355.36458 655.75977 355.97656 656.22852 C 357.09636 657.07487 358.50261 657.49805 360.19531 657.49805 C 362.85157 657.49805 365.01953 656.51497 366.69922 654.54883 C 368.39193 652.58268 369.23828 649.72461 369.23828 645.97461 C 369.23828 642.41992 368.3724 639.72461 366.64062 637.88867 C 364.92188 636.05273 362.81901 635.13477 360.33203 635.13477 z M 358.73047 639.99805 C 360.41016 639.99805 361.62109 640.62956 362.36328 641.89258 C 363.11849 643.1556 363.49609 644.60742 363.49609 646.24805 C 363.49609 648.24023 363.08594 649.83528 362.26562 651.0332 C 361.45834 652.23112 360.27995 652.83008 358.73047 652.83008 C 357.66276 652.83008 356.73828 652.53711 355.95703 651.95117 C 354.64192 650.94857 353.98438 649.21029 353.98438 646.73633 C 353.98438 645.17383 354.17969 643.88476 354.57031 642.86914 C 355.32552 640.95507 356.71224 639.99805 358.73047 639.99805 z M 338.30078 646.54102 L 338.30078 648.61133 C 338.26172 650.47331 337.73438 651.75586 336.71875 652.45898 C 335.71614 653.16211 334.61588 653.51367 333.41797 653.51367 C 332.66276 653.51367 332.01824 653.30534 331.48438 652.88867 C 330.96354 652.45899 330.70312 651.76889 330.70312 650.81836 C 330.70312 649.75065 331.13281 648.96289 331.99219 648.45508 C 332.5 648.1556 333.33985 647.90169 334.51172 647.69336 L 335.76172 647.45898 C 336.38672 647.3418 336.875 647.2181 337.22656 647.08789 C 337.59115 646.94466 337.94922 646.76237 338.30078 646.54102 z M 385.01953 646.54102 L 385.01953 648.61133 C 384.98047 650.47331 384.45313 651.75586 383.4375 652.45898 C 382.43489 653.16211 381.33463 653.51367 380.13672 653.51367 C 379.38151 653.51367 378.73699 653.30534 378.20312 652.88867 C 377.68229 652.45899 377.42188 651.76889 377.42188 650.81836 C 377.42187 649.75065 377.85156 648.96289 378.71094 648.45508 C 379.21875 648.1556 380.0586 647.90169 381.23047 647.69336 L 382.48047 647.45898 C 383.10547 647.3418 383.59375 647.2181 383.94531 647.08789 C 384.3099 646.94466 384.66797 646.76237 385.01953 646.54102 z "
       inkscape:radius="0"
       sodipodi:type="inkscape:offset"
       style="font-style:normal;font-variant:normal;font-weight:bold;font-stretch:normal;font-size:40px;font-family:Helvetica;-inkscape-font-specification:'Helvetica, Bold';font-variant-ligatures:normal;font-variant-caps:normal;font-variant-numeric:normal;font-variant-east-asian:normal"
       id="path96" />
  </g>
</svg>
