<svg id="Layer_1" data-name="Layer 1" xmlns="http://www.w3.org/2000/svg" xmlns:xlink="http://www.w3.org/1999/xlink" viewBox="0 0 900 713.45702"><defs><style>.cls-1{fill:none;}.cls-2{clip-path:url(#clip-path);}.cls-3{fill:#cd1126;}.cls-4{fill:#00793d;}.cls-5{fill:#fefefe;}</style><clipPath id="clip-path"><rect class="cls-1" x="-1.01031" y="-0.71459" width="900.86235" height="534.22198"/></clipPath></defs><path d="M127.09831,589.37694h12.29883v24.65039l23.11425-24.65039h16.15332l-24.55078,24.60547,25.80957,35.2207H163.85026l-18.43262-26.11523-6.0205,6.10547v20.00976H127.09831Z"/><path d="M197.51725,604.96288v26.666a14.00787,14.00787,0,0,0,.88868,5.68164q1.5747,3.37061,6.17871,3.36914,5.896,0,8.07714-4.78907a17.41428,17.41428,0,0,0,1.13086-6.85937V604.96288h11.73047v44.24023H214.28v-6.25q-.16113.20216-.80957,1.2168a8.14269,8.14269,0,0,1-1.53711,1.78613,16.04716,16.04716,0,0,1-5.24219,3.32813,17.83342,17.83342,0,0,1-5.92969.89258q-9.79394,0-13.19336-7.06153-1.90283-3.89648-1.90234-11.48632v-26.666Z"/><path d="M257.6276,604.96288h11.73047l6.73731,31.86133,6.89941-31.86133h12.05469l-12.8252,44.24023H270.33171l-6.94043-32.22656-7.02149,32.22656H244.35612L231.9362,604.96288h12.41992l6.89941,31.73926Z"/><path d="M318.944,622.29393a18.32541,18.32541,0,0,0,4.61914-1.01464,3.48127,3.48127,0,0,0,2.49512-3.28809,3.88661,3.88661,0,0,0-1.91406-3.75391,12.08469,12.08469,0,0,0-5.61524-1.03515q-4.15577,0-5.88379,2.02929a8.37135,8.37135,0,0,0-1.6455,4.0586H299.83854a16.92676,16.92676,0,0,1,3.26074-9.53809q4.60548-5.84472,15.81641-5.84472a28.20771,28.20771,0,0,1,12.96289,2.88183q5.666,2.88282,5.665,10.87793V637.96q0,2.11084.082,5.11426a6.42906,6.42906,0,0,0,.68945,3.085,4.13882,4.13882,0,0,0,1.70508,1.33887v1.70507h-12.582a12.85237,12.85237,0,0,1-.73144-2.5166q-.20216-1.17627-.32422-2.67871a23.87715,23.87715,0,0,1-5.55176,4.42383,16.77457,16.77457,0,0,1-8.49219,2.15137,14.6522,14.6522,0,0,1-9.98144-3.42969q-3.94044-3.4292-3.93946-9.7207,0-8.15772,6.33789-11.81055,3.47461-1.9878,10.22168-2.8418Zm7.07227,5.39747a12.75167,12.75167,0,0,1-2.24219,1.11621,19.03039,19.03039,0,0,1-3.10645.792l-2.63281.4873a17.32057,17.32057,0,0,0-5.31738,1.582,5.28521,5.28521,0,0,0-2.73242,4.91114,5.13222,5.13222,0,0,0,1.66894,4.28222,6.34087,6.34087,0,0,0,4.05957,1.31934,12.0876,12.0876,0,0,0,6.98535-2.19141q3.19484-2.19286,3.31739-7.99609Z"/><path d="M359.54264,599.68651H347.81315v-10.6748h11.72949Zm-11.72949,5.27637h11.72949v44.24023H347.81315Z"/><path d="M366.19889,613.60839v-8.23926h6.16895V593.03026h11.44531v12.33887h7.18457v8.23926h-7.18457v23.37793q0,2.72021.69043,3.38867.68994.67089,4.2207.66992c.35157,0,.72364-.00586,1.11622-.02051q.58885-.019,1.15722-.06054v8.6455l-5.47949.20215q-8.19873.28419-11.20215-2.84082-1.94824-1.98779-1.94824-6.1289v-27.2334Z"/><path d="M424.48307,601.47558a86.92837,86.92837,0,0,1,9.375-16.07227h8.72657l-2.47559,4.5459a67.66847,67.66847,0,0,0-7.10254,19.64453,77.68471,77.68471,0,0,0-1.29883,14.69238A69.39468,69.39468,0,0,0,435.32,647.13671a104.15245,104.15245,0,0,0,7.46777,15.8291h-8.56445l-2.88086-3.9375a52.72493,52.72493,0,0,1-5.9668-10.63379,60.54978,60.54978,0,0,1-5.6416-24.83887A55.0968,55.0968,0,0,1,424.48307,601.47558Z"/><path d="M459.14421,630.73632a12.12984,12.12984,0,0,0,2.27929,6.12793q3.10841,3.69434,10.65039,3.69336a22.91172,22.91172,0,0,0,7.335-.97364q5.34669-1.86621,5.34668-6.94043a5.11708,5.11708,0,0,0-2.61914-4.58691,28.42763,28.42763,0,0,0-8.30664-2.7998l-6.47656-1.4209q-9.54931-2.10937-13.12012-4.58594-6.04833-4.14111-6.04687-12.94824a17.19374,17.19374,0,0,1,5.916-13.35254q5.91651-5.31738,17.37989-5.31738a26.6478,26.6478,0,0,1,16.332,5.01269q6.75879,5.0127,7.08789,14.55078H482.88835a8.56552,8.56552,0,0,0-4.82715-7.6709,16.53163,16.53163,0,0,0-7.44727-1.50195,14.17641,14.17641,0,0,0-7.90625,1.94824,6.16341,6.16341,0,0,0-2.9541,5.43848,5.12991,5.12991,0,0,0,2.91211,4.78906,36.17533,36.17533,0,0,0,7.94824,2.47656l10.499,2.47559q6.90234,1.623,10.34765,4.34277,5.34815,4.22169,5.34864,12.2168a17.16579,17.16579,0,0,1-6.3379,13.61719q-6.33837,5.41845-17.90722,5.418-11.814,0-18.584-5.33692-6.769-5.33641-6.76855-14.67187Z"/><path d="M536.43718,605.208a12.97911,12.97911,0,0,1,5.47656,4.34668,11.586,11.586,0,0,1,2.22168,5.09863,63.0172,63.0172,0,0,1,.40527,8.55078v25.999H532.72917V622.26366a11.93476,11.93476,0,0,0-1.209-5.77051q-1.5703-3.08788-5.96191-3.08789a8.1782,8.1782,0,0,0-6.91016,3.06836q-2.35693,3.06738-2.35644,8.75586v23.97363H504.72428v-59.623h11.56739v21.10547a14.14547,14.14547,0,0,1,5.79883-5.37793,16.3285,16.3285,0,0,1,6.93066-1.52149A18.71307,18.71307,0,0,1,536.43718,605.208Z"/><path d="M567.22819,649.20311H555.66081V589.37694h11.56738Z"/><path d="M615.40593,643.791q-5.60157,6.91407-17.00586,6.91407-11.40528,0-17.00586-6.91407a27.44545,27.44545,0,0,1,0-33.23242q5.60008-7.01659,17.00586-7.0166,11.4038,0,17.00586,7.0166a27.44549,27.44549,0,0,1,0,33.23242Zm-9.25391-6.39355q2.71875-3.60645,2.71973-10.25391,0-6.646-2.71973-10.23242a10.28023,10.28023,0,0,0-15.60547,0q-2.74073,3.58595-2.74023,10.23242,0,6.64746,2.74023,10.25391a10.24224,10.24224,0,0,0,15.60547,0Z"/><path d="M664.96061,607.5q4.34474,3.5918,4.34473,11.91211v29.791H657.45378V622.29393a12.36647,12.36647,0,0,0-.92578-5.35742q-1.69337-3.41014-6.44727-3.41015-5.8418,0-8.01758,4.99316a17.26042,17.26042,0,0,0-1.12793,6.73731v23.94628H629.36784V605.04393H640.57v6.45313a19.62441,19.62441,0,0,1,4.20312-4.91113,14.56573,14.56573,0,0,1,9.0127-2.67871Q660.61638,603.90722,664.96061,607.5Z"/><path d="M691.95378,599.68651h-11.7295v-10.6748h11.7295Zm-11.7295,5.27637h11.7295v44.24023h-11.7295Z"/><path d="M703.03385,589.58007h11.36426V621.8535L728.988,605.166h14.38476L727.5153,621.64647,743.987,649.20311H729.90885l-10.71972-18.90136-4.791,4.97949v13.92187H703.03385Z"/><path d="M763.112,601.47558a55.18344,55.18344,0,0,1,4.74023,22.08007,60.65672,60.65672,0,0,1-5.63086,24.83887,52.81548,52.81548,0,0,1-5.957,10.63379l-2.876,3.9375h-8.54883a104.51,104.51,0,0,0,7.44043-15.8291,69.6522,69.6522,0,0,0,3.59961-22.85059,78.023,78.023,0,0,0-1.29395-14.69238,67.89246,67.89246,0,0,0-7.07715-19.64453l-2.46679-4.5459h8.71093A87.05357,87.05357,0,0,1,763.112,601.47558Z"/><g class="cls-2"><path class="cls-3" d="M900.92,355.02093q0,86.84745.085,173.69465c.00838,3.91288-.746,4.793-4.04671,4.79181-298.88844-.10461-598.77687-.0971-897.66531-.0971.55653-1.83386,3.10971-2.31026,4.27877-3.2424q16.1532-12.87948,32.3743-25.63932,34.22671-27.0393,68.45809-54.07033c29.48086-23.28213,59.00747-46.48352,88.42053-69.88532,10.67334-8.492,21.67876-16.411,31.92316-25.65393,1.74689.116,3.49379.33345,5.24068.33355q332.83575.02277,665.67151.0042C897.41333,355.25668,899.16662,355.10294,900.92,355.02093Z"/><path class="cls-4" d="M-.1-.1q448.33266,0,897.05826-.71169c3.30066-.00116,4.05509.879,4.04671,4.79181q-.18474,86.84691-.085,173.69466c-1.75243-.08526-3.50486-.24513-5.25728-.24522q-332.79171-.01674-665.58344-.00376c-1.75665.00006-3.51327.10288-5.26991.1577-1.30828-1.11164-2.59-2.27048-3.92863-3.32818Q112.6047,88.70023,4.33876,3.12728C2.91556,2.00184.73568,1.93088-.1-.1Z"/><path class="cls-5" d="M265.08692,177.5835c1.65222-.05482,3.30442-.15764,4.95664-.1577q313.00837-.01079,626.01672.00376c1.64825.00009,3.2965.16,4.94476.24522V355.02093c-1.64911.082-3.29818.23575-4.94729.23581q-313.0498.01614-626.09956-.0042c-1.643-.0001-3.28609-.21757-4.92913-.33317Q265.058,266.25181,265.08692,177.5835Z"/><path d="M-.68108,533.84222c-.0918-21.191-.06434-46.98249-.06434-68.17386,0-153.89806.57669-307.76542.64542-461.66344C-.09932,2.48-.09932,2.38-.1-.1,1.87083,1.13591,3.38622,2.00184,5.06483,3.12728q127.67655,85.60166,255.40312,171.128c1.57886,1.0577,3.09061,2.21654,4.63367,3.32818q-.03627,88.66812-.07256,177.33587c-12.0829,9.2425-25.06337,17.16153-37.65218,25.65355q-52.03741,35.1027-104.28871,69.88532-40.37337,27.033-80.74375,54.07033"/></g></svg>