<svg id="Layer_1" data-name="Layer 1" xmlns="http://www.w3.org/2000/svg" viewBox="0 0 900 795.16713"><defs><style>.cls-1{fill:#9e3039;}.cls-2{fill:#fff;}</style></defs><path class="cls-1" d="M-136.19141-1H1057.796V595.9937H-136.19141"/><path class="cls-2" d="M-136.19141,237.79748H1057.796V357.19622H-136.19141"/><path d="M61.70771,658.69753h12.707v49.8789H104.78v10.93262H61.70771Z"/><path d="M128.069,692.15651a18.59465,18.59465,0,0,0,4.69629-1.03223,3.53641,3.53641,0,0,0,2.53516-3.34179,3.9511,3.9511,0,0,0-1.94434-3.81543,12.28,12.28,0,0,0-5.708-1.05274q-4.22462,0-5.98047,2.06348a8.50012,8.50012,0,0,0-1.67286,4.125h-11.3457a17.20975,17.20975,0,0,1,3.31445-9.69531q4.68312-5.93994,16.07715-5.94043a28.67661,28.67661,0,0,1,13.17676,2.92871q5.75831,2.93115,5.75879,11.05664v20.6289q0,2.14453.083,5.19825a6.52707,6.52707,0,0,0,.70117,3.13574,4.21065,4.21065,0,0,0,1.73242,1.36133v1.73242H136.7038a13.03885,13.03885,0,0,1-.74316-2.55762q-.20655-1.19677-.33008-2.72363a24.25072,24.25072,0,0,1-5.64356,4.49707,17.05178,17.05178,0,0,1-8.63183,2.18652,14.896,14.896,0,0,1-10.14551-3.48535q-4.00488-3.48633-4.00391-9.88086,0-8.29248,6.44141-12.00586,3.5332-2.02147,10.39062-2.88769Zm7.18946,5.48633a12.97,12.97,0,0,1-2.2793,1.13476,19.26877,19.26877,0,0,1-3.15723.80469l-2.67675.49512a17.59516,17.59516,0,0,0-5.4043,1.60937,5.36905,5.36905,0,0,0-2.77735,4.99121,5.2149,5.2149,0,0,0,1.69629,4.35254,6.44512,6.44512,0,0,0,4.126,1.34082,12.28415,12.28415,0,0,0,7.10059-2.22754q3.24756-2.228,3.37207-8.127Z"/><path d="M150.5163,683.32741v-8.375h6.27148v-12.542h11.63379v12.542h7.30274v8.375h-7.30274v23.76367q0,2.76415.70117,3.44434.70167.68115,4.291.68066c.35742,0,.73535-.00586,1.13477-.02051q.59764-.0205,1.17578-.06152v8.78711l-5.57032.207q-8.33349.28711-11.38671-2.88867-1.979-2.02-1.9795-6.22949V683.32741Z"/><path d="M208.86493,674.53932h12.625l-16.23926,44.96973H192.85321l-16.12695-44.96973h13.20215l9.36523,33.1709Z"/><path d="M238.1286,669.176H226.20575V658.32546H238.1286Zm-11.92285,5.36328H238.1286v44.96973H226.20575Z"/><path d="M265.21356,692.15651a18.59465,18.59465,0,0,0,4.69629-1.03223,3.53641,3.53641,0,0,0,2.53516-3.34179,3.9511,3.9511,0,0,0-1.94434-3.81543,12.28,12.28,0,0,0-5.708-1.05274q-4.22461,0-5.98047,2.06348a8.5,8.5,0,0,0-1.67285,4.125H245.79364a17.20968,17.20968,0,0,1,3.31446-9.69531q4.6831-5.93994,16.07714-5.94043a28.67661,28.67661,0,0,1,13.17676,2.92871q5.75831,2.93115,5.75879,11.05664v20.6289q0,2.14453.083,5.19825a6.52707,6.52707,0,0,0,.70117,3.13574,4.21072,4.21072,0,0,0,1.73242,1.36133v1.73242H273.84833a13.03885,13.03885,0,0,1-.74316-2.55762q-.20655-1.19677-.33008-2.72363a24.25072,24.25072,0,0,1-5.64356,4.49707,17.05178,17.05178,0,0,1-8.63183,2.18652,14.896,14.896,0,0,1-10.14551-3.48535q-4.00488-3.48633-4.00391-9.88086,0-8.29248,6.44141-12.00586,3.53321-2.02147,10.39062-2.88769Zm7.18946,5.48633a12.97,12.97,0,0,1-2.2793,1.13476,19.26877,19.26877,0,0,1-3.15723.80469l-2.67675.49512a17.59516,17.59516,0,0,0-5.4043,1.60937,5.369,5.369,0,0,0-2.77734,4.99121,5.2149,5.2149,0,0,0,1.69629,4.35254,6.44508,6.44508,0,0,0,4.126,1.34082,12.28413,12.28413,0,0,0,7.10059-2.22754q3.24756-2.228,3.37207-8.127Z"/><path d="M316.656,674.04421a88.36961,88.36961,0,0,1,9.53027-16.33692h8.87012l-2.5166,4.62012A68.77378,68.77378,0,0,0,325.32,682.29616a78.93216,78.93216,0,0,0-1.32031,14.93457,70.55475,70.55475,0,0,0,3.67187,23.22754,105.95108,105.95108,0,0,0,7.59082,16.08984h-8.70508l-2.92968-4.00195a53.65434,53.65434,0,0,1-6.06446-10.80957,61.55652,61.55652,0,0,1-5.73437-25.249A56.01508,56.01508,0,0,1,316.656,674.04421Z"/><path d="M358.00653,658.69753h14.37793l21.51563,60.81152H380.11981l-4.01269-12.501H353.71259l-4.12207,12.501h-13.292Zm-.83691,37.832h15.57422l-7.68262-23.92871Z"/><path d="M436.3913,679.36647q5.502,5.8169,5.502,17.08008,0,11.88281-5.37793,18.11133a17.45538,17.45538,0,0,1-13.84765,6.23047,14.52282,14.52282,0,0,1-8.96973-2.68164,17.34715,17.34715,0,0,1-3.82031-4.332v23.4336H398.24384V674.53932h11.26269v6.64258a18.95441,18.95441,0,0,1,4.06934-4.62109,15.0173,15.0173,0,0,1,9.38379-3.01172A17.78516,17.78516,0,0,1,436.3913,679.36647Zm-9.02441,8.458q-2.398-4.002-7.77344-4.00195a8.84211,8.84211,0,0,0-8.87793,6.06445,22.7812,22.7812,0,0,0-1.25,8.16894q0,7.83839,4.206,11.01563a9.65756,9.65756,0,0,0,5.91992,1.85644,8.60506,8.60506,0,0,0,7.56641-3.79589q2.60449-3.79542,2.60547-10.10743A17.55784,17.55784,0,0,0,427.36689,687.82448Z"/><path d="M443.45282,683.32741v-8.375h6.27149v-12.542H461.3581v12.542h7.30273v8.375H461.3581v23.76367q0,2.76415.70117,3.44434.70165.68115,4.291.68066c.35743,0,.73536-.00586,1.13477-.02051q.59766-.0205,1.17578-.06152v8.78711l-5.57031.207q-8.33351.28711-11.38672-2.88867-1.979-2.02-1.97949-6.22949V683.32741Z"/><path d="M485.81513,674.53932v27.10547a14.24484,14.24484,0,0,0,.90332,5.77637q1.60107,3.4248,6.28027,3.42383,5.99268,0,8.21094-4.86817a17.70952,17.70952,0,0,0,1.14941-6.97168V674.53932h11.92285v44.96973H502.85419v-6.35352q-.16553.20655-.82324,1.23731a8.24154,8.24154,0,0,1-1.5625,1.81543,16.31483,16.31483,0,0,1-5.32813,3.38281,18.10491,18.10491,0,0,1-6.02734.9082q-9.95655,0-13.41211-7.17871-1.93359-3.96093-1.93262-11.67578V674.53932Z"/><path d="M548.57782,673.48756c.15039.01465.48828.03516,1.01074.06153V685.596q-1.11327-.123-1.98046-.165c-.57715-.02636-1.04493-.041-1.40235-.041q-7.09716,0-9.53027,4.62109-1.3623,2.59863-1.36133,8.00391v21.49414H523.47333V674.53932H534.695v7.83887a24.893,24.893,0,0,1,4.74414-6.14746,12.92091,12.92091,0,0,1,8.582-2.76367Q548.35078,673.46706,548.57782,673.48756Z"/><path d="M566.4538,669.176H554.531V658.32546H566.4538ZM554.531,674.53932H566.4538v44.96973H554.531Z"/><path d="M603.84931,665.051q7.34619-7.50879,18.69336-7.50879,15.18311,0,22.20312,10.06641a21.93932,21.93932,0,0,1,4.16309,11.3457h-12.707a17.30225,17.30225,0,0,0-3.11231-6.60156q-3.394-3.95947-10.0625-3.96a12.4017,12.4017,0,0,0-10.71191,5.58984q-3.91992,5.59131-3.91992,15.82227,0,10.23194,4.13671,15.32617a12.962,12.962,0,0,0,10.5127,5.0957q6.5376,0,9.96875-4.374a19.19763,19.19763,0,0,0,3.14746-7.05469h12.625a27.39387,27.39387,0,0,1-8.34668,16.17285q-6.71484,6.23-17.2041,6.2295-12.97851,0-20.40723-8.416-7.42822-8.45655-7.42773-23.18652Q595.40009,673.67361,603.84931,665.051Z"/><path d="M693.49872,714.00807q-5.69385,7.02685-17.28613,7.02735-11.59423,0-17.28711-7.02735a27.90152,27.90152,0,0,1,0-33.78125q5.69385-7.13085,17.28711-7.13086,11.59131,0,17.28613,7.13086a27.90152,27.90152,0,0,1,0,33.78125Zm-9.40625-6.499q2.7627-3.66651,2.76367-10.42285,0-6.75587-2.76367-10.40137a10.44948,10.44948,0,0,0-15.86328,0q-2.78467,3.64453-2.78516,10.40137,0,6.75732,2.78516,10.42285a10.41329,10.41329,0,0,0,15.86328,0Z"/><path d="M733.19989,674.53932h12.625l-16.23925,44.96973H717.18817l-16.12695-44.96973h13.20215l9.36523,33.1709Z"/><path d="M762.46259,669.176H750.53974V658.32546h11.92285Zm-11.92285,5.36328h11.92285v44.96973H750.53974Z"/><path d="M795.58368,675.262a14.28277,14.28277,0,0,1,5.15723,4.9707V658.77956h11.92285v60.72949H801.236v-6.22949a16.58121,16.58121,0,0,1-5.73438,5.81738,16.10341,16.10341,0,0,1-8.00391,1.81445,16.70751,16.70751,0,0,1-13.26367-6.374q-5.38476-6.37353-5.38379-16.35742,0-11.51074,5.30078-18.11231a17.25043,17.25043,0,0,1,14.17188-6.60058A14.50582,14.50582,0,0,1,795.58368,675.262Zm2.8877,32.03515a16.39761,16.39761,0,0,0,2.59961-9.6123q0-8.25147-4.167-11.7998a8.97171,8.97171,0,0,0-5.94043-2.14551q-5.15771,0-7.57128,3.89941a18.06625,18.06625,0,0,0-2.41309,9.67383q0,6.23,2.45508,9.96387a8.30236,8.30236,0,0,0,7.44629,3.7334A8.67934,8.67934,0,0,0,798.47138,707.29713Z"/><path d="M835.19013,674.04421a56.10209,56.10209,0,0,1,4.81836,22.44335,61.64958,61.64958,0,0,1-5.72461,25.249,53.70129,53.70129,0,0,1-6.05371,10.80957l-2.92481,4.00195h-8.68945a106.21253,106.21253,0,0,0,7.56348-16.08984,70.81249,70.81249,0,0,0,3.6582-23.22754,79.35565,79.35565,0,0,0-1.31445-14.93457,69.0246,69.0246,0,0,0-7.19336-19.96875l-2.50782-4.62012h8.8545A88.5967,88.5967,0,0,1,835.19013,674.04421Z"/></svg>