<svg id="Layer_1" data-name="Layer 1" xmlns="http://www.w3.org/2000/svg" viewBox="0 0 900 752.6351"><defs><style>.cls-1{fill:#cc0001;}.cls-2{fill:#fff;}.cls-3{fill:#010066;}.cls-4{fill:#fc0;}</style></defs><path d="M156.76976,626.21256h15.79589v52.53613H162.33714V643.21451q0-1.53222.03515-4.29492t.03614-4.25977l-9.95606,44.08887H141.78343l-9.88477-44.08887q0,1.49708.03613,4.25977.03516,2.7627.03516,4.29492v35.53418H121.74144V626.21256h15.97363l9.56347,41.30859Z"/><path d="M183.43675,686.19791l1.2832.07129a16.03341,16.03341,0,0,0,2.85059-.10742,5.12283,5.12283,0,0,0,2.28125-.81934,5.48217,5.48217,0,0,0,1.65722-2.53027,6.12722,6.12722,0,0,0,.66016-2.35254l-14.27539-40.55957h11.29883l8.48242,28.65527,8.01953-28.65527h10.7998l-13.31933,38.207q-3.86133,11.04785-6.1084,13.7041-2.24853,2.65576-8.99219,2.65528-1.355,0-2.17578-.01758-.82178-.01758-2.46191-.125Z"/><path d="M261.49144,626.21256v9.30273H245.77366v43.2334H234.72483v-43.2334H218.93577v-9.30273Z"/><path d="M284.676,638.99088q.19627.019.873.05371v10.40625q-.9624-.10546-1.71094-.14258-.74706-.03516-1.21093-.03515-6.13184,0-8.2334,3.99218-1.17627,2.24415-1.17676,6.91407v18.56933H262.98851V639.90006h9.69433v6.77148a21.50128,21.50128,0,0,1,4.09863-5.31054,11.1583,11.1583,0,0,1,7.41309-2.38868C284.385,638.97232,284.54515,638.97916,284.676,638.99088Z"/><path d="M306.8889,655.11881a16.09977,16.09977,0,0,0,4.05664-.8916,3.05535,3.05535,0,0,0,2.19043-2.88672,3.41413,3.41413,0,0,0-1.68067-3.29688,10.60637,10.60637,0,0,0-4.93066-.90918q-3.64893,0-5.167,1.78223a7.349,7.349,0,0,0-1.44434,3.56445h-9.80176a14.86937,14.86937,0,0,1,2.86328-8.376q4.04443-5.13282,13.88965-5.13282a24.75864,24.75864,0,0,1,11.38281,2.53125q4.97461,2.53125,4.97559,9.55176v17.82129q0,1.853.07129,4.49024a5.64121,5.64121,0,0,0,.60547,2.709,3.63514,3.63514,0,0,0,1.49707,1.17578v1.49707H314.34788a11.21892,11.21892,0,0,1-.6416-2.21q-.17871-1.03272-.28516-2.35156a21.01588,21.01588,0,0,1-4.876,3.88476,14.7374,14.7374,0,0,1-7.457,1.88868,12.86417,12.86417,0,0,1-8.76464-3.01172q-3.46-3.01173-3.459-8.53614,0-7.16454,5.56446-10.37207a24.84293,24.84293,0,0,1,8.97656-2.49414Zm6.21093,4.74023a11.27912,11.27912,0,0,1-1.96972.98047,16.69339,16.69339,0,0,1-2.72754.69434l-2.31153.42773a15.21637,15.21637,0,0,0-4.66992,1.38965,4.64139,4.64139,0,0,0-2.39941,4.3125,4.50556,4.50556,0,0,0,1.46582,3.76074,5.56778,5.56778,0,0,0,3.56445,1.15821,10.61753,10.61753,0,0,0,6.13477-1.92481q2.80516-1.9248,2.91308-7.02148Z"/><path d="M355.33519,653.83561a9.00433,9.00433,0,0,0-1.46485-3.9209,6.14786,6.14786,0,0,0-5.32324-2.35254q-5.14454,0-7.03809,5.09765a21.15135,21.15135,0,0,0-1,7.18067,19.44923,19.44923,0,0,0,1,6.86133,6.79266,6.79266,0,0,0,6.85938,4.84668q3.57275,0,5.07324-1.92383a9.55683,9.55683,0,0,0,1.82227-4.99024H365.636a16.98954,16.98954,0,0,1-3.35352,8.76758q-4.78125,6.665-14.16406,6.666-9.38379,0-13.80664-5.56055-4.42383-5.56055-4.42383-14.418,0-9.99609,4.88672-15.55664,4.88819-5.56055,13.48633-5.56055,7.314,0,11.96972,3.2793,4.65528,3.27978,5.51172,11.584Z"/><path d="M398.008,640.68619a15.79816,15.79816,0,0,1,6.71289,5.74707,19.09856,19.09856,0,0,1,3.0957,8.03125,49.69047,49.69047,0,0,1,.335,7.71094H379.85667q.23584,5.84472,4.0625,8.19727a10.31581,10.31581,0,0,0,5.60059,1.46093,7.88355,7.88355,0,0,0,7.73046-4.45508h10.3711a12.68448,12.68448,0,0,1-3.76563,7.02149q-5.2207,5.66748-14.61621,5.668a21.17647,21.17647,0,0,1-13.68359-4.78028q-5.92969-4.77978-5.92871-15.55371,0-10.09424,5.35156-15.48144,5.35107-5.38623,13.89258-5.38672A22.11482,22.11482,0,0,1,398.008,640.68619Zm-15.19629,8.77539a10.55568,10.55568,0,0,0-2.70606,6.0127h17.5a8.47411,8.47411,0,0,0-2.70605-6.13867,8.90271,8.90271,0,0,0-6.02442-2.09375A8.057,8.057,0,0,0,382.81175,649.46158Z"/><path d="M436.17015,639.47232a76.42042,76.42042,0,0,1,8.23339-14.11523h7.66309l-2.1748,3.99219a59.46876,59.46876,0,0,0-6.23731,17.251,68.21276,68.21276,0,0,0-1.13965,12.90137,60.94014,60.94014,0,0,0,3.17188,20.06641,91.50527,91.50527,0,0,0,6.55761,13.90039h-7.5205l-2.53028-3.457a46.33478,46.33478,0,0,1-5.23925-9.33789,53.18178,53.18178,0,0,1-4.95411-21.8125A48.37916,48.37916,0,0,1,436.17015,639.47232Z"/><path d="M493.54612,626.21256H509.342v52.53613H499.11253V643.21451q0-1.53222.03613-4.29492.03516-2.7627.03516-4.25977l-9.95508,44.08887H478.55882L468.675,634.65982q0,1.49708.03516,4.25977t.03613,4.29492v35.53418H458.51683V626.21256h15.97461l9.5625,41.30859Z"/><path d="M534.06663,655.11881a16.10968,16.10968,0,0,0,4.05762-.8916,3.05436,3.05436,0,0,0,2.18945-2.88672,3.41352,3.41352,0,0,0-1.67969-3.29688,10.61085,10.61085,0,0,0-4.93164-.90918q-3.64891,0-5.166,1.78223a7.34955,7.34955,0,0,0-1.44532,3.56445h-9.80175a14.8625,14.8625,0,0,1,2.86425-8.376q4.04444-5.13282,13.88868-5.13282a24.75867,24.75867,0,0,1,11.38281,2.53125q4.97607,2.53125,4.97558,9.55176v17.82129q0,1.853.07129,4.49024a5.64121,5.64121,0,0,0,.60547,2.709,3.64806,3.64806,0,0,0,1.49707,1.17578v1.49707H541.52561a11.35418,11.35418,0,0,1-.6416-2.21q-.17871-1.03272-.28515-2.35156a21.01083,21.01083,0,0,1-4.875,3.88476,14.73994,14.73994,0,0,1-7.457,1.88868,12.86418,12.86418,0,0,1-8.76465-3.01172q-3.46-3.01173-3.46-8.53614,0-7.16454,5.56543-10.37207a24.83091,24.83091,0,0,1,8.97656-2.49414Zm6.21094,4.74023a11.27113,11.27113,0,0,1-1.96875.98047,16.72028,16.72028,0,0,1-2.72754.69434l-2.3125.42773a15.21751,15.21751,0,0,0-4.66895,1.38965,4.64139,4.64139,0,0,0-2.39941,4.3125,4.50556,4.50556,0,0,0,1.46582,3.76074,5.56778,5.56778,0,0,0,3.56445,1.15821,10.61453,10.61453,0,0,0,6.13379-1.92481q2.80518-1.9248,2.91309-7.02148Z"/><path d="M569.64671,678.74869H559.48948V626.21256h10.15723Z"/><path d="M594.94261,655.11881a16.10958,16.10958,0,0,0,4.05761-.8916,3.05436,3.05436,0,0,0,2.18946-2.88672,3.41352,3.41352,0,0,0-1.67969-3.29688,10.61088,10.61088,0,0,0-4.93164-.90918q-3.64893,0-5.166,1.78223a7.34964,7.34964,0,0,0-1.44531,3.56445h-9.80176a14.86258,14.86258,0,0,1,2.86426-8.376q4.04444-5.13282,13.88867-5.13282a24.75872,24.75872,0,0,1,11.38282,2.53125q4.97607,2.53125,4.97558,9.55176v17.82129q0,1.853.07129,4.49024a5.64121,5.64121,0,0,0,.60547,2.709,3.64806,3.64806,0,0,0,1.49707,1.17578v1.49707H602.40159a11.35418,11.35418,0,0,1-.6416-2.21q-.17871-1.03272-.28516-2.35156a21.01041,21.01041,0,0,1-4.875,3.88476,14.73994,14.73994,0,0,1-7.457,1.88868,12.8642,12.8642,0,0,1-8.76465-3.01172q-3.46-3.01173-3.46-8.53614,0-7.16454,5.56543-10.37207a24.831,24.831,0,0,1,8.97657-2.49414Zm6.21093,4.74023a11.27113,11.27113,0,0,1-1.96875.98047,16.71985,16.71985,0,0,1-2.72753.69434l-2.3125.42773a15.21732,15.21732,0,0,0-4.66895,1.38965,4.64139,4.64139,0,0,0-2.39941,4.3125,4.50556,4.50556,0,0,0,1.46582,3.76074,5.56778,5.56778,0,0,0,3.56445,1.15821,10.61453,10.61453,0,0,0,6.13379-1.92481q2.80518-1.9248,2.91308-7.02148Z"/><path d="M621.68382,686.19791l1.2832.07129a16.03341,16.03341,0,0,0,2.85059-.10742,5.12283,5.12283,0,0,0,2.28125-.81934,5.48217,5.48217,0,0,0,1.65722-2.53027,6.12722,6.12722,0,0,0,.66016-2.35254l-14.27539-40.55957h11.29883l8.48242,28.65527,8.01953-28.65527h10.79981l-13.31934,38.207q-3.86133,11.04785-6.1084,13.7041-2.24853,2.65576-8.99219,2.65528-1.355,0-2.17578-.01758-.82177-.01758-2.46191-.125Z"/><path d="M668.62327,666.34537a6.76379,6.76379,0,0,0,1.39649,3.84961q1.89843,2.03028,7.01953,2.03125a10.75068,10.75068,0,0,0,4.78125-.89062,2.98553,2.98553,0,0,0,.34472-5.27539q-1.42968-.89062-10.62695-3.06446-6.62256-1.64062-9.33008-4.09961-2.71-2.42285-2.709-6.98535a12.10348,12.10348,0,0,1,4.23242-9.249q4.23193-3.86719,11.91211-3.86719,7.28613,0,11.876,2.9043,4.58935,2.90625,5.26855,10.0332h-10.1582a5.99608,5.99608,0,0,0-1.10742-3.10059q-1.68018-2.06689-5.71875-2.06738-3.32374,0-4.73536,1.03418a2.97106,2.97106,0,0,0-1.41113,2.42285,2.65105,2.65105,0,0,0,1.501,2.53125q1.5.82032,10.60547,2.81543,6.07031,1.4253,9.09961,4.3125a9.79057,9.79057,0,0,1,2.99414,7.30664,11.79592,11.79592,0,0,1-4.30371,9.42676q-4.30372,3.65332-13.30274,3.6543-9.17871,0-13.55273-3.86719a12.56634,12.56634,0,0,1-4.375-9.85547Z"/><path d="M711.78538,635.26627H701.4846v-9.374h10.30078Zm-10.30078,4.63379h10.30078v38.84863H701.4846Z"/><path d="M737.009,655.11881a16.10957,16.10957,0,0,0,4.05762-.8916,3.05436,3.05436,0,0,0,2.18945-2.88672,3.41353,3.41353,0,0,0-1.67968-3.29688,10.6109,10.6109,0,0,0-4.93164-.90918q-3.64893,0-5.166,1.78223a7.34945,7.34945,0,0,0-1.44531,3.56445h-9.80176a14.86243,14.86243,0,0,1,2.86426-8.376q4.04444-5.13282,13.88867-5.13282a24.75867,24.75867,0,0,1,11.38281,2.53125q4.97607,2.53125,4.97559,9.55176v17.82129q0,1.853.07129,4.49024a5.64121,5.64121,0,0,0,.60547,2.709,3.648,3.648,0,0,0,1.49707,1.17578v1.49707H744.468a11.35348,11.35348,0,0,1-.6416-2.21q-.17871-1.03272-.28516-2.35156a21.01083,21.01083,0,0,1-4.875,3.88476,14.73994,14.73994,0,0,1-7.457,1.88868,12.86418,12.86418,0,0,1-8.76465-3.01172q-3.46-3.01173-3.46-8.53614,0-7.16454,5.56543-10.37207a24.831,24.831,0,0,1,8.97656-2.49414ZM743.22,659.859a11.27113,11.27113,0,0,1-1.96875.98047,16.72028,16.72028,0,0,1-2.72754.69434l-2.3125.42773a15.21733,15.21733,0,0,0-4.66894,1.38965,4.6414,4.6414,0,0,0-2.39942,4.3125,4.50556,4.50556,0,0,0,1.46582,3.76074,5.56781,5.56781,0,0,0,3.56446,1.15821,10.6145,10.6145,0,0,0,6.13378-1.92481q2.80518-1.9248,2.91309-7.02148Z"/><path d="M774.27171,639.47232a48.45228,48.45228,0,0,1,4.16308,19.38868,53.26076,53.26076,0,0,1-4.94531,21.8125,46.42022,46.42022,0,0,1-5.23047,9.33789l-2.52636,3.457h-7.50684A91.75661,91.75661,0,0,0,764.76,679.568a61.17192,61.17192,0,0,0,3.16016-20.06641,68.46666,68.46666,0,0,0-1.13575-12.90137,59.58611,59.58611,0,0,0-6.21484-17.251l-2.166-3.99219H766.053A76.49972,76.49972,0,0,1,774.27171,639.47232Z"/><path class="cls-1" d="M-1.02167-2.155H899.1674v600.126H-1.02167Z"/><g id="a"><path class="cls-2" d="M-1.02167,555.10494H899.1674v42.86614H-1.02167Z"/></g><g id="a-2" data-name="a"><path class="cls-2" d="M-1.02167,469.37265H899.1674v42.86614H-1.02167Z"/></g><g id="a-3" data-name="a"><path class="cls-2" d="M-1.02167,383.64035H899.1674V426.5065H-1.02167Z"/></g><g id="a-4" data-name="a"><path class="cls-2" d="M-1.02167,297.90806H899.1674v42.86615H-1.02167Z"/></g><g id="a-5" data-name="a"><path class="cls-2" d="M-1.02167,212.17577H899.1674v42.86615H-1.02167Z"/></g><g id="a-6" data-name="a"><path class="cls-2" d="M-1.02167,126.44348H899.1674v42.86615H-1.02167Z"/></g><g id="a-7" data-name="a"><path class="cls-2" d="M-1.02167,40.71119H899.1674V83.57733H-1.02167Z"/></g><path class="cls-3" d="M-1.02167-2.155H449.07287V340.77421H-1.02167Z"/><path class="cls-4" d="M170.87158,40.71119c-71.2221,0-129.0271,57.61209-129.0271,128.59844s57.805,128.59843,129.0271,128.59843a128.67185,128.67185,0,0,0,69.84181-20.48145,114.45547,114.45547,0,0,1-37.40928,6.25844c-63.15469,0-114.40974-51.08358-114.40974-114.02395,0-62.94893,51.25505-114.03251,114.40974-114.03251a114.22284,114.22284,0,0,1,39.69405,7.06A128.662,128.662,0,0,0,170.87158,40.71119Z"/><path class="cls-4" d="M384.84651,236.25368l-54.35427-28.356,16.07481,58.04076-36.35049-48.5502L298.86988,276.475,287.7161,217.354l-36.50482,48.43874,16.25483-57.98932-54.44,28.19306L253.466,190.63124,191.876,192.98888l56.61762-23.75641-56.54043-23.92789,61.58149,2.54625-40.29418-45.481,54.34572,28.35166L251.51137,72.68075l36.35907,48.5502,11.34239-59.08669,11.15378,59.121L346.87143,72.8265,330.6166,130.81582l54.44-28.19306L344.61667,147.988l61.59008-2.35764-56.61762,23.75641,56.54043,23.92789-61.58149-2.54625Z"/></svg>