<svg xmlns="http://www.w3.org/2000/svg" role="img" viewBox="8.33 3.83 178.60 282.10"><defs><style>.cls-1{fill:#005c9d;fill-rule:evenodd}</style></defs><path d="M95.73428,25.69312a37.64673,37.64673,0,0,0-17.59311,4.67052A35.972,35.972,0,0,0,66.85028,40.40535,44.57485,44.57485,0,0,0,60.28089,53.382a46.447,46.447,0,0,0-1.42933,5.4099c-.09659.49484-.14067,1.00157-.26524,1.48836a9.30644,9.30644,0,0,1-4.784,6.22863A7.326,7.326,0,0,1,43.23743,62.155a8.72763,8.72763,0,0,1-.14566-5.07567c.62517-2.33851,1.24151-4.68163,1.96365-6.99064a66.92187,66.92187,0,0,1,7.98339-17.007A53.44279,53.44279,0,0,1,66.89781,18.622a49.35372,49.35372,0,0,1,17.9584-7.89868,55.75268,55.75268,0,0,1,5.51493-.92567c1.882-.22193,3.76976-.322,5.661-.394.17556-.00728.35149-.00115.50327-.00115.34842-.00115.71946-.0023,1.27524.00652a17.32282,17.32282,0,0,1,1.82834.04024c.30128.0253.60332.056.90574.06478a46.01769,46.01769,0,0,1,4.66784.44194,50.87388,50.87388,0,0,1,8.33411,1.83755A49.50151,49.50151,0,0,1,134.02526,24.1396a58.16552,58.16552,0,0,1,10.80792,14.984,74.77939,74.77939,0,0,1,6.19721,17.26348q.91416,3.947,1.46152,7.96077c.21579,1.57384.35647,3.1584.51515,4.73952.27559,2.73983.39135,5.48924.41128,8.241.0161,2.22123-.03986,4.44245-.05788,6.66368-.01916,2.222-.02491,4.44437-.05289,6.6656a1.37966,1.37966,0,0,0,.43581,1.06979,77.83746,77.83746,0,0,1,5.9634,6.75184,79.80745,79.80745,0,0,1,14.35614,28.467,78.79858,78.79858,0,0,1,1.923,9.09956c.30817,2.04606.54429,4.10132.67576,6.16845.14911,2.34388.29476,4.68739.22385,7.03586-.06669,2.21932-.16289,4.43709-.37831,6.65066a80.81987,80.81987,0,0,1-1.96787,11.55153,78.70288,78.70288,0,0,1-8.45293,20.90712,80.05125,80.05125,0,0,1-26.636,27.664,78.99131,78.99131,0,0,1-23.85242,10.11723q-3.23639.7854-6.523,1.30169c-1.36877.21656-2.75095.3534-4.12814.51323a75.70231,75.70231,0,0,1-10.65959.41664c-1.3611-.03373-2.72144-.1403-4.07947-.24492-1.23193-.09428-2.46309-.20966-3.68966-.35417-1.1016-.12994-2.20091-.28556-3.29332-.47529a83.46344,83.46344,0,0,1-8.47861-1.91115,80.473,80.473,0,0,1-51.14381-43.8289,78.75922,78.75922,0,0,1-5.55671-16.85334q-.73076-3.48306-1.156-7.01556c-.1629-1.3519-.24876-2.71339-.35992-4.07142a77.61356,77.61356,0,0,1-.10618-9.30922c.064-1.66238.22347-3.32359.40324-4.97831.17977-1.65433.39288-3.30789.67192-4.948a77.01167,77.01167,0,0,1,2.73677-11.082,80.53257,80.53257,0,0,1,52.0277-51.70227A76.10769,76.10769,0,0,1,82.684,69.04822c1.81454-.31047,3.63177-.59795,5.4674-.75318,1.23116-.10387,2.46386-.19472,3.695-.29974a73.19619,73.19619,0,0,1,7.64531-.10656c1.25953.02415,2.5179.14029,3.77552.24263,1.18172.09582,2.36305.20008,3.53824.35187,1.39943.1813,2.79848.38215,4.18641.63551a80.04494,80.04494,0,0,1,24.14181,8.54569,1.36673,1.36673,0,0,0,.79726.30549,3.13911,3.13911,0,0,0,.08663-.50328c.01074-2.4995.059-4.99977.00729-7.49774a57.77561,57.77561,0,0,0-.55579-6.78787,52.18346,52.18346,0,0,0-5.47123-17.53486,38.44128,38.44128,0,0,0-9.60819-11.8735A35.03351,35.03351,0,0,0,105.97,26.72454a42.32925,42.32925,0,0,0-5.29683-.85552c-.95327-.09736-1.9142-.12227-2.87208-.1698m62.051,123.117A63.59,63.59,0,1,0,51.30093,193.69878c12.3672,12.22691,27.33432,18.38157,44.72276,18.64834A63.61587,63.61587,0,0,0,159.85206,148.81619Z" class="cls-1"/><path fill="#fff" fill-rule="evenodd" d="M159.85206,148.81619A63.61569,63.61569,0,0,1,96.0233,212.34712c-17.38843-.26677-32.35555-6.42143-44.72275-18.64835a63.57985,63.57985,0,1,1,108.55151-44.88258Zm-50.17789,13.28406a2.351,2.351,0,0,1,.9272-.07743q9.24-.004,18.48123.00231a16.64107,16.64107,0,0,0,3.309-.30166,13.3086,13.3086,0,0,0,7.22752-3.85332,10.00646,10.00646,0,0,0,2.8897-7.10985c.00153-1.212.0115-2.42438-.00345-3.63523a9.72276,9.72276,0,0,0-.83866-3.89356,11.27984,11.27984,0,0,0-4.40489-4.97026,14.28382,14.28382,0,0,0-7.75379-2.20935c-5.04922-.01534-10.09844-.0046-15.148-.005q-2.0083,0-4.01546-.00192c-.22041-.00077-.43965-.028-.63973-.04179a2.19506,2.19506,0,0,1-.13263-1.09432q-.00632-9.278-.00192-18.55674a15.52542,15.52542,0,0,0-.3787-3.60455,13.41352,13.41352,0,0,0-3.05184-6.01131,10.03181,10.03181,0,0,0-7.93854-3.58961c-1.13534.02376-2.27221,0-3.40831.00651a9.19009,9.19009,0,0,0-6.0527,2.03341,12.49948,12.49948,0,0,0-4.00511,5.31907,14.89655,14.89655,0,0,0-1.09623,5.76025q.02013,9.24061.0046,18.48084c0,.27828.00919.55694-.01112.83291a2.40315,2.40315,0,0,1-.13109.4546c-.34957.005-.67537.01265-1.00079.01265q-9.35447.00115-18.70852-.00078a14.89486,14.89486,0,0,0-4.75983.76162,12.67472,12.67472,0,0,0-6.20219,4.27419,9.31448,9.31448,0,0,0-2.07711,5.57855c-.03449,1.64014-.02529,3.28182.00958,4.922A8.76472,8.76472,0,0,0,51.96863,155.68a11.27233,11.27233,0,0,0,3.38647,3.72185,14.148,14.148,0,0,0,8.31226,2.61027c6.23591.02837,12.47222.008,18.70813.00844.2526,0,.50558-.0069.7574.00651a3.22437,3.22437,0,0,1,.42394.0759,2.85853,2.85853,0,0,1,.08508,1.01382q.004,9.31593-.0023,18.63263a15.29627,15.29627,0,0,0,.48143,3.96945,13.14325,13.14325,0,0,0,3.55319,6.23515,9.88865,9.88865,0,0,0,7.22216,2.96368c1.2369-.01533,2.4742-.00038,3.71112-.005a7.9334,7.9334,0,0,0,.98355-.03986,10.11406,10.11406,0,0,0,5.43827-2.44814,12.8209,12.8209,0,0,0,3.5712-5.18414,15.0496,15.0496,0,0,0,.97052-5.482q-.00919-9.20323-.00153-18.40572c0-.27789-.00613-.55579.01111-.8333A2.704,2.704,0,0,1,109.67417,162.10025Z"/><path fill="#26b2fc" fill-rule="evenodd" d="M109.67417,162.10025a2.5733,2.5733,0,0,0-.09276.41971c-.01726.27751-.01112.55541-.01112.8333q0,9.20268.00154,18.40572a15.04961,15.04961,0,0,1-.97053,5.482,12.82462,12.82462,0,0,1-3.5712,5.18414,10.11807,10.11807,0,0,1-5.43827,2.44814,7.8631,7.8631,0,0,1-.98355.03986c-1.23691.0046-2.4742-.01035-3.71112.005A9.88869,9.88869,0,0,1,87.675,191.9544a13.14128,13.14128,0,0,1-3.55319-6.23516,15.3012,15.3012,0,0,1-.48143-3.96945q.015-9.31651.00231-18.63263a2.85923,2.85923,0,0,0-.08509-1.01382,3.16087,3.16087,0,0,0-.42393-.0759c-.25183-.013-.50481-.00651-.7574-.00651-6.23631-.00039-12.47223.01993-18.70814-.00844a14.14174,14.14174,0,0,1-8.31226-2.61027,11.27233,11.27233,0,0,1-3.38647-3.72185,8.7647,8.7647,0,0,1-1.20624-4.09748c-.03489-1.64014-.04409-3.28183-.00958-4.922a9.31535,9.31535,0,0,1,2.0771-5.57855,12.67224,12.67224,0,0,1,6.20219-4.27419,14.88433,14.88433,0,0,1,4.75983-.76162q9.35445.00461,18.70852.00078c.32542,0,.65123-.008,1.00079-.01265a2.42445,2.42445,0,0,0,.1311-.45459c.02031-.276.01111-.55464.01111-.83292q.00057-9.2406-.0046-18.48084a14.91134,14.91134,0,0,1,1.09623-5.76025A12.49965,12.49965,0,0,1,88.741,105.187a9.19005,9.19005,0,0,1,6.05269-2.03341c1.1361-.00651,2.273.01725,3.40831-.00651a10.03179,10.03179,0,0,1,7.93854,3.58961,13.41342,13.41342,0,0,1,3.05184,6.01131,15.52487,15.52487,0,0,1,.3787,3.60455q-.00345,9.27857.00192,18.55674a2.19465,2.19465,0,0,0,.13263,1.09433c.1997.0138.41933.041.63973.04178q2.00773.00517,4.01546.00192c5.04961.00038,10.09882-.01036,15.148.005a14.27538,14.27538,0,0,1,7.75379,2.20935,11.27544,11.27544,0,0,1,4.40489,4.97026,9.72894,9.72894,0,0,1,.83866,3.89357c.01495,1.21084.005,2.42322.00345,3.63522a10.00646,10.00646,0,0,1-2.8897,7.10985,13.30868,13.30868,0,0,1-7.22752,3.85333,16.64025,16.64025,0,0,1-3.309.30165q-9.24119-.01323-18.48122-.00231A2.3455,2.3455,0,0,0,109.67417,162.10025Z"/><path d="M96.205,25.70194c-.95787.04753-1.91881.07244-2.87208.1698a42.3177,42.3177,0,0,0-5.29683.85553A35.03343,35.03343,0,0,0,73.6163,33.7754a38.43148,38.43148,0,0,0-9.6082,11.87351,52.1749,52.1749,0,0,0-5.47123,17.53485,57.78461,57.78461,0,0,0-.55579,6.78787c-.05213,2.498-.00383,4.99824.00728,7.49775a3.09711,3.09711,0,0,0,.08663.50327,1.36679,1.36679,0,0,0,.79726-.30548,80.04494,80.04494,0,0,1,24.14181-8.54569c1.38793-.25336,2.787-.45421,4.18642-.63552,1.1752-.15178,2.35653-.25566,3.53824-.35187,1.25722-.10234,2.5156-.21848,3.77551-.24262a73.302,73.302,0,0,1,7.64532.10655c1.23117.10464,2.46386.19587,3.695.29974,1.83562.15524,3.65247.44272,5.4674.75319a76.12647,76.12647,0,0,1,10.42117,2.54933,80.53432,80.53432,0,0,1,52.02809,51.70227,77.06139,77.06139,0,0,1,2.73638,11.082c.27943,1.64014.49255,3.2937.67231,4.948.17977,1.6547.33923,3.31593.40362,4.97831a77.77191,77.77191,0,0,1-.10618,9.30922c-.11116,1.358-.197,2.71951-.35991,4.07142q-.42663,3.53193-1.156,7.01555a78.75764,78.75764,0,0,1-5.55671,16.85335,80.47065,80.47065,0,0,1-51.1438,43.82889,83.47148,83.47148,0,0,1-8.47861,1.91114c-1.09241.18973-2.1921.34536-3.29333.47529-1.22694.14451-2.45771.25987-3.69.35418-1.358.10424-2.71837.2112-4.07947.24492a75.70611,75.70611,0,0,1-10.65959-.41664c-1.37719-.15984-2.759-.2963-4.12814-.51324q-3.28584-.518-6.523-1.30168A78.99032,78.99032,0,0,1,54.5563,216.02605a80.048,80.048,0,0,1-26.63595-27.664A78.70328,78.70328,0,0,1,19.46742,167.455a80.92813,80.92813,0,0,1-1.96786-11.55153c-.2158-2.21318-.31163-4.43134-.37832-6.65066-.07091-2.34886.07474-4.692.22385-7.03586.13147-2.06714.36758-4.1224.67575-6.16845a78.79979,78.79979,0,0,1,1.923-9.09956A79.81686,79.81686,0,0,1,34.3,98.48192a77.76894,77.76894,0,0,1,5.96339-6.75184,1.381,1.381,0,0,0,.43581-1.0698c-.0276-2.22122-.03373-4.4436-.0529-6.6656-.0184-2.22122-.074-4.44245-.05788-6.66368.01994-2.75132.13569-5.50113.41128-8.241.15869-1.58111.299-3.16568.51516-4.73951q.552-4.01144,1.46153-7.96077a74.7792,74.7792,0,0,1,6.1972-17.26348,58.16522,58.16522,0,0,1,10.80793-14.984A49.499,49.499,0,0,1,80.46014,11.79617a50.87386,50.87386,0,0,1,8.33411-1.83754,46.01457,46.01457,0,0,1,4.66784-.442c.30242-.00881.60446-.03986.90574-.06477a17.32021,17.32021,0,0,1,1.82834-.04025c.5554-.00843.92682-.00767,1.27485-.00652.15179,0,.32773-.00613.50366.00115,1.8912.07206,3.77819.17211,5.66058.394a55.7382,55.7382,0,0,1,5.51532.92567,49.35677,49.35677,0,0,1,17.9584,7.89867,53.43175,53.43175,0,0,1,13.859,14.45964,66.90683,66.90683,0,0,1,7.983,17.00705c.72252,2.309,1.33848,4.65211,1.96364,6.99064a8.72462,8.72462,0,0,1-.14527,5.07567,7.326,7.326,0,0,1-10.56492,4.35391,9.30562,9.30562,0,0,1-4.784-6.22864c-.12458-.48679-.16827-.9939-.26487-1.48836a46.58294,46.58294,0,0,0-1.42971-5.4099,44.55587,44.55587,0,0,0-6.5694-12.97664,35.97193,35.97193,0,0,0-11.29088-10.04171,37.651,37.651,0,0,0-17.59274-4.67052m-.29129,186.65477c17.388-.26677,32.35518-6.42143,44.72276-18.64835a63.57079,63.57079,0,1,0-44.72276,18.64835Z" class="cls-1"/><path fill="#005c9d" stroke="#005c9d" stroke-miterlimit="10" stroke-width=".25" d="M13.90726 279.88948v-25.439H16.5181l8.76563 20.58984h.11181l8.72852-20.58984h2.62939v25.439H34.273V260.43734H34.1055L26.55179 277.931H24.10892L16.5181 260.43734h-.13037v19.45214zM46.77835 279.15267a7.00456 7.00456 0 0 1-2.78857-2.97461 9.89558 9.89558 0 0 1-.96973-4.51319v-3.02148a9.64335 9.64335 0 0 1 1.0166-4.56934 7.40632 7.40632 0 0 1 2.78809-2.97461 8.47581 8.47581 0 0 1 8.169-.00927 7.3259 7.3259 0 0 1 2.78808 2.97461 9.69819 9.69819 0 0 1 1.0166 4.57861v2.18213H45.72464v1.02588a6.555 6.555 0 0 0 1.37989 4.26123 4.87626 4.87626 0 0 0 4.02832 1.70654 6.057 6.057 0 0 0 2.24755-.38232 4.31045 4.31045 0 0 0 1.5293-.96973 2.98328 2.98328 0 0 0 .75537-1.22168h2.85352a4.34392 4.34392 0 0 1-.59668 1.61328 6.11173 6.11173 0 0 1-1.41748 1.62256 7.53312 7.53312 0 0 1-2.24756 1.24023 9.07473 9.07473 0 0 1-3.105.48487A8.57844 8.57844 0 0 1 46.77835 279.15267zm9.29688-10.416v-.33594a7.32061 7.32061 0 0 0-.63379-3.15185 4.75391 4.75391 0 0 0-1.80908-2.06983 5.4775 5.4775 0 0 0-5.45557 0 4.83536 4.83536 0 0 0-1.80908 2.06983 7.22786 7.22786 0 0 0-.64307 3.15185v.33594zM73.91458 260.48372a6.00991 6.00991 0 0 1 1.97657 1.18457 4.51638 4.51638 0 0 1 1.18457 1.71582h.13037V253.08919h2.70459v26.80029H77.337v-3.22656h-.13086a3.84862 3.84862 0 0 1-.71778 1.32422 5.14268 5.14268 0 0 1-1.31494 1.12842 7.25031 7.25031 0 0 1-1.7998.7832 8.37069 8.37069 0 0 1-6.12647-.69922 6.71083 6.71083 0 0 1-2.62988-2.80713 9.17093 9.17093 0 0 1-.93262-4.24267V268.14a9.00057 9.00057 0 0 1 .96973-4.30859 6.93692 6.93692 0 0 1 2.686-2.79737 7.77847 7.77847 0 0 1 3.95361-.98828A7.40856 7.40856 0 0 1 73.91458 260.48372zm-5.064 2.70459a4.98126 4.98126 0 0 0-1.82764 2.17236 8.16773 8.16773 0 0 0-.65283 3.43213v2.64795a8.18012 8.18012 0 0 0 .65283 3.42237 4.90423 4.90423 0 0 0 1.856 2.18213 5.23784 5.23784 0 0 0 2.84424.75537 5.38983 5.38983 0 0 0 2.91846-.76465 5.106 5.106 0 0 0 1.89306-2.13526 7.1 7.1 0 0 0 .67139-3.16162V268.14a5.90829 5.90829 0 0 0-.71778-2.92822 5.37445 5.37445 0 0 0-1.96777-2.03272 5.52892 5.52892 0 0 0-2.89062-.74609A5.02467 5.02467 0 0 0 68.85062 263.18831zM88.80667 269.18441a12.02861 12.02861 0 0 0 .82959 4.69043 6.56307 6.56307 0 0 0 2.42481 3.02148A6.9693 6.9693 0 0 0 95.98685 277.95a7.49553 7.49553 0 0 0 3.14258-.625 5.79767 5.79767 0 0 0 2.21924-1.71582 4.95339 4.95339 0 0 0 1.0166-2.5083h2.7041v.01855a7.18958 7.18958 0 0 1-1.37988 3.73 8.39963 8.39963 0 0 1-3.208 2.62061 11.36281 11.36281 0 0 1-9.93115-.38232 8.40216 8.40216 0 0 1-3.33838-3.86084 14.70164 14.70164 0 0 1-1.12842-6.04248v-3.898a14.66854 14.66854 0 0 1 1.15625-6.0708 8.67741 8.67741 0 0 1 3.376-3.93506 9.98773 9.98773 0 0 1 5.35254-1.3711 10.27739 10.27739 0 0 1 3.50634.57813 8.80263 8.80263 0 0 1 2.81592 1.63183 8.08624 8.08624 0 0 1 1.9209 2.44336 7.99262 7.99262 0 0 1 .83935 3.03077h-2.72265a5.60973 5.60973 0 0 0-1.00733-2.63917 5.8962 5.8962 0 0 0-2.21923-1.874 6.91467 6.91467 0 0 0-3.1333-.69043 6.69193 6.69193 0 0 0-3.8794 1.10059 6.88093 6.88093 0 0 0-2.44336 3.08642 12.05908 12.05908 0 0 0-.83887 4.70948zM111.14945 260.36263h2.686v3.1333h.13037a6.3 6.3 0 0 1 .86719-1.47363 4.85767 4.85767 0 0 1 1.74365-1.37061 6.504 6.504 0 0 1 2.90967-.56885q.31714 0 .62451.01856.30835.019.58789.05615v2.499q-.22411-.0183-.64355-.04638-.41969-.02857-.88574-.02832a5.98925 5.98925 0 0 0-2.90967.65283 4.4199 4.4199 0 0 0-1.80908 1.78125 5.309 5.309 0 0 0-.61524 2.583v12.29052h-2.686zM128.11234 279.15267a7.00464 7.00464 0 0 1-2.78858-2.97461 9.89558 9.89558 0 0 1-.96972-4.51319v-3.02148a9.64323 9.64323 0 0 1 1.0166-4.56934 7.40625 7.40625 0 0 1 2.78809-2.97461 8.47579 8.47579 0 0 1 8.16894-.00927 7.326 7.326 0 0 1 2.78809 2.97461 9.69831 9.69831 0 0 1 1.0166 4.57861v2.18213H127.05863v1.02588a6.555 6.555 0 0 0 1.37988 4.26123 4.87627 4.87627 0 0 0 4.02832 1.70654 6.05709 6.05709 0 0 0 2.24756-.38232 4.31054 4.31054 0 0 0 1.5293-.96973 2.98339 2.98339 0 0 0 .75537-1.22168h2.85351a4.34392 4.34392 0 0 1-.59668 1.61328 6.11138 6.11138 0 0 1-1.41748 1.62256 7.53287 7.53287 0 0 1-2.24756 1.24023 9.07469 9.07469 0 0 1-3.105.48487A8.57838 8.57838 0 0 1 128.11234 279.15267zm9.29687-10.416v-.33594a7.32046 7.32046 0 0 0-.63379-3.15185 4.75385 4.75385 0 0 0-1.80908-2.06983 5.47748 5.47748 0 0 0-5.45556 0 4.83532 4.83532 0 0 0-1.80909 2.06983 7.22786 7.22786 0 0 0-.64306 3.15185v.33594zM155.24857 260.48372a6.01 6.01 0 0 1 1.97656 1.18457 4.51615 4.51615 0 0 1 1.18457 1.71582h.13037V253.08919h2.70459v26.80029h-2.57373v-3.22656h-.13086a3.84859 3.84859 0 0 1-.71777 1.32422 5.14285 5.14285 0 0 1-1.31494 1.12842 7.25054 7.25054 0 0 1-1.79981.7832 8.37066 8.37066 0 0 1-6.12646-.69922 6.71077 6.71077 0 0 1-2.62988-2.80713 9.17093 9.17093 0 0 1-.93262-4.24267V268.14a9.00057 9.00057 0 0 1 .96972-4.30859 6.93705 6.93705 0 0 1 2.686-2.79737 7.7785 7.7785 0 0 1 3.95361-.98828A7.40861 7.40861 0 0 1 155.24857 260.48372zm-5.064 2.70459a4.98124 4.98124 0 0 0-1.82763 2.17236 8.16773 8.16773 0 0 0-.65283 3.43213v2.64795a8.18012 8.18012 0 0 0 .65283 3.42237 4.90427 4.90427 0 0 0 1.856 2.18213 5.23784 5.23784 0 0 0 2.84424.75537 5.38981 5.38981 0 0 0 2.91846-.76465 5.10607 5.10607 0 0 0 1.89307-2.13526 7.10012 7.10012 0 0 0 .67138-3.16162V268.14a5.90839 5.90839 0 0 0-.71777-2.92822 5.37452 5.37452 0 0 0-1.96777-2.03272 5.529 5.529 0 0 0-2.89063-.74609A5.02472 5.02472 0 0 0 150.1846 263.18831zM168.25687 262.54476a5.88588 5.88588 0 0 1 2.583-1.88379 9.47663 9.47663 0 0 1 3.44092-.61524 8.52972 8.52972 0 0 1 3.665.71778 5.63064 5.63064 0 0 1 2.33106 1.9209 4.74222 4.74222 0 0 1 .81152 2.71386h-2.53662a3.01222 3.01222 0 0 0-.53174-1.42676 3.52035 3.52035 0 0 0-1.41748-1.18457 5.44989 5.44989 0 0 0-2.415-.46582 5.35092 5.35092 0 0 0-3.04931.82032 2.69684 2.69684 0 0 0-1.22168 2.3872 2.43679 2.43679 0 0 0 .41992 1.48291 2.95347 2.95347 0 0 0 1.10937.9043 7.15391 7.15391 0 0 0 1.54834.53174q.85694.19556 1.77149.38232a22.91827 22.91827 0 0 1 3.38525.86719 5.78067 5.78067 0 0 1 2.48047 1.58545 4.28551 4.28551 0 0 1 .9419 2.95605 5.32728 5.32728 0 0 1-.9795 3.27295 6.12058 6.12058 0 0 1-2.67627 2.00489 10.28565 10.28565 0 0 1-3.89795.68994 9.94477 9.94477 0 0 1-3.76708-.65283 5.66389 5.66389 0 0 1-2.48975-1.8462 4.62226 4.62226 0 0 1-.88623-2.835h2.62988a3.6231 3.6231 0 0 0 .62451 1.59473 3.19547 3.19547 0 0 0 1.47364 1.09131 6.8358 6.8358 0 0 0 2.5083.3916 7.07587 7.07587 0 0 0 2.69531-.43848 3.43636 3.43636 0 0 0 1.57568-1.20312 3.001 3.001 0 0 0 .52246-1.73438 2.33451 2.33451 0 0 0-.69043-1.80908 4.56573 4.56573 0 0 0-1.81836-.96972q-1.12866-.33546-2.52685-.61524a30.04968 30.04968 0 0 1-3.34766-.93262 5.3973 5.3973 0 0 1-2.37793-1.53857 4.278 4.278 0 0 1-.87695-2.88184A5.1836 5.1836 0 0 1 168.25687 262.54476z"/></svg>