<svg id="Layer_1" data-name="Layer 1" xmlns="http://www.w3.org/2000/svg" viewBox="0 0 627.64001 209.46343"><defs><style>.cls-1{fill:#737373;}.cls-2{fill:#f25022;}.cls-3{fill:#7fba00;}.cls-4{fill:#00a4ef;}.cls-5{fill:#ffb900;}</style></defs><path class="cls-1" d="M227.17032,82.37l-3.6,10.2h-.3a72.41519,72.41519,0,0,0-3.5-10l-19.3-48.5h-18.9v77.3h12.5V63.67c0-3,0-6.4-.1-10.6-.1-2.1-.3-3.7-.4-4.9h.3a46.71384,46.71384,0,0,0,1.8,6.6l23.2,56.4h8.8l23-56.9a60.5789,60.5789,0,0,0,1.5-6.1h.3c-.3,5.7-.5,10.8-.6,13.9v49h13.3V33.87h-18.2Zm50.6-26.7h13v55.4h-13Zm6.6-23.4a7.78917,7.78917,0,0,0-5.5,2.2,7.37192,7.37192,0,0,0,0,10.7,7.70674,7.70674,0,0,0,5.5,2.1,7.97485,7.97485,0,0,0,5.5-2.1,7.03438,7.03438,0,0,0,2.3-5.3,7.41244,7.41244,0,0,0-2.3-5.4,7.295,7.295,0,0,0-5.5-2.2m52.5,22.9a36.26047,36.26047,0,0,0-7.3-.8,31.37289,31.37289,0,0,0-15.8,3.9,26.11775,26.11775,0,0,0-10.4,10.7,34.00994,34.00994,0,0,0-3.6,16,29.67886,29.67886,0,0,0,3.5,14.3,23.96963,23.96963,0,0,0,9.8,9.9,28.849,28.849,0,0,0,14.3,3.5,31.42946,31.42946,0,0,0,15.7-3.7l.1-.1v-12l-.5.4a22.34686,22.34686,0,0,1-6.3,3.3,19.27252,19.27252,0,0,1-6.2,1.2c-5.2,0-9.3-1.5-12.2-4.8-3-3.2-4.5-7.6-4.5-13.1,0-5.7,1.5-10.2,4.6-13.5a16.05009,16.05009,0,0,1,12.2-5,21.27978,21.27978,0,0,1,12.4,4.2l.5.4V57.27l-.1-.1a30.15079,30.15079,0,0,0-6.2-2m42.9-.4a13.71731,13.71731,0,0,0-8.8,3.1c-2.2,1.8-3.7,4.4-5,7.5h-.1v-9.7h-13v55.4h13V82.77c0-4.8,1-8.8,3.2-11.7a10.02214,10.02214,0,0,1,8.4-4.5,32.07049,32.07049,0,0,1,3.9.5,10.25927,10.25927,0,0,1,3.1,1.3l.5.4v-13l-.3-.1a9.8818,9.8818,0,0,0-4.9-.9m35.4-.3c-9.1,0-16.4,2.7-21.5,8-5.2,5.3-7.7,12.6-7.7,21.8,0,8.6,2.6,15.6,7.6,20.7,5,5,11.8,7.6,20.3,7.6,8.9,0,16-2.7,21.1-8.1,5.2-5.4,7.7-12.6,7.7-21.5,0-8.8-2.4-15.8-7.3-20.9-4.7-5.1-11.6-7.6-20.2-7.6m10.4,42.6c-2.4,3.1-6.2,4.6-10.9,4.6s-8.5-1.5-11.2-4.8c-2.7-3.1-4-7.6-4-13.3,0-5.9,1.4-10.4,4-13.6q4.05-4.8,11.1-4.8c4.6,0,8.2,1.5,10.8,4.6s4,7.6,4,13.5c-.2,6-1.3,10.7-3.8,13.8m46.1-18.4c-4.1-1.7-6.7-3-7.9-4.1a5.67792,5.67792,0,0,1-1.5-4.2,4.64548,4.64548,0,0,1,2.1-4,9.63447,9.63447,0,0,1,5.7-1.5,25.88573,25.88573,0,0,1,6.7,1,17.2442,17.2442,0,0,1,5.8,2.7l.5.4V56.77l-.3-.1a36.08279,36.08279,0,0,0-5.9-1.7,40.08761,40.08761,0,0,0-6.4-.6c-6.2,0-11.3,1.5-15.3,4.8a14.78309,14.78309,0,0,0-5.9,12.2,15.876,15.876,0,0,0,1.3,6.8,15.15678,15.15678,0,0,0,4,5.2,34.84816,34.84816,0,0,0,8,4.5c3,1.3,5.3,2.3,6.7,3.1a13.573,13.573,0,0,1,3,2.4,5.68564,5.68564,0,0,1,.8,3.1c0,3.7-2.8,5.5-8.5,5.5a22.44346,22.44346,0,0,1-7.2-1.3,27.82017,27.82017,0,0,1-7.3-3.7l-.5-.4v12.7l.3.1a38.78723,38.78723,0,0,0,7,2.2,44.64882,44.64882,0,0,0,7.5.9c6.7,0,12.2-1.5,16.1-4.8a15.31278,15.31278,0,0,0,6.1-12.6,14.0219,14.0219,0,0,0-3.2-9.5,40.54727,40.54727,0,0,0-11.7-6.9m49.2-24.2c-9.1,0-16.4,2.7-21.5,8s-7.7,12.6-7.7,21.8c0,8.6,2.6,15.6,7.6,20.7,5,5,11.8,7.6,20.3,7.6,8.9,0,16-2.7,21.1-8.1,5.2-5.4,7.7-12.6,7.7-21.5,0-8.8-2.4-15.8-7.3-20.9-4.7-5.1-11.6-7.6-20.2-7.6m10.3,42.6c-2.4,3.1-6.2,4.6-10.9,4.6-4.8,0-8.5-1.5-11.2-4.8-2.7-3.1-4-7.6-4-13.3,0-5.9,1.4-10.4,4-13.6q4.05-4.8,11.1-4.8c4.5,0,8.2,1.5,10.8,4.6s4,7.6,4,13.5c0,6-1.3,10.7-3.8,13.8m86.7-30.7V55.67h-13.1V39.27l-.4.1-12.4,3.7-.3.1v12.5h-19.6v-7c0-3.2.8-5.7,2.2-7.3a7.76486,7.76486,0,0,1,6.1-2.4,14.59076,14.59076,0,0,1,5.8,1.3l.5.3V29.27l-.3-.1a25.0059,25.0059,0,0,0-17.7,1.4,17.34494,17.34494,0,0,0-7.1,7.1,20.46128,20.46128,0,0,0-2.6,10.3v7.7h-9.1v10.6h9.1v44.8h13.1V66.37h19.6v28.5c0,11.7,5.5,17.6,16.5,17.6a34.26927,34.26927,0,0,0,5.5-.6,17.99407,17.99407,0,0,0,4.1-1.3l.1-.1V99.77l-.5.4a8.45083,8.45083,0,0,1-2.7,1.2,9.15437,9.15437,0,0,1-2.6.4c-2.6,0-4.4-.6-5.7-2.1-1.2-1.4-1.8-3.7-1.8-7.1V66.37h13.30005Z"/><path class="cls-2" d="M13.97033,8.07h61.3v61.3h-61.3Z"/><path class="cls-3" d="M81.67032,8.07h61.3v61.3h-61.3Z"/><path class="cls-4" d="M13.97033,75.77h61.3v61.3h-61.3Z"/><path class="cls-5" d="M81.67032,75.77h61.3v61.3h-61.3Z"/><path d="M169.158,159.51325a12.21851,12.21851,0,0,1,6.30443,4.69323,16.44989,16.44989,0,0,1,2.63747,5.97283,28.66575,28.66575,0,0,1,.70354,6.1237,24.571,24.571,0,0,1-2.96422,12.49833q-4.01793,6.90187-12.40716,6.90147H147.48218V158.71047h15.94987A19.4315,19.4315,0,0,1,169.158,159.51325Zm-14.17165,5.62106v24.14385H162.125q5.47987,0,7.64132-5.396a19.00838,19.00838,0,0,0,1.182-7.05234q0-5.64688-1.77257-8.67081-1.77175-3.02433-7.05073-3.02474Z"/><path d="M185.10221,200.94789l.90363.05083a11.36717,11.36717,0,0,0,2.00816-.07584,3.60442,3.60442,0,0,0,1.60636-.57768,3.85767,3.85767,0,0,0,1.16665-1.78144,4.29834,4.29834,0,0,0,.46473-1.65638L181.19966,168.347h7.956l5.97283,20.17837,5.64688-20.17837h7.605l-9.37919,26.904q-2.71815,7.77929-4.30112,9.64948-1.583,1.86978-6.33105,1.87019-.95487,0-1.53295-.01291-.57847-.0121-1.73384-.08714Z"/><path d="M234.66791,169.91548q2.68668,2.222,2.68668,7.36619v18.42114h-7.32827V179.06312a7.65135,7.65135,0,0,0-.57284-3.31278q-1.048-2.10819-3.98646-2.10739a4.941,4.941,0,0,0-4.95786,3.08686,10.6788,10.6788,0,0,0-.69789,4.16638v14.80662h-7.15239V168.39706h6.92648v3.99049a12.14007,12.14007,0,0,1,2.59955-3.03684,9.0086,9.0086,0,0,1,5.57265-1.65558A10.48741,10.48741,0,0,1,234.66791,169.91548Z"/><path d="M254.83982,179.06312a11.2844,11.2844,0,0,0,2.85692-.6269,2.1518,2.1518,0,0,0,1.54182-2.03236,2.40447,2.40447,0,0,0-1.18278-2.322,7.47228,7.47228,0,0,0-3.47252-.64061,4.562,4.562,0,0,0-3.63792,1.2554,5.17466,5.17466,0,0,0-1.01739,2.50918h-6.90147a10.46916,10.46916,0,0,1,2.01622-5.89779q2.84764-3.61371,9.78018-3.61291a17.43938,17.43938,0,0,1,8.01487,1.78144q3.50358,1.78144,3.50318,6.72559v12.54915q0,1.30463.05083,3.1619a3.98,3.98,0,0,0,.426,1.9073,2.56929,2.56929,0,0,0,1.05451.8286v1.0537h-7.78009a7.95866,7.95866,0,0,1-.45182-1.55554q-.12585-.72855-.20089-1.65719a14.73712,14.73712,0,0,1-3.433,2.7359,10.37639,10.37639,0,0,1-5.25073,1.33043,9.05824,9.05824,0,0,1-6.17211-2.1211,7.54051,7.54051,0,0,1-2.43577-6.01075q0-5.0442,3.91869-7.30246a17.50754,17.50754,0,0,1,6.32056-1.75724Zm4.37373,3.33858a7.92544,7.92544,0,0,1-1.38691.68983,11.717,11.717,0,0,1-1.92021.48973l-1.62815.30094a10.72261,10.72261,0,0,0-3.28776.97867,3.26678,3.26678,0,0,0-1.69027,3.03684,3.1732,3.1732,0,0,0,1.03272,2.648,3.91959,3.91959,0,0,0,2.51.81488,7.47839,7.47839,0,0,0,4.31887-1.35463q1.97508-1.35545,2.05172-4.94415Z"/><path d="M306.72187,168.44708a7.96531,7.96531,0,0,1,3.18772,2.46,7.85126,7.85126,0,0,1,1.55553,3.51367,24.20882,24.20882,0,0,1,.25173,4.04051l-.05083,17.24158h-7.32828V178.28535a5.70925,5.70925,0,0,0-.50183-2.55921,3.566,3.566,0,0,0-3.51367-1.9073,4.11077,4.11077,0,0,0-4.09054,2.45916,7.72082,7.72082,0,0,0-.57687,3.13689v16.28792h-7.20322V179.41489a9.14746,9.14746,0,0,0-.50183-3.53868,3.50507,3.50507,0,0,0-3.53868-1.98315q-3.06186,0-4.11555,1.98315a7.62639,7.62639,0,0,0-.57768,3.36279v16.46381h-7.25324V168.39706h6.9523v3.99049a11.52037,11.52037,0,0,1,2.50919-3.03684,9.9349,9.9349,0,0,1,10.466-.22591,8.03711,8.03711,0,0,1,2.35912,3.28857,9.08034,9.08034,0,0,1,3.48785-3.53868,10.63955,10.63955,0,0,1,4.91913-1.12953A9.5293,9.5293,0,0,1,306.72187,168.44708Z"/><path d="M325.64565,165.08429h-7.25324v-6.59972h7.25324Zm-7.25324,3.26275h7.25324v27.35577h-7.25324Z"/><path d="M348.93509,178.15949a6.33962,6.33962,0,0,0-1.03111-2.76011,4.32886,4.32886,0,0,0-3.74845-1.65638,4.93491,4.93491,0,0,0-4.95624,3.5887,14.90283,14.90283,0,0,0-.70435,5.05709,13.69961,13.69961,0,0,0,.70435,4.8312,4.78358,4.78358,0,0,0,4.83038,3.41281,4.26589,4.26589,0,0,0,3.57256-1.35464,6.735,6.735,0,0,0,1.28284-3.51366h7.30326a11.96747,11.96747,0,0,1-2.36154,6.17372q-3.36683,4.69323-9.973,4.69323-6.6078,0-9.7229-3.91546a15.80947,15.80947,0,0,1-3.1151-10.15212q0-7.03863,3.44186-10.95408,3.44187-3.91506,9.49618-3.91466a14.31331,14.31331,0,0,1,8.428,2.30829q3.27847,2.31032,3.88157,8.15607Z"/><path d="M366.70351,186.96907a4.76349,4.76349,0,0,0,.9835,2.71008q1.33729,1.43048,4.94253,1.43128a7.56856,7.56856,0,0,0,3.36683-.6277,2.01014,2.01014,0,0,0,1.24814-1.88229,2.031,2.031,0,0,0-1.00529-1.83227q-1.00569-.62689-7.48318-2.15822-4.663-1.15333-6.56987-2.886a6.25669,6.25669,0,0,1-1.9073-4.91913,8.5233,8.5233,0,0,1,2.98036-6.51259q2.98077-2.723,8.38762-2.723a15.41326,15.41326,0,0,1,8.3626,2.04527q3.23128,2.04648,3.70973,7.06525h-7.15239a4.22686,4.22686,0,0,0-.78019-2.184q-1.18239-1.45468-4.0268-1.45549a5.79728,5.79728,0,0,0-3.33375.72775,2.09445,2.09445,0,0,0-.9948,1.70641,1.86734,1.86734,0,0,0,1.05773,1.78224,45.78111,45.78111,0,0,0,7.46786,1.98234,13.70433,13.70433,0,0,1,6.4077,3.03684,6.89511,6.89511,0,0,1,2.1082,5.145,8.30494,8.30494,0,0,1-3.03039,6.63764q-3.03159,2.57294-9.36709,2.57293-6.46377,0-9.54378-2.723a8.84959,8.84959,0,0,1-3.0804-6.93939Z"/><path d="M409.0676,184.53491a8.18943,8.18943,0,0,0,.70112,3.61372,4.80084,4.80084,0,0,0,4.732,2.635,5.23078,5.23078,0,0,0,3.66777-1.44338,5.36814,5.36814,0,0,0,1.56521-4.15347q0-3.5883-2.9021-4.79327a14.71379,14.71379,0,0,0-5.20394-.67692v-5.12a13.47,13.47,0,0,0,4.85136-.67772q2.37567-1.0541,2.37607-4.26642a4.77389,4.77389,0,0,0-1.21426-3.38861,4.43669,4.43669,0,0,0-3.416-1.30462,4.32146,4.32146,0,0,0-3.71779,1.60637,6.8259,6.8259,0,0,0-1.13841,4.29143H402.693a17.96133,17.96133,0,0,1,.927-5.145,11.59213,11.59213,0,0,1,2.75849-3.94047,9.5913,9.5913,0,0,1,3.33375-1.95733,14.41468,14.41468,0,0,1,4.73841-.67772,12.60163,12.60163,0,0,1,8.411,2.698,8.9918,8.9918,0,0,1,3.19659,7.24033,8.00806,8.00806,0,0,1-1.9073,5.421,6.51009,6.51009,0,0,1-2.51,1.88229q.97907,0,2.81093,1.6814a8.98249,8.98249,0,0,1,2.73509,6.92729,11.671,11.671,0,0,1-3.19659,8.11814q-3.19618,3.50238-9.46471,3.50157-7.72119,0-10.7306-5.04419a14.98782,14.98782,0,0,1-1.75482-7.02734Z"/><path d="M448.11811,168.4729a3.65171,3.65171,0,0,0-.67772-1.93312,3.927,3.927,0,0,0-3.48866-1.7056q-3.48784,0-4.96915,3.91465a24.29307,24.29307,0,0,0-1.10372,6.37462,8.02583,8.02583,0,0,1,3.08686-2.30909,11.3008,11.3008,0,0,1,11.95857,2.56,11.76429,11.76429,0,0,1,3.09977,8.407,14.19155,14.19155,0,0,1-3.03684,8.98466q-3.03765,3.89085-9.43647,3.89045a10.858,10.858,0,0,1-10.13921-5.74773q-2.53541-4.49112-2.535-11.59389a52.62454,52.62454,0,0,1,.35177-6.77641,20.71643,20.71643,0,0,1,2.43415-7.73007,12.43873,12.43873,0,0,1,4.07843-4.24141,10.9995,10.9995,0,0,1,6.03576-1.60636,11.95135,11.95135,0,0,1,8.081,2.59793,9.878,9.878,0,0,1,3.38781,6.91438Zm-8.48282,20.50432a5.04548,5.04548,0,0,0,4.0155,1.85728,4.4631,4.4631,0,0,0,3.75248-1.79435,7.47355,7.47355,0,0,0,1.36755-4.65611,6.96528,6.96528,0,0,0-1.55634-4.88121,4.98038,4.98038,0,0,0-3.81461-1.69431,5.09739,5.09739,0,0,0-3.23773,1.10453q-2.10821,1.63137-2.1082,5.27009A7.14159,7.14159,0,0,0,439.63529,188.97722Z"/><path d="M466.33915,185.96539a6.89251,6.89251,0,0,0,1.62734,3.6008,4.601,4.601,0,0,0,3.50479,1.26831,4.72662,4.72662,0,0,0,4.04375-1.87019,7.67227,7.67227,0,0,0,1.38933-4.70532,8.1963,8.1963,0,0,0-1.30139-4.70614,4.55562,4.55562,0,0,0-4.05665-1.91941,6.95436,6.95436,0,0,0-2.25343.326,4.48131,4.48131,0,0,0-2.52855,2.23325l-6.41173-.30094,2.55356-20.10253H482.928v6.07288H468.06654l-1.3022,7.95678a14.94708,14.94708,0,0,1,2.5818-1.43129,10.93209,10.93209,0,0,1,3.784-.57687,11.36219,11.36219,0,0,1,7.86965,3.036q3.35835,3.03764,3.35875,8.83459A13.869,13.869,0,0,1,481.124,192.691q-3.2349,3.96588-9.67771,3.96548a12.84774,12.84774,0,0,1-8.52477-2.78592,10.827,10.827,0,0,1-3.71053-7.90515Z"/></svg>