<svg id="Layer_1" data-name="Layer 1" xmlns="http://www.w3.org/2000/svg" viewBox="0 0 333.16757 204.75901"><defs><style>.cls-1{fill:#00a8de;}</style></defs><path class="cls-1" d="M312.41775,177.16622a39.95461,39.95461,0,0,0,3.16009-3.01349c15.5437-17.62311,13.94-43.231-4.47741-56.97485a9.3909,9.3909,0,0,1-4.14765-8.38349c-.05188-14.99859-6.70923-27.01782-17.92376-36.444-15.26349-12.82953-33.27039-17.821-52.97278-16.875-3.36.16132-4.67121-.58093-5.37946-3.94073-2.8573-13.55353-10.635-23.92835-21.85083-31.71521A72.97019,72.97019,0,0,0,153.203,7.43886C127.2535,11.8865,107.44161,24.42373,99.93862,51.432c-1.03576,3.72845-3.54938,3.79193-6.51147,3.83105-11.80463.15595-23.23365,2.24085-33.86176,7.53553C39.84951,72.62051,26.687,87.09707,26.88253,110.53518c.03326,3.98572-2.72626,5.41235-5.16675,7.31067a37.43044,37.43044,0,0,0-12.188,41.7846c6.78711,19.14283,30.08039,35.52057,51.94513,35.5802q105.48368.28758,210.96869-.0133c12.18415-.02905,23.03589-4.7666,32.9-11.81354,2.12353-1.517,2.43328-2.91949.50763-4.8111-10.93427-10.74084-31.97217-30.194-43.038-40.797h-.00037c-9.43347-9.695-35.4956-24.09033-35.4956-24.09033,15.20013,7.37377,16.19318,8.05175,21.598,11.36261l13.88849,9.75573,22.00439-26.28717H258.96194L250.157,119.1343a253.84741,253.84741,0,0,0-42.29261-18.21936c-38.0238-12.34686-68.5238,2.99628-68.5238,2.99628s35.07416-5.9538,60.106,2.24249c13.46673,4.40948,33.05713,18.143,46.10644,28.0296-7.50445-5.461-15.88879-10.2019-18.15863-8.3443-.71429.5846-1.17273,3.18689-.47918,3.7959,6.05487,5.31653,21.266,22.59515,21.266,22.59515a210.71648,210.71648,0,0,0-12.579-19.21631L255.14571,149.431c9.28809,8.79,17.71894,18.11237,26.59382,26.993,1.83618,1.83734,1.6336,3.0553-.99134,3.82215-3.74511,1.094-7.572,1.077-11.40356,1.07727q-102.48477.00832-204.96942.05194c-15.06287.02423-27.10688-5.94867-36.758-17.13031-10.58209-12.2602-8.61163-27.97455,4.557-37.38458a45.7554,45.7554,0,0,1,5.93011-3.70215c3.02741-1.526,3.737-3.61774,3.02375-6.92932C38.00637,101.73556,43.599,90.36965,54.71481,81.54214c14.7937-11.7483,31.96673-14.18628,50.12927-11.50318,8.21155,1.213,8.24267,1.43915,8.06671-7.03534-.11871-5.71728.22241-11.23724,2.88367-16.53094,4.96075-9.86792,12.76642-16.57562,22.72479-20.7923,18.11774-7.67169,36.31915-7.57275,54.33856.38208,13.90711,6.13934,26.67487,19.46649,25.0849,38.29346-.65472,7.75256-.24548,7.75757,7.7475,6.24682,16.029-3.0296,31.58722-1.97918,46.07751,6.1272,15.26526,8.53992,24.097,21.008,20.62958,40.41223-.496,2.77576.30213,4.44916,2.6922,5.707a54.60365,54.60365,0,0,1,4.65918,2.91529c14.69013,9.73828,17.33038,24.28216,6.55731,38.0755a34.04,34.04,0,0,1-3.936,3.71673"/><path class="cls-1" d="M142.02938,114.24984s-3.202-.03351-4.995.00189l-26.11878.00287s-1.97137,4.61481-2.69311,6.34442c-3.45978,8.29126-7.3451,16.4057-11.10089,24.57184-.51514,1.12006-2.1471,4.56122-2.1471,4.56122s-1.521-3.39191-1.99255-4.40882c-4.06165-8.75836-8.18524-17.49017-12.0766-26.32409-.72089-1.63654-1.70221-4.65332-1.70221-4.65332s-3.59979-.19123-5.4989-.12836c-6.81879.22583-13.6546.21069-20.4751.01318-1.95636-.0567-5.45837.11585-5.45837.11585s-.02405,3.41009.00122,5.5448c.15545,13.15118.01068,26.3056.06775,39.45843.01977,4.55567-.049,11.0788-.049,11.0788L65.255,170.586s-.11981-3.79541-.17243-5.96c-.23871-9.81793-.16339-28.6449-.10138-38.46747l4.47284,8.14661c5.2851,10.38678,10.7403,20.70037,15.5838,31.29223.54248,1.18628,2.35047,4.76514,2.35047,4.76514s4.25824.10944,7.38165.05762c2.63892-.04383,8.08008-.12915,8.08008-.12915s1.26459-2.85389,2.12714-4.75556c5.0166-11.05981,14.45349-27.79364,19.935-38.641l.01288,6.91052c.02942,8.32453-.07281,16.64972-.01361,24.97388.04083,5.74255.06238,11.59.06238,11.59l17.15906-.08667s.019-3.11969-.04029-5.57184c-.18091-7.48786-.05249-14.98322-.05511-22.47547-.00257-7.65875-.10791-15.31958.04309-22.97534C142.11678,117.42049,142.02938,114.24984,142.02938,114.24984Z"/><polygon class="cls-1" points="188.028 170.586 188.028 129.328 212.988 129.328 212.988 114.237 144.884 114.237 144.884 129.328 169.841 129.328 169.841 170.586 188.028 170.586"/><polygon class="cls-1" points="207.421 170.395 233.856 170.395 248.181 152.23 233.266 139.53 207.421 170.395"/></svg>