<svg xmlns="http://www.w3.org/2000/svg" role="img" xmlns:xlink="http://www.w3.org/1999/xlink" viewBox="-23.98 -23.98 1246.96 922.96"><path fill="gold" d="M0 0h1200v800H0z"/><g stroke="#bf0a30" transform="translate(600 400)"><path id="a" stroke-linecap="round" stroke-width="17" d="M157.344 38.2812h-314.688M191.375 12.75h-382.75m382.75-25.5h-382.75m348.719-25.5312h-314.688"/><use transform="rotate(90)" xlink:href="#a"/><circle r="64.313" fill="gold" stroke-width="10.625"/></g><path d="M104.79526 825.6747v23.70881c0 4.1016.64017 7.29503 1.91308 9.5803 2.3895 4.18347 6.93027 6.28265 13.60745 6.28265 6.68462 0 11.21051-2.09918 13.58512-6.28265 1.2729-2.28527 1.90563-5.4787 1.90563-9.5803V825.6747h-8.18829v23.70882c0 2.65748-.31264 4.59289-.93793 5.81369-.9826 2.15873-3.1041 3.24554-6.36453 3.24554-3.27532 0-5.40427-1.08681-6.38687-3.24554-.62529-1.2208-.93793-3.15621-.93793-5.81369V825.6747zm15.52053 0zm45.6311 11.68691c-1.87586-1.54833-4.28768-2.31505-7.23547-2.31505-2.35971 0-4.30257.57318-5.83601 1.72699-.85605.64017-1.7642 1.6972-2.72447 3.16365v-4.16114h-7.19825v28.47292h7.43645v-15.43865c0-1.7642.23821-3.20832.7295-4.34723.94538-2.14385 2.67981-3.21577 5.21074-3.21577 2.05451 0 3.45397.7295 4.18347 2.19595.40197.80394.60295 1.95775.60295 3.45397v17.35173h7.64489v-19.20526c0-3.58052-.93793-6.14122-2.8138-7.6821zm-9.9897-2.39693zm27.34888-2.64259v-6.8856h-7.563v6.8856zm-7.563 3.40187v28.52502h7.563v-28.52502zm11.85813 5.57548h3.97504v17.56016c0 1.77909.4243 3.09666 1.25802 3.9527 1.2878 1.33991 3.69962 1.95031 7.22059 1.8312l3.53585-.13398v-5.57548a12.1126 12.1126 0 0 1-.7444.04466c-.25308.00744-.49129.01489-.72205.01489-1.51856 0-2.42671-.14888-2.72447-.4392-.29031-.28286-.43919-1.01236-.43919-2.18105v-15.0739h4.6301v-5.31495h-4.6301v-7.95008h-7.38435v7.95008h-3.97504zm28.0114 1.43667c.95282-1.07936 2.29272-1.62277 4.0197-1.62277 1.58555 0 2.91801.51363 3.98993 1.53344 1.07192 1.01982 1.67488 2.51604 1.79398 4.48868h-11.59015c.2382-1.85354.84116-3.31254 1.78654-4.39935zm10.4289-6.43897c-1.8982-.88583-4.0346-1.33246-6.4092-1.33246-3.99737 0-7.24291 1.31757-9.7515 3.95271-2.50116 2.63514-3.75173 6.42409-3.75173 11.3594 0 5.27027 1.38456 9.0741 4.16114 11.41149 2.77657 2.33738 5.97745 3.50608 9.60263 3.50608 4.39934 0 7.8161-1.39201 10.2577-4.16114 1.57066-1.74932 2.45648-3.46886 2.64258-5.15863H225.178c-.40197.84116-.8635 1.49623-1.38457 1.9652-.96026.87093-2.2034 1.31012-3.74428 1.31012-1.44412 0-2.68725-.3573-3.7145-1.07937-1.68977-1.14636-2.59048-3.1562-2.6947-6.01467h19.52535c.02978-2.46393-.04466-4.34723-.2382-5.65736-.33498-2.23317-1.05704-4.19092-2.17362-5.88813-1.23569-1.91308-2.80635-3.31997-4.71199-4.21324zm-5.88812-1.33246zm33.16257 1.2208c-1.34735-.75928-2.88079-1.13892-4.60777-1.13892-3.75173 0-6.75162 1.39201-8.99224 4.18347-2.2406 2.79147-3.36464 6.62507-3.36464 11.49339 0 4.22069 1.13892 7.67466 3.41675 10.3768 2.27784 2.69468 5.08419 4.04203 8.41905 4.04203 2.0173 0 3.7145-.38708 5.07674-1.1538 1.3548-.76673 2.56815-1.99497 3.63263-3.69218v3.95271h7.25035V825.7268h-7.563v13.60745c-.83371-1.3399-1.92797-2.3895-3.26787-3.14877zm1.8312 20.32185c-1.1017 1.56321-2.70958 2.35227-4.8162 2.35227-2.11407 0-3.68473-.78906-4.72688-2.36716-1.0347-1.5781-1.55578-3.68473-1.55578-6.31987 0-2.4416.51363-4.48868 1.53345-6.14122 1.01981-1.6451 2.62025-2.47138 4.80131-2.47138 1.42923 0 2.68725.45408 3.76662 1.36224 1.7642 1.49622 2.64258 3.99737 2.64258 7.48112 0 2.50115-.55085 4.53333-1.6451 6.104zm37.10784-4.16114h-7.697c0 4.01226 1.44412 7.16103 4.31747 9.45375 2.88079 2.30016 6.8335 3.44652 11.85813 3.44652 4.92042 0 8.72425-1.16869 11.41895-3.49863 2.70213-2.3225 4.04948-5.2554 4.04948-8.77636 0-3.43908-1.1538-6.06678-3.45397-7.87564-1.48878-1.1687-3.68473-2.10663-6.5953-2.79891l-6.6474-1.60044c-2.56815-.6104-4.24302-1.13891-5.02463-1.593-1.2208-.68483-1.8312-1.71209-1.8312-3.08921 0-1.50367.61784-2.67236 1.85353-3.50608 1.24313-.84116 2.89568-1.25802 4.97252-1.25802 1.86842 0 3.43164.3201 4.68222.96771 1.89075.97515 2.90312 2.6277 3.0371 4.94275h7.7491c-.14143-4.09415-1.6451-7.22058-4.51844-9.37931-2.8659-2.1513-6.33476-3.23066-10.39913-3.23066-4.8683 0-8.56048 1.13892-11.06908 3.4242-2.51603 2.29272-3.76661 5.15862-3.76661 8.61259 0 3.78894 1.29524 6.57296 3.89316 8.35205 1.54089 1.06448 4.31002 2.04708 8.32228 2.95523l4.0867.9156c2.3895.52108 4.14625 1.12403 5.26284 1.80887 1.11658.69228 1.67488 1.68232 1.67488 2.95523 0 2.18106-1.13148 3.66984-3.37953 4.47378-1.18359.41686-2.73192.62529-4.63011.62529-3.17855 0-5.41916-.78905-6.72929-2.38205-.71461-.87093-1.19102-2.1885-1.43667-3.94526zm7.82354-27.84763zm18.55764 16.80088h3.97505v17.56016c0 1.77909.41685 3.09666 1.25801 3.9527 1.2878 1.33991 3.69962 1.95031 7.22059 1.8312l3.53585-.13398v-5.57548c-.24565.02233-.49874.03722-.75183.04466-.2531.00744-.4913.01489-.71462.01489-1.51855 0-2.42671-.14888-2.72447-.4392-.29775-.28286-.44663-1.01236-.44663-2.18105v-15.0739h4.63755v-5.31495h-4.63755v-7.95008h-7.3769v7.95008h-3.97505zm36.50489 9.08156v2.77657c-.0521 2.4937-.75184 4.21325-2.10663 5.15118-1.35479.94537-2.82868 1.41434-4.43656 1.41434-1.01237 0-1.86842-.28287-2.57559-.8486-.70717-.56574-1.06448-1.48878-1.06448-2.7617 0-1.42922.58063-2.48625 1.72699-3.1711.68484-.40196 1.80887-.73694 3.37953-1.0198l1.67488-.31265c.83371-.15632 1.49622-.32753 1.97263-.50619.48385-.1861.96026-.4243 1.42923-.72205zm-4.5259-3.48375l-2.53836.31264c-2.8808.3722-5.06185.9826-6.5432 1.83865-2.70213 1.57066-4.05692 4.10903-4.05692 7.6151 0 2.70214.84116 4.79388 2.52349 6.26777 1.68232 1.4739 3.81872 2.21084 6.40175 2.21084 2.02474 0 3.8336-.46152 5.44149-1.39201 1.3399-.7816 2.53093-1.73443 3.55818-2.85101.05211.64762.1191 1.2208.20843 1.72698.08933.50619.24565 1.0496.46897 1.62277h8.11385v-1.1017c-.48385-.22331-.85605-.51362-1.09425-.86349-.24565-.34242-.39453-1.00492-.44664-1.98752-.03722-1.2878-.0521-2.3895-.0521-3.29765V843.9197c0-3.43908-1.21336-5.77647-3.64007-7.0196-2.42671-1.23568-5.19584-1.85353-8.32228-1.85353-4.79387 0-8.18085 1.25058-10.15348 3.76662-1.23569 1.60788-1.93541 3.65495-2.09174 6.14866h7.19825c.17121-1.1017.52108-1.97264 1.04215-2.61281.73695-.87838 1.98008-1.31013 3.74428-1.31013 1.57067 0 2.76169.22332 3.57307.6625.81139.44664 1.21336 1.25803 1.21336 2.42672 0 .96026-.52852 1.65999-1.593 2.11407-.5955.26798-1.5781.48385-2.95522.65506zm.38709-11.93257zm15.28977 6.33476h3.97504v17.56016c0 1.77909.41686 3.09666 1.25802 3.9527 1.2878 1.33991 3.69962 1.95031 7.22059 1.8312l3.53585-.13398v-5.57548c-.24565.02233-.49874.03722-.75184.04466-.25309.00744-.4913.01489-.71461.01489-1.51856 0-2.42671-.14888-2.72447-.4392-.29775-.28286-.44663-1.01236-.44663-2.18105v-15.0739h4.63755v-5.31495h-4.63755v-7.95008h-7.3769v7.95008h-3.97505zm28.0114 1.43667c.95282-1.07936 2.29272-1.62277 4.0197-1.62277 1.58555 0 2.91801.51363 3.98993 1.53344 1.07192 1.01982 1.66744 2.51604 1.79398 4.48868h-11.5976c.24565-1.85354.84117-3.31254 1.79399-4.39935zm10.4289-6.43897c-1.8982-.88583-4.04204-1.33246-6.4092-1.33246-3.99737 0-7.25036 1.31757-9.7515 3.95271-2.50116 2.63514-3.75173 6.42409-3.75173 11.3594 0 5.27027 1.38456 9.0741 4.16114 11.41149 2.76913 2.33738 5.97 3.50608 9.60263 3.50608 4.3919 0 7.8161-1.39201 10.2577-4.16114 1.57066-1.74932 2.44904-3.46886 2.64258-5.15863h-7.61511c-.40197.84116-.8635 1.49623-1.38457 1.9652-.96026.87093-2.21084 1.31012-3.74428 1.31012-1.45156 0-2.68725-.3573-3.7145-1.07937-1.69721-1.14636-2.59048-3.1562-2.6947-6.01467h19.5179c.03723-2.46393-.04466-4.34723-.23075-5.65736-.33498-2.23317-1.05704-4.19092-2.17362-5.88813-1.24313-1.91308-2.8138-3.31997-4.71199-4.21324zm-5.88812-1.33246zm23.8428 20.18041h-7.563c0 2.92545 1.06448 5.33728 3.20088 7.23547 2.1364 1.89075 5.44894 2.83613 9.9376 2.83613 4.3919 0 7.6449-.89327 9.74407-2.6798 2.10663-1.78654 3.15622-4.09415 3.15622-6.92283 0-2.14385-.73695-3.93783-2.2034-5.36705-1.48133-1.41435-3.70706-2.46394-6.66973-3.16366-4.45145-.97515-7.04193-1.66744-7.77143-2.0694-.73695-.37964-1.1017-1.00493-1.1017-1.85354 0-.68484.34242-1.28035 1.0347-1.78653.69228-.49874 1.84609-.75184 3.46886-.75184 1.97263 0 3.36464.49874 4.18347 1.51111.43919.5583.70717 1.31757.81139 2.27784h7.45878c-.32753-3.48375-1.61532-5.94023-3.85594-7.36202-2.24061-1.42178-5.14373-2.1364-8.70192-2.1364-3.75172 0-6.66229.94538-8.7317 2.84357-2.06195 1.89075-3.09665 4.1537-3.09665 6.78884 0 2.23317.6625 3.94527 1.98752 5.12885 1.32501 1.2059 3.60285 2.20339 6.8335 3.00733 4.48123 1.06448 7.0717 1.81631 7.77143 2.2555.69228.43175 1.04215 1.07192 1.04215 1.90564 0 .87094-.43175 1.526-1.29524 1.9652-.8635.43174-2.02474.65505-3.4912.65505-2.4937 0-4.2058-.49874-5.12884-1.49622-.52107-.5583-.8635-1.49622-1.01981-2.82124zm5.70203-20.18041zm30.93685 10.80854v7.06426h15.0218v-7.06426zm35.4553-20.09853v38.5743h7.5109v-27.401l15.75873 27.401h8.0543v-38.5743h-7.50345v26.93203l-15.36421-26.93203zm15.96716-.07444zm29.50762 17.13586c.94538-1.07936 2.28528-1.62277 4.01227-1.62277 1.59299 0 2.918.51363 3.98993 1.53344 1.07936 1.01982 1.67487 2.51604 1.79398 4.48868h-11.59016c.24565-1.85354.84116-3.31254 1.79398-4.39935zm10.4289-6.43897c-1.90563-.88583-4.04203-1.33246-6.41663-1.33246-3.98994 0-7.24292 1.31757-9.74407 3.95271-2.5086 2.63514-3.75917 6.42409-3.75917 11.3594 0 5.27027 1.39201 9.0741 4.16114 11.41149 2.77658 2.33738 5.97745 3.50608 9.60263 3.50608 4.39935 0 7.8161-1.39201 10.26514-4.16114 1.57066-1.74932 2.44904-3.46886 2.64258-5.15863h-7.6151c-.40198.84116-.8635 1.49623-1.39201 1.9652-.96027.87093-2.2034 1.31012-3.73684 1.31012-1.45156 0-2.68725-.3573-3.72195-1.07937-1.68977-1.14636-2.59048-3.1562-2.6947-6.01467h19.52536c.03722-2.46393-.04467-4.34723-.2382-5.65736-.32754-2.23317-1.05704-4.19092-2.17363-5.88813-1.23569-1.91308-2.80635-3.31997-4.70454-4.21324zm-5.88812-1.33246zm31.48026.75928l-4.10904 20.46328-4.45145-20.46328h-8.0022l8.0022 28.52502h7.7491l4.5259-20.77592 4.47378 20.77592h7.66721l8.27018-28.52502h-7.77144l-4.444 20.54516-4.34724-20.54516zm69.29526-10.04927l-6.96005 30.3339-7.01215-30.3339h-11.72414v38.5743h7.5109V838.1581c0-.75183-.00745-1.80142-.02978-3.15621-.0149-1.34735-.02233-2.3895-.02233-3.12644l7.25035 32.37352h7.82354l7.30247-32.37352c0 .73695-.00744 1.7791-.02978 3.12644-.01488 1.35479-.02233 2.40438-.02233 3.15621v26.09087h7.5109V825.6747zm25.71123 17.06142c.95282-1.07936 2.29272-1.62277 4.0197-1.62277 1.58556 0 2.91802.51363 3.98994 1.53344 1.07192 1.01982 1.67488 2.51604 1.79398 4.48868h-11.59015c.2382-1.85354.84116-3.31254 1.78653-4.39935zm10.4289-6.43897c-1.89819-.88583-4.03459-1.33246-6.4092-1.33246-3.99737 0-7.2429 1.31757-9.7515 3.95271-2.50115 2.63514-3.75173 6.42409-3.75173 11.3594 0 5.27027 1.38457 9.0741 4.16114 11.41149 2.77658 2.33738 5.97745 3.50608 9.60263 3.50608 4.39935 0 7.8161-1.39201 10.2577-4.16114 1.57066-1.74932 2.45648-3.46886 2.64258-5.15863h-7.6151c-.40198.84116-.8635 1.49623-1.38457 1.9652-.96027.87093-2.2034 1.31012-3.74428 1.31012-1.44412 0-2.68725-.3573-3.71451-1.07937-1.68977-1.14636-2.59048-3.1562-2.6947-6.01467h19.52536c.02977-2.46393-.04467-4.34723-.2382-5.65736-.33498-2.23317-1.05704-4.19092-2.17363-5.88813-1.23568-1.91308-2.80635-3.31997-4.71199-4.21324zm-5.88812-1.33246zm15.23022 29.2843h9.05923l4.94275-8.55304 4.92041 8.55304h9.29l-9.72919-14.57515 9.36443-13.89777h-8.87313l-4.65244 8.27018-4.7641-8.27018h-9.13366l9.31232 14.03176zm40.27894-31.92689v-6.8856h-7.563v6.8856zm-7.563 3.40187v28.52502h7.563v-28.52502zm31.82267 10.23536h7.64489c-.4243-4.06437-1.77165-6.9005-4.04948-8.50838-2.2704-1.60044-5.20329-2.40438-8.77636-2.40438-4.2058 0-7.50345 1.36224-9.89294 4.07926-2.3895 2.72447-3.58796 6.53574-3.58796 11.43383 0 4.34724 1.0868 7.88309 3.24554 10.60011 2.16617 2.72447 5.53826 4.0867 10.13114 4.0867 4.58545 0 8.04686-1.63021 10.39169-4.89808 1.459-2.02474 2.28528-4.16859 2.45648-6.43898h-7.6151c-.15633 1.50367-.60296 2.72447-1.33246 3.66985-.73695.93793-1.97264 1.41434-3.72195 1.41434-2.45649 0-4.13137-1.19103-5.02464-3.56563-.48385-1.2729-.7295-2.95523-.7295-5.04696 0-2.19595.24565-3.96016.7295-5.28517.9305-2.49371 2.65003-3.74428 5.15863-3.74428 1.7642 0 3.05944.57318 3.9006 1.72698.57318.85605.93049 1.81631 1.07192 2.88079zm-5.0544-10.99464zm35.64883 21.69897c-1.1687 1.54833-2.84357 2.32994-5.02463 2.32994s-3.86339-.78161-5.03952-2.32994c-1.17614-1.55578-1.7642-3.75917-1.7642-6.62507 0-2.85846.58806-5.06186 1.7642-6.61019 1.17613-1.54088 2.85846-2.31505 5.03952-2.31505 2.18106 0 3.85594.77417 5.02463 2.31505 1.1687 1.54833 1.74932 3.75173 1.74932 6.61019 0 2.8659-.58063 5.0693-1.74932 6.62507zm5.96257 4.11647c2.41182-2.97011 3.61029-6.55063 3.61029-10.74154 0-4.11648-1.19847-7.6821-3.6103-10.70433-2.40437-3.01478-6.05933-4.5259-10.96486-4.5259-4.89809 0-8.55304 1.51112-10.96486 4.5259-2.40438 3.02222-3.6103 6.58785-3.6103 10.70433 0 4.19091 1.20592 7.77143 3.6103 10.74154 2.41182 2.97756 6.06677 4.46634 10.96486 4.46634 4.90553 0 8.56049-1.48878 10.96487-4.46634zm-10.96487-25.81544zm36.56444 0c-2.2704 5.23306-3.40186 10.39913-3.40186 15.49075 0 4.41424.87093 8.80614 2.6128 13.16826 1.48134 3.75173 3.64007 7.563 6.46875 11.43383h4.42168l-1.60044-2.9329c-2.19595-4.04203-3.72195-8.2776-4.578-12.69184-.55829-2.87335-.84116-6.02212-.84116-9.44631 0-5.30006.7295-10.10137 2.17362-14.38906.87094-2.56815 2.52348-6.06678 4.9502-10.4959l-4.29514-.0521-1.85353 2.5607c-1.45156 2.00985-2.80635 4.4589-4.05692 7.35457zm16.56268-9.28999v38.5743h7.51089v-27.401l15.7513 27.401h8.06174v-38.5743h-7.5109v26.93203l-15.35676-26.93203zm15.96716-.07444zm48.43746.07444l-6.96005 30.3339-7.01215-30.3339h-11.72414v38.5743h7.51089V838.1581c0-.75183-.01489-1.80142-.02978-3.15621-.01488-1.34735-.02233-2.3895-.02233-3.12644l7.24292 32.37352h7.83098l7.29502-32.37352c0 .73695-.00744 1.7791-.02233 3.12644-.01489 1.35479-.02977 2.40438-.02977 3.15621v26.09087h7.51089V825.6747zm33.83997 0v38.5743h7.5109v-27.401l15.75128 27.401h8.06175v-38.5743h-7.5109v26.93203l-15.3642-26.93203zm15.95972-.07444zm40.09284 31.0634c-1.16869 1.54833-2.84357 2.32994-5.02463 2.32994s-3.85594-.78161-5.03952-2.32994c-1.17613-1.55578-1.7642-3.75917-1.7642-6.62507 0-2.85846.58807-5.06186 1.7642-6.61019 1.18358-1.54088 2.85846-2.31505 5.03952-2.31505 2.18106 0 3.85594.77417 5.02463 2.31505 1.1687 1.54833 1.75676 3.75173 1.75676 6.61019 0 2.8659-.58806 5.0693-1.75676 6.62507zm5.97001 4.11647c2.40438-2.97011 3.6103-6.55063 3.6103-10.74154 0-4.11648-1.20592-7.6821-3.6103-10.70433-2.41182-3.01478-6.06678-4.5259-10.96486-4.5259-4.90553 0-8.56049 1.51112-10.96487 4.5259-2.41182 3.02222-3.61773 6.58785-3.61773 10.70433 0 4.19091 1.2059 7.77143 3.61773 10.74154 2.40438 2.97756 6.05934 4.46634 10.96487 4.46634 4.89808 0 8.55304-1.48878 10.96486-4.46634zm-10.96486-25.81544zm16.97953 6.33476h3.98249v17.56016c0 1.77909.41686 3.09666 1.25057 3.9527 1.29524 1.33991 3.69962 1.95031 7.22803 1.8312l3.52841-.13398v-5.57548c-.2382.02233-.4913.03722-.74439.04466-.2531.00744-.4913.01489-.72206.01489-1.51111 0-2.41927-.14888-2.71702-.4392-.29776-.28286-.44664-1.01236-.44664-2.18105v-15.0739h4.63011v-5.31495h-4.6301v-7.95008h-7.37691v7.95008h-3.98249zm28.45059-8.97735v-6.8856h-7.563v6.8856zm-7.563 3.40187v28.52502h7.563v-28.52502zm26.5896-10.39913c-.38708-.02978-.81138-.04466-1.28779-.04466-4.13136 0-6.74417.85604-7.82354 2.56814-1.02725 1.1538-1.54088 3.25298-1.54088 6.30498v1.8312h-4.0867v5.26284h4.16114v23.00165h7.43645v-23.00165h4.89064v-5.26284h-4.89064v-2.40438c0-.55829.1861-1.07192.5583-1.53344.37963-.46152 1.05703-.6774 2.04707-.65506.9826.02977 1.68232.067 2.10662.1191v-6.07422c-.6625-.05211-1.19102-.08933-1.57066-.11166zm7.19081 44.39542v5.96256c.80395.05955 1.4069.08933 1.80887.09677a84.35085 84.35085 0 0 0 1.593.01489c3.29764 0 5.50104-.65506 6.5953-1.9503 1.10169-1.30268 2.59047-4.65988 4.48122-10.06415l9.78128-28.05606h-7.92775l-5.88812 21.0439-6.23055-21.0439h-8.2925l10.46612 29.78304c.07444.20843-.08188.78161-.45408 1.72699-.37964.93793-.7816 1.56321-1.2208 1.86097-.45407.31264-1.01237.51363-1.67487.59551-.66251.08933-1.36224.1191-2.09174.08189zm10.10138-34.75557zm27.43077.44663c-1.37712-3.20832-3.39442-6.66229-6.04445-10.3619h-5.62759l1.593 2.92545c2.2034 4.0346 3.7294 8.25528 4.58544 12.66951.5583 2.89568.83372 6.0519.83372 9.47609 0 5.33728-.77417 10.25025-2.32994 14.73148-.90816 2.65003-2.5086 6.05189-4.8162 10.20558h5.52337l1.86097-2.53837c1.19847-1.53344 2.48626-3.81872 3.84105-6.85583 2.42672-5.4266 3.64007-10.76388 3.64007-16.01927 0-4.77898-1.01981-9.52075-3.05944-14.23274z"/></svg>