<svg id="Layer_1" data-name="Layer 1" xmlns="http://www.w3.org/2000/svg" viewBox="0 0 900 795.16713"><defs><style>.cls-1{fill:#282878;}.cls-1,.cls-2,.cls-4{fill-rule:evenodd;}.cls-2{fill:#fff;}.cls-3{fill:none;}.cls-4{fill:#d32928;}</style></defs><path d="M5.14552,667.09439h9.55664l17.31738,30.41993V667.09439h8.49512v43.627H31.4004L13.63966,679.76627v30.95508H5.14552Z"/><path d="M45.3838,703.026l22.29883-28.207H45.9463v-7.72461H79.00685v7.31055L56.419,703.026H79.06642v7.69531H45.3838Z"/><path d="M105.28419,671.652a17.964,17.964,0,0,1,13.41113-5.38672q10.89258,0,15.92969,7.22168a15.74345,15.74345,0,0,1,2.98633,8.13965h-9.11621a12.42832,12.42832,0,0,0-2.23243-4.73535q-2.436-2.84179-7.21972-2.8418a8.89646,8.89646,0,0,0-7.68457,4.01075q-2.8125,4.01073-2.8125,11.35058,0,7.34034,2.96777,10.99609a9.30107,9.30107,0,0,0,7.542,3.65528,8.54361,8.54361,0,0,0,7.15137-3.1377,13.77018,13.77018,0,0,0,2.25879-5.06152h9.05664a19.65378,19.65378,0,0,1-5.98828,11.60254,17.42665,17.42665,0,0,1-12.3418,4.46973q-9.31055,0-14.64062-6.03809-5.32911-6.06738-5.3291-16.63379Q99.22267,677.83756,105.28419,671.652Z"/><path d="M177.88087,706.84439q-4.94385,5.09034-14.2959,5.09083-9.353,0-14.2959-5.09083-6.62988-6.24462-6.62988-17.99609,0-11.98682,6.62988-17.99512,4.94238-5.09033,14.2959-5.09082,9.353,0,14.2959,5.09082,6.59912,6.00879,6.60058,17.99512Q184.48145,700.59929,177.88087,706.84439Zm-5.69727-6.62988q3.18018-3.99609,3.18164-11.36621,0-7.34033-3.18164-11.35058A10.3995,10.3995,0,0,0,163.585,673.487a10.53585,10.53585,0,0,0-8.64258,3.9961q-3.227,3.99609-3.22656,11.36523,0,7.36964,3.22656,11.36621a10.53779,10.53779,0,0,0,8.64258,3.99512A10.41621,10.41621,0,0,0,172.1836,700.21451Z"/><path d="M216.35841,667.09439h9.4707l-14.873,43.627h-8.61328l-14.7539-43.627h9.73828l9.4707,33.12012Z"/><path d="M238.97169,710.72135h-9.05762v-43.627h9.05762Z"/><path d="M272.45313,668.04166a14.41343,14.41343,0,0,1,7.43457,5.53418,19.40541,19.40541,0,0,1,3.11036,7.04492,33.801,33.801,0,0,1,.83007,7.22168A28.9799,28.9799,0,0,1,280.332,702.5817q-4.73877,8.14014-14.63281,8.13965H246.88966v-43.627h18.80957A22.92237,22.92237,0,0,1,272.45313,668.04166Zm-16.71386,6.62988V703.1442h8.41894q6.4629,0,9.01172-6.36328a22.415,22.415,0,0,0,1.39356-8.31738q0-6.65919-2.08985-10.22559-2.09033-3.56689-8.31543-3.56641Z"/><path d="M337.9922,667.09439V674.819H324.93946v35.90235h-9.1748V674.819H302.65235v-7.72461Z"/><path d="M356.64063,677.70475c.10743.01074.34961.02539.72461.04492v8.64258q-.79833-.08935-1.42089-.11914c-.41407-.01856-.75-.0293-1.00586-.0293q-5.09181,0-6.83692,3.31543a12.89207,12.89207,0,0,0-.97656,5.74121v15.4209h-8.49512V678.45963h8.05078v5.624a17.82786,17.82786,0,0,1,3.40332-4.41015,9.26626,9.26626,0,0,1,6.15625-1.9834C356.39845,677.6901,356.53126,677.695,356.64063,677.70475Z"/><path d="M374.48048,691.0983a13.36436,13.36436,0,0,0,3.36914-.74023,2.53848,2.53848,0,0,0,1.81836-2.39746,2.83334,2.83334,0,0,0-1.39551-2.73731,8.805,8.805,0,0,0-4.09473-.75488q-3.03075,0-4.29,1.47949a6.09523,6.09523,0,0,0-1.20019,2.96h-8.13965a12.34467,12.34467,0,0,1,2.37793-6.95605q3.35889-4.26123,11.53418-4.26172a20.57125,20.57125,0,0,1,9.45215,2.10156q4.13232,2.10206,4.13183,7.93262v14.79883q0,1.53809.05958,3.72851a4.682,4.682,0,0,0,.50292,2.25,3.01884,3.01884,0,0,0,1.24317.97656v1.24317h-9.17481a9.37755,9.37755,0,0,1-.5332-1.835q-.14795-.85841-.23633-1.95313a17.43207,17.43207,0,0,1-4.0498,3.22559,12.23023,12.23023,0,0,1-6.19238,1.56836,10.67971,10.67971,0,0,1-7.27832-2.501,8.88993,8.88993,0,0,1-2.873-7.08789q0-5.9502,4.62207-8.61328a20.64462,20.64462,0,0,1,7.4541-2.07227Zm5.15722,3.93652a9.36638,9.36638,0,0,1-1.63476.81348,13.88575,13.88575,0,0,1-2.26563.57715l-1.91992.35547a12.60022,12.60022,0,0,0-3.87695,1.1543,3.8522,3.8522,0,0,0-1.99316,3.58105,3.74316,3.74316,0,0,0,1.21679,3.12305,4.62667,4.62667,0,0,0,2.96094.96191,8.817,8.817,0,0,0,5.09375-1.59863q2.32909-1.59814,2.41894-5.83106Z"/><path d="M414.10548,690.03287a7.4657,7.4657,0,0,0-1.2168-3.25586,5.10351,5.10351,0,0,0-4.41992-1.9541,5.82021,5.82021,0,0,0-5.8457,4.23242,17.57984,17.57984,0,0,0-.83008,5.96387,16.15984,16.15984,0,0,0,.83008,5.69824,5.64221,5.64221,0,0,0,5.69726,4.02539q2.96631,0,4.21289-1.59863a7.94509,7.94509,0,0,0,1.5127-4.14356h8.61328a14.11016,14.11016,0,0,1-2.78516,7.28125q-3.97119,5.53419-11.76172,5.53418-7.793,0-11.46582-4.61718-3.67381-4.61719-3.67382-11.97266,0-8.30127,4.05859-12.91894,4.05908-4.6172,11.19922-4.61719a16.88482,16.88482,0,0,1,9.94043,2.72265q3.86573,2.72462,4.57715,9.62012Z"/><path d="M448.93556,679.113a13.12876,13.12876,0,0,1,5.57519,4.77246,15.853,15.853,0,0,1,2.57031,6.66992,41.23922,41.23922,0,0,1,.27832,6.40332H433.86231q.19629,4.85449,3.374,6.80762a8.56986,8.56986,0,0,0,4.65039,1.21289,6.55141,6.55141,0,0,0,6.41992-3.69922h8.6123a10.53565,10.53565,0,0,1-3.127,5.83008q-4.33593,4.70655-12.13769,4.70605a17.58037,17.58037,0,0,1-11.36328-3.96875q-4.92334-3.96972-4.92383-12.916,0-8.38331,4.44433-12.85645a15.55294,15.55294,0,0,1,11.53711-4.47363A18.3645,18.3645,0,0,1,448.93556,679.113Zm-12.61914,7.28711a8.76679,8.76679,0,0,0-2.24707,4.99414h14.53222a7.03693,7.03693,0,0,0-2.24707-5.09766,7.387,7.387,0,0,0-5.00293-1.73925A6.69132,6.69132,0,0,0,436.31642,686.40006Z"/><path d="M478.94044,677.70475c.10742.01074.34961.02539.72461.04492v8.64258q-.79835-.08935-1.4209-.11914c-.41406-.01856-.75-.0293-1.00586-.0293q-5.0918,0-6.83691,3.31543a12.892,12.892,0,0,0-.97657,5.74121v15.4209H460.9297V678.45963h8.05078v5.624a17.82762,17.82762,0,0,1,3.40332-4.41015,9.26624,9.26624,0,0,1,6.15625-1.9834C478.69825,677.6901,478.83106,677.695,478.94044,677.70475Z"/><path d="M502.39747,678.10416a63.43862,63.43862,0,0,1,6.83789-11.7207h6.36328l-1.80566,3.31543a49.34857,49.34857,0,0,0-5.17969,14.32519,56.64311,56.64311,0,0,0-.94726,10.71485,50.60561,50.60561,0,0,0,2.63476,16.66308,75.96119,75.96119,0,0,0,5.44531,11.543H509.501l-2.10059-2.87109a38.43343,38.43343,0,0,1-4.35156-7.75391,44.17513,44.17513,0,0,1-4.11426-18.11426A40.18443,40.18443,0,0,1,502.39747,678.10416Z"/><path d="M520.34962,667.09439h9.55664l17.31738,30.41993V667.09439h8.49512v43.627H546.6045l-17.76074-30.95508v30.95508h-8.49414Z"/><path d="M584.00782,679.113a13.12873,13.12873,0,0,1,5.5752,4.77246,15.853,15.853,0,0,1,2.57031,6.66992,41.23922,41.23922,0,0,1,.27832,6.40332H568.93458q.19629,4.85449,3.374,6.80762a8.56988,8.56988,0,0,0,4.65039,1.21289,6.55141,6.55141,0,0,0,6.41993-3.69922h8.6123a10.53571,10.53571,0,0,1-3.12695,5.83008q-4.33595,4.70655-12.1377,4.70605a17.58039,17.58039,0,0,1-11.36328-3.96875q-4.92335-3.96972-4.92383-12.916,0-8.38331,4.44434-12.85645a15.55292,15.55292,0,0,1,11.53711-4.47363A18.36446,18.36446,0,0,1,584.00782,679.113Zm-12.61914,7.28711a8.76685,8.76685,0,0,0-2.24707,4.99414h14.53223a7.037,7.037,0,0,0-2.24707-5.09766,7.38706,7.38706,0,0,0-5.00293-1.73925A6.69135,6.69135,0,0,0,571.38868,686.40006Z"/><path d="M611.3047,678.45963h8.55371l4.91406,23.23437,5.03125-23.23437h8.791l-9.35352,32.26172h-8.67187l-5.06153-23.501-5.12012,23.501H601.627l-9.05761-32.26172H601.627l5.03125,23.14551Z"/><path d="M656.47267,703.026l22.29882-28.207H657.03517v-7.72461h33.06054v7.31055L667.50782,703.026h22.64746v7.69531H656.47267Z"/><path d="M716.31251,679.113a13.1287,13.1287,0,0,1,5.57519,4.77246,15.853,15.853,0,0,1,2.57032,6.66992,41.24049,41.24049,0,0,1,.27832,6.40332H701.23927q.19629,4.85449,3.374,6.80762a8.56988,8.56988,0,0,0,4.65039,1.21289,6.55138,6.55138,0,0,0,6.41992-3.69922h8.61231a10.53567,10.53567,0,0,1-3.127,5.83008q-4.33593,4.70655-12.13769,4.70605a17.58037,17.58037,0,0,1-11.36328-3.96875q-4.92334-3.96972-4.92383-12.916,0-8.38331,4.44434-12.85645a15.55292,15.55292,0,0,1,11.53711-4.47363A18.36449,18.36449,0,0,1,716.31251,679.113Zm-12.61914,7.28711a8.76685,8.76685,0,0,0-2.24707,4.99414h14.53223a7.037,7.037,0,0,0-2.24708-5.09766,7.387,7.387,0,0,0-5.00292-1.73925A6.69135,6.69135,0,0,0,703.69337,686.40006Z"/><path d="M741.17481,691.0983a13.36414,13.36414,0,0,0,3.36914-.74023,2.53847,2.53847,0,0,0,1.81836-2.39746,2.83334,2.83334,0,0,0-1.3955-2.73731,8.80505,8.80505,0,0,0-4.09473-.75488q-3.03076,0-4.29,1.47949a6.095,6.095,0,0,0-1.20019,2.96H727.2422a12.3446,12.3446,0,0,1,2.37793-6.95605q3.35887-4.26123,11.53418-4.26172a20.57124,20.57124,0,0,1,9.45214,2.10156q4.13234,2.10206,4.13184,7.93262v14.79883q0,1.53809.05957,3.72851a4.68183,4.68183,0,0,0,.50293,2.25,3.01887,3.01887,0,0,0,1.24316.97656v1.24317h-9.1748a9.37685,9.37685,0,0,1-.5332-1.835q-.148-.85841-.23633-1.95313a17.43234,17.43234,0,0,1-4.04981,3.22559,12.23018,12.23018,0,0,1-6.19238,1.56836,10.67973,10.67973,0,0,1-7.27832-2.501,8.89,8.89,0,0,1-2.87305-7.08789q0-5.9502,4.62207-8.61328a20.64468,20.64468,0,0,1,7.45411-2.07227Zm5.15723,3.93652a9.36673,9.36673,0,0,1-1.63476.81348,13.8863,13.8863,0,0,1-2.26563.57715l-1.91992.35547a12.6,12.6,0,0,0-3.87695,1.1543,3.85219,3.85219,0,0,0-1.99317,3.58105,3.74314,3.74314,0,0,0,1.2168,3.12305,4.62665,4.62665,0,0,0,2.96094.96191,8.817,8.817,0,0,0,5.09375-1.59863q2.3291-1.59814,2.41894-5.83106Z"/><path d="M770.11524,710.72135H761.6797v-43.627h8.43554Z"/><path d="M790.51563,691.0983a13.36435,13.36435,0,0,0,3.36915-.74023,2.53847,2.53847,0,0,0,1.81835-2.39746,2.83334,2.83334,0,0,0-1.3955-2.73731,8.80505,8.80505,0,0,0-4.09473-.75488q-3.03076,0-4.29,1.47949a6.09513,6.09513,0,0,0-1.20019,2.96H776.583a12.3446,12.3446,0,0,1,2.37793-6.95605q3.35888-4.26123,11.53418-4.26172a20.57131,20.57131,0,0,1,9.45215,2.10156q4.13232,2.10206,4.13183,7.93262v14.79883q0,1.53809.05957,3.72851a4.682,4.682,0,0,0,.50293,2.25,3.01884,3.01884,0,0,0,1.24317.97656v1.24317H796.71a9.37685,9.37685,0,0,1-.5332-1.835q-.148-.85841-.23633-1.95313a17.43234,17.43234,0,0,1-4.04981,3.22559,12.23018,12.23018,0,0,1-6.19238,1.56836,10.67973,10.67973,0,0,1-7.27832-2.501,8.89,8.89,0,0,1-2.87305-7.08789q0-5.9502,4.62207-8.61328a20.64468,20.64468,0,0,1,7.45411-2.07227Zm5.15723,3.93652a9.36673,9.36673,0,0,1-1.63476.81348,13.8863,13.8863,0,0,1-2.26563.57715l-1.91992.35547a12.60013,12.60013,0,0,0-3.87695,1.1543,3.85219,3.85219,0,0,0-1.99317,3.58105,3.74314,3.74314,0,0,0,1.2168,3.12305,4.62665,4.62665,0,0,0,2.96094.96191,8.817,8.817,0,0,0,5.09375-1.59863q2.32909-1.59814,2.41894-5.83106Z"/><path d="M836.85743,680.30924q3.16846,2.62061,3.16895,8.6875v21.72461H831.3838V691.0983a9.01925,9.01925,0,0,0-.67578-3.90723q-1.23486-2.48583-4.70117-2.48632a5.82741,5.82741,0,0,0-5.84668,3.64062,12.583,12.583,0,0,0-.82325,4.91309v17.46289h-8.43457V678.5192h8.16895v4.70605a14.2866,14.2866,0,0,1,3.06445-3.582,10.62574,10.62574,0,0,1,6.57324-1.95312A12.36538,12.36538,0,0,1,836.85743,680.30924Z"/><path d="M864.3711,678.97721a10.24856,10.24856,0,0,1,3.7002,3.56738V667.153H876.625v43.56836h-8.19922v-4.46973a11.87906,11.87906,0,0,1-4.11426,4.17383,11.54953,11.54953,0,0,1-5.74121,1.30176,11.98523,11.98523,0,0,1-9.51562-4.57227q-3.8628-4.57325-3.86328-11.73535,0-8.25879,3.80371-12.99414a12.37446,12.37446,0,0,1,10.167-4.73535A10.41518,10.41518,0,0,1,864.3711,678.97721Zm2.07227,22.9834a11.76854,11.76854,0,0,0,1.86426-6.89649q0-5.91944-2.98926-8.46484a6.433,6.433,0,0,0-4.26172-1.53906,5.9258,5.9258,0,0,0-5.43164,2.79687,15.08183,15.08183,0,0,0,.0293,14.08887,5.9573,5.9573,0,0,0,5.34277,2.67871A6.22966,6.22966,0,0,0,866.44337,701.96061Z"/><path d="M893.69435,678.10416a40.24237,40.24237,0,0,1,3.457,16.10156A44.2401,44.2401,0,0,1,893.04493,712.32a38.51488,38.51488,0,0,1-4.34375,7.75391l-2.09765,2.87109h-6.23438a76.12815,76.12815,0,0,0,5.42676-11.543,50.81188,50.81188,0,0,0,2.624-16.66308,56.898,56.898,0,0,0-.94336-10.71485,49.50157,49.50157,0,0,0-5.16015-14.32519l-1.79883-3.31543h6.35156A63.48226,63.48226,0,0,1,893.69435,678.10416Z"/><g id="Layer_1-2" data-name="Layer_1"><polygon class="cls-1" points="1.187 0.577 898.193 0.577 898.193 598.581 1.187 598.581 1.187 0.577"/><polygon class="cls-2" points="680.479 53.809 692.089 89.77 729.879 89.697 699.261 111.85 711.01 147.765 680.479 125.495 649.949 147.765 661.694 111.85 631.08 89.697 668.87 89.77 680.479 53.809"/><polygon class="cls-3" points="802.305 180.59 812.742 212.927 846.724 212.862 819.196 232.781 829.757 265.078 802.305 245.052 774.852 265.078 785.413 232.781 757.885 212.862 791.868 212.927 802.305 180.59"/><polygon class="cls-2" points="802.305 180.59 812.742 212.927 846.724 212.862 819.196 232.781 829.757 265.078 802.305 245.052 774.852 265.078 785.413 232.781 757.885 212.862 791.868 212.927 802.305 180.59"/><polygon class="cls-2" points="539.434 213.099 551.043 249.059 588.829 248.987 558.216 271.139 569.964 307.054 539.434 284.785 508.904 307.054 520.649 271.139 490.035 248.987 527.825 249.059 539.434 213.099"/><polygon class="cls-2" points="679.849 422.286 692.635 461.889 734.252 461.806 700.536 486.204 713.469 525.76 679.849 501.234 646.226 525.76 659.163 486.204 625.447 461.806 667.064 461.889 679.849 422.286"/><polygon class="cls-4" points="135.738 100.245 150.688 100.245 1.187 0.577 1.187 10.544 1.187 20.511 120.788 100.245 135.738 100.245"/><polygon class="cls-4" points="330.089 199.912 315.139 199.912 300.189 199.912 449.69 299.579 449.69 289.613 449.69 279.646 330.089 199.912"/><polygon class="cls-4" points="285.239 100.245 300.189 100.245 449.69 0.577 434.74 0.577 419.79 0.577 270.289 100.245 285.239 100.245"/><polygon class="cls-4" points="16.137 299.579 31.087 299.579 180.588 199.912 165.638 199.912 150.688 199.912 1.187 299.579 16.137 299.579"/><polygon class="cls-2" points="105.838 199.912 1.187 269.679 1.187 299.579 150.688 199.912 175.605 199.912 175.605 203.234 31.087 299.579 46.037 299.579 175.605 213.201 175.605 299.579 275.272 299.579 275.272 213.201 404.84 299.579 449.69 299.579 300.189 199.912 330.089 199.912 449.69 279.646 449.69 269.679 345.039 199.912 449.69 199.912 449.69 100.245 345.039 100.245 449.69 30.478 449.69 0.577 300.189 100.245 275.272 100.245 275.272 96.923 419.79 0.577 404.84 0.577 275.272 86.956 275.272 0.577 175.605 0.577 175.605 86.956 46.037 0.577 1.187 0.577 150.688 100.245 120.788 100.245 1.187 20.511 1.187 30.478 105.838 100.245 1.187 100.245 1.187 199.912 105.838 199.912"/><polygon class="cls-4" points="195.538 299.579 195.538 179.978 1.187 179.978 1.187 120.178 195.538 120.178 195.538 0.577 255.339 0.577 255.339 120.178 449.69 120.178 449.69 179.978 255.339 179.978 255.339 299.579 195.538 299.579"/><polygon class="cls-4" points="679.849 442.339 688.046 467.734 714.733 467.682 693.113 483.33 701.41 508.693 679.849 492.966 658.289 508.693 666.582 483.33 644.962 467.682 671.649 467.734 679.849 442.339"/><polygon class="cls-4" points="539.434 233.134 546.459 254.902 569.334 254.858 550.804 268.268 557.913 290.008 539.434 276.528 520.952 290.008 528.064 268.268 509.53 254.858 532.406 254.902 539.434 233.134"/><polygon class="cls-4" points="802.305 200.637 808.157 218.773 827.218 218.736 811.777 229.907 817.701 248.02 802.305 236.789 786.908 248.02 792.832 229.907 777.392 218.736 796.448 218.773 802.305 200.637"/><polygon class="cls-4" points="680.479 73.845 687.508 95.613 710.38 95.569 691.849 108.978 698.958 130.719 680.479 117.239 661.997 130.719 669.109 108.978 650.579 95.569 673.451 95.613 680.479 73.845"/></g></svg>