<svg id="Layer_1" data-name="Layer 1" xmlns="http://www.w3.org/2000/svg" viewBox="0 0 62.04131 66.35709"><defs><style>.cls-1{fill:#e7e7e7;}.cls-2{fill:#fff;}.cls-3{fill:#fbaf86;}.cls-4{fill:#f3d160;}.cls-5{fill:#62b0fa;}</style></defs><path class="cls-1" d="M1.34131,9a8.02352,8.02352,0,0,1,8-8h34a8.02351,8.02351,0,0,1,8,8V43a8.02351,8.02351,0,0,1-8,8h-34a8.02352,8.02352,0,0,1-8-8Z"/><rect class="cls-2" x="46.34131" y="1" width="1" height="50"/><rect class="cls-2" x="1.34131" y="5.5" width="50" height="1"/><rect class="cls-2" x="1.34131" y="15.5" width="50" height="1"/><rect class="cls-2" x="1.34131" y="25.5" width="50" height="1"/><rect class="cls-2" x="1.34131" y="35.5" width="50" height="1"/><rect class="cls-2" x="1.34131" y="45.5" width="50" height="1"/><rect class="cls-2" x="36.34131" y="1" width="1" height="50"/><rect class="cls-2" x="26.34131" y="1" width="1" height="50"/><rect class="cls-2" x="16.34131" y="1" width="1" height="50"/><rect class="cls-2" x="6.34131" y="1" width="1" height="50"/><path class="cls-3" d="M31.34131,37.8c-13.9-11.3-23-25.6-30-36.8V51.1h60.5C48.94131,48.6,39.54131,44.3,31.34131,37.8Z"/><path class="cls-4" d="M5.64131,24.6a6.03089,6.03089,0,0,0-4.4,1.2V51.1h60.3c-8.8-1.5-13.8-2.4-22.2-5.9h0a102.80578,102.80578,0,0,1-12.5-7.4C14.54131,28.3,9.14131,24.5,5.64131,24.6Z"/><path class="cls-5" d="M1.34131,40.5c2.7-3.7,4.5-5.4,9.4-5.8,3.4-.2,7.8,1.7,18.5,7,11.7,5.7,18.9,7.2,32.7,9.3h-60.6Z"/><path d="M1.27566,55.325h2.001L6.902,61.69335V55.325H8.68V64.4583H6.77186L3.05431,57.97757V64.4583H1.27566Z"/><path d="M14.72909,57.84157a2.74153,2.74153,0,0,1,1.16724.99931,3.31865,3.31865,0,0,1,.53809,1.39549,8.66237,8.66237,0,0,1,.058,1.34108h-4.9185a1.62,1.62,0,0,0,.706,1.425,1.79625,1.79625,0,0,0,.97388.25427,1.37219,1.37219,0,0,0,1.344-.77462h1.8029a2.2055,2.2055,0,0,1-.65517,1.22046,3.28294,3.28294,0,0,1-2.54085.98512,3.678,3.678,0,0,1-2.37883-.83138,3.27188,3.27188,0,0,1-1.03065-2.70346,3.65833,3.65833,0,0,1,.93072-2.69163,3.25505,3.25505,0,0,1,2.4149-.93663A3.85085,3.85085,0,0,1,14.72909,57.84157Zm-2.64137,1.52557a1.83529,1.83529,0,0,0-.47068,1.04544h3.04228a1.47467,1.47467,0,0,0-.47009-1.06791,1.55008,1.55008,0,0,0-1.0478-.36306A1.39772,1.39772,0,0,0,12.08772,59.36714Z"/><path d="M16.71352,64.4583l2.30492-3.42012L16.81227,57.7174h2.16241l1.12822,1.956,1.10278-1.956H23.306l-2.218,3.29,2.30492,3.45087H21.19327l-1.16251-2.03055L18.857,64.4583Z"/><path d="M23.7489,59.02419V57.76707h.942V55.88316h1.74732v1.88391h1.09628v1.25712H26.43817v3.56913a.79954.79954,0,0,0,.10525.5168,1.1541,1.1541,0,0,0,.64452.10289q.07983,0,.1703-.00355c.05972-.00118.11826-.00473.17621-.00946v1.3198l-.83611.03193a2.24667,2.24667,0,0,1-1.71006-.434,1.28941,1.28941,0,0,1-.29743-.93545V59.02419Z"/><path d="M35.44733,55.325v1.61782h-2.733V64.4583H30.79374V56.94278H28.04889V55.325Z"/><path d="M39.4765,57.5471c.02247.00118.07332.00473.15256.00828v1.8094q-.16852-.01775-.298-.02484c-.08633-.00354-.15729-.00591-.21051-.00591a1.46423,1.46423,0,0,0-1.431.6942,2.68643,2.68643,0,0,0-.20459,1.20153V64.4583H35.70632V57.70439h1.68523v1.17788a3.75448,3.75448,0,0,1,.71312-.92362,1.93663,1.93663,0,0,1,1.28786-.4151A.82875.82875,0,0,1,39.4765,57.5471Z"/><path d="M43.33892,60.3499a2.7143,2.7143,0,0,0,.70484-.15493.52957.52957,0,0,0,.3808-.50142.59328.59328,0,0,0-.2921-.57357,1.84833,1.84833,0,0,0-.8574-.15729,1.12272,1.12272,0,0,0-.8976.30984,1.2758,1.2758,0,0,0-.2519.6197H40.42141a2.5922,2.5922,0,0,1,.49788-1.457,2.90364,2.90364,0,0,1,2.4149-.89169,4.30126,4.30126,0,0,1,1.97852.43993,1.6868,1.6868,0,0,1,.86567,1.6604v3.09845q0,.32108.01183.78052a.98578.98578,0,0,0,.10525.47069.63485.63485,0,0,0,.26018.20459v.26017H44.63507a1.93917,1.93917,0,0,1-.11117-.38435c-.02128-.11944-.03784-.25544-.04967-.40918a3.60922,3.60922,0,0,1-.84793.67527,2.54823,2.54823,0,0,1-1.29615.32877,2.23046,2.23046,0,0,1-1.52321-.5239,1.86084,1.86084,0,0,1-.60195-1.483,1.924,1.924,0,0,1,.96738-1.80349,4.33826,4.33826,0,0,1,1.56105-.434Zm1.07973.82428a1.85041,1.85041,0,0,1-.343.1703,2.79566,2.79566,0,0,1-.47423.12062l-.40209.07451a2.62492,2.62492,0,0,0-.81127.24243.8062.8062,0,0,0-.41746.74978.77972.77972,0,0,0,.25544.65281.96369.96369,0,0,0,.61969.20222,1.84668,1.84668,0,0,0,1.06554-.33468,1.4192,1.4192,0,0,0,.50734-1.22046Z"/><path d="M51.76151,60.12757a1.58058,1.58058,0,0,0-.25426-.68237,1.07162,1.07162,0,0,0-.926-.408,1.21861,1.21861,0,0,0-1.224.88578,3.68328,3.68328,0,0,0-.17384,1.24885,3.37787,3.37787,0,0,0,.17384,1.19207,1.18247,1.18247,0,0,0,1.19326.84321,1.05305,1.05305,0,0,0,.881-.33468,1.65975,1.65975,0,0,0,.31694-.868H53.552a2.9499,2.9499,0,0,1-.583,1.52439,2.837,2.837,0,0,1-2.46221,1.159,2.88555,2.88555,0,0,1-2.40071-.9662,3.90972,3.90972,0,0,1-.7687-2.50714,3.963,3.963,0,0,1,.84912-2.70464,2.95918,2.95918,0,0,1,2.34513-.9662,3.53225,3.53225,0,0,1,2.08022.57,2.648,2.648,0,0,1,.9591,2.014Z"/><path d="M59.17887,57.84157a2.74147,2.74147,0,0,1,1.16724.99931,3.31087,3.31087,0,0,1,.53809,1.39549,8.58806,8.58806,0,0,1,.05795,1.34108h-4.9185a1.62,1.62,0,0,0,.706,1.425,1.797,1.797,0,0,0,.97329.25427,1.50094,1.50094,0,0,0,.98157-.30985,1.52139,1.52139,0,0,0,.36306-.46477h1.80231a2.19915,2.19915,0,0,1-.654,1.22046,3.28513,3.28513,0,0,1-2.54144.98512,3.67642,3.67642,0,0,1-2.37824-.83138A3.27211,3.27211,0,0,1,54.245,61.15289a3.6559,3.6559,0,0,1,.93072-2.69163,3.25413,3.25413,0,0,1,2.4149-.93663A3.85085,3.85085,0,0,1,59.17887,57.84157Zm-2.642,1.52557a1.83055,1.83055,0,0,0-.4695,1.04544H59.1091a1.47505,1.47505,0,0,0-.47068-1.06791,1.547,1.547,0,0,0-1.04662-.36306A1.39873,1.39873,0,0,0,56.53691,59.36714Z"/></svg>