<svg xmlns="http://www.w3.org/2000/svg" role="img" viewBox="-2.73 -2.73 142.09 37.34"><title>Nodle M1 logo</title><path fill="#01BA88" d="M68.4844 20h-1.4688l-4.414-8.5-.0235 8.5h-1.4609V8.625h1.4687L67 17.1094l.0234-8.4844h1.461V20zm10.3628-5.0312c-.0052.4062-.0417.8177-.1094 1.2343-.0625.4115-.1614.8099-.2969 1.1953-.1354.3855-.3099.7448-.5234 1.0782-.2083.3333-.4583.625-.75.875s-.6276.4479-1.0078.5937c-.375.1406-.7969.2109-1.2656.2109-.4688 0-.8933-.0703-1.2735-.2109-.375-.1458-.7083-.3437-1-.5937-.2916-.25-.5442-.5417-.7578-.875-.2135-.3386-.3906-.7006-.5312-1.086-.1355-.3854-.237-.7838-.3047-1.1953-.0677-.4114-.1042-.8203-.1094-1.2265v-1.2969c.0052-.4063.0391-.8151.1016-1.2266.0677-.4167.1692-.8177.3046-1.2031.1407-.3854.3152-.7448.5235-1.0781.2135-.33858.4661-.63285.7578-.88285.2917-.25521.625-.45313 1-.59375.3802-.14583.8047-.21875 1.2734-.21875.4688 0 .8933.07292 1.2735.21875.3802.14062.7161.33594 1.0078.58594.2917.25.5417.54427.75.88276.2135.3334.388.6928.5234 1.0782.1406.3854.2422.7864.3047 1.2031.0677.4167.1042.8281.1094 1.2344v1.2969zm-1.4297-1.3126c-.0052-.2708-.0234-.552-.0547-.8437a5.50008 5.50008 0 0 0-.1641-.875c-.0729-.2917-.1718-.5677-.2968-.8281-.125-.2656-.2813-.4974-.4688-.6953-.1875-.2032-.4088-.362-.664-.4766-.2552-.11979-.5521-.17969-.8907-.17969-.3333 0-.6276.0599-.8828.17969-.2552.1198-.4765.2813-.664.4844-.1875.1979-.3438.4297-.4688.6953-.125.2604-.2266.5364-.3047.8281-.0729.2865-.1276.5781-.164.875-.0313.2917-.0495.5703-.0547.8359v1.3126c.0052.2656.0234.5468.0547.8437.0364.2969.0937.5911.1718.8828.0782.2865.1797.5625.3047.8281.125.2657.2813.5.4688.7032.1875.1979.4088.3567.664.4765.2552.1198.5521.1797.8907.1797.3385 0 .6354-.0599.8906-.1797.2604-.1198.4818-.2786.664-.4765.1875-.2032.3412-.4349.461-.6954.125-.2656.2239-.5416.2969-.8281.0781-.2916.1302-.5859.1562-.8828.0313-.2969.0495-.5807.0547-.8515v-1.3126zM81.3897 20V8.625h2.6328c.7917.01042 1.4974.14583 2.1172.40625.625.25521 1.151.61458 1.5781 1.07815.4323.4583.7604 1.0104.9844 1.6562.2292.6406.3463 1.3516.3515 2.1328v.836c-.0052.7812-.1223 1.4948-.3515 2.1406-.224.6406-.5521 1.1927-.9844 1.6562-.4271.4584-.9531.8178-1.5781 1.0782-.6198.2552-1.3255.3854-2.1172.3906h-2.6328zm1.4687-10.1875v9.0078h1.1641c.6146-.0052 1.1458-.112 1.5937-.3203.448-.2135.8178-.5026 1.1094-.8672.2969-.3646.5156-.7943.6563-1.289.1458-.4948.2213-1.0313.2265-1.6094v-.8516c-.0052-.5781-.0807-1.112-.2265-1.6016-.1459-.4947-.3646-.9218-.6563-1.2812-.2916-.3646-.6614-.651-1.1094-.8594-.4479-.20831-.9791-.31768-1.5937-.3281h-1.1641zm10.4019 8.9609h5.5625V20H91.815V8.625h1.4453v10.1484zm14.7147-4.0312h-4.75v4.0312h5.539V20h-6.985V8.625h6.914v1.23438h-5.468v3.65622h4.75v1.2266zm15.507-6.1172l1.851 5.6875 2-5.6875h1.797V20h-1.406v-4.5391l.117-4.75-2.102 6.125h-.828l-1.929-5.9609.117 4.5859V20h-1.406V8.625h1.789zM136.673 20h-1.446v-9.5312l-2.976 1.1328v-1.3204l4.304-1.6562h.118V20zM35.8361 3.58073C33.5075 1.21455 30.0779 0 25.8636 0c-2.7715 0-4.3788.82437-5.7582 2.4228-1.3858 1.65506-1.7148 3.801-1.7148 5.28615l-.057 4.29815 2.3792.0566.057-4.29811c0-1.10128.386-2.14593.9998-2.97661.6644-.82439 1.5503-1.2649 2.5501-1.2649h.0569c1.1643 0 2.0502.2769 2.6007.77405.6644.49714.9998 1.32154.9428 2.36618 0 1.04464-.4429 2.03894-1.2212 2.75634-.7783.77405-1.7718 1.15795-2.8791 1.10125l-2.3286-.0566v1.4851l2.3286.0567h.1139c2.993 0 5.4292-2.36619 5.4861-5.34279 0-.71741-.1139-1.43482-.386-2.09559l-.1139-.1636.1646.22024c.7783.93766 1.1642 2.14593 1.1642 3.36049-.0569 2.75635-2.3286 5.01555-5.2077 5.01555h-.1139l-4.3218-.0567-2.4362-.0566-6.7011-.1133h-.1645c-2.3286 0-4.54331.8811-6.25813 2.4795-1.77176 1.655-2.71458 3.8576-2.71458 6.3371 0 1.3781.22148 2.6997.8859 3.9646l-.05697.0566c-1.10735-1.4852-1.66418-3.3039-1.60723-5.2358.05695-2.3158.99979-4.4617 2.65765-6.0602 1.6642-1.5984 3.82194-2.4794 6.15056-2.4228l7.0364.1133v-1.4852l-7.0364-.1133h-.1645c-2.65769 0-5.15082.9944-7.03648 2.8634C1.16648 15.1473.05914 17.6771.00219 20.3768c-.05695 3.3605.99977 6.3371 2.993 8.3194C5.15295 30.8987 8.31051 32 12.3539 32c2.7146 0 4.8218-.8244 6.3151-2.4794 1.1073-1.3216 1.7718-3.1969 1.8287-5.2358l.0569-4.2982-2.3792-.0566-.0569 4.2981c0 1.1013-.386 2.1459-.9998 2.9766-.7214.881-1.5503 1.2649-2.6007 1.2649-1.1643 0-2.0502-.2769-2.6007-.774-.6644-.4972-.9998-1.3215-.9428-2.3662.0569-2.1459 1.8287-3.8576 3.9865-3.8576H17.2896v-1.4852L14.961 19.93h-.1139c-2.9931 0-5.42926 2.3662-5.48621 5.3428 0 .7174.11393 1.4348.38602 2.0955l.11389.2203-.16452-.2203c-.77831-.9376-1.16432-2.1459-1.16432-3.3604.05695-2.7564 2.32864-5.0156 5.20774-5.0156h.1139l4.3218.0567 2.4362.0566 6.7011.1133h.1645c4.8723 0 8.9158-3.9646 9.0297-8.8165 0-1.37821-.2215-2.69975-.8859-3.96465l.0569-.05664c1.1074 1.48516 1.6642 3.30384 1.6073 5.23579-.057 2.3158-.9998 4.4618-2.6577 6.0602-1.6578 1.5984-3.8789 2.4794-6.1505 2.4228l-7.0365-.1133v1.4852l7.0365.1133h.1645c2.6577 0 5.3722-1.0447 7.4224-2.8634C38.2786 16.7961 38.9431 14.26 39 11.6169c-.0063-3.07728-1.1137-5.99723-3.1639-8.03617zM27.4139 17.6834H27.3l-6.7011-.1133-2.4361-.0566-4.3219-.0567h-.1139c-1.7717 0-3.379.6608-4.60023 1.8754-1.27188 1.2145-1.99323 2.9199-2.05018 4.6253 0 .9377.1645 1.8753.49987 2.6997l.11394.2769-.2215-.2769c-.88588-1.1579-1.32881-2.4794-1.32881-3.9646.05695-3.4171 2.93608-6.1671 6.37201-6.1671h.1139l4.6509.0566V15.097l-4.6509-.0567h-.1139c-4.26487 0-7.75146 3.4171-7.80841 7.6586 0 1.1579.22148 2.2592.72137 3.3605l.16452.3335-.22149-.3335c-.99978-1.3215-1.49332-2.92-1.4427-4.575.05695-4.0779 3.43593-7.3817 7.53001-7.3817h.1139l6.758.1132 2.3792.0567h.057l4.2649.0566h.1139c1.7717 0 3.379-.6608 4.6002-1.8753 1.2719-1.2146 1.9933-2.91997 2.0502-4.62538 0-.93766-.1645-1.87533-.4999-2.69971l-.1645-.2769.2215.2769c.8858 1.15791 1.3288 2.47944 1.3288 3.96459 0 1.6551-.7214 3.2472-1.9363 4.4051-1.1643 1.1579-2.7146 1.8187-4.4294 1.8187h-.1139l-4.6509-.0566v1.4851l4.6509.0567h.1139c2.0502 0 3.9864-.7741 5.4292-2.2026 1.4933-1.4348 2.3286-3.3605 2.3792-5.45604 0-1.15792-.2215-2.25919-.7214-3.36047l-.1645-.33353.2215.33353c.9998 1.32153 1.4934 2.91995 1.4427 4.57501-.0063 4.0212-3.3853 7.3251-7.4857 7.3251z"/></svg>