<svg id="Layer_1" data-name="Layer 1" xmlns="http://www.w3.org/2000/svg" viewBox="0 0 500 214"><defs><style>.cls-1{fill:#01ba88;}</style></defs><path class="cls-1" d="M313.92171,94.80811H307.248L287.19209,56.18673l-.10678,38.62138h-6.63788V43.12361h6.67332l20.05632,38.5505.10632-38.5505h6.63832Zm47.08537-22.86023a37.96145,37.96145,0,0,1-.49707,5.60828,29.84888,29.84888,0,0,1-1.349,5.43108,23.47182,23.47182,0,0,1-2.37816,4.899,17.21546,17.21546,0,0,1-3.40777,3.97573,15.49484,15.49484,0,0,1-4.57916,2.69758,16.28586,16.28586,0,0,1-5.7505.95827,16.58237,16.58237,0,0,1-5.78639-.95827,15.61429,15.61429,0,0,1-4.54369-2.69758,17.97672,17.97672,0,0,1-3.4432-3.97573,25.799,25.799,0,0,1-2.41363-4.93445,32.00254,32.00254,0,0,1-1.38444-5.43108,37.21264,37.21264,0,0,1-.49707-5.57284V66.05517a40.52692,40.52692,0,0,1,.46161-5.57329,31.88117,31.88117,0,0,1,1.384-5.46652,26.101,26.101,0,0,1,2.37861-4.89855,17.61619,17.61619,0,0,1,3.44323-4.0114,14.64152,14.64152,0,0,1,4.54369-2.69782,17.339,17.339,0,0,1,11.57232,0,14.919,14.919,0,0,1,4.57912,2.66234,16.9163,16.9163,0,0,1,3.40777,4.011,23.47843,23.47843,0,0,1,2.37817,4.899A28.04327,28.04327,0,0,1,360.51,60.44644a37.96753,37.96753,0,0,1,.49707,5.60873Zm-6.49609-5.964q-.03546-1.84566-.24855-3.83352a24.99231,24.99231,0,0,0-.74563-3.97573,19.7118,19.7118,0,0,0-1.34856-3.76263,11.94981,11.94981,0,0,0-2.1301-3.15923,9.173,9.173,0,0,0-3.017-2.16552,10.34961,10.34961,0,0,0-8.05823,0,9.636,9.636,0,0,0-3.017,2.201,11.95036,11.95036,0,0,0-2.13007,3.15923A21.55454,21.55454,0,0,0,332.43135,58.21a31.79493,31.79493,0,0,0-.74517,3.97573q-.2133,1.9881-.24852,3.79808v5.964q.03542,1.81021.24852,3.83352a29.25378,29.25378,0,0,0,.78063,4.01116,23.10038,23.10038,0,0,0,1.38444,3.76264,12.55275,12.55275,0,0,0,2.1301,3.19513,9.91588,9.91588,0,0,0,3.017,2.16506,9.70765,9.70765,0,0,0,11.11068-2.16506,12.04262,12.04262,0,0,0,2.09463-3.15969,20.97677,20.97677,0,0,0,1.349-3.76263,23.35121,23.35121,0,0,0,.70975-4.01117q.2133-2.02353.24855-3.869Zm18.04845,28.82427V43.12361h11.96261a25.52046,25.52046,0,0,1,9.61992,1.84588,19.73743,19.73743,0,0,1,7.17038,4.89878,20.67936,20.67936,0,0,1,4.47283,7.52526,29.18955,29.18955,0,0,1,1.59712,9.69079v3.79852a29.50761,29.50761,0,0,1-1.59712,9.72623,21.0807,21.0807,0,0,1-4.47283,7.52526,20.335,20.335,0,0,1-7.17038,4.899,25.53,25.53,0,0,1-9.61992,1.77477Zm6.6733-46.28886V89.44791h5.28931a17.39644,17.39644,0,0,0,7.2413-1.45534,14.12422,14.12422,0,0,0,5.04077-3.94029,16.14611,16.14611,0,0,0,2.982-5.85682,26.62781,26.62781,0,0,0,1.02916-7.31262v-3.8694a26.23994,26.23994,0,0,0-1.02916-7.27718,16.54314,16.54314,0,0,0-2.982-5.82138A13.78732,13.78732,0,0,0,391.76335,50.01a17.76859,17.76859,0,0,0-7.2413-1.49078Zm47.263,40.71556h25.27429v5.5733H419.92879V43.12361h6.567Zm66.85906-18.31653H471.77229V89.23481h25.16752v5.5733H465.20212V43.12361h31.41509v5.60864H471.77229V65.345h21.58254Z"/><path class="cls-1" d="M165.57792,20.204c-10.58045-10.75119-26.1635-16.26973-45.312-16.26973C107.6731,3.93427,100.37,7.68,94.10246,14.94273c-6.29665,7.52008-7.79152,17.27057-7.79152,24.01863l-.259,19.52947,10.81035.25717.259-19.52928a22.91931,22.91931,0,0,1,4.54278-13.5248,14.57955,14.57955,0,0,1,11.58687-5.74731h.25854c5.29021,0,9.31547,1.25814,11.81678,3.517,3.01883,2.25885,4.54278,6.00467,4.28378,10.75119a17.026,17.026,0,0,1-5.54875,12.524,16.86842,16.86842,0,0,1-13.08174,5.00374l-10.58045-.25717v6.74784l10.58045.25762h.51753a24.65843,24.65843,0,0,0,23.17328-33.7977l-.51753-.74335.74789,1.0007a23.894,23.894,0,0,1,5.28976,15.269,23.43664,23.43664,0,0,1-23.66217,22.78912h-.51754L96.37385,62.751l-11.06934-.25718L54.85678,61.979h-.74744a41.54263,41.54263,0,0,0-28.435,11.26608,38.51542,38.51542,0,0,0-12.33422,28.79383,37.70484,37.70484,0,0,0,4.02526,18.01392l-.25886.25717A37.57246,37.57246,0,0,1,9.80376,96.52017,39.30146,39.30146,0,0,1,21.8793,68.98449,38.63219,38.63219,0,0,1,49.82554,57.976l31.97124.5148V51.74254l-31.97124-.5148h-.74743a44.94764,44.94764,0,0,0-31.9716,13.01041,45.30119,45.30119,0,0,0-14.34685,32.282C2.5009,111.78925,7.30232,125.314,16.35894,134.321c9.80419,10.00748,24.15117,15.01145,42.52309,15.01145q18.50147,0,28.69387-11.26563c5.03123-6.005,8.05051-14.52573,8.309-23.78986l.25853-19.52969-10.81035-.25718-.25853,19.52924A22.91925,22.91925,0,0,1,80.53182,127.544,14.32214,14.32214,0,0,1,68.715,133.29136c-5.29022,0-9.31547-1.25815-11.81677-3.51682-3.01883-2.25912-4.54279-6.00449-4.2838-10.75129a18.07857,18.07857,0,0,1,18.11343-17.52774H81.30833V94.74723l-10.58044-.25718h-.51752a24.658,24.658,0,0,0-23.1737,33.79734l.51748,1.001-.74753-1.001a23.8931,23.8931,0,0,1-5.29031-15.26862A23.437,23.437,0,0,1,65.17868,90.22943h.51752l19.63693.25762,11.06935.25718,30.44773.5148h.74743a41.28482,41.28482,0,0,0,41.02818-40.05946,37.70549,37.70549,0,0,0-4.02526-18.01415l.25853-.25735a37.57178,37.57178,0,0,1,7.30308,23.78982A39.41411,39.41411,0,0,1,132.14043,95.262l-31.97169-.51479v6.74828l31.97169.5148h.74744A51.673,51.673,0,0,0,166.613,88.99991c10.06291-8.74933,13.0822-20.27259,13.34074-32.282C179.92506,42.73567,174.89338,29.46832,165.57792,20.204ZM127.31,84.28219h-.51753l-30.44773-.5148-11.06889-.25717L65.6385,83.25259H65.121a29.18422,29.18422,0,0,0-20.902,8.52124,30.71657,30.71657,0,0,0-9.31539,21.01594,32.87631,32.87631,0,0,0,2.27126,12.2666l.51771,1.25815-1.00643-1.25815a28.85555,28.85555,0,0,1-6.0377-18.01392c.25876-15.52625,13.34064-28.0214,28.95245-28.0214h.51752l21.13225.25717V72.53039l-21.13225-.25763h-.51752a35.415,35.415,0,0,0-35.479,34.79832,36.161,36.161,0,0,0,3.27768,15.26907l.74753,1.51533-1.00638-1.51533a32.56405,32.56405,0,0,1-6.55519-20.78739A34.23664,34.23664,0,0,1,54.79953,68.01259h.51752l30.70627.51435,10.81035.25763h.259l19.3784.25717h.51752A29.18515,29.18515,0,0,0,137.89047,60.521,30.71694,30.71694,0,0,0,147.206,39.50465,32.87443,32.87443,0,0,0,144.93456,27.238l-.74744-1.25814,1.00643,1.25814a28.8582,28.8582,0,0,1,6.03766,18.01388,27.84081,27.84081,0,0,1-8.798,20.01541,28.21181,28.21181,0,0,1-20.12582,8.26362h-.51753l-21.13226-.25718v6.74784l21.13226.25763h.51753A34.82038,34.82038,0,0,0,146.976,70.27126,35.17279,35.17279,0,0,0,157.78639,45.4807a36.15931,36.15931,0,0,0-3.27783-15.26894l-.74742-1.51546,1.00643,1.51546a32.56144,32.56144,0,0,1,6.55518,20.78743C161.29411,69.27029,145.941,84.28219,127.31,84.28219Z"/><path d="M13.251,170.56836l3.82177,16.57715.83252,4.61328.835-4.51856,3.26954-16.67187h6.38281L31.832,187.14258l.88086,4.61621.89356-4.43652,3.85888-16.75391H43.624l-8.14355,28.94726h-5.792l-3.49561-16.92871-1.021-5.59668-1.02149,5.59668-3.4956,16.92871H15.03711l-8.208-28.94726Z"/><path d="M62.207,178.22852a6.276,6.276,0,0,1,2.64942,2.10253,5.608,5.608,0,0,1,1.07519,2.46778,30.5,30.5,0,0,1,.1958,4.13672v12.58007H60.4126V186.48047a5.7783,5.7783,0,0,0-.585-2.792,2.92991,2.92991,0,0,0-2.88477-1.49414,3.95946,3.95946,0,0,0-3.34375,1.48437A6.838,6.838,0,0,0,52.459,187.916v11.5996H46.8623V170.667H52.459v10.21192a6.84386,6.84386,0,0,1,2.80616-2.60254,7.91071,7.91071,0,0,1,3.35351-.73633A9.05448,9.05448,0,0,1,62.207,178.22852Z"/><path d="M77.14453,175.55664H71.46875v-5.165h5.67578Zm-5.67578,2.55274h5.67578v21.40624H71.46875Z"/><path d="M86.9043,192.68164a3.72624,3.72624,0,0,0,.76953,2.12109q1.04589,1.11915,3.86719,1.11915a5.92309,5.92309,0,0,0,2.63476-.49122,1.64443,1.64443,0,0,0,.18945-2.90625,32.11875,32.11875,0,0,0-5.85546-1.68945,12.16033,12.16033,0,0,1-5.14063-2.25781,4.89593,4.89593,0,0,1-1.49219-3.84961,6.67033,6.67033,0,0,1,2.332-5.0957,9.37711,9.37711,0,0,1,6.56348-2.13086,12.05654,12.05654,0,0,1,6.543,1.60058q2.52978,1.60108,2.90332,5.52832H94.62207a3.31171,3.31171,0,0,0-.61035-1.709,3.84989,3.84989,0,0,0-3.15137-1.13867,4.53311,4.53311,0,0,0-2.6084.56933,1.63981,1.63981,0,0,0-.77832,1.33594,1.45838,1.45838,0,0,0,.82715,1.39355,35.76649,35.76649,0,0,0,5.84375,1.55176,10.71261,10.71261,0,0,1,5.01367,2.376,5.39827,5.39827,0,0,1,1.65039,4.02637,6.4991,6.4991,0,0,1-2.37207,5.19433q-2.37158,2.0127-7.3291,2.0127-5.05811,0-7.46777-2.13086a6.92412,6.92412,0,0,1-2.41113-5.42969Z"/><path d="M122.93359,180.40723q2.61915,2.77,2.61914,8.13086,0,5.65575-2.55957,8.62109a8.31108,8.31108,0,0,1-6.59179,2.96484,6.905,6.905,0,0,1-4.26953-1.27636,8.23322,8.23322,0,0,1-1.81836-2.06153v11.1543h-5.53809V178.10938h5.36133v3.1621a8.98372,8.98372,0,0,1,1.93652-2.19921,7.14464,7.14464,0,0,1,4.4668-1.4336A8.46569,8.46569,0,0,1,122.93359,180.40723Zm-4.29589,4.02636a3.98021,3.98021,0,0,0-3.69922-1.90527,4.20871,4.20871,0,0,0-4.22657,2.88672,10.85728,10.85728,0,0,0-.59472,3.88867q0,3.731,2.002,5.24317a4.58886,4.58886,0,0,0,2.81738.88378,4.09693,4.09693,0,0,0,3.60254-1.80664,9.45923,9.45923,0,0,0,.09864-9.19043Z"/><path d="M143.44922,178.543a8.70739,8.70739,0,0,1,3.69922,3.167,10.51,10.51,0,0,1,1.70508,4.42578,27.17273,27.17273,0,0,1,.18457,4.24805H133.44824q.13038,3.22119,2.23828,4.5166a5.68329,5.68329,0,0,0,3.08594.80566,4.34987,4.34987,0,0,0,4.25977-2.45507h5.71386a6.98409,6.98409,0,0,1-2.07519,3.86914q-2.87548,3.12158-8.05274,3.12207a11.66888,11.66888,0,0,1-7.54-2.63379q-3.2666-2.63379-3.2666-8.57031,0-5.562,2.94922-8.5293A10.32054,10.32054,0,0,1,138.415,177.54,12.197,12.197,0,0,1,143.44922,178.543Zm-8.37305,4.835a5.8169,5.8169,0,0,0-1.49121,3.31348h9.64258a4.66887,4.66887,0,0,0-1.49024-3.38184,4.90533,4.90533,0,0,0-3.32031-1.1543A4.442,4.442,0,0,0,135.07617,183.37793Z"/><path d="M163.75977,177.60938c.07226.00585.23242.0166.48144.02929v5.73438q-.53027-.05861-.94336-.0791-.41162-.019-.667-.01954-3.37793,0-4.53711,2.2002a8.56113,8.56113,0,0,0-.64746,3.80957v10.23144h-5.63672V178.10938h5.3418v3.73144a11.83213,11.83213,0,0,1,2.25879-2.92578,6.147,6.147,0,0,1,4.085-1.31543C163.59961,177.59961,163.6875,177.60254,163.75977,177.60938Z"/><path d="M200.17969,170.56836v5.126h-8.66114v23.82128h-6.08789V175.69434h-8.69921v-5.126Z"/><path d="M212.9541,177.60938c.07227.00585.23242.0166.48145.02929v5.73438q-.53028-.05861-.94336-.0791-.41163-.019-.667-.01954-3.37794,0-4.53711,2.2002a8.56111,8.56111,0,0,0-.64747,3.80957v10.23144h-5.63671V178.10938h5.34179v3.73144a11.83261,11.83261,0,0,1,2.25879-2.92578,6.147,6.147,0,0,1,4.085-1.31543C212.794,177.59961,212.88184,177.60254,212.9541,177.60938Z"/><path d="M225.19238,186.49512a8.80682,8.80682,0,0,0,2.23535-.49121,1.68294,1.68294,0,0,0,1.207-1.58985,1.88225,1.88225,0,0,0-.92579-1.81738,5.86079,5.86079,0,0,0-2.71679-.5,3.56831,3.56831,0,0,0-2.84668.98144,4.03827,4.03827,0,0,0-.7959,1.96387h-5.40137a8.19237,8.19237,0,0,1,1.57813-4.61523q2.228-2.82716,7.65332-2.82715a13.65466,13.65466,0,0,1,6.27148,1.39355q2.7422,1.39454,2.74121,5.26368v9.81933q0,1.021.04,2.47363a3.10913,3.10913,0,0,0,.333,1.49317,2.00364,2.00364,0,0,0,.82519.64746v.82519h-6.08789a6.2409,6.2409,0,0,1-.35351-1.21777q-.09814-.56835-.15723-1.2959a11.54315,11.54315,0,0,1-2.68652,2.14063,8.12127,8.12127,0,0,1-4.1084,1.041,7.09133,7.09133,0,0,1-4.83008-1.66015,5.9009,5.9009,0,0,1-1.90625-4.70313,6.09534,6.09534,0,0,1,3.06641-5.71484,13.71131,13.71131,0,0,1,4.94629-1.374Zm3.42285,2.6123a6.23455,6.23455,0,0,1-1.085.54,9.19991,9.19991,0,0,1-1.50293.38281l-1.27441.23535a8.36276,8.36276,0,0,0-2.57227.76661,2.55465,2.55465,0,0,0-1.32226,2.376,2.47846,2.47846,0,0,0,.80762,2.07129,3.06607,3.06607,0,0,0,1.96386.63867,5.84755,5.84755,0,0,0,3.37989-1.06054q1.54541-1.06054,1.60546-3.86914Z"/><path d="M251.88672,185.78809a4.96247,4.96247,0,0,0-.80664-2.16016,3.389,3.389,0,0,0-2.9336-1.2959,3.862,3.862,0,0,0-3.87793,2.80859,11.6393,11.6393,0,0,0-.55078,3.95606,10.70707,10.70707,0,0,0,.55078,3.78125,3.74268,3.74268,0,0,0,3.7793,2.6709,3.337,3.337,0,0,0,2.7959-1.06055,5.27367,5.27367,0,0,0,1.00391-2.749h5.71484a9.37215,9.37215,0,0,1-1.84766,4.83105,8.9864,8.9864,0,0,1-7.80468,3.67188q-5.16943,0-7.60743-3.06348a12.37246,12.37246,0,0,1-2.4375-7.94433q0-5.50782,2.69239-8.57129a9.37832,9.37832,0,0,1,7.43164-3.06348,11.19046,11.19046,0,0,1,6.59472,1.80664q2.565,1.80615,3.03711,6.38184Z"/><path d="M267.20508,175.55664H261.5293v-5.165h5.67578Zm-5.67578,2.55274h5.67578v21.40624H261.5293Z"/><path d="M289.88672,179.33691q2.10206,1.73877,2.10254,5.76368v14.415h-5.73438v-13.0205a5.97968,5.97968,0,0,0-.44824-2.5918,3.15045,3.15045,0,0,0-3.11914-1.64941,3.86654,3.86654,0,0,0-3.87988,2.415,8.34584,8.34584,0,0,0-.5459,3.25976v11.58691H272.665V178.14941H278.085v3.12207a9.48783,9.48783,0,0,1,2.03418-2.376,7.043,7.043,0,0,1,4.36035-1.2959A8.20763,8.20763,0,0,1,289.88672,179.33691Z"/><path d="M307.78223,178.08984a6.72416,6.72416,0,0,1,3.29492,3.10352v-3.084h5.46V198.416a11.37434,11.37434,0,0,1-1.39453,6.24511q-2.39649,3.61231-9.19043,3.61328a12.52706,12.52706,0,0,1-6.69727-1.61035,5.94126,5.94126,0,0,1-2.86718-4.81152h6.08789a2.52233,2.52233,0,0,0,.76562,1.41406,4.73061,4.73061,0,0,0,3.04395.76563q3.0249,0,4.04589-2.02246a10.24121,10.24121,0,0,0,.668-4.35938v-1.375a6.8318,6.8318,0,0,1-1.72851,2.06152,6.94669,6.94669,0,0,1-4.33985,1.27735,8.211,8.211,0,0,1-6.58886-2.89746,11.70627,11.70627,0,0,1-2.46485-7.84473,13.23777,13.23777,0,0,1,2.373-8.02246,7.83724,7.83724,0,0,1,6.72754-3.25A7.35958,7.35958,0,0,1,307.78223,178.08984Zm1.90625,15.34766q1.34911-1.48242,1.34961-4.72266a7.24649,7.24649,0,0,0-1.28125-4.63476,4.17911,4.17911,0,0,0-3.43164-1.59082,4.04437,4.04437,0,0,0-4.04786,2.76855,9.85149,9.85149,0,0,0-.58691,3.63379,8.32364,8.32364,0,0,0,.625,3.31836,4.07982,4.07982,0,0,0,4.06836,2.71A4.29746,4.29746,0,0,0,309.68848,193.4375Z"/><path d="M352.82031,186.98633q-2.54149,2.12109-7.25976,2.12109H339.5332v10.4082h-6.00879V170.56836h12.42871a10.027,10.027,0,0,1,6.85352,2.23926q2.55615,2.23827,2.55566,6.93164Q355.3623,184.86622,352.82031,186.98633Zm-4.61621-10.42774a4.87289,4.87289,0,0,0-3.21972-.96289H339.5332v8.52344h5.45118a4.62329,4.62329,0,0,0,3.21972-1.041,4.247,4.247,0,0,0,1.14844-3.29882A3.99088,3.99088,0,0,0,348.2041,176.55859Z"/><path d="M371.65234,177.60938c.07227.00585.23243.0166.48145.02929v5.73438q-.53028-.05861-.94336-.0791-.41161-.019-.667-.01954-3.37794,0-4.53711,2.2002a8.56113,8.56113,0,0,0-.64746,3.80957v10.23144h-5.63672V178.10938h5.3418v3.73144a11.83239,11.83239,0,0,1,2.25878-2.92578,6.147,6.147,0,0,1,4.085-1.31543C371.49219,177.59961,371.58008,177.60254,371.65234,177.60938Z"/><path d="M393.26367,196.89648q-2.71,3.34571-8.22851,3.34571-5.51807,0-8.22852-3.34571a13.28028,13.28028,0,0,1,0-16.0791q2.71-3.39551,8.22852-3.39453,5.51952,0,8.22851,3.39453a13.27646,13.27646,0,0,1,0,16.0791Zm-4.47754-3.09277a9.98938,9.98938,0,0,0,0-9.91309,4.9745,4.9745,0,0,0-7.55078,0,9.932,9.932,0,0,0,0,9.91309,4.95639,4.95639,0,0,0,7.55078,0Z"/><path d="M397.78125,182.293v-3.98731h2.98535v-5.96972h5.53809v5.96972h3.47558V182.293h-3.47558v11.31152a2.54643,2.54643,0,0,0,.334,1.63965,3.67668,3.67668,0,0,0,2.042.32422c.16993,0,.35059-.00293.54-.00977s.376-.0166.55957-.02929v4.18261l-2.65039.09864q-3.96825.13623-5.4209-1.375a4.09551,4.09551,0,0,1-.94238-2.96582V182.293Z"/><path d="M431.22461,196.89648q-2.71,3.34571-8.22852,3.34571-5.51806,0-8.22851-3.34571a13.28028,13.28028,0,0,1,0-16.0791q2.71-3.39551,8.22851-3.39453,5.51954,0,8.22852,3.39453a13.27646,13.27646,0,0,1,0,16.0791Zm-4.47754-3.09277a9.98938,9.98938,0,0,0,0-9.91309,4.9745,4.9745,0,0,0-7.55078,0,9.93189,9.93189,0,0,0,0,9.91309,4.95639,4.95639,0,0,0,7.55078,0Z"/><path d="M450.74609,185.78809a4.96247,4.96247,0,0,0-.80664-2.16016,3.389,3.389,0,0,0-2.93359-1.2959,3.862,3.862,0,0,0-3.87793,2.80859,11.6393,11.6393,0,0,0-.55078,3.95606,10.70707,10.70707,0,0,0,.55078,3.78125,3.74268,3.74268,0,0,0,3.7793,2.6709,3.33694,3.33694,0,0,0,2.79589-1.06055,5.2735,5.2735,0,0,0,1.00391-2.749h5.71485a9.37224,9.37224,0,0,1-1.84766,4.83105,8.98642,8.98642,0,0,1-7.80469,3.67188q-5.16943,0-7.60742-3.06348a12.37246,12.37246,0,0,1-2.4375-7.94433q0-5.50782,2.69238-8.57129a9.37832,9.37832,0,0,1,7.43164-3.06348,11.19047,11.19047,0,0,1,6.59473,1.80664q2.56494,1.80615,3.03711,6.38184Z"/><path d="M478.16113,196.89648q-2.71,3.34571-8.22851,3.34571-5.51806,0-8.22852-3.34571a13.28028,13.28028,0,0,1,0-16.0791q2.71-3.39551,8.22852-3.39453,5.51952,0,8.22851,3.39453a13.27646,13.27646,0,0,1,0,16.0791Zm-4.47754-3.09277a9.98938,9.98938,0,0,0,0-9.91309,4.9745,4.9745,0,0,0-7.55078,0,9.932,9.932,0,0,0,0,9.91309,4.95639,4.95639,0,0,0,7.55078,0Z"/><path d="M490.59277,199.51562h-5.59765V170.56836h5.59765Z"/></svg>