<svg xmlns="http://www.w3.org/2000/svg" role="img" viewBox="-14.99 -14.99 779.48 571.48"><title>north carolina</title><path fill="#bf0a30" fill-rule="evenodd" d="M0 .043h750v250.065H0z"/><path fill="#fff" fill-rule="evenodd" d="M0 250.169h750v249.828H0z"/><path fill="#002868" fill-rule="evenodd" d="M0 0h250.031v500H0z"/><path fill="#ffca00" fill-rule="evenodd" stroke="#002868" d="M37.39487 117.30837c-15.63097 8.72859-18.46516 12.36895-27.03194 19.06294l18.99786.39755c-.22617 1.76923-4.37344 23.79562-4.76666 25.35001 14.30278-9.50474 21.08946-13.86162 40.60374-19.35917 7.75366-2.15294-.6098-10.03069-1.4167-12.12628-5.30129 2.39271-9.37767 5.23388-13.28562 8.71545"/><path fill="#ffca00" fill-rule="evenodd" stroke="#002868" d="M50.74868 139.16458c29.1392-26.69352 125.55769-26.05555 152.41182.82479.86636-.31158 18.23956-29.62117 17.3732-29.30958-52.72332-36.935-147.19447-30.6074-186.84422-1.45924l.47032 1.73981 16.58888 28.20422z"/><path fill="none" stroke="#002868" stroke-linecap="round" stroke-linejoin="round" stroke-width="3.125" d="M55.75715 127.58192c-.1447-.38131-8.47236-15.88903-8.47236-15.88903l13.6308 12.01247-3.17161-17.5521 8.92716 15.01847m38.52225-20.37723c.05942-4.74137 3.8591-5.06076 6.47447-4.2404 1.53423 1.17027 2.33972 4.984.50095 7.15785l-3.69238 3.14689c-1.27674 1.59613-2.69048 3.4184-2.59887 5.42472l8.34212-.31857m6.11542-16.23368c-1.5235.74443-2.03601 1.92214-2.38924 3.666-.22778 2.00549-.12627 6.74769.28391 8.70778.3656 1.45914.72873 2.41649 1.82391 3.37385 1.27673.72956 2.68964.59339 3.46542.0916 1.04813-.59256 1.7777-1.82392 2.14248-3.28305.59256-1.86932.54717-7.34026.13617-9.34657-.37963-1.337-.85088-2.4008-1.91469-3.19145-1.27674-.54717-2.773-.42833-3.54796-.01816zm39.84069 4.55513c1.58797-.66322 2.79531-1.47496 4.11902-3.02987l-2.34335 16.51059m10.42395-14.32614c.19052.07219 7.93002 2.32237 7.93002 2.32237-3.7743 4.71527-6.86888 8.90389-9.39134 14.22719m16.1523-12.43586l7.67197 3.78416c-4.55497 3.25572-8.3003 7.35223-11.61492 12.14274m23.39353-6.00079l-5.02517-2.94654-4.44429 6.01754c3.19234-.62939 5.33777.33484 6.25561 3.23184.56313 4.26717-1.99424 6.70295-4.75817 6.77913-2.90836-.06608-4.40949-1.6633-4.81875-5.01484m-122.78798-2.52517s.48518-17.92481.66642-17.90506c.079-.72528 10.12161 14.8613 10.12161 14.8613h0m-10.45934-3.34108l6.82275-2.00797"/><path fill="#ffca00" fill-rule="evenodd" d="M31.43851 288.13873l9.96883.13411-.31497-43.18746 19.10807 43.41528 10.37242-.00086v-63.52346l-10.12487.13583.15394 40.16307-17.86018-39.98339-11.1493.13497-.15394 62.71191zm182.19246-43.00754h10.61712l-.12809-5.59745c-.30089-3.61586-1.66693-8.19715-5.23377-11.58434-2.37445-2.64269-5.18477-4.13512-8.8307-5.1315-3.09487-1.21474-10.67386-.85711-14.5201 1.2947-4.5486 2.54039-8.39053 7.07096-10.95498 14.3706-3.36481 12.29101-1.84488 27.68207.28714 34.92497 2.53865 7.67618 6.52072 11.77261 11.82068 14.35685 3.29862 1.10814 9.05336 1.95407 14.43843.49518 5.8665-2.21887 8.54786-6.07114 10.87761-10.17961 1.41419-2.7811 3.03727-8.11205 2.75444-14.02071l-11.07792.13497c.00774 2.16213-.4307 4.65781-.98004 6.81994-1.25342 3.02267-3.18944 5.04553-8.00196 5.04467-3.22554-.00344-5.40571-1.33167-7.21105-3.71215-2.43635-2.35212-3.0751-7.61773-3.23758-9.10585-.73417-6.72107-.7548-13.37508 1.18207-20.38759.73761-2.83354 2.20424-5.45474 4.12306-6.73138 3.10948-1.68586 6.32643-1.43569 8.14552-.9044 2.38821.73762 4.59159 2.52234 5.27934 4.88563.53472 2.2223.61983 3.57374.65078 5.02747z"/><path fill="#fff" fill-rule="evenodd" d="M151.99654 290.2245l-23.79866-18.49471-24.42592 18.38012 9.67856-28.78479-24.76346-18.22187 29.78034.70472 9.12126-29.64186 8.72671 29.22034 30.4007-.09781-24.38694 17.35445 9.66741 29.58141z"/><path fill="none" stroke="#000" stroke-width="1pt" d="M50.75768 139.26969s0 0 0 0"/><path fill="none" stroke="#002868" d="M50.83126 139.18109c1.04824 1.07204 3.12055.80575 5.98004.26358 2.28296-.27557 4.88443-.3803 6.93153-.61656 3.38866.27678 5.32993 1.06983 3.93697 2.67738"/><path fill="#ffca00" fill-rule="evenodd" stroke="#002868" d="M216.6449 118.25092c15.63096 8.72859 18.46516 12.36895 27.03193 19.06294l-18.99786.39755c.22617 1.76923 4.37345 23.79562 4.76667 25.35002-14.30279-9.50474-21.08947-13.86163-40.60375-19.35918-7.75366-2.15293.88965-10.17037 1.69655-12.26597 5.30121 2.39274 9.79747 5.23372 13.00577 8.85514"/><path fill="none" stroke="#000" stroke-width="1pt" d="M203.2811 140.21232s0 0 0 0"/><path fill="none" stroke="#002868" d="M202.98477 140.12372c-1.7548.81119-3.56605.45257-5.75729.26358-2.07936-.30258-4.43892-.65707-6.77429-.73579-3.9148.02701-5.32994 1.66158-4.09421 2.79661"/><path fill="none" stroke="#002868" stroke-linecap="round" stroke-linejoin="round" stroke-width="2.25" d="M129.37407 101.8685c3.02592.05506 5.95289.17415 5.95289.17415m3.33956-4.12882l-.35282 14.42287m6.63111.65373c.8437-10.35205-.51121-10.72127-5.51164-10.69845"/><path fill="none" stroke="#002868" stroke-linecap="round" stroke-linejoin="round" stroke-width="2.25" d="M131.73442 97.39167l-.22275 11.98889c-.03225 2.27451.67531 2.92231 2.65388 2.92231"/><path fill="none" stroke="#002868" stroke-linecap="round" stroke-linejoin="round" stroke-width="3.125" d="M80.6006 98.95909l7.41132 7.51895 1.33854 8.16428m2.89773-18.2663L88.1869 106.8381"/><path fill="#ffca00" fill-rule="evenodd" stroke="#002868" d="M38.02482 387.45054c-15.63096-8.53542-18.46516-12.09521-27.03193-18.64106l18.99786-.38875c-.22617-1.73007-4.37345-23.26899-4.76667-24.78898 14.30279 9.29439 21.08946 13.55485 40.60375 18.93073 7.75365 2.10529-.6098 9.8087-1.4167 11.85791-5.3013-2.33976-9.37767-5.11805-13.28563-8.52256"/><path fill="#ffca00" fill-rule="evenodd" stroke="#002868" d="M51.37864 366.07779c29.1392 26.10279 125.55768 25.47893 152.41181-.80654.86636.3047 18.23957 28.96565 17.37321 28.66096-52.72332 36.11761-147.19447 29.93003-186.84422 1.42694l.47032-1.7013 16.58888-27.58006z"/><path fill="none" stroke="#000" stroke-width="1.318" d="M50.75768 366.29011s0 0 0 0"/><path fill="none" stroke="#002868" d="M51.4612 366.06176c1.04825-1.04831 3.12056-.78791 5.98005-.25774 2.28296.26947 4.88443.37188 6.93153.60291 3.38866-.27065 5.32993-1.04615 3.93697-2.61813"/><path fill="#ffca00" fill-rule="evenodd" stroke="#002868" d="M217.27395 386.52888c15.63096-8.53542 18.46516-12.09521 27.03193-18.64106l-18.99786-.38875c.22617-1.73007 4.37345-23.26899 4.76667-24.78898-14.30279 9.29439-21.08947 13.55485-40.60375 18.93073-7.75366 2.10529.88965 9.94529 1.69655 11.9945 5.30121-2.33978 9.79747-5.11789 13.00577-8.65915"/><path fill="none" stroke="#000" stroke-width="1.318" d="M203.2811 365.36845s0 0 0 0"/><path fill="none" stroke="#002868" d="M203.61467 365.1401c-1.7548-.79323-3.56605-.44255-5.75729-.25774-2.07936.29589-4.43892.64253-6.77429.71951-3.9148-.02642-5.32994-1.62481-4.09421-2.73473"/><path fill="none" stroke="#002868" stroke-linecap="round" stroke-linejoin="round" stroke-width="3.125" d="M126.72341 400.30947c1.25519-4.30713 4.11564-3.78007 6.66626-3.1899 2.04815 1.40554 2.34166 5.23547.38511 7.46441l-3.59003 2.73383c-1.51803 1.00828-3.02521 2.87917-2.9681 4.97048l8.69433-.17254m-17.96551-12.38842c1.57498-.85608 1.95281-1.19531 3.15916-2.94728l-.67325 15.57624"/><path fill="none" stroke="#002868" stroke-linecap="round" stroke-width="3.125" d="M98.77065 392.87564c-.00272.09539-2.64986 16.26945-2.76378 16.93101l8.42317 1.19084"/><path fill="none" stroke="#002868" stroke-linecap="round" stroke-linejoin="round" stroke-width="3.125" d="M88.88086 408.9443l2.5924-17.6436"/><path fill="none" stroke="#002868" stroke-linecap="round" stroke-width="3.125" d="M58.78978 399.69412l6.42654-16.316c1.92477.96501 4.40477 1.34577 6.54363 3.2539 1.38883 2.309.74907 7.04476-3.23018 7.49411-2.19276-.2926-4.02497-1.35457-5.94734-2.22505"/><path fill="none" stroke="#002868" stroke-linecap="round" stroke-linejoin="round" stroke-width="3.084" d="M163.90836 396.39045c1.27102-1.23519 2.1352-2.48107 2.86173-4.51041l3.28558 17.31801"/><path fill="none" stroke="#002868" stroke-linecap="round" stroke-linejoin="round" stroke-width="3.125" d="M171.32365 391.40704c.20548-.05308 8.41179-2.92307 8.41179-2.92307-.37757 6.28012-.49471 12.30812.29059 17.88209m4.01884-19.36687l8.41376-3.29285c-.36159 6.36743-.75563 13.14755.41437 17.92462m11.16416-21.2272c-.961-1.59064-2.43-2.17459-4.49402-1.63212-1.91392 1.67942-2.26998 3.00416-2.40549 5.04704.07871 2.53165.77545 5.0309 1.92502 7.26465.78868 2.08228 2.49374 3.5691 3.77804 3.89578 1.45428.5362 2.54374.39913 3.71007-.60972.88983-1.12276 1.29451-3.00763 1.21239-4.42784-.27682-1.88481-1.12778-3.59224-3.04967-4.5922-1.4874-.60967-2.10197-.73445-3.44476-.16364-2.03895 1.2046-2.40954 3.43501-2.1068 5.70932"/><path fill="none" stroke="#002868" stroke-linecap="round" stroke-linejoin="round" stroke-width="2.25" d="M138.00182 401.70758c3.02317-.14029 5.95173-.21029 5.95173-.21029m-3.88518-4.4096l.55125 11.97829c.11456 2.27186.86246 2.87265 2.8369 2.74499m2.47438-14.84794l1.66043 14.33131m6.65793-.27671c-.60707-10.36863-2.00021-10.54544-6.94868-9.82604"/><path fill="none" stroke="#002868" stroke-linecap="round" stroke-linejoin="round" stroke-width="3.125" d="M43.75784 392.40993s12.87518-13.53203 13.00166-13.39037c.5669-.50613-2.53124 18.55813-2.53124 18.55813h0m-5.76364-9.8792l6.67974 3.20408"/><path fill="none" stroke="#002868" stroke-linecap="round" stroke-width="3.125" d="M72.80236 405.54441c-.00243-.09539 4.6861-17.50672 4.6861-17.50672 2.00765.48736 4.10546.78236 6.023 1.46292 1.34147.44063 3.3788 2.09937 2.5918 4.77924-.37047 1.62528-1.12556 3.06943-2.2749 3.95343"/><path fill="none" stroke="#002868" stroke-linecap="round" stroke-linejoin="round" stroke-width="3.125" d="M75.42426 396.54619l6.4077 1.6432c1.72598.62092 2.14434 2.13071 2.14674 2.22525.321 1.41768-.75897 7.52508-.75897 7.52508"/><path d="M65.1044 515.90788v12.47501c0 2.15816.33685 3.83846 1.00662 5.04092 1.2573 2.20124 3.64654 3.30578 7.15991 3.30578 3.5173 0 5.8987-1.10454 7.14816-3.30578.66978-1.20246 1.0027-2.88276 1.0027-5.04092v-12.475h-4.30847v12.475c0 1.3983-.16451 2.41667-.49352 3.05902-.51702 1.13587-1.6333 1.70773-3.34887 1.70773-1.72339 0-2.8436-.57186-3.36061-1.70773-.32901-.64235-.49352-1.66072-.49352-3.05902v-12.475zm8.16653 0zm24.00999 6.14938c-.98704-.8147-2.25608-1.21813-3.80713-1.21813-1.24163 0-2.26391.3016-3.07077.9087-.45043.33685-.92828.89303-1.43355 1.66464v-2.1895h-3.78755v14.98177h3.91289v-8.12344c0-.92829.12533-1.68814.38384-2.28742.49744-1.12803 1.41005-1.69205 2.74176-1.69205 1.08104 0 1.8174.38384 2.20124 1.15545.21151.42302.31727 1.03012.31727 1.8174v9.13006h4.02255V526.0994c0-1.88399-.49352-3.23136-1.48055-4.04214zm-5.25635-1.26121zm14.39033-1.39047v-3.62304h-3.97947v3.62304zm-3.97947 1.78998v15.00918h3.97947v-15.00918zm6.23946 2.93368h2.09157v9.23974c0 .93611.22326 1.62938.66194 2.07982.6776.70502 1.94665 1.0262 3.7993.96353l1.86048-.0705v-2.93369a6.37335 6.37335 0 0 1-.39168.0235c-.13318.00392-.25851.00784-.37993.00784-.79903 0-1.27688-.07834-1.43355-.2311-.15276-.14883-.2311-.53268-.2311-1.14762v-7.93152h2.43626v-2.79659h-2.43625v-4.18314h-3.88547v4.18314h-2.09157zm14.73892.75595c.50135-.56794 1.20637-.85387 2.11507-.85387.83428 0 1.53539.27026 2.0994.80687.56402.5366.88128 1.32387.94395 2.36183h-6.09845c.12533-.97529.4426-1.74298.94003-2.31483zm5.48743-3.38803c-.99878-.4661-2.1229-.70111-3.37236-.70111-2.10332 0-3.81105.69327-5.131 2.07982-1.31605 1.38655-1.97408 3.3802-1.97408 5.97704 0 2.77309.72853 4.77457 2.1895 6.00445 1.46096 1.22988 3.14519 1.84481 5.05267 1.84481 2.31483 0 4.11264-.73244 5.39735-2.18949.82644-.92045 1.29254-1.82523 1.39046-2.71434h-4.00688c-.21151.4426-.45435.78728-.72853 1.03403-.50527.45827-1.15937.68936-1.97015.68936-.75986 0-1.41396-.188-1.95448-.56793-.88912-.6032-1.36305-1.66073-1.41788-3.16478h10.27376c.01567-1.29646-.0235-2.28741-.12534-2.97677-.17625-1.17504-.55618-2.20516-1.1437-3.09819-.65019-1.00661-1.47663-1.74689-2.47934-2.2169zm-3.09818-.70111zm17.44934.64235c-.70894-.39951-1.5158-.59927-2.4245-.59927-1.97407 0-3.55254.73244-4.7315 2.20124-1.17895 1.4688-1.77039 3.48596-1.77039 6.04754 0 2.22083.59927 4.03822 1.79781 5.46002 1.19854 1.41788 2.67518 2.12683 4.4299 2.12683 1.06146 0 1.95449-.20368 2.67126-.6071.71286-.40344 1.3513-1.04971 1.9114-1.94274v2.07982h3.81496V515.9353h-3.97946v7.15991c-.43869-.70502-1.01446-1.2573-1.71948-1.6568zm.96353 10.69287c-.57968.82253-1.42571 1.2377-2.53417 1.2377-1.11237 0-1.93881-.41517-2.48716-1.24554-.54444-.83036-.81862-1.93881-.81862-3.32536 0-1.28471.27026-2.36183.80686-3.23136.5366-.86561 1.37872-1.30038 2.52634-1.30038.75203 0 1.41397.23893 1.9819.71678.92828.78727 1.39047 2.10332 1.39047 3.93638 0 1.31605-.28985 2.38533-.86562 3.21178zm19.52525-2.1895h-4.04997c0 2.11116.75986 3.76797 2.27174 4.97434 1.5158 1.2103 3.59563 1.81348 6.23947 1.81348 2.589 0 4.59049-.61494 6.00837-1.8409 1.4218-1.22204 2.13074-2.76526 2.13074-4.6179 0-1.80956-.6071-3.1922-1.8174-4.14398-.78336-.61493-1.93881-1.10845-3.47028-1.47271l-3.4977-.84212c-1.3513-.32117-2.23258-.59927-2.64385-.8382-.64235-.36034-.96353-.90086-.96353-1.62546 0-.7912.3251-1.40613.97528-1.84482.65411-.4426 1.52364-.66194 2.61643-.66194.98311 0 1.80564.16843 2.46366.50919.99487.5131 1.52756 1.38263 1.59806 2.60075h4.07739c-.07442-2.15424-.86562-3.7993-2.3775-4.93516-1.50797-1.13196-3.3332-1.6999-5.47177-1.6999-2.56159 0-4.50432.59928-5.82428 1.80173-1.32388 1.20638-1.9819 2.71435-1.9819 4.53174 0 1.99365.68152 3.45853 2.04848 4.39465.81078.5601 2.26783 1.07712 4.37899 1.55497l2.15032.48177c1.2573.27417 2.18166.59143 2.76918.95178.58752.36426.88128.8852.88128 1.55497 0 1.14762-.59536 1.93098-1.77823 2.354-.62277.21934-1.43747.329-2.43625.329-1.67247 0-2.85143-.41517-3.54079-1.25337-.37601-.45827-.62668-1.15154-.75594-2.0759zm4.11656-14.65274zm9.76458 8.84021h2.09157v9.23974c0 .93611.21934 1.62938.66194 2.07982.6776.70502 1.94665 1.0262 3.7993.96353l1.86048-.0705v-2.93369c-.12926.01175-.26243.01959-.3956.0235-.13317.00392-.2585.00784-.37601.00784-.79903 0-1.27688-.07834-1.43355-.2311-.15667-.14883-.23501-.53268-.23501-1.14762v-7.93152h2.44017v-2.79659h-2.44017v-4.18314h-3.88155v4.18314h-2.09157zm19.20799 4.7785v1.46097c-.02742 1.31213-.3956 2.2169-1.10846 2.71042-.71285.49744-1.48838.7442-2.33441.7442-.53268 0-.98312-.14884-1.35521-.44652-.3721-.29768-.5601-.78336-.5601-1.45313 0-.75203.3055-1.30821.9087-1.66856.36034-.2115.95177-.38776 1.77822-.5366l.88128-.1645c.43868-.08226.78728-.17235 1.03795-.26635.2546-.09792.50527-.22326.75203-.37993zm-2.38142-1.83306l-1.33563.1645c-1.5158.19584-2.66342.51702-3.44286.96745-1.4218.82645-2.13466 2.16208-2.13466 4.00689 0 1.4218.4426 2.52242 1.3278 3.29795.8852.77552 2.00931 1.16329 3.36844 1.16329 1.06537 0 2.01716-.24285 2.86318-.73245.70503-.41126 1.33172-.91261 1.87224-1.50013.02741.34076.06266.64235.10967.9087.047.26634.12925.55227.24675.85386h4.26932v-.57969c-.2546-.1175-.45044-.27026-.57577-.45435-.12926-.18017-.2076-.52876-.23501-1.04578-.01959-.6776-.02742-1.2573-.02742-1.73514v-6.88182c0-1.80956-.63844-3.03944-1.91531-3.69354-1.27688-.6502-2.73393-.97529-4.37899-.97529-2.52242 0-4.30456.65803-5.34251 1.9819-.6502.84603-1.01837 1.92315-1.10062 3.23528h3.78754c.09009-.57969.27418-1.03795.54835-1.3748.38777-.46218 1.04187-.68935 1.97016-.68935.82644 0 1.45313.1175 1.88006.3486.42693.235.63844.66193.63844 1.27687 0 .50527-.2781.87345-.8382 1.11237-.31334.141-.83036.2546-1.55497.34468zm.20368-6.27863zm8.0451 3.3332h2.09157v9.23973c0 .93611.21935 1.62938.66194 2.07982.67761.70502 1.94665 1.0262 3.7993.96353l1.86048-.0705v-2.93369c-.12925.01175-.26243.01959-.3956.0235-.13317.00392-.2585.00784-.37601.00784-.79903 0-1.27688-.07834-1.43355-.2311-.15667-.14883-.235-.53268-.235-1.14762v-7.93152h2.44016v-2.79659h-2.44017v-4.18314h-3.88155v4.18314h-2.09157zm14.73892.75594c.50135-.56794 1.20638-.85387 2.11507-.85387.83428 0 1.53539.27026 2.0994.80687.56403.5366.87737 1.32387.94396 2.36183h-6.10238c.12926-.97529.4426-1.74298.94395-2.31483zm5.48744-3.38803c-.99879-.4661-2.12682-.70111-3.37237-.70111-2.10332 0-3.81496.69327-5.131 2.07982-1.31605 1.38655-1.97407 3.3802-1.97407 5.97704 0 2.77309.72852 4.77457 2.18949 6.00445 1.45705 1.22988 3.14127 1.84481 5.05267 1.84481 2.31091 0 4.11264-.73244 5.39735-2.18949.82645-.92045 1.28863-1.82523 1.39047-2.71434h-4.00689c-.2115.4426-.45435.78728-.72852 1.03403-.50527.45827-1.1633.68936-1.97016.68936-.76377 0-1.41396-.188-1.95448-.56793-.89303-.6032-1.36304-1.66073-1.41788-3.16478h10.26985c.01958-1.29646-.0235-2.28741-.12142-2.97677-.17626-1.17504-.55619-2.20516-1.1437-3.09819-.65411-1.00661-1.48056-1.74689-2.47934-2.2169zm-3.09819-.70111zm12.54551 10.61844h-3.97947c0 1.5393.5601 2.80835 1.68423 3.80713 1.12412.99487 2.8671 1.4923 5.22892 1.4923 2.31092 0 4.02256-.47001 5.1271-1.41004 1.10845-.94004 1.66072-2.15424 1.66072-3.64263 0-1.12804-.38777-2.07199-1.15937-2.82401-.77945-.7442-1.95057-1.29646-3.50946-1.66464-2.34224-.5131-3.70529-.87736-4.08914-1.08887-.38776-.19976-.57968-.52877-.57968-.97529 0-.36034.18017-.67368.54443-.94003.36426-.26242.97137-.3956 1.82523-.3956 1.03795 0 1.7704.26243 2.20124.79512.2311.29376.3721.69327.42693 1.19854h3.92464c-.17234-1.83307-.84995-3.1256-2.0289-3.87372-1.17896-.7481-2.70651-1.12412-4.57874-1.12412-1.97407 0-3.50554.49743-4.59441 1.49622-1.08495.99487-1.62939 2.18557-1.62939 3.57212 0 1.17504.3486 2.0759 1.04579 2.69867.69719.63453 1.89573 1.15938 3.59562 1.5824 2.35791.5601 3.72096.9557 4.08914 1.18678.36426.22718.54835.56402.54835 1.0027 0 .45827-.22717.80295-.68152 1.03404-.45435.22717-1.06537.34468-1.83698.34468-1.31213 0-2.213-.26243-2.69868-.78728-.27417-.29376-.45435-.78728-.5366-1.48447zm3.00027-10.61844zm16.27822 5.6872v3.71703h7.9041v-3.71704zm18.65572-10.57537v20.29686h3.95205V521.787l8.29187 14.41774h4.23797v-20.29686h-3.94813v14.17098l-8.08428-14.17098zm8.40153-.03917zm21.09589 16.34481c-.61494.8147-1.49622 1.22596-2.64384 1.22596-1.14762 0-2.03282-.41127-2.65167-1.22596-.61886-.81861-.92829-1.97798-.92829-3.48595 0-1.50405.30943-2.66343.92829-3.47812.61885-.81078 1.50405-1.21813 2.65167-1.21813s2.0289.40735 2.64384 1.21813c.61494.8147.92045 1.97407.92045 3.47812 0 1.50797-.30551 2.66734-.92045 3.48595zm3.13736 2.16599c1.26904-1.5628 1.89964-3.44678 1.89964-5.65194 0-2.166-.6306-4.04214-1.89964-5.63236-1.26513-1.5863-3.18828-2.38141-5.76945-2.38141-2.57725 0-4.5004.7951-5.76945 2.38141-1.26512 1.59022-1.89964 3.46637-1.89964 5.63236 0 2.20516.63452 4.08914 1.89964 5.65194 1.26905 1.56672 3.1922 2.35008 5.76945 2.35008 2.58117 0 4.50432-.78336 5.76945-2.35008zm-5.76945-13.58346zm18.8163.047c-.05091-.00392-.10966-.00392-.18408-.00392-1.17504 0-2.13074.30551-2.86318.92045-.45044.36818-.9792 1.05362-1.5863 2.0524v-2.61642h-3.74447v15.00918h3.95205v-7.17166c0-1.20638.15276-2.09549.45435-2.67518.54052-1.0262 1.60197-1.5393 3.18044-1.5393.12142 0 .2781.00392.47002.01175.19192.01175.41126.02742.66194.05484v-4.01864c-.17626-.01175-.28984-.01567-.34076-.0235zm1.09671 3.2862h2.09157v9.23973c0 .93611.21934 1.62938.66194 2.07982.6776.70502 1.94665 1.0262 3.7993.96353l1.86048-.0705v-2.93369a6.37335 6.37335 0 0 1-.39168.0235c-.13317.00392-.25851.00784-.37993.00784-.79903 0-1.27688-.07834-1.43355-.2311-.15276-.14883-.2311-.53268-.2311-1.14762v-7.93152h2.43626v-2.79659h-2.43625v-4.18314h-3.88547v4.18314h-2.09157zm21.73432-2.83577c-.75594-.32118-1.59805-.48176-2.52633-.48176-.82645 0-1.61372.17233-2.36183.51701-.74811.34076-1.40613.95179-1.97407 1.82131v-7.17166h-3.91288v20.22636h3.91288v-8.12344c0-1.28471.26634-2.27566.80294-2.96894.54052-.69327 1.32388-1.03795 2.36183-1.03795 1.0027 0 1.68031.3486 2.04066 1.04579.27417.49743.41126 1.14762.41126 1.95448v9.13006h4.00689v-8.8128c0-1.33955-.047-2.307-.13709-2.89843-.09009-.59144-.34468-1.1672-.75594-1.72731-.4896-.66194-1.10846-1.15154-1.86832-1.47272zm16.54457-3.2627c-1.89965 1.91532-2.84752 4.64925-2.84752 8.19004 0 3.27836.83428 5.85953 2.50284 7.7396 1.67247 1.87222 3.96772 2.80834 6.88573 2.80834 2.36183 0 4.29673-.69328 5.8047-2.07982 1.51189-1.38263 2.448-3.18436 2.81618-5.39735h-4.19881c-.28593 1.04578-.64235 1.83306-1.0732 2.354-.78336.97528-1.91532 1.46096-3.4037 1.46096-1.44922 0-2.64384-.56794-3.5878-1.6999-.94002-1.13586-1.41004-2.83967-1.41004-5.11533 0-2.27566.44652-4.03822 1.33563-5.27985.88911-1.24554 2.10724-1.86831 3.65046-1.86831 1.51188 0 2.65559.4426 3.4272 1.32388.43085.49351.78336 1.22987 1.06145 2.20124h4.2419c-.0666-1.26513-.53269-2.52634-1.40614-3.78755-1.57847-2.23649-4.07739-3.3567-7.49283-3.3567-2.54984 0-4.65316.83428-6.30605 2.50676zm6.18462-2.74175zm20.17152 13.61871v1.46097c-.02741 1.31213-.3956 2.2169-1.10845 2.71042-.70894.49744-1.48838.7442-2.33441.7442-.53269 0-.98312-.14884-1.35522-.44652-.3721-.29768-.55618-.78336-.55618-1.45313 0-.75203.3016-1.30821.9087-1.66856.35643-.2115.94786-.38776 1.7743-.5366l.88129-.1645c.4426-.08226.78727-.17235 1.04187-.26635.25067-.09792.50135-.22326.7481-.37993zm-2.38141-1.83306l-1.33563.1645c-1.5158.19584-2.66342.51702-3.44287.96745-1.4218.82645-2.13465 2.16208-2.13465 4.00689 0 1.4218.4426 2.52242 1.3278 3.29795.8891.77552 2.00931 1.16329 3.36844 1.16329 1.06537 0 2.02107-.24285 2.86318-.73245.70894-.41126 1.33171-.91261 1.87223-1.50013.02742.34076.06659.64235.10967.9087.047.26634.12926.55227.25068.85386h4.26931v-.57969c-.2585-.1175-.45043-.27026-.57969-.45435-.12925-.18017-.20759-.52876-.235-1.04578-.01567-.6776-.02742-1.2573-.02742-1.73514v-6.88182c0-1.80956-.63844-3.03944-1.91532-3.69354-1.27296-.6502-2.73392-.97529-4.37506-.97529-2.52634 0-4.30848.65803-5.34643 1.9819-.6502.84603-1.01837 1.92315-1.10063 3.23528h3.78755c.09009-.57969.27418-1.03795.55227-1.3748.38385-.46218 1.04187-.68935 1.96623-.68935.82645 0 1.45314.1175 1.88007.3486.42693.235.64235.66193.64235 1.27687 0 .50527-.282.87345-.84211 1.11237-.30943.141-.83036.2546-1.55497.34468zm.20759-6.27863zm17.91936.047c-.05092-.00392-.10967-.00392-.18409-.00392-1.17504 0-2.13074.30551-2.86318.92045-.45043.36818-.9792 1.05362-1.5863 2.0524v-2.61642h-3.74446v15.00918h3.95205v-7.17166c0-1.20638.15275-2.09549.45435-2.67518.54051-1.0262 1.60197-1.5393 3.18044-1.5393.12142 0 .27417.00392.47001.01175.19193.01175.41127.02742.65803.05484v-4.01864c-.17234-.01175-.28593-.01567-.33685-.0235zm12.01674 11.37047c-.61493.8147-1.49621 1.22596-2.64384 1.22596-1.14762 0-2.03282-.41127-2.65167-1.22596-.61886-.81861-.92828-1.97798-.92828-3.48595 0-1.50405.30942-2.66343.92828-3.47812.61885-.81078 1.50405-1.21813 2.65167-1.21813 1.14763 0 2.0289.40735 2.64384 1.21813.61494.8147.92045 1.97407.92045 3.47812 0 1.50797-.30551 2.66734-.92045 3.48595zm3.13736 2.16599c1.26904-1.5628 1.89965-3.44678 1.89965-5.65194 0-2.166-.6306-4.04214-1.89965-5.63236-1.26513-1.5863-3.18828-2.38141-5.76945-2.38141-2.57725 0-4.5004.7951-5.76944 2.38141-1.26513 1.59022-1.89965 3.46637-1.89965 5.63236 0 2.20516.63452 4.08914 1.89965 5.65194 1.26904 1.56672 3.19219 2.35008 5.76944 2.35008 2.58117 0 4.50432-.78336 5.76945-2.35008zm-5.76945-13.58346zm14.48825 15.40869v-20.29686h-3.92464v20.29686zm7.86101-16.79916v-3.62304h-3.97946v3.62304zm-3.97946 1.78998v15.00918h3.97946v-15.00918zm19.90517.8617c-.98703-.8147-2.25607-1.21813-3.80713-1.21813-1.24162 0-2.2639.3016-3.07077.9087-.45043.33685-.92828.89303-1.43355 1.66464v-2.1895h-3.78754v14.98177h3.91288v-8.12344c0-.92829.12926-1.68814.38385-2.28742.49743-1.12803 1.41005-1.69205 2.74176-1.69205 1.08103 0 1.8174.38384 2.20124 1.15545.2115.42302.31726 1.03012.31726 1.8174v9.13006h4.02255V526.0994c0-1.88399-.49351-3.23136-1.48055-4.04214zm-5.25243-1.26121zm18.6283 8.1117v1.46096c-.02741 1.31213-.3956 2.2169-1.10845 2.71042-.70894.49744-1.48838.7442-2.33441.7442-.53269 0-.98312-.14884-1.35522-.44652-.3721-.29768-.55618-.78336-.55618-1.45313 0-.75203.3016-1.30821.9087-1.66856.35643-.2115.94786-.38776 1.7743-.5366l.88129-.1645c.4426-.08226.78727-.17235 1.04187-.26635.25067-.09792.50135-.22326.7481-.37993zm-2.38141-1.83307l-1.33563.1645c-1.5158.19584-2.66342.51702-3.44287.96745-1.4218.82645-2.13465 2.16208-2.13465 4.00689 0 1.4218.4426 2.52242 1.33171 3.29795.8852.77552 2.0054 1.16329 3.36453 1.16329 1.06537 0 2.02107-.24285 2.86318-.73245.70894-.41126 1.33171-.91261 1.87223-1.50013.03134.34076.06659.64235.11359.9087.04308.26634.12534.55227.24676.85386h4.26931v-.57969c-.2585-.1175-.45043-.27026-.57969-.45435-.12925-.18017-.20759-.52876-.235-1.04578-.01567-.6776-.02742-1.2573-.02742-1.73514v-6.88182c0-1.80956-.63844-3.03944-1.9114-3.69354-1.27688-.6502-2.73784-.97529-4.37898-.97529-2.52634 0-4.30848.65803-5.34252 1.9819-.6541.84603-1.02228 1.92315-1.10454 3.23528h3.78755c.094-.57969.27418-1.03795.55227-1.3748.38385-.46218 1.04187-.68935 1.96623-.68935.82645 0 1.45314.1175 1.88007.3486.42693.235.64235.66193.64235 1.27687 0 .50527-.282.87345-.84211 1.11237-.30943.141-.83036.2546-1.55497.34468zm.2076-6.27863zm18.34237 0c-1.19463 2.7535-1.78998 5.47177-1.78998 8.15086 0 2.32266.45826 4.63357 1.3748 6.92882.77944 1.97407 1.91531 3.97947 3.4037 6.0162h2.32657l-.8421-1.54322c-1.15547-2.12682-1.9584-4.35548-2.40884-6.67814-.29376-1.51189-.43868-3.1687-.43868-4.97042 0-2.78876.37993-5.3151 1.13979-7.57117.45826-1.3513 1.3278-3.1922 2.60467-5.5227l-2.26-.02741-.97528 1.34738c-.76377 1.05754-1.47663 2.34616-2.13465 3.8698zm11.85615 9.14573h-4.04997c0 2.11115.75594 3.76796 2.27174 4.97433 1.5158 1.2103 3.59562 1.81348 6.23946 1.81348 2.589 0 4.5905-.61494 6.00838-1.8409 1.41788-1.22204 2.12682-2.76526 2.12682-4.6179 0-1.80956-.60319-3.1922-1.8174-4.14398-.77944-.61493-1.9349-1.10845-3.47028-1.47271l-3.4977-.84212c-1.34738-.32117-2.22866-.59927-2.64384-.8382-.64236-.36034-.96354-.90086-.96354-1.62546 0-.7912.32901-1.40613.9792-1.84482.6502-.4426 1.52364-.66194 2.61642-.66194.98312 0 1.80173.16843 2.46367.50919.99095.5131 1.52364 1.38263 1.59806 2.60075h4.07739c-.07442-2.15424-.86562-3.7993-2.3775-4.93516-1.50797-1.13196-3.3332-1.6999-5.47177-1.6999-2.56159 0-4.50432.59928-5.82428 1.80173-1.32388 1.20638-1.98582 2.71435-1.98582 4.53174 0 1.99365.68544 3.45853 2.0524 4.39465.80686.5601 2.26783 1.07712 4.37898 1.55497l2.15033.48177c1.25729.27417 2.17774.59143 2.76526.95178.58752.36426.88128.8852.88128 1.55497 0 1.14762-.59144 1.93098-1.77431 2.354-.62669.21934-1.43747.329-2.43625.329-1.67248 0-2.85143-.41517-3.54079-1.25337-.37601-.45827-.6306-1.15154-.75594-2.0759zm4.11656-14.65275zm15.31077 20.9157v-20.29685h-3.92464v20.29686zm13.20745-3.99121c-.61494.8147-1.49622 1.22596-2.64384 1.22596-1.14763 0-2.03282-.41127-2.65168-1.22596-.61885-.81861-.92828-1.97798-.92828-3.48595 0-1.50405.30943-2.66343.92828-3.47812.61886-.81078 1.50405-1.21813 2.65168-1.21813 1.14762 0 2.0289.40735 2.64384 1.21813.61493.8147.92044 1.97407.92044 3.47812 0 1.50797-.3055 2.66734-.92044 3.48595zm3.13735 2.16599c1.26905-1.5628 1.89965-3.44678 1.89965-5.65194 0-2.166-.6306-4.04214-1.89965-5.63236-1.26512-1.5863-3.18827-2.38141-5.76944-2.38141-2.57726 0-4.5004.7951-5.76945 2.38141-1.26513 1.59022-1.89965 3.46637-1.89965 5.63236 0 2.20516.63452 4.08914 1.89965 5.65194 1.26904 1.56672 3.1922 2.35008 5.76945 2.35008 2.58117 0 4.50432-.78336 5.76944-2.35008zm-5.76944-13.58346zm17.55901.39951l-2.16207 10.76728-2.34225-10.76728h-4.21448l4.21448 15.00918h4.07739l2.38141-10.93179 2.354 10.93179h4.0343l4.35157-15.00918h-4.08914l-2.34225 10.81037-2.28349-10.81037zm17.14383-3.16477c-1.90356 1.91531-2.85143 4.64924-2.85143 8.19003 0 3.27836.83428 5.85953 2.50676 7.7396 1.66855 1.87222 3.9638 2.80834 6.88181 2.80834 2.36183 0 4.29673-.69328 5.8047-2.07982 1.51189-1.38263 2.448-3.18436 2.81618-5.39735h-4.1988c-.28594 1.04578-.64236 1.83306-1.07321 2.354-.77945.97528-1.91532 1.46096-3.4037 1.46096-1.44922 0-2.64384-.56794-3.58387-1.6999-.94395-1.13586-1.41397-2.83967-1.41397-5.11533 0-2.27566.44652-4.03822 1.33563-5.27985.89303-1.24554 2.10724-1.86831 3.65046-1.86831 1.5158 0 2.65559.4426 3.4272 1.32388.43085.49351.78728 1.22987 1.06145 2.20124h4.2419c-.06659-1.26513-.53269-2.52634-1.40614-3.78755-1.57847-2.23649-4.07347-3.3567-7.48892-3.3567-2.55375 0-4.65707.83428-6.30605 2.50676zm6.18072-2.74176zm25.19285 16.02754c-.98703 1.24163-2.31874 1.86048-3.99905 1.86048-1.6803 0-3.01985-.61885-4.02255-1.86048-.99879-1.2377-1.50014-3.00027-1.50014-5.28768 0-2.2835.50135-4.04605 1.50014-5.28768 1.0027-1.2377 2.34224-1.86048 4.02255-1.86048 1.6803 0 3.01202.62277 3.99905 1.86832.98704 1.24162 1.48055 3.00418 1.48055 5.27984 0 2.28741-.49351 4.04997-1.48055 5.28768zm2.65168 3.08644c2.04457-1.93881 3.07077-4.72758 3.07077-8.37412 0-3.71704-1.0262-6.50972-3.07077-8.3702-1.53539-1.58239-3.7523-2.36966-6.65073-2.36966-2.90235 0-5.11926.78727-6.65073 2.36966-2.05632 1.86048-3.08643 4.65316-3.08643 8.3702 0 3.64654 1.03011 6.4353 3.08643 8.37412 1.53147 1.57847 3.74838 2.36575 6.65073 2.36575 2.89843 0 5.11534-.78728 6.65073-2.36575zm-6.65073-19.11398zm24.84035.61885l-4.44949 15.4087-4.4064-15.4087h-4.52782l6.8544 20.29686h4.00689l6.92882-20.29686zm10.81036 20.29686v-20.29686h-4.21447v20.29686zm-2.10723-20.69637zm10.17584 3.92463h3.90897c1.92706 0 3.2157.55227 3.86196 1.66072.6502 1.10454.97137 2.69085.97137 4.755 0 1.49622-.21542 2.78876-.64627 3.8698-.7912 1.97407-2.18558 2.9611-4.18706 2.9611h-3.90897zm7.76702-3.08252c-.8382-.2781-1.88398-.42301-3.14128-.4426h-8.7423v20.29686h8.7423c3.06686 0 5.33468-1.26121 6.80348-3.78755 1.08104-1.87223 1.62548-4.15572 1.62548-6.8544 0-1.06537-.12926-2.18557-.38777-3.36061-.2585-1.17504-.74027-2.26783-1.4453-3.27836-.88128-1.24946-2.03282-2.10724-3.45461-2.57334zm8.41328-.4426v20.29686h3.95205V521.787l8.28795 14.41774h4.2419v-20.29686h-3.95205v14.17098l-8.08428-14.17098zm8.39762-.03917zm14.00648 2.16208c-1.90357 1.91531-2.85143 4.64924-2.85143 8.19003 0 3.27836.83428 5.85953 2.50675 7.7396 1.66856 1.87222 3.9638 2.80834 6.88182 2.80834 2.36183 0 4.29673-.69328 5.8047-2.07982 1.51188-1.38263 2.448-3.18436 2.81617-5.39735h-4.1988c-.28593 1.04578-.64236 1.83306-1.0732 2.354-.78337.97528-1.91532 1.46096-3.4037 1.46096-1.44922 0-2.64385-.56794-3.58388-1.6999-.94395-1.13586-1.41396-2.83967-1.41396-5.11533 0-2.27566.44651-4.03822 1.33562-5.27985.89303-1.24554 2.10724-1.86831 3.65046-1.86831 1.5158 0 2.6556.4426 3.4272 1.32388.43085.49351.78728 1.22987 1.06145 2.20124h4.2419c-.06659-1.26513-.53269-2.52634-1.40613-3.78755-1.57847-2.23649-4.07347-3.3567-7.48892-3.3567-2.55376 0-4.65708.83428-6.30605 2.50676zm6.1807-2.74176zm16.56416 5.74203c-.72461-1.68814-1.78606-3.50554-3.18045-5.45219h-2.9611l.84212 1.5393c1.15545 2.1229 1.9584 4.34373 2.40883 6.6664.29376 1.52363.4426 3.18435.4426 4.98608 0 2.80835-.41127 5.39344-1.22596 7.75135-.47785 1.39438-1.32388 3.18436-2.53417 5.36993h2.90626l.97529-1.33563c.63452-.80686 1.3082-2.00931 2.02498-3.60737 1.27688-2.85535 1.91532-5.6637 1.91532-8.42895 0-2.51459-.5366-5.00959-1.61372-7.48892z"/></svg>