<svg xmlns="http://www.w3.org/2000/svg" role="img" xmlns:xlink="http://www.w3.org/1999/xlink" viewBox="-11.99 -11.99 623.48 355.48"><title>northern-ireland</title><rect width="600" height="300" fill="#fff" fill-rule="evenodd" rx="0" ry="0"/><rect id="a" width="600" height="60" x="0" y="120" fill="#cf142b" fill-opacity="1" fill-rule="evenodd" stroke-opacity="1" rx="0" ry="0"/><use width="600" height="300" fill="#cf142b" transform="matrix(0 .5 -1 0 450 0)" xlink:href="#a"/><g stroke="#000" stroke-width=".608"><path fill="#888" d="M211.293 123.723a38.64 7.18 0 1 1-77.28 0 38.64 7.18 0 1 1 77.28 0z" transform="matrix(.77773 0 0 .75313 165.723 3.021)"/><path fill="#731818" d="M205.369 123.723a32.715 3.55 0 1 1-65.43 0 32.715 3.55 0 1 1 65.43 0z" transform="matrix(.77773 0 0 .75313 165.723 3.021)"/></g><path fill="#fff" stroke="#2c1317" d="M300 223.47l-19.286-40.066-44.34 3.33L261.427 150l-25.055-36.735 44.341 3.331L300 76.53l19.286 40.066 44.34-3.33L338.573 150l25.055 36.735-44.341-3.331z"/><g stroke-width=".629"><path fill="#d71e1e" d="M299.071 53.504s-5.243.426-7.413 1.098c-.815.253-2.493.619-3.516 1.023-2.978 1.178-5.408 2.684-5.408 2.684-3.382-2.26-6.372-3.876-10.32-2.915-1.382.336-3.14 1.751-3.957 2.915-1.027 1.462-1.228 3.43-1.236 5.217-.005 1.032.686 3.02.686 3.02l-1.647 5.766 6.04 11.532 7.826 2.06 19.22-2.06-.275-30.34z"/><path fill="#de4f40" d="M275.56 55.274c-1.33-.089-3.627 1.3-4.282 2.424-.544.934-.678 1.5-.67 2.58.005.888.203 1.754.721 2.475.552.767 1.272 1.4 2.167 1.703 1.11.375 2.68.546 3.817.258 1.604-.408 3.27-1.655 4.643-2.58 2.322-1.565 3.805-2.842 6.344-4.023 2.16-1.005 7.48-1.6 7.48-1.6l.103.104-.206-2.58-4.075.517-3.353.98-2.528 1.34-3.043 1.394-4.385-2.425-1.96-.516-.774-.051z"/><path fill="#97141c" d="M283.245 58.42l-3.095 2.476c-.808.647-1.87 1.267-2.889 1.445-1.203.21-2.814.365-3.662-.465-1.404-1.373-.964-2.653.206-3.559.69-.533 2.395-.632 3.25-.464 1.036.203 1.948 1.243 2.807 1.33l.806.082 2.577-.845z"/><path fill="none" stroke="#000" stroke-width=".465" d="M299.071 53.504s-5.243.426-7.413 1.098c-.815.253-2.493.619-3.516 1.023-2.978 1.178-5.408 2.684-5.408 2.684-3.382-2.26-6.372-3.876-10.32-2.915-1.382.336-3.14 1.751-3.957 2.915-1.027 1.462-1.228 3.43-1.236 5.217-.005 1.032.686 3.02.686 3.02l-1.647 5.766 6.04 11.532 7.826 2.06 19.22-2.06-.275-30.34z"/><path fill="#ba1b24" d="M298.293 61.028s-4.811 1.296-7.872 2.697c-2.802 1.282-8.26 4.943-11.315 5.353-7.415.74-9.241-1.293-11.682-4.612l.404 8.922 5.201 10.508 12.526.106 12.525-3.184 1.805-10.827-1.592-8.963z"/><path fill="#97141c" d="M267.51 72.22s6.781 4.654 10.03 5.188c3.832.63 6.89-.07 10.628-1.123 4.16-1.172 11.61-6.613 11.61-6.613l-1.804 11.252-13.905 3.503-10.827-.318-5.308-10.19-.424-1.7z"/><g><path fill="#d71e1e" d="M300.929 53.504s5.243.426 7.413 1.098c.815.253 2.493.619 3.516 1.023 2.978 1.178 5.408 2.684 5.408 2.684 3.382-2.26 6.372-3.876 10.32-2.915 1.382.336 3.14 1.751 3.958 2.915 1.026 1.462 1.227 3.43 1.235 5.217.005 1.032-.686 3.02-.686 3.02l1.647 5.766-6.04 11.532-7.826 2.06-19.22-2.06.275-30.34z"/><path fill="#de4f40" d="M324.44 55.274c1.33-.089 3.627 1.3 4.282 2.424.544.934.678 1.5.67 2.58-.005.888-.203 1.754-.721 2.475-.552.767-1.272 1.4-2.167 1.703-1.11.375-2.68.546-3.817.258-1.604-.408-3.27-1.655-4.643-2.58-2.322-1.565-3.805-2.842-6.344-4.023-2.16-1.005-7.48-1.6-7.48-1.6l-.103.104.206-2.58 4.075.517 3.353.98 2.528 1.34 3.043 1.394 4.385-2.425 1.96-.516.774-.051z"/><path fill="#97141c" d="M316.755 58.42l3.095 2.476c.808.647 1.87 1.267 2.889 1.445 1.203.21 2.814.365 3.662-.465 1.404-1.373.964-2.653-.206-3.559-.69-.533-2.395-.632-3.25-.464-1.036.203-1.948 1.243-2.807 1.33l-.806.082-2.577-.845z"/><path fill="none" stroke="#000" stroke-width=".465" d="M300.929 53.504s5.243.426 7.413 1.098c.815.253 2.493.619 3.516 1.023 2.978 1.178 5.408 2.684 5.408 2.684 3.382-2.26 6.372-3.876 10.32-2.915 1.382.336 3.14 1.751 3.958 2.915 1.026 1.462 1.227 3.43 1.235 5.217.005 1.032-.686 3.02-.686 3.02l1.647 5.766-6.04 11.532-7.826 2.06-19.22-2.06.275-30.34z"/><path fill="#ba1b24" d="M301.707 61.028s4.811 1.296 7.872 2.697c2.802 1.282 8.26 4.943 11.315 5.353 7.415.74 9.241-1.293 11.682-4.612l-.404 8.922-5.201 10.508-12.526.106-12.525-3.184-1.805-10.827 1.592-8.963z"/><path fill="#97141c" d="M332.49 72.22s-6.781 4.654-10.03 5.188c-3.832.63-6.89-.07-10.628-1.123-4.16-1.172-11.61-6.613-11.61-6.613l1.804 11.252 13.905 3.503 10.827-.318 5.308-10.19.424-1.7z"/></g></g><g stroke-width=".598"><g color="#000"><path d="M304.071 41.913c8.675.954 16.296 4.108 22.096 8.338 6.628 4.834 10.993 11.085 11.462 17.424l-4.26.324c-.336-4.524-3.81-9.983-9.72-14.295-5.912-4.311-14.133-7.474-23.499-7.79l.14-4.265c1.28.043 2.542.127 3.781.264z" style="text-indent:0;text-align:start;text-transform:none;block-progression:tb;marker:none" fill="#e1bb16" overflow="visible"/><path d="M300.259 43.226l.03-1.577c1.28.043 2.543.127 3.782.264 8.675.954 16.296 4.108 22.096 8.338 6.628 4.834 10.993 11.085 11.462 17.424l-1.298.22c-3.345-11.516-12.183-21.693-36.072-24.669z" style="text-indent:0;text-align:start;text-transform:none;block-progression:tb;marker:none" fill="#f1dc79" overflow="visible"/><path d="M304.071 41.913c8.675.954 16.296 4.108 22.096 8.338 6.628 4.834 10.993 11.085 11.462 17.424l-4.26.324c-.336-4.524-3.81-9.983-9.72-14.295-5.912-4.311-14.133-7.474-23.499-7.79l.14-4.265c1.28.043 2.542.127 3.781.264z" style="text-indent:0;text-align:start;text-transform:none;block-progression:tb;marker:none" fill="none" stroke="#000" stroke-width=".465" overflow="visible"/></g><g stroke-width=".471"><path fill="#ccc" d="M344.162 62.639a3.695 3.695 0 1 1-7.372-.514 3.695 3.695 0 1 1 7.372.514z"/><path fill="#e6e6e6" d="M343.641 62.127a2.867 2.79 3.992 1 1-5.72-.4 2.867 2.79 3.992 1 1 5.72.4z"/><path fill="#fff" d="M343.43 61.624a2.12 2.13 3.992 1 1-4.232-.295 2.12 2.13 3.992 1 1 4.231.295z"/><path fill="none" stroke="#000" stroke-width=".465" d="M344.162 62.639a3.695 3.695 0 1 1-7.372-.514 3.695 3.695 0 1 1 7.372.514z"/></g><g stroke-width=".471"><path fill="#ccc" d="M340.788 55.952a3.695 3.695 0 1 1-7.371-.515 3.695 3.695 0 1 1 7.371.515z"/><path fill="#e6e6e6" d="M340.268 55.44a2.867 2.79 3.992 1 1-5.72-.4 2.867 2.79 3.992 1 1 5.72.4z"/><path fill="#fff" d="M340.056 54.937a2.12 2.13 3.992 1 1-4.231-.295 2.12 2.13 3.992 1 1 4.23.295z"/><path fill="none" stroke="#000" stroke-width=".465" d="M340.788 55.952a3.695 3.695 0 1 1-7.371-.515 3.695 3.695 0 1 1 7.371.515z"/></g><g stroke-width=".471"><path fill="#ccc" d="M335.958 50.396a3.695 3.695 0 1 1-7.372-.514 3.695 3.695 0 1 1 7.372.514z"/><path fill="#e6e6e6" d="M335.437 49.884a2.867 2.79 3.992 1 1-5.72-.399 2.867 2.79 3.992 1 1 5.72.4z"/><path fill="#fff" d="M335.225 49.381a2.12 2.13 3.992 1 1-4.231-.295 2.12 2.13 3.992 1 1 4.23.295z"/><path fill="none" stroke="#000" stroke-width=".465" d="M335.958 50.396a3.695 3.695 0 1 1-7.372-.514 3.695 3.695 0 1 1 7.372.514z"/></g><g stroke-width=".471"><path fill="#ccc" d="M329.796 45.907a3.695 3.695 0 1 1-7.372-.514 3.695 3.695 0 1 1 7.372.514z"/><path fill="#e6e6e6" d="M329.275 45.395a2.867 2.79 3.992 1 1-5.72-.399 2.867 2.79 3.992 1 1 5.72.4z"/><path fill="#fff" d="M329.063 44.892a2.12 2.13 3.992 1 1-4.23-.295 2.12 2.13 3.992 1 1 4.23.295z"/><path fill="none" stroke="#000" stroke-width=".465" d="M329.796 45.907a3.695 3.695 0 1 1-7.372-.514 3.695 3.695 0 1 1 7.372.514z"/></g><g stroke-width=".471"><path fill="#ccc" d="M323.107 42.058a3.695 3.695 0 1 1-7.372-.514 3.695 3.695 0 1 1 7.372.514z"/><path fill="#e6e6e6" d="M322.586 41.546a2.867 2.79 3.992 1 1-5.72-.399 2.867 2.79 3.992 1 1 5.72.4z"/><path fill="#fff" d="M322.374 41.043a2.12 2.13 3.992 1 1-4.231-.295 2.12 2.13 3.992 1 1 4.23.295z"/><path fill="none" stroke="#000" stroke-width=".465" d="M323.107 42.058a3.695 3.695 0 1 1-7.372-.514 3.695 3.695 0 1 1 7.372.514z"/></g><g stroke-width=".471"><path fill="#ccc" d="M315.726 39.803a3.695 3.695 0 1 1-7.372-.514 3.695 3.695 0 1 1 7.372.514z"/><path fill="#e6e6e6" d="M315.205 39.292a2.867 2.79 3.992 1 1-5.72-.4 2.867 2.79 3.992 1 1 5.72.4z"/><path fill="#fff" d="M314.993 38.788a2.12 2.13 3.992 1 1-4.23-.295 2.12 2.13 3.992 1 1 4.23.295z"/><path fill="none" stroke="#000" stroke-width=".465" d="M315.726 39.803a3.695 3.695 0 1 1-7.372-.514 3.695 3.695 0 1 1 7.372.514z"/></g><g color="#000"><path d="M295.929 41.913c-8.675.954-16.296 4.108-22.096 8.338-6.628 4.834-10.993 11.085-11.462 17.424l4.26.324c.336-4.524 3.81-9.983 9.72-14.295 5.912-4.311 14.133-7.474 23.499-7.79l-.14-4.265c-1.28.043-2.542.127-3.781.264z" style="text-indent:0;text-align:start;text-transform:none;block-progression:tb;marker:none" fill="#e1bb16" overflow="visible"/><path d="M299.741 43.226l-.03-1.577c-1.28.043-2.543.127-3.782.264-8.675.954-16.296 4.108-22.096 8.338-6.628 4.834-10.993 11.085-11.462 17.424l1.298.22c3.345-11.516 12.183-21.693 36.072-24.669z" style="text-indent:0;text-align:start;text-transform:none;block-progression:tb;marker:none" fill="#f1dc79" overflow="visible"/><path d="M295.929 41.913c-8.675.954-16.296 4.108-22.096 8.338-6.628 4.834-10.993 11.085-11.462 17.424l4.26.324c.336-4.524 3.81-9.983 9.72-14.295 5.912-4.311 14.133-7.474 23.499-7.79l-.14-4.265c-1.28.043-2.542.127-3.781.264z" style="text-indent:0;text-align:start;text-transform:none;block-progression:tb;marker:none" fill="none" stroke="#000" stroke-width=".465" overflow="visible"/></g><g stroke-width=".471"><path fill="#ccc" d="M255.838 62.639a3.695 3.695 0 1 1 7.372-.514 3.695 3.695 0 1 1-7.372.514z"/><path fill="#e6e6e6" d="M256.359 62.127a2.79 2.867 86.008 1 1 5.72-.4 2.79 2.867 86.008 1 1-5.72.4z"/><path fill="#fff" d="M256.57 61.624a2.12 2.13-3.992 1 1 4.232-.295 2.12 2.13-3.992 1 1-4.231.295z"/><path fill="none" stroke="#000" stroke-width=".465" d="M255.838 62.639a3.695 3.695 0 1 1 7.372-.514 3.695 3.695 0 1 1-7.372.514z"/></g><g stroke-width=".471"><path fill="#ccc" d="M259.212 55.952a3.695 3.695 0 1 1 7.371-.515 3.695 3.695 0 1 1-7.371.515z"/><path fill="#e6e6e6" d="M259.732 55.44a2.79 2.867 86.008 1 1 5.72-.4 2.79 2.867 86.008 1 1-5.72.4z"/><path fill="#fff" d="M259.944 54.937a2.12 2.13-3.992 1 1 4.232-.295 2.12 2.13-3.992 1 1-4.232.295z"/><path fill="none" stroke="#000" stroke-width=".465" d="M259.212 55.952a3.695 3.695 0 1 1 7.371-.515 3.695 3.695 0 1 1-7.371.515z"/></g><g stroke-width=".471"><path fill="#ccc" d="M264.042 50.396a3.695 3.695 0 1 1 7.372-.514 3.695 3.695 0 1 1-7.372.514z"/><path fill="#e6e6e6" d="M264.563 49.884a2.79 2.867 86.008 1 1 5.72-.399 2.79 2.867 86.008 1 1-5.72.4z"/><path fill="#fff" d="M264.775 49.381a2.12 2.13-3.992 1 1 4.231-.295 2.12 2.13-3.992 1 1-4.23.295z"/><path fill="none" stroke="#000" stroke-width=".465" d="M264.042 50.396a3.695 3.695 0 1 1 7.372-.514 3.695 3.695 0 1 1-7.372.514z"/></g><g stroke-width=".471"><path fill="#ccc" d="M270.204 45.907a3.695 3.695 0 1 1 7.372-.514 3.695 3.695 0 1 1-7.372.514z"/><path fill="#e6e6e6" d="M270.725 45.395a2.79 2.867 86.008 1 1 5.72-.399 2.79 2.867 86.008 1 1-5.72.4z"/><path fill="#fff" d="M270.937 44.892a2.12 2.13-3.992 1 1 4.23-.295 2.12 2.13-3.992 1 1-4.23.295z"/><path fill="none" stroke="#000" stroke-width=".465" d="M270.204 45.907a3.695 3.695 0 1 1 7.372-.514 3.695 3.695 0 1 1-7.372.514z"/></g><g stroke-width=".471"><path fill="#ccc" d="M276.893 42.058a3.695 3.695 0 1 1 7.372-.514 3.695 3.695 0 1 1-7.372.514z"/><path fill="#e6e6e6" d="M277.414 41.546a2.79 2.867 86.008 1 1 5.72-.399 2.79 2.867 86.008 1 1-5.72.4z"/><path fill="#fff" d="M277.626 41.043a2.12 2.13-3.992 1 1 4.231-.295 2.12 2.13-3.992 1 1-4.23.295z"/><path fill="none" stroke="#000" stroke-width=".465" d="M276.893 42.058a3.695 3.695 0 1 1 7.372-.514 3.695 3.695 0 1 1-7.372.514z"/></g><g stroke-width=".471"><path fill="#ccc" d="M284.274 39.803a3.695 3.695 0 1 1 7.372-.514 3.695 3.695 0 1 1-7.372.514z"/><path fill="#e6e6e6" d="M284.795 39.292a2.79 2.867 86.008 1 1 5.72-.4 2.79 2.867 86.008 1 1-5.72.4z"/><path fill="#fff" d="M285.007 38.788a2.12 2.13-3.992 1 1 4.23-.295 2.12 2.13-3.992 1 1-4.23.295z"/><path fill="none" stroke="#000" stroke-width=".465" d="M284.274 39.803a3.695 3.695 0 1 1 7.372-.514 3.695 3.695 0 1 1-7.372.514z"/></g></g><g stroke-width=".598"><path fill="#edd05c" stroke="#000" stroke-width=".465" d="M298.35 22.372c-.521-2.461-2.735-4.38-4.892-6.316 4.384.472 8.767.33 13.151 0-1.98 2.019-4.808 3.802-5.007 6.316 2.553-1.107 4.198-3.348 6.163-5.189-.466 3.706-.145 7.411 0 11.117-1.953-1.567-3.618-3.554-6.163-4.257.757 2.3 2.62 4.066 5.056 5.559h-13.346c2.209-1.545 4.213-3.226 5.038-5.559-2.425.782-4.168 2.806-6.115 4.459.343-3.74.304-7.478 0-11.218 1.875 2.036 3.623 4.336 6.115 5.088z"/><path fill="#ccc" d="M297.09 22.829a2.91 2.91 0 1 1 5.82 0 2.91 2.91 0 1 1-5.82 0z"/><path fill="#e6e6e6" d="M297.527 22.455a2.197 2.258 90 1 1 4.516 0 2.197 2.258 90 1 1-4.516 0z"/><path fill="#fff" d="M297.722 22.072a1.67 1.677 0 1 1 3.34 0 1.67 1.677 0 1 1-3.34 0z"/><path fill="none" stroke="#000" stroke-width=".465" d="M297.09 22.829a2.91 2.91 0 1 1 5.82 0 2.91 2.91 0 1 1-5.82 0z"/><path fill="#eac634" stroke="#000" stroke-width=".609" d="M182.537 47.735a10.542 10.152 0 1 1-21.084 0 10.542 10.152 0 1 1 21.084 0z" transform="matrix(.74944 0 0 .77825 171.1 .532)"/><path fill="#f1dc79" d="M303.128 35.363a4.518 4.387 0 1 1-9.037 0 4.518 4.387 0 1 1 9.037 0z"/><path fill="#eac634" d="M299.68 28.976c-.73 0-1.313.584-1.313 1.312v5.245H293.1c-.728 0-1.336.584-1.336 1.312v.587c0 .728.608 1.312 1.336 1.312h13.826c.729 0 1.312-.584 1.312-1.312v-.587c0-.728-.583-1.312-1.312-1.312h-5.268v-5.245c0-.728-.584-1.312-1.312-1.312h-.666z"/><path fill="#f1dc79" d="M291.831 37.137l7.873-.069.342-8.146-1.506.479-.137 6.23-5.477-.069-1.095 1.164v.41zm9.584-1.369l.01 1.408 6.768.03v-.754l-1.095-.958-5.477-.069-.206.343z"/><path fill="none" stroke="#000" stroke-width=".465" d="M299.68 28.976c-.73 0-1.313.584-1.313 1.312v5.245H293.1c-.728 0-1.336.584-1.336 1.312v.587c0 .728.608 1.312 1.336 1.312h13.826c.729 0 1.312-.584 1.312-1.312v-.587c0-.728-.583-1.312-1.312-1.312h-5.268v-5.245c0-.728-.584-1.312-1.312-1.312h-.666z"/><g><g transform="translate(152.857 16.395) scale(.77757)"><g transform="translate(16.75 -19.478)"><rect width="14.761" height="18.541" x="164.955" y="54.389" fill="#f3d948" stroke="#333" ry="2.603"/><rect width="4.058" height="21.257" x="165.399" y="53.306" fill="#eac634" stroke="#000" ry="2.029" transform="translate(-1.293 .143)"/></g><rect width="4.058" height="21.257" x="193.557" y="33.971" fill="#eac634" stroke="#000" ry="2.029"/></g><g stroke-width=".471"><path fill="#ccc" d="M296.305 45.323a3.695 3.695 0 1 1 7.39 0 3.695 3.695 0 1 1-7.39 0z"/><path fill="#e6e6e6" d="M296.86 44.849a2.79 2.867 90 1 1 5.734 0 2.79 2.867 90 1 1-5.734 0z"/><path fill="#fff" d="M297.107 44.362a2.12 2.13 0 1 1 4.241 0 2.12 2.13 0 1 1-4.241 0z"/><path fill="none" stroke="#000" stroke-width=".465" d="M296.305 45.323a3.695 3.695 0 1 1 7.39 0 3.695 3.695 0 1 1-7.39 0z"/><path fill="#ccc" d="M296.305 50.226a3.695 3.695 0 1 1 7.39 0 3.695 3.695 0 1 1-7.39 0z"/><path fill="#e6e6e6" d="M296.86 49.751a2.79 2.867 90 1 1 5.734 0 2.79 2.867 90 1 1-5.734 0z"/><path fill="#fff" d="M297.107 49.264a2.12 2.13 0 1 1 4.241 0 2.12 2.13 0 1 1-4.241 0z"/><path fill="none" stroke="#000" stroke-width=".465" d="M296.305 50.226a3.695 3.695 0 1 1 7.39 0 3.695 3.695 0 1 1-7.39 0z"/><g><path fill="#ccc" d="M296.305 55.57a3.695 3.695 0 1 1 7.39 0 3.695 3.695 0 1 1-7.39 0z"/><path fill="#e6e6e6" d="M296.86 55.096a2.79 2.867 90 1 1 5.734 0 2.79 2.867 90 1 1-5.734 0z"/><path fill="#fff" d="M297.107 54.61a2.12 2.13 0 1 1 4.241 0 2.12 2.13 0 1 1-4.241 0z"/><path fill="none" stroke="#000" stroke-width=".465" d="M296.305 55.57a3.695 3.695 0 1 1 7.39 0 3.695 3.695 0 1 1-7.39 0z"/></g></g></g></g><g stroke-width=".598"><path fill="#eac634" d="M271.21 92.75s-3.819-12.47-6.557-18.366c-1.333-2.87-4.098-8.206-4.098-8.206l5.61-3.237 2.887-.404c-1.419 3.784-1.32 6.43-1.348 9.172 2.973-.513 4.34-2.77 5.935-4.317l1.888 7.959c-2.977-1.323-4.962-.661-6.88.134 0 0 1.23 2.403 2.159 3.238 1.063.955 2.235 1.5 3.642 1.753 1.33.239 2.83.32 4.046-.27 2.562-1.244 3.867-3.956 3.507-3.776 0 0 .257-2.38-.404-3.238-.496-.641-1.513-1.162-2.293-.944-1.231.345-1.889 3.103-1.889 3.103s-1.183-2.348-1.483-3.642c-.265-1.14-.66-2.462-.135-3.507.391-.78 1.3-1.325 2.158-1.484 1.136-.21 3.237.81 3.237.81s-.627-2.115-.81-3.238c-.093-.577.047-1.348.27-1.888.511-1.234 2.024-2.293 1.844-2.3-.18-.008 1.546.647 2.345 1.717.35.469.674 1.182.725 1.764.1 1.133.012 3.337.012 3.337s1.785-1.505 2.939-1.58c.87-.057 1.885.247 2.456.907.766.885.708 2.263.732 3.433.026 1.328-.543 3.895-.543 3.895s-1.316-2.512-2.593-2.543c-.81-.02-1.669.735-1.99 1.479-.431.993.403 3.237.403 3.237 5.047 3.94 10.27-.101 11.34-4.04v-1.483c-2.113.291-3.012.662-5.125 3.102l-.675-9.846c2.023 1.829 3.777 2.486 5.8 2.158-.19-2.86-1.624-4.135-3.96-6.638l2.293-.675h6.863l2.293.675c-2.336 2.503-3.943 3.777-4.133 6.638 2.023.328 3.777-.329 5.8-2.158l-.675 9.846c-2.113-2.44-3.012-2.811-5.125-3.102v1.484c1.07 3.938 6.293 7.98 11.34 4.04 0 0 .834-2.245.404-3.238-.322-.744-1.18-1.499-1.99-1.48-1.278.032-2.594 2.544-2.594 2.544s-.57-2.567-.543-3.895c.024-1.17-.034-2.548.732-3.433.571-.66 1.585-.964 2.456-.907 1.154.075 2.94 1.58 2.94 1.58s-.089-2.204.01-3.337c.052-.582.377-1.295.726-1.764.799-1.07 2.525-1.725 2.345-1.718-.18.008 1.333 1.067 1.844 2.3.223.54.363 1.312.27 1.89-.183 1.122-.81 3.236-.81 3.236s2.1-1.02 3.237-.809c.859.16 1.767.703 2.158 1.484.525 1.045.13 2.367-.135 3.507-.3 1.294-1.483 3.642-1.483 3.642s-.658-2.758-1.889-3.103c-.78-.218-1.797.303-2.293.944-.661.858-.404 3.238-.404 3.238-.36-.18.945 2.532 3.507 3.776 1.216.59 2.716.509 4.046.27 1.407-.252 2.58-.798 3.642-1.753.93-.835 2.158-3.238 2.158-3.238-1.917-.795-3.902-1.457-6.879-.134l1.888-7.959c1.596 1.546 2.962 3.804 5.935 4.317-.028-2.742.07-5.388-1.348-9.172l2.62.482 5.877 3.16s-2.765 5.336-4.098 8.205c-2.738 5.896-6.558 18.366-6.558 18.366l-.118.336c-19.54-4.374-38.638-3.864-57.46-.336z"/><path fill="#e1bb16" d="M280.639 91.247c-3.151.412-6.293.916-9.428 1.503 0 0-3.82-12.47-6.558-18.366-1.333-2.87-4.098-8.206-4.098-8.206l5.61-3.237 2.887-.404c-1.419 3.784-1.32 6.43-1.348 9.172 2.973-.513 4.34-2.77 5.935-4.317l1.888 7.959c-2.977-1.323-4.962-.661-6.88.134 0 0 1.23 2.403 2.159 3.238 1.063.955 2.235 1.5 3.642 1.753 1.33.239 2.83.32 4.046-.27l2.145 11.041zm40.867-11.04c1.216.59 2.716.508 4.046.27 1.407-.253 2.58-.8 3.642-1.754.93-.835 2.158-3.238 2.158-3.238-1.917-.795-3.902-1.457-6.879-.134l1.888-7.959c1.596 1.546 2.962 3.804 5.935 4.317-.028-2.742.07-5.388-1.348-9.172l2.62.482 5.877 3.16s-2.765 5.336-4.098 8.205c-2.738 5.896-6.558 18.366-6.558 18.366l-.118.336a128.602 128.602 0 0 0-10.532-1.9l-.308.282 3.675-11.262z"/><path fill="#c6ad18" d="M276.776 91.798a176.14 176.14 0 0 0-5.565.952s-3.82-12.47-6.558-18.366c-1.333-2.87-4.098-8.206-4.098-8.206l5.61-3.237 2.887-.404c-1.419 3.784-1.32 6.43-1.348 9.172 2.973-.513 4.34-2.77 5.935-4.317l1.888 7.959c-2.977-1.323-4.962-.661-6.88.134 0 0 1.23 2.403 2.159 3.238 1.063.955 2.235 1.5 3.642 1.753l2.328 11.322zm48.776-11.322c1.407-.252 2.58-.798 3.642-1.753.93-.835 2.158-3.238 2.158-3.238-1.917-.795-3.902-1.457-6.879-.134l1.888-7.959c1.596 1.546 2.962 3.804 5.935 4.317-.028-2.742.07-5.388-1.348-9.172l2.62.482 5.877 3.16s-2.765 5.336-4.098 8.205c-2.738 5.896-6.558 18.366-6.558 18.366l-.118.336a128.575 128.575 0 0 0-5.705-1.142l-.25-.256 2.836-11.212z"/><path fill="#edd05c" d="M306.25 90.072l.742-12.953c-2.62-.744-4.685-3.095-5.314-5.41v-1.484c2.113.291 3.012.662 5.125 3.102l.675-9.846c-2.023 1.829-3.777 2.486-5.8 2.158.19-2.86 1.71-4.077 4.046-6.58l-2.293-.675h-6.862l-2.293.674c2.335 2.504 3.856 3.72 4.046 6.58-2.023.33-3.777-.328-5.8-2.157l.675 9.846c2.113-2.44 3.012-2.811 5.125-3.102v1.484c-.633 2.33-2.72 4.695-5.362 5.423l.818 12.94c4.172-.159 8.44-.178 12.471 0z"/><path fill="#b39d17" d="M336.144 72.137c-.648 1.294-.322 1.226-.797 2.247-2.738 5.896-6.558 18.366-6.558 18.366l-.118.336c-.942-.21-1.882-.41-2.822-.598l-.133-.037 7.995-21.459c-.973.018 3.116 1.222 2.433 1.145zm-62.347 20.148c-.863.149-1.725.304-2.586.465 0 0-3.82-12.47-6.558-18.366-.573-1.234-.29-.54-1.059-2.066l2.972-1.081 7.23 21.048z"/><path fill="#eac634" d="M260.267 66.28l1.983 3.418 5.535-2.267 1.344-4.763h-2.516l-6.346 3.611zm79.366.04l-1.983 3.42-5.676-2.408-1.203-4.623h2.516l6.346 3.611z"/><path fill="#d2b225" d="M269.786 75.251l-1.313-3.72 1.641-.656 3.282-3.283 2.08 7.878-2.955-.875h-1.532l-1.203.656zm60.274-.068l1.312-3.72-1.64-.657-3.283-3.282-2.08 7.878 2.955-.876h1.532l1.203.657z"/><path fill="#eac634" d="M271.536 70l1.532 4.266 2.517 1.204-1.86-7.987-2.189 2.516zm57.046-.014l-1.532 4.267-2.516 1.203 1.86-7.987 2.188 2.517z"/><path fill="#edd05c" d="M261.36 67.373l7.332-2.954.437-1.75h-2.954l-5.799 3.61.985 1.094zm77.234-.013l-7.331-2.955-.438-1.75 2.764.38 5.99 3.23-.985 1.095zm-60.595 5.968s-.584-2.098-.28-3.085c.165-.54.53-1.161 1.074-1.308 1.38-.373 4.02 1.495 4.02 1.495s-.722-3.294-.608-4.954c.054-.788.608-2.29.608-2.29s.835.996 1.075 1.589c.706 1.745.981 5.562.981 5.562s1.967-2.172 3.272-2.15c.648.01 1.28.552 1.59 1.122.379.698.093 2.383.093 2.383l1.542 1.963.327-5.749-.794-1.822-2.01-.748-1.402.233-1.917 1.356-.046-3.74-.795-1.542-2.056-1.729-1.823 2.243-.561 2.01.935 3.459-2.851-.841-1.543.233-1.262 1.496.187 2.71 1.776 4.02.468-1.916zm43.994-.187s.584-2.098.28-3.085c-.165-.54-.53-1.161-1.074-1.308-1.38-.373-4.02 1.495-4.02 1.495s.722-3.294.608-4.954c-.055-.788-.608-2.29-.608-2.29s-.835.996-1.075 1.589c-.707 1.745-.982 5.562-.982 5.562s-1.966-2.172-3.271-2.15c-.649.01-1.28.552-1.59 1.121-.379.7-.093 2.384-.093 2.384l-1.542 1.963-.327-5.749.794-1.823 2.01-.747 1.402.233 1.916 1.356.047-3.74.795-1.542 2.056-1.73 1.823 2.244.56 2.01-.934 3.459 2.851-.841 1.543.233 1.262 1.496-.187 2.71-1.777 4.02-.467-1.916z"/><path fill="#f1dc79" d="M304.827 59.84l1.07-.699-2.335-.889-6.556.223-2.667.555 1.246 1.152 2.929-.438.107 10.734v16.101l3.435.107-.751-27.157 3.522.31z"/><path fill="none" stroke="#000" stroke-width=".465" d="M271.21 92.75s-3.819-12.47-6.557-18.366c-1.333-2.87-4.098-8.206-4.098-8.206l5.61-3.237 2.887-.404c-1.419 3.784-1.32 6.43-1.348 9.172 2.973-.513 4.34-2.77 5.935-4.317l1.888 7.959c-2.977-1.323-4.962-.661-6.88.134 0 0 1.23 2.403 2.159 3.238 1.063.955 2.235 1.5 3.642 1.753 1.33.239 2.83.32 4.046-.27 2.562-1.244 3.867-3.956 3.507-3.776 0 0 .257-2.38-.404-3.238-.496-.641-1.513-1.162-2.293-.944-1.231.345-1.889 3.103-1.889 3.103s-1.183-2.348-1.483-3.642c-.265-1.14-.66-2.462-.135-3.507.391-.78 1.3-1.325 2.158-1.484 1.136-.21 3.237.81 3.237.81s-.627-2.115-.81-3.238c-.093-.577.047-1.348.27-1.888.511-1.234 1.326-1.886 1.844-2.592.693.691 1.546.939 2.345 2.01.35.468.674 1.181.725 1.763.1 1.133.012 3.337.012 3.337s1.785-1.505 2.939-1.58c.87-.057 1.885.247 2.456.907.766.885.708 2.263.732 3.433.026 1.328-.543 3.895-.543 3.895s-1.316-2.512-2.593-2.543c-.81-.02-1.669.735-1.99 1.479-.431.993.403 3.237.403 3.237 5.047 3.94 10.27-.101 11.34-4.04v-1.483c-2.113.291-3.012.662-5.125 3.102l-.675-9.846c2.023 1.829 3.777 2.486 5.8 2.158-.19-2.86-1.71-4.074-4.046-6.577l2.293-.674h6.862l2.293.674c-2.335 2.503-3.856 3.716-4.046 6.577 2.023.328 3.777-.329 5.8-2.158l-.675 9.846c-2.113-2.44-3.012-2.811-5.125-3.102v1.484c1.07 3.938 6.293 7.98 11.34 4.04 0 0 .834-2.245.404-3.238-.322-.744-1.18-1.499-1.99-1.48-1.278.032-2.594 2.544-2.594 2.544s-.57-2.567-.543-3.895c.024-1.17-.034-2.548.732-3.433.571-.66 1.585-.964 2.456-.907 1.154.075 2.94 1.58 2.94 1.58s-.089-2.204.01-3.337c.052-.582.377-1.295.726-1.764.799-1.07 1.303-1.55 2.113-2.358.6.755 1.565 1.707 2.076 2.94.223.54.363 1.312.27 1.89-.183 1.122-.81 3.236-.81 3.236s2.1-1.02 3.237-.809c.859.16 1.767.703 2.158 1.484.525 1.045.13 2.367-.135 3.507-.3 1.294-1.483 3.642-1.483 3.642s-.658-2.758-1.889-3.103c-.78-.218-1.797.303-2.293.944-.661.858-.404 3.238-.404 3.238-.36-.18.945 2.532 3.507 3.776 1.216.59 2.716.509 4.046.27 1.407-.252 2.58-.798 3.642-1.753.93-.835 2.158-3.238 2.158-3.238-1.917-.795-3.902-1.457-6.879-.134l1.888-7.959c1.596 1.546 2.962 3.804 5.935 4.317-.028-2.742.07-5.388-1.348-9.172l2.62.482 5.877 3.16s-1.161 2.241-2.342 4.6c-.64 1.28-1.287 2.596-1.756 3.605-2.738 5.896-6.558 18.366-6.558 18.366l-.118.336c-19.54-4.374-38.638-3.864-57.46-.336z"/></g><g stroke-width=".598"><g color="#000"><path d="M271.225 97.022c19.892-4.364 39.058-3.947 57.83.021 3.233 1.064 3.966-6.318.808-7.89-19.577-5.806-54.322-2.47-59.796 0-1.647-.293-3.912 7.666 1.158 7.87z" style="text-indent:0;text-align:start;text-transform:none;block-progression:tb;marker:none" fill="#fff" overflow="visible"/><path d="M271.225 97.022c19.892-4.364 39.058-3.947 57.83.021 1.071.353 2.186-1.851 2.657-2.834-26.883-6.69-42.873-4.9-63.624 0-.186-.72-.289.438.582 1.452.596.695 2.1 1.255 2.555 1.362z" style="text-indent:0;text-align:start;text-transform:none;block-progression:tb;marker:none" fill="#ccc" overflow="visible"/><path d="M271.225 97.022c19.892-4.364 39.058-3.947 57.83.021 3.233 1.064 3.966-6.318.808-7.89-19.577-5.806-54.322-2.47-59.796 0-1.647-.293-3.912 7.666 1.158 7.87z" style="text-indent:0;text-align:start;text-transform:none;block-progression:tb;marker:none" fill="none" stroke="#000" stroke-width=".465" overflow="visible"/></g><path d="M296.5 91.766s2.543-1.044 3.884-1.3c1.38-.264 4.208-.23 4.208-.23l-1.58-.792s-1.515-.232-2.797-.626c-.732-.226-1.587-.623-2.318-.655-.931-.04-2.256.325-2.256.325l2.511.629s-.729.177-1.279.371c-.393.139-1.465.72-1.465.72l2.86.025s-.83.391-1.163.697c-.253.232-.605.836-.605.836z"/><path d="M284.792 92.469s2.389-1.36 3.686-1.786c1.334-.438 4.144-.767 4.144-.767l-1.67-.583s-1.53-.036-2.852-.264c-.755-.13-1.654-.414-2.383-.352-.929.078-2.196.61-2.196.61l2.57.303s-.7.269-1.22.532c-.372.187-1.36.901-1.36.901l2.838-.341s-.773.494-1.064.84c-.221.263-.493.907-.493.907zm23.528-.114s2.602-.888 3.955-1.063c1.394-.18 4.215.024 4.215.024l-1.53-.885s-1.498-.324-2.753-.795c-.717-.27-1.546-.717-2.274-.793-.927-.097-2.271.187-2.271.187l2.468.78s-.739.133-1.3.293c-.4.115-1.505.63-1.505.63l2.853.198s-.852.34-1.203.625c-.267.217-.654.799-.654.799z"/><path d="M273.342 93.88s2.212-1.63 3.45-2.204c1.275-.591 4.027-1.246 4.027-1.246l-1.726-.384s-1.525.143-2.864.072c-.765-.041-1.69-.218-2.408-.072-.913.187-2.109.863-2.109.863h2.588s-.664.35-1.15.671c-.347.23-1.246 1.054-1.246 1.054l2.78-.67s-.71.58-.959.958c-.19.287-.383.959-.383.959zm46.713-.232s2.679-.614 4.044-.648c1.404-.034 4.189.46 4.189.46l-1.43-1.038s-1.456-.477-2.656-1.075c-.686-.343-1.464-.874-2.18-1.025-.912-.193-2.278-.049-2.278-.049l2.374 1.031s-.748.056-1.323.158c-.41.072-1.563.47-1.563.47l2.818.492s-.883.25-1.262.498c-.288.188-.733.726-.733.726z"/></g><g stroke-width=".598"><g transform="translate(165.732 1.269) scale(.77757)"><rect width="12.202" height="7.05" x="166.576" y="98.883" fill="#1d369e" ry="2.249"/><path fill="#4163ef" d="M168.265 104.495l-.058-3.238.867-.752 7.575-.058 1.04 1.62-.057 2.08h1.098l.058-3.41-1.387-1.967-9.02.116-1.678 1.272.058 3.816.578.694.926-.173z"/><path fill="#2545cb" d="M166.935 102.933l2.081 1.388 7.17.058.925-.925.058-2.082 1.214-1.85.637 1.272-.29 3.758-1.156 1.562-8.847-.174-1.85-1.214-.29-.752.348-1.04z"/><rect width="12.202" height="7.05" x="166.576" y="98.883" fill="none" stroke="#000" ry="2.249"/><rect width="3.812" height="1.598" x="168.944" y="101.06" fill="#5674f1" ry=".752"/></g><path fill="#2ca02c" d="M288.806 81.641a4.507 2.748-6.311 1 1-8.898 1.352 4.507 2.748-6.311 1 1 8.898-1.352z"/><path fill="#237f23" d="M279.936 83.253c3.826.666 6.976.396 8.133-2.634l.774.891v1.278l-1.936 1.51-2.44.814-3.02-.504-1.511-1.355z"/><path fill="#32b532" d="M279.975 82.556c1.697-1.447 4.038-2.177 6.66-2.595l-2.168-.503-2.478.58-1.51 1.278-.504 1.24z"/><path fill="none" stroke="#000" stroke-width=".653" d="M157.483 104.188a5.775 4.23 0 1 1-11.55 0 5.775 4.23 0 1 1 11.55 0z" transform="matrix(.77038 -.11702 .14164 .63647 152.728 33.757)"/><path fill="#6cd66c" d="M284.39 81.568a1.394.716 0 1 1-2.789 0 1.394.716 0 1 1 2.789 0z"/><path fill="#d71e1e" d="M269.32 87.587l4.6-3.459-6.957-2.657s-1.064 1.018-1.265 1.898c-.278 1.217-.272 2.06.506 3.036.694.87 3.116 1.182 3.116 1.182z"/><path fill="#9b1616" d="M265.574 85.543l1 1.333 2.917.75 4.417-3.5c-2.57.714-4.542 2.127-8.334 1.417z"/><path fill="#e43a3a" d="M265.408 83.96c2.722-1.604 5.445-.277 8.167-.084l-6.584-2.417-1.167 1.25-.416 1.25z"/><path fill="#ed7676" d="M268.241 83.751a1.083.792 0 1 1-2.167 0 1.083.792 0 1 1 2.167 0z"/><path fill="none" stroke="#000" stroke-width=".465" d="M269.32 87.587l4.6-3.459-6.957-2.657s-1.064 1.018-1.265 1.898c-.278 1.217-.272 2.06.506 3.036.694.87 3.116 1.182 3.116 1.182z"/><g><path fill="#2ca02c" d="M311.194 81.641a2.748 4.507-83.689 1 1 8.898 1.352 2.748 4.507-83.689 1 1-8.898-1.352z"/><path fill="#237f23" d="M320.064 83.253c-7.025 1.29-7.375-.499-8.907-1.743v1.278l1.936 1.51 2.44.814 3.02-.504 1.511-1.355z"/><path fill="#32b532" d="M320.025 82.556c-1.697-1.447-5.48-1.567-8.103-1.985l3.61-1.113 2.48.58 1.51 1.278.503 1.24z"/><path fill="none" stroke="#000" stroke-width=".653" d="M157.483 104.188a5.775 4.23 0 1 1-11.55 0 5.775 4.23 0 1 1 11.55 0z" transform="matrix(-.77038 -.11702 -.14164 .63647 447.272 33.757)"/><path fill="#6cd66c" d="M312.99 81.395a.716 1.394 90 1 1 2.788 0 .716 1.394 90 1 1-2.789 0z"/><path fill="#d71e1e" d="M330.68 87.587l-4.6-3.459 6.957-2.657s1.064 1.018 1.265 1.898c.278 1.217.272 2.06-.506 3.036-.694.87-3.116 1.182-3.116 1.182z"/><path fill="#9b1616" d="M334.426 85.543l-1 1.333-2.917.75-4.417-3.5c2.57.714 4.542 2.127 8.334 1.417z"/><path fill="#e43a3a" d="M334.592 83.96c-2.722-1.604-5.445-.277-8.167-.084l6.584-2.417 1.167 1.25.416 1.25z"/><path fill="#ed7676" d="M331.759 83.751a.792 1.083 90 1 1 2.167 0 .792 1.083 90 1 1-2.167 0z"/><path fill="none" stroke="#000" stroke-width=".465" d="M330.68 87.587l-4.6-3.459 6.957-2.657s1.064 1.018 1.265 1.898c.278 1.217.272 2.06-.506 3.036-.694.87-3.116 1.182-3.116 1.182z"/></g></g><g stroke-width=".598"><path fill="#ccc" d="M297.09 67.846a2.91 2.91 0 1 1 5.82 0 2.91 2.91 0 1 1-5.82 0z"/><path fill="#e6e6e6" d="M297.527 67.472a2.197 2.258 90 1 1 4.516 0 2.197 2.258 90 1 1-4.516 0z"/><path fill="#fff" d="M297.722 67.089a1.67 1.677 0 1 1 3.34 0 1.67 1.677 0 1 1-3.34 0z"/><path fill="none" stroke="#000" stroke-width=".465" d="M297.09 67.846a2.91 2.91 0 1 1 5.82 0 2.91 2.91 0 1 1-5.82 0z"/></g><g stroke-width=".598"><path fill="#ccc" d="M330.561 74.112a2.91 2.91 0 1 1 5.82 0 2.91 2.91 0 1 1-5.82 0z"/><path fill="#e6e6e6" d="M330.998 73.738a2.197 2.258 90 1 1 4.516 0 2.197 2.258 90 1 1-4.516 0z"/><path fill="#fff" d="M331.193 73.354a1.67 1.677 0 1 1 3.34 0 1.67 1.677 0 1 1-3.34 0z"/><path fill="none" stroke="#000" stroke-width=".465" d="M330.561 74.112a2.91 2.91 0 1 1 5.82 0 2.91 2.91 0 1 1-5.82 0z"/><g><path fill="#ccc" d="M263.62 74.112a2.91 2.91 0 1 1 5.819 0 2.91 2.91 0 1 1-5.82 0z"/><path fill="#e6e6e6" d="M264.057 73.738a2.197 2.258 90 1 1 4.515 0 2.197 2.258 90 1 1-4.515 0z"/><path fill="#fff" d="M264.25 73.354a1.67 1.677 0 1 1 3.34 0 1.67 1.677 0 1 1-3.34 0z"/><path fill="none" stroke="#000" stroke-width=".465" d="M263.62 74.112a2.91 2.91 0 1 1 5.819 0 2.91 2.91 0 1 1-5.82 0z"/></g></g><g stroke="#161111"><path fill="#cf142b" stroke-linecap="round" stroke-linejoin="round" stroke-width="1.00551295" d="M312.06592 169.05172c1.56414-1.53908 3.8442-2.21083 5.40225-6.23778 1.30813-3.46665 2.30405-8.94315 3.193-12.24444.32797-1.16322.7672-3.41336 1.16293-5.06296.34607-1.4426.96326-2.93622 1.1393-3.53161.34232-1.1578.4576-2.50928.60805-3.45414.32744-2.0561.60734-3.48473-.9435-3.33161-1.62004.15995-2.09076.40017-2.75852 1.37581-.61623.90034-1.4089 2.19597-1.87472 3.6479-.6367 2.10022-1.09585 3.99376-1.6628 5.4591-.6588 1.70278-.7803 1.46927-1.73823 3.49155-1.323-1.75865-1.41712-3.17816-1.7438-5.6254-.325-2.43466-.59276-5.02453-.68504-7.81365-.17358-5.24558-.47935-10.74256-.54326-12.7797-.17189-2.6897.0141-6.56006-.61668-8.54777-.29402-.92652-.94028-2.20343-2.17676-2.16454-1.4342.0106-2.349 1.13779-2.54272 2.30986-.1396.9262-.20866 2.70233-.26482 3.90172-.08159 1.74298-.07067 3.23693-.00424 4.95306.0729 1.88622.016 7.66792-.0215 9.54878-.0693 3.4726-.50082 3.66426-1.14537 3.61989-.49682-.41495-.2454-7.09345-.44193-12.85872-.07459-2.1873-.13247-5.07817-.17051-7.08654-.03073-1.62424-.02999-3.56653-.2042-4.82833-.29737-2.15283-.93061-3.53956-2.49226-3.53956-1.05327 0-1.9246.03539-2.4069 2.42956-.25995 1.29042-.37108 4.43904-.3357 6.16394.03953 1.92653.04737 3.06212.0995 5.7129.09515 4.84305.51227 13.6355-.64324 13.85643-1.01167-.21678-.86198-2.1194-1.03919-6.71988-.06982-1.81232-.2219-4.91381-.31913-7.00414-.11626-2.4995-.25497-6.13927-.31762-7.80666-.17041-1.54022-.32023-3.6055-2.25857-3.43131-1.01751-.12437-1.7636.65171-2.19742 3.39502-.24158 1.52775-.07692 7.61738.01537 9.64277.18365 4.03187.12534 5.01738.148 7.55586.02203 2.46321.2598 5.81903-.65765 5.87716-1.10453-.01621-.78758-1.79617-.969-4.61766-.17802-2.76848-.29039-6.29965-.26785-5.48916 0-1.42544-.17607-3.51989-.30465-5.27081-.10055-1.36738-.03772-2.87595-1.52088-2.75546-1.50531.1223-2.42937.63122-2.74078 3.20837-.20174 1.66945-.2571 5.27866-.30101 6.58687.16181 3.32773-.65107 10.09697-1.05394 12.30309-.11005 1.56322-.80339 4.58582-1.0644 6.76512-.56154 4.6901-.78426 7.93393-.16353 10.74462.48788 2.45276.83377 4.3704 1.78295 6.33824.88146 1.82747 2.52963 3.57743 2.89214 5.07889.70767 2.93112.37666 8.58857.37666 10.96554 0 2.37699 2.06482 2.50508 6.33936 1.5846 6.98874-1.5055 10.8078 1.50549 16.57872-.7131-.73219-6.5762.6943-10.52976.65673-12.90674z"/><path fill="none" stroke-width="1.0065724999999999" d="M302.52144 162.69019c.15927-8.12453 7.528-16.98375 10.35933-18.72698m-20.85751 5.38422c2.1765-.85834 4.43643-1.48146 6.6479-2.23766 2.70646-.76342 5.32727-1.85762 8.12008-2.29009 1.34558-.27422 4.56569-1.1304 5.93817-1.22302"/><path fill="none" stroke-linecap="round" stroke-linejoin="round" stroke-width="1.0065724999999999" d="M287.81931 170.45175c.23225.41323.7811.43558 1.55243.49342.84763.01261.97727.03931 1.51374.03603.94917-.01367 1.56236-.01452 2.51145.00318.72202-.02278 3.16665-.4924 4.98606-.63878 1.01825-.0819 1.83088.15815 2.35854.19376"/><path fill="none" stroke-linecap="round" stroke-linejoin="round" stroke-width="1.0065724999999999" d="M299.47465 170.34554c.15492.12723 1.53537.1193 2.55075.43293.89627.2769 1.52327.33407 1.68766.39902.62559.0676.2126.3998 3.71477.1178 2.17242.13881 4.09587-1.73711 4.63809-2.24357"/></g><path d="M51.93986 312.53495v9.19382c0 1.59052.24824 2.82887.74185 3.71505.9266 1.62227 2.68743 2.4363 5.2767 2.4363 2.59217 0 4.34723-.81403 5.26805-2.4363.49361-.88618.73897-2.12453.73897-3.71505v-9.19382h-3.17526v9.19382c0 1.03052-.12123 1.78103-.3637 2.25443-.38104.83712-1.20372 1.25856-2.46805 1.25856-1.2701 0-2.09567-.42144-2.4767-1.25856-.24248-.4734-.36372-1.22391-.36372-2.25443v-9.19382zm6.01856 0zm17.69486 4.53196c-.72743-.60041-1.66269-.89773-2.80578-.89773-.91505 0-1.66845.22227-2.2631.66969-.33195.24825-.68412.65814-1.05649 1.2268v-1.6136h-2.79134v11.04124h2.88371v-5.9868c0-.68413.09237-1.24413.28289-1.68578.3666-.83134 1.03917-1.24701 2.02062-1.24701.7967 0 1.33938.28288 1.62227.85154.15587.31176.23381.75918.23381 1.33939v6.72866h2.96454v-7.44743c0-1.38845-.36371-2.38144-1.09113-2.97897zm-3.87382-.92948zm10.60537-1.02475v-2.6701h-2.93279v2.6701zm-2.93279 1.31918v11.06145h2.93279v-11.06145zm4.59836 2.16206h1.54144v6.8095c0 .68989.16454 1.20082.48783 1.53278.49939.51958 1.43465.75629 2.8.7101l1.37114-.05196v-2.16206a4.69703 4.69703 0 0 1-.28866.01732c-.09814.00288-.19051.00577-.28.00577-.58886 0-.94103-.05773-1.0565-.1703-.11257-.1097-.1703-.39259-.1703-.84578v-5.84537h1.79546v-2.06103h-1.79546V313.45h-2.86351v3.08289H84.0504zm10.86227.55712c.36949-.41856.88907-.62928 1.55876-.62928.61485 0 1.13155.19917 1.54722.59464.41567.39546.64949.97567.69567 1.74062H94.2199c.09237-.71877.32618-1.28454.69278-1.70598zm4.04413-2.49691c-.73609-.3435-1.56454-.5167-2.48537-.5167-1.5501 0-2.80866.51092-3.78144 1.53278-.9699 1.02186-1.45485 2.49114-1.45485 4.40495 0 2.04372.53691 3.51877 1.61361 4.42516 1.0767.9064 2.31794 1.35959 3.72372 1.35959 1.70598 0 3.03093-.5398 3.97773-1.61361.60907-.67835.95258-1.34516 1.02474-2.00041h-2.95299c-.15587.32618-.33484.5802-.5369.76206-.37238.33773-.85444.50804-1.45197.50804-.56 0-1.04206-.13856-1.4404-.41856-.65527-.44453-1.00455-1.22392-1.04496-2.33237h7.57155c.01155-.95546-.01732-1.68577-.09237-2.19382-.1299-.86598-.4099-1.62515-.84288-2.2833-.47918-.74185-1.08825-1.28742-1.82722-1.63381zm-2.2833-.5167zm12.8598.4734c-.52247-.29443-1.11711-.44165-1.7868-.44165-1.45485 0-2.61815.5398-3.48702 1.62227-.86886 1.08247-1.30474 2.56907-1.30474 4.4569 0 1.63671.44165 2.9761 1.32495 4.02393.8833 1.04495 1.97155 1.56742 3.26474 1.56742.78227 0 1.44042-.1501 1.96866-.44742.52536-.29732.99588-.7736 1.40866-1.43175v1.53278h2.81155v-14.93815h-2.93278v5.2767c-.3233-.51959-.74763-.9266-1.26722-1.22103zm.7101 7.88042c-.42721.60618-1.05072.91216-1.86763.91216-.8198 0-1.42886-.30598-1.83299-.91794-.40124-.61196-.6033-1.42886-.6033-2.45072 0-.9468.19918-1.74062.59464-2.38145.39547-.63793 1.01609-.95835 1.86186-.95835.55423 0 1.04206.17609 1.46062.52825.68412.5802 1.02474 1.5501 1.02474 2.90103 0 .9699-.2136 1.75794-.63794 2.36702zm12.17568-11.9563v14.95836h3.07712v-5.00248l1.48948-1.53278 4.61856 6.53526h4.01815l-6.44289-8.79836 6.12825-6.16h-4.03835l-5.7732 6.16v-6.16zm17.70063 2.57773v-2.6701h-2.93278v2.6701zm-2.93278 1.31918v11.06145h2.93278v-11.06145zm14.6697.63505c-.72742-.60041-1.66268-.89773-2.80866-.89773-.91217 0-1.66557.22227-2.2631.66969-.32907.24825-.68123.65814-1.0536 1.2268v-1.6136h-2.79135v11.04124h2.88083v-5.9868c0-.68413.09526-1.24413.28577-1.68578.36371-.83134 1.03918-1.24701 2.02062-1.24701.7967 0 1.33938.28288 1.62227.85154.15588.31176.23382.75918.23382 1.33939v6.72866h2.96165v-7.44743c0-1.38845-.36371-2.38144-1.08825-2.97897zm-3.87382-.92948zm14.09816 8.21526c-.46763.51093-1.03918.76495-1.71753.76495-1.0132 0-1.71753-.46474-2.1101-1.4-.2165-.49938-.3233-1.07093-.3233-1.71464 0-.74475.10103-1.36825.30309-1.8763.3868-.95546 1.08536-1.43175 2.10144-1.43175.74475 0 1.3365.27423 1.78104.82268.44165.54846.66391 1.34516.66391 2.39588 0 1.11423-.23381 1.92825-.69855 2.43918zm-.98433-7.9295c-.41279-.1703-.89774-.25401-1.45196-.25401-1.50392 0-2.66145.56-3.48124 1.68-.8198 1.11711-1.2268 2.4998-1.2268 4.14516 0 1.7031.42432 3.05402 1.27298 4.05278.84866.99877 1.9831 1.49815 3.4033 1.49815.92083 0 1.66846-.21938 2.2429-.66103.31752-.2367.61484-.59176.89484-1.06516v.7101c0 1.0565-.11547 1.80702-.3464 2.25444-.35216.69567-1.04783 1.04495-2.0899 1.04495-.73896 0-1.26144-.13278-1.57319-.39546-.18186-.1501-.31464-.39258-.39546-.73031h-3.1464c.09526 1.10268.58887 1.93113 1.48083 2.48536.89484.55423 2.0466.83134 3.46103.83134 2.34103 0 3.9229-.6235 4.74846-1.86763.48206-.72454.72165-1.79835.72165-3.22722v-10.4928h-2.81155v1.59341c-.43299-.7765-1.00165-1.3134-1.7031-1.60206zm-.52825-.28576zm13.60743.4734c-.51959-.29443-1.11711-.44165-1.7868-.44165-1.45485 0-2.61526.5398-3.48413 1.62227-.86887 1.08247-1.30474 2.56907-1.30474 4.4569 0 1.63671.44165 2.9761 1.32494 4.02393.8833 1.04495 1.96867 1.56742 3.26186 1.56742.78516 0 1.44042-.1501 1.96866-.44742.52825-.29732.99877-.7736 1.41155-1.43175v1.53278h2.81155v-14.93815h-2.93279v5.2767c-.32618-.51959-.74763-.9266-1.2701-1.22103zm.7101 7.88042c-.42433.60618-1.04783.91216-1.86763.91216-.8169 0-1.42886-.30598-1.8301-.91794-.40412-.61196-.6033-1.42886-.6033-2.45072 0-.9468.19629-1.74062.59175-2.38145.39547-.63793 1.01609-.95835 1.86186-.95835.55711 0 1.04206.17609 1.4635.52825.68124.5802 1.02475 1.5501 1.02475 2.90103 0 .9699-.2136 1.75794-.64083 2.36702zm13.03012.06062c-.4532.6004-1.10268.9035-1.94846.9035-.84577 0-1.49526-.3031-1.95134-.9035-.45897-.6033-.68701-1.45774-.68701-2.56908 0-1.10845.22804-1.96289.68701-2.5633.45608-.59753 1.10557-.89773 1.95134-.89773.84578 0 1.49526.3002 1.94846.89773.4532.60041.68123 1.45485.68123 2.5633 0 1.11134-.22804 1.96578-.68123 2.56908zm2.31505 1.59628c.93237-1.15175 1.4-2.5402 1.4-4.16536 0-1.59629-.46763-2.97897-1.4-4.15093-.93526-1.16907-2.35258-1.75505-4.25196-1.75505-1.90227 0-3.3196.58598-4.25196 1.75505-.93526 1.17196-1.4 2.55464-1.4 4.15093 0 1.62516.46474 3.01361 1.4 4.16536.93237 1.15464 2.34969 1.73196 4.25196 1.73196 1.89938 0 3.3167-.57732 4.25196-1.73196zm-4.25196-10.01072zm21.52249.33484c-.4734-.18763-.95258-.28289-1.44042-.28289-.7303 0-1.39422.1501-1.98886.45609-.56.3031-1.03052.78227-1.40866 1.43175-.2165-.54268-.53691-.98433-.95547-1.33072-.51959-.37237-1.20371-.55712-2.04948-.55712-.89196 0-1.61939.2165-2.18227.64949-.31753.24247-.65526.65237-1.01609 1.2268v-1.6136h-2.80866v11.04124h2.93279v-6.6565c0-.6033.07793-1.0565.23381-1.35959.28289-.53402.83711-.80247 1.66268-.80247.7101 0 1.1864.26845 1.43176.80247.13567.29732.20206.77361.20206 1.43176v6.58433h2.91258v-6.58433c0-.4965.07794-.91794.23381-1.2701.3031-.66393.85444-.993 1.65402-.993.6899 0 1.1633.2569 1.42021.77072.13567.26846.20206.61485.20206 1.0334v7.04331h2.96454l.0202-6.97114c0-.71876-.03463-1.26144-.10102-1.63381-.1097-.5629-.31753-1.0363-.62928-1.42021-.3868-.4734-.81402-.80536-1.29031-.99588zm9.58062 3.8565v2.73938h5.82516v-2.73938zm13.75177-7.79382v14.95836h2.91257v-10.62557l6.10805 10.62557h3.12619v-14.95836h-2.91258v10.44372l-5.95794-10.44372zm6.18887-.02887zm15.54722 12.04579c-.4532.6004-1.10268.9035-1.94845.9035-.84578 0-1.49526-.3031-1.95134-.9035-.45897-.6033-.68701-1.45774-.68701-2.56908 0-1.10845.22804-1.96289.687-2.5633.45609-.59753 1.10557-.89773 1.95135-.89773.84577 0 1.49526.3002 1.94845.89773.4532.60041.68124 1.45485.68124 2.5633 0 1.11134-.22804 1.96578-.68124 2.56908zm2.31506 1.59628c.93237-1.15175 1.4-2.5402 1.4-4.16536 0-1.59629-.46763-2.97897-1.4-4.15093-.93526-1.16907-2.35258-1.75505-4.25197-1.75505-1.90226 0-3.31959.58598-4.25196 1.75505-.93526 1.17196-1.4 2.55464-1.4 4.15093 0 1.62516.46474 3.01361 1.4 4.16536.93237 1.15464 2.3497 1.73196 4.25196 1.73196 1.89939 0 3.3167-.57732 4.25197-1.73196zm-4.25197-10.01072zm13.86723.03464c-.03752-.0029-.08371-.0029-.13567-.0029-.86598 0-1.57031.22516-2.11299.67836-.33196.27134-.71876.7765-1.16619 1.51258v-1.92825h-2.75959v11.06145h2.91258v-5.28536c0-.88908.1097-1.54434.33485-1.97155.39835-.7563 1.18062-1.13444 2.34392-1.13444.0866 0 .20206.0029.3435.00866.14433.00866.30598.02021.48784.04042v-2.96166c-.12701-.00865-.21072-.01154-.24825-.01731zm.80536 2.42185h1.54433v6.8095c0 .68989.16165 1.20082.48784 1.53278.49938.51958 1.43175.75629 2.8.7101l1.37114-.05196v-2.16206a4.7923 4.7923 0 0 1-.29155.01732c-.09815.00288-.19052.00577-.27711.00577-.58887 0-.94104-.05773-1.0565-.1703-.11546-.1097-.1732-.39259-.1732-.84578v-5.84537h1.79836v-2.06103h-1.79836V313.45h-2.86062v3.08289h-1.54433zm16.02063-2.0899c-.55711-.2367-1.18062-.35505-1.86185-.35505-.60908 0-1.18928.12701-1.74062.38103-.55135.25114-1.0363.70145-1.45774 1.34227v-5.28536h-2.88082v14.9064h2.88082v-5.9868c0-.94681.19918-1.67712.59464-2.18805.39547-.51093.97567-.76495 1.74062-.76495.73608 0 1.23835.2569 1.50103.77072.20495.3666.30598.84578.30598 1.44042v6.72866h2.953v-6.49485c0-.98722-.03464-1.7002-.10104-2.13608-.06927-.43588-.25402-.86021-.56-1.273-.35793-.48783-.8169-.84865-1.37402-1.08536zm7.5398 2.64702c.36949-.41856.88907-.62928 1.55877-.62928.61484 0 1.13154.19917 1.54721.59464.41567.39546.6466.97567.69567 1.74062h-4.49732c.09526-.71877.32619-1.28454.69567-1.70598zm4.04413-2.49691c-.73897-.3435-1.56743-.5167-2.48536-.5167-1.5501 0-2.81155.51092-3.78145 1.53278s-1.45485 2.49114-1.45485 4.40495c0 2.04372.53691 3.51877 1.61361 4.42516 1.07382.9064 2.31506 1.35959 3.72372 1.35959 1.7031 0 3.03093-.5398 3.97773-1.61361.60907-.67835.9497-1.34516 1.02474-2.00041h-2.95299c-.15587.32618-.33484.5802-.5369.76206-.37238.33773-.85733.50804-1.45196.50804-.5629 0-1.04207-.13856-1.44042-.41856-.65814-.44453-1.00454-1.22392-1.04495-2.33237h7.56867c.01443-.95546-.01732-1.68577-.08949-2.19382-.1299-.86598-.4099-1.62515-.84288-2.2833-.48207-.74185-1.09114-1.28742-1.82722-1.63381zm-2.2833-.5167zm13.13691.03464c-.03752-.0029-.0837-.0029-.13855-.0029-.86598 0-1.56743.22516-2.1101.67836-.33197.27134-.71877.7765-1.1662 1.51258v-1.92825h-2.75958v11.06145h2.91258v-5.28536c0-.88908.10969-1.54434.33484-1.97155.39835-.7563 1.18062-1.13444 2.34392-1.13444.0866 0 .20206.0029.3435.00866.14434.00866.30599.02021.48784.04042v-2.96166c-.127-.00865-.21072-.01154-.24825-.01731zm10.8796.89484c-.72742-.60041-1.66268-.89773-2.80578-.89773-.91505 0-1.66845.22227-2.26309.66969-.33196.24825-.68412.65814-1.0565 1.2268v-1.6136h-2.79134v11.04124h2.88372v-5.9868c0-.68413.09237-1.24413.28288-1.68578.3666-.83134 1.03918-1.24701 2.02062-1.24701.7967 0 1.33938.28288 1.62227.85154.15588.31176.23382.75918.23382 1.33939v6.72866h2.96453v-7.44743c0-1.38845-.3637-2.38144-1.09113-2.97897zm-3.87382-.92948zm16.5027 11.35588v-14.95836h-3.10599v14.95836zm-1.553-15.2528zm10.37733 3.93156c-.03753-.0029-.08371-.0029-.13856-.0029-.86598 0-1.5703.22516-2.1101.67836-.33196.27134-.72165.7765-1.16619 1.51258v-1.92825h-2.76247v11.06145h2.91258v-5.28536c0-.88908.11257-1.54434.33484-1.97155.40124-.7563 1.18062-1.13444 2.3468-1.13444.0866 0 .20207.0029.34351.00866.14145.00866.30598.02021.48784.04042v-2.96166c-.1299-.00865-.21072-.01154-.24825-.01731zm4.74846 2.97897c.36948-.41856.88907-.62928 1.55876-.62928.61485 0 1.13155.19917 1.54722.59464.41567.39546.6466.97567.69567 1.74062h-4.49732c.09526-.71877.32618-1.28454.69567-1.70598zm4.04412-2.49691c-.73608-.3435-1.56742-.5167-2.48536-.5167-1.5501 0-2.81155.51092-3.78144 1.53278-.9699 1.02186-1.45485 2.49114-1.45485 4.40495 0 2.04372.5369 3.51877 1.6136 4.42516 1.07382.9064 2.31506 1.35959 3.72372 1.35959 1.7031 0 3.03093-.5398 3.97774-1.61361.60907-.67835.94969-1.34516 1.02474-2.00041h-2.953c-.15587.32618-.33484.5802-.5369.76206-.37237.33773-.85732.50804-1.45196.50804-.56289 0-1.04206-.13856-1.44041-.41856-.65815-.44453-1.00454-1.22392-1.04495-2.33237h7.56866c.01444-.95546-.01732-1.68577-.08948-2.19382-.1299-.86598-.4099-1.62515-.84289-2.2833-.48206-.74185-1.09113-1.28742-1.82722-1.63381zm-2.2833-.5167zm9.94434 11.35588v-14.95836h-2.89237v14.95836zm8.92248-5.37774v1.0767c-.0231.96702-.29443 1.63382-.8169 1.99753-.52537.3666-1.0998.54846-1.72042.54846-.39258 0-.72742-.1097-1.00165-.32907-.27423-.21939-.4099-.57732-.4099-1.07093 0-.55423.22227-.96413.6697-1.2297.26267-.15587.70144-.28577 1.30762-.39546l.64949-.12124c.32618-.06061.5802-.127.76783-.19629.18475-.07216.36949-.16453.55423-.28zm-1.75794-1.35092l-.98433.12123c-1.11423.14433-1.96.38103-2.53732.713-1.04784.60907-1.5732 1.5934-1.5732 2.95299 0 1.04783.32908 1.85897.98145 2.43051.65237.57155 1.47794.85732 2.47959.85732.78515 0 1.48948-.17897 2.11299-.5398.51959-.30308.97855-.67257 1.3798-1.10556.0202.25113.04618.4734.08082.6697.03464.19628.09525.407.18185.62927h3.1464v-.42722c-.19052-.0866-.33196-.19917-.42722-.33484-.09526-.13279-.1501-.3897-.1703-.77072-.01444-.49939-.0231-.9266-.0231-1.27877v-5.07175c0-1.33361-.46763-2.24-1.40866-2.72207-.94103-.47917-2.01774-.71876-3.22722-.71876-1.86186 0-3.17237.48495-3.93732 1.46062-.48207.6235-.75052 1.41732-.81114 2.38433h2.78846c.06928-.42722.20495-.76495.407-1.0132.2829-.34062.76784-.50804 1.45197-.50804.60907 0 1.07093.0866 1.38557.2569.31463.1732.47051.48784.47051.94104 0 .37237-.20495.64371-.61773.8198-.23093.10391-.61485.18762-1.14887.25402zm.153-4.62722zm15.99753.92948c-.72742-.60041-1.66268-.89773-2.80578-.89773-.91216 0-1.66556.22227-2.2631.66969-.32906.24825-.68123.65814-1.0536 1.2268v-1.6136h-2.79134v11.04124h2.88082v-5.9868c0-.68413.09526-1.24413.28578-1.68578.36371-.83134 1.03917-1.24701 2.01773-1.24701.79959 0 1.34227.28288 1.62516.85154.15587.31176.23381.75918.23381 1.33939v6.72866h2.96165v-7.44743c0-1.38845-.3637-2.38144-1.09113-2.97897zm-3.87093-.92948zm13.49774.4734c-.51959-.29443-1.11711-.44165-1.7868-.44165-1.45485 0-2.61527.5398-3.48413 1.62227-.87175 1.08247-1.30474 2.56907-1.30474 4.4569 0 1.63671.44164 2.9761 1.32494 4.02393.8833 1.04495 1.96867 1.56742 3.26186 1.56742.78516 0 1.44042-.1501 1.96866-.44742.52825-.29732.99877-.7736 1.41155-1.43175v1.53278h2.80866v-14.93815h-2.93278v5.2767c-.3233-.51959-.74763-.9266-1.26722-1.22103zm.7101 7.88042c-.42721.60618-1.04783.91216-1.86763.91216-.8169 0-1.42886-.30598-1.8301-.91794-.40413-.61196-.60619-1.42886-.60619-2.45072 0-.9468.19918-1.74062.59464-2.38145.39547-.63793 1.01609-.95835 1.86186-.95835.55423 0 1.04206.17609 1.4635.52825.68124.5802 1.02475 1.5501 1.02475 2.90103 0 .9699-.21361 1.75794-.64083 2.36702zm12.57403-8.35382c-.88041 2.02928-1.31917 4.03258-1.31917 6.00701 0 1.71175.33773 3.41485 1.0132 5.1064.57731 1.45484 1.41154 2.93278 2.50845 4.43381h1.71464l-.61773-1.13732c-.85444-1.56742-1.44619-3.2099-1.77815-4.92165-.2165-1.11423-.3233-2.33526-.3233-3.6631 0-2.05525.28-3.91711.84289-5.5798.33773-.99587.97567-2.35257 1.9167-4.0701l-1.66557-.0202-.71876.99299c-.56289.77938-1.08536 1.72907-1.5732 2.85196zm8.73774 6.7402h-2.98474c0 1.55588.56 2.77692 1.67422 3.66599 1.11712.89196 2.6499 1.3365 4.59836 1.3365 1.90804 0 3.3831-.4532 4.43093-1.3567 1.04495-.90063 1.56742-2.03795 1.56742-3.4033 0-1.33362-.44742-2.35259-1.33938-3.05403-.57732-.4532-1.42887-.8169-2.55753-1.08536l-2.57773-.62062c-.99588-.2367-1.64536-.44165-1.94846-.61773-.4734-.26557-.7101-.66392-.7101-1.19794 0-.5831.23959-1.0363.71876-1.3596.48207-.32618 1.1229-.48783 1.92825-.48783.72454 0 1.33073.12413 1.81856.37526.73031.37815 1.12289 1.01897 1.17485 1.9167h3.00495c-.05485-1.58763-.63794-2.8-1.74928-3.63711-1.11423-.83423-2.45938-1.25279-4.03547-1.25279-1.88783 0-3.31959.44165-4.29237 1.32784-.97567.88907-1.46062 2.00041-1.46062 3.3398 0 1.46927.50227 2.54886 1.51258 3.23876.59464.41278 1.66845.79382 3.22433 1.14598l1.58474.35505c.9266.20206 1.60784.43588 2.04083.70145.43299.26845.64948.65237.64948 1.14598 0 .84577-.43876 1.42309-1.31051 1.73484-.45897.16165-1.05939.24248-1.79547.24248-1.23258 0-2.10144-.30598-2.60948-.92371-.27712-.33774-.46186-.84867-.55712-1.5299zm3.03382-10.79876zm7.1963 6.51505h1.54144v6.8095c0 .68989.16165 1.20082.48783 1.53278.49938.51958 1.43464.75629 2.8.7101l1.37114-.05196v-2.16206a4.83808 4.83808 0 0 1-.28866.01732c-.09815.00288-.1934.00577-.28.00577-.58887 0-.94103-.05773-1.0565-.1703-.11546-.1097-.1732-.39259-.1732-.84578v-5.84537h1.79836v-2.06103h-1.79835V313.45h-2.86062v3.08289h-1.54145zm14.96701 5.95795c-.4532.6004-1.10268.9035-1.94845.9035-.84578 0-1.49526-.3031-1.95423-.9035-.45608-.6033-.68412-1.45774-.68412-2.56908 0-1.10845.22804-1.96289.68412-2.5633.45897-.59753 1.10845-.89773 1.95423-.89773.84577 0 1.49526.3002 1.94845.89773.4532.60041.68124 1.45485.68124 2.5633 0 1.11134-.22804 1.96578-.68124 2.56908zm2.31506 1.59628c.93237-1.15175 1.4-2.5402 1.4-4.16536 0-1.59629-.46763-2.97897-1.4-4.15093-.93526-1.16907-2.35258-1.75505-4.25197-1.75505-1.90227 0-3.31959.58598-4.25196 1.75505-.93526 1.17196-1.4 2.55464-1.4 4.15093 0 1.62516.46474 3.01361 1.4 4.16536.93237 1.15464 2.3497 1.73196 4.25196 1.73196 1.89939 0 3.3167-.57732 4.25197-1.73196zm-4.25197-10.01072zm14.75919 3.56206c.3897.65526.5831 1.41155.5831 2.2631 0 1.03628-.21073 1.86474-.63217 2.48536-.42433.6235-1.03918.93526-1.84165.93526-.55712 0-1.0363-.153-1.4433-.45609-.68124-.52247-1.02475-1.42598-1.02475-2.71051 0-.81114.10103-1.48083.30598-2.00908.39258-.99587 1.11134-1.49237 2.16207-1.49237.87175 0 1.50103.32907 1.89072.98433zm2.22268-2.08124c-.89484-.95258-1.99175-1.42887-3.28206-1.42887-.88619 0-1.65114.24537-2.29485.73897-.35216.27712-.68124.65815-.99299 1.13732v-1.63381h-2.77114v15.41444h2.86062v-5.76454c.30598.46763.61774.82268.93526 1.06805.58021.43876 1.3134.65814 2.19093.65814 1.3798 0 2.50846-.51093 3.38598-1.53278.87464-1.02186 1.3134-2.50557 1.3134-4.45403 0-1.84742-.44742-3.24742-1.34515-4.20289zm5.12083-3.51876c-1.4 1.41154-2.10144 3.4264-2.10144 6.03588 0 2.41608.61484 4.31835 1.84742 5.70392 1.2297 1.3798 2.92124 2.0697 5.07464 2.0697 1.73774 0 3.16372-.51094 4.27794-1.5328 1.11134-1.01896 1.80413-2.3468 2.07258-3.97773h-3.09443c-.20784.77072-.4734 1.35093-.79093 1.73485-.57443.71876-1.41155 1.0767-2.50557 1.0767-1.07093 0-1.95134-.41856-2.64413-1.25278-.69278-.83712-1.04206-2.09279-1.04206-3.7699 0-1.67712.32907-2.97609.98433-3.89114.65815-.91794 1.553-1.3769 2.69031-1.3769 1.11712 0 1.96.32618 2.52578.97566.32041.36371.5802.9064.78227 1.62227h3.12619c-.0462-.93237-.39258-1.86186-1.0363-2.79134-1.1633-1.64825-3.00206-2.47382-5.51917-2.47382-1.88207 0-3.42928.61485-4.64743 1.84743zm4.55506-2.02062zm18.5666 11.81196c-.72742.91506-1.70886 1.37114-2.94721 1.37114s-2.22557-.45608-2.96454-1.37114c-.73608-.91216-1.10557-2.21113-1.10557-3.8969 0-1.6829.36949-2.98186 1.10557-3.89692.73897-.91216 1.72619-1.37113 2.96454-1.37113s2.2198.45897 2.94722 1.3769c.72742.91506 1.09113 2.21403 1.09113 3.89114 0 1.68578-.36371 2.98475-1.09113 3.89691zm1.95423 2.27464c1.5097-1.42886 2.2631-3.48412 2.2631-6.17155 0-2.73938-.7534-4.79753-2.2631-6.16866-1.13154-1.16619-2.76536-1.7464-4.90144-1.7464-2.13897 0-3.77279.58021-4.90145 1.7464-1.51546 1.37113-2.27464 3.42928-2.27464 6.16866 0 2.68743.75918 4.74269 2.27464 6.17155 1.12866 1.1633 2.76248 1.74351 4.90145 1.74351 2.13608 0 3.7699-.5802 4.90144-1.7435zm-4.90144-14.0866zm18.30681.45608l-3.27917 11.35588-3.24743-11.35588h-3.3369l5.05443 14.95836h2.953l5.1035-14.95836zm7.96702 14.95836v-14.95836h-3.10598v14.95836zm-1.55299-15.2528zm7.49939 2.89238h2.88082c1.4231 0 2.3699.40701 2.8462 1.22392.47917.81402.71587 1.9831.71587 3.50433 0 1.10268-.15876 2.05526-.4763 2.85196-.5802 1.45485-1.61071 2.18227-3.08577 2.18227h-2.88082zm5.72412-2.27175c-.61773-.20495-1.38845-.31176-2.31505-.3262h-6.44289v14.95837h6.4429c2.2602 0 3.93154-.92948 5.01402-2.79134.7967-1.3798 1.19793-3.06268 1.19793-5.05155 0-.78516-.09525-1.61072-.28577-2.4767-.18763-.86598-.54268-1.67135-1.06515-2.41609-.64949-.92082-1.49815-1.55299-2.54599-1.8965zm11.97362-.3262v14.95837h2.91258v-10.62557l6.11093 10.62557h3.1233v-14.95836h-2.91258v10.44372l-5.95505-10.44372zm6.19176-.02886zm11.73114 14.98723v-14.95836h-3.10598v14.95836zm-1.55299-15.2528zm7.67258 4.07011c-.53402-1.24412-1.31629-2.5835-2.34392-4.01815h-2.18227l.61774 1.13444c.85154 1.56454 1.44618 3.20124 1.77526 4.913.2165 1.12288.32618 2.3468.32618 3.67463 0 2.0697-.3002 3.97485-.9035 5.71259-.35217 1.02762-.97279 2.3468-1.86763 3.95752h2.14185l.72165-.98433c.46475-.59464.96413-1.48082 1.48949-2.65856.94103-2.10433 1.41155-4.17402 1.41155-6.21196 0-1.8532-.39547-3.69196-1.1864-5.51918z"/></svg>