<svg id="Layer_1" data-name="Layer 1" xmlns="http://www.w3.org/2000/svg" viewBox="0 0 900 795.16713"><defs><style>.cls-1{fill:#d82126;}.cls-2{fill:#f8e92e;}</style></defs><rect class="cls-1" x="-1.02167" y="0.02161" width="900.96709" height="600.63571"/><path class="cls-2" d="M491.02847,333.43725-.84386,0H134.30059Z"/><path class="cls-2" d="M491.02847,267.21788-.84386,600.65513H134.30059Z"/><path class="cls-2" d="M408.12767,333.43725,900,0H764.85556Z"/><path class="cls-2" d="M408.12767,267.21788,900,600.65513H764.85556Z"/><path class="cls-2" d="M449.47663,235.97347,404.42815.00808H494.5251Z"/><path class="cls-2" d="M449.47663,364.68112,494.5251,600.64651H404.42815Z"/><path class="cls-2" d="M449.47663,300.32865-1.00617,360.39221V240.26507Z"/><path class="cls-2" d="M449.47663,300.32865l450.48279,60.06356V240.26507Z"/><circle class="cls-1" cx="449.46188" cy="300.32596" r="107.25773"/><circle class="cls-2" cx="449.46188" cy="300.32595" r="85.80509"/><path d="M22.20237,672.18837H31.6096l17.04492,29.94141V672.18837h8.36035V715.1288h-8.9707L30.5637,684.661V715.1288H22.20237Z"/><path d="M90.64866,711.244q-4.021,4.9629-12.20605,4.96289-8.187,0-12.20606-4.96289a19.699,19.699,0,0,1,0-23.85254q4.01954-5.03613,12.20606-5.03613,8.18555,0,12.20605,5.03613a19.70282,19.70282,0,0,1,0,23.85254Zm-6.64258-4.58886q1.95117-2.58839,1.95215-7.35938,0-4.771-1.95215-7.34473a7.37773,7.37773,0,0,0-11.20117,0q-1.96583,2.57373-1.96582,7.34473t1.96582,7.35938a7.35241,7.35241,0,0,0,11.20117,0Z"/><path d="M117.65354,682.6327q.15967.01466.71387.043v8.50684q-.78662-.08789-1.39844-.11621-.6123-.02929-.99023-.0293-5.01123,0-6.72949,3.2627a12.69528,12.69528,0,0,0-.96192,5.65136V715.1288H99.927V683.37489h7.92383v5.53516a17.57628,17.57628,0,0,1,3.35059-4.34082,9.11916,9.11916,0,0,1,6.05859-1.95117C117.41526,682.61806,117.5471,682.62294,117.65354,682.6327Z"/><path d="M119.37327,689.58v-5.91309H123.802v-8.85644h8.21485v8.85644h5.15625V689.58h-5.15625v16.78027a3.77911,3.77911,0,0,0,.49511,2.43262q.49512.48046,3.03028.48047.37793,0,.80078-.01465.42188-.01464.83008-.04394v6.20507l-3.93262.14551q-5.88428.20361-8.04-2.03906a6.0686,6.0686,0,0,1-1.39844-4.39844V689.58Z"/><path d="M164.72776,683.55067a9.32773,9.32773,0,0,1,3.93067,3.12012,8.32957,8.32957,0,0,1,1.59472,3.65918,45.29706,45.29706,0,0,1,.29,6.1377V715.1288h-8.47754V695.79286a8.56889,8.56889,0,0,0-.86718-4.1416q-1.12794-2.21631-4.2793-2.2168a5.87185,5.87185,0,0,0-4.96,2.20215,10.13718,10.13718,0,0,0-1.69141,6.28516v17.207h-8.30273V672.33388h8.30273v15.14843a10.15454,10.15454,0,0,1,4.16211-3.85937,11.71941,11.71941,0,0,1,4.97461-1.09277A13.45209,13.45209,0,0,1,164.72776,683.55067Z"/><path d="M222.88987,672.18837H235.8V715.1288h-8.36035V686.08485q0-1.25244.02929-3.51074.02784-2.25732.0293-3.48144l-8.13769,36.03613h-8.72071l-8.0791-36.03613q0,1.22314.0293,3.48144.0293,2.25732.02929,3.51074V715.1288H194.258V672.18837h13.05664l7.8164,33.76367Z"/><path d="M255.41233,695.81435a13.07426,13.07426,0,0,0,3.31641-.72852,2.49756,2.49756,0,0,0,1.79-2.35938,2.79011,2.79011,0,0,0-1.373-2.69433,8.68429,8.68429,0,0,0-4.03125-.74317q-2.98242,0-4.22265,1.457a6.00171,6.00171,0,0,0-1.18067,2.91308h-8.01172a12.14914,12.14914,0,0,1,2.34082-6.84668q3.30615-4.19385,11.35254-4.19433a20.24242,20.24242,0,0,1,9.30371,2.06836q4.06641,2.06835,4.06641,7.80664v14.5664q0,1.51465.05859,3.6709a4.60042,4.60042,0,0,0,.49512,2.21387,2.96632,2.96632,0,0,0,1.22363.96094v1.22363H261.509a9.16178,9.16178,0,0,1-.52441-1.80664q-.14649-.84375-.23242-1.92188a17.15813,17.15813,0,0,1-3.98535,3.17481,12.04205,12.04205,0,0,1-6.09473,1.54394,10.52085,10.52085,0,0,1-7.165-2.46093,8.75647,8.75647,0,0,1-2.82715-6.97754q0-5.855,4.54883-8.47754a20.32634,20.32634,0,0,1,7.33691-2.03907Zm5.07715,3.875a9.2221,9.2221,0,0,1-1.61035.80078,13.567,13.567,0,0,1-2.22949.56836l-1.88965.34961a12.43418,12.43418,0,0,0-3.81641,1.13574,3.79232,3.79232,0,0,0-1.96093,3.52539,3.68176,3.68176,0,0,0,1.19824,3.07324,4.55244,4.55244,0,0,0,2.91308.94629,8.67555,8.67555,0,0,0,5.01368-1.57324q2.29393-1.57325,2.38183-5.73828Z"/><path d="M294.41429,694.76552a7.34673,7.34673,0,0,0-1.19727-3.2041,5.02344,5.02344,0,0,0-4.35058-1.92286,5.72814,5.72814,0,0,0-5.75293,4.166,17.27459,17.27459,0,0,0-.81739,5.86914,15.88309,15.88309,0,0,0,.81739,5.6084A5.55115,5.55115,0,0,0,288.72,709.244q2.92091,0,4.14649-1.57324a7.81513,7.81513,0,0,0,1.49023-4.07812h8.47656a13.87979,13.87979,0,0,1-2.74121,7.166q-3.9082,5.44776-11.57617,5.44824-7.66992,0-11.28516-4.54492-3.61669-4.54395-3.61621-11.78418,0-8.17089,3.99512-12.71582,3.99464-4.54395,11.02246-4.54394a16.61332,16.61332,0,0,1,9.7832,2.67968q3.80566,2.68066,4.50586,9.46778Z"/><path d="M328.69651,684.01845a12.91727,12.91727,0,0,1,5.48731,4.69726,15.61465,15.61465,0,0,1,2.52929,6.56446,40.66343,40.66343,0,0,1,.27442,6.30273H313.86058q.19189,4.77685,3.32031,6.7002a8.43605,8.43605,0,0,0,4.57715,1.19433,6.45057,6.45057,0,0,0,6.31933-3.6416h8.47657a10.37424,10.37424,0,0,1-3.07813,5.73926q-4.2671,4.63183-11.94629,4.63183A17.31,17.31,0,0,1,310.345,712.2997q-4.8457-3.90675-4.8457-12.71289,0-8.25,4.374-12.65332a15.30711,15.30711,0,0,1,11.35547-4.40332A18.073,18.073,0,0,1,328.69651,684.01845Zm-12.4209,7.17187a8.635,8.635,0,0,0-2.21191,4.915h14.30371a6.92092,6.92092,0,0,0-2.21191-5.0166,7.273,7.273,0,0,0-4.92383-1.71289A6.58652,6.58652,0,0,0,316.27561,691.19032Z"/><path d="M357.428,683.88466a10.09348,10.09348,0,0,1,3.6416,3.51074V672.247h8.41895V715.1288h-8.06934v-4.39844a11.72038,11.72038,0,0,1-4.04981,4.10742A11.367,11.367,0,0,1,351.718,716.119a11.79993,11.79993,0,0,1-9.36621-4.501q-3.80127-4.5-3.80176-11.55078,0-8.127,3.74414-12.78809a12.17669,12.17669,0,0,1,10.00684-4.66113A10.24522,10.24522,0,0,1,357.428,683.88466Zm2.03906,22.62109a11.58172,11.58172,0,0,0,1.835-6.78808q0-5.82569-2.94238-8.33106a6.33252,6.33252,0,0,0-4.19434-1.51465,5.82862,5.82862,0,0,0-5.3457,2.75293,14.84164,14.84164,0,0,0,.0293,13.86621,5.86308,5.86308,0,0,0,5.25781,2.63672A6.13041,6.13041,0,0,0,359.467,706.50575Z"/><path d="M402.91722,711.244q-4.021,4.9629-12.20606,4.96289-8.187,0-12.20605-4.96289a19.699,19.699,0,0,1,0-23.85254q4.01952-5.03613,12.20605-5.03613,8.18554,0,12.20606,5.03613a19.70282,19.70282,0,0,1,0,23.85254Zm-6.64258-4.58886q1.95117-2.58839,1.95215-7.35938,0-4.771-1.95215-7.34473a7.37773,7.37773,0,0,0-11.20117,0q-1.96582,2.57373-1.96582,7.34473t1.96582,7.35938a7.35241,7.35241,0,0,0,11.20117,0Z"/><path d="M437.8889,685.19618q3.11865,2.57813,3.11914,8.54981V715.1288H432.5012V695.81435a8.87434,8.87434,0,0,0-.665-3.84571q-1.21583-2.44629-4.627-2.44629a5.735,5.735,0,0,0-5.75488,3.583,12.38494,12.38494,0,0,0-.80957,4.83594v17.1875H412.342V683.43349h8.04v4.63183a14.06957,14.06957,0,0,1,3.01758-3.52441,10.44964,10.44964,0,0,1,6.46875-1.92285A12.17023,12.17023,0,0,1,437.8889,685.19618Z"/><path d="M456.66624,679.58778h-8.41895v-7.66113h8.41895Zm-8.41895,3.78711h8.41895V715.1288h-8.41895Z"/><path d="M476.68675,695.81435a13.074,13.074,0,0,0,3.3164-.72852,2.49756,2.49756,0,0,0,1.79-2.35938,2.7901,2.7901,0,0,0-1.373-2.69433,8.68434,8.68434,0,0,0-4.03125-.74317q-2.98244,0-4.22266,1.457a6.00161,6.00161,0,0,0-1.18066,2.91308h-8.01172a12.14914,12.14914,0,0,1,2.34082-6.84668q3.30615-4.19385,11.35254-4.19433a20.24245,20.24245,0,0,1,9.30371,2.06836q4.06639,2.06835,4.0664,7.80664v14.5664q0,1.51465.0586,3.6709a4.60032,4.60032,0,0,0,.49511,2.21387,2.96635,2.96635,0,0,0,1.22364.96094v1.22363h-9.03125a9.16185,9.16185,0,0,1-.52442-1.80664q-.14648-.84375-.23242-1.92188a17.15792,17.15792,0,0,1-3.98535,3.17481,12.042,12.042,0,0,1-6.09473,1.54394,10.52087,10.52087,0,0,1-7.165-2.46093,8.7565,8.7565,0,0,1-2.82714-6.97754q0-5.855,4.54882-8.47754a20.32634,20.32634,0,0,1,7.33692-2.03907Zm5.07715,3.875a9.22218,9.22218,0,0,1-1.61036.80078,13.56675,13.56675,0,0,1-2.22949.56836l-1.88965.34961a12.43409,12.43409,0,0,0-3.8164,1.13574,3.79231,3.79231,0,0,0-1.96094,3.52539,3.68176,3.68176,0,0,0,1.19824,3.07324,4.55245,4.55245,0,0,0,2.91309.94629,8.67554,8.67554,0,0,0,5.01367-1.57324q2.29395-1.57325,2.38184-5.73828Z"/><path d="M514.8,683.02528a62.47236,62.47236,0,0,1,6.72949-11.53613h6.26367l-1.77734,3.2627a48.56164,48.56164,0,0,0-5.09766,14.10058,55.72589,55.72589,0,0,0-.93261,10.54492,49.82346,49.82346,0,0,0,2.59277,16.40137,74.80543,74.80543,0,0,0,5.36035,11.36133h-6.14648l-2.06836-2.8252a37.8986,37.8986,0,0,1-4.28321-7.63281,43.47273,43.47273,0,0,1-4.04882-17.8291A39.54859,39.54859,0,0,1,514.8,683.02528Z"/><path d="M539.08226,701.87392a8.70682,8.70682,0,0,0,1.63574,4.39843q2.231,2.65137,7.64453,2.65137a16.45755,16.45755,0,0,0,5.26465-.69922q3.83789-1.33887,3.83691-4.98144a3.6711,3.6711,0,0,0-1.8789-3.292,20.40418,20.40418,0,0,0-5.96192-2.00976l-4.64941-1.01953q-6.85254-1.51466-9.416-3.292-4.3418-2.97217-4.34082-9.293a12.34327,12.34327,0,0,1,4.24609-9.585q4.24659-3.81592,12.47461-3.81543a19.12781,19.12781,0,0,1,11.72266,3.59765q4.85157,3.59766,5.08691,10.44336h-8.623a6.14794,6.14794,0,0,0-3.46387-5.50586,11.86753,11.86753,0,0,0-5.3457-1.07812,10.17819,10.17819,0,0,0-5.67481,1.39843,4.42364,4.42364,0,0,0-2.12011,3.90332,3.6831,3.6831,0,0,0,2.08984,3.43848,26.02073,26.02073,0,0,0,5.70508,1.77637l7.53613,1.77734a19.18964,19.18964,0,0,1,7.42676,3.11719q3.83788,3.0293,3.83887,8.76855a12.32041,12.32041,0,0,1-4.54981,9.77344q-4.54835,3.88917-12.85254,3.88965-8.48,0-13.33789-3.83105a12.67508,12.67508,0,0,1-4.8584-10.53125Z"/><path d="M567.87913,689.58v-5.91309h4.42871v-8.85644h8.21485v8.85644h5.15625V689.58h-5.15625v16.78027a3.77911,3.77911,0,0,0,.49511,2.43262q.49512.48046,3.03028.48047.37793,0,.80078-.01465.42188-.01464.83008-.04394v6.20507l-3.93262.14551q-5.88427.20361-8.04-2.03906a6.0686,6.0686,0,0,1-1.39844-4.39844V689.58Z"/><path d="M616.89476,711.244q-4.021,4.9629-12.20606,4.96289-8.187,0-12.20605-4.96289a19.699,19.699,0,0,1,0-23.85254q4.01952-5.03613,12.20605-5.03613,8.18554,0,12.20606,5.03613a19.70282,19.70282,0,0,1,0,23.85254Zm-6.64258-4.58886q1.95117-2.58839,1.95215-7.35938,0-4.771-1.95215-7.34473a7.37773,7.37773,0,0,0-11.20117,0q-1.96583,2.57373-1.96582,7.34473t1.96582,7.35938a7.35241,7.35241,0,0,0,11.20117,0Z"/><path d="M652.96409,686.78407q3.88477,4.10742,3.88477,12.06055,0,8.38916-3.79688,12.78808a12.32584,12.32584,0,0,1-9.77832,4.39942,10.25734,10.25734,0,0,1-6.334-1.89356,12.25634,12.25634,0,0,1-2.69727-3.05859v16.5459h-8.21484v-44.251h7.95312v4.69043a13.3482,13.3482,0,0,1,2.87305-3.26269,10.60565,10.60565,0,0,1,6.626-2.127A12.55569,12.55569,0,0,1,652.96409,686.78407Zm-6.37207,5.97168a5.90874,5.90874,0,0,0-5.48926-2.82617,6.24293,6.24293,0,0,0-6.26855,4.28223,16.08955,16.08955,0,0,0-.88281,5.76855q0,5.53564,2.96972,7.77832a6.81709,6.81709,0,0,0,4.17969,1.31055,6.07762,6.07762,0,0,0,5.34375-2.67969,14.03687,14.03687,0,0,0,.14746-13.63379Z"/><path d="M662.92405,672.18837h8.82715v17.69238L688.341,672.18837h11.59375L682.3137,689.84853l18.52539,25.28027H689.302l-13.22949-18.74414-4.32129,4.38183V715.1288h-8.82715Z"/><path d="M731.07835,711.244q-4.021,4.9629-12.20606,4.96289-8.187,0-12.20605-4.96289a19.699,19.699,0,0,1,0-23.85254q4.01953-5.03613,12.20605-5.03613,8.18556,0,12.20606,5.03613a19.70282,19.70282,0,0,1,0,23.85254Zm-6.64258-4.58886q1.95117-2.58839,1.95215-7.35938,0-4.771-1.95215-7.34473a7.37773,7.37773,0,0,0-11.20117,0q-1.96582,2.57373-1.96582,7.34473t1.96582,7.35938a7.35241,7.35241,0,0,0,11.20117,0Z"/><path d="M758.08323,682.6327q.15967.01466.71387.043v8.50684q-.78661-.08789-1.39844-.11621-.6123-.02929-.99023-.0293-5.01123,0-6.72949,3.2627a12.69528,12.69528,0,0,0-.96192,5.65136V715.1288h-8.36035V683.37489h7.92383v5.53516a17.57629,17.57629,0,0,1,3.35058-4.34082,9.1192,9.1192,0,0,1,6.0586-1.95117C757.845,682.61806,757.97679,682.62294,758.08323,682.6327Z"/><path d="M789.54612,711.244q-4.021,4.9629-12.20605,4.96289-8.187,0-12.20606-4.96289a19.699,19.699,0,0,1,0-23.85254q4.01954-5.03613,12.20606-5.03613,8.18555,0,12.20605,5.03613a19.70282,19.70282,0,0,1,0,23.85254Zm-6.64258-4.58886q1.95119-2.58839,1.95215-7.35938,0-4.771-1.95215-7.34473a7.37773,7.37773,0,0,0-11.20117,0q-1.96581,2.57373-1.96582,7.34473t1.96582,7.35938a7.35241,7.35241,0,0,0,11.20117,0Z"/><path d="M824.5178,685.19618q3.11865,2.57813,3.11914,8.54981V715.1288h-8.50683V695.81435a8.87434,8.87434,0,0,0-.665-3.84571q-1.21582-2.44629-4.627-2.44629a5.735,5.735,0,0,0-5.75488,3.583,12.38494,12.38494,0,0,0-.80957,4.83594v17.1875h-8.30273V683.43349h8.04v4.63183a14.06936,14.06936,0,0,1,3.01757-3.52441,10.44966,10.44966,0,0,1,6.46875-1.92285A12.1702,12.1702,0,0,1,824.5178,685.19618Z"/><path d="M847.33616,695.81435a13.07426,13.07426,0,0,0,3.31641-.72852,2.49756,2.49756,0,0,0,1.79-2.35938,2.79011,2.79011,0,0,0-1.373-2.69433,8.68434,8.68434,0,0,0-4.03125-.74317q-2.98242,0-4.22266,1.457a6.00171,6.00171,0,0,0-1.18066,2.91308h-8.01172a12.14914,12.14914,0,0,1,2.34082-6.84668q3.30615-4.19385,11.35254-4.19433a20.24242,20.24242,0,0,1,9.30371,2.06836q4.06641,2.06835,4.06641,7.80664v14.5664q0,1.51465.05859,3.6709a4.60042,4.60042,0,0,0,.49512,2.21387,2.96632,2.96632,0,0,0,1.22363.96094v1.22363h-9.03125a9.16178,9.16178,0,0,1-.52441-1.80664q-.14649-.84375-.23242-1.92188a17.158,17.158,0,0,1-3.98536,3.17481,12.042,12.042,0,0,1-6.09472,1.54394,10.52085,10.52085,0,0,1-7.165-2.46093,8.75647,8.75647,0,0,1-2.82715-6.97754q0-5.855,4.54883-8.47754a20.32628,20.32628,0,0,1,7.33691-2.03907Zm5.07715,3.875a9.22244,9.22244,0,0,1-1.61035.80078,13.567,13.567,0,0,1-2.22949.56836l-1.88965.34961a12.43408,12.43408,0,0,0-3.81641,1.13574,3.79231,3.79231,0,0,0-1.96094,3.52539,3.68176,3.68176,0,0,0,1.19825,3.07324,4.55244,4.55244,0,0,0,2.91308.94629,8.67552,8.67552,0,0,0,5.01367-1.57324q2.294-1.57325,2.38184-5.73828Z"/><path d="M877.19651,683.02528a39.60775,39.60775,0,0,1,3.40332,15.84766,43.53921,43.53921,0,0,1-4.042,17.8291,37.98044,37.98044,0,0,1-4.27539,7.63281l-2.06445,2.8252h-6.13672a74.85581,74.85581,0,0,0,5.34082-11.36133,49.97817,49.97817,0,0,0,2.583-16.40137,56.0644,56.0644,0,0,0-.92774-10.54492,48.71926,48.71926,0,0,0-5.08008-14.10058l-1.7705-3.2627h6.25293A62.51545,62.51545,0,0,1,877.19651,683.02528Z"/></svg>