<svg id="Layer_1" data-name="Layer 1" xmlns="http://www.w3.org/2000/svg" viewBox="0 0 900 795.16713"><defs><style>.cls-1{fill:#d82126;}.cls-2{fill:#f8e92e;}</style></defs><path d="M20.2844,699.22743a8.98114,8.98114,0,0,0,1.68457,4.53223q2.29835,2.73046,7.876,2.73047a16.95872,16.95872,0,0,0,5.42285-.71973q3.95361-1.38135,3.95313-5.13281a3.78077,3.78077,0,0,0-1.93555-3.39063,21.027,21.027,0,0,0-6.14258-2.07129l-4.78906-1.0498q-7.06055-1.56006-9.70117-3.3916-4.47217-3.06153-4.47168-9.57422a12.71271,12.71271,0,0,1,4.375-9.873q4.374-3.93163,12.85156-3.93164a19.70614,19.70614,0,0,1,12.07617,3.70606q4.998,3.70752,5.24024,10.75976H37.841a6.33491,6.33491,0,0,0-3.56933-5.67285,12.23933,12.23933,0,0,0-5.50684-1.11035,10.48938,10.48938,0,0,0-5.84668,1.44043,4.5596,4.5596,0,0,0-2.18359,4.02148,3.79438,3.79438,0,0,0,2.15332,3.542,26.76089,26.76089,0,0,0,5.87695,1.83008l7.76367,1.83106a19.76269,19.76269,0,0,1,7.6504,3.21093q3.95507,3.12159,3.95605,9.03418a12.69187,12.69187,0,0,1-4.6875,10.06836q-4.686,4.00635-13.24023,4.00684-8.73633,0-13.74219-3.94629a13.05765,13.05765,0,0,1-5.00488-10.84961Z"/><path d="M49.95042,686.56239V680.4706h4.5625v-9.124h8.46289v9.124h5.3125v6.09179h-5.3125V703.8495a3.89491,3.89491,0,0,0,.50977,2.50586q.51123.49512,3.12207.49512c.25976,0,.53418-.00488.82519-.01465.28906-.01074.57422-.02539.85547-.0459v6.39258l-4.05176.15039q-6.063.20947-8.2832-2.10059a6.25339,6.25339,0,0,1-1.44043-4.53222v-20.1377Z"/><path d="M100.44651,708.88075q-4.14258,5.1123-12.57519,5.11231-8.4331,0-12.5752-5.11231a20.29571,20.29571,0,0,1,0-24.57324q4.14258-5.187,12.5752-5.1875,8.43311,0,12.57519,5.1875a20.29571,20.29571,0,0,1,0,24.57324Zm-6.84277-4.72754q2.00976-2.66748,2.01074-7.582,0-4.91456-2.01074-7.5664a7.60233,7.60233,0,0,0-11.54,0q-2.02589,2.65135-2.02539,7.5664,0,4.916,2.02539,7.582a7.57519,7.57519,0,0,0,11.54,0Z"/><path d="M137.60472,683.68153q4.00341,4.23194,4.00293,12.42481,0,8.64258-3.91211,13.1748a12.69639,12.69639,0,0,1-10.07325,4.53223,10.56282,10.56282,0,0,1-6.52539-1.95117,12.592,12.592,0,0,1-2.77832-3.15137V725.7577h-8.46386V680.16981h8.19336v4.832a13.78523,13.78523,0,0,1,2.96-3.36133,10.92613,10.92613,0,0,1,6.82617-2.19043A12.93477,12.93477,0,0,1,137.60472,683.68153Zm-6.56446,6.15235a6.08553,6.08553,0,0,0-5.65429-2.91114,6.432,6.432,0,0,0-6.458,4.41211,16.5734,16.5734,0,0,0-.90918,5.94141q0,5.70264,3.05957,8.01367a7.01934,7.01934,0,0,0,4.30566,1.35059,6.2592,6.2592,0,0,0,5.50489-2.76172,14.457,14.457,0,0,0,.15136-14.04492Z"/><path d="M147.86546,668.6454h9.09375v18.22754L174.05,668.6454h11.94433L167.841,686.83876l19.084,26.04394H175.04026l-13.62988-19.31054-4.45117,4.51465V712.8827h-9.09375Z"/><path d="M218.07835,708.88075q-4.14258,5.1123-12.5752,5.11231-8.43311,0-12.57519-5.11231a20.29571,20.29571,0,0,1,0-24.57324q4.14258-5.187,12.57519-5.1875,8.43311,0,12.5752,5.1875a20.29571,20.29571,0,0,1,0,24.57324Zm-6.84277-4.72754q2.00976-2.66748,2.01074-7.582,0-4.91456-2.01074-7.5664a7.60233,7.60233,0,0,0-11.54,0q-2.02588,2.65135-2.02539,7.5664,0,4.916,2.02539,7.582a7.57519,7.57519,0,0,0,11.54,0Z"/><path d="M245.89866,679.40517c.11035.00976.35547.02539.73535.04492v8.76269q-.81006-.08935-1.44043-.11914c-.41992-.02051-.76074-.03027-1.0205-.03027q-5.16211,0-6.93262,3.36133a13.07541,13.07541,0,0,0-.99024,5.82226V712.8827h-8.61328V680.16981H235.8V685.872a18.08946,18.08946,0,0,1,3.45117-4.47168,9.40022,9.40022,0,0,1,6.24316-2.01074C245.65354,679.38954,245.78929,679.3954,245.89866,679.40517Z"/><path d="M278.31272,708.88075q-4.14256,5.1123-12.57519,5.11231-8.43311,0-12.5752-5.11231a20.29571,20.29571,0,0,1,0-24.57324q4.14258-5.187,12.5752-5.1875,8.43311,0,12.57519,5.1875a20.29568,20.29568,0,0,1,0,24.57324ZM271.47,704.15321q2.00976-2.66748,2.01074-7.582,0-4.91456-2.01074-7.5664a7.60233,7.60233,0,0,0-11.54,0q-2.02587,2.65135-2.02539,7.5664,0,4.916,2.02539,7.582a7.57519,7.57519,0,0,0,11.54,0Z"/><path d="M314.34007,682.04579q3.2124,2.65576,3.21289,8.80859V712.8827h-8.76367V692.98524a9.15413,9.15413,0,0,0-.68457-3.96191q-1.25244-2.521-4.76661-2.52051a5.90764,5.90764,0,0,0-5.92871,3.69141,12.75151,12.75151,0,0,0-.835,4.98144v17.707h-8.55273V680.23036h8.2832v4.77149a14.4883,14.4883,0,0,1,3.10742-3.63086,10.7644,10.7644,0,0,1,6.665-1.98145A12.53819,12.53819,0,0,1,314.34007,682.04579Z"/><path d="M337.84788,692.98524a13.559,13.559,0,0,0,3.416-.75,2.575,2.575,0,0,0,1.84472-2.43164,2.87462,2.87462,0,0,0-1.415-2.77539,8.93351,8.93351,0,0,0-4.15234-.76562q-3.07325,0-4.35059,1.5a6.19108,6.19108,0,0,0-1.21679,3.00195h-8.25293a12.51545,12.51545,0,0,1,2.41113-7.05273q3.40576-4.32276,11.69531-4.32227a20.86321,20.86321,0,0,1,9.585,2.13086q4.18946,2.13135,4.18946,8.043v15.00586q0,1.56151.05957,3.78125a4.7432,4.7432,0,0,0,.51074,2.28125,3.05156,3.05156,0,0,0,1.25976.99023v1.26074h-9.30371a9.58574,9.58574,0,0,1-.54-1.86035q-.15087-.8701-.24023-1.98144a17.61908,17.61908,0,0,1-4.10547,3.27148,12.401,12.401,0,0,1-6.27832,1.59082,10.83654,10.83654,0,0,1-7.38086-2.53613,9.0165,9.0165,0,0,1-2.91308-7.1875q0-6.03222,4.68652-8.7334a20.91325,20.91325,0,0,1,7.55859-2.10058Zm5.22949,3.99121a9.42948,9.42948,0,0,1-1.6582.8252,14.07564,14.07564,0,0,1-2.29688.58594l-1.94628.35937a12.81046,12.81046,0,0,0-3.93165,1.1709,3.90543,3.90543,0,0,0-2.0205,3.63086,3.79451,3.79451,0,0,0,1.23437,3.167,4.68809,4.68809,0,0,0,3.001.97461,8.93952,8.93952,0,0,0,5.165-1.62012q2.36278-1.6201,2.45312-5.9121Z"/><path d="M377.11351,679.81044a64.2368,64.2368,0,0,1,6.93261-11.88477h6.45215l-1.83008,3.36133a50.03562,50.03562,0,0,0-5.25293,14.52539,57.52047,57.52047,0,0,0-.96,10.86426,51.31491,51.31491,0,0,0,2.6709,16.89648,76.99446,76.99446,0,0,0,5.52246,11.70411h-6.333l-2.13086-2.91114a39.0543,39.0543,0,0,1-4.41113-7.8623,44.78052,44.78052,0,0,1-4.17187-18.36719A40.73872,40.73872,0,0,1,377.11351,679.81044Z"/><path d="M395.31565,668.6454h9.69043l17.55957,30.8457V668.6454h8.61329v44.2373h-9.24122L403.92894,681.495V712.8827h-8.61329Z"/><path d="M465.82835,708.88075q-4.14258,5.1123-12.5752,5.11231-8.43311,0-12.57519-5.11231a20.29571,20.29571,0,0,1,0-24.57324q4.14258-5.187,12.57519-5.1875,8.43311,0,12.5752,5.1875a20.29571,20.29571,0,0,1,0,24.57324Zm-6.84277-4.72754q2.00976-2.66748,2.01074-7.582,0-4.91456-2.01074-7.5664a7.60233,7.60233,0,0,0-11.54,0q-2.02589,2.65135-2.02539,7.5664,0,4.916,2.02539,7.582a7.57519,7.57519,0,0,0,11.54,0Z"/><path d="M493.64866,679.40517c.11035.00976.35547.02539.73535.04492v8.76269q-.81006-.08935-1.44043-.11914c-.41992-.02051-.76074-.03027-1.0205-.03027q-5.16212,0-6.93262,3.36133a13.07541,13.07541,0,0,0-.99024,5.82226V712.8827h-8.61328V680.16981H483.55V685.872a18.08946,18.08946,0,0,1,3.45117-4.47168,9.40022,9.40022,0,0,1,6.24316-2.01074C493.40354,679.38954,493.53929,679.3954,493.64866,679.40517Z"/><path d="M495.42015,686.56239V680.4706h4.5625v-9.124h8.46289v9.124h5.3125v6.09179h-5.3125V703.8495a3.895,3.895,0,0,0,.50976,2.50586q.51123.49512,3.12207.49512c.25977,0,.53418-.00488.8252-.01465.28906-.01074.57422-.02539.85547-.0459v6.39258l-4.05176.15039q-6.063.20947-8.2832-2.10059a6.25339,6.25339,0,0,1-1.44043-4.53222v-20.1377Z"/><path d="M542.14476,680.35145a9.609,9.609,0,0,1,4.0498,3.21387,8.57293,8.57293,0,0,1,1.64258,3.77051,46.59554,46.59554,0,0,1,.2998,6.32227v19.2246h-8.7334V692.96278a8.83563,8.83563,0,0,0-.89355-4.2666q-1.16309-2.28369-4.40918-2.2832a6.04739,6.04739,0,0,0-5.10937,2.26855,10.441,10.441,0,0,0-1.74317,6.47461V712.8827h-8.55273V668.79579h8.55273v15.60547a10.46147,10.46147,0,0,1,4.28809-3.97559,12.06773,12.06773,0,0,1,5.125-1.126A13.83537,13.83537,0,0,1,542.14476,680.35145Z"/><path d="M602.06272,668.6454h13.30079v44.2373h-8.61329V682.96083q0-1.28907.03028-3.61621.0293-2.32471.03027-3.58594l-8.38379,37.124h-8.9834l-8.32324-37.124q0,1.25977.03027,3.58594.02931,2.32617.03028,3.61621V712.8827h-8.61328V668.6454H586.0178l8.05274,34.7832Z"/><path d="M635.56858,692.98524a13.559,13.559,0,0,0,3.416-.75,2.575,2.575,0,0,0,1.84473-2.43164,2.87464,2.87464,0,0,0-1.415-2.77539,8.93355,8.93355,0,0,0-4.15235-.76562q-3.07324,0-4.35058,1.5a6.191,6.191,0,0,0-1.2168,3.00195h-8.25293a12.51552,12.51552,0,0,1,2.41113-7.05273q3.40577-4.32276,11.69532-4.32227a20.86324,20.86324,0,0,1,9.585,2.13086q4.18945,2.13135,4.18945,8.043v15.00586q0,1.56151.05957,3.78125a4.74332,4.74332,0,0,0,.51074,2.28125,3.05153,3.05153,0,0,0,1.25977.99023v1.26074h-9.30371a9.58433,9.58433,0,0,1-.54-1.86035q-.15089-.8701-.24024-1.98144a17.61908,17.61908,0,0,1-4.10547,3.27148,12.401,12.401,0,0,1-6.27832,1.59082,10.83651,10.83651,0,0,1-7.38085-2.53613,9.01648,9.01648,0,0,1-2.91309-7.1875q0-6.03222,4.68652-8.7334a20.91325,20.91325,0,0,1,7.5586-2.10058Zm5.2295,3.99121a9.42991,9.42991,0,0,1-1.65821.8252,14.07548,14.07548,0,0,1-2.29687.58594l-1.94629.35937a12.81038,12.81038,0,0,0-3.93164,1.1709,3.90542,3.90542,0,0,0-2.02051,3.63086,3.79449,3.79449,0,0,0,1.23438,3.167,4.68807,4.68807,0,0,0,3.001.97461,8.93952,8.93952,0,0,0,5.165-1.62012q2.3628-1.6201,2.45313-5.9121Z"/><path d="M675.74729,691.90419a7.5853,7.5853,0,0,0-1.23242-3.30078,5.17958,5.17958,0,0,0-4.48242-1.98047,5.90323,5.90323,0,0,0-5.92773,4.291,17.82515,17.82515,0,0,0-.8418,6.04688,16.3871,16.3871,0,0,0,.8418,5.77832,5.72077,5.72077,0,0,0,5.77636,4.08105q3.00879,0,4.27246-1.62011a8.06488,8.06488,0,0,0,1.53418-4.20215h8.7334a14.30282,14.30282,0,0,1-2.82422,7.38281q-4.02538,5.61328-11.92578,5.61231-7.90137,0-11.626-4.68164-3.72657-4.68165-3.72559-12.14063,0-8.417,4.11523-13.09961,4.11622-4.68164,11.35645-4.68164a17.1077,17.1077,0,0,1,10.07812,2.76172q3.91994,2.76123,4.64161,9.75293Z"/><path d="M711.06663,680.8329a13.30753,13.30753,0,0,1,5.65234,4.83887,16.07972,16.07972,0,0,1,2.60645,6.76367,41.79227,41.79227,0,0,1,.28223,6.49219H695.78147q.19923,4.92188,3.4209,6.90234a8.69241,8.69241,0,0,0,4.7168,1.23047,6.6466,6.6466,0,0,0,6.50977-3.751h8.73242a10.69039,10.69039,0,0,1-3.1709,5.91211q-4.396,4.771-12.30762,4.77149a17.83481,17.83481,0,0,1-11.52246-4.02442q-4.99218-4.02539-4.99219-13.09668,0-8.50048,4.50684-13.03613a15.77148,15.77148,0,0,1,11.69824-4.53613A18.61731,18.61731,0,0,1,711.06663,680.8329Zm-12.7959,7.38867a8.881,8.881,0,0,0-2.27832,5.06348h14.73535a7.14,7.14,0,0,0-2.27832-5.16895,7.49646,7.49646,0,0,0-5.07324-1.76367A6.78191,6.78191,0,0,0,698.27073,688.22157Z"/><path d="M740.66429,680.6952a10.39422,10.39422,0,0,1,3.75195,3.61622V668.706h8.67285V712.8827h-8.3125v-4.53222a12.06926,12.06926,0,0,1-4.17187,4.23242,11.71793,11.71793,0,0,1-5.82227,1.32031,12.155,12.155,0,0,1-9.64844-4.63672q-3.917-4.63768-3.917-11.89941,0-8.373,3.85645-13.17578a12.54956,12.54956,0,0,1,10.30957-4.80176A10.55218,10.55218,0,0,1,740.66429,680.6952Zm2.10156,23.30372a11.93642,11.93642,0,0,0,1.89062-6.99219q0-6.00292-3.03125-8.583a6.52825,6.52825,0,0,0-4.32226-1.56055,6.00764,6.00764,0,0,0-5.50684,2.83594,15.28761,15.28761,0,0,0,.03028,14.28516,6.04114,6.04114,0,0,0,5.417,2.71582A6.31582,6.31582,0,0,0,742.76585,703.99892Z"/><path d="M787.52854,708.88075q-4.14256,5.1123-12.57519,5.11231-8.43311,0-12.5752-5.11231a20.29571,20.29571,0,0,1,0-24.57324q4.14258-5.187,12.5752-5.1875,8.43311,0,12.57519,5.1875a20.29568,20.29568,0,0,1,0,24.57324Zm-6.84277-4.72754q2.00976-2.66748,2.01074-7.582,0-4.91456-2.01074-7.5664a7.60233,7.60233,0,0,0-11.54,0q-2.02587,2.65135-2.02539,7.5664,0,4.916,2.02539,7.582a7.57519,7.57519,0,0,0,11.54,0Z"/><path d="M823.55589,682.04579q3.2124,2.65576,3.21289,8.80859V712.8827h-8.76367V692.98524a9.15413,9.15413,0,0,0-.68457-3.96191q-1.25244-2.521-4.7666-2.52051a5.90765,5.90765,0,0,0-5.92872,3.69141,12.75151,12.75151,0,0,0-.835,4.98144v17.707h-8.55273V680.23036h8.2832v4.77149a14.4883,14.4883,0,0,1,3.10742-3.63086,10.7644,10.7644,0,0,1,6.665-1.98145A12.53819,12.53819,0,0,1,823.55589,682.04579Z"/><path d="M842.90061,676.26845h-8.67382v-7.89258h8.67382Zm-8.67382,3.90136h8.67382V712.8827h-8.67382Z"/><path d="M863.52561,692.98524a13.559,13.559,0,0,0,3.416-.75,2.575,2.575,0,0,0,1.84473-2.43164,2.87464,2.87464,0,0,0-1.415-2.77539,8.93355,8.93355,0,0,0-4.15235-.76562q-3.07323,0-4.35058,1.5a6.191,6.191,0,0,0-1.2168,3.00195h-8.25293a12.5156,12.5156,0,0,1,2.41113-7.05273q3.40576-4.32276,11.69532-4.32227a20.86324,20.86324,0,0,1,9.585,2.13086q4.18946,2.13135,4.18945,8.043v15.00586q0,1.56151.05957,3.78125a4.74332,4.74332,0,0,0,.51074,2.28125,3.05153,3.05153,0,0,0,1.25977.99023v1.26074h-9.30371a9.585,9.585,0,0,1-.54-1.86035q-.15089-.8701-.24024-1.98144a17.61923,17.61923,0,0,1-4.10546,3.27148,12.401,12.401,0,0,1-6.27832,1.59082,10.83652,10.83652,0,0,1-7.38086-2.53613,9.01648,9.01648,0,0,1-2.91309-7.1875q0-6.03222,4.68652-8.7334a20.91331,20.91331,0,0,1,7.5586-2.10058Zm5.2295,3.99121a9.42956,9.42956,0,0,1-1.65821.8252,14.07548,14.07548,0,0,1-2.29687.58594l-1.94629.35937a12.81038,12.81038,0,0,0-3.93164,1.1709,3.90542,3.90542,0,0,0-2.02051,3.63086,3.79449,3.79449,0,0,0,1.23438,3.167,4.68807,4.68807,0,0,0,3.001.97461,8.93952,8.93952,0,0,0,5.165-1.62012q2.3628-1.6201,2.45313-5.9121Z"/><path d="M894.28733,679.81044a40.79509,40.79509,0,0,1,3.50489,16.32617,44.84547,44.84547,0,0,1-4.16407,18.36719,39.03558,39.03558,0,0,1-4.40429,7.8623l-2.127,2.91114h-6.32129a77.11737,77.11737,0,0,0,5.502-11.70411,51.49529,51.49529,0,0,0,2.66113-16.89648,57.69535,57.69535,0,0,0-.95605-10.86426,50.1883,50.1883,0,0,0-5.2334-14.52539l-1.82324-3.36133h6.44043A64.34469,64.34469,0,0,1,894.28733,679.81044Z"/><rect class="cls-1" x="-1.02167" y="0.02161" width="900.96709" height="600.63571"/><path class="cls-2" d="M491.02847,333.43725-.84386,0H134.30059Z"/><path class="cls-2" d="M491.02847,267.21788-.84386,600.65513H134.30059Z"/><path class="cls-2" d="M408.12767,333.43725,900,0H764.85556Z"/><path class="cls-2" d="M408.12767,267.21788,900,600.65513H764.85556Z"/><path class="cls-2" d="M449.47663,235.97347,404.42815.00808H494.5251Z"/><path class="cls-2" d="M449.47663,364.68112,494.5251,600.64651H404.42815Z"/><path class="cls-2" d="M449.47663,300.32865-1.00617,360.39221V240.26507Z"/><path class="cls-2" d="M449.47663,300.32865l450.48279,60.06356V240.26507Z"/><circle class="cls-1" cx="449.46188" cy="300.32596" r="107.25773"/><circle class="cls-2" cx="449.46188" cy="300.32595" r="85.80509"/></svg>