<svg width="290" height="382" viewBox="0 0 290 382" fill="none" xmlns="http://www.w3.org/2000/svg">
<circle cx="143.636" cy="134.007" r="134.007" fill="#5854CC"/>
<path fill-rule="evenodd" clip-rule="evenodd" d="M120.855 49.5827C120.855 52.6702 119.115 55.3513 116.562 56.6985L135.385 107.56C138.243 106.614 141.299 106.101 144.475 106.101C147.803 106.101 150.998 106.664 153.973 107.698L167.406 74.1153C163.665 72.4421 161.058 68.6874 161.058 64.3238C161.058 58.4029 165.857 53.6032 171.778 53.6032C177.699 53.6032 182.499 58.4029 182.499 64.3238C182.499 70.2446 177.699 75.0444 171.778 75.0444C170.957 75.0444 170.158 74.9521 169.39 74.7774L155.919 108.456C161.893 111.035 166.823 115.573 169.901 121.26L216.398 98.9882C216.14 98.2005 216.001 97.3593 216.001 96.4855C216.001 92.0449 219.601 88.4451 224.041 88.4451C228.482 88.4451 232.082 92.0449 232.082 96.4855C232.082 100.926 228.482 104.526 224.041 104.526C221.218 104.526 218.735 103.071 217.301 100.871L170.828 123.131C172.46 126.75 173.368 130.766 173.368 134.994C173.368 140.081 172.053 144.861 169.745 149.013L204.763 170.432C206.72 167.842 209.825 166.169 213.321 166.169C219.241 166.169 224.041 170.969 224.041 176.89C224.041 182.811 219.241 187.61 213.321 187.61C207.4 187.61 202.6 182.811 202.6 176.89C202.6 175.213 202.985 173.625 203.672 172.212L168.665 150.8C164.204 157.612 156.943 162.426 148.517 163.606L153.046 205.059C157.53 205.415 161.057 209.166 161.057 213.742C161.057 218.552 157.157 222.452 152.347 222.452C147.536 222.452 143.636 218.552 143.636 213.742C143.636 209.405 146.806 205.808 150.954 205.142L146.44 163.82C145.791 163.864 145.136 163.886 144.475 163.886C139.941 163.886 135.651 162.842 131.832 160.98L120.81 182.217C122.463 183.437 123.535 185.399 123.535 187.611C123.535 191.311 120.535 194.311 116.835 194.311C113.134 194.311 110.135 191.311 110.135 187.611C110.135 183.91 113.134 180.91 116.835 180.91C117.577 180.91 118.291 181.031 118.958 181.254L129.989 159.998C126.245 157.824 123.034 154.833 120.6 151.27L86.4193 172.803C87.0179 174.038 87.3536 175.425 87.3536 176.889C87.3536 182.07 83.1538 186.27 77.9731 186.27C72.7924 186.27 68.5926 182.07 68.5926 176.889C68.5926 171.708 72.7924 167.509 77.9731 167.509C80.9405 167.509 83.5862 168.887 85.3051 171.037L119.486 149.504C117.023 145.273 115.605 140.359 115.583 135.115L57.6651 133.892C56.8004 137.792 53.3214 140.708 49.1612 140.708C44.3505 140.708 40.4507 136.808 40.4507 131.998C40.4507 127.187 44.3505 123.287 49.1612 123.287C53.9083 123.287 57.7685 127.085 57.8696 131.808L115.649 133.028C115.896 129.356 116.829 125.871 118.321 122.701L92.7887 109.785C91.5717 111.47 89.5907 112.566 87.3537 112.566C83.6532 112.566 80.6533 109.566 80.6533 105.866C80.6533 102.165 83.6532 99.1653 87.3537 99.1653C91.0542 99.1653 94.0541 102.165 94.0541 105.866C94.0541 106.583 93.9413 107.274 93.7324 107.923L119.278 120.846C122.439 115.229 127.423 110.776 133.428 108.289L114.604 57.4234C114.028 57.5541 113.429 57.6231 112.815 57.6231C108.374 57.6231 104.774 54.0233 104.774 49.5827C104.774 45.1421 108.374 41.5422 112.815 41.5422C117.255 41.5422 120.855 45.1421 120.855 49.5827Z" fill="white"/>
<path d="M0 378.971H12.5727V339.504L42.714 378.971H53.6215V318.356H40.9655V356.573L11.7401 318.356H0V378.971Z" fill="#5854CC"/>
<path d="M98.3716 379.97C117.023 379.97 130.594 365.816 130.594 348.663V348.497C130.594 331.261 117.189 317.356 98.5381 317.356C79.8872 317.356 66.3153 331.511 66.3153 348.663V348.83C66.3153 366.065 79.7206 379.97 98.3716 379.97ZM98.5381 368.23C87.5474 368.23 79.7206 359.321 79.7206 348.663V348.497C79.7206 337.839 87.3809 329.097 98.3716 329.097C109.362 329.097 117.189 338.006 117.189 348.663V348.83C117.189 359.488 109.529 368.23 98.5381 368.23Z" fill="#5854CC"/>
<path d="M158.827 379.388H170.151L194.797 318.356H180.975L164.656 361.819L148.336 318.356H134.181L158.827 379.388Z" fill="#5854CC"/>
<path d="M205.576 378.971H218.399V318.356H205.576V378.971Z" fill="#5854CC"/>
<path d="M234.376 378.971H257.773C276.84 378.971 289.996 365.732 289.996 348.663V348.497C289.996 331.428 276.84 318.356 257.773 318.356H234.376V378.971ZM257.773 329.929C269.014 329.929 276.591 337.673 276.591 348.663V348.83C276.591 359.821 269.014 367.398 257.773 367.398H247.115V329.929H257.773Z" fill="#5854CC"/>
</svg>
