<svg id="svg" version="1.1" xmlns="http://www.w3.org/2000/svg" xmlns:xlink="http://www.w3.org/1999/xlink" width="400" height="258.3951449763992" viewBox="0, 0, 400,258.3951449763992"><g id="svgg"><path id="path0" d="M239.594 96.908 C 223.542 98.927,212.258 110.225,209.279 127.261 C 204.627 153.855,220.398 175.194,244.703 175.194 C 265.261 175.194,279.372 161.273,280.848 139.535 C 282.681 112.536,264.523 93.773,239.594 96.908 M111.886 135.917 L 111.886 173.902 116.794 173.902 L 121.702 173.902 121.768 156.008 L 121.835 138.114 141.537 138.047 L 161.240 137.981 161.240 155.942 L 161.240 173.902 166.279 173.902 L 171.318 173.902 171.318 135.917 L 171.318 97.933 166.279 97.933 L 161.240 97.933 161.240 113.566 L 161.240 129.199 141.473 129.199 L 121.705 129.199 121.705 113.566 L 121.705 97.933 116.796 97.933 L 111.886 97.933 111.886 135.917 M294.057 135.917 L 294.057 173.902 299.096 173.902 L 304.134 173.902 304.134 155.943 L 304.134 137.984 323.902 137.984 L 343.669 137.984 343.669 155.943 L 343.669 173.902 348.579 173.902 L 353.488 173.902 353.488 135.917 L 353.488 97.933 348.579 97.933 L 343.669 97.933 343.669 113.566 L 343.669 129.199 323.902 129.199 L 304.134 129.199 304.134 113.566 L 304.134 97.933 299.096 97.933 L 294.057 97.933 294.057 135.917 M251.395 106.214 C 266.542 110.127,274.321 127.964,269.378 147.448 C 263.357 171.186,230.437 173.704,221.332 151.123 C 217.658 142.011,218.053 127.696,222.220 118.925 C 227.058 108.744,239.762 103.209,251.395 106.214 M186.822 146.382 L 186.822 173.902 191.344 173.902 L 195.866 173.902 195.866 146.382 L 195.866 118.863 191.344 118.863 L 186.822 118.863 186.822 146.382 " stroke="none" fill="#050505" fill-rule="evenodd"></path><path id="path1" d="M65.360 22.648 C 65.081 23.383,65.227 23.773,65.783 23.773 C 67.086 23.773,75.355 26.881,79.528 28.940 C 105.442 41.725,120.000 67.867,114.971 92.584 C 114.413 95.324,114.449 95.607,115.359 95.607 C 116.059 95.607,116.317 94.811,116.938 90.737 C 121.444 61.152,100.128 31.747,67.494 22.529 L 65.608 21.997 65.360 22.648 M88.145 52.359 C 87.975 52.733,87.869 53.067,87.910 53.102 C 87.951 53.138,88.450 53.403,89.018 53.692 C 102.979 60.794,108.603 78.940,101.654 94.463 C 101.542 94.714,102.795 95.483,102.993 95.284 C 103.320 94.958,104.771 91.063,105.302 89.089 C 109.050 75.153,103.188 60.521,90.760 52.793 C 88.688 51.504,88.546 51.480,88.145 52.359 M32.908 61.247 C 30.313 61.769,27.906 63.681,26.780 66.118 L 26.227 67.313 26.227 122.997 L 26.227 178.682 26.951 180.156 C 27.852 181.991,29.702 183.685,31.547 184.367 C 32.915 184.872,33.584 184.884,61.628 184.884 C 89.671 184.884,90.341 184.872,91.709 184.367 C 93.554 183.685,95.404 181.991,96.305 180.156 L 97.028 178.682 97.028 122.997 L 97.028 67.313 96.432 66.115 C 95.469 64.179,94.186 62.887,92.307 61.962 L 90.580 61.111 62.280 61.072 C 46.714 61.050,33.497 61.129,32.908 61.247 M81.961 80.412 C 83.862 81.862,83.721 78.724,83.721 119.704 L 83.721 156.513 83.133 157.385 C 82.810 157.864,82.154 158.521,81.674 158.844 L 80.802 159.432 61.047 159.432 C 38.893 159.432,40.125 159.536,38.801 157.537 L 38.114 156.498 38.037 120.691 C 37.952 81.352,37.919 82.557,39.098 81.214 C 40.588 79.518,39.502 79.594,61.261 79.658 L 81.048 79.716 81.961 80.412 M61.705 170.389 C 65.034 172.121,64.064 176.834,60.380 176.829 C 56.629 176.824,55.138 172.247,58.338 170.558 C 59.485 169.952,60.745 169.889,61.705 170.389 " stroke="none" fill="#94d454" fill-rule="evenodd"></path><path id="path2" d="M182.508 88.392 C 181.371 88.955,179.593 90.707,179.091 91.759 C 178.800 92.370,178.802 92.369,179.256 91.734 C 181.563 88.503,184.443 87.329,187.218 88.488 C 187.710 88.694,188.114 88.804,188.114 88.733 C 188.114 87.859,184.081 87.613,182.508 88.392 M196.233 88.222 C 195.235 88.656,193.702 89.991,192.983 91.051 C 192.681 91.496,192.974 91.260,193.633 90.527 C 195.845 88.066,198.588 87.427,201.189 88.765 C 201.885 89.123,202.222 89.227,201.938 88.996 C 200.548 87.865,197.882 87.504,196.233 88.222 M204.589 92.506 C 204.694 92.862,204.774 94.141,204.766 95.349 C 204.757 96.619,204.828 97.273,204.934 96.899 C 205.249 95.784,205.160 93.443,204.771 92.636 C 204.489 92.049,204.444 92.018,204.589 92.506 M243.485 96.574 C 244.307 96.625,245.586 96.625,246.327 96.573 C 247.068 96.521,246.395 96.479,244.832 96.479 C 243.269 96.480,242.663 96.522,243.485 96.574 M239.990 96.824 C 240.312 96.885,240.777 96.883,241.024 96.818 C 241.271 96.754,241.008 96.703,240.439 96.706 C 239.871 96.709,239.669 96.762,239.990 96.824 M248.643 96.819 C 248.892 96.884,249.299 96.884,249.548 96.819 C 249.797 96.754,249.593 96.701,249.096 96.701 C 248.598 96.701,248.395 96.754,248.643 96.819 M111.756 136.047 L 111.757 174.031 116.796 174.031 L 121.835 174.031 121.901 156.139 L 121.967 138.246 141.668 138.177 L 161.370 138.109 141.602 138.111 L 121.835 138.114 121.768 156.008 L 121.702 173.902 116.795 173.902 L 111.888 173.902 111.821 135.982 L 111.755 98.062 111.756 136.047 M121.827 113.566 C 121.827 122.235,121.859 125.744,121.899 121.364 C 121.939 116.983,121.939 109.890,121.899 105.602 C 121.859 101.313,121.827 104.897,121.827 113.566 M304.256 113.566 C 304.256 122.235,304.288 125.744,304.328 121.364 C 304.368 116.983,304.368 109.890,304.328 105.602 C 304.288 101.313,304.256 104.897,304.256 113.566 M343.532 113.566 C 343.532 122.235,343.565 125.744,343.605 121.364 C 343.644 116.983,343.644 109.890,343.604 105.602 C 343.565 101.313,343.532 104.897,343.532 113.566 M353.552 135.853 L 353.488 173.902 348.579 173.902 L 343.669 173.902 343.669 155.943 L 343.669 137.984 323.902 137.984 L 304.134 137.984 304.134 155.938 L 304.134 173.891 299.160 173.969 L 294.186 174.047 299.225 174.039 L 304.264 174.031 304.330 156.137 L 304.396 138.243 323.902 138.243 L 343.407 138.243 343.474 156.137 L 343.540 174.031 348.520 174.101 C 352.364 174.155,353.529 174.096,353.625 173.843 C 353.694 173.662,353.720 156.479,353.683 135.659 L 353.616 97.804 353.552 135.853 M179.211 98.773 C 179.307 99.092,179.493 99.468,179.623 99.607 C 179.753 99.745,179.728 99.484,179.568 99.025 C 179.241 98.086,178.939 97.873,179.211 98.773 M203.539 99.874 C 203.303 100.370,203.162 100.775,203.228 100.775 C 203.404 100.775,204.189 99.193,204.071 99.075 C 204.014 99.019,203.775 99.378,203.539 99.874 M226.733 100.800 C 225.460 101.524,224.244 102.294,224.031 102.509 C 223.818 102.725,224.165 102.579,224.804 102.184 C 225.442 101.789,226.779 101.021,227.775 100.478 C 228.771 99.935,229.465 99.489,229.317 99.487 C 229.169 99.485,228.006 100.076,226.733 100.800 M262.661 101.032 C 263.941 101.776,265.155 102.517,265.360 102.678 C 265.639 102.898,265.688 102.897,265.553 102.673 C 265.355 102.342,261.667 100.131,260.853 99.855 C 260.568 99.758,261.382 100.288,262.661 101.032 M180.482 101.276 C 180.698 101.693,180.992 102.107,181.136 102.196 C 181.279 102.284,181.152 101.943,180.853 101.437 C 180.199 100.327,179.932 100.212,180.482 101.276 M265.891 102.923 C 265.891 102.987,266.318 103.365,266.840 103.763 C 267.362 104.161,267.707 104.355,267.607 104.193 C 267.403 103.862,265.891 102.744,265.891 102.923 M268.476 104.998 C 268.831 105.402,269.354 105.852,269.638 105.999 C 270.182 106.279,270.166 106.262,268.735 105.037 L 267.831 104.264 268.476 104.998 M218.975 106.783 C 218.121 107.671,217.198 108.689,216.925 109.044 L 216.427 109.690 216.953 109.173 C 218.081 108.065,220.748 105.168,220.641 105.168 C 220.579 105.168,219.829 105.895,218.975 106.783 M243.485 105.618 C 244.307 105.669,245.586 105.669,246.327 105.617 C 247.068 105.565,246.395 105.522,244.832 105.523 C 243.269 105.524,242.663 105.566,243.485 105.618 M198.567 106.783 L 197.545 107.881 198.643 106.860 C 199.665 105.910,199.860 105.685,199.665 105.685 C 199.623 105.685,199.128 106.179,198.567 106.783 M186.305 108.398 C 187.649 109.748,188.808 110.853,188.879 110.853 C 188.950 110.853,187.908 109.748,186.563 108.398 C 185.219 107.048,184.061 105.943,183.990 105.943 C 183.918 105.943,184.960 107.048,186.305 108.398 M236.434 106.687 C 235.652 106.939,234.664 107.347,234.238 107.594 C 233.811 107.841,233.695 107.957,233.979 107.852 C 234.264 107.747,235.426 107.340,236.563 106.946 C 238.827 106.163,238.721 105.951,236.434 106.687 M251.550 106.460 C 251.835 106.582,252.242 106.682,252.455 106.682 C 252.699 106.682,252.651 106.600,252.326 106.460 C 252.041 106.338,251.634 106.238,251.421 106.238 C 251.177 106.238,251.225 106.320,251.550 106.460 M253.712 107.116 C 254.190 107.324,254.655 107.489,254.745 107.484 C 255.082 107.466,253.602 106.737,253.230 106.738 C 253.017 106.738,253.234 106.908,253.712 107.116 M270.801 107.105 C 270.801 107.185,271.412 107.974,272.159 108.858 C 272.905 109.742,273.906 111.076,274.382 111.822 C 275.120 112.979,275.853 113.810,275.293 112.855 C 274.182 110.960,270.801 106.633,270.801 107.105 M255.060 107.591 C 255.325 107.830,257.364 108.783,257.364 108.667 C 257.364 108.520,255.414 107.494,255.135 107.494 C 255.035 107.494,255.001 107.537,255.060 107.591 M231.735 108.795 C 231.211 109.071,230.714 109.408,230.631 109.544 C 230.547 109.679,231.005 109.496,231.648 109.136 C 232.291 108.777,232.817 108.435,232.817 108.376 C 232.817 108.226,232.799 108.233,231.735 108.795 M195.083 110.271 L 193.411 112.016 195.155 110.343 C 196.114 109.424,196.899 108.639,196.899 108.599 C 196.899 108.409,196.636 108.651,195.083 110.271 M260.078 110.502 C 262.406 112.753,264.079 114.188,262.791 112.829 C 262.009 112.004,261.021 111.087,260.594 110.791 C 260.168 110.495,259.935 110.365,260.078 110.502 M190.385 112.080 C 191.011 112.684,191.654 113.178,191.814 113.178 C 191.974 113.178,191.817 112.986,191.466 112.752 C 191.114 112.517,190.471 112.023,190.037 111.653 C 189.602 111.284,189.759 111.476,190.385 112.080 M225.792 113.501 C 224.697 114.678,223.536 116.266,223.004 117.313 C 222.553 118.201,222.963 117.713,224.092 116.021 C 224.613 115.239,225.514 114.105,226.095 113.501 C 226.676 112.897,227.075 112.403,226.982 112.403 C 226.890 112.403,226.354 112.897,225.792 113.501 M212.618 115.907 C 211.901 117.408,211.357 118.678,211.409 118.730 C 211.460 118.782,212.103 117.554,212.837 116.001 C 213.571 114.449,214.115 113.178,214.046 113.178 C 213.978 113.178,213.335 114.406,212.618 115.907 M267.136 119.611 C 267.802 121.018,268.392 122.125,268.449 122.071 C 268.571 121.956,266.227 117.054,266.049 117.054 C 265.981 117.054,266.470 118.205,267.136 119.611 M186.627 146.318 L 186.693 174.031 191.344 174.031 L 195.995 174.031 196.061 146.318 L 196.126 118.605 191.344 118.605 L 186.561 118.605 186.627 146.318 M195.866 146.382 L 195.866 173.902 191.344 173.902 L 186.822 173.902 186.822 146.382 L 186.822 118.863 191.344 118.863 L 195.866 118.863 195.866 146.382 M278.100 119.186 C 278.810 121.113,279.496 123.565,279.989 125.937 C 280.318 127.518,280.591 128.521,280.598 128.165 C 280.623 126.699,278.533 118.863,278.117 118.863 C 278.042 118.863,278.034 119.008,278.100 119.186 M210.883 119.922 C 210.724 120.377,210.603 120.877,210.613 121.033 C 210.623 121.190,210.797 120.863,211.001 120.307 C 211.205 119.751,211.326 119.251,211.271 119.195 C 211.216 119.140,211.041 119.467,210.883 119.922 M280.817 131.912 C 280.890 133.618,280.992 135.061,281.044 135.121 C 281.215 135.319,281.094 131.412,280.888 130.103 C 280.760 129.291,280.734 129.962,280.817 131.912 M219.187 130.620 C 219.189 131.189,219.242 131.391,219.304 131.069 C 219.366 130.748,219.364 130.283,219.299 130.036 C 219.234 129.789,219.184 130.052,219.187 130.620 M208.592 131.912 C 208.595 132.481,208.648 132.683,208.710 132.361 C 208.772 132.040,208.769 131.575,208.705 131.328 C 208.640 131.081,208.589 131.344,208.592 131.912 M218.917 136.563 C 218.904 139.264,218.976 141.938,219.078 142.506 C 219.180 143.075,219.227 141.156,219.182 138.243 C 219.075 131.253,218.946 130.440,218.917 136.563 M270.636 136.176 C 270.636 137.526,270.679 138.078,270.733 137.403 C 270.786 136.728,270.786 135.623,270.733 134.948 C 270.679 134.273,270.636 134.826,270.636 136.176 M280.929 138.399 C 280.901 139.266,280.825 140.720,280.759 141.629 L 280.640 143.282 280.893 141.731 C 281.032 140.879,281.109 139.425,281.063 138.501 L 280.980 136.822 280.929 138.399 M280.121 145.497 C 279.934 146.553,279.454 148.519,279.055 149.867 C 278.656 151.215,278.373 152.360,278.425 152.413 C 278.721 152.709,280.772 144.511,280.560 143.877 C 280.506 143.713,280.308 144.442,280.121 145.497 M268.192 150.446 C 267.370 152.610,267.360 152.643,267.679 152.196 C 268.051 151.676,269.037 149.054,268.909 148.926 C 268.853 148.870,268.531 149.554,268.192 150.446 M210.853 151.541 C 210.853 151.890,212.950 156.703,213.222 156.977 C 213.363 157.119,213.168 156.537,212.789 155.685 C 212.411 154.832,211.868 153.553,211.584 152.842 C 211.063 151.538,210.853 151.164,210.853 151.541 M221.705 152.034 C 221.705 152.313,222.732 154.264,222.879 154.264 C 222.950 154.264,222.759 153.769,222.454 153.165 C 221.855 151.978,221.705 151.751,221.705 152.034 M265.675 155.491 C 265.078 156.450,264.868 156.901,265.210 156.493 C 265.842 155.739,267.039 153.747,266.860 153.747 C 266.806 153.747,266.273 154.532,265.675 155.491 M223.409 155.258 C 223.680 155.734,224.285 156.548,224.753 157.067 C 225.355 157.735,225.254 157.520,224.405 156.331 C 222.993 154.352,222.736 154.074,223.409 155.258 M263.679 158.204 L 262.920 159.044 263.760 158.285 C 264.542 157.578,264.718 157.364,264.519 157.364 C 264.474 157.364,264.096 157.742,263.679 158.204 M226.604 159.238 C 227.238 159.913,227.790 160.465,227.832 160.465 C 228.026 160.465,227.820 160.233,226.680 159.162 L 225.452 158.010 226.604 159.238 M275.292 158.721 C 274.403 160.230,274.345 160.359,274.798 159.819 C 275.323 159.194,275.775 158.398,275.606 158.398 C 275.538 158.398,275.397 158.543,275.292 158.721 M260.336 161.280 C 259.483 161.990,257.972 163.026,256.977 163.582 C 255.982 164.138,255.287 164.594,255.432 164.596 C 255.956 164.603,259.590 162.288,260.853 161.143 C 262.568 159.588,262.274 159.665,260.336 161.280 M272.888 162.247 C 271.291 164.401,268.660 166.924,266.251 168.610 C 264.297 169.978,263.511 170.648,264.729 169.908 C 267.762 168.063,271.771 164.349,273.605 161.684 C 274.870 159.844,274.389 160.222,272.888 162.247 M229.386 161.683 C 230.384 162.580,233.592 164.541,233.592 164.254 C 233.592 164.187,232.981 163.787,232.235 163.366 C 231.489 162.945,230.297 162.174,229.587 161.652 L 228.295 160.702 229.386 161.683 M216.767 162.460 C 217.226 163.059,218.127 164.106,218.770 164.785 C 219.523 165.582,219.369 165.333,218.336 164.083 C 216.469 161.824,215.560 160.884,216.767 162.460 M220.919 166.772 C 221.330 167.279,223.928 169.306,224.548 169.605 C 224.761 169.707,224.595 169.524,224.179 169.198 C 223.764 168.872,222.775 168.088,221.983 167.457 C 221.191 166.826,220.712 166.518,220.919 166.772 M241.667 166.586 C 241.915 166.651,242.322 166.651,242.571 166.586 C 242.820 166.521,242.616 166.468,242.119 166.468 C 241.621 166.468,241.418 166.521,241.667 166.586 M246.835 166.586 C 247.083 166.651,247.490 166.651,247.739 166.586 C 247.988 166.521,247.784 166.468,247.287 166.468 C 246.789 166.468,246.586 166.521,246.835 166.586 M261.757 171.318 C 260.975 171.731,260.427 172.074,260.538 172.081 C 260.813 172.097,263.307 170.824,263.307 170.667 C 263.307 170.495,263.343 170.480,261.757 171.318 M163.773 174.095 C 165.238 174.141,167.563 174.141,168.941 174.094 C 170.319 174.048,169.121 174.010,166.279 174.010 C 163.437 174.011,162.309 174.049,163.773 174.095 M234.144 174.009 C 234.378 174.264,238.992 175.191,239.922 175.169 C 240.349 175.160,239.535 174.942,238.114 174.687 C 236.693 174.431,235.181 174.134,234.755 174.026 C 234.328 173.918,234.054 173.910,234.144 174.009 M254.479 174.030 C 254.409 174.101,253.081 174.382,251.529 174.656 C 249.978 174.929,249.057 175.160,249.483 175.170 C 250.333 175.189,255.010 174.275,255.240 174.045 C 255.319 173.966,255.209 173.902,254.996 173.902 C 254.783 173.902,254.550 173.960,254.479 174.030 M242.700 175.386 C 243.802 175.434,245.604 175.434,246.705 175.386 C 247.807 175.337,246.906 175.298,244.703 175.298 C 242.500 175.298,241.599 175.337,242.700 175.386 M142.731 197.097 C 142.254 197.406,137.953 219.200,138.322 219.434 C 138.717 219.685,140.090 219.688,140.482 219.439 C 140.807 219.232,145.270 197.449,145.058 197.106 C 144.899 196.847,143.125 196.841,142.731 197.097 M161.851 197.097 C 161.429 197.369,157.173 219.085,157.481 219.393 C 157.775 219.687,159.175 219.711,159.617 219.430 C 159.790 219.320,160.284 217.458,160.714 215.291 C 161.943 209.108,163.952 206.202,166.998 206.202 C 169.025 206.202,169.124 207.265,167.739 214.151 C 167.044 217.604,166.826 219.177,167.015 219.367 C 167.344 219.696,168.725 219.718,169.223 219.402 C 169.670 219.120,171.549 209.768,171.565 207.752 C 171.598 203.397,167.204 202.156,163.441 205.457 L 162.445 206.331 162.639 205.556 C 163.237 203.170,164.315 197.325,164.194 197.129 C 164.024 196.853,162.266 196.829,161.851 197.097 M342.759 197.222 C 342.639 197.547,341.085 205.031,341.085 205.282 C 341.085 205.355,340.563 205.048,339.925 204.598 C 335.244 201.299,328.941 206.887,328.941 214.336 C 328.941 219.658,333.718 221.675,337.804 218.079 L 338.945 217.075 338.746 218.160 C 338.637 218.758,338.602 219.334,338.669 219.442 C 338.880 219.783,340.492 219.654,340.810 219.270 C 341.118 218.900,345.220 198.659,345.220 197.513 C 345.220 196.817,343.005 196.555,342.759 197.222 M35.202 198.592 C 26.787 200.857,22.913 215.852,29.913 219.057 C 37.590 222.571,45.736 215.702,45.736 205.715 C 45.736 199.893,41.360 196.934,35.202 198.592 M224.812 198.589 C 216.020 201.055,212.468 217.091,220.197 219.428 C 227.693 221.696,234.544 216.072,235.298 207.031 C 235.852 200.391,231.339 196.758,224.812 198.589 M88.427 198.773 C 88.075 199.199,84.168 218.826,84.344 219.284 C 84.517 219.734,86.401 219.759,86.764 219.315 C 86.909 219.138,87.396 217.132,87.845 214.858 C 88.295 212.584,88.721 210.520,88.793 210.271 C 88.910 209.867,98.450 209.505,98.450 209.905 C 98.450 209.952,98.041 212.014,97.541 214.489 C 97.042 216.963,96.690 219.134,96.758 219.313 C 96.921 219.736,98.822 219.738,99.164 219.315 C 99.668 218.691,103.520 199.499,103.271 198.850 C 103.083 198.360,101.565 198.308,100.993 198.773 C 100.683 199.024,98.966 206.266,98.966 207.321 C 98.966 207.416,96.803 207.494,94.158 207.494 L 89.350 207.494 89.488 206.912 C 90.130 204.216,90.993 199.177,90.869 198.853 C 90.678 198.357,88.821 198.296,88.427 198.773 M186.760 198.773 C 186.297 199.131,182.278 218.613,182.531 219.274 C 182.708 219.734,184.587 219.766,184.955 219.315 C 185.340 218.844,189.256 199.365,189.066 198.869 C 188.871 198.361,187.375 198.298,186.760 198.773 M278.086 198.777 C 277.715 199.224,273.811 218.770,273.996 219.253 C 274.179 219.728,275.698 219.770,276.293 219.315 C 276.585 219.093,276.984 217.583,277.574 214.470 L 278.432 209.948 283.279 209.878 L 288.126 209.808 287.994 210.395 C 286.129 218.688,286.084 219.638,287.557 219.638 C 289.002 219.638,288.905 219.929,291.077 209.085 C 293.247 198.247,293.234 198.450,291.771 198.450 C 290.386 198.450,290.340 198.543,289.393 203.295 L 288.556 207.494 283.813 207.494 C 280.191 207.494,279.070 207.417,279.069 207.171 C 279.068 206.993,279.429 205.130,279.869 203.030 C 280.310 200.930,280.605 199.040,280.524 198.831 C 280.341 198.353,278.472 198.312,278.086 198.777 M150.757 199.981 C 150.340 200.158,150.148 200.614,149.893 202.042 L 149.565 203.876 148.458 203.876 C 146.369 203.876,145.950 206.004,148.010 206.152 C 148.912 206.217,149.096 206.315,148.992 206.669 C 147.745 210.897,147.023 217.596,147.708 218.574 C 149.253 220.780,153.747 220.141,153.747 217.715 C 153.747 217.061,153.723 217.053,152.330 217.216 C 149.781 217.516,149.668 216.944,151.001 210.465 L 151.852 206.331 153.843 206.202 C 155.990 206.062,156.320 205.848,156.327 204.587 L 156.331 203.876 154.393 203.876 C 152.216 203.876,152.295 203.980,152.750 201.717 C 152.913 200.908,152.991 200.192,152.925 200.126 C 152.661 199.861,151.260 199.768,150.757 199.981 M40.763 201.464 C 44.462 204.226,42.575 213.649,37.755 216.483 C 35.190 217.991,31.377 217.389,30.143 215.282 C 28.715 212.842,29.879 206.415,32.304 203.353 C 34.163 201.007,38.772 199.977,40.763 201.464 M229.845 201.261 C 234.162 203.244,232.537 213.474,227.428 216.478 C 223.631 218.710,219.433 216.873,219.189 212.872 C 218.709 204.974,224.408 198.764,229.845 201.261 M72.481 204.045 C 72.054 204.269,71.264 204.875,70.725 205.391 L 69.744 206.330 69.820 205.167 C 69.896 204.018,69.887 204.004,69.024 203.922 C 67.740 203.799,67.762 203.737,66.161 211.725 C 64.585 219.582,64.584 219.641,66.008 219.634 C 67.278 219.628,67.378 219.429,68.199 215.250 C 69.425 209.016,71.452 205.962,74.150 206.281 C 75.459 206.436,75.969 205.978,75.969 204.648 C 75.969 203.631,73.939 203.280,72.481 204.045 M110.921 204.151 C 105.973 206.102,103.238 215.046,106.522 218.541 C 108.504 220.652,115.720 220.170,116.375 217.883 C 116.734 216.628,116.390 216.477,114.507 217.063 C 110.187 218.407,108.010 217.383,108.010 214.005 L 108.010 212.481 110.659 212.319 C 116.301 211.974,118.864 210.475,118.862 207.520 C 118.859 204.334,114.812 202.617,110.921 204.151 M126.808 203.986 C 121.627 205.835,119.060 216.221,123.048 219.198 C 124.669 220.408,127.737 219.890,129.822 218.054 L 131.003 217.015 130.839 217.874 C 130.749 218.347,130.635 218.781,130.585 218.839 C 130.536 218.897,130.625 219.101,130.783 219.291 C 131.251 219.855,132.497 219.717,132.908 219.057 C 133.448 218.189,136.041 204.413,135.724 204.096 C 135.127 203.499,133.735 203.963,133.446 204.854 C 133.174 205.697,133.168 205.699,132.702 205.184 C 131.440 203.790,128.839 203.261,126.808 203.986 M198.899 203.987 C 197.836 204.366,197.450 204.623,196.184 205.791 L 195.340 206.570 195.507 205.675 C 195.684 204.731,195.686 204.708,195.638 204.199 C 195.605 203.849,194.126 203.757,193.631 204.074 C 193.277 204.301,190.340 218.749,190.541 219.274 C 190.718 219.734,192.605 219.766,192.944 219.315 C 193.077 219.138,193.508 217.364,193.901 215.375 C 195.119 209.217,197.122 206.193,199.974 206.206 C 202.362 206.216,202.437 207.079,200.752 215.142 C 200.319 217.217,200.027 219.077,200.103 219.276 C 200.279 219.734,202.164 219.764,202.515 219.315 C 202.922 218.795,204.653 209.318,204.651 207.623 C 204.647 204.360,202.196 202.811,198.899 203.987 M262.145 204.022 C 261.718 204.243,260.924 204.852,260.380 205.377 L 259.390 206.331 259.475 205.168 C 259.560 204.016,259.552 204.004,258.688 203.922 C 257.451 203.803,257.349 203.991,256.575 207.813 C 256.193 209.698,255.509 213.030,255.053 215.218 C 254.151 219.554,254.162 219.630,255.685 219.630 C 256.920 219.630,257.001 219.464,257.847 215.176 C 259.140 208.622,261.037 205.880,263.974 206.320 L 265.089 206.488 265.385 205.389 C 265.839 203.703,264.144 202.987,262.145 204.022 M300.235 203.972 C 295.062 205.821,292.469 216.324,296.467 219.236 C 298.119 220.438,301.232 219.850,303.353 217.934 L 304.349 217.034 304.306 218.271 C 304.262 219.554,305.123 220.096,306.142 219.429 C 306.452 219.226,309.293 205.741,309.299 204.443 C 309.305 203.374,307.241 203.731,306.862 204.864 L 306.574 205.722 306.065 205.150 C 304.852 203.788,302.231 203.258,300.235 203.972 M319.638 204.154 C 318.999 204.443,318.038 205.105,317.503 205.626 L 316.530 206.572 316.598 205.289 L 316.667 204.005 315.697 203.925 C 314.464 203.823,314.603 203.421,312.925 211.942 C 311.451 219.428,311.445 219.640,312.718 219.634 C 314.069 219.628,314.172 219.429,315.002 215.255 C 315.807 211.201,316.055 210.502,317.357 208.598 C 318.794 206.497,321.693 205.488,322.595 206.776 C 323.198 207.636,323.092 208.953,321.996 214.259 C 320.923 219.457,320.935 219.641,322.339 219.634 C 323.707 219.627,323.803 219.419,324.836 214.172 C 325.942 208.564,326.055 206.763,325.387 205.426 C 324.517 203.685,321.940 203.114,319.638 204.154 M351.034 203.918 C 346.242 205.713,346.175 210.240,350.904 212.718 C 355.643 215.203,351.968 219.204,347.049 216.914 C 345.461 216.175,345.230 216.295,345.224 217.865 C 345.211 220.823,352.985 220.444,355.137 217.381 C 357.090 214.603,356.211 212.306,352.468 210.405 C 348.173 208.223,351.062 204.443,355.489 206.452 C 356.725 207.013,357.106 206.747,357.106 205.321 C 357.106 204.044,353.142 203.128,351.034 203.918 M50.459 204.199 C 50.061 204.713,48.320 214.265,48.321 215.931 C 48.324 220.227,52.834 221.320,56.583 217.934 L 57.579 217.034 57.536 218.271 C 57.495 219.470,57.518 219.511,58.269 219.576 C 59.583 219.691,59.653 219.504,61.140 211.903 C 62.727 203.789,62.725 203.876,61.243 203.876 C 59.952 203.876,59.946 203.889,59.035 208.527 C 57.912 214.243,55.766 217.313,52.895 217.313 C 50.843 217.313,50.706 216.207,51.983 209.912 C 52.565 207.040,52.971 204.506,52.885 204.283 C 52.694 203.783,50.831 203.719,50.459 204.199 M240.123 204.199 C 239.115 205.499,237.643 216.762,238.311 218.063 C 239.532 220.438,243.397 220.434,246.101 218.054 L 247.282 217.015 247.118 217.874 C 247.028 218.347,246.914 218.781,246.864 218.839 C 246.633 219.110,247.425 219.638,248.062 219.638 C 249.178 219.638,249.277 219.353,250.798 211.768 C 252.388 203.843,252.387 203.876,250.944 203.876 C 249.591 203.876,249.538 203.978,248.728 208.140 C 247.519 214.351,245.477 217.313,242.404 217.313 C 240.371 217.313,240.278 216.416,241.613 209.664 C 242.188 206.758,242.588 204.266,242.502 204.128 C 242.277 203.763,240.418 203.818,240.123 204.199 M115.446 206.345 C 116.294 206.939,116.248 208.569,115.364 209.264 C 114.223 210.162,108.786 210.825,108.786 210.067 C 108.786 207.464,113.379 204.897,115.446 206.345 M131.071 206.852 C 132.477 207.808,132.560 208.119,132.016 210.395 C 130.353 217.356,124.031 220.307,124.031 214.122 C 124.031 208.316,127.680 204.548,131.071 206.852 M304.083 206.565 C 304.466 206.764,305.053 207.220,305.387 207.577 L 305.994 208.227 305.571 210.121 C 303.856 217.795,296.928 220.451,297.482 213.222 C 297.867 208.186,301.043 204.983,304.083 206.565 M338.450 206.565 C 340.582 207.674,340.759 209.745,339.030 213.346 C 336.118 219.412,330.868 218.384,332.179 212.005 C 333.125 207.403,335.725 205.147,338.450 206.565 " stroke="none" fill="#868685" fill-rule="evenodd"></path><path id="path3" d="M182.490 88.659 C 175.396 92.171,178.187 101.242,189.372 111.028 C 192.035 113.357,191.643 113.394,194.735 110.530 C 204.150 101.811,207.050 95.071,203.362 90.481 C 200.526 86.952,195.984 87.356,193.023 91.399 C 191.641 93.287,191.623 93.293,190.981 92.054 C 189.250 88.716,185.448 87.195,182.490 88.659 " stroke="none" fill="#c40505" fill-rule="evenodd"></path></g></svg>