<svg id="Layer_1" data-name="Layer 1" xmlns="http://www.w3.org/2000/svg" xmlns:xlink="http://www.w3.org/1999/xlink" viewBox="0 0 1074 442"><defs><style>.cls-1{fill:#131012;}.cls-2{fill:#909090;}.cls-3{fill:#fbfbfb;}.cls-4{fill:url(#linear-gradient);}.cls-5{fill:url(#linear-gradient-2);}.cls-6{fill:#6491c6;}.cls-7{fill:url(#linear-gradient-3);}.cls-8{fill:url(#linear-gradient-4);}.cls-9{fill:url(#linear-gradient-5);}.cls-10{fill:url(#linear-gradient-6);}.cls-11{fill:none;}.cls-12{fill:#d0d0d0;}</style><linearGradient id="linear-gradient" x1="46.38652" y1="309.76101" x2="195.47423" y2="309.76101" gradientUnits="userSpaceOnUse"><stop offset="0" stop-color="#fff"/><stop offset="1" stop-color="#589ad0"/></linearGradient><linearGradient id="linear-gradient-2" x1="224.34792" y1="125.3051" x2="372.6939" y2="125.3051" gradientUnits="userSpaceOnUse"><stop offset="0" stop-color="#589ad0"/><stop offset="1" stop-color="#fff"/></linearGradient><linearGradient id="linear-gradient-3" x1="313.95291" y1="286.82145" x2="305.70192" y2="272.53032" xlink:href="#linear-gradient"/><linearGradient id="linear-gradient-4" x1="347.40433" y1="360.40309" x2="276.92244" y2="238.32487" xlink:href="#linear-gradient"/><linearGradient id="linear-gradient-5" x1="122.58186" y1="98.27211" x2="122.60669" y2="98.27211" xlink:href="#linear-gradient"/><linearGradient id="linear-gradient-6" x1="50.42431" y1="133.19862" x2="189.28716" y2="133.19862" xlink:href="#linear-gradient"/></defs><path class="cls-1" d="M923.8437,112.38859c-1.032,1.28019-.69346,2.311-.69459,3.25251-.02289,18.70144-.199,37.40539.05544,56.10341.13929,10.23537-.53793,20.50724.85936,30.71229.5567,4.066,2.36754,5.93589,6.45913,6.31953a66.39592,66.39592,0,0,0,8.16069.37962c3.2106-.09626,2.1778,2.16715,2.33174,3.76631.15918,1.6535-.15041,2.73906-2.344,2.55792a244.80209,244.80209,0,0,0-39.46946.01175c-1.53519.12124-2.67393-.20734-2.22612-1.9834.38067-1.50971-1.561-4.15822,1.92964-4.294q3.67559-.143,7.349-.34136c5.57008-.29724,7.71581-2.33209,7.932-7.8757q.3446-8.83822.35944-17.68868.0585-34.8609.00046-69.72194-.00758-5.71277-.35538-11.42366c-.28224-4.61445-1.97768-7.672-7.52-7.60427-2.61743.032-5.23653-.53438-7.86321-.67521-3.10917-.16667-1.53206-2.478-1.84651-3.8783-.32929-1.4667.3233-2.082,1.92324-2.0736q15.66807.08193,31.33652-.00826a2.60571,2.60571,0,0,1,2.63614,1.88036c14.21659,32.37144,30.40141,63.80294,45.7312,95.64273.38133.792.43564,2.00059,1.54962,1.97268.92852-.02323,1.02868-1.19507,1.35457-1.87379,9.62694-20.04263,19.15378-40.13339,28.81938-60.1573,5.73593-11.88317,11.23426-23.86875,16.24359-36.07361a1.99147,1.99147,0,0,1,2.27377-1.36218c10.71816.00586,21.43652.03456,32.15429-.02957,1.6965-.01015,2.15251.77863,1.84784,2.14313-.29994,1.34317,1.224,3.53606-1.60633,3.8112-2.62.25469-5.23866.63412-7.86441.70008-6.8183.17128-7.32069,3.3546-7.60267,7.98795-.391,6.42244-.46791,12.87049-.48342,19.30805q-.07975,33.2267.01178,66.45361c.01637,4.79554-.13623,9.62864.73319,14.38046.77684,4.24556,2.60518,5.80248,6.97729,6.12435a54.17071,54.17071,0,0,0,7.072.29847c2.385-.13841,2.9229.82965,2.83765,2.99663-.13383,3.403-.016,3.39958-3.36373,3.16112a327.47427,327.47427,0,0,0-45.74657.09771c-1.66224.11407-3.29459.558-3.32514-2.12956-.04359-3.83447-.06542-3.94895,3.16255-4.0702,2.45019-.092,4.90451-.1652,7.34638-.37194,4.614-.39064,6.50938-2.26647,6.79275-6.85155.27918-4.51618.45141-9.0409.57373-13.56448.675-24.9528.23273-49.91144.357-74.86722a10.886,10.886,0,0,0-.006-1.36046c-.08159-.66891.37887-1.66173-.49873-1.9119-1.07406-.30621-1.18606.78955-1.52421,1.49419-5.711,11.9011-11.47431,23.77736-17.13683,35.7014-7.52114,15.83782-15.03549,31.67965-22.4077,47.58691-2.96362,6.39467-5.581,12.95159-8.26677,19.4713-.60648,1.47191-1.20769,2.48622-3.04469,2.51066-1.87007.02489-2.25959-1.03779-2.93182-2.48648q-8.55857-18.44487-17.37035-36.77233-15.0171-31.28949-30.14766-62.52463C924.94325,114.3576,924.44618,113.51031,923.8437,112.38859Z"/><path class="cls-1" d="M719.03775,150.93122c0-12.071.10541-24.14344-.04958-36.21249-.06616-5.14883-.65227-10.29253-1.04857-15.435-.21416-2.77881-1.94188-4.21945-4.55585-4.58761-2.78468-.39219-5.58792-.75632-8.39356-.86842-2.8433-.1136-1.76372-2.11855-1.957-3.53365-.20557-1.50464.18548-2.37068,1.99246-2.36319q18.25494.07569,36.51029-.00345c1.72678-.00838,2.09827.83563,1.82175,2.17333-.276,1.33561,1.19119,3.49775-1.70649,3.71268-2.71426.20134-5.42007.52909-8.12482.84244a4.81942,4.81942,0,0,0-4.605,4.2098,55.45813,55.45813,0,0,0-.94,10.00729c-.61027,27.31319-.33848,54.63179-.22188,81.94617.03634,8.52045-.02928,17.05264.25163,25.57447.0535,1.622-.32816,2.12287-2.0292,1.61118-3.19049-.95971-6.47556-1.60863-9.65668-2.59478-1.38458-.4292-2.28987-1.73845-3.27641-2.80279-8.81476-9.50992-16.52317-19.93454-24.79061-29.89639-16.369-19.72378-32.9133-39.30225-49.37817-58.9466-3.49118-4.16537-6.931-8.374-10.45762-12.5089-.39784-.46646-.7238-1.47379-1.61977-1.11634-.86356.34455-.518,1.26656-.51863,1.94-.02136,21.15061-.23745,42.30439.073,63.45039.13544,9.22364-.10574,18.48431,1.10634,27.70127.42373,3.22247,1.74941,5.12713,6.01883,5.63566,2.24981.268,4.52956.282,6.79481.425,3.09786.19562,1.75168,2.5882,1.95865,4.13026.22055,1.64447-.60488,2.15736-2.29919,1.9692-11.69586-1.29894-23.40269-.83074-35.10128.0065-1.645.11775-3.00589.17951-2.81509-2.03879.15387-1.788-.90881-4.06795,2.56419-4.16782,3.11883-.08968,6.34673.18385,9.37079-1.22616a4.255,4.255,0,0,0,2.74567-3.67421,154.76714,154.76714,0,0,0,1.10494-16.25129q-.00669-42.48283-.00373-84.96568a8.84388,8.84388,0,0,0-7.22812-8.49653,55.28237,55.28237,0,0,0-7.30465-.76005c-2.91565-.04161-1.76991-2.09731-1.98068-3.487-.25029-1.65019.24378-2.43861,2.17561-2.41933,9.44432.09428,18.89037.07924,28.33509.01279a3.54056,3.54056,0,0,1,3.10278,1.71474c25.63287,33.31894,52.74456,65.42247,80.172,97.26452,1.02507,1.19014,2.1537,3.52418,3.43567,3.01167,1.58583-.634.64906-3.0535.65925-4.67023.072-11.43724.03826-22.87513.03826-34.31282Z"/><path class="cls-1" d="M532.84219,85.35944a69.2456,69.2456,0,0,1,34.00952,10.186A52.74882,52.74882,0,0,1,590.72518,128.221c3.79824,14.78817,3.55912,29.60106-1.39417,43.92715-6.50032,18.80027-19.42357,32.14307-37.65166,40.17932-12.24613,5.399-25.26521,6.57848-38.35075,5.291-16.13444-1.58742-30.5618-7.32373-41.17428-20.361-6.402-7.86469-10.25594-16.9184-12.60241-26.73887a83.54344,83.54344,0,0,1-1.10118-31.8435c2.42667-16.63655,10.53229-29.76087,23.90792-39.84758C495.51173,88.90871,510.50743,85.27043,532.84219,85.35944Zm-7.93333,7.98967c-14.22873-.09269-24.8905,3.33385-33.66928,11.43008-10.14653,9.35765-13.59641,21.7431-14.74387,34.9433a81.34619,81.34619,0,0,0,3.91064,31.63989c6.6867,21.24488,19.5837,35.75576,43.02586,37.83732,16.24585,1.44254,30.10313-3.62953,39.90922-17.20976,8.72438-12.08212,10.65807-26.17506,10.52058-40.556a77.97086,77.97086,0,0,0-4.01307-24.55595c-3.01567-8.83016-7.53-16.66509-14.81408-22.63386A47.81038,47.81038,0,0,0,524.90886,93.34911Z"/><path class="cls-1" d="M818.97835,217.86273c-13.18393.25421-25.24315-2.30471-36.336-8.74121-11.01591-6.39186-18.37487-15.88825-23.05976-27.56656-5.7885-14.4295-6.91534-29.33035-4.3196-44.582,3.0584-17.97051,12.87726-31.38895,27.98117-41.13615,10.26689-6.62562,21.6819-9.64364,33.82618-10.31888,14.0375-.78052,27.719.68389,40.50911,6.818,15.2794,7.328,25.36481,19.17554,29.68221,35.703,3.88282,14.86417,3.64537,29.78695-1.3808,44.188-6.581,18.8562-19.51554,32.3047-37.9712,40.17978A67.43961,67.43961,0,0,1,818.97835,217.86273ZM772.81251,146.714a79.54,79.54,0,0,0,1.2208,12.1737,95.01271,95.01271,0,0,0,2.95159,12.68892c5.31066,17.88834,18.66948,36.20371,43.76656,37.7469,16.03788.98615,29.69338-4.01712,39.28365-17.5018,8.63353-12.13935,10.59019-26.199,10.38135-40.58889a76.1939,76.1939,0,0,0-5.09058-27.34352c-4.04741-10.14935-10.18956-18.51028-19.90327-23.88912a52.14394,52.14394,0,0,0-37.539-5.40688c-12.90361,2.8299-22.69932,9.82772-28.70823,21.84044C774.39155,125.99733,772.91293,136.20119,772.81251,146.714Z"/><path class="cls-2" d="M733.85882,350.64331c-5.2732,0-9.90725.014-14.541-.01264-.85058-.00489-1.93.26568-2.15956-1.05248a1.8316,1.8316,0,0,1,1.11878-2.2289c2.94812-1.20933,3.13446-3.5712,3.264-6.40125.51464-11.23728.44736-22.47552.55038-33.71557.03341-3.64169-.78337-7.20178-.64315-10.83417.05963-1.54364-.89051-2.28844-2.30384-2.555-.88513-.16693-1.773-.31965-2.66089-.47155-1.02229-.17483-2.10719-.38924-2.00644-1.72746a1.9741,1.9741,0,0,1,2.44241-1.94542c10.60409,1.43065,21.21505-.818,31.78906.0124,7.651.60086,15.26976,1.65082,21.156,7.633,6.7222,6.83186,8.56532,14.95127,7.44534,24.17313a34.90788,34.90788,0,0,1-2.47295,9.37475c-3.96828,9.46792-11.09471,15.57576-20.7842,18.51408C747.27647,351.46107,740.18691,350.53827,733.85882,350.64331Zm-3.06552-30.683c0,7.34457.03886,14.68951-.023,22.03358-.01923,2.28074.79448,3.484,3.174,3.85321a39.73611,39.73611,0,0,0,17.45887-1.04351,20.49531,20.49531,0,0,0,13.36308-11.44716c3.1479-6.839,3.36606-14.07169,2.29433-21.22018-1.02109-6.81088-4.67312-12.27264-11.26541-15.24627-6.97543-3.14644-14.26471-3.42845-21.72043-2.38255-2.434.34139-3.36227,1.48788-3.32241,3.9638C730.86764,305.6327,730.793,312.79715,730.7933,319.96036Z"/><path class="cls-2" d="M656.06869,322.81685c0,5.80911-.07613,11.61954.02183,17.427.09424,5.58592,1.14161,7.31487,6.08638,7.10336,1.22972-.0526,1.50278.70041,1.48141,1.76191-.02023.99958-.42432,1.52482-1.45679,1.52439q-8.311-.00369-16.622.00951c-1.17555.00329-1.57319-.58114-1.58457-1.69009-.012-1.16756.51251-1.5446,1.63475-1.635,5.6367-.45408,5.108-1.37911,5.44243-5.892,1.05956-14.3006.46812-28.64525.53421-42.97231.01364-2.95831-1.971-4.74755-5.2754-5.04219-1.23657-.1103-2.77336.21983-2.73649-1.7378.03494-1.85049,1.30486-2.07,2.84237-2.025a72.00539,72.00539,0,0,0,10.80548.01439,3.26574,3.26574,0,0,1,3.18438,1.59785c9.78519,12.79738,20.2651,25.03009,30.57065,37.40424q2.95315,3.546,5.99847,7.01445c.439.49958.84519,1.38051,1.71021,1.0313.7298-.29464.43092-1.11616.43178-1.70687.01591-10.52916.08719-21.05934-.0531-31.5867-.03095-2.32392-.5354-4.66162-.52708-7.01843a2.31058,2.31058,0,0,0-2.0461-2.48178c-1.05882-.21869-2.13168-.36952-3.19216-.58087-1.06055-.21138-1.96131-.62587-1.72732-1.9569a1.78012,1.78012,0,0,1,2.03485-1.72114,13.11076,13.11076,0,0,0,1.362.00522c4.41922-.132,8.8258.87914,13.26326.04705,1.49173-.27968,3.15868-.02427,3.2466,1.93459.08192,1.82581-1.56986,1.60655-2.79679,1.76167-3.78453.47859-4.64849,1.38314-4.65627,5.216q-.05061,24.91582-.03973,49.83183c-.00247,3.55777-.77339,4.0224-4.22277,2.76256-4.56011-1.66558-6.95852-5.66663-9.743-9.14106q-11.2896-14.08692-23.0742-27.75484c-3.01514-3.489-5.873-7.114-8.79026-10.68713-.45361-.55557-.851-1.44076-1.61-1.23743-.89591.24-.515,1.23637-.518,1.90346-.02722,6.17218-.01611,12.3445-.01611,18.51678Z"/><path class="cls-2" d="M1006.07554,322.79108c0,5.80917-.0794,11.61971.02209,17.42709.10356,5.92585,1.27358,7.2513,6.06043,7.12384,1.218-.03242,1.514.66577,1.51036,1.74136-.00406,1.20109-.61646,1.56639-1.70682,1.5631q-8.17494-.0245-16.3498-.00226c-1.16164.00322-1.59861-.54147-1.60946-1.66591-.01112-1.14716.46831-1.55921,1.60846-1.66209,5.26355-.4749,5.10243-.85643,5.48949-6.13594,1.03519-14.12163.43158-28.28393.52075-42.42947.0201-3.1924-1.85982-5.028-5.25829-5.34-1.22739-.11269-2.78527.2462-2.75958-1.71246.02722-2.078,1.53193-2.074,3.08788-2.044,3.4195.06591,6.84019.46795,10.261.012,1.60906-.21447,2.60845.49718,3.62415,1.79466,11.26794,14.3935,22.86224,28.52155,34.92372,42.26076.96246,1.09634,1.6225,3.43121,3.13114,2.84455,1.27384-.49539.48688-2.78367.49773-4.26131.06069-8.25959-.06988-16.52161.07374-24.77914.065-3.73323-.70118-7.38257-.66591-11.10334.02569-2.70832-2.32381-2.6068-4.10656-2.98437-.8792-.18618-1.84432-.05726-2.53185-.77211a1.61667,1.61667,0,0,1-.16658-1.78884,1.67323,1.67323,0,0,1,1.87486-1.21851c2.43961.14664,4.90544-.27782,7.32422.31662,2.55388.6276,5.03688-.34894,7.56766-.31811,1.48055.018,2.93289.19555,3.01155,1.96072.08172,1.83466-1.54311,1.63342-2.77416,1.788-3.84542.48308-4.67464,1.33778-4.68263,5.18986q-.05191,25.05221-.04153,50.10453c-.00266,3.21937-.81125,3.71472-3.94857,2.63873-4.70406-1.61334-7.16071-5.69655-10.00128-9.24122q-11.289-14.08746-23.07341-27.7557c-2.95877-3.42033-5.79322-6.94864-8.65163-10.4544-.51118-.62686-.91088-1.69364-1.73837-1.487-1.00085.25-.53527,1.39856-.53966,2.14579-.036,6.08134-.02023,12.163-.02023,18.24455Z"/><path class="cls-2" d="M538.992,351.76941c-8.70727.313-16.34544-2.18244-22.5737-8.48238-4.24759-4.29648-6.34919-9.73467-7.42887-15.41968a36.35167,36.35167,0,0,1,1.9441-21.30021c3.391-8.01433,9.66647-12.88124,17.572-15.8614,7.51658-2.83351,15.26609-2.84445,22.95431-1.00652,9.72543,2.32492,18.31058,9.13444,20.77262,20.49292,2.1004,9.69011.82283,18.67512-4.42122,26.99723-4.47659,7.10413-10.993,11.42957-19.1618,13.59157A41.45613,41.45613,0,0,1,538.992,351.76941ZM563.3992,319.869a33.72375,33.72375,0,0,0-2.90107-13.55237c-3.08578-7.32292-8.91262-11.16143-16.55475-12.99606-7.04913-1.69235-16.87209,1.59854-21.13978,7.45433-4.57262,6.2742-5.29935,13.38794-4.59628,20.691.81754,8.492,3.52805,16.23458,10.70116,21.70133,8.80271,6.70873,22.61674,5.4441,29.2834-3.86625C562.0206,333.954,563.339,327.84973,563.3992,319.869Z"/><path class="cls-2" d="M956.72326,351.772c-8.69011.2977-16.34348-2.11607-22.61181-8.39712-4.28007-4.28884-6.38646-9.71744-7.48654-15.38922a36.593,36.593,0,0,1,1.8724-21.307c3.29971-7.97828,9.49976-12.8724,17.24271-15.87773a37.52811,37.52811,0,0,1,23.47085-1.05414c10.73779,2.82742,18.08264,9.26791,20.63732,20.59764,2.34837,10.41433.5688,19.97822-5.57088,28.53973a30.57594,30.57594,0,0,1-18.16624,11.9246A45.00912,45.00912,0,0,1,956.72326,351.772Zm24.24582-31.259a34.3369,34.3369,0,0,0-2.82813-14.14255c-3.31289-8.04757-9.8761-12.10967-18.12976-13.31691-8.37472-1.22492-17.99494,2.90474-21.796,11.38223a32.73425,32.73425,0,0,0-2.41425,16.69538c.75328,8.49345,3.38822,16.22793,10.45868,21.82237,8.95611,7.0864,23.27013,5.63533,29.83354-4.0343C979.71394,333.58465,981.02864,327.55509,980.96908,320.513Z"/><path class="cls-2" d="M583.57379,318.162c-.06814-7.06246.22687-14.12985-.49946-21.1829-.18561-1.80171-.73106-2.92794-2.65769-3.10953-1.07579-.10142-2.13634-.391-3.21233-.45588-1.37187-.0828-1.97449-.72393-1.88418-2.07883.09936-1.48965,1.07892-1.75918,2.29067-1.626a96.33074,96.33074,0,0,0,20.885.0152,1.56638,1.56638,0,0,1,1.94647,1.69224,1.65582,1.65582,0,0,1-1.7,1.979c-7.02095.63937-5.646,1.19434-6.06781,7.236-.52495,7.51977-.2881,15.03562-.48842,22.54994-.1116,4.18646.54838,8.30438.68754,12.46666.136,4.06868,4.23234,8.18571,9.50248,9.279,6.18088,1.28222,12.37993,1.23747,18.21735-1.80806,3.7016-1.93122,5.42686-5.09961,6.00458-9.08849,1.04565-7.22037.54186-14.48108.54492-21.72214a144.69521,144.69521,0,0,0-.256-14.9349c-.27805-2.70759-1.43077-3.60741-3.79485-3.76716-.72147-.04871-1.43982-.19415-2.16016-.19887-1.52208-.01-2.16289-.75488-1.97828-2.23206.18867-1.50849,1.326-1.69776,2.43382-1.43178,3.05853.73453,6.14907.37664,9.223.4211a30.03891,30.03891,0,0,0,7.31543-.42373,2.02528,2.02528,0,0,1,2.72026,1.902c.108,1.50018-1.171,1.60516-2.26638,1.74654-.80653.10411-1.61578.19785-2.42677.254-2.98159.20636-3.90312,1.99051-3.89134,4.737.03953,9.16869-.08379,18.33862.01684,27.50631a45.49506,45.49506,0,0,1-1.2025,12.6542,14.71411,14.71411,0,0,1-7.07313,9.21721c-10.314,5.81769-21.02411,5.5135-31.59407,1.25422-6.69472-2.69774-8.63373-8.80066-8.63619-15.59881Q583.5698,325.78777,583.57379,318.162Z"/><path class="cls-2" d="M834.21323,350.64963q-4.6324,0-9.26476.00179c-1.21721.00216-2.42011.064-2.57278-1.651-.14681-1.64915.98734-1.57194,2.08889-1.781,5.783-1.09717,5.99347-1.628,3.4734-7.0991-1.0857-2.35718-2.00516-4.795-2.91138-7.22919a3.20622,3.20622,0,0,0-3.75818-2.33713,81.69626,81.69626,0,0,1-17.62251.00047c-1.865-.20094-3.31.04459-4.103,2.13436-1.438,3.78966-3.08581,7.50038-4.67145,11.23332-.55862,1.315-.15339,2.116,1.19944,2.42738,1.40575.32353,2.82141.60913,4.241.86547,1.13336.20457,1.86089.71584,1.73,1.98393-.12066,1.16973-.93218,1.44086-1.93509,1.44063q-8.44716-.00174-16.89439-.00695c-.85132-.0011-1.7031-.06514-1.746-1.21409-.02955-.79218-.25436-1.98565.815-2.0089,6.1289-.13314,7.00364-5.34218,8.821-9.30994,6.99487-15.27175,13.89695-30.58921,20.27549-46.13312.5746-1.40023,1.0489-2.52567,2.9816-2.46894,1.90115.05576,2.452,1.25086,3.02146,2.59061,3.21585,7.56509,6.38419,15.15047,9.62747,22.7038,4.12427,9.60525,8.04083,19.299,12.42857,28.79331a5.72764,5.72764,0,0,0,4.48125,3.439c1.35956.27117,2.08623.89477,1.86022,2.409-.22926,1.53646-1.36994,1.18312-2.30072,1.19224-3.08787.03029-6.17629.01143-9.2645.01143Zm-22.16911-24.07258c2.53478,0,5.06962-.00695,7.6044.0023,1.88184.00688,2.489-.86973,1.76625-2.59031-2.64559-6.2985-5.29623-12.59508-8.00051-18.86848-.26154-.60674-.16924-1.66744-1.06448-1.71689-1.02141-.05632-1.11931.99084-1.4277,1.7109-2.75633,6.43557-5.48337,12.88381-8.28421,19.3-.75981,1.74043.098,2.133,1.53032,2.14966C806.79315,326.59471,809.41877,326.57286,812.04412,326.57705Z"/><path class="cls-2" d="M472.89466,350.64454c-3.54285.002-7.08577-.00662-10.62859.00648-1.2957.00479-2.398-.17839-2.41016-1.84184-.01274-1.74372,1.29581-1.40838,2.32438-1.47841,5.12788-.34911,6.15093-1.06774,6.20723-6.14338.15706-14.15944.12093-28.32214.02243-42.48261-.029-4.17306-.78207-4.69189-5.53331-5.2821-1.30911-.16264-3.0724.11481-2.93724-1.89728.1174-1.747,1.62217-1.995,3.08645-1.84171,12.50571,1.30885,25.005-.691,37.51291-.05833,4.20063.21245,4.26851.07967,3.41,4.12019a39.155,39.155,0,0,0-.5707,8.11485c-.00263.9609-.04522,1.85527-1.34782,1.90615-1.16586.04545-2.21836-.024-2.41072-1.52206-.17224-1.34108-.45351-2.67211-.55464-4.01748a3.01891,3.01891,0,0,0-2.799-3.12389,80.04983,80.04983,0,0,0-14.65236-.59335c-3.89717.18182-4.35347.70856-4.36429,4.55831-.01481,5.26511.02263,10.531-.063,15.7949-.03012,1.85025.60577,2.68517,2.52027,2.58458,4.0654-.21354,8.124.11958,12.21771-.40743,2.96014-.38106,3.61383-1.9544,3.77787-4.2891.094-1.33875.01541-2.57658,1.95376-2.48514,1.85969.08772,2.04447,1.31564,1.865,2.64471a61.16788,61.16788,0,0,0-.01307,15.14735c.15113,1.33453.0728,2.91006-1.93067,2.91531-1.84947.00486-1.77876-1.38134-1.8511-2.69974-.05916-1.07825-.29865-2.14586-.4419-3.22039-.25482-1.91118-1.23471-2.68046-3.261-2.832-3.79824-.284-7.58663-.45226-11.39455-.52-2.5209-.04482-3.57546.617-3.47417,3.35247.20474,5.53029.06708,11.07278.10012,16.61006.02493,4.17814,1.27924,5.43848,5.536,5.65329.36263.01829.72659.0127,1.09.0133,1.14174.00193,1.98084.3656,1.95422,1.69494-.02688,1.3438-.92911,1.61779-2.039,1.61756Q478.34517,350.64172,472.89466,350.64454Z"/><path class="cls-2" d="M872.44891,319.75942c-.00013,6.89953-.11939,13.80169.03534,20.69776.13869,6.1788.56448,6.69769,6.33042,6.85574,1.20836.03318,1.8517.37538,1.84066,1.71795-.01145,1.39813-.77851,1.62507-1.93,1.62218q-10.629-.02649-21.258.00346c-1.13422.003-1.91865-.18781-1.954-1.59971-.03967-1.579.853-1.75821,2.08676-1.74422a10.14347,10.14347,0,0,0,2.69842-.21128,3.646,3.646,0,0,0,3.034-3.81536c.7441-12.86915.39012-25.74437.43624-38.61637.00958-2.70224-.3633-5.40407-.49074-8.10933-.05671-1.20444-.6872-1.545-1.75361-1.53526-3.90612.03551-7.81243.06533-11.71869.067-1.237.00053-1.72053.69463-2.03425,1.77541a18.51471,18.51471,0,0,0-.92531,5.87089c.04671,1.26772-.41428,2.09243-1.86275,2.10287-1.33228.00964-1.761-.869-1.84585-1.91274-.31532-3.88021.18428-7.77505-.30866-11.67627-.17124-1.35487,1.4-1.6823,2.67686-1.57a207.97015,207.97015,0,0,0,28.51857.85826c5.32784-.26448,10.69966.10973,15.99642-.79761,1.82362-.31236,2.7315.36258,2.68046,2.33391-.08705,3.357-.0571,6.71717-.06356,10.076-.00253,1.31361-.42273,2.35964-1.83719,2.62269-1.69391.31513-1.98847-1.04054-2.17654-2.16808-.25156-1.50826-.245-3.05955-.34806-4.59242-.12778-1.90233-.90748-3.00243-3.0524-2.95092-3.35881.08066-6.72427.05287-10.08215-.06584-2.0029-.07076-2.74075.69659-2.721,2.7012C872.49277,305.05213,872.44905,312.406,872.44891,319.75942Z"/><path class="cls-2" d="M909.31066,350.6474q-5.04041.00419-10.08075.00459c-1.30172.00209-2.66674.12589-2.70175-1.78452-.0356-1.94516,1.42638-1.49054,2.51807-1.53587,4.43533-.18411,5.5826-1.33033,5.58726-5.8111q.022-21.10025.00272-42.20047c-.00259-4.62278-.80652-5.525-5.39292-5.88435-1.4331-.11229-2.86067-.02707-2.71293-2.07794.15306-2.12471,1.78728-1.77873,3.063-1.6393a88.78873,88.78873,0,0,0,19.25015.00485c1.30093-.14046,2.93547-.32444,3.18557,1.61873.26294,2.04345-1.239,1.986-2.6718,2.09426-4.64942.35137-5.51744,1.16986-5.445,5.725.13264,8.34-.76107,16.6487-.56042,24.99392.14361,5.9728.75588,11.92459.57533,17.91482-.121,4.01391,1.11345,5.08285,5.17823,5.24622.36277.01456.72733.02687,1.08956.00938,1.1693-.05663,1.89616.27439,1.8929,1.65616-.00326,1.36269-.69193,1.68354-1.87939,1.67373C916.57611,350.62552,912.94332,350.64457,909.31066,350.6474Z"/><path class="cls-3" d="M524.90886,93.34911a47.81038,47.81038,0,0,1,30.126,10.895c7.28409,5.96877,11.79841,13.8037,14.81408,22.63386A77.97086,77.97086,0,0,1,573.862,151.4339c.13749,14.381-1.7962,28.47392-10.52058,40.556-9.80609,13.58023-23.66337,18.6523-39.90922,17.20976-23.44216-2.08156-36.33916-16.59244-43.02586-37.83732a81.34619,81.34619,0,0,1-3.91064-31.63989c1.14746-13.2002,4.59734-25.58565,14.74387-34.9433C500.01836,96.683,510.68013,93.25642,524.90886,93.34911Z"/><path class="cls-3" d="M772.81251,146.714c.10042-10.51281,1.579-20.71667,6.3629-30.28025C785.18432,104.421,794.98,97.42321,807.88364,94.59331a52.14394,52.14394,0,0,1,37.539,5.40688c9.71371,5.37884,15.85586,13.73977,19.90327,23.88912a76.1939,76.1939,0,0,1,5.09058,27.34352c.20884,14.38987-1.74782,28.44954-10.38135,40.58889-9.59027,13.48468-23.24577,18.488-39.28365,17.5018-25.09708-1.54319-38.4559-19.85856-43.76656-37.7469a95.01271,95.01271,0,0,1-2.95159-12.68892A79.54,79.54,0,0,1,772.81251,146.714Z"/><path class="cls-4" d="M187.11623,277.1351c-1.55031-1.61557-4.09539-4.63643-7.08335-4.78419a108.11106,108.11106,0,0,1-17.71343,5.08843c-12.62746,1.59866-25.25644,3.17788-38.01608,3.22715-3.16529-.52372-6.34576.00346-9.58482-.64278-7.55781-1.50783-15.2366-2.40944-22.86692-3.556-7.8669-2.24743-15.95562-3.1834-24.06025-3.96069-6.12534-.58751-12.23971-1.70413-18.3803.39614-2.10407.71962-3.03584,1.385-3.02446,3.7727.09722,20.5252.05214,41.05112.06566,61.57678.0008,1.04451-.1706,2.10314.78954,2.993,2.71142,2.51325,5.55881,4.61831,9.43966,4.97942,4.39977.40932,8.76792,1.21658,13.17242,1.503a67.97254,67.97254,0,0,0,17.90846-1.455c7.63059-.43049,14.98689-2.11731,22.43968-3.84056,10.05628-2.3252,19.86451-5.22807,28.93853-9.90019,7.535-3.87971,22.0013-12.87471,28.62609-18.16063,7.41195-5.914,27.70757-25.90149,27.70757-25.90149C194.06948,283.40808,190.57471,280.73907,187.11623,277.1351Z"/><path class="cls-5" d="M372.65875,96.40564c-.00061-5.41785-2.77575-8.12384-8.15234-8.72076a152.42109,152.42109,0,0,0-26.72937-.76c-3.26161.21238-12.97083,1.63983-12.97083,1.63983-8.9107,1.74933-17.93982,3.05-26.25494,7.02386-.032.04-.057.08118-.0885.12122q-3.805,1.31845-7.54529,2.83209a161.56184,161.56184,0,0,0-37.24988,21.41144,213.16086,213.16086,0,0,0-28.40576,25.91876c-1.09692,1.19794-1.28265,2.20966-.13776,3.54041,3.77167,4.38415,7.46582,8.83514,11.16919,13.27758a3.03214,3.03214,0,0,0,3.86316.9552,118.41427,118.41427,0,0,1,22.98163-6.18786c4.95538-.916,9.95062-2.215,14.89722-2.49115,5.603-.31275,11.22717-.756,16.85156-.82886.94721.54315,2.04437.25427,3.07379.325,6.96674.478,13.93274.74976,20.82685,2.17975,4.31707.89545,8.66259,1.97357,13.14056,1.94281a139.95821,139.95821,0,0,0,37.55273,3.94885c2.93012-.05676,3.21985-2.12066,3.213-4.55615C372.63586,137.4538,372.661,116.92969,372.65875,96.40564Z"/><path class="cls-6" d="M247.24565,252.53189c1.32557-1.02247,2.07456-2.39359,1.07161-4.28291-2.72135-5.12666-5.4048-10.27895-7.9032-15.5164a24.20091,24.20091,0,0,0-8.07173-9.69284,37.10256,37.10256,0,0,0-12.50514-5.63665c-1.99746-.239-2.21061.95634-1.90643,2.38394a24.17018,24.17018,0,0,1,1.007,5.58911c-.29918,13.54884-6.64247,24.19669-16.125,33.26878a54.49134,54.49134,0,0,1-9.46876,7.25243c-1.23022.74392-7.01061,4.69343-5.9932,5.78275,3.40687,3.64785,8.42779,9.76708,11.60047,13.59446,1.107,1.33537,5.4441-3.35507,6.652-4.92257,1.65559-2.14848,3.36619-4.25454,5.02677-6.39916,4.49353-5.80339,8.55464-11.9089,12.57439-18.04244.40186-.61315.81478-1.43312,1.57828-1.31785.97453.14716.56094,1.1603.70671,1.81767a118.358,118.358,0,0,0,3.05568,12.0741c.74992,2.24,1.51289,1.90111,2.70183.657,1.68722-1.76559,3.2077-3.69539,4.94633-5.40592C239.93209,260.05686,243.04511,255.772,247.24565,252.53189Z"/><path class="cls-6" d="M191.00328,164.23565a200.17564,200.17564,0,0,1-15.671,17.29245c-.829.8261-3.02232,1.383-2.321,2.72567,2.68505,5.14057,7.08262,12.83874,9.47914,18.11289a24.60636,24.60636,0,0,0,11.26439,11.71925,33.13011,33.13011,0,0,0,9.43587,3.75313c2.65235.08244,2.11139-1.635,1.72065-2.97018a25.06957,25.06957,0,0,1,.11353-13.11515c3.41746-14.30183,12.50547-24.40178,24.31335-32.40173,1.3072-.8857,1.70354-1.5649.715-2.6991q-4.72376-5.41935-9.56378-10.737c-1.0768-1.18627-2.28212-1.02347-3.276.14383-1.63115,1.916-3.23574,3.85774-4.7768,5.84648a198.107,198.107,0,0,0-12.85545,18.79449c-.38109.62953-.59823,1.78151-1.67,1.44923"/><path class="cls-7" d="M325.06977,280.40313a241.57432,241.57432,0,0,0-30.48471-1.45449"/><path class="cls-8" d="M372.65083,343.029c-.256-3.219-.72055-6.433-.77362-9.65441-.23426-14.20368.10534-28.399.74672-42.591a8.7805,8.7805,0,0,0-8.032-9.19369S299.101,279.288,277.27363,275.6037c-6.34551-1.07108-10.63962-2.83262-17.0791-8.46261-3.0565-2.67228-5.29846-6.17017-7.48323-9.61879-.88849-1.40242-2.88655-4.19135-4.25081-2.67653l-14.82135,19.18976c-1.13767,1.23476-1.56011,2.32275-.68487,3.855,1.75095,3.0652,3.28675,6.26112,5.16029,9.24715a118.39576,118.39576,0,0,0,26.60166,29.84054,162.55055,162.55055,0,0,0,26.82934,17.59017c3.08531,2.54082,6.97575,3.52606,10.5088,5.12865,7.97478,3.61736,16.20453,6.62969,24.96752,7.83195,3.98866,1.781,8.24233,2.17438,12.53077,2.60468,10.15735,1.01913,20.19265,1.28269,29.93716-2.59463C371.72279,346.6505,372.83894,345.39391,372.65083,343.029Z"/><path class="cls-9" d="M122.60669,98.25963l-.02483.025"/><path class="cls-10" d="M183.55421,149.96578c-4.44172-9.29669-10.88816-16.90957-18.62429-23.54938-6.2829-7.71408-14.76015-12.71042-22.77828-18.24393,0,0-34.17008-22.86715-56.37448-22.02257-11.36084.43212-20.99072-1.98974-31.93009.89268-2.41743.63692-3.67589,2.01823-3.38023,4.6618a92.11023,92.11023,0,0,1,.78927,9.19994c.102,9.44007-.07444,18.88359.07545,28.32239.10441,6.57449-.63826,13.16855.70224,19.73285.58605,2.86977,1.91822,4.11032,4.76881,4.43394a300.45723,300.45723,0,0,0,38.23848,1.60078,9.84086,9.84086,0,0,1-.79047-1.09571,9.84119,9.84119,0,0,0,.79047,1.09565l29.23585,1.47786c13.6707,1.90477,28.024,1.92428,38.08746,13.7911l8.235,10.52758c5.371-3.651,8.13412-9.8866,12.1654-14.81489,2.12477-2.59742,6.52128-2.25659,6.52235-6.23979C188.08423,157.0196,184.79742,152.568,183.55421,149.96578Z"/><path class="cls-11" d="M194.63615,287.44028c-3.71871-4.61778-7.17539-9.445-11.19061-13.82658Z"/><path class="cls-11" d="M205.831,309.60522c-1.24128,1.66158-2.424,3.36951-3.57614,5.09469-6.07321,9.0938-11.9021,18.31731-16.41295,28.33124-5.76777,12.80425-10.16654,25.83163-8.46926,40.21317a42.16725,42.16725,0,0,0,6.58314,18.11029,35.222,35.222,0,0,0,14.20394,12.27767c4.126,2.09241,8.5,3.854,13.438,3.36512,6.49052-.64258,10.63113-4.66074,14.1478-9.50972,6.64561-9.16332,9.31421-19.61373,9.71075-33.1406.35252-2.42742-.66662-7.06238-1.68762-11.63249a134.76284,134.76284,0,0,0-7.09815-21.84424c-4.56051-11.095-10.84647-21.16465-17.21174-31.22478C208.27529,307.7753,207.0117,308.0246,205.831,309.60522Z"/><path class="cls-11" d="M123.33983,217.69062a234.138,234.138,0,0,0-38.49711-22.71243A90.56915,90.56915,0,0,0,66.80448,188.513a60.15217,60.15217,0,0,0-19.05073-1.38611,27.87131,27.87131,0,0,0-10.29253,2.88941,42.34044,42.34044,0,0,0-16.699,16.33118c-2.03628,3.43631-3.91235,7.28672-3.67869,11.514.538,9.73185,4.68817,18.08,11.2831,24.93136a34.641,34.641,0,0,0,27.42517,10.88523,39.82,39.82,0,0,0,6.26226-.04614c12.42622-2.00372,23.66058-7.10647,34.3613-13.5298a296.14765,296.14765,0,0,0,26.97489-18.71738C125.55264,219.73609,125.61916,219.321,123.33983,217.69062Z"/><path class="cls-11" d="M388.44258,189.42024c-8.89111-6.42666-19.24916-7.7609-29.78068-6.40961-8.4345,1.08219-16.40083,4.16937-24.02488,8.05814-13.103,6.68323-25.02892,15.119-36.67432,24.02483-1.95345,1.49385-1.583,2.33552-.02125,3.36965,11.07182,7.33126,22.10954,14.6915,34.21687,20.31963,9.5526,4.44059,19.19343,8.34095,29.71928,9.88474a42.102,42.102,0,0,0,17.67627-.95628c7.91112-2.20515,13.33389-7.812,18.32244-13.87419,3.87026-4.70315,6.48893-9.99248,6.49791-16.98435.31131-1.54346-.476-3.57081-1.12574-5.652C400.51162,202.43378,395.91834,194.8239,388.44258,189.42024Z"/><path class="cls-11" d="M205.831,309.60522c-1.24128,1.66158-2.424,3.36951-3.57614,5.09469-6.07321,9.0938-11.9021,18.31731-16.41295,28.33124-5.76777,12.80425-10.16654,25.83163-8.46926,40.21317a42.16725,42.16725,0,0,0,6.58314,18.11029,35.222,35.222,0,0,0,14.20394,12.27767c4.126,2.09241,8.5,3.854,13.438,3.36512,6.49052-.64258,10.63113-4.66074,14.1478-9.50972,6.64561-9.16332,9.31421-19.61373,9.71075-33.1406.35252-2.42742-.66662-7.06238-1.68762-11.63249a134.76284,134.76284,0,0,0-7.09815-21.84424c-4.56051-11.095-10.84647-21.16465-17.21174-31.22478C208.27529,307.7753,207.0117,308.0246,205.831,309.60522Z"/><path class="cls-11" d="M123.33983,217.69062a234.138,234.138,0,0,0-38.49711-22.71243A90.56915,90.56915,0,0,0,66.80448,188.513a60.15217,60.15217,0,0,0-19.05073-1.38611,27.87131,27.87131,0,0,0-10.29253,2.88941,42.34044,42.34044,0,0,0-16.699,16.33118c-2.03628,3.43631-3.91235,7.28672-3.67869,11.514.538,9.73185,4.68817,18.08,11.2831,24.93136a34.641,34.641,0,0,0,27.42517,10.88523,39.82,39.82,0,0,0,6.26226-.04614c12.42622-2.00372,23.66058-7.10647,34.3613-13.5298a296.14765,296.14765,0,0,0,26.97489-18.71738C125.55264,219.73609,125.61916,219.321,123.33983,217.69062Z"/><path class="cls-11" d="M388.44258,189.42024c-8.89111-6.42666-19.24916-7.7609-29.78068-6.40961-8.4345,1.08219-16.40083,4.16937-24.02488,8.05814-13.103,6.68323-25.02892,15.119-36.67432,24.02483-1.95345,1.49385-1.583,2.33552-.02125,3.36965,11.07182,7.33126,22.10954,14.6915,34.21687,20.31963,9.5526,4.44059,19.19343,8.34095,29.71928,9.88474a42.102,42.102,0,0,0,17.67627-.95628c7.91112-2.20515,13.33389-7.812,18.32244-13.87419,3.87026-4.70315,6.48893-9.99248,6.49791-16.98435.31131-1.54346-.476-3.57081-1.12574-5.652C400.51162,202.43378,395.91834,194.8239,388.44258,189.42024Z"/><path class="cls-11" d="M123.33983,217.69062a234.138,234.138,0,0,0-38.49711-22.71243A90.56915,90.56915,0,0,0,66.80448,188.513a60.15217,60.15217,0,0,0-19.05073-1.38611,27.87131,27.87131,0,0,0-10.29253,2.88941,42.34044,42.34044,0,0,0-16.699,16.33118c-2.03628,3.43631-3.91235,7.28672-3.67869,11.514.538,9.73185,4.68817,18.08,11.2831,24.93136a34.641,34.641,0,0,0,27.42517,10.88523,39.82,39.82,0,0,0,6.26226-.04614c12.42622-2.00372,23.66058-7.10647,34.3613-13.5298a296.14765,296.14765,0,0,0,26.97489-18.71738C125.55264,219.73609,125.61916,219.321,123.33983,217.69062Z"/><path class="cls-11" d="M205.831,309.60522c-1.24128,1.66158-2.424,3.36951-3.57614,5.09469-6.07321,9.0938-11.9021,18.31731-16.41295,28.33124-5.76777,12.80425-10.16654,25.83163-8.46926,40.21317a42.16725,42.16725,0,0,0,6.58314,18.11029,35.222,35.222,0,0,0,14.20394,12.27767c4.126,2.09241,8.5,3.854,13.438,3.36512,6.49052-.64258,10.63113-4.66074,14.1478-9.50972,6.64561-9.16332,9.31421-19.61373,9.71075-33.1406.35252-2.42742-.66662-7.06238-1.68762-11.63249a134.76284,134.76284,0,0,0-7.09815-21.84424c-4.56051-11.095-10.84647-21.16465-17.21174-31.22478C208.27529,307.7753,207.0117,308.0246,205.831,309.60522Z"/><path class="cls-11" d="M388.44258,189.42024c-8.89111-6.42666-19.24916-7.7609-29.78068-6.40961-8.4345,1.08219-16.40083,4.16937-24.02488,8.05814-13.103,6.68323-25.02892,15.119-36.67432,24.02483-1.95345,1.49385-1.583,2.33552-.02125,3.36965,11.07182,7.33126,22.10954,14.6915,34.21687,20.31963,9.5526,4.44059,19.19343,8.34095,29.71928,9.88474a42.102,42.102,0,0,0,17.67627-.95628c7.91112-2.20515,13.33389-7.812,18.32244-13.87419,3.87026-4.70315,6.48893-9.99248,6.49791-16.98435.31131-1.54346-.476-3.57081-1.12574-5.652C400.51162,202.43378,395.91834,194.8239,388.44258,189.42024Z"/><path class="cls-11" d="M123.33983,217.69062a234.138,234.138,0,0,0-38.49711-22.71243A90.56915,90.56915,0,0,0,66.80448,188.513a60.15217,60.15217,0,0,0-19.05073-1.38611,27.87131,27.87131,0,0,0-10.29253,2.88941,42.34044,42.34044,0,0,0-16.699,16.33118c-2.03628,3.43631-3.91235,7.28672-3.67869,11.514.538,9.73185,4.68817,18.08,11.2831,24.93136a34.641,34.641,0,0,0,27.42517,10.88523,39.82,39.82,0,0,0,6.26226-.04614c12.42622-2.00372,23.66058-7.10647,34.3613-13.5298a296.14765,296.14765,0,0,0,26.97489-18.71738C125.55264,219.73609,125.61916,219.321,123.33983,217.69062Z"/><path class="cls-11" d="M205.831,309.60522c-1.24128,1.66158-2.424,3.36951-3.57614,5.09469-6.07321,9.0938-11.9021,18.31731-16.41295,28.33124-5.76777,12.80425-10.16654,25.83163-8.46926,40.21317a42.16725,42.16725,0,0,0,6.58314,18.11029,35.222,35.222,0,0,0,14.20394,12.27767c4.126,2.09241,8.5,3.854,13.438,3.36512,6.49052-.64258,10.63113-4.66074,14.1478-9.50972,6.64561-9.16332,9.31421-19.61373,9.71075-33.1406.35252-2.42742-.66662-7.06238-1.68762-11.63249a134.76284,134.76284,0,0,0-7.09815-21.84424c-4.56051-11.095-10.84647-21.16465-17.21174-31.22478C208.27529,307.7753,207.0117,308.0246,205.831,309.60522Z"/><path class="cls-11" d="M388.44258,189.42024c-8.89111-6.42666-19.24916-7.7609-29.78068-6.40961-8.4345,1.08219-16.40083,4.16937-24.02488,8.05814-13.103,6.68323-25.02892,15.119-36.67432,24.02483-1.95345,1.49385-1.583,2.33552-.02125,3.36965,11.07182,7.33126,22.10954,14.6915,34.21687,20.31963,9.5526,4.44059,19.19343,8.34095,29.71928,9.88474a42.102,42.102,0,0,0,17.67627-.95628c7.91112-2.20515,13.33389-7.812,18.32244-13.87419,3.87026-4.70315,6.48893-9.99248,6.49791-16.98435.31131-1.54346-.476-3.57081-1.12574-5.652C400.51162,202.43378,395.91834,194.8239,388.44258,189.42024Z"/><path class="cls-11" d="M123.33983,217.69062a234.138,234.138,0,0,0-38.49711-22.71243A90.56915,90.56915,0,0,0,66.80448,188.513a60.15217,60.15217,0,0,0-19.05073-1.38611,27.87131,27.87131,0,0,0-10.29253,2.88941,42.34044,42.34044,0,0,0-16.699,16.33118c-2.03628,3.43631-3.91235,7.28672-3.67869,11.514.538,9.73185,4.68817,18.08,11.2831,24.93136a34.641,34.641,0,0,0,27.42517,10.88523,39.82,39.82,0,0,0,6.26226-.04614c12.42622-2.00372,23.66058-7.10647,34.3613-13.5298a296.14765,296.14765,0,0,0,26.97489-18.71738C125.55264,219.73609,125.61916,219.321,123.33983,217.69062Z"/><path class="cls-11" d="M205.831,309.60522c-1.24128,1.66158-2.424,3.36951-3.57614,5.09469-6.07321,9.0938-11.9021,18.31731-16.41295,28.33124-5.76777,12.80425-10.16654,25.83163-8.46926,40.21317a42.16725,42.16725,0,0,0,6.58314,18.11029,35.222,35.222,0,0,0,14.20394,12.27767c4.126,2.09241,8.5,3.854,13.438,3.36512,6.49052-.64258,10.63113-4.66074,14.1478-9.50972,6.64561-9.16332,9.31421-19.61373,9.71075-33.1406.35252-2.42742-.66662-7.06238-1.68762-11.63249a134.76284,134.76284,0,0,0-7.09815-21.84424c-4.56051-11.095-10.84647-21.16465-17.21174-31.22478C208.27529,307.7753,207.0117,308.0246,205.831,309.60522Z"/><path class="cls-11" d="M388.44258,189.42024c-8.89111-6.42666-19.24916-7.7609-29.78068-6.40961-8.4345,1.08219-16.40083,4.16937-24.02488,8.05814-13.103,6.68323-25.02892,15.119-36.67432,24.02483-1.95345,1.49385-1.583,2.33552-.02125,3.36965,11.07182,7.33126,22.10954,14.6915,34.21687,20.31963,9.5526,4.44059,19.19343,8.34095,29.71928,9.88474a42.102,42.102,0,0,0,17.67627-.95628c7.91112-2.20515,13.33389-7.812,18.32244-13.87419,3.87026-4.70315,6.48893-9.99248,6.49791-16.98435.31131-1.54346-.476-3.57081-1.12574-5.652C400.51162,202.43378,395.91834,194.8239,388.44258,189.42024Z"/><path class="cls-11" d="M205.831,309.60522c-1.24128,1.66158-2.424,3.36951-3.57614,5.09469-6.07321,9.0938-11.9021,18.31731-16.41295,28.33124-5.76777,12.80425-10.16654,25.83163-8.46926,40.21317a42.16725,42.16725,0,0,0,6.58314,18.11029,35.222,35.222,0,0,0,14.20394,12.27767c4.126,2.09241,8.5,3.854,13.438,3.36512,6.49052-.64258,10.63113-4.66074,14.1478-9.50972,6.64561-9.16332,9.31421-19.61373,9.71075-33.1406.35252-2.42742-.66662-7.06238-1.68762-11.63249a134.76284,134.76284,0,0,0-7.09815-21.84424c-4.56051-11.095-10.84647-21.16465-17.21174-31.22478C208.27529,307.7753,207.0117,308.0246,205.831,309.60522Z"/><path class="cls-11" d="M123.33983,217.69062a234.138,234.138,0,0,0-38.49711-22.71243A90.56915,90.56915,0,0,0,66.80448,188.513a60.15217,60.15217,0,0,0-19.05073-1.38611,27.87131,27.87131,0,0,0-10.29253,2.88941,42.34044,42.34044,0,0,0-16.699,16.33118c-2.03628,3.43631-3.91235,7.28672-3.67869,11.514.538,9.73185,4.68817,18.08,11.2831,24.93136a34.641,34.641,0,0,0,27.42517,10.88523,39.82,39.82,0,0,0,6.26226-.04614c12.42622-2.00372,23.66058-7.10647,34.3613-13.5298a296.14765,296.14765,0,0,0,26.97489-18.71738C125.55264,219.73609,125.61916,219.321,123.33983,217.69062Z"/><path class="cls-11" d="M388.44258,189.42024c-8.89111-6.42666-19.24916-7.7609-29.78068-6.40961-8.4345,1.08219-16.40083,4.16937-24.02488,8.05814-13.103,6.68323-25.02892,15.119-36.67432,24.02483-1.95345,1.49385-1.583,2.33552-.02125,3.36965,11.07182,7.33126,22.10954,14.6915,34.21687,20.31963,9.5526,4.44059,19.19343,8.34095,29.71928,9.88474a42.102,42.102,0,0,0,17.67627-.95628c7.91112-2.20515,13.33389-7.812,18.32244-13.87419,3.87026-4.70315,6.48893-9.99248,6.49791-16.98435.31131-1.54346-.476-3.57081-1.12574-5.652C400.51162,202.43378,395.91834,194.8239,388.44258,189.42024Z"/><path class="cls-11" d="M235.61289,162.80725l-6.74016-8.10276a1.0203,1.0203,0,0,0,.14922.27588C231.18974,157.61355,233.48046,160.14671,235.61289,162.80725Z"/><path class="cls-11" d="M123.33983,217.69062a234.138,234.138,0,0,0-38.49711-22.71243A90.56915,90.56915,0,0,0,66.80448,188.513a60.15217,60.15217,0,0,0-19.05073-1.38611,27.87131,27.87131,0,0,0-10.29253,2.88941,42.34044,42.34044,0,0,0-16.699,16.33118c-2.03628,3.43631-3.91235,7.28672-3.67869,11.514.538,9.73185,4.68817,18.08,11.2831,24.93136a34.641,34.641,0,0,0,27.42517,10.88523,39.82,39.82,0,0,0,6.26226-.04614c12.42622-2.00372,23.66058-7.10647,34.3613-13.5298a296.14765,296.14765,0,0,0,26.97489-18.71738C125.55264,219.73609,125.61916,219.321,123.33983,217.69062Z"/><path class="cls-11" d="M205.831,309.60522c-1.24128,1.66158-2.424,3.36951-3.57614,5.09469-6.07321,9.0938-11.9021,18.31731-16.41295,28.33124-5.76777,12.80425-10.16654,25.83163-8.46926,40.21317a42.16725,42.16725,0,0,0,6.58314,18.11029,35.222,35.222,0,0,0,14.20394,12.27767c4.126,2.09241,8.5,3.854,13.438,3.36512,6.49052-.64258,10.63113-4.66074,14.1478-9.50972,6.64561-9.16332,9.31421-19.61373,9.71075-33.1406.35252-2.42742-.66662-7.06238-1.68762-11.63249a134.76284,134.76284,0,0,0-7.09815-21.84424c-4.56051-11.095-10.84647-21.16465-17.21174-31.22478C208.27529,307.7753,207.0117,308.0246,205.831,309.60522Z"/><path class="cls-11" d="M388.44258,189.42024c-8.89111-6.42666-19.24916-7.7609-29.78068-6.40961-8.4345,1.08219-16.40083,4.16937-24.02488,8.05814-13.103,6.68323-25.02892,15.119-36.67432,24.02483-1.95345,1.49385-1.583,2.33552-.02125,3.36965,11.07182,7.33126,22.10954,14.6915,34.21687,20.31963,9.5526,4.44059,19.19343,8.34095,29.71928,9.88474a42.102,42.102,0,0,0,17.67627-.95628c7.91112-2.20515,13.33389-7.812,18.32244-13.87419,3.87026-4.70315,6.48893-9.99248,6.49791-16.98435.31131-1.54346-.476-3.57081-1.12574-5.652C400.51162,202.43378,395.91834,194.8239,388.44258,189.42024Z"/><path class="cls-11" d="M281.7627,217.1416a311.88789,311.88789,0,0,1-32.26443-29.01471c-5.471-5.56813-11.12022-10.96467-16.4868-16.63016l-7.57178-8.71072-2.01144-2.314-7.09681-8.16429c-1.99-2.43821-4.05285-4.81682-6.05464-7.24557-1.26225-1.53147-2.13875-1.68789-3.47905.15568a195.77441,195.77441,0,0,1-13.34128,16.948l-22.49595,25.16682c-2.44141,2.54954-5.12812,4.8559-7.68472,7.28406a297.24272,297.24272,0,0,1-23.62629,19.8958c-2.644,2.03434-2.65343,2.80764.0807,4.83359,5.08071,3.76465,10.08364,7.63012,14.8396,11.80323,4.55159,3.99371,9.24329,7.84446,13.58653,12.05406q6.43466,6.23658,12.57938,12.79366c3.48378,3.71484,6.24268,8.2426,10.86372,10.83729.04841.7089-.19517,1.49012.30811,2.09827q4.47,5.40117,8.98326,10.76651l2.492,3.42325q2.73738,3.70826,5.60109,7.32268c.958,1.21364,1.96423,1.076,2.92424-.08976,4.99707-6.06809,9.9486-12.17552,15.05534-18.15l4.44879-4.6024q6.80241-7.9296,14.236-15.27l4.00564-4.01143a305.33113,305.33113,0,0,1,32.04555-26.69069C284.17327,219.88058,284.14157,218.96945,281.7627,217.1416Z"/><path class="cls-11" d="M233.16022,159.8587l-4.28748-5.15423a1.02,1.02,0,0,0,.14923.27588C230.37708,156.6264,231.77771,158.23523,233.16022,159.8587Z"/><path class="cls-11" d="M123.33984,217.69061a234.136,234.136,0,0,0-38.49713-22.7124,90.56831,90.56831,0,0,0-18.03821-6.46515A60.153,60.153,0,0,0,47.75372,187.127a27.86948,27.86948,0,0,0-10.29248,2.88941,42.3406,42.3406,0,0,0-16.699,16.33117c-2.03626,3.43628-3.91236,7.28669-3.67871,11.514.53808,9.73181,4.68817,18.08,11.28314,24.93134a34.641,34.641,0,0,0,27.42517,10.88525,39.82506,39.82506,0,0,0,6.26227-.04614c12.42621-2.00372,23.66052-7.10651,34.36126-13.52985a296.14352,296.14352,0,0,0,26.97492-18.71734C125.55261,219.73608,125.61914,219.321,123.33984,217.69061Z"/><path class="cls-11" d="M205.83093,309.60522c-1.24127,1.66156-2.424,3.36951-3.57611,5.09467-6.07324,9.09381-11.9021,18.31732-16.413,28.33124-5.76776,12.80426-10.16657,25.83166-8.46924,40.21319a42.16713,42.16713,0,0,0,6.58313,18.11029,35.22177,35.22177,0,0,0,14.20392,12.27765c4.126,2.09241,8.50006,3.854,13.438,3.36512,6.49054-.64258,10.6311-4.66071,14.14782-9.50971,6.64557-9.16333,9.31421-19.61371,9.7107-33.14056.35254-2.42743-.66657-7.06238-1.68756-11.63251a134.76936,134.76936,0,0,0-7.09815-21.84424c-4.56055-11.095-10.8465-21.16467-17.21179-31.22479C208.27527,307.77527,207.01172,308.0246,205.83093,309.60522Z"/><path class="cls-11" d="M388.44257,189.42023c-8.89112-6.42664-19.24915-7.76087-29.78064-6.40961-8.43451,1.08221-16.40088,4.16937-24.02491,8.05817-13.103,6.68322-25.02893,15.119-36.67431,24.02484-1.95343,1.49383-1.583,2.33551-.02124,3.36963,11.07177,7.33123,22.10949,14.69146,34.21686,20.31964,9.55261,4.44055,19.19342,8.34094,29.71929,9.8847a42.10142,42.10142,0,0,0,17.67627-.95624c7.91108-2.2052,13.33387-7.812,18.32245-13.8742,3.87024-4.70319,6.48889-9.99249,6.49787-16.98438.31134-1.54345-.476-3.5708-1.12574-5.652C400.5116,202.43378,395.91833,194.82391,388.44257,189.42023Z"/><path class="cls-11" d="M281.7627,217.1416a311.89089,311.89089,0,0,1-32.26441-29.01471c-5.47107-5.56811-11.12024-10.96466-16.48682-16.63019L225.4397,162.786l-2.01148-2.314-7.0968-8.16431c-1.99-2.43817-4.05286-4.81677-6.05463-7.24555-1.26226-1.53149-2.13873-1.68786-3.47906.15571a195.78792,195.78792,0,0,1-13.34125,16.948l-22.496,25.16681c-2.44141,2.54956-5.12811,4.8559-7.68469,7.28406a297.25118,297.25118,0,0,1-23.62628,19.89581c-2.644,2.03431-2.65345,2.80762.08068,4.83356,5.08069,3.76465,10.08362,7.63013,14.8396,11.80322,4.55158,3.99372,9.24329,7.84449,13.58649,12.05408q6.4347,6.23658,12.57941,12.79364l20.15509,23.70209,2.49194,3.42328q2.73743,3.70824,5.60108,7.32263c.95794,1.21368,1.96423,1.07605,2.92425-.08972,4.99707-6.06812,9.94861-12.17554,15.05536-18.15009l4.44879-4.60235q6.80236-7.92966,14.236-15.27l4.00562-4.01148a305.3279,305.3279,0,0,1,32.04559-26.69067C284.17328,219.88055,284.1416,218.96942,281.7627,217.1416Z"/><path class="cls-12" d="M413.16986,205.09485c-5.01041-12.34061-13.99884-20.30353-26.41925-24.285-8.30438-2.66211-17.0304-2.38453-25.54193-1.05268a94.15617,94.15617,0,0,0-22.026,6.45728A181.421,181.421,0,0,0,309.884,201.75873c-5.2044,3.42584-10.40307,6.86487-15.50647,10.43768-1.92517,1.34772-3.46478,1.40393-5.37683.00049a226.71434,226.71434,0,0,1-21.53857-17.75781c-9.68048-9.13636-19.18158-18.48865-28.07611-28.422l-10.74927-12.44226c-.00812-.04022-.01288-.08313-.02258-.12207-.25678-.24085-.495-.50006-.73627-.75629l-6.24616-7.23c-2.1994-2.75476-4.43353-5.48242-6.59-8.27026a2.7808,2.7808,0,0,1-.05707-3.55c3.6828-4.60675,6.59918-9.7052,9.75183-14.66126a174.00894,174.00894,0,0,0,12.72858-23.90673,105.77162,105.77162,0,0,0,8.10565-29.13831,52.44245,52.44245,0,0,0-.78552-19.65259c-3.09418-12.07257-9.79157-21.71-21.17365-27.53131-7.441-3.80566-15.1463-3.64972-23.10821-1.43017.53259,1.04174,1.2511.77642,1.81964.77459a26.9276,26.9276,0,0,1,20.05359,8.7807c9.9815,10.359,13.582,23.30365,13.7857,37.23359A60.84646,60.84646,0,0,1,233.924,79.33893c-4.33667,17.55383-13.05987,33.08386-22.8255,48.09466-.92309,1.419-1.83893,1.60425-2.95508.22748-.45605-.56262-1.07275-1.00342-1.48572-1.59131-8.49755-12.09723-16.52783-24.47815-22.15856-38.2257-4.6059-11.24549-8.70838-22.52253-7.18457-35.157,1.331-11.03552,3.92443-21.30975,12.10986-29.41455.4248-.42065,1.22644-.91113.74206-1.54461-.497-.64991-1.29858-.325-1.96966.07507-1.78906,1.0664-3.66223,2.00409-5.38666,3.16424-10.23321,6.88483-16.34174,16.24006-16.84485,28.7967-.49817,12.43084,3.15674,23.94781,8.12885,35.11456a184.19012,184.19012,0,0,0,14.2044,25.84814c4.65589,7.12323,9.34723,14.21161,14.6789,20.85059a2.74477,2.74477,0,0,1,.11114,3.86829c-2.84942,3.84765-5.53643,7.816-8.40271,11.65057l-6.2771,7.80017-19.83264,23.22717c-10.57471,10.83783-21.42267,21.37464-33.41766,30.6659-1.27728.98938-2.4859,1.393-3.93561.36212-3.98321-2.8327-8.14587-5.381-12.32153-7.92359-12.92719-7.87133-26.40021-14.42816-41.12458-18.27777a74.12872,74.12872,0,0,0-34.83087-.60693c-12.16992,2.62616-22.7323,8.3598-30.4378,18.3465C8.77924,209.52234,5.723,214.80591,6.02,221.47845c.13391,3.00989,1.14685,5.55066,2.00622,8.2768,5.21149,16.53082,20.923,27.21777,38.01752,27.78705a82.05424,82.05424,0,0,0,31.04865-5.2298c17.98547-6.5556,34.01831-16.648,49.467-27.73022,2.23791-1.60541,3.93048-1.65735,6.07074-.05426a288.62548,288.62548,0,0,1,23.43756,20.16485,295.60058,295.60058,0,0,1,20.34491,21.545l19.9436,24.87183c2.09473,2.83386,4.15119,5.69617,6.19959,8.564.80334,1.12475.19683,1.91925-.53431,2.87121a280.74518,280.74518,0,0,0-17.63549,25.413,147.65212,147.65212,0,0,0-13.43683,27.70642,79.92832,79.92832,0,0,0-4.87085,24.33423,39.97465,39.97465,0,0,0,8.90246,26.62438c7.86957,9.84229,17.80359,15.244,30.57483,15.11707,2.83539-.02826,5.20862-1.43469,7.80255-2.15735,11.94214-3.32751,20.88709-10.79779,27.11512-21.24115,5.84839-9.80664,7.00079-20.85113,5.51342-31.94617-2.02972-15.14154-8.09777-28.98065-15.45709-42.2221a280.50523,280.50523,0,0,0-14.761-24.34992c-1.03619-1.48639-.88055-2.8424.31775-4.43512,4.24182-5.63769,8.683-11.11,13.11621-16.59362l24.14869-27.12018c4.83056-4.37775,9.59295-8.83045,14.37848-13.25775,5.98059-5.53284,12.40026-10.53174,18.85272-15.48969a2.52159,2.52159,0,0,1,3.42486.03131c2.48352,1.80225,5.11689,3.40381,7.731,5.01923,11.751,7.26172,23.78558,14.00641,36.846,18.63916a82.52369,82.52369,0,0,0,25.70038,4.91113,72.084,72.084,0,0,0,14.30322-.97211,59.20292,59.20292,0,0,0,11.41754-2.901c7.07068-2.77392,13.6001-6.3612,19.00263-12.04236,2.84185-2.98846,5.85612-6.61668,7.49492-10.31175.87011-1.962,2.7093-5.30055,2.7093-8.94447C415.21222,208.43663,414.30129,207.88154,413.16986,205.09485Zm-289.7796,16.29a296.14352,296.14352,0,0,1-26.97492,18.71734C85.7146,246.52551,74.48029,251.6283,62.05408,253.632a39.82506,39.82506,0,0,1-6.26227.04614,34.641,34.641,0,0,1-27.42517-10.88525c-6.595-6.85138-10.74506-15.19953-11.28314-24.93134-.23365-4.22735,1.64245-8.07776,3.67871-11.514a42.3406,42.3406,0,0,1,16.699-16.33117A27.86948,27.86948,0,0,1,47.75372,187.127a60.153,60.153,0,0,1,19.05078,1.38611,90.56831,90.56831,0,0,1,18.03821,6.46515,234.136,234.136,0,0,1,38.49713,22.7124C125.61914,219.321,125.55261,219.73608,123.39026,221.38483Zm109.77-61.52613c-1.38251-1.62347-2.78314-3.2323-4.13825-4.87835a1.02,1.02,0,0,1-.14923-.27588Zm-6.48975,181.01166a134.76936,134.76936,0,0,1,7.09815,21.84424c1.021,4.57013,2.0401,9.20508,1.68756,11.63251-.39649,13.52685-3.06513,23.97723-9.7107,33.14056-3.51672,4.849-7.65728,8.86713-14.14782,9.50971-4.93793.48889-9.312-1.27271-13.438-3.36512a35.22177,35.22177,0,0,1-14.20392-12.27765,42.16713,42.16713,0,0,1-6.58313-18.11029c-1.69733-14.38153,2.70148-27.40893,8.46924-40.21319,4.51086-10.01392,10.33972-19.23743,16.413-28.33124,1.1521-1.72516,2.33484-3.43311,3.57611-5.09467,1.18079-1.58062,2.44434-1.82995,3.62775.04035C215.824,319.70569,222.10992,329.77539,226.67047,340.87036Zm55.029-119.23956a305.3279,305.3279,0,0,0-32.04559,26.69067l-4.00562,4.01148q-7.43077,7.34244-14.236,15.27l-4.44879,4.60235c-5.10675,5.97455-10.05829,12.082-15.05536,18.15009-.96,1.16577-1.96631,1.3034-2.92425.08972q-2.85581-3.618-5.60108-7.32263l-2.49194-3.42328-20.15509-23.70209q-6.14457-6.55188-12.57941-12.79364c-4.3432-4.20959-9.03491-8.06036-13.58649-12.05408-4.756-4.17309-9.75891-8.03857-14.8396-11.80322-2.73413-2.02594-2.72473-2.79925-.08068-4.83356a297.25118,297.25118,0,0,0,23.62628-19.89581c2.55658-2.42816,5.24328-4.7345,7.68469-7.28406l22.496-25.16681a195.78792,195.78792,0,0,0,13.34125-16.948c1.34033-1.84357,2.2168-1.6872,3.47906-.15571,2.00177,2.42878,4.06464,4.80738,6.05463,7.24555l7.0968,8.16431,2.01148,2.314,7.57177,8.71069c5.36658,5.66553,11.01575,11.06208,16.48682,16.63019A311.89089,311.89089,0,0,0,281.7627,217.1416C284.1416,218.96942,284.17328,219.88055,281.69946,221.6308Zm122.67475-4.778c-.009,6.99189-2.62763,12.28119-6.49787,16.98438-4.98858,6.06219-10.41137,11.669-18.32245,13.8742a42.10142,42.10142,0,0,1-17.67627.95624c-10.52587-1.54376-20.16668-5.44415-29.71929-9.8847-12.10737-5.62818-23.14509-12.98841-34.21686-20.31964-1.56177-1.03412-1.93219-1.8758.02124-3.36963,11.64538-8.90582,23.57129-17.34162,36.67431-24.02484,7.624-3.8888,15.5904-6.976,24.02491-8.05817,10.53149-1.35126,20.88952-.017,29.78064,6.40961,7.47576,5.40368,12.069,13.01355,14.8059,21.78051C403.89819,213.282,404.68555,215.30933,404.37421,216.85278Z"/></svg>