<?xml version="1.0" encoding="UTF-8" standalone="no"?>
<svg
   xmlns:dc="http://purl.org/dc/elements/1.1/"
   xmlns:cc="http://creativecommons.org/ns#"
   xmlns:rdf="http://www.w3.org/1999/02/22-rdf-syntax-ns#"
   xmlns:svg="http://www.w3.org/2000/svg"
   xmlns="http://www.w3.org/2000/svg"
   viewBox="0 0 446.49332 203.45332"
   height="203.45332"
   width="446.49332"
   xml:space="preserve"
   id="svg2"
   version="1.1"><metadata
     id="metadata8"><rdf:RDF><cc:Work
         rdf:about=""><dc:format>image/svg+xml</dc:format><dc:type
           rdf:resource="http://purl.org/dc/dcmitype/StillImage" /></cc:Work></rdf:RDF></metadata><defs
     id="defs6" /><g
     transform="matrix(1.3333333,0,0,-1.3333333,0,203.45333)"
     id="g10"><g
       transform="scale(0.1)"
       id="g12"><path
         id="path14"
         style="fill:#5b349a;fill-opacity:1;fill-rule:nonzero;stroke:none"
         d="m 2955.6,428.109 c -109.4,11.063 -186.31,21.129 -286.83,24.332 -55.24,1.758 -114.72,6.289 -165.36,4.547 -64.91,-2.218 -142.94,-4.738 -215.38,-2.636 -48.38,1.41 -104.85,-2.723 -158.64,-3.161 -47.69,-0.39 -112.17,-0.351 -163.35,-7.179 -23.24,11.597 -56.52,1.359 -76.1,1.078 -36.04,-0.5 -57.84,1.398 -93.14,-1.121 -48.26,-3.438 -110.91,2.761 -158.46,-0.117 -100.82,-6.082 -202.6,4.058 -312.1,-0.793 -33.96,-1.489 -80.64,-5.329 -128.97,-7.168 -39.88,-1.532 -60.88,-4.371 -97.38,-6.243 -26.72,-1.378 -53.43,-2.867 -80.06,-5.386 C 794.207,402.898 561.652,423 333.387,414.629 c -50.801,-1.867 -100.567,-2.309 -149.735,-5.16 -32.168,-1.867 -65.484,-2.039 -95.0075,-9.289 -59.457,-14.59 0.0469,-31.149 22.9685,-47.559 -3.535,-1.633 -15.2458,-4.66 -15.9216,-6.871 -4.4805,-14.609 12.3206,-3.168 -8.7187,-13 -28.7813,-13.441 -45.6563,-2.641 -28.2579,-28.07 2.0157,-2.942 22.0469,-19.219 20.0938,-22.86 -1.8516,-3.429 -17.8398,-21.269 -15.0273,-27.16 5.7578,-12.07 5.0507,-12.019 10.7343,-20.961 1.0235,-1.609 18.4219,-22.961 16.625,-21.367 4.336,-3.832 26.0194,-15.273 25.8324,-18.383 -0.711,-11.738 2.937,-1.777 -19.1957,-3.597 C 77.543,188.68 68.0313,153.172 69.2266,143.031 69.5,140.75 76.5547,113.5 87.3164,108.711 132.191,88.75 146.934,80.2891 205.801,76.6797 c 34.855,-2.1406 71.836,-3.9688 105.304,-8.2383 11.856,-1.5 80.114,-10.5 84.043,-10.25 34.43,2.1602 59.278,1.9492 106.762,0 25.516,-1.0508 62.399,-7.0195 89.274,-7.9609 37.773,-1.3086 98.761,1.2812 145.125,0.0312 7.625,-0.2031 32.195,0.9883 38.461,0 -1.543,0.2383 27.085,-6.1797 19.812,-6.6406 -8.203,-0.5195 58.547,-2.3711 58.125,1.3594 7.883,0.3008 179.413,-10.3594 204.503,-2.1992 18.58,6.0507 13.98,3.289 28.27,-5.1211 20.15,-11.8594 4.18,-13.1016 30.01,-15.9688 2.35,-0.2617 33.57,2.9805 44.09,2.1602 -0.17,0.0078 9.2,-10.2305 14.63,-10.5625 6.65,-0.418 22.25,5.4023 27.7,7.9218 10.13,4.6875 -1.64,18.6797 15.87,11.8789 3.41,-1.3203 87.48,-12.8515 112.5,-22.4492 13.9,-5.33201 56.11,-9.08982 76.77,-6.33982 5.04,0.66797 109.79,-0.33984 122.9,-0.21875 8.82,0.06641 55.1,-3.683592 82.01,-3.9999987 75.06,-0.8906253 163.7,6.2890587 232.89,8.0585987 153.87,3.91797 305.77,18.58987 449.59,36.94137 78.71,10.0469 157.85,13.5078 238.91,21.4493 34.51,3.3789 75.82,8.1289 112.99,10.1484 35.68,1.9297 46.4,1.0703 80.65,6.6601 23.85,3.879 35.63,10.1915 57.54,11.8204 12.06,0.8984 8.72,0.1289 19.78,2.6484 11.52,2.6214 22.39,6.7114 31.78,8.2734 39.29,6.527 80.27,11.727 117.75,15.5 66.88,6.719 36.08,7.309 89.38,18.039 18.08,3.641 40.51,-0.301 66.64,3.117 2.83,0.371 16.59,14.934 21.38,17.742 11.44,6.692 -16.33,12.36 -15.56,19.2 0.81,7.191 17.56,10.89 15.87,10.57 -1.3,-0.25 21.22,3.93 26.46,5.281 -1.04,-0.269 4.6,2.641 5.29,2.641 0,23.027 4.33,34.058 -10.58,36.976 -11.71,2.293 -5.92,9.993 -15.36,13.243 -5.9,2.019 -27.02,2.597 -32.26,2.597 -1.75,2.934 84.17,16.543 101.15,29.063 18.67,13.769 -5.7,7.437 -3.46,13.211 4.69,12.039 8.75,12.726 8.75,21.117 24.72,0 40.42,26.422 27.08,26.422 -0.9,1.508 -19.56,11.597 -37.57,13.179 -10.15,0.891 -53.84,5.442 -53.03,9.391" /><path
         id="path16"
         style="fill:#405eb4;fill-opacity:1;fill-rule:nonzero;stroke:none"
         d="m 3215.34,585.105 c 17.19,12.86 20.21,18.868 10.04,19.708 -31.86,2.625 -68.52,3.484 -100.38,6.894 -10.09,1.074 -18.19,14.012 -31.93,6.473 1.96,-2.645 19.86,-6.66 3.26,-9.305 -4.52,-0.715 -54.81,1.953 -58.86,4.746 -25.22,17.371 53.03,13.797 59.97,17.606 -19.66,7.929 -36.75,-0.059 -50.07,2.05 -19.96,3.164 42.26,12.911 22.1,16.946 -50.7,10.156 -106.89,12.519 -164.69,20.281 -40.56,5.441 -110.79,14.289 -154.72,15.234 -6.77,0.149 -28.16,-4.734 -32.01,-4.511 -5.89,0.343 15.86,7.199 11.99,7.597 -34.53,3.567 -75.14,1.797 -103.71,1.719 -127.37,-0.352 -287.82,12.207 -411.17,18 -53.11,2.488 -90.19,11.758 -149.42,11.297 -35.82,-0.274 -54.06,7.433 -95.18,5.109 5.19,0.293 -14.79,-2.863 -9.84,-2.726 -22,-0.586 -39.1,3.82 -62.08,4.882 -20.44,0.958 -62.88,6.094 -84.08,4.25 -17.52,-1.523 -10.97,-9.55 -36.57,-10.722 -7.52,-0.344 -2.5,5.312 -8.85,5.847 -10.53,0.879 -25.63,1.36 -38.94,1.204 -7.65,-0.09 -44.81,-0.762 -51.96,-1.524 -0.23,-0.019 -19.76,-5.234 -17.46,-5.148 -19.1,-0.762 -54.16,1.308 -83.59,-1.739 -10.45,-1.082 -16.87,-5.671 -28.72,-5.867 -10.12,-0.168 -14.17,6.414 -42.12,4.864 -16.89,-0.938 -60.88,-3.274 -76.58,-5.957 -20.06,-3.43 -9.39,-8.567 -31.86,-10.852 6.17,0.625 -40.8,4.602 -42.17,4.609 -42.08,0.352 -86.86,-9.871 -130.53,-10.047 C 1095.09,695.484 196.086,579.441 151.867,568.914 106.027,557.996 97.2344,514.941 84.9844,509.031 51.1172,492.711 97.9609,486.371 98.207,469.66 51.4141,469.25 33.6523,324.988 101.379,332.23 c 9.82,1.059 -26.4298,-27.449 8.195,-26.621 63.266,1.52 113.992,-4 179.883,-2.23 17.602,0.473 38.145,1.031 60.172,2.953 35.391,3.078 39.59,0.559 73.93,0.648 38.421,0.102 77.496,3.911 117.976,6.309 19.879,1.18 14.235,5.262 40.559,-8.148 11.922,-6.071 30.41,-19.102 43.07,-22.371 48.77,-12.579 140.445,-1.598 187.816,-1.122 86.165,0.872 166.696,30.321 249.65,33.582 156.84,6.161 296.6,-7.871 442.22,-19.859 273.4,-22.531 575.41,-25.891 840.07,-13.93 83.37,3.77 171.27,5.008 252.94,10.141 14.17,0.887 34.96,-0.512 44.38,2.93 10.73,3.91 0.76,13.347 18.06,15.57 8.96,1.168 14.56,-11.562 13.08,-11.332 10.97,-1.68 21.22,-2.262 34.4,-3.578 16.65,-1.66 26.45,-1.942 37.99,3.25 11.11,5 2.13,18.758 10.04,22.777 27.22,13.821 28.5,-5.687 34.22,-9.179 8.83,-5.379 -26.77,-29.77 47.15,-15.45 -2.05,-0.39 35.41,4.91 22.15,4.782 -3.85,-0.02 1.31,5.988 7.25,5.789 2.67,-0.09 23.87,-8.782 30.64,-9.782 12.14,-1.8 54.37,-1.89 65.9,1.602 24.18,7.32 14.29,14.687 -10.1,14.48 -0.47,32.161 38.21,-5.55 52.44,-12.73 9.35,-4.731 27.43,-0.77 38.41,4.769 4.34,2.18 6.65,4.45 7.81,6.711 6.13,11.969 49.7,-4.57 63.23,-5.832 5.66,-0.519 44.21,15.192 44.54,15.211 12.22,0.75 21.18,11.18 34.1,13.52 6.18,1.121 34.03,10.832 48.78,15.91 14.89,5.121 11.6,13.941 29.35,21.398 11.95,5.032 -6.33,12.961 1.82,18.172 33.88,21.649 -62.56,4.668 -17.8,30.352 20.25,11.617 -31.44,82.34 -33.14,82.898" /><path
         id="path18"
         style="fill:#41ba53;fill-opacity:1;fill-rule:nonzero;stroke:none"
         d="m 3203.37,666.48 c 0,4.805 18.18,11.192 24.81,13.809 10,3.926 -56.65,89.024 -69.55,101.559 43.81,22.074 -35.63,21.664 -60.17,34.797 12.25,6.855 68.61,14.687 68.12,19.265 -8.25,76.719 -255.9,118.274 -366.79,123.988 -125.49,6.465 -223.69,11.325 -350.35,15.211 -141.17,4.332 -291.93,12.832 -437.03,13.86 -204.25,1.445 -399.1,-1.379 -596.53,-2.637 -126.97,-0.812 -273.9,0.863 -400.08,-7.934 C 773.934,961.539 184.754,859.383 183.637,854.191 c -1.84,-8.519 -3.078,-18.535 7.312,-18.535 0,-12.437 53.231,-6.152 42.59,-22.734 -6.23,-9.711 -12.269,-9.668 -8.012,-8.984 -0.593,-1.969 -88.457,-12.075 -83.847,-14.102 -2.641,-14.746 3.437,-24.594 24.597,-32.211 -16.734,-12.316 -16.14,-3.437 -12.855,-19.777 1.523,-7.586 29.676,-1.707 4.699,-13.243 -11.863,-5.488 -85.1405,-36.785 -78.2851,-39.617 9.5235,-3.945 -5.9804,-56.23 0.2227,-61.027 8.5547,-6.602 5.3398,-11.277 16.2695,-16.473 19.3199,-9.191 101.8709,-46.64 147.2149,-48.945 -0.203,0.008 19.703,-10.617 20.969,-10.676 20.058,-0.957 106.531,4.895 104.422,3.653 5.57,-4.043 19.586,-0.274 19.586,3.937 24.257,0 46.308,-6.457 71.55,-7.941 11.016,-0.645 19.633,1.66 34.938,-2.676 6.976,4.25 49.109,-2.488 61.39,-2.598 23.926,-0.215 92.004,-6.844 110.407,2.18 -27.211,-13.359 66.851,-5.969 62.66,-6.125 19.699,0.723 90.894,4.562 95.973,-1.414 13.105,6.648 98.109,6.629 118.906,7.976 31.933,2.082 64.506,0.625 88.926,2.668 42.87,3.582 82.66,-0.156 118.44,-2.648 22.46,-1.563 78.18,-1.629 94.6,3.105 23.25,6.7 1.02,1.075 26.45,-0.457 24.74,-1.496 35.08,-0.089 55.79,0.477 67.6,1.848 147.58,1.906 208.53,2.168 76.51,0.324 169.04,-2.93 246.93,-2.645 38.51,0.145 65.73,1.856 101.1,0 37.3,-1.964 76.94,2.918 112.31,2.645 193.68,-1.492 392.14,-1.727 605.08,2.656 93.92,1.934 191.67,0.039 282.07,0.051 30.51,0 210.29,-4.914 210.29,-0.07 0,2.199 24.16,15.558 49.42,14.589 49.1,-1.882 50.6,-0.144 108.27,1.27 8.52,0.215 33.59,21.887 3.57,34.367 -14.92,0 7.43,41.68 -52.75,63.445" /><path
         id="path20"
         style="fill:#41ba53;fill-opacity:1;fill-rule:nonzero;stroke:none"
         d="m 2066.2,906.883 c -0.59,0.074 -0.44,0.008 0,0 v 0" /><path
         id="path22"
         style="fill:#41ba53;fill-opacity:1;fill-rule:nonzero;stroke:none"
         d="m 3211.59,518.301 c -0.59,0.078 -0.44,0.008 0,0 v 0" /><path
         id="path24"
         style="fill:#41ba53;fill-opacity:1;fill-rule:nonzero;stroke:none"
         d="m 1280.79,494.559 c -0.44,0.07 -0.36,0.031 0,0 v 0" /><path
         id="path26"
         style="fill:#41ba53;fill-opacity:1;fill-rule:nonzero;stroke:none"
         d="m 2751.3,510.441 c -0.54,0.098 -0.41,0.039 0,0 v 0" /><path
         id="path28"
         style="fill:#f4ca16;fill-opacity:1;fill-rule:nonzero;stroke:none"
         d="m 51.4766,908.035 c -4.6914,-18.066 37.5468,-25.832 150.4064,-31.14 52.242,-2.454 74.59,-20.891 133.617,-25.582 121.906,-9.684 242.277,-18.504 354.277,-21.305 61.543,-1.539 127.813,-5.508 184.239,-3.988 72.316,1.941 159.274,4.144 239.984,2.308 53.9,-1.226 116.81,2.383 176.76,2.774 53.13,0.339 124.98,0.312 182,6.285 25.89,-10.16 62.98,-1.188 84.78,-0.946 40.16,0.446 64.46,-1.222 103.78,0.977 53.78,3.016 123.58,-2.406 176.56,0.109 112.33,5.325 225.75,-3.55 347.74,0.688 37.85,1.312 89.86,4.672 143.7,6.293 47.08,1.414 70.55,4.121 115.96,5.754 27.83,0.996 55.72,2.504 83.5,4.551 251.38,18.507 395.23,0.996 648.98,8.316 56.6,1.629 107.31,6.301 140.2,12.648 66.25,12.786 -0.05,27.289 -25.6,41.661 3.95,1.425 16.99,4.093 17.75,6.023 4.99,12.797 -13.73,2.781 9.71,11.387 32.07,11.769 6.93,41.433 9.1,44.609 2.06,3.012 19.89,7.238 19.24,6.27 1.2,1.8 0.64,12.367 -2.5,17.523 -6.41,10.57 -5.62,10.53 -11.95,18.36 -1.15,1.42 -20.54,20.11 -18.53,18.73 -4.84,3.34 -1164.43,111.71 -1183.35,104.53 -19.62,5.65 -65.82,69.11 -72.95,69.82 0,16.45 -85.62,8.17 -100.23,8.07 -9.82,-0.07 -61.39,3.22 -91.37,3.5 -83.64,0.78 -182.4,-5.52 -259.49,-7.06 -171.44,-3.43 -340.69,-16.29 -500.94,-32.37 -87.7,-8.79 -175.873,-11.83 -266.19,-18.79 -38.449,-2.95 -84.476,-7.11 -125.894,-8.88 -39.758,-1.7 -86.379,-0.95 -124.539,-5.84 -26.575,-3.4 -39.696,-8.93 -64.11,-10.36 -13.437,-0.78 -9.711,-0.1 -22.043,-2.31 -12.832,-2.29 -5.687,7.35 -28.058,2.28 -8.555,-1.94 3.117,-8.16 -7.352,-9.53 -43.777,-5.72 -89.426,-10.27 -131.195,-13.57 -74.52,-5.89 -233.133,-31.51 -233.992,-37.5 -0.903,-6.3 -35.5395,-22.94 -33.6645,-22.65 1.4492,0.21 -23.6406,-3.45 -29.4727,-4.63 1.1641,0.24 -10.7187,-32.15 5.8946,-34.71 13.0351,-2 6.5898,-8.75 17.1094,-11.59 6.5781,-1.77 30.1054,-2.29 35.9453,-2.29 C 183.32,959.695 52.375,911.484 51.4766,908.035" /><path
         id="path30"
         style="fill:#f35d25;fill-opacity:1;fill-rule:nonzero;stroke:none"
         d="m 21.3164,1088.02 c 24.4102,-3.45 16.7734,-6.43 44.4258,-6.43 7.1484,-16.71 26.5234,-16.11 23.6601,-16.74 9.4493,2.1 -15.789,0.49 -2.8476,0.52 27.5193,0.06 11.8437,-16.58 65.2613,-18.54 9.7,0 39.395,-19.32 39.403,-17.93 73.625,1.83 141.351,3.83 210.066,-0.02 99.254,-5.58 185.578,-5.36 283.125,-11.86 240.258,-16.01 488.69,-3.59 745.02,-9.59 141.15,-3.31 323.45,1.58 476.13,4.4 163.41,3.01 330.13,15.36 495.68,8.92 122.03,-4.76 215.38,-14.54 343.3,-18.09 120.03,-3.336 154.64,-17.105 277.22,-6.765 28.23,2.382 61.32,7.255 88.83,9.125 17.76,1.2 44.65,-0.82 61.88,2.41 18.04,3.38 25.89,9.09 42.23,13.97 13.44,4.02 45.15,3.15 53.8,6.92 14.74,6.4 3.43,13.72 7.69,19.77 -1.41,-1.99 8.76,13 7.57,10.64 2.41,4.78 -97.74,53.88 -116.23,55.31 3.47,8.22 94.11,22.05 97.77,27.81 19.88,0 31.04,10.12 40.95,16.85 16,10.89 1.58,36.14 -2.92,39.69 13.03,12.85 -5.63,21.29 -36.42,24.91 -33.76,3.97 25.73,40.11 -98.62,46.61 -47.12,2.47 -179.18,-4.17 -217.57,11.84 -20.58,8.58 38.23,58.58 13.59,66.38 -21.99,6.96 -185.37,-5.34 -208.75,-2.32 -81.44,10.53 -164.67,-4.56 -251.11,-2.73 -89.09,1.88 -172.42,7.37 -255.4,9.46 -223.08,5.64 -420.22,16.43 -646.75,16.43 0,11.59 16.57,9.83 -12.47,16.22 -13.6,3 -29.57,1.77 -46.8,2.32 -18.39,0.59 -24.68,1.88 -44.45,0 -13.14,-1.25 -24.18,-1.86 -37.66,-2.32 -17.33,-0.58 -33.36,-3.03 -57.87,-2.34 -27.35,0.79 -45.02,0.22 -80.44,0.03 -81.17,-0.44 -156.03,2.76 -244.25,2.31 -53.93,-0.28 -102.247,-6.92 -153.126,-12.85 -21.222,-2.48 -38.218,-6.1 -59.89,-8.01 -25.957,-2.28 -39.895,-5.07 -59.66,-8.66 -85.457,-15.51 -207.801,-0.61 -302.563,-0.61 -84.269,0 -164.234,-0.29 -244.289,-4.63 -56.859,-3.08 -108.746,-7.66 -163.457,-12.73 -20.1562,-1.86 18.246,-3.88 -0.3164,-8.11 -4.7461,-1.09 154.1254,-7.7 150.6094,-10.67 -12.824,-10.86 -62.949,-25.31 -70.238,-27.04 -17.594,-4.18 -89.4612,-30.16 -86.1605,-32.88 4.4649,-3.68 35.3125,-57.48 7.6563,-61.27 -21.4141,-2.93 -25.8906,-23.44 -21.3086,-23.44 0,-10.68 -56.1914,-26.39 -64.207,-33.68 -15.17192,-13.8 -18.2852,-48.61 9.9062,-52.59" /><path
         id="path32"
         style="fill:#f35d25;fill-opacity:1;fill-rule:nonzero;stroke:none"
         d="m 2225.46,1106.13 c 0.58,-0.07 0.44,-0.01 0,0 v 0" /><path
         id="path34"
         style="fill:#f35d25;fill-opacity:1;fill-rule:nonzero;stroke:none"
         d="m 2092.1,1224.33 c 0.58,-0.07 0.44,-0.01 0,0 v 0" /><path
         id="path36"
         style="fill:#ee1f3d;fill-opacity:1;fill-rule:nonzero;stroke:none"
         d="m 2980.14,1512.51 c -139.82,3.16 -235.43,-1.99 -382.45,-0.96 -122.96,0.86 -229.35,5.26 -369.79,9.78 -306.47,9.86 -619.8,1.28 -931.82,-3.35 -369.682,-5.47 -746.057,-17.77 -1121.287,-20.96 -46.723,-0.39 -87.5664,9.69 -97.9571,-16.77 -7.2148,-18.36 23.8911,-28.56 6.9805,-31.53 -66.6797,-11.68 4.5703,-35.92 -54.3516,-45.91 -23.23042,-3.93 7.0313,-44.6 15.9883,-46.56 14.0899,-3.07 17.5274,-8.01 31.8321,-10.94 40.4768,-8.3 32.2148,-17.52 37.0388,-19.46 11.207,-4.49 7.254,-9.82 22.598,-14.05 23.418,-6.44 63.648,0.83 85.664,-5.18 11.914,-3.26 29.371,-15.26 19.766,-16.6 -64.141,-8.99 5.847,-39.43 20.453,-44.07 53.136,-16.9 142.422,2.67 208.269,2.41 28.621,-0.11 71.973,-0.15 101.356,-5.09 14.519,-2.45 29.965,-6.5 46.465,-8.98 70.003,-10.51 146.421,-12.06 227.589,-12.72 73.653,-0.6 145.489,0.64 212.906,8.18 44.52,4.98 94.66,11.52 144.13,12.6 145.33,3.17 297.32,3.83 442.33,-1.48 46.52,-1.71 94.94,0.67 138.87,-3.28 24.24,-2.17 44.58,-5.78 69.9,-7.33 69.71,-4.27 135.94,-1.97 199.53,2.91 108.75,8.34 234.61,9.96 343.23,14.32 57.22,2.3 123.91,-6.89 187.8,-5.54 61.37,1.3 105.66,3.88 171.01,6.8 52.64,2.36 137.14,-8.32 188.19,-4.54 29.85,2.21 63,38.54 62.78,42.91 -1.67,-0.3 -2.4,6.42 18.8,12.85 23.88,7.24 18.45,9.7 51.47,12.53 10.85,0.93 53.28,2.42 57.04,5.15 11.53,8.38 -7.74,8.56 -12.51,10.62 9.85,6.52 -4.39,14 -22.01,14.23 -4.92,0.07 -44.28,-3.93 -49.43,-1.68 -23.68,10.3 25.31,9.38 29.51,12.71 12.36,9.76 -10.87,14.2 -2,19.43 7.34,4.33 -0.84,32.49 31.89,34.38 8.26,0.48 24.5,3.77 32.85,4.36 2.8,0.2 -20.4,24.71 6.39,31.43 7.49,1.88 -17.43,26.89 7.5,29.46 40.13,4.13 -94.23,38.06 -176.52,39.92" /><path
         id="path38"
         style="fill:#ee1f3d;fill-opacity:1;fill-rule:nonzero;stroke:none"
         d="m 1981.52,1401 c 0.15,0.26 0.02,0.19 0,0 v 0" /><path
         id="path40"
         style="fill:#ffffff;fill-opacity:1;fill-rule:nonzero;stroke:none"
         d="m 316.102,828.277 c 0,50.223 7.496,92.36 22.523,126.422 11.227,25.125 26.531,47.651 45.906,67.611 19.407,19.95 40.633,34.74 63.739,44.4 30.703,12.97 66.097,19.47 106.253,19.47 72.645,0 130.735,-22.52 174.344,-67.57 43.613,-45.047 65.418,-107.727 65.418,-187.969 0,-79.59 -21.637,-141.856 -64.906,-186.805 -43.266,-44.941 -101.117,-67.434 -173.52,-67.434 -73.289,0 -131.589,22.383 -174.855,67.09 -43.27,44.746 -64.902,106.328 -64.902,184.785 m 102.558,3.36 c 0,-55.832 12.906,-98.145 38.684,-126.934 25.773,-28.828 58.5,-43.203 98.172,-43.203 39.679,0 72.23,14.277 97.699,42.863 25.437,28.582 38.172,71.442 38.172,128.61 0,56.515 -12.395,98.656 -37.18,126.449 -24.75,27.797 -57.644,41.688 -98.691,41.688 -41.004,0 -74.078,-14.063 -99.203,-42.204 C 431.223,930.77 418.66,888.355 418.66,831.637" /><path
         id="path42"
         style="fill:#ffffff;fill-opacity:1;fill-rule:nonzero;stroke:none"
         d="m 848.816,966.617 h 93.372 v -57.179 c 11.843,19.101 28.343,34.601 49.085,46.55 20.777,11.95 43.817,17.907 69.117,17.907 44.16,0 81.64,-17.325 112.45,-51.93 30.77,-34.61 46.18,-82.84 46.18,-144.668 0,-63.5 -15.51,-112.856 -46.56,-148.051 -31.01,-35.226 -68.63,-52.824 -112.79,-52.824 -20.99,0 -40.05,4.18 -57.1,12.531 -17.078,8.36 -50.011,42.969 -50.011,42.969 V 437.551 H 848.816 Z m 98.782,-185.004 c 0,-42.758 8.484,-74.32 25.433,-94.722 16.942,-20.399 37.579,-30.633 61.919,-30.633 23.42,0 42.86,9.375 58.4,28.133 15.51,18.73 23.28,49.464 23.28,92.187 0,39.883 -8.01,69.492 -23.99,88.801 -16.03,19.34 -35.81,29.027 -59.47,29.027 -24.57,0 -44.979,-9.48 -61.205,-28.48 -16.258,-18.965 -24.367,-47.071 -24.367,-84.313" /><path
         id="path44"
         style="fill:#ffffff;fill-opacity:1;fill-rule:nonzero;stroke:none"
         d="m 1501.29,708.648 100.26,-16.843 c -12.9,-36.77 -33.24,-64.739 -61.03,-83.977 -27.84,-19.199 -62.61,-28.816 -104.41,-28.816 -66.14,0 -115.05,21.601 -146.82,64.832 -25.06,34.609 -37.59,78.293 -37.59,131.043 0,63.015 16.47,112.383 49.43,148.086 32.94,35.668 74.6,53.539 124.95,53.539 56.58,0 101.22,-18.692 133.91,-56.074 32.73,-37.348 48.37,-94.583 46.94,-171.672 h -252.09 c 0.72,-29.852 8.84,-53.055 24.34,-69.668 15.51,-16.602 34.85,-24.883 58.03,-24.883 15.74,0 28.99,4.316 39.74,12.91 10.75,8.586 18.82,22.422 24.34,41.523 m 5.72,102.36 c -0.69,29.097 -8.22,51.246 -22.56,66.41 -14.31,15.168 -31.74,22.766 -52.28,22.766 -21.98,0 -40.08,-8.008 -54.43,-23.996 -14.3,-16.02 -21.35,-37.723 -21.12,-65.18 h 150.39" /><path
         id="path46"
         style="fill:#ffffff;fill-opacity:1;fill-rule:nonzero;stroke:none"
         d="m 2010.71,582.781 h -93.37 v 194.09 c 0,41.047 -2.15,67.609 -6.45,79.66 -4.28,12.051 -11.25,21.43 -20.93,28.106 -9.64,6.676 -21.27,10.027 -34.87,10.027 -17.41,0 -33.03,-4.754 -46.84,-14.305 -13.85,-9.55 -23.32,-22.218 -28.45,-37.964 -5.12,-15.747 -7.69,-44.879 -7.69,-87.36 V 582.781 h -103.74 v 383.836 h 93.37 V 910.23 c 32.61,43.399 73.72,65.059 123.27,65.059 21.81,0 41.78,-4.035 59.85,-12.09 18.08,-8.086 31.75,-18.383 41.04,-30.926 9.25,-12.503 15.72,-26.746 19.36,-42.636 3.63,-15.895 5.45,-38.664 5.45,-68.305 V 582.781" /><path
         id="path48"
         style="fill:#ffffff;fill-opacity:1;fill-rule:nonzero;stroke:none"
         d="m 313.734,828.863 c 0,50.215 7.5,92.356 22.524,126.418 11.23,25.125 26.5,47.649 45.906,67.609 19.375,19.95 40.633,34.74 63.738,44.4 30.707,12.97 66.102,19.48 106.258,19.48 72.637,0 130.731,-22.53 174.344,-67.58 43.605,-45.045 65.414,-107.729 65.414,-187.967 0,-79.586 -21.633,-141.852 -64.902,-186.801 -43.266,-44.942 -101.118,-67.434 -173.524,-67.434 -73.289,0 -131.586,22.383 -174.855,67.09 -43.27,44.738 -64.903,106.328 -64.903,184.785 m 102.559,3.356 c 0,-55.801 12.906,-98.141 38.68,-126.93 25.777,-28.828 58.504,-43.203 98.179,-43.203 39.672,0 72.227,14.277 97.696,42.863 25.433,28.574 38.168,71.469 38.168,128.602 0,56.519 -12.391,98.66 -37.172,126.453 -24.75,27.797 -57.645,41.696 -98.692,41.696 -41.011,0 -74.078,-14.071 -99.203,-42.212 -25.094,-28.133 -37.656,-70.55 -37.656,-127.269" /><path
         id="path50"
         style="fill:#ffffff;fill-opacity:1;fill-rule:nonzero;stroke:none"
         d="m 2093.7,1080.73 h 93.37 V 812.594 c 0,-42.547 1.21,-70.106 3.55,-82.703 4.13,-20.266 13.87,-36.524 29.31,-48.809 15.43,-12.258 36.51,-18.391 63.26,-18.391 27.18,0 47.69,5.793 61.52,17.395 13.78,11.57 22.08,25.809 24.9,42.723 2.78,16.875 4.2,44.914 4.2,84.074 v 273.847 h 103.74 V 820.711 c 0,-59.426 -2.63,-101.398 -7.9,-125.938 -5.25,-24.55 -14.92,-45.253 -29.05,-62.128 -14.13,-16.915 -32.99,-30.372 -56.63,-40.364 -23.66,-10.027 -54.51,-15.027 -92.61,-15.027 -45.97,0 -80.83,5.437 -104.56,16.367 -23.77,10.918 -42.53,25.117 -56.32,42.547 -13.79,17.453 -22.88,35.734 -27.24,54.875 -6.37,28.379 -9.54,70.242 -9.54,125.629 v 264.058" /><path
         id="path52"
         style="fill:#ffffff;fill-opacity:1;fill-rule:nonzero;stroke:none"
         d="m 2560.54,582.781 v 508.329 h 103.74 V 865.375 l 209.56,225.735 h 139.47 L 2819.87,893.121 3023.82,582.781 H 2889.61 L 2748.37,821.34 2664.28,736.395 V 582.781 h -103.74" /></g></g></svg>