<svg xmlns="http://www.w3.org/2000/svg" viewBox="0 0 370 263" id="vector">
    <path id="path" d="M 104.124 131.79 C 103.961 126.116 105.493 120.522 108.525 115.723 C 111.556 110.925 115.949 107.141 121.141 104.856 C 126.333 102.57 132.089 101.887 137.671 102.893 C 143.254 103.9 148.409 106.55 152.478 110.505 C 156.547 114.46 159.345 119.54 160.513 125.095 C 161.681 130.651 161.166 136.428 159.035 141.689 C 156.903 146.95 153.252 151.455 148.548 154.627 C 143.845 157.8 138.302 159.496 132.63 159.498 C 128.919 159.634 125.219 159.017 121.753 157.684 C 118.287 156.35 115.126 154.328 112.463 151.738 C 109.799 149.149 107.687 146.047 106.254 142.618 C 104.82 139.19 104.096 135.506 104.124 131.79 Z M 150.603 131.79 C 150.603 128.232 149.549 124.755 147.574 121.797 C 145.599 118.838 142.792 116.533 139.508 115.171 C 136.224 113.81 132.61 113.454 129.123 114.148 C 125.637 114.842 122.434 116.555 119.92 119.071 C 117.407 121.586 115.695 124.792 115.001 128.281 C 114.308 131.77 114.664 135.387 116.024 138.674 C 117.385 141.961 119.688 144.77 122.644 146.747 C 125.6 148.723 129.075 149.778 132.63 149.778 C 134.999 149.812 137.352 149.37 139.548 148.478 C 141.744 147.586 143.739 146.262 145.415 144.585 C 147.091 142.908 148.413 140.912 149.304 138.714 C 150.196 136.516 150.637 134.162 150.603 131.79 L 150.603 131.79 Z" fill="#274a9f"/>
    <path id="path_1" d="M 209.635 122.133 C 209.693 124.452 209.267 126.757 208.383 128.902 C 207.5 131.046 206.179 132.982 204.505 134.586 C 202.831 136.191 200.841 137.427 198.661 138.217 C 196.482 139.007 194.162 139.333 191.85 139.174 L 179.237 139.174 L 179.237 158.803 L 168.579 158.803 L 168.579 104.776 L 191.598 104.776 C 193.947 104.627 196.301 104.968 198.51 105.778 C 200.72 106.588 202.737 107.85 204.433 109.482 C 206.13 111.114 207.468 113.082 208.364 115.26 C 209.259 117.438 209.692 119.779 209.635 122.133 L 209.635 122.133 Z M 199.481 122.133 C 199.528 120.946 199.316 119.764 198.858 118.668 C 198.4 117.572 197.708 116.59 196.831 115.79 C 195.953 114.99 194.912 114.392 193.779 114.038 C 192.646 113.683 191.45 113.581 190.274 113.739 L 178.985 113.739 L 178.985 130.464 L 190.021 130.464 C 196.076 130.338 199.229 127.182 199.229 122.007 L 199.481 122.133 Z" fill="#274a9f"/>
    <path id="path_2" d="M 226.663 114.116 L 226.663 127.244 L 245.582 127.244 L 245.582 136.458 L 226.663 136.458 L 226.663 149.46 L 248.42 149.46 L 248.42 158.801 L 215.941 158.801 L 215.941 104.774 L 248.168 104.774 L 248.168 114.116 L 226.663 114.116 Z" fill="#274a9f"/>
    <path id="path_3" d="M 308.139 104.774 L 308.139 158.801 L 298.237 158.801 L 267.461 120.112 L 267.461 158.801 L 257.182 158.801 L 257.182 104.774 L 267.02 104.774 L 297.922 143.338 L 297.922 104.774 L 308.139 104.774 Z" fill="#274a9f"/>
    <path id="path_4" d="M 179.807 181.146 L 165.933 181.146 L 165.933 225.706 L 155.527 225.706 L 155.527 181.146 L 141.652 181.146 L 141.652 171.868 L 179.807 171.868 L 179.807 181.146 Z" fill="#499dd6"/>
    <path id="path_5" d="M 205.219 202.985 L 196.453 202.985 L 196.453 225.706 L 186.047 225.706 L 186.047 171.869 L 207.048 171.869 C 209.252 171.654 211.477 171.909 213.575 172.619 C 215.673 173.329 217.597 174.477 219.218 175.986 C 220.84 177.496 222.123 179.333 222.982 181.376 C 223.841 183.419 224.257 185.621 224.202 187.837 C 224.259 190.831 223.393 193.769 221.724 196.254 C 220.054 198.738 217.66 200.647 214.868 201.723 L 229.058 225.706 L 217.706 225.706 L 205.219 202.985 Z M 196.453 194.59 L 206.354 194.59 C 211.336 194.59 214.048 192.003 214.048 187.711 C 214.095 186.717 213.922 185.726 213.542 184.807 C 213.162 183.888 212.584 183.065 211.849 182.395 C 211.114 181.726 210.24 181.228 209.29 180.935 C 208.34 180.643 207.338 180.565 206.354 180.705 L 196.453 180.705 L 196.453 194.59 Z" fill="#499dd6"/>
    <path id="path_6" d="M 267.904 214.661 L 244.57 214.661 L 240.534 225.706 L 229.687 225.706 L 250.183 171.868 L 262.291 171.868 L 282.788 225.706 L 271.94 225.706 L 267.904 214.661 Z M 264.751 205.824 L 256.237 182.345 L 247.471 205.824 L 264.751 205.824 Z" fill="#499dd6"/>
    <path id="path_7" d="M 281.968 199.07 C 281.904 195.33 282.605 191.616 284.028 188.157 C 285.45 184.698 287.564 181.566 290.239 178.954 C 292.914 176.341 296.094 174.304 299.585 172.966 C 303.075 171.628 306.802 171.018 310.536 171.173 C 318.259 171.146 325.676 174.188 331.159 179.631 L 323.591 186.447 C 321.902 184.623 319.853 183.17 317.573 182.181 C 315.293 181.192 312.832 180.689 310.347 180.704 C 305.773 180.975 301.474 182.985 298.331 186.323 C 295.188 189.66 293.438 194.074 293.438 198.66 C 293.438 203.246 295.188 207.659 298.331 210.997 C 301.474 214.335 305.773 216.345 310.347 216.616 C 312.826 216.627 315.28 216.129 317.558 215.152 C 319.836 214.175 321.89 212.74 323.591 210.936 L 330.97 218.005 C 325.527 223.384 318.186 226.4 310.536 226.399 C 306.848 226.561 303.165 225.974 299.709 224.674 C 296.253 223.374 293.095 221.388 290.426 218.835 C 287.757 216.281 285.632 213.214 284.178 209.818 C 282.725 206.421 281.973 202.765 281.968 199.07 L 281.968 199.07 Z" fill="#499dd6"/>
    <path id="path_8" d="M 347.624 181.146 L 347.624 194.274 L 366.544 194.274 L 366.544 203.426 L 347.624 203.426 L 347.624 216.428 L 369.319 216.428 L 369.319 225.706 L 337.155 225.706 L 337.155 171.868 L 369.319 171.868 L 369.319 181.146 L 347.624 181.146 Z" fill="#499dd6"/>
    <path id="path_9" d="M 131.305 9.723 C 156.837 9.74 181.714 17.803 202.408 32.769 C 223.101 47.735 238.56 68.843 246.589 93.099 L 256.553 93.099 C 249.498 69.894 236.143 49.106 217.976 33.051 C 199.81 16.997 177.545 6.306 153.664 2.172 C 129.782 -1.962 105.223 0.622 82.723 9.637 C 60.223 18.652 40.667 33.742 26.234 53.227 C 11.801 72.712 3.058 95.826 0.98 119.992 C -1.098 144.157 3.57 168.426 14.465 190.092 C 25.36 211.759 42.052 229.971 62.682 242.701 C 83.312 255.43 107.069 262.175 131.305 262.185 L 131.305 252.718 C 99.578 251.994 69.395 238.873 47.212 216.16 C 25.029 193.448 12.609 162.949 12.609 131.189 C 12.609 99.429 25.029 68.93 47.212 46.218 C 69.395 23.505 99.578 10.384 131.305 9.66 L 131.305 9.723 Z" fill="#274a9f"/>
    <path id="path_10" d="M 131.307 36.359 C 149.694 36.381 167.677 41.765 183.055 51.853 C 198.434 61.942 210.541 76.297 217.896 93.163 L 228.112 93.163 C 221.216 75.53 209.645 60.113 194.643 48.574 C 179.641 37.035 161.778 29.811 142.978 27.679 C 124.178 25.548 105.153 28.589 87.952 36.477 C 70.751 44.364 56.026 56.799 45.363 72.441 C 34.7 88.083 28.503 106.34 27.44 125.246 C 26.376 144.151 30.487 162.989 39.328 179.73 C 48.17 196.471 61.407 210.481 77.615 220.25 C 93.823 230.02 112.386 235.179 131.307 235.173 L 131.307 225.705 C 106.218 225.705 82.156 215.731 64.416 197.976 C 46.675 180.222 36.709 156.141 36.709 131.032 C 36.709 105.923 46.675 81.843 64.416 64.088 C 82.156 46.333 106.218 36.359 131.307 36.359 L 131.307 36.359 Z" fill="#274a9f"/>
    <path id="path_11" d="M 131.303 63.246 C 142.377 63.246 153.28 65.969 163.056 71.174 C 172.832 76.38 181.181 83.909 187.368 93.1 L 198.468 93.1 C 191.798 81.27 182.128 71.412 170.434 64.519 C 158.74 57.627 145.435 53.944 131.864 53.844 C 118.292 53.744 104.935 57.229 93.14 63.948 C 81.345 70.667 71.531 80.381 64.688 92.111 C 57.844 103.84 54.215 117.169 54.166 130.752 C 54.116 144.334 57.649 157.689 64.407 169.468 C 71.164 181.247 80.908 191.033 92.654 197.837 C 104.4 204.642 117.731 208.224 131.303 208.222 L 131.303 198.692 C 113.356 198.692 96.144 191.557 83.454 178.856 C 70.763 166.156 63.634 148.93 63.634 130.969 C 63.634 113.008 70.763 95.782 83.454 83.082 C 96.144 70.381 113.356 63.246 131.303 63.246 L 131.303 63.246 Z" fill="#274a9f"/>
    <path id="path_12" d="M 131.304 90.134 C 136.429 90.167 141.501 91.174 146.25 93.101 L 164.035 93.101 C 157.892 87.68 150.522 83.837 142.563 81.905 C 134.605 79.972 126.295 80.008 118.353 82.009 C 110.411 84.009 103.075 87.915 96.978 93.388 C 90.882 98.861 86.209 105.738 83.362 113.423 C 80.515 121.108 79.58 129.371 80.639 137.499 C 81.697 145.627 84.717 153.374 89.437 160.073 C 94.156 166.771 100.435 172.219 107.729 175.945 C 115.023 179.672 123.115 181.566 131.304 181.462 L 131.304 171.806 C 120.482 171.806 110.104 167.503 102.451 159.845 C 94.799 152.187 90.5 141.8 90.5 130.97 C 90.5 120.14 94.799 109.753 102.451 102.095 C 110.104 94.436 120.482 90.134 131.304 90.134 L 131.304 90.134 Z" fill="#499dd6"/>
    <path id="path_13" d="M 180.561 171.803 L 131.244 171.803 L 131.244 181.461 L 180.561 181.27 L 180.561 171.803 Z" fill="#499dd6"/>
</svg>