<svg id="Layer_1" data-name="Layer 1" xmlns="http://www.w3.org/2000/svg" viewBox="0 0 900 749.97685"><defs><style>.cls-1{fill:#fff;}.cls-2{fill:#dc143c;}</style></defs><path d="M182.718,656.40321q-4.6128,3.84962-13.17578,3.84961H158.60377v18.89063H147.69752V626.60731h22.55762q7.80029,0,12.43847,4.06348,4.6377,4.06349,4.6377,12.58106Q187.33131,652.55506,182.718,656.40321Zm-8.37891-18.92578a8.84819,8.84819,0,0,0-5.84277-1.74609h-9.89258v15.46875h9.89258a8.38988,8.38988,0,0,0,5.84277-1.88867q2.08447-1.88965,2.08594-5.98829Q176.42506,639.2245,174.33912,637.47743Z"/><path d="M216.89576,639.38563q.19482.01758.87305.05274V649.8456q-.9624-.10693-1.71094-.14258-.74853-.03516-1.21191-.03614-6.13038,0-8.2334,3.99219-1.17627,2.2456-1.17578,6.91406v18.57032h-10.2295V640.29384h9.69434v6.77148a21.47607,21.47607,0,0,1,4.09961-5.31054,11.15605,11.15605,0,0,1,7.41309-2.3877C216.60377,639.36708,216.7649,639.37392,216.89576,639.38563Z"/><path d="M256.11842,674.39052q-4.91748,6.07177-14.9336,6.07129-10.01513,0-14.93359-6.07129a24.10468,24.10468,0,0,1,0-29.18262q4.919-6.16113,14.93359-6.16211,10.01514,0,14.9336,6.16211a24.1009,24.1009,0,0,1,0,29.18262Zm-8.126-5.61426q2.3877-3.167,2.3877-9.00391,0-5.8374-2.3877-8.98632a9.02672,9.02672,0,0,0-13.7041,0q-2.40528,3.1494-2.40527,8.98632,0,5.83595,2.40527,9.00391a8.996,8.996,0,0,0,13.7041,0Z"/><path d="M264.31666,647.88563v-7.23535h5.417v-10.835h10.05078v10.835h6.3086v7.23535h-6.3086v20.5293q0,2.3877.60645,2.97656.605.58741,3.70605.58789.4629,0,.98047-.01757c.34473-.01172.68262-.03028,1.01563-.05469v7.5918l-4.81153.17871q-7.1997.249-9.83691-2.49512-1.71094-1.74609-1.71094-5.38184v-23.915Z"/><path d="M317.93092,641.081a15.79947,15.79947,0,0,1,6.71386,5.74707,19.0871,19.0871,0,0,1,3.09473,8.03125,49.67644,49.67644,0,0,1,.335,7.71H299.77955q.2373,5.84619,4.0625,8.19726a10.31842,10.31842,0,0,0,5.60059,1.46192,7.89078,7.89078,0,0,0,7.73144-4.45508H327.5442a12.68134,12.68134,0,0,1-3.76563,7.02148q-5.21923,5.66748-14.61523,5.667a21.18173,21.18173,0,0,1-13.68457-4.7793q-5.92823-4.78125-5.92774-15.55469,0-10.09276,5.35157-15.48047,5.35107-5.38768,13.89258-5.38672A22.1102,22.1102,0,0,1,317.93092,641.081Zm-15.19532,8.77539a10.5401,10.5401,0,0,0-2.70605,6.01269h17.5a8.47808,8.47808,0,0,0-2.706-6.13867,8.9069,8.9069,0,0,0-6.02442-2.09473A8.05235,8.05235,0,0,0,302.7356,649.85634Z"/><path d="M369.35182,643.00282a10.28549,10.28549,0,0,0-6.09473-7.52051,14.96658,14.96658,0,0,0-6.02344-1.17675,13.09255,13.09255,0,0,0-10.4248,4.78515q-4.08106,4.78419-4.08106,14.38867,0,9.67677,4.41992,13.69532a14.5251,14.5251,0,0,0,10.05079,4.01953,13.03236,13.03236,0,0,0,9.05273-3.16895,13.67967,13.67967,0,0,0,4.34863-8.30761H358.44557v-8.76758h21.88378v28.19336h-7.2705l-1.10547-6.5586a25.132,25.132,0,0,1-5.70215,5.252,20.13642,20.13642,0,0,1-10.69238,2.66015,22.223,22.223,0,0,1-17.1084-7.23047q-6.94922-7.26562-6.9502-19.875,0-12.75,7.02149-20.44531,7.021-7.69335,18.56933-7.69336,10.01514,0,16.09278,5.0791a18.8883,18.8883,0,0,1,6.96777,12.6709Z"/><path d="M431.261,674.47353q-5.95312,6.13184-17.21485,6.13085-11.26319,0-17.21484-6.13085-7.9834-7.519-7.9834-21.66993,0-14.43456,7.9834-21.66992,5.95166-6.12891,17.21484-6.12988,11.26171,0,17.21485,6.12988,7.94823,7.23633,7.94824,21.66992Q439.20924,666.954,431.261,674.47353Zm-6.86036-7.9834q3.83056-4.812,3.83106-13.68653,0-8.83885-3.83106-13.668a12.52291,12.52291,0,0,0-10.35449-4.83007,12.68936,12.68936,0,0,0-10.40722,4.8125q-3.88478,4.81055-3.88477,13.68554,0,8.8755,3.88477,13.68653a12.68858,12.68858,0,0,0,10.40722,4.81152A12.53991,12.53991,0,0,0,424.40064,666.49013Z"/><path d="M469.64674,639.8661a76.41487,76.41487,0,0,1,8.2334-14.11425h7.66308l-2.1748,3.99218a59.45882,59.45882,0,0,0-6.23731,17.251,68.19791,68.19791,0,0,0-1.13965,12.90137,60.94843,60.94843,0,0,0,3.17188,20.0664A91.45766,91.45766,0,0,0,485.721,693.8622h-7.52051l-2.53027-3.457a46.30639,46.30639,0,0,1-5.23926-9.33789,53.17835,53.17835,0,0,1-4.9541-21.8125A48.38265,48.38265,0,0,1,469.64674,639.8661Z"/><path d="M527.44166,656.40321q-4.6128,3.84962-13.17481,3.84961H503.32838v18.89063H492.42213V626.60731h22.55664q7.80028,0,12.43848,4.06348,4.63769,4.06349,4.63769,12.58106Q532.05494,652.55506,527.44166,656.40321Zm-8.37793-18.92578a8.85,8.85,0,0,0-5.84277-1.74609h-9.89258v15.46875H513.221a8.39155,8.39155,0,0,0,5.84277-1.88867q2.08448-1.88965,2.085-5.98829Q521.14869,639.2245,519.06373,637.47743Z"/><path d="M572.43678,674.39052q-4.91895,6.07177-14.9336,6.07129-10.01659,0-14.93359-6.07129a24.10086,24.10086,0,0,1,0-29.18262q4.91748-6.16113,14.93359-6.16211,10.01514,0,14.9336,6.16211a24.1009,24.1009,0,0,1,0,29.18262Zm-8.126-5.61426q2.38623-3.167,2.3877-9.00391,0-5.8374-2.3877-8.98632a9.02672,9.02672,0,0,0-13.7041,0q-2.40674,3.1494-2.40625,8.98632,0,5.83595,2.40625,9.00391a8.996,8.996,0,0,0,13.7041,0Z"/><path d="M594.99732,679.14345H584.8401V626.60731h10.15722Z"/><path d="M620.29322,655.51259a16.11861,16.11861,0,0,0,4.05762-.89063,3.05522,3.05522,0,0,0,2.18945-2.88672,3.41256,3.41256,0,0,0-1.67969-3.29687,10.61072,10.61072,0,0,0-4.93164-.90918q-3.64891,0-5.166,1.78223a7.34139,7.34139,0,0,0-1.44531,3.56445h-9.80176a14.86567,14.86567,0,0,1,2.86426-8.37695q4.04444-5.13135,13.88867-5.13184a24.77076,24.77076,0,0,1,11.38281,2.53027q4.97607,2.53125,4.97559,9.55274V669.2704q0,1.85449.07129,4.49023a5.638,5.638,0,0,0,.60546,2.709,3.64024,3.64024,0,0,0,1.49707,1.17578v1.49805H627.75221a11.38186,11.38186,0,0,1-.64161-2.21094q-.17871-1.03125-.28515-2.35156a20.95987,20.95987,0,0,1-4.875,3.88476,14.73,14.73,0,0,1-7.457,1.88867,12.86417,12.86417,0,0,1-8.76465-3.01171q-3.46-3.01173-3.46-8.53516,0-7.16455,5.56543-10.37207a24.84862,24.84862,0,0,1,8.97656-2.49512Zm6.21094,4.74023a11.27113,11.27113,0,0,1-1.96875.98047,16.70648,16.70648,0,0,1-2.72754.69531l-2.3125.42774a15.21705,15.21705,0,0,0-4.66894,1.38965,4.63937,4.63937,0,0,0-2.39942,4.3125,4.50556,4.50556,0,0,0,1.46582,3.76074,5.57341,5.57341,0,0,0,3.56445,1.1582,10.6155,10.6155,0,0,0,6.13379-1.92578q2.80518-1.92335,2.91309-7.02051Z"/><path d="M676.82838,642.52138q3.81591,3.15381,3.81543,10.46093v26.16114H670.23658V655.51259a10.86614,10.86614,0,0,0-.81348-4.70508q-1.48681-2.99414-5.66113-2.99316-5.12988,0-7.041,4.38378a15.16348,15.16348,0,0,0-.99024,5.916v21.0293h-10.1582V640.36513h9.83691v5.667a17.227,17.227,0,0,1,3.69141-4.3125,12.78968,12.78968,0,0,1,7.915-2.35254A14.89268,14.89268,0,0,1,676.82838,642.52138Z"/><path d="M710.69068,640.91688a12.35172,12.35172,0,0,1,4.45508,4.29493V626.6786h10.29981v52.46485H715.5735v-5.38282a14.32887,14.32887,0,0,1-4.95411,5.0254,13.908,13.908,0,0,1-6.915,1.56835,14.43724,14.43724,0,0,1-11.459-5.50585q-4.65089-5.50782-4.65039-14.13282,0-9.94335,4.5791-15.64648a14.90277,14.90277,0,0,1,12.24317-5.70215A12.53676,12.53676,0,0,1,710.69068,640.91688Zm2.49414,27.67579a14.17064,14.17064,0,0,0,2.2461-8.30469q0-7.12792-3.60059-10.19336a7.75328,7.75328,0,0,0-5.13183-1.85352,7.1326,7.1326,0,0,0-6.54,3.36914,18.1605,18.1605,0,0,0,.03515,16.96485,7.17532,7.17532,0,0,0,6.4336,3.22558A7.49891,7.49891,0,0,0,713.18482,668.59267Z"/><path d="M746.73072,639.8661a48.4558,48.4558,0,0,1,4.16309,19.38868,53.25749,53.25749,0,0,1-4.94531,21.8125,46.39325,46.39325,0,0,1-5.23047,9.33789l-2.52637,3.457h-7.50684a91.70858,91.70858,0,0,0,6.53418-13.89942,61.18026,61.18026,0,0,0,3.16016-20.0664,68.45262,68.45262,0,0,0-1.13574-12.90137,59.57618,59.57618,0,0,0-6.21485-17.251l-2.166-3.99218H738.512A76.49462,76.49462,0,0,1,746.73072,639.8661Z"/><rect class="cls-1" x="-1.93396" y="0.32149" width="900" height="562.5"/><rect class="cls-2" x="-1.93396" y="281.57149" width="900" height="281.25"/></svg>