<svg id="Layer_1" data-name="Layer 1" xmlns="http://www.w3.org/2000/svg" viewBox="0 0 900 749.97685"><defs><style>.cls-1{fill:#fff;}.cls-2{fill:#dc143c;}</style></defs><rect class="cls-1" x="-1.30889" y="0.32149" width="900" height="562.5"/><rect class="cls-2" x="-1.30889" y="281.57149" width="900" height="281.25"/><path d="M194.22584,656.30556q-4.42383,3.69139-12.63477,3.6914H171.10084V678.1122h-10.459V627.73134h21.63184q7.481,0,11.92871,3.89648,4.44727,3.89649,4.44727,12.06543Q198.64967,652.61416,194.22584,656.30556Zm-8.03516-18.14942a8.47931,8.47931,0,0,0-5.60254-1.6748h-9.4873v14.834h9.4873a8.04491,8.04491,0,0,0,5.60254-1.81152q1.99952-1.81054,2-5.74219Q188.19068,639.83143,186.19068,638.15614Z"/><path d="M237.37525,673.55458q-4.71679,5.82276-14.32129,5.82227-9.605,0-14.32128-5.82227a23.11486,23.11486,0,0,1,0-27.98633q4.7168-5.90771,14.32128-5.9082,9.60353,0,14.32129,5.9082a23.11486,23.11486,0,0,1,0,27.98633Zm-7.793-5.38379q2.28956-3.03809,2.29-8.63476,0-5.59865-2.29-8.61817a8.65834,8.65834,0,0,0-13.14257,0q-2.30566,3.0205-2.30664,8.61817,0,5.59716,2.30664,8.63476a8.62757,8.62757,0,0,0,13.14257,0Z"/><path d="M259.011,678.1122h-9.74122V627.73134H259.011Z"/><path d="M283.26881,655.45106a15.3926,15.3926,0,0,0,3.89062-.85449A2.92991,2.92991,0,0,0,289.26,651.828a3.27163,3.27163,0,0,0-1.61133-3.16114,10.16823,10.16823,0,0,0-4.72851-.87207q-3.49952,0-4.95508,1.709a7.04472,7.04472,0,0,0-1.38575,3.418h-9.39941a14.25828,14.25828,0,0,1,2.74609-8.03223q3.87891-4.92187,13.31934-4.92187a23.7571,23.7571,0,0,1,10.916,2.42675q4.771,2.42726,4.77148,9.16016v17.08984q0,1.77833.06836,4.30664a5.4081,5.4081,0,0,0,.58105,2.59766,3.47848,3.47848,0,0,0,1.43555,1.12793v1.43555h-10.5957a10.75464,10.75464,0,0,1-.61524-2.11914q-.17138-.99024-.27343-2.25586a20.10424,20.10424,0,0,1-4.67578,3.72558,14.13484,14.13484,0,0,1-7.15137,1.81153,12.33776,12.33776,0,0,1-8.40528-2.88868q-3.31787-2.8872-3.31738-8.18554,0-6.87012,5.33692-9.94629a23.84044,23.84044,0,0,1,8.60839-2.39258Zm5.95605,4.5459a10.685,10.685,0,0,1-1.88769.93946,15.88829,15.88829,0,0,1-2.61621.667l-2.21778.41015a14.62684,14.62684,0,0,0-4.47754,1.333,4.44887,4.44887,0,0,0-2.30078,4.13574,4.3226,4.3226,0,0,0,1.40528,3.60645,5.34661,5.34661,0,0,0,3.41894,1.11035,10.18224,10.18224,0,0,0,5.88281-1.8457q2.68945-1.84571,2.793-6.7334Z"/><path d="M337.4856,642.99306q3.65919,3.02343,3.65918,10.03125V678.1122h-9.98046V655.45106a10.40758,10.40758,0,0,0-.78028-4.51171q-1.42529-2.87111-5.42871-2.8711-4.92041,0-6.752,4.2041a14.53052,14.53052,0,0,0-.9502,5.67383v20.166H307.512V640.9247h9.4336v5.43457a16.50008,16.50008,0,0,1,3.54-4.13574,12.26275,12.26275,0,0,1,7.58985-2.25586A14.27538,14.27538,0,0,1,337.4856,642.99306Z"/><path d="M369.95826,641.454a11.85213,11.85213,0,0,1,4.27246,4.11914V627.7997h9.87793v50.3125h-9.46777v-5.16114a13.73453,13.73453,0,0,1-4.751,4.81934,13.34673,13.34673,0,0,1-6.63086,1.50391,13.84425,13.84425,0,0,1-10.98926-5.28125q-4.459-5.2793-4.46-13.55176,0-9.53613,4.39161-15.00488a14.29014,14.29014,0,0,1,11.74121-5.46875A12.027,12.027,0,0,1,369.95826,641.454Zm2.39258,26.541a13.58968,13.58968,0,0,0,2.15332-7.96387q0-6.835-3.45215-9.77539a7.43239,7.43239,0,0,0-4.92187-1.77734,6.845,6.845,0,0,0-6.27246,3.22949,14.97875,14.97875,0,0,0-1.999,8.01563,14.82,14.82,0,0,0,2.03418,8.2539,6.87471,6.87471,0,0,0,6.16895,3.09375A7.19243,7.19243,0,0,0,372.35084,667.995Z"/><path d="M414.90455,640.44618a73.2529,73.2529,0,0,1,7.89551-13.53515h7.34863l-2.085,3.82812a56.99479,56.99479,0,0,0-5.98145,16.543,65.426,65.426,0,0,0-1.09375,12.37305,58.44788,58.44788,0,0,0,3.042,19.24316,87.81082,87.81082,0,0,0,6.28906,13.33008h-7.21191l-2.42676-3.31543a44.44087,44.44087,0,0,1-5.02442-8.95508,50.98644,50.98644,0,0,1-4.751-20.918A46.4004,46.4004,0,0,1,414.90455,640.44618Z"/><path d="M470.32935,656.30556q-4.42381,3.69139-12.63476,3.6914H447.20435V678.1122h-10.459V627.73134h21.63184q7.481,0,11.92871,3.89648,4.44726,3.89649,4.44726,12.06543Q474.75318,652.61416,470.32935,656.30556Zm-8.03515-18.14942a8.47935,8.47935,0,0,0-5.60254-1.6748h-9.48731v14.834h9.48731a8.045,8.045,0,0,0,5.60254-1.81152q1.99952-1.81054,2-5.74219Q464.2942,639.83143,462.2942,638.15614Z"/><path d="M503.10572,639.98524q.186.01758.83692.05079v9.98046q-.92286-.10254-1.64063-.13671-.71776-.03371-1.16211-.03418-5.87988,0-7.89551,3.82812a14.89405,14.89405,0,0,0-1.12793,6.63086V678.1122h-9.80957V640.85634h9.29688v6.49414a20.59919,20.59919,0,0,1,3.93066-5.09278,10.70048,10.70048,0,0,1,7.10938-2.29C502.82545,639.96767,502.97975,639.97353,503.10572,639.98524Z"/><path d="M540.72,673.55458q-4.71679,5.82276-14.32129,5.82227-9.605,0-14.32129-5.82227a23.11486,23.11486,0,0,1,0-27.98633q4.7168-5.90771,14.32129-5.9082,9.60351,0,14.32129,5.9082a23.11486,23.11486,0,0,1,0,27.98633Zm-7.793-5.38379q2.28956-3.03809,2.29-8.63476,0-5.59865-2.29-8.61817a8.65835,8.65835,0,0,0-13.14258,0q-2.30567,3.0205-2.30664,8.61817,0,5.59716,2.30664,8.63476a8.62758,8.62758,0,0,0,13.14258,0Z"/><path d="M548.58131,648.13661v-6.93848h5.19531V630.80751h9.63867v10.39062h6.04981v6.93848h-6.04981v19.6875q0,2.291.58106,2.85449.58008.5625,3.55468.56348c.2959,0,.60938-.00488.93946-.0166s.65527-.02832.97461-.05176V678.454l-4.61426.1709q-6.90528.23877-9.43359-2.39258-1.64062-1.67432-1.64063-5.16113V648.13661Z"/><path d="M599.99732,641.61122a15.15061,15.15061,0,0,1,6.4375,5.51074,18.31063,18.31063,0,0,1,2.96875,7.70313,47.6816,47.6816,0,0,1,.32129,7.39355H582.5901q.227,5.606,3.8955,7.86133a9.89531,9.89531,0,0,0,5.3711,1.40137,7.56575,7.56575,0,0,0,7.41406-4.27246h9.94531a12.16446,12.16446,0,0,1-3.61132,6.7334q-5.00538,5.43456-14.01661,5.43457a20.31207,20.31207,0,0,1-13.123-4.584q-5.68506-4.58349-5.68457-14.915,0-9.68115,5.13183-14.84668,5.13282-5.165,13.32324-5.166A21.20644,21.20644,0,0,1,599.99732,641.61122Zm-14.57324,8.415a10.11886,10.11886,0,0,0-2.59473,5.7666h16.78223a8.12954,8.12954,0,0,0-2.59473-5.88672,8.53937,8.53937,0,0,0-5.77734-2.00879A7.72738,7.72738,0,0,0,585.42408,650.02626Z"/><path d="M649.30885,643.454a9.86582,9.86582,0,0,0-5.84473-7.21191,14.357,14.357,0,0,0-5.77637-1.12793,12.55055,12.55055,0,0,0-9.99707,4.58887q-3.91553,4.58789-3.91406,13.79785,0,9.27978,4.23828,13.13476a13.93313,13.93313,0,0,0,9.63867,3.8545,12.49581,12.49581,0,0,0,8.68164-3.04,13.11615,13.11615,0,0,0,4.16993-7.96582H638.84986v-8.40821h20.98633V678.1122h-6.97266l-1.05957-6.28907a24.12712,24.12712,0,0,1-5.46875,5.03614,19.30457,19.30457,0,0,1-10.2539,2.55176,21.30988,21.30988,0,0,1-16.40625-6.93458q-6.665-6.9668-6.665-19.05957,0-12.22851,6.7334-19.60644,6.73242-7.37842,17.80761-7.37793,9.60353,0,15.43262,4.87109a18.11386,18.11386,0,0,1,6.68164,12.15039Z"/><path d="M708.679,673.63466q-5.70849,5.87988-16.50878,5.8789-10.80177,0-16.50879-5.8789-7.65675-7.21143-7.65625-20.78125,0-13.84278,7.65625-20.78125,5.707-5.87843,16.50879-5.87891,10.80029,0,16.50878,5.87891,7.62159,6.939,7.62207,20.78125Q716.301,666.42371,708.679,673.63466Zm-6.5791-7.65625q3.67236-4.61426,3.67383-13.125,0-8.47559-3.67383-13.1084a12.011,12.011,0,0,0-9.92968-4.63086,12.168,12.168,0,0,0-9.98047,4.61426q-3.72657,4.61425-3.72559,13.125,0,8.51074,3.72559,13.125a12.168,12.168,0,0,0,9.98047,4.61426A12.027,12.027,0,0,0,702.09986,665.97841Z"/><path d="M735.1067,640.44618a46.47357,46.47357,0,0,1,3.99219,18.59375,51.08117,51.08117,0,0,1-4.74219,20.918,44.57514,44.57514,0,0,1-5.01563,8.95508l-2.42285,3.31543H719.719a87.9669,87.9669,0,0,0,6.26563-13.33008,58.65384,58.65384,0,0,0,3.03125-19.24316,65.68,65.68,0,0,0-1.08985-12.37305,57.14012,57.14012,0,0,0-5.959-16.543l-2.07812-3.82812h7.33593A73.287,73.287,0,0,1,735.1067,640.44618Z"/></svg>