<svg xmlns="http://www.w3.org/2000/svg" role="img" xmlns:xlink="http://www.w3.org/1999/xlink" viewBox="-11.99 -11.99 623.48 469.98"><title>portugal</title><path fill="red" d="M0 0h600v400H0z"/><path fill="#060" d="M0 0h240v400H0z"/><g fill="#ff0" fill-rule="evenodd" stroke="#000" stroke-linecap="round" stroke-linejoin="round" stroke-width=".573"><path d="M318.24 262.04c-30.21-.91-168.74-87.38-169.69-101.15l7.6496-12.757c13.741 19.966 155.36 104.06 169.27 101.08l-7.2299 12.823"/><path d="M154.59 146.4c-2.7101 7.2937 36.149 31.318 82.903 59.754 46.752 28.434 87.065 46.006 90.053 43.486.18256-.32544 1.4701-2.5409 1.352-2.5232-.56001.84402-1.9234 1.1104-4.0506.49741-12.631-3.6433-45.575-18.765-86.374-43.506-40.798-24.743-76.294-47.544-81.811-57.232-.38363-.67116-.65702-1.8962-.60146-2.8487l-.13405-.002-1.1747 2.0532-.16139.32191h-.00088zm164.36 116.04c-.51238.92957-1.4675.96044-3.2816.76112-11.3-1.2506-45.589-17.925-86.162-42.213-47.21-28.26-86.2-54.01-81.97-60.74l1.1509-2.0346.22665.0706c-3.8037 11.405 76.948 57.578 81.702 60.522 46.724 28.947 86.115 45.851 89.601 41.458l-1.2682 2.181v-.002z"/><path d="M240.17 169.23c30.237-.23901 67.55-4.1319 89.023-12.69l-4.6265-7.5168c-12.692 7.0247-50.21 11.644-84.652 12.335-40.736-.37483-69.49-4.1681-83.897-13.835l-4.3672 8.0045c26.484 11.207 53.623 13.587 88.52 13.703"/><path d="M330.44 156.71c-.73904 1.1818-14.743 6.0113-35.373 9.5753-13.988 2.1325-32.234 3.9555-55.004 3.9776-21.633.0203-39.305-1.5196-52.684-3.3329-21.656-3.3955-32.833-8.1201-36.965-9.7896.39509-.78581.64908-1.337 1.0301-2.0708 11.895 4.736 23.124 7.5918 36.279 9.6158 13.291 1.8 30.75 3.362 52.276 3.3417 22.664-.0229 40.709-1.9844 54.616-4.0534 21.155-3.4122 32.711-7.8034 34.334-9.8425l1.494 2.5788h-.002zm-4.0603-7.6226c-2.293 1.8415-13.718 5.8932-33.819 9.1034-13.415 1.9226-30.472 3.6433-52.265 3.6645-20.704.0203-37.619-1.375-50.485-3.2491-20.414-2.6661-31.279-7.4754-35.196-8.8776.3898-.67381.78666-1.3423 1.1941-2.0135 3.0479 1.5346 13.533 5.7909 34.226 8.7224 12.72 1.8036 29.661 3.1477 50.262 3.1265 21.69-.0221 38.553-1.7762 51.883-3.6883 20.205-2.7799 31.077-7.9472 32.728-9.241l1.4728 2.4509v.002zM140.88 205.66c18.598 10.003 59.905 15.044 98.994 15.391 35.591.0564 81.958-5.5016 99.297-14.69l-.47712-10.012c-5.4246 8.4773-55.113 16.609-99.206 16.276-44.093-.3325-85.038-7.1429-98.687-15.959l.0794 8.9914"/><path d="M340.12 204.22l.00088 2.3874c-2.606 3.1159-18.946 7.8255-39.437 11.142-15.595 2.391-35.927 4.1945-61.262 4.1945-24.069 0-43.263-1.7163-58.148-4.0014-23.529-3.4264-38.579-9.4262-41.6-11.217l.0132-2.7852c9.0748 6.0334 33.661 10.447 41.917 11.798 14.788 2.2701 33.868 3.9732 57.817 3.9732 25.216 0 45.434-1.7912 60.931-4.1663 14.701-2.1237 35.644-7.6465 39.767-11.324h.00088zm.01-8.4922l.00088 2.3874c-2.606 3.1142-18.946 7.8237-39.437 11.14-15.595 2.391-35.927 4.1945-61.262 4.1945-24.069 0-43.263-1.7145-58.148-4.0014-23.529-3.4246-38.579-9.4245-41.6-11.216l.0132-2.7852c9.0748 6.0325 33.661 10.447 41.917 11.796 14.788 2.2719 33.868 3.9758 57.817 3.9758 25.216 0 45.434-1.7921 60.931-4.169 14.701-2.1237 35.644-7.6465 39.767-11.324l.00088.002zM239.79 260.32c-42.772-.25489-79.421-11.659-87.16-13.544l5.6433 8.8344c13.67 5.7503 49.424 14.32 81.927 13.371 32.504-.94809 60.91-3.466 80.928-13.211l5.7862-9.1555c-13.642 6.425-60.068 13.639-87.125 13.705"/><path stroke-width=".55" d="M323.3 253.72c-.85016 1.2991-1.7171 2.5823-2.5963 3.8294-9.4417 3.3293-24.319 6.8245-30.597 7.844-12.824 2.6423-32.665 4.594-50.274 4.6029-37.89-.55474-68.905-7.9719-83.496-14.299l-1.1773-2.0241.19225-.30427 1.9966.77435c25.948 9.2834 55.091 12.987 82.698 13.652 17.538.0617 35.095-2.01 49.292-4.5491 21.771-4.3621 30.574-7.65 33.275-9.1405l.68701-.38541h-.00088zm5.0172-8.2753c.022.0256.0441.0503.0653.0776-.63585 1.0733-1.2911 2.1652-1.9622 3.2623-5.0357 1.8-18.702 5.7988-38.659 8.5893-13.149 1.7912-21.322 3.526-47.479 4.034-49.015-1.2471-80.75-10.831-88.289-13.195l-1.1174-2.1431c28.406 7.4154 57.422 12.592 89.408 13.121 23.931-.50976 34.112-2.2719 47.152-4.0499 23.271-3.6186 34.996-7.4498 38.515-8.5558-.0441-.0635-.0961-.13053-.15433-.19932l2.5231-.9428-.002.002z"/><path d="M328.83 197.76c.13873 28.137-14.26 53.386-25.858 64.525-16.408 15.759-38.163 25.896-63.569 26.363-28.37.52117-55.12-17.974-62.295-26.099-14.028-15.885-25.449-36.057-25.815-63.243 1.7376-30.709 13.793-52.1 31.268-66.769s40.743-21.813 60.121-21.302c22.358.59003 48.475 11.558 66.521 33.332 11.823 14.266 16.943 29.748 19.627 53.193zm-89.186-96.342c54.485 0 99.296 44.338 99.296 98.703 0 54.364-44.811 98.704-99.296 98.704s-98.924-44.339-98.924-98.704 44.439-98.703 98.924-98.703"/><path d="M239.91 101.08c54.534 0 99.011 44.483 99.011 99.022 0 54.538-44.478 99.02-99.011 99.02-54.534 0-99.011-44.481-99.011-99.02s44.478-99.022 99.011-99.022zm-96.832 99.0224c0 53.26 43.736 96.842 96.832 96.842 53.097 0 96.833-43.582 96.833-96.842 0-53.262-43.737-96.844-96.833-96.844s-96.832 43.584-96.832 96.844z"/><path d="M239.99 109.31c49.731 0 90.693 40.821 90.693 90.704 0 49.884-40.963 90.703-90.693 90.703s-90.693-40.819-90.693-90.703c0-49.883 40.964-90.704 90.693-90.704zm-88.515 90.7034c0 48.685 39.979 88.524 88.515 88.524s88.515-39.839 88.515-88.524c0-48.686-39.978-88.525-88.515-88.525-48.536 0-88.515 39.839-88.515 88.525z"/><path d="M243.98 100.68h-8.48545l.01 198.96h8.51455z"/><path d="M243.13 99.546h2.1598l.0185 201.25h-2.1616l-.0159-201.25zm-8.4213.0018h2.1766l.003 201.25H234.71v-201.25z"/><path d="M338.99 203.935v-7.3554l-5.99-5.58-34-9-49-5-59 3-42 10-8.48 6.28v7.3572l21.48-9.637 51-8h49l36 4 25 6z"/><path d="M239.95 184.77c23.383-.0432 46.07 2.2154 64.065 5.7194 18.569 3.7121 31.637 8.3556 36.105 13.571l-.005 2.5823c-5.3884-6.4902-22.973-11.248-36.518-13.968-17.858-3.474-40.393-5.7168-63.647-5.6736-24.538.0459-47.387 2.3698-64.984 5.8032-14.12 2.8019-32.951 8.3679-35.302 13.858v-2.689c1.2911-3.8003 15.313-9.4792 34.984-13.417 17.729-3.4572 40.62-5.7415 65.302-5.7864zm.01-8.4922c23.383-.0423 46.07 2.2172 64.065 5.7194 18.569 3.7139 31.637 8.3556 36.105 13.571l-.005 2.5823c-5.3884-6.4885-22.973-11.247-36.518-13.966-17.858-3.4757-40.393-5.7185-63.647-5.6736-24.538.0441-47.276 2.3698-64.875 5.8014-13.626 2.5832-33.226 8.3696-35.412 13.86v-2.6908c1.2911-3.7588 15.597-9.6414 34.985-13.417 17.729-3.4572 40.62-5.7397 65.302-5.7864zm-.48-43.3178c36.849-.18433 68.99 5.1523 83.695 12.685l5.3638 9.279c-12.781-6.888-47.456-14.05-89.005-12.979-33.854.20814-70.027 3.7271-88.176 13.41l6.4035-10.709c14.895-7.7241 50.022-11.643 81.72-11.684"/><path d="M239.97 140.62c21.017-.0556 41.325 1.1298 57.476 4.0437 15.041 2.7993 29.385 7.0009 31.436 9.2604l1.5901 2.8099c-4.9881-3.257-17.401-6.8836-33.339-9.906-16.006-3.0083-36.3-4.0049-57.2-3.9502-23.722-.0811-42.152 1.1712-57.969 3.9291-16.728 3.13-28.334 7.6015-31.197 9.7261l1.5583-2.9704c5.5631-2.8381 14.39-6.2592 29.223-8.9297 16.357-2.988 34.983-3.8841 58.423-4.0128h-.00088zm-.009-8.4843c20.113-.0529 39.972 1.068 55.452 3.8506 12.209 2.3768 24.283 6.0872 28.704 9.3892l2.3256 3.6954c-3.9536-4.3947-18.836-8.5593-31.974-10.892-15.361-2.6494-34.395-3.698-54.508-3.8656-21.108.0591-40.615 1.352-55.752 4.1081-14.441 2.7481-23.76 6.0016-27.703 8.5425l2.0451-3.0868c5.4414-2.8646 14.232-5.4954 25.303-7.6465 15.249-2.7764 34.876-4.0358 56.108-4.0949zM289.15 241.26c-18.218-3.4008-36.469-3.8947-49.217-3.7447-61.407.71967-81.244 12.609-83.665 16.209l-4.5894-7.4815c15.634-11.332 49.073-17.687 88.587-17.037 20.518.33602 38.224 1.6986 53.119 4.5835l-4.2358 7.4727"/><path stroke-width=".55" d="M239.58 236.46c17.082.25488 33.849.96044 50.033 3.9784l-1.172 2.069c-15.031-2.7746-31.055-3.8365-48.803-3.75-22.663-.17727-45.585 1.9394-65.541 7.6668-6.2968 1.7524-16.721 5.8006-17.784 9.1458l-1.1659-1.9226c.33601-1.9773 6.6363-6.081 18.414-9.3901 22.858-6.5458 44.239-7.6491 66.019-7.799v.002zm.77519-8.5963c17.698.33073 35.975 1.1492 53.74 4.6681l-1.2206 2.1537c-16.042-3.1847-31.369-4.2466-52.415-4.5702-22.735.0414-46.851 1.6625-68.778 8.0372-7.0791 2.062-19.297 6.5202-19.704 10.05l-1.1659-2.0655c.26545-3.2059 10.842-7.388 20.358-10.156 22.096-6.4241 46.275-8.076 69.186-8.1174z"/><path d="M327.58 247.38l-7.379 11.449L299 240l-55-37-62-34-32.19-11.01 6.86-12.72L159 144l20 5 66 34 38 24 32 23 13 15z"/><path d="M148.65 158.29c5.646-3.8294 47.139 14.655 90.555 40.834 43.301 26.254 84.677 55.921 80.942 61.473l-1.2285 1.9323-.56354.4445c.12083-.0864.74345-.84755-.0609-2.906-1.8449-6.0704-31.195-29.491-79.894-58.895-47.475-28.309-87.041-45.371-90.997-40.494l1.247-2.3892h-.00089zm180.44 88.927c3.57-7.052-34.916-36.044-82.632-64.272-48.813-27.666-83.994-43.951-90.42-39.095l-1.4278 2.5991c-.0124.14287.052-.17727.35364-.4101 1.1685-1.0195 3.1052-.95074 3.9792-.96662 11.065.16581 42.667 14.709 87.006 40.128 19.428 11.315 82.071 51.491 81.832 62.789.0168.97102.0803 1.1712-.28485 1.6519l1.5936-2.4236v-.002z"/></g><path fill="#fff" stroke="#000" stroke-width=".67" d="M180.6 211.01c0 16.271 6.6628 30.987 17.457 41.742 10.815 10.778 25.512 17.579 41.809 17.579 16.381 0 31.247-6.6525 42.016-17.389 10.769-10.735 17.443-25.552 17.446-41.88h-.002v-79.189l-118.74-.14111.0123 79.278h.002z"/><path fill="red" stroke="#000" stroke-width=".507" d="M182.82 211.12v.045c0 15.557 6.4414 29.724 16.775 40.009 10.354 10.305 24.614 16.712 40.214 16.712 15.681 0 29.912-6.3606 40.222-16.626 10.308-10.265 16.697-24.433 16.699-40.044h-.002V134.39l-113.84-.0185-.0697 76.748m91.022-53.747l.004 48.891-.0414 5.1717h.00088c0 1.3608-.082 2.9122-.24076 4.2333-.92512 7.7294-4.4801 14.467-9.7451 19.708-6.1636 6.1357-14.671 9.9413-24.047 9.9413-9.327 0-17.639-3.9379-23.829-10.1-6.3497-6.32-10.03-14.986-10.03-23.947l-.0132-54.023 67.94.12259.002.002z"/><g id="e"><g id="d" fill="#ff0" stroke="#000" stroke-width=".5"><path stroke="none" d="M190.19 154.43c.13493-5.521 4.0524-6.828 4.0806-6.8474.0282-.0185 4.2314 1.4076 4.2173 6.8986l-8.2978-.0512"/><path d="M186.81 147.69l-.68172 6.3447 4.1406.009c.0397-5.2493 3.9739-6.1225 4.0691-6.1031.0891-.005 3.9889 1.1606 4.0929 6.1031h4.1511l-.74962-6.3932-15.022.0379v.002zm-.96 6.37h16.946c.35717 0 .64908.35277.64908.78404 0 .43039-.29191.78141-.64908.78141H185.85c-.35717 0-.64908-.35102-.64908-.78141 0-.43127.29191-.78404.64908-.78404z"/><path d="M192.01 154.03c.0185-3.3126 2.2621-4.2501 2.2736-4.2483.00088 0 2.3423.96661 2.3609 4.2483h-4.6344m-5.8001-8.98h16.245c.34218 0 .62263.31839.62263.70468 0 .38717-.28045.70467-.62263.70467H186.21c-.34218 0-.62263-.31573-.62263-.70467 0-.38629.28045-.70468.62263-.70468zm.34 1.42h15.538c.32719 0 .59529.31662.59529.70379 0 .38805-.2681.70467-.59529.70467H186.55c-.32719 0-.59529-.31662-.59529-.70467 0-.38717.2681-.70379.59529-.70379zm5.02-10.59l1.2267.002v.87136h.89513v-.89076l1.2567.004v.88723h.89778v-.89076h1.2576l-.002 2.0117c0 .31574-.25398.52035-.54854.52035h-4.4113c-.29633 0-.56972-.23724-.5706-.52652l-.003-1.9879h.00088zm4.62 2.69l.27691 6.4514-4.3028-.0159.28486-6.4523 3.741.0168"/><path id="a" d="M190.94 141.56l.13141 3.4775-4.1256.002.11641-3.4793h3.8786-.00089z"/><use x="10.609" xlink:href="#a"/><path id="b" d="M186.3 139.04l1.1994.003v.87224h.8775v-.89253l1.2294.004v.889h.87926v-.89253l1.2302.002-.002 2.0117c0 .31398-.2487.51859-.5362.51859h-4.3169c-.28926 0-.55824-.23548-.55913-.52564l-.003-1.9888h.00088z"/><use x="10.609" xlink:href="#b"/><path fill="#000" stroke="none" d="M193.9 140.61c-.0265-.62706.87661-.63411.86603 0v1.5364h-.866v-1.536"/><path id="c" fill="#000" stroke="none" d="M188.57 142.84c-.003-.6059.83693-.61824.82635 0v1.1871h-.826v-1.187"/><use x="10.641" xlink:href="#c"/></g><use y="46.32" xlink:href="#d"/><use transform="rotate(-45.202 312.766 180.004)" xlink:href="#d"/></g><use x="45.714" xlink:href="#d"/><use transform="matrix(-1 0 0 1 479.792 0)" xlink:href="#e"/><g id="f" fill="#fff"><path fill="#039" d="M232.636 202.406v.005c0 2.2119.84927 4.2272 2.2118 5.6894 1.3652 1.4667 3.2454 2.3777 5.302 2.3777 2.0672 0 3.9439-.90487 5.3029-2.3654 1.3581-1.4587 2.2021-3.47219 2.2021-5.693v-10.768l-14.992-.0123-.0273 10.766"/><circle cx="236.074" cy="195.735" r="1.486"/><circle cx="244.392" cy="195.742" r="1.486"/><circle cx="240.225" cy="199.735" r="1.486"/><circle cx="236.074" cy="203.916" r="1.486"/><circle cx="244.383" cy="203.905" r="1.486"/></g><use y="-26.016" xlink:href="#f"/><use x="-20.799" xlink:href="#f"/><use x="20.745" xlink:href="#f"/><use y="25.784" xlink:href="#f"/><path d="M66.27039 418.5024c.69439.56236 1.0367 1.50126 1.0367 2.8216 0 1.31543-.34231 2.27878-1.0367 2.89004-.6944.60637-1.66753.90956-2.9145.90956h-4.93412v-7.4623h4.93412c1.24697 0 2.2201.28363 2.9145.8411zm4.01477 9.12982c1.51104-1.2372 2.269-3.34972 2.269-6.34246 0-2.73846-.75796-4.76296-2.269-6.06861-1.51593-1.30566-3.54533-1.96093-6.08818-1.96093H53.16003v25.3405h5.26174v-9.11026h5.37911c2.80692 0 4.96835-.62104 6.48428-1.85824zm17.55057 5.98548c-.76775 1.01714-1.86802 1.5306-3.30082 1.5306-1.4328 0-2.53307-.51346-3.3106-1.5306-.77263-1.02203-1.15895-2.4695-1.15895-4.35219 0-1.8778.38632-3.32526 1.15895-4.3424.77753-1.01226 1.8778-1.52083 3.3106-1.52083s2.53307.50857 3.30082 1.52082c.76774 1.01715 1.15406 2.46462 1.15406 4.34241 0 1.8827-.38632 3.33016-1.15406 4.3522zm3.92186 2.70423c1.5795-1.95115 2.3717-4.30329 2.3717-7.05642 0-2.70422-.7922-5.04658-2.3717-7.03196-1.5844-1.9805-3.98543-2.97318-7.20312-2.97318-3.22258 0-5.62362.99269-7.20312 2.97318-1.58439 1.98538-2.37659 4.32774-2.37659 7.03196 0 2.75313.7922 5.10527 2.3766 7.05642 1.5795 1.95604 3.98053 2.93406 7.2031 2.93406 3.2177 0 5.61873-.97802 7.20313-2.93406zm-7.20312-16.95887zm23.49204.05868c-.06357-.00489-.14181-.00489-.23473-.00489-1.46703 0-2.66021.38143-3.57466 1.14918-.56236.45967-1.22252 1.31543-1.9756 2.5624v-3.26658H97.5817v18.73886h4.9341v-8.95377c0-1.50615.19072-2.6162.56726-3.33994.67972-1.2812 2.00005-1.9218 3.97565-1.9218.1467 0 .3423.00488.58192.01466.23962.01467.51835.03423.82643.06847v-5.01725c-.22006-.01467-.35698-.01956-.42055-.02934zm1.36434 4.1028h2.6162v11.53574c0 1.16874.27385 2.03428.82154 2.59665.85088.88021 2.43038 1.2812 4.74828 1.20296l2.31791-.08802v-3.66269a7.9571 7.9571 0 0 1-.489.02934c-.16627.0049-.32275.00978-.47435.00978-.99758 0-1.58928-.0978-1.78488-.28851-.1956-.18583-.29341-.66506-.29341-1.4328v-9.90245h3.04164V420.033h-3.04164v-5.22262h-4.84609v5.22262h-2.6162zm18.53348-3.66269h-5.02214v11.29613c0 2.14187.27385 3.76538.81176 4.86565.96335 1.99516 2.83137 2.99274 5.60406 2.99274.96334 0 1.79955-.12714 2.5184-.38142.71395-.2494 1.45725-.71885 2.225-1.40835.25428-.22006.46944-.46945.65527-.75797.18093-.28362.2983-.45967.3423-.51346v2.64554h4.76296v-18.73886h-4.96834v10.19586c0 1.20296-.16137 2.1712-.48412 2.90472-.61615 1.35456-1.76533 2.0294-3.43774 2.0294-1.30566 0-2.18099-.47435-2.63088-1.42792-.2494-.53791-.37653-1.33989-.37653-2.40593zm3.43774-.49879zm24.13753 13.91723c-.7922.86554-1.76044 1.29587-2.90472 1.29587-1.72131 0-2.9096-.7873-3.57466-2.3717-.36676-.84598-.55258-1.81422-.55258-2.90472 0-1.26164.17115-2.3179.51835-3.17856.65038-1.61862 1.83867-2.42549 3.5551-2.42549 1.26165 0 2.269.46456 3.0172 1.39368.75307.92912 1.1296 2.27878 1.1296 4.05878 0 1.88758-.3961 3.26659-1.18829 4.13214zm-1.66752-13.4331c-.69929-.28852-1.51593-.43034-2.45972-.43034-2.54286 0-4.50868.94868-5.89746 2.84604-1.3839 1.89247-2.0783 4.23483-2.0783 7.02218 0 2.88516.71885 5.17373 2.15654 6.8657 1.43769 1.69198 3.36439 2.53797 5.77032 2.53797 1.55994 0 2.82647-.37165 3.7996-1.11984.53791-.40098 1.0416-1.00247 1.51104-1.80444v1.20296c0 1.78978-.1956 3.0612-.58192 3.81917-.59659 1.17851-1.78 1.77022-3.54532 1.77022-1.24698 0-2.13697-.22495-2.6651-.66995-.30808-.25428-.53303-.66505-.66995-1.2372h-5.3302c.16137 1.86802.99757 3.27148 2.5135 4.21038 1.51104.9389 3.46708 1.40835 5.86323 1.40835 3.96587 0 6.64565-1.05626 8.04422-3.1639.81175-1.2274 1.22252-3.04653 1.22252-5.46713v-17.7755h-4.76295v2.69933c-.73352-1.31544-1.69687-2.225-2.89005-2.714zm-.8949-.48413zm23.45293 10.1274v1.824c-.03423 1.63819-.4988 2.7678-1.3839 3.38395-.89.62105-1.86313.92912-2.9145.92912-.66505 0-1.2323-.18582-1.69686-.55747-.46456-.37165-.6944-.97802-.6944-1.81422 0-.9389.37654-1.6333 1.1345-2.08319.445-.26406 1.1883-.48412 2.2201-.66994l1.10028-.20539c.5477-.10269.98291-.21516 1.29588-.33252.31296-.12225.62593-.27874.9389-.47434zm-2.97807-2.28857l-1.66753.20539c-1.88758.2445-3.32038.64549-4.2984 1.20785-1.7751 1.03181-2.66021 2.69934-2.66021 5.00257 0 1.7751.55258 3.14923 1.65774 4.11747 1.10517.96824 2.50374 1.45236 4.2006 1.45236 1.3301 0 2.5233-.30319 3.57955-.91445.88022-.51346 1.65775-1.1394 2.33747-1.87291.03423.42544.07824.80198.13692 1.1345.05869.33253.16138.6895.30808 1.06604h5.3302v-.72373c-.32274-.1467-.56235-.33742-.72373-.56725-.15648-.22495-.25428-.66017-.28851-1.30566-.02445-.84599-.03423-1.56972-.03423-2.16631v-8.5919c0-2.25923-.79709-3.79473-2.39126-4.61137-1.59417-.81176-3.41818-1.21764-5.46713-1.21764-3.15412 0-5.37422.82154-6.6701 2.4744-.81665 1.05625-1.27143 2.40103-1.37412 4.03922h4.72384c.11736-.72374.3472-1.29588.6895-1.71643.47923-.57703 1.30077-.86066 2.45972-.86066 1.03181 0 1.81423.1467 2.34725.43522.53302.2934.79709.82643.79709 1.59417 0 .63083-.3472 1.0905-1.04648 1.3888-.39121.17604-1.0367.31785-1.94626.43032zm.25917-7.83883zm16.96865 19.23765v-25.3405h-4.89988v25.3405zm15.71189-19.23765c-1.48659 3.43774-2.23478 6.83147-2.23478 10.1763 0 2.89983.57215 5.78499 1.72132 8.65059.97313 2.4646 2.39126 4.96834 4.2446 7.51119h2.90473l-1.04649-1.9267c-1.44257-2.65532-2.44994-5.4378-3.0074-8.33762-.36676-1.88758-.55259-3.9561-.55259-6.20554 0-3.48175.47434-6.63586 1.42791-9.45256.57214-1.68708 1.65775-3.98543 3.24703-6.89504l-2.8167-.03423-1.22253 1.6822c-.94867 1.32032-1.83867 2.92916-2.6651 4.83141zm14.80233 11.41838h-5.05147c0 2.63577.94379 4.70428 2.83626 6.21043 1.88758 1.51104 4.48422 2.26412 7.78504 2.26412 3.23235 0 5.73608-.76775 7.5063-2.29835 1.77022-1.52571 2.65532-3.45241 2.65532-5.76543 0-2.25922-.75796-3.98543-2.269-5.17372-.97313-.76775-2.4206-1.3839-4.33263-1.83868l-4.36686-1.05137c-1.6822-.40099-2.78247-.74819-3.30082-1.04648-.80197-.4499-1.20296-1.12473-1.20296-2.0294 0-.9878.40588-1.75554 1.22252-2.30323.81176-.55258 1.90225-.82643 3.26659-.82643 1.22253 0 2.24945.21028 3.07587.63571 1.2372.6406 1.90225 1.7262 1.99516 3.24703h5.0857c-.08801-2.68955-1.0807-4.7434-2.9634-6.16153-1.88757-1.41323-4.16636-2.1223-6.83635-2.1223-3.19813 0-5.61873.74819-7.27158 2.24945-1.64796 1.50615-2.4744 3.38884-2.4744 5.65784 0 2.48906.85578 4.31796 2.56242 5.4867 1.00736.69928 2.83137 1.34477 5.46713 1.94136l2.67978.60149c1.56972.3423 2.72378.7384 3.4573 1.1883.73351.45477 1.10027 1.10515 1.10027 1.94136 0 1.4328-.7384 2.41082-2.2201 2.93895-.77753.27385-1.78978.41077-3.04165.41077-2.08318 0-3.55999-.51835-4.41576-1.56483-.46945-.57214-.7873-1.4377-.94868-2.59176zm5.1395-18.29386zm32.92504.77264h-20.52864v4.4891h7.61878v20.8514h5.32532v-20.8514h7.58454zm10.01982 15.76568l3.26658-9.97092 3.1639 9.97092zm.32763-15.76568l-9.0418 25.3405h5.5356l1.75555-5.20796h9.3352l1.6333 5.20795h5.74097l-8.97333-25.3405zm2.95851 0zm29.67313 0l-5.0368 11.03695-5.26175-11.03695h-6.23977l8.76795 15.81458v9.52591h5.29598v-9.52591l8.47454-15.81458zm-5.26175 0zm21.21326 15.76568l3.26658-9.97092 3.1639 9.97092zm.32763-15.76568l-9.0418 25.3405h5.5356l1.75555-5.20796h9.3352l1.6333 5.20795h5.74097l-8.97333-25.3405zm2.95851 0zm18.6704 0h-5.6236l7.18844 25.3405h4.91455l3.0612-14.817.89489-4.89989.89489 4.89988 3.05631 14.817h5.05636l7.13466-25.3405h-5.37911l-3.38884 14.66542-.77264 3.88274-.77263-4.03923-3.0123-14.50892h-5.5845l-2.85582 14.59694-.7384 3.9512-.72374-4.03922zm36.7051 15.76568l3.26658-9.97092 3.1639 9.97092zm.32763-15.76568l-9.04668 25.3405h5.5356l1.75554-5.20796h9.3352l1.6333 5.20795h5.74097l-8.97333-25.3405zm2.95362 0zm29.67313 0l-5.0368 11.03695-5.26175-11.03695h-6.23977l8.76795 15.81458v9.52591h5.29598v-9.52591l8.47454-15.81458zm-5.26175 0zm26.5288 2.65043c-2.3717 2.39126-3.56 5.80455-3.56 10.2252 0 4.09301 1.04648 7.31559 3.12967 9.66284 2.08807 2.33746 4.95367 3.5062 8.5968 3.5062 2.94383 0 5.35954-.86555 7.24712-2.59664 1.88269-1.72621 3.05631-3.97566 3.51598-6.73856h-5.24708c-.35208 1.30565-.80197 2.28856-1.33988 2.93895-.97313 1.21763-2.38637 1.824-4.2446 1.824-1.80935 0-3.30572-.70906-4.47934-2.1223-1.17362-1.41813-1.76044-3.54532-1.76044-6.38647 0-2.84115.55258-5.0417 1.66753-6.59185 1.11005-1.55506 2.63087-2.33258 4.55268-2.33258 1.89247 0 3.32038.55258 4.28373 1.65285.5379.61616.97802 1.5355 1.32032 2.74824h5.29598c-.07824-1.5795-.66505-3.15412-1.75065-4.72873-1.97071-2.79224-5.0906-4.19081-9.35476-4.19081-3.18346 0-5.80944 1.04159-7.87306 3.12966zm7.72146-3.42307zm31.44824 20.01029c-1.2323 1.55016-2.89494 2.3228-4.9928 2.3228-2.09785 0-3.77026-.77264-5.01724-2.3228-1.25186-1.54527-1.8778-3.74582-1.8778-6.60164 0-2.85092.62594-5.05147 1.8778-6.60163 1.24698-1.54527 2.9194-2.3228 5.01724-2.3228 2.09786 0 3.7605.77753 4.9928 2.33258 1.2323 1.55016 1.84845 3.7507 1.84845 6.59185 0 2.85582-.61615 5.05637-1.84845 6.60164zm3.3106 3.8534c2.55752-2.4206 3.83383-5.90235 3.83383-10.45504 0-4.6407-1.27631-8.12734-3.83384-10.45014-1.91203-1.9756-4.67982-2.95851-8.30339-2.95851-3.62356 0-6.39136.98291-8.30339 2.95851-2.5673 2.3228-3.8485 5.80944-3.8485 10.45014 0 4.55269 1.2812 8.03444 3.8485 10.45504 1.91203 1.9707 4.67983 2.95362 8.3034 2.95362 3.62356 0 6.39135-.98291 8.30338-2.95362zm-8.3034-23.86369zm31.01302.77264l-5.55027 19.23765-5.50136-19.23765h-5.65784l8.56256 25.3405h5.00257l8.6457-25.3405zm13.49667 25.3405v-25.3405h-5.26174v25.3405zm-2.63087-25.8393zm12.70448 4.89989h4.88521c2.40593 0 4.01477.6895 4.82164 2.0734.80687 1.379 1.21274 3.3595 1.21274 5.93658 0 1.86802-.26895 3.48175-.81175 4.83142-.98291 2.4646-2.72379 3.69691-5.22263 3.69691h-4.88521zm9.69707-3.84851c-1.0416-.3472-2.34725-.52813-3.92186-.55258H514.673v25.3405h10.9147c3.82895 0 6.66031-1.57462 8.4941-4.72873 1.35456-2.33747 2.0294-5.1884 2.0294-8.55768 0-1.3301-.16138-2.72867-.47924-4.1957-.32274-1.46703-.92423-2.83137-1.80933-4.09302-1.10028-1.55994-2.53797-2.63087-4.31307-3.2128zm16.02486 5.84367c-.90956-2.10764-2.22989-4.37664-3.97566-6.80702h-3.69202l1.04648 1.9218c1.44258 2.65044 2.44505 5.42313 3.00741 8.32296.36676 1.90225.55258 3.97565.55258 6.2251 0 3.5062-.51346 6.73366-1.5306 9.6775-.59659 1.74088-1.65285 3.97565-3.1639 6.70433h3.62846l1.21764-1.66752c.7922-1.00737 1.63329-2.50863 2.52818-4.50379 1.59417-3.56488 2.39126-7.07108 2.39126-10.5235 0-3.13944-.66995-6.25443-2.00983-9.34986z"/></svg>