<svg id="Layer_1" data-name="Layer 1" xmlns="http://www.w3.org/2000/svg" viewBox="0 0 323.56914 80.63364"><path d="M83.80093,38.80427a7.1081,7.1081,0,0,1-6.2721-2.9777q-2.02725-2.9775-2.0273-8.4577t2.0273-8.4578a7.10826,7.10826,0,0,1,6.2721-2.9776,7.876,7.876,0,0,1,2.7875.4435,5.961,5.961,0,0,1,2.059,1.172,6.36581,6.36581,0,0,1,1.4255,1.7423,10.24525,10.24525,0,0,1,.982,2.1223l-3.1994,1.077a12.51936,12.51936,0,0,0-.5702-1.4254,4.06859,4.06859,0,0,0-.7919-1.1404,3.59367,3.59367,0,0,0-1.1404-.7602,3.86229,3.86229,0,0,0-1.5838-.2851,3.68874,3.68874,0,0,0-3.4211,1.80559A9.24272,9.24272,0,0,0,79.271,25.5v3.7378a9.41968,9.41968,0,0,0,1.0771,4.8466,3.70571,3.70571,0,0,0,3.4211,1.7739,3.86229,3.86229,0,0,0,1.5838-.2851,3.59528,3.59528,0,0,0,1.1404-.7602,4.06859,4.06859,0,0,0,.7919-1.1404,12.51366,12.51366,0,0,0,.5702-1.4255l3.1994,1.0771a11.0526,11.0526,0,0,1-.982,2.154,7.06011,7.06011,0,0,1-1.4255,1.7422,6.72631,6.72631,0,0,1-2.059,1.1721A8.42988,8.42988,0,0,1,83.80093,38.80427Zm18.3603,0a8.19154,8.19154,0,0,1-3.6429-.7603,6.9863,6.9863,0,0,1-2.5342-2.249,10.42648,10.42648,0,0,1-1.4571-3.5795,22.29838,22.29838,0,0,1-.4752-4.8466,22.133,22.133,0,0,1,.4752-4.8149,10.43008,10.43008,0,0,1,1.4571-3.6112,6.71331,6.71331,0,0,1,2.5342-2.2174,7.91679,7.91679,0,0,1,3.6429-.7919,7.72165,7.72165,0,0,1,3.611.7919,6.40647,6.40647,0,0,1,2.534,2.2174,10.05737,10.05737,0,0,1,1.489,3.6112,22.12065,22.12065,0,0,1,.475,4.8149,22.28671,22.28671,0,0,1-.475,4.8466,10.052,10.052,0,0,1-1.489,3.5795,6.65482,6.65482,0,0,1-2.534,2.249A7.98849,7.98849,0,0,1,102.16123,38.80427Zm0-2.946a3.519,3.519,0,0,0,3.358-1.7739,10.25847,10.25847,0,0,0,.982-4.8782V25.5a9.98451,9.98451,0,0,0-.982-4.8149,4.02517,4.02517,0,0,0-6.7158,0,9.97637,9.97637,0,0,0-.982,4.8149v3.7378a10.17024,10.17024,0,0,0,.982,4.8466A3.51838,3.51838,0,0,0,102.16123,35.85827Zm16.523,2.5659-6.24-22.1106h3.832l2.915,11.1503,1.932,7.5075h.19l1.932-7.5075,2.946-11.1503h3.675l-6.24,22.1106Zm14.496,0v-2.6926h5.195V19.00617h-5.195v-2.6926h13.937v2.6926h-5.195v16.7254h5.195v2.6926Zm19.057-22.1106h6.589q4.24348,0,6.272,2.8193,2.058,2.81925,2.059,8.236,0,5.4168-2.059,8.236-2.028,2.81926-6.272,2.81931h-6.589Zm6.367,19.1963a4.16262,4.16262,0,0,0,3.611-1.6156,7.85,7.85,0,0,0,1.204-4.6881v-3.6746a7.701,7.701,0,0,0-1.204-4.6565,4.13137,4.13137,0,0,0-3.611-1.6472h-2.851v16.282Zm26.86,3.2944a10.257,10.257,0,0,1-4.752-1.0137,10.60783,10.60783,0,0,1-3.326-2.7242l2.471-2.3124a8.36623,8.36623,0,0,0,2.566,2.154,6.99633,6.99633,0,0,0,3.231.72859,4.70645,4.70645,0,0,0,3.199-.95029,3.249,3.249,0,0,0,1.077-2.5659,2.7816,2.7816,0,0,0-.76-2.059,5.26808,5.26808,0,0,0-2.692-1.14031l-1.964-.34849a9.4852,9.4852,0,0,1-4.847-2.1223,5.4648,5.4648,0,0,1-1.616-4.1814,6.2259,6.2259,0,0,1,.539-2.6292,5.59533,5.59533,0,0,1,1.552-1.9956,7.226,7.226,0,0,1,2.439-1.2671,10.753,10.753,0,0,1,3.2-.4435,9.88162,9.88162,0,0,1,4.339.887,8.53955,8.53955,0,0,1,3.136,2.5024l-2.502,2.2174a6.50413,6.50413,0,0,0-2.091-1.7739,6.4209,6.4209,0,0,0-3.072-.6652,4.94047,4.94047,0,0,0-2.946.7603,2.57031,2.57031,0,0,0-1.046,2.2173,2.53618,2.53618,0,0,0,.856,2.0907,6.353,6.353,0,0,0,2.66,1.0137l1.964.4118a9.17475,9.17475,0,0,1,4.847,2.154,5.58408,5.58408,0,0,1,1.552,4.1814,7.138,7.138,0,0,1-.538,2.8192,6.00064,6.00064,0,0,1-1.584,2.1857,7.34264,7.34264,0,0,1-2.503,1.3938,11.1312,11.1312,0,0,1-3.389.4752Zm24.127-.3801a2.76193,2.76193,0,0,1-2.091-.7603,3.54784,3.54784,0,0,1-.887-1.99561h-.158a4.05432,4.05432,0,0,1-1.742,2.34411,5.686,5.686,0,0,1-3.073.7919,5.50838,5.50838,0,0,1-3.96-1.33051,4.77447,4.77447,0,0,1-1.362-3.5795,4.2163,4.2163,0,0,1,1.774-3.70619,9.30293,9.30293,0,0,1,5.258-1.2354h2.978V27.559a3.1673,3.1673,0,0,0-.824-2.3441,3.49883,3.49883,0,0,0-2.565-.82361,4.0975,4.0975,0,0,0-2.376.6335,5.6572,5.6572,0,0,0-1.552,1.6155l-2.059-1.8689a6.47461,6.47461,0,0,1,2.312-2.2808,7.339,7.339,0,0,1,3.896-.9186,7.25826,7.25826,0,0,1,4.91,1.4888,5.362,5.362,0,0,1,1.711,4.2764v8.2677h1.742v2.81931h-1.932Zm-6.969-2.2491a4.7036,4.7036,0,0,0,2.661-.6969,2.24867,2.24867,0,0,0,1.045-1.9323v-2.3758h-2.914q-3.5805,0-3.58,2.2174v.5702a2.00183,2.00183,0,0,0,.729,1.6789A3.50117,3.50117,0,0,0,202.62225,36.17507Zm13.14-11.4037h-2.502v-2.8193h2.502v-2.7242a4.34738,4.34738,0,0,1,1.046-3.1043,4.04646,4.04646,0,0,1,3.136-1.1404h2.724v2.8193h-3.453v4.1496h3.453v2.8193h-3.453v13.6528h-3.453Zm16.249,14.0329a7.91822,7.91822,0,0,1-3.168-.6019,6.6597,6.6597,0,0,1-2.376-1.7105,8.14651,8.14651,0,0,1-1.52-2.7243,11.91479,11.91479,0,0,1-.507-3.5795,11.60594,11.60594,0,0,1,.507-3.5478,7.75137,7.75137,0,0,1,1.52-2.7242,6.49294,6.49294,0,0,1,2.376-1.7422,7.91822,7.91822,0,0,1,3.168-.6019,7.43784,7.43784,0,0,1,3.167.6336,6.22779,6.22779,0,0,1,2.313,1.7739,7.28373,7.28373,0,0,1,1.362,2.5975,10.45813,10.45813,0,0,1,.475,3.1993v1.2988h-11.309v.5385a4.51908,4.51908,0,0,0,1.109,3.136,4.23647,4.23647,0,0,0,3.231,1.2038,4.68486,4.68486,0,0,0,2.566-.6653,5.79869,5.79869,0,0,0,1.774-1.8056l2.027,1.9957a6.62755,6.62755,0,0,1-2.661,2.4391A8.81984,8.81984,0,0,1,232.01126,38.80427Zm0-14.5397a4.24141,4.24141,0,0,0-1.648.3167,3.825,3.825,0,0,0-1.267.887,4.161,4.161,0,0,0-.792,1.3621,5.11193,5.11193,0,0,0-.285,1.7422v.2218h7.666v-.3168a4.49758,4.49758,0,0,0-.982-3.041A3.32354,3.32354,0,0,0,232.01126,24.26457Zm11.393,14.1596V16.31357h9.503a6.16713,6.16713,0,0,1,4.751,1.8056,6.83088,6.83088,0,0,1,1.679,4.8466,6.83105,6.83105,0,0,1-1.679,4.8466,6.16719,6.16719,0,0,1-4.751,1.8056h-5.924v8.8062Zm3.579-11.9423h5.702a3.02255,3.02255,0,0,0,2.122-.6969,2.71708,2.71708,0,0,0,.761-2.059v-1.5204a2.61257,2.61257,0,0,0-.761-2.0274,2.9403,2.9403,0,0,0-2.122-.7285h-5.702Zm27.725,11.9423a2.76191,2.76191,0,0,1-2.091-.7603,3.55448,3.55448,0,0,1-.887-1.99561h-.158a4.05427,4.05427,0,0,1-1.742,2.34411,5.686,5.686,0,0,1-3.073.7919,5.51161,5.51161,0,0,1-3.96-1.33051,4.77455,4.77455,0,0,1-1.362-3.5795,4.21865,4.21865,0,0,1,1.774-3.70619,9.30439,9.30439,0,0,1,5.259-1.2354h2.977V27.559a3.17087,3.17087,0,0,0-.823-2.3441,3.50144,3.50144,0,0,0-2.566-.82361,4.09755,4.09755,0,0,0-2.376.6335,5.67089,5.67089,0,0,0-1.552,1.6155l-2.059-1.8689a6.47467,6.47467,0,0,1,2.312-2.2808,7.34279,7.34279,0,0,1,3.897-.9186,7.25717,7.25717,0,0,1,4.909,1.4888,5.36205,5.36205,0,0,1,1.711,4.2764v8.2677h1.742v2.81931Zm-6.969-2.2491a4.70372,4.70372,0,0,0,2.661-.6969,2.24873,2.24873,0,0,0,1.045-1.9323v-2.3758h-2.914q-3.579,0-3.58,2.2174v.5702a2.00189,2.00189,0,0,0,.729,1.6789,3.50114,3.50114,0,0,0,2.059.5385Zm16.754,2.2491a3.22709,3.22709,0,0,1-3.643-3.57951V24.77137h-2.566v-2.8193h1.394a1.47072,1.47072,0,0,0,1.172-.3801,1.80048,1.80048,0,0,0,.349-1.2354V17.454h3.104v4.4981h3.453v2.8193h-3.453V35.60486h3.199v2.81931Zm7.008-23.441h3.453v9.6932h.158a5.49189,5.49189,0,0,1,1.616-2.2174,4.68441,4.68441,0,0,1,3.009-.887,4.82108,4.82108,0,0,1,3.928,1.6789,7.00477,7.00477,0,0,1,1.425,4.7199v10.4534h-3.452V28.38257q0-3.833-3.105-3.833a4.82,4.82,0,0,0-1.33.1901,3.484,3.484,0,0,0-1.141.5068,2.76674,2.76674,0,0,0-.823.887,2.6012,2.6012,0,0,0-.285,1.23539v11.0553h-3.453Zm23.602,23.8211a8.4501,8.4501,0,0,1-3.928-.8236,8.61184,8.61184,0,0,1-2.756-2.2808l2.217-2.0273a7.44376,7.44376,0,0,0,2.028,1.7422,5.54632,5.54632,0,0,0,2.629.6019,3.63259,3.63259,0,0,0,2.249-.57021,1.98627,1.98627,0,0,0,.76-1.6472,1.80694,1.80694,0,0,0-.538-1.3304,2.82259,2.82259,0,0,0-1.806-.7286l-1.52-.19a7.98676,7.98676,0,0,1-3.992-1.4572,4.2115,4.2115,0,0,1-1.425-3.4528,4.83526,4.83526,0,0,1,.443-2.1223,4.35928,4.35928,0,0,1,1.236-1.5839,5.81186,5.81186,0,0,1,1.932-1.0136,8.52909,8.52909,0,0,1,2.502-.3485,8.09083,8.09083,0,0,1,3.612.6969,8.26387,8.26387,0,0,1,2.534,1.9323l-2.123,2.0273a5.31653,5.31653,0,0,0-1.678-1.2987,4.70309,4.70309,0,0,0-2.345-.5702,3.30751,3.30751,0,0,0-2.122.5702,1.86854,1.86854,0,0,0-.665,1.4888,1.70633,1.70633,0,0,0,.602,1.4255,4.31354,4.31354,0,0,0,1.932.6968l1.521.1901a7.10835,7.10835,0,0,1,3.959,1.6155,4.10391,4.10391,0,0,1,1.267,3.1677,4.94839,4.94839,0,0,1-.475,2.1857,4.63481,4.63481,0,0,1-1.299,1.6472,6.14836,6.14836,0,0,1-2.059,1.0771,8.91577,8.91577,0,0,1-2.692.3801ZM38.09584,17.74577a17.71147,17.71147,0,0,0-2.6421-6.72325,12.00085,12.00085,0,0,0-3.35861,3.10475,13.78534,13.78534,0,0,1,1.5673,4.4003c.4926,2.8144-.112,6.5892-1.7017,10.9895a62.38821,62.38821,0,0,1-3.3362,7.371c-.5598,1.07211-1.1419,2.07731-1.7017,3.0377-1.0076,1.69761-1.9704,3.2165-2.7988,4.445-1.8809-1.38489-4.3214-3.2835-6.8068-5.4948C10.98067,33.13557,7.08468,27.61847,6.32339,23.32987A13.87006,13.87006,0,0,1,17.58593,7.27a15.02544,15.02544,0,0,1,2.4406-.22336,13.852,13.852,0,0,1,7.41131,2.16662,17.818,17.818,0,0,1,3.3586-3.12709A18.25746,18.25746,0,0,0,20.02653,2.57937a17.83959,17.83959,0,0,0-3.2243.29037A18.31582,18.31582,0,0,0,1.91243,24.11167c2.32863,13.1561,23.33111,26.4462,23.33111,26.4462s1.8808-2.457,4.2318-6.1871c.112-.1787.2239-.3798.3583-.5584.08959-.1564.2015-.3128.29109-.4915q.33585-.53595.6717-1.1391c.1791-.2904.3582-.6031.5374-.9158.0447-.0893.1119-.1787.1567-.268.112-.1787.2015-.3574.3135-.5361.0671-.1117.1119-.2234.1791-.3351.0896-.1786.1791-.335.2687-.5137.0448-.08929.1119-.1787.1567-.2904.3135-.5807.627-1.1615.918-1.7645.112-.2011.2016-.4021.3135-.6255.0896-.1786.1791-.3797.2687-.5584.2015-.4244.4254-.8711.6269-1.31779C37.133,29.383,39.03623,23.03948,38.09584,17.74577Z"/><path d="M44.79063,2.86974a17.48616,17.48616,0,0,0-3.2243-.29037,18.49013,18.49013,0,0,0-8.7324,2.2113,3.571,3.571,0,0,0-.49259.29037c-.1567.08935-.31341.17869-.4478.268-.1791.11168-.3806.2457-.5597.35738l-.4031.268c-.0224.02234-.0447.02234-.0671.04467-.1568.11168-.2911.22337-.4479.335-.13431.11168-.291.22336-.4254.335l-.06711.067c-.13439.11168-.24629.201-.38069.31271-.0224.02234-.0448.04467-.0672.04467-.1343.11169-.2463.22337-.3806.335-.0224.02234-.0448.04467-.0672.04467-.1119.11168-.2463.22337-.3582.35738l-.0224.02234-.4031.40206v.02233a3.70954,3.70954,0,0,0-.291.31271l-.4031.46906c-.0447.067-.1119.11169-.1567.1787s-.112.134-.1567.201-.112.134-.1568.201c-.0895.11168-.1567.201-.2463.31271-.0447.067-.1119.134-.1567.201a3.26672,3.26672,0,0,0-.2015.29037c-.1344.17869-.2463.35738-.3807.55841a18.05038,18.05038,0,0,0-2.6197,6.72325c-.9404,5.2937.9628,11.6372,3.5825,17.333a53.91313,53.91313,0,0,0,2.5302-5.58409c-1.6121-4.3779-2.1943-8.1527-1.7017-10.9895A13.86968,13.86968,0,0,1,41.54394,7.02431a12.888,12.888,0,0,1,2.4406.22336,13.8635,13.8635,0,0,1,11.2849,16.0599c-.7613,4.3109-4.6796,9.8056-11.0386,15.5237a84.95163,84.95163,0,0,1-6.8068,5.4948c-1.1867-1.7869-2.6869-4.1322-4.1199-6.7903-.8284,1.6306-1.7016,3.1941-2.5301,4.6013a91.376,91.376,0,0,0,5.5529,8.3762s21.0472-13.2455,23.3759-26.4016A18.34788,18.34788,0,0,0,44.79063,2.86974Z"/><path d="M91.45742,64.613a6.49955,6.49955,0,0,1-4.271,1.24708h-3.5459v6.124H80.10488V54.95378h7.3125a5.9028,5.9028,0,0,1,4.03223,1.3164,5.14528,5.14528,0,0,1,1.50342,4.0791Q92.953,63.36541,91.45742,64.613Zm-2.71631-6.13574a2.86686,2.86686,0,0,0-1.89355-.5664h-3.207v5.01464h3.207a2.71876,2.71876,0,0,0,1.89355-.6123,2.49774,2.49774,0,0,0,.67627-1.94043A2.34974,2.34974,0,0,0,88.74111,58.47721Z"/><path d="M102.77383,59.09538c.042.0039.13672.00976.2832.01757v3.374q-.312-.03516-.55469-.04688c-.16162-.00683-.293-.01172-.39306-.01172a2.73077,2.73077,0,0,0-2.66895,1.29493,5.03772,5.03772,0,0,0-.38135,2.24121v6.01953H95.74307V59.3903h3.14257v2.19531a6.94614,6.94614,0,0,1,1.32911-1.72168,3.61789,3.61789,0,0,1,2.40283-.77441C102.67959,59.08952,102.73135,59.09147,102.77383,59.09538Z"/><path d="M115.72549,70.443a6.93635,6.93635,0,0,1-9.68213,0,7.81384,7.81384,0,0,1,0-9.46,6.86611,6.86611,0,0,1,9.68213,0,7.812,7.812,0,0,1,0,9.46Zm-2.63428-1.81933a5.87721,5.87721,0,0,0,0-5.832,2.92569,2.92569,0,0,0-4.44238,0,5.84209,5.84209,0,0,0,0,5.832,2.91666,2.91666,0,0,0,4.44238,0Z"/><path d="M118.48086,74.39909c.18506.01465.31592.02441.39258.02832q.11573.00585.208.00586a1.0279,1.0279,0,0,0,.73388-.23633,1.27556,1.27556,0,0,0,.24854-.91895V59.44792h3.293V73.33561a4.38855,4.38855,0,0,1-.751,2.81934q-.75147.9126-2.94629.91308c-.10059,0-.24853-.0039-.44482-.01172q-.29517-.01171-.73389-.02343Zm4.876-16.51074h-3.293V54.84928h3.293Z"/><path d="M134.93105,59.64518a5.12286,5.12286,0,0,1,2.17627,1.86328,6.18161,6.18161,0,0,1,1.00342,2.60352,16.06909,16.06909,0,0,1,.10889,2.499h-9.17285a3.023,3.023,0,0,0,1.31738,2.6582,3.34788,3.34788,0,0,0,1.81543.47364,2.559,2.559,0,0,0,2.50586-1.44434h3.3623a4.1139,4.1139,0,0,1-1.22119,2.27637,6.11917,6.11917,0,0,1-4.73779,1.83691,6.86384,6.86384,0,0,1-4.436-1.5498q-1.92187-1.5498-1.92187-5.042a6.81816,6.81816,0,0,1,1.73486-5.01856,6.072,6.072,0,0,1,4.50391-1.74609A7.16672,7.16672,0,0,1,134.93105,59.64518Zm-4.92626,2.84473a3.42024,3.42024,0,0,0-.877,1.94922h5.67285a2.74789,2.74789,0,0,0-.87695-1.99024,2.88826,2.88826,0,0,0-1.95312-.67871A2.61291,2.61291,0,0,0,130.00479,62.48991Z"/><path d="M147.6542,63.90788a2.92492,2.92492,0,0,0-.47461-1.27149,1.99481,1.99481,0,0,0-1.72559-.76172,2.27166,2.27166,0,0,0-2.28173,1.65137,6.86249,6.86249,0,0,0-.32422,2.32813,6.30192,6.30192,0,0,0,.32422,2.22461,2.20141,2.20141,0,0,0,2.22363,1.57128,1.96279,1.96279,0,0,0,1.64453-.624,3.10038,3.10038,0,0,0,.59082-1.61719h3.3623a5.51219,5.51219,0,0,1-1.0874,2.8418,5.28655,5.28655,0,0,1-4.59131,2.16113,5.37278,5.37278,0,0,1-4.47607-1.80273,7.279,7.279,0,0,1-1.43408-4.67383,7.38647,7.38647,0,0,1,1.58447-5.043,5.51647,5.51647,0,0,1,4.37207-1.80273,6.58557,6.58557,0,0,1,3.87988,1.06347,4.94163,4.94163,0,0,1,1.78711,3.75489Z"/><path d="M152.22354,61.85124V59.50553h1.75634V55.99284h3.2583v3.51269h2.04493v2.34571h-2.04493v6.65527a1.50221,1.50221,0,0,0,.19532.96484,2.17174,2.17174,0,0,0,1.20312.19043q.14942,0,.31641-.00586c.11133-.0039.22265-.00976.33008-.01757v2.46093l-1.56055.05762q-2.33277.082-3.18848-.80859a2.40714,2.40714,0,0,1-.5542-1.74414V61.85124Z"/><path d="M172.71426,54.95378h4.02637L182.766,71.98405h-3.85938l-1.124-3.501h-6.27149l-1.15429,3.501h-3.72266Zm-.23535,10.59472h4.3623l-2.15137-6.70117Z"/><path d="M188.185,59.3903v7.59082a3.98,3.98,0,0,0,.25293,1.61719,1.748,1.748,0,0,0,1.75879.959,2.29611,2.29611,0,0,0,2.29883-1.36328,4.948,4.948,0,0,0,.32226-1.95215V59.3903h3.33887V71.98405h-3.20019v-1.7793c-.03028.03906-.10743.1543-.23047.34668a2.30326,2.30326,0,0,1-.4375.50781,4.57659,4.57659,0,0,1-1.49219.94825,5.08952,5.08952,0,0,1-1.68848.2539q-2.7876,0-3.75586-2.01074a7.72126,7.72126,0,0,1-.541-3.26953V59.3903Z"/><path d="M206.58926,59.09538c.043.0039.13672.00976.2832.01757v3.374q-.312-.03516-.55469-.04688c-.16113-.00683-.292-.01172-.39257-.01172a2.72983,2.72983,0,0,0-2.66895,1.29493,5.03864,5.03864,0,0,0-.38086,2.24121v6.01953H199.559V59.3903h3.14258v2.19531a6.94616,6.94616,0,0,1,1.3291-1.72168,3.61929,3.61929,0,0,1,2.40332-.77441Q206.52628,59.08952,206.58926,59.09538Z"/><path d="M219.54141,70.443a6.93575,6.93575,0,0,1-9.68164,0,7.81192,7.81192,0,0,1,0-9.46,6.86551,6.86551,0,0,1,9.68164,0,7.812,7.812,0,0,1,0,9.46Zm-2.63379-1.81933a5.88375,5.88375,0,0,0,0-5.832,2.9257,2.9257,0,0,0-4.44239,0,5.839,5.839,0,0,0,0,5.832,2.91668,2.91668,0,0,0,4.44239,0Z"/><path d="M230.725,59.09538c.043.0039.13672.00976.2832.01757v3.374q-.312-.03516-.55468-.04688c-.16114-.00683-.292-.01172-.39258-.01172a2.72983,2.72983,0,0,0-2.66895,1.29493,5.03878,5.03878,0,0,0-.38086,2.24121v6.01953h-3.3164V59.3903h3.14257v2.19531a6.94614,6.94614,0,0,1,1.32911-1.72168,3.61925,3.61925,0,0,1,2.40332-.77441Q230.662,59.08952,230.725,59.09538Z"/><path d="M238.1625,64.32389a5.22455,5.22455,0,0,0,1.31543-.28906.98978.98978,0,0,0,.71-.93555A1.10659,1.10659,0,0,0,239.643,62.03a3.44134,3.44134,0,0,0-1.59863-.294,2.10108,2.10108,0,0,0-1.67481.57715,2.39149,2.39149,0,0,0-.46777,1.15527H232.724a4.81271,4.81271,0,0,1,.92871-2.71484q1.311-1.66407,4.502-1.66406a8.0291,8.0291,0,0,1,3.69043.82031,3.14615,3.14615,0,0,1,1.6123,3.09668v5.77734q0,.60058.02344,1.45508a1.84357,1.84357,0,0,0,.19629.87891,1.17669,1.17669,0,0,0,.48535.38086v.48535h-3.582a3.73671,3.73671,0,0,1-.208-.7168c-.03808-.22265-.06933-.47754-.0918-.76172a6.81666,6.81666,0,0,1-1.58105,1.25879,4.77364,4.77364,0,0,1-2.417.61231,4.17493,4.17493,0,0,1-2.8418-.97559,3.47475,3.47475,0,0,1-1.12109-2.76758,3.587,3.587,0,0,1,1.80371-3.3623,8.0584,8.0584,0,0,1,2.91015-.8086ZM240.17617,65.86a3.60477,3.60477,0,0,1-.63867.31835,5.37851,5.37851,0,0,1-.88379.22461l-.75.13868a4.94912,4.94912,0,0,0-1.51269.45117,1.50184,1.50184,0,0,0-.77832,1.39746,1.4614,1.4614,0,0,0,.47558,1.21973,1.80515,1.80515,0,0,0,1.15527.375,3.44046,3.44046,0,0,0,1.98829-.624,2.64029,2.64029,0,0,0,.94433-2.27539Z"/></svg>