<?xml version="1.0" encoding="UTF-8" standalone="no"?>
<svg
   xmlns:dc="http://purl.org/dc/elements/1.1/"
   xmlns:cc="http://creativecommons.org/ns#"
   xmlns:rdf="http://www.w3.org/1999/02/22-rdf-syntax-ns#"
   xmlns:svg="http://www.w3.org/2000/svg"
   xmlns="http://www.w3.org/2000/svg"
   xmlns:sodipodi="http://sodipodi.sourceforge.net/DTD/sodipodi-0.dtd"
   xmlns:inkscape="http://www.inkscape.org/namespaces/inkscape"
   version="1.0"
   width="400.000000pt"
   height="200.000000pt"
   viewBox="0 0 400.000000 200.000000"
   preserveAspectRatio="xMidYMid meet"
   id="svg22"
   sodipodi:docname="rarecamp_logo_lfph.svg"
   inkscape:version="0.92.3 (2405546, 2018-03-11)">
  <metadata
     id="metadata28">
    <rdf:RDF>
      <cc:Work
         rdf:about="">
        <dc:format>image/svg+xml</dc:format>
        <dc:type
           rdf:resource="http://purl.org/dc/dcmitype/StillImage" />
        <dc:title></dc:title>
      </cc:Work>
    </rdf:RDF>
  </metadata>
  <defs
     id="defs26" />
  <sodipodi:namedview
     pagecolor="#ffffff"
     bordercolor="#666666"
     borderopacity="1"
     objecttolerance="10"
     gridtolerance="10"
     guidetolerance="10"
     inkscape:pageopacity="0"
     inkscape:pageshadow="2"
     inkscape:window-width="1920"
     inkscape:window-height="1051"
     id="namedview24"
     showgrid="false"
     inkscape:zoom="2"
     inkscape:cx="297.61251"
     inkscape:cy="115.21396"
     inkscape:window-x="-9"
     inkscape:window-y="-9"
     inkscape:window-maximized="1"
     inkscape:current-layer="svg22" />
  <path
     style="fill:#000000;fill-opacity:1;stroke:none;stroke-width:0.1"
     inkscape:connector-curvature="0"
     id="path2"
     d="M 133,56.5 V 88 h 3.5 3.5 V 76 64 h 7.3 7.3 l 5,12 4.9,12 h 3.8 c 2,0 3.7,-0.1 3.7,-0.3 0,-0.2 -2.5,-6 -5.5,-13 l -5.5,-12.8 3.7,-3.2 c 2,-1.7 4.2,-4.6 4.9,-6.4 1.9,-4.5 1.7,-12.1 -0.5,-16.9 C 165.6,27.6 159.1,25 143.3,25 l -10.25312,0.1875 z m 27.1,-21.7 c 2.5,2.3 3.3,3.8 3.6,7.8 1,10.1 -4,14.4 -16.7,14.4 h -7 V 44.5 32 h 8.5 c 7.9,0 8.7,0.2 11.6,2.8 z"
     sodipodi:nodetypes="ccccccccccsscccccsccccscccsc" />
  <path
     style="fill:#000000;stroke:none;stroke-width:0.1;fill-opacity:1"
     sodipodi:nodetypes="cccccccccccccccsccc"
     inkscape:connector-curvature="0"
     id="path14-4"
     d="M 189.4,54.999999 C 183.7,71.5 178.9,86.81111 178.5,87.71111 c 2.76389,-0.11944 3.71111,0.11111 6.81111,-0.18889 C 186.51111,84.44444 185.5,87.4 188.1,80 l 2.6,-7.5 h 11.9 11.9 l 2.4,7.699999 c 2.4,7.800001 1.41312,4.836951 2.32778,7.452781 3.69243,-0.0231 3.02419,-0.14988 6.76389,-0.0667 C 223.41192,79.26655 221.5,72.5 215.8,55.899999 c -10.3,-30.2 -8.35555,-23.80278 -10.8,-30.90833 l -5.4,-0.09167 z M 212.725,65.68611 C 212.825,66.186109 207.9,66 202.7,66 c -6.3,0 -2.65583,-0.12998 -9.70833,-0.127781 2.60027,-8.053349 8.09444,-25.91111 9.39444,-29.01111 0.5,-1.2 9.06667,24.38333 10.33889,28.825001 z" />
  <path
     style="fill:#000000;fill-opacity:1;stroke:none;stroke-width:0.1"
     inkscape:connector-curvature="0"
     id="path6"
     d="M 236,56.4 V 88 h 3.5 3.5 V 76 64 h 7.3 7.2 l 4.9,12 4.8,12 h 4 c 2.1,0 3.7,-0.3 3.5,-0.8 -0.3,-0.4 -2.8,-6.2 -5.6,-13 L 264,62 l 3.4,-3.1 c 6.9,-6 8.5,-18 3.4,-25.5 -4.2,-6.2 -8.7,-7.8 -22.5,-8.2 l -12.20624,0.162505 z m 25.1,-22.8 c 5.3,2.7 7.3,10.6 4.3,16.9 -2.1,4.6 -6.6,6.5 -15.3,6.5 H 243 V 44.5 32 h 7.5 c 4.9,0 8.7,0.6 10.6,1.6 z"
     sodipodi:nodetypes="ccccccccccsccccccccccscccsc" />
  <path
     style="fill:#000000;stroke:none;stroke-width:0.1;fill-opacity:1"
     inkscape:connector-curvature="0"
     id="path8"
     d="M 287,56.5 V 88 H 304.5 322 V 84.5 81 H 308 294 V 70 59 h 11 11 V 55.5 52 H 305 294 V 42 32 h 14 14 V 28.5 25 H 304.5 287 Z" />
  <path
     style="fill:#f35e5e;stroke:none;stroke-width:0.1;fill-opacity:1"
     inkscape:connector-curvature="0"
     id="path10"
     d="m 64,28.4 c -1.8,2.2 -0.3,11.6 3.1,18.6 1.8,3.8 5.2,8.3 9.4,12.4 l 6.5,6.5 -5.5,5.2 c -10.7,10.1 -15.3,20.8 -14.1,33.3 0.9,10.1 4.9,18 13,26 l 6.6,6.5 -5.5,5.2 c -6.7,6.3 -10.8,12.7 -12.9,19.8 -2.1,7.3 -2.1,11.8 0.2,13 2.3,1.2 5.2,-0.4 5.2,-2.9 0,-1.9 0.8,-2 18.9,-2 18.9,0 19,0 19.3,2.2 0.4,2.8 3.7,3.6 5.3,1.4 1.7,-2.3 0,-11.8 -3.2,-18.5 -1.4,-2.9 -5.5,-8.3 -9,-11.9 l -6.3,-6.5 6.3,-6.6 c 10.6,-11 14.5,-21.8 12.6,-34.6 -1.4,-8.6 -5.2,-15.8 -12.5,-23.3 l -6.4,-6.5 6.8,-7.1 c 7.6,-8 10.7,-13.8 12.1,-22.3 1,-6.8 0.1,-9.6 -3.2,-9.1 -1.6,0.2 -2.3,1.1 -2.5,3 l -0.3,2.8 h -19 C 71.4,33 70,32.9 70,31.2 70,27.5 66.3,25.8 64,28.4 Z m 43,9 c 0,0.1 -0.5,1.7 -1.1,3.5 L 104.8,44 H 88.9 73 l -1,-2.6 c -0.6,-1.4 -1,-3 -1,-3.5 0,-0.5 7.5,-0.9 18,-0.9 9.9,0 18,0.2 18,0.4 z M 99.6,51.3 C 97.1,54.6 89.7,61 88.5,61 87.5,61 76,49.8 76,48.8 76,48.4 81.9,48 89.1,48 h 13 z M 96,76.4 100.4,81 H 89.2 C 83,81 78,80.7 78,80.2 c 0,-0.4 2.3,-2.8 5.2,-5.4 6,-5.2 6.1,-5.2 12.8,1.6 z m 8.4,11 c 0.9,1.9 1.6,3.9 1.6,4.5 0,0.8 -5.5,1.1 -17.5,1.1 C 78.9,93 71,92.8 71,92.5 71,92.2 71.9,90.1 73,88 l 2,-4 h 13.9 13.9 z m 3.2,12 c 0.3,1.9 0.3,3.9 -0.1,4.5 -0.4,0.7 -7.1,1.1 -19.1,1.1 H 70 V 100.5 96 h 18.5 18.4 z m -0.6,9.1 c 0,0.2 -0.7,2.3 -1.6,4.5 l -1.6,4 h -15 -14.9 l -1.5,-3.5 C 71.7,111.6 71,109.6 71,109 c 0,-0.6 6.3,-1 18,-1 9.9,0 18,0.2 18,0.5 z m -7.6,13.9 c -0.8,1.4 -3.5,4.1 -6,6.1 -5.1,4.2 -5.5,4.1 -12.9,-3.4 L 75.6,120 H 88.3 101 Z m -2.4,26.3 5.5,5.8 -7.3,0.3 c -4,0.2 -10.3,0.2 -14,0 l -6.7,-0.3 6.9,-6.7 c 7.9,-7.8 7.5,-7.8 15.6,0.9 z m 8.6,12.8 c 0.7,1.9 1.4,3.7 1.4,4 0,0.3 -8.1,0.5 -18,0.5 -19.5,0 -19.3,0.1 -16.8,-5.5 l 1.1,-2.5 h 15.4 15.4 z" />
  <path
     style="fill:#000000;stroke:none;stroke-width:0.1;fill-opacity:1"
     sodipodi:nodetypes="ccssccccscsccccczc"
     inkscape:connector-curvature="0"
     id="path12"
     d="m 145.8,113.6 c -6.1,1.9 -11.3,7.8 -12.7,14.6 -1.4,6.4 -1.4,27.7 0,33.3 1.4,5.6 6.9,12 11.7,13.6 6.6,2.2 14.5,1.5 20.4,-1.8 2.8,-1.7 5.3,-3.4 5.5,-3.9 0.1,-0.5 -0.9,-1.7 -2.2,-2.7 -2.4,-1.7 -2.6,-1.7 -5.5,0.5 -2.5,1.8 -4.56944,2.99444 -9.56944,2.99444 -5.7,0 -6.63056,-0.99444 -9.33056,-3.59444 -4.2,-4.1 -5.1,-8 -5.1,-23 0,-15.4 1.6,-20.2 7.7,-23.1 4.6,-2.2 12.4,-1.6 16.3,1.3 l 2.8,2.1 1.8,-2.6 c 1.6,-2.6 1.6,-2.7 -0.9,-4.9 -2.4,-2 -9.49661,-4.32074 -13.59722,-4.3 -4.10061,0.0207 -4.70278,0.7 -7.30278,1.5 z" />
  <path
     style="fill:#000000;stroke:none;stroke-width:0.1;fill-opacity:1"
     sodipodi:nodetypes="cccccccccccccccsccc"
     inkscape:connector-curvature="0"
     id="path14"
     d="m 189.2,143 c -5.7,16.5 -10.5,31.81111 -10.9,32.71111 2.76389,-0.11944 3.71111,0.11111 6.81111,-0.18889 C 186.31111,172.44444 185.3,175.4 187.9,168 l 2.6,-7.5 h 11.9 11.9 l 2.4,7.7 c 2.4,7.8 1.41312,4.83695 2.32778,7.45278 3.69243,-0.0231 3.02419,-0.14988 6.76389,-0.0667 C 223.21192,167.26655 221.3,160.5 215.6,143.9 205.3,113.7 207.24445,120.09722 204.8,112.99167 L 199.4,112.9 Z m 23.325,10.68611 c 0.1,0.5 -4.825,0.31389 -10.025,0.31389 -6.3,0 -2.65583,-0.12998 -9.70833,-0.12778 2.60027,-8.05335 8.09444,-25.91111 9.39444,-29.01111 0.5,-1.2 9.06667,24.38333 10.33889,28.825 z" />
  <path
     style="fill:#000000;stroke:none;stroke-width:0.1;fill-opacity:1"
     sodipodi:nodetypes="cccccccccccccccccccscccc"
     inkscape:connector-curvature="0"
     id="path16"
     d="M 235,144.5 V 176 h 3.5 3.5 l 0.2,-23.3 0.3,-23.2 7.8,15.2 c 3.8,7.5 6.34119,12.09277 8.27941,15.04277 4.04972,0.0528 2.53927,-0.0322 6.0523,0.0261 C 266.90871,155.27873 264.7,159.7 272.2,144.7 l 7.7,-15.2 v 23.2 L 280,176 h 3.5 3.5 V 144.5 113 c 0,0 -1.0176,-0.0563 -5.23247,-0.0246 C 280.03244,115.68345 280.7,113.9 271.3,132 c -5.4,10.4 -10,19 -10.3,19 -0.3,0 -4.8,-8.6 -10,-19 -9.4,-18.9 -7.52082,-15.22934 -9.59747,-19.05157 C 237.4599,113.05456 235,113 235,113 Z" />
  <path
     style="fill:#000000;fill-opacity:1;stroke:none;stroke-width:0.1"
     inkscape:connector-curvature="0"
     id="path18"
     d="M 301,144.4 V 176 h 3.5 3.5 v -11 -11 h 5 c 17.6,0 26.5,-7.7 25.8,-22.2 -0.3,-5.7 -0.8,-7.3 -3.4,-10.5 -5,-6.3 -9.1,-7.7 -22.6,-8.1 l -11.76685,0.13033 z m 25,-22.7 c 4.4,2.6 6.4,7.1 5.8,13.2 -0.8,8.6 -5.9,12.1 -17.3,12.1 H 308 V 133.5 120 h 7.6 c 5.3,0 8.4,0.5 10.4,1.7 z"
     sodipodi:nodetypes="ccccccscccccccscccsc" />
</svg>
