<svg id="Layer_1" data-name="Layer 1" xmlns="http://www.w3.org/2000/svg" viewBox="0 0 127.37457 53.68192"><defs><style>.cls-1{fill:#fdd65a;}.cls-2{fill:#20b9a6;}.cls-3{fill:#e1bc40;}.cls-4{fill:none;}.cls-5{fill:#6d8198;}</style></defs><path class="cls-1" d="M23.94645,28.844c-1.255,1.57356-3.00228,1.48143-4.6672,1.15724a35.2092,35.2092,0,0,1-14.93061-7.017c-3.54586-2.75309-3.60173-5.31137-.57821-8.704,2.59878-2.916,5.63306-4.283,9.5359-2.90346a.59243.59243,0,0,1,.11318.23982,9.1548,9.1548,0,0,0,.12343,2.0688,30.29388,30.29388,0,0,0,5.30048,11.59841C20.11007,27.09055,21.6008,28.56947,23.94645,28.844Z"/><path class="cls-2" d="M13.41951,11.6166a.59243.59243,0,0,0-.11318-.23982c.4908-3.82311,3.37413-6.49543,7.69822-7.13392,4.04671-.59753,5.87621.47545,6.67917,4.46855a33.58469,33.58469,0,0,1-.56433,16.39011c-.47213,1.58553-1.03015,3.28124-3.05618,3.67342a4.24154,4.24154,0,0,0,.11146-2.90192A25.50414,25.50414,0,0,0,13.41951,11.6166Z"/><path class="cls-3" d="M13.41951,11.6166A25.50414,25.50414,0,0,1,24.17467,25.873a4.24154,4.24154,0,0,1-.11146,2.90192l-.11637.06842c-2.346-.27389-3.83677-1.75281-5.10342-3.55955A30.29388,30.29388,0,0,1,13.54294,13.6854,9.1548,9.1548,0,0,1,13.41951,11.6166Z"/><path class="cls-4" d="M98.13113,17.769c.08456-.00077.16919-.00006.25382-.00006v-.00543c.53585,0,1.07176.00588,1.60742-.002.38607-.00569.69372-.1789.68492-.58781a8.04394,8.04394,0,0,0-.66021-3.77728,1.55586,1.55586,0,0,0-1.53185-.97749,1.783,1.783,0,0,0-1.59978,1.06665,5.9876,5.9876,0,0,0-.66525,1.98521C95.99627,17.84467,95.546,17.79388,98.13113,17.769Z"/><path class="cls-4" d="M67.01218,20.62473c-.002-.25441-.03914-.62171-.37442-.50357-.85288.30067-1.8527.4245-2.32443,1.34843a4.5744,4.5744,0,0,0-.19695,3.35705c.32247,1.18525.97685,1.52894,2.20648,1.46786.49955-.02485.70763-.216.69682-.71287-.01772-.8118-.00478-1.62424-.005-2.43643C67.01464,22.30506,67.01865,21.4648,67.01218,20.62473Z"/><path class="cls-5" d="M49.345,14.45838a18.92672,18.92672,0,0,1-4.67675-1.87722A2.72073,2.72073,0,0,1,43.515,9.7102a2.686,2.686,0,0,1,2.04376-2.33232,4.96775,4.96775,0,0,1,5.3631,1.934,8.54694,8.54694,0,0,1,1.28547,2.72441c.18692.745.75977.80144,1.39623.71183.63038-.08876.51295-.57745.5169-.97891.01145-1.15342-.02388-2.30787.01106-3.46038a1.29564,1.29564,0,0,0-.8272-1.31536A13.015,13.015,0,0,0,43.151,6.06458,7.74505,7.74505,0,0,0,39.0237,17.67619c1.28457,2.00837,3.37362,2.88125,5.56522,3.54708A13.3,13.3,0,0,1,48.78,22.94a2.87788,2.87788,0,0,1,1.111,2.67841A2.41967,2.41967,0,0,1,48.26455,27.883a5.29708,5.29708,0,0,1-5.67572-1.01263,8.80965,8.80965,0,0,1-2.66029-4.409c-.232-.80649-.82862-.72478-1.41513-.70336-.62236.02271-.663.46067-.6646.95537a34.3345,34.3345,0,0,0,.27543,4.45463,1.39472,1.39472,0,0,0,.8358,1.14966,13.30176,13.30176,0,0,0,7.229,1.68461,14.19752,14.19752,0,0,0,3.43469-.29439c3.23515-.86452,5.58133-2.61157,6.07357-6.08735.36653-2.58821.00621-5.05673-2.12962-6.93194A12.47014,12.47014,0,0,0,49.345,14.45838Z"/><path class="cls-5" d="M75.22759,27.3387c-1.19139.0141-1.42114-.2018-1.43169-1.39818-.01436-1.63175-.00356-3.26375-.00356-4.89556h-.00492q0-2.11019-.00032-4.22035c-.00634-4.00671-2.26374-5.21183-5.11852-5.69637a15.66314,15.66314,0,0,0-6.44929.27375c-2.48851.62332-3.85317,2.23281-3.69433,4.50322A2.05651,2.05651,0,0,0,60.635,17.86376a11.73694,11.73694,0,0,0,2.26154-.28268c1.31983-.255,1.27311-.23557,1.1353-1.51878a4.85687,4.85687,0,0,1,.22108-2.81906,1.46914,1.46914,0,0,1,1.63414-.92858A1.38469,1.38469,0,0,1,67.01017,13.621a24.61486,24.61486,0,0,1,.12216,4.12531.76555.76555,0,0,1-.60217.79588c-2.064.74542-4.14129,1.46527-6.16052,2.31939a4.5206,4.5206,0,0,0-3.02152,3.73386c-.29982,2.32845.78993,4.422,2.9134,4.98408,2.481.65671,4.76235.32551,6.47335-1.83873.27375-.34621.43621-.44074.71164.03611a3.75093,3.75093,0,0,0,1.41293,1.6256,5.37725,5.37725,0,0,0,3.27676.57622,6.3363,6.3363,0,0,0,3.36508-1.44612.79787.79787,0,0,0,.26805-.909C75.69053,27.36018,75.47617,27.33579,75.22759,27.3387Zm-8.90473-1.0442c-1.22963.06108-1.884-.28261-2.20648-1.46786a4.5744,4.5744,0,0,1,.19695-3.35705c.47173-.92393,1.47155-1.04776,2.32443-1.34843.33528-.11814.37241.24916.37442.50357.00647.84007.00246,1.68033.00246,2.52047.00026.81219-.01268,1.62463.005,2.43643C67.03049,26.07853,66.82241,26.26965,66.32286,26.2945Z"/><path class="cls-5" d="M90.33607,3.74856a10.81956,10.81956,0,0,0-4.90714-.49275c-4.19545.42508-6.72116,2.96024-6.89093,7.10385a.89862.89862,0,0,1-.81445.97976c-.30358.063-.60508.14125-.91151.18447-.53054.07472-.68479.3915-.67191.88743.02433.93634.72238.68349,1.23487.69721,1.13427.03035,1.13854.01339,1.13886,1.11589.001,4.13592-.00841,8.2719.00473,12.40775.00284.88543-.18932,1.56362-1.2264,1.676-.44365.04808-.499.38846-.4883.75286.01249.42327.2524.60255.65315.6023q4.86787-.0036,9.73569-.01029c.38652-.00058.65425-.1384.67379-.578.01831-.41363-.0803-.72517-.56218-.77764a5.98949,5.98949,0,0,1-1.11408-.32981,1.38567,1.38567,0,0,1-.87217-1.37388c-.027-1.60043-.01294-3.20164-.01365-4.80253q-.00154-3.66522-.001-7.33044c.00026-1.35748.00117-1.35987,1.40083-1.35314l2.3146-.07519c.19649-1.13717.02776-1.64889-1.13782-1.65264-.5926-.00194-1.18532.00291-1.77772-.00977-.43692-.00932-.793-.14823-.79271-.66978.00091-1.60335-.02646-3.208.03216-4.80952.028-.76275.54963-1.0717,1.32054-1.12546.77492-.05409.89959.47781,1.02459.98041a6.22571,6.22571,0,0,1,.136,1.42114c.018,1.55172.00951,1.57895,1.6078,1.52085a2.94929,2.94929,0,0,0,2.09112-.45646C92.87932,7.01038,92.21511,4.437,90.33607,3.74856Z"/><path class="cls-5" d="M124.76089,20.57167c-.3301-.08793-.67942-.12306-.8959.2513-.14073.24334-.2964.47891-.42418.72872a4.12893,4.12893,0,0,1-4.2923,2.361c-1.37857-.07868-2.76523-.00977-4.14821-.02135-.26566-.0022-.56451.09925-.79821-.1428.0526-.33566.34647-.42049.56865-.57512,1.31744-.91681,2.67039-1.78742,3.94441-2.76064,2.10852-1.61092,4.18664-3.267,5.12286-5.90263,1.157-3.25709.30124-6.7099-2.76207-8.2224a9.27915,9.27915,0,0,0-5.45147-.67328c-3.36022.44094-5.37681,2.57748-6.98,5.28888-.23467.39688-.10255.65535.2511.92095a.6336.6336,0,0,0,.95343-.06813,5.44323,5.44323,0,0,1,1.1593-.83819,4.80747,4.80747,0,0,1,4.773-.1406c1.477.83684,1.76238,2.28341,1.72414,3.8601a9.8495,9.8495,0,0,1-2.94659,6.61912c-2.02532,2.1544-4.16671,4.2003-6.25732,6.29368-.23887.2392-.47451.48163-.7128.72148a1.07422,1.07422,0,0,0-.20769,1.10877c.12241.446.55164.30862.86621.309,5.10875.00589,10.21751-.008,15.3262.01093.70568.00259.99244-.19313,1.02621-.94631.11213-2.4988.298-4.99436.4619-7.49076C125.08077,20.97055,125.11765,20.66665,124.76089,20.57167Z"/><path class="cls-5" d="M97.00566,19.3718q3.80847-.01068,7.61713-.00841c2.08439-.002,2.10341-.00421,1.87425-2.10057a6.48925,6.48925,0,0,0-3.2272-5.34769,8.71748,8.71748,0,0,0-8.13823-.22257,9.00438,9.00438,0,0,0-5.44785,7.87735c-.02044,3.84289.6177,6.339,2.75961,8.249a9.22788,9.22788,0,0,0,7.9843,2.0917c3.29358-.53766,5.16524-2.75864,6.11174-5.8431a.55642.55642,0,0,0-.16479-.68124c-.27181-.207-.47089-.05033-.663.13393-.10164.09751-.197.20181-.302.29549a5.93656,5.93656,0,0,1-6.1241,1.37243c-2.17684-.73176-2.96716-2.60277-3.24958-4.72637C95.91235,19.53278,96.05139,19.37445,97.00566,19.3718Zm-.78546-3.901a5.9876,5.9876,0,0,1,.66525-1.98521,1.783,1.783,0,0,1,1.59978-1.06665,1.55586,1.55586,0,0,1,1.53185.97749,8.04394,8.04394,0,0,1,.66021,3.77728c.0088.40891-.29885.58212-.68492.58781-.53566.00789-1.07157.002-1.60742.002v.00543c-.08463,0-.16926-.00071-.25382.00006C95.546,17.79388,95.99627,17.84467,96.2202,15.47075Z"/><path d="M36.74785,45.53572a4.95511,4.95511,0,0,1-3.25782.95166H30.78544v4.6709H28.08867V38.168H33.6663a4.503,4.503,0,0,1,3.07569,1.0044,3.92355,3.92355,0,0,1,1.147,3.11133A4.03042,4.03042,0,0,1,36.74785,45.53572ZM34.67607,40.856a2.18482,2.18482,0,0,0-1.44434-.43213H30.78544v3.8252h2.44629a2.07407,2.07407,0,0,0,1.44434-.46729,1.90622,1.90622,0,0,0,.51611-1.48047A1.7901,1.7901,0,0,0,34.67607,40.856Z"/><path d="M45.199,41.32722c.03222.00342.10449.00782.21582.01319v2.57373q-.2373-.02637-.42285-.03516c-.12354-.00586-.22315-.00928-.29981-.00928a2.08309,2.08309,0,0,0-2.03564.98731,3.839,3.839,0,0,0-.291,1.70947v4.5918H39.83623v-9.606h2.39746v1.67432a5.31685,5.31685,0,0,1,1.01318-1.313,2.76036,2.76036,0,0,1,1.8335-.59082Q45.15068,41.32283,45.199,41.32722Z"/><path d="M54.89775,49.983a4.46947,4.46947,0,0,1-3.69238,1.50146A4.4705,4.4705,0,0,1,47.51249,49.983a5.95922,5.95922,0,0,1,0-7.21583,4.43992,4.43992,0,0,1,3.69288-1.52343,4.43891,4.43891,0,0,1,3.69238,1.52343,5.95918,5.95918,0,0,1,0,7.21583ZM52.88847,48.5948a4.48494,4.48494,0,0,0,0-4.44824,2.23245,2.23245,0,0,0-3.38867,0,4.45615,4.45615,0,0,0,0,4.44824,2.22432,2.22432,0,0,0,3.38867,0Z"/><path d="M56.9246,43.42927V41.64021H58.264V38.961h2.48535v2.6792h1.56006v1.78906H60.74931v5.07618a1.14036,1.14036,0,0,0,.1499.73584,1.64748,1.64748,0,0,0,.91651.1455c.07617,0,.15722-.00146.24267-.00439.085-.00293.16846-.00733.251-.01318v1.877l-1.18994.04443a3.19161,3.19161,0,0,1-2.43213-.61719,1.83512,1.83512,0,0,1-.42334-1.33056V43.42927Z"/><path d="M71.93388,49.983a5.29207,5.29207,0,0,1-7.38574,0,5.95918,5.95918,0,0,1,0-7.21583,5.23757,5.23757,0,0,1,7.38574,0,5.96109,5.96109,0,0,1,0,7.21583ZM69.92412,48.5948a4.48171,4.48171,0,0,0,0-4.44824,2.23246,2.23246,0,0,0-3.38868,0,4.45621,4.45621,0,0,0,0,4.44824,2.22433,2.22433,0,0,0,3.38868,0Z"/><path d="M80.69365,44.99812a2.22518,2.22518,0,0,0-.36231-.96972,1.51879,1.51879,0,0,0-1.3164-.58155,1.7339,1.7339,0,0,0-1.74024,1.26026,5.2305,5.2305,0,0,0-.24707,1.77588,4.80658,4.80658,0,0,0,.24707,1.69628A1.68033,1.68033,0,0,0,78.971,49.378a1.49772,1.49772,0,0,0,1.25488-.47607,2.36233,2.36233,0,0,0,.4502-1.2334h2.56445a4.197,4.197,0,0,1-.8291,2.168,4.03186,4.03186,0,0,1-3.502,1.648,4.09936,4.09936,0,0,1-3.41406-1.375,5.551,5.551,0,0,1-1.09375-3.56494,5.63393,5.63393,0,0,1,1.208-3.84668,4.20888,4.20888,0,0,1,3.335-1.375,5.025,5.025,0,0,1,2.96.811,3.7672,3.7672,0,0,1,1.36231,2.86426Z"/><path d="M92.99638,49.983a5.29207,5.29207,0,0,1-7.38574,0,5.96109,5.96109,0,0,1,0-7.21583,5.23757,5.23757,0,0,1,7.38574,0,5.96109,5.96109,0,0,1,0,7.21583ZM90.98662,48.5948a4.48171,4.48171,0,0,0,0-4.44824,2.23246,2.23246,0,0,0-3.38868,0,4.45621,4.45621,0,0,0,0,4.44824,2.22433,2.22433,0,0,0,3.38868,0Z"/><path d="M98.57451,51.15828H96.06279V38.168h2.51172Z"/></svg>