<svg viewBox="0 0 181 32" version="1.1" xmlns="http://www.w3.org/2000/svg"><title>SaferMe logo</title><desc>Created with Sketch.</desc><defs/><g id="Page-1" stroke="none" stroke-width="1" fill="currentColor" fill-rule="evenodd"><g id="V3" transform="translate(-42.000000, -29.000000)" fill="currentColor" fill-rule="nonzero"><g id="Top" transform="translate(42.000000, 24.000000)"><g id="SaferMe-logo" transform="translate(0.000000, 5.000000)"><path d="M43.69997,23.9999998 C43.69997,21.579487 41.8644081,20.7179485 38.4788161,19.5282049 C34.2774189,18.0512818 29.5457482,15.7538465 29.5457482,10.4205128 C29.5457482,6.35897437 33.1352916,2.29743588 38.8867188,2.29743588 C44.8420974,2.29743588 48.186899,6.85128207 48.186899,6.85128207 L44.8013071,10.2153846 C44.8013071,10.2153846 42.4354718,6.97435899 38.8867188,6.97435899 C36.4393029,6.97435899 34.5221605,8.49230768 34.5221605,10.4205128 C34.5221605,12.9230769 36.765625,13.7025641 40.6814904,15.1794875 C45.0460487,16.8205131 48.6763822,18.7897433 48.6763822,23.9999998 C48.6763822,29.2102564 44.1078726,32 38.7235577,32 C31.5852615,32 28.28125,26.1333332 28.28125,26.1333332 L31.9523739,23.0153844 C31.9523739,23.0153844 34.3997897,27.3230768 38.7235577,27.3230768 C41.1709736,27.3230768 43.69997,26.3384614 43.69997,23.9999998 Z M67.0727915,12.0615384 L71.6005109,12.0615384 L71.6005109,31.5076923 L67.0727915,31.5076923 L67.0727915,28.9641025 C67.0727915,28.9641025 65.4003907,32 61.2397837,32 C56.2225812,32 51.8172326,27.7743589 51.8172326,21.7846152 C51.8172326,15.7948721 56.2225812,11.5692308 61.2397837,11.5692308 C65.2780199,11.5692308 67.0727915,14.6051285 67.0727915,14.6051285 L67.0727915,12.0615384 Z M66.7056792,24.6974358 L66.7056792,18.8717946 C66.7056792,18.8717946 65.2780199,16.1641029 62.1371695,16.1641029 C58.8331581,16.1641029 56.7936449,18.5846151 56.7936449,21.7846152 C56.7936449,24.9846153 58.8331581,27.4051281 62.1371695,27.4051281 C65.2780199,27.4051281 66.7056792,24.6974358 66.7056792,24.6974358 Z M74.7005709,16.492308 L74.7005709,12.0615384 L78.5348559,12.0615384 L78.5348559,7.30256413 C78.5348559,1.88717946 82.3283504,0 85.4692006,0 C88.1613583,0 89.7521786,1.02564105 89.7521786,1.02564105 L87.9166167,5.16923075 C87.9166167,5.16923075 87.1823919,4.59487182 85.9586838,4.59487182 C85.0205079,4.59487182 83.4296876,5.12820511 83.4296876,7.54871798 L83.4296876,12.0615384 L88.1613583,12.0615384 L88.1613583,16.492308 L83.4296876,16.492308 L83.4296876,31.5076923 L78.5348559,31.5076923 L78.5348559,16.492308 L74.7005709,16.492308 Z M100.031325,11.5692308 C105.33406,11.5692308 109.780199,15.7128208 109.780199,21.7025639 C109.780199,22.0717947 109.780199,22.8102562 109.739409,23.5487178 L95.2996547,23.5487178 C95.6667671,25.2717947 97.6654901,27.4871794 100.72476,27.4871794 C104.110352,27.4871794 106.027494,25.5179486 106.027494,25.5179486 L108.47491,29.2102564 C108.47491,29.2102564 105.41564,32 100.72476,32 C94.8509618,32 90.3232423,27.4871794 90.3232423,21.7846152 C90.3232423,16.0820516 94.4430591,11.5692308 100.031325,11.5692308 Z M95.2996547,19.979487 L104.885367,19.979487 C104.803786,18.2974356 103.253756,16.0410259 100.031325,16.0410259 C96.890475,16.0410259 95.4628157,18.25641 95.2996547,19.979487 Z M123.281776,11.5692308 C125.035757,11.5692308 126.626577,12.1846154 126.626577,12.1846154 L124.913386,16.6153849 C124.913386,16.6153849 124.016,16.1641029 122.588341,16.1641029 C119.610652,16.1641029 118.264573,18.7897433 118.264573,18.7897433 L118.264573,31.5076923 L113.369741,31.5076923 L113.369741,12.0615384 L118.019831,12.0615384 L118.019831,14.892308 C118.019831,14.892308 119.692232,11.5692308 123.281776,11.5692308 Z M129.726638,2.78974358 L134.254357,2.78974358 L143.554537,17.2307689 L152.854718,2.78974358 L157.382437,2.78974358 L157.382437,31.5076923 L152.487606,31.5076923 L152.487606,12.225641 L143.554537,25.8871794 L134.621469,12.225641 L134.621469,31.5076923 L129.726638,31.5076923 L129.726638,2.78974358 Z M171.251127,11.5692308 C176.553862,11.5692308 181,15.7128208 181,21.7025639 C181,22.0717947 181,22.8102562 180.95921,23.5487178 L166.519457,23.5487178 C166.886569,25.2717947 168.885292,27.4871794 171.944562,27.4871794 C175.330154,27.4871794 177.247296,25.5179486 177.247296,25.5179486 L179.694712,29.2102564 C179.694712,29.2102564 176.635442,32 171.944562,32 C166.070764,32 161.543044,27.4871794 161.543044,21.7846152 C161.543044,16.0820516 165.662861,11.5692308 171.251127,11.5692308 Z M166.519457,19.979487 L176.105169,19.979487 C176.023589,18.2974356 174.473558,16.0410259 171.251127,16.0410259 C168.110277,16.0410259 166.682618,18.25641 166.519457,19.979487 Z" id="SaferMe"/><path d="M2.89491228,4.8221713 C6.75436377,0.903778318 13.0090888,0.901055157 16.871204,4.82215252 L16.9019812,4.85339974 C20.7614225,8.77178235 20.7622628,15.1238826 16.9019627,19.0431372 L9.9138076,26.1380153 L2.89489377,19.0119088 C-0.964547512,15.0935261 -0.965387817,8.74142586 2.89491228,4.8221713 Z M9.89843752,15.9461234 C12.0864749,15.9461234 13.8602296,14.149232 13.8602296,11.9326543 C13.8602296,9.71607642 12.0864749,7.91918511 9.89843752,7.91918511 C7.71040013,7.91918511 5.93664534,9.71607642 5.93664534,11.9326543 C5.93664534,14.149232 7.71040013,15.9461234 9.89843752,15.9461234 Z M9.89843752,32 C8.80441883,32 7.91754143,31.1015543 7.91754143,29.9932654 C7.91754143,28.8849765 8.80441883,27.9865308 9.89843752,27.9865308 C10.9924562,27.9865308 11.8793336,28.8849765 11.8793336,29.9932654 C11.8793336,31.1015543 10.9924562,32 9.89843752,32 Z" id="Shape"/></g></g></g></g></svg>