<svg id="Layer_1" data-name="Layer 1" xmlns="http://www.w3.org/2000/svg" viewBox="0 0 127.37457 33.00663"><defs><style>.cls-1{fill:#fdd65a;}.cls-2{fill:#20b9a6;}.cls-3{fill:#e1bc40;}.cls-4{fill:none;}.cls-5{fill:#6d8198;}</style></defs><path class="cls-1" d="M23.71185,28.844c-1.255,1.57356-3.00228,1.48143-4.6672,1.15724A35.20915,35.20915,0,0,1,4.114,22.98419c-3.54587-2.75309-3.60173-5.31137-.57821-8.704,2.59878-2.916,5.63306-4.283,9.5359-2.90346a.59229.59229,0,0,1,.11317.23982,9.15539,9.15539,0,0,0,.12344,2.0688,30.29388,30.29388,0,0,0,5.30048,11.59841C19.87547,27.09055,21.3662,28.56947,23.71185,28.844Z"/><path class="cls-2" d="M13.1849,11.6166a.59229.59229,0,0,0-.11317-.23982c.4908-3.82311,3.37413-6.49543,7.69822-7.13392,4.04671-.59753,5.8762.47545,6.67917,4.46855a33.58469,33.58469,0,0,1-.56433,16.39011c-.47213,1.58553-1.03015,3.28124-3.05618,3.67342a4.24154,4.24154,0,0,0,.11146-2.90192A25.50415,25.50415,0,0,0,13.1849,11.6166Z"/><path class="cls-3" d="M13.1849,11.6166A25.50415,25.50415,0,0,1,23.94007,25.873a4.24154,4.24154,0,0,1-.11146,2.90192l-.11637.06842c-2.346-.27389-3.83677-1.75281-5.10342-3.55955A30.29388,30.29388,0,0,1,13.30834,13.6854,9.15539,9.15539,0,0,1,13.1849,11.6166Z"/><path class="cls-4" d="M97.89653,17.769c.08456-.00077.16919-.00006.25382-.00006v-.00543c.53585,0,1.07176.00588,1.60742-.002.38606-.00569.69371-.1789.68492-.58781a8.04394,8.04394,0,0,0-.66021-3.77728,1.55586,1.55586,0,0,0-1.53185-.97749,1.783,1.783,0,0,0-1.59978,1.06665,5.98737,5.98737,0,0,0-.66525,1.98521C95.76167,17.84467,95.31142,17.79388,97.89653,17.769Z"/><path class="cls-4" d="M66.77758,20.62473c-.002-.25441-.03915-.62171-.37442-.50357-.85289.30067-1.8527.4245-2.32444,1.34843a4.57444,4.57444,0,0,0-.19694,3.35705c.32246,1.18525.97684,1.52894,2.20648,1.46786.49955-.02485.70763-.216.69682-.71287-.01772-.8118-.00478-1.62424-.005-2.43643C66.78,22.30506,66.784,21.4648,66.77758,20.62473Z"/><path class="cls-5" d="M49.11039,14.45838a18.92672,18.92672,0,0,1-4.67675-1.87722,2.72073,2.72073,0,0,1-1.15329-2.871,2.686,2.686,0,0,1,2.04376-2.33232,4.96773,4.96773,0,0,1,5.36309,1.934,8.54651,8.54651,0,0,1,1.28547,2.72441c.18692.745.75978.80144,1.39624.71183.63038-.08876.513-.57745.51689-.97891.01146-1.15342-.02387-2.30787.01107-3.46038a1.29564,1.29564,0,0,0-.8272-1.31536,13.015,13.015,0,0,0-10.15332-.92885A7.74505,7.74505,0,0,0,38.7891,17.67619c1.28456,2.00837,3.37362,2.88125,5.56522,3.54708A13.30007,13.30007,0,0,1,48.54542,22.94a2.87788,2.87788,0,0,1,1.111,2.67841A2.41968,2.41968,0,0,1,48.03,27.883a5.29708,5.29708,0,0,1-5.67572-1.01263,8.80958,8.80958,0,0,1-2.66029-4.409c-.232-.80649-.82862-.72478-1.41513-.70336-.62236.02271-.663.46067-.66461.95537a34.338,34.338,0,0,0,.27543,4.45463,1.39475,1.39475,0,0,0,.83581,1.14966,13.30175,13.30175,0,0,0,7.229,1.68461,14.19756,14.19756,0,0,0,3.4347-.29439c3.23515-.86452,5.58132-2.61157,6.07357-6.08735.36652-2.58821.00621-5.05673-2.12962-6.93194A12.47014,12.47014,0,0,0,49.11039,14.45838Z"/><path class="cls-5" d="M74.993,27.3387c-1.19139.0141-1.42115-.2018-1.43169-1.39818-.01436-1.63175-.00356-3.26375-.00356-4.89556h-.00492q0-2.11019-.00032-4.22035c-.00634-4.00671-2.26374-5.21183-5.11852-5.69637a15.66314,15.66314,0,0,0-6.44929.27375c-2.48851.62332-3.85317,2.23281-3.69433,4.50322a2.05651,2.05651,0,0,0,2.11008,1.95855,11.73694,11.73694,0,0,0,2.26154-.28268c1.31982-.255,1.27311-.23557,1.1353-1.51878a4.85679,4.85679,0,0,1,.22108-2.81906,1.46914,1.46914,0,0,1,1.63414-.92858A1.38469,1.38469,0,0,1,66.77557,13.621a24.61486,24.61486,0,0,1,.12216,4.12531.76555.76555,0,0,1-.60217.79588c-2.064.74542-4.14129,1.46527-6.16053,2.31939a4.52061,4.52061,0,0,0-3.02151,3.73386c-.29982,2.32845.78993,4.422,2.9134,4.98408,2.481.65671,4.76235.32551,6.47335-1.83873.27375-.34621.43621-.44074.71164.03611a3.75087,3.75087,0,0,0,1.41293,1.6256,5.37724,5.37724,0,0,0,3.27676.57622,6.33633,6.33633,0,0,0,3.36508-1.44612.79787.79787,0,0,0,.26805-.909C75.45592,27.36018,75.24157,27.33579,74.993,27.3387Zm-8.90473-1.0442c-1.22964.06108-1.884-.28261-2.20648-1.46786a4.57444,4.57444,0,0,1,.19694-3.35705c.47174-.92393,1.47155-1.04776,2.32444-1.34843.33527-.11814.37241.24916.37442.50357.00647.84007.00246,1.68033.00246,2.52047.00026.81219-.01268,1.62463.005,2.43643C66.79589,26.07853,66.58781,26.26965,66.08826,26.2945Z"/><path class="cls-5" d="M90.10147,3.74856a10.81961,10.81961,0,0,0-4.90715-.49275c-4.19544.42508-6.72115,2.96024-6.89093,7.10385a.89861.89861,0,0,1-.81445.97976c-.30357.063-.60508.14125-.9115.18447-.53054.07472-.68479.3915-.67191.88743.02433.93634.72238.68349,1.23487.69721,1.13427.03035,1.13854.01339,1.13886,1.11589.001,4.13592-.00841,8.2719.00472,12.40775.00285.88543-.18931,1.56362-1.22639,1.676-.44366.04808-.499.38846-.4883.75286.01249.42327.2524.60255.65315.6023q4.86787-.0036,9.73569-.01029c.38652-.00058.65425-.1384.67379-.578.01831-.41363-.0803-.72517-.56219-.77764a5.98945,5.98945,0,0,1-1.11407-.32981,1.38567,1.38567,0,0,1-.87217-1.37388c-.027-1.60043-.01294-3.20164-.01365-4.80253q-.00154-3.66522-.001-7.33044c.00026-1.35748.00116-1.35987,1.40083-1.35314l2.3146-.07519c.19649-1.13717.02775-1.64889-1.13783-1.65264-.59259-.00194-1.18531.00291-1.77771-.00977-.43692-.00932-.793-.14823-.79271-.66978.00091-1.60335-.02646-3.208.03216-4.80952.028-.76275.54963-1.0717,1.32054-1.12546.77491-.05409.89959.47781,1.02459.98041a6.22571,6.22571,0,0,1,.136,1.42114c.018,1.55172.00951,1.57895,1.60781,1.52085a2.94929,2.94929,0,0,0,2.09112-.45646C92.64472,7.01038,91.9805,4.437,90.10147,3.74856Z"/><path class="cls-5" d="M124.52629,20.57167c-.3301-.08793-.67942-.12306-.89591.2513-.14072.24334-.29639.47891-.42417.72872a4.12893,4.12893,0,0,1-4.2923,2.361c-1.37857-.07868-2.76524-.00977-4.14821-.02135-.26566-.0022-.56451.09925-.79821-.1428.0526-.33566.34647-.42049.56865-.57512,1.31743-.91681,2.67039-1.78742,3.94441-2.76064,2.10852-1.61092,4.18664-3.267,5.12285-5.90263,1.157-3.25709.30125-6.7099-2.76206-8.2224a9.27915,9.27915,0,0,0-5.45147-.67328c-3.36023.44094-5.37681,2.57748-6.98,5.28888-.23466.39688-.10255.65535.25111.92095a.63359.63359,0,0,0,.95342-.06813,5.44354,5.44354,0,0,1,1.15931-.83819,4.80747,4.80747,0,0,1,4.773-.1406c1.477.83684,1.76238,2.28341,1.72414,3.8601a9.8495,9.8495,0,0,1-2.94659,6.61912c-2.02532,2.1544-4.16672,4.2003-6.25732,6.29368-.23887.2392-.47451.48163-.7128.72148a1.07422,1.07422,0,0,0-.20769,1.10877c.12241.446.55163.30862.86621.309,5.10875.00589,10.2175-.008,15.32619.01093.70569.00259.99244-.19313,1.02622-.94631.11212-2.4988.298-4.99436.4619-7.49076C124.84617,20.97055,124.88305,20.66665,124.52629,20.57167Z"/><path class="cls-5" d="M96.77106,19.3718q3.80847-.01068,7.61713-.00841c2.08439-.002,2.10341-.00421,1.87424-2.10057a6.48922,6.48922,0,0,0-3.22719-5.34769,8.71748,8.71748,0,0,0-8.13823-.22257,9.00438,9.00438,0,0,0-5.44785,7.87735c-.02045,3.84289.6177,6.339,2.75961,8.249a9.22788,9.22788,0,0,0,7.9843,2.0917c3.29358-.53766,5.16524-2.75864,6.11174-5.8431a.55642.55642,0,0,0-.16479-.68124c-.27181-.207-.47089-.05033-.66305.13393-.10165.09751-.197.20181-.302.29549a5.93656,5.93656,0,0,1-6.1241,1.37243c-2.17685-.73176-2.96716-2.60277-3.24958-4.72637C95.67775,19.53278,95.81679,19.37445,96.77106,19.3718Zm-.78546-3.901a5.98737,5.98737,0,0,1,.66525-1.98521,1.783,1.783,0,0,1,1.59978-1.06665,1.55586,1.55586,0,0,1,1.53185.97749,8.04394,8.04394,0,0,1,.66021,3.77728c.00879.40891-.29886.58212-.68492.58781-.53566.00789-1.07157.002-1.60742.002v.00543c-.08463,0-.16926-.00071-.25382.00006C95.31142,17.79388,95.76167,17.84467,95.9856,15.47075Z"/></svg>