<?xml version="1.0" encoding="UTF-8" standalone="no"?>
<svg
   xmlns:dc="http://purl.org/dc/elements/1.1/"
   xmlns:cc="http://creativecommons.org/ns#"
   xmlns:rdf="http://www.w3.org/1999/02/22-rdf-syntax-ns#"
   xmlns:svg="http://www.w3.org/2000/svg"
   xmlns="http://www.w3.org/2000/svg"
   xmlns:sodipodi="http://sodipodi.sourceforge.net/DTD/sodipodi-0.dtd"
   xmlns:inkscape="http://www.inkscape.org/namespaces/inkscape"
   inkscape:version="1.0 (4035a4f, 2020-05-01)"
   sodipodi:docname="Flag_of_Saudi_Arabia.svg"
   id="svg16"
   version="1.1"
   height="700"
   width="900">
  <metadata
     id="metadata22">
    <rdf:RDF>
      <cc:Work
         rdf:about="">
        <dc:format>image/svg+xml</dc:format>
        <dc:type
           rdf:resource="http://purl.org/dc/dcmitype/StillImage" />
        <dc:title></dc:title>
      </cc:Work>
    </rdf:RDF>
  </metadata>
  <defs
     id="defs20" />
  <sodipodi:namedview
     inkscape:current-layer="svg16"
     inkscape:window-maximized="0"
     inkscape:window-y="81"
     inkscape:window-x="246"
     inkscape:cy="368.04911"
     inkscape:cx="444.89632"
     inkscape:zoom="0.58781078"
     showgrid="false"
     id="namedview18"
     inkscape:window-height="636"
     inkscape:window-width="839"
     inkscape:pageshadow="2"
     inkscape:pageopacity="0"
     guidetolerance="10"
     gridtolerance="10"
     objecttolerance="10"
     borderopacity="1"
     bordercolor="#666666"
     pagecolor="#ffffff" />
  <path
     id="path10"
     fill="#006c35"
     d="M 0,0 H 900 V 600 H 0 Z" />
  <path
     id="path12"
     fill="#ffffff"
     fill-rule="evenodd"
     d="m 562.26,412.5 c -0.01,0.004 -0.028,0.026 -0.037,0.032 -7.245,1.569 -7.02,7.909 -2.369,10.703 -76.507,0 -193.914,-1.096 -219.093,-1.096 -14.087,0 -58.653,-1.419 -59.511,-1.419 9.558,11.798 23.403,14.202 41.52,14.443 l 236.242,-0.355 c -3.185,4.774 0.29,12.466 2.788,13.863 0.053,0.03 0.138,0.074 0.191,0.097 a 1.161,0.98 0 0 0 0.306,0.096 c 0.03,0.006 0.086,-0.003 0.114,0 2.967,0.59 4.272,-1.223 5.271,-2.547 4.813,0.357 31.898,0.687 34.377,-0.032 0.008,-0.003 0.03,-0.03 0.037,-0.032 1.677,2.083 3.341,4.05 6.533,3.708 5.584,-1.011 9.982,-1.523 10.121,-11.09 0,0 -0.57,-16.3 -13.255,-15.28 -3,0.383 -11.42,1.097 -11.42,1.097 -9.744,-0.979 -16.892,-1.079 -27.845,-1.419 1.011,-1.083 2.796,-5.47 0.61,-7.06 -0.57,-0.4 -1.419,-0.623 -2.597,-0.548 h -0.037 c -0.017,0 -0.061,0.002 -0.077,0 -0.008,-0.002 -0.03,-0.03 -0.037,-0.032 -0.03,-0.009 -0.085,-0.017 -0.114,-0.032 a 1.202,1.014 0 0 1 -0.19,-0.16 c -0.014,-0.015 -0.064,-0.05 -0.077,-0.065 -0.554,-0.68 -0.856,-2.35 -1.223,-2.772 l -0.037,-0.032 c -0.005,-0.003 -0.034,-0.03 -0.038,-0.032 a 0.642,0.542 0 0 0 -0.076,-0.032 h -0.076 z m 5.195,23.309 c 0.013,-0.005 0.025,0.005 0.038,0 11.161,0.46 21.648,0.088 32.81,0.548 1.77,1.268 0.885,4.176 -0.267,4.706 a 1.427,1.427 0 0 1 -0.19,0.065 c -0.041,0.009 -0.102,-10e-4 -0.153,0 -0.051,0 -0.102,0.009 -0.153,0 l -9.358,-0.225 a 2.068,1.745 0 0 0 -0.076,-0.452 c -0.86,-2.152 -7.09,-2.007 -8.556,-0.322 -0.027,0.032 -0.05,0.063 -0.076,0.096 a 0.716,0.716 0 0 0 -0.077,0.13 2.342,1.976 0 0 0 -0.076,0.16 c -0.023,0.064 -0.029,0.159 -0.038,0.226 -0.01,0.086 -0.046,0.176 -0.038,0.258 -4.889,0.497 -9.31,-0.138 -14.209,-0.29 -1.426,-1.51 -1.27,-4.243 0.421,-4.9 z" />
  <path
     id="path14"
     fill="#ffffff"
     d="m 602.161,258.641 c 1.544,0.758 5.604,-3.84 5.46,-9.615 0.447,-2.962 -1.148,-13.903 -5.197,-15.758 -0.474,-0.15 -0.975,-0.212 -1.47,-0.15 -2.116,0.283 -4.118,2.083 -3.2,5.031 -0.58,1.729 2.872,7.787 3.767,11.003 0.805,2.289 -1.038,8.76 0.638,9.44 z M 282.526,165.745 c 4.957,2.176 14.253,1.262 13.86,-6.108 0,-0.638 -0.156,-2.842 -0.227,-3.437 -0.504,-1.084 -1.441,-1.495 -2.335,-1.354 l 0.01,0.002 c -0.904,0.15 -1.758,0.836 -2.072,1.942 -0.199,0.737 0.34,1.956 -0.376,2.324 -0.411,0.426 -1.986,0.15 -1.921,-1.906 0,-0.637 -0.518,-1.326 -0.829,-1.736 -0.311,-0.212 -0.524,-0.283 -1.092,-0.283 -0.687,0.018 -0.673,0.211 -1.054,0.729 -0.17,0.497 -0.383,1.078 -0.383,1.7 -0.084,0.722 -0.397,0.972 -0.98,1.077 -0.644,0 -0.502,0.056 -1.016,-0.283 -0.298,-0.355 -0.673,-0.426 -0.673,-0.972 0,-0.496 -0.156,-1.445 -0.34,-1.807 -0.277,-0.354 -0.702,-0.497 -1.205,-0.638 -2.707,0.01 -2.905,2.87 -2.75,3.955 -0.197,0.212 -0.304,5.272 3.391,6.697 z m -39.732,-0.283 c 0.76,1.744 -0.753,7.36 0.829,7.879 1.454,0.566 3.457,-3.891 4.218,-8.018 0.419,-2.261 0.1,-9.997 -5.61,-11.594 -0.298,-0.056 -0.596,-0.15 -0.905,-0.15 -2.184,-0.056 -4.594,1.19 -3.654,3.607 -0.546,1.318 4.275,5.769 5.122,8.228 z m 175.055,2.077 c 2.846,-7.09 2.86,-10.112 3.05,-13.12 -0.439,-2.288 -1.523,-3.394 -2.748,-3.302 -1.226,0.15 -2.583,1.41 -3.69,3.955 -0.951,1.942 -2.11,12.044 -1.922,12.044 -0.758,3.012 3.412,4.28 5.31,0.426 z m -35.368,-1.977 c 1.407,1.856 2.793,1.665 5.612,0.354 1.619,-1.099 2.166,-1.808 2.711,-3.65 0.673,-3.09 -3.53,1.46 -4.068,-1.984 -0.939,-3.196 1.744,-4.507 4.293,-7.602 0.058,-1.453 0.085,-2.643 -0.94,-2.679 -0.468,-0.012 -1.166,0.212 -2.147,0.758 -2.203,1.354 -6.57,5.556 -6.704,10.378 -0.135,2.721 -0.688,2.707 1.242,4.444 z m -144.54,48.815 c 14.469,1.282 6.476,-22.541 11.714,-26.866 0.99,-2.133 2.825,-2.176 2.975,0.497 v 20.236 c -0.135,6.576 4.565,8.534 8.21,9.893 3.794,-0.283 6.31,-0.212 7.797,3.225 l 1.808,35.022 c 0,0 8.77,2.317 9.19,-19.681 0.417,-12.92 -2.793,-23.762 -0.904,-26.275 0.065,-2.466 3.502,-2.594 5.875,-1.39 3.782,2.46 5.46,5.485 11.336,4.267 8.943,-2.268 14.33,-6.272 14.462,-12.6 -0.517,-6.017 -1.277,-12.035 -4.104,-18.05 0.39,-1.091 -1.712,-3.933 -1.319,-5.032 1.607,2.325 4.037,2.126 4.595,0 -1.522,-4.62 -3.892,-9.052 -7.72,-10.968 -3.164,-2.572 -7.796,-2.034 -9.491,3.331 -0.787,6.173 2.428,13.492 7.306,19.472 1.036,2.331 2.486,6.222 1.845,9.72 -2.597,1.366 -5.17,0.792 -7.345,-1.319 0,0 -7.117,-4.91 -7.117,-6.002 1.887,-11.147 0.403,-12.422 -0.638,-15.517 -0.731,-4.266 -2.927,-5.62 -4.707,-8.538 -1.781,-1.736 -4.196,-1.736 -5.348,0 -3.146,5.024 -1.67,15.827 0.603,20.653 1.642,4.443 4.16,7.22 2.975,7.22 -0.977,2.508 -3.012,1.927 -4.482,-0.972 -2.097,-5.995 -2.524,-14.925 -2.524,-18.952 -0.623,-4.989 -1.33,-15.655 -4.896,-18.361 -0.95,-1.198 -2.074,-1.609 -3.163,-1.495 -1.4,0.15 -2.719,1.199 -3.352,2.601 -0.233,4.954 -0.262,9.909 0.34,14.475 2.446,8.008 3.22,15.053 4.407,23.254 0.326,10.987 -6.884,4.748 -6.554,-0.708 1.666,-7.073 1.205,-18.212 -0.262,-21.035 -1.173,-2.82 -2.53,-3.522 -5.386,-3.054 -2.267,-0.15 -8.118,5.754 -9.754,15.481 0,0 -1.363,4.996 -1.959,9.442 -0.8,5.024 -4.414,8.584 -6.93,-0.71 -2.175,-6.739 -3.513,-23.359 -7.156,-19.47 -1.044,12.973 -2.282,35.803 9.679,38.146 z m 93.217,-22.015 c 0.006,0.003 0.03,-0.002 0.038,0 0.007,0.003 0.03,0.037 0.037,0.037 0.007,0.003 0.028,0 0.038,0 l 0.037,0.038 c 0.943,0.566 12.54,0.566 13.823,0.037 0.01,-0.006 0.03,-0.037 0.037,-0.037 0.007,-0.006 0.034,0.002 0.038,0 0.003,-0.002 -0.002,-0.038 0,-0.038 3.984,-1.354 22.898,-21.277 22.898,-21.277 -0.98,-0.773 -1.883,-1.347 -2.862,-2.12 -1.05,-0.843 -0.944,-1.657 0,-2.5 4.684,-2.51 3.2,-8.041 0.753,-10.554 -2.028,-0.836 -3.937,-1.119 -5.649,-1.042 a 10.78,10.78 0 0 0 -4.52,1.147 c -3.285,2.899 -4.056,7.548 -1.468,10.448 2.518,1.092 5.021,3.43 3.351,4.72 -7.13,7.009 -25.655,18.723 -26.589,20.86 a 0.193,0.193 0 0 1 -0.037,0.057 c -0.004,0.016 0,0.056 0,0.075 v 0.037 c 0.01,0.02 0.022,0.038 0.037,0.075 l 0.038,0.038 z m 28.063,-31.23 c 0.079,-0.016 0.148,-0.037 0.227,-0.037 1.157,-0.15 2.553,0.872 3.24,2.253 0.73,1.474 0.36,2.885 -0.83,3.161 -1.191,0.283 -2.733,-0.709 -3.464,-2.183 -0.73,-1.473 -0.361,-2.927 0.829,-3.196 z m 26.16,42.923 c 5.785,2.204 9.457,-7.943 11.826,-19.055 1.62,-3.125 2.858,-3.472 3.69,-1.878 -0.212,14.78 1.15,18.077 5.273,22.562 9.197,6.54 16.805,0.828 17.401,0.283 l 7.156,-6.598 c 1.594,-1.545 3.7,-1.637 5.95,-0.283 2.188,1.828 1.908,4.996 6.592,7.186 3.942,1.453 12.36,0.354 14.312,-2.778 2.627,-4.153 3.264,-5.577 4.482,-7.151 1.874,-2.303 5.085,-1.275 5.085,-0.495 -0.298,1.282 -2.185,2.544 -0.904,4.861 2.23,1.538 2.748,0.497 4.068,0.212 4.666,-2.055 8.172,-11.385 8.172,-11.385 0.205,-3.48 -1.942,-3.21 -3.314,-2.502 -1.791,1.012 -1.9,1.354 -3.691,2.36 -2.282,0.354 -6.701,1.7 -8.888,-1.425 -2.234,-3.749 -2.248,-8.978 -3.955,-12.773 0,-0.283 -2.985,-5.953 -0.227,-6.314 1.392,0.283 4.386,0.949 4.858,-1.354 1.46,-2.246 -3.15,-8.62 -6.29,-11.836 -2.725,-2.757 -6.488,-3.09 -10.13,-0.283 -2.551,2.161 -2.174,4.585 -2.675,6.874 -0.645,2.63 -0.524,5.889 2.373,9.372 2.547,4.62 7.175,10.568 5.65,18.95 0,0 -2.69,3.984 -7.42,3.473 -1.97,-0.425 -5.183,-1.183 -6.892,-12.807 -1.292,-8.799 0.32,-21.128 -3.73,-26.9 -0.903,-2.175 -1.7,-4.294 -3.012,-4.131 -0.787,0.056 -1.752,1.012 -3.088,3.267 -0.958,2.338 -5.092,5.882 -2.11,13.19 2.441,4.628 3.443,12.162 2.336,20.548 -1.691,2.38 -2.077,3.21 -4.293,5.584 -3.113,3.09 -6.488,2.296 -9.076,1.147 -2.42,-1.501 -4.319,-2.274 -5.424,-7.044 0.199,-7.608 0.673,-20.058 -0.828,-22.7 -2.225,-4.09 -5.89,-2.623 -7.457,-1.39 -7.53,6.342 -11.249,17.057 -13.522,25.58 -2.089,6.201 -4.313,4.415 -5.875,1.907 -3.804,-3.289 -4.071,-28.971 -8.663,-24.748 -7.355,19.371 4.22,40.591 12.24,38.528 z m -30.304,-13.804 c -4.383,2.183 -6.08,8.67 -3.35,12.461 2.55,3.331 6.58,2.12 7.117,2.12 4.295,0.496 6.855,-7.428 6.855,-7.428 0,0 0.127,-2.233 -4.972,1.977 -2.146,0.425 -2.438,-0.355 -2.975,-1.453 -0.447,-2.062 -0.348,-4.153 0.673,-6.208 0.475,-1.234 0.002,-2.02 -1.016,-2.12 -0.603,-0.055 -1.413,0.15 -2.335,0.638 z m 283.325,98.903 c -0.94,-0.992 -3.059,-0.426 -4.483,-0.497 -0.673,0 -2.912,-0.354 -1.844,-2.119 0.883,-1.127 1.209,-1.8 1.808,-3.196 0.666,-1.36 0.078,-2.275 -2.336,-3.019 -1.229,-0.212 -2.08,-0.283 -2.975,-0.283 -0.895,0.038 -1.836,0.15 -3.2,0.283 -1.477,0.283 -1.992,0.885 -2.26,2.53 0.106,2.502 1.766,2.374 3.464,3.366 0.985,1.155 1.625,2.197 -0.078,4.09 l -4.369,3.472 c -0.76,1.19 -1.235,3.033 1.092,3.607 4.296,1.112 14.236,-4.84 14.236,-4.968 1.61,-1.112 1.076,-3.224 0.942,-3.224 z M 669.25,184.59 c -0.326,-2.211 -1.386,-7.287 -0.98,-7.95 0.652,-1.553 3.977,0.15 5.16,-1.63 1.734,-1.636 -8.588,-13.812 -12.203,-19.02 -0.723,-1.304 -1.168,-2.382 -1.808,-2.325 -0.496,0.037 -1.105,0.787 -2.034,2.6 -2.235,3.38 -3.013,9.417 -2.109,14.753 5.382,33.547 9.38,66.032 10.207,95.766 -0.46,2.82 -0.595,4.322 -2.034,7.878 -3.176,3.748 -6.678,8.457 -9.98,10.725 -3.3,2.268 -10.321,4.43 -12.617,6.109 -7.284,3.883 -7.332,8.342 -1.432,8.504 10.15,-1.084 22.159,-1.85 30.431,-13.363 2.214,-3.224 4.82,-11.97 4.935,-17.32 0.774,-31.375 -0.433,-62.052 -5.538,-84.727 z m -439.348,61.52 37.662,-16.66 c -2.059,-2.834 -0.127,-5.385 -7.87,-5.59 -11.902,0.211 -29.332,14.377 -29.792,22.248 z m 6.709,35.954 c -3.131,5.86 -4.434,1.849 -4.707,-1.425 -0.475,-6.208 0.17,-11.925 0.904,-16.452 0.39,-2.324 0.376,-3.132 0.079,-3.125 -0.298,0.01 -0.9,0.836 -1.695,1.757 -7.08,10.397 -7.71,25.914 -3.804,30.545 2.077,2.19 5.499,3.146 8.022,2.466 4.449,-1.78 6.403,-10.082 5.347,-13.12 -1.484,-2.147 -2.661,-2.48 -4.143,-0.637 z m 88.782,-15.624 c 5.157,-15.824 -0.107,-27.761 1.62,-29.225 0.015,-0.012 0.06,-0.019 0.08,-0.038 0.014,-0.01 0.057,-0.018 0.078,-0.037 0.017,-0.008 0.056,-0.038 0.079,-0.038 a 0.895,0.895 0 0 1 0.226,-0.037 c 6.364,6.314 15.292,0.8 17.249,-1.39 0.84,-1.09 2.939,-1.8 4.406,-0.425 4.964,3.288 13.663,1.736 15.48,-4.06 1.05,-5.67 1.936,-11.508 2.146,-17.563 -3.234,0.928 -5.841,1.622 -6.892,2.636 -0.248,0.283 -0.432,0.497 -0.49,0.837 l -0.828,5.031 c -0.026,0.15 -0.078,0.283 -0.148,0.426 -0.148,0.212 -0.361,0.425 -0.602,0.497 -1.143,0.566 -3.137,0.283 -3.24,-1.283 -1.535,-6.442 -7.866,-7.283 -11.712,2.707 -2.587,1.935 -7.306,2.31 -7.797,-0.566 0.624,-6.704 -2.31,-7.601 -8.172,-4.443 l -5.649,-39.221 c 2.448,-0.056 4.692,1.566 6.93,-1.014 -2.41,-6.945 -7.545,-21.063 -10.432,-22.389 -0.022,-0.009 -0.052,-0.018 -0.079,-0.037 a 5.67,5.67 0 0 0 -0.41,-0.426 c -0.06,-0.037 -0.12,-0.075 -0.184,-0.15 -0.053,-0.037 -0.135,-0.056 -0.184,-0.15 -0.12,-0.056 -0.248,-0.15 -0.376,-0.15 -0.255,-0.056 -0.524,-0.056 -0.791,-0.056 h 0.002 c -0.718,0.056 -1.512,0.426 -2.448,0.638 -3.075,0.907 -5.955,3.352 -5.047,8.122 l 9.642,56.265 c 0.56,2.38 -1.61,5.527 -4.406,5.208 -4.754,-2.962 -5.926,-8.977 -14.047,-8.711 -5.874,0.056 -12.572,5.952 -13.408,11.627 -0.98,4.507 -1.328,9.397 0,13.329 4.117,4.57 9.072,4.089 13.408,3.054 3.565,-1.354 6.497,-4.592 7.758,-3.82 0.004,0.004 0.034,-0.003 0.038,0 0.003,0.006 -0.004,0.038 0,0.038 0.777,1.254 -0.072,11.843 -16.799,20.027 -10.278,4.252 -18.46,5.265 -22.861,-2.466 -2.727,-4.833 0.198,-23.232 -6.515,-18.987 -19.856,47.169 46.518,53.754 53.932,1.941 0.482,-1.459 1.943,-2.927 2.976,-2.565 0.446,0.212 0.867,0.744 1.017,1.8 -1.539,46.911 -51.348,50.126 -59.807,35.37 -2.097,-3.48 -2.729,-11.222 -2.938,-15.862 -0.382,-2.806 -1.148,-4.43 -2.034,-5.067 -2.008,-1.39 -4.72,2.254 -5.31,8.573 -0.84,5.089 -0.602,6.477 -0.602,11.386 2.656,37.051 66.754,21.131 77.17,-9.476 z m -24.76,-32.06 c -0.005,0.006 0.003,0.037 0,0.037 -0.01,0.017 -0.027,0.056 -0.038,0.056 -0.496,0.567 -2.254,0.355 -3.502,0.355 -1.512,-0.057 -2.256,-0.283 -3.164,-1.425 -0.432,-1.262 0.887,-2.502 1.47,-3.437 0.006,-0.01 0.032,-0.02 0.038,-0.038 0.078,-0.056 0.163,-0.212 0.262,-0.283 0.453,-0.426 1.233,-0.737 2.071,-0.836 0.163,-0.019 0.32,-0.038 0.49,-0.038 1.166,0.012 2.397,0.497 3.049,2.048 0.481,1.206 0.226,2.559 -0.674,3.544 z m 274.802,60.7 -11.149,1.105 z m -62.86,-96.081 c 4.957,2.175 14.292,1.219 13.897,-6.144 0,-0.638 -0.191,-2.842 -0.262,-3.437 -0.503,-1.091 -1.44,-1.495 -2.335,-1.354 -0.894,0.15 -1.757,0.857 -2.071,1.984 -0.199,0.737 0.382,1.92 -0.34,2.29 -0.412,0.425 -2.024,0.15 -1.96,-1.879 0,-0.637 -0.51,-1.36 -0.828,-1.772 -0.312,-0.211 -0.524,-0.283 -1.092,-0.283 -0.687,0.02 -0.673,0.212 -1.054,0.73 -0.163,0.497 -0.376,1.083 -0.376,1.7 -0.084,0.722 -0.361,0.972 -0.94,1.078 -0.646,0 -0.532,0.057 -1.055,-0.283 -0.298,-0.354 -0.674,-0.425 -0.674,-0.97 0,-0.498 -0.155,-1.44 -0.34,-1.808 -0.269,-0.355 -0.701,-0.426 -1.204,-0.567 -2.708,0.01 -2.868,2.842 -2.712,3.92 -0.198,0.21 -0.34,5.321 3.351,6.731 z m 79.925,18.988 c 0.084,-4.301 0.538,-10.016 0.79,-13.573 0.107,-1.346 0.446,-2.82 1.844,-3.16 1.395,-0.355 3.814,1.29 3.842,-0.15 -0.255,-2.736 -0.847,-6.768 -2.524,-8.677 -0.858,-1.176 -2.267,-1.808 -3.728,-1.878 -2.434,-0.15 -5.025,1.346 -5.688,4.408 0.01,1.807 0.886,2.8 0.715,4.436 -0.255,0.936 -1.303,1.553 -3.804,0.426 0.397,-0.355 -1.62,-2.955 -1.62,-2.955 -1.951,-1.091 -4.556,0.056 -6.252,1.076 -0.933,1.56 -1.622,4.245 -0.56,6.973 2.8,4.77 12.406,12.903 16.987,12.982 z m -30.888,59.344 c 3.454,0.02 7.446,-7.28 9.152,-14.507 0.934,-9.956 -0.624,-16.015 -0.904,-21.867 -0.284,-5.853 -7.188,-53.33 -8.587,-57.758 -1.687,-8.371 6.717,-1.107 5.8,-5.967 -2.905,-6.138 -10.158,-15.087 -12.428,-20.41 -0.853,-1.43 -0.959,-2.749 -1.657,-2.635 -0.418,0.075 -1.038,0.637 -2.185,2.048 -2.836,8.542 -3.832,15.52 -2.75,20.825 7.282,35.025 14.744,66.934 13.559,100.276 z m -25.91,-7.148 c -7.971,7.67 -19.464,17.124 -31.975,21.486 -1.346,1.39 3.346,7.329 9.416,7.323 10.15,-1.083 19.07,-6.335 27.343,-20.165 2.213,-3.225 6.1,-10.13 6.215,-15.482 0.774,-31.374 -1.707,-55.768 -6.816,-78.444 -0.326,-2.211 -0.107,-4.812 0.297,-5.485 0.652,-0.724 2.886,0.017 4.068,-1.772 1.734,-1.63 -4.632,-15.167 -8.248,-20.376 -0.723,-1.305 -1.168,-2.345 -1.808,-2.289 -0.496,0.038 -1.105,0.752 -2.035,2.573 -2.236,3.38 -3.754,9.251 -3.579,14.752 4.841,30.894 6.327,57.929 9.491,88.823 0.256,2.99 -0.22,7.328 -2.372,9.06 z m 20.84,-12.66 c 0.12,-0.425 0.1,-0.425 0,0 z m -40.62,-87.098 c 1.769,4.564 -1.35,8.916 0.49,9.546 1.693,0.708 4.05,-4.72 4.934,-9.72 1.021,-4.046 -2.113,-12.344 -6.554,-14.056 -0.34,-0.075 -0.701,-0.075 -1.054,-0.15 -2.54,-0.075 -5.35,1.41 -4.256,4.337 -0.638,1.601 5.457,7.037 6.44,9.996 z m 89.506,47.378 a 0.886,0.886 0 0 0 -0.41,0.038 l -23.539,15.584 c -2.278,1.871 -1.138,8.429 0,7.672 1.647,0.566 24.772,-13.86 24.33,-15.551 1.008,0.056 1.493,-7.43 -0.375,-7.74 z m -16.17,-42.142 a 824.224,824.224 0 0 1 20.489,24.157 c 1.453,17.235 1.84,33.032 3.314,50.294 -0.205,7.384 -2.673,17.189 -5.008,18.12 0,0 -3.567,1.884 -5.95,-0.212 -1.733,-0.638 -8.663,-10.657 -8.663,-10.657 -3.547,-2.998 -5.912,-2.14 -8.436,0 -6.96,6.194 -10.109,17.798 -14.838,25.79 -1.219,1.785 -4.655,3.295 -8.473,-0.15 -7.858,-9.903 -5.629,-23.179 -5.14,-25.493 l -0.099,0.426 c -8.64,8.973 -4.813,23.841 -2.862,27.04 2.848,5.25 5.152,8.613 10.696,11.21 5.05,3.423 8.979,1.29 11.148,-1.106 5.08,-4.855 5.148,-17.26 7.532,-19.715 1.673,-4.514 5.865,-3.735 7.91,-1.736 1.98,2.622 4.32,4.337 7.23,5.761 4.74,3.848 10.395,4.55 15.97,1.043 3.808,-1.97 6.28,-4.536 8.511,-9.581 2.394,-5.896 1.21,-36.81 0.673,-54.008 l 10.621,14.196 c 1.54,15.087 2.24,29.963 1.733,44.22 -0.362,2.834 10.733,-8.464 10.659,-13.815 v -12.878 c 5.383,7.92 10.592,15.972 15.516,24.124 3.051,-1.481 2.006,-17.414 0.079,-19.61 -5.157,-7.974 -11.76,-16.59 -16.873,-23.256 -1.011,-8.424 -2.388,-18.34 -3.013,-21.383 -0.974,-4.74 -1.952,-11.865 -3.428,-17.493 -0.404,-2.197 -1.627,-9.217 -1.241,-9.891 0.602,-1.566 2.872,0.056 3.992,-1.772 1.675,-1.688 -5.805,-19.546 -9.605,-24.645 -1.365,-2.289 -3.834,-1.494 -6.892,2.225 -2.836,2.445 -1.808,8.024 -0.715,13.329 2.812,13.521 5.32,27.293 7.306,41.028 l -12.58,-17.008 -0.56,-2.679 c 0,-0.283 -0.602,-11.06 -1.13,-13.64 -0.099,-1.047 -0.36,-1.346 0.83,-1.21 1.262,0.976 1.433,1.027 2.222,1.353 1.276,0.212 2.389,-1.772 1.62,-3.607 L 609.977,154.3 c -0.474,-0.425 -1.006,-0.885 -1.62,-0.97 -0.609,-0.076 -1.282,0.21 -2.034,1.21 -1.438,1.163 -2.984,3.267 -2.938,5.967 0.348,4.762 1.27,9.64 1.62,14.405 l 0.376,1.907 a 18.137,18.137 0 0 0 -1.319,-1.425 c -10.075,-9.756 4.62,-1.594 -1.921,-9.13 -5.539,-5.605 -7.16,-7.389 -11.901,-10.76 -2.377,-1.417 -3.814,-4.124 -4.595,0.426 -0.298,4.046 -0.631,8.736 -0.333,12.15 -0.017,1.891 2.114,5.463 3.954,7.566 z m 58.42,7.825 c 0.805,2.29 -1.226,9.664 0.446,10.344 1.543,0.757 3.714,-5.096 4.52,-10.518 0.446,-2.962 -1.939,-13.382 -5.99,-15.237 -0.318,-0.056 -0.644,-0.15 -0.978,-0.15 -2.316,-0.056 -4.841,1.545 -3.842,4.72 -0.581,1.729 4.941,7.614 5.838,10.829 z M 472.08,290.264 c 0,0.212 1.94,1.709 4.218,0.426 4.808,-1.693 7.804,-3.338 14.537,-4.684 1.768,-0.038 1.665,-4.394 -1.13,-4.543 -3.646,0.212 -7.013,0.355 -10.66,2.984 -2.243,0.425 -2.628,-0.78 -3.126,-1.907 -0.567,-2.799 1.283,-4.776 0.904,-6.874 0.099,0.075 -1.132,-0.928 -2.712,-1.006 -0.574,-0.02 -1.146,0.075 -1.656,0.354 -0.1,0 -5.07,3.09 -6.666,5.237 -0.975,0.709 -0.864,1.275 -0.56,2.466 0.76,1.609 2.097,1.106 3.616,0.354 2.015,-0.283 2.99,0.964 2.824,3.196 -0.93,2.778 0.411,3.82 0.411,3.997 z m 22.732,-44.232 0.037,-0.038 c 0.004,-0.003 0.034,-0.037 0.038,-0.037 0.003,-0.004 0.03,-0.019 0.037,-0.038 v -0.075 a 1.247,1.247 0 0 0 -0.037,-0.354 l -2.185,-1.183 -43.048,-0.212 c -0.532,-0.212 -0.928,-0.426 -1.167,-0.497 a 2.149,2.149 0 0 1 -0.08,-0.075 l -0.037,-0.037 -0.037,-0.038 -0.038,-0.056 -0.037,-0.038 v -0.037 l -0.038,-0.038 v -0.15 -0.187 l 0.038,-0.038 0.037,-0.056 c 0.199,-0.283 0.719,-0.497 1.356,-0.73 10.28,-1.29 28.541,-4.046 29.754,-20.234 -0.198,-8.423 -3.914,-13.952 -15.139,-15.483 -8.249,0.566 -14.13,7.942 -13.183,16.038 -0.39,2.175 0.801,6.463 -1.62,6.937 -15.822,1.334 -33.09,10.459 -33.67,17.008 h -0.038 l -0.038,0.037 -0.079,0.038 h -0.079 c -0.037,0.012 -0.078,0.018 -0.112,0.037 h -0.226 c -0.05,-0.01 -0.1,-0.019 -0.148,-0.037 -1.029,-0.283 -2.354,-1.828 -2.146,-4.025 -0.602,-11.304 -4.595,-24.096 -10.847,-33.947 -2.231,-2.055 -3.214,-2.884 -3.841,-2.983 -0.021,-0.002 -0.055,0 -0.08,0 h -0.233 a 0.305,0.305 0 0 0 -0.184,0.15 c -0.04,0.019 -0.078,0.037 -0.112,0.056 -0.482,0.354 -1.056,1.106 -2.335,1.942 -2.157,2.26 -2.543,3.834 -2.411,8.365 0.12,0.425 4.094,10.644 7.457,17.805 2.268,7.433 4.365,15.947 2.825,23.985 -5.31,10.628 -15.984,20.16 -26.287,25.338 -5.25,1.545 -9.782,1.02 -10.997,-0.038 l -0.036,-0.037 c -3.013,-1.872 -3.082,-5.18 -2.897,-5.762 v -0.037 l 0.037,-0.038 c 8.695,-5.584 18.625,-10.088 26.4,-25.164 2.297,-5.762 2.998,-9.215 0.716,-18.119 -0.889,-3.316 -1.989,-6.045 -4.444,-8.4 l 0.037,-0.037 c 1.48,-0.638 5.32,1.956 5.913,0.354 -0.909,-4.252 -4.032,-9.957 -7.57,-12.877 -3.097,-2.594 -6.468,-2.892 -9.303,-0.497 -3.193,1.637 -3.873,7.52 -2.335,12.669 1.707,3.876 6.32,4.55 9.604,12.356 v 0.038 c 0.068,0.426 1.127,5.832 -0.524,7.983 -1.343,3.855 -18.58,16.383 -19.811,17.146 -0.014,0.014 -0.1,0.056 -0.115,0.075 l -0.037,0.038 c -0.013,0.01 -0.025,0.018 -0.038,0.037 -0.012,0.012 -0.024,0.019 -0.037,0.038 h -0.08 c -0.012,-0.012 -0.025,-0.02 -0.037,-0.038 v -0.037 a 0.283,0.283 0 0 1 -0.037,-0.075 c -0.053,-0.355 0.04,-1.107 0,-2.396 -0.114,-2.345 0.94,-7.662 0.865,-8.574 v -0.037 l -0.037,-0.038 v -0.037 h -0.038 c -5.7,3.387 -7.582,13.792 -8.624,16.87 -14.432,9.191 -30.832,16.028 -40.26,25.338 -4.916,7.073 33.87,-8.124 38.378,-9.962 0.04,0.019 0.079,0.075 0.113,0.15 0.856,0.864 0.93,3.898 3.502,6.626 4.03,5.031 12.601,8.132 20.94,6.208 13.985,-4.656 22.041,-13.442 30.244,-23.186 1.172,-1.573 3.01,-2.807 4.707,-1.594 5.636,11.63 21.887,19.904 42.897,20.757 4.861,-5.45 2.537,-8.126 0.56,-9.268 -0.602,-0.426 -10.449,-3.912 -11.976,-7.428 -0.963,-3.274 1.375,-6.18 6.063,-8.365 13.49,-1.502 26.75,-3.175 39.584,-6.974 0.127,-3.975 2.67,-9.915 4.369,-12.496 1.18,-1.792 1.938,-1.97 2.222,-2.225 z M 459.307,221.12 c 0.03,-0.15 0.078,-0.212 0.148,-0.355 0.024,-0.037 0.047,-0.056 0.079,-0.15 l 0.037,-0.037 c 0.056,-0.075 0.12,-0.15 0.184,-0.212 0.269,-0.212 0.659,-0.354 1.093,-0.426 0.937,-0.075 2.167,0.212 3.35,0.837 1.715,0.915 2.773,2.296 2.637,3.302 -0.005,0.019 0.006,0.056 0,0.15 -0.006,0.019 -0.066,0.056 -0.079,0.15 l -0.037,0.15 c -0.007,0.016 -0.03,0.056 -0.038,0.056 -0.012,0.019 -0.024,0.038 -0.037,0.075 -0.064,0.075 -0.143,0.212 -0.227,0.283 -0.823,0.71 -2.726,0.567 -4.52,-0.354 -1.698,-0.908 -2.748,-2.296 -2.635,-3.295 0.004,-0.02 0.032,-0.057 0.037,-0.15 z m -17.21,39.736 c -4.62,1.46 -9.056,2.6 -9.076,8.747 0.603,3.047 0.475,4.641 -0.037,5.378 -0.045,0.057 -0.092,0.15 -0.148,0.212 l -0.038,0.038 -0.037,0.037 c -0.012,0.012 -0.025,0.02 -0.038,0.038 l -0.037,0.037 c -0.027,0.011 -0.053,0.02 -0.08,0.038 -0.07,0.056 -0.147,0.056 -0.226,0.15 -0.064,0.019 -0.155,0.019 -0.226,0.037 -1.098,0.15 -2.692,-0.815 -3.88,-1.389 -2.848,-1.885 -10.84,-6.449 -11.977,-16.245 -0.163,-2.21 1.633,-4.117 4.52,-4.301 0.142,-0.01 0.261,0 0.41,0 h 0.079 c 4.795,1.198 11.865,1.325 18.004,1.906 4.998,0.283 7.469,3.898 2.787,5.414 z M 341.09,247.32 c -0.114,1.764 5.284,3.911 5.611,7.983 0.772,1.68 -1.155,7.065 0.454,7.566 1.474,0.566 3.52,-3.72 4.293,-7.705 0.425,-2.183 -1.852,-9.814 -5.725,-11.176 -0.602,-0.15 -1.226,-0.212 -1.844,-0.15 -1.87,0.15 -3.54,1.042 -2.788,3.472 z m 86.758,-24.858 c 4.957,2.176 16.772,0.9 13.897,-6.137 0,-0.638 -0.191,-2.842 -0.262,-3.437 -0.504,-1.084 -1.44,-1.495 -2.335,-1.354 -0.895,0.15 -1.758,0.836 -2.072,1.942 -0.198,0.737 0.383,1.956 -0.333,2.331 -0.41,0.426 -2.023,0.15 -1.959,-1.878 0,-0.637 -0.517,-1.36 -0.828,-1.771 -0.312,-0.212 -0.482,-0.284 -1.054,-0.284 -0.688,0.02 -0.702,0.212 -1.092,0.73 -0.164,0.497 -0.376,1.084 -0.376,1.7 -0.084,0.722 -0.361,0.972 -0.941,1.077 -0.645,0 -0.503,0.075 -1.018,-0.283 -0.297,-0.355 -0.715,-0.426 -0.715,-0.972 0,-0.497 -0.12,-1.438 -0.297,-1.8 -0.27,-0.354 -0.747,-0.425 -1.243,-0.566 -2.707,0.01 -2.867,2.842 -2.711,3.919 -0.199,0.212 -0.34,5.322 3.35,6.732 z m 41.975,-50.31 c 8.31,10.296 16.307,20.641 24.03,31.344 1.204,7.947 2.103,15.72 2.674,23.464 1.251,16.975 1.63,38.108 0.489,55.986 3.451,0.15 8.98,-5.138 10.922,-12.842 1.263,-10.66 -0.447,-32.412 -0.56,-38.702 -0.079,-2.608 -0.255,-5.726 -0.454,-8.99 a 572.793,572.793 0 0 1 26.25,43.596 c 3.12,-1.361 2.428,-17.547 0.603,-19.82 -6.847,-13.58 -16.305,-26.986 -19.32,-32.143 -1.09,-1.85 -4.796,-7.058 -9.19,-13.05 -0.809,-8.55 -1.687,-15.792 -2.26,-17.98 -1.413,-9.039 4.03,1.013 3.277,-4.238 -1.768,-9.026 -7.173,-15.16 -13.559,-23.428 -2.058,-2.686 -2.008,-3.239 -5.197,0.637 -1.9,3.976 -1.874,7.278 -1.319,10.379 a 56.396,56.396 0 0 0 -3.351,-4.09 l -10.432,-8.155 c -1.444,-0.944 -4.191,-2.41 -6.29,-2.225 -1.26,0.15 -2.262,0.787 -2.636,2.5 -0.504,4.033 -0.241,6.223 0.489,9.58 0.56,2.24 4.097,5.982 5.837,8.159 z m 17.596,-0.566 c 0.198,0.872 0.425,1.744 0.567,2.636 0.474,1.92 0.883,3.827 1.318,5.726 -1.827,-2.324 -3.34,-4.195 -3.991,-4.861 -4.138,-4.536 0.091,-2.97 2.108,-3.5 z" />
  <g
     style="font-weight:bold;font-size:40px;line-height:1.25;font-family:Helvetica;-inkscape-font-specification:'Helvetica, Bold';text-align:center;text-anchor:middle"
     id="text26"
     aria-label="Saudi Arabia (Tabaud)">
    <path
       d="m 250.43164,627.04492 c -3.63281,0 -6.38672,0.85286 -8.26172,2.5586 -1.875,1.70572 -2.8125,3.84765 -2.8125,6.42578 0,2.82552 0.97006,4.90234 2.91016,6.23047 1.14583,0.79426 3.21614,1.52994 6.21094,2.20703 l 3.04687,0.68359 c 1.78386,0.39063 3.09245,0.83984 3.92578,1.34766 0.83334,0.52083 1.25,1.25651 1.25,2.20703 0,1.6276 -0.83984,2.74089 -2.51953,3.33984 -0.88541,0.3125 -2.03776,0.46875 -3.45703,0.46875 -2.36979,0 -4.04297,-0.59245 -5.01953,-1.77734 -0.53386,-0.65104 -0.89193,-1.63411 -1.07422,-2.94922 h -5.74219 c 0,2.99479 1.07422,5.35157 3.22266,7.07031 2.14844,1.70574 5.09765,2.5586 8.84765,2.5586 3.67188,0 6.51042,-0.86589 8.51563,-2.59766 2.01823,-1.74479 3.02734,-3.93229 3.02734,-6.5625 0,-2.56511 -0.85937,-4.52474 -2.57812,-5.87891 -1.10677,-0.87239 -2.7474,-1.56901 -4.92188,-2.08984 l -4.96093,-1.19141 c -1.91406,-0.45572 -3.16406,-0.85286 -3.75,-1.1914 -0.91146,-0.50782 -1.36719,-1.27604 -1.36719,-2.30469 0,-1.11979 0.46224,-1.99219 1.38672,-2.61719 0.92448,-0.625 2.16145,-0.9375 3.71093,-0.9375 1.39323,0 2.5586,0.24088 3.4961,0.72266 1.40625,0.72916 2.16146,1.95963 2.26562,3.6914 h 5.78125 c -0.10416,-3.0599 -1.23046,-5.39062 -3.3789,-6.99218 -2.13542,-1.61459 -4.72005,-2.42188 -7.75391,-2.42188 z m 249.62891,0.3711 c -1.97917,2.76041 -3.48308,5.33854 -4.51172,7.73437 -1.52344,3.51563 -2.28516,7.05729 -2.28516,10.625 0,3.91927 0.90495,7.90365 2.71485,11.95313 1.01562,2.26562 1.97266,3.97135 2.87109,5.11718 l 1.38672,1.89453 h 4.12109 c -1.71875,-3.09896 -2.91667,-5.63802 -3.59375,-7.61718 -1.15886,-3.34636 -1.73828,-7.01172 -1.73828,-10.9961 0,-2.55208 0.20833,-4.90885 0.625,-7.07031 0.63803,-3.29427 1.77735,-6.44531 3.41797,-9.45312 l 1.19141,-2.1875 z m 144.70703,0 1.1914,2.1875 c 1.64063,3.00781 2.77995,6.15885 3.41797,9.45312 0.41667,2.16146 0.625,4.51823 0.625,7.07031 0,3.98438 -0.57942,7.64974 -1.73828,10.9961 -0.67708,1.97916 -1.875,4.51822 -3.59375,7.61718 h 4.1211 l 1.38671,-1.89453 c 0.89844,-1.14583 1.85547,-2.85156 2.8711,-5.11718 1.8099,-4.04948 2.71484,-8.03386 2.71484,-11.95313 0,-3.56771 -0.76171,-7.10937 -2.28515,-10.625 -1.02865,-2.39583 -2.53256,-4.97396 -4.51172,-7.73437 z m -306.97266,0.29296 v 5.13672 h 5.64453 v -5.13672 z m 111.95313,0 v 5.13672 h 5.64453 v -5.13672 z m -82.58789,0.17579 -10.27344,28.78906 h 6.28906 l 1.99219,-5.91797 h 10.60547 l 1.85547,5.91797 h 6.52343 l -10.19531,-28.78906 z m 138.36914,0 v 5.09765 h 8.65234 v 23.69141 h 6.05469 v -23.69141 h 8.61328 v -5.09765 z m -178.53516,0.0391 v 10.15625 c -0.625,-1.00261 -1.43881,-1.78386 -2.44141,-2.34375 -1.0026,-0.57292 -2.14844,-0.85938 -3.4375,-0.85938 -2.79948,0 -5.03906,1.04167 -6.71875,3.125 -1.66666,2.08334 -2.5,4.94141 -2.5,8.57422 0,3.15105 0.84636,5.73568 2.53907,7.75391 1.70572,2.0052 3.80208,3.00781 6.28906,3.00781 1.51042,0 2.77344,-0.28646 3.78906,-0.85937 1.01562,-0.57292 1.92057,-1.49089 2.71485,-2.75391 v 2.94922 h 5.41015 v -28.75 z m 98.02734,0 v 28.75 h 5.44922 v -2.67578 c 0.74219,1.04166 1.4323,1.77083 2.07032,2.1875 1.0677,0.70312 2.48046,1.05468 4.23828,1.05468 2.79948,0 4.98047,-1.08723 6.54297,-3.26171 1.5625,-2.17448 2.34375,-4.91537 2.34375,-8.22266 0,-3.19011 -0.79428,-5.79427 -2.38282,-7.8125 -1.57552,-2.01823 -3.76302,-3.02734 -6.5625,-3.02734 -1.54948,0 -2.82552,0.32552 -3.82812,0.97656 -0.84636,0.52083 -1.62109,1.27604 -2.32422,2.26562 v -10.23437 z m 126.01563,0 v 28.75 h 5.44922 v -2.67578 c 0.74218,1.04166 1.43229,1.77083 2.07031,2.1875 1.06771,0.70312 2.48047,1.05468 4.23828,1.05468 2.79948,0 4.98047,-1.08723 6.54297,-3.26171 1.5625,-2.17448 2.34375,-4.91537 2.34375,-8.22266 0,-3.19011 -0.79427,-5.79427 -2.38281,-7.8125 -1.57552,-2.01823 -3.76302,-3.02734 -6.5625,-3.02734 -1.54948,0 -2.82553,0.32552 -3.82813,0.97656 -0.84635,0.52083 -1.62109,1.27604 -2.32422,2.26562 v -10.23437 z m 85.09766,0 v 10.15625 c -0.625,-1.00261 -1.4388,-1.78386 -2.44141,-2.34375 -1.0026,-0.57292 -2.14843,-0.85938 -3.4375,-0.85938 -2.79948,0 -5.03906,1.04167 -6.71875,3.125 -1.66667,2.08334 -2.5,4.94141 -2.5,8.57422 0,3.15105 0.84635,5.73568 2.53906,7.75391 1.70573,2.0052 3.80208,3.00781 6.28906,3.00781 1.51042,0 2.77344,-0.28646 3.78907,-0.85937 1.01562,-0.57292 1.92057,-1.49089 2.71484,-2.75391 v 2.94922 h 5.41016 v -28.75 z M 370.5,634.4668 l 3.59375,11.32812 h -7.30469 z m -95.57617,0.41015 c -3.58073,0 -6.10677,0.9375 -7.57813,2.8125 -0.92448,1.19792 -1.44531,2.72787 -1.5625,4.58985 h 5.3711 c 0.1302,-0.82032 0.39062,-1.47135 0.78125,-1.95313 0.54687,-0.65104 1.47786,-0.97656 2.79297,-0.97656 1.17187,0 2.05729,0.16927 2.65625,0.50781 0.61198,0.32552 0.91796,0.92448 0.91796,1.79688 0,0.71614 -0.39713,1.24349 -1.1914,1.58203 -0.44271,0.19531 -1.17839,0.35807 -2.20703,0.48828 l -1.89453,0.23437 c -2.14844,0.27344 -3.77605,0.72917 -4.88282,1.36719 -2.01823,1.17188 -3.02734,3.06641 -3.02734,5.6836 0,2.01822 0.625,3.58072 1.875,4.6875 1.26302,1.09374 2.85807,1.64062 4.78516,1.64062 1.51041,0 2.86458,-0.34506 4.0625,-1.03516 1.0026,-0.58594 1.88802,-1.29557 2.65625,-2.1289 0.039,0.48177 0.0911,0.91146 0.15625,1.28906 0.0651,0.37761 0.18229,0.78125 0.35156,1.21094 h 6.05469 v -0.82031 c -0.36459,-0.16928 -0.63803,-0.38412 -0.82032,-0.64454 -0.18228,-0.26042 -0.29296,-0.7552 -0.33203,-1.48437 -0.0261,-0.96354 -0.0391,-1.78385 -0.0391,-2.46094 v -9.76562 c 0,-2.56511 -0.90495,-4.3099 -2.71484,-5.23438 -1.8099,-0.92448 -3.88021,-1.38672 -6.21094,-1.38672 z m 124.04297,0 c -1.66667,0 -3.02084,0.4362 -4.0625,1.3086 -0.63802,0.52083 -1.38672,1.49089 -2.2461,2.91015 v -3.71093 h -5.3125 v 21.28906 h 5.60547 v -10.17578 c 0,-1.70574 0.21485,-2.96876 0.64453,-3.78907 0.76823,-1.45833 2.27214,-2.1875 4.51172,-2.1875 0.16927,0 0.39062,0.007 0.66406,0.0195 0.27344,0.013 0.58594,0.039 0.9375,0.0781 v -5.70312 c -0.2474,-0.013 -0.41016,-0.0195 -0.48828,-0.0195 -0.0651,-0.013 -0.14974,-0.0195 -0.2539,-0.0195 z m 12.36328,0 c -3.58073,0 -6.10677,0.9375 -7.57813,2.8125 -0.92448,1.19792 -1.44531,2.72787 -1.5625,4.58985 h 5.3711 c 0.1302,-0.82032 0.39062,-1.47135 0.78125,-1.95313 0.54687,-0.65104 1.47786,-0.97656 2.79297,-0.97656 1.17187,0 2.05729,0.16927 2.65625,0.50781 0.61198,0.32552 0.91796,0.92448 0.91796,1.79688 0,0.71614 -0.39713,1.24349 -1.1914,1.58203 -0.44271,0.19531 -1.17839,0.35807 -2.20703,0.48828 l -1.89453,0.23437 c -2.14844,0.27344 -3.77605,0.72917 -4.88282,1.36719 -2.01823,1.17188 -3.02734,3.06641 -3.02734,5.6836 0,2.01822 0.625,3.58072 1.875,4.6875 1.26302,1.09374 2.85807,1.64062 4.78516,1.64062 1.51041,0 2.86458,-0.34506 4.0625,-1.03516 1.0026,-0.58594 1.88802,-1.29557 2.65625,-2.1289 0.039,0.48177 0.0911,0.91146 0.15625,1.28906 0.0651,0.37761 0.18229,0.78125 0.35156,1.21094 h 6.05469 v -0.82031 c -0.36459,-0.16928 -0.63803,-0.38412 -0.82032,-0.64454 -0.18228,-0.26042 -0.29296,-0.7552 -0.33203,-1.48437 -0.0261,-0.96354 -0.0391,-1.78385 -0.0391,-2.46094 v -9.76562 c 0,-2.56511 -0.90495,-4.3099 -2.71484,-5.23438 -1.8099,-0.92448 -3.88021,-1.38672 -6.21094,-1.38672 z m 57.8125,0 c -3.58073,0 -6.10677,0.9375 -7.57813,2.8125 -0.92448,1.19792 -1.44531,2.72787 -1.5625,4.58985 h 5.3711 c 0.1302,-0.82032 0.39062,-1.47135 0.78125,-1.95313 0.54687,-0.65104 1.47786,-0.97656 2.79297,-0.97656 1.17187,0 2.05729,0.16927 2.65625,0.50781 0.61198,0.32552 0.91796,0.92448 0.91796,1.79688 0,0.71614 -0.39713,1.24349 -1.1914,1.58203 -0.44271,0.19531 -1.17839,0.35807 -2.20703,0.48828 l -1.89453,0.23437 c -2.14844,0.27344 -3.77605,0.72917 -4.88282,1.36719 -2.01823,1.17188 -3.02734,3.06641 -3.02734,5.6836 0,2.01822 0.625,3.58072 1.875,4.6875 1.26302,1.09374 2.85807,1.64062 4.78516,1.64062 1.51041,0 2.86458,-0.34506 4.0625,-1.03516 1.0026,-0.58594 1.88802,-1.29557 2.65625,-2.1289 0.039,0.48177 0.0911,0.91146 0.15625,1.28906 0.0651,0.37761 0.18229,0.78125 0.35156,1.21094 h 6.05469 v -0.82031 c -0.36459,-0.16928 -0.63803,-0.38412 -0.82032,-0.64454 -0.18228,-0.26042 -0.29296,-0.7552 -0.33203,-1.48437 -0.0261,-0.96354 -0.0391,-1.78385 -0.0391,-2.46094 v -9.76562 c 0,-2.56511 -0.90495,-4.3099 -2.71484,-5.23438 -1.8099,-0.92448 -3.88021,-1.38672 -6.21094,-1.38672 z m 68.21289,0 c -3.58073,0 -6.10677,0.9375 -7.57813,2.8125 -0.92448,1.19792 -1.44531,2.72787 -1.5625,4.58985 h 5.3711 c 0.1302,-0.82032 0.39062,-1.47135 0.78125,-1.95313 0.54687,-0.65104 1.47786,-0.97656 2.79297,-0.97656 1.17187,0 2.05729,0.16927 2.65625,0.50781 0.61198,0.32552 0.91797,0.92448 0.91797,1.79688 0,0.71614 -0.39714,1.24349 -1.19141,1.58203 -0.44271,0.19531 -1.17839,0.35807 -2.20703,0.48828 l -1.89453,0.23437 c -2.14844,0.27344 -3.77605,0.72917 -4.88282,1.36719 -2.01823,1.17188 -3.02734,3.06641 -3.02734,5.6836 0,2.01822 0.625,3.58072 1.875,4.6875 1.26303,1.09374 2.85808,1.64062 4.78516,1.64062 1.51042,0 2.86458,-0.34506 4.0625,-1.03516 1.0026,-0.58594 1.88802,-1.29557 2.65625,-2.1289 0.039,0.48177 0.0911,0.91146 0.15625,1.28906 0.0651,0.37761 0.18229,0.78125 0.35156,1.21094 h 6.05469 v -0.82031 c -0.36458,-0.16928 -0.63802,-0.38412 -0.82032,-0.64454 -0.18228,-0.26042 -0.29296,-0.7552 -0.33203,-1.48437 -0.0261,-0.96354 -0.0391,-1.78385 -0.0391,-2.46094 v -9.76562 c 0,-2.56511 -0.90495,-4.3099 -2.71484,-5.23438 -1.8099,-0.92448 -3.88021,-1.38672 -6.21094,-1.38672 z m 46.70898,0 c -3.58073,0 -6.10677,0.9375 -7.57812,2.8125 -0.92448,1.19792 -1.44532,2.72787 -1.5625,4.58985 h 5.37109 c 0.13021,-0.82032 0.39063,-1.47135 0.78125,-1.95313 0.54688,-0.65104 1.47787,-0.97656 2.79297,-0.97656 1.17188,0 2.0573,0.16927 2.65625,0.50781 0.61198,0.32552 0.91797,0.92448 0.91797,1.79688 0,0.71614 -0.39714,1.24349 -1.19141,1.58203 -0.44271,0.19531 -1.17839,0.35807 -2.20703,0.48828 l -1.89453,0.23437 c -2.14843,0.27344 -3.77604,0.72917 -4.88281,1.36719 -2.01823,1.17188 -3.02735,3.06641 -3.02735,5.6836 0,2.01822 0.625,3.58072 1.875,4.6875 1.26302,1.09374 2.85808,1.64062 4.78516,1.64062 1.51042,0 2.86459,-0.34506 4.0625,-1.03516 1.00261,-0.58594 1.88802,-1.29557 2.65625,-2.1289 0.039,0.48177 0.0911,0.91146 0.15625,1.28906 0.0651,0.37761 0.18229,0.78125 0.35156,1.21094 h 6.05469 v -0.82031 c -0.36458,-0.16928 -0.63802,-0.38412 -0.82031,-0.64454 -0.18229,-0.26042 -0.29297,-0.7552 -0.33203,-1.48437 -0.0261,-0.96354 -0.0391,-1.78385 -0.0391,-2.46094 v -9.76562 c 0,-2.56511 -0.90494,-4.3099 -2.71484,-5.23438 -1.80989,-0.92448 -3.88021,-1.38672 -6.21094,-1.38672 z m -295.41015,0.50782 v 12.83203 c 0,2.43489 0.30599,4.27734 0.91797,5.52734 1.09374,2.26563 3.21614,3.39844 6.36718,3.39844 1.09375,0 2.04427,-0.14323 2.85157,-0.42969 0.82031,-0.28646 1.66666,-0.82032 2.53906,-1.60156 0.28646,-0.2474 0.53385,-0.53385 0.74219,-0.85938 0.20834,-0.32548 0.33855,-0.5208 0.39062,-0.58593 v 3.00781 h 5.41016 v -21.28906 h -5.64453 v 11.58203 c 0,1.36718 -0.18229,2.46744 -0.54688,3.30078 -0.70312,1.53646 -2.0052,2.30469 -3.90625,2.30469 -1.48437,0 -2.48047,-0.54036 -2.98828,-1.6211 -0.28645,-0.61198 -0.42969,-1.52344 -0.42969,-2.73437 v -12.83203 z m 49.14062,0 v 21.28906 h 5.64453 v -21.28906 z m 111.95313,0 v 21.28906 h 5.64453 v -21.28906 z m 148.04687,0 v 12.83203 c 0,2.43489 0.306,4.27734 0.91797,5.52734 1.09375,2.26563 3.21615,3.39844 6.36719,3.39844 1.09375,0 2.04427,-0.14323 2.85156,-0.42969 0.82031,-0.28646 1.66666,-0.82032 2.53906,-1.60156 0.28646,-0.2474 0.53386,-0.53385 0.74219,-0.85938 0.20835,-0.32548 0.33856,-0.5208 0.39063,-0.58593 v 3.00781 h 5.41015 v -21.28906 h -5.64453 v 11.58203 c 0,1.36718 -0.18229,2.46744 -0.54687,3.30078 -0.70313,1.53646 -2.00521,2.30469 -3.90625,2.30469 -1.48438,0 -2.48047,-0.54036 -2.98829,-1.6211 -0.28646,-0.61198 -0.42968,-1.52344 -0.42968,-2.73437 v -12.83203 z m -275.42969,4.35546 c 1.06771,0 2.00521,0.33855 2.8125,1.01563 1.3151,1.11979 1.97266,2.98177 1.97266,5.58594 0,1.86198 -0.41016,3.3789 -1.23047,4.55078 -0.82031,1.17187 -2.01823,1.75781 -3.59375,1.75781 -1.57552,0 -2.75391,-0.58594 -3.53515,-1.75781 -0.76823,-1.1849 -1.15235,-2.76042 -1.15235,-4.72656 0,-1.82292 0.37761,-3.34636 1.13281,-4.57032 0.76823,-1.23697 1.96615,-1.85547 3.59375,-1.85547 z m 309.14063,0 c 1.06771,0 2.00521,0.33855 2.8125,1.01563 1.31511,1.11979 1.97266,2.98177 1.97266,5.58594 0,1.86198 -0.41016,3.3789 -1.23047,4.55078 -0.82032,1.17187 -2.01823,1.75781 -3.59375,1.75781 -1.57552,0 -2.75391,-0.58594 -3.53516,-1.75781 -0.76823,-1.1849 -1.15234,-2.76042 -1.15234,-4.72656 0,-1.82292 0.3776,-3.34636 1.13281,-4.57032 0.76823,-1.23697 1.96615,-1.85547 3.59375,-1.85547 z m -196.36719,0.0391 c 1.99219,0 3.35938,0.9375 4.10156,2.8125 0.39063,0.98958 0.58594,2.23958 0.58594,3.75 0,1.88802 -0.39713,3.41146 -1.1914,4.57031 -0.79428,1.15885 -1.90756,1.73828 -3.33985,1.73828 -1.65364,0 -2.88411,-0.59896 -3.6914,-1.79687 -0.8073,-1.19792 -1.21094,-2.70834 -1.21094,-4.53125 0,-1.54948 0.19531,-2.8125 0.58594,-3.78907 0.7552,-1.83593 2.14192,-2.7539 4.16015,-2.7539 z m 126.01563,0 c 1.99218,0 3.35937,0.9375 4.10156,2.8125 0.39063,0.98958 0.58594,2.23958 0.58594,3.75 0,1.88802 -0.39714,3.41146 -1.19141,4.57031 -0.79427,1.15885 -1.90755,1.73828 -3.33984,1.73828 -1.65365,0 -2.88412,-0.59896 -3.69141,-1.79687 -0.80729,-1.19792 -1.21094,-2.70834 -1.21094,-4.53125 0,-1.54948 0.19532,-2.8125 0.58594,-3.78907 0.75521,-1.83593 2.14193,-2.7539 4.16016,-2.7539 z m -282.8711,6.54297 v 2.07031 c -0.0391,1.86198 -0.56641,3.14453 -1.58203,3.84765 -1.0026,0.70312 -2.10286,1.05469 -3.30078,1.05469 -0.75521,0 -1.39974,-0.20833 -1.93359,-0.625 -0.52084,-0.42968 -0.78125,-1.11979 -0.78125,-2.07031 0,-1.06771 0.42969,-1.85547 1.28906,-2.36328 0.50781,-0.29948 1.34766,-0.55339 2.51953,-0.76172 l 1.25,-0.23438 c 0.625,-0.11719 1.11328,-0.24088 1.46484,-0.37109 0.36458,-0.14323 0.72266,-0.32552 1.07422,-0.54687 z m 136.40625,0 v 2.07031 c -0.0391,1.86198 -0.56641,3.14453 -1.58203,3.84765 -1.0026,0.70312 -2.10286,1.05469 -3.30078,1.05469 -0.75521,0 -1.39974,-0.20833 -1.93359,-0.625 -0.52084,-0.42968 -0.78125,-1.11979 -0.78125,-2.07031 0,-1.06771 0.42969,-1.85547 1.28906,-2.36328 0.50781,-0.29948 1.34766,-0.55339 2.51953,-0.76172 l 1.25,-0.23438 c 0.625,-0.11719 1.11328,-0.24088 1.46484,-0.37109 0.36458,-0.14323 0.72266,-0.32552 1.07422,-0.54687 z m 57.8125,0 v 2.07031 c -0.0391,1.86198 -0.56641,3.14453 -1.58203,3.84765 -1.0026,0.70312 -2.10286,1.05469 -3.30078,1.05469 -0.75521,0 -1.39974,-0.20833 -1.93359,-0.625 -0.52084,-0.42968 -0.78125,-1.11979 -0.78125,-2.07031 0,-1.06771 0.42969,-1.85547 1.28906,-2.36328 0.50781,-0.29948 1.34766,-0.55339 2.51953,-0.76172 l 1.25,-0.23438 c 0.625,-0.11719 1.11328,-0.24088 1.46484,-0.37109 0.36458,-0.14323 0.72266,-0.32552 1.07422,-0.54687 z m 68.21289,0 v 2.07031 c -0.0391,1.86198 -0.56641,3.14453 -1.58203,3.84765 -1.0026,0.70312 -2.10287,1.05469 -3.30078,1.05469 -0.75521,0 -1.39974,-0.20833 -1.93359,-0.625 -0.52084,-0.42968 -0.78125,-1.11979 -0.78125,-2.07031 0,-1.06771 0.42969,-1.85547 1.28906,-2.36328 0.50781,-0.29948 1.34765,-0.55339 2.51953,-0.76172 l 1.25,-0.23438 c 0.625,-0.11719 1.11328,-0.24088 1.46484,-0.37109 0.36458,-0.14323 0.72266,-0.32552 1.07422,-0.54687 z m 46.70899,0 v 2.07031 c -0.0391,1.86198 -0.56641,3.14453 -1.58203,3.84765 -1.00261,0.70312 -2.10287,1.05469 -3.30078,1.05469 -0.75521,0 -1.39974,-0.20833 -1.9336,-0.625 -0.52083,-0.42968 -0.78125,-1.11979 -0.78125,-2.07031 0,-1.06771 0.42969,-1.85547 1.28906,-2.36328 0.50782,-0.29948 1.34766,-0.55339 2.51954,-0.76172 l 1.25,-0.23438 c 0.625,-0.11719 1.11328,-0.24088 1.46484,-0.37109 0.36459,-0.14323 0.72266,-0.32552 1.07422,-0.54687 z"
       inkscape:original="M 250.43164 627.04492 C 246.79883 627.04492 244.04492 627.89778 242.16992 629.60352 C 240.29492 631.30924 239.35742 633.45117 239.35742 636.0293 C 239.35742 638.85482 240.32748 640.93164 242.26758 642.25977 C 243.41341 643.05403 245.48372 643.78971 248.47852 644.4668 L 251.52539 645.15039 C 253.30925 645.54102 254.61784 645.99023 255.45117 646.49805 C 256.28451 647.01888 256.70117 647.75456 256.70117 648.70508 C 256.70117 650.33268 255.86133 651.44597 254.18164 652.04492 C 253.29623 652.35742 252.14388 652.51367 250.72461 652.51367 C 248.35482 652.51367 246.68164 651.92122 245.70508 650.73633 C 245.17122 650.08529 244.81315 649.10222 244.63086 647.78711 L 238.88867 647.78711 C 238.88867 650.7819 239.96289 653.13868 242.11133 654.85742 C 244.25977 656.56316 247.20898 657.41602 250.95898 657.41602 C 254.63086 657.41602 257.4694 656.55013 259.47461 654.81836 C 261.49284 653.07357 262.50195 650.88607 262.50195 648.25586 C 262.50195 645.69075 261.64258 643.73112 259.92383 642.37695 C 258.81706 641.50456 257.17643 640.80794 255.00195 640.28711 L 250.04102 639.0957 C 248.12696 638.63998 246.87696 638.24284 246.29102 637.9043 C 245.37956 637.39648 244.92383 636.62826 244.92383 635.59961 C 244.92383 634.47982 245.38607 633.60742 246.31055 632.98242 C 247.23503 632.35742 248.472 632.04492 250.02148 632.04492 C 251.41471 632.04492 252.58008 632.2858 253.51758 632.76758 C 254.92383 633.49674 255.67904 634.72721 255.7832 636.45898 L 261.56445 636.45898 C 261.46029 633.39908 260.33399 631.06836 258.18555 629.4668 C 256.05013 627.85221 253.4655 627.04492 250.43164 627.04492 z M 500.06055 627.41602 C 498.08138 630.17643 496.57747 632.75456 495.54883 635.15039 C 494.02539 638.66602 493.26367 642.20768 493.26367 645.77539 C 493.26367 649.69466 494.16862 653.67904 495.97852 657.72852 C 496.99414 659.99414 497.95118 661.69987 498.84961 662.8457 L 500.23633 664.74023 L 504.35742 664.74023 C 502.63867 661.64127 501.44075 659.10221 500.76367 657.12305 C 499.60481 653.77669 499.02539 650.11133 499.02539 646.12695 C 499.02539 643.57487 499.23372 641.2181 499.65039 639.05664 C 500.28842 635.76237 501.42774 632.61133 503.06836 629.60352 L 504.25977 627.41602 L 500.06055 627.41602 z M 644.76758 627.41602 L 645.95898 629.60352 C 647.59961 632.61133 648.73893 635.76237 649.37695 639.05664 C 649.79362 641.2181 650.00195 643.57487 650.00195 646.12695 C 650.00195 650.11133 649.42253 653.77669 648.26367 657.12305 C 647.58659 659.10221 646.38867 661.64127 644.66992 664.74023 L 648.79102 664.74023 L 650.17773 662.8457 C 651.07617 661.69987 652.0332 659.99414 653.04883 657.72852 C 654.85873 653.67904 655.76367 649.69466 655.76367 645.77539 C 655.76367 642.20768 655.00196 638.66602 653.47852 635.15039 C 652.44987 632.75456 650.94596 630.17643 648.9668 627.41602 L 644.76758 627.41602 z M 337.79492 627.70898 L 337.79492 632.8457 L 343.43945 632.8457 L 343.43945 627.70898 L 337.79492 627.70898 z M 449.74805 627.70898 L 449.74805 632.8457 L 455.39258 632.8457 L 455.39258 627.70898 L 449.74805 627.70898 z M 367.16016 627.88477 L 356.88672 656.67383 L 363.17578 656.67383 L 365.16797 650.75586 L 375.77344 650.75586 L 377.62891 656.67383 L 384.15234 656.67383 L 373.95703 627.88477 L 367.16016 627.88477 z M 505.5293 627.88477 L 505.5293 632.98242 L 514.18164 632.98242 L 514.18164 656.67383 L 520.23633 656.67383 L 520.23633 632.98242 L 528.84961 632.98242 L 528.84961 627.88477 L 505.5293 627.88477 z M 326.99414 627.92383 L 326.99414 638.08008 C 326.36914 637.07747 325.55533 636.29622 324.55273 635.73633 C 323.55013 635.16341 322.40429 634.87695 321.11523 634.87695 C 318.31575 634.87695 316.07617 635.91862 314.39648 638.00195 C 312.72982 640.08529 311.89648 642.94336 311.89648 646.57617 C 311.89648 649.72722 312.74284 652.31185 314.43555 654.33008 C 316.14127 656.33528 318.23763 657.33789 320.72461 657.33789 C 322.23503 657.33789 323.49805 657.05143 324.51367 656.47852 C 325.52929 655.9056 326.43424 654.98763 327.22852 653.72461 L 327.22852 656.67383 L 332.63867 656.67383 L 332.63867 627.92383 L 326.99414 627.92383 z M 425.02148 627.92383 L 425.02148 656.67383 L 430.4707 656.67383 L 430.4707 653.99805 C 431.21289 655.03971 431.903 655.76888 432.54102 656.18555 C 433.60872 656.88867 435.02148 657.24023 436.7793 657.24023 C 439.57878 657.24023 441.75977 656.153 443.32227 653.97852 C 444.88477 651.80404 445.66602 649.06315 445.66602 645.75586 C 445.66602 642.56575 444.87174 639.96159 443.2832 637.94336 C 441.70768 635.92513 439.52018 634.91602 436.7207 634.91602 C 435.17122 634.91602 433.89518 635.24154 432.89258 635.89258 C 432.04622 636.41341 431.27149 637.16862 430.56836 638.1582 L 430.56836 627.92383 L 425.02148 627.92383 z M 551.03711 627.92383 L 551.03711 656.67383 L 556.48633 656.67383 L 556.48633 653.99805 C 557.22851 655.03971 557.91862 655.76888 558.55664 656.18555 C 559.62435 656.88867 561.03711 657.24023 562.79492 657.24023 C 565.5944 657.24023 567.77539 656.153 569.33789 653.97852 C 570.90039 651.80404 571.68164 649.06315 571.68164 645.75586 C 571.68164 642.56575 570.88737 639.96159 569.29883 637.94336 C 567.72331 635.92513 565.53581 634.91602 562.73633 634.91602 C 561.18685 634.91602 559.9108 635.24154 558.9082 635.89258 C 558.06185 636.41341 557.28711 637.16862 556.58398 638.1582 L 556.58398 627.92383 L 551.03711 627.92383 z M 636.13477 627.92383 L 636.13477 638.08008 C 635.50977 637.07747 634.69597 636.29622 633.69336 635.73633 C 632.69076 635.16341 631.54493 634.87695 630.25586 634.87695 C 627.45638 634.87695 625.2168 635.91862 623.53711 638.00195 C 621.87044 640.08529 621.03711 642.94336 621.03711 646.57617 C 621.03711 649.72722 621.88346 652.31185 623.57617 654.33008 C 625.2819 656.33528 627.37825 657.33789 629.86523 657.33789 C 631.37565 657.33789 632.63867 657.05143 633.6543 656.47852 C 634.66992 655.9056 635.57487 654.98763 636.36914 653.72461 L 636.36914 656.67383 L 641.7793 656.67383 L 641.7793 627.92383 L 636.13477 627.92383 z M 370.5 634.4668 L 374.09375 645.79492 L 366.78906 645.79492 L 370.5 634.4668 z M 274.92383 634.87695 C 271.3431 634.87695 268.81706 635.81445 267.3457 637.68945 C 266.42122 638.88737 265.90039 640.41732 265.7832 642.2793 L 271.1543 642.2793 C 271.2845 641.45898 271.54492 640.80795 271.93555 640.32617 C 272.48242 639.67513 273.41341 639.34961 274.72852 639.34961 C 275.90039 639.34961 276.78581 639.51888 277.38477 639.85742 C 277.99675 640.18294 278.30273 640.7819 278.30273 641.6543 C 278.30273 642.37044 277.9056 642.89779 277.11133 643.23633 C 276.66862 643.43164 275.93294 643.5944 274.9043 643.72461 L 273.00977 643.95898 C 270.86133 644.23242 269.23372 644.68815 268.12695 645.32617 C 266.10872 646.49805 265.09961 648.39258 265.09961 651.00977 C 265.09961 653.02799 265.72461 654.59049 266.97461 655.69727 C 268.23763 656.79101 269.83268 657.33789 271.75977 657.33789 C 273.27018 657.33789 274.62435 656.99283 275.82227 656.30273 C 276.82487 655.71679 277.71029 655.00716 278.47852 654.17383 C 278.51755 654.6556 278.56963 655.08529 278.63477 655.46289 C 278.69987 655.8405 278.81706 656.24414 278.98633 656.67383 L 285.04102 656.67383 L 285.04102 655.85352 C 284.67643 655.68424 284.40299 655.4694 284.2207 655.20898 C 284.03842 654.94856 283.92774 654.45378 283.88867 653.72461 C 283.86261 652.76107 283.84961 651.94076 283.84961 651.26367 L 283.84961 641.49805 C 283.84961 638.93294 282.94466 637.18815 281.13477 636.26367 C 279.32487 635.33919 277.25456 634.87695 274.92383 634.87695 z M 398.9668 634.87695 C 397.30013 634.87695 395.94596 635.31315 394.9043 636.18555 C 394.26628 636.70638 393.51758 637.67644 392.6582 639.0957 L 392.6582 635.38477 L 387.3457 635.38477 L 387.3457 656.67383 L 392.95117 656.67383 L 392.95117 646.49805 C 392.95117 644.79231 393.16602 643.52929 393.5957 642.70898 C 394.36393 641.25065 395.86784 640.52148 398.10742 640.52148 C 398.27669 640.52148 398.49804 640.52802 398.77148 640.54102 C 399.04492 640.55402 399.35742 640.58007 399.70898 640.61914 L 399.70898 634.91602 C 399.46158 634.90302 399.29882 634.89648 399.2207 634.89648 C 399.1556 634.88348 399.07096 634.87695 398.9668 634.87695 z M 411.33008 634.87695 C 407.74935 634.87695 405.22331 635.81445 403.75195 637.68945 C 402.82747 638.88737 402.30664 640.41732 402.18945 642.2793 L 407.56055 642.2793 C 407.69075 641.45898 407.95117 640.80795 408.3418 640.32617 C 408.88867 639.67513 409.81966 639.34961 411.13477 639.34961 C 412.30664 639.34961 413.19206 639.51888 413.79102 639.85742 C 414.403 640.18294 414.70898 640.7819 414.70898 641.6543 C 414.70898 642.37044 414.31185 642.89779 413.51758 643.23633 C 413.07487 643.43164 412.33919 643.5944 411.31055 643.72461 L 409.41602 643.95898 C 407.26758 644.23242 405.63997 644.68815 404.5332 645.32617 C 402.51497 646.49805 401.50586 648.39258 401.50586 651.00977 C 401.50586 653.02799 402.13086 654.59049 403.38086 655.69727 C 404.64388 656.79101 406.23893 657.33789 408.16602 657.33789 C 409.67643 657.33789 411.0306 656.99283 412.22852 656.30273 C 413.23112 655.71679 414.11654 655.00716 414.88477 654.17383 C 414.9238 654.6556 414.97588 655.08529 415.04102 655.46289 C 415.10612 655.8405 415.22331 656.24414 415.39258 656.67383 L 421.44727 656.67383 L 421.44727 655.85352 C 421.08268 655.68424 420.80924 655.4694 420.62695 655.20898 C 420.44467 654.94856 420.33399 654.45378 420.29492 653.72461 C 420.26886 652.76107 420.25586 651.94076 420.25586 651.26367 L 420.25586 641.49805 C 420.25586 638.93294 419.35091 637.18815 417.54102 636.26367 C 415.73112 635.33919 413.66081 634.87695 411.33008 634.87695 z M 469.14258 634.87695 C 465.56185 634.87695 463.03581 635.81445 461.56445 637.68945 C 460.63997 638.88737 460.11914 640.41732 460.00195 642.2793 L 465.37305 642.2793 C 465.50325 641.45898 465.76367 640.80795 466.1543 640.32617 C 466.70117 639.67513 467.63216 639.34961 468.94727 639.34961 C 470.11914 639.34961 471.00456 639.51888 471.60352 639.85742 C 472.2155 640.18294 472.52148 640.7819 472.52148 641.6543 C 472.52148 642.37044 472.12435 642.89779 471.33008 643.23633 C 470.88737 643.43164 470.15169 643.5944 469.12305 643.72461 L 467.22852 643.95898 C 465.08008 644.23242 463.45247 644.68815 462.3457 645.32617 C 460.32747 646.49805 459.31836 648.39258 459.31836 651.00977 C 459.31836 653.02799 459.94336 654.59049 461.19336 655.69727 C 462.45638 656.79101 464.05143 657.33789 465.97852 657.33789 C 467.48893 657.33789 468.8431 656.99283 470.04102 656.30273 C 471.04362 655.71679 471.92904 655.00716 472.69727 654.17383 C 472.7363 654.6556 472.78838 655.08529 472.85352 655.46289 C 472.91862 655.8405 473.03581 656.24414 473.20508 656.67383 L 479.25977 656.67383 L 479.25977 655.85352 C 478.89518 655.68424 478.62174 655.4694 478.43945 655.20898 C 478.25717 654.94856 478.14649 654.45378 478.10742 653.72461 C 478.08136 652.76107 478.06836 651.94076 478.06836 651.26367 L 478.06836 641.49805 C 478.06836 638.93294 477.16341 637.18815 475.35352 636.26367 C 473.54362 635.33919 471.47331 634.87695 469.14258 634.87695 z M 537.35547 634.87695 C 533.77474 634.87695 531.2487 635.81445 529.77734 637.68945 C 528.85286 638.88737 528.33203 640.41732 528.21484 642.2793 L 533.58594 642.2793 C 533.71614 641.45898 533.97656 640.80795 534.36719 640.32617 C 534.91406 639.67513 535.84505 639.34961 537.16016 639.34961 C 538.33203 639.34961 539.21745 639.51888 539.81641 639.85742 C 540.42839 640.18294 540.73438 640.7819 540.73438 641.6543 C 540.73438 642.37044 540.33724 642.89779 539.54297 643.23633 C 539.10026 643.43164 538.36458 643.5944 537.33594 643.72461 L 535.44141 643.95898 C 533.29297 644.23242 531.66536 644.68815 530.55859 645.32617 C 528.54036 646.49805 527.53125 648.39258 527.53125 651.00977 C 527.53125 653.02799 528.15625 654.59049 529.40625 655.69727 C 530.66928 656.79101 532.26433 657.33789 534.19141 657.33789 C 535.70183 657.33789 537.05599 656.99283 538.25391 656.30273 C 539.25651 655.71679 540.14193 655.00716 540.91016 654.17383 C 540.94919 654.6556 541.00127 655.08529 541.06641 655.46289 C 541.13151 655.8405 541.2487 656.24414 541.41797 656.67383 L 547.47266 656.67383 L 547.47266 655.85352 C 547.10808 655.68424 546.83464 655.4694 546.65234 655.20898 C 546.47006 654.94856 546.35938 654.45378 546.32031 653.72461 C 546.29425 652.76107 546.28125 651.94076 546.28125 651.26367 L 546.28125 641.49805 C 546.28125 638.93294 545.3763 637.18815 543.56641 636.26367 C 541.75651 635.33919 539.6862 634.87695 537.35547 634.87695 z M 584.06445 634.87695 C 580.48372 634.87695 577.95768 635.81445 576.48633 637.68945 C 575.56185 638.88737 575.04101 640.41732 574.92383 642.2793 L 580.29492 642.2793 C 580.42513 641.45898 580.68555 640.80795 581.07617 640.32617 C 581.62305 639.67513 582.55404 639.34961 583.86914 639.34961 C 585.04102 639.34961 585.92644 639.51888 586.52539 639.85742 C 587.13737 640.18294 587.44336 640.7819 587.44336 641.6543 C 587.44336 642.37044 587.04622 642.89779 586.25195 643.23633 C 585.80924 643.43164 585.07356 643.5944 584.04492 643.72461 L 582.15039 643.95898 C 580.00196 644.23242 578.37435 644.68815 577.26758 645.32617 C 575.24935 646.49805 574.24023 648.39258 574.24023 651.00977 C 574.24023 653.02799 574.86523 654.59049 576.11523 655.69727 C 577.37825 656.79101 578.97331 657.33789 580.90039 657.33789 C 582.41081 657.33789 583.76498 656.99283 584.96289 656.30273 C 585.9655 655.71679 586.85091 655.00716 587.61914 654.17383 C 587.65817 654.6556 587.71026 655.08529 587.77539 655.46289 C 587.8405 655.8405 587.95768 656.24414 588.12695 656.67383 L 594.18164 656.67383 L 594.18164 655.85352 C 593.81706 655.68424 593.54362 655.4694 593.36133 655.20898 C 593.17904 654.94856 593.06836 654.45378 593.0293 653.72461 C 593.00323 652.76107 592.99023 651.94076 592.99023 651.26367 L 592.99023 641.49805 C 592.99023 638.93294 592.08529 637.18815 590.27539 636.26367 C 588.4655 635.33919 586.39518 634.87695 584.06445 634.87695 z M 288.6543 635.38477 L 288.6543 648.2168 C 288.6543 650.65169 288.96029 652.49414 289.57227 653.74414 C 290.66601 656.00977 292.78841 657.14258 295.93945 657.14258 C 297.0332 657.14258 297.98372 656.99935 298.79102 656.71289 C 299.61133 656.42643 300.45768 655.89257 301.33008 655.11133 C 301.61654 654.86393 301.86393 654.57748 302.07227 654.25195 C 302.28061 653.92647 302.41082 653.73115 302.46289 653.66602 L 302.46289 656.67383 L 307.87305 656.67383 L 307.87305 635.38477 L 302.22852 635.38477 L 302.22852 646.9668 C 302.22852 648.33398 302.04623 649.43424 301.68164 650.26758 C 300.97852 651.80404 299.67644 652.57227 297.77539 652.57227 C 296.29102 652.57227 295.29492 652.03191 294.78711 650.95117 C 294.50066 650.33919 294.35742 649.42773 294.35742 648.2168 L 294.35742 635.38477 L 288.6543 635.38477 z M 337.79492 635.38477 L 337.79492 656.67383 L 343.43945 656.67383 L 343.43945 635.38477 L 337.79492 635.38477 z M 449.74805 635.38477 L 449.74805 656.67383 L 455.39258 656.67383 L 455.39258 635.38477 L 449.74805 635.38477 z M 597.79492 635.38477 L 597.79492 648.2168 C 597.79492 650.65169 598.10092 652.49414 598.71289 653.74414 C 599.80664 656.00977 601.92904 657.14258 605.08008 657.14258 C 606.17383 657.14258 607.12435 656.99935 607.93164 656.71289 C 608.75195 656.42643 609.5983 655.89257 610.4707 655.11133 C 610.75716 654.86393 611.00456 654.57748 611.21289 654.25195 C 611.42124 653.92647 611.55145 653.73115 611.60352 653.66602 L 611.60352 656.67383 L 617.01367 656.67383 L 617.01367 635.38477 L 611.36914 635.38477 L 611.36914 646.9668 C 611.36914 648.33398 611.18685 649.43424 610.82227 650.26758 C 610.11914 651.80404 608.81706 652.57227 606.91602 652.57227 C 605.43164 652.57227 604.43555 652.03191 603.92773 650.95117 C 603.64127 650.33919 603.49805 649.42773 603.49805 648.2168 L 603.49805 635.38477 L 597.79492 635.38477 z M 322.36523 639.74023 C 323.43294 639.74023 324.37044 640.07878 325.17773 640.75586 C 326.49283 641.87565 327.15039 643.73763 327.15039 646.3418 C 327.15039 648.20378 326.74023 649.7207 325.91992 650.89258 C 325.09961 652.06445 323.90169 652.65039 322.32617 652.65039 C 320.75065 652.65039 319.57226 652.06445 318.79102 650.89258 C 318.02279 649.70768 317.63867 648.13216 317.63867 646.16602 C 317.63867 644.3431 318.01628 642.81966 318.77148 641.5957 C 319.53971 640.35873 320.73763 639.74023 322.36523 639.74023 z M 631.50586 639.74023 C 632.57357 639.74023 633.51107 640.07878 634.31836 640.75586 C 635.63347 641.87565 636.29102 643.73763 636.29102 646.3418 C 636.29102 648.20378 635.88086 649.7207 635.06055 650.89258 C 634.24023 652.06445 633.04232 652.65039 631.4668 652.65039 C 629.89128 652.65039 628.71289 652.06445 627.93164 650.89258 C 627.16341 649.70768 626.7793 648.13216 626.7793 646.16602 C 626.7793 644.3431 627.1569 642.81966 627.91211 641.5957 C 628.68034 640.35873 629.87826 639.74023 631.50586 639.74023 z M 435.13867 639.7793 C 437.13086 639.7793 438.49805 640.7168 439.24023 642.5918 C 439.63086 643.58138 439.82617 644.83138 439.82617 646.3418 C 439.82617 648.22982 439.42904 649.75326 438.63477 650.91211 C 437.84049 652.07096 436.72721 652.65039 435.29492 652.65039 C 433.64128 652.65039 432.41081 652.05143 431.60352 650.85352 C 430.79622 649.6556 430.39258 648.14518 430.39258 646.32227 C 430.39258 644.77279 430.58789 643.50977 430.97852 642.5332 C 431.73372 640.69727 433.12044 639.7793 435.13867 639.7793 z M 561.1543 639.7793 C 563.14648 639.7793 564.51367 640.7168 565.25586 642.5918 C 565.64649 643.58138 565.8418 644.83138 565.8418 646.3418 C 565.8418 648.22982 565.44466 649.75326 564.65039 650.91211 C 563.85612 652.07096 562.74284 652.65039 561.31055 652.65039 C 559.6569 652.65039 558.42643 652.05143 557.61914 650.85352 C 556.81185 649.6556 556.4082 648.14518 556.4082 646.32227 C 556.4082 644.77279 556.60352 643.50977 556.99414 642.5332 C 557.74935 640.69727 559.13607 639.7793 561.1543 639.7793 z M 278.2832 646.32227 L 278.2832 648.39258 C 278.24414 650.25456 277.71679 651.53711 276.70117 652.24023 C 275.69857 652.94335 274.59831 653.29492 273.40039 653.29492 C 272.64518 653.29492 272.00065 653.08659 271.4668 652.66992 C 270.94596 652.24024 270.68555 651.55013 270.68555 650.59961 C 270.68555 649.5319 271.11524 648.74414 271.97461 648.23633 C 272.48242 647.93685 273.32227 647.68294 274.49414 647.47461 L 275.74414 647.24023 C 276.36914 647.12304 276.85742 646.99935 277.20898 646.86914 C 277.57356 646.72591 277.93164 646.54362 278.2832 646.32227 z M 414.68945 646.32227 L 414.68945 648.39258 C 414.65039 650.25456 414.12304 651.53711 413.10742 652.24023 C 412.10482 652.94335 411.00456 653.29492 409.80664 653.29492 C 409.05143 653.29492 408.4069 653.08659 407.87305 652.66992 C 407.35221 652.24024 407.0918 651.55013 407.0918 650.59961 C 407.0918 649.5319 407.52149 648.74414 408.38086 648.23633 C 408.88867 647.93685 409.72852 647.68294 410.90039 647.47461 L 412.15039 647.24023 C 412.77539 647.12304 413.26367 646.99935 413.61523 646.86914 C 413.97981 646.72591 414.33789 646.54362 414.68945 646.32227 z M 472.50195 646.32227 L 472.50195 648.39258 C 472.46289 650.25456 471.93554 651.53711 470.91992 652.24023 C 469.91732 652.94335 468.81706 653.29492 467.61914 653.29492 C 466.86393 653.29492 466.2194 653.08659 465.68555 652.66992 C 465.16471 652.24024 464.9043 651.55013 464.9043 650.59961 C 464.9043 649.5319 465.33399 648.74414 466.19336 648.23633 C 466.70117 647.93685 467.54102 647.68294 468.71289 647.47461 L 469.96289 647.24023 C 470.58789 647.12304 471.07617 646.99935 471.42773 646.86914 C 471.79231 646.72591 472.15039 646.54362 472.50195 646.32227 z M 540.71484 646.32227 L 540.71484 648.39258 C 540.67578 650.25456 540.14843 651.53711 539.13281 652.24023 C 538.13021 652.94335 537.02994 653.29492 535.83203 653.29492 C 535.07682 653.29492 534.43229 653.08659 533.89844 652.66992 C 533.3776 652.24024 533.11719 651.55013 533.11719 650.59961 C 533.11719 649.5319 533.54688 648.74414 534.40625 648.23633 C 534.91406 647.93685 535.7539 647.68294 536.92578 647.47461 L 538.17578 647.24023 C 538.80078 647.12304 539.28906 646.99935 539.64062 646.86914 C 540.0052 646.72591 540.36328 646.54362 540.71484 646.32227 z M 587.42383 646.32227 L 587.42383 648.39258 C 587.38477 650.25456 586.85742 651.53711 585.8418 652.24023 C 584.83919 652.94335 583.73893 653.29492 582.54102 653.29492 C 581.78581 653.29492 581.14128 653.08659 580.60742 652.66992 C 580.08659 652.24024 579.82617 651.55013 579.82617 650.59961 C 579.82617 649.5319 580.25586 648.74414 581.11523 648.23633 C 581.62305 647.93685 582.46289 647.68294 583.63477 647.47461 L 584.88477 647.24023 C 585.50977 647.12304 585.99805 646.99935 586.34961 646.86914 C 586.7142 646.72591 587.07227 646.54362 587.42383 646.32227 z "
       inkscape:radius="0"
       sodipodi:type="inkscape:offset"
       id="path64" />
  </g>
</svg>
