<svg xmlns="http://www.w3.org/2000/svg" role="img" viewBox="-53.26 -47.26 1157.52 897.52"><title>scotland</title><g stroke="#fff"><path fill="#0065bd" stroke-width="1.049" d="M-28.381-22.158h1108.8v786.46h-1108.8z"/><path fill="#fff" stroke-width="1.046" d="M1079.2 691.08L57.7-22.79h-86.363l.70966 75.016 1019.1 711.45h88.762l-.6869-72.597z"/><path fill="#fff" stroke-width="1.042" d="M-29.169 692.52L995.431-23.2l86.764-.86847-.5346 74.139-1022.1 713.3-89.174.8926.51747-71.747z"/></g><path d="M65.7366 788.40333v18.85775c0 3.26236.50919 5.80238 1.52164 7.62007 1.90058 3.32749 5.51227 4.99715 10.82323 4.99715 5.31687 0 8.91672-1.66966 10.80546-4.99715 1.01245-1.81769 1.51572-4.35771 1.51572-7.62007v-18.85775h-6.51288v18.85775c0 2.11372-.24867 3.65313-.74602 4.62414-.78155 1.71703-2.46897 2.58147-5.06228 2.58147-2.60516 0-4.2985-.86444-5.08005-2.58147-.49735-.971-.74602-2.51042-.74602-4.62414v-18.85775zm12.34487 0zm36.2945 9.29566c-1.49204-1.23153-3.41038-1.84137-5.75502-1.84137-1.8769 0-3.42222.4559-4.6419 1.37362-.6809.5092-1.40323 1.34994-2.16702 2.51634v-3.30972h-5.72541v22.64706h5.91488v-12.27974c0-1.40323.18946-2.55187.58024-3.45775.75194-1.7052 2.13148-2.55779 4.14456-2.55779 1.63414 0 2.74725.58024 3.32749 1.74664.31972.63945.47958 1.55717.47958 2.74725v13.80139h6.08066v-15.27567c0-2.8479-.74602-4.88466-2.23806-6.11026zm-7.94571-1.9065zm21.75302-2.10189v-5.47674h-6.01554v5.47674zm-6.01554 2.70581v22.6885h6.01554v-22.6885zm9.43184 4.43468h3.1617v13.96717c0 1.41507.33749 2.46305 1.00062 3.14394 1.0243 1.06574 2.94264 1.55125 5.74318 1.45652l2.81238-.10658v-4.43468a9.63423 9.63423 0 0 1-.59208.03553c-.20131.00592-.39078.01184-.57432.01184-1.20784 0-1.93018-.11842-2.16701-.34933-.23092-.22499-.34933-.80523-.34933-1.7348V800.8311h3.68274v-4.22745h-3.68274v-6.32342h-5.87344v6.32342h-3.1617zm22.27997 1.14271c.75786-.85851 1.8236-1.29073 3.19723-1.29073 1.26113 0 2.32095.40853 3.17355 1.21968.8526.81115 1.33218 2.00123 1.42691 3.57025h-9.21868c.18946-1.47428.66905-2.63476 1.42099-3.4992zm8.29504-5.12149c-1.5098-.70457-3.20907-1.05982-5.09781-1.05982-3.17947 0-5.76094 1.04798-7.75625 3.14394-1.98939 2.09597-2.98408 5.10965-2.98408 9.03514 0 4.19193 1.10127 7.21746 3.30973 9.07659 2.20845 1.85913 4.7544 2.7887 7.63783 2.7887 3.4992 0 6.21684-1.1072 8.15886-3.30973 1.24929-1.39139 1.95386-2.7591 2.10188-4.10311h-6.05697c-.31973.66905-.68682 1.19008-1.10127 1.56309-.76379.69273-1.75256 1.04206-2.97817 1.04206-1.14863 0-2.1374-.2842-2.95447-.85852-1.34403-.9118-2.06044-2.51042-2.14333-4.784h15.53025c.02369-1.95979-.03552-3.45775-.18946-4.49981-.26644-1.77624-.84075-3.33341-1.72887-4.68336-.98286-1.52164-2.23215-2.64067-3.74787-3.35117zm-4.68335-1.05982zm26.37716.971c-1.07166-.60391-2.29135-.90587-3.66498-.90587-2.98408 0-5.37016 1.10719-7.15232 3.32749-1.78216 2.2203-2.6762 5.2695-2.6762 9.14171 0 3.3571.90588 6.10435 2.71764 8.2536 1.81177 2.14333 4.04391 3.215 6.69643 3.215 1.60454 0 2.95448-.30789 4.03798-.91773 1.07759-.60985 2.04268-1.58678 2.88935-2.93672v3.14395h5.76686v-30.64014h-6.01553V799.268c-.66313-1.06575-1.53349-1.90058-2.59923-2.5045zm1.45652 16.1638c-.87628 1.24336-2.15517 1.87097-3.83076 1.87097-1.6815 0-2.9308-.6276-3.7597-1.88282-.823-1.2552-1.23746-2.9308-1.23746-5.02676 0-1.94202.40854-3.57024 1.21969-4.88466.81115-1.3085 2.08412-1.9657 3.81891-1.9657 1.1368 0 2.13741.36117 2.99593 1.0835 1.40323 1.19008 2.10188 3.17947 2.10188 5.9504 0 1.9894-.43814 3.60577-1.3085 4.85506zm24.97393-24.52396v30.68159h6.31157v-10.26075l3.05514-3.14395 9.47328 13.4047h8.24175l-13.21523-18.0466 12.56986-12.63499h-8.2832l-11.8416 12.63499v-12.63499zm36.30635 5.28727v-5.47674h-6.01554v5.47674zm-6.01554 2.70581v22.6885h6.01554v-22.6885zm30.08951 1.30258c-1.49204-1.23153-3.41038-1.84137-5.76094-1.84137-1.87097 0-3.4163.4559-4.6419 1.37362-.67498.5092-1.39731 1.34994-2.1611 2.51634v-3.30972h-5.72541v22.64706h5.90896v-12.27974c0-1.40323.19538-2.55187.58616-3.45775.74602-1.7052 2.13148-2.55779 4.14456-2.55779 1.63414 0 2.74725.58024 3.32749 1.74664.31972.63945.47958 1.55717.47958 2.74725v13.80139h6.07474v-15.27567c0-2.8479-.74602-4.88466-2.23214-6.11026zm-7.94571-1.9065zm28.91718 16.8506c-.95917 1.04798-2.13148 1.569-3.52287 1.569-2.0782 0-3.52288-.95324-4.3281-2.87158-.44407-1.0243-.66314-2.19662-.66314-3.51696 0-1.52756.20723-2.80646.62169-3.84852.79338-1.95978 2.22622-2.93671 4.31034-2.93671 1.52757 0 2.74133.56247 3.65313 1.68742.90589 1.12496 1.36179 2.7591 1.36179 4.91427 0 2.28543-.47959 3.9551-1.43284 5.00307zm-2.01899-16.26444c-.84667-.34933-1.84137-.52103-2.97816-.52103-3.08474 0-5.45898 1.14863-7.14049 3.4459-1.6815 2.29135-2.51634 5.12742-2.51634 8.50227 0 3.49327.87036 6.2642 2.61108 8.3128 1.74071 2.0486 4.06759 3.0729 6.98062 3.0729 1.88873 0 3.42222-.44998 4.60046-1.35586.65129-.4855 1.26113-1.21377 1.83545-2.18478v1.45652c0 2.16701-.23683 3.70642-.7105 4.62414-.72233 1.42692-2.14925 2.14333-4.28666 2.14333-1.51572 0-2.58739-.27235-3.22683-.81115-.37301-.30788-.64537-.80523-.81115-1.49796h-6.45367c.19538 2.26175 1.20784 3.96102 3.03737 5.0978 1.83544 1.1368 4.19784 1.7052 7.09904 1.7052 4.80176 0 8.04636-1.2789 9.73971-3.83076.98878-1.48612 1.4802-3.68866 1.4802-6.61945V796.3964h-5.76686v3.26828c-.88812-1.5927-2.05452-2.69396-3.49327-3.28604zm-1.0835-.58616zm27.91065.971c-1.06575-.60391-2.29135-.90587-3.66498-.90587-2.98408 0-5.36424 1.10719-7.1464 3.32749-1.78217 2.2203-2.6762 5.2695-2.6762 9.14171 0 3.3571.90588 6.10435 2.71764 8.2536 1.81176 2.14333 4.03799 3.215 6.6905 3.215 1.61046 0 2.95448-.30789 4.03799-.91773 1.0835-.60985 2.0486-1.58678 2.89527-2.93672v3.14395h5.76686v-30.64014h-6.01553V799.268c-.66905-1.06575-1.53349-1.90058-2.60515-2.5045zm1.45651 16.1638c-.87036 1.24336-2.14925 1.87097-3.83076 1.87097-1.67558 0-2.9308-.6276-3.75378-1.88282-.82891-1.2552-1.23745-2.9308-1.23745-5.02676 0-1.94202.40261-3.57024 1.21376-4.88466.81115-1.3085 2.08413-1.9657 3.81892-1.9657 1.14271 0 2.1374.36117 3.00185 1.0835 1.3973 1.19008 2.10188 3.17947 2.10188 5.9504 0 1.9894-.43814 3.60577-1.31442 4.85506zm26.7265.12433c-.92957 1.23153-2.26175 1.85321-3.99655 1.85321s-3.06697-.62168-4.00246-1.85321c-.9414-1.23745-1.40915-2.99-1.40915-5.26951 0-2.27359.46775-4.02615 1.40915-5.25767.93549-1.2256 2.26767-1.84137 4.00246-1.84137 1.7348 0 3.06698.61576 3.99654 1.84137.92957 1.23152 1.39731 2.98408 1.39731 5.25767 0 2.2795-.46774 4.03206-1.3973 5.26951zm4.74847 3.2742c1.91242-2.3624 2.8716-5.2103 2.8716-8.54371 0-3.2742-.95918-6.11027-2.8716-8.51411-1.91833-2.39793-4.82545-3.59985-8.72133-3.59985-3.90181 0-6.80892 1.20192-8.72134 3.59985-1.91834 2.40384-2.87159 5.2399-2.87159 8.5141 0 3.33342.95325 6.18132 2.87159 8.54372 1.91242 2.36832 4.81953 3.55248 8.72134 3.55248 3.89588 0 6.803-1.18416 8.72133-3.55248zm-8.72133-20.53333zm44.14548.68681c-.97101-.38485-1.95386-.58024-2.95448-.58024-1.49796 0-2.85974.30788-4.07943.93549-1.14863.62168-2.11372 1.60454-2.88935 2.93672-.44406-1.11311-1.10127-2.019-1.95978-2.7295-1.06575-.76378-2.46898-1.1427-4.20377-1.1427-1.82953 0-3.32157.44405-4.47613 1.33217-.65129.49735-1.34402 1.3381-2.08412 2.51634v-3.30972h-5.76094v22.64706h6.01554v-13.65337c0-1.23745.15986-2.16701.47958-2.7887.58024-1.09534 1.71703-1.64598 3.41038-1.64598 1.45652 0 2.43345.55064 2.93672 1.64598.27828.60985.41445 1.58678.41445 2.93672v13.50535h5.9741v-13.50535c0-1.01838.15985-1.88281.47958-2.60515.62168-1.36179 1.75255-2.03676 3.39261-2.03676 1.41508 0 2.38609.52695 2.91304 1.58086.27828.55063.41445 1.26113.41445 2.11964v14.44676h6.08067l.04144-14.29874c0-1.47428-.07105-2.58739-.20723-3.35117-.22499-1.15456-.65128-2.12557-1.29073-2.91303-.79339-.97101-1.66967-1.6519-2.6466-2.04268zm19.65114 7.91019v5.61884h11.94817v-5.61884zm32.94925 5.22807h-6.11619c0 3.1913 1.14272 5.6958 3.43407 7.51941 2.29135 1.82953 5.43529 2.74133 9.43183 2.74133 3.90773 0 6.93918-.92956 9.0825-2.78277 2.14334-1.8473 3.215-4.18009 3.215-6.98063 0-2.7354-.9118-4.82545-2.74725-6.2642-1.17824-.92957-2.92487-1.67559-5.24583-2.22622l-5.28727-1.27298c-2.03676-.4855-3.36894-.90588-3.99654-1.26705-.97101-.54471-1.45652-1.36178-1.45652-2.45713 0-1.196.49143-2.12557 1.4802-2.7887.98285-.66905 2.3032-1.00061 3.9551-1.00061 1.48612 0 2.72356.2546 3.72418.7697 1.49796.77563 2.30319 2.09005 2.41568 3.93141h6.15764c-.10658-3.25644-1.30258-5.74317-3.588-7.4602-2.28544-1.71112-5.0386-2.56963-8.27137-2.56963-3.8722 0-6.80892.90588-8.81015 2.72357-1.9953 1.8236-2.99592 4.10311-2.99592 6.85036 0 3.01369 1.03614 5.22807 3.1025 6.64314 1.21968.84667 3.42814 1.62822 6.61945 2.35056l3.2446.72826c1.9065.41445 3.29789.89404 4.186 1.43875.88813.55063 1.33219 1.3381 1.33219 2.35056 0 1.7348-.89404 2.91895-2.68213 3.5584-.94732.33156-2.17293.49735-3.68865.49735-2.52226 0-4.30443-.6276-5.34649-1.89466-.5684-.69273-.95325-1.74072-1.14863-3.13802zm6.22868-22.14972zm30.64014 17.06967h6.07474c-.33156-3.23276-1.40323-5.48858-3.215-6.76747-1.81176-1.27298-4.13863-1.91242-6.98062-1.91242-3.34525 0-5.96816 1.0835-7.86874 3.2446-1.90058 2.167-2.85383 5.19846-2.85383 9.09434 0 3.45775.85852 6.27013 2.58147 8.43122 1.72296 2.16702 4.40508 3.25052 8.0523 3.25052 3.65312 0 6.4063-1.29665 8.26543-3.89588 1.1664-1.61046 1.81768-3.31565 1.95978-5.1215h-6.05698c-.13025 1.196-.47958 2.16702-1.06574 2.91896-.58024.74602-1.56901 1.12495-2.95448 1.12495-1.95386 0-3.28604-.94733-3.99654-2.83606-.39077-1.01246-.58024-2.35056-.58024-4.0143 0-1.74664.18947-3.14987.58024-4.20377.73418-1.98347 2.10189-2.97817 4.10312-2.97817 1.3973 0 2.43344.4559 3.09657 1.37363.46183.6809.74602 1.44468.85852 2.29135zm-4.02022-8.74502zm28.34879 17.25913c-.92957 1.23153-2.26175 1.85321-3.99654 1.85321-1.7348 0-3.06698-.62168-4.00246-1.85321-.94141-1.23745-1.40915-2.99-1.40915-5.26951 0-2.27359.46774-4.02615 1.40915-5.25767.93548-1.2256 2.26766-1.84137 4.00246-1.84137 1.7348 0 3.06697.61576 3.99654 1.84137.92956 1.23152 1.3973 2.98408 1.3973 5.25767 0 2.2795-.46774 4.03206-1.3973 5.26951zm4.74848 3.2742c1.91242-2.3624 2.87159-5.2103 2.87159-8.54371 0-3.2742-.95917-6.11027-2.8716-8.51411-1.91241-2.39793-4.82544-3.59985-8.72133-3.59985-3.9018 0-6.80892 1.20192-8.72134 3.59985-1.91834 2.40384-2.87159 5.2399-2.87159 8.5141 0 3.33342.95325 6.18132 2.8716 8.54372 1.91241 2.36832 4.81952 3.55248 8.72133 3.55248 3.89589 0 6.80892-1.18416 8.72134-3.55248zm-8.72134-20.53333zm13.51127 5.0386h3.1617v13.96717c0 1.41507.33157 2.46305 1.00062 3.14394 1.0243 1.06574 2.94264 1.55125 5.74317 1.45652l2.81238-.10658v-4.43468c-.19538.01777-.39669.0296-.598.03553-.2013.00592-.39077.01184-.5684.01184-1.20784 0-1.93017-.11842-2.167-.34933-.23684-.22499-.35525-.80523-.35525-1.7348V800.8311h3.68865v-4.22745h-3.68865v-6.32342h-5.86752v6.32342h-3.1617zm22.58193 18.25383v-30.68159h-5.93264v30.68159zm18.29527-11.03046v2.20846c-.04145 1.98347-.598 3.35118-1.67559 4.0972-1.07166.75194-2.2499 1.12495-3.5288 1.12495-.80522 0-1.48611-.225-2.0486-.67497-.56247-.44998-.84074-1.18416-.84074-2.19662 0-1.1368.4559-1.97755 1.37362-2.52226.5388-.31972 1.43283-.58616 2.68212-.81115l1.33218-.24867c.66905-.12434 1.19008-.26052 1.57494-.40262.37893-.14802.75786-.33748 1.13087-.57432zm-3.59985-2.77093l-2.01899.24867c-2.29135.29604-4.02614.78155-5.20438 1.46244-2.14925 1.24929-3.22684 3.26828-3.22684 6.05698 0 2.14925.66905 3.813 2.00715 4.98531 1.34402 1.17232 3.03737 1.75848 5.09189 1.75848 1.61046 0 3.05513-.36709 4.3281-1.10719 1.07167-.62168 2.01308-1.37954 2.83015-2.26766.04144.5151.10065.971.1717 1.37362.06513.40262.18947.83483.37301 1.29074h6.45367v-.87628c-.39077-.17763-.68089-.40854-.87628-.68682-.19538-.27235-.3138-.7993-.35524-1.58085-.02369-1.0243-.04145-1.90058-.04145-2.62291V802.9152c0-2.7354-.96509-4.59454-2.88935-5.58331-1.93018-.98286-4.13864-1.47428-6.61945-1.47428-3.81892 0-6.51288.9947-8.0819 2.99592-.98285 1.2789-1.5394 2.90711-1.66374 4.89058h5.72541c.13618-.87628.41446-1.56901.83484-2.0782.58023-.69865 1.57493-1.04206 2.97224-1.04206 1.24929 0 2.19661.17762 2.84198.52695.64537.35525.97101 1.00062.97101 1.93018 0 .76379-.4263 1.32034-1.27297 1.68151-.46774.21315-1.2552.38485-2.35056.52103zm.3138-9.49104zm32.81308 1.9065c-1.49204-1.23153-3.41038-1.84137-5.75502-1.84137-1.87097 0-3.42222.4559-4.6419 1.37362-.6809.5092-1.40324 1.34994-2.16702 2.51634v-3.30972h-5.7195v22.64706h5.90897v-12.27974c0-1.40323.19538-2.55187.58616-3.45775.74602-1.7052 2.12556-2.55779 4.13864-2.55779 1.64006 0 2.74725.58024 3.3334 1.74664.31973.63945.47959 1.55717.47959 2.74725v13.80139h6.07474v-15.27567c0-2.8479-.74602-4.88466-2.23806-6.11026zm-7.9398-1.9065zm27.68567.971c-1.07167-.60391-2.29135-.90587-3.66498-.90587-2.98408 0-5.36424 1.10719-7.15232 3.32749-1.78217 2.2203-2.67029 5.2695-2.67029 9.14171 0 3.3571.90589 6.10435 2.71173 8.2536 1.81177 2.14333 4.0439 3.215 6.69643 3.215 1.61045 0 2.95447-.30789 4.03798-.91773 1.07759-.60985 2.04268-1.58678 2.88935-2.93672v3.14395h5.76686v-30.64014h-6.01553V799.268c-.66313-1.06575-1.53349-1.90058-2.59923-2.5045zm1.45651 16.1638c-.87627 1.24336-2.14925 1.87097-3.83075 1.87097-1.68151 0-2.9308-.6276-3.75971-1.88282-.823-1.2552-1.23745-2.9308-1.23745-5.02676 0-1.94202.40854-3.57024 1.21969-4.88466.81115-1.3085 2.08412-1.9657 3.81891-1.9657 1.1368 0 2.13741.36117 2.99593 1.0835 1.40323 1.19008 2.10188 3.17947 2.10188 5.9504 0 1.9894-.43814 3.60577-1.3085 4.85506zm25.791-17.1348c-1.80584 4.16232-2.7058 8.27136-2.7058 12.32118 0 3.51104.69274 7.0043 2.0782 10.4739 1.17824 2.98408 2.89527 6.01553 5.14518 9.09435h3.51695l-1.27297-2.3328c-1.74663-3.215-2.9604-6.58393-3.64129-10.09496-.44406-2.28543-.66313-4.78993-.66313-7.5135 0-4.2156.57432-8.03452 1.72295-11.4449.69274-2.04268 2.00715-4.82546 3.93734-8.34833l-3.4163-.04145-1.47429 2.03676c-1.15455 1.59861-2.23214 3.54656-3.22683 5.84975zm29.29613-1.04206c.84075.68089 1.26113 1.81768 1.26113 3.4163 0 1.5927-.42038 2.7591-1.26113 3.4992-.84076.73417-2.019 1.10126-3.5288 1.10126h-5.97409v-9.03514h5.97409c1.5098 0 2.68804.3434 3.5288 1.01838zm4.86097 11.05413c1.82953-1.49796 2.74725-4.05575 2.74725-7.67928 0-3.31564-.91772-5.76686-2.74725-7.34771-1.83544-1.58085-4.28666-2.37424-7.3714-2.37424H638.9707v30.68159h6.37078v-11.03046h6.51288c3.40446 0 6.01554-.75194 7.85098-2.2499zm19.68074-9.94102c-.07697-.00592-.1717-.00592-.2842-.00592-1.77624 0-3.21499.46182-4.3281 1.39138-.6809.55656-1.47428 1.5927-2.392 3.1025v-3.95509h-5.66029v22.6885h5.97409v-10.84098c0-1.8236.22499-3.16763.68681-4.0439.81707-1.55126 2.4216-2.32688 4.8077-2.32688.17762 0 .41445.00592.70457.01776.29012.01776.6276.04145 1.00061.0829v-6.07475c-.26643-.01776-.43222-.02368-.50919-.03552zm18.1591 17.18808c-.92957 1.23153-2.26175 1.85321-3.99654 1.85321-1.7348 0-3.06698-.62168-4.00839-1.85321-.93548-1.23745-1.40322-2.99-1.40322-5.26951 0-2.27359.46774-4.02615 1.40322-5.25767.94141-1.2256 2.2736-1.84137 4.00839-1.84137 1.7348 0 3.06697.61576 3.99654 1.84137.92956 1.23152 1.3973 2.98408 1.3973 5.25767 0 2.2795-.46774 4.03206-1.3973 5.26951zm4.74848 3.2742c1.91242-2.3624 2.87159-5.2103 2.87159-8.54371 0-3.2742-.95917-6.11027-2.8716-8.51411-1.91833-2.39793-4.82544-3.59985-8.72133-3.59985-3.9018 0-6.80892 1.20192-8.72134 3.59985-1.91834 2.40384-2.87159 5.2399-2.87159 8.5141 0 3.33342.95325 6.18132 2.8716 8.54372 1.91241 2.36832 4.81952 3.55248 8.72133 3.55248 3.89589 0 6.803-1.18416 8.72134-3.55248zm-8.72134-20.53333zm13.50534 5.0386h3.16763v13.96717c0 1.41507.33157 2.46305.9947 3.14394 1.03022 1.06574 2.94263 1.55125 5.7491 1.45652l2.80645-.10658v-4.43468c-.18946.01777-.39077.0296-.59208.03553-.2013.00592-.39077.01184-.5684.01184-1.20784 0-1.93017-.11842-2.167-.34933-.23684-.22499-.35525-.80523-.35525-1.7348V800.8311h3.68273v-4.22745h-3.68273v-6.32342h-5.86752v6.32342h-3.16763zm22.2859 1.14271c.75786-.85851 1.81768-1.29073 3.1913-1.29073 1.26706 0 2.32096.40853 3.17948 1.21968.8526.81115 1.32626 2.00123 1.42099 3.57025h-9.21869c.19539-1.47428.66905-2.63476 1.42692-3.4992zm8.29504-5.12149c-1.51573-.70457-3.215-1.05982-5.10373-1.05982-3.17355 0-5.76094 1.04798-7.75033 3.14394-1.98939 2.09597-2.99 5.10965-2.99 9.03514 0 4.19193 1.10719 7.21746 3.30972 9.07659 2.20846 1.85913 4.7544 2.7887 7.64376 2.7887 3.49327 0 6.21684-1.1072 8.15886-3.30973 1.24929-1.39139 1.94794-2.7591 2.10188-4.10311h-6.05698c-.31972.66905-.6868 1.19008-1.10719 1.56309-.75786.69273-1.75255 1.04206-2.97224 1.04206-1.15455 0-2.1374-.2842-2.95448-.85852-1.34994-.9118-2.06636-2.51042-2.14925-4.784h15.53026c.0296-1.95979-.03552-3.45775-.18946-4.49981-.26052-1.77624-.83484-3.33341-1.72296-4.68336-.98877-1.52164-2.23806-2.64067-3.74786-3.35117zm-4.68336-1.05982zm27.8929 8.74502h6.07473c-.33156-3.23276-1.40323-5.48858-3.215-6.76747-1.81176-1.27298-4.13863-1.91242-6.98061-1.91242-3.34526 0-5.96817 1.0835-7.86875 3.2446-1.90057 2.167-2.85382 5.19846-2.85382 9.09434 0 3.45775.85851 6.27013 2.58147 8.43122 1.72295 2.16702 4.40507 3.25052 8.0582 3.25052 3.64722 0 6.40039-1.29665 8.25952-3.89588 1.1664-1.61046 1.81769-3.31565 1.95979-5.1215h-6.05698c-.12434 1.196-.47959 2.16702-1.06575 2.91896-.58024.74602-1.56309 1.12495-2.95448 1.12495-1.95386 0-3.28604-.94733-3.99654-2.83606-.38485-1.01246-.58023-2.35056-.58023-4.0143 0-1.74664.19538-3.14987.58023-4.20377.73418-1.98347 2.10189-2.97817 4.10312-2.97817 1.3973 0 2.43345.4559 3.1025 1.37363.4559.6809.7401 1.44468.8526 2.29135zm-4.02023-8.74502zm11.84752 5.0386h3.1617v13.96717c0 1.41507.33157 2.46305 1.00062 3.14394 1.0243 1.06574 2.94264 1.55125 5.74318 1.45652l2.81238-.10658v-4.43468c-.19539.01777-.3967.0296-.598.03553-.20131.00592-.39078.01184-.5684.01184-1.20784 0-1.93018-.11842-2.16701-.34933-.23683-.22499-.35525-.80523-.35525-1.7348V800.8311h3.68866v-4.22745h-3.68866v-6.32342h-5.86751v6.32342h-3.16171zm33.48804 8.78647h-6.11618c0 3.1913 1.14271 5.6958 3.43406 7.51941 2.28543 1.82953 5.42938 2.74133 9.42592 2.74133 3.91364 0 6.9451-.92956 9.08842-2.78277 2.14333-1.8473 3.215-4.18009 3.215-6.98063 0-2.7354-.91773-4.82545-2.74725-6.2642-1.17824-.92957-2.9308-1.67559-5.24583-2.22622l-5.28728-1.27298c-2.03675-.4855-3.36893-.90588-3.99654-1.26705-.971-.54471-1.45651-1.36178-1.45651-2.45713 0-1.196.49142-2.12557 1.4802-2.7887.98285-.66905 2.30319-1.00061 3.9551-1.00061 1.4802 0 2.72356.2546 3.72417.7697 1.49797.77563 2.3032 2.09005 2.4157 3.93141h6.15762c-.10657-3.25644-1.3085-5.74317-3.588-7.4602-2.28543-1.71112-5.04452-2.56963-8.27728-2.56963-3.8722 0-6.803.90588-8.80423 2.72357-1.9953 1.8236-2.99592 4.10311-2.99592 6.85036 0 3.01369 1.03614 5.22807 3.1025 6.64314 1.21968.84667 3.42814 1.62822 6.61945 2.35056l3.2446.72826c1.90057.41445 3.29788.89404 4.186 1.43875.88812.55063 1.33218 1.3381 1.33218 2.35056 0 1.7348-.89404 2.91895-2.68804 3.5584-.9414.33156-2.16701.49735-3.68274.49735-2.52226 0-4.31034-.6276-5.34648-1.89466-.5684-.69273-.95325-1.74072-1.14864-3.13802zm6.22277-22.14972zm30.64014 17.06967h6.08066c-.33157-3.23276-1.40323-5.48858-3.215-6.76747-1.81176-1.27298-4.13864-1.91242-6.98654-1.91242-3.34525 0-5.96225 1.0835-7.86874 3.2446-1.90058 2.167-2.8479 5.19846-2.8479 9.09434 0 3.45775.8585 6.27013 2.58146 8.43122 1.71703 2.16702 4.40507 3.25052 8.05229 3.25052 3.65313 0 6.4063-1.29665 8.26543-3.89588 1.1664-1.61046 1.81769-3.31565 1.95387-5.1215h-6.05698c-.12434 1.196-.47366 2.16702-1.05982 2.91896-.58024.74602-1.56902 1.12495-2.95448 1.12495-1.95979 0-3.29197-.94733-3.99654-2.83606-.39078-1.01246-.58616-2.35056-.58616-4.0143 0-1.74664.19538-3.14987.58616-4.20377.73418-1.98347 2.10188-2.97817 4.0972-2.97817 1.40322 0 2.43936.4559 3.10249 1.37363.46182.6809.74602 1.44468.8526 2.29135zm-4.0143-8.74502zm28.34878 17.25913c-.92956 1.23153-2.26174 1.85321-3.99654 1.85321s-3.06697-.62168-4.00838-1.85321c-.93548-1.23745-1.40323-2.99-1.40323-5.26951 0-2.27359.46775-4.02615 1.40323-5.25767.9414-1.2256 2.27359-1.84137 4.00838-1.84137 1.7348 0 3.06698.61576 3.99654 1.84137.92957 1.23152 1.39731 2.98408 1.39731 5.25767 0 2.2795-.46774 4.03206-1.3973 5.26951zm4.74849 3.2742c1.91241-2.3624 2.87158-5.2103 2.87158-8.54371 0-3.2742-.95917-6.11027-2.87158-8.51411-1.91834-2.39793-4.82546-3.59985-8.72134-3.59985-3.90181 0-6.80892 1.20192-8.72134 3.59985-1.91834 2.40384-2.87159 5.2399-2.87159 8.5141 0 3.33342.95325 6.18132 2.87159 8.54372 1.91242 2.36832 4.81953 3.55248 8.72134 3.55248 3.89588 0 6.803-1.18416 8.72134-3.55248zM859.408 795.7925zm13.50534 5.0386h3.16763v13.96717c0 1.41507.33156 2.46305.9947 3.14394 1.03021 1.06574 2.94263 1.55125 5.7491 1.45652l2.80645-.10658v-4.43468c-.18947.01777-.39077.0296-.59208.03553-.2013.00592-.39077.01184-.5684.01184-1.20784 0-1.93018-.11842-2.16701-.34933-.23683-.22499-.35525-.80523-.35525-1.7348V800.8311h3.68274v-4.22745h-3.68274v-6.32342h-5.86751v6.32342h-3.16763zm22.58785 18.25383v-30.68159h-5.93264v30.68159zm18.29528-11.03046v2.20846c-.04145 1.98347-.598 3.35118-1.6756 4.0972-1.07758.75194-2.2499 1.12495-3.52879 1.12495-.80523 0-1.48612-.225-2.0486-.67497-.56247-.44998-.84667-1.18416-.84667-2.19662 0-1.1368.46182-1.97755 1.37363-2.52226.54471-.31972 1.43875-.58616 2.68804-.81115l1.33218-.24867c.66905-.12434 1.19008-.26052 1.56901-.40262.38485-.14802.76379-.33748 1.1368-.57432zm-3.59985-2.77093l-2.019.24867c-2.29134.29604-4.02614.78155-5.20438 1.46244-2.14925 1.24929-3.22683 3.26828-3.22683 6.05698 0 2.14925.66905 3.813 2.00715 4.98531 1.3381 1.17232 3.03737 1.75848 5.09189 1.75848 1.61045 0 3.0492-.36709 4.3281-1.10719 1.07167-.62168 2.01307-1.37954 2.83014-2.26766.04145.5151.10066.971.16579 1.37362.07105.40262.19538.83483.37893 1.29074h6.44775v-.87628c-.38485-.17763-.67497-.40854-.87036-.68682-.19539-.27235-.3138-.7993-.35525-1.58085-.0296-1.0243-.04144-1.90058-.04144-2.62291V802.9152c0-2.7354-.9651-4.59454-2.89527-5.58331-1.92426-.98286-4.13272-1.47428-6.61946-1.47428-3.813 0-6.50696.9947-8.07597 2.99592-.98285 1.2789-1.5394 2.90711-1.66374 4.89058h5.7254c.13619-.87628.41447-1.56901.82892-2.0782.58616-.69865 1.57493-1.04206 2.97816-1.04206 1.2493 0 2.19662.17762 2.84199.52695.64536.35525.971 1.00062.971 1.93018 0 .76379-.42629 1.32034-1.27296 1.68151-.47367.21315-1.25521.38485-2.35056.52103zm.3138-9.49104zm32.81308 1.9065c-1.49205-1.23153-3.41039-1.84137-5.75502-1.84137-1.8769 0-3.42222.4559-4.64191 1.37362-.6809.5092-1.40323 1.34994-2.16701 2.51634v-3.30972h-5.72542v22.64706h5.91488v-12.27974c0-1.40323.19539-2.55187.58024-3.45775.75194-1.7052 2.13149-2.55779 4.14456-2.55779 1.64006 0 2.74725.58024 3.3275 1.74664.31971.63945.47958 1.55717.47958 2.74725v13.80139h6.08066v-15.27567c0-2.8479-.74602-4.88466-2.23806-6.11026zm-7.9398-1.9065zm27.68566.971c-1.07166-.60391-2.29135-.90587-3.66497-.90587-2.98409 0-5.37017 1.10719-7.15233 3.32749-1.78216 2.2203-2.6762 5.2695-2.6762 9.14171 0 3.3571.90588 6.10435 2.71765 8.2536 1.81176 2.14333 4.0439 3.215 6.6905 3.215 1.61046 0 2.9604-.30789 4.03799-.91773 1.0835-.60985 2.0486-1.58678 2.89527-2.93672v3.14395h5.76686v-30.64014h-6.01554V799.268c-.66905-1.06575-1.53348-1.90058-2.59923-2.5045zm1.45652 16.1638c-.87628 1.24336-2.15517 1.87097-3.83076 1.87097-1.6815 0-2.9308-.6276-3.7597-1.88282-.823-1.2552-1.23745-2.9308-1.23745-5.02676 0-1.94202.40853-3.57024 1.21968-4.88466.81115-1.3085 2.08412-1.9657 3.81892-1.9657 1.1368 0 2.1374.36117 2.99592 1.0835 1.40323 1.19008 2.10189 3.17947 2.10189 5.9504 0 1.9894-.43814 3.60577-1.3085 4.85506zm19.60377-16.77955c-1.09535-2.55187-2.69989-5.29912-4.8077-8.24176h-4.47612l1.27298 2.32688c1.74663 3.20907 2.9604 6.56616 3.64129 10.0772.44406 2.30319.66905 4.8136.66905 7.53718 0 4.24521-.62169 8.15294-1.85321 11.71726-.72234 2.1078-2.00123 4.81361-3.83076 8.11742h4.39323l1.47428-2.019c.95917-1.21968 1.97755-3.03737 3.06106-5.45305 1.93018-4.31627 2.89527-8.56148 2.89527-12.74156 0-3.80116-.81115-7.5727-2.43937-11.32057z"/></svg>