<svg id="Layer_1" data-name="Layer 1" xmlns="http://www.w3.org/2000/svg" viewBox="0 0 900 795.16713"><defs><style>.cls-1{fill:red;}.cls-2{fill:#fff;}</style></defs><path d="M39.30293,702.70665a10.226,10.226,0,0,0,1.91894,5.16114q2.61768,3.11131,8.96973,3.11035a19.29943,19.29943,0,0,0,6.17675-.82032q4.50147-1.57178,4.502-5.84472a4.30763,4.30763,0,0,0-2.20508-3.86231,23.9315,23.9315,0,0,0-6.99512-2.35839l-5.4541-1.19629q-8.042-1.77685-11.04883-3.86231-5.09325-3.48633-5.09277-10.90332a14.47878,14.47878,0,0,1,4.98242-11.24512q4.98194-4.47655,14.63574-4.47754a22.4398,22.4398,0,0,1,13.75391,4.22168q5.69238,4.22169,5.96875,12.25293H59.298a7.21249,7.21249,0,0,0-4.06445-6.46,13.92849,13.92849,0,0,0-6.27246-1.26465,11.94048,11.94048,0,0,0-6.6582,1.64063,5.1923,5.1923,0,0,0-2.48731,4.58008,4.31954,4.31954,0,0,0,2.45313,4.0332,30.41443,30.41443,0,0,0,6.69335,2.085l8.84083,2.085a22.5096,22.5096,0,0,1,8.71386,3.65723q4.5044,3.55518,4.50489,10.28809a14.45718,14.45718,0,0,1-5.3379,11.46777q-5.33788,4.56151-15.08007,4.5625-9.94923,0-15.64942-4.49414-5.70117-4.49415-5.70019-12.35645Z"/><path d="M95.18671,681.00255h9.87793l5.67383,26.83106,5.81055-26.83106h10.15137L115.8996,718.25841H105.885l-5.84473-27.13867-5.91309,27.13867H84.01L73.551,681.00255H84.01l5.81054,26.72852Z"/><path d="M142.08125,676.55919h-9.87793v-8.98926h9.87793Zm-9.87793,4.44336h9.87793v37.25586h-9.87793Z"/><path d="M147.68671,688.28282v-6.93847H152.882V670.95372h9.63867v10.39063h6.0498v6.93847h-6.0498v19.6875q0,2.291.58105,2.8545.58008.5625,3.55469.56347c.2959,0,.60938-.00488.93945-.0166s.65528-.02832.97461-.05176v7.28028l-4.61425.1709q-6.90528.23877-9.4336-2.39258-1.64062-1.67431-1.64062-5.16113V688.28282Z"/><path d="M172.70625,688.93224v-7.92969h29.46289v8.10059l-18.28125,21.15722h18.93066v7.99805H171.40742v-7.58789l18.46777-21.73828Z"/><path d="M234.10273,681.75743a15.15069,15.15069,0,0,1,6.4375,5.51075,18.31072,18.31072,0,0,1,2.96875,7.70312,47.68167,47.68167,0,0,1,.32129,7.39356H216.6955q.22705,5.606,3.89551,7.86132a9.89525,9.89525,0,0,0,5.37109,1.40137,7.56575,7.56575,0,0,0,7.41407-4.27246h9.94531a12.16442,12.16442,0,0,1-3.61133,6.7334q-5.00536,5.43458-14.0166,5.43457a20.3121,20.3121,0,0,1-13.123-4.584q-5.68506-4.58349-5.68457-14.915,0-9.68116,5.13184-14.84668,5.1328-5.165,13.32324-5.166A21.20644,21.20644,0,0,1,234.10273,681.75743Zm-14.57324,8.415a10.11883,10.11883,0,0,0-2.59473,5.7666H233.717a8.12956,8.12956,0,0,0-2.59473-5.88671,8.53932,8.53932,0,0,0-5.77734-2.00879A7.72741,7.72741,0,0,0,219.52949,690.17247Z"/><path d="M269.45234,680.13146q.186.01758.83691.05078v9.98047q-.92284-.10254-1.64062-.13672-.71778-.03369-1.16211-.03418-5.87988,0-7.89551,3.82812a14.89408,14.89408,0,0,0-1.12793,6.63086v17.80762h-9.80957V681.00255h9.29688v6.49414a20.59862,20.59862,0,0,1,3.93066-5.09277,10.70041,10.70041,0,0,1,7.10938-2.29C269.17207,680.11388,269.32636,680.11974,269.45234,680.13146Z"/><path d="M285.94355,718.25841h-9.74121V667.87755h9.74121Z"/><path d="M310.20136,695.59728a15.3936,15.3936,0,0,0,3.89063-.85449,2.92991,2.92991,0,0,0,2.10058-2.76856,3.27162,3.27162,0,0,0-1.61132-3.16113,10.16828,10.16828,0,0,0-4.72852-.87207q-3.49952,0-4.95508,1.709a7.04472,7.04472,0,0,0-1.38574,3.418H294.1125a14.25823,14.25823,0,0,1,2.74609-8.03223q3.87891-4.92187,13.31934-4.92187a23.757,23.757,0,0,1,10.916,2.42676q4.771,2.42724,4.77149,9.16015v17.08985q0,1.77831.06835,4.30664a5.40788,5.40788,0,0,0,.58106,2.59765,3.47834,3.47834,0,0,0,1.43555,1.12793v1.43555H317.35468a10.75438,10.75438,0,0,1-.61523-2.11914q-.17139-.99024-.27344-2.25586a20.10381,20.10381,0,0,1-4.67578,3.72559,14.13484,14.13484,0,0,1-7.15137,1.81152,12.33776,12.33776,0,0,1-8.40527-2.88867q-3.31786-2.88721-3.31738-8.18555,0-6.87012,5.33691-9.94629a23.8405,23.8405,0,0,1,8.6084-2.39258Zm5.95606,4.5459a10.685,10.685,0,0,1-1.8877.93945,15.888,15.888,0,0,1-2.61621.667l-2.21777.41016a14.62647,14.62647,0,0,0-4.47754,1.333,4.44886,4.44886,0,0,0-2.30078,4.13574,4.32262,4.32262,0,0,0,1.40527,3.60644,5.34658,5.34658,0,0,0,3.419,1.11035,10.18228,10.18228,0,0,0,5.88281-1.8457q2.68946-1.84571,2.793-6.7334Z"/><path d="M364.41816,683.13927q3.65918,3.02344,3.65918,10.03125v25.08789h-9.98047V695.59728a10.4078,10.4078,0,0,0-.78027-4.51172q-1.4253-2.87109-5.42871-2.87109-4.92042,0-6.752,4.2041a14.53047,14.53047,0,0,0-.95019,5.67383v20.166h-9.74121v-37.1875h9.43359v5.43457a16.50007,16.50007,0,0,1,3.54-4.13574,12.26272,12.26272,0,0,1,7.58984-2.25586A14.27539,14.27539,0,0,1,364.41816,683.13927Z"/><path d="M396.89082,681.60021a11.85213,11.85213,0,0,1,4.27246,4.11914V667.94591h9.87793v50.3125h-9.46778v-5.16113a13.73447,13.73447,0,0,1-4.751,4.81933,13.34665,13.34665,0,0,1-6.63086,1.50391,13.84425,13.84425,0,0,1-10.98926-5.28125q-4.459-5.2793-4.46-13.55176,0-9.53613,4.3916-15.00488a14.29015,14.29015,0,0,1,11.74121-5.46875A12.02693,12.02693,0,0,1,396.89082,681.60021Zm2.39257,26.541a13.58964,13.58964,0,0,0,2.15332-7.96386q0-6.835-3.45214-9.77539a7.43245,7.43245,0,0,0-4.92188-1.77735,6.845,6.845,0,0,0-6.27246,3.22949,14.97886,14.97886,0,0,0-1.999,8.01563,14.81991,14.81991,0,0,0,2.03418,8.25391,6.87473,6.87473,0,0,0,6.16894,3.09375A7.19242,7.19242,0,0,0,399.28339,708.14122Z"/><path d="M441.8371,680.5924a73.25376,73.25376,0,0,1,7.89551-13.53516h7.34864l-2.085,3.82812a56.99458,56.99458,0,0,0-5.98144,16.543,65.4261,65.4261,0,0,0-1.09375,12.37305,58.44784,58.44784,0,0,0,3.042,19.24316,87.81082,87.81082,0,0,0,6.28906,13.33008h-7.21191l-2.42676-3.31543a44.44063,44.44063,0,0,1-5.02441-8.95508,50.98641,50.98641,0,0,1-4.751-20.918A46.4005,46.4005,0,0,1,441.8371,680.5924Z"/><path d="M471.02656,702.70665a10.226,10.226,0,0,0,1.91894,5.16114q2.61768,3.11131,8.96973,3.11035a19.29946,19.29946,0,0,0,6.17676-.82032q4.50145-1.57178,4.50195-5.84472a4.30763,4.30763,0,0,0-2.20508-3.86231,23.93152,23.93152,0,0,0-6.99511-2.35839l-5.45411-1.19629q-8.042-1.77685-11.04882-3.86231-5.09327-3.48633-5.09278-10.90332a14.47878,14.47878,0,0,1,4.98242-11.24512q4.98193-4.47655,14.63575-4.47754a22.43977,22.43977,0,0,1,13.7539,4.22168q5.69238,4.22169,5.96875,12.25293H491.02168a7.21251,7.21251,0,0,0-4.06446-6.46,13.92849,13.92849,0,0,0-6.27246-1.26465,11.94052,11.94052,0,0,0-6.6582,1.64063,5.1923,5.1923,0,0,0-2.48731,4.58008,4.31956,4.31956,0,0,0,2.45313,4.0332,30.41438,30.41438,0,0,0,6.69336,2.085l8.84082,2.085a22.50972,22.50972,0,0,1,8.71387,3.65723q4.50438,3.55518,4.50488,10.28809a14.4572,14.4572,0,0,1-5.33789,11.46777q-5.3379,4.56151-15.08008,4.5625-9.94922,0-15.64941-4.49414-5.70119-4.49415-5.7002-12.35645Z"/><path d="M526.91035,681.00255h9.87793l5.67382,26.83106,5.81055-26.83106H558.424l-10.80078,37.25586H537.60859l-5.84473-27.13867-5.91308,27.13867H515.73359l-10.459-37.25586h10.459l5.81055,26.72852Z"/><path d="M573.80488,676.55919H563.927v-8.98926h9.87793Zm-9.87793,4.44336h9.87793v37.25586H563.927Z"/><path d="M590.79218,706.36388a6.478,6.478,0,0,0,1.33985,3.69141q1.81934,1.94823,6.73047,1.94824a10.2912,10.2912,0,0,0,4.585-.85449,2.73647,2.73647,0,0,0,1.70019-2.56348,2.765,2.765,0,0,0-1.36914-2.49512q-1.36962-.854-10.19141-2.93945-6.35009-1.57177-8.94726-3.93067a8.51807,8.51807,0,0,1-2.59766-6.69921,11.61159,11.61159,0,0,1,4.0586-8.87012q4.05908-3.70752,11.42382-3.708,6.98732,0,11.38868,2.78613,4.40186,2.78615,5.05273,9.6211H604.2248a5.7597,5.7597,0,0,0-1.0625-2.97364q-1.61133-1.98192-5.48437-1.98242a7.90281,7.90281,0,0,0-4.541.99121,2.85188,2.85188,0,0,0-1.35352,2.32422,2.54135,2.54135,0,0,0,1.43946,2.42676q1.43994.78661,10.1709,2.7002,5.82128,1.36816,8.72656,4.13574a9.39074,9.39074,0,0,1,2.87109,7.00683,11.31465,11.31465,0,0,1-4.12695,9.041q-4.12793,3.50244-12.75684,3.50293-8.80371,0-12.998-3.708a12.05593,12.05593,0,0,1-4.19532-9.45117Z"/><path d="M629.72285,706.36388a6.47792,6.47792,0,0,0,1.33984,3.69141q1.81934,1.94823,6.73047,1.94824a10.29114,10.29114,0,0,0,4.585-.85449,2.73648,2.73648,0,0,0,1.7002-2.56348,2.76506,2.76506,0,0,0-1.36914-2.49512q-1.36963-.854-10.19141-2.93945-6.3501-1.57177-8.94727-3.93067a8.51806,8.51806,0,0,1-2.59765-6.69921,11.61162,11.61162,0,0,1,4.05859-8.87012q4.05909-3.70752,11.42383-3.708,6.9873,0,11.38867,2.78613,4.40186,2.78615,5.05274,9.6211h-9.74122a5.75961,5.75961,0,0,0-1.0625-2.97364q-1.61131-1.98192-5.48437-1.98242a7.90281,7.90281,0,0,0-4.541.99121,2.85187,2.85187,0,0,0-1.35351,2.32422,2.54134,2.54134,0,0,0,1.43945,2.42676q1.43994.78661,10.1709,2.7002,5.82129,1.36816,8.72656,4.13574a9.39075,9.39075,0,0,1,2.8711,7.00683,11.31466,11.31466,0,0,1-4.127,9.041q-4.12793,3.50244-12.75683,3.50293-8.80371,0-12.99805-3.708a12.05592,12.05592,0,0,1-4.19531-9.45117Z"/><path d="M666.69843,673.14122a20.74306,20.74306,0,0,1,15.48731-6.2207q12.57861,0,18.39453,8.33984a18.18019,18.18019,0,0,1,3.44922,9.39942H693.50214A14.35105,14.35105,0,0,0,690.924,679.191q-2.8125-3.28125-8.33789-3.28125a10.27238,10.27238,0,0,0-8.87305,4.63183q-3.24756,4.63184-3.24805,13.10743,0,8.477,3.42676,12.69726a10.73851,10.73851,0,0,0,8.71,4.22168q5.41552,0,8.25879-3.62305a15.91777,15.91777,0,0,0,2.60742-5.84472h10.459a22.69507,22.69507,0,0,1-6.915,13.39844q-5.562,5.1621-14.25195,5.16113-10.75342,0-16.90723-6.97266-6.15381-7.00635-6.1543-19.209Q659.69843,680.28576,666.69843,673.14122Z"/><path d="M742.72089,713.70079q-4.7168,5.82276-14.32129,5.82227-9.605,0-14.32128-5.82227a23.11485,23.11485,0,0,1,0-27.98632q4.7168-5.90772,14.32128-5.90821,9.60353,0,14.32129,5.90821a23.11485,23.11485,0,0,1,0,27.98632Zm-7.793-5.38379q2.28954-3.03809,2.29-8.63476,0-5.59863-2.29-8.61817a8.65837,8.65837,0,0,0-13.14258,0q-2.30566,3.02052-2.30664,8.61817,0,5.59716,2.30664,8.63476a8.62758,8.62758,0,0,0,13.14258,0Z"/><path d="M777.3625,681.00255h10.459l-13.4541,37.25586H764.09687l-13.36133-37.25586H761.673l7.75977,27.48047Z"/><path d="M803.35566,676.55919h-9.87793v-8.98926h9.87793Zm-9.87793,4.44336h9.87793v37.25586h-9.87793Z"/><path d="M832.54511,681.60021a11.85205,11.85205,0,0,1,4.27246,4.11914V667.94591h9.87793v50.3125h-9.46777v-5.16113a13.73449,13.73449,0,0,1-4.751,4.81933,13.34663,13.34663,0,0,1-6.63086,1.50391,13.84423,13.84423,0,0,1-10.98925-5.28125q-4.459-5.2793-4.46-13.55176,0-9.53613,4.3916-15.00488a14.29014,14.29014,0,0,1,11.74121-5.46875A12.02687,12.02687,0,0,1,832.54511,681.60021Zm2.39258,26.541a13.58964,13.58964,0,0,0,2.15332-7.96386q0-6.835-3.45215-9.77539a7.4324,7.4324,0,0,0-4.92187-1.77735,6.845,6.845,0,0,0-6.27246,3.22949,14.97886,14.97886,0,0,0-1.999,8.01563,14.82,14.82,0,0,0,2.03418,8.25391,6.87476,6.87476,0,0,0,6.16895,3.09375A7.19244,7.19244,0,0,0,834.93769,708.14122Z"/><path d="M867.10761,680.5924a46.47333,46.47333,0,0,1,3.99219,18.59375,51.081,51.081,0,0,1-4.74219,20.918,44.5749,44.5749,0,0,1-5.01562,8.95508l-2.42285,3.31543h-7.19922a87.9657,87.9657,0,0,0,6.26562-13.33008,58.6538,58.6538,0,0,0,3.03125-19.24316,65.681,65.681,0,0,0-1.08984-12.37305,57.14025,57.14025,0,0,0-5.959-16.543l-2.07812-3.82812h7.33594A73.28668,73.28668,0,0,1,867.10761,680.5924Z"/><path class="cls-1" d="M-7.462-5.207h915.621V605.207H-7.462Z"/><path class="cls-2" d="M259.594,242.774H641.103V357.227H259.594Z"/><path class="cls-2" d="M393.122,109.246H507.575V490.755H393.122Z"/></svg>