<svg xmlns="http://www.w3.org/2000/svg" role="img" viewBox="92.42 93.17 320.15 328.90"><title>Temporary Contact Number (TCN) logo</title><path fill="#c54966" d="M336.82 361.15l-84 48.53-81.82-47.2a2.66 2.66 0 1 0-2.65 4.61l84.15 48.58.25.15 55.33-31.95 31.37-18.11zm14.41-243.09l-31.6-18.24-2.63 4.61L401 153v94.39a2.66 2.66 0 1 0 5.32 0v-97.51zM186.85 101a2.66 2.66 0 0 0-3.63-1l-84.15 48.64-.25.15v100.12h5.31v-97l81.75-47.2a2.66 2.66 0 0 0 .97-3.71zm37.43 38v-13.88h57.66V139H261v50.16h-15.76V139zm34.05 114.35a18.94 18.94 0 0 0 8.65-2 22.1 22.1 0 0 0 7.18-6l10.35 10.16a32.19 32.19 0 0 1-11.77 9 35.07 35.07 0 0 1-15 3.39 36.23 36.23 0 0 1-13.6-2.56 33.85 33.85 0 0 1-10.93-7A32.21 32.21 0 0 1 226 248a31.87 31.87 0 0 1-2.65-13 32.29 32.29 0 0 1 2.65-13.09 31.86 31.86 0 0 1 7.28-10.48 34.53 34.53 0 0 1 10.94-7 35.68 35.68 0 0 1 13.55-2.57 34.65 34.65 0 0 1 7.87.92 40.91 40.91 0 0 1 7.51 2.52 32.54 32.54 0 0 1 6.59 3.93 29 29 0 0 1 5.21 5.17l-10.62 10.44a23.49 23.49 0 0 0-7.55-6.36 19.25 19.25 0 0 0-9-2.15 18.3 18.3 0 0 0-7.19 1.41 17.7 17.7 0 0 0-5.76 3.89 18.37 18.37 0 0 0-3.85 5.91 19 19 0 0 0-1.42 7.37 18.31 18.31 0 0 0 1.42 7.27 17.88 17.88 0 0 0 3.94 5.82 18.54 18.54 0 0 0 6 3.89 19.43 19.43 0 0 0 7.41 1.46zm-34.6 27.37h14.82l29.11 37.17v-37.17h14.83v64.08h-13.91l-30-38.63v38.63h-14.85z" data-name="Layer 1"/></svg>