<svg id="Layer_1" data-name="Layer 1" xmlns="http://www.w3.org/2000/svg" viewBox="0 0 1000 304.36984"><defs><style>.cls-1{fill:#031243;}.cls-2{fill:#0160cc;}</style></defs><path class="cls-1" d="M685.60486,124.53842V74.01282c0-.44634-.00471-.89274.00078-1.339.02707-2.202.028-2.227,2.1476-2.23318,5.17759-.01516,10.35517-.00506,15.53275-.005,2.58883,0,5.17889.04966,7.76582-.0205,1.25384-.034,1.85075.35664,1.70828,1.6692a14.94045,14.94045,0,0,0-.00877,1.6058q.00011,76.32476-.00418,152.64951c-.00052,4.047.32471,3.338-3.443,3.3584-7.052.03823-14.10439.0154-21.15659.00874-2.65539-.00252-2.54423.34421-2.54312-2.63507.00177-4.642.0068-9.284-.00948-13.92589-.00177-.50711.16811-1.0481-.16981-1.55409-.83419-.123-.96379.66275-1.3204,1.08915-12.67852,15.1601-28.9215,21.43031-48.46672,19.42532a56.758,56.758,0,0,1-34.309-15.85172,60.73476,60.73476,0,0,1-17.01093-29.5032c-4.2576-16.7408-3.36-33.20154,4.21373-48.79979,10.13547-20.87419,26.94266-32.48619,50.27431-34.10316q23.38485-1.62067,40.57412,14.47363C681.4622,120.27137,683.24005,122.50249,685.60486,124.53842Zm-38.047,81.77576c20.20143.25548,37.729-14.84636,38.01184-37.89937.26782-21.82861-16.10475-38.50277-37.62737-38.5672-21.36478-.064-38.06421,15.68641-38.15111,38.04746C609.70136,191.053,627.12991,206.32855,647.55791,206.31418Z"/><path class="cls-1" d="M966.81658,124.69462c0-1.13792.00007-2.01.00007-2.8821V73.87581a12.93525,12.93525,0,0,0-.01086-1.60544c-.17235-1.36718.28764-1.93928,1.762-1.864,2.22587.11372,4.46187.02923,6.69356.02924,5.62384,0,11.24814.03465,16.87133-.02453,1.36787-.01438,2.0114.38,1.84022,1.81a13.59264,13.59264,0,0,0-.00987,1.60559q.00009,76.18991-.00014,152.37981c-.00006,3.50228-.00065,3.50244-3.58164,3.50249q-10.57819.00012-21.15639.00012c-2.53358.00011-2.40882.25945-2.40843-2.50392.00065-5.17022.00013-10.34041.00013-15.54683-1.00733-.1158-1.20643.72912-1.61124,1.21721-8.28191,9.98631-18.64976,16.59069-31.51431,18.69309-19.22842,3.1424-36.33325-1.65378-50.67761-14.96672-10.93592-10.14956-16.91808-22.99848-19.01671-37.69646-1.98694-13.91567-.58638-27.45056,5.42494-40.22772,9.07354-19.286,24.05587-31.16134,45.31368-34.277,20.25231-2.96833,37.30227,3.19453,50.58378,19.05233A2.92873,2.92873,0,0,0,966.81658,124.69462Zm-37.86668,81.6195c21.07.14251,37.48836-15.88644,37.86217-37.495.38257-22.12033-16.10285-38.94853-37.732-38.97452-20.03379-.02407-38.00818,14.45975-38.019,38.18184C891.05,192.3357,909.52048,206.437,928.9499,206.31412Z"/><path class="cls-1" d="M751.80031,178.629c-.36577.86394.141,1.59561.34655,2.34142a36.37155,36.37155,0,0,0,35.38227,26.98324c8.7931.06616,16.975-1.80172,24.39843-6.61292a28.52348,28.52348,0,0,0,9.25113-9.50281c.46306-.78574.86178-1.44545,1.99178-1.44029,9.2778.04223,18.55593.02384,27.87964.02384.44508,1.25949-.31235,2.16559-.70238,3.0801-6.09416,14.289-16.08029,25.07358-30.09275,31.67064-21.15045,9.95761-42.65908,10.4454-63.67718-.17306-19.24477-9.72262-30.29447-25.85-33.39291-47.15-2.60282-17.89271,1.13961-34.44065,12.127-49.0063,9.467-12.55,22.14372-20.29643,37.45364-23.5302,16.79862-3.5482,33.08207-1.82495,48.2499,6.49192,17.76286,9.73979,28.28777,24.85311,31.88576,44.7902a70.40006,70.40006,0,0,1,.5329,20.25512c-.13744,1.26116-.54931,1.75939-1.794,1.627a17.80007,17.80007,0,0,0-1.87325-.01088q-47.39709.00006-94.79427.00808A10.73865,10.73865,0,0,0,751.80031,178.629Zm72.54077-22.61392c-3.37261-14.70818-17.28778-28.69544-38.12208-27.84079a35.52068,35.52068,0,0,0-24.23921,10.404,37.74417,37.74417,0,0,0-10.09251,17.43683Z"/><path class="cls-1" d="M342.32491,178.46606a36.97167,36.97167,0,0,0,9.3019,18.06323c7.27408,7.63469,16.26886,11.25277,26.78174,11.41562a42.95922,42.95922,0,0,0,22.57056-5.50859,29.62113,29.62113,0,0,0,10.90179-10.4332,2.5679,2.5679,0,0,1,2.45008-1.61583c8.925.065,17.85081.0372,26.77631.0483a5.023,5.023,0,0,1,.88085.18118,4.66486,4.66486,0,0,1-.76524,2.7393c-6.35352,14.95209-16.91527,26.017-31.70485,32.56468-20.78078,9.20009-41.81651,9.42107-62.252-.9497-18.05707-9.16375-28.97678-24.18348-32.79159-44.08169-2.83543-14.78965-1.19441-29.166,5.74494-42.65786,8.31189-16.16047,21.37324-26.8283,38.82419-31.72423,19.83769-5.56557,38.93387-3.50538,56.55158,7.535,15.401,9.65124,24.51112,23.80582,27.96778,41.59729a69.68078,69.68078,0,0,1,.67573,21.04759c-.1461,1.32395-.51625,1.96-1.90953,1.79114a15.67937,15.67937,0,0,0-1.87285-.01222q-47.52857,0-95.05715,0Zm72.75461-22.47879c-2.53972-15.80507-19.50985-28.37044-37.46146-27.871-16.56947.461-33.17959,13.75415-34.66891,27.871Z"/><path class="cls-1" d="M481.52693,122.68385c2.20341-1.88859,3.92986-3.90943,5.86957-5.742,8.59886-8.12391,18.93066-12.16336,30.60135-13.07252a56.256,56.256,0,0,1,22.70248,2.51051c16.3795,5.56092,26.08931,17.061,29.81009,33.79656a57.26068,57.26068,0,0,1,1.186,12.49258q-.01176,37.08739-.00366,74.17479c0,.08927-.00026.17852-.00006.26779.00588,2.974.08349,2.59141-2.582,2.59452q-10.979.01281-21.958-.00234c-2.425-.00484-2.61236.56-2.611-2.59752q.01324-31.732.014-63.464A47.75707,47.75707,0,0,0,543.501,151.954c-3.26675-13.10665-13.40546-21.34487-27.21032-22.03128-7.8413-.3899-15.28729,1.0019-21.89473,5.51266-6.85137,4.67724-10.7094,11.28731-12.24691,19.355a48.17284,48.17284,0,0,0-.62006,9.06039q-.00564,31.46423-.00506,62.92843c-.00092,3.2115.32686,2.9247-2.80535,2.92769q-10.84512.01038-21.69024.00157c-2.81967-.0007-2.64414.21855-2.64346-2.55947q.00339-13.52291.00085-27.04585,0-45.25491.00461-90.50983c.00088-3.34634-.38855-2.98774,2.99559-2.99388q10.97895-.01994,21.958.00065c2.15126.00362,2.17205.0294,2.17869,2.20374C481.53674,113.43042,481.52693,118.05715,481.52693,122.68385Z"/><path class="cls-2" d="M22.28531,11.49674c4.99892.00007,9.99789-.01246,14.99675.00553,2.38392.00857,2.39886.03466,2.42716,2.33631A107.9439,107.9439,0,0,0,50.487,59.82725a111.69092,111.69092,0,0,0,50.36733,51.87264,109.54129,109.54129,0,0,0,48.578,12.2816c2.49442.059,2.51521.06269,2.51731,2.47628q.013,14.99676.002,29.99353c-.00011.535-.00116,1.07174-.04276,1.60447a.924.924,0,0,1-1.04616.93871c-.9818-.00538-1.96481.03807-2.94537.00425-27.83437-.95959-53.641-8.619-76.84583-24.10566C39.49519,113.81931,18.71639,84.87453,9.1598,48.03528A134.122,134.122,0,0,1,4.77444,13.90007c.00555-2.24529-.31928-2.41725,2.51413-2.408C12.28743,11.50847,17.28639,11.49668,22.28531,11.49674Z"/><path class="cls-2" d="M134.44484,291.39614c-5.17739-.0001-10.35486.01478-15.53215-.00768-1.97306-.00857-2.01413-.079-1.96953-1.89583a99.81441,99.81441,0,0,0-9.73605-46.156c-15.69218-32.74415-41.6472-52.94181-76.67689-61.74205a100.97038,100.97038,0,0,0-23.57558-2.93081c-2.116-.02308-2.14175-.04271-2.144-2.27128q-.01518-15.26438.00054-30.52878c.00238-2.18562.0319-2.24327,2.18614-2.21138a144.14535,144.14535,0,0,1,42.60952,6.93511c37.08608,12.04228,65.50175,34.8609,84.67993,68.89007a137.56264,137.56264,0,0,1,16.40583,49.46109c.85561,6.28993,1.11194,12.60637,1.41448,18.928.00427.08906.00079.1785.00088.26776.00393,3.25749.00393,3.25991-3.20216,3.26135Q141.67533,291.399,134.44484,291.39614Z"/><path class="cls-1" d="M282.69989,70.59955a4.953,4.953,0,0,1,.2706,2.66574c.018,10.08691.00095,20.17388.01729,30.2608.00563,3.47817-.42844,3.0539,3.19126,3.0637,6.96265.01886,13.92534-.00092,20.888.00935,2.132.00315,2.15371.02407,2.15728,2.19244q.01662,10.04229.0052,20.08462c.0014,2.7516.03082,2.35736-2.52972,2.36107q-10.57791.01532-21.15581.00431c-2.81656.00095-2.5609-.19053-2.561,2.632q-.00226,46.32857-.00595,92.6571c-.00105,3.69646.37057,3.15858-3.06762,3.17069-7.23037.02545-14.46089.01355-21.69136.00433-2.34064-.003-2.36683-.02107-2.3697-2.31353q-.017-13.52362-.00476-27.04731,0-33.07268-.00175-66.14538c-.00055-3.50674.17478-2.93772-3.04628-2.95067-6.6055-.02655-13.21122.0027-19.81678-.01478-1.9029-.00505-1.94332-.04211-1.9481-1.89385q-.02694-10.444.00038-20.888c.00482-1.81226.04711-1.84617,1.99152-1.85064,6.87337-.01581,13.74682.00092,20.6202-.0105,2.16235-.0036,2.19226-.02632,2.19548-2.19479.01283-8.65868-.00016-17.31741.00934-25.9761.0024-2.18.01472-2.22493,2.01318-2.65892q11.62485-2.52445,23.26226-4.99105A14.88924,14.88924,0,0,1,282.69989,70.59955Z"/></svg>