<svg id="Layer_1" data-name="Layer 1" xmlns="http://www.w3.org/2000/svg" viewBox="0 0 320 375"><defs><style>.cls-1{fill:#fff;}.cls-2{fill:#ccc;}.cls-3{fill:#cb1212;}.cls-4{fill:none;}.cls-5{fill:#fad305;}</style></defs><polygon class="cls-1" points="222.353 2.94 97.613 2.94 9.423 91.13 9.423 215.87 97.613 304.06 222.353 304.06 310.543 215.87 310.543 91.13 222.353 2.94"/><path class="cls-2" d="M222.55981,304.55957H97.40552L8.92261,216.07715V90.92285L97.40552,2.43994H222.55981l88.48243,88.48291v125.1543Zm-124.74023-1H222.14575l87.89649-87.89648V91.33691l-87.89649-87.897H97.81958l-87.897,87.897V215.66309Z"/><polygon class="cls-3" points="213.143 24.88 106.653 24.88 31.363 100.17 31.363 206.66 106.653 281.96 213.143 281.96 288.443 206.66 288.443 100.17 213.143 24.88"/><path class="cls-1" d="M159.61267,185.75a32.63,32.63,0,1,1,32.63-32.63A32.66984,32.66984,0,0,1,159.61267,185.75Zm0-81.82a49.19,49.19,0,1,0,49.19,49.19A49.24374,49.24374,0,0,0,159.61267,103.93Z"/><path class="cls-1" d="M159.61267,205.84a52.72,52.72,0,1,1,52.72-52.72A52.77958,52.77958,0,0,1,159.61267,205.84Zm87.04-45.24-.03-.05c-1.77-2.57-7.92-4.86-9.14-5.29l-.08-.03c-3.07-.93-6.9-2.47-7.76-3.34l-.05-.05a3.475,3.475,0,0,1-.21-4.31l.04-.05c.76-.95,4.43-2.86,7.39-4.09l.08-.03c1.17-.55,7.07-3.43,8.57-6.16l.03-.05c1.63-3.2.34-8.37-2.61-10.43l-.05-.03c-1.47-.95-4.32-1.43-8.48-1.43-1.15,0-1.95.04-1.99.04l-.08.01c-.02,0-2.45.24-4.83.24a10.45746,10.45746,0,0,1-3.62-.36l-.06-.02a3.45676,3.45676,0,0,1-1.84-3.9l.02-.06c.34-1.17,3-4.34,5.26-6.61l.06-.06c.87-.95,5.22-5.88,5.56-8.97l.01-.06c.28-3.58-2.89-7.86-6.4-8.64l-.06-.01a5.85564,5.85564,0,0,0-.97-.08c-3.24,0-8.63,2.52-9.23,2.8l-.07.03c-2.36,1.26-6.48,3.11-7.85,3.11h-.03l-.09.01a3.45579,3.45579,0,0,1-3.14-2.89l-.01-.06c-.13-1.21,1.11-5.16,2.34-8.12l.03-.08c.44-1.21,2.57-7.42,1.71-10.42l-.02-.06c-.99-3.05-4.72-5.62-8.14-5.62a6.38167,6.38167,0,0,0-1.08.09l-.06.01c-3.05.65-7.52,5.46-8.39,6.42l-.05.06c-2.03,2.48-4.93,5.43-6.06,5.89l-.06.03a2.49141,2.49141,0,0,1-1.05.2,3.4787,3.4787,0,0,1-3.01-1.66l-.03-.06c-.58-1.07-.95-5.19-.95-8.39v-.08c-.06-1.29-.47-7.84-2.41-10.28l-.04-.05a8.72214,8.72214,0,0,0-6.53-2.66,7.59037,7.59037,0,0,0-4.1,1.08l-.05.03c-2.57,1.77-4.86,7.92-5.29,9.14l-.03.08c-.78,2.57-2.38,6.81-3.34,7.76l-.05.05a3.19764,3.19764,0,0,1-2.31.86,3.11567,3.11567,0,0,1-2-.65l-.05-.04c-.95-.76-2.86-4.43-4.09-7.39l-.03-.08c-.55-1.17-3.43-7.07-6.16-8.57l-.05-.03a7.28448,7.28448,0,0,0-3.27-.72,8.96718,8.96718,0,0,0-7.16,3.33l-.03.05c-1.7,2.62-1.46,9.18-1.39,10.47l.01.08c.26,2.67.41,7.21-.12,8.45l-.02.06a3.52437,3.52437,0,0,1-3.14,1.96,2.3288,2.3288,0,0,1-.76-.12l-.06-.02c-1.17-.34-4.34-3-6.61-5.27l-.06-.06c-.95-.87-5.88-5.22-8.97-5.56l-.06-.01c-.15-.01-.3-.02-.46-.02-3.54,0-7.44,3.06-8.18,6.42l-.01.06c-.57,3.07,2.17,9.04,2.72,10.2l.03.07c1.27,2.37,3.11,6.5,3.11,7.85v.03l.01.03a3.44871,3.44871,0,0,1-2.89,3.19l-.06.01a.86116.86116,0,0,1-.16.01c-1.67,0-5.76-1.44-7.95-2.34l-.08-.03c-.22-.08-5.38-1.92-8.69-1.92a6.30093,6.30093,0,0,0-1.73.21l-.06.02c-3.42,1.11-6.16,5.68-5.53,9.22l.01.06c.65,3.05,5.46,7.52,6.42,8.39l.06.05c2.48,2.03,5.43,4.93,5.89,6.06l.03.06a3.46557,3.46557,0,0,1-1.45,4.06l-.06.03c-1.07.58-5.19.95-8.39.95h-.08c-1.29.06-7.84.47-10.28,2.41l-.05.04c-2.73,2.34-3.51,7.6-1.58,10.63l.03.05c1.77,2.57,7.92,4.86,9.14,5.29l.08.03c3.07.93,6.91,2.48,7.76,3.34l.05.05a3.47494,3.47494,0,0,1,.21,4.31l-.04.05c-.76.95-4.43,2.86-7.39,4.09l-.08.03c-1.17.55-7.07,3.43-8.57,6.16l-.03.05c-1.63,3.2-.34,8.37,2.61,10.43l.05.04c1.47.95,4.32,1.43,8.48,1.43,1.15,0,1.95-.04,1.98-.04l.08-.01c.02,0,2.45-.24,4.83-.24a10.45787,10.45787,0,0,1,3.62.36l.06.02a3.45674,3.45674,0,0,1,1.84,3.9l-.02.06c-.34,1.17-3,4.34-5.27,6.61l-.06.06c-.87.95-5.22,5.88-5.56,8.97l-.01.06c-.28,3.58,2.89,7.86,6.4,8.64l.06.01a5.85706,5.85706,0,0,0,.97.08c3.24,0,8.63-2.52,9.23-2.8l.07-.03c2.43-1.3,6.47-3.12,7.85-3.12h.03l.09-.01a3.4558,3.4558,0,0,1,3.14,2.89l.01.06c.13,1.21-1.11,5.16-2.34,8.12l-.03.08c-.44,1.21-2.57,7.42-1.71,10.42l.02.06c.99,3.05,4.72,5.62,8.14,5.62a6.38167,6.38167,0,0,0,1.08-.09l.06-.01c3.05-.65,7.52-5.46,8.39-6.42l.05-.06c1.71-2.08,4.81-5.38,6.06-5.89l.06-.03a2.49164,2.49164,0,0,1,1.05-.2,3.4787,3.4787,0,0,1,3.01,1.66l.03.06c.58,1.07.95,5.19.95,8.4v.08c.06,1.29.47,7.84,2.41,10.28l.04.05a8.72213,8.72213,0,0,0,6.53,2.66,7.56622,7.56622,0,0,0,4.1-1.08l.05-.03c2.57-1.77,4.86-7.92,5.29-9.14l.03-.08c.93-3.07,2.48-6.91,3.34-7.76l.05-.05a3.19763,3.19763,0,0,1,2.31-.86,3.11571,3.11571,0,0,1,2,.65l.05.04c.95.76,2.86,4.43,4.09,7.39l.03.08c.55,1.17,3.43,7.07,6.16,8.57l.05.03a7.28453,7.28453,0,0,0,3.27.72,8.96721,8.96721,0,0,0,7.16-3.33l.03-.05c1.7-2.61,1.46-9.18,1.39-10.47l-.01-.08c-.31-3.19-.36-7.33.12-8.45l.02-.06a3.52064,3.52064,0,0,1,3.13-1.96,2.3288,2.3288,0,0,1,.76.12l.06.02c1.17.34,4.34,3,6.61,5.26l.06.06c.95.87,5.88,5.22,8.97,5.56l.06.01c.15.01.31.02.46.02,3.54,0,7.43-3.06,8.17-6.42l.01-.06c.57-3.07-2.17-9.04-2.72-10.2l-.03-.07c-1.27-2.37-3.11-6.5-3.11-7.85v-.03l-.01-.03a3.44875,3.44875,0,0,1,2.89-3.19l.06-.01a.915.915,0,0,1,.17-.01c1.67,0,5.76,1.44,7.95,2.34l.08.03c.22.08,5.37,1.92,8.69,1.92a6.30075,6.30075,0,0,0,1.73-.21l.06-.02c3.42-1.11,6.16-5.68,5.53-9.22l-.01-.06c-.65-3.05-5.46-7.52-6.42-8.38l-.06-.05c-2.08-1.7-5.38-4.81-5.89-6.06l-.03-.06a3.461,3.461,0,0,1,1.45-4.06l.06-.03c1.07-.58,5.19-.95,8.4-.95h.08c1.29-.06,7.84-.47,10.28-2.41l.05-.04C247.80267,168.9,248.58267,163.63,246.65268,160.6Z"/><rect class="cls-4" x="71.48267" y="65" width="176.25" height="176.25"/><path class="cls-5" d="M230.77267,209.19a7.35955,7.35955,0,0,0-1.48.15,8.10149,8.10149,0,0,0-1.43.43,7.82968,7.82968,0,0,0-1.31.7,7.44235,7.44235,0,0,0-1.15.95,8.06355,8.06355,0,0,0-.95,1.15,7.50934,7.50934,0,0,0-1.13,2.74,8.16384,8.16384,0,0,0-.15,1.48,7.35922,7.35922,0,0,0,.15,1.48,8.10043,8.10043,0,0,0,.43,1.43,7.83,7.83,0,0,0,.7,1.31,7.443,7.443,0,0,0,.95,1.15,8.06286,8.06286,0,0,0,1.15.95,7.50864,7.50864,0,0,0,2.74,1.13,7.377,7.377,0,0,0,2.96,0,8.10174,8.10174,0,0,0,1.43-.43,7.46615,7.46615,0,0,0,2.46-1.65,8.063,8.063,0,0,0,.95-1.15,7.5091,7.5091,0,0,0,1.13-2.74,8.164,8.164,0,0,0,.15-1.48,7.35839,7.35839,0,0,0-.15-1.48,8.10028,8.10028,0,0,0-.43-1.43,7.46619,7.46619,0,0,0-1.65-2.46,8.06284,8.06284,0,0,0-1.15-.95,7.50907,7.50907,0,0,0-2.74-1.13A8.16328,8.16328,0,0,0,230.77267,209.19Z"/><path d="M41.16479,333.53613v6.6377H29.94849v30.85254H22.06372V340.17383H10.79614v-6.6377Z"/><path d="M57.70972,342.6543q.13989.01319.62353.03808v7.42676q-.687-.07617-1.22119-.10156-.53394-.0249-.86475-.02539-4.37475,0-5.87548,2.84863a11.09,11.09,0,0,0-.83887,4.93457v13.251H42.23315V343.30273h6.918v4.833a15.30616,15.30616,0,0,1,2.9253-3.79,7.96246,7.96246,0,0,1,5.29-1.7041C57.5022,342.6416,57.61646,342.64551,57.70972,342.6543Z"/><path d="M73.56128,354.16309a11.46025,11.46025,0,0,0,2.895-.63575,2.18011,2.18011,0,0,0,1.56348-2.06054,2.4361,2.4361,0,0,0-1.19922-2.35254,7.57394,7.57394,0,0,0-3.51905-.64844,4.62133,4.62133,0,0,0-3.687,1.27148,5.25091,5.25091,0,0,0-1.03125,2.54395H61.58862a10.60937,10.60937,0,0,1,2.044-5.97754q2.88575-3.66212,9.91113-3.66211a17.67251,17.67251,0,0,1,8.12354,1.80567q3.55,1.80615,3.55029,6.8164v12.71778q0,1.32274.05078,3.2041a4.02609,4.02609,0,0,0,.43262,1.93359,2.59205,2.59205,0,0,0,1.06836.83887v1.06836H78.88452a8.029,8.029,0,0,1-.458-1.57715q-.12744-.73682-.20361-1.67871a14.94374,14.94374,0,0,1-3.479,2.77246,10.51864,10.51864,0,0,1-5.32178,1.34863,9.18256,9.18256,0,0,1-6.25488-2.14941,7.64232,7.64232,0,0,1-2.46875-6.0918q0-5.1123,3.97168-7.40137a17.719,17.719,0,0,1,6.40576-1.78027Zm4.43262,3.38281a7.97816,7.97816,0,0,1-1.40528.69922,11.795,11.795,0,0,1-1.94677.49609l-1.64991.30567a10.83294,10.83294,0,0,0-3.332.99218,3.30964,3.30964,0,0,0-1.7124,3.07715,3.21535,3.21535,0,0,0,1.0459,2.68359,3.97738,3.97738,0,0,0,2.54394.82618,7.5798,7.5798,0,0,0,4.37744-1.37305q2.00172-1.374,2.07911-5.01074Z"/><path d="M108.13452,353.24805a6.43323,6.43323,0,0,0-1.04541-2.79785,4.388,4.388,0,0,0-3.79883-1.67872,5.00063,5.00063,0,0,0-5.02295,3.63672,15.10082,15.10082,0,0,0-.71386,5.125,13.88083,13.88083,0,0,0,.71386,4.89649,4.84817,4.84817,0,0,0,4.89551,3.459,4.31928,4.31928,0,0,0,3.62012-1.374,6.81991,6.81991,0,0,0,1.30029-3.56055h7.40186a12.123,12.123,0,0,1-2.39356,6.25684q-3.41235,4.75635-10.10742,4.75683-6.69581,0-9.853-3.96777a16.02734,16.02734,0,0,1-3.15722-10.28906q0-7.13379,3.48779-11.10156,3.4878-3.96826,9.62451-3.96778a14.50544,14.50544,0,0,1,8.54151,2.33985q3.32226,2.34081,3.93359,8.2666Z"/><path d="M120.44458,333.66309h7.12158V353.8877l9.14307-10.458h9.01416l-9.937,10.32812,10.32129,17.26856h-8.82178l-6.71729-11.84473-3.00244,3.12109v8.72364h-7.12158Z"/><path d="M153.657,337.45312a15.435,15.435,0,0,1,11.52442-4.62988q9.36034,0,13.68847,6.20606a13.52476,13.52476,0,0,1,2.56641,6.99511h-7.833a10.68611,10.68611,0,0,0-1.91894-4.06933q-2.09327-2.44189-6.20411-2.44238a7.6468,7.6468,0,0,0-6.60351,3.44628q-2.417,3.44679-2.4165,9.75489,0,6.30762,2.5498,9.44824a7.99122,7.99122,0,0,0,6.481,3.1416,7.33979,7.33979,0,0,0,6.1455-2.69629,11.8419,11.8419,0,0,0,1.94141-4.34961h7.78223a16.88445,16.88445,0,0,1-5.14551,9.97071,14.97673,14.97673,0,0,1-10.60547,3.84082q-8.00244,0-12.58154-5.18848-4.57983-5.21484-4.57959-14.29492Q148.448,342.76856,153.657,337.45312Z"/><path d="M216.56128,367.69434q-4.248,4.37549-12.28516,4.375-8.0376,0-12.28418-4.375-5.69823-5.36572-5.69726-15.46387,0-10.30079,5.69726-15.46485,4.24659-4.374,12.28418-4.374t12.28516,4.374q5.67188,5.16359,5.67187,15.46485Q222.23315,362.32763,216.56128,367.69434Zm-4.89649-5.69727q2.73488-3.43359,2.73438-9.7666,0-6.30762-2.73438-9.75391a8.93408,8.93408,0,0,0-7.38867-3.44726,9.056,9.056,0,0,0-7.42675,3.43359q-2.773,3.43506-2.77247,9.76758,0,6.33252,2.77247,9.7666a9.056,9.056,0,0,0,7.42675,3.43359A8.947,8.947,0,0,0,211.66479,361.99707Z"/><path d="M250.14819,333.53613h8.13868l-12.78125,37.49024h-7.40137l-12.67871-37.49024h8.36816l8.13867,28.46094Z"/><path d="M270.10132,371.02637h-7.7832V333.53613h7.7832Z"/><path d="M299.39429,334.34961a12.38575,12.38575,0,0,1,6.38867,4.75684,16.68605,16.68605,0,0,1,2.67285,6.05273,29.01505,29.01505,0,0,1,.71289,6.20605,24.89938,24.89938,0,0,1-3.00391,12.667q-4.07226,6.99462-12.57421,6.99414H277.42651V333.53613h16.16407A19.74384,19.74384,0,0,1,299.39429,334.34961ZM285.031,340.04688v24.46777h7.23535q5.55322,0,7.74414-5.46777a19.26706,19.26706,0,0,0,1.19726-7.14747q0-5.72314-1.79589-8.78711-1.79591-3.06591-7.14551-3.06542Z"/></svg>