<?xml version="1.0" encoding="utf-8"?>
<!-- Generator: Adobe Illustrator 22.1.0, SVG Export Plug-In . SVG Version: 6.00 Build 0)  -->
<svg version="1.1" id="UC_Davis_Health_with_gold" xmlns="http://www.w3.org/2000/svg" xmlns:xlink="http://www.w3.org/1999/xlink"
	 x="0px" y="0px" viewBox="0 0 197.6 86.5" style="enable-background:new 0 0 197.6 86.5;" xml:space="preserve">
<style type="text/css">
	.st0{fill:#1A3E68;}
	.st1{fill:#DAA900;}
</style>
<title>UCDavisHealth</title>
<g>
	<polygon class="st0" points="116.2,71.7 125.1,71.7 125.1,78.3 108.7,78.3 108.7,49.6 116.2,49.6 	"/>
	<polygon class="st0" points="41.4,60.7 41.4,49.6 48.8,49.6 48.8,78.3 41.4,78.3 41.4,66.5 30.6,66.5 30.6,78.3 23.1,78.3 
		23.1,49.6 30.6,49.6 30.6,60.7 	"/>
	<polygon class="st0" points="62.5,55.9 62.5,60.6 70.8,60.6 70.8,66.9 62.5,66.9 62.5,71.8 71.5,71.8 71.5,78.3 55,78.3 55,49.6 
		71.5,49.6 71.5,55.9 	"/>
	<path class="st0" d="M85,73.3l-1.9,5H75l10.8-28.7h8.7L105,78.3h-8l-1.8-5H85z M90.1,58L90.1,58l-3.2,9.6h6.3L90.1,58z"/>
	<polygon class="st0" points="138.6,78.3 131.1,78.3 131.1,55.9 124.9,55.9 124.9,49.6 144.8,49.6 144.8,55.9 138.6,55.9 	"/>
	<polygon class="st0" points="167.2,60.7 167.2,49.6 174.7,49.6 174.7,78.3 167.2,78.3 167.2,66.5 156.4,66.5 156.4,78.3 
		149.1,78.3 149.1,49.6 156.4,49.6 156.4,60.7 	"/>
	<path class="st1" d="M173.3,38.1l3.1-8.4l0.5,0.4c2,1.6,4.5,2.9,7,2.9c2.2,0.1,3.3-0.5,3-2.4c-0.2-1.4-1.8-1.7-2.8-1.9l-2.1-0.4
		c-4.2-0.8-7.7-3.4-7.7-8.4c0-7.5,6.4-11.7,12.9-11.7c3.4,0,6.5,0.9,9.4,2.8l-2.8,7.4c-1.5-1.1-3.7-2.6-6.7-2.7
		c-1,0-3.1,0.4-2.4,2.7c0.3,1,1.6,1.3,2.5,1.5l2.4,0.6c4.5,1.1,7.9,3.6,7.9,9c0,7.5-6.5,11.2-12.9,11.2
		C180.9,41,176.6,39.9,173.3,38.1"/>
	<rect x="159.9" y="9" class="st1" width="11" height="31.4"/>
	<polygon class="st1" points="147.5,9 158.8,9 147.3,40.5 138.1,40.5 126.6,9 137.8,9 142.6,28.1 	"/>
	<path class="st1" d="M99.9,40.5h11.5l0.9-3.9h8.2l1.1,3.9H133L122.4,9.1h-12L99.9,40.5z M116.3,18.1L116.3,18.1
		c0.2,1.3,2.1,10.9,2.1,10.9h-4.4L116.3,18.1z"/>
	<path class="st1" d="M82.7,31.5h0.7c3.6,0,6.3-2.1,6.3-6.3c0-4.4-2.4-6.9-6.4-6.9h-0.7L82.7,31.5L82.7,31.5z M71.6,9h11.3
		c10.1,0,17.8,4.6,17.8,16.2c0,9.3-6.3,15.3-15.1,15.3h-14V9z"/>
	<path class="st1" d="M65,10l0.6,5.2c0.2,1.2,0.8,4.2,0,3.7c-0.5-0.3-1-1.6-1.4-2.8c-0.3-0.6-1.3-3.5-1.6-3.6c-1.3-1-4.7-2.1-7-2.1
		c-6.9,0-11.5,5.1-11.5,14.2c0,6.5,3.1,14.3,11,14.3c2.8,0,8.3-0.9,9.8-4.9c0.6-1.9,1.2-3.5,1.7-2.9c0.4,0.4-0.1,1.9-0.3,2.6
		c-0.9,3.7-1,4.9-1.2,5.1c-3.6,1.8-8.2,2.4-12.2,2.4C40,41,35.6,33.6,35.6,26.1c0-12.9,7.9-18.4,20.3-17.8C59,8.4,62.1,8.9,65,10"/>
	<path class="st1" d="M27.2,10.6l-2-0.7c-0.7-0.6,0.2-0.8,0.2-0.8S28.3,9.7,35.7,9c0,0,0.6,0.1,0.2,0.6l-2.4,1.1
		c-1.5,0.7-1.5,0.3-1.5,2v16c0,12.5-12.7,12.3-15.2,12.3c-1.2,0-12.9,0-12.9-10.1V14c0-2.9,0.4-2.8-0.7-3.2L0.2,9.7
		c0,0-0.5-0.7,0.4-0.7C2.9,9,6.5,9.6,14.7,9c0,0,0.7,0.2,0.3,0.7l-2.5,0.7c-1.9,0.8-1.6,0.2-1.7,2.1l0.1,16.7c0,4.1,2.1,9.2,8.7,9.2
		c9.1,0,9.1-7.8,9.1-9.5V12.4C28.8,10.7,28.6,11.2,27.2,10.6"/>
</g>
</svg>
