<svg id="Layer_1" data-name="Layer 1" xmlns="http://www.w3.org/2000/svg" xmlns:xlink="http://www.w3.org/1999/xlink" viewBox="0 0 900 612.63384"><defs><style>.cls-1{fill:none;}.cls-2{clip-path:url(#clip-path);}.cls-3{fill:#012169;}.cls-4{fill:#fff;}.cls-5{clip-path:url(#clip-path-2);}.cls-6{fill:#c8102e;}</style><clipPath id="clip-path"><rect class="cls-1" y="-0.45235" width="900" height="450"/></clipPath><clipPath id="clip-path-2"><polygon class="cls-1" points="450 224.548 900 224.548 900 449.548 450 449.548 0 449.548 0 224.548 0 -0.452 450 -0.452 900 -0.452 450 224.548"/></clipPath></defs><g class="cls-2"><path class="cls-3" d="M0-.45235v450H900v-450Z"/><path d="M0-.45235l900,450m0-450-900,450"/><polygon class="cls-4" points="873.167 503.213 450 291.63 26.833 503.213 -26.833 395.883 315.836 224.548 -26.833 53.213 26.833 -54.117 450 157.466 873.167 -54.117 926.833 53.213 584.164 224.548 926.833 395.883 873.167 503.213"/><g class="cls-5"><path d="M0-.45235l900,450m0-450-900,450"/><polygon class="cls-6" points="882.112 485.325 450 269.269 17.887 485.325 -17.888 413.77 360.557 224.548 -17.888 35.325 17.887 -36.23 450 179.826 882.112 -36.23 917.887 35.325 539.442 224.548 917.887 413.77 882.112 485.325"/></g><path d="M450-.45235v450m-450-225H900"/><polygon class="cls-4" points="550 449.548 350 449.548 350 324.548 0 324.548 0 124.548 350 124.548 350 -0.452 550 -0.452 550 124.548 900 124.548 900 324.548 550 324.548 550 449.548"/><path d="M450-.45235v450m-450-225H900"/><polygon class="cls-6" points="510 449.548 390 449.548 390 284.548 0 284.548 0 164.548 390 164.548 390 -0.452 510 -0.452 510 164.548 900 164.548 900 284.548 510 284.548 510 449.548"/></g><path d="M8.35221,510.24983H17.488v26.4248a14.95452,14.95452,0,0,0,1.04785,6.47461q1.62744,3.6167,7.09668,3.61719,5.439,0,7.06739-3.61719a14.97192,14.97192,0,0,0,1.04687-6.47461v-26.4248h9.13672v26.44629q0,6.85839-2.12793,10.68261-3.9624,7.00635-15.123,7.00586-11.16065,0-15.15332-7.00586-2.127-3.82325-2.127-10.68261Z"/><path d="M75.01334,523.283q3.12452,2.584,3.125,8.56738v21.42481H69.61491V533.92268a8.89072,8.89072,0,0,0-.666-3.85352q-1.21875-2.45069-4.63672-2.45117a5.74556,5.74556,0,0,0-5.76562,3.58984,12.41308,12.41308,0,0,0-.81153,4.84571v17.22168H49.41569V521.5174h8.05664V526.158a14.09041,14.09041,0,0,1,3.02246-3.53125A10.47021,10.47021,0,0,1,66.97721,520.7,12.19677,12.19677,0,0,1,75.01334,523.283Z"/><path d="M92.93131,517.66389H84.49576v-7.67676h8.43555Zm-8.43555,3.79492h8.43555v31.81641H84.49576Z"/><path d="M96.22428,527.67658V521.7508h4.43652v-8.874h8.23145v8.874h5.166v5.92578h-5.166v16.8125a3.78661,3.78661,0,0,0,.49609,2.4375q.49659.48194,3.03614.48145.37792,0,.80273-.01465.42188-.01464.83105-.04394v6.21777l-3.94042.14551q-5.896.20508-8.05567-2.043a6.08054,6.08054,0,0,1-1.40137-4.40723V527.67658Z"/><path d="M138.63834,522.10334a12.94921,12.94921,0,0,1,5.49805,4.707,15.63327,15.63327,0,0,1,2.53418,6.57715,40.57086,40.57086,0,0,1,.27441,6.31446H123.77213q.19336,4.7871,3.32715,6.71386a8.45188,8.45188,0,0,0,4.58691,1.19629,6.45865,6.45865,0,0,0,6.33106-3.64844h8.49414a10.38678,10.38678,0,0,1-3.085,5.75q-4.27442,4.64209-11.96973,4.64161a17.34134,17.34134,0,0,1-11.207-3.915q-4.85449-3.91407-4.85449-12.73731,0-8.26758,4.38281-12.67871a15.338,15.338,0,0,1,11.37793-4.41211A18.11188,18.11188,0,0,1,138.63834,522.10334ZM126.193,529.28987a8.65028,8.65028,0,0,0-2.2168,4.9248h14.332a6.94159,6.94159,0,0,0-2.21582-5.02734,7.2891,7.2891,0,0,0-4.93359-1.71582A6.59593,6.59593,0,0,0,126.193,529.28987Z"/><path d="M166.52994,521.96955a10.10807,10.10807,0,0,1,3.64844,3.51758V510.30842h8.43555v42.9668h-8.085V548.868a11.74005,11.74005,0,0,1-4.05762,4.11524,11.38768,11.38768,0,0,1-5.66309,1.28417,11.82069,11.82069,0,0,1-9.38378-4.50976q-3.81006-4.50879-3.80957-11.57324,0-8.14453,3.751-12.81446A12.20253,12.20253,0,0,1,161.39225,520.7,10.26208,10.26208,0,0,1,166.52994,521.96955Zm2.043,22.666a11.61114,11.61114,0,0,0,1.83887-6.80176q0-5.8374-2.94824-8.34766a6.347,6.347,0,0,0-4.20313-1.51855,5.84381,5.84381,0,0,0-5.35644,2.75879,14.87641,14.87641,0,0,0,.02929,13.89453,5.87559,5.87559,0,0,0,5.26856,2.6416A6.14294,6.14294,0,0,0,168.57291,544.63557Z"/><path d="M200.611,510.24983h8.84473v17.72754l16.623-17.72754H237.696l-17.65625,17.69531,18.56152,25.33008H227.04166L213.7858,534.494l-4.33007,4.39062v14.39063H200.611Z"/><path d="M250.02213,517.66389h-8.43554v-7.67676h8.43554Zm-8.43554,3.79492h8.43554v31.81641h-8.43554Z"/><path d="M282.23991,523.283q3.1245,2.584,3.125,8.56738v21.42481h-8.52344V533.92268a8.89072,8.89072,0,0,0-.666-3.85352q-1.21875-2.45069-4.63672-2.45117a5.74557,5.74557,0,0,0-5.76562,3.58984,12.41309,12.41309,0,0,0-.81152,4.84571v17.22168h-8.31934V521.5174h8.05664V526.158a14.09041,14.09041,0,0,1,3.02246-3.53125A10.47021,10.47021,0,0,1,274.20377,520.7,12.19679,12.19679,0,0,1,282.23991,523.283Z"/><path d="M307.34537,521.42951a9.995,9.995,0,0,1,4.89747,4.61231v-4.583h8.11425v30.18164q0,6.1582-2.07226,9.28223-3.5625,5.37012-13.66114,5.37109a18.611,18.611,0,0,1-9.95312-2.39355,8.82932,8.82932,0,0,1-4.26172-7.15137h9.04883a3.74809,3.74809,0,0,0,1.13769,2.10156q1.34326,1.13819,4.52442,1.13867,4.4956,0,6.01367-3.00683.9917-1.92627.99219-6.48047v-2.043a10.15979,10.15979,0,0,1-2.56836,3.06543,10.33164,10.33164,0,0,1-6.45117,1.89649,12.20572,12.20572,0,0,1-9.793-4.30469q-3.66358-4.30518-3.66309-11.66114a19.67274,19.67274,0,0,1,3.52735-11.92382,11.64832,11.64832,0,0,1,9.999-4.83106A10.94031,10.94031,0,0,1,307.34537,521.42951Zm2.833,22.81153q2.00538-2.20312,2.00586-7.01953,0-4.52492-1.9043-6.88868a6.21105,6.21105,0,0,0-5.10058-2.36523,6.0127,6.0127,0,0,0-6.01758,4.11621,14.6569,14.6569,0,0,0-.87207,5.40039,12.36356,12.36356,0,0,0,.92969,4.93262,6.06325,6.06325,0,0,0,6.04687,4.02832A6.38788,6.38788,0,0,0,310.17838,544.241Z"/><path d="M343.49869,521.96955a10.10807,10.10807,0,0,1,3.64844,3.51758V510.30842h8.43555v42.9668h-8.085V548.868a11.74005,11.74005,0,0,1-4.05762,4.11524,11.38768,11.38768,0,0,1-5.66309,1.28417,11.82069,11.82069,0,0,1-9.38378-4.50976q-3.81006-4.50879-3.80957-11.57324,0-8.14453,3.751-12.81446A12.20253,12.20253,0,0,1,338.361,520.7,10.26208,10.26208,0,0,1,343.49869,521.96955Zm2.043,22.666a11.61114,11.61114,0,0,0,1.83887-6.80176q0-5.8374-2.94824-8.34766a6.347,6.347,0,0,0-4.20313-1.51855,5.84381,5.84381,0,0,0-5.35644,2.75879,14.87641,14.87641,0,0,0,.02929,13.89453,5.87559,5.87559,0,0,0,5.26856,2.6416A6.14294,6.14294,0,0,0,345.54166,544.63557Z"/><path d="M388.18131,549.38264q-4.02832,4.97314-12.23047,4.97266-8.20166,0-12.22949-4.97266a19.73806,19.73806,0,0,1,0-23.89941q4.02686-5.04639,12.22949-5.0459,8.20313,0,12.23047,5.0459a19.73806,19.73806,0,0,1,0,23.89941ZM381.526,544.785q1.95556-2.59424,1.95605-7.374,0-4.77978-1.95605-7.35938a7.392,7.392,0,0,0-11.22266,0q-1.97021,2.5796-1.9707,7.35938,0,4.77978,1.9707,7.374a7.36666,7.36666,0,0,0,11.22266,0Z"/><path d="M436.36784,521.576a9.25283,9.25283,0,0,1,3.707,2.86035,9.15137,9.15137,0,0,1,1.80957,4.08594,28.28362,28.28362,0,0,1,.292,4.70019l-.05859,20.05274H433.5944V533.0174a6.64024,6.64024,0,0,0-.584-2.97656,4.14673,4.14673,0,0,0-4.08593-2.21875,4.78128,4.78128,0,0,0-4.75782,2.86035,8.97522,8.97522,0,0,0-.67187,3.64844v18.94434h-8.377V534.33088a10.64975,10.64975,0,0,0-.584-4.11523q-1.05028-2.30566-4.11523-2.30567-3.5625,0-4.78711,2.30567a8.87519,8.87519,0,0,0-.67188,3.91113v19.14844h-8.43554V521.5174h8.085V526.158a13.398,13.398,0,0,1,2.91894-3.53125,11.55071,11.55071,0,0,1,12.17285-.2627,9.34167,9.34167,0,0,1,2.74317,3.82325,10.57258,10.57258,0,0,1,4.05761-4.11524,12.37448,12.37448,0,0,1,5.72071-1.31347A11.0764,11.0764,0,0,1,436.36784,521.576Z"/><path d="M465.57389,521.10823a62.58789,62.58789,0,0,1,6.74316-11.5586h6.27539l-1.78027,3.26953a48.66024,48.66024,0,0,0-5.1084,14.127,55.86833,55.86833,0,0,0-.93359,10.5664,49.90765,49.90765,0,0,0,2.59766,16.4336,74.9047,74.9047,0,0,0,5.37109,11.38476h-6.15918l-2.07227-2.832a37.90907,37.90907,0,0,1-4.291-7.64746,43.5532,43.5532,0,0,1-4.05762-17.86426A39.63341,39.63341,0,0,1,465.57389,521.10823Z"/><path d="M482.38151,510.24983h9.42578l17.07812,30.001v-30.001h8.37793v43.02539h-8.98828L490.75944,522.7469v30.52832h-8.37793Z"/><path d="M524.14616,553.27522V510.24983h8.93164v16.40429h16.72558V510.24983H558.736v43.02539h-8.93262v-19.207H533.0778v19.207Z"/><path d="M572.361,539.994a8.725,8.725,0,0,0,1.63965,4.40722q2.23535,2.65723,7.65918,2.65625a16.4863,16.4863,0,0,0,5.27539-.70019q3.84521-1.3418,3.84472-4.99121a3.68037,3.68037,0,0,0-1.88281-3.29883,20.46185,20.46185,0,0,0-5.97461-2.01367l-4.65722-1.02149q-6.8672-1.51758-9.43555-3.29882-4.35059-2.97657-4.34961-9.31153a12.36385,12.36385,0,0,1,4.25488-9.60254q4.25538-3.8247,12.499-3.82422a19.17305,19.17305,0,0,1,11.74609,3.6045q4.86034,3.60644,5.09668,10.46484h-8.63965a6.15735,6.15735,0,0,0-3.47168-5.5166A11.89167,11.89167,0,0,0,580.61,516.4676a10.20136,10.20136,0,0,0-5.68652,1.40039,4.43507,4.43507,0,0,0-2.124,3.91211,3.69,3.69,0,0,0,2.09472,3.44434,26.02055,26.02055,0,0,0,5.71582,1.78027l7.55078,1.78027a19.22335,19.22335,0,0,1,7.44141,3.124q3.84668,3.03515,3.84668,8.78515a12.3469,12.3469,0,0,1-4.55859,9.79395q-4.55861,3.89648-12.87793,3.89648-8.49611,0-13.36524-3.83886a12.699,12.699,0,0,1-4.86719-10.55176Z"/><path d="M623.48307,514.74494a17.71671,17.71671,0,0,1,13.22656-5.3125q10.7417,0,15.709,7.12207a15.52349,15.52349,0,0,1,2.94531,8.02735h-8.99024a12.25808,12.25808,0,0,0-2.20214-4.66992q-2.40236-2.80225-7.12012-2.80274a8.77616,8.77616,0,0,0-7.57813,3.95508q-2.77294,3.95655-2.77343,11.19434,0,7.23926,2.92675,10.84375a9.16978,9.16978,0,0,0,7.4375,3.60546,8.4265,8.4265,0,0,0,7.05372-3.09472,13.58186,13.58186,0,0,0,2.22656-4.99121H655.276a19.37453,19.37453,0,0,1-5.90528,11.44238,17.18608,17.18608,0,0,1-12.17089,4.40723q-9.1831,0-14.43946-5.95411-5.2544-5.98387-5.25488-16.40429Q617.50553,520.84553,623.48307,514.74494Z"/><path d="M694.18034,549.451q-4.875,5.02147-14.09864,5.02051-9.22411,0-14.09863-5.02051-6.53907-6.1582-6.53809-17.74707,0-11.82129,6.53809-17.74707,4.875-5.02,14.09863-5.02051,9.22413,0,14.09864,5.02051,6.50829,5.92676,6.50878,17.74707Q700.68912,543.2923,694.18034,549.451Zm-5.61915-6.53809q3.1377-3.94043,3.1377-11.209,0-7.2378-3.1377-11.19336a10.25485,10.25485,0,0,0-8.47949-3.95606,10.3911,10.3911,0,0,0-8.52344,3.94141q-3.18163,3.94043-3.18164,11.208,0,7.26855,3.18164,11.209a10.393,10.393,0,0,0,8.52344,3.94043A10.26885,10.26885,0,0,0,688.56119,542.91291Z"/><path d="M731.23014,510.24983H740.571L725.902,553.27522h-8.49316l-14.55078-43.02539h9.60352l9.33984,32.66308Z"/><path d="M752.63541,553.27522h-8.93164V510.24983h8.93164Z"/><path d="M784.75748,511.1844a14.21584,14.21584,0,0,1,7.333,5.458,19.1572,19.1572,0,0,1,3.06738,6.94727,33.35082,33.35082,0,0,1,.81739,7.12207,28.57888,28.57888,0,0,1-3.44629,14.53613q-4.67431,8.02735-14.43164,8.02735H759.54752V510.24983h18.54981A22.63924,22.63924,0,0,1,784.75748,511.1844Zm-16.48242,6.53808v28.08008h8.30274q6.37353,0,8.88769-6.27539a22.10246,22.10246,0,0,0,1.374-8.20215q0-6.56835-2.06152-10.085-2.061-3.5171-8.20019-3.51758Z"/><path d="M798.04166,532.6678h16.28711v7.88085H798.04166Z"/><path d="M819.22721,524.08576v-5.66308a36.50134,36.50134,0,0,0,5.50293-.52539,7.74972,7.74972,0,0,0,4.07617-2.21778,7.30357,7.30357,0,0,0,1.63086-3.03613,6.96718,6.96718,0,0,0,.32031-1.69238h6.94727v42.32422h-8.52344V524.08576Z"/><path d="M852.54069,514.81819a13.29873,13.29873,0,0,1,10.20215-4.21778q9.66063,0,13.25195,8.55274,2.04345,4.8457,2.043,12.75586a36.31718,36.31718,0,0,1-1.95508,12.81347q-3.73681,9.7793-13.71973,9.77832a13.98709,13.98709,0,0,1-8.55176-2.8164,11.10107,11.10107,0,0,1-4.3496-8.2168h8.29a5.00738,5.00738,0,0,0,1.57618,3.03613,4.88115,4.88115,0,0,0,3.415,1.167q4.11621,0,5.77929-4.55372a26.56839,26.56839,0,0,0,1.13867-7.32617,8.997,8.997,0,0,1-2.42285,2.18946,10.99963,10.99963,0,0,1-5.75,1.40039,13.07517,13.07517,0,0,1-8.96094-3.48731q-3.91259-3.48779-3.9121-10.05664Q848.61491,519.03694,852.54069,514.81819ZM866.53776,531.617q2.83008-1.81055,2.83105-6.27636a8.8687,8.8687,0,0,0-1.67871-5.69141,5.5633,5.5633,0,0,0-4.59668-2.10156A5.71358,5.71358,0,0,0,859.444,518.744q-2.39357,1.86913-2.39356,6.334,0,3.76611,1.53321,5.64844a5.7211,5.7211,0,0,0,4.71386,1.88281A5.82424,5.82424,0,0,0,866.53776,531.617Z"/><path d="M892.34147,521.10823a39.69136,39.69136,0,0,1,3.40918,15.8789,43.61814,43.61814,0,0,1-4.04981,17.86426,37.99062,37.99062,0,0,1-4.2832,7.64746l-2.06934,2.832h-6.14746a75.12506,75.12506,0,0,0,5.35059-11.38476,50.08819,50.08819,0,0,0,2.58887-16.4336,56.11934,56.11934,0,0,0-.93067-10.5664,48.78652,48.78652,0,0,0-5.08984-14.127l-1.77344-3.26953H885.611A62.63048,62.63048,0,0,1,892.34147,521.10823Z"/></svg>