<svg xmlns="http://www.w3.org/2000/svg" role="img" viewBox="-23.88 -23.88 981.76 746.76"><path fill="#fff" d="m-5-5h945v630h-945z"/><g fill="#0038a8"><path d="M5-3h17v2h-17zM5 1h17v2h-17zM-5 5h27v2h-27zM-5 9h27v2h-27z" transform="matrix(35 0 0 35 170 170)"/></g><g transform="translate(234.285 -392.52) scale(3.77953)"><g stroke="#7b3f00" stroke-miterlimit="20"><g fill="#fcd116"><path stroke-linecap="square" stroke-width=".611" d="m-19.10564 157.88802 3.065521 4.57751c-12.596494 9.11582-4.906177 14.5064-13.832833 17.42431 5.55205-5.41829-.733866-6.25397 3.94396-17.54724"/><g stroke-width=".6"><path stroke-linecap="square" d="m1.5 9 4.5 3c-8 13 1 15-6 21 3-7-3.0115852-5.58123-3.0115852-17.58123" transform="rotate(67.5 -119.878 61.69) scale(1.01865)"/><path fill="#7b3f00" stroke-linecap="square" stroke-width=".273" d="m1.501 9-1.304 2.03.1.015c-.99 6.447.12 10.63.933 13.883.406 1.627.745 3.026.687 4.367a5.658 5.658 0 0 1 -.71 2.538c4.649-5.153-2.663-7.713 4.795-19.833z" transform="rotate(67.5 -119.878 61.69) scale(1.01865)"/><path fill="none" d="m0 11c-2 13 4.5 17 0 22" transform="rotate(67.5 -119.878 61.69) scale(1.01865)"/></g><path stroke-width=".611" d="m-17.008929 148.83334-4.321748-4.32175-19.447867 28.09136 28.091363-19.44786-4.321748-4.32175-23.769615 23.76961"/><g stroke-width=".6"><g><g><path stroke-linecap="square" d="m1.5 9 4.5 3c-8 13 1 15-6 21 3-7-3.0251906-5.447386-3.0251906-17.447386" transform="rotate(112.5 -58.228 68.734) scale(1.01864)"/><path fill="#7b3f00" stroke-linecap="square" stroke-width=".273" d="m1.501 9-1.304 2.03.1.015c-.99 6.447.12 10.63.933 13.883.406 1.627.745 3.026.687 4.367a5.658 5.658 0 0 1 -.71 2.538c4.649-5.153-2.663-7.713 4.795-19.833z" transform="rotate(112.5 -58.228 68.734) scale(1.01864)"/><path fill="none" d="m0 11c-2 13 4.5 17 0 22" transform="rotate(112.5 -58.228 68.734) scale(1.01864)"/></g><path d="m0 0h-6l6 33 6-33h-6v33" transform="rotate(90 -82.921 65.912) scale(1.01865)"/><path fill="#7b3f00" stroke="none" d="m0 0h6-6v33l6-33" transform="rotate(90 -82.921 65.912) scale(1.01865)"/></g><g><g><path stroke-linecap="square" d="m1.5 9 4.5 3c-8 13 1 15-6 21 3-7-3.0161458-6.242258-3.0161458-18.242258" transform="rotate(157.5 -23.307 72.725) scale(1.01864)"/><path fill="#7b3f00" stroke-linecap="square" stroke-width=".273" d="m1.501 9-1.304 2.03.1.015c-.99 6.447.12 10.63.933 13.883.406 1.627.745 3.026.687 4.367a5.658 5.658 0 0 1 -.71 2.538c4.649-5.153-2.663-7.713 4.795-19.833z" transform="rotate(157.5 -23.307 72.725) scale(1.01864)"/><path fill="none" d="m0 11c-2 13 4.5 17 0 22" transform="rotate(157.5 -23.307 72.725) scale(1.01864)"/></g><path d="m0 0h-6l6 33 6-33h-6v33" transform="rotate(135 -39.33 70.897) scale(1.0187)"/><path fill="#7b3f00" stroke="none" d="m0 0h6-6v33l6-33" transform="rotate(135 -39.33 70.897) scale(1.0187)"/></g><g><g><path stroke-linecap="square" d="m1.5 9 4.5 3c-8 13 1 15-6 21 3-7-3.0076994-5.460989-3.0076994-17.460989" transform="rotate(-157.5 6.298 76.108) scale(1.01864)"/><path fill="#7b3f00" stroke-linecap="square" stroke-width=".273" d="m1.501 9-1.304 2.03.1.015c-.99 6.447.12 10.63.933 13.883.406 1.627.745 3.026.687 4.367a5.658 5.658 0 0 1 -.71 2.538c4.649-5.153-2.663-7.713 4.795-19.833z" transform="rotate(-157.5 6.298 76.108) scale(1.01864)"/><path fill="none" d="m0 11c-2 13 4.5 17 0 22" transform="rotate(-157.5 6.298 76.108) scale(1.01864)"/></g><path d="m0 0h-6l6 33 6-33h-6v33" transform="rotate(180 -8.505 74.416) scale(1.01865)"/><path fill="#7b3f00" stroke="none" d="m0 0h6-6v33l6-33" transform="rotate(180 -8.505 74.416) scale(1.01865)"/><g><g><path stroke-linecap="square" d="m1.5 9 4.5 3c-8 13 1 15-6 21 3-7-2.9510984-5.792844-2.9510984-17.792844" transform="rotate(-112.5 41.22 80.1) scale(1.01865)"/><path fill="#7b3f00" stroke-linecap="square" stroke-width=".273" d="m1.501 9-1.304 2.03.1.015c-.99 6.447.12 10.63.933 13.883.406 1.627.745 3.026.687 4.367a5.658 5.658 0 0 1 -.71 2.538c4.649-5.153-2.663-7.713 4.795-19.833z" transform="rotate(-112.5 41.22 80.1) scale(1.01865)"/><path fill="none" d="m0 11c-2 13 4.5 17 0 22" transform="rotate(-112.5 41.22 80.1) scale(1.01865)"/></g><path d="m0 0h-6l6 33 6-33h-6v33" transform="rotate(-135 22.32 77.942) scale(1.0187)"/><path fill="#7b3f00" stroke="none" d="m0 0h6-6v33l6-33" transform="rotate(-135 22.32 77.942) scale(1.0187)"/></g></g><g><g><path stroke-linecap="square" d="m1.5 9 4.5 3c-8 13 1 15-6 21 3-7-3.0167764-5.588488-3.0167764-17.588488" transform="rotate(-67.5 102.868 87.146) scale(1.01865)"/><path fill="#7b3f00" stroke-linecap="square" stroke-width=".273" d="m1.501 9-1.304 2.03.1.015c-.99 6.447.12 10.63.933 13.883.406 1.627.745 3.026.687 4.367a5.658 5.658 0 0 1 -.71 2.538c4.649-5.153-2.663-7.713 4.795-19.833z" transform="rotate(-67.5 102.868 87.146) scale(1.01865)"/><path fill="none" d="m0 11c-2 13 4.5 17 0 22" transform="rotate(-67.5 102.868 87.146) scale(1.01865)"/></g><path d="m0 0h-6l6 33 6-33h-6v33" transform="rotate(-90 65.912 82.921) scale(1.01865)"/><path fill="#7b3f00" stroke="none" d="m0 0h6-6v33l6-33" transform="rotate(-90 65.912 82.921) scale(1.01865)"/></g><g><g><path stroke-linecap="square" d="m1.5 9 4.5 3c-8 13 1 15-6 21 3-7-2.9819012-5.660259-2.9819012-17.660259" transform="rotate(-22.5 365.61 117.17) scale(1.01864)"/><path fill="#7b3f00" stroke-linecap="square" stroke-width=".273" d="m1.501 9-1.304 2.03.1.015c-.99 6.447.12 10.63.933 13.883.406 1.627.745 3.026.687 4.367a5.658 5.658 0 0 1 -.71 2.538c4.649-5.153-2.663-7.713 4.795-19.833z" transform="rotate(-22.5 365.61 117.17) scale(1.01864)"/><path fill="none" d="m0 11c-2 13 4.5 17 0 22" transform="rotate(-22.5 365.61 117.17) scale(1.01864)"/></g><path d="m0 0h-6l6 33 6-33h-6v33" transform="rotate(-45 171.154 94.948) scale(1.01865)"/><path fill="#7b3f00" stroke="none" d="m0 0h6-6v33l6-33" transform="rotate(-45 171.154 94.948) scale(1.01865)"/></g></g></g><path fill="#7b3f00" stroke-linecap="square" stroke-width=".278" d="m-19.104699 157.88841-2.018534 1.40212.08826.0531c-3.444857 5.68139-4.030842 10.05074-4.533803 13.42908-.252147 1.68944-.478468 3.1382-1.0558 4.37761a5.763498 5.763498 0 0 1 -1.657545 2.11176c6.383938-3.03725.500508-8.29684 12.243881-16.79578z"/><g stroke-width=".611"><path fill="none" d="m-21.296937 159.18551c-6.949857 11.45474-2.391943 17.75298-8.576015 20.70433"/><path fill="#fcd116" d="m-17.008929 148.83334h-6.111875l6.111875 33.61531 6.111875-33.61531h-6.111875v33.61531"/></g></g><path fill="#7b3f00" d="m-17.008929 148.83334h6.111875-6.111875v33.61531l6.111875-33.61531"/><path fill="#7b3f00" d="m-17.008929 148.83334 4.321748 4.32175-4.321748-4.32175-23.769615 23.76961 28.091363-19.44786"/><circle cx="-17.009" cy="148.833" r="11.205" fill="#fcd116" stroke="#7b3f00" stroke-miterlimit="20" stroke-width=".611"/><g fill="#7b3f00"><path d="m-8.757898 144.3513c-.7130521.81492-1.1205104-.61119-3.667125-.61119-2.546614 0-2.954073 1.52797-3.361531 1.22238-.407458-.3056 2.139156-2.13916 2.954073-2.24102.814916-.10187 3.1578018.71305 4.074583 1.62983m-2.954073.91678c.713052.61119.101865 1.93543-.611187 1.93543s-2.037292-1.22238-1.426104-2.03729"/><path d="M-15.073502 146.18486c.101865-1.22237 1.12051-1.4261 2.750344-1.4261 1.629833 0 2.342885 1.22237 2.9540725 1.52797-.7130525 0-1.3242395-1.01865-2.9540725-1.01865-1.629834 0-1.629834 0-2.750344 1.01865m.305594.20372c.407458-.61118.916781.61119 2.037291.61119 1.120511 0 1.731698-.30559 2.44475-.81491.7130523-.50933-1.018646 1.22237-2.139156 1.22237s-2.648479-.61119-2.342885-1.01865M-22.713491 145.16638c-.509323.20373-1.324239 1.22223 0 1.93528-1.018646-.71305-.203729-1.73155 0-1.93528z"/><path d="M-11.304367 145.16638c.203729.20373 1.018646 1.22223 0 1.93528 1.3242394-.71305.509323-1.73155 0-1.93528zM-18.638805 149.54648c-.916781.20372-.611351 1.52801-1.426268 1.62987-.814916.10187-1.222211 1.0186-1.120346.91674.509323-.40746 1.629897-.71313 2.444813-.71313.814917 0 1.018625.50952 1.731677.50952s.91676-.50952 1.731677-.50952c.814916 0 1.93549.30567 2.444813.71313.101865.10186-.30543-.81487-1.120346-.91674-.814917-.10186-.509487-1.42615-1.426268-1.62987 0 .40745.305345.30555.407209.91674 0 .50932-.916617.50932-1.120346 0 .203729.81491-.407416.81493-.916739.81493s-1.120468-.00002-.916739-.81493c-.203729.50932-1.120346.50932-1.120346 0 .101864-.61119.407209-.50929.407209-.91674zM-21.796749 153.00983c-.814917.61119-1.018482.91682-1.120347 1.62987.244322-.42756.36431-.60327.549839-.85472-.0491-.0211-.09131-.0405-.142111-.062.0593.007.112419.0163.169498.0243.123195-.1664.232648-.31052.543121-.73742z"/><path d="m-22.33987 153.74725c-.0029.004-.01005.0137-.01291.0176.127347.0296.26244.0434.404112.0439-.124442-.022-.255239-.0425-.391192-.0615z"/><path d="M-21.948678 153.80875c.635232.11214 1.133961.2583 1.591116.40617.570162-.0422 1.356604-.18655 3.348633-.18655s2.778471.14436 3.348633.18655c.457155-.14787.955884-.29403 1.591116-.40617-1.122478.004-2.618591-.79892-3.309873-.79892-.814917 0-1.018689.20361-1.629876.20361s-.814959-.20361-1.629876-.20361c-.691282 0-2.187395.80298-3.309873.79892zM-12.06918 153.80875c.141672-.00053.276765-.0143.404112-.0439-.0029-.004-.01-.0136-.01291-.0176-.135953.019-.26675.0395-.391192.0615z"/><path d="m-11.677988 153.74725c.05708-.008.110196-.0169.169498-.0243-.0508.0215-.09301.0409-.142111.062.185529.25145.305517.42716.549839.85472-.101865-.71305-.30543-1.01868-1.120347-1.62987.310473.4269.419926.57102.543121.73742z"/><path d="M-11.650601 153.78498c-.0011-.002-.004-.006-.0052-.007-1.063112.40958-1.437402.47916-2.004528.43718-.965814.31241-1.761951.62839-3.348633.62839s-2.382819-.31598-3.348633-.62839c-.567126.042-.941416-.0276-2.004528-.43718-.0011.002-.004.006-.0052.007 3.200048 1.37735 2.8502 1.87327 5.358328 1.87327s2.15828-.49592 5.358328-1.87327zM-22.36209 153.77774c.0021-.003.0072-.0101.0093-.0129-.0531-.0123-.10655-.0236-.156578-.0419.05815.0228.09302.0339.147278.0548zM-11.655768 153.77774c.05426-.0209.08913-.032.147278-.0548-.05003.0182-.103476.0295-.156578.0418.0021.003.0072.0101.0093.0129z"/><g><path d="m81-44c-7 8-11-6-36-6s-29 15-33 12 21-21 29-22 31 7 40 16m-29 9c7 6 1 19-6 19s-20-12-14-20" transform="matrix(-.10186 0 0 .10186 -17.009 148.833)"/><path d="m19-26c1-12 11-14 27-14s23 12 29 15c-7 0-13-10-29-10s-16 0-27 10m3 2c4-6 9 6 20 6s17-3 24-8-10 12-21 12-26-6-23-10" transform="matrix(-.10186 0 0 .10186 -17.009 148.833)"/></g><path d="m-17.008929 156.57505c-.509323 0-1.833562.30559 0 .30559s.509323-.30559 0-.30559"/></g></g><path d="M5.48 3.62L5.48 35.47C5.48 40.98 6.34 45.27 8.05 48.34C11.26 53.96 17.36 56.78 26.33 56.78C35.31 56.78 41.39 53.96 44.58 48.34C46.29 45.27 47.14 40.98 47.14 35.47L47.14 3.62L36.14 3.62L36.14 35.47C36.14 39.04 35.72 41.64 34.88 43.28C33.56 46.18 30.71 47.64 26.33 47.64C21.93 47.64 19.07 46.18 17.75 43.28C16.91 41.64 16.49 39.04 16.49 35.47L16.49 3.62ZM26.33 3.62ZM77.96 16.22C77.83 16.21 77.67 16.21 77.48 16.21C74.48 16.21 72.05 16.99 70.17 18.56C69.02 19.50 67.68 21.25 66.13 23.80L66.13 17.12L56.57 17.12L56.57 55.44L66.66 55.44L66.66 37.13C66.66 34.05 67.04 31.78 67.82 30.30C69.20 27.68 71.91 26.37 75.94 26.37C76.24 26.37 76.64 26.38 77.13 26.40C77.63 26.43 78.19 26.47 78.82 26.54L78.82 16.28C78.37 16.25 78.09 16.24 77.96 16.22ZM94.68 17.12L84.41 17.12L84.41 40.22C84.41 44.60 84.96 47.92 86.06 50.17C88.03 54.25 91.85 56.29 97.52 56.29C99.49 56.29 101.21 56.03 102.67 55.51C104.14 55.00 105.66 54.04 107.23 52.63C107.74 52.18 108.19 51.67 108.56 51.08C108.94 50.50 109.17 50.14 109.27 50.03L109.27 55.44L119.00 55.44L119.00 17.12L108.84 17.12L108.84 37.97C108.84 40.43 108.52 42.41 107.86 43.91C106.59 46.68 104.25 48.06 100.83 48.06C98.16 48.06 96.36 47.09 95.45 45.14C94.93 44.04 94.68 42.40 94.68 40.22ZM101.71 16.10ZM151.07 44.56C149.45 46.33 147.47 47.21 145.13 47.21C141.61 47.21 139.17 45.60 137.81 42.36C137.06 40.63 136.69 38.65 136.69 36.42C136.69 33.84 137.04 31.68 137.74 29.92C139.08 26.61 141.50 24.96 145.02 24.96C147.60 24.96 149.65 25.91 151.19 27.81C152.72 29.71 153.49 32.47 153.49 36.11C153.49 39.97 152.68 42.79 151.07 44.56ZM147.66 17.09C146.23 16.50 144.55 16.21 142.63 16.21C137.43 16.21 133.41 18.15 130.57 22.03C127.73 25.90 126.32 30.69 126.32 36.39C126.32 42.29 127.79 46.97 130.73 50.43C133.67 53.89 137.60 55.62 142.52 55.62C145.71 55.62 148.30 54.86 150.29 53.33C151.39 52.51 152.43 51.28 153.39 49.64L153.39 52.10C153.39 55.76 152.99 58.36 152.19 59.91C150.97 62.32 148.56 63.53 144.95 63.53C142.39 63.53 140.58 63.07 139.50 62.16C138.87 61.64 138.41 60.80 138.13 59.63L127.23 59.63C127.56 63.45 129.27 66.32 132.36 68.24C135.46 70.16 139.45 71.12 144.35 71.12C152.46 71.12 157.95 68.96 160.80 64.65C162.47 62.14 163.30 58.42 163.30 53.47L163.30 17.12L153.56 17.12L153.56 22.64C152.06 19.95 150.09 18.09 147.66 17.09ZM145.83 16.10ZM182.64 17.12L172.37 17.12L172.37 40.22C172.37 44.60 172.92 47.92 174.02 50.17C175.99 54.25 179.81 56.29 185.48 56.29C187.45 56.29 189.17 56.03 190.63 55.51C192.10 55.00 193.62 54.04 195.19 52.63C195.70 52.18 196.15 51.67 196.52 51.08C196.90 50.50 197.13 50.14 197.23 50.03L197.23 55.44L206.96 55.44L206.96 17.12L196.80 17.12L196.80 37.97C196.80 40.43 196.48 42.41 195.82 43.91C194.55 46.68 192.21 48.06 188.79 48.06C186.12 48.06 184.32 47.09 183.41 45.14C182.89 44.04 182.64 42.40 182.64 40.22ZM189.67 16.10ZM237.76 36.81L237.76 40.54C237.69 43.89 236.75 46.20 234.93 47.46C233.12 48.73 231.13 49.36 228.97 49.36C227.61 49.36 226.46 48.98 225.51 48.22C224.56 47.46 224.09 46.22 224.09 44.51C224.09 42.59 224.86 41.17 226.41 40.25C227.32 39.71 228.83 39.26 230.94 38.88L233.19 38.46C234.32 38.25 235.20 38.02 235.85 37.78C236.49 37.53 237.13 37.21 237.76 36.81ZM231.68 32.13L228.27 32.55C224.40 33.05 221.47 33.87 219.48 35.02C215.85 37.13 214.03 40.54 214.03 45.25C214.03 48.88 215.16 51.69 217.42 53.67C219.69 55.65 222.55 56.64 226.02 56.64C228.74 56.64 231.18 56.02 233.33 54.77C235.14 53.72 236.73 52.44 238.11 50.94C238.18 51.81 238.28 52.58 238.39 53.26C238.51 53.94 238.72 54.67 239.03 55.44L249.93 55.44L249.93 53.96C249.27 53.66 248.78 53.27 248.45 52.80C248.12 52.34 247.92 51.45 247.85 50.13C247.80 48.40 247.78 46.92 247.78 45.70L247.78 28.13C247.78 23.51 246.15 20.37 242.89 18.70C239.64 17.04 235.91 16.21 231.71 16.21C225.27 16.21 220.72 17.89 218.07 21.27C216.41 23.43 215.47 26.18 215.26 29.53L224.93 29.53C225.16 28.05 225.63 26.88 226.34 26.02C227.32 24.84 229.00 24.26 231.36 24.26C233.47 24.26 235.07 24.56 236.16 25.15C237.25 25.75 237.80 26.84 237.80 28.41C237.80 29.70 237.08 30.64 235.65 31.25C234.86 31.61 233.53 31.90 231.68 32.13ZM232.21 16.10ZM258.22 62.79L258.22 70.80C259.30 70.88 260.11 70.92 260.65 70.93C261.19 70.94 261.90 70.95 262.79 70.95C267.22 70.95 270.18 70.07 271.65 68.33C273.13 66.58 275.13 62.07 277.66 54.81L290.81 17.12L280.16 17.12L272.25 45.39L263.88 17.12L252.74 17.12L266.80 57.13C266.89 57.41 266.69 58.18 266.19 59.45C265.68 60.71 265.14 61.55 264.55 61.95C263.94 62.37 263.19 62.64 262.30 62.75C261.41 62.87 260.47 62.91 259.49 62.86ZM271.79 16.10ZM319.08 16.10C316.03 23.13 314.51 30.07 314.51 36.91C314.51 42.84 315.68 48.74 318.02 54.60C320.02 59.64 322.91 64.76 326.71 69.96L332.65 69.96L330.50 66.02C327.55 60.59 325.50 54.90 324.35 48.97C323.60 45.11 323.23 40.88 323.23 36.28C323.23 29.16 324.20 22.71 326.14 16.95C327.32 13.50 329.53 8.80 332.79 2.85L327.02 2.78L324.53 6.22C322.58 8.92 320.77 12.21 319.08 16.10ZM346.54 9.04C341.68 13.93 339.26 20.91 339.26 29.95C339.26 38.32 341.39 44.91 345.66 49.71C349.92 54.49 355.78 56.88 363.23 56.88C369.26 56.88 374.20 55.11 378.05 51.57C381.91 48.04 384.30 43.44 385.24 37.79L374.52 37.79C373.79 40.46 372.88 42.47 371.78 43.80C369.79 46.29 366.89 47.53 363.09 47.53C359.39 47.53 356.34 46.08 353.94 43.19C351.53 40.29 350.33 35.94 350.33 30.13C350.33 24.32 351.47 19.82 353.74 16.65C356.02 13.47 359.12 11.88 363.06 11.88C366.93 11.88 369.84 13.01 371.81 15.26C372.91 16.52 373.82 18.40 374.52 20.88L385.35 20.88C385.18 17.65 383.99 14.43 381.76 11.21C377.73 5.50 371.36 2.64 362.64 2.64C356.12 2.64 350.75 4.77 346.54 9.04ZM362.32 2.04ZM416.64 45.25C415.07 47.33 412.82 48.38 409.89 48.38C406.96 48.38 404.70 47.33 403.12 45.25C401.54 43.16 400.75 40.20 400.75 36.35C400.75 32.51 401.54 29.55 403.12 27.47C404.70 25.40 406.96 24.36 409.89 24.36C412.82 24.36 415.07 25.40 416.64 27.47C418.21 29.55 418.99 32.51 418.99 36.35C418.99 40.20 418.21 43.16 416.64 45.25ZM424.65 50.78C427.89 46.79 429.50 41.98 429.50 36.35C429.50 30.82 427.89 26.03 424.65 21.97C421.42 17.92 416.51 15.89 409.92 15.89C403.34 15.89 398.43 17.92 395.19 21.97C391.96 26.03 390.34 30.82 390.34 36.35C390.34 41.98 391.96 46.79 395.19 50.78C398.43 54.78 403.34 56.78 409.92 56.78C416.51 56.78 421.42 54.78 424.65 50.78ZM409.92 16.10ZM457.96 16.22C457.83 16.21 457.68 16.21 457.49 16.21C454.49 16.21 452.05 16.99 450.18 18.56C449.03 19.50 447.68 21.25 446.13 23.80L446.13 17.12L436.57 17.12L436.57 55.44L446.66 55.44L446.66 37.13C446.66 34.05 447.05 31.78 447.82 30.30C449.20 27.68 451.91 26.37 455.94 26.37C456.25 26.37 456.64 26.38 457.14 26.40C457.63 26.43 458.19 26.47 458.82 26.54L458.82 16.28C458.38 16.25 458.09 16.24 457.96 16.22ZM488.64 45.25C487.07 47.33 484.82 48.38 481.89 48.38C478.96 48.38 476.70 47.33 475.12 45.25C473.54 43.16 472.75 40.20 472.75 36.35C472.75 32.51 473.54 29.55 475.12 27.47C476.70 25.40 478.96 24.36 481.89 24.36C484.82 24.36 487.07 25.40 488.64 27.47C490.21 29.55 490.99 32.51 490.99 36.35C490.99 40.20 490.21 43.16 488.64 45.25ZM496.65 50.78C499.89 46.79 501.50 41.98 501.50 36.35C501.50 30.82 499.89 26.03 496.65 21.97C493.42 17.92 488.51 15.89 481.92 15.89C475.34 15.89 470.43 17.92 467.19 21.97C463.96 26.03 462.34 30.82 462.34 36.35C462.34 41.98 463.96 46.79 467.19 50.78C470.43 54.78 475.34 56.78 481.92 56.78C488.51 56.78 493.42 54.78 496.65 50.78ZM481.92 16.10ZM539.63 19.32C537.11 17.24 533.87 16.21 529.91 16.21C526.75 16.21 524.13 16.98 522.07 18.53C520.92 19.39 519.70 20.81 518.41 22.78L518.41 17.19L508.75 17.19L508.75 55.44L518.73 55.44L518.73 34.70C518.73 32.33 519.06 30.39 519.71 28.86C520.98 25.98 523.31 24.54 526.71 24.54C529.48 24.54 531.35 25.52 532.34 27.49C532.87 28.57 533.14 30.12 533.14 32.13L533.14 55.44L543.41 55.44L543.41 29.64C543.41 24.83 542.15 21.39 539.63 19.32ZM526.22 16.10ZM573.79 36.81L573.79 40.54C573.71 43.89 572.77 46.20 570.96 47.46C569.14 48.73 567.15 49.36 565.00 49.36C563.64 49.36 562.48 48.98 561.53 48.22C560.58 47.46 560.11 46.22 560.11 44.51C560.11 42.59 560.88 41.17 562.43 40.25C563.34 39.71 564.86 39.26 566.96 38.88L569.21 38.46C570.34 38.25 571.22 38.02 571.87 37.78C572.51 37.53 573.15 37.21 573.79 36.81ZM567.70 32.13L564.29 32.55C560.43 33.05 557.50 33.87 555.50 35.02C551.87 37.13 550.05 40.54 550.05 45.25C550.05 48.88 551.19 51.69 553.45 53.67C555.71 55.65 558.57 56.64 562.04 56.64C564.76 56.64 567.20 56.02 569.36 54.77C571.16 53.72 572.75 52.44 574.14 50.94C574.21 51.81 574.30 52.58 574.42 53.26C574.54 53.94 574.75 54.67 575.05 55.44L585.95 55.44L585.95 53.96C585.29 53.66 584.80 53.27 584.47 52.80C584.14 52.34 583.95 51.45 583.88 50.13C583.83 48.40 583.80 46.92 583.80 45.70L583.80 28.13C583.80 23.51 582.18 20.37 578.92 18.70C575.66 17.04 571.93 16.21 567.74 16.21C561.29 16.21 556.75 17.89 554.10 21.27C552.43 23.43 551.50 26.18 551.29 29.53L560.95 29.53C561.19 28.05 561.66 26.88 562.36 26.02C563.34 24.84 565.02 24.26 567.39 24.26C569.50 24.26 571.10 24.56 572.19 25.15C573.28 25.75 573.82 26.84 573.82 28.41C573.82 29.70 573.11 30.64 571.68 31.25C570.88 31.61 569.55 31.90 567.70 32.13ZM568.23 16.10ZM616.32 17.12L608.17 45.39L600.19 17.12L588.94 17.12L602.68 55.44L613.27 55.44L627.08 17.12ZM643.04 12.55L643.04 3.30L632.88 3.30L632.88 12.55ZM632.88 17.12L632.88 55.44L643.04 55.44L643.04 17.12ZM674.03 16.22C673.90 16.21 673.75 16.21 673.56 16.21C670.56 16.21 668.12 16.99 666.25 18.56C665.10 19.50 663.75 21.25 662.20 23.80L662.20 17.12L652.64 17.12L652.64 55.44L662.73 55.44L662.73 37.13C662.73 34.05 663.12 31.78 663.89 30.30C665.27 27.68 667.98 26.37 672.01 26.37C672.32 26.37 672.71 26.38 673.21 26.40C673.70 26.43 674.26 26.47 674.89 26.54L674.89 16.28C674.45 16.25 674.16 16.24 674.03 16.22ZM690.75 17.12L680.48 17.12L680.48 40.22C680.48 44.60 681.04 47.92 682.14 50.17C684.11 54.25 687.93 56.29 693.60 56.29C695.57 56.29 697.28 56.03 698.75 55.51C700.21 55.00 701.73 54.04 703.30 52.63C703.82 52.18 704.26 51.67 704.64 51.08C705.01 50.50 705.25 50.14 705.34 50.03L705.34 55.44L715.08 55.44L715.08 17.12L704.92 17.12L704.92 37.97C704.92 40.43 704.59 42.41 703.93 43.91C702.67 46.68 700.32 48.06 696.90 48.06C694.23 48.06 692.44 47.09 691.52 45.14C691.01 44.04 690.75 42.40 690.75 40.22ZM697.78 16.10ZM732.55 43.21L722.39 43.21C722.39 47.14 723.83 50.38 726.70 52.93C729.57 55.47 734.02 56.74 740.04 56.74C745.95 56.74 750.31 55.54 753.13 53.14C755.96 50.74 757.37 47.64 757.37 43.84C757.37 40.96 756.39 38.55 754.42 36.63C752.43 34.73 749.44 33.32 745.45 32.38C739.48 31.07 736.00 30.14 735.01 29.60C734.03 29.09 733.54 28.25 733.54 27.11C733.54 26.19 734.00 25.39 734.92 24.71C735.85 24.04 737.40 23.70 739.58 23.70C742.23 23.70 744.11 24.37 745.21 25.73C745.79 26.48 746.16 27.50 746.30 28.79L756.32 28.79C755.87 24.11 754.14 20.81 751.13 18.90C748.12 16.99 744.22 16.03 739.44 16.03C734.40 16.03 730.49 17.30 727.72 19.85C724.94 22.39 723.55 25.43 723.55 28.97C723.55 31.97 724.44 34.27 726.22 35.86C728.00 37.48 731.06 38.82 735.40 39.90C741.42 41.33 744.90 42.34 745.84 42.93C746.78 43.51 747.25 44.37 747.25 45.49C747.25 46.66 746.67 47.54 745.51 48.13C744.35 48.71 742.78 49.01 740.81 49.01C737.46 49.01 735.16 48.34 733.92 47.00C733.22 46.25 732.76 44.99 732.55 43.21ZM740.21 16.10ZM785.60 3.62L785.60 35.47C785.60 40.98 786.46 45.27 788.17 48.34C791.38 53.96 797.47 56.78 806.45 56.78C815.43 56.78 821.51 53.96 824.70 48.34C826.41 45.27 827.26 40.98 827.26 35.47L827.26 3.62L816.26 3.62L816.26 35.47C816.26 39.04 815.84 41.64 814.99 43.28C813.68 46.18 810.83 47.64 806.45 47.64C802.04 47.64 799.18 46.18 797.87 43.28C797.03 41.64 796.61 39.04 796.61 35.47L796.61 3.62ZM806.45 3.62ZM867.16 3.62L856.86 26.19L846.11 3.62L833.34 3.62L851.27 35.96L851.27 55.44L862.10 55.44L862.10 35.96L879.43 3.62ZM856.41 3.62ZM896.73 16.70C894.88 12.39 892.17 7.75 888.61 2.78L881.05 2.78L883.20 6.71C886.15 12.13 888.20 17.80 889.35 23.73C890.10 27.62 890.47 31.86 890.47 36.46C890.47 43.63 889.43 50.23 887.34 56.25C886.12 59.81 883.97 64.38 880.88 69.96L888.29 69.96L890.79 66.55C892.41 64.49 894.13 61.42 895.96 57.34C899.21 50.05 900.84 42.88 900.84 35.82C900.84 29.40 899.47 23.03 896.73 16.70Z" transform="translate(74.296 642.88) scale(.8687)"/></svg>