<svg id="Layer_1" data-name="Layer 1" xmlns="http://www.w3.org/2000/svg" viewBox="0 0 1133.59998 471.96265"><defs><style>.cls-1{fill:#fff;}</style></defs><path d="M859.09364,302.50811q0,19.536-.00043,39.072-.001,7.95186-.01068,15.90375c-.00128,1.85248-.16461,3.42108-2.71576,3.40344-11.21972-.07754-22.44012-.05661-33.66028-.08957a5.45636,5.45636,0,0,1-1.27063-.3912V201.14872h6.30469c8.26142-.00018,16.523.02828,24.78412-.022,1.89154-.01152,2.979.31155,3.73651,2.48138,4.9256,14.10773,10.09613,28.12992,15.176,42.18386a125.06194,125.06194,0,0,0,6.34363,15.42579v-59.7531c1.62323-.13681,2.68713-.30247,3.75134-.30447,10.3576-.01936,20.717.09734,31.07171-.07664,3.15241-.05294,3.89881,1.04565,3.89393,4.041q-.12287,75.8203.00732,151.64087c.00622,3.30276-1.0224,4.23159-4.22546,4.16809-9.12092-.18088-18.24878-.13541-27.37171-.01194-2.5177.03409-3.72821-.94564-4.55554-3.24142q-9.51179-26.392-19.20013-52.72a19.2069,19.2069,0,0,0-1.46467-2.65134Zm-454.79941,58.3616c-4.103,0-8.14828.00013-12.19351-.00009-8.50763-.00036-17.01611-.07156-25.52231.03962-2.71722.03546-3.80008-.937-4.41681-3.66214-2.545-11.245-5.40109-22.4195-8.132-33.62259-1.3909-5.7063-2.8316-11.40183-4.11856-17.13175-1.58841-7.07162-1.84048-7.28967-9.59027-5.86435v4.23477c.00009,17.13587-.11511,34.273.08887,51.4065.04572,3.84122-1.16946,4.77286-4.83746,4.68789-10.35163-.23992-20.71378-.18658-31.06845-.02926-2.9303.04449-3.84992-.89481-3.84647-3.78232q.091-76.18675.00015-152.37344c-.003-2.62406.6127-3.70229,3.49787-3.68332,19.97342.13157,39.951-.09377,59.92062.21829a36.02842,36.02842,0,0,1,21.40085,6.84225c7.3038,5.42954,10.95968,13.07933,12.92892,21.58237a88.14391,88.14391,0,0,1,.053,39.9494c-1.78473,7.80619-5.05035,14.77622-11.9324,19.60047-.83957.58856-1.33051,2.65161-1.01709,3.75775,3.60147,12.71185,7.43677,25.35721,11.11276,38.04831,2.69211,9.29443,5.24692,18.62863,7.83133,27.95389a6.54978,6.54978,0,0,1-.159,1.82779Zm-56.81961-93.71054c.983,0,1.967.02716,2.949-.00445,5.80621-.18662,7.65918-1.16882,8.381-6.97708.6676-5.37046.208-10.93927-.31781-16.36623-.17127-1.768-1.79743-4.36146-3.30872-4.84032-3.60254-1.14146-7.53213-1.256-11.33191-1.7685-2.47485-.33375-3.16879.90658-3.13681,3.21633.09369,6.75725.01465,13.51676.03284,20.27529C340.76317,268.441,340.088,267.24572,347.47462,267.15917ZM565.70253,183.2584H547.29945c-1.35638,0-2.718-.0776-4.06818.01418-4.54882.30917-9.181.82885-9.34588-5.22872-5.40558,1.94272-10.45685,4.56336-15.799,5.46941a69.59491,69.59491,0,0,1-19.39325.70709,39.70721,39.70721,0,0,1-19.32086-7.35142c-8.37256-6.18531-12.46772-14.76261-14.00824-24.51723-4.21579-26.69429-3.06668-53.60393-2.164-80.44952.32453-9.65083,1.71463-19.31263,6.66385-28.03163,5.5752-9.82175,14.07743-15.72263,24.66223-19.007a68.00179,68.00179,0,0,1,25.882-2.69376c11.35968.92886,22.226,3.42623,31.04212,11.50539,7.49914,6.87243,10.71509,15.713,11.7879,25.42369.70227,6.35807.56946,12.80439,1.00153,19.19832.17,2.51735-.76911,3.20514-3.1294,3.18924q-16.83078-.11346-33.66259.00606c-2.22406.01657-3.03431-.76735-3.12366-2.96481-.17023-4.185-.578-8.36055-.89356-12.53949-.43786-5.79913-3.58593-9.24157-8.40268-9.19745-5.07028.04644-7.7496,3.30121-8.52606,9.07437-2.74154,20.38545-1.7251,40.83332-1.12561,61.25739A100.088,100.088,0,0,0,508.13127,146.36c1.09353,4.7765,5.21805,6.56944,10.83957,5.86472,3.93713-.49358,6.81555-3.60572,7.00146-8.23015.24732-6.155.10993-12.32476.197-18.48735.02839-2.00622-.708-2.90414-2.829-2.81942-3.178.127-6.36483.033-9.76562.033-.14365-1.28875-.33685-2.22809-.3393-3.16793-.023-8.87671.07172-17.75487-.06527-26.62956-.04123-2.67108.66229-3.67731,3.5065-3.65419q22.56381.18375,45.12976.004c2.87848-.02209,3.58764,1.16693,3.56054,3.73945-.08447,8.013-.06378,16.0277-.02368,24.0414q.15336,30.69634.35822,61.39239c.0086,1.44355.00116,2.88726.00116,4.812Zm144.56012,97.87987c0-9.12058-.331-18.25613.081-27.35806.55719-12.305,2.12744-24.452,8.9267-35.25263,6.13348-9.743,15.22851-15.07736,26.17926-17.31561a78.35878,78.35878,0,0,1,31.95569-.0533c17.37872,3.64449,29.76446,13.68442,33.51507,31.674,3.55194,17.03608,2.74927,34.314,2.75586,51.51678a332.81651,332.81651,0,0,1-1.61572,35.05478c-1.1449,10.834-4.07611,21.33459-11.35822,30.04626-5.19409,6.21363-11.9851,9.58353-19.66339,11.47837-10.69006,2.638-21.62213,2.58328-32.31836,1.13321-18.65246-2.52878-31.11157-11.33618-35.66815-33.52143a167.09837,167.09837,0,0,1-2.789-23.74362c-.46332-7.861-.10126-15.7706-.10126-23.65884Zm61.91455-1.77774.14032-.00025c0-8.62332.15106-17.25053-.067-25.86836a79.19778,79.19778,0,0,0-1.46057-11.994,7.61375,7.61375,0,0,0-7.19568-6.71212c-4.73822-.52922-8.14508.94824-9.49072,5.0969a40.96108,40.96108,0,0,0-2.16828,11.8983c-.2406,18.72213-.30011,37.45083-.057,56.17229a71.76625,71.76625,0,0,0,2.28491,14.88529c.84277,3.67971,3.97223,5.27371,7.53918,5.33206,3.50641.05737,6.7508-1.14093,7.75782-4.92,1.15637-4.33892,2.43072-8.78347,2.59631-13.22165.38086-10.21011.12067-20.44412.12067-30.66842ZM300.7003,103.54817q-.003-37.34271-.00086-74.68544c.00058-5.33955.00718-5.34253,5.49836-5.3433,14.545-.00194,29.10486-.39675,43.62918.15059a113.50628,113.50628,0,0,1,25.06115,3.50215c11.76224,3.16559,18.46741,11.723,20.75687,23.69692,4.45126,23.28,3.68775,46.81021,3.21146,70.30374a266.16465,266.16465,0,0,1-1.932,28.70493c-1.81451,14.02746-9.80978,27.28863-24.58414,31.27671a54.76134,54.76134,0,0,1-13.42459,1.98676c-18.11679.22827-36.23858.03526-54.35693.18613-3.13916.0261-3.92676-.98009-3.91461-3.98482.102-25.26448.05807-50.52954.05606-75.79438Zm40.37088,48.436a14.06528,14.06528,0,0,0,1.87454.47128c13.3505,1.02515,16.24433-1.01548,16.49292-14.39982.40231-21.6597.06351-43.33412-.06415-65.00168a65.29391,65.29391,0,0,0-.95926-9.17974c-.7846-5.26119-4.13455-7.11683-12.50665-7.10554-4.825.00651-4.83673.00651-4.83728,4.8055q-.00493,43.049-.00009,86.09807c0,1.44755,0,2.89506,0,4.312Zm482.628,31.096H782.451c-1.31738-10.36546-2.73761-20.59209-3.88342-30.84938-.95722-8.56912-.815-8.58507-9.217-8.58485h-.36987c-9.96955.00018-9.75049.02394-10.848,10.15679-1.05536,9.7441-2.629,19.4321-3.99237,29.27106H713.72395c.717-4.89529,1.31781-9.57843,2.10278-14.23054,1.51209-8.96091,3.13037-17.90393,4.70093-26.855,2.09949-11.96654,4.234-23.92721,6.28-35.90293,1.40546-8.22676,2.63989-16.48275,4.0343-24.71154,1.55768-9.19153,3.24848-18.36057,4.80957-27.55156,1.441-8.48371,3.02332-16.95469,4.06574-25.48959.4599-3.7648,1.7467-4.93878,5.528-4.89565,16.64142.19007,33.28687.15308,49.92932.0164,2.97626-.02448,4.00946.90506,4.39447,3.84159,1.4358,10.9525,3.066,21.88183,4.7873,32.794,1.95044,12.36569,4.14709,24.69249,6.10479,37.05709,1.49823,9.46144,2.74054,18.963,4.1897,28.43258,1.43091,9.35011,2.99756,18.67925,4.47022,28.023,1.52655,9.68627,3.01147,19.379,4.57818,29.47847Zm-60.90039-69.03559c3.14844,0,5.2467-.16762,7.30737.039,3.15082.3159,3.77277-1.03581,3.35291-3.89357-1.601-10.899-3.04443-21.82113-4.54675-32.73465L768.466,77.365C766.60994,89.37847,764.75374,101.3919,762.79884,114.04462ZM645.55159,304.091v4.96148c-.00055,15.8992-.08356,31.7992.06665,47.697.03082,3.25869-.94556,4.24154-4.19763,4.18808-10.968-.18039-21.942-.15854-32.91083-.00812-2.94769.0404-4.09558-.653-4.09015-3.85007q.12862-76.16808.06842-152.3365c.00024-1.074.16974-2.148.27161-3.3552,1.08392-.09372,1.91748-.2288,2.751-.22862,19.84613.00447,39.69532-.16891,59.53705.13393,8.0343.12257,15.79059,2.06671,22.498,6.99812,8.94012,6.573,12.58087,16.03356,14.20282,26.4404,2.14141,13.73966,2.22418,27.50589-1.1045,41.102-3.407,13.91568-11.28259,23.1261-25.76031,25.81744-8.74817,1.62616-17.78754,1.69376-26.69916,2.425-1.3233.10849-2.66333.01505-4.63293.01505Zm-.24536-33.4061c4.52,0,8.45752.15533,12.37542-.05362a5.39639,5.39639,0,0,0,5.1922-4.471,47.12093,47.12093,0,0,0-.40423-23.382c-.40979-1.56612-2.03321-3.676-3.42133-3.962a75.48081,75.48081,0,0,0-12.31207-1.08476c-.44757-.01721-1.36084,1.44357-1.368,2.22524-.09363,10.086-.062,20.17326-.062,30.72807Zm466.08825-69.17255c0,8.62708.061,17.11144-.02868,25.59421-.03846,3.64556.91015,8.44773-.99292,10.58028-1.64917,1.84778-6.69214.78341-10.23609.80334-10.72033.06017-21.441.02178-32.5227.02178v24.48655h40.69519v34.93843H1067.6042c-.129,1.60785-.31494,2.89869-.32214,4.19056-.0326,5.91958-.01844,11.83944-.01477,17.75921.00305,4.76172.00708,4.77094,4.94177,4.77326,11.84143.00552,23.68384.0896,35.52344-.05731,3.16455-.03931,4.41723.88626,4.3612,4.18078-.15942,9.37027-.12744,18.74567-.027,28.11746.03186,2.972-.9436,4.04624-4.06982,4.03257q-38.8537-.17052-77.7085-.01017c-3.07.01136-4.01135-.97671-4.00695-4.03192q.11169-76.0317.02124-152.06373c-.00171-2.24729.16986-3.72927,3.0733-3.72019,26.766.08374,53.53265.06061,80.299.07854a13.18594,13.18594,0,0,1,1.71936.32638Zm-660.39917,61.638H492.425v34.87276c-1.47855,0-2.91156.00009-4.34457.00009-11.09909.00015-22.19925.08673-33.29645-.0593-2.83527-.03735-3.94284.667-3.84766,3.67813.20243,6.40543.18292,12.82477.01319,19.232-.0763,2.88144.82678,3.87637,3.784,3.84335,12.33081-.13785,24.66522.034,36.99564-.11945,3.35242-.04174,4.48617.94516,4.39914,4.41434-.235,9.36514-.185,18.74191-.0224,28.11014.05108,2.94217-.90863,3.8111-3.806,3.801q-39.03127-.13536-78.063-.00076c-2.88388.01007-3.87961-.85983-3.87586-3.78128q.09792-76.20148.008-152.40321c-.003-2.66892.72378-3.65488,3.55173-3.64461q39.03126.14214,78.063.00014c2.77594-.01007,3.62522.84228,3.58973,3.57773q-.19423,14.97889-.00272,29.96139c.04279,3.14783-1.20666,3.9662-4.17557,3.93463-12.20758-.1298-24.41812.01894-36.62573-.10867-2.81692-.0294-3.93024.67087-3.8392,3.69408.20642,6.856.065,13.72244.065,20.99754Zm69.11634,50.15877c5.18066-.00037,10.36529.12027,15.54028-.051,2.60388-.08621,3.91492.53058,3.78308,3.41635a56.50558,56.50558,0,0,0,.41748,6.64041c.35681,4.8686,2.99866,7.20179,8.29718,7.33585,5.06372.12817,8.09827-2.39178,8.77887-7.038,1.30383-8.90223-2.9433-15.10715-9.66479-20.082-9.74738-7.21429-19.71845-14.13668-29.29758-21.5657-15.484-12.00851-19.269-28.30276-16.93967-46.9763,2.77054-22.21,20.84113-33.46848,40.10993-35.06084,11.51709-.95172,22.84887-.4434,33.48327,4.936,12.6236,6.38574,18.83728,17.07754,20.76251,30.63482.60572,4.26531.75269,8.59406,1.19172,12.88538.22461,2.19606-.522,3.12527-2.84064,3.11038q-16.65124-.10682-33.30377.00118c-2.052.01232-2.91986-.786-2.98474-2.77637-.09235-2.834-.19849-5.67185-.44227-8.49568-.40582-4.70113-3.2716-6.87276-8.73284-6.75879-4.941.1031-7.92157,2.70654-8.34754,7.0128-.6217,6.28364,2.2768,11.03036,6.84534,14.66952,8.33795,6.64168,16.98022,12.9002,25.45172,19.37612,8.58441,6.56241,17.52191,13.07147,21.38269,23.63852,5.87451,16.0791,5.822,32.10827-3.48553,47.1113-5.39539,8.69708-13.89618,13.19839-23.61445,15.677-9.96789,2.54236-20.13482,2.39743-30.12414,1.12829-12.21008-1.55127-23.35816-5.87039-30.51575-16.956-4.3966-6.80933-4.81479-14.5943-5.4288-22.28708-.75943-9.5152-.63855-9.525,8.94711-9.52585q5.36568-.00041,10.73133-.0003Zm498.266-61.97626H979.52235c0-3.01946.0954-5.93056-.01868-8.8335-.28741-7.30494-4.44348-10.44658-11.5849-8.85705-4.19909.93467-6.57519,5.07-5.86334,10.117.75348,5.34316,3.81684,9.265,7.90326,12.40909,8.54321,6.57324,17.19245,13.00882,25.80615,19.49023,8.59552,6.46775,16.57624,13.44037,20.63092,23.8559,5.65778,14.53363,4.881,40.73724-10.65075,53.12457a43.02966,43.02966,0,0,1-22.43054,9.39984c-12.74714,1.37665-25.56373,1.53711-37.90619-3.27356-13.25916-5.1679-20.87793-14.67431-22.25544-28.81253-.52038-5.34127-.08447-10.77566-.08447-16.373,1.08777-.098,2.03949-.25678,2.99133-.2583,10.60853-.017,21.2176.0574,31.825-.055,2.74469-.02908,4.18707.60181,3.8623,3.68042a34.85277,34.85277,0,0,0,.12421,5.54221c.29284,5.27063,2.55542,7.655,7.64361,8.11792,5.29877.48206,8.392-1.53067,9.42432-6.58377,1.396-6.83328-.501-12.89978-5.94367-17.20145-9.11053-7.20053-18.5379-14.00168-27.86975-20.92-7.86462-5.8305-15.64929-11.97211-18.81665-21.58992-5.86267-17.80275-6.66784-35.30572,6.59949-50.66029,6.99414-8.09452,16.506-11.90972,26.79718-13.30968,12.04279-1.6384,24.07666-1.446,35.48212,3.73666,10.55115,4.79439,17.36365,12.80639,20.69677,23.89452,2.25953,7.51683,2.69031,15.17651,2.49305,23.35963ZM652.52382,60.76106c-7.21582,0-13.9654.00145-20.71485-.00045-5.19983-.00149-5.20349-.00334-5.20569-5.21932-.0039-9.49473.04554-18.98987-.03814-28.48389-.02069-2.34922.39679-3.59389,3.20019-3.5858,29.22833.08432,58.45691.05438,87.68555.0677a12.28607,12.28607,0,0,1,1.68988.26784V60.75686H693.56257V183.005H652.52376ZM831.76289,23.52259c13.14575,0,25.84473.05,38.54266-.04228,2.53412-.01838,2.76514,1.30971,2.75544,3.25234-.03632,7.27532-.01191,14.55091-.01184,21.82641q.00063,46.42752.00183,92.85509c.00042,5.27856.00891,5.2866,5.43188,5.28892,11.84.005,23.681.094,35.519-.05935,3.10028-.04016,4.35938.63531,4.27845,4.05572-.22748,9.613-.07227,19.235-.08808,28.85346-.00171,1.0803-.132,2.16047-.2171,3.46205H831.76289ZM618.1941,183.12876H576.437c-.066-1.38952-.18139-2.685-.18158-3.98042q-.014-75.78348-.07849-151.56685c-.00659-3.26883.89264-4.19267,4.14807-4.13667,11.21192.193,22.4328.23365,33.6424-.0182,3.64111-.0818,4.33154,1.31337,4.27344,4.4896-.15088,8.25328-.04987,16.51125-.04962,24.76732q.00154,62.66.00286,125.32ZM410.28459,23.708h40.96686V182.993H410.28459Z"/><path class="cls-1" d="M141.6754,110.04251q-.00483,27.36789-.01322,54.73577c-.01434,8.18033-1.102,16.16654-4.56877,23.69936C131.23606,201.205,120.98,208.09379,107.442,209.89424c-13.81463,1.8372-27.09246.25071-38.19391-9.333-7.2791-6.2839-11.27371-14.5188-12.51279-23.90612A149.871,149.871,0,0,1,55.63353,157.502c-.09909-35.62732.00438-71.25519-.1259-106.88233-.01341-3.66973.88114-4.97406,4.71263-4.855,8.62257.268,17.26328.24219,25.888.01283,3.609-.096,4.576,1.12564,4.56549,4.64059q-.16608,55.65989-.04056,111.32053a42.789,42.789,0,0,0,.65963,7.702c.75628,4.087,3.20871,6.04817,7.08347,6.096,4.01426.04959,6.78154-2.07331,7.48238-6.17595a48.534,48.534,0,0,0,.56764-8.09632q.05163-54.92073.024-109.84145c.00039-5.56444.00907-5.57,5.71322-5.57342,8.38427-.00506,16.77091.11409,25.15162-.0589,3.2746-.06753,4.47336.8177,4.444,4.339-.16643,19.96981-.08053,39.94171-.08374,59.91288Zm80.965-13.04861c-4.43839-.0028-8.8843-.15867-13.31252.05343-2.824.13527-3.64088-.96476-3.62514-3.6176a59.374,59.374,0,0,0-.64173-8.83882c-.60393-4.16684-2.837-5.86142-7.1431-5.81019-4.19084.04986-6.45894,1.92068-7.092,5.9937-1.04939,6.75125,1.33088,12.30761,6.2576,16.79784,8.22991,7.50065,16.41643,15.05849,24.869,22.30328,13.01283,11.15345,18.72717,25.25278,18.26544,42.22379-.2504,9.20332-1.31755,18.20442-5.82926,26.3417-5.51173,9.941-14.29107,15.72359-25.38073,17.52593-11.57521,1.88133-23.0918,1.51417-33.9159-3.78111-10.96478-5.364-16.63452-14.47414-17.92331-26.40618-.56773-5.25667-.71643-10.55746-1.13633-15.83175-.222-2.78911.73532-4.01491,3.73407-3.969,8.998.13771,18.00022.11748,26.999.00786,2.43782-.02972,3.21116.86681,3.23339,3.21648.0267,2.82505.51327,5.64245.66952,8.47039.22507,4.07285,3.61632,6.21621,6.82247,6.3554,3.90593.1696,6.69009-2.06,7.42634-6.17583,1.51451-8.46646-1.1902-15.50484-7.61105-21.10306q-11.34909-9.89522-22.83933-19.62835a48.54048,48.54048,0,0,1-17.658-32.32662A66.64943,66.64943,0,0,1,159.198,69.36736c4.60382-14.2533,17.99716-24.08837,34.0142-25.12794,9.32758-.60542,18.39844.24512,26.78722,4.99909,9.3484,5.29772,14.68838,13.59219,16.98887,23.676,1.48966,6.52967,1.57134,13.3753,2.37847,20.068.35972,2.98265-.58335,4.24813-3.7842,4.07266-4.30224-.23581-8.62707-.05849-12.9422-.06129Z"/><path d="M22.16953,22.30022V360.6256H274.31968V22.30022Zm175.13648,128.45q-11.349-9.89529-22.83929-19.62835a48.54072,48.54072,0,0,1-17.658-32.3266,66.64966,66.64966,0,0,1,2.38922-29.42785c4.60382-14.2533,17.9972-24.08838,34.01423-25.12793,9.32757-.60541,18.39843.24511,26.78723,4.99908,9.34839,5.29773,14.68835,13.59216,16.98883,23.676,1.48968,6.52961,1.57135,13.37531,2.37848,20.06794.35974,2.98266-.58332,4.24817-3.78418,4.07269-4.30219-.23578-8.627-.05847-12.94214-.05847-4.43842-.00562-8.88426-.16144-13.3125.05066-2.824.13524-3.64093-.96479-3.62512-3.61762a59.37652,59.37652,0,0,0-.64179-8.8388c-.60394-4.16687-2.837-5.86145-7.14307-5.81025-4.19085.04987-6.459,1.92072-7.092,5.99372-1.04938,6.75128,1.33087,12.30762,6.25763,16.79785,8.22986,7.50067,16.41638,15.05847,24.869,22.30328,13.0128,11.15345,18.72718,25.25275,18.26544,42.22376-.25042,9.20337-1.31756,18.20447-5.82928,26.34173-5.51172,9.941-14.29108,15.72359-25.38072,17.52594-11.5752,1.88135-23.0918,1.51416-33.9159-3.78111-10.96478-5.364-16.63452-14.47412-17.92327-26.40619-.56775-5.25665-.71644-10.55743-1.13636-15.83172-.222-2.78913.73535-4.0149,3.73407-3.969,8.998.13776,18.00025.1175,26.999.00788,2.43786-.02973,3.21118.86682,3.23339,3.21649.02674,2.82507.51331,5.64245.66956,8.4704.225,4.07281,3.61627,6.21618,6.82245,6.3554,3.90588.16962,6.69006-2.06,7.42633-6.17584,1.51437-8.46646-1.19032-15.50485-7.61124-21.103ZM60.22025,45.76475c8.62262.268,17.2633.24219,25.888.01282,3.60907-.096,4.576,1.12568,4.56549,4.64063q-.16608,55.65986-.04053,111.32049a42.79077,42.79077,0,0,0,.65961,7.702c.75629,4.087,3.20874,6.04822,7.0835,6.09607,4.01423.04962,6.78149-2.0733,7.48237-6.176a48.53175,48.53175,0,0,0,.56761-8.09632q.05166-54.92073.02405-109.84143c.00043-5.56445.0091-5.57,5.71326-5.57343,8.38428-.00505,16.77087.11408,25.1516-.05889,3.2746-.06751,4.47333.81769,4.444,4.339-.1665,19.96973-.08056,39.94165-.08056,59.91285q-.00962,27.36784-.01642,54.73571c-.01434,8.18036-1.102,16.16657-4.56879,23.69941-5.85739,12.7274-16.11345,19.61613-29.65145,21.41655-13.81464,1.83721-27.09241.25073-38.19391-9.333-7.279-6.28387-11.27368-14.5188-12.51276-23.90613a149.87081,149.87081,0,0,1-1.1018-19.15307c-.09906-35.62732.00439-71.25513-.12586-106.88232C55.49423,46.95006,56.38876,45.64568,60.22025,45.76475Z"/><path class="cls-1" d="M46.104,230.813H249.993v21.15H46.104Zm0,38.867H249.993v21.15H46.104Zm0,38.867H249.993v21.15H46.104Z"/><path d="M49.09051,408.28591H61.57072v41.50838h-8.082V421.71812q0-1.21075.028-3.39266.028-2.18291.02848-3.36518l-7.86648,34.834H37.24907l-7.80952-34.834q0,1.18129.028,3.36518.028,2.18142.02848,3.39266v28.07617H21.414V408.28591H34.03511l7.55569,32.63737Z"/><path d="M94.54686,446.03928q-3.88635,4.79736-11.79922,4.79687-7.91409,0-11.79922-4.79687a19.04187,19.04187,0,0,1,0-23.05738q3.88562-4.86805,11.79922-4.86855,7.91262,0,11.79922,4.86855a19.04379,19.04379,0,0,1,0,23.05738Zm-6.42054-4.43551q1.8861-2.50251,1.88634-7.11429,0-4.61177-1.88634-7.10054a7.13407,7.13407,0,0,0-10.82806,0q-1.90083,2.48926-1.90058,7.10054,0,4.61176,1.90058,7.11429a7.1086,7.1086,0,0,0,10.82806,0Z"/><path d="M120.45437,419.59218a9.752,9.752,0,0,1,3.51983,3.39365v-14.644h8.13848v41.45241h-7.80019v-4.25188a11.32159,11.32159,0,0,1-3.91458,3.97006,10.99138,10.99138,0,0,1-5.46313,1.23923,11.40609,11.40609,0,0,1-9.05366-4.35106,16.70325,16.70325,0,0,1-3.675-11.16487q0-7.85812,3.619-12.36286a11.77072,11.77072,0,0,1,9.67278-4.50523A9.89735,9.89735,0,0,1,120.45437,419.59218Zm1.97128,21.86626a11.19338,11.19338,0,0,0,1.77391-6.56145q0-5.631-2.84424-8.053a6.123,6.123,0,0,0-4.055-1.46508,5.63839,5.63839,0,0,0-5.16756,2.66111,14.34829,14.34829,0,0,0,.02848,13.40472,5.66529,5.66529,0,0,0,5.08262,2.54818A5.92564,5.92564,0,0,0,122.42565,441.45844Z"/><path d="M159.40819,419.72082a12.486,12.486,0,0,1,5.30405,4.54156,15.08076,15.08076,0,0,1,2.44557,6.34542,39.20183,39.20183,0,0,1,.26464,6.09207H145.06668q.18633,4.61913,3.20953,6.477a8.15305,8.15305,0,0,0,4.4252,1.15479,6.23282,6.23282,0,0,0,6.10828-3.52033h8.194a10.02075,10.02075,0,0,1-2.97533,5.54709q-4.12424,4.47772-11.54784,4.47773a16.73089,16.73089,0,0,1-10.81186-3.77661q-4.68468-3.77663-4.68394-12.28922,0-7.97448,4.22831-12.23128a14.79921,14.79921,0,0,1,10.97634-4.25581A17.483,17.483,0,0,1,159.40819,419.72082Zm-12.00641,6.93361a8.33673,8.33673,0,0,0-2.13822,4.75072h13.827a6.69722,6.69722,0,0,0-2.13822-4.8499,7.03437,7.03437,0,0,0-4.76-1.6546A6.363,6.363,0,0,0,147.40178,426.65443Z"/><path d="M179.67582,449.79429h-8.026V408.28591h8.026Z"/><path d="M228.49686,409.18735a13.71582,13.71582,0,0,1,7.074,5.26526,18.48484,18.48484,0,0,1,2.95913,6.70285,32.158,32.158,0,0,1,.789,6.87077,27.57782,27.57782,0,0,1-3.3254,14.02433q-4.5094,7.74324-13.92221,7.74373H204.17472V408.28591h17.89669A21.82568,21.82568,0,0,1,228.49686,409.18735ZM212.595,415.49447v27.09028h8.01033q6.14878,0,8.574-6.05378a21.33454,21.33454,0,0,0,1.32564-7.9136q0-6.33512-1.98847-9.72925-1.98846-3.39366-7.91115-3.39365Z"/><path d="M257.334,431.12431a12.73652,12.73652,0,0,0,3.20561-.70407,2.41551,2.41551,0,0,0,1.73021-2.28109,2.69717,2.69717,0,0,0-1.32761-2.60513,8.39407,8.39407,0,0,0-3.89592-.71782q-2.88329,0-4.082,1.40813a5.803,5.803,0,0,0-1.142,2.81528h-7.74422a11.74382,11.74382,0,0,1,2.26292-6.61742q3.19554-4.055,10.97339-4.05451a19.55891,19.55891,0,0,1,8.99376,1.99927q3.93128,1.99878,3.93128,7.54635v14.08031q0,1.46558.05646,3.5488a4.44851,4.44851,0,0,0,.47871,2.13969,2.8748,2.8748,0,0,0,1.18276.92991v1.18228h-8.7301a8.92478,8.92478,0,0,1-.50669-1.74592q-.14141-.816-.22536-1.85885a16.55362,16.55362,0,0,1-3.85223,3.06961,11.64383,11.64383,0,0,1-5.89175,1.49257,10.16774,10.16774,0,0,1-6.92526-2.37928,8.463,8.463,0,0,1-2.73329-6.74508q0-5.659,4.39721-8.19445a19.63917,19.63917,0,0,1,7.0922-1.97079Zm4.90734,3.74519a8.8422,8.8422,0,0,1-1.55591.77378,13.11353,13.11353,0,0,1-2.15491.5499l-1.82694.33779a12.03736,12.03736,0,0,0-3.68921,1.09783,3.66618,3.66618,0,0,0-1.89617,3.4074,3.55979,3.55979,0,0,0,1.15822,2.97141,4.403,4.403,0,0,0,2.81675.91518,8.38317,8.38317,0,0,0,4.84646-1.52105q2.216-1.52007,2.30171-5.54709Z"/><path d="M274.09755,425.098v-5.717h4.28085v-8.56072h7.94111v8.56072h4.98442v5.717h-4.98442v16.22a3.65255,3.65255,0,0,0,.4787,2.3518q.47871.464,2.92869.46446.3653,0,.77428-.01473.408-.01326.80275-.04222v5.99878l-3.80166.14043q-5.68848.19737-7.7722-1.9708a5.86985,5.86985,0,0,1-1.35167-4.25286V425.098Z"/><path d="M308.61439,431.12431a12.73652,12.73652,0,0,0,3.20561-.70407,2.41551,2.41551,0,0,0,1.73021-2.28109,2.69717,2.69717,0,0,0-1.32761-2.60513,8.3941,8.3941,0,0,0-3.89592-.71782q-2.88329,0-4.082,1.40813a5.80309,5.80309,0,0,0-1.142,2.81528h-7.74422a11.74382,11.74382,0,0,1,2.26292-6.61742q3.19554-4.055,10.97339-4.05451a19.55891,19.55891,0,0,1,8.99376,1.99927q3.93128,1.99878,3.93128,7.54635v14.08031q0,1.46558.05646,3.5488a4.44865,4.44865,0,0,0,.4787,2.13969,2.87483,2.87483,0,0,0,1.18277.92991v1.18228h-8.7301a8.92409,8.92409,0,0,1-.50669-1.74592q-.14141-.816-.22536-1.85885a16.55362,16.55362,0,0,1-3.85223,3.06961,11.64383,11.64383,0,0,1-5.89175,1.49257,10.16776,10.16776,0,0,1-6.92527-2.37928,8.463,8.463,0,0,1-2.73328-6.74508q0-5.659,4.39721-8.19445a19.63917,19.63917,0,0,1,7.0922-1.97079Zm4.90734,3.74519a8.8422,8.8422,0,0,1-1.55591.77378,13.11353,13.11353,0,0,1-2.15491.5499l-1.82694.33779a12.03744,12.03744,0,0,0-3.68922,1.09783,3.66619,3.66619,0,0,0-1.89616,3.4074,3.55979,3.55979,0,0,0,1.15822,2.97141,4.403,4.403,0,0,0,2.81675.91518,8.38317,8.38317,0,0,0,4.84646-1.52105q2.216-1.52007,2.30171-5.54709Z"/><path d="M373.06919,431.82837q-3.644,3.04015-10.40925,3.04113h-8.64271v14.92479H345.4V408.28591H363.2226q6.16278,0,9.82744,3.21,3.66468,3.211,3.66418,9.94037Q376.71422,428.78627,373.06919,431.82837Zm-6.61987-14.95327a6.98263,6.98263,0,0,0-4.6157-1.38063h-7.81639v12.22244h7.81639a6.62976,6.62976,0,0,0,4.6157-1.49258q1.64748-1.49208,1.64821-4.73107Q368.09753,418.25427,366.44932,416.8751Z"/><path d="M400.07306,418.38143q.15467.01473.68983.04222v8.22293q-.76-.08544-1.35167-.11293-.59138-.028-.95741-.02848-4.84375,0-6.505,3.15406a12.27068,12.27068,0,0,0-.92942,5.46361v14.67145h-8.082v-30.695h7.65977v5.35069a16.97138,16.97138,0,0,1,3.2385-4.19591,8.815,8.815,0,0,1,5.85738-1.88634C399.84279,418.36768,399.97,418.37161,400.07306,418.38143Z"/><path d="M431.06418,446.03928q-3.88635,4.79736-11.79922,4.79687-7.9141,0-11.79922-4.79687a19.04187,19.04187,0,0,1,0-23.05738q3.88562-4.86805,11.79922-4.86855,7.91262,0,11.79922,4.86855a19.04379,19.04379,0,0,1,0,23.05738Zm-6.42054-4.43551q1.8861-2.50251,1.88634-7.11429,0-4.61177-1.88634-7.10054a7.13407,7.13407,0,0,0-10.82806,0q-1.90083,2.48926-1.90058,7.10054,0,4.61176,1.90058,7.11429a7.1086,7.1086,0,0,0,10.82806,0Z"/><path d="M437.54069,425.098v-5.717h4.28085v-8.56072h7.9411v8.56072h4.98442v5.717h-4.98442v16.22a3.65255,3.65255,0,0,0,.4787,2.3518q.47871.464,2.92869.46446.3653,0,.77428-.01473.408-.01326.80275-.04222v5.99878l-3.80165.14043q-5.68849.19737-7.77221-1.9708a5.86985,5.86985,0,0,1-1.35166-4.25286V425.098Z"/><path d="M479.9019,419.72082a12.486,12.486,0,0,1,5.304,4.54156,15.08076,15.08076,0,0,1,2.44557,6.34542,39.20183,39.20183,0,0,1,.26464,6.09207H465.56039q.18633,4.61913,3.20953,6.477a8.15305,8.15305,0,0,0,4.4252,1.15479,6.23282,6.23282,0,0,0,6.10828-3.52033h8.19395a10.02075,10.02075,0,0,1-2.97533,5.54709q-4.12423,4.47772-11.54784,4.47773a16.73089,16.73089,0,0,1-10.81186-3.77661q-4.68468-3.77663-4.68394-12.28922,0-7.97448,4.22831-12.23128a14.79921,14.79921,0,0,1,10.97634-4.25581A17.483,17.483,0,0,1,479.9019,419.72082Zm-12.00641,6.93361a8.33666,8.33666,0,0,0-2.13821,4.75072h13.827a6.69718,6.69718,0,0,0-2.13822-4.8499,7.03435,7.03435,0,0,0-4.76-1.6546A6.363,6.363,0,0,0,467.89549,426.65443Z"/><path d="M510.33575,430.10994a7.107,7.107,0,0,0-1.15723-3.09709,4.85782,4.85782,0,0,0-4.20573-1.85885,5.53727,5.53727,0,0,0-5.56133,4.027,16.70417,16.70417,0,0,0-.79048,5.67376,15.36137,15.36137,0,0,0,.79048,5.4214,5.367,5.367,0,0,0,5.41992,3.82963q2.82289,0,4.00836-1.52105a7.55367,7.55367,0,0,0,1.43955-3.94158h8.19494a13.42147,13.42147,0,0,1-2.64982,6.92674q-3.77808,5.26722-11.1904,5.26624-7.414,0-10.90907-4.39328-3.496-4.3923-3.49578-11.39171,0-7.89789,3.86156-12.29118,3.862-4.3923,10.65572-4.3923a16.05661,16.05661,0,0,1,9.45725,2.59041q3.67792,2.59089,4.355,9.15185Z"/><path d="M520.89574,425.098v-5.717h4.28085v-8.56072h7.9411v8.56072h4.98443v5.717h-4.98443v16.22a3.65253,3.65253,0,0,0,.47871,2.3518q.47869.464,2.92869.46446.3653,0,.77427-.01473.408-.01326.80276-.04222v5.99878l-3.80166.14043q-5.68848.19737-7.7722-1.9708a5.86985,5.86985,0,0,1-1.35167-4.25286V425.098Z"/><path d="M551.50635,415.4385h-8.13848v-7.40594h8.13848Zm-8.13848,3.66074h8.13848v30.695h-8.13848Z"/><path d="M584.87625,446.03928q-3.8856,4.79736-11.79921,4.79687-7.91264,0-11.79873-4.79687a19.04187,19.04187,0,0,1,0-23.05738q3.88562-4.86805,11.79873-4.86855,7.91262,0,11.79921,4.86855a19.04184,19.04184,0,0,1,0,23.05738Zm-6.42-4.43551q1.88535-2.50251,1.88634-7.11429,0-4.61177-1.88634-7.10054a7.13407,7.13407,0,0,0-10.82806,0q-1.9001,2.48926-1.90058,7.10054,0,4.61176,1.90058,7.11429a7.1086,7.1086,0,0,0,10.82806,0Z"/><path d="M619.25955,420.85989q3.01362,2.49222,3.01363,8.26417v20.67023h-8.22194v-18.67a8.58628,8.58628,0,0,0-.64319-3.7177q-1.1754-2.36553-4.47282-2.36554a5.54391,5.54391,0,0,0-5.5628,3.46435,11.96328,11.96328,0,0,0-.78262,4.67413v16.61474h-8.02555v-30.6381h7.77221v4.47675a13.59324,13.59324,0,0,1,2.91641-3.40739,10.10257,10.10257,0,0,1,6.25312-1.85787A11.76727,11.76727,0,0,1,619.25955,420.85989Z"/><path d="M656.16451,408.28591h9.81468l14.68519,41.50838h-9.4052l-2.73967-8.53224H653.23434L650.42,449.79429h-9.07232Zm-.5715,25.82257h10.63068L660.98,417.77556Z"/><path d="M700.48129,419.07076a9.64133,9.64133,0,0,1,4.72421,4.45024v-4.42176h7.82916v29.118q0,5.94183-1.99927,8.95546-3.43637,5.18033-13.17985,5.18082A17.96449,17.96449,0,0,1,688.253,460.045a8.52258,8.52258,0,0,1-4.11146-6.89924h8.72961a3.61753,3.61753,0,0,0,1.09882,2.02676q1.29471,1.09881,4.3648,1.09881,4.33633,0,5.80142-2.9007.95593-1.85886.95741-6.25115v-1.97178a9.7862,9.7862,0,0,1-2.47847,2.95668,9.96375,9.96375,0,0,1-6.22365,1.83037A11.77275,11.77275,0,0,1,686.944,445.781q-3.53505-4.15222-3.53407-11.24932a18.98245,18.98245,0,0,1,3.40249-11.50365,11.239,11.239,0,0,1,9.64676-4.66038A10.56758,10.56758,0,0,1,700.48129,419.07076Zm2.7328,22.00767q1.93543-2.12546,1.93544-6.77258,0-4.36431-1.83725-6.64589a5.99421,5.99421,0,0,0-4.92059-2.28109,5.80071,5.80071,0,0,0-5.80534,3.971,14.13556,14.13556,0,0,0-.84154,5.20929,11.936,11.936,0,0,0,.89751,4.75956,5.84838,5.84838,0,0,0,5.83283,3.88561A6.15938,6.15938,0,0,0,703.21409,441.07843Z"/><path d="M737.57676,418.38143c.10212.00982.33288.02356.68933.04222v8.22293q-.76-.08544-1.35117-.11293-.59213-.028-.95741-.02848-4.8445,0-6.50548,3.15406a12.27159,12.27159,0,0,0-.92893,5.46361v14.67145h-8.08251v-30.695h7.65928v5.35069a16.97162,16.97162,0,0,1,3.2385-4.19591,8.81684,8.81684,0,0,1,5.85739-1.88634C737.346,418.36768,737.47267,418.37161,737.57676,418.38143Z"/><path d="M762.97021,419.72082a12.48446,12.48446,0,0,1,5.30455,4.54156,15.08807,15.08807,0,0,1,2.44606,6.34542,39.27616,39.27616,0,0,1,.26414,6.09207H748.6287q.18707,4.61913,3.21,6.477a8.15592,8.15592,0,0,0,4.42569,1.15479,6.2327,6.2327,0,0,0,6.10778-3.52033h8.19347a10.02077,10.02077,0,0,1-2.97534,5.54709q-4.12422,4.47772-11.54784,4.47773a16.7305,16.7305,0,0,1-10.81136-3.77661q-4.68394-3.77663-4.68395-12.28922,0-7.97448,4.22832-12.23128a14.7984,14.7984,0,0,1,10.97633-4.25581A17.48065,17.48065,0,0,1,762.97021,419.72082Zm-12.00641,6.93361a8.33943,8.33943,0,0,0-2.13772,4.75072h13.827a6.69689,6.69689,0,0,0-2.13772-4.8499,7.03568,7.03568,0,0,0-4.76054-1.6546A6.36411,6.36411,0,0,0,750.9638,426.65443Z"/><path d="M795.04492,419.72082a12.48443,12.48443,0,0,1,5.30454,4.54156,15.08781,15.08781,0,0,1,2.44606,6.34542,39.27591,39.27591,0,0,1,.26415,6.09207H780.70341q.18707,4.61913,3.21,6.477a8.156,8.156,0,0,0,4.42569,1.15479,6.23274,6.23274,0,0,0,6.10779-3.52033h8.19346a10.02075,10.02075,0,0,1-2.97533,5.54709q-4.12423,4.47772-11.54784,4.47773a16.73052,16.73052,0,0,1-10.81137-3.77661q-4.68394-3.77663-4.68394-12.28922,0-7.97448,4.22831-12.23128a14.79843,14.79843,0,0,1,10.97634-4.25581A17.48065,17.48065,0,0,1,795.04492,419.72082Zm-12.00641,6.93361a8.3395,8.3395,0,0,0-2.13773,4.75072h13.827a6.69694,6.69694,0,0,0-2.13773-4.8499,7.03565,7.03565,0,0,0-4.76053-1.6546A6.36411,6.36411,0,0,0,783.03851,426.65443Z"/><path d="M845.41647,419.21216a8.92328,8.92328,0,0,1,3.57629,2.75931,8.82935,8.82935,0,0,1,1.74592,3.94256,27.27068,27.27068,0,0,1,.28182,4.53371l-.056,19.34655h-8.22292V430.25135a6.422,6.422,0,0,0-.56365-2.87322,4.00364,4.00364,0,0,0-3.94256-2.13968,4.6126,4.6126,0,0,0-4.58968,2.7593,8.668,8.668,0,0,0-.64809,3.52032v18.27622h-8.08152V431.51807a10.26748,10.26748,0,0,0-.56365-3.97006q-1.01337-2.22561-3.971-2.22512-3.43489,0-4.61815,2.22512a8.56583,8.56583,0,0,0-.64711,3.77269v18.47359h-8.13848v-30.6381h7.80069v4.47675a12.93163,12.93163,0,0,1,2.81527-3.40739,11.1447,11.1447,0,0,1,11.74325-.25335,9.01848,9.01848,0,0,1,2.64736,3.68922,10.20778,10.20778,0,0,1,3.91409-3.971,11.9472,11.9472,0,0,1,5.51959-1.26673A10.69039,10.69039,0,0,1,845.41647,419.21216Z"/><path d="M878.40046,419.72082a12.4844,12.4844,0,0,1,5.30455,4.54156,15.08807,15.08807,0,0,1,2.44606,6.34542,39.27616,39.27616,0,0,1,.26414,6.09207H864.059q.18705,4.61913,3.21,6.477a8.156,8.156,0,0,0,4.42569,1.15479,6.2327,6.2327,0,0,0,6.10778-3.52033h8.19347a10.02071,10.02071,0,0,1-2.97534,5.54709q-4.12422,4.47772-11.54784,4.47773a16.73052,16.73052,0,0,1-10.81136-3.77661q-4.68394-3.77663-4.68395-12.28922,0-7.97448,4.22832-12.23128a14.79841,14.79841,0,0,1,10.97634-4.25581A17.48063,17.48063,0,0,1,878.40046,419.72082Zm-12.00641,6.93361a8.33943,8.33943,0,0,0-2.13772,4.75072h13.827a6.69689,6.69689,0,0,0-2.13772-4.8499,7.03566,7.03566,0,0,0-4.76054-1.6546A6.36412,6.36412,0,0,0,866.39405,426.65443Z"/><path d="M915.22589,420.85989q3.01363,2.49222,3.01363,8.26417v20.67023h-8.22194v-18.67a8.58628,8.58628,0,0,0-.64319-3.7177q-1.1754-2.36553-4.47282-2.36554a5.54391,5.54391,0,0,0-5.5628,3.46435,11.96328,11.96328,0,0,0-.78262,4.67413v16.61474H890.5306v-30.6381h7.77221v4.47675a13.593,13.593,0,0,1,2.91642-3.40739,10.10254,10.10254,0,0,1,6.25311-1.85787A11.76727,11.76727,0,0,1,915.22589,420.85989Z"/><path d="M922.54836,425.098v-5.717h4.28035v-8.56072h7.94111v8.56072h4.98442v5.717h-4.98442v16.22a3.655,3.655,0,0,0,.47919,2.3518q.47871.464,2.9282.46446.36677,0,.77477-.01473.408-.01326.80226-.04222v5.99878l-3.80116.14043q-5.68849.19737-7.77221-1.9708a5.86992,5.86992,0,0,1-1.35216-4.25286V425.098Z"/><path d="M962.98739,418.76145a60.36051,60.36051,0,0,1,6.50449-11.15113h6.05476l-1.71744,3.154a46.93418,46.93418,0,0,0-4.92846,13.62959,53.89505,53.89505,0,0,0-.90143,10.19372,48.1581,48.1581,0,0,0,2.50694,15.85471,72.29349,72.29349,0,0,0,5.18081,10.98222h-5.94183L967.746,458.6928a36.59692,36.59692,0,0,1-4.139-7.37745,42.01318,42.01318,0,0,1-3.91507-17.23436A38.22964,38.22964,0,0,1,962.98739,418.76145Z"/><path d="M1005.10557,409.18735a13.71188,13.71188,0,0,1,7.074,5.26526,18.46912,18.46912,0,0,1,2.95962,6.70285,32.12857,32.12857,0,0,1,.7895,6.87077,27.58274,27.58274,0,0,1-3.3259,14.02433q-4.50865,7.74324-13.92221,7.74373h-17.8962V408.28591h17.8962A21.822,21.822,0,0,1,1005.10557,409.18735Zm-15.90184,6.30712v27.09028h8.01082q6.148,0,8.57348-6.05378a21.32371,21.32371,0,0,0,1.32663-7.9136q0-6.33512-1.98847-9.72925-1.98994-3.39366-7.91164-3.39365Z"/><path d="M1050.30023,431.82837q-3.64405,3.04015-10.40975,3.04113h-8.64222v14.92479h-8.61767V408.28591h17.82255q6.16425,0,9.82843,3.21,3.66319,3.211,3.66369,9.94037Q1053.94526,428.78627,1050.30023,431.82837Zm-6.61939-14.95327a6.98674,6.98674,0,0,0-4.61619-1.38063h-7.81639v12.22244h7.81639a6.63358,6.63358,0,0,0,4.61619-1.49258q1.64675-1.49208,1.64773-4.73107Q1045.32857,418.25427,1043.68084,416.8751Z"/><path d="M1068.51753,408.28591h9.81468l14.68519,41.50838h-9.4052l-2.73966-8.53224h-15.28518l-2.81429,8.53224h-9.07232Zm-.5715,25.82257h10.63069l-5.24366-16.33292Z"/><path d="M1107.1743,418.76145a38.28786,38.28786,0,0,1,3.28957,15.31954,42.09411,42.09411,0,0,1-3.90722,17.23436,36.62213,36.62213,0,0,1-4.13306,7.37745l-1.99534,2.73181h-5.932a72.57956,72.57956,0,0,0,5.16314-10.98222,48.33962,48.33962,0,0,0,2.49712-15.85471,54.06641,54.06641,0,0,0-.89849-10.19372,47.06133,47.06133,0,0,0-4.90979-13.62959l-1.71156-3.154h6.044A60.42314,60.42314,0,0,1,1107.1743,418.76145Z"/></svg>