<svg id="Layer_1" data-name="Layer 1" xmlns="http://www.w3.org/2000/svg" viewBox="0 0 588.29999 257"><defs><style>.cls-1{fill:#009cde;}</style></defs><g id="Layer_2" data-name="Layer 2"><g id="Layer_1-2" data-name="Layer 1-2"><path class="cls-1" d="M249.71677,42.7h-.1l-8,41.8h-11l-10.4-51h8.8l7.2,39.3h.1l7.7-39.3h11.4l7.6,39.3h.1l7.5-39.3h8.5l-10.5,51h-11.2Z"/><path class="cls-1" d="M292.31677,46.2c7.7,0,16.5,4,16.5,19.3,0,15.8-8.8,19.4-16.5,19.4s-16.6-3.7-16.6-19.4C275.81677,50.2,284.71677,46.2,292.31677,46.2Zm0,32.4c5.8,0,7.2-6.7,7.2-13s-1.3-12.9-7.2-12.9-7.2,6.6-7.2,12.9S286.51675,78.6,292.31677,78.6Z"/><path class="cls-1" d="M313.31677,53c0-2.1-.1-4.1-.3-6.2h8.2c.1,2.3.3,4.6.3,6.9h.1c1.1-2.9,3.9-7.4,9.6-7.4a7.71914,7.71914,0,0,1,1.5.2V55a10.85539,10.85539,0,0,0-2.5-.4c-3.7,0-7.8,2.3-7.8,9.3V84.5h-9Z"/><path class="cls-1" d="M336.61676,29.7h9.1V84.4h-9.1Z"/><path class="cls-1" d="M382.61676,29.7V78c0,2.1.1,4.3.3,6.4h-8.5a56.32634,56.32634,0,0,1-.3-5.8h-.2a10.20284,10.20284,0,0,1-10,6.4c-9.3,0-13.2-8.9-13.2-19.3,0-12.3,4.9-19.4,13-19.4a10.07752,10.07752,0,0,1,9.7,6h.1V29.7Zm-16.3,48.6c5.3,0,7.1-5.8,7.1-12.8,0-7.3-2-12.6-7-12.6s-6.8,4.9-6.8,12.4C359.71677,74,361.11676,78.3,366.31677,78.3Z"/><path class="cls-1" d="M409.51675,33.5h9.4V54.2h15.1V33.5h9.3v51h-9.3V61.9h-15.1V84.4h-9.4Z"/><path class="cls-1" d="M476.41678,82.6a27.179,27.179,0,0,1-11.2,2.4c-12.1,0-17.4-8.7-17.4-18.8,0-11.2,5.9-19.9,15.5-19.9,8.1,0,15,4.7,15,20.1v1.8h-21.7c0,6.4,2.6,10.3,9.6,10.3,5.5,0,8.2-1.7,9.9-2.9Zm-6.9-20.2c0-6.6-2.2-10-6.3-10-4.8,0-6.7,5-6.7,10Z"/><path class="cls-1" d="M484.11676,49a27.36461,27.36461,0,0,1,11.9-2.8c11.7,0,14.4,5.7,14.4,15.1V77.7a48.87453,48.87453,0,0,0,.5,6.6h-8.2a17.68263,17.68263,0,0,1-.5-5.1h-.1c-2.3,3.1-5.1,5.7-10.5,5.7-5.8,0-11.2-4-11.2-11,0-10.2,8.3-12.8,19.8-12.8h1.8V59.7c0-3.7-1.8-7.2-7-7.2a17.73783,17.73783,0,0,0-10.3,3.7Zm17.8,17h-.8c-7.7,0-12.3,1.6-12.3,7.1a5.47344,5.47344,0,0,0,5.1,5.8h.7c5.4,0,7.4-4,7.4-10.7V66Z"/><path class="cls-1" d="M518.71677,29.7h9V84.4h-9Z"/><path class="cls-1" d="M538.11679,39.1l9-2.8V46.8h7.5v6.6h-7.5V73c0,4,1.5,5.2,4.1,5.2a7.7344,7.7344,0,0,0,3.4-.8v6.4a15.79752,15.79752,0,0,1-6.1,1.2c-6.7,0-10.5-3.1-10.5-11V53.5h-6V46.9h6V39.1Z"/><path class="cls-1" d="M557.51675,29.7h9v22h.2c1.6-2.3,3.7-5.4,9.3-5.4,8.5,0,11.1,6.3,11.1,13.9V84.4h-9V61.9c0-5.8-1.5-8.2-5.2-8.2-4.7,0-6.4,4-6.4,8.8V84.4h-9Z"/><path class="cls-1" d="M240.91676,98c10.6,0,20.3,7.9,20.3,26.2s-9.7,26.2-20.3,26.2-20.3-7.9-20.3-26.2S230.31677,98,240.91676,98Zm0,45.3c5.9,0,10.7-5,10.7-19.1s-4.8-19-10.7-19-10.7,5-10.7,19,4.8,19.1,10.7,19.1Z"/><path class="cls-1" d="M265.01675,118.3c0-2.1-.1-4.1-.3-6.2h8.2c.1,2.3.3,4.6.3,6.9h.1c1.1-2.9,4-7.4,9.6-7.4a7.71912,7.71912,0,0,1,1.5.2v8.5a10.87185,10.87185,0,0,0-2.6-.4c-3.7,0-7.8,2.3-7.8,9.3v20.6h-9Z"/><path class="cls-1" d="M288.81677,155.6a23.0156,23.0156,0,0,0,11.1,3.2c8.5,0,9.9-5.9,9.9-11.8v-3.6h-.1c-1.5,2.9-4,6.4-9.9,6.4-5.2,0-13.1-3.5-13.1-18.7,0-10.4,3.7-19.5,13.6-19.5,5.5,0,8,3.1,9.9,6.4h.3c0-2,.2-3.9.3-5.8h8.2c-.1,2-.3,3.9-.3,5.9v27.7c0,11.8-3.6,20.1-17.4,20.1a37.70944,37.70944,0,0,1-12.9-2.3Zm13.1-12.5c5.7,0,8-4.1,8-12.6,0-7.9-3-12.1-7.3-12-4.8.1-6.6,4.5-6.6,12.1C296.01675,139.4,298.81677,143.1,301.91678,143.1Z"/><path class="cls-1" d="M326.71677,114.3a26.02775,26.02775,0,0,1,11.9-2.8c11.7,0,14.4,5.7,14.4,15.1V143a48.87668,48.87668,0,0,0,.5,6.6h-8.2a17.6834,17.6834,0,0,1-.5-5.1h-.1c-2.3,3.1-5.1,5.7-10.5,5.7-5.8,0-11.2-4-11.2-11,0-10.2,8.3-12.8,19.8-12.8h1.8V125c0-3.7-1.8-7.2-7-7.2a17.73785,17.73785,0,0,0-10.3,3.7Zm17.8,17h-.8c-7.7,0-12.3,1.6-12.3,7.1a5.47342,5.47342,0,0,0,5.1,5.8h.7c5.4,0,7.4-4,7.4-10.7Z"/><path class="cls-1" d="M360.31677,118.3c0-2.1-.1-4.1-.3-6.2h8.5c.1,1.9.3,3.9.3,5.8h.1c1.3-2.3,3.9-6.3,10-6.3,8.5,0,11.1,6.3,11.1,13.9v24.2h-9.1V127.1c0-5.8-1.5-8.2-5.2-8.2-4.7,0-6.4,4-6.4,8.8v21.9h-9Z"/><path class="cls-1" d="M396.91678,96.1h9.4V105h-9.4Zm.2,16h9v37.6h-9Z"/><path class="cls-1" d="M413.21677,141.9l16.1-22.9h-15.6v-6.9h24.6v7.7l-15.8,23h16.3v6.9h-25.7v-7.8Z"/><path class="cls-1" d="M445.71677,114.3a26.02775,26.02775,0,0,1,11.9-2.8c11.7,0,14.4,5.7,14.4,15.1V143a48.87668,48.87668,0,0,0,.5,6.6h-8.2a17.6834,17.6834,0,0,1-.5-5.1h-.1c-2.3,3.1-5.1,5.7-10.5,5.7-5.8,0-11.2-4-11.2-11,0-10.2,8.3-12.8,19.8-12.8h1.8V125c0-3.7-1.8-7.2-7-7.2a17.73785,17.73785,0,0,0-10.3,3.7Zm17.8,17h-.8c-7.7,0-12.3,1.6-12.3,7.1a5.47342,5.47342,0,0,0,5.1,5.8h.7c5.4,0,7.4-4,7.4-10.7v-2.2Z"/><path class="cls-1" d="M481.81677,104.4l9-2.8v10.5h7.5v6.6h-7.5v19.5c0,4,1.5,5.2,4.1,5.2a6.57348,6.57348,0,0,0,3.4-.8V149a12.82428,12.82428,0,0,1-6.1,1.2c-6.7,0-10.5-3.1-10.5-10.9V118.7h-6v-6.6h6Z"/><path class="cls-1" d="M503.81677,96.1h9.3V105h-9.3Zm.2,16h9.1v37.6h-9Z"/><path class="cls-1" d="M534.61679,111.5c7.7,0,16.5,4,16.5,19.3,0,15.8-8.8,19.4-16.5,19.4s-16.6-3.6-16.6-19.4C518.11679,115.6,527.01675,111.5,534.61679,111.5Zm0,32.4c5.8,0,7.2-6.7,7.2-13s-1.3-12.9-7.2-12.9-7.2,6.6-7.2,12.9S528.81674,143.9,534.61679,143.9Z"/><path class="cls-1" d="M558.31674,118.3c0-2.1-.1-4.1-.3-6.2h8.5c.1,1.9.3,3.9.3,5.8h.1c1.3-2.3,3.9-6.3,10-6.3,8.5,0,11.1,6.3,11.1,13.9v24.2h-9V127.1c0-5.8-1.5-8.2-5.2-8.2-4.7,0-6.4,4-6.4,8.8v21.9h-9Z"/><g id="g640"><path id="path642" class="cls-1" d="M165.61676,33c3.9,4.7,10.7,7.4,14.7,12.1-2.9-13.8-13.5-25.1-26.1-27.8,6.2,4.6,7.5,11,11.4,15.7m-151.2,35c8.7-18.9,21.6-14.9,27.1-32.8-3.2,5.4-17.3,7.7-23.8,21.8,3.4-8.4,1.7-21.2,7.3-28.2-16.9,12.6-9.7,32.8-10.6,39.2m15.6,45.2c1.6,7.3-3,18,4.3,28.1-7.5-8.4-23.5-10.6-30-23.4,8.1,31.3,29.3,24.9,38.8,31.7-7.8-11.3-1.4-18.8-13.1-36.4m-2.4,19.7c-4.7-17.5,3.6-23.6-2.7-40.4-.6,9.5-7,14.1-2.7,31.4-7.5-14.7-19.1-20.2-22.5-30.2.2,27.5,22.3,31.6,27.9,39.2m33.9,29.3c-6.5-9-2.1-14.1-20.3-30.4,3.9,6-.1,13.5,12.2,25.1-12-7.1-28.7-4.1-36.7-13.6,13.8,26.4,38,15.6,44.8,18.9m88.5-5.3c12.3-11.7,8.3-19.2,12.2-25.1-18.3,16.3-13.8,21.4-20.4,30.4,6.9-3.3,31.1,7.5,44.8-18.9-7.9,9.6-24.6,6.5-36.6,13.6m19.1-15.6c7.3-10.1,2.7-20.7,4.2-28.1-11.7,17.6-5.3,25.1-13.1,36.4,9.6-6.8,30.7-.4,38.8-31.7-6.5,12.8-22.4,15-29.9,23.4m-29.2,22.2a89.51456,89.51456,0,0,0-20-3,49.10539,49.10539,0,0,0-18.2,3.1,49.10629,49.10629,0,0,0-18.2-3.1,89.51465,89.51465,0,0,0-20,3c-11,2.9-20.5,5.2-28.8,1,7.9,7,17.2,9.6,30.6,8.1,11.1-1.2,20.1-6.8,30.6-6.7h.4a55.50624,55.50624,0,0,0-17.3,13.5l5.1.7s5.3-10.7,17.6-13.5c12.3,2.8,17.6,13.5,17.6,13.5l5.1-.7a55.50613,55.50613,0,0,0-17.3-13.5h.4c10.5-.1,19.5,5.5,30.6,6.7,13.4,1.4,22.6-1.1,30.6-8.1-8.3,4.2-17.8,1.9-28.8-1m-114.2-90c-4.5,8.7-11.6,10.7-10.8,28.6-3.8-15.9-12.9-21.9-12.8-32-6.3,26.6,10.5,29.7,14.9,40.9-.7-16,9.5-19.2,8.7-37.5m6.3-20.5c-1.6,2.2-2.7,3.2-6.9,6.6a33.674,33.674,0,0,0-12.2,20c.4-9.8-5.6-23.8-1.6-34-15.5,21.9.9,35,1.5,43,3.9-15.3,13.2-15.4,19.2-35.6m158.5,26.6a34.16232,34.16232,0,0,0-12.2-20c-4.2-3.5-5.3-4.4-6.9-6.6,6,20.2,15.3,20.3,19.3,35.6.6-7.9,17-21,1.5-43,4,10.2-2,24.2-1.7,34m13.2,14.1c-3.4,10.1-15,15.5-22.5,30.2,4.3-17.3-2.1-21.9-2.7-31.4-6.3,16.8,2,22.9-2.7,40.4,5.6-7.6,27.7-11.7,27.9-39.2m-26-20.2c-.9,18.3,9.4,21.5,8.7,37.5,4.3-11.1,21.2-14.3,14.9-40.9.1,10.2-9,16.1-12.8,32.1.8-18.1-6.2-20-10.8-28.7M37.81676,33c3.9-4.7,5.2-11.1,11.4-15.7-12.7,2.7-23.3,13.9-26.2,27.7,4-4.7,10.9-7.4,14.8-12m124.2,2c5.5,18,18.4,14,27.1,32.8-.9-6.3,6.3-26.6-10.6-39,5.7,6.9,4,19.8,7.3,28.2-6.6-14.1-20.7-16.4-23.8-22m-44,10.3a41.40886,41.40886,0,0,0-10.3-2.8v2.3a43.00491,43.00491,0,0,1,9.5,2.6,6.04975,6.04975,0,0,0,.8-2.1m-2.6-22.3.7-.6-1.3-.6-3.5-.1-.9.6-2-.2v.5a32.91,32.91,0,0,1,3.6.4l1.7-.1Zm-6.6,74.6c0-.6-.8-1.2-1.9-1.7h-.2c0,.5-.1,2.8-.1,4,1.3-.7,2.2-1.3,2.2-2.3m-40.1-43.9c.1-.4.2-.9.3-1.3a3.32892,3.32892,0,0,1-1.4.1Zm-16.1-16.1,8.2,8.2a56.64374,56.64374,0,0,0-15.7,38.4h-11.6a67.92239,67.92239,0,0,1,19.1-46.6m-5,63.8-.7-.1-.7-.7-3.3-.3,1,1.4-3-.6.8-.7-.7-.7-2.2.9-.8,1.4.3,3.3,2.5,6,1.2,1.9.7.2-1.9-3.6-.4-1.8.4-.4-.3-1,1.1.2,1.8,2.6.4.2v-1.9l.7.4.2,1,1.8.5.8-.6.3.2v1.4l.8,1,1,.2,2.2,3.6,1.3.4.4-1.7a56.8933,56.8933,0,0,0,8,10.3l-8.2,8.2a67.67156,67.67156,0,0,1-19.6-46.1h11.6a54.08265,54.08265,0,0,0,2.5,14.9m11.4-15a20.41392,20.41392,0,0,0,.3,3.4l-1.4.3-.3,1.4-3,3.8.1,5.2-3,1h-1.7a54.96966,54.96966,0,0,1-2.6-15.1Zm2.6,32.7,2.6,1.5.5.4-1.9,1.9a33.29,33.29,0,0,1-2.5-2.8Zm10.6-61.9,8.2,8.2a27.03111,27.03111,0,0,0-4.3,6.3h-.6l-1.2.3h-.4l-1.2,1.1,1.6-.2,1.4-.3-.3.4-1.2.8h-.6l-1.8,1.4-1.7-.2-2.5,4.7.5.9-1.4,1.6-.2,2h-5.2a39.80862,39.80862,0,0,1,10.9-27m8.4,33.9.6-.3,1.5,1.1-.7.5,1.7,1.1-.1-1.2.9-1.5,1,1,1,1.4-1.8.5.8,1.6,1.2-.7-.2-.5.9-.6.5-2.5a16.19,16.19,0,0,0,2.7,4.1l-8.2,8.2a26.95736,26.95736,0,0,1-7.2-15.4l1.7,1.8h1.6Zm-11.8-8.7.2-2.3,1.4-.8,2.5.4.4.4c-.2,1.3-.3,2.7-.4,4h-2.8Zm-3.8,8-1.1,1.7h-1.9l-.1-.1a51.35617,51.35617,0,0,1-.6-5.5h3.5l-.8,2.8Zm7.7,22.6c-.8-.9-1.7-1.8-2.4-2.7l.4-2.9-1.2-2.8-.3-4.4-1.4-2.7.3-1.7-1.7-3.2-1.4-.7.6-1.7-.6-1.3.6-1.5h1.6l.6-.9h2.7l.4.8-.6,2.7-.3.5,1,2.2-.7.4-.5-.6-.2.2.5,1.3.8,1.5h.4l.2-1.4-.4-.5v-.9l-.1-1.9.6-3.4-.6-.9h1.9a28.89683,28.89683,0,0,0,8,18.4Zm69.8,11.2a56.04344,56.04344,0,0,0,15.9-37.8h11.6a67.874,67.874,0,0,1-19.4,46Zm-3.2-3.2.9-1-.9-4.5-.6-.2.4-.8-1.9-.6-.4,1.6-.2,2-.4.4-3.5-3.5a42.62625,42.62625,0,0,0,11.9-28h11.6a53.85865,53.85865,0,0,1-15.3,36.2Zm-10.2,10.9,1.1-2.3-.4-1,1.6-1.4v-.8l-1.4-.9,1.1-2.3,1.7-2.2-1.7-1.8h-1.3l-.8-1.3c.7-.6,1.4-1.2,2-1.8l8.2,8.2a50.43261,50.43261,0,0,1-10.1,7.6m-1.6-22.6-1.1-1.1.8-1.1,1.1-2.2-.4-.6.7-1.6-.1-1.5-.4-1.5-1-.3-.4.8-.6-.2a34.97966,34.97966,0,0,0,2.4-4.2l1-.4.6-.8.3.3.7-.8-.6-.7.5-.1.9.4h1.8l1.1-.6,2.8-.8-.5-.9-.2-1.1,1.5.7.6-.3-.3-1.2-1.9.7-2-.4-1.6-3.2h8.9a40.55413,40.55413,0,0,1-11.2,26.4l-1.2-1.2.5-1.6-.9-3.6Zm-4.2-43.6,8.2-8.2a48.26068,48.26068,0,0,1,5.1,6.8l-1,.3.1,1.8,3,1.9a32.38034,32.38034,0,0,1,1.9,5.2l-.5.8-1.1.8-.3,1.7-.8.4-.6.8-.6-.3h-1.1l.6-.9.5-2.3.8-.5-2.2-2.1-1.6.6-.4,1.6-1,1.1-1.1-.9-.4-1,.6-.4.3.6.5-.2-.2-1h-.7v.4l-.5.1-2.5-3-.9-.7.3-.3.8-.3-.8-.3s-.9.2-1,.2l.5.7h-1.3a17.9591,17.9591,0,0,0-2.6-3.4m1.3,44.7-2.5-.7-.8.3-1.4-1.1-1.3-.5c.7-.5,1.3-1,1.9-1.5l2.1,1.5,1.6.8.8.8Zm-4.4-38.5,1-.2v-.2l-1-.7.3-2.2,1.2-1.3a30.12563,30.12563,0,0,1,2.2,2.8l-.4,1.3-1.1-.8-.9.2.4.8h.4l-.5,1.2-.3-.5Zm13.9,8,2.1-1.1,2.1-.3.5-1,1.2-.7.5-1,.4-1.7c.2.6.3,1.2.5,1.8l-1.1,3.3v1.1l1.4-2.3c.3,2,.5,4.1.6,6.1h-10.2l-.2-.9,1.2-.9.2-.6.5-.4,1.4-.2.1-.6Zm2.3-27.2,2.8.1.7.8-.3,1.2,3.9,2.4.8-.1,4.9,5.7,2-.7a54.44568,54.44568,0,0,1,5,22.1h-11.6a37.21367,37.21367,0,0,0-1.1-8.8l.5-.7.7-3.7-.5-3.9-1.4-4.5-3.2-4.7.8.4.4-.4-2.6-1.8-.2.6,2.6,3.7,1.5,3,1,3,.3,2,.5,3.4-1,.1s-1.1-2.1-1.5-3l.5-.8-1-1.4V65.4l-.7-.9-.9.1a9.49709,9.49709,0,0,0-1-1.7l.6.3.2-.2-.3-.7.8-.4-.3-.4-1.1.4.4-1.8-.7-.4-.6,1.4a55.63526,55.63526,0,0,0-4.2-5.4Zm14.8-14.9a68.071,68.071,0,0,1,18.9,46.4h-11.6a56.30425,56.30425,0,0,0-6-24.8l.1-.2.8.4.2-.6-2.1-3.6-2.5-3.4-2.9-2.4c-1-1.2-2-2.4-3.1-3.6Zm-34.2,68.9h0m-15.2,48.7a70.63586,70.63586,0,0,0,7.1-140.9l-.1.4c-.1.7-.3,1.3-.4,1.9a68.03732,68.03732,0,0,1,41.1,19.2l-7.8,7.8.3-1.4-1-.5-1.3.1.3-.9-.9-3.2-1.9-2.1-6.1-3.2-.5.6-1.1.3a17.85652,17.85652,0,0,1,3.2,10.2v1.4l3,3.8-1.4.3.9,1.4-2.7,2.7-1.1-2a18.69948,18.69948,0,0,1-2,4l.6.5-8.3,8.2c-.5-.5-1-.9-1.5-1.4a24.42558,24.42558,0,0,1-2.4,1l.7.5-.4.4-1,.5-.4,1-.6-.6-1.7.6.5.8,1.2-.3.8.1.1-.4.6-.3.2-.3,1.1-.3h.8l.5.4-3.2,3.3-.2-.3-3.4.6-.8.8-.7.1,2.1-2-.8-.4-2,2.6.6-.1v1l.7.3.1,1-1.2-.2-1.2.2-3-1.5s-.2,8-.2,12c7,2.4,14.5,5.8,14.5,14.8a11.13685,11.13685,0,0,1-5.1,9.5h0l-.2.1h0l-.2.2c-2.8,1.9-6.5,2.9-9.7,3.9l-.1,6.3c5.1,2.5,11.2,6.2,10.6,16.6-.1,2.6-1.1,3.3-1.9,3.5h0a57.26752,57.26752,0,0,1-9.1,1.4v2.3a56.74025,56.74025,0,0,0,35.2-15.5l8.2,8.2a68.19229,68.19229,0,0,1-94.4.2l8.2-8.2a57.36989,57.36989,0,0,0,34.8,15.3v-2.3a53.81164,53.81164,0,0,1-33-14.7l2.1-2.2,3,.3,1.6-1.7,4.2.2.6-1.5-.2-.6a42.71885,42.71885,0,0,0,21.4,8.5v-2.3a40.67914,40.67914,0,0,1-23-10.5l8.2-8.2a28.09358,28.09358,0,0,0,6.7,4.5,8.26386,8.26386,0,0,1,.8-2.2,29.43227,29.43227,0,0,1-5.8-3.9l8.2-8.2a15.234,15.234,0,0,0,4.3,2.4V96.8a12.03,12.03,0,0,1-2.7-1.6l2.3-2.3a22.50312,22.50312,0,0,1-2.4-.8l-1.6,1.6a13.67144,13.67144,0,0,1-2-2.9,23.21512,23.21512,0,0,1-4.1-2.2,15.88365,15.88365,0,0,1-7.6-13.9,16.71689,16.71689,0,0,1,3.3-10.6l-8.2-8.2a40.618,40.618,0,0,1,21.9-10.8V42.8a42.841,42.841,0,0,0-23.5,11.5l-1.4-1.4a19.01786,19.01786,0,0,0-1.1,2.1l.9.9a42.58884,42.58884,0,0,0-11.6,28.5h-11.7a54.47237,54.47237,0,0,1,15-36.8l3.7,3.7h.5a7.27448,7.27448,0,0,0,2.1-.6l-4.7-4.7a56.26979,56.26979,0,0,1,8.1-6.5,8.50919,8.50919,0,0,1,.6-1.7,18.76224,18.76224,0,0,1,1.8-2.4,54.9598,54.9598,0,0,0-12,8.9l-8.2-8.2a68.43256,68.43256,0,0,1,40.7-19,1.21332,1.21332,0,0,0-.1-.5c-.1-.6-.2-1.1-.3-1.8a70.48415,70.48415,0,0,0,7.2,140.6m34.7-122.1-.7-1.1-1.5-.8-1.2.9,1.5.8,1.7,1.2Zm-7,32.8.1.9,2-.6.6-1.2-1.4-1.8.7-1.1,1.9,1.3.3-.3-.4-.3-.4-.8.8-.4-.8-1-1.8.9-.6,1.1-.4,1,.8,1.3-.3.6Zm-83.8,52,.1-.5-1-2.3-1.2-.5Zm47.3-43.6c0,2,1.2,3.3,3.3,4.5v-.9l-1.3-1.4.7-1.3.6-.2c-.1-2.3-.1-4.8-.1-5.2h-.1c-2,1.2-3,2.6-3.1,4.5"/></g><g id="g644"><path id="path646" class="cls-1" d="M106.01677,124.8c3.6,1.8,7,4.4,8.4,9.2.6-8-3.9-11.4-8.3-13.8l-.1,4.6"/></g><g id="g648"><path id="path650" class="cls-1" d="M130.21677,43.7c0-7.3-5.3-15.3-18.2-18.1-1.3-.2-2.6-.4-3.9-.5,0,1.1-.1,3.6-.1,3.6,0,.8-.1,3.7-.1,4.3.8.1,1.7.2,2.5.3,7.5,1.8,10.2,6.1,10.2,10.3,0,6.9-5.9,9.5-13.1,11.5l-2.4.6c-2.2.5-4.5,1.1-6.7,1.7a21.71786,21.71786,0,0,0-2.4.7c-8,2.4-14.9,6.3-14.9,16.2s7.9,13.5,15.6,15.9c0-2.8-.1-5.7-.2-8.5-3.5-1.6-5.8-3.7-5.8-7.2s2.2-5.5,5.5-7q1.05-.45,2.4-.9c1.9-.7,4.1-1.2,6.3-1.8l2.4-.6c10.8-2.6,23-6,22.9-20.5"/></g><g id="g652"><path id="path654" class="cls-1" d="M91.31676,113c0,4,2.9,6.1,5.8,7.8,0-.7-.1-6.8-.1-6.9a3.16033,3.16033,0,0,1,2.2-2.4,37.98259,37.98259,0,0,1,4.7-1.8c.9-.3,1.6-.6,2.4-.8,5.9-1.8,12.7-4,12.7-11.2s-5.8-10.1-12.2-12.3c-.1,2.3-.1,5.6-.2,7.9,2.7,1,4.5,2.3,4.5,4.4,0,2.6-2.7,4-4.7,4.8-.8.3-2,.7-2.4.8-1.6.5-3.2,1-4.8,1.6a24.42558,24.42558,0,0,0-2.4,1c-2.6,1.4-5.5,3.5-5.5,7.1"/></g><g id="g656"><path id="path658" class="cls-1" d="M95.31676,26.2a48.11648,48.11648,0,0,0-7.1,2.9c-2.5.8-6.1,1-9.8,5-1.2,1.4-2.3,2.9-3.4,4.4-1.1,1.6-1.2,4.2-2,5.5a4.64725,4.64725,0,0,0-.9,3.2h0a6.00269,6.00269,0,0,1-1.3,2.5,5.19795,5.19795,0,0,1-4.8,1.8c1.7.8,4-.3,4-.3a20.24671,20.24671,0,0,0-.9,3.3c1.9-4.3,3.6-5.8,4.2-6.3.8.2,2.5.1,5.6-1.7,3.5-2,8.8-5.3,10.3-7.4a13.73253,13.73253,0,0,1,6.2-4.7c0-3-.1-5.8-.1-8.2m-14.8,13.3-1.8.4,2.2-3.6,2.5.1-2.9,3.1"/></g><g id="g660"><path id="path662" class="cls-1" d="M102.61677,112.5c-.3.1-1.2.5-1.8.7s-1.3.5-1.3.7c0,0,.6,30.8.6,31.4,0,6.3,3.2,6.4,3.2,0,0-.4.7-33.3.7-33.3s-.9.3-1.4.5"/></g><g id="g664"><path id="path666" class="cls-1" d="M99.21677,102.3c1-.3,2-.7,2.9-.9.7-.2,1.3-.4,2-.6,0-1.9.6-28.7.7-33.5a63.20354,63.20354,0,0,0-6.2,1.8c.1,3.6.6,30.3.6,33.2"/></g><g id="g668"><path id="path670" class="cls-1" d="M101.91676,0c-9,0-5.2,13.4-4.5,17.8,0,.2.7,30.3.9,37.2,1.4-.4,2.7-.7,4.1-1l2.7-.7c.1-6.7.8-35.4.8-35.6.6-4.6,5.3-17.7-4-17.7"/></g></g></g><path d="M119.17236,208.57324a15.90924,15.90924,0,0,1,11.87842-4.77148q9.6482,0,14.10938,6.39648a13.94217,13.94217,0,0,1,2.645,7.209H139.731a11.01751,11.01751,0,0,0-1.97754-4.19434q-2.15772-2.51659-6.395-2.5166a7.88029,7.88029,0,0,0-6.80615,3.55273q-2.491,3.55225-2.49073,10.05371,0,6.501,2.62842,9.73926a8.23789,8.23789,0,0,0,6.68018,3.23731,7.56936,7.56936,0,0,0,6.33447-2.7793,12.19411,12.19411,0,0,0,2-4.48242h8.022a17.40546,17.40546,0,0,1-5.30371,10.27637,15.43391,15.43391,0,0,1-10.93164,3.959q-8.24707,0-12.96777-5.34863-4.71973-5.373-4.72022-14.7334Q113.80322,214.05175,119.17236,208.57324Z"/><path d="M184.00928,239.74316q-4.37842,4.51026-12.66211,4.50977-8.28442,0-12.6626-4.50977-5.87256-5.53125-5.87207-15.93847,0-10.61865,5.87207-15.93946,4.37769-4.50878,12.6626-4.50976,8.28369,0,12.66211,4.50976,5.84546,5.32179,5.84619,15.93946Q189.85547,234.2124,184.00928,239.74316Zm-5.04688-5.87207q2.81836-3.53906,2.81836-10.0664,0-6.50244-2.81836-10.05469a9.21168,9.21168,0,0,0-7.61523-3.55176,9.333,9.333,0,0,0-7.65528,3.53906q-2.85791,3.53907-2.85742,10.06739,0,6.52734,2.85742,10.0664a9.333,9.333,0,0,0,7.65528,3.53907A9.22275,9.22275,0,0,0,178.9624,233.87109Z"/><path d="M218.62744,204.53516h8.38916l-13.17431,38.64257h-7.62842L193.146,204.53516h8.625l8.38867,29.33593Z"/><path d="M239.19385,243.17773h-8.02246V204.53516h8.02246Z"/><path d="M269.38623,205.375a12.76287,12.76287,0,0,1,6.58545,4.90234,17.19312,17.19312,0,0,1,2.75488,6.23926,29.93058,29.93058,0,0,1,.73487,6.39649,25.67,25.67,0,0,1-3.0962,13.05566q-4.19751,7.20849-12.96093,7.209H246.74414V204.53516H263.4043A20.37381,20.37381,0,0,1,269.38623,205.375Zm-14.80371,5.87207V236.4668h7.457q5.72388,0,7.98193-5.63672a19.8496,19.8496,0,0,0,1.23438-7.36621q0-5.89893-1.85107-9.05762-1.85157-3.15967-7.36524-3.15918Z"/><path d="M282.65918,224.669h14.62793v7.0791H282.65918Z"/><path d="M303.0293,216.96191V211.876a32.88059,32.88059,0,0,0,4.94238-.47168,6.96735,6.96735,0,0,0,3.66113-1.99219,6.57047,6.57047,0,0,0,1.46387-2.72656,6.24861,6.24861,0,0,0,.28809-1.52051H319.624v38.01269h-7.65527V216.96191Z"/><path d="M334.291,208.63867a11.94279,11.94279,0,0,1,9.16308-3.78808q8.67627,0,11.90137,7.68066a29.90683,29.90683,0,0,1,1.835,11.45605,32.61748,32.61748,0,0,1-1.75586,11.50879q-3.356,8.7832-12.32129,8.78223a12.56354,12.56354,0,0,1-7.68164-2.5293,9.97253,9.97253,0,0,1-3.90625-7.37988h7.44531a4.49486,4.49486,0,0,0,1.416,2.72656,4.38253,4.38253,0,0,0,3.06738,1.04883q3.69581,0,5.19043-4.08984a23.91883,23.91883,0,0,0,1.02246-6.58008,8.07791,8.07791,0,0,1-2.17578,1.96582,9.87836,9.87836,0,0,1-5.165,1.25879,11.74222,11.74222,0,0,1-8.04785-3.13281q-3.51416-3.1333-3.5127-9.03125A13.94352,13.94352,0,0,1,334.291,208.63867Zm12.57031,15.08692q2.543-1.62452,2.543-5.63672a7.96472,7.96472,0,0,0-1.50684-5.11133,4.99825,4.99825,0,0,0-4.12891-1.8877,5.13358,5.13358,0,0,0-3.27734,1.07422q-2.15039,1.67871-2.14941,5.68946a7.91573,7.91573,0,0,0,1.376,5.07226,5.13777,5.13777,0,0,0,4.23438,1.69141A5.21854,5.21854,0,0,0,346.86133,223.72559Z"/><path d="M387.11621,204.53516H396.252l13.67188,38.64257H401.168l-2.54981-7.94335H384.3877l-2.61915,7.94335h-8.44628Zm-.53223,24.04h9.89649l-4.88184-15.20508Z"/><path d="M438.26758,217.66992q3.49512,3.69581,3.49609,10.85352,0,7.5498-3.417,11.50879a11.094,11.094,0,0,1-8.7998,3.958,9.22594,9.22594,0,0,1-5.69922-1.7041,10.99647,10.99647,0,0,1-2.42774-2.752V254.4248h-7.39258V214.60254h7.15625v4.2207a12.02169,12.02169,0,0,1,2.58594-2.93652,9.54209,9.54209,0,0,1,5.96289-1.91309A11.299,11.299,0,0,1,438.26758,217.66992Zm-5.73438,5.374a5.31659,5.31659,0,0,0-4.93945-2.543,5.61785,5.61785,0,0,0-5.6416,3.85351,14.47,14.47,0,0,0-.79492,5.19141q0,4.98047,2.67285,6.999a6.13194,6.13194,0,0,0,3.76172,1.17969,5.4708,5.4708,0,0,0,4.80859-2.41113,12.63588,12.63588,0,0,0,.13281-12.26953Z"/><path d="M471.06348,217.66992q3.4951,3.69581,3.49609,10.85352,0,7.5498-3.417,11.50879a11.094,11.094,0,0,1-8.79981,3.958,9.226,9.226,0,0,1-5.69922-1.7041,10.99665,10.99665,0,0,1-2.42773-2.752V254.4248h-7.39258V214.60254h7.15625v4.2207a12.02169,12.02169,0,0,1,2.58594-2.93652,9.54209,9.54209,0,0,1,5.96289-1.91309A11.299,11.299,0,0,1,471.06348,217.66992Zm-5.73438,5.374a5.31659,5.31659,0,0,0-4.93945-2.543,5.61784,5.61784,0,0,0-5.6416,3.85351,14.46977,14.46977,0,0,0-.79493,5.19141q0,4.98047,2.67286,6.999a6.13194,6.13194,0,0,0,3.76172,1.17969,5.4708,5.4708,0,0,0,4.80859-2.41113,12.63588,12.63588,0,0,0,.13281-12.26953Z"/></svg>