<svg xmlns="http://www.w3.org/2000/svg" role="img" viewBox="-17.47 -19.47 934.44 767.94"><title>Aarogya Setu (India) logo</title><defs><style>.cls-2{fill:#fff}.cls-4{fill:#008}</style></defs><path d="M121.2461 662.53186h12.4209l18.58692 52.53514h-11.9043l-3.4668-10.79883h-19.34668l-3.56152 10.79883H102.4922zm-.72363 32.68359h13.4541l-6.63574-20.67285zm52.98145-3.77832a16.06535 16.06535 0 0 0 4.05761-.8916 3.05436 3.05436 0 0 0 2.18946-2.88672 3.4135 3.4135 0 0 0-1.67969-3.29687 10.62482 10.62482 0 0 0-4.93164-.9082q-3.64893 0-5.166 1.78125a7.34955 7.34955 0 0 0-1.44531 3.56445h-9.80176a14.86264 14.86264 0 0 1 2.86426-8.376q4.04443-5.13135 13.88867-5.13183a24.77073 24.77073 0 0 1 11.38281 2.53027q4.97608 2.53125 4.97559 9.55176v17.82129q0 1.853.07129 4.49023a5.64123 5.64123 0 0 0 .60547 2.709 3.64026 3.64026 0 0 0 1.49707 1.17578v1.49706H180.9629a11.35418 11.35418 0 0 1-.6416-2.21q-.17871-1.03272-.28516-2.35157a20.98507 20.98507 0 0 1-4.875 3.88477 14.73994 14.73994 0 0 1-7.457 1.88867 12.86415 12.86415 0 0 1-8.76465-3.01172q-3.46-3.01171-3.46-8.53613 0-7.16309 5.56543-10.37109a24.84828 24.84828 0 0 1 8.97656-2.49512zm6.21093 4.74024a11.27113 11.27113 0 0 1-1.96875.98047 16.72015 16.72015 0 0 1-2.72754.69433l-2.3125.42774a15.21284 15.21284 0 0 0-4.66894 1.39062 4.63939 4.63939 0 0 0-2.39942 4.3125 4.5035 4.5035 0 0 0 1.46583 3.75977 5.56776 5.56776 0 0 0 3.56445 1.1582 10.61454 10.61454 0 0 0 6.13379-1.9248q2.80516-1.92334 2.91308-7.02051zM220.293 675.3092q.19629.019.87305.05372v10.40722q-.96242-.10693-1.71094-.14258-.74708-.03514-1.21094-.03613-6.13183 0-8.2334 3.99219-1.17627 2.2456-1.17676 6.91406V715.067h-10.22853v-38.84862h9.69433v6.77149a21.50112 21.50112 0 0 1 4.09864-5.31055 11.15788 11.15788 0 0 1 7.41308-2.38769c.19047 0 .35059.00586.48147.01757zm39.22361 35.00586q-4.919 6.07032-14.93359 6.07129-10.01661 0-14.9336-6.07129a24.10233 24.10233 0 0 1 0-29.18359q4.91748-6.16113 14.9336-6.16113 10.01514 0 14.93359 6.16113a24.10229 24.10229 0 0 1 0 29.18359zm-8.126-5.61425q2.38623-3.16847 2.3877-9.00489 0-5.83593-2.3877-8.98632a9.02855 9.02855 0 0 0-13.7041 0q-2.40673 3.1494-2.40625 8.98632 0 5.83742 2.40625 9.00489a8.996 8.996 0 0 0 13.7041 0zm39.5342-28.51856a12.20661 12.20661 0 0 1 5.9795 5.63184v-5.59571h9.9082v36.85254q0 7.52052-2.53027 11.334-4.34913 6.55811-16.68067 6.55859-7.44873 0-12.15332-2.92285a10.78359 10.78359 0 0 1-5.2041-8.73242H281.293a4.57263 4.57263 0 0 0 1.39062 2.5664q1.63917 1.39014 5.52442 1.39063 5.4873 0 7.34179-3.67188 1.21143-2.35253 1.21192-7.9121v-2.49512a12.36939 12.36939 0 0 1-3.13672 3.74219 12.60891 12.60891 0 0 1-7.876 2.31738 14.90228 14.90228 0 0 1-11.958-5.25781q-4.47364-5.25587-4.47266-14.23829 0-8.66161 4.30664-14.55957 4.30664-5.89892 12.209-5.89843a13.359 13.359 0 0 1 5.0908.89061zm3.459 27.85352q2.44922-2.68945 2.44922-8.57129 0-5.52393-2.3252-8.41113a7.5859 7.5859 0 0 0-6.22851-2.8877 7.34174 7.34174 0 0 0-7.34668 5.02637 17.88084 17.88084 0 0 0-1.06446 6.59277 15.1038 15.1038 0 0 0 1.13477 6.02344 7.40315 7.40315 0 0 0 7.38281 4.91894 7.79733 7.79733 0 0 0 5.99804-2.6914zm23.44237 18.48047l1.2832.07129a16.04326 16.04326 0 0 0 2.85157-.10645 5.128 5.128 0 0 0 2.28125-.82031 5.48976 5.48976 0 0 0 1.65722-2.53028 6.09723 6.09723 0 0 0 .65918-2.35254l-14.27441-40.55957H323.582l8.4834 28.65528 8.01855-28.65528h10.79985l-13.31836 38.207q-3.86133 11.04931-6.10938 13.7041-2.24706 2.65577-8.99121 2.65527-1.35643 0-2.17675-.01758t-2.46192-.125zm54.4502-31.07911a16.05558 16.05558 0 0 0 4.05664-.8916 3.05535 3.05535 0 0 0 2.19043-2.88672 3.41411 3.41411 0 0 0-1.68067-3.29687 10.62031 10.62031 0 0 0-4.93066-.9082q-3.64893 0-5.167 1.78125a7.34909 7.34909 0 0 0-1.44434 3.56445H355.499a14.86943 14.86943 0 0 1 2.86328-8.376q4.04444-5.13135 13.88965-5.13183a24.7708 24.7708 0 0 1 11.38282 2.53027q4.9746 2.53125 4.97558 9.55176v17.82129q0 1.853.07129 4.49023a5.64123 5.64123 0 0 0 .60547 2.709 3.6274 3.6274 0 0 0 1.49707 1.17578v1.49706h-11.0488a11.21892 11.21892 0 0 1-.6416-2.21q-.17871-1.03272-.28516-2.35157a20.99054 20.99054 0 0 1-4.876 3.88477 14.73739 14.73739 0 0 1-7.457 1.88867 12.86413 12.86413 0 0 1-8.76465-3.01172q-3.46-3.01171-3.459-8.53613 0-7.16309 5.56446-10.37109a24.86026 24.86026 0 0 1 8.97656-2.49512zm6.21093 4.74024a11.27912 11.27912 0 0 1-1.96972.98047 16.69353 16.69353 0 0 1-2.72754.69433l-2.31152.42774a15.21187 15.21187 0 0 0-4.66993 1.39062 4.63938 4.63938 0 0 0-2.39941 4.3125 4.50349 4.50349 0 0 0 1.46582 3.75977 5.56778 5.56778 0 0 0 3.56445 1.1582 10.61752 10.61752 0 0 0 6.13477-1.9248q2.80518-1.92334 2.91308-7.02051zm48.00977 2.67285a10.64915 10.64915 0 0 0 2.001 5.38184q2.729 3.24462 9.35254 3.24316a20.12146 20.12146 0 0 0 6.4414-.85547q4.69482-1.6377 4.69434-6.09375a4.4922 4.4922 0 0 0-2.29981-4.02832 24.94639 24.94639 0 0 0-7.29394-2.459l-5.6875-1.24707q-8.38478-1.853-11.52149-4.02735-5.31006-3.63574-5.31054-11.37011a15.09819 15.09819 0 0 1 5.19531-11.72559q5.19581-4.66992 15.26269-4.66895a23.4 23.4 0 0 1 14.3418 4.40137q5.93554 4.40185 6.22363 12.77735h-10.5498a7.51967 7.51967 0 0 0-4.23828-6.73633 14.51943 14.51943 0 0 0-6.54-1.31836 12.452 12.452 0 0 0-6.94336 1.71094 5.41149 5.41149 0 0 0-2.59375 4.77539 4.5054 4.5054 0 0 0 2.55762 4.20605 31.74868 31.74868 0 0 0 6.97949 2.17383l9.21973 2.17383q6.06152 1.42676 9.08593 3.81445 4.69776 3.706 4.69825 10.72754a15.07393 15.07393 0 0 1-5.56641 11.958q-5.56641 4.75781-15.72461 4.75781-10.37549 0-16.31934-4.68652-5.94434-4.686-5.94433-12.88477zm65.26953-21.8457a15.80051 15.80051 0 0 1 6.71289 5.748 19.08818 19.08818 0 0 1 3.0957 8.03125 49.67767 49.67767 0 0 1 .335 7.71h-28.29496q.23585 5.84619 4.0625 8.19726a10.31608 10.31608 0 0 0 5.60059 1.46191 7.88742 7.88742 0 0 0 7.73047-4.45507h10.37109a12.69068 12.69068 0 0 1-3.76562 7.02148q-5.2207 5.666-14.61621 5.667a21.17653 21.17653 0 0 1-13.6836-4.78027q-5.92968-4.77978-5.92871-15.55371 0-10.09423 5.35156-15.48145 5.35109-5.38623 13.89258-5.38672a22.13054 22.13054 0 0 1 9.13672 1.82032zm-15.19629 8.77539a10.55872 10.55872 0 0 0-2.70605 6.01367h17.5a8.47059 8.47059 0 0 0-2.70606-6.13867 8.89851 8.89851 0 0 0-6.02441-2.09473 8.05708 8.05708 0 0 0-6.06348 2.21973zm26.48438-1.96973v-7.23535h5.418v-10.835h10.05078v10.835h6.30852v7.23535h-6.30859v20.5293q0 2.3877.60547 2.97558.60644.58887 3.707.58789c.30859 0 .63574-.00488.98047-.01757q.51563-.01758 1.01562-.05371v7.59179l-4.81152.17871q-7.19971.249-9.83692-2.49511-1.71093-1.74611-1.71093-5.38184v-23.915zm38.4209-7.5918v23.416a12.32588 12.32588 0 0 0 .78027 4.99023q1.38428 2.959 5.42578 2.958 5.17822 0 7.09375-4.20605a15.30683 15.30683 0 0 0 .99316-6.02344v-21.13474h10.29981V715.067h-9.87207v-5.48828q-.14209.17871-.71094 1.06933a7.13912 7.13912 0 0 1-1.35058 1.56836 14.1138 14.1138 0 0 1-4.60254 2.92188 15.65673 15.65673 0 0 1-5.207.78418q-8.60155 0-11.58593-6.20118-1.67139-3.42187-1.6709-10.08691v-23.416zm57.34765-.42773a76.384 76.384 0 0 1 8.2334-14.11426h7.66309l-2.17481 3.99219a59.45293 59.45293 0 0 0-6.2373 17.25 68.2151 68.2151 0 0 0-1.13965 12.90234 60.94875 60.94875 0 0 0 3.17187 20.06641 91.5011 91.5011 0 0 0 6.55762 13.89941H607.377l-2.53027-3.457a46.3066 46.3066 0 0 1-5.23926-9.33789 53.18189 53.18189 0 0 1-4.9541-21.8125 48.37931 48.37931 0 0 1 4.16988-19.3887zm32.54102 39.27635H620.458v-52.53514h10.90625zm40.77148-36.62108q3.81592 3.15381 3.81543 10.46094V715.067H665.544v-23.62987a10.86629 10.86629 0 0 0-.81347-4.70507q-1.48681-2.99415-5.66113-2.99317-5.1299 0-7.041 4.38379a15.16342 15.16342 0 0 0-.99023 5.916V715.067h-10.15828v-38.77733h9.83692v5.667a17.22638 17.22638 0 0 1 3.6914-4.3125 12.7897 12.7897 0 0 1 7.915-2.35254 14.88742 14.88742 0 0 1 9.81254 3.15429zm33.86133-1.60449a12.35185 12.35185 0 0 1 4.45508 4.29492v-18.5332h10.30078V715.067h-9.873v-5.38184a14.31247 14.31247 0 0 1-4.9541 5.02539 13.90393 13.90393 0 0 1-6.91406 1.56836 14.434 14.434 0 0 1-11.459-5.50683q-4.65087-5.50635-4.65136-14.13184 0-9.94336 4.58007-15.64648a14.90147 14.90147 0 0 1 12.24317-5.70215 12.53564 12.53564 0 0 1 6.27242 1.54982zm2.49512 27.67578a14.17043 14.17043 0 0 0 2.24511-8.30468q0-7.12794-3.59961-10.19336a7.75077 7.75077 0 0 0-5.13281-1.85352 7.13593 7.13593 0 0 0-6.54 3.36816 18.15875 18.15875 0 0 0 .03614 16.96582 7.17251 7.17251 0 0 0 6.43261 3.22559 7.50067 7.50067 0 0 0 6.55856-3.20801zm31.93457-32.93261H730.126v-9.374h10.30078zm-10.30077 4.63378h10.30078V715.067H730.126zm35.5244 15.21875a16.06546 16.06546 0 0 0 4.05762-.8916 3.05435 3.05435 0 0 0 2.18945-2.88672 3.4135 3.4135 0 0 0-1.67969-3.29687 10.62479 10.62479 0 0 0-4.93164-.9082q-3.64892 0-5.166 1.78125a7.34955 7.34955 0 0 0-1.44532 3.56445h-9.80175a14.86256 14.86256 0 0 1 2.86425-8.376q4.04444-5.13135 13.88868-5.13183a24.77076 24.77076 0 0 1 11.38281 2.53027q4.97607 2.53125 4.97558 9.55176v17.82129q0 1.853.07129 4.49023a5.64123 5.64123 0 0 0 .60547 2.709 3.64026 3.64026 0 0 0 1.49707 1.17578v1.49706h-11.04884a11.35418 11.35418 0 0 1-.6416-2.21q-.17871-1.03272-.28515-2.35157a20.98549 20.98549 0 0 1-4.875 3.88477 14.73994 14.73994 0 0 1-7.457 1.88867 12.86413 12.86413 0 0 1-8.76465-3.01172q-3.46-3.01171-3.46-8.53613 0-7.16309 5.56543-10.37109a24.84822 24.84822 0 0 1 8.97656-2.49512zm6.21094 4.74024a11.27113 11.27113 0 0 1-1.96875.98047 16.72042 16.72042 0 0 1-2.72754.69433l-2.3125.42774a15.213 15.213 0 0 0-4.66895 1.39062 4.63938 4.63938 0 0 0-2.39941 4.3125 4.50349 4.50349 0 0 0 1.46581 3.75977 5.56778 5.56778 0 0 0 3.56445 1.1582 10.61452 10.61452 0 0 0 6.13379-1.9248q2.80518-1.92334 2.91309-7.02051zm31.05176-20.38672a48.45227 48.45227 0 0 1 4.16308 19.38867 53.26088 53.26088 0 0 1-4.94531 21.8125 46.393 46.393 0 0 1-5.23047 9.33789l-2.52637 3.457h-7.50683a91.75318 91.75318 0 0 0 6.53418-13.89941 61.18058 61.18058 0 0 0 3.16015-20.06641 68.4707 68.4707 0 0 0-1.13574-12.90234 59.57027 59.57027 0 0 0-6.21484-17.25l-2.166-3.99219h7.64942a76.46423 76.46423 0 0 1 8.21873 14.11429z"/><path fill="#f93" d="M.675-1.519h898.65v599.1H.675z"/><path d="M.675 198.181h898.65v199.7H.675z" class="cls-2"/><path fill="#128807" d="M.675 397.881h898.65v199.7H.675z"/><circle cx="450" cy="298.031" r="79.88" class="cls-4"/><circle cx="450" cy="298.031" r="69.895" class="cls-2"/><circle cx="450" cy="298.031" r="13.979" class="cls-4"/><g id="d"><g id="c"><g id="b"><g id="a"><circle cx="519.297" cy="307.154" r="3.495" class="cls-4"/><path d="M450 367.92616l2.3964-41.937-2.3964-19.97-2.3964 19.97z" class="cls-4"/></g><g id="a-2" data-name="a"><circle cx="514.575" cy="324.779" r="3.495" class="cls-4"/><path d="M431.90984 365.54454l13.16884-39.88779 2.85387-19.90977-7.48336 18.6693z" class="cls-4"/></g></g><g id="b-2" data-name="b"><g id="a-3" data-name="a"><circle cx="505.451" cy="340.581" r="3.495" class="cls-4"/><path d="M415.0525 358.562l23.04384-35.1203 7.90966-18.4927-12.06034 16.0963z" class="cls-4"/></g><g id="a-4" data-name="a"><circle cx="492.549" cy="353.483" r="3.495" class="cls-4"/><path d="M400.57677 347.45439l31.34845-27.95939 12.42641-15.81543-15.81543 12.42637z" class="cls-4"/></g></g></g><g id="c-2" data-name="c"><g id="b-3" data-name="b"><g id="a-5" data-name="a"><circle cx="476.748" cy="362.606" r="3.495" class="cls-4"/><path d="M389.46916 332.97866l37.5167-18.89316 16.09633-12.06034-18.49273 7.90966z" class="cls-4"/></g><g id="a-6" data-name="a"><circle cx="459.123" cy="367.328" r="3.495" class="cls-4"/><path d="M382.48662 316.12132l41.12826-8.53935 18.6693-7.48336-19.90977 2.85387z" class="cls-4"/></g></g><g id="b-4" data-name="b"><g id="a-7" data-name="a"><circle cx="440.877" cy="367.328" r="3.495" class="cls-4"/><path d="M380.105 298.03116l41.937 2.3964 19.97-2.3964-19.97-2.3964z" class="cls-4"/></g><g id="a-8" data-name="a"><circle cx="423.252" cy="362.606" r="3.495" class="cls-4"/><path d="M382.48662 279.941l39.88779 13.16884 19.90977 2.85387-18.6693-7.48336z" class="cls-4"/></g></g></g></g><g id="d-2" data-name="d"><g id="c-3" data-name="c"><g id="b-5" data-name="b"><g id="a-9" data-name="a"><circle cx="407.451" cy="353.483" r="3.495" class="cls-4"/><path d="M389.46916 263.08366l35.1203 23.04384 18.49273 7.90966-16.09633-12.06034z" class="cls-4"/></g><g id="a-10" data-name="a"><circle cx="394.549" cy="340.581" r="3.495" class="cls-4"/><path d="M400.57677 248.60793l27.95943 31.34845 15.81543 12.42641-12.42641-15.81543z" class="cls-4"/></g></g><g id="b-6" data-name="b"><g id="a-11" data-name="a"><circle cx="385.425" cy="324.779" r="3.495" class="cls-4"/><path d="M415.0525 237.50032l18.89316 37.5167 12.06034 16.09633-7.90966-18.49273z" class="cls-4"/></g><g id="a-12" data-name="a"><circle cx="380.703" cy="307.154" r="3.495" class="cls-4"/><path d="M431.90984 230.51778l8.53935 41.12826 7.48336 18.6693-2.85387-19.90977z" class="cls-4"/></g></g></g><g id="c-4" data-name="c"><g id="b-7" data-name="b"><g id="a-13" data-name="a"><circle cx="380.703" cy="288.908" r="3.495" class="cls-4"/><path d="M450 228.13616l-2.3964 41.937 2.3964 19.97 2.3964-19.97z" class="cls-4"/></g><g id="a-14" data-name="a"><circle cx="385.425" cy="271.284" r="3.495" class="cls-4"/><path d="M468.09016 230.51778l-13.16884 39.88779-2.85387 19.90978 7.48336-18.66931z" class="cls-4"/></g></g><g id="b-8" data-name="b"><g id="a-15" data-name="a"><circle cx="394.549" cy="255.482" r="3.495" class="cls-4"/><path d="M484.9475 237.50032l-23.04384 35.1203-7.90966 18.49273 12.06034-16.09635z" class="cls-4"/></g><g id="a-16" data-name="a"><circle cx="407.451" cy="242.58" r="3.495" class="cls-4"/><path d="M499.42323 248.60793l-31.34845 27.95943-12.42641 15.81543 15.81543-12.42641z" class="cls-4"/></g></g></g></g><g id="d-3" data-name="d"><g id="c-5" data-name="c"><g id="b-9" data-name="b"><g id="a-17" data-name="a"><circle cx="423.252" cy="233.457" r="3.495" class="cls-4"/><path d="M510.53084 263.08366l-37.5167 18.89316-16.09633 12.06034 18.49273-7.90966z" class="cls-4"/></g><g id="a-18" data-name="a"><circle cx="440.877" cy="228.734" r="3.495" class="cls-4"/><path d="M517.51338 279.941l-41.12826 8.53935-18.6693 7.48336 19.90977-2.85387z" class="cls-4"/></g></g><g id="b-10" data-name="b"><g id="a-19" data-name="a"><circle cx="459.123" cy="228.734" r="3.495" class="cls-4"/><path d="M519.895 298.03116l-41.937-2.3964-19.97 2.3964 19.97 2.3964z" class="cls-4"/></g><g id="a-20" data-name="a"><circle cx="476.748" cy="233.457" r="3.495" class="cls-4"/><path d="M517.51338 316.12132l-39.88779-13.16884-19.90977-2.85387 18.6693 7.48336z" class="cls-4"/></g></g></g><g id="c-6" data-name="c"><g id="b-11" data-name="b"><g id="a-21" data-name="a"><circle cx="492.549" cy="242.58" r="3.495" class="cls-4"/><path d="M510.53084 332.97866l-35.1203-23.04384-18.49273-7.90966 16.09633 12.06034z" class="cls-4"/></g><g id="a-22" data-name="a"><circle cx="505.451" cy="255.482" r="3.495" class="cls-4"/><path d="M499.42323 347.45439l-27.95943-31.34845-15.81543-12.42641 12.42641 15.81547z" class="cls-4"/></g></g><g id="b-12" data-name="b"><g id="a-23" data-name="a"><circle cx="514.575" cy="271.284" r="3.495" class="cls-4"/><path d="M484.9475 358.562l-18.89316-37.5167L453.994 304.949l7.90966 18.49273z" class="cls-4"/></g><g id="a-24" data-name="a"><circle cx="519.297" cy="288.908" r="3.495" class="cls-4"/><path d="M468.09016 365.54454l-8.53935-41.12826-7.48336-18.6693 2.85387 19.90977z" class="cls-4"/></g></g></g></g></svg>