<svg xmlns="http://www.w3.org/2000/svg" role="img" viewBox="-23.15 -26.15 943.80 645.30"><title>Australia (COVIDSafe) logo</title><defs><clipPath id="clip-path"><path d="M-4.808-7.568h475.247v237.623H-4.808z" class="cls-1"/></clipPath><clipPath id="clip-path-2"><path d="M-4.80843-7.568v118.81163H470.4381v118.81162zm475.24653 0H232.81485v237.62325H-4.80839z" class="cls-1"/></clipPath><style>.cls-1{fill:none}.cls-4{fill:#fff}.cls-6{fill:red}</style></defs><path fill="#00008b" d="M-4.808-7.568H903v475.247H-4.808z"/><g clip-path="url(#clip-path)"><path d="M-4.80843-7.568L470.4381 230.05525m0-237.62325L-4.80839 230.05525"/><path d="M456.126 258.676L232.813 147.021 9.501 258.676l-28.621-57.243 180.38-90.189-180.38-90.19L9.501-36.188 232.813 75.467 456.126-36.188l28.622 57.242-180.381 90.19 180.381 90.189-28.622 57.243z" class="cls-4"/></g><g clip-path="url(#clip-path-2)"><path d="M-4.80843-7.568L470.4381 230.05525m0-237.62325L-4.80839 230.05525"/><path d="M460.897 249.137L232.814 135.096 4.731 249.137l-19.08-38.164 199.46-99.729-199.46-99.73 19.08-38.163L232.814 87.392 460.897-26.649l19.082 38.163-199.461 99.73 199.461 99.729-19.082 38.164z" class="cls-6"/></g><path d="M232.81485-7.568v237.62325M-4.80839 111.24363H470.4381"/><path d="M286.148 230.055H179.482v-65.478H-4.807V57.91h184.289V-7.567h106.666V57.91h184.289v106.667H286.148v65.478z" class="cls-4"/><path d="M232.81485-7.568v237.62325M-4.80839 111.24363H470.4381"/><path d="M264.815 230.054h-64v-86.81H-4.81v-64h205.625V-7.567h64v86.811h205.621v64H264.815v86.81z" class="cls-6"/><g id="Comwlth"><g id="Cstar"><path d="M232.81485 277.57989l13.74678 42.74149 41.9876-15.90121-24.84566 37.39654 38.61088 22.913-44.72883 3.89129 6.15942 44.47327L232.81485 380.55l-30.93029 32.54421 6.1594-44.47325-44.7288-3.89124 38.61091-22.913-24.84564-37.39654 41.98757 15.9012z" class="cls-4" id="Star7"/></g></g><g id="αCrucis"><path d="M708.06134 354.52456l6.54609 20.35311 19.99413-7.572-11.83127 17.8079 18.38616 10.91093-21.29943 1.853 2.933 21.17773-14.72868-15.49723-14.72867 15.49726 2.933-21.17773-21.29942-1.853 18.38615-10.91093-11.83127-17.80788 19.99413 7.572z" class="cls-4" id="Star7-2"/></g><g id="βCrucis"><path d="M589.24972 166.40616l6.54609 20.35308 19.99413-7.572-11.83127 17.80789 18.38616 10.91095-21.29943 1.853 2.933 21.17773-14.72871-15.49726-14.72869 15.49723 2.933-21.17773-21.29942-1.853 18.38615-10.91095-11.83123-17.80788 19.99412 7.572z" class="cls-4" id="Star7-3"/></g><g id="γCrucis"><path d="M708.06134 37.69355l6.54609 20.35309 19.99413-7.572-11.83127 17.80787 18.38616 10.911-21.29943 1.853 2.933 21.17774-14.72868-15.49733-14.72867 15.49726 2.933-21.17774-21.29942-1.853 18.38615-10.911-11.83124-17.80781 19.99413 7.572z" class="cls-4" id="Star7-4"/></g><g id="δCrucis"><path d="M813.67163 134.723l6.54609 20.35309 19.99408-7.572-11.83131 17.80791 18.3862 10.91094-21.29947 1.853 2.933 21.17773-14.72871-15.49726-14.72872 15.49726 2.933-21.17774-21.29947-1.853 18.38617-10.91093-11.83131-17.80789 19.99408 7.572z" class="cls-4" id="Star7-5"/></g><g id="εCrucis"><path d="M755.586 230.05525l5.173 12.68188 13.65973 1.00091-10.46265 8.83877 3.26915 13.30047-11.63923-7.21923-11.63928 7.21923 3.2692-13.30047-10.4627-8.83881 13.65973-1.00091z" class="cls-4" id="Star5"/></g><path d="M99.26638 536.75448h11.91211l17.82422 50.38085h-11.416l-3.32421-10.35644H95.70974l-3.416 10.35644H81.282zm-.69338 31.34277h12.90332l-6.36423-19.82425zm45.75979-18.21777v22.45605a11.80349 11.80349 0 0 0 .74805 4.78516q1.32714 2.8374 5.20312 2.83691 4.96583 0 6.80273-4.0332a14.66587 14.66587 0 0 0 .95215-5.77637v-20.26855h9.87793v37.25585H158.449v-5.26367q-.13623.17139-.68164 1.02539a6.83363 6.83363 0 0 1-1.29492 1.50391 13.51911 13.51911 0 0 1-4.41407 2.80273 15.01656 15.01656 0 0 1-4.99316.752q-8.24853 0-11.11133-5.94727-1.60254-3.28125-1.60156-9.67285v-22.45609zm40.60547 25.36132a6.48078 6.48078 0 0 0 1.33984 3.69141q1.81934 1.94824 6.73047 1.94824a10.298 10.298 0 0 0 4.585-.85449 2.73648 2.73648 0 0 0 1.7002-2.56348 2.76451 2.76451 0 0 0-1.36914-2.49511q-1.36963-.854-10.19141-2.93946-6.3501-1.57178-8.94727-3.93066a8.5188 8.5188 0 0 1-2.59765-6.69922 11.60916 11.60916 0 0 1 4.05859-8.86963q4.05909-3.70826 11.42383-3.70849 6.9873 0 11.38867 2.78564 4.40186 2.78613 5.05274 9.62158h-9.74122a5.75954 5.75954 0 0 0-1.0625-2.97363q-1.61131-1.98194-5.48437-1.98242a7.89879 7.89879 0 0 0-4.541.99121 2.85184 2.85184 0 0 0-1.35351 2.32422 2.54179 2.54179 0 0 0 1.43945 2.42675q1.43994.78663 10.1709 2.7002 5.82129 1.36743 8.72656 4.13574a9.39 9.39 0 0 1 2.8711 7.00684 11.313 11.313 0 0 1-4.127 9.04053q-4.12793 3.50316-12.75683 3.50341-8.80371 0-12.99805-3.70849a12.05427 12.05427 0 0 1-4.19531-9.45069zm27.54883-18.08105v-6.93848h5.19531v-10.39062h9.63867v10.39062h6.0498v6.93848h-6.0498v19.6875q0 2.29027.58105 2.854.58008.564 3.55469.564.44385 0 .93946-.01709.4951-.01684.9746-.05127v7.28027l-4.61425.1709q-6.90528.23877-9.4336-2.39258-1.64062-1.67432-1.64062-5.16113v-22.9346zm47.83496-8.15186q.186.01758.83691.05127v9.98047q-.92284-.10254-1.64062-.13672-.71778-.03369-1.16211-.03418-5.87989 0-7.89551 3.82813a14.89262 14.89262 0 0 0-1.12793 6.63086v17.80761h-9.80957v-37.25585h9.29687v6.49414a20.5893 20.5893 0 0 1 3.93067-5.09278 10.70043 10.70043 0 0 1 7.10937-2.29c.18164-.00004.33594.00582.46192.01705zm21.30078 15.46631a15.393 15.393 0 0 0 3.89062-.85449 2.93079 2.93079 0 0 0 2.10059-2.76855 3.27336 3.27336 0 0 0-1.61133-3.16163 10.18156 10.18156 0 0 0-4.72852-.87158q-3.4995 0-4.95507 1.709a7.04271 7.04271 0 0 0-1.38575 3.418H265.534a14.257 14.257 0 0 1 2.74609-8.03223q3.87891-4.92187 13.31934-4.92188a23.7509 23.7509 0 0 1 10.916 2.42676q4.771 2.42725 4.77148 9.16016v17.08984q0 1.77759.06836 4.30664a5.40973 5.40973 0 0 0 .58105 2.59766 3.47856 3.47856 0 0 0 1.43555 1.12793v1.43554h-10.5957a10.75357 10.75357 0 0 1-.61524-2.11914q-.17138-.991-.27343-2.25586a20.11665 20.11665 0 0 1-4.67579 3.72559 14.12982 14.12982 0 0 1-7.15136 1.81152 12.33991 12.33991 0 0 1-8.40528-2.88818q-3.31786-2.88794-3.31738-8.186 0-6.87012 5.33692-9.94629a23.84023 23.84023 0 0 1 8.60839-2.39258zm5.95605 4.5459a10.75494 10.75494 0 0 1-1.88769.93994 15.99434 15.99434 0 0 1-2.61621.66651l-2.21778.41015a14.59921 14.59921 0 0 0-4.47754 1.333 4.44887 4.44887 0 0 0-2.30078 4.13574 4.3222 4.3222 0 0 0 1.40528 3.606 5.34411 5.34411 0 0 0 3.41894 1.11084 10.18231 10.18231 0 0 0 5.88281-1.8457q2.68946-1.8457 2.793-6.7334zm28.16504 18.11523h-9.74121v-50.38085h9.74121zm19.5166-41.69921h-9.87793v-8.98926h9.87793zm-9.87793 4.44336h9.87793v37.25585h-9.87793zM359.45 564.4742a15.393 15.393 0 0 0 3.89062-.85449 2.93079 2.93079 0 0 0 2.10059-2.76855 3.27336 3.27336 0 0 0-1.61133-3.16163 10.18156 10.18156 0 0 0-4.72852-.87158q-3.4995 0-4.95507 1.709a7.04271 7.04271 0 0 0-1.38575 3.418h-9.39941a14.25689 14.25689 0 0 1 2.74609-8.03223q3.87891-4.92187 13.31934-4.92188a23.75086 23.75086 0 0 1 10.916 2.42676q4.771 2.42725 4.77149 9.16016v17.08984q0 1.77759.06836 4.30664a5.40973 5.40973 0 0 0 .58105 2.59766 3.47856 3.47856 0 0 0 1.43555 1.12793v1.43554H366.6033a10.75357 10.75357 0 0 1-.61524-2.11914q-.17139-.991-.27344-2.25586a20.11639 20.11639 0 0 1-4.67578 3.72559 14.12984 14.12984 0 0 1-7.15136 1.81152 12.33989 12.33989 0 0 1-8.40528-2.88818q-3.31786-2.88794-3.31738-8.186 0-6.87012 5.33691-9.94629a23.84036 23.84036 0 0 1 8.6084-2.39258zm5.95605 4.5459a10.75529 10.75529 0 0 1-1.88769.93994 15.99423 15.99423 0 0 1-2.61622.66651l-2.21777.41015a14.59921 14.59921 0 0 0-4.47754 1.333 4.44887 4.44887 0 0 0-2.30078 4.13574 4.32223 4.32223 0 0 0 1.40527 3.606 5.34414 5.34414 0 0 0 3.41895 1.11084 10.18231 10.18231 0 0 0 5.88281-1.8457q2.68945-1.8457 2.793-6.7334zm40.16209-19.55078a73.25327 73.25327 0 0 1 7.89551-13.53516h7.34863l-2.085 3.82813a56.99479 56.99479 0 0 0-5.98145 16.543 65.4222 65.4222 0 0 0-1.09375 12.373 58.45 58.45 0 0 0 3.042 19.24317 87.76684 87.76684 0 0 0 6.28906 13.33008h-7.21191l-2.42676-3.31543a44.42721 44.42721 0 0 1-5.02442-8.95508 50.98989 50.98989 0 0 1-4.751-20.918 46.40036 46.40036 0 0 1 3.99909-18.59371zm26.41406-7.45117a20.74119 20.74119 0 0 1 15.48731-6.22071q12.57861 0 18.39453 8.33985a18.18016 18.18016 0 0 1 3.44922 9.39941h-10.52735a14.35105 14.35105 0 0 0-2.57812-5.46875q-2.8125-3.28125-8.33789-3.28125a10.27308 10.27308 0 0 0-8.873 4.63135q-3.24756 4.63184-3.248 13.10791 0 8.47705 3.42676 12.69775a10.74078 10.74078 0 0 0 8.71 4.2212q5.41553 0 8.25879-3.62305a15.91783 15.91783 0 0 0 2.60742-5.84473h10.459a22.6965 22.6965 0 0 1-6.915 13.39844q-5.562 5.16138-14.252 5.16113-10.75342 0-16.90723-6.97265-6.15381-7.00635-6.1543-19.209-.00014-13.1931 6.99986-20.3369zm84.53321 40.63965q-5.7085 5.87915-16.50879 5.8789-10.80177 0-16.50879-5.8789-7.65674-7.21143-7.65625-20.78125 0-13.84278 7.65625-20.78125 5.707-5.87842 16.50879-5.87891 10.80029 0 16.50879 5.87891 7.62158 6.939 7.62207 20.78125 0 13.56957-7.62207 20.78125zm-6.57911-7.65625q3.67237-4.61427 3.67383-13.125 0-8.47632-3.67383-13.10791a12.01008 12.01008 0 0 0-9.92968-4.63135 12.168 12.168 0 0 0-9.98047 4.61426q-3.72657 4.61426-3.72559 13.125 0 8.51073 3.72559 13.125a12.168 12.168 0 0 0 9.98047 4.61425 12.027 12.027 0 0 0 9.92968-4.61425zm51.71387-38.24707h10.9375l-17.17676 50.38085h-9.94629l-17.0371-50.38085h11.24414l10.9375 38.24707zm26.81348 50.38085h-10.459v-50.38085h10.459zm39.36426-49.2871a16.64865 16.64865 0 0 1 8.58593 6.3916 22.41883 22.41883 0 0 1 3.5918 8.13476 39.0167 39.0167 0 0 1 .958 8.33985q0 10.04883-4.03613 17.02148-5.47413 9.3999-16.89844 9.39941H598.3074v-50.38085h21.72168a26.5294 26.5294 0 0 1 7.79883 1.09375zm-19.30079 7.65625v32.88085h9.72266q7.46339 0 10.40625-7.34863a25.88789 25.88789 0 0 0 1.60938-9.60449q0-7.69043-2.41309-11.80908-2.41407-4.11841-9.60254-4.11865zm47.91993 26.0791a10.22779 10.22779 0 0 0 1.91894 5.16113q2.61768 3.11059 8.96973 3.11035a19.29986 19.29986 0 0 0 6.17676-.82031q4.50146-1.57178 4.50195-5.84473a4.30709 4.30709 0 0 0-2.20508-3.8623 23.93146 23.93146 0 0 0-6.99512-2.3584l-5.4541-1.19629q-8.042-1.77685-11.04883-3.8623-5.09325-3.48633-5.09277-10.90332a14.47876 14.47876 0 0 1 4.98242-11.24512q4.98193-4.47731 14.63574-4.47754a22.44265 22.44265 0 0 1 13.75391 4.22119q5.69238 4.22168 5.96875 12.25342h-10.11719a7.21246 7.21246 0 0 0-4.06445-6.46 13.92835 13.92835 0 0 0-6.27246-1.26465 11.94052 11.94052 0 0 0-6.6582 1.64062 5.19175 5.19175 0 0 0-2.48731 4.58008 4.32005 4.32005 0 0 0 2.45313 4.03321 30.44257 30.44257 0 0 0 6.69336 2.085l8.84082 2.085a22.50229 22.50229 0 0 1 8.71386 3.65722q4.5044 3.55518 4.50489 10.28809a14.45553 14.45553 0 0 1-5.33789 11.46728q-5.3379 4.563-15.08008 4.563-9.94922 0-15.64942-4.49463-5.70117-4.49414-5.70019-12.356zm53.07129-7.10938a15.393 15.393 0 0 0 3.89062-.85449 2.93079 2.93079 0 0 0 2.10059-2.76855 3.27336 3.27336 0 0 0-1.61133-3.16163 10.18156 10.18156 0 0 0-4.72852-.87158q-3.49952 0-4.95508 1.709a7.0428 7.0428 0 0 0-1.38574 3.418h-9.39941a14.25689 14.25689 0 0 1 2.74609-8.03223q3.87891-4.92187 13.31934-4.92188a23.75086 23.75086 0 0 1 10.916 2.42676q4.771 2.42725 4.77149 9.16016v17.08984q0 1.77759.06836 4.30664a5.40973 5.40973 0 0 0 .58105 2.59766 3.47856 3.47856 0 0 0 1.43555 1.12793v1.43554h-10.5957a10.75357 10.75357 0 0 1-.61524-2.11914q-.17139-.991-.27344-2.25586a20.11659 20.11659 0 0 1-4.67578 3.72559 14.12984 14.12984 0 0 1-7.15136 1.81152 12.33989 12.33989 0 0 1-8.40528-2.88818q-3.31786-2.88794-3.31738-8.186 0-6.87012 5.33691-9.94629a23.84036 23.84036 0 0 1 8.6084-2.39258zm5.95605 4.5459a10.755 10.755 0 0 1-1.8877.93994 15.9938 15.9938 0 0 1-2.61621.66651l-2.21777.41015a14.59921 14.59921 0 0 0-4.47754 1.333 4.44887 4.44887 0 0 0-2.30078 4.13574 4.32223 4.32223 0 0 0 1.40527 3.606 5.34414 5.34414 0 0 0 3.419 1.11084 10.18231 10.18231 0 0 0 5.88281-1.8457q2.68945-1.8457 2.793-6.7334zm33.63379-32.72705q.75147.05127 2.05078.15381v7.92969q-.8203-.10254-2.75195-.15381a3.16824 3.16824 0 0 0-2.666.85449 3.09867 3.09867 0 0 0-.73437 1.99951v3.14453h6.3916v6.87012h-6.3916v30.04394h-9.67285v-30.04394H729.865v-6.87012h5.332v-2.39258q0-5.981 2.0166-8.2373 2.11816-3.34937 10.21972-3.34961.92291 0 1.67486.05127zm32.17282 14.34082a15.153 15.153 0 0 1 6.4375 5.51172 18.309 18.309 0 0 1 2.96875 7.70215 47.69194 47.69194 0 0 1 .32129 7.394H763.8738q.22706 5.606 3.89551 7.86133a9.89526 9.89526 0 0 0 5.3711 1.40137 7.56573 7.56573 0 0 0 7.41406-4.27247h9.94531a12.16591 12.16591 0 0 1-3.61133 6.7334Q781.88309 588.4 772.87185 588.4a20.30944 20.30944 0 0 1-13.12305-4.584q-5.685-4.58351-5.68457-14.91553 0-9.68042 5.13184-14.84619 5.1328-5.16578 13.32324-5.166a21.21419 21.21419 0 0 1 8.76169 1.74559zm-14.57324 8.41553a10.11886 10.11886 0 0 0-2.59473 5.7666h16.78223a8.12958 8.12958 0 0 0-2.59473-5.88672 8.53932 8.53932 0 0 0-5.77734-2.00879 7.72738 7.72738 0 0 0-5.8154 2.12891zm40.78616-9.58008a46.47353 46.47353 0 0 1 3.99219 18.59375 51.08463 51.08463 0 0 1-4.74219 20.918 44.56146 44.56146 0 0 1-5.01562 8.95508l-2.42286 3.31543h-7.19921a87.92163 87.92163 0 0 0 6.26562-13.33008 58.656 58.656 0 0 0 3.03125-19.24317 65.677 65.677 0 0 0-1.08984-12.373 57.14044 57.14044 0 0 0-5.959-16.543l-2.07812-3.82813h7.33594a73.28733 73.28733 0 0 1 7.88184 13.53512z"/></svg>