<svg xmlns="http://www.w3.org/2000/svg" role="img" viewBox="-18.00 -18.00 936.00 752.50"><title>Austria (Stopp Corona) logo</title><path fill="#ed2939" d="M.277 0h900v600h-900z"/><path fill="#fff" d="M.277 200h900v200h-900z"/><path d="M103.92548 688.50044a9.52018 9.52018 0 0 0 1.78757 4.80677q2.4373 2.89695 8.35325 2.89653a17.97576 17.97576 0 0 0 5.7526-.76375q4.19306-1.46428 4.19306-5.44323a4.01041 4.01041 0 0 0-2.054-3.59706 22.27567 22.27567 0 0 0-6.51467-2.19685l-5.07947-1.11444q-7.4896-1.654-10.29-3.59706-4.74312-3.246-4.74312-10.15389a13.48692 13.48692 0 0 1 4.6403-10.47338q4.6407-4.169 13.63125-4.16946a20.90075 20.90075 0 0 1 12.8089 3.93089q5.30076 3.93132 5.55871 11.41164h-9.42216a6.71682 6.71682 0 0 0-3.7859-6.01562 12.96989 12.96989 0 0 0-5.84112-1.17851 11.121 11.121 0 0 0-6.20065 1.52835 4.83415 4.83415 0 0 0-2.317 4.26556 4.02448 4.02448 0 0 0 2.28452 3.75639 28.36582 28.36582 0 0 0 6.23354 1.94142l8.23438 1.94226a20.95586 20.95586 0 0 1 8.1151 3.40571q4.195 3.31044 4.19559 9.58149a13.46394 13.46394 0 0 1-4.97157 10.67991q-4.97071 4.25-14.04389 4.24955-9.2662 0-14.5754-4.18632a13.84889 13.84889 0 0 1-5.30834-11.5069zm32.11898-13.43314v-6.4624h4.83838v-9.67675h8.97664v9.67675h5.63459v6.4624h-5.63459v18.33517q0 2.1332.54121 2.658t3.31086.52519q.41286 0 .875-.016.46153-.01517.90749-.04721v6.78022l-4.2976.15848q-6.42995.22256-8.7857-2.228a6.63479 6.63479 0 0 1-1.52793-4.80676v-21.359zm54.21054 23.67217q-4.39284 5.42215-13.33788 5.42215t-13.33788-5.42215a21.52787 21.52787 0 0 1 0-26.06459q4.39286-5.5018 13.33788-5.50223 8.945 0 13.33788 5.50223a21.52783 21.52783 0 0 1 0 26.06459zm-7.25777-5.01414q2.13193-2.82867 2.13278-8.04218 0-5.2135-2.13278-8.02616a8.06313 8.06313 0 0 0-12.23946 0q-2.149 2.81349-2.14879 8.02616 0 5.21351 2.14879 8.04218a8.035 8.035 0 0 0 12.23946 0zm47.32326-21.71389q4.24491 4.4877 4.24491 13.17856 0 9.16758-4.14881 13.97434a13.46961 13.46961 0 0 1-10.685 4.80677 11.20408 11.20408 0 0 1-6.92057-2.06956 13.3671 13.3671 0 0 1-2.94754-3.34248v18.08058h-8.97664v-48.35256h8.69044v5.12457a14.58736 14.58736 0 0 1 3.13932-3.565 11.58769 11.58769 0 0 1 7.24049-2.32414 13.7209 13.7209 0 0 1 10.3634 4.48892zm-6.96272 6.52564a6.45514 6.45514 0 0 0-5.9975-3.0879 6.82163 6.82163 0 0 0-6.85018 4.67947 17.5675 17.5675 0 0 0-.96481 6.30224q0 6.04934 3.24553 8.49908a7.44814 7.44814 0 0 0 4.56736 1.4331 6.64035 6.64035 0 0 0 5.83816-2.92857 15.33769 15.33769 0 0 0 .16144-14.89742zm46.78501-6.52564q4.24491 4.4877 4.2449 13.17856 0 9.16758-4.1488 13.97434a13.46962 13.46962 0 0 1-10.685 4.80677 11.20413 11.20413 0 0 1-6.92058-2.06956 13.36689 13.36689 0 0 1-2.94753-3.34248v18.08058h-8.97665v-48.35256h8.69045v5.12457a14.58736 14.58736 0 0 1 3.13932-3.565 11.58767 11.58767 0 0 1 7.24049-2.32414 13.72091 13.72091 0 0 1 10.3634 4.48892zm-6.96273 6.52564a6.45513 6.45513 0 0 0-5.99749-3.0879 6.82164 6.82164 0 0 0-6.85019 4.67947 17.56772 17.56772 0 0 0-.96481 6.30224q0 6.04934 3.24554 8.49908a7.44811 7.44811 0 0 0 4.56735 1.4331 6.64036 6.64036 0 0 0 5.83817-2.92857 15.33772 15.33772 0 0 0 .16143-14.89742zm40.93295-17.57141a19.31575 19.31575 0 0 1 14.42323-5.79391q11.71491 0 17.13179 7.76736a16.928 16.928 0 0 1 3.21223 8.75367h-9.80446a13.366 13.366 0 0 0-2.40127-5.09338q-2.6194-3.055-7.76442-3.05586a9.56846 9.56846 0 0 0-8.26473 4.31361q-3.02467 4.31319-3.02467 12.20742 0 7.89551 3.192 11.82555a9.9998 9.9998 0 0 0 8.1113 3.93173q5.04407 0 7.6915-3.37451a14.81273 14.81273 0 0 0 2.42867-5.44322h9.74039a21.13577 21.13577 0 0 1-6.44006 12.478q-5.18064 4.8076-13.27339 4.80677-10.01479 0-15.7459-6.4936-5.73132-6.52479-5.73153-17.89006 0-12.28706 6.51932-18.93957zm70.80111 37.7738q-4.39285 5.42215-13.33789 5.42215t-13.33788-5.42215a21.52787 21.52787 0 0 1 0-26.06459q4.39285-5.5018 13.33788-5.50223 8.945 0 13.33789 5.50223a21.52787 21.52787 0 0 1 0 26.06459zm-7.25778-5.01414q2.13193-2.82867 2.13278-8.04218 0-5.2135-2.13278-8.02616a8.06313 8.06313 0 0 0-12.23946 0q-2.149 2.81349-2.14879 8.02616 0 5.21351 2.14879 8.04218a8.035 8.035 0 0 0 12.23946 0zm37.41891-26.25005q.17449.01644.77977.04721v9.29487q-.85923-.09483-1.52793-.12729-.6683-.03035-1.08241-.03119-5.47526 0-7.353 3.565a13.8676 13.8676 0 0 0-1.05037 6.17579V702.984h-9.136v-34.69691h8.65841v6.04765a19.185 19.185 0 0 1 3.66071-4.74269 9.96237 9.96237 0 0 1 6.62089-2.13278c.16986 0 .31317.00505.42993.01601zm35.03154 31.26419q-4.39286 5.42215-13.33789 5.42215t-13.33789-5.42215a21.52787 21.52787 0 0 1 0-26.06459q4.39285-5.5018 13.33788-5.50223 8.945 0 13.33789 5.50223a21.52787 21.52787 0 0 1 0 26.06459zm-7.25778-5.01414q2.13193-2.82867 2.13278-8.04218 0-5.2135-2.13278-8.02616a8.06313 8.06313 0 0 0-12.23946 0q-2.149 2.81349-2.14879 8.02616 0 5.21351 2.14879 8.04218a8.035 8.035 0 0 0 12.23946 0zm46.12326-23.44877q3.4078 2.81729 3.40823 9.34208V702.984h-9.29571v-21.10529a9.69032 9.69032 0 0 0-.72667-4.20149q-1.32771-2.67441-5.05544-2.674a6.26723 6.26723 0 0 0-6.28875 3.91571 13.53269 13.53269 0 0 0-.88431 5.2839V702.984h-9.07274v-34.63369h8.78613v5.06135a15.37661 15.37661 0 0 1 3.29611-3.85165 11.42581 11.42581 0 0 1 7.06936-2.10074 13.29841 13.29841 0 0 1 8.76379 2.81729zm25.58574 11.60215a14.32654 14.32654 0 0 0 3.624-.79579 2.728 2.728 0 0 0 1.95575-2.57788 3.04857 3.04857 0 0 0-1.50053-2.94458 9.48094 9.48094 0 0 0-4.40466-.81181q-3.2586 0-4.61371 1.59158a6.563 6.563 0 0 0-1.29063 3.18315h-8.75367a13.27634 13.27634 0 0 1 2.55681-7.48075q3.61266-4.58379 12.40468-4.58336a22.11957 22.11957 0 0 1 10.16653 2.26007q4.44344 2.26091 4.44343 8.53112v15.91576q0 1.65522.06407 4.011a5.031 5.031 0 0 0 .5412 2.4194 3.244 3.244 0 0 0 1.337 1.05038v1.337h-9.86811a10.13371 10.13371 0 0 1-.57324-1.97346q-.15933-.92307-.25459-2.10074a18.74808 18.74808 0 0 1-4.35407 3.46977 13.164 13.164 0 0 1-6.66051 1.68683 11.49158 11.49158 0 0 1-7.82806-2.69 9.56367 9.56367 0 0 1-3.08958-7.62405q0-6.39834 4.9703-9.26284a22.195 22.195 0 0 1 8.01689-2.228zm5.54776 4.23437a10.0228 10.0228 0 0 1-1.75934.875 14.86463 14.86463 0 0 1-2.43541.62044l-2.06534.38272a13.57938 13.57938 0 0 0-4.1703 1.24089 4.14335 4.14335 0 0 0-2.1429 3.85165 4.02272 4.02272 0 0 0 1.30917 3.3585 4.97526 4.97526 0 0 0 3.18316 1.03435 9.47694 9.47694 0 0 0 5.47863-1.71886q2.50621-1.71846 2.60233-6.271zm37.40376-22.52485a68.2056 68.2056 0 0 1 7.35345-12.60532h6.84344l-1.94142 3.565a53.08181 53.08181 0 0 0-5.57052 15.40744 60.91641 60.91641 0 0 0-1.01918 11.52291 54.43786 54.43786 0 0 0 2.83331 17.92209 81.7473 81.7473 0 0 0 5.85714 12.414h-6.717l-2.26007-3.08789a41.38461 41.38461 0 0 1-4.67947-8.33976 47.4992 47.4992 0 0 1-4.424-19.48164 43.20565 43.20565 0 0 1 3.72432-17.31683zm33.53522-7.52543h11.09382l16.60028 46.9212H598.107l-3.09632-9.64556h-17.27892l-3.18062 9.64556h-10.25589zm-.64574 29.19042h12.01607l-5.92707-18.46245zm42.616-16.96613V689.201a10.99428 10.99428 0 0 0 .69716 4.45608q1.23541 2.64279 4.84554 2.64195 4.62426 0 6.33512-3.75639a13.65864 13.65864 0 0 0 .88683-5.37916v-18.87639h9.19961V702.984h-8.81689v-4.902q-.12771.15931-.63478.95511a6.39868 6.39868 0 0 1-1.20632 1.40022A12.59165 12.59165 0 0 1 630.21 703.048a13.98906 13.98906 0 0 1-4.65.69968q-7.6818 0-10.34778-5.53848-1.49209-3.05628-1.4921-9.00826v-20.91385zm37.81677 23.61906a6.0382 6.0382 0 0 0 1.24764 3.43774q1.69567 1.81454 6.26936 1.815a9.60024 9.60024 0 0 0 4.26977-.79579 2.66618 2.66618 0 0 0 .3077-4.71151q-1.27589-.79536-9.49045-2.7372-5.91531-1.46429-8.33386-3.66114a7.93452 7.93452 0 0 1-2.41856-6.239 10.81112 10.81112 0 0 1 3.78-8.26052q3.77956-3.45333 10.63861-3.45375 6.50707 0 10.60657 2.5939 4.09949 2.596 4.7056 8.961h-9.07232a5.35679 5.35679 0 0 0-.98883-2.76924q-1.501-1.84615-5.10771-1.84616a7.35375 7.35375 0 0 0-4.22932.92308 2.65612 2.65612 0 0 0-1.26112 2.16482 2.3681 2.3681 0 0 0 1.34121 2.26007q1.34037.73214 9.4719 2.51466 5.42089 1.27333 8.12733 3.85164a8.74263 8.74263 0 0 1 2.674 6.52563 10.535 10.535 0 0 1-3.84406 8.41985q-3.8428 3.26239-11.88034 3.26239-8.19772 0-12.10458-3.45375a11.22452 11.22452 0 0 1-3.90813-8.80172zm25.65743-16.83885v-6.4624h4.8388v-9.67675h8.97622v9.67675h5.63459v6.4624h-5.63459v18.33517q0 2.1332.54121 2.658t3.31044.52519c.27566 0 .56818-.00506.87588-.016q.46027-.01517.90706-.04721v6.78022l-4.29759.15848q-6.43.22256-8.78571-2.228a6.63473 6.63473 0 0 1-1.52751-4.80676v-21.359zm44.54896-7.59202c.11718.011.37682.027.78061.04721v9.29487q-.85984-.09483-1.52835-.12729-.66891-.03035-1.0824-.03119-5.47527 0-7.35346 3.565a13.87967 13.87967 0 0 0-1.05037 6.17579V702.984h-9.13555v-34.69691h8.65841v6.04765a19.196 19.196 0 0 1 3.66029-4.74269 9.96474 9.96474 0 0 1 6.62173-2.13278c.16945 0 .31276.00505.42909.01601zm15.42261-3.32646h-9.19961V655.777h9.19961zm-9.19961 4.13827h9.19961V702.984h-9.19961zm31.72784 13.59162a14.32643 14.32643 0 0 0 3.624-.79579 2.728 2.728 0 0 0 1.95575-2.57788 3.04856 3.04856 0 0 0-1.50053-2.94458 9.48087 9.48087 0 0 0-4.40465-.81181q-3.2586 0-4.61372 1.59158a6.5632 6.5632 0 0 0-1.29063 3.18315h-8.75367a13.27634 13.27634 0 0 1 2.55681-7.48075q3.61266-4.58379 12.40469-4.58336a22.11957 22.11957 0 0 1 10.16653 2.26007q4.44342 2.26091 4.44343 8.53112v15.91576q0 1.65522.06407 4.011a5.03071 5.03071 0 0 0 .5412 2.4194 3.24394 3.24394 0 0 0 1.337 1.05038v1.337h-9.86811a10.13371 10.13371 0 0 1-.57324-1.97346q-.15931-.92307-.25458-2.10074a18.74834 18.74834 0 0 1-4.35408 3.46977 13.164 13.164 0 0 1-6.66051 1.68683 11.4916 11.4916 0 0 1-7.82806-2.69 9.56367 9.56367 0 0 1-3.08958-7.62405q0-6.39834 4.97031-9.26284a22.19493 22.19493 0 0 1 8.01689-2.228zm5.54776 4.23437a10.02271 10.02271 0 0 1-1.75933.875 14.86478 14.86478 0 0 1-2.43542.62044l-2.06534.38272a13.57938 13.57938 0 0 0-4.1703 1.24089 4.14335 4.14335 0 0 0-2.14289 3.85165 4.02269 4.02269 0 0 0 1.30917 3.3585 4.97523 4.97523 0 0 0 3.18315 1.03435 9.47689 9.47689 0 0 0 5.47863-1.71886q2.50623-1.71846 2.60233-6.271zm27.73287-22.52485a43.2818 43.2818 0 0 1 3.71761 17.31682 47.56741 47.56741 0 0 1-4.41645 19.48164 41.46267 41.46267 0 0 1-4.671 8.33976l-2.2567 3.08789h-6.70439a81.94638 81.94638 0 0 0 5.83606-12.414 54.63786 54.63786 0 0 0 2.82235-17.92209 61.13813 61.13813 0 0 0-1.015-11.52291 53.22987 53.22987 0 0 0-5.55028-15.40744l-1.93468-3.565h6.83248a68.31424 68.31424 0 0 1 7.34 12.60533z"/></svg>