<svg xmlns="http://www.w3.org/2000/svg" role="img" viewBox="-17.99 -17.99 935.48 751.48"><title>Bahrain (BeAware) logo</title><path fill="#fff" d="M0 0h900v568.92282H0"/><path fill="#ce1126" d="M900 0H224.51549l135.0969 56.89228-135.0969 56.89228 135.0969 56.89229-135.0969 56.89228 135.0969 56.89228-135.0969 56.89228 135.0969 56.89231-135.0969 56.89228 135.0969 56.89229-135.0969 56.89228H900"/><path d="M173.33361 656.53963a12.82014 12.82014 0 0 1 2.3125 7.69043 11.22035 11.22035 0 0 1-2.333 7.417 12.03212 12.03212 0 0 1-3.84277 2.8711 11.22438 11.22438 0 0 1 5.81934 4.44336 13.33083 13.33083 0 0 1 1.96289 7.38281 14.73423 14.73423 0 0 1-2.24317 8.03223 13.87409 13.87409 0 0 1-9.26074 6.49414 34.86664 34.86664 0 0 1-7.11914.68359h-22.7002v-50.38087H160.276q9.21532.1377 13.05761 5.36621zm-27.35547 3.38379v11.1084h12.24512a10.11949 10.11949 0 0 0 5.32715-1.24707q2.04639-1.248 2.04687-4.42676 0-3.52-2.70605-4.64844a18.99265 18.99265 0 0 0-5.9541-.78613zm0 19.44824v13.43262h12.23145a11.87777 11.87777 0 0 0 5.10156-.88867q3.312-1.64062 3.31153-6.28906a5.41062 5.41062 0 0 0-3.21-5.40039 12.742 12.742 0 0 0-5.03418-.8545zm54.30176-.47851a15.3936 15.3936 0 0 0 3.89063-.85449 2.92991 2.92991 0 0 0 2.10058-2.76856 3.27256 3.27256 0 0 0-1.61133-3.16113 10.18063 10.18063 0 0 0-4.72851-.87207q-3.49952 0-4.95508 1.709a7.04472 7.04472 0 0 0-1.38574 3.418H184.191a14.25831 14.25831 0 0 1 2.7461-8.03223q3.87891-4.92187 13.31933-4.92187a23.757 23.757 0 0 1 10.916 2.42676q4.771 2.42724 4.77148 9.16015v17.08985q0 1.77831.06836 4.30664a5.40791 5.40791 0 0 0 .58106 2.59765 3.47842 3.47842 0 0 0 1.43555 1.12793v1.43555h-10.59566a10.75438 10.75438 0 0 1-.61523-2.11914q-.17139-.99024-.27344-2.25586a20.10407 20.10407 0 0 1-4.67578 3.72559 14.125 14.125 0 0 1-7.15137 1.81152 12.34193 12.34193 0 0 1-8.40527-2.8877q-3.31788-2.88867-3.31738-8.18652 0-6.87012 5.33691-9.94629a23.8405 23.8405 0 0 1 8.6084-2.39258zm5.95606 4.5459a10.75884 10.75884 0 0 1-1.8877.94043 16.0019 16.0019 0 0 1-2.61621.666l-2.21777.41016a14.62637 14.62637 0 0 0-4.47754 1.333 4.44886 4.44886 0 0 0-2.30078 4.13574 4.32262 4.32262 0 0 0 1.40527 3.60644 5.34658 5.34658 0 0 0 3.41895 1.11035 10.18228 10.18228 0 0 0 5.88281-1.8457q2.68946-1.8457 2.793-6.7334zm44.99414-18.93457a10.94765 10.94765 0 0 1 4.61133 3.66113 9.754 9.754 0 0 1 1.87109 4.293 53.02 53.02 0 0 1 .34082 7.20117v21.89453h-9.94629v-22.68655a10.05459 10.05459 0 0 0-1.01758-4.8584q-1.32422-2.60157-5.02148-2.60156a6.88839 6.88839 0 0 0-5.81934 2.584q-1.98486 2.584-1.98437 7.374v20.18848h-9.74121v-50.21h9.74121v17.77344a11.90939 11.90939 0 0 1 4.88379-4.52832 13.74822 13.74822 0 0 1 5.83593-1.28223 15.77619 15.77619 0 0 1 6.2461 1.19731zm36.67968-1.07715q.186.01758.83692.05078v9.98047q-.92286-.10254-1.64063-.13672-.71776-.03369-1.16211-.03418-5.87988 0-7.8955 3.82812a14.89394 14.89394 0 0 0-1.12793 6.63086v17.80762H267.111v-37.25586h9.29687v6.49414a20.59884 20.59884 0 0 1 3.93067-5.09277 10.70038 10.70038 0 0 1 7.10937-2.29c.1816-.00004.3359.00582.46187.01754zm21.30079 15.46582a15.39349 15.39349 0 0 0 3.89062-.85449 2.92992 2.92992 0 0 0 2.10059-2.76856 3.27256 3.27256 0 0 0-1.61133-3.16113 10.18068 10.18068 0 0 0-4.72852-.87207q-3.4995 0-4.95508 1.709a7.04481 7.04481 0 0 0-1.38574 3.418h-9.39941a14.25823 14.25823 0 0 1 2.74609-8.03223q3.87891-4.92187 13.31934-4.92187a23.75693 23.75693 0 0 1 10.916 2.42676q4.771 2.42724 4.77149 9.16015v17.08985q0 1.77831.06836 4.30664a5.40806 5.40806 0 0 0 .58105 2.59765 3.47848 3.47848 0 0 0 1.43555 1.12793v1.43555h-10.5957a10.75377 10.75377 0 0 1-.61524-2.11914q-.17139-.99024-.27344-2.25586a20.10386 20.10386 0 0 1-4.67578 3.72559 14.125 14.125 0 0 1-7.15136 1.81152 12.342 12.342 0 0 1-8.40528-2.8877q-3.31786-2.88867-3.31738-8.18652 0-6.87012 5.33691-9.94629a23.84056 23.84056 0 0 1 8.6084-2.39258zm5.95605 4.5459a10.7591 10.7591 0 0 1-1.88769.94043 16.00234 16.00234 0 0 1-2.61622.666l-2.21777.41016a14.62656 14.62656 0 0 0-4.47754 1.333 4.44886 4.44886 0 0 0-2.30078 4.13574 4.32262 4.32262 0 0 0 1.40527 3.60644 5.34658 5.34658 0 0 0 3.41895 1.11035 10.18224 10.18224 0 0 0 5.88281-1.8457q2.68946-1.8457 2.793-6.7334zM343.4 659.85506h-9.87793v-8.98926H343.4zm-9.87793 4.44336H343.4v37.25586h-9.87793zm49.35353 2.13672q3.65919 3.0249 3.65918 10.03125v25.08789h-9.98046v-22.66113a10.40763 10.40763 0 0 0-.78028-4.51172q-1.42529-2.87109-5.42871-2.8711-4.9204 0-6.75195 4.20411a14.53043 14.53043 0 0 0-.9502 5.67382v20.166H352.902v-37.1875h9.4336v5.43457a16.50027 16.50027 0 0 1 3.54-4.13574 12.26275 12.26275 0 0 1 7.58985-2.25586 14.28067 14.28067 0 0 1 9.41015 3.02541zm34.66016-2.54688a73.25346 73.25346 0 0 1 7.89551-13.53515h7.34863l-2.085 3.82812a56.99458 56.99458 0 0 0-5.98144 16.543 65.42528 65.42528 0 0 0-1.09375 12.37305 58.44784 58.44784 0 0 0 3.042 19.24316 87.7229 87.7229 0 0 0 6.28906 13.33008h-7.21191l-2.42676-3.31543a44.41272 44.41272 0 0 1-5.02439-8.95509 50.98656 50.98656 0 0 1-4.751-20.918 46.40057 46.40057 0 0 1 3.99905-18.59374zm59.17676-7.34863a12.82021 12.82021 0 0 1 2.3125 7.69043 11.22035 11.22035 0 0 1-2.333 7.417 12.03223 12.03223 0 0 1-3.84277 2.8711 11.22432 11.22432 0 0 1 5.81933 4.44336 13.33075 13.33075 0 0 1 1.96289 7.38281 14.73422 14.73422 0 0 1-2.24316 8.03223 13.87409 13.87409 0 0 1-9.26074 6.49414 34.86678 34.86678 0 0 1-7.11914.68359h-22.7002v-50.38087h24.34667q9.21534.1377 13.05762 5.36621zm-27.35547 3.38379v11.1084h12.24512a10.11949 10.11949 0 0 0 5.32715-1.24707q2.04637-1.248 2.04687-4.42676 0-3.52-2.706-4.64844a18.99268 18.99268 0 0 0-5.95411-.78613zm0 19.44824v13.43262h12.23145a11.87777 11.87777 0 0 0 5.10156-.88867q3.312-1.64062 3.31152-6.28906a5.41062 5.41062 0 0 0-3.21-5.40039 12.74207 12.74207 0 0 0-5.03418-.8545zm63.82324-14.31836a15.14631 15.14631 0 0 1 6.4375 5.51172 18.30651 18.30651 0 0 1 2.96875 7.70215 47.68167 47.68167 0 0 1 .32129 7.39356h-27.13476q.227 5.606 3.8955 7.86132a9.89526 9.89526 0 0 0 5.3711 1.40137 7.56571 7.56571 0 0 0 7.41406-4.27246h9.94527a12.16436 12.16436 0 0 1-3.61133 6.7334q-5.00536 5.43457-14.0166 5.43457a20.30671 20.30671 0 0 1-13.123-4.584q-5.68506-4.58349-5.68457-14.915 0-9.68117 5.13183-14.84668 5.13282-5.165 13.32324-5.166a21.20644 21.20644 0 0 1 8.76172 1.74605zm-14.57324 8.415a10.1189 10.1189 0 0 0-2.59473 5.7666h16.78223a8.12952 8.12952 0 0 0-2.59473-5.88671 8.53932 8.53932 0 0 0-5.77734-2.00879 7.72741 7.72741 0 0 0-5.81543 2.12894zm44.41895-22.29488h11.9121l17.82422 50.38086h-11.416l-3.32422-10.35645h-18.55275l-3.416 10.35645h-11.01173zm-.69336 31.34277H555.236l-6.3643-19.82419zm52.39062-18.21777h9.87793l5.67383 26.83106 5.81055-26.83106h10.15136l-10.80078 37.25586H605.4215l-5.84472-27.13867-5.91309 27.13867H583.5465l-10.459-37.25586h10.459l5.81055 26.72852zm51.63574 14.59473a15.3936 15.3936 0 0 0 3.89063-.85449 2.92991 2.92991 0 0 0 2.10058-2.76856 3.27257 3.27257 0 0 0-1.61132-3.16113 10.18068 10.18068 0 0 0-4.72852-.87207q-3.49951 0-4.95508 1.709a7.04472 7.04472 0 0 0-1.38574 3.418h-9.39941a14.25823 14.25823 0 0 1 2.74609-8.03223q3.87891-4.92187 13.31934-4.92187a23.75693 23.75693 0 0 1 10.916 2.42676q4.771 2.42724 4.77149 9.16015v17.08985q0 1.77831.06836 4.30664a5.40782 5.40782 0 0 0 .58105 2.59765 3.47842 3.47842 0 0 0 1.43555 1.12793v1.43555h-10.5957a10.75438 10.75438 0 0 1-.61523-2.11914q-.17139-.99024-.27344-2.25586a20.10407 20.10407 0 0 1-4.67578 3.72559 14.125 14.125 0 0 1-7.15137 1.81152 12.34193 12.34193 0 0 1-8.40527-2.8877q-3.31786-2.88867-3.31738-8.18652 0-6.87012 5.33691-9.94629a23.8405 23.8405 0 0 1 8.6084-2.39258zm5.95606 4.5459a10.75884 10.75884 0 0 1-1.8877.94043 16.0019 16.0019 0 0 1-2.61621.666l-2.21777.41016a14.62647 14.62647 0 0 0-4.47754 1.333 4.44886 4.44886 0 0 0-2.30078 4.13574 4.32262 4.32262 0 0 0 1.40527 3.60644 5.34658 5.34658 0 0 0 3.41895 1.11035 10.18228 10.18228 0 0 0 5.88281-1.8457q2.68945-1.8457 2.793-6.7334zm38.91504-20.01172q.186.01758.83691.05078v9.98047q-.92285-.10254-1.64062-.13672-.71778-.03369-1.16211-.03418-5.8799 0-7.89551 3.82812a14.89408 14.89408 0 0 0-1.12793 6.63086v17.80762h-9.80957v-37.25586h9.29687v6.49414a20.59884 20.59884 0 0 1 3.93067-5.09277 10.70038 10.70038 0 0 1 7.10937-2.29c.18164-.00004.33594.00582.46192.01754zm30.82226 1.62597a15.14631 15.14631 0 0 1 6.4375 5.51172 18.30651 18.30651 0 0 1 2.96875 7.70215 47.68167 47.68167 0 0 1 .32129 7.39356h-27.13476q.227 5.606 3.8955 7.86132a9.89528 9.89528 0 0 0 5.3711 1.40137 7.56571 7.56571 0 0 0 7.41406-4.27246h9.94531a12.16436 12.16436 0 0 1-3.61133 6.7334q-5.00536 5.43457-14.0166 5.43457a20.30673 20.30673 0 0 1-13.123-4.584q-5.68506-4.58349-5.68457-14.915 0-9.68117 5.13183-14.84668 5.13282-5.165 13.32324-5.166a21.20644 21.20644 0 0 1 8.76168 1.74605zm-14.57324 8.415a10.1189 10.1189 0 0 0-2.59473 5.7666h16.78223a8.12952 8.12952 0 0 0-2.59473-5.88671 8.53932 8.53932 0 0 0-5.77734-2.00879 7.72741 7.72741 0 0 0-5.81543 2.12894zm40.78613-9.58004a46.4734 46.4734 0 0 1 3.99219 18.59375 51.081 51.081 0 0 1-4.74219 20.918 44.54688 44.54688 0 0 1-5.01562 8.95508l-2.42285 3.31543h-7.19922a87.87762 87.87762 0 0 0 6.26562-13.33008 58.6538 58.6538 0 0 0 3.03125-19.24316 65.681 65.681 0 0 0-1.08984-12.37305 57.14025 57.14025 0 0 0-5.959-16.543l-2.07812-3.82812h7.33594a73.28638 73.28638 0 0 1 7.88184 13.53515z"/></svg>