<svg xmlns="http://www.w3.org/2000/svg" role="img" viewBox="-19.98 -19.98 1038.96 613.96"><title>Bermuda (WeHealth Bermuda) logo</title><path fill="#c8102e" d="m0 0h1000v500h-1000z"/><path fill="#012169" d="m0 0h500v250h-500z"/><g><path fill="#fff" d="m0 0v3.354l53.292 26.646h6.708v-3.354l-53.292-26.646zm60 0v3.354l-53.292 26.646h-6.708v-3.354l53.292-26.646z" transform="scale(8.33333)"/><path fill="#fff" d="m25 0v30h10v-30zm-25 10v10h60v-10z" transform="scale(8.33333)"/><g fill="#c8102e"><path d="M0 12v6h60v-6zm27-12v30h6v-30zM0 30l20-10h4.472l-20 10zm0-30l20 10h-4.472l-15.528-7.764zm35.528 10l20-10h4.472l-20 10zm24.472 20l-20-10h4.472l15.528 7.764z" transform="scale(8.33333)"/></g></g><path fill="#fff" d="m865.361 106.664v211.737c0 56.557-113.062 74.933-113.062 74.933s-113.062-18.376-113.062-74.933v-211.737z"/><path fill="#2f8f22" d="m865.361 318.401c0 56.557-113.062 74.933-113.062 74.933s-113.062-18.376-113.062-74.933c0 0 0-4.555 2.301-7.145 0 0-1.246 9.407 5.981 16.522 0 0-5.669-10.037-.125-19.901 0 0-2.056 12.691 5.856 19.979 0 0-4.361-10.367.561-21.927 0 0-2.43 18.911 6.168 22.681 0 0 2.367-10.869-1.059-17.843 0 0 5.919 2.387 5.607 18.157 0 0 1.869-2.325 2.367-13.697 0 0 .249 13.005 4.735 16.021 0 0 1.371-1.319-.498-7.225s.81-7.979 1.246-7.854c0 0-.983 6.534 4.493 11.435 0 0-2.374-10.241.928-11.623 0 0-.685 8.67 6.168 10.618 0 0 .498-2.513-.997-5.34 0 0-1.308-3.353-.312-5.918 0 0 2.181 7.865 5.171 9.185 0 0-1.807-4.61-.125-9.185 0 0 .374 6.546 6.23 9.247 0 0-3.858-5.067-2.334-10.639l37.659 1.843 19.501.93 58.502-4.134 10.093-8.67s3.987 5.529-2.305 14.262c0 0 6.23-1.131 8.224-10.869 0 0 2.554 5.403-.935 11.372 0 0 6.916-6.911 7.912-14.765 0 0 2.679 7.602-3.863 15.77 0 0 5.856-1.948 8.349-10.618 0 0 1.994 5.222-3.676 12.601 0 0 10.591-5.627 10.28-17.25 0 0 4.423 6.408-.623 15.204 0 0 5.42-4.838 5.919-12.063 0 0 2.991 3.267-.249 12.251 0 0 6.604-6.22 7.601-12.943 0 0 1.433 6.22-4.237 14.073 0 0 3.863-.942 7.539-8.607 0 0 .997 3.016-2.367 8.545 0 0 3.614-.628 6.043-7.539 0 0 .436 4.147-.623 7.854 0 0 2.804-1.822 3.427-9.676 0 0 1.566 2.576 1.593 5.78.025 3.205-.002 1.101-.002 1.101z"/><g stroke="#000"><path fill="#c8102e" stroke-linejoin="round" stroke-width=".831" d="m807.139 195.999s-3.929.668-8.975-.87c-5.046-1.537-7.086-.913-8.652 0 0 0 2.048-4.055-2.936-7.257 0 0 1.62 4.094-.623 6.006 0 0-.997.938-2.181-.475 0 0-1.744-1.791-3.582-3.173 0 0 4.237-1.476 3.458-5.78s-3.084-4.869-4.33-5.403c0 0 .436 1.948 0 3.267 0 0-4.61-2.576 1.651-6.22s5.109-5.78 3.987-7.634c-1.121-1.853-3.52-3.895-4.704-4.618 0 0 1.246 1.948 1.028 3.613s-3.053 2.733-2.492-.188c.561-2.922-.031-2.419-.094-5.529 0 0 5.576 1.885 7.757-3.55 0 0 2.149-5.623-4.891-8.419 0 0 1.713 2.293.872 4.021 0 0-1.495 2.827-3.271.534s-2.897-2.733-2.71-5.435c0 0 6.386.88 4.642-6.063 0 0-1.028 4.618-9.314-1.602 0 0 5.389-5.529 3.302-9.99 0 0-.654-2.042-6.511-.848 0 0 5.078-3.204 2.928-5.937 0 0-1.09-1.822-5.825.565 0 0 1.838-3.173-2.804-6.597 0 0-3.115 1.634-4.766 3.141 0 0-3.177-4.021-5.202-5.623 0 0-3.676 1.414-4.61 5.623 0 0-1.713-2.042-5.607-2.984 0 0-1.869 3.456.561 6.471 0 0-1.807-.063-5.109-1.508 0 0-3.769-1.791-3.209 1.445s.841 3.958 1.589 5.466c0 0-8.458-1.964-8.099 2.607.249 3.173 1.433 5.906 4.05 8.199 0 0-4.735 6.189-8.785 1.539 0 0-1.402 1.508 1.62 5.466 0 0 3.022 3.33.53 5.435 0 0-3.333 2.67-4.953-2.513 0 0-5.389 5.372.966 9.487 0 0 4.081 2.325 8.255-1.257 0 0-1.277 10.304-5.265 8.325 0 0-2.399-1.759 1.9-3.864 0 0-6.199-.785-7.196 5.215 0 0-.765 4.774 4.641 6.503 0 0 4.174 1.508-.156 4.744 0 0-3.053 2.325-1.059 5.78 0 0 2.399 3.801-3.676 4.178 0 0-3.302-.031-4.486-.471 0 0-1.332 2.477-.401 5.307 0 0-3.025-2.254-9.91.24-6.884 2.495-6.355.736-6.916 1.49s-1.9 3.298-1.9 3.298 3.614 4.398 3.676 4.304-.685 5.026-.685 5.026l1.776.848 14.174-6.314 14.392-7.5 11.571.709 7.338 1.747 9.639.702 6.903-3.682h9.999l10.998 5.48 12.552 7.489 6.542 1.147 5.04-.269v-10.166z"/><path fill="#c8102e" stroke-linejoin="round" stroke-width=".831" d="m692.974 207.886s5.483 2.796 7.772-.597c0 0 2.991-5.702-3.575-7.681 0 0 3.575-4.288-.257-8.246 0 0-2.009-2.12-5.514-.565 0 0-1.449-3.016-4.86-2.922 0 0-2.99-.047-4.018 3.251 0 0-4.112-1.696-6.402.754 0 0-3.785 4.241 1.495 7.587l3.8.346 3.738-1.728 4.174 1.194c.003-.001-1.072 4.225 3.647 8.607z"/><path fill="#64b4d1" stroke-width=".623" d="m815.359 197.859c6.605-.622 8.937 4.952 8.937 4.952 3.462 8.122-3.89 12.458-3.89 12.458.561 1.822.623 4.209.623 4.209 10.342 1.257 8.534 12.88 8.534 12.88l-3.425-2.827c-5.981-2.325-12.149 2.764-16.572 11.309s-2.305 12.566-1.558 22.681c.748 10.115 17.195 16.147 17.195 16.147s-7.788 20.042-12.834 32.922-15.576 7.539-18.628 4.826c-3.053-2.713-3.816-1.206-5.358 0s6.916 7.802-8.473 14.022-18.068 10.995-20.622 12.566-13.208.503-14.267-.817c-1.059-1.319-.436-1.319-4.423-3.77-3.987-2.45-10.716-4.586-18.068-8.168-7.352-3.581-7.165-8.168-7.102-9.11.062-.942 2.554-8.607-6.056-2.513s-15.937-2.902-15.937-2.902c-1.682-2.211-8.847-21.412-8.847-21.412-1.931-7.162-5.732-15.519-5.732-15.519.187-.063-.374.88 5.981-2.764s9.201-9.707 11.401-15.707.062-16.272-.748-18.346c-.81-2.073-5.545-11.579-11.408-13.571s-9.795 2.953-9.795 2.953-1.809-11.623 8.534-12.88c0 0 .062-2.387.623-4.209 0 0-7.352-4.335-3.89-12.458 0 0 2.332-5.574 8.937-4.952l-1.598 3.022s-1.663 16.587 22.616 5.466 23.55-13.194 37.381-6.22l10.093-.188s14.579-6.744 19.251-3.843c4.673 2.901 21.494 12.325 21.494 12.325s16.261 6.098 19.438-5.15z"/></g><path fill="#fff" stroke="#012169" stroke-miterlimit="10" stroke-width=".831" d="m742.31 269.772s-.844-5.091-1.731-8.388c0 0-1.802-5.174 1.272-8.806l3.812-4.387s2.369-3.187 5.302-3.62c0 0 2.933-.087 3.213-.684s3.489-5.877 11.121 0c0 0 2.43-3.895 6.168-4.555 0 0 4.038-1.225 5.991 1.791 0 0 4.538-3.441 8.432 2.097 0 0 5.389-3.031 9.314 2.996 0 0 5.327-2.598 8.598 2.94s2.617 7.8 2.617 7.8l2.428 8.796 8.6 10.618-19.999 7.539h-8.971l-17.943 4.806-31.867 2.45-8.878-10.461z"/><g stroke="#000" stroke-width=".831"><path fill="#c8102e" stroke-linejoin="round" d="M715.374 322.736s-4.766.283-7.196 1.508-4.299 2.545-7.102 4.335c0 0-1.308 1.743-6.822.683 0 0-9.532-2.285-9.532 5.16 0 0-11.401.942-6.729 10.932 0 0 3.177 7.822 9.719 2.262 0 0-4.205 6.031 3.925 8.388 0 0 5.794 1.414 7.476-4.524 0 0 .935-2.356-1.308-5.278 0 0 2.804-.565 4.766-3.581 0 0-5.981 7.559.561 10.282 0 0 8.221 2.063 8.69-6.513 0 0-.671-3.958 2.515-5.372 0 0 6.551-1.508 9.541-8.812.001.001-9.419-5.016-8.504-9.47zM696.127 247.568s-7.352-3.386-10.841 0c0 0-4.86-3.009-9.968 0 0 0-4.86 3.176-8.224 6.674 0 0-2.367 2.027-1.495 8.417 0 0 1.246 4.505.498 6.767 0 0-1.62-.321-4.86 3.518 0 0-4.112 4.762-7.725.559 0 0 1.121 5.85 7.912 4.907 0 0-3.302 2.576-.436 9.236 0 0 2.118 4.712-1.246 10.618 0 0 5.919-2.387 5.669-9.361 0 0-.498-4.712 1.246-8.042 0 0-1.744 3.028 2.305 9.487 0 0 3.115 4.649.561 9.487 0 0 5.856-2.136 5.296-9.236s-4.112-4.147-1.807-10.681c0 0 .561 3.347 2.305 5.035s3.987 4.515 3.053 9.227c0 0 3.489-4.335 2.679-8.796s-1.682-5.81-1.682-5.81l11.027-6.253 5.483-9.927z"/><g fill="none" stroke-miterlimit="10"><path d="M679.368 275.583s-4.548-.314-5.296-3.833M666.097 269.426s1.585-.063 3.018 1.382c0 0 1.094 1.634 2.652 1.445"/></g></g><path d="m686.096 262.201s-2.367 0-3.676-1.131c0 0-1.371-.942-2.181.565 0 0-1.246 2.136 1.059 3.079 0 0 2.866 1.445-1.682 4.335 0 0 5.42-1.948 3.24-4.586 0 0-2.367-1.696-1.495-2.325 0 0 .249-.503 1.184.126.935.628 2.804.377 3.551-.063z"/><path fill="#784421" stroke="#000" stroke-width=".623" d="m760.408 274.204-18.218-62.913-.667.179 16.098 63.676z"/><path d="m696.964 344.785s-4.299-2.415-7.85.412c0 0 .363-1.571 3.079-2.262 0 0 1.47-4.147 5.581-3.77 0 0-1.682 2.01-3.925 3.707 0 0 2.368.245 3.115 1.913z"/><path fill="#64b4d1" stroke="#012169" stroke-miterlimit="2.613" stroke-width=".623" d="M681.825 354.778s-6.822-4.288-3.131-11.498c0 0 1.075-2.073 3.131-1.649 0 0 4.252 1.319.935 7.21-.001 0-1.683 3.817-.935 5.937zM695.656 361.564s-9.719-4.429-6.729-11.969c0 0 .924-2.545 3.079-2.356 0 0 3.748.188 2.998 5.183 0 0-1.124 4.901.652 9.142z"/><path d="m693.6 333.427s-2.92 2.157-4.108 3.602c0 0-1.188-1.476-2.745-2.372 0 0 1.793-.236 2.745.571 0 0 1.491-1.445 4.108-1.801z"/><path fill="#64b4d1" stroke="#012169" stroke-miterlimit="2.613" stroke-width=".623" d="m702.244 359.679s7.616-1.932 6.215-9.801c0 0-.748-3.44-3.972-2.969 0 0-3.885.992-1.355 5.994 0 0 1.495 3.572-.888 6.776z"/><path fill="#f5ce00" stroke="#000" stroke-miterlimit="2.613" stroke-width=".831" d="m736.656 193.201s4.906 1.504 7.57 2.59c0 0 7.102 3.204 16.121 0 0 0 6.099-2.415 6.912-2.59l-4.67 7.114-.234 3.675 2.922 4.288s-1.753.707-6.987-2.498c0 0-5.794-4.476-12.71 0 0 0-3.785 2.564-6.962 2.498l4.486-5.009-1.729-4.51z"/><path fill="#fff" d="m705.188 350.278s.28-.377-.047-.542c0 0-.327-.141-.561.318 0 0-.794 1.26-.122 2.986 0 0 .636 1.196.327 2.445 0 0-.042.353.239.401 0 0 .269-.094.321-.353 0 0 .38-1.219-.274-2.412.001-.001-.794-1.853.117-2.843z"/><g stroke="#000"><path fill="#c8102e" stroke-linejoin="round" stroke-width=".831" d="m810.687 207.886s-5.483 2.796-7.772-.597c0 0-2.99-5.702 3.575-7.681 0 0-3.575-4.288.257-8.246 0 0 2.009-2.12 5.514-.565 0 0 1.449-3.016 4.86-2.922 0 0 2.99-.047 4.018 3.251 0 0 4.112-1.696 6.401.754 0 0 3.785 4.241-1.495 7.587l-3.8.346-3.738-1.728-4.174 1.194c-.002-.001 1.073 4.225-3.646 8.607z"/><path fill="#f5ce00" stroke-miterlimit="2.613" stroke-width=".831" d="m767.262 203.457s-.138 1.131-1.26 1.257c0 0-1.17.377-1.852-1.08 0 0-.079-.33-.097-.491-.078-.681-.311-2.639 1.807-4.241 0 0 3.458-2.827 10.062.597 0 0 5.233 2.513 8.847 4.649 0 0 9.345 5.026 10.467 5.403 0 0 4.112 2.073 10.404 2.325 0 0 8.598.628 12.242-5.403 0 0 2.772-4.586 0-7.508 0 0-1.121-1.319-2.965-1.076-.774.102-1.629.458-2.455 1.422 0 0-1.339 1.948.218 3.393 0 0 2.025 1.241 2.741-1.382 0 0 .031-.188.093.047.04.152.498 2.152-.576 3.848 0 0-5.187 7.849-19.454-.285l-18.815-10.553s-9.439-4.838-15.077 2.733c0 0-4.548 6.283 1.308 10.398 0 0 4.361 2.607 7.102-1.539 0 0 2.274-4.084-1.308-5.874 0 0-3.146-1.476-4.392 1.665s2.43 3.958 2.772 1.728c.001-.002.095-.536.188-.033z"/><g stroke-width=".623"><path fill="#e4cb5e" stroke-miterlimit="2.613" d="m692.68 235.844s0-9.801 0-11.78c0-.925.007-1.696 1.408-2.827s2.897-2.922 5.046 2.168c0 0 4.205-4.429 5.607-5.089 0 0 2.43-2.073 4.112.942 0 0 2.243-3.393 4.018-4.241 0 0 4.205-2.733 4.392 5.466l3.271-3.016s2.523-2.073 5.327.754c0 0 4.766 4.618 5.42 5.937 0 0 1.052 1.429 1.133 3.683 0 0-.012 2.537 1.296 3.95 0 0 1.494 1.319 2.943 1.602 0 0 3.411.094 4.626 3.298 0 0 .561-.555 2.243 14.801v27.985l-18.878 22.524-30.279-8.67-12.055-4.995-2.71-8.859 11.682-7.539 6.355-17.152-2.056-12.063z"/><path fill="#784421" d="m776.109 250.703 1.433-2.136 3.427-2.639s5.233 13.734 5.483 16.731v4.262s7.85 2.003 9.221 14.066l-6.479 11.937-10.155-5.655-2.928-2.136v-34.43z"/></g></g><path fill="#fff" d="m679.932 345.001s.374-.495.117-.707c0 0-.164-.236-.607.33 0 0-2.064 2.307-.421 5.855 0 0 .187.506.514.341 0 0 .28-.141.023-.565.001 0-1.471-2.922.374-5.254z"/><g stroke="#000"><path fill="none" stroke-miterlimit="10" stroke-width=".831" d="m710.546 342.684s.311-1.068-.436-2.199c0 0-.498-.817-.312-1.885"/><path fill="none" stroke-miterlimit="10" stroke-width=".623" d="m717.265 220.483s.028 2.946.869 5.114 3.681 5.917 3.868 7.943"/><path fill="#c8102e" stroke-linejoin="round" stroke-width=".831" d="m788.476 322.736s4.766.283 7.196 1.508 4.299 2.545 7.102 4.335c0 0 1.308 1.743 6.822.683 0 0 9.532-2.285 9.532 5.16 0 0 11.401.942 6.729 10.932 0 0-3.177 7.822-9.719 2.262 0 0 4.205 6.031-3.925 8.388 0 0-5.794 1.414-7.476-4.524 0 0-.935-2.356 1.308-5.278 0 0-2.804-.565-4.766-3.581 0 0 5.981 7.559-.561 10.282 0 0-8.221 2.063-8.69-6.513 0 0 .671-3.958-2.515-5.372 0 0-6.551-1.508-9.541-8.812 0 .001 9.419-5.016 8.504-9.47z"/><g stroke-width=".623"><g fill="none" stroke-miterlimit="10"><path d="M713.505 233.536l7.778 62.78M715.302 233.4l8.723 58.519M716.937 233.128l10.047 58.037"/></g><path fill="#784421" d="m735.613 285.227-18.219-62.913-.667.179 16.099 63.677z"/><g fill="none" stroke-miterlimit="10"><path d="M722.511 230.823l18.398 46.488M721.283 231.575l17.756 48.563"/></g></g></g><path fill="#fff" d="m692.136 357.103s-2.135-2.047-1.838-5.717c0 0 .125-.785-.267-.894 0 0-.418-.174-.48.737 0 0-.592 3.833 1.994 6.031 0 0 .176.22.462.157-.001 0 .305-.068.129-.314z"/><g stroke="#000"><path fill="none" stroke-miterlimit="10" stroke-width=".623" d="M723.341 230.192l18.969 42.407M718.153 232.827l11.635 57.112"/><path fill="#f5ce00" stroke-miterlimit="2.613" stroke-width=".831" d="m813.327 275.146c-8.31-4.715-10.132-15.176-10.132-15.176-2.009-10.414 2.056-18.66 2.056-18.66 5.374-11.356 14.582-13.469 14.582-13.469s-9.021 6.259-11.544 14.694c0 0-1.963 7.115-.841 14.136 1.121 7.021.701 5.23 2.43 10.649z"/><path fill="#784421" stroke-width=".38" d="m777.542 248.567-34.917 11.025-1.904 15.554c-8.286 12.003-25.124 14.133-25.124 14.133l13.1 13.948 25.17 5.278 13.208-10.178 11.962-11.058c-1.246-5.906-.561-14.67-.561-14.67 0-1.476.561-4.932.561-4.932s-2.056-14.199-1.495-19.1z"/><g fill="none" stroke-miterlimit="10" stroke-width=".623"><path d="M741.2 271.238s22.997-7.181 36.71-12.947M730.161 284.347s28.69-5.183 48.876-16.68l7.414-5.008"/><path d="M786.451 266.921l-7.975 5.678s-32.086 14.796-56.516 15.191M778.47 283.113s-24.665 12.701-38.808 12.89"/></g><path fill="#c8102e" stroke-linejoin="round" stroke-width=".831" d="m807.883 247.568s7.352-3.386 10.841 0c0 0 4.86-3.009 9.968 0 0 0 4.86 3.176 8.224 6.674 0 0 2.367 2.027 1.495 8.417 0 0-1.246 4.505-.498 6.767 0 0 1.62-.321 4.86 3.518 0 0 4.112 4.762 7.725.559 0 0-1.121 5.85-7.912 4.907 0 0 3.302 2.576.436 9.236 0 0-2.118 4.712 1.246 10.618 0 0-5.919-2.387-5.669-9.361 0 0 .498-4.712-1.246-8.042 0 0 1.744 3.028-2.305 9.487 0 0-3.115 4.649-.561 9.487 0 0-5.856-2.136-5.296-9.236.561-7.1 4.112-4.147 1.807-10.681 0 0-.561 3.346-2.305 5.035-1.744 1.688-3.987 4.515-3.053 9.227 0 0-3.489-4.335-2.679-8.796s1.682-5.81 1.682-5.81l-11.027-6.253-5.483-9.927z"/></g><path fill="#fff" stroke="#012169" stroke-miterlimit="10" stroke-width=".831" d="m682.968 287.301s1.028-4.87 5.701-2.954c0 0 1.589-7.979 10.093-8.261 8.504-.283 8.971 8.293 8.971 8.859 0 0 2.498-3.682 6.669-3.255 0 0 7.191-.424 4.513 11.122l1.36 1.448s5.494-12.897 16.802-9.504c0 0 11.027 3.361 3.832 14.042 0 0 5.442 7.068 10.057 6.408s8.727-2.073 13.306-10.178 15.233-9.33 17.943-8.859 4.851 2.231 5.293 4.147c0 0 5.641-18.827 25.92-15.869l8.13 4.089 3.084 1.414-4.597 12.974-11.199 25.314-8.502 2.614-8.878-5.089-3.084 1.653-.252 7.582-11.71 8.429-8.13 3.351-8.971 6.126-2.087 5.476s-4.955-2.087-10.547 0l-1.851-4.533-5.233-4.995-20.33-9.59-3.673-11.846-3.711-1.653-4.154 4.758-6.074.708-9.065-6.126z"/><g stroke="#000"><g stroke-miterlimit="2.613"><g stroke-width=".831"><path fill="none" d="m771.499 195.132s-7.759-.345-7.478 7.697"/><path fill="#f5ce00" d="m822.54 280.562c-13.504-4.147-17.195-18.66-17.195-18.66-2.757-10.885 1.682-20.403 1.682-20.403 6.168-14.485 16.604-14.482 16.604-14.482 5.233-.141 5.861 4.335 5.861 4.335.494 3.173-1.733 4.319-1.733 4.319-3.582 1.948-5.841-.691-5.841-.691-1.495-1.948-.343-3.675-.343-3.675.919-1.288 2.679-.723 2.679-.723 1.394.432 1.246 2.175 1.246 2.175.008.047.039.047.039.047.062-.016.039-.039.039-.039s.311-2.136-1.776-2.356c0 0-4.065-.88-8.831 5.058 0 0-6.276 8.011-6.261 18.377 0 0-.794 19.461 19.485 24.503 0 0-2.196 3.157-6.074 14.56 0 0-4.392 14.655-8.585 22.578 0 0-5.574 11.302-18.003 6.684 0 0-7.401-3.251-7.383-8.623 0 0-.514-4.901 3.925-5.278 0 0 4.346-.33 4.299 3.393 0 0 .117 4.029-4.626 3.11 0 0-1.659-.353-1.355-1.979 0 0 .265-1.461 2.266-.825 0 0 .062.008.07-.024 0 0 .023-.035-.047-.055 0 0-.774-.346-1.592-.06 0 0-.733.244-.791 1.387 0 0-.047.919.935 1.437 0 0 1.192.424 2.126.33 0 0 1.257 2.537 4.101 3.397 3.959 1.197 7.22.044 9.216-1.548 2.171-1.732 3.575-4.759 3.995-5.501s4.065-8.906 6.806-17.686c0 0 2.399-7.571 4.314-11.529z"/><path fill="#f5ce00" d="m784.434 317.458s2.523-.342 2.523 1.908c0 0-.154 3.287-4.159 2.568 0 0-3.948-.864-2.547-5.278 0 0 .935-3.11 4.673-2.662 0 0 3.621.165 5.21 5.113 0 0 1.215 4.171-.864 7.751-2.321 3.996-8.193 6.621-11.027 7.783 0 0-11.355 4.461-14.742 7.013 0 0-5.194 3.856-2.897 7.445 0 0 .888 1.367 2.22 1.367 0 0 1.519.071 1.776-1.484 0 0 .008-.031-.016-.071 0 0-.023 0-.031.039 0 0-.109.95-.935 1.304 0 0-1.106.558-2.266-.424 0 0-1.23-1.178-.202-3.008 0 0 1.347-2.254 4.486-.919 0 0 2.765 1.367 1.628 4.304 0 0-1.012 2.703-4.346 2.696 0 0-2.51-.083-4.115-1.766-2.505-2.626-2.641-7.741-.433-10.386 0 0 2.087-2.812 6.277-4.524 2.427-.992 7.009-2.984 11.775-4.853 3.35-1.314 6.418-2.887 8.411-5.246 0 0 1.776-1.979 2.29-5.372 0 0 .491-2.545-1.059-3.102 0 0-.787-.353-1.651-.236 0 0-.023.001-.029.016-.002.001-.037.039.05.024z"/><path fill="none" d="M784.645 317.442s2.788-.503 4.532 2.812c0 0 1.028 2.136 1.194 3.372M791.279 311.776s-2.792.484-1.354 4.434c1.355 3.723 3.872 4.944 4.619 5.462"/><path fill="#f5ce00" d="M736.653 203.456s.138 1.131 1.26 1.257c0 0 1.17.377 1.852-1.08 0 0 .079-.33.097-.491.078-.681.311-2.639-1.807-4.241 0 0-3.458-2.827-10.062.597 0 0-5.233 2.513-8.847 4.649 0 0-9.345 5.026-10.467 5.403 0 0-4.112 2.073-10.404 2.325 0 0-8.598.628-12.242-5.403 0 0-2.772-4.586 0-7.508 0 0 1.121-1.319 2.965-1.076.774.102 1.629.458 2.455 1.422 0 0 1.339 1.948-.218 3.393 0 0-2.025 1.241-2.741-1.382 0 0-.031-.188-.094.047-.04.152-.498 2.152.576 3.848 0 0 5.187 7.849 19.454-.285l18.815-10.553s9.439-4.838 15.077 2.733c0 0 4.548 6.283-1.308 10.398 0 0-4.361 2.607-7.102-1.539 0 0-2.274-4.084 1.308-5.874 0 0 3.146-1.476 4.392 1.665s-2.43 3.958-2.772 1.728c0-.001-.094-.535-.187-.033zM690.588 275.146c8.31-4.715 10.132-15.176 10.132-15.176 2.009-10.414-2.056-18.66-2.056-18.66-5.374-11.356-14.582-13.469-14.582-13.469s9.021 6.259 11.544 14.694c0 0 1.963 7.115.841 14.136-1.121 7.021-.701 5.23-2.43 10.649z"/><path fill="none" d="m732.416 195.132s7.759-.345 7.478 7.697"/><path fill="#f5ce00" d="m681.375 280.562c13.504-4.147 17.195-18.66 17.195-18.66 2.757-10.885-1.682-20.403-1.682-20.403-6.168-14.485-16.604-14.482-16.604-14.482-5.233-.141-5.861 4.335-5.861 4.335-.494 3.173 1.733 4.319 1.733 4.319 3.582 1.948 5.841-.691 5.841-.691 1.495-1.948.343-3.675.343-3.675-.919-1.288-2.679-.723-2.679-.723-1.394.432-1.246 2.175-1.246 2.175-.008.047-.039.047-.039.047-.062-.016-.039-.039-.039-.039s-.312-2.136 1.776-2.356c0 0 4.065-.88 8.831 5.058 0 0 6.276 8.011 6.261 18.377 0 0 .794 19.461-19.485 24.503 0 0 2.196 3.157 6.074 14.56 0 0 4.392 14.655 8.585 22.578 0 0 5.574 11.302 18.003 6.684 0 0 7.401-3.251 7.383-8.623 0 0 .514-4.901-3.925-5.278 0 0-4.346-.33-4.299 3.393 0 0-.117 4.029 4.626 3.11 0 0 1.659-.353 1.355-1.979 0 0-.265-1.461-2.266-.825 0 0-.062.008-.07-.024 0 0-.023-.035.047-.055 0 0 .774-.346 1.592-.06 0 0 .733.244.791 1.387 0 0 .047.919-.935 1.437 0 0-1.192.424-2.126.33 0 0-1.257 2.537-4.101 3.397-3.959 1.197-7.22.044-9.216-1.548-2.171-1.732-3.575-4.759-3.995-5.501s-4.065-8.906-6.806-17.686c0 0-2.399-7.571-4.314-11.529z"/><path fill="#f5ce00" d="m719.481 317.458s-2.523-.342-2.523 1.908c0 0 .154 3.287 4.159 2.568 0 0 3.948-.864 2.547-5.278 0 0-.935-3.11-4.673-2.662 0 0-3.621.165-5.21 5.113 0 0-1.215 4.172.864 7.751 2.321 3.996 8.193 6.621 11.027 7.783 0 0 11.355 4.461 14.742 7.013 0 0 5.194 3.856 2.897 7.445 0 0-.888 1.367-2.22 1.367 0 0-1.519.071-1.776-1.484 0 0-.008-.031.016-.071 0 0 .023 0 .031.039 0 0 .109.95.935 1.304 0 0 1.106.558 2.266-.424 0 0 1.23-1.178.202-3.008 0 0-1.347-2.254-4.486-.919 0 0-2.765 1.367-1.628 4.304 0 0 1.012 2.703 4.346 2.696 0 0 2.51-.083 4.115-1.766 2.505-2.626 2.641-7.741.433-10.386 0 0-2.087-2.812-6.277-4.524-2.427-.992-7.009-2.984-11.775-4.853-3.35-1.314-6.418-2.887-8.411-5.246 0 0-1.776-1.979-2.29-5.372 0 0-.491-2.545 1.059-3.102 0 0 .787-.353 1.651-.236 0 0 .023.001.029.016.002 0 .037.039-.05.024z"/><g fill="none"><path d="M719.27 317.442s-2.788-.503-4.532 2.812c0 0-1.028 2.136-1.194 3.372M712.636 311.775s2.792.484 1.354 4.434c-1.355 3.723-3.872 4.944-4.619 5.462M745.207 202.375s6.75-4.227 13.644.454"/></g></g><g fill="none" stroke-width=".623"><path d="M706.798 243.667s.935-3.77-3.364-10.367c0 0-2.804-6.031-4.299-9.895M708.854 219.258s2.434 5.929 3.271 8.584c0 0 3.019 7.437 3.659 8.945"/></g></g><g stroke-width=".623"><g fill="none" stroke-miterlimit="10"><path d="M710.069 247.813s2.538 2.733 2.25 7.351M701.658 244.892s2.804 1.351 2.619 8.796c0 0-.282 5.435 3.923 8.168M701.278 263.772s8.775-.958 9.258 4.445c0 0 .187 5.183 3.177 5.749 0 0 4.479.424 5.367 4.571M704.041 269.772s1.542 2.309 3.037 3.298M715.302 264.07s2.229 3.377 2.649 5.356M724.959 223.404s2.056 2.796 4.05 4.115M733.183 239.96s4.361 2.136 3.614 13.131c0 0-.561 6.448 1.246 9.967"/></g><path fill="#784421" d="m712.639 232.499.28 1.037s7.819.33 12.04-4.995l-.452-1.021s-6.822-.346-11.868 4.979z"/><path fill="none" stroke-miterlimit="10" d="m740.807 274.447s27.042-8.062 37.464-12.762"/></g><path fill="#784421" stroke-width=".38" d="m737.591 223.687 13.375-5.089.316.895-13.378 5.081z"/></g><g fill="none" stroke-miterlimit="10"><g stroke="#000" stroke-width=".623"><path d="M739.039 224.143l8.878 43.524M740.58 223.558l10.168 43.324M742.31 222.901l11.121 43.007M746.67 221.245l15.161 32.283M748.676 220.483l16.167 32.094M750.161 219.919l17.488 31.772M747.317 268.012l6.862-2.261M742.122 263.706s20.114-5.875 35.337-12.015M741.852 265.908s25.492-6.745 35.606-11.666M749.631 286.641l1.335 4.084 3.649-1.168-1.246-4.047M759.927 283.707l1.335 4.083 3.65-1.167-1.247-4.047M742.625 259.592l-.315-5.525 33.425-10.149 1.807 4.649M756.485 249.763l1.821 4.878M768.17 246.215l2.129 4.639M770.941 245.374l1.991 4.389M773.587 244.57l2.093 4.585M775.735 243.918l3.676-2.073 1.558 4.083M777.542 242.899l1.872 4.227"/></g><g stroke="#012169" stroke-width=".831"><path d="M694.649 306.526s-6.542-6.625 0-13.114c0 0-7.102-3.473-5.981-9.065M706.331 311.775s-6.775.923-4.766-12.27c0 0-2.804 5.23-3.77 7.918-.723 2.012-.245 5.26 2.623 7.016 1.146.702 7.221 2.284 9.183-1.74M698.761 291.589s-2.757 2.545-.794 7.21M701.611 292.201s.327 4.524 2.57 7.068M703.549 290.411s-.021 5.325 3.81 8.623M705.454 288.573s.036 5.984 4.475 9.66M727.498 297.337s2.243-4.901 6.962-4.665c0 0-2.29 1.037-2.243 3.33 0 0-.28 3.785 3.785 4.162 0 0 3.271.424 4.906-1.367"/><path d="M738.666 319.72s-11.635-5.466-10.42-13.335c0 0 .467-4.806 5.166-7.068M730.956 304.311s-1.028 3.393 1.262 5.749M733.572 302.002s-1.402 3.723.935 6.503M736.374 300.195s-1.68 3.079.329 5.859M725.769 320.52s6.355 5.514 11.308 5.561M723.76 322.264s5.939 4.806 9.651 5.513M721.517 323.625s7.341 6.461 11.894 6.932M751.375 336.495s-7.216 3.888-1.622 7.999M746.796 332.207s8.177-4.288 11.728-5.89M749.74 334.422s11.822-7.21 15.326-8.764M755.814 334.893s10.093-6.738 15.513-9.66M762.496 334.657s6.962-5.466 13.691-9.424M778.57 318.401s-3.411-4.995-14.625 0c0 0 4.112-3.732 12.242-6.625M787.508 290.316s.919 4.052-.062 6.503"/><path d="M769.318 309.966s2.336-3.44 8.271-5.136c0 0 1.6 4.005 6.215 3.11 0 0 6.962-1.367 4.86-9 0 0-1.448-5.702-9.4-6.267M802.915 283.113s8.084 1.455 7.944 8.052c0 0 .654 9.895-9.766 11.827M809.711 287.176s2.221-4.823 7.174-6.803M810.866 277.547s2.208 3.54 3.717 4.055M809.711 280.374s2.081 2.543 2.782 2.968M809.036 282.824s1.096 1.619 2.067 2.129M767.449 244.57s1.573-2.553 5.483-1.469M788.897 263.706s2.477-10.332 11.121-6.516M796.513 256.344s.888-4.763-1.262-7.189M790.625 256.012s1.101 1.97.159 3.58"/></g></g><path fill="#64b4d1" stroke="#012169" stroke-miterlimit="2.613" stroke-width=".623" d="m808.195 361.563s9.719-4.429 6.729-11.969c0 0-.924-2.545-3.079-2.356 0 0-3.748.188-2.998 5.183 0 .001 1.123 4.902-.652 9.142z"/><path fill="#fff" d="m811.715 357.103s2.136-2.047 1.838-5.717c0 0-.125-.785.267-.894 0 0 .418-.175.48.736 0 0 .592 3.833-1.994 6.031 0 0-.176.22-.462.157.001.001-.306-.067-.129-.313z"/><path fill="#64b4d1" stroke="#012169" stroke-miterlimit="2.613" stroke-width=".623" d="m822.026 354.778s6.822-4.288 3.131-11.498c0 0-1.075-2.073-3.131-1.649 0 0-4.252 1.319-.935 7.21 0 0 1.682 3.817.935 5.937z"/><path fill="#fff" d="m823.731 345s-.374-.495-.117-.707c0 0 .164-.236.607.33 0 0 2.064 2.307.421 5.855 0 0-.187.506-.514.341 0 0-.28-.141-.023-.565 0 0 1.472-2.921-.374-5.254z"/><path fill="#64b4d1" stroke="#012169" stroke-miterlimit="2.613" stroke-width=".623" d="m801.606 359.679s-7.616-1.932-6.215-9.801c0 0 .748-3.44 3.972-2.969 0 0 3.885.992 1.355 5.994 0 0-1.495 3.571.888 6.776z"/><path fill="#fff" d="m798.662 350.278s-.28-.377.047-.542c0 0 .327-.141.561.318 0 0 .794 1.26.122 2.986 0 0-.636 1.196-.327 2.445 0 0 .042.353-.239.401 0 0-.269-.094-.321-.353 0 0-.38-1.219.274-2.412 0-.001.795-1.853-.117-2.843z"/><path d="M807.073 344.785s4.299-2.415 7.85.412c0 0-.363-1.571-3.079-2.262 0 0-1.469-4.147-5.581-3.77 0 0 1.682 2.01 3.925 3.707 0 0-2.367.245-3.115 1.913zM810.251 333.427s2.92 2.157 4.108 3.602c0 0 1.188-1.476 2.745-2.372 0 0-1.793-.236-2.745.571 0 0-1.492-1.445-4.108-1.801z"/><g fill="none" stroke="#000" stroke-miterlimit="10" stroke-width=".831"><path d="M793.305 342.684s-.312-1.068.436-2.199c0 0 .498-.817.312-1.885M824.642 275.583s4.548-.314 5.296-3.833M837.913 269.426s-1.585-.063-3.018 1.382c0 0-1.094 1.634-2.652 1.445"/></g><path d="m817.914 262.201s2.367 0 3.676-1.131c0 0 1.371-.942 2.181.565 0 0 1.246 2.136-1.059 3.079 0 0-2.866 1.445 1.682 4.335 0 0-5.42-1.948-3.24-4.586 0 0 2.367-1.696 1.495-2.325 0 0-.249-.503-1.184.126-.935.628-2.804.377-3.551-.063z"/><path fill="#64b4d1" stroke="#012169" stroke-miterlimit="2.613" stroke-width=".623" d="m821.134 204.987s1.069-1.455.632-5.821 3.354-4.868 4.812-3.613c0 0 1.507 1.305.121 4.074-.8 1.598-2.077 3.667-5.565 5.36z"/><path fill="#fff" d="m822.559 201.727s1.421-1.528.743-4.845c0 0-.005-.327.183-.349 0 0 .345-.087.403.24 0 0 .763 3.536-.841 5.457 0 0-.293.284-.489 0 .001-.001-.215-.204.001-.503z"/><path fill="#64b4d1" stroke="#012169" stroke-miterlimit="2.613" stroke-width=".623" d="m819.923 203.399s-.112-1.76-3.154-4.751-.541-5.747 1.322-5.724c0 0 1.93.03 2.625 2.971.401 1.699.741 4.048-.793 7.504z"/><path fill="#fff" d="m819.45 199.572s.054-2.156-2.7-4.406c0 0-.224-.262-.096-.401 0 0 .204-.293.47-.066 0 0 2.966 2.373 3.038 4.965 0 0-.033.419-.373.316-.001-.002-.303-.026-.339-.408z"/><path fill="#64b4d1" stroke="#012169" stroke-miterlimit="2.613" stroke-width=".623" d="m815.792 202.076s-.795-1.434-4.552-2.767-2.742-4.615-1.161-5.317c0 0 1.641-.722 3.397 1.477 1.015 1.272 2.236 3.112 2.316 6.607z"/><path fill="#fff" d="m814.146 199.44s-.854-1.977-4.294-2.843c0 0-.313-.142-.255-.323 0 0 .062-.353.398-.26 0 0 3.683.886 4.834 3.205 0 0 .146.394-.206.445 0 .001-.284.108-.477-.224z"/><path fill="#64b4d1" stroke="#012169" stroke-miterlimit="2.613" stroke-width=".623" d="m818.146 203.512s-1.752.492-5.775-1.449-5.785 1.437-5.08 3.244c0 0 .737 1.87 3.851 1.542 1.798-.19 4.206-.661 7.004-3.337z"/><path fill="#fff" d="m808.791 204.794s1.824 1.125 5.134-.155c0 0 .337-.065.392.117 0 0 .15.325-.178.443 0 0-3.521 1.404-5.783.171 0 0-.344-.238-.085-.484.001 0 .174-.252.52-.092z"/><path fill="none" stroke="#000" stroke-miterlimit="2.613" stroke-width=".831" d="m812.26 190.797s2.009.974 1.542 3.33"/><path fill="none" stroke="#000" stroke-miterlimit="10" stroke-width=".831" d="m821.138 191.127s.786 2.488-.082 3.828"/><path fill="#64b4d1" stroke="#012169" stroke-miterlimit="2.613" stroke-width=".623" d="m682.528 204.987s-1.069-1.455-.632-5.821-3.354-4.868-4.812-3.613c0 0-1.507 1.305-.121 4.074.8 1.598 2.076 3.667 5.565 5.36z"/><path fill="#fff" d="m681.102 201.727s-1.421-1.528-.743-4.845c0 0 .005-.327-.183-.349 0 0-.345-.087-.403.24 0 0-.763 3.536.841 5.457 0 0 .293.284.489 0-.001-.001.216-.204-.001-.503z"/><path fill="#64b4d1" stroke="#012169" stroke-miterlimit="2.613" stroke-width=".623" d="m683.738 203.399s.112-1.76 3.154-4.751.541-5.747-1.322-5.724c0 0-1.93.03-2.625 2.971-.401 1.699-.741 4.048.793 7.504z"/><path fill="#fff" d="m684.212 199.572s-.054-2.156 2.7-4.406c0 0 .224-.262.096-.401 0 0-.204-.293-.47-.066 0 0-2.966 2.373-3.038 4.965 0 0 .033.419.373.316 0-.002.302-.026.339-.408z"/><path fill="#64b4d1" stroke="#012169" stroke-miterlimit="2.613" stroke-width=".623" d="m687.869 202.076s.795-1.434 4.552-2.767 2.742-4.615 1.161-5.317c0 0-1.641-.722-3.397 1.477-1.015 1.272-2.236 3.112-2.316 6.607z"/><path fill="#fff" d="m689.515 199.44s.854-1.977 4.294-2.843c0 0 .313-.142.255-.323 0 0-.062-.353-.398-.26 0 0-3.683.886-4.834 3.205 0 0-.146.394.206.445 0 .001.284.108.477-.224z"/><path fill="#64b4d1" stroke="#012169" stroke-miterlimit="2.613" stroke-width=".623" d="m685.515 203.512s1.752.492 5.775-1.449 5.785 1.437 5.08 3.244c0 0-.737 1.87-3.851 1.542-1.798-.19-4.206-.661-7.004-3.337z"/><path fill="#fff" d="m694.87 204.794s-1.824 1.125-5.134-.155c0 0-.337-.065-.392.117 0 0-.15.325.178.443 0 0 3.521 1.404 5.783.171 0 0 .344-.238.085-.484-.001 0-.173-.252-.52-.092z"/><path fill="none" stroke="#000" stroke-miterlimit="2.613" stroke-width=".831" d="m691.401 190.797s-2.009.974-1.542 3.33"/><path fill="none" stroke="#000" stroke-miterlimit="10" stroke-width=".831" d="m682.523 191.127s-.786 2.488.082 3.828"/><path d="M769.739 168.273s1.273 3.634.724 6.927c-.491 2.945.179 3.706 1.243 4.289.921.504 3.055-.378 3.312-2.687 0 0 2.523 4.924-2.383 8.246 0 0-3.528 2.168-6.518-.73-1.054-1.021-1.519-3.84-1.005-6.456 0 0 .772-3.546-.514-7.186 0 0 2.009 2.144 1.495 6.419 0 0-1.028 7.67 4.649 7.293 0 0 3.925-.047 4.042-4.806 0 0-1.472 1.696-3.294 1.131-1.291-.4-2.477-1.649-2.266-3.618.221-2.065.795-5.665.515-8.822zM763.306 180.87s-.312 6.063-5.856 7.539c0 0 .779-1.099-.467-4.115 0 0-1.215-1.759-1.121-4.492 0 0-1.765 1.381.249 5.026 1.215 2.199.156 4.838-.218 4.932-.375.094 9.158-1.257 7.413-8.89zM756.11 174.838s-1.339-1.508-1.433-4.995c-.093-3.487-.748-4.335-1.215-4.744 0 0 .685 3.016.498 4.869s.125 2.922.374 3.801c0 0-3.022.471-4.922-3.927-1.816-4.204-3.645-3.864-4.548-3.833 0 0 1.053.117 3.177 3.958 2.122 3.838 2.711 4.62 8.069 4.871zM741.968 165.728s1.745 4.178 1.807 6.377c0 0-4.05-1.351-5.14-4.869 0 0-4.33 1.476-2.741 6.471 0 0-3.738-1.319-5.42-4.367 0 0 2.087 1.571 4.018 2.262 0 0-.218-4.021 4.828-5.529 0 0 .751 3.602 3.271 4.461 0 .001-.187-2.261-.623-4.806zM748.634 158.566s1.402 2.042 4.268 2.136c1.37.045 2.844-.264 4.268-2.136 0 0-.187 3.55-4.268 3.581 0 0-4.268.157-4.268-3.581zM730.979 182.833s2.126 1.932 2.57 2.568c0 0 1.495 1.461 2.779-.428 0 0 1.637-3.021 3.646-2.941 0 0-1.425.99-3.027 3.846 0 0-.431 1.054-1.623 1.172-.558.055-1.262.236-2.327-.877 0 0-.92-1.125-2.018-3.34zM752.902 144.335c-4.268-.002-.67 3.298-.67 3.298.093 5.23-4.104 6.84-6.962 5.325-2.858-1.516-.623-5.325-.623-5.325s-3.224 2.12-1.168 5.183 7.445 1.696 9.423-1.131c1.978 2.827 7.367 4.194 9.423 1.131s-1.168-5.183-1.168-5.183 2.235 3.809-.623 5.325c-2.858 1.515-7.056-.094-6.962-5.325-.001.001 3.597-3.3-.67-3.298zM755.487 138.681s1.495 2.545 1.168 6.408c0 0 1.355-3.864-1.168-6.408zM742.404 144.665s-.327-2.78-3.037-3.016c0 0 2.289 1.65 3.037 3.016zM763.431 144.665s.327-2.78 3.037-3.016c0 0-2.29 1.65-3.037 3.016zM738.105 148.906s2.149.66 3.458-.942c0 0-2.477.659-3.458.942zM731.143 131.848s2.5-.283 5 3.44c0 0-2.477 1.319-3.084 2.12 0 0 0-1.225 1.215-2.309-.001.001-.468-1.884-3.131-3.251zM773.01 131.848s-2.5-.283-5 3.44c0 0 2.477 1.319 3.084 2.12 0 0 0-1.225-1.215-2.309 0 .001.467-1.884 3.131-3.251zM753.712 134.626s2.243.615 5.046-.94c0 0 3.458-1.838 5.654 0 0 0-1.916-.853-5.607.94 0 0-3.692 2.024-5.093 0z"/><path fill="#fff" d="m756.048 136.89s1.916-3.36 7.757-2.693c0 0-1.589 4.672-7.757 2.693z"/><ellipse cx="760.077" cy="135.848" fill="#784421" rx="1.155" ry="1.464"/><ellipse cx="760.077" cy="135.848" rx=".686" ry=".898"/><path d="M743.525 129.728s3.691.236 5.934 1.649c0 0 2.383 1.414 5.093-.613 0 0 2.947-1.696 4.838-4.052 0 0-4.511 3.11-6.193 3.581 0 0-1.542-1.178-2.149-2.874 0 0 .234-1.272 2.663-3.628 0 0-3.271.99-3.925 3.77 0 0 .607 1.696 1.869 3.016 0 0-.607.283-2.196-.707 0-.001-3.457-1.179-5.934-.142zM752.902 151.898c-3.193 2.757 0 2.474 0 2.474s3.193.283 0-2.474zM751.054 134.626s-2.243.615-5.047-.94c0 0-3.458-1.838-5.654 0 0 0 1.916-.853 5.607.94.001 0 3.692 2.024 5.094 0z"/><path fill="#fff" d="m748.718 136.89s-1.916-3.36-7.757-2.693c0 0 1.589 4.672 7.757 2.693z"/><ellipse cx="744.689" cy="135.848" fill="#784421" rx="1.155" ry="1.464"/><ellipse cx="744.689" cy="135.848" rx=".686" ry=".898"/><path fill="none" stroke="#000" stroke-width="2" d="m865.723 106.664v211.737c0 56.557-113.062 74.933-113.062 74.933s-113.062-18.376-113.062-74.933v-211.737z"/><path d="M16.00 12.62L27.39 12.62C29.89 12.62 31.96 12.89 33.57 13.43C35.45 14.20 36.39 15.80 36.39 18.21C36.39 20.39 35.68 21.91 34.26 22.76C32.84 23.62 31.00 24.05 28.72 24.05L16.00 24.05ZM16.00 32.63L28.90 32.63C31.15 32.65 32.89 32.94 34.14 33.50C36.36 34.51 37.48 36.36 37.48 39.06C37.48 42.25 36.33 44.40 34.03 45.53C32.77 46.14 31.00 46.44 28.72 46.44L16.00 46.44ZM44.33 9.14C41.68 5.55 37.18 3.71 30.83 3.62L5.66 3.62L5.66 55.44L29.14 55.44C31.79 55.44 34.25 55.21 36.51 54.74C38.77 54.27 40.73 53.40 42.40 52.14C43.88 51.04 45.11 49.68 46.09 48.06C47.64 45.62 48.41 42.87 48.41 39.80C48.41 36.82 47.74 34.29 46.39 32.20C45.04 30.12 43.04 28.59 40.39 27.63C42.13 26.74 43.44 25.76 44.33 24.68C45.93 22.76 46.72 20.21 46.72 17.05C46.72 13.98 45.93 11.34 44.33 9.14ZM66.39 26.54C67.67 25.09 69.47 24.36 71.79 24.36C73.92 24.36 75.71 25.05 77.15 26.42C78.59 27.79 79.39 29.80 79.56 32.45L63.98 32.45C64.31 29.96 65.12 28.00 66.39 26.54ZM80.40 17.89C77.85 16.70 74.98 16.10 71.79 16.10C66.42 16.10 62.06 17.87 58.69 21.41C55.33 24.95 53.65 30.04 53.65 36.67C53.65 43.75 55.51 48.86 59.24 52.00C62.96 55.14 67.27 56.71 72.14 56.71C78.05 56.71 82.64 54.84 85.92 51.12C88.03 48.77 89.21 46.46 89.47 44.19L79.24 44.19C78.70 45.32 78.08 46.20 77.38 46.83C76.09 48.00 74.41 48.59 72.35 48.59C70.41 48.59 68.74 48.11 67.36 47.14C65.09 45.60 63.88 42.90 63.74 39.06L89.96 39.06C90.01 35.75 89.91 33.22 89.65 31.46C89.20 28.46 88.23 25.83 86.73 23.55C85.07 20.98 82.96 19.09 80.40 17.89ZM72.49 16.10ZM118.00 16.22C117.87 16.21 117.71 16.21 117.53 16.21C114.53 16.21 112.09 16.99 110.21 18.56C109.07 19.50 107.72 21.25 106.17 23.80L106.17 17.12L96.61 17.12L96.61 55.44L106.70 55.44L106.70 37.13C106.70 34.05 107.09 31.78 107.86 30.30C109.24 27.68 111.95 26.37 115.98 26.37C116.29 26.37 116.68 26.38 117.18 26.40C117.67 26.43 118.23 26.47 118.86 26.54L118.86 16.28C118.42 16.25 118.13 16.24 118.00 16.22ZM172.55 17.26C170.91 16.61 169.24 16.28 167.55 16.28C165.02 16.28 162.73 16.80 160.66 17.86C158.72 18.91 157.09 20.57 155.78 22.82C155.03 20.94 153.93 19.41 152.47 18.21C150.67 16.92 148.30 16.28 145.37 16.28C142.28 16.28 139.76 17.03 137.81 18.53C136.71 19.37 135.54 20.79 134.30 22.78L134.30 17.19L124.56 17.19L124.56 55.44L134.72 55.44L134.72 32.38C134.72 30.29 134.99 28.72 135.53 27.67C136.51 25.82 138.43 24.89 141.29 24.89C143.75 24.89 145.41 25.82 146.25 27.67C146.72 28.70 146.95 30.35 146.95 32.63L146.95 55.44L157.04 55.44L157.04 32.63C157.04 30.91 157.31 29.45 157.85 28.23C158.91 25.93 160.82 24.79 163.58 24.79C165.97 24.79 167.61 25.68 168.50 27.46C168.97 28.39 169.21 29.59 169.21 31.04L169.21 55.44L179.47 55.44L179.54 31.29C179.54 28.80 179.43 26.92 179.19 25.63C178.82 23.68 178.09 22.04 177.01 20.71C175.68 19.07 174.19 17.92 172.55 17.26ZM198.74 17.12L188.47 17.12L188.47 40.22C188.47 44.60 189.02 47.92 190.13 50.17C192.09 54.25 195.91 56.29 201.59 56.29C203.55 56.29 205.27 56.03 206.74 55.51C208.20 55.00 209.72 54.04 211.29 52.63C211.80 52.18 212.25 51.67 212.63 51.08C213.00 50.50 213.23 50.14 213.33 50.03L213.33 55.44L223.07 55.44L223.07 17.12L212.91 17.12L212.91 37.97C212.91 40.43 212.58 42.41 211.92 43.91C210.66 46.68 208.31 48.06 204.89 48.06C202.22 48.06 200.43 47.09 199.51 45.14C199.00 44.04 198.74 42.40 198.74 40.22ZM205.77 16.10ZM253.05 17.74C251.25 16.72 249.19 16.21 246.87 16.21C241.83 16.21 237.80 18.08 234.79 21.83C231.78 25.58 230.27 30.73 230.27 37.27C230.27 42.94 231.80 47.58 234.86 51.21C237.92 54.83 241.69 56.64 246.16 56.64C248.88 56.64 251.16 56.12 252.98 55.09C254.81 54.06 256.44 52.41 257.87 50.13L257.87 55.44L267.61 55.44L267.61 3.69L257.45 3.69L257.45 21.97C256.32 20.17 254.86 18.76 253.05 17.74ZM255.52 45.04C254.04 47.14 251.88 48.20 249.05 48.20C246.21 48.20 244.10 47.14 242.70 45.02C241.31 42.90 240.61 40.07 240.61 36.53C240.61 33.25 241.29 30.50 242.67 28.28C244.04 26.07 246.19 24.96 249.12 24.96C251.04 24.96 252.73 25.57 254.18 26.79C256.55 28.80 257.73 32.16 257.73 36.84C257.73 40.20 256.99 42.93 255.52 45.04ZM297.84 36.81L297.84 40.54C297.77 43.89 296.83 46.20 295.01 47.46C293.20 48.73 291.21 49.36 289.05 49.36C287.70 49.36 286.54 48.98 285.59 48.22C284.64 47.46 284.17 46.22 284.17 44.51C284.17 42.59 284.94 41.17 286.49 40.25C287.40 39.71 288.91 39.26 291.02 38.88L293.27 38.46C294.40 38.25 295.28 38.02 295.93 37.78C296.57 37.53 297.21 37.21 297.84 36.81ZM291.76 32.13L288.35 32.55C284.48 33.05 281.55 33.87 279.56 35.02C275.93 37.13 274.11 40.54 274.11 45.25C274.11 48.88 275.24 51.69 277.51 53.67C279.77 55.65 282.63 56.64 286.10 56.64C288.82 56.64 291.26 56.02 293.41 54.77C295.22 53.72 296.81 52.44 298.20 50.94C298.27 51.81 298.36 52.58 298.48 53.26C298.59 53.94 298.80 54.67 299.11 55.44L310.01 55.44L310.01 53.96C309.35 53.66 308.86 53.27 308.53 52.80C308.20 52.34 308.00 51.45 307.93 50.13C307.89 48.40 307.86 46.92 307.86 45.70L307.86 28.13C307.86 23.51 306.23 20.37 302.98 18.70C299.72 17.04 295.99 16.21 291.80 16.21C285.35 16.21 280.80 17.89 278.16 21.27C276.49 23.43 275.55 26.18 275.34 29.53L285.01 29.53C285.25 28.05 285.71 26.88 286.42 26.02C287.40 24.84 289.08 24.26 291.45 24.26C293.55 24.26 295.15 24.56 296.24 25.15C297.33 25.75 297.88 26.84 297.88 28.41C297.88 29.70 297.16 30.64 295.73 31.25C294.94 31.61 293.61 31.90 291.76 32.13ZM292.29 16.10ZM339.12 16.10C336.07 23.13 334.55 30.07 334.55 36.91C334.55 42.84 335.72 48.74 338.06 54.60C340.05 59.64 342.95 64.76 346.75 69.96L352.69 69.96L350.54 66.02C347.59 60.59 345.54 54.90 344.39 48.97C343.64 45.11 343.27 40.88 343.27 36.28C343.27 29.16 344.24 22.71 346.18 16.95C347.36 13.50 349.57 8.80 352.83 2.85L347.06 2.78L344.57 6.22C342.62 8.92 340.80 12.21 339.12 16.10ZM368.61 3.62L357.12 3.62L371.81 55.44L381.87 55.44L388.13 25.14L389.95 15.12L391.78 25.14L398.04 55.44L408.38 55.44L422.96 3.62L411.96 3.62L405.04 33.61L403.45 41.55L401.87 33.29L395.72 3.62L384.29 3.62L378.46 33.47L376.95 41.55L375.47 33.29ZM438.42 26.54C439.69 25.09 441.49 24.36 443.81 24.36C445.95 24.36 447.73 25.05 449.17 26.42C450.62 27.79 451.42 29.80 451.58 32.45L436.01 32.45C436.34 29.96 437.14 28.00 438.42 26.54ZM452.43 17.89C449.87 16.70 447.00 16.10 443.81 16.10C438.45 16.10 434.08 17.87 430.72 21.41C427.35 24.95 425.67 30.04 425.67 36.67C425.67 43.75 427.54 48.86 431.26 52.00C434.99 55.14 439.29 56.71 444.16 56.71C450.07 56.71 454.66 54.84 457.95 51.12C460.05 48.77 461.24 46.46 461.50 44.19L451.27 44.19C450.73 45.32 450.11 46.20 449.40 46.83C448.11 48.00 446.44 48.59 444.38 48.59C442.43 48.59 440.77 48.11 439.38 47.14C437.11 45.60 435.90 42.90 435.76 39.06L461.99 39.06C462.04 35.75 461.93 33.22 461.67 31.46C461.23 28.46 460.25 25.83 458.75 23.55C457.09 20.98 454.98 19.09 452.43 17.89ZM444.52 16.10ZM469.48 55.44L480.20 55.44L480.20 32.31L500.45 32.31L500.45 55.44L511.21 55.44L511.21 3.62L500.45 3.62L500.45 23.38L480.20 23.38L480.20 3.62L469.48 3.62ZM530.46 26.54C531.73 25.09 533.53 24.36 535.85 24.36C537.98 24.36 539.77 25.05 541.21 26.42C542.65 27.79 543.46 29.80 543.62 32.45L528.05 32.45C528.37 29.96 529.18 28.00 530.46 26.54ZM544.46 17.89C541.91 16.70 539.04 16.10 535.85 16.10C530.48 16.10 526.12 17.87 522.76 21.41C519.39 24.95 517.71 30.04 517.71 36.67C517.71 43.75 519.57 48.86 523.30 52.00C527.03 55.14 531.33 56.71 536.20 56.71C542.11 56.71 546.70 54.84 549.98 51.12C552.09 48.77 553.28 46.46 553.54 44.19L543.30 44.19C542.77 45.32 542.14 46.20 541.44 46.83C540.15 48.00 538.48 48.59 536.41 48.59C534.47 48.59 532.80 48.11 531.42 47.14C529.15 45.60 527.94 42.90 527.80 39.06L554.03 39.06C554.07 35.75 553.97 33.22 553.71 31.46C553.27 28.46 552.29 25.83 550.79 23.55C549.13 20.98 547.02 19.09 544.46 17.89ZM536.55 16.10ZM581.91 36.81L581.91 40.54C581.84 43.89 580.89 46.20 579.08 47.46C577.26 48.73 575.27 49.36 573.12 49.36C571.76 49.36 570.60 48.98 569.65 48.22C568.71 47.46 568.23 46.22 568.23 44.51C568.23 42.59 569.00 41.17 570.55 40.25C571.46 39.71 572.98 39.26 575.09 38.88L577.34 38.46C578.46 38.25 579.35 38.02 579.99 37.78C580.63 37.53 581.27 37.21 581.91 36.81ZM575.82 32.13L572.41 32.55C568.55 33.05 565.62 33.87 563.63 35.02C559.99 37.13 558.18 40.54 558.18 45.25C558.18 48.88 559.31 51.69 561.57 53.67C563.83 55.65 566.70 56.64 570.16 56.64C572.88 56.64 575.32 56.02 577.48 54.77C579.28 53.72 580.88 52.44 582.26 50.94C582.33 51.81 582.42 52.58 582.54 53.26C582.66 53.94 582.87 54.67 583.17 55.44L594.07 55.44L594.07 53.96C593.41 53.66 592.92 53.27 592.59 52.80C592.27 52.34 592.07 51.45 592.00 50.13C591.95 48.40 591.93 46.92 591.93 45.70L591.93 28.13C591.93 23.51 590.30 20.37 587.04 18.70C583.78 17.04 580.05 16.21 575.86 16.21C569.41 16.21 564.87 17.89 562.22 21.27C560.55 23.43 559.62 26.18 559.41 29.53L569.07 29.53C569.31 28.05 569.78 26.88 570.48 26.02C571.46 24.84 573.14 24.26 575.51 24.26C577.62 24.26 579.22 24.56 580.31 25.15C581.40 25.75 581.94 26.84 581.94 28.41C581.94 29.70 581.23 30.64 579.80 31.25C579.00 31.61 577.68 31.90 575.82 32.13ZM576.35 16.10ZM611.05 55.44L611.05 3.62L601.03 3.62L601.03 55.44ZM616.89 24.61L622.23 24.61L622.23 48.20C622.23 50.59 622.79 52.36 623.92 53.51C625.65 55.31 628.89 56.13 633.62 55.97L638.37 55.79L638.37 48.30C638.04 48.33 637.71 48.35 637.37 48.36C637.03 48.37 636.70 48.38 636.40 48.38C634.36 48.38 633.14 48.18 632.74 47.79C632.34 47.41 632.14 46.43 632.14 44.86L632.14 24.61L638.37 24.61L638.37 17.47L632.14 17.47L632.14 6.79L622.23 6.79L622.23 17.47L616.89 17.47ZM672.38 17.37C670.45 16.55 668.30 16.14 665.93 16.14C663.82 16.14 661.81 16.58 659.90 17.46C657.99 18.33 656.31 19.89 654.86 22.11L654.86 3.80L644.87 3.80L644.87 55.44L654.86 55.44L654.86 34.70C654.86 31.42 655.54 28.89 656.91 27.12C658.28 25.35 660.29 24.47 662.94 24.47C665.50 24.47 667.23 25.36 668.14 27.14C668.85 28.41 669.20 30.07 669.20 32.13L669.20 55.44L679.43 55.44L679.43 32.94C679.43 29.52 679.31 27.05 679.08 25.54C678.84 24.03 678.20 22.56 677.14 21.13C675.90 19.44 674.31 18.19 672.38 17.37ZM720.11 12.62L731.50 12.62C734.00 12.62 736.07 12.89 737.68 13.43C739.56 14.20 740.50 15.80 740.50 18.21C740.50 20.39 739.79 21.91 738.37 22.76C736.95 23.62 735.11 24.05 732.83 24.05L720.11 24.05ZM720.11 32.63L733.01 32.63C735.26 32.65 737.00 32.94 738.25 33.50C740.47 34.51 741.59 36.36 741.59 39.06C741.59 42.25 740.44 44.40 738.14 45.53C736.88 46.14 735.11 46.44 732.83 46.44L720.11 46.44ZM748.44 9.14C745.79 5.55 741.29 3.71 734.94 3.62L709.77 3.62L709.77 55.44L733.25 55.44C735.90 55.44 738.36 55.21 740.62 54.74C742.88 54.27 744.84 53.40 746.51 52.14C747.98 51.04 749.21 49.68 750.20 48.06C751.75 45.62 752.52 42.87 752.52 39.80C752.52 36.82 751.85 34.29 750.50 32.20C749.15 30.12 747.15 28.59 744.50 27.63C746.24 26.74 747.55 25.76 748.44 24.68C750.04 22.76 750.83 20.21 750.83 17.05C750.83 13.98 750.04 11.34 748.44 9.14ZM770.50 26.54C771.78 25.09 773.58 24.36 775.90 24.36C778.03 24.36 779.82 25.05 781.26 26.42C782.70 27.79 783.50 29.80 783.67 32.45L768.09 32.45C768.42 29.96 769.22 28.00 770.50 26.54ZM784.51 17.89C781.96 16.70 779.09 16.10 775.90 16.10C770.53 16.10 766.17 17.87 762.80 21.41C759.44 24.95 757.76 30.04 757.76 36.67C757.76 43.75 759.62 48.86 763.35 52.00C767.07 55.14 771.37 56.71 776.25 56.71C782.16 56.71 786.75 54.84 790.03 51.12C792.14 48.77 793.32 46.46 793.58 44.19L783.35 44.19C782.81 45.32 782.19 46.20 781.49 46.83C780.20 48.00 778.52 48.59 776.46 48.59C774.52 48.59 772.85 48.11 771.47 47.14C769.20 45.60 767.99 42.90 767.85 39.06L794.07 39.06C794.12 35.75 794.02 33.22 793.76 31.46C793.31 28.46 792.34 25.83 790.84 23.55C789.18 20.98 787.07 19.09 784.51 17.89ZM776.60 16.10ZM822.11 16.22C821.98 16.21 821.82 16.21 821.64 16.21C818.64 16.21 816.20 16.99 814.32 18.56C813.18 19.50 811.83 21.25 810.28 23.80L810.28 17.12L800.72 17.12L800.72 55.44L810.81 55.44L810.81 37.13C810.81 34.05 811.20 31.78 811.97 30.30C813.35 27.68 816.06 26.37 820.09 26.37C820.39 26.37 820.79 26.38 821.29 26.40C821.78 26.43 822.34 26.47 822.97 26.54L822.97 16.28C822.53 16.25 822.24 16.24 822.11 16.22ZM876.66 17.26C875.02 16.61 873.35 16.28 871.66 16.28C869.13 16.28 866.84 16.80 864.77 17.86C862.83 18.91 861.20 20.57 859.89 22.82C859.14 20.94 858.04 19.41 856.58 18.21C854.78 16.92 852.41 16.28 849.48 16.28C846.39 16.28 843.87 17.03 841.92 18.53C840.82 19.37 839.65 20.79 838.41 22.78L838.41 17.19L828.67 17.19L828.67 55.44L838.83 55.44L838.83 32.38C838.83 30.29 839.10 28.72 839.64 27.67C840.62 25.82 842.54 24.89 845.40 24.89C847.86 24.89 849.52 25.82 850.36 27.67C850.83 28.70 851.06 30.35 851.06 32.63L851.06 55.44L861.15 55.44L861.15 32.63C861.15 30.91 861.42 29.45 861.96 28.23C863.02 25.93 864.93 24.79 867.69 24.79C870.08 24.79 871.72 25.68 872.61 27.46C873.08 28.39 873.32 29.59 873.32 31.04L873.32 55.44L883.58 55.44L883.65 31.29C883.65 28.80 883.54 26.92 883.30 25.63C882.93 23.68 882.20 22.04 881.12 20.71C879.79 19.07 878.30 17.92 876.66 17.26ZM902.85 17.12L892.58 17.12L892.58 40.22C892.58 44.60 893.13 47.92 894.23 50.17C896.20 54.25 900.02 56.29 905.70 56.29C907.66 56.29 909.38 56.03 910.85 55.51C912.31 55.00 913.83 54.04 915.40 52.63C915.91 52.18 916.36 51.67 916.73 51.08C917.11 50.50 917.34 50.14 917.44 50.03L917.44 55.44L927.18 55.44L927.18 17.12L917.02 17.12L917.02 37.97C917.02 40.43 916.69 42.41 916.03 43.91C914.77 46.68 912.42 48.06 909 48.06C906.33 48.06 904.54 47.09 903.62 45.14C903.11 44.04 902.85 42.40 902.85 40.22ZM909.88 16.10ZM957.16 17.74C955.36 16.72 953.30 16.21 950.98 16.21C945.94 16.21 941.91 18.08 938.90 21.83C935.89 25.58 934.38 30.73 934.38 37.27C934.38 42.94 935.91 47.58 938.97 51.21C942.03 54.83 945.80 56.64 950.27 56.64C952.99 56.64 955.27 56.12 957.09 55.09C958.92 54.06 960.55 52.41 961.98 50.13L961.98 55.44L971.72 55.44L971.72 3.69L961.56 3.69L961.56 21.97C960.43 20.17 958.97 18.76 957.16 17.74ZM959.63 45.04C958.15 47.14 955.99 48.20 953.16 48.20C950.32 48.20 948.21 47.14 946.81 45.02C945.42 42.90 944.72 40.07 944.72 36.53C944.72 33.25 945.40 30.50 946.78 28.28C948.15 26.07 950.30 24.96 953.23 24.96C955.15 24.96 956.84 25.57 958.29 26.79C960.66 28.80 961.84 32.16 961.84 36.84C961.84 40.20 961.10 42.93 959.63 45.04ZM1001.95 36.81L1001.95 40.54C1001.88 43.89 1000.94 46.20 999.12 47.46C997.31 48.73 995.32 49.36 993.16 49.36C991.80 49.36 990.65 48.98 989.70 48.22C988.75 47.46 988.28 46.22 988.28 44.51C988.28 42.59 989.05 41.17 990.60 40.25C991.51 39.71 993.02 39.26 995.13 38.88L997.38 38.46C998.51 38.25 999.39 38.02 1000.04 37.78C1000.68 37.53 1001.32 37.21 1001.95 36.81ZM995.87 32.13L992.46 32.55C988.59 33.05 985.66 33.87 983.67 35.02C980.04 37.13 978.22 40.54 978.22 45.25C978.22 48.88 979.35 51.69 981.62 53.67C983.88 55.65 986.74 56.64 990.21 56.64C992.93 56.64 995.37 56.02 997.52 54.77C999.33 53.72 1000.92 52.44 1002.30 50.94C1002.38 51.81 1002.47 52.58 1002.59 53.26C1002.70 53.94 1002.91 54.67 1003.22 55.44L1014.12 55.44L1014.12 53.96C1013.46 53.66 1012.97 53.27 1012.64 52.80C1012.31 52.34 1012.11 51.45 1012.04 50.13C1012.00 48.40 1011.97 46.92 1011.97 45.70L1011.97 28.13C1011.97 23.51 1010.34 20.37 1007.09 18.70C1003.83 17.04 1000.10 16.21 995.91 16.21C989.46 16.21 984.91 17.89 982.27 21.27C980.60 23.43 979.66 26.18 979.45 29.53L989.12 29.53C989.36 28.05 989.82 26.88 990.53 26.02C991.51 24.84 993.19 24.26 995.55 24.26C997.66 24.26 999.26 24.56 1000.35 25.15C1001.44 25.75 1001.99 26.84 1001.99 28.41C1001.99 29.70 1001.27 30.64 999.84 31.25C999.05 31.61 997.72 31.90 995.87 32.13ZM996.40 16.10ZM1032.79 16.70C1030.93 12.39 1028.23 7.75 1024.66 2.78L1017.11 2.78L1019.25 6.71C1022.20 12.13 1024.25 17.80 1025.40 23.73C1026.15 27.62 1026.53 31.86 1026.53 36.46C1026.53 43.63 1025.48 50.23 1023.40 56.25C1022.18 59.81 1020.02 64.38 1016.93 69.96L1024.35 69.96L1026.84 66.55C1028.46 64.49 1030.18 61.42 1032.01 57.34C1035.27 50.05 1036.90 42.88 1036.90 35.82C1036.90 29.40 1035.53 23.03 1032.79 16.70Z" transform="translate(83.916 518.98) scale(.79907)"/></svg>