<svg xmlns="http://www.w3.org/2000/svg" role="img" viewBox="-14.39 -14.39 748.28 615.78"><title>Brazil (Coronavírus-SUS) logo</title><defs><style>.cls-3{fill:#012876}.cls-5{fill:#edf0f5}.cls-6{fill:#e9ecf3}.cls-7{fill:#e2e7ef}.cls-8{fill:#d9dfeb}.cls-9{fill:#c5cee0}.cls-10{fill:#10a146}.cls-11{fill:#12a248}.cls-12{fill:#11a247}.cls-14{fill:#edf8f1}.cls-15{fill:#f5fbf7}</style></defs><path fill="#009939" d="M720,504H.00009Q0,252.00011,0,.00014,359.99982,0,719.99977,0,719.99994,251.99991,720,504ZM61.71673,252.02742a12.42476,12.42476,0,0,0,2.86078,2.05843Q209.83207,346.8552,355.09629,439.60944c1.4151.90361,2.85112,1.77592,4.24275,2.71427a1.54085,1.54085,0,0,0,1.96775.05555c.454-.32578.93944-.60771,1.41106-.90885q71.4674-45.63726,142.93468-91.27463Q581.26389,301.911,656.87208,253.6214c.69808-.44587,1.36318-.94345,2.07228-1.43678a10.24821,10.24821,0,0,0-2.67275-1.955q-146.77105-93.73467-293.55514-187.449c-.53915-.34424-1.09315-.66688-1.617-1.033a1.21115,1.21115,0,0,0-1.54034.03773c-.524.36572-1.07869.68737-1.61784,1.03163q-41.64725,26.59476-83.29419,53.19Q169.51577,183.13579,64.38442,250.26462C63.52505,250.81338,62.68243,251.38839,61.71673,252.02742Z"/><path fill="#fddf00" d="M61.71673,252.02742c.9657-.639,1.80832-1.214,2.66769-1.7628Q169.51458,183.13394,274.64715,116.007q41.64816-26.59332,83.29419-53.19c.53915-.34426,1.0938-.66591,1.61784-1.03163a1.21115,1.21115,0,0,1,1.54034-.03773c.5238.36608,1.0778.68872,1.617,1.033q146.78067,93.71965,293.55514,187.449a10.24821,10.24821,0,0,1,2.67275,1.955c-.7091.49333-1.3742.99091-2.07228,1.43678q-75.60723,48.29117-151.21955,96.57438-71.46683,45.63813-142.93468,91.27463c-.47162.30114-.9571.58307-1.41106.90885a1.54085,1.54085,0,0,1-1.96775-.05555c-1.39163-.93835-2.82765-1.81066-4.24275-2.71427q-145.26178-92.758-290.51878-185.52359A12.42476,12.42476,0,0,1,61.71673,252.02742ZM245.2698,201.03116a62.87666,62.87666,0,0,0-4.294,10.61044,46.60851,46.60851,0,0,0-2.45694,8.72279,8.9,8.9,0,0,0-.43169,1.106,129.93128,129.93128,0,0,0-3.00731,16.97621,123.54816,123.54816,0,0,0,3.22755,45.194c17.20267,65.85431,82.80026,106.44479,149.15465,91.47517,42.51505-9.59139,72.23237-35.38164,89.60036-75.34674a52.221,52.221,0,0,0,3.50724-10.17112,91.92353,91.92353,0,0,0,4.54143-19.99778,124.33662,124.33662,0,0,0-3.01228-50.15931C465.49477,157.26,402.86392,114.49319,334.389,128.87217c-38.82332,8.15247-67.39092,30.69491-86.14737,65.637A32.85024,32.85024,0,0,0,245.2698,201.03116Z"/><path d="M480.56983,289.59809a52.23675,52.23675,0,0,1-3.50742,10.17088c-17.368,39.9651-47.08531,65.75535-89.60036,75.34674-66.35439,14.96962-131.952-25.62086-149.15465-91.47517a123.54816,123.54816,0,0,1-3.22755-45.19395,129.93128,129.93128,0,0,1,3.00731-16.97621,8.89475,8.89475,0,0,1,.43173-1.106c4.98265-.692,9.95893-1.43407,14.94907-2.06646a280.28791,280.28791,0,0,1,42.10442-2.05059A286.57313,286.57313,0,0,1,463.74129,275.7162C469.51951,280.14085,475.03073,284.88548,480.56983,289.59809ZM360.242,303.73626a11.7185,11.7185,0,0,1-1.23117,2.93892c-.74751.93835-2.16276-.0767-3.15551.64553.50147.95343,1.83009,1.09687,2.18845,2.06056.40215,1.08147-.76591,2.05556-.48226,3.36021a9.55264,9.55264,0,0,1,2.63417-1.6038c1.05223-.22954,1.69307,1.02724,2.63259,1.4228a1.74187,1.74187,0,0,0,.52388.00671,9.35718,9.35718,0,0,1-.73209-2.99007c.10895-1.12353,1.7296-1.2201,2.29822-2.39809a8.975,8.975,0,0,1-3.04776-.367C360.87168,306.29734,361.22977,304.7439,360.242,303.73626Zm-102.68217-79.2377c-.83426.8842-.60572,2.25226-1.41888,3.0252-.85544.81315-2.18171-.0984-3.38649.725,2.39605,1.03352,3.06419,2.65132,1.806,4.88364-.03662.065.12141.23968.18926.36288,2.78092-1.7077,2.78147-1.70856,5.26075-.11131.17748.11435.29534.12205.45984-.14994a8.78132,8.78132,0,0,1-.69483-2.82806c.09741-1.17712,1.715-1.271,2.29743-2.30568-1.00157-.65745-2.41887.28-3.15149-.571A11.44148,11.44148,0,0,1,257.55986,224.49856Zm10.83431,52.90461c-.24449,2.49906-1.40543,3.84416-3.95037,3.38866-.21178-.03789-.3082.075-.24322.52464,2.08966.94,2.68673,2.58967,1.51307,4.79391-.01676.03149.186.17988.43843.416,1.6887-2.30356,3.50554-1.82494,5.3015.23135.25515-1.46991-.82025-2.43717-.54624-3.49195.285-1.09679,1.83785-1.1659,2.299-2.32629-1.02175-.50651-2.29347.239-3.16324-.42583C269.166,279.84325,269.48908,278.38913,268.39417,277.40317Zm46.01649,39.9572c-2.756.574-3.94011-.64676-4.34063-2.96617-.01957-.11338-.14724-.20809-.44862-.61107-.3835,2.544-1.39351,4.12277-4.05249,3.513-.19031-.04363-.29807.09849-.27967.37359.50212.83309,1.81075,1.03679,2.17617,1.95287.38954.97656-.467,1.94031-.624,2.94413-.01688.10788.10975.23816.27372.56555,1.63178-1.8082,3.36639-2.29239,5.139-.26848.04418.05042.261-.05033.74607-.15788C311.05192,320.39248,312.34854,318.879,314.41066,317.36037ZM443.95031,295.039c2.32808,1.10063,2.88624,2.77181,1.78972,4.9527-.01723.03425.18184.17722.42785.40843,1.69608-2.25818,3.51387-1.80211,5.48514.13248-1.04757-2.32248-1.05059-4.15907,1.34894-5.29005.0915-.04313.09416-.27475.15325-.46752a8.73859,8.73859,0,0,1-3.03152-.33785c-.911-.46029-.66193-1.87787-1.27805-2.71509-.07175-.0975-.22705-.13354-.35549-.20461a10.09343,10.09343,0,0,1-1.2118,2.82911C446.54361,295.2024,445.172,294.28688,443.95031,295.039Zm-20.474,34.79582c-.43149,2.31791-1.89205,2.91357-3.9431,2.90646,2.25993.9914,2.157,2.62892,1.36916,4.54819,2.53084-1.42025,2.53084-1.42025,5.05665-.1149-.87745-1.92891-.72214-3.45794,1.40053-4.45524C425.29069,332.70589,423.76487,332.19756,423.47633,329.83483Zm32.69356-19.03711c-.92516-2.026-.44051-3.43585,1.48881-4.53475-2.31029.23417-3.4476-.78864-3.92092-3.067-.11584,2.60177-1.79071,3.06926-3.85942,3.18407,2.34536.97113,2.12065,2.63086,1.1557,4.97757C452.92362,309.50587,454.43065,309.07878,456.16989,310.79772ZM294.85953,290.72121c-.19971,2.47925-1.74287,3.10869-3.851,3.18692,2.37557.93319,1.97564,2.642,1.48793,4.47571,1.58054-1.64821,3.09519-1.57652,4.76116-.07559-.75314-1.93986-.60539-3.46046,1.46968-4.49751C296.51249,293.93479,295.25744,293.07721,294.85953,290.72121Zm69.48424-19.60849c-2.29846-.35947-2.29846-.35947-4.29739-2.80069.01313,2.4665-1.6766,2.70149-3.6653,2.781,2.194,1.00143,2.23459,2.64906,1.589,4.49977,1.14932-.21085,1.59528-1.31007,2.54813-1.16543.79606.12076,1.279,1.05689,2.55205,1.187C361.60679,273.49567,362.65633,272.22911,364.34377,271.11272Zm81.68782,42.30733c-.10231,2.66523-1.87822,2.93332-3.82108,3.13823,2.38963.91081,1.97614,2.61495,1.36741,4.43159,2.48733-1.41823,2.48733-1.41823,4.98887-.09346-.82177-1.9043-.76116-3.45973,1.38094-4.43C447.81284,316.52672,446.4208,315.83959,446.03159,313.42005Zm-44.14226,22.38956c-2.63106-.34916-2.63106-.34916-3.89323-3.13439-.37491,2.19117-1.48418,3.31925-3.79529,3.08895,2.02145,1.11676,2.24185,2.637,1.4818,4.69711,1.61113-1.9118,3.119-1.50036,4.75688-.15759C399.71884,338.35477,399.90737,336.81537,401.88933,335.80961Zm-87.09919-75.21045c-1.06008-2.05726-.24712-3.45706,1.38985-4.72688-2.5113.64928-3.22163-.97-4.02715-2.89254.159,2.79431-1.67974,2.96086-3.67864,2.98084.63361.96343,1.721,1.15327,1.98118,2.015.24571.81384-.75443,1.56123-.23763,2.64434C311.65,258.9428,313.14436,259.16358,314.79014,260.59916Zm-63.98855,36.46421c2.38371-1.30028,2.38371-1.30028,5.0122.06234-1.18271-2.06045-.46145-3.48164,1.22277-4.72819-2.51286.60642-3.26585-.91813-3.8703-2.82161-.31884,2.21921-1.54837,3.16421-3.86774,2.8251C251.37915,294.43046,251.37915,294.43046,250.80159,297.06337ZM375.17547,279.5c-1.03084.939-.71789,2.09689-1.53135,2.582-.70389.41974-1.6679-.17212-2.636.56517,2.25935.86484,2.11219,2.5113,1.48029,4.31429,1.1136-.28078,1.61554-1.30928,2.52644-1.264.80959.04028,1.27814,1.06726,2.50448,1.15825-1.31953-2.02977-.262-3.31119,1.71076-4.76636C376.53484,282.61843,375.36054,281.79158,375.17547,279.5ZM425.325,349.13661c-.72706-1.46985-.58491-2.64639,1.03532-3.49339-1.79282.13181-2.62626-.75521-3.13456-2.26491a2.40853,2.40853,0,0,1-2.965,2.1174c1.44513,1.53021,1.44513,1.53021,1.27374,3.52755C423.2373,348.22258,423.2373,348.22258,425.325,349.13661ZM391.56637,244.89934c1.675.78551,1.70142,2.00112.85108,3.90689,1.58742-1.41979,2.77371-1.609,4.10188-.43791a2.52411,2.52411,0,0,1,1.16148-3.536c-1.70485.07532-2.60482-.667-3.11743-2.39745C394.4846,244.51533,393.0959,244.65183,391.56637,244.89934Zm72.82431,55.40825c1.16813-1.86856,2.39388-.64934,3.96616-.24138-1.75864-1.782.16186-2.47728.72817-3.56338-2.02808-.30275-2.02808-.30275-3.02018-2.23892-.39141,1.58634-1.28485,2.401-2.98172,2.15991C464.58548,298.06664,464.58548,298.06664,464.39068,300.30759Zm-38.44257,20.05606c-1.90749.62106-2.42628-.68965-3.23183-2.20275.28746,2.50638-1.68149,1.93339-3.09185,2.58657,1.82543.75764,1.86736,1.93177,1.15442,3.79,1.55294-1.4865,2.74805-1.37953,3.98344-.312C424.48417,322.0447,424.48417,322.0447,425.94811,320.36365Zm12.06064,6.16178c-.81849-1.54459-.37825-2.65131.98034-3.58351a2.6426,2.6426,0,0,1-3.01957-2.22035c-.38242,1.62234-1.44352,2.21144-3.03645,2.35473a2.25452,2.25452,0,0,1,1.01,3.35075C436.02647,325.63635,436.02647,325.63635,438.00875,326.52543Zm-32.25636-1.55253c1.49651.80006,1.88373,1.91179,1.22622,3.62988,1.32867-1.65094,2.51637-.865,3.66091-.2185.31626-.75246-.29408-1.2963-.16125-1.94238.14426-.70151,1.22443-.72876,1.12365-1.75518-1.67806.46972-2.09235-1.00482-2.86327-2.031C407.956,324.49383,407.956,324.49383,405.75239,324.9729Zm-56.24966-38.74357a2.63973,2.63973,0,0,1,1.1269-3.524c-1.83217.24677-2.42449-.89326-3.00366-2.21657-.26575,1.7516-1.45453,2.19677-2.93792,2.414,1.66934.67172,1.43774,1.94382.94081,3.73946C347.13018,285.16737,348.24976,285.24053,349.50273,286.22933Zm38.73639,32.91753c-1.03675,2.285-1.03675,2.285-3.32089,2.63719,1.66638.76769,1.61948,2.12332,1.52754,3.6295,1.20686-1.53448,2.40279-.66832,3.8415-.12583-1.50627-1.7284.15143-2.50925.9203-3.778C389.39234,321.888,388.58357,321.09709,388.23912,319.14686Zm-97.16861-14.847c-.25128,1.82859-1.49634,2.12405-3.50031,2.08236,1.807,1.08076,2.30722,2.10633,1.6401,3.65429a2.79908,2.79908,0,0,1,3.78437-.04541c-.94828-1.68068.29042-2.5546,1.24242-3.79911C292.32963,306.64521,291.52171,305.84977,291.07051,304.29985Zm62.86076-14.14436a7.19889,7.19889,0,0,0-.43394.86994c-.222.6503-1.46148.182-1.27928.99888.12126.5436.69762.98431.55,1.687-.03428.16315.152.54287.41962.31752.667-.5615,2.51306.73758,2.177-1.37481.89444-.74253.57431-1.0065-.38329-1.29115C354.56655,291.23956,354.3034,290.60587,353.93127,290.15549ZM281.026,272.51071c-.23929.38769-.41141.6479-.56446.91887a1.1492,1.1492,0,0,1-.9934.50657c-.25163.03252-.4749.39355-.35484.45721.79614.42181.4863,1.2784.81381,1.82736.24076.40354.76722-.28658,1.24834-.179.33665.07529.97412.78489,1.00722-.07793.03036-.791,1.41666-2.07287-.58485-2.45116C281.40435,273.47607,281.29393,273,281.026,272.51071Zm79.27148,76.82644c-.22281.57249-1.27644.47261-1.07447,1.187.13348.47218-.05531,1.31452,1.15635,1.3127,1.21565-.00181,1.03635-.82388,1.13426-1.3096C361.6624,349.78917,360.673,349.84841,360.29746,349.33715Z" class="cls-3"/><path d="M245.26979,201.03115a32.851,32.851,0,0,1,2.97181-6.522c18.75645-34.94208,47.32405-57.48452,86.14737-65.637,68.475-14.379,131.1058,28.38783,147.70983,90.56859A124.33748,124.33748,0,0,1,485.11114,269.6c-.75053-.59529-1.51087-1.17865-2.2503-1.78749a304.78566,304.78566,0,0,0-65.93934-41.49924,205.484,205.484,0,0,0-20.10337-8.34851c-.0462-.06477-.142-.13955-.13131-.19288.26707-1.3252,1.51111-1.661,2.43738-2.24121.74066-.464,1.2308.46938,1.84656.75408.43661.20187.7052.93864,1.36907.5351.06319-1.10377-.90228-2.00657-.58834-3.02379.32745-1.06092,1.82552-1.16871,2.39473-2.52443-2.43408.34826-4.17449-.2063-4.38733-2.85178-.01711-.21278-.17053-.26481-.51088-.04422-.57477.638-.36331,1.94177-1.09057,2.58791-.79629.70749-1.997.15035-3.00665.32-.19539.03285-.28682.093-.25328.30709.06334.13676.09109.34959.1958.39884,2.16621,1.01875,2.46562,2.57326,1.42078,4.60213-.16333.31721-.05549.77915-.464,1.00566-3.60378-1.293-7.18351-2.6584-10.81544-3.86683a303.10631,303.10631,0,0,0-54.46076-12.72161c-9.10676-1.25392-18.24288-2.17058-27.42042-2.56263a318.88679,318.88679,0,0,0-38.79572.54989C258.10841,199.50629,251.69078,200.27464,245.26979,201.03115Z" class="cls-3"/><path fill="#f8fbfa" d="M396.81813,217.96477a205.484,205.484,0,0,1,20.10337,8.34851,304.78566,304.78566,0,0,1,65.93934,41.49924c.73943.60884,1.49977,1.1922,2.2503,1.78749a91.93457,91.93457,0,0,1-4.5414,19.998c-5.539-4.71249-11.05023-9.45712-16.82845-13.88177a286.57313,286.57313,0,0,0-168.16891-59.46887,280.28791,280.28791,0,0,0-42.10442,2.05059c-4.99014.63239-9.96642,1.37443-14.94907,2.06646a46.60548,46.60548,0,0,1,2.4569-8.72278,62.87745,62.87745,0,0,1,4.294-10.61044c6.421-.75652,12.83862-1.52487,19.288-2.03508a318.88679,318.88679,0,0,1,38.79572-.54989c9.17754.39205,18.31366,1.30871,27.42042,2.56263a303.10631,303.10631,0,0,1,54.46076,12.72161c3.63193,1.20843,7.21166,2.57381,10.81544,3.86683A.78963.78963,0,0,0,396.81813,217.96477ZM317.35374,208.781c-.06132,1.4355-.11593,2.87133-.18674,4.30636-.035.71041-.2625,1.4485.88605,1.54678,1.05551.09032,1.13892-.49385,1.2056-1.29148.24636-2.94712.55509-5.889.80666-8.83571.15586-1.82514.02722-1.88124-1.72128-1.98417a1.54662,1.54662,0,0,0-1.742,1.19452c-.79544,1.923-1.27008,3.9987-2.58791,5.99582-.23441-1.05824-.41212-1.83312-.577-2.61071-.29815-1.40653-.58816-2.81482-.88254-4.22217-.30184-1.44328-1.54415-.82958-2.36639-1.00375-.90214-.19109-.9399.62042-.99349,1.26764-.25728,3.10714-.48161,6.21751-.78759,9.31981-.08786.89089.10392,1.36475,1.046,1.46827,1.14492.12585,1.06008-.67176,1.10531-1.383a18.62614,18.62614,0,0,1,.72674-4.83123,52.12646,52.12646,0,0,1,1.17542,5.11558c.14062.786.35763,1.31837,1.28525,1.42088,1.00269.11079,1.21076-.57018,1.47976-1.23211.57114-1.40566,1.12359-2.81893,1.68369-4.22908l.22327.03286Zm124.26392,34.18583c.0218-.31262-.31857-.51129-.67286-.71192-2.35937-1.3361-4.72852-2.65567-7.06717-4.02721-.86033-.50453-1.27913-.16106-1.69119.57966-1.55086,2.78783-3.10916,5.57213-4.71589,8.3279-.48243.8274-.30012,1.25839.49857,1.69725q3.66935,2.01634,7.28251,4.1342c.75632.44286,1.21974.468,1.71445-.38836.50771-.8789.19453-1.26158-.55781-1.67329-1.81855-.99512-3.58263-2.09241-5.42127-3.04722-1.0481-.54425-.83089-1.13658-.36106-1.90131.4251-.692.70409-1.44834,1.78081-.74734,1.26738.82515,2.63637,1.49271,3.941,2.263a.96.96,0,0,0,1.55549-.39474c.456-.76536.17962-1.14153-.48636-1.5063-1.32882-.72785-2.63092-1.50447-3.95851-2.23464-.64813-.35647-.93386-.726-.506-1.49.44092-.78731.85593-.9915,1.686-.48424,1.63234.9975,3.31231,1.9194,4.99465,2.83188A1.29029,1.29029,0,0,0,441.61766,242.96682Zm-14.4419-5.90836a3.917,3.917,0,0,0-2.221-3.45879c-1.63954-.82969-3.30408-1.61111-4.92976-2.46663-.77695-.40886-1.29633-.398-1.73341.46774q-2.21432,4.38656-4.50706,8.73336c-.39879.75693-.15378,1.1642.53071,1.50633.66434.33206,1.18738.38806,1.54541-.42784.32051-.73037.72475-1.42356,1.076-2.141.23057-.47091.47616-.74179,1.10007-.5732,3.29619.89055,3.90486,1.9188,3.0135,5.23336-.04139.15394-.12366.29855-.15266.45388-.1418.75993.46755.91687.95569,1.15892.5877.29139.89423-.047,1.086-.53849a7.71205,7.71205,0,0,0,.78117-2.24786,2.448,2.448,0,0,1,1.63392-2.5381A3.37592,3.37592,0,0,0,427.17576,237.05846ZM264.89465,211.45714c.10617-.35509-.85268-1.37856.535-1.80871,3.30589-1.02471,4.39562-.42743,5.24113,2.93338a1.17472,1.17472,0,0,1,.02569.23736c.03284.79916.5785.80273,1.17442.79134.72255-.01385.99135-.35753.90645-1.0557a6.79374,6.79374,0,0,0-.51867-2.55817,2.24806,2.24806,0,0,1,.05845-2.56058c1.61692-2.79383-.27115-5.784-3.5284-5.739-1.90747.02636-3.81121.2715-5.71835.39106-.66035.0414-1.06043.286-1.02345.99658.17792,3.41962.36442,6.83877.54035,10.25847.04093.79559.56566.822,1.16517.79606.59581-.0258,1.1308-.10166,1.141-.873C264.89978,212.7894,264.89465,212.31239,264.89465,211.45714Zm118.766,7.66826a3.59134,3.59134,0,0,0-2.47825-3.47463c-1.86941-.68369-3.80183-1.19322-5.692-1.8232-.63978-.21325-1.07534-.17337-1.30474.52579q-1.60267,4.88506-3.20909,9.76891a.80163.80163,0,0,0,.5124,1.12316c1.12641.52627,1.37286.37368,1.97359-1.42445.78208-2.34086.78187-2.34023,3.04825-1.63457.30443.09479.61767.16368.91717.27143,1.41519.50917,1.71879.96509,1.57075,2.482-.06173.63285-.2448,1.253-.33,1.88462-.10755.79749.5744.85257,1.06954,1.02649.60384.21209.8248-.17934.99976-.688a6.12458,6.12458,0,0,0,.4038-2.8206,1.85606,1.85606,0,0,1,1.04581-2.1219A3.28293,3.28293,0,0,0,383.66061,219.1254Zm-85.0202-5.95212-.00079.17162c1.27764.06072,2.55721.09557,3.83227.19062.96012.0716,1.48186-.16926,1.49768-1.28166.01612-1.13047-.67963-1.05591-1.41011-1.0776-1.75831-.05225-3.51809-.08187-5.274-.17889-1.942-.1073-2.03-.20628-1.98223-1.55667.05248-1.48138.15639-1.56033,2.23779-1.49407,1.19839.03814,2.39739.08993,3.59276.17975.79474.05972,1.18761-.20348,1.20375-1.05089.01588-.83237-.3578-1.128-1.14624-1.13105-1.43915-.00564-2.87812-.08422-4.31707-.0811-.86358.00188-1.33295-.25539-1.33113-1.22461.00187-1.01436.52954-1.16037,1.37253-1.12426,1.91686.08212,3.83645.09783,5.75449.15564.78264.02358,1.14882-.27506,1.1732-1.11039.02484-.85018-.342-1.10954-1.12325-1.13431-2.63672-.08366-5.27323-.18516-7.90767-.32127-1.04663-.05407-1.39839.40358-1.41339,1.40556-.04664,3.118-.11356,6.23684-.25635,9.35153-.05206,1.1356.46438,1.35351,1.42356,1.323C295.923,213.14108,297.28221,213.17328,298.64041,213.17328ZM453.33,254.18138a2.70039,2.70039,0,0,0,.42987-2.88c-.77991-2.03707-4.37683-4.325-6.54149-4.14017a2.98964,2.98964,0,0,0-2.48066,4.38108,10.44785,10.44785,0,0,0,2.10513,2.58231,24.22864,24.22864,0,0,1,1.72573,1.97209.98262.98262,0,0,1-.02637,1.31611,1.14877,1.14877,0,0,1-1.09757.30184,4.08507,4.08507,0,0,1-3.10884-2.90847c-.237-.918-1.39257-2.06619-1.99919-1.98633-.68974.09076-.992,1.57966-.43146,2.776a7.89884,7.89884,0,0,0,6.35983,4.47871,2.982,2.982,0,0,0,3.00466-1.578,2.802,2.802,0,0,0-.04743-3.15355,14.28119,14.28119,0,0,0-2.34346-2.69962,8.88025,8.88025,0,0,1-1.40614-1.60816c-.49479-.8417.08019-1.59346,1.06386-1.51518,1.11366.08868,2.6758,1.21114,2.6824,2.34923C451.22774,253.4112,452.27836,253.64267,453.33,254.18138Zm12.82694,8.92483c.95027-1.678,1.05618-2.11365.37631-3.32461a8.04108,8.04108,0,0,0-5.47719-3.9051,2.89348,2.89348,0,0,0-3.10348,1.35026,2.767,2.767,0,0,0-.069,3.152,14.02463,14.02463,0,0,0,2.06368,2.62873,6.5453,6.5453,0,0,1,1.413,1.91384c.3729.95265-.12536,1.58526-1.12564,1.46362-1.19071-.14479-3.06817-1.55347-3.03-2.70967.05294-1.6036-.94729-1.97528-1.979-2.50576a2.19269,2.19269,0,0,0-.63288,2.45092c.45226,2.45264,4.316,5.35133,6.81727,5.17924a3.09851,3.09851,0,0,0,2.66549-4.49,10.98279,10.98279,0,0,0-2.02207-2.65708c-.53742-.5864-1.04443-1.20422-1.52326-1.83952a.93018.93018,0,0,1-.063-1.11759,1.04092,1.04092,0,0,1,1.25719-.44021c1.16786.40025,2.427,1.04121,2.43533,2.33083C464.16979,262.162,465.04951,262.61332,466.15691,263.10621ZM277.66953,206.93662l.19438.00032q0,2.63354-.00035,5.2671c-.00044.64482.21489,1.05726.96135,1.03468,1.83489-.05555,3.68335.03653,5.50269-.15518a4.82949,4.82949,0,0,0,4.21216-4.52789,17.59856,17.59856,0,0,0-.00364-2.63253,5.00255,5.00255,0,0,0-4.78948-4.77186c-1.58994-.09567-3.193.04991-4.78776.00419-1.1056-.03167-1.33614.51425-1.30245,1.4732C277.70682,204.063,277.66953,205.50047,277.66953,206.93662Zm130.70868,27.70566c-1.42561.82625-2.54944.9292-3.62722.12416a3.22992,3.22992,0,0,1-1.09567-3.22812,3.86987,3.86987,0,0,1,1.15767-2.30587c1.68421-1.72488,3.89589-1.50663,4.85812.6917a3.08371,3.08371,0,0,0,2.47784,1.81647c.21926-4.345-3.18685-7-6.94778-5.5516a6.621,6.621,0,0,0-3.88629,6.99366c.4074,2.77213,2.31167,4.34876,5.5512,4.44232.79465.023.94811.21967,1.20955.96968.32672.93721,1.26586.84694,1.71832-.11578.69405-1.47686,1.27708-3.00589,1.94206-4.596-1.3096-.5798-2.39138-1.071-3.48407-1.53642a.72856.72856,0,0,0-.99225.38558c-.19351.35427-.35485.73706.02923,1.07093C407.58327,234.05888,407.9065,234.28148,408.37821,234.64228Zm-10.48969-9.12779a5.3679,5.3679,0,0,0-5.0727-5.59677c-3.10755-.06853-5.89763,2.88666-5.9453,6.29715-.04538,3.24463,2.187,5.68758,5.17843,5.66674A6.20617,6.20617,0,0,0,397.88852,225.51449Zm-29.247-10.61036a3.583,3.583,0,0,0-2.544-3.64628c-1.89393-.60422-3.85-1.011-5.76906-1.54-.87673-.24165-1.3151.0414-1.548.91642-.819,3.07732-1.68753,6.1414-2.52759,9.21315-.17646.64527-.28029,1.24395.64391,1.47079.81437.19991,1.4018.165,1.60436-.80524.14634-.70084.3873-1.38288.51618-2.08612.14889-.8127.5499-1.05185,1.34452-.83495a31.952,31.952,0,0,0,3.944.952A3.68075,3.68075,0,0,0,368.64153,214.90413ZM472.71865,277.483a6.527,6.527,0,0,0,6.24448-6.33569,5.11615,5.11615,0,0,0-5.30649-5.26356,6.49648,6.49648,0,0,0-6.10286,6.46055A5.06691,5.06691,0,0,0,472.71865,277.483ZM252.01478,203.36829c-3.03088.00965-5.32067,2.54536-5.29957,5.86878.02088,3.29436,2.49565,6.07033,5.47655,6.14309,2.9301.07152,5.38629-2.559,5.433-5.81858A5.8566,5.8566,0,0,0,252.01478,203.36829Zm84.34364,8.93836c1.263.21857,2.59512.44011,3.9235.68243.76643.1398,1.406.20452,1.55253-.86578.14323-1.04609-.50051-1.20169-1.25-1.32885-1.02249-.17351-2.04246-.36434-3.06852-.5133-.62845-.09121-1.07775-.27419-.93331-1.04465.13456-.718.55374-.86181,1.21734-.72788q1.99345.40231,4.00307.7229c.77792.12406,1.61979.36077,1.80855-.87447.17268-1.13-.661-1.10889-1.32457-1.23479-2.03736-.38653-4.08644-.71111-6.12348-1.09929-.78572-.14975-1.20109.08382-1.33811.88821-.49556,2.90922-.99668,5.81773-1.53308,8.7196-.14118.76378.2686,1.04534.86151,1.151,2.27745.40566,4.56184.77193,6.84252,1.15964.75343.12809,1.19276-.06841,1.30192-.92651.11485-.90279-.39135-1.07659-1.0836-1.19306-1.49441-.25142-2.97987-.55911-4.47788-.78494-.82383-.12418-1.10157-.50523-.87853-1.29725A2.81,2.81,0,0,1,336.35842,212.30665Z"/><path d="M360.242 303.73626c.98774 1.00764.62965 2.56108 1.62852 3.07576a8.975 8.975 0 0 0 3.04776.367c-.56862 1.178-2.18927 1.27456-2.29822 2.39809a9.35718 9.35718 0 0 0 .73209 2.99007 1.74187 1.74187 0 0 1-.52388-.00671c-.93952-.39556-1.58036-1.65234-2.63259-1.4228a9.55264 9.55264 0 0 0-2.63417 1.6038c-.28365-1.30465.88441-2.27874.48226-3.36021-.35836-.96369-1.687-1.10713-2.18845-2.06056.99275-.72223 2.408.29282 3.15551-.64553A11.7185 11.7185 0 0 0 360.242 303.73626zM257.55986 224.49856a11.44148 11.44148 0 0 0 1.36163 3.03075c.73262.85107 2.14992-.08643 3.15149.571-.58242 1.03468-2.2 1.12856-2.29743 2.30568a8.78132 8.78132 0 0 0 .69483 2.82806c-.1645.272-.28236.26429-.45984.14994-2.47928-1.59725-2.47983-1.59639-5.261.11148-.06755-.12337-.22558-.29807-.189-.363 1.25815-2.23232.59-3.85012-1.806-4.88364 1.20478-.82344 2.531.08811 3.38649-.725C256.95414 226.75082 256.7256 225.38276 257.55986 224.49856zM268.39417 277.40317c1.09491.986.77185 2.44008 1.64891 3.11051.86977.66486 2.14149-.08068 3.16324.42583-.46113 1.16039-2.014 1.2295-2.299 2.32629-.274 1.05478.80139 2.022.54624 3.49195-1.796-2.05629-3.6128-2.53491-5.3015-.23135-.2524-.23614-.45519-.38453-.43843-.416 1.17366-2.20424.57659-3.85392-1.51307-4.79391-.065-.44964.03144-.56253.24322-.52464C266.98874 281.24733 268.14968 279.90223 268.39417 277.40317zM314.41066 317.36037c-2.06212 1.51863-3.35874 3.03211-1.41044 5.3455-.4851.10755-.70189.2083-.74607.15788-1.77261-2.02391-3.50722-1.53972-5.139.26848-.164-.32739-.2906-.45767-.27372-.56555.157-1.00382 1.01353-1.96757.624-2.94413-.36542-.91608-1.67405-1.11978-2.17617-1.95287-.0184-.2751.08936-.41722.27967-.37359 2.659.60981 3.669-.969 4.05249-3.513.30138.403.429.49769.44862.61107C310.47055 316.71361 311.65464 317.93441 314.41066 317.36037zM443.95031 295.039c1.22165-.75213 2.5933.16339 3.328-.6924a10.09343 10.09343 0 0 0 1.2118-2.82911c.12844.07107.28374.10711.35549.20461.61612.83722.367 2.2548 1.27805 2.71509a8.73859 8.73859 0 0 0 3.03152.33785c-.05909.19277-.06175.42439-.15325.46752-2.39953 1.131-2.39651 2.96757-1.34894 5.29005-1.97127-1.93459-3.78906-2.39066-5.48514-.13248-.246-.23121-.44508-.37418-.42785-.40843C446.83655 297.81082 446.27839 296.13964 443.95031 295.039z" class="cls-5"/><path d="M423.47633 329.83483c.28854 2.36273 1.81436 2.87106 3.88324 2.88451-2.12267.9973-2.278 2.52633-1.40053 4.45524-2.52581-1.30535-2.52581-1.30535-5.05665.1149.78786-1.91927.89077-3.55679-1.36916-4.54819C421.58428 332.7484 423.04484 332.15274 423.47633 329.83483zM456.16989 310.79772c-1.73924-1.71894-3.24627-1.29185-5.13583.55992.96495-2.34671 1.18966-4.00644-1.1557-4.97757 2.06871-.11481 3.74358-.5823 3.85942-3.18407.47332 2.27833 1.61063 3.30114 3.92092 3.067C455.72938 307.36187 455.24473 308.77172 456.16989 310.79772zM294.85953 290.72121c.39791 2.356 1.653 3.21358 3.86781 3.08953-2.07507 1.037-2.22282 2.55765-1.46968 4.49751-1.666-1.50093-3.18062-1.57262-4.76116.07559.48771-1.83372.88764-3.54252-1.48793-4.47571C293.11666 293.8299 294.65982 293.20046 294.85953 290.72121z" class="cls-6"/><path d="M364.34377,271.11272c-1.68744,1.11639-2.737,2.38295-1.27354,4.50167-1.273-.13013-1.756-1.06626-2.55205-1.187-.95285-.14464-1.39881.95458-2.54813,1.16543.64562-1.85071.605-3.49834-1.589-4.49977,1.9887-.07951,3.67843-.3145,3.6653-2.781C362.04531,270.75325,362.04531,270.75325,364.34377,271.11272Z" class="cls-7"/><path d="M446.03159,313.42005c.38921,2.41954,1.78125,3.10667,3.91614,3.04635-2.1421.97028-2.20271,2.52571-1.38094,4.43-2.50154-1.32477-2.50154-1.32477-4.98887.09346.60873-1.81664,1.02222-3.52078-1.36741-4.43159C444.15337,316.35337,445.92928,316.08528,446.03159,313.42005Z" class="cls-5"/><path d="M401.88933,335.80961c-1.982,1.00576-2.17049,2.54516-1.44984,4.49408-1.63787-1.34277-3.14575-1.75421-4.75688.15759.76-2.06007.53965-3.58035-1.4818-4.69711,2.31111.2303,3.42038-.89778,3.79529-3.08895C399.25827,335.46045,399.25827,335.46045,401.88933,335.80961Z" class="cls-7"/><path d="M314.79014 260.59916c-1.64578-1.43558-3.14015-1.65636-4.57239.0208-.5168-1.08311.48334-1.8305.23763-2.64434-.26016-.86177-1.34757-1.05161-1.98118-2.015 1.9989-.02 3.83769-.18653 3.67864-2.98084.80552 1.92258 1.51585 3.54182 4.02715 2.89254C314.543 257.1421 313.73006 258.5419 314.79014 260.59916zM250.80159 297.06337c.57756-2.63291.57756-2.63291-1.50307-4.66236 2.31937.33911 3.5489-.60589 3.86774-2.8251.60445 1.90348 1.35744 3.428 3.8703 2.82161-1.68422 1.24655-2.40548 2.66774-1.22277 4.72819C253.1853 295.76309 253.1853 295.76309 250.80159 297.06337zM375.17547 279.5c.18507 2.29163 1.35937 3.11848 4.05463 2.58938-1.97271 1.45517-3.03029 2.73659-1.71076 4.76636-1.22634-.091-1.69489-1.118-2.50448-1.15825-.9109-.04532-1.41284.98318-2.52644 1.264.6319-1.803.77906-3.44945-1.48029-4.31429.96809-.73729 1.9321-.14543 2.636-.56517C374.45758 281.59684 374.14463 280.439 375.17547 279.5z" class="cls-6"/><path d="M425.325 349.13661c-2.08769-.914-2.08769-.914-3.79052-.11335.17139-1.99734.17139-1.99734-1.27374-3.52755a2.40853 2.40853 0 0 0 2.965-2.1174c.5083 1.5097 1.34174 2.39672 3.13456 2.26491C424.74008 346.49022 424.59793 347.66676 425.325 349.13661zM391.56637 244.89934c1.52953-.24751 2.91823-.384 2.997-2.46442.51261 1.73049 1.41258 2.47277 3.11743 2.39745a2.52411 2.52411 0 0 0-1.16148 3.536c-1.32817-1.17108-2.51446-.98188-4.10188.43791C393.26779 246.90046 393.24142 245.68485 391.56637 244.89934z" class="cls-7"/><path d="M464.39068 300.30759c.1948-2.24095.1948-2.24095-1.30757-3.88377 1.69687.24114 2.59031-.57357 2.98172-2.15991.9921 1.93617.9921 1.93617 3.02018 2.23892-.56631 1.0861-2.48681 1.78137-.72817 3.56338C466.78456 299.65825 465.55881 298.439 464.39068 300.30759zM425.94811 320.36365c-1.46394 1.681-1.46394 1.681-1.18582 3.86179-1.23539-1.06754-2.4305-1.17451-3.98344.312.71294-1.85819.671-3.03232-1.15442-3.79 1.41036-.65318 3.37931-.08019 3.09185-2.58657C423.52183 319.674 424.04062 320.98471 425.94811 320.36365zM438.00875 326.52543c-1.98228-.88908-1.98228-.88908-4.06573-.09838a2.25452 2.25452 0 0 0-1.01-3.35075c1.59293-.14329 2.654-.73239 3.03645-2.35473a2.6426 2.6426 0 0 0 3.01957 2.22035C437.6305 323.87412 437.19026 324.98084 438.00875 326.52543zM405.75239 324.9729c2.20362-.47907 2.20362-.47907 2.98626-2.31718.77092 1.02618 1.18521 2.50072 2.86327 2.031.10078 1.02642-.97939 1.05367-1.12365 1.75518-.13283.64608.47751 1.18992.16125 1.94238-1.14454-.64655-2.33224-1.43244-3.66091.2185C407.63612 326.88469 407.2489 325.773 405.75239 324.9729z" class="cls-8"/><path d="M349.50273,286.22933c-1.253-.9888-2.37255-1.062-3.87387.41285.49693-1.79564.72853-3.06774-.94081-3.73946,1.48339-.2172,2.67217-.66237,2.93792-2.414.57917,1.32331,1.17149,2.46334,3.00366,2.21657A2.63973,2.63973,0,0,0,349.50273,286.22933Z" class="cls-6"/><path d="M388.23912,319.14686c.34445,1.95023,1.15322,2.74116,2.96845,2.36282-.76887,1.26879-2.42657,2.04964-.9203,3.778-1.43871-.54249-2.63464-1.40865-3.8415.12583.09194-1.50618.13884-2.86181-1.52754-3.6295C387.20237,321.43184,387.20237,321.43184,388.23912,319.14686Z" class="cls-8"/><path d="M291.07051,304.29985c.4512,1.54992,1.25912,2.34536,3.16658,1.89213-.952,1.24451-2.1907,2.11843-1.24242,3.79911a2.79908,2.79908,0,0,0-3.78437.04541c.66712-1.548.16691-2.57353-1.6401-3.65429C289.57417,306.4239,290.81923,306.12844,291.07051,304.29985Z" class="cls-7"/><path d="M353.93127,290.15549c.37213.45038.63528,1.08407,1.05009,1.20735.9576.28465,1.27773.54862.38329,1.29115.3361,2.11239-1.51.81331-2.177,1.37481-.26766.22535-.4539-.15437-.41962-.31752.1476-.70266-.42876-1.14337-.55-1.687-.1822-.81686,1.0573-.34858,1.27928-.99888A7.19889,7.19889,0,0,1,353.93127,290.15549Z" class="cls-9"/><path d="M281.026,272.51071c.26795.48932.37837.96536.57182,1.00192,2.00151.37829.61521,1.66014.58485,2.45116-.0331.86282-.67057.15322-1.00722.07793-.48112-.10758-1.00758.58254-1.24834.179-.32751-.549-.01767-1.40555-.81381-1.82736-.12006-.06366.10321-.42469.35484-.45721a1.1492,1.1492,0,0,0,.9934-.50657C280.61457,273.15861,280.78669,272.8984,281.026,272.51071Z" class="cls-7"/><path d="M360.29746,349.33715c.37553.51126,1.36494.452,1.21614,1.19015-.09791.48572.08139,1.30779-1.13426,1.3096-1.21166.00182-1.02287-.84052-1.15635-1.3127C359.021,349.80976,360.07465,349.90964,360.29746,349.33715Z" class="cls-9"/><path d="M396.81813,217.96477a.78961.78961,0,0,1-.768-.36753c.40849-.22649.30065-.68843.464-1.00564,1.04484-2.02887.74543-3.58338-1.42078-4.60213-.10471-.04925-.13246-.26208-.1958-.39884-.03354-.2141.05789-.27424.25328-.30709,1.00968-.16964,2.21036.3875,3.00665-.32.72726-.64614.5158-1.94987,1.09057-2.58791.34035-.22059.49377-.16856.51088.04422.21284,2.64548,1.95325,3.2,4.38733,2.85178-.56921,1.35572-2.06728,1.46351-2.39473,2.52443-.31394,1.01722.65153,1.92.58834,3.02379-.66387.40354-.93246-.33323-1.36907-.5351-.61576-.2847-1.1059-1.218-1.84656-.75408-.92627.5802-2.17031.916-2.43738,2.24121C396.6761,217.82522,396.77193,217.9,396.81813,217.96477Z" class="cls-6"/><path d="M316.90936,208.79322c-.5601,1.41015-1.11255,2.82342-1.68369,4.22908-.269.66193-.47707,1.3429-1.47976,1.23211-.92762-.10251-1.14463-.63492-1.28525-1.42088a52.12646,52.12646,0,0,0-1.17542-5.11558,18.62614,18.62614,0,0,0-.72674,4.83123c-.04523.71126.03961,1.50887-1.10531,1.383-.94213-.10352-1.13391-.57738-1.046-1.46827.306-3.1023.53031-6.21267.78759-9.31981.05359-.64722.09135-1.45873.99349-1.26764.82224.17417,2.06455-.43953,2.36639,1.00375.29438,1.40735.58439,2.81564.88254,4.22217.16486.77759.34257,1.55247.577,2.61071,1.31783-1.99712,1.79247-4.0728,2.58791-5.99582a1.54662,1.54662,0,0,1,1.742-1.19452c1.7485.10293,1.87714.159,1.72128,1.98417-.25157,2.94673-.5603,5.88859-.80666,8.83571-.06668.79763-.15009,1.3818-1.2056,1.29148-1.14855-.09828-.92109-.83637-.88605-1.54678.07081-1.435.12542-2.87086.18677-4.30608a.94147.94147,0,0,0,.12876-1.2765C317.28744,207.945,316.85475,208.25839,316.90936,208.79322Z" class="cls-10"/><path d="M441.61766 242.96682a1.29029 1.29029 0 0 1-1.98463 1.22731c-1.68234-.91248-3.36231-1.83438-4.99465-2.83188-.8301-.50726-1.24511-.30307-1.686.48424-.42788.764-.14215 1.13352.506 1.49 1.32759.73017 2.62969 1.50679 3.95851 2.23464.666.36477.94239.74094.48636 1.5063a.96.96 0 0 1-1.55549.39474c-1.30459-.77027-2.67358-1.43783-3.941-2.263-1.07672-.701-1.35571.05537-1.78081.74734-.46983.76473-.687 1.35706.36106 1.90131 1.83864.95481 3.60272 2.0521 5.42127 3.04722.75234.41171 1.06552.79439.55781 1.67329-.49471.85635-.95813.83122-1.71445.38836q-3.61316-2.11548-7.28251-4.1342c-.79869-.43886-.981-.86985-.49857-1.69725 1.60673-2.75577 3.165-5.54007 4.71589-8.3279.41206-.74072.83086-1.08419 1.69119-.57966 2.33865 1.37154 4.7078 2.69111 7.06717 4.02721C441.29909 242.45553 441.63946 242.6542 441.61766 242.96682zM427.17576 237.05846a3.37592 3.37592 0 0 1-1.82141 3.16166 2.448 2.448 0 0 0-1.63392 2.5381 7.71205 7.71205 0 0 1-.78117 2.24786c-.19175.49147-.49828.82988-1.086.53849-.48814-.24205-1.09749-.399-.95569-1.15892.029-.15533.11127-.29994.15266-.45388.89136-3.31456.28269-4.34281-3.0135-5.23336-.62391-.16859-.8695.10229-1.10007.5732-.35127.71746-.75551 1.41065-1.076 2.141-.358.8159-.88107.7599-1.54541.42784-.68449-.34213-.9295-.7494-.53071-1.50633q2.29026-4.34745 4.50706-8.73336c.43708-.86576.95646-.8766 1.73341-.46774 1.62568.85552 3.29022 1.63694 4.92976 2.46663A3.917 3.917 0 0 1 427.17576 237.05846zm-4.32 1.42684a1.68941 1.68941 0 0 0 1.69439-1.01644 1.24444 1.24444 0 0 0-.53458-1.65728c-1.1531-.6922-2.38448-1.25464-3.588-1.86183-.57434-.28979-.917.01913-1.08876.52018-.21624.63079-1.15512 1.39084-.494 1.87339A28.79869 28.79869 0 0 0 422.85576 238.4853z" class="cls-11"/><path d="M264.89465,211.45714c0,.85525.00513,1.33226-.00117,1.8091-.01022.7713-.54521.84716-1.141.873-.59951.02593-1.12424-.00047-1.16517-.79606-.17593-3.4197-.36243-6.83885-.54035-10.25847-.037-.7106.3631-.95518,1.02345-.99658,1.90714-.11956,3.81088-.3647,5.71835-.39106,3.25725-.045,5.14532,2.9452,3.5284,5.739a2.24806,2.24806,0,0,0-.05845,2.56058,6.79374,6.79374,0,0,1,.51867,2.55817c.0849.69817-.1839,1.04185-.90645,1.0557-.59592.01139-1.14158.00782-1.17442-.79134a1.17472,1.17472,0,0,0-.02569-.23736c-.84551-3.36081-1.93524-3.95809-5.24113-2.93338C264.042,210.07858,265.00082,211.10205,264.89465,211.45714Zm.63583-4.10434c1.4623-.16185,2.49226-.261,3.51786-.394a1.338,1.338,0,0,0,1.29609-1.438,1.37526,1.37526,0,0,0-1.515-1.47782c-1.03181-.00387-2.06338.14926-3.0963.169-1.1555.02212-1.44437.56378-1.36981,1.67136C264.43917,207.01,264.79431,207.53532,265.53048,207.3528Z" class="cls-12"/><path d="M383.65938,219.12439a3.28031,3.28031,0,0,1-1.47176,3.096,1.85606,1.85606,0,0,0-1.04581,2.1219,6.12458,6.12458,0,0,1-.4038,2.8206c-.175.50868-.39592.90011-.99976.688-.49514-.17392-1.17709-.229-1.06954-1.02649.0852-.63166.26827-1.25177.33-1.88462.148-1.51692-.15556-1.97284-1.57075-2.482-.2995-.10775-.61274-.17664-.91717-.27143-2.26638-.70566-2.26617-.70629-3.04825,1.63457-.60073,1.79813-.84718,1.95072-1.97359,1.42445a.80163.80163,0,0,1-.5124-1.12316q1.6026-4.88509,3.20909-9.76891c.2294-.69916.665-.739,1.30474-.52579,1.89015.63,3.82257,1.13951,5.692,1.8232A3.58839,3.58839,0,0,1,383.65938,219.12439Zm-8.48828.15423c1.3324.431,2.74594.93,4.18547,1.33731a1.34853,1.34853,0,0,0,1.70663-.921,1.32077,1.32077,0,0,0-.69222-1.80471,17.60686,17.60686,0,0,0-2.23491-.80588c-2.44814-.78319-2.45078-.77733-3.04963,1.7975C375.07129,218.947,375.1148,219.02586,375.1711,219.27862Z" class="cls-10"/><path d="M298.64041,213.17328c-1.3582,0-2.7174-.0322-4.07423.011-.95918.0305-1.47562-.18741-1.42356-1.323.14279-3.11469.20971-6.23355.25635-9.35153.015-1.002.36676-1.45963,1.41339-1.40556,2.63444.13611,5.27095.23761,7.90767.32127.78126.02477,1.14809.28413,1.12325,1.13431-.02438.83533-.39056,1.134-1.1732,1.11039-1.918-.05781-3.83763-.07352-5.75449-.15564-.843-.03611-1.37066.1099-1.37253,1.12426-.00182.96922.46755,1.22649,1.33113,1.22461,1.43895-.00312,2.87792.07546,4.31707.0811.78844.00309,1.16212.29868,1.14624,1.13105-.01614.84741-.409,1.11061-1.20375,1.05089-1.19537-.08982-2.39437-.14161-3.59276-.17975-2.0814-.06626-2.18531.01269-2.23779,1.49407-.04781,1.35039.0402,1.44937,1.98223,1.55667,1.75594.097,3.51572.12664,5.274.17889.73048.02169,1.42623-.05287,1.41011,1.0776-.01582,1.1124-.53756,1.35326-1.49768,1.28166-1.27506-.095-2.55463-.1299-3.83227-.19062Z" class="cls-12"/><path d="M453.33,254.18138c-1.05161-.53871-2.10223-.77018-2.11113-2.312-.0066-1.13809-1.56874-2.26055-2.6824-2.34923-.98367-.07828-1.55865.67348-1.06386,1.51518a8.88025,8.88025,0,0,0,1.40614,1.60816,14.28119,14.28119,0,0,1,2.34346,2.69962,2.802,2.802,0,0,1,.04743,3.15355,2.982,2.982,0,0,1-3.00466,1.578,7.89884,7.89884,0,0,1-6.35983-4.47871c-.56051-1.19639-.25828-2.68529.43146-2.776.60662-.07986,1.76223,1.06834,1.99919,1.98633a4.08507,4.08507,0,0,0,3.10884,2.90847,1.14877,1.14877,0,0,0,1.09757-.30184.98262.98262,0,0,0,.02637-1.31611,24.22864,24.22864,0,0,0-1.72573-1.97209,10.44785,10.44785,0,0,1-2.10513-2.58231,2.98964,2.98964,0,0,1,2.48066-4.38108c2.16466-.18487,5.76158,2.1031,6.54149,4.14017A2.70039,2.70039,0,0,1,453.33,254.18138Z" class="cls-11"/><path d="M466.15691,263.10621c-1.1074-.49289-1.98712-.94421-1.99732-2.52-.00832-1.28962-1.26747-1.93058-2.43533-2.33083a1.04092,1.04092,0,0,0-1.25719.44021.93018.93018,0,0,0,.063,1.11759c.47883.6353.98584,1.25312,1.52326,1.83952a10.98279,10.98279,0,0,1,2.02207,2.65708,3.09851,3.09851,0,0,1-2.66549,4.49c-2.50128.17209-6.365-2.7266-6.81727-5.17924a2.19269,2.19269,0,0,1,.63288-2.45092c1.03174.53048,2.032.90216,1.979,2.50576-.03817,1.1562,1.83929,2.56488,3.03,2.70967,1.00028.12164,1.49854-.511,1.12564-1.46362a6.5453,6.5453,0,0,0-1.413-1.91384,14.02463,14.02463,0,0,1-2.06368-2.62873,2.767,2.767,0,0,1,.069-3.152,2.89348,2.89348,0,0,1,3.10348-1.35026,8.04108,8.04108,0,0,1,5.47719,3.9051C467.21309,260.99256,467.10718,261.42823,466.15691,263.10621Z" class="cls-12"/><path fill="#0da044" d="M277.66953,206.93662c0-1.43615.03729-2.87358-.0131-4.308-.03369-.95895.19685-1.50487,1.30245-1.4732,1.59478.04572,3.19782-.09986,4.78776-.00419a5.00255,5.00255,0,0,1,4.78948,4.77186,17.59856,17.59856,0,0,1,.00364,2.63253,4.82949,4.82949,0,0,1-4.21216,4.52789c-1.81934.19171-3.6678.09963-5.50269.15518-.74646.02258-.96179-.38986-.96135-1.03468q.00176-2.63357.00035-5.2671Zm4.48245-3.46286c-2.1835.02461-2.18892.02464-2.17441,2.19382.00586.8767.04347,1.75314.06275,2.62979.0656,2.98241-.35405,2.712,2.99186,2.5573,2.41925-.11187,3.58362-1.46647,3.4889-3.88639C286.4247,204.50612,285.09254,203.44062,282.152,203.47376Z"/><path d="M408.37821 234.64228c-.47171-.3608-.79494-.5834-1.08929-.83928-.38408-.33387-.22274-.71666-.02923-1.07093a.72856.72856 0 0 1 .99225-.38558c1.09269.46547 2.17447.95662 3.48407 1.53642-.665 1.5901-1.248 3.11913-1.94206 4.596-.45246.96272-1.3916 1.053-1.71832.11578-.26144-.75-.4149-.94673-1.20955-.96968-3.23953-.09356-5.1438-1.67019-5.5512-4.44232a6.621 6.621 0 0 1 3.88629-6.99366c3.76093-1.44839 7.167 1.20658 6.94778 5.5516a3.08371 3.08371 0 0 1-2.47784-1.81647c-.96223-2.19833-3.17391-2.41658-4.85812-.6917a3.86987 3.86987 0 0 0-1.15767 2.30587 3.22992 3.22992 0 0 0 1.09567 3.22812C405.82877 235.57148 406.9526 235.46853 408.37821 234.64228zM397.88852 225.51449a6.20617 6.20617 0 0 1-5.83957 6.36712c-2.99139.02084-5.22381-2.42211-5.17843-5.66674.04767-3.41049 2.83775-6.36568 5.9453-6.29715A5.3679 5.3679 0 0 1 397.88852 225.51449zm-2.34647.11594a3.04526 3.04526 0 0 0-2.674-3.352c-1.84421-.11555-3.59637 1.77429-3.6477 3.93429-.04456 1.87707 1.04549 3.23627 2.65849 3.31487A3.814 3.814 0 0 0 395.54205 225.63043z" class="cls-11"/><path d="M368.64153,214.90413a3.68075,3.68075,0,0,1-4.33564,3.63978,31.952,31.952,0,0,1-3.944-.952c-.79462-.2169-1.19563.02225-1.34452.83495-.12888.70324-.36984,1.38528-.51618,2.08612-.20256.97021-.79,1.00515-1.60436.80524-.9242-.22684-.82037-.82552-.64391-1.47079.84006-3.07175,1.70862-6.13583,2.52759-9.21315.23288-.875.67125-1.15807,1.548-.91642,1.91907.52894,3.87513.93577,5.76906,1.54A3.583,3.583,0,0,1,368.64153,214.90413Zm-4.17826,1.37956c.86165-.076,1.39869-.37746,1.62155-1.05923a1.30043,1.30043,0,0,0-.82207-1.747c-1.26568-.45139-2.5875-.74588-3.887-1.10158-.83959-.22982-.91263.4181-1.01531.9477-.12229.6306-.87355,1.46264.13869,1.85458A37.821,37.821,0,0,0,364.46327,216.28369Z" class="cls-10"/><path d="M472.71865,277.483a5.06691,5.06691,0,0,1-5.16487-5.1387,6.49648,6.49648,0,0,1,6.10286-6.46055,5.11615,5.11615,0,0,1,5.30649,5.26356A6.527,6.527,0,0,1,472.71865,277.483Zm3.89443-6.34029a2.76685,2.76685,0,0,0-2.79229-2.90411,4.07629,4.07629,0,0,0-3.91558,3.99059,2.7212,2.7212,0,0,0,2.77022,2.909A4.1361,4.1361,0,0,0,476.61308,271.14269Z" class="cls-12"/><path d="M252.01478,203.36829a5.8566,5.8566,0,0,1,5.61,6.19329c-.04673,3.25958-2.50292,5.8901-5.433,5.81858-2.9809-.07276-5.45567-2.84873-5.47655-6.14309C246.69411,205.91365,248.9839,203.37794,252.01478,203.36829Zm-2.95219,5.801a3.85255,3.85255,0,0,0,2.21147,3.65043,2.5059,2.5059,0,0,0,2.85583-.54413,3.82645,3.82645,0,0,0,.91621-4.16505,3.26766,3.26766,0,0,0-3.37307-2.45435A3.38082,3.38082,0,0,0,249.06259,209.16931Z" class="cls-10"/><path d="M336.35842,212.30665a2.81,2.81,0,0,0-.5001,1.433c-.223.792.0547,1.17307.87853,1.29725,1.498.22583,2.98347.53352,4.47788.78494.69225.11647,1.19845.29027,1.0836,1.19306-.10916.8581-.54849,1.0546-1.30192.92651-2.28068-.38771-4.56507-.754-6.84252-1.15964-.59291-.10563-1.00269-.38719-.86151-1.151.5364-2.90187,1.03752-5.81038,1.53308-8.7196.137-.80439.55239-1.038,1.33811-.88821,2.037.38818,4.08612.71276,6.12348,1.09929.66352.1259,1.49725.10479,1.32457,1.23479-.18876,1.23524-1.03063.99853-1.80855.87447q-2.00826-.32025-4.00307-.7229c-.6636-.13393-1.08278.0099-1.21734.72788-.14444.77046.30486.95344.93331,1.04465,1.02606.149,2.046.33979,3.06852.5133.74945.12716,1.39319.28276,1.25,1.32885-.14652,1.0703-.7861,1.00558-1.55253.86578C338.95354,212.74676,337.62138,212.52522,336.35842,212.30665Z" class="cls-11"/><path d="M316.90936,208.79322c-.05461-.53483.37808-.84823.57317-1.28845a.94147.94147,0,0,1-.12876,1.2765l-.22114.04481Z" class="cls-9"/><path d="M422.85576 238.4853a28.79869 28.79869 0 0 1-4.01095-2.142c-.66114-.48255.27774-1.2426.494-1.87339.1718-.501.51442-.81 1.08876-.52018 1.20354.60719 2.43492 1.16963 3.588 1.86183a1.24444 1.24444 0 0 1 .53458 1.65728A1.68941 1.68941 0 0 1 422.85576 238.4853zM265.53048 207.3528c-.73617.18252-1.09131-.34282-1.16716-1.46942-.07456-1.10758.21431-1.64924 1.36981-1.67136 1.03292-.01976 2.06449-.17289 3.0963-.169a1.37526 1.37526 0 0 1 1.515 1.47782 1.338 1.338 0 0 1-1.29609 1.438C268.02274 207.09178 266.99278 207.19095 265.53048 207.3528zM375.1711 219.27862c-.0563-.25276-.09981-.3316-.08466-.39675.59885-2.57483.60149-2.58069 3.04963-1.7975a17.60686 17.60686 0 0 1 2.23491.80588 1.32077 1.32077 0 0 1 .69222 1.80471 1.34853 1.34853 0 0 1-1.70663.921C377.917 220.20865 376.5035 219.70959 375.1711 219.27862zM282.152 203.47376c2.94056-.03314 4.27272 1.03236 4.3691 3.49452.09472 2.41992-1.06965 3.77452-3.4889 3.88639-3.34591.15468-2.92626.42511-2.99186-2.5573-.01928-.87665-.05689-1.75309-.06275-2.62979C279.96306 203.4984 279.96848 203.49837 282.152 203.47376z" class="cls-14"/><path d="M395.54205,225.63043a3.814,3.814,0,0,1-3.66317,3.89716c-1.613-.0786-2.703-1.4378-2.65849-3.31487.05133-2.16,1.80349-4.04984,3.6477-3.93429A3.04526,3.04526,0,0,1,395.54205,225.63043Z" class="cls-15"/><path d="M364.46327,216.28369a37.821,37.821,0,0,1-3.96416-1.10549c-1.01224-.39194-.261-1.224-.13869-1.85458.10268-.5296.17572-1.17752,1.01531-.9477,1.29952.3557,2.62134.65019,3.887,1.10158a1.30043,1.30043,0,0,1,.82207,1.747C365.862,215.90623,365.32492,216.20769,364.46327,216.28369Z" class="cls-14"/><path d="M476.61308 271.14269a4.1361 4.1361 0 0 1-3.93765 3.99548 2.7212 2.7212 0 0 1-2.77022-2.909 4.07629 4.07629 0 0 1 3.91558-3.99059A2.76685 2.76685 0 0 1 476.61308 271.14269zM249.06259 209.16931a3.38082 3.38082 0 0 1 2.61044-3.5131 3.26766 3.26766 0 0 1 3.37307 2.45435 3.82645 3.82645 0 0 1-.91621 4.16505 2.5059 2.5059 0 0 1-2.85583.54413A3.85255 3.85255 0 0 1 249.06259 209.16931z" class="cls-15"/><path d="M55.58691 539.02344a10.41851 10.41851 0 0 1 1.88038 6.25293 9.11869 9.11869 0 0 1-1.897 6.03027 9.79182 9.79182 0 0 1-3.12451 2.335 9.12339 9.12339 0 0 1 4.73193 3.61328 10.84038 10.84038 0 0 1 1.59571 6.00293 11.98242 11.98242 0 0 1-1.82373 6.53125 11.27852 11.27852 0 0 1-7.52979 5.28028 28.3339 28.3339 0 0 1-5.78857.55566h-18.458V534.66016H44.97021Q52.46289 534.77149 55.58691 539.02344zm-22.24267 2.751v9.03223h9.956a8.23069 8.23069 0 0 0 4.33252-1.01465 3.86855 3.86855 0 0 0 1.66358-3.59863q0-2.8623-2.2002-3.7793a15.40274 15.40274 0 0 0-4.84082-.63965zm0 15.81348v10.92285h9.94531a9.66947 9.66947 0 0 0 4.14844-.72265q2.69238-1.33447 2.69238-5.11426a4.39886 4.39886 0 0 0-2.60986-4.39063 10.34062 10.34062 0 0 0-4.09375-.69531zM82.32715 544.62305q.15234.01464.68066.042v8.11523q-.75-.08349-1.334-.11132-.58374-.02784-.94483-.02833-4.78051 0-6.41992 3.11329a12.11079 12.11079 0 0 0-.917 5.3916V575.625H65.41553V545.332H72.9751v5.28027a16.73166 16.73166 0 0 1 3.19629-4.14062 8.69985 8.69985 0 0 1 5.78027-1.8623C82.1001 544.60938 82.2251 544.61426 82.32715 544.62305zM99.648 557.19922a12.52156 12.52156 0 0 0 3.16309-.69531 2.38241 2.38241 0 0 0 1.708-2.251 2.65981 2.65981 0 0 0-1.31006-2.57031 8.27582 8.27582 0 0 0-3.84521-.709q-2.84546 0-4.02832 1.38965a5.72278 5.72278 0 0 0-1.12695 2.7793H86.56543a11.59314 11.59314 0 0 1 2.23291-6.53125q3.15381-4.002 10.83008-4.00195a19.32516 19.32516 0 0 1 8.87646 1.97265q3.87964 1.97462 3.8794 7.44824v13.89649q0 1.44579.05566 3.502a4.41007 4.41007 0 0 0 .47217 2.11231 2.84418 2.84418 0 0 0 1.16748.917v1.167h-8.61572a8.80339 8.80339 0 0 1-.5-1.72266q-.13917-.80712-.22217-1.835a16.316 16.316 0 0 1-3.80225 3.0293 11.48378 11.48378 0 0 1-5.81445 1.47363 10.03286 10.03286 0 0 1-6.83447-2.34863 8.35027 8.35027 0 0 1-2.69776-6.65625q0-5.58691 4.33936-8.08789a19.40457 19.40457 0 0 1 7-1.94531zm4.84277 3.69629a8.72457 8.72457 0 0 1-1.53515.76367 12.8473 12.8473 0 0 1-2.127.542l-1.80322.334a11.87421 11.87421 0 0 0-3.64062 1.084 3.61727 3.61727 0 0 0-1.8711 3.36231 3.516 3.516 0 0 0 1.14258 2.93261 4.34742 4.34742 0 0 0 2.77979.90332 8.28136 8.28136 0 0 0 4.7832-1.501q2.18773-1.50147 2.27148-5.47559zM117.58105 551.7793V545.332H141.5376V551.919l-14.86426 17.20312h15.39258V575.625h-25.541v-6.16992l15.0166-17.67578zM155.90625 541.71875h-8.03174v-7.30957h8.03174zm-8.03174 3.61328h8.03174v30.293h-8.03174zM171.66455 575.625h-7.92041V534.66016h7.92041zM197.23291 544.99805a59.5693 59.5693 0 0 1 6.41992-11.00489h5.9751l-1.69531 3.11231a46.347 46.347 0 0 0-4.86328 13.45117 53.18975 53.18975 0 0 0-.88965 10.06055 47.52506 47.52506 0 0 0 2.47363 15.64746 71.421 71.421 0 0 0 5.11377 10.83887h-5.86426l-1.97314-2.69629a36.1468 36.1468 0 0 1-4.08545-7.28125 41.474 41.474 0 0 1-3.86279-17.00879A37.72882 37.72882 0 0 1 197.23291 544.99805zM218.71045 538.93945a16.86463 16.86463 0 0 1 12.59277-5.05761q10.22754 0 14.95752 6.78125a14.77959 14.77959 0 0 1 2.8042 7.64257h-8.56006a11.66673 11.66673 0 0 0-2.09668-4.44726q-2.28661-2.66748-6.77881-2.668a8.35309 8.35309 0 0 0-7.21533 3.7666q-2.64111 3.76611-2.64062 10.6582 0 6.8921 2.78613 10.32422a8.73442 8.73442 0 0 0 7.082 3.43262 8.02455 8.02455 0 0 0 6.71533-2.94629 12.93512 12.93512 0 0 0 2.12012-4.752h8.5044a18.45529 18.45529 0 0 1-5.62256 10.89453A16.36431 16.36431 0 0 1 231.77 576.76465q-8.74365 0-13.74756-5.66992-5.00391-5.69678-5.00391-15.61914Q213.01855 544.74853 218.71045 538.93945zM280.5249 571.919q-3.835 4.73438-11.64453 4.73437-7.80981 0-11.645-4.73437a18.796 18.796 0 0 1 0-22.75586q3.8357-4.80322 11.645-4.80371 7.80909 0 11.64453 4.80371a18.7941 18.7941 0 0 1 0 22.75586zm-6.33642-4.37793q1.86181-2.46974 1.8623-7.02051 0-4.55127-1.8623-7.00781a7.03974 7.03974 0 0 0-10.686 0q-1.87573 2.45654-1.876 7.00781 0 4.55127 1.876 7.02051a7.01443 7.01443 0 0 0 10.686 0zM306.8584 544.62305q.15234.01464.68066.042v8.11523q-.75-.08349-1.334-.11132-.58374-.02784-.94483-.02833-4.78051 0-6.41992 3.11329a12.11079 12.11079 0 0 0-.917 5.3916V575.625h-7.97656V545.332h7.55957v5.28027a16.73166 16.73166 0 0 1 3.19629-4.14062 8.69985 8.69985 0 0 1 5.78027-1.8623C306.63135 544.60938 306.75635 544.61426 306.8584 544.62305zM337.44287 571.919q-3.835 4.73438-11.64453 4.73437-7.80981 0-11.645-4.73437a18.796 18.796 0 0 1 0-22.75586q3.83569-4.80322 11.645-4.80371 7.80908 0 11.64453 4.80371a18.7941 18.7941 0 0 1 0 22.75586zm-6.33642-4.37793q1.86182-2.46974 1.8623-7.02051 0-4.55127-1.8623-7.00781a7.03974 7.03974 0 0 0-10.686 0q-1.87574 2.45654-1.876 7.00781 0 4.55127 1.876 7.02051a7.01443 7.01443 0 0 0 10.686 0zM371.375 547.06836q2.97657 2.46093 2.97656 8.15723V575.625h-8.11523V557.19922a8.48078 8.48078 0 0 0-.63477-3.66895q-1.16016-2.335-4.41406-2.334a5.46909 5.46909 0 0 0-5.49023 3.418 11.80823 11.80823 0 0 0-.77344 4.61328V575.625h-7.92041V545.3877h7.67041v4.41894a13.40142 13.40142 0 0 1 2.8789-3.36328 9.971 9.971 0 0 1 6.17188-1.834A11.607 11.607 0 0 1 371.375 547.06836zM393.71387 557.19922a12.5261 12.5261 0 0 0 3.16406-.69531 2.38242 2.38242 0 0 0 1.708-2.251 2.661 2.661 0 0 0-1.31055-2.57031 8.27673 8.27673 0 0 0-3.8457-.709q-2.84473 0-4.02832 1.38965a5.72748 5.72748 0 0 0-1.127 2.7793h-7.64257a11.58982 11.58982 0 0 1 2.23339-6.53125q3.15381-4.002 10.83008-4.00195a19.326 19.326 0 0 1 8.876 1.97265q3.87891 1.97462 3.87891 7.44824v13.89649q0 1.44579.05566 3.502a4.40293 4.40293 0 0 0 .47266 2.11231 2.84883 2.84883 0 0 0 1.167.917v1.167h-8.61524a8.80477 8.80477 0 0 1-.5-1.72266q-.13915-.80712-.22265-1.835a16.32351 16.32351 0 0 1-3.80176 3.0293 11.48123 11.48123 0 0 1-5.81445 1.47363 10.03413 10.03413 0 0 1-6.835-2.34863 8.35308 8.35308 0 0 1-2.69727-6.65625q0-5.58691 4.33984-8.08789a19.39862 19.39862 0 0 1 6.999-1.94531zm4.84375 3.69629a8.74948 8.74948 0 0 1-1.53614.76367 12.83406 12.83406 0 0 1-2.127.542l-1.80273.334a11.87439 11.87439 0 0 0-3.64063 1.084 3.61638 3.61638 0 0 0-1.87109 3.36231 3.516 3.516 0 0 0 1.14258 2.93261 4.34783 4.34783 0 0 0 2.78027.90332 8.28465 8.28465 0 0 0 4.7832-1.501q2.187-1.50147 2.27149-5.47559zM432.03223 545.332h8.50488l-10.93945 30.293h-8.35157l-10.86328-30.293h8.89356l6.30859 22.34473zM458.78223 532.93652l-8.44825 8.30957H444.6084l5.33594-8.30957zM445.13672 545.332H453.169v30.293h-8.03223zM477.667 544.62305c.10156.00976.3291.02343.68067.042v8.11523q-.75-.08349-1.334-.11132c-.38867-.01856-.7041-.02833-.94433-.02833q-4.78125 0-6.41993 3.11329a12.095 12.095 0 0 0-.918 5.3916V575.625h-7.97559V545.332h7.55859v5.28027a16.75575 16.75575 0 0 1 3.19629-4.14062 8.70257 8.70257 0 0 1 5.78125-1.8623C477.43945 544.60938 477.56445 544.61426 477.667 544.62305zM490.88184 545.332v18.25879a9.60936 9.60936 0 0 0 .60839 3.8916q1.0796 2.30713 4.23145 2.30664 4.03712 0 5.53125-3.28027a11.93 11.93 0 0 0 .77344-4.69629V545.332h8.03222v30.293h-7.69824v-4.28027q-.11133.13915-.55371.834a5.56384 5.56384 0 0 1-1.05371 1.22266 10.9871 10.9871 0 0 1-3.58887 2.27929 12.2117 12.2117 0 0 1-4.06054.61133q-6.70606 0-9.03418-4.83594-1.30226-2.66748-1.30274-7.86523V545.332zM523.89844 565.95312a5.27739 5.27739 0 0 0 1.08984 3.002q1.47949 1.58349 5.47266 1.584a8.38381 8.38381 0 0 0 3.72851-.69433 2.32788 2.32788 0 0 0 .26856-4.11328q-1.11328-.69435-8.28613-2.39063-5.16358-1.27734-7.2754-3.19629a6.92808 6.92808 0 0 1-2.1123-5.44726 9.44068 9.44068 0 0 1 3.2998-7.21192q3.30177-3.01464 9.28907-3.01465a17.07357 17.07357 0 0 1 9.26074 2.26465q3.57861 2.26611 4.1084 7.82324h-7.9209a4.67788 4.67788 0 0 0-.86426-2.418q-1.30957-1.61131-4.459-1.61132a6.42406 6.42406 0 0 0-3.69239.80566 2.31865 2.31865 0 0 0-1.10058 1.88965 2.06632 2.06632 0 0 0 1.1709 1.97363q1.16893.63867 8.26953 2.19531a15.17941 15.17941 0 0 1 7.0957 3.36231 7.63517 7.63517 0 0 1 2.334 5.69824 9.19785 9.19785 0 0 1-3.35547 7.35059q-3.356 2.84764-10.37305 2.84863-7.15722 0-10.56836-3.01562a9.79942 9.79942 0 0 1-3.41113-7.68458zM547.02246 556.00391h15.50781v7.5039H547.02246zM575.1748 562.97949a8.30259 8.30259 0 0 0 1.56153 4.19629q2.127 2.52978 7.292 2.5293a15.66942 15.66942 0 0 0 5.02246-.667q3.66212-1.27736 3.66113-4.752a3.5015 3.5015 0 0 0-1.793-3.14062 19.45319 19.45319 0 0 0-5.6875-1.918l-4.43555-.97266q-6.5376-1.44433-8.9834-3.14062-4.14111-2.83447-4.14062-8.86524a11.77291 11.77291 0 0 1 4.05078-9.14355q4.05175-3.64014 11.90136-3.64063a18.25489 18.25489 0 0 1 11.18262 3.43164q4.62891 3.43361 4.85352 9.96387h-8.22657a5.86684 5.86684 0 0 0-3.30468-5.25293 11.33811 11.33811 0 0 0-5.10059-1.02832 9.71051 9.71051 0 0 0-5.41309 1.334 4.22019 4.22019 0 0 0-2.02343 3.72461 3.51284 3.51284 0 0 0 1.99511 3.27929 24.73442 24.73442 0 0 0 5.44239 1.69531l7.18847 1.69532a18.29559 18.29559 0 0 1 7.08594 2.97363q3.66211 2.8916 3.66211 8.36523a11.75322 11.75322 0 0 1-4.33984 9.32422q-4.34034 3.71046-12.26172 3.71-8.09034 0-12.72461-3.65429a12.09034 12.09034 0 0 1-4.63477-10.04688zM606.96973 534.66016H615.668v25.15918a14.23042 14.23042 0 0 0 .99707 6.16406q1.55127 3.44385 6.75684 3.44433 5.17821 0 6.72949-3.44433a14.24527 14.24527 0 0 0 .99707-6.16406V534.66016h8.69824v25.17871q0 6.53173-2.02441 10.17187-3.77344 6.6709-14.40039 6.66992-10.626 0-14.42676-6.66992-2.02589-3.64014-2.02539-10.17187zM654.24316 562.97949a8.30259 8.30259 0 0 0 1.56153 4.19629q2.127 2.52978 7.292 2.5293a15.66942 15.66942 0 0 0 5.02246-.667q3.66212-1.27736 3.66113-4.752a3.50149 3.50149 0 0 0-1.793-3.14062 19.453 19.453 0 0 0-5.6875-1.918l-4.43554-.97266q-6.5376-1.44433-8.9834-3.14062-4.14111-2.83447-4.14063-8.86524a11.77292 11.77292 0 0 1 4.05079-9.14355q4.05176-3.64014 11.90136-3.64063a18.25489 18.25489 0 0 1 11.18262 3.43164q4.62891 3.43361 4.85352 9.96387H670.502a5.86684 5.86684 0 0 0-3.30468-5.25293 11.33811 11.33811 0 0 0-5.10059-1.02832 9.71051 9.71051 0 0 0-5.41309 1.334 4.22019 4.22019 0 0 0-2.02343 3.72461 3.51284 3.51284 0 0 0 1.99511 3.27929 24.73442 24.73442 0 0 0 5.44239 1.69531l7.18847 1.69532a18.29559 18.29559 0 0 1 7.08594 2.97363q3.66211 2.8916 3.66211 8.36523a11.75322 11.75322 0 0 1-4.33984 9.32422q-4.34034 3.71046-12.26172 3.71-8.09034 0-12.72461-3.65429a12.09034 12.09034 0 0 1-4.63477-10.04688zM694.79688 544.99805a37.78745 37.78745 0 0 1 3.24609 15.11914 41.52584 41.52584 0 0 1-3.85645 17.00879 36.17879 36.17879 0 0 1-4.07812 7.28125l-1.96973 2.69629h-5.85351a71.57745 71.57745 0 0 0 5.09472-10.83887 47.70526 47.70526 0 0 0 2.46387-15.64746 53.40483 53.40483 0 0 0-.88574-10.06055 46.44763 46.44763 0 0 0-4.84571-13.45117l-1.68945-3.11231h5.96485A59.60352 59.60352 0 0 1 694.79688 544.99805z"/></svg>