<svg xmlns="http://www.w3.org/2000/svg" role="img" viewBox="-16.54 -18.04 938.08 769.08"><title>Bulgaria (ViruSafe) logo</title><path fill="#fff" d="M1.808 0h901.861v600H1.808z"/><path fill="#00966e" d="M1.808 200h901.861v400H1.808z"/><path fill="#d62612" d="M1.808 400h901.861v200H1.808z"/><path d="M173.19251 672.95662a12.816 12.816 0 0 1 2.3125 7.69043 11.22043 11.22043 0 0 1-2.333 7.417 12.06067 12.06067 0 0 1-3.84278 2.87109 11.21938 11.21938 0 0 1 5.81934 4.44336 13.33085 13.33085 0 0 1 1.96289 7.38281 14.73666 14.73666 0 0 1-2.24316 8.03223 13.87408 13.87408 0 0 1-9.26075 6.49414 34.86664 34.86664 0 0 1-7.11914.68359h-22.70019v-50.38086h24.34668q9.21533.13623 13.05761 5.36621zm-27.35546 3.38379v11.1084h12.24511a10.11921 10.11921 0 0 0 5.32715-1.24805q2.04639-1.24657 2.04688-4.42578 0-3.52-2.70606-4.64843a18.96352 18.96352 0 0 0-5.9541-.78614zm0 19.44825v13.43261h12.23144a11.87777 11.87777 0 0 0 5.10156-.88867q3.312-1.64062 3.31153-6.28906a5.40978 5.40978 0 0 0-3.21-5.40039 12.72441 12.72441 0 0 0-5.03418-.85449zM195.09 680.71541v22.45606a11.80523 11.80523 0 0 0 .748 4.78515q1.32716 2.83741 5.20313 2.83692 4.96581 0 6.80273-4.03321a14.66578 14.66578 0 0 0 .95215-5.77636v-20.26856h9.87799v37.25586h-9.46777v-5.26367q-.13623.17139-.68164 1.02539a6.84516 6.84516 0 0 1-1.29493 1.50391 13.51935 13.51935 0 0 1-4.41406 2.80273 15.01661 15.01661 0 0 1-4.99316.75195q-8.24854 0-11.11133-5.94726-1.60254-3.28125-1.60156-9.67285v-22.45606zm42.998 37.25586h-9.74121v-50.38086h9.74121zm27.93264-37.29004a11.69853 11.69853 0 0 1 5.73437 5.40039v-5.36621h9.502v35.3418q0 7.21143-2.42676 10.86914-4.17041 6.28857-15.99609 6.28906-7.144 0-11.65528-2.80273a10.34038 10.34038 0 0 1-4.99023-8.374h10.5957a4.39116 4.39116 0 0 0 1.333 2.46093q1.57177 1.333 5.29785 1.333 5.26319 0 7.041-3.52051 1.16161-2.25585 1.16211-7.58789v-2.39258a11.90069 11.90069 0 0 1-3.00782 3.58887 12.09478 12.09478 0 0 1-7.55371 2.22168 14.29448 14.29448 0 0 1-11.46777-5.042q-4.28907-5.04053-4.28906-13.6543a23.0382 23.0382 0 0 1 4.13085-13.96288q4.12939-5.65576 11.708-5.65625a12.81151 12.81151 0 0 1 4.88184.85448zm3.31738 26.71094q2.34815-2.57959 2.34864-8.21973 0-5.29833-2.2295-8.0664a7.27487 7.27487 0 0 0-5.97265-2.76856 7.03975 7.03975 0 0 0-7.0459 4.81934 17.13509 17.13509 0 0 0-1.02149 6.32324 14.4743 14.4743 0 0 0 1.08887 5.77637 7.09926 7.09926 0 0 0 7.08008 4.7168 7.48113 7.48113 0 0 0 5.75193-2.58106zm35.7666-12.08203a15.39349 15.39349 0 0 0 3.89063-.85449 2.93166 2.93166 0 0 0 2.10059-2.76856 3.27414 3.27414 0 0 0-1.61133-3.16211 10.18231 10.18231 0 0 0-4.72852-.87109q-3.49951 0-4.95508 1.709a7.04077 7.04077 0 0 0-1.38574 3.418h-9.39941a14.25556 14.25556 0 0 1 2.74609-8.03222q3.87891-4.92187 13.31934-4.92188a23.74453 23.74453 0 0 1 10.916 2.42676q4.771 2.42724 4.77149 9.16016v17.08979q0 1.77686.06836 4.30664a5.41124 5.41124 0 0 0 .58105 2.59766 3.47856 3.47856 0 0 0 1.43555 1.12793v1.43554h-10.5957a10.75438 10.75438 0 0 1-.61523-2.11914q-.17139-.99169-.27344-2.25586a20.12939 20.12939 0 0 1-4.67578 3.72559 14.13484 14.13484 0 0 1-7.15137 1.81152 12.33776 12.33776 0 0 1-8.40527-2.88867q-3.31786-2.8872-3.31738-8.18555 0-6.87012 5.33691-9.94629a23.84032 23.84032 0 0 1 8.6084-2.39257zm5.95606 4.5459a10.7526 10.7526 0 0 1-1.8877.93945 15.986 15.986 0 0 1-2.61621.667l-2.21777.41016a14.5716 14.5716 0 0 0-4.47754 1.333 4.44887 4.44887 0 0 0-2.30078 4.13574 4.32182 4.32182 0 0 0 1.40527 3.60547 5.34165 5.34165 0 0 0 3.41895 1.11133 10.18229 10.18229 0 0 0 5.88281-1.84571q2.68945-1.84571 2.793-6.7334zm38.91504-20.0127q.186.01758.83691.05176v9.98047q-.92284-.10254-1.64062-.13672-.71778-.03369-1.16211-.03418-5.87988 0-7.89551 3.82813a14.89115 14.89115 0 0 0-1.12793 6.63086v17.80761h-9.80957v-37.25586h9.29687v6.49414a20.57978 20.57978 0 0 1 3.93067-5.09277 10.70038 10.70038 0 0 1 7.10937-2.29c.18164-.00004.33594.00582.46192.01656zm16.55957-3.57129h-9.87793v-8.98925h9.87793zm-9.87793 4.44336h9.87793v37.25586h-9.87793zm34.06738 14.59473a15.3936 15.3936 0 0 0 3.89063-.85449 2.93165 2.93165 0 0 0 2.10058-2.76856 3.27414 3.27414 0 0 0-1.61133-3.16211 10.18226 10.18226 0 0 0-4.72851-.87109q-3.49952 0-4.95508 1.709a7.04077 7.04077 0 0 0-1.38574 3.418h-9.39942a14.25564 14.25564 0 0 1 2.7461-8.03222q3.87891-4.92187 13.31933-4.92188a23.74458 23.74458 0 0 1 10.916 2.42676q4.771 2.42724 4.77148 9.16016v17.08979q0 1.77686.06836 4.30664a5.41121 5.41121 0 0 0 .58106 2.59766 3.47853 3.47853 0 0 0 1.43554 1.12793v1.43554h-10.5957a10.75438 10.75438 0 0 1-.61523-2.11914q-.17139-.99169-.27344-2.25586a20.12939 20.12939 0 0 1-4.67578 3.72559 14.13484 14.13484 0 0 1-7.15137 1.81152 12.33776 12.33776 0 0 1-8.40527-2.88867q-3.31788-2.8872-3.31738-8.18555 0-6.87012 5.33691-9.94629a23.84032 23.84032 0 0 1 8.6084-2.39257zm5.95606 4.5459a10.7526 10.7526 0 0 1-1.8877.93945 15.986 15.986 0 0 1-2.61621.667l-2.21777.41016a14.57151 14.57151 0 0 0-4.47754 1.333 4.44887 4.44887 0 0 0-2.30078 4.13574 4.32182 4.32182 0 0 0 1.40527 3.60547 5.34164 5.34164 0 0 0 3.41894 1.11133 10.1823 10.1823 0 0 0 5.88282-1.84571q2.68945-1.84571 2.793-6.7334zm40.16211-19.55078a73.25342 73.25342 0 0 1 7.8955-13.53516h7.34864l-2.085 3.82813a56.99426 56.99426 0 0 0-5.98145 16.543 65.41867 65.41867 0 0 0-1.09375 12.373 58.45208 58.45208 0 0 0 3.042 19.24317 87.81034 87.81034 0 0 0 6.28906 13.33007H445.046l-2.42676-3.31543a44.44079 44.44079 0 0 1-5.02441-8.95507 50.99336 50.99336 0 0 1-4.751-20.918 46.40034 46.40034 0 0 1 3.99908-18.59371zm51.08203-12.71485h10.9375l-17.17676 50.38086h-9.94629l-17.03711-50.38086h11.24414l10.9375 38.24707zm25.20706 8.68164h-9.878v-8.98925h9.878zm-9.87793 4.44336h9.87793v37.25586h-9.878zm40.00778-.87207q.186.01758.83691.05176v9.98047q-.92284-.10254-1.64062-.13672-.71778-.03369-1.16211-.03418-5.87988 0-7.89551 3.82813a14.89115 14.89115 0 0 0-1.12793 6.63086v17.80761H522.463v-37.25586h9.29688v6.49414a20.57955 20.57955 0 0 1 3.93066-5.09277 10.70041 10.70041 0 0 1 7.10938-2.29c.18166-.00004.33595.00582.46193.01656zm16.25195.87207v22.45606a11.8052 11.8052 0 0 0 .74805 4.78515q1.32716 2.83741 5.20313 2.83692 4.96581 0 6.80273-4.03321a14.66578 14.66578 0 0 0 .95215-5.77636v-20.26856h9.87793v37.25586H573.63v-5.26367q-.13623.17139-.68164 1.02539a6.84485 6.84485 0 0 1-1.29492 1.50391 13.51935 13.51935 0 0 1-4.41406 2.80273 15.01661 15.01661 0 0 1-4.99316.75195q-8.24854 0-11.11133-5.94726-1.60254-3.28125-1.60156-9.67285v-22.45606zm41.42579 21.7041a10.22963 10.22963 0 0 0 1.91894 5.16114q2.61768 3.10986 8.96973 3.11035a19.29975 19.29975 0 0 0 6.17675-.82031q4.50147-1.57179 4.502-5.84473a4.30654 4.30654 0 0 0-2.20508-3.8623 23.93116 23.93116 0 0 0-6.99512-2.3584l-5.4541-1.19629q-8.042-1.77686-11.04883-3.86231-5.09325-3.48633-5.09277-10.90332a14.47874 14.47874 0 0 1 4.98242-11.24511q4.98193-4.478 14.63574-4.47754a22.44544 22.44544 0 0 1 13.75391 4.2207q5.69238 4.22168 5.96875 12.25391H620.9347a7.21249 7.21249 0 0 0-4.06445-6.46 13.92849 13.92849 0 0 0-6.27246-1.26464 11.94048 11.94048 0 0 0-6.6582 1.64062 5.19119 5.19119 0 0 0-2.48731 4.58008 4.32051 4.32051 0 0 0 2.45313 4.0332 30.46916 30.46916 0 0 0 6.69335 2.085l8.84083 2.085a22.49483 22.49483 0 0 1 8.71386 3.65723q4.50439 3.55518 4.50489 10.28809a14.45524 14.45524 0 0 1-5.3379 11.46679q-5.33788 4.563-15.08007 4.56348-9.94923 0-15.64942-4.49512-5.70117-4.49414-5.70019-12.35547zm53.07128-7.10937a15.39349 15.39349 0 0 0 3.89063-.85449 2.93166 2.93166 0 0 0 2.10059-2.76856 3.27414 3.27414 0 0 0-1.61133-3.16211 10.18231 10.18231 0 0 0-4.72852-.87109q-3.49951 0-4.95508 1.709a7.04077 7.04077 0 0 0-1.38574 3.418H637.922a14.25556 14.25556 0 0 1 2.74609-8.03222q3.87891-4.92187 13.31934-4.92188a23.74453 23.74453 0 0 1 10.916 2.42676q4.771 2.42724 4.77149 9.16016v17.08979q0 1.77686.06836 4.30664a5.41124 5.41124 0 0 0 .58105 2.59766 3.47856 3.47856 0 0 0 1.43555 1.12793v1.43554h-10.59569a10.75438 10.75438 0 0 1-.61523-2.11914q-.17139-.99169-.27344-2.25586a20.12939 20.12939 0 0 1-4.67578 3.72559 14.13484 14.13484 0 0 1-7.15137 1.81152 12.33776 12.33776 0 0 1-8.40527-2.88867q-3.31786-2.8872-3.31738-8.18555 0-6.87012 5.33691-9.94629a23.84032 23.84032 0 0 1 8.6084-2.39257zm5.95606 4.5459a10.7526 10.7526 0 0 1-1.8877.93945 15.986 15.986 0 0 1-2.61621.667l-2.21777.41016a14.5716 14.5716 0 0 0-4.47754 1.333 4.44887 4.44887 0 0 0-2.30078 4.13574 4.32182 4.32182 0 0 0 1.40527 3.60547 5.34165 5.34165 0 0 0 3.41895 1.11133 10.18229 10.18229 0 0 0 5.88281-1.84571q2.68946-1.84571 2.793-6.7334zm33.63379-32.72754q.75145.05127 2.05078.1543v7.92968q-.82032-.10254-2.752-.15429a3.16823 3.16823 0 0 0-2.666.85449 3.1 3.1 0 0 0-.73437 2v3.14453h6.3916v6.87012h-6.3916v30.04394h-9.67283v-30.04394h-5.46875v-6.87012h5.332v-2.39258q0-5.981 2.0166-8.2373 2.11816-3.3501 10.21972-3.34961.9229 0 1.67485.05078zm32.17285 14.34082a15.15973 15.15973 0 0 1 6.4375 5.51172 18.31167 18.31167 0 0 1 2.96875 7.70215 47.70229 47.70229 0 0 1 .32129 7.39453h-27.13477q.22705 5.606 3.89551 7.86133a9.89524 9.89524 0 0 0 5.37109 1.40136 7.56575 7.56575 0 0 0 7.41406-4.27241h9.94531a12.16753 12.16753 0 0 1-3.61133 6.7334q-5.00536 5.43457-14.0166 5.43457a20.31214 20.31214 0 0 1-13.123-4.584q-5.68506-4.5835-5.68457-14.916 0-9.67968 5.13184-14.8457 5.13281-5.16651 13.32324-5.166a21.22178 21.22178 0 0 1 8.76168 1.74505zm-14.57324 8.416a10.11886 10.11886 0 0 0-2.59473 5.76661h16.78223a8.12956 8.12956 0 0 0-2.59473-5.88672 8.53932 8.53932 0 0 0-5.77734-2.00879 7.72741 7.72741 0 0 0-5.81543 2.12891zm40.78613-9.58006a46.47349 46.47349 0 0 1 3.99219 18.59375 51.08809 51.08809 0 0 1-4.74219 20.918 44.57555 44.57555 0 0 1-5.01562 8.95507l-2.42286 3.31543h-7.19922a87.96445 87.96445 0 0 0 6.26563-13.33007 58.65806 58.65806 0 0 0 3.03125-19.24317 65.67349 65.67349 0 0 0-1.08984-12.373 57.14048 57.14048 0 0 0-5.959-16.543l-2.07812-3.82813h7.33593a73.28653 73.28653 0 0 1 7.88185 13.53512z"/></svg>