<svg xmlns="http://www.w3.org/2000/svg" role="img" viewBox="-20.50 -19.00 936.00 765.50"><title>China (Health Code) logo</title><defs><style>.cls-2{fill:#ffde00}</style></defs><path fill="#de2910" d="M-2.349-.9h900v600h-900z"/><path d="M147.65094 59.1l52.90065 162.81153L62.05581 121.28847h171.19026L94.75029 221.91153z" class="cls-2" id="s"/><path d="M309.39034 31.49227L304.381 88.33536 275.02209 39.4039l52.51305 22.32968-55.609 12.8013z" class="cls-2" id="s-2" data-name="s"/><path d="M379.18376 98.2113l-26.67517 50.4447-8.07-56.48988 39.7327 40.95788-56.21883-9.78134z" class="cls-2" id="s-3" data-name="s"/><path d="M385.83193 198.81253l-44.93307 35.17457 15.67652-54.86783 19.56793 53.60345-47.33809-31.86435z" class="cls-2" id="s-4" data-name="s"/><path d="M308.2355 241.02925l-2.64808 57.00191-31.36256-47.672 53.39377 20.133-55.03034 15.09609z" class="cls-2" id="s-5" data-name="s"/><path d="M126.19727 669.76465a20.7423 20.7423 0 0 1 15.48632-6.2207q12.58008 0 18.39551 8.33984a18.18007 18.18007 0 0 1 3.44922 9.39941H153.001a14.3367 14.3367 0 0 0-2.5791-5.46875q-2.8125-3.28125-8.33692-3.28125a10.27287 10.27287 0 0 0-8.874 4.63184q-3.24756 4.63184-3.24707 13.10742 0 8.47705 3.42675 12.69727a10.73668 10.73668 0 0 0 8.709 4.22168q5.417 0 8.25879-3.62305a15.90141 15.90141 0 0 0 2.6084-5.84473h10.459a22.695 22.695 0 0 1-6.915 13.39844q-5.56347 5.16211-14.25293 5.16113-10.752 0-16.90722-6.97265-6.15381-7.00635-6.15332-19.209-.00011-13.19237 6.99989-20.3369zm71.72753 8.06735a10.94229 10.94229 0 0 1 4.61231 3.66016 9.77342 9.77342 0 0 1 1.87109 4.29394 53.17321 53.17321 0 0 1 .34082 7.20117v21.89454h-9.94629v-22.6865a10.047 10.047 0 0 0-1.01855-4.85937q-1.32276-2.6001-5.02051-2.60059a6.88716 6.88716 0 0 0-5.81933 2.584q-1.98487 2.58252-1.98438 7.373v20.18946h-9.74121v-50.21H180.96v17.77343a11.90679 11.90679 0 0 1 4.88281-4.52832 13.74133 13.74133 0 0 1 5.83692-1.28222 15.76808 15.76808 0 0 1 6.24507 1.1973zm25.99903-4.64938h-9.87793v-8.98926h9.87793zm-9.87793 4.44338h9.87793v37.25586h-9.87793zm49.35351 2.1367q3.65919 3.02343 3.65918 10.03125v25.08789h-9.98047V692.2207a10.4223 10.4223 0 0 0-.78027-4.51172q-1.42675-2.87109-5.42871-2.87109-4.9204 0-6.75195 4.2041a14.53052 14.53052 0 0 0-.9502 5.67383v20.166h-9.74121v-37.1875h9.4336v5.43457a16.51948 16.51948 0 0 1 3.53906-4.13575 12.26771 12.26771 0 0 1 7.59082-2.25586 14.27538 14.27538 0 0 1 9.41015 3.02542zm27.47266 12.458a15.40373 15.40373 0 0 0 3.89063-.85449 2.92991 2.92991 0 0 0 2.10058-2.76855 3.27163 3.27163 0 0 0-1.61133-3.16114 10.17 10.17 0 0 0-4.72949-.87207q-3.498 0-4.9541 1.709a7.04472 7.04472 0 0 0-1.38574 3.418h-9.39942a14.251 14.251 0 0 1 2.7461-8.03223q3.8789-4.92187 13.31933-4.92188a23.75994 23.75994 0 0 1 10.916 2.42676q4.771 2.42726 4.77148 9.16016v17.08984q0 1.77833.06836 4.30664a5.408 5.408 0 0 0 .58106 2.59766 3.47853 3.47853 0 0 0 1.43554 1.12793v1.43555h-10.5957a10.75457 10.75457 0 0 1-.61523-2.11914q-.17139-.99024-.27344-2.25586a20.104 20.104 0 0 1-4.67578 3.72558 14.13484 14.13484 0 0 1-7.15137 1.81153 12.336 12.336 0 0 1-8.40527-2.88868q-3.31788-2.8872-3.31739-8.18554 0-6.87012 5.33692-9.94629a23.83444 23.83444 0 0 1 8.6084-2.39258zm5.95605 4.5459a10.69187 10.69187 0 0 1-1.88867.93945 15.84493 15.84493 0 0 1-2.61523.667l-2.21777.41015a14.61767 14.61767 0 0 0-4.47754 1.333 4.44888 4.44888 0 0 0-2.30079 4.13574 4.31978 4.31978 0 0 0 1.40528 3.60645 5.34283 5.34283 0 0 0 3.41894 1.11035 10.18229 10.18229 0 0 0 5.88282-1.8457q2.68944-1.84571 2.793-6.7334zm40.16211-19.55078a73.25441 73.25441 0 0 1 7.89551-13.53516h7.34864l-2.085 3.82813a56.99448 56.99448 0 0 0-5.98144 16.543 65.42592 65.42592 0 0 0-1.09375 12.373 58.4479 58.4479 0 0 0 3.042 19.24317 87.81082 87.81082 0 0 0 6.28906 13.33008h-7.21191l-2.42676-3.31543a44.44091 44.44091 0 0 1-5.02441-8.95508 50.98646 50.98646 0 0 1-4.751-20.918 46.40053 46.40053 0 0 1 3.99906-18.59371zm21.53321 37.66602V664.501h10.459v19.209h19.585v-19.209h10.459v50.38086h-10.459V692.3916h-19.585v22.49024zm74.11133-36.50098a15.15073 15.15073 0 0 1 6.4375 5.51074 18.31089 18.31089 0 0 1 2.96875 7.70313 47.58326 47.58326 0 0 1 .32031 7.39355h-27.13379q.22706 5.606 3.89551 7.86133a9.89525 9.89525 0 0 0 5.37109 1.40137 7.56575 7.56575 0 0 0 7.41406-4.27246h9.94532a12.16443 12.16443 0 0 1-3.61133 6.73339q-5.00684 5.43457-14.0166 5.43457a20.31025 20.31025 0 0 1-13.12305-4.584q-5.68506-4.58349-5.68457-14.915 0-9.68115 5.13183-14.84668 5.13282-5.165 13.32325-5.166a21.2065 21.2065 0 0 1 8.76172 1.74606zm-14.57325 8.415a10.11879 10.11879 0 0 0-2.59472 5.7666h16.7822a8.12646 8.12646 0 0 0-2.5957-5.88672 8.53583 8.53583 0 0 0-5.7773-2.00874 7.72509 7.72509 0 0 0-5.81448 2.1289zm43.98248 5.42484a15.40373 15.40373 0 0 0 3.89062-.85449 2.92992 2.92992 0 0 0 2.10059-2.76855 3.27163 3.27163 0 0 0-1.61133-3.16114 10.17 10.17 0 0 0-4.72949-.87207q-3.49806 0-4.95411 1.709a7.04481 7.04481 0 0 0-1.38574 3.418h-9.39941a14.251 14.251 0 0 1 2.74609-8.03223q3.87891-4.92187 13.31934-4.92188a23.75993 23.75993 0 0 1 10.916 2.42676q4.771 2.42726 4.77149 9.16016v17.08984q0 1.77833.06836 4.30664a5.4081 5.4081 0 0 0 .58105 2.59766 3.47856 3.47856 0 0 0 1.43555 1.12793v1.43555h-10.5957a10.754 10.754 0 0 1-.61524-2.11914q-.17139-.99024-.27344-2.25586a20.104 20.104 0 0 1-4.67578 3.72558 14.13483 14.13483 0 0 1-7.15136 1.81153 12.33608 12.33608 0 0 1-8.40528-2.88868q-3.31786-2.8872-3.31738-8.18554 0-6.87012 5.33691-9.94629a23.83457 23.83457 0 0 1 8.6084-2.39258zm5.956 4.5459a10.69221 10.69221 0 0 1-1.88867.93945 15.84535 15.84535 0 0 1-2.61524.667l-2.21777.41015a14.61777 14.61777 0 0 0-4.47754 1.333A4.44887 4.44887 0 0 0 454.5 704.252a4.31977 4.31977 0 0 0 1.40527 3.60645 5.34288 5.34288 0 0 0 3.419 1.11035 10.18226 10.18226 0 0 0 5.88281-1.8457q2.68946-1.84571 2.793-6.7334zm28.165 18.11524h-9.74121V664.501h9.74121zm5.67387-29.97559v-6.93848h5.19531v-10.39062h9.63867v10.39062h6.04981v6.93848h-6.04981v19.6875q0 2.291.58106 2.85449.58006.5625 3.55468.56348c.2959 0 .60938-.00488.93946-.0166s.65527-.02832.97461-.05176v7.28027l-4.61426.1709q-6.90528.23877-9.4336-2.39258-1.64062-1.67431-1.64062-5.16113v-22.93457zM555.752 677.832a10.94236 10.94236 0 0 1 4.61231 3.66016 9.77342 9.77342 0 0 1 1.87109 4.29394 53.1749 53.1749 0 0 1 .34082 7.20117v21.89454h-9.94629v-22.6865a10.047 10.047 0 0 0-1.01855-4.85937q-1.32276-2.6001-5.02051-2.60059a6.88719 6.88719 0 0 0-5.81934 2.584q-1.98486 2.58252-1.98437 7.373v20.18946h-9.74126v-50.21h9.74121v17.77343a11.90679 11.90679 0 0 1 4.88281-4.52832 13.7413 13.7413 0 0 1 5.83692-1.28222 15.76808 15.76808 0 0 1 6.24516 1.1973zm41.0312-8.06735a20.74234 20.74234 0 0 1 15.48633-6.2207q12.58008 0 18.39551 8.33984a18.18016 18.18016 0 0 1 3.44922 9.39941h-10.52735a14.3364 14.3364 0 0 0-2.5791-5.46875q-2.8125-3.28125-8.33691-3.28125a10.27286 10.27286 0 0 0-8.874 4.63184q-3.24756 4.63184-3.24708 13.10742 0 8.47705 3.42676 12.69727a10.73668 10.73668 0 0 0 8.709 4.22168q5.417 0 8.25879-3.62305a15.90125 15.90125 0 0 0 2.60839-5.84473h10.459a22.695 22.695 0 0 1-6.915 13.39844q-5.56347 5.16211-14.25293 5.16113-10.752 0-16.90723-6.97265-6.15381-7.00635-6.15332-19.209-.00008-13.19237 6.99992-20.3369zm76.02246 40.55957q-4.7168 5.82275-14.32128 5.82226-9.605 0-14.32129-5.82226a23.11486 23.11486 0 0 1 0-27.98633q4.7168-5.90772 14.32129-5.9082 9.60351 0 14.32128 5.9082a23.11486 23.11486 0 0 1 0 27.98633zm-7.793-5.38379q2.28954-3.03809 2.29-8.63477 0-5.59863-2.29-8.61816a8.65835 8.65835 0 0 0-13.14258 0q-2.30714 3.02051-2.30664 8.61816 0 5.59717 2.30664 8.63477a8.62758 8.62758 0 0 0 13.14258 0zm39.23834-26.7168a11.85221 11.85221 0 0 1 4.27246 4.11914v-17.77343h9.87793v50.3125h-9.46778v-5.16114a13.73451 13.73451 0 0 1-4.751 4.81934 13.34676 13.34676 0 0 1-6.63086 1.50391 13.84288 13.84288 0 0 1-10.98926-5.28125q-4.46044-5.27931-4.46-13.55176 0-9.53613 4.3916-15.00489a14.29019 14.29019 0 0 1 11.74121-5.46875 12.027 12.027 0 0 1 6.0157 1.48633zm2.39257 26.541a13.58968 13.58968 0 0 0 2.15333-7.96387q0-6.835-3.45215-9.77539a7.43242 7.43242 0 0 0-4.92188-1.77734 6.84393 6.84393 0 0 0-6.27246 3.22949 17.41814 17.41814 0 0 0 .03418 16.26953 6.87747 6.87747 0 0 0 6.16992 3.09375 7.19241 7.19241 0 0 0 6.28904-3.07615zm44.88768-26.38377a15.15067 15.15067 0 0 1 6.4375 5.51074 18.31063 18.31063 0 0 1 2.96875 7.70313 47.582 47.582 0 0 1 .32031 7.39355H734.124q.22706 5.606 3.89551 7.86133a9.89525 9.89525 0 0 0 5.37109 1.40137 7.56578 7.56578 0 0 0 7.41407-4.27246H760.75a12.16443 12.16443 0 0 1-3.61133 6.73339q-5.00684 5.43457-14.0166 5.43457a20.31025 20.31025 0 0 1-13.12305-4.584q-5.68506-4.58349-5.68457-14.915 0-9.68115 5.13184-14.84668 5.13281-5.165 13.32324-5.166a21.20644 21.20644 0 0 1 8.76172 1.74606zm-14.57324 8.415a10.1188 10.1188 0 0 0-2.59473 5.7666h16.78223a8.12647 8.12647 0 0 0-2.59571-5.88672 8.53581 8.53581 0 0 0-5.77734-2.00879 7.725 7.725 0 0 0-5.81446 2.12895zm40.78613-9.58004a46.47353 46.47353 0 0 1 3.99219 18.59375 51.08117 51.08117 0 0 1-4.74219 20.918 44.52261 44.52261 0 0 1-5.0166 8.95508l-2.42188 3.31543h-7.19921a88.0623 88.0623 0 0 0 6.26562-13.33008 58.65386 58.65386 0 0 0 3.03125-19.24317 65.68076 65.68076 0 0 0-1.08984-12.373 57.16886 57.16886 0 0 0-5.959-16.543l-2.07812-3.82813h7.33593a73.28686 73.28686 0 0 1 7.88185 13.53512z"/></svg>