<svg xmlns="http://www.w3.org/2000/svg" role="img" viewBox="-11.30 -11.80 587.60 122.10"><title>Colorado Department of Public Health and Environment (member) logo</title><style>svg {enable-background:new 0 0 565.2 99.4}</style><style>.st1{fill:#245d38}.st2{fill:#fff}.st7{fill:#001970}</style><path d="M284.1 6c1.9 0 3.9.7 5.4 2 .3.3.7.3 1 0l3.1-3.2c.3-.3.3-.8 0-1.1C290.9 1.2 288 0 284 0c-8 0-14.4 6.4-14.4 14.4S276 28.7 284 28.7c3.5 0 7-1.2 9.7-3.9.3-.3.3-.8 0-1.1l-3.1-3.3c-.2-.3-.8-.3-1 0-1.4 1.2-3.5 1.9-5.3 1.9-4.5 0-7.8-3.7-7.8-8.1-.2-4.5 3.1-8.2 7.6-8.2m35.1-6c-8 0-14.3 6.4-14.3 14.4s6.3 14.3 14.3 14.3 14.3-6.3 14.3-14.3c.1-8-6.3-14.4-14.3-14.4m0 22.3c-4.3 0-7.9-3.6-7.9-7.9 0-4.4 3.6-8 7.9-8 4.4 0 8 3.6 8 8 0 4.3-3.6 7.9-8 7.9m43.5.1h-9.6V1.2c0-.4-.4-.8-.8-.8h-4.7c-.4 0-.8.4-.8.8v26.3c0 .4.3.8.8.8h15.1c.4 0 .8-.4.8-.8v-4.3c-.1-.5-.4-.8-.8-.8M388.6 0c-8 0-14.3 6.4-14.3 14.4s6.3 14.3 14.3 14.3 14.3-6.3 14.3-14.3c.1-8-6.3-14.4-14.3-14.4m0 22.3c-4.3 0-7.9-3.6-7.9-7.9 0-4.4 3.6-8 7.9-8 4.4 0 8 3.6 8 8 0 4.3-3.6 7.9-8 7.9m43.9-5.3c3.5-1.4 5.9-4.3 5.9-8 0-4.7-3.9-8.6-8.7-8.6h-11.9c-.4 0-.8.4-.8.8v26.3c0 .4.3.8.8.8h4.7c.4 0 .8-.4.8-.8V17.3h2.7l5.7 10.5c.1.2.3.4.6.4h5.3c.7 0 1-.6.7-1.1L432.5 17zm-3.3-4.7h-5.9V6.1h5.9c1.6 0 3 1.4 3 3 0 1.7-1.4 3.2-3 3.2M502.5.4h-9.7c-.4 0-.7.4-.7.8v26.3c0 .4.3.8.7.8h9.7c7.7 0 14-6.2 14-14 0-7.7-6.3-13.9-14-13.9m-.4 21.9h-3.8V6.2h3.8c4.5 0 7.8 3.5 7.8 8 0 4.6-3.3 8.1-7.8 8.1M543.2 0c-8 0-14.3 6.4-14.3 14.4s6.3 14.3 14.3 14.3c7.9 0 14.3-6.3 14.3-14.3S551.1 0 543.2 0m0 22.3c-4.3 0-7.9-3.6-7.9-7.9 0-4.4 3.6-8 7.9-8 4.4 0 7.9 3.6 7.9 8 0 4.3-3.5 7.9-7.9 7.9M465.8.4c-.1-.2-.4-.4-.7-.4h-.4c-.3 0-.6.2-.7.4l-12.4 26.8c-.2.5.1 1 .7 1h4.4c.8 0 1.2-.2 1.4-1l1.4-3.2h10.8l1.4 3.1c.4.9.6 1 1.4 1h4.4c.6 0 .9-.5.7-1L465.8.4zm-4.5 19l3.6-8.3 3.7 8.3h-7.3z"/><path d="M269.5 67.4h2.3V53.6h-2.3v-2.7h8.3c1.5 0 2.8.1 4 .5 3.7 1.1 6.2 4.4 6.2 9.1 0 4.5-2.3 7.8-5.9 9-1.3.5-2.6.6-4.2.6h-8.3v-2.7zm8.2-.1c1.2 0 2.2-.1 3.1-.5 2.2-.9 3.6-3.1 3.6-6.3 0-3.2-1.5-5.5-3.7-6.3-1-.4-1.9-.4-3-.4h-2.3v13.5h2.3zM296.9 56c4 0 6.1 2.9 6.1 6.5 0 .4-.1 1.2-.1 1.2h-9.5c.2 2.5 2.1 3.8 4.1 3.8 2.2 0 4-1.5 4-1.5l1.3 2.4s-2.1 1.9-5.6 1.9c-4.6 0-7.4-3.3-7.4-7.2.1-4.1 3-7.1 7.1-7.1zm2.6 5.7c-.1-1.9-1.2-3-2.7-3-1.8 0-3 1.2-3.3 3h6zm7.2 11.2V59.5c0-.4-.2-.6-.6-.6h-1.5v-2.6h3.5c1.3 0 1.7.6 1.7 1.3v.7h.1s1.2-2.3 4.4-2.3c3.7 0 6.1 2.9 6.1 7.2 0 4.4-2.7 7.2-6.3 7.2-2.7 0-4-1.9-4-1.9h-.1s.1.5.1 1.2V73h2v2.6h-7.4V73h2zm6.7-5.4c1.9 0 3.5-1.5 3.5-4.3 0-2.6-1.4-4.3-3.4-4.3-1.8 0-3.5 1.3-3.5 4.3 0 2.2 1.2 4.3 3.4 4.3zm16.2-5.9h.9v-.5c0-1.8-1.1-2.4-2.5-2.4-2.1 0-3.9 1.3-3.9 1.3l-1.3-2.4s2.1-1.7 5.5-1.7c3.7 0 5.7 1.9 5.7 5.4v5.5c0 .4.2.6.6.6h1.2V70h-3.2c-1.3 0-1.8-.7-1.8-1.5v-.2c0-.4.1-.7.1-.7h-.1s-1.2 2.6-4.3 2.6c-2.3 0-4.6-1.4-4.6-4.2-.1-4 5.4-4.4 7.7-4.4zm-2.3 6.3c1.9 0 3.2-2 3.2-3.7v-.5h-.6c-1.3 0-4.6.2-4.6 2.3 0 1 .7 1.9 2 1.9zm10-.4h2v-8c0-.4-.2-.6-.6-.6h-1.5v-2.6h3.6c1.2 0 1.8.5 1.8 1.7v.8c0 .5-.1.9-.1.9h.1c.6-2 2.3-3.5 4.4-3.5.3 0 .6.1.6.1v3.4s-.4-.1-.8-.1c-2.8 0-4 2.4-4 5v3h2v2.6h-7.4v-2.7zm13.1-8.6h-2.1v-2.6h2.2v-3.8h3.3v3.8h3.1v2.6h-3.1v5.8c0 2.3 1.8 2.7 2.8 2.7h.6v2.8s-.4.1-1.1.1c-1.9 0-5.7-.6-5.7-5.2v-6.2zm8.6 8.6h2v-8.1c0-.4-.2-.6-.6-.6h-1.5v-2.6h3.6c1.2 0 1.8.6 1.8 1.5v.6c0 .3-.1.6-.1.6h.1c.7-1.4 2.4-3.1 4.7-3.1 1.9 0 3.3.9 3.8 3h.1c.8-1.6 2.6-3 4.8-3 2.8 0 4.4 1.6 4.4 5.2v6.3h2v2.6h-5.4v-8.2c0-1.6-.3-2.8-1.9-2.8-2.3 0-3.5 2.3-3.5 4.9v3.5h2v2.6h-5.4v-8.2c0-1.5-.2-2.8-1.9-2.8-2.4 0-3.5 2.6-3.5 5v3.3h2v2.6H359v-2.3zM392.4 56c4 0 6.1 2.9 6.1 6.5 0 .4-.1 1.2-.1 1.2h-9.5c.2 2.5 2.1 3.8 4.1 3.8 2.2 0 4-1.5 4-1.5l1.3 2.4s-2.1 1.9-5.6 1.9c-4.6 0-7.4-3.3-7.4-7.2.1-4.1 3-7.1 7.1-7.1zm2.6 5.7c-.1-1.9-1.2-3-2.7-3-1.8 0-3 1.2-3.3 3h6zm5.5 5.8h2v-8c0-.4-.2-.6-.6-.6h-1.5v-2.6h3.6c1.2 0 1.8.6 1.8 1.5v.6c0 .3-.1.6-.1.6h.1c.2-.4 1.6-3.1 5.1-3.1 2.9 0 4.6 1.6 4.6 5.2v6.3h2V70H412v-8.2c0-1.7-.5-2.8-2.2-2.8-2.5 0-3.9 2.4-3.9 4.8v3.6h2V70h-7.4v-2.5zm19.9-8.6h-2.1v-2.6h2.2v-3.8h3.3v3.8h3.1v2.6h-3.1v5.8c0 2.3 1.8 2.7 2.8 2.7h.6v2.8s-.4.1-1.1.1c-1.9 0-5.7-.6-5.7-5.2v-6.2zm22.4-2.9c4.2 0 7.6 3 7.6 7.2s-3.4 7.2-7.6 7.2c-4.2 0-7.6-3-7.6-7.2s3.4-7.2 7.6-7.2zm0 11.5c2.2 0 4.1-1.7 4.1-4.3 0-2.5-1.9-4.3-4.1-4.3-2.2 0-4.1 1.8-4.1 4.3 0 2.6 1.9 4.3 4.1 4.3zm9.4 0h2v-8.6h-2.1v-2.6h2.1v-.6c0-4.5 3.6-5 5.4-5 .8 0 1.4.1 1.4.1v2.8s-.4-.1-1.1-.1c-.8 0-2.3.2-2.3 2.2v.7h3.1V59h-3.1v8.6h2.3v2.6h-7.7v-2.7zm16.9-.1h2.3V53.6h-2.3v-2.7h9.2c1.1 0 2.3.1 3.2.5 2.1.9 3.4 3 3.4 5.7s-1.4 5-3.6 5.8c-.9.3-1.9.4-2.9.4H475v4.2h2.3v2.6h-8.2v-2.7zm8.8-6.9c.8 0 1.4-.1 1.9-.4 1-.5 1.6-1.6 1.6-3 0-1.3-.5-2.3-1.4-2.9-.5-.3-1.2-.5-2.1-.5h-3v6.7h3zm10.2-1.6H486v-2.6h5.6v8.3c0 1.6.4 2.8 2.2 2.8 2.4 0 3.8-2.4 3.8-4.9v-3.6h-2.1v-2.6h5.5V67c0 .4.2.6.6.6h1.3v2.5h-3.4c-1.2 0-1.8-.6-1.8-1.5V68v-.6h-.1c-.2.5-1.6 3-5 3-2.8 0-4.5-1.5-4.5-5.2v-6.3zm17.4-5.4h-2.1v-2.6h5.5v6c0 .7-.1 1.2-.1 1.2h.1s1.2-2.1 4.1-2.1c3.7 0 6.1 2.9 6.1 7.2 0 4.4-2.7 7.2-6.3 7.2-3 0-4.1-2.2-4.1-2.2h-.1s.1.5.1 1v.8h-3.2V53.5zm6.8 14c1.9 0 3.5-1.5 3.5-4.3 0-2.6-1.4-4.3-3.4-4.3-1.8 0-3.5 1.3-3.5 4.3 0 2.2 1.1 4.3 3.4 4.3zm9.7-14h-2.1v-2.6h5.5v14.6c0 1.2.3 1.9 1.4 1.9h.6v2.8s-.6.1-1.2.1c-2.2 0-4.2-.7-4.2-4.5V53.5zm7.2 14h2v-8.6h-2.1v-2.6h5.6v11.2h2v2.6h-7.4v-2.6zm2-16.6h3.5V54h-3.5v-3.1zm14.3 5.1c2.3 0 5.6.9 5.6 3.3v1.9h-3v-.9c0-.9-1.4-1.3-2.6-1.3-2.5 0-4 1.7-4 4.2 0 2.8 2 4.4 4.3 4.4 1.9 0 3.5-1.1 4.3-1.7l1.2 2.4c-.9.9-3.1 2.1-5.7 2.1-4 0-7.6-2.7-7.6-7.2.1-4.1 3.2-7.2 7.5-7.2zm-276 40.4h2.3V82.6h-2.3v-2.7h8.2v2.7h-2.3v5.5h8.7v-5.5h-2.3v-2.7h8.2v2.7h-2.3v13.8h2.3V99h-8.2v-2.6h2.3V91h-8.7v5.5h2.3v2.6h-8.2v-2.7zM298.9 85c4 0 6.1 2.9 6.1 6.5 0 .4-.1 1.2-.1 1.2h-9.5c.2 2.5 2.1 3.8 4.1 3.8 2.2 0 4-1.5 4-1.5l1.3 2.4s-2.1 1.9-5.6 1.9c-4.6 0-7.4-3.3-7.4-7.2.1-4.1 3-7.1 7.1-7.1zm2.6 5.7c-.1-1.9-1.2-3-2.7-3-1.8 0-3 1.2-3.3 3h6zm12.8-.1h.9v-.5c0-1.8-1.1-2.4-2.5-2.4-2.1 0-3.9 1.3-3.9 1.3l-1.3-2.4s2.1-1.7 5.5-1.7c3.7 0 5.7 1.9 5.7 5.4v5.5c0 .4.2.6.6.6h1.2V99h-3.2c-1.3 0-1.8-.7-1.8-1.5v-.2c0-.4.1-.7.1-.7h-.1s-1.2 2.6-4.3 2.6c-2.3 0-4.6-1.4-4.6-4.2-.1-4 5.5-4.4 7.7-4.4zm-2.3 6.3c1.9 0 3.2-2 3.2-3.7v-.5h-.6c-1.3 0-4.6.2-4.6 2.3 0 1 .7 1.9 2 1.9zm10.8-14.4h-2.1v-2.6h5.5v14.6c0 1.2.3 1.9 1.4 1.9h.6v2.8s-.6.1-1.2.1c-2.2 0-4.2-.7-4.2-4.5V82.5zm8.7 5.4h-2.1v-2.6h2.2v-3.8h3.3v3.8h3.1v2.6h-3.1v5.8c0 2.3 1.8 2.7 2.8 2.7h.6v2.8s-.4.1-1.1.1c-1.9 0-5.7-.6-5.7-5.2v-6.2zm8.1 8.6h2v-14h-2.1v-2.6h5.6v6.7c0 .7-.1 1.2-.1 1.2h.1c.7-1.3 2.4-2.8 4.8-2.8 3 0 4.8 1.6 4.8 5.2v6.3h2v2.6h-5.4v-8.2c0-1.7-.4-2.8-2.2-2.8-2.4 0-3.9 2.1-3.9 4.6v3.8h2v2.6h-7.4v-2.6zm28.3-7.6c0-.1-2.6-1-2.6-4.2 0-3.4 2.9-5 6.3-5 1.3 0 2.5.3 2.5.3l-.8 2.8s-.7-.2-1.3-.2c-1.8 0-3.2.9-3.2 2.5 0 1.2.6 2.7 2.9 2.7h3.6v-2.6h3.4v2.6h2.5v2.8h-2.5V93c0 3.9-2.7 6.5-7.1 6.5-4.3 0-7.1-2.5-7.1-5.7 0-2.2 1.3-4.2 3.4-4.9zm3.8 7.4c2.2 0 3.7-1.2 3.7-3.6v-2.2h-3.8c-2.1 0-3.5 1-3.5 2.9 0 1.7 1.4 2.9 3.6 2.9zm17.7.1h2.3V82.6h-2.3v-2.7h14.2v4.9h-3v-2.1h-5.4V88h6.3v2.8h-6.3v5.4h5.8V94h3v5h-14.6v-2.6zm16.9.1h2v-8c0-.4-.2-.6-.6-.6h-1.5v-2.6h3.6c1.2 0 1.8.6 1.8 1.5v.6c0 .3-.1.6-.1.6h.1c.2-.4 1.6-3.1 5.1-3.1 2.9 0 4.6 1.6 4.6 5.2v6.3h2V99h-5.4v-8.2c0-1.7-.5-2.8-2.2-2.8-2.5 0-3.9 2.4-3.9 4.8v3.6h2V99h-7.4v-2.5zm17.6-11.2h6.6v2.6H429l2.4 6.8c.3.7.4 1.5.4 1.5h.1s.1-.8.3-1.5l2.4-6.8H433v-2.6h6.6v2.6H438l-4.2 11.2h-3.9l-4.2-11.2H424v-2.6zm16.9 11.2h2v-8.6h-2.1v-2.6h5.6v11.2h2v2.6h-7.4v-2.6zm1.9-16.6h3.5V83h-3.5v-3.1zm7.3 16.6h2v-8c0-.4-.2-.6-.6-.6h-1.5v-2.6h3.6c1.2 0 1.8.5 1.8 1.7v.8c0 .5-.1.9-.1.9h.1c.6-2 2.3-3.5 4.4-3.5.3 0 .6.1.6.1v3.4s-.4-.1-.8-.1c-2.8 0-4 2.4-4 5v3h2v2.6H450v-2.7zM468.9 85c4.2 0 7.6 3 7.6 7.2s-3.4 7.2-7.6 7.2c-4.2 0-7.6-3-7.6-7.2.1-4.2 3.4-7.2 7.6-7.2zm.1 11.5c2.2 0 4.1-1.7 4.1-4.3 0-2.5-1.9-4.3-4.1-4.3-2.2 0-4.1 1.8-4.1 4.3 0 2.6 1.8 4.3 4.1 4.3zm9.4 0h2v-8c0-.4-.2-.6-.6-.6h-1.5v-2.6h3.6c1.2 0 1.8.6 1.8 1.5v.6c0 .3-.1.6-.1.6h.1c.2-.4 1.6-3.1 5.1-3.1 2.9 0 4.6 1.6 4.6 5.2v6.3h2V99H490v-8.2c0-1.7-.5-2.8-2.2-2.8-2.5 0-3.9 2.4-3.9 4.8v3.6h2V99h-7.4v-2.5zm18.6 0h2v-8.1c0-.4-.2-.6-.6-.6h-1.5v-2.6h3.6c1.2 0 1.8.6 1.8 1.5v.6c0 .3-.1.6-.1.6h.1c.7-1.4 2.4-3.1 4.7-3.1 1.9 0 3.3.9 3.8 3h.1c.8-1.6 2.6-3 4.8-3 2.8 0 4.4 1.6 4.4 5.2v6.3h2v2.6h-5.4v-8.2c0-1.6-.3-2.8-1.9-2.8-2.3 0-3.5 2.3-3.5 4.9v3.5h2v2.6h-5.4v-8.2c0-1.5-.2-2.8-1.9-2.8-2.4 0-3.5 2.6-3.5 5v3.3h2v2.6H497v-2.3zM530.3 85c4 0 6.1 2.9 6.1 6.5 0 .4-.1 1.2-.1 1.2h-9.5c.2 2.5 2.1 3.8 4.1 3.8 2.2 0 4-1.5 4-1.5l1.3 2.4s-2.1 1.9-5.6 1.9c-4.6 0-7.4-3.3-7.4-7.2.1-4.1 3-7.1 7.1-7.1zm2.6 5.7c-.1-1.9-1.2-3-2.7-3-1.8 0-3 1.2-3.3 3h6zm5.5 5.8h2v-8c0-.4-.2-.6-.6-.6h-1.5v-2.6h3.6c1.2 0 1.8.6 1.8 1.5v.6c0 .3-.1.6-.1.6h.1c.2-.4 1.6-3.1 5.1-3.1 2.9 0 4.6 1.6 4.6 5.2v6.3h2V99H550v-8.2c0-1.7-.5-2.8-2.2-2.8-2.5 0-3.9 2.4-3.9 4.8v3.6h2V99h-7.4v-2.5zm20-8.6h-2.1v-2.6h2.2v-3.8h3.3v3.8h3.1v2.6h-3.1v5.8c0 2.3 1.8 2.7 2.8 2.7h.6v2.8s-.4.1-1.1.1c-1.9 0-5.7-.6-5.7-5.2v-6.2z"/><path d="M252.2.1h1.3v99h-1.3z"/><path fill="#2551a3" d="M236.4 51.1v-1.5c0-27.3-22.2-49.5-49.5-49.5s-49.5 22.2-49.5 49.5v1.5l49.5 20.1 49.5-20.1z"/><path d="M186.9 74.2l-.5-.2-48.8-19.8c2.3 25.2 23.5 45 49.3 45s47-19.7 49.3-45l-49.3 20z" class="st1"/><path d="M164.9 77.4c1.7 0 2.9.5 4 1.5.2.1.2.3 0 .5l-1.3 1.4c-.1.1-.3.1-.4 0-.6-.6-1.4-.9-2.2-.9-1.9 0-3.3 1.6-3.3 3.4 0 1.8 1.4 3.4 3.3 3.4.8 0 1.6-.3 2.2-.8.1-.1.3-.1.4 0l1.3 1.4c.1.1.1.3 0 .4-1.1 1.1-2.6 1.6-4 1.6-3.3 0-6-2.6-6-6s2.7-5.9 6-5.9zm6.4.4c0-.2.1-.3.3-.3h4.1c3.2 0 5.8 2.6 5.8 5.8 0 3.2-2.6 5.8-5.8 5.8h-4.1c-.2 0-.3-.1-.3-.3v-11zm4.2 8.9c1.9 0 3.2-1.5 3.2-3.4s-1.4-3.4-3.2-3.4h-1.6v6.7h1.6zm8.4-8.9c0-.2.1-.3.3-.3h4c2 0 3.7 1.7 3.7 3.7 0 2.1-1.7 3.7-3.7 3.7h-1.7v3.9c0 .2-.2.3-.3.3h-2c-.2 0-.3-.1-.3-.3v-11zm4.1 4.7c.7 0 1.3-.6 1.3-1.3 0-.7-.6-1.2-1.3-1.2h-1.6v2.5h1.6zm6-4.7c0-.2.2-.3.3-.3h2c.2 0 .3.1.3.3V82h4.8v-4.2c0-.2.1-.3.3-.3h2c.2 0 .3.1.3.3v11c0 .2-.2.3-.3.3h-2c-.2 0-.3-.1-.3-.3v-4.4h-4.8v4.4c0 .2-.1.3-.3.3h-2c-.2 0-.3-.1-.3-.3v-11zm13.2 0c0-.2.1-.3.3-.3h6.9c.2 0 .3.1.3.3v1.8c0 .2-.1.3-.3.3h-4.6V82h3.8c.2 0 .3.1.3.3v1.8c0 .2-.1.3-.3.3h-3.8v2.2h4.6c.2 0 .3.1.3.3v1.8c0 .2-.1.3-.3.3h-6.9c-.2 0-.3-.1-.3-.3V77.8z" class="st2"/><path d="M185.4 17.3c-.5-1.3-1-2.6-.8-4.1 1.3.9 1.8 2.1 2.4 3.3v-.1.1c.6-1.2 1.2-2.4 2.5-3.3.1 1.6-.4 2.8-.9 4.1 3.2-1.4 4.7-5.9 3-8.8-.2-.4-.5-.3-.8-.2-1.9.7-3.2 2.3-3.8 4.2-.5-1.9-1.9-3.5-3.7-4.3-.3-.1-.5-.3-.8.1-1.7 3-.3 7.5 2.9 9zm-5.3 4.2c-1.1-1.4-2.1-2.6-2.4-4.3 1 .1 1.8.6 3.9 2.7-.1-4.2-3.1-7.5-7.1-7.9-.5 0-.7.1-.8.6-.2 2.1.1 4 1.3 5.7 1.2 1.6 2.8 2.7 5.1 3.2zm14.6 0c2.2-.5 3.9-1.6 5.1-3.2 1.3-1.7 1.6-3.6 1.3-5.7-.1-.5-.3-.6-.8-.6-4 .3-7.1 3.7-7.1 7.9 2.1-2.1 2.8-2.6 3.9-2.7-.3 1.7-1.3 2.9-2.4 4.3zm9 6.9c-.2-1.1.2-2.1.6-3.3-1.3.8-2.2 1.9-2.6 3.2-.5 1.4-.2 2.7.4 3.9.2.3.3.3.6.2 2.5-1.1 3.7-3.9 2.9-6.6-.9 1.9-1.2 2.4-1.9 2.6zm3.7-5.8c1 .9 2 1.8 2.4 3-.8.1-1.4-.2-3.4-1.6.6 3.3 3.5 5.4 6.6 5.2.4 0 .6-.1.5-.6-.1-1.6-.6-3.1-1.8-4.2-1-1.1-2.4-1.7-4.3-1.8zm-2.6-5.7c.5.5.7 1.1.8 2.8-.1.4-.1.8-.1 1.2 1.4-1.5 2.6-2.9 4.4-3.6.1 1.2-.3 2.1-2.3 5 4.8-.9 8-5.1 7.6-9.8-.1-.6-.2-.8-.8-.8-2.4.1-4.5.9-6.2 2.7-.3.4-.7.8-.9 1.2-.2-1.3-.7-2.5-1.6-3.5-.3-.3-.5-.4-.8-.1-1.2 1.1-2.1 2.4-2.2 4.1-.1 1.6.3 3.1 1.3 4.6 0-1.4.1-2.6.8-3.8zm-17.7 2.9c-2.2 0-4 1.9-4 4.3s1.7 4.3 4 4.3c2.2 0 3.9-1.8 4-4.2 0-2.5-1.7-4.4-4-4.4z" class="st2"/><path d="M203.3 22.9c-3.7 2-7.4 4-11.1 5.9l-3.3 1.8c-1 .5-2 .7-3 .1-1.2-.6-2.4-1.2-3.6-1.9-3.9-2.4-7.8-4.8-12.5-6.4 1.7 1.3 3.5 2.5 5.2 3.8 3.1 2.4 6 4.9 7.8 7.9 1.9 3.1 1.6 6.4 1.4 9.6-.1 1.5-1.1 9.2-1.9 11.3 4.2-1.3 9.7-1.2 9.3-1.3-.1-3.2-1.3-11.9-1.2-15 .1-1.6.6-3.2 1.4-4.7 1.6-2.8 4.2-5.1 7.1-7.3 1.8-1.4 3.8-2.8 5.6-4.2-.4.1-.8.2-1.2.4zm-33.9 2c.4 1.1.8 2.1.6 3.3-.7-.3-1-.7-1.9-2.5-.9 2.7.4 5.5 2.9 6.6.3.1.5.1.6-.2.6-1.3.8-2.6.4-3.9-.5-1.4-1.3-2.5-2.6-3.3zm-3.9-2.1c-2.1.2-3.6 1-4.9 2.3-1.3 1.4-1.8 3.1-1.8 4.9 0 .5.2.6.6.6 3.6.1 6.7-2.5 7.2-6.3-2.1 1.6-2.8 2-3.7 2 .5-1.4 1.5-2.4 2.6-3.5zm1.8-.3c-2.1-2.7-2.6-3.6-2.5-4.8 1.9.6 3.1 1.9 4.6 3.4 0-.4-.1-.8-.2-1.2 0-1.7.2-2.3.7-2.8.7 1.1.9 2.3 1 3.7 1-1.5 1.3-3 1.1-4.7-.2-1.7-1.1-2.9-2.4-3.9-.3-.3-.5-.2-.8.1-.9 1-1.4 2.3-1.4 3.5-.3-.4-.6-.8-1-1.1-1.8-1.7-3.9-2.3-6.3-2.3-.6 0-.8.3-.8.8-.2 4.6 3.2 8.6 8 9.3zm-10.2-1c1.6-.4 2.9-.2 4.3.1-2.1-2.9-6.8-3.6-9.4-1.3-.4.3-.2.5 0 .8 1.8 2.9 5.8 3.9 8.9 2.3-1.3-.5-2.6-.8-3.8-1.9zm65 .2c-2.4-2.5-7.2-2.3-9.5.4 1.4-.1 2.8-.2 4.3.3-1.3 1-2.6 1.2-3.9 1.5 2.9 2 7 1.3 9.1-1.4.1-.3.3-.5 0-.8z" class="st2"/><g><path d="M230.5 32.2h-3.6v.9c-1-.7-1.9-1.2-1.9-1.2-.3.1-2.1 1.9-3 2.7-.4.4-.3.6-.3 1.2v11.8c-.5.1-1 .1-1.5.2V35.3h-3.9v2.6h-.5v-1.1h-4v10.7c-.1.4-.8.6-1.7 1.2v-4-1.1h-.4v-.1c0-.4-.3-.7-.7-.7h-2.5c-.4 0-.7.3-.7.7v.1h-.6V47h-3.3v4.5c-3.3-.1-5.1 0-8.9.6l.2 1.7s4.9-.3 11.3.2c6.9.5 11 2.4 11 2.4.3 0 15.4-5.9 15.5-6-.3-1.1-.5-18.2-.5-18.2z" class="st2"/><path d="M188.8 55.4c-3.4.6-6.5 1-8.3 1.5h-.1c.1-.1.8-2.4 1.4-5.1-.6-.4-8.1-7.7-8.1-7.7l-6.4 5.3-5.3-4.2-2 2.4-9.4-9.9-10.8 11.1s10.2 3.9 20.4 8c13.1.2 19.3 2.4 22.7 3.5 7.5 2.4 10.8 4.8 10.8 4.8l2.5-1s-2.9-1.9-8.4-3.8c-1.1-.4-2.1-.8-3-1.3 2-.6 5.7-1.9 10.3-2 9.3-.3 14 1.8 14 1.8l3.8-1.4c0-.3-10.2-4.4-24.1-2zm-39-13l-3.6 1.6 3.9-3.8 5.9 6.2-6.2-4zm23.1 14.8z" class="st2"/><path d="M194.7 58c-1.8.1-4.8.8-6 1.1.5.1 4.3 1.4 4 1.4 1.5-.3 2.4-.7 4.9-.7 2.8 0 5.8 1.3 5.8 1.3l3.4-1.4c0-.1-4.7-2.3-12.1-1.7zm.6 3.6l2.9 1.4 3-1.2s-1.1-.8-3.1-.7c-1.4.1-2.8.5-2.8.5zm-31.8-3.4c1.4.6 4.3 1.7 5.6 2.3 0-.1 5.5.3 11 1.5 5.3 1.3 10.5 4.3 10.5 4.3l1.9-.8s-3-2.1-8.3-4c-6.8-2.4-15.2-3.5-20.7-3.3z" class="st2"/><path d="M173.1 62.1c6.4 2.6 10.1 4.3 13.8 5.9l2.3-1s-4.4-2.2-7.7-3.1c-2.7-.9-5.6-1.7-8.4-1.8z" class="st2"/></g><g><path d="M43.5 80.6c-1.5-1.9-2.9-3.9-4.1-6-.1-.1-.2-.2-.2-.3-.9-1.7-1.8-3.3-2.5-5.1-.2-.5-.4-1-.6-1.6-2.6-6.6-3.7-13.5-3.4-20.6.4-7.8 2.6-15 6.4-21.8 0-.1.1-.2.1-.3 1.1-1.7 2.1-3.4 3.3-5-.6-1-1.1-2-1.8-3.2-3.9-7-5.9-10.3-9.8-16.8C27 6.5 25 9.9 21.1 17c-3.9 6.9-5.9 10.4-9.7 17.8 3.2-.8 4.8-1.2 8-1.6-.8 2-1.2 3-2 5.1C12.7 47.5 8.3 57 4.1 66.4c3.3-1.2 4.9-1.7 8.3-2.5C8 74.1 4 84.3 0 94.6c21.7-7.5 39.4-7.6 61.1-.2-4.5-2.1-8.6-4.9-12.5-8.4-1.9-1.6-3.6-3.4-5.1-5.4z" class="st1"/><path fill="#ffd100" d="M82.2 25.7c-7.2 0-13.9 3.2-18.5 8.7l-.1.1c-3.5 4.3-5.5 9.7-5.5 15.3v.7l14.6-12.7 10 8.7 10-8.7 13.7 11.9c0-3.2-.6-6.2-1.9-9.1-3.8-9.1-12.5-14.9-22.3-14.9z"/><path fill="#c3002f" d="M39 25.3c-3.8 6.7-6 14-6.4 21.8-.3 7.1.8 14 3.4 20.6.2.5.4 1.1.6 1.6l18.9-16.5c0-.3-.1-.7-.1-1 0-.6-.1-1.2-.1-1.9 0-6.2 2.2-12.3 6.1-17.1l.1-.1c5.1-6.1 12.6-9.6 20.6-9.6 10.9 0 20.6 6.5 24.8 16.5 6.7-2.7 13.3-5.4 20-8.1.4-.2.6-.3.3-.8-.8-1.9-1.8-3.8-2.7-5.6-.1-.2-.2-.3-.3-.4-9-14.5-22-22.5-39-24.1-4.9-.4-9.7 0-14.5 1.1-11.3 2.7-20.6 8.5-27.8 17.6-.2.3-.4.5-.6.8-1.2 1.6-2.3 3.3-3.3 5 .1 0 0 .1 0 .2z"/><path fill="#7a853b" d="M72.7 37.7L58.1 50.5c0 .4 0 .7.1 1 .3 3.8 1.4 7.5 3.4 10.7.4.7.8 1.2 1.1 1.6l20-17.5-10-8.6z"/><path fill="#6d3a5d" d="M59.2 63.8c-2-3.4-3.3-7.2-3.7-11L36.6 69.3c.8 1.7 1.6 3.4 2.5 5.1.1.1.2.2.2.3 1.2 2.1 2.6 4.1 4.1 6l.7-.6 16.4-14.3-.1-.1c-.3-.6-.7-1.2-1.2-1.9z"/><path d="M126.8 67.8c-6.5-2.7-13.1-5.3-19.6-7.9-.7 1.8-1.7 3.6-2.8 5.2-5 7.3-13.3 11.6-22.1 11.6-8.5 0-16.6-4.1-21.7-11L44.2 80l-.7.6c1.5 1.9 3.2 3.7 5.1 5.4 3.9 3.5 8.1 6.3 12.5 8.4 6 2.8 12.5 4.3 19.5 4.6 5.1.2 10.1-.5 15-1.9 9.6-2.8 17.6-8.1 24.1-15.7.4-.5.8-1 1.3-1.5 1.3-1.7 2.5-3.6 3.7-5.5 1-1.7 1.9-3.5 2.6-5.3.1-.2.1-.3.2-.4l.1-.2-.1-.2c-.2-.3-.4-.3-.7-.5z" class="st7"/><path fill="#35647e" d="M82.7 46.4l19.2 16.7.3.2c1-1.4 1.8-3 2.4-4.5 1.2-2.9 1.8-5.9 1.8-9v-.2L92.7 37.7l-10 8.7z"/><path d="M82.7 46.4l-20 17.5s0 .1.1.1c4.5 6.2 11.8 9.9 19.5 9.9 7.9 0 15.3-3.9 19.8-10.4l.1-.1-.3-.2-19.2-16.8z" class="st7"/><g><path d="M111.4 93.9h-1.1c-.1 0-.1-.1-.1-.1v-.6c0-.1.1-.1.1-.1h3c.1 0 .1.1.1.1v.6c0 .1-.1.1-.1.1h-1.1v3.9c0 .1-.1.1-.1.1h-.6c-.1 0-.1-.1-.1-.1v-3.9zm3.9-.8c0-.1 0-.1.1-.1h.1c.1 0 .1 0 .1.1l1.5 3.3 1.5-3.3.1-.1h.1c.1 0 .1 0 .1.1l.8 4.7c0 .1 0 .2-.1.2h-.6c-.1 0-.1-.1-.1-.1l-.4-2.6-1.2 2.7-.1.1h-.1c-.1 0-.1 0-.1-.1l-1.2-2.7-.4 2.6-.1.1h-.6c-.1 0-.1-.1-.1-.2l.7-4.7z"/></g></g></svg>