<svg xmlns="http://www.w3.org/2000/svg" role="img" viewBox="-17.99 -17.99 935.48 723.48"><title>Colombia (CoronApp) logo</title><path fill="#fcd116" d="M0 0h900v600H0z"/><path fill="#003893" d="M0 300h900v300H0z"/><path fill="#ce1126" d="M0 450h900v150H0z"/><path d="M86.07515 626.53615c-4.8533 4.89332-7.28495 11.87807-7.28495 20.92422 0 8.37569 2.14145 14.97017 6.40435 19.77343 4.2729 4.78325 10.13689 7.17488 17.59195 7.17488 6.0241 0 10.96746-1.7712 14.83008-5.31361 3.85262-3.5324 6.25425-8.13553 7.19489-13.78937h-10.72729c-.7305 2.67181-1.64112 4.68318-2.75187 6.01408-1.99135 2.4917-4.88332 3.73254-8.6859 3.73254-3.70252 0-6.7646-1.45099-9.16623-4.34295-2.40163-2.90197-3.60245-7.25493-3.60245-13.06888s1.14078-10.31701 3.41232-13.48917c2.27154-3.18216 5.38366-4.77324 9.32634-4.77324 3.86262 0 6.7846 1.13077 8.75595 3.3823 1.10075 1.26085 2.00136 3.14213 2.71184 5.62382h10.82736c-.16011-3.2322-1.36093-6.45439-3.58244-9.67658-4.03274-5.71388-10.41708-8.57582-19.143-8.57582-6.51443 0-11.88808 2.13144-16.11095 6.40435zm15.80073-7.00476zm54.34693 43.23938c-1.57106 2.08141-3.8226 3.13213-6.75459 3.13213-2.93199 0-5.18352-1.05072-6.7646-3.13213-1.59107-2.09142-2.38161-5.05343-2.38161-8.90605 0-3.84261.79054-6.80463 2.38162-8.88604 1.58107-2.0714 3.8326-3.11212 6.7646-3.11212 2.93199 0 5.18352 1.04071 6.75458 3.11212 1.57107 2.08141 2.36161 5.04343 2.36161 8.88604 0 3.85262-.79054 6.81463-2.3616 8.90605zm8.02546 5.53376c3.2322-3.99271 4.8533-8.80598 4.8533-14.43981 0-5.53376-1.6211-10.32702-4.8533-14.38978-3.2422-4.05275-8.15554-6.08413-14.74002-6.08413-6.59448 0-11.50782 2.03138-14.74001 6.08413-3.2422 4.06276-4.8533 8.85602-4.8533 14.38978 0 5.63383 1.6111 10.4471 4.8533 14.43981 3.2322 4.00272 8.14553 6.00408 14.74001 6.00408 6.58448 0 11.49782-2.00136 14.74002-6.00408zm-14.74002-34.70358zm37.00515 39.36675v-51.85524h-10.02682v51.85524zm33.74293-10.19693c-1.57107 2.08141-3.8226 3.13213-6.7546 3.13213-2.93198 0-5.19352-1.05072-6.7746-3.13213-1.58107-2.09142-2.3716-5.05343-2.3716-8.90605 0-3.84261.79053-6.80463 2.3716-8.88604 1.58108-2.0714 3.84262-3.11212 6.7746-3.11212 2.932 0 5.18353 1.04071 6.7546 3.11212 1.57107 2.08141 2.3516 5.04343 2.3516 8.88604 0 3.85262-.78053 6.81463-2.3516 8.90605zm8.01544 5.53376c3.2422-3.99271 4.8533-8.80598 4.8533-14.43981 0-5.53376-1.6111-10.32702-4.8533-14.38978-3.2322-4.05275-8.14553-6.08413-14.74001-6.08413-6.58448 0-11.49781 2.03138-14.74002 6.08413-3.2322 4.06276-4.8533 8.85602-4.8533 14.38978 0 5.63383 1.6211 10.4471 4.8533 14.43981 3.2422 4.00272 8.15554 6.00408 14.74002 6.00408 6.59448 0 11.50782-2.00136 14.74001-6.00408zm-14.74001-34.70358zm74.6207 1.16079c-1.6411-.65045-3.31224-.98067-4.99339-.98067-2.53172 0-4.83328.52035-6.89468 1.58107-1.95133 1.05072-3.58244 2.71185-4.89333 4.96338-.7505-1.88128-1.85126-3.41232-3.30224-4.61314-1.81123-1.29087-4.18284-1.93131-7.11484-1.93131-3.0921 0-5.61381.75051-7.56514 2.25153-1.10075.84057-2.27154 2.26154-3.51238 4.25289v-5.5938h-9.74663v38.276h10.16691v-23.07567c0-2.09142.27019-3.66249.81055-4.7132.98067-1.85126 2.91198-2.7819 5.77393-2.7819 2.46167 0 4.1128.93064 4.95336 2.7819.47032 1.0307.71048 2.68182.71048 4.96337v22.8255h10.09687v-22.8255c0-1.72117.26017-3.18216.80054-4.403 1.06072-2.30156 2.97202-3.44233 5.7339-3.44233 2.40163 0 4.04274.8906 4.93335 2.67181.46031.93064.70047 2.13145.70047 3.58244v24.41659h10.27699l.07005-24.16642c0-2.4917-.12009-4.37297-.36025-5.66385-.37025-1.95133-1.10075-3.59244-2.18148-4.92335-1.3309-1.64111-2.82192-2.7919-4.46303-3.45234zm48.77315 4.47304c-2.84193-3.64248-6.79462-5.45371-11.83805-5.45371-2.7919 0-5.08345.5804-6.89468 1.7612-1.52103.93063-2.92199 2.29155-4.18284 4.07276v-18.43252h-9.9968v51.78519h9.81667v-4.81327c1.34092 1.87127 2.58176 3.18216 3.73254 3.93267 1.9213 1.27086 4.46303 1.9013 7.63519 1.9013 5.04343 0 8.9661-1.96134 11.78801-5.874 2.81191-3.91266 4.21286-8.85602 4.21286-14.81006 0-5.7439-1.42096-10.4371-4.2729-14.06956zm-8.3857 23.35587c-1.43097 2.09142-3.44234 3.13213-6.01409 3.13213-2.98202 0-5.19353-1.08074-6.65452-3.2422-1.45098-2.15147-2.18148-4.87332-2.18148-8.15555 0-2.7919.35024-5.06344 1.06072-6.82464 1.36093-3.31225 3.85262-4.96337 7.4951-4.96337 3.58243 0 6.0441 1.69115 7.38501 5.06344.70048 1.79122 1.05072 4.04275 1.05072 6.7546 0 3.4023-.71049 6.14417-2.14146 8.23559zm30.15049-32.54212v-9.25629h-10.16691v9.2563zm-10.16691 4.57311v38.34606h10.1669v-38.34606zm41.01787 19.7034v3.73253c-.07004 3.35228-1.01068 5.66385-2.83192 6.9247-1.82124 1.27087-3.80258 1.9013-5.96405 1.9013-1.36093 0-2.51171-.38026-3.46236-1.14078-.95064-.76052-1.43097-2.00136-1.43097-3.71252 0-1.9213.78053-3.34227 2.32158-4.2629.92062-.54037 2.43165-.99067 4.54309-1.37093l2.25153-.42029c1.12076-.21014 2.01136-.4403 2.6518-.68046.65044-.25017 1.29088-.57039 1.9213-.97066zm-6.08413-4.6832l-3.41232.4203c-3.87263.50033-6.80462 1.3209-8.79598 2.47167-3.63247 2.11144-5.4537 5.52376-5.4537 10.23696 0 3.63247 1.13077 6.44438 3.3923 8.42573 2.26154 1.98134 5.1335 2.97202 8.60585 2.97202 2.72185 0 5.1535-.62043 7.31497-1.87128 1.80123-1.05071 3.40231-2.33158 4.78325-3.8326.07005.8706.17012 1.64111.2802 2.32158.12007.68046.33022 1.41096.64043 2.18148h10.8974v-1.481c-.65044-.30021-1.14077-.69048-1.471-1.1608-.33022-.4603-.53036-1.35091-.6004-2.67181-.05004-1.73118-.07005-3.21218-.07005-4.43301v-17.58195c0-4.62314-1.63111-7.76528-4.89333-9.43641-3.26221-1.66113-6.98474-2.4917-11.1876-2.4917-6.44438 0-10.99747 1.68115-13.64928 5.06344-1.66112 2.16147-2.60176 4.91334-2.8119 8.26562h9.67657c.23016-1.481.70048-2.6518 1.40095-3.51239.99067-1.1808 2.66181-1.7612 5.03342-1.7612 2.11144 0 3.71252.30021 4.80327.89061 1.09074.60041 1.6311 1.69115 1.6311 3.26222 0 1.29088-.71048 2.23152-2.14145 2.84193-.80055.36024-2.12144.65044-3.9727.8806zm.52035-16.0409zm46.86185 0c-3.04207 7.03479-4.57311 13.9795-4.57311 20.82416 0 5.93403 1.1708 11.83804 3.5224 17.70203 1.99135 5.04343 4.89332 10.1669 8.6859 15.37044h5.94403l-2.14145-3.94268c-2.952-5.43369-5.0134-11.12756-6.15418-17.06159-.75051-3.86263-1.13077-8.0955-1.13077-12.69863 0-7.12484.97066-13.57923 2.92198-19.34314 1.1708-3.45235 3.39231-8.15555 6.64452-14.1096l-5.76392-.07004-2.5017 3.44234c-1.94132 2.70184-3.76255 5.99407-5.4537 9.88672zm27.47867-7.0648c-4.8533 4.89333-7.28495 11.87808-7.28495 20.92423 0 8.37569 2.14145 14.97017 6.40435 19.77343 4.2729 4.78325 10.13689 7.17488 17.59196 7.17488 6.02409 0 10.96745-1.7712 14.83007-5.31361 3.85262-3.5324 6.25425-8.13553 7.1949-13.78937h-10.7373c-.7205 2.67181-1.64112 4.68318-2.74187 6.01408-1.99135 2.4917-4.88332 3.73254-8.6859 3.73254-3.70252 0-6.7646-1.45099-9.16623-4.34295-2.40163-2.90197-3.60245-7.25493-3.60245-13.06888s1.13077-10.31701 3.41232-13.48917c2.27155-3.18216 5.38366-4.77324 9.31633-4.77324 3.87264 0 6.79462 1.13077 8.76596 3.3823 1.10075 1.26085 2.00136 3.14213 2.70184 5.62382h10.83736c-.1601-3.2322-1.36092-6.45439-3.58243-9.67658-4.03274-5.71388-10.41708-8.57582-19.14301-8.57582-6.51443 0-11.88808 2.13144-16.11095 6.40435zm15.80074-7.00475zm54.34693 43.23938c-1.57107 2.08141-3.8226 3.13213-6.7546 3.13213-2.93198 0-5.18351-1.05072-6.7746-3.13213-1.58107-2.09142-2.3716-5.05343-2.3716-8.90605 0-3.84261.79053-6.80463 2.3716-8.88604 1.59109-2.0714 3.84262-3.11212 6.7746-3.11212 2.932 0 5.18353 1.04071 6.7546 3.11212 1.57107 2.08141 2.3616 5.04343 2.3616 8.88604 0 3.85262-.79053 6.81463-2.3616 8.90605zm8.02545 5.53376c3.2322-3.99271 4.8533-8.80598 4.8533-14.43981 0-5.53376-1.6211-10.32702-4.8533-14.38978-3.2422-4.05275-8.15554-6.08413-14.74001-6.08413-6.59449 0-11.50782 2.03138-14.74002 6.08413-3.2422 4.06276-4.8633 8.85602-4.8633 14.38978 0 5.63383 1.6211 10.4471 4.8633 14.43981 3.2322 4.00272 8.14553 6.00408 14.74002 6.00408 6.58447 0 11.4978-2.00136 14.74001-6.00408zm-14.74001-34.70358zm48.07266.12008c-.13009-.01-.2902-.01-.48032-.01-3.00204 0-5.4337.78052-7.31497 2.3516-1.15079.94063-2.5017 2.69182-4.04275 5.24355v-6.68454h-9.5665v38.34606h10.09686v-18.32245c0-3.0821.38026-5.35364 1.16079-6.83465 1.38094-2.62178 4.08277-3.93267 8.12552-3.93267.3002 0 .70047.01 1.1908.03002.49034.03002 1.06073.07005 1.69116.1401v-10.26698c-.4503-.03002-.7305-.04003-.86059-.06004zm30.69086 29.04974c-1.57107 2.08141-3.8226 3.13213-6.7546 3.13213-2.93198 0-5.18351-1.05072-6.7746-3.13213-1.58107-2.09142-2.3716-5.05343-2.3716-8.90605 0-3.84261.79053-6.80463 2.3716-8.88604 1.59109-2.0714 3.84262-3.11212 6.7746-3.11212 2.932 0 5.18353 1.04071 6.7546 3.11212 1.57107 2.08141 2.3616 5.04343 2.3616 8.88604 0 3.85262-.79053 6.81463-2.3616 8.90605zm8.02545 5.53376c3.2322-3.99271 4.8533-8.80598 4.8533-14.43981 0-5.53376-1.6211-10.32702-4.8533-14.38978-3.2422-4.05275-8.15554-6.08413-14.74001-6.08413-6.59449 0-11.50782 2.03138-14.74002 6.08413-3.2422 4.06276-4.8633 8.85602-4.8633 14.38978 0 5.63383 1.6211 10.4471 4.8633 14.43981 3.2322 4.00272 8.14553 6.00408 14.74002 6.00408 6.58447 0 11.4978-2.00136 14.74001-6.00408zm-14.74001-34.70358zm57.74924 3.22219c-2.52172-2.08142-5.76392-3.11212-9.72661-3.11212-3.17216 0-5.78393.77053-7.84533 2.32158-1.15078.86059-2.37161 2.28155-3.6625 4.25289v-5.5938h-9.67657v38.276h9.9968v-20.7541c0-2.3716.32021-4.31292.98066-5.84397 1.27087-2.88195 3.60245-4.32293 7.00476-4.32293 2.76188 0 4.64316.98066 5.62382 2.952.54037 1.08074.81055 2.6318.81055 4.64316v23.32585h10.27699v-25.81754c0-4.81328-1.26086-8.25561-3.78257-10.32702zm-13.42913-3.2222zm41.44817 19.77344l6.68454-20.40386 6.4744 20.40386zm.67045-32.26192l-18.51258 51.85524h11.3277l3.59244-10.65724h19.10298l3.34227 10.65724h11.74799l-18.36248-51.85524zm6.04411 0zm54.72719 24.83688c1.35092 2.27154 2.02137 4.89332 2.02137 7.84533 0 3.59244-.7305 6.4644-2.2015 8.61586-1.46099 2.16146-3.59243 3.2422-6.38433 3.2422-1.9213 0-3.58244-.53036-4.9934-1.58108-2.3716-1.81123-3.5524-4.94336-3.5524-9.39638 0-2.81191.35023-5.13349 1.0507-6.96473 1.36093-3.45235 3.86263-5.17352 7.4951-5.17352 3.02205 0 5.21354 1.14078 6.56446 3.41232zm7.70524-7.2149c-3.11212-3.30225-6.9047-4.95337-11.38774-4.95337-3.07209 0-5.71389.85058-7.9454 2.56174-1.22083.96065-2.37161 2.28155-3.45235 3.94268v-5.66385h-9.59652v53.43631h9.91674v-19.98358c1.05071 1.6211 2.13145 2.85194 3.2322 3.70252 2.02137 1.52103 4.55309 2.28155 7.60516 2.28155 4.78325 0 8.69591-1.7712 11.72797-5.31361 3.04207-3.5424 4.5631-8.6859 4.5631-15.4405 0-6.40434-1.56106-11.25764-4.66316-14.5699zm36.30467 7.2149c1.35091 2.27154 2.02137 4.89332 2.02137 7.84533 0 3.59244-.7305 6.4644-2.2015 8.61586-1.46099 2.16146-3.59244 3.2422-6.38433 3.2422-1.92131 0-3.58244-.53036-4.9934-1.58108-2.3716-1.81123-3.55241-4.94336-3.55241-9.39638 0-2.81191.35024-5.13349 1.05071-6.96473 1.36093-3.45235 3.86263-5.17352 7.4951-5.17352 3.03206 0 5.21354 1.14078 6.56446 3.41232zm7.70523-7.2149c-3.11211-3.30225-6.90469-4.95337-11.38774-4.95337-3.07208 0-5.71388.85058-7.9454 2.56174-1.22082.96065-2.3716 2.28155-3.45234 3.94268v-5.66385h-9.59652v53.43631h9.91674v-19.98358c1.06072 1.6211 2.13144 2.85194 3.2322 3.70252 2.02137 1.52103 4.55309 2.28155 7.60516 2.28155 4.78325 0 8.69591-1.7712 11.72797-5.31361 3.04207-3.5424 4.5631-8.6859 4.5631-15.4405 0-6.40434-1.56106-11.25764-4.66317-14.5699zm23.8362-4.53308c-1.86126-4.31293-4.5631-8.95609-8.12552-13.92947h-7.56514l2.14145 3.93267c2.952 5.42369 5.0034 11.09754 6.15418 17.03158.75051 3.89264 1.13077 8.13552 1.13077 12.73865 0 7.17488-1.0407 13.77937-3.13213 19.80346-1.22082 3.56242-3.3823 8.13553-6.4744 13.71932h7.42505l2.4917-3.41232c1.6211-2.0614 3.34227-5.13348 5.17351-9.21626 3.26222-7.29496 4.89332-14.46983 4.89332-21.53463 0-6.42437-1.37093-12.7987-4.11279-19.133z"/></svg>