<svg xmlns="http://www.w3.org/2000/svg" role="img" viewBox="-3.20 0.68 172.64 40.27"><title>CommCare logo</title><path fill="currentColor" d="M56.239 24.067c-1.072.742-2.15 1.305-3.231 1.683-1.082.381-2.159.567-3.232.567-1.669 0-3-.496-3.986-1.495-.99-.995-1.483-2.331-1.483-4.001 0-1.723.519-3.071 1.552-4.052 1.034-.981 2.456-1.47 4.262-1.47.994 0 1.994.157 2.988.475.999.314 1.989.79 2.979 1.432v-4.192c-1.011-.493-2.037-.859-3.075-1.1-1.034-.24-2.098-.357-3.188-.357-3.04 0-5.487.85-7.34 2.547-1.854 1.7-2.778 3.938-2.778 6.716 0 1.322.235 2.556.711 3.704.471 1.152 1.161 2.16 2.063 3.02.875.824 1.901 1.452 3.07 1.879 1.173.424 2.456.637 3.855.637 1.234 0 2.413-.146 3.538-.444 1.125-.301 2.225-.754 3.297-1.37v-4.179zm55.676-5.474c-.707-.807-1.729-1.208-3.054-1.208-.903 0-1.7.165-2.395.497-.693.331-1.43.907-2.207 1.727-.313-.75-.763-1.308-1.352-1.675-.588-.366-1.334-.549-2.237-.549-.807 0-1.544.144-2.203.427-.658.289-1.282.732-1.871 1.335v-1.518h-3.794v12.113h3.794v-7.721c.375-.636.789-1.117 1.243-1.435.457-.319.946-.48 1.466-.48.602 0 1.038.192 1.308.58.266.389.401 1.026.401 1.91v7.146h3.708v-7.721c.385-.636.798-1.117 1.253-1.435.449-.319.939-.48 1.469-.48.602 0 1.038.192 1.309.576.266.383.401 1.021.401 1.914v7.146h3.82v-7.669c.001-1.513-.353-2.678-1.059-3.48zm-24.871-1.208c-.901 0-1.701.165-2.395.497-.693.331-1.431.907-2.215 1.727-.313-.75-.763-1.308-1.352-1.675-.59-.366-1.336-.549-2.239-.549-.806 0-1.544.144-2.202.427-.658.289-1.282.732-1.871 1.335v-1.518h-3.794v12.113h3.794v-7.721c.375-.636.789-1.117 1.243-1.435.458-.319.947-.48 1.465-.48.602 0 1.039.192 1.309.58.266.389.4 1.026.4 1.91v7.146H82.9v-7.721c.389-.636.803-1.117 1.256-1.435.45-.319.942-.48 1.471-.48.601 0 1.039.192 1.309.576.265.383.4 1.021.4 1.914v7.146h3.817v-7.669c0-1.514-.353-2.678-1.059-3.48-.705-.807-1.725-1.208-3.05-1.208zm-23.691 0h-.002c-1.971 0-3.567.584-4.801 1.757-1.23 1.169-1.845 2.691-1.845 4.554 0 1.858.615 3.367 1.845 4.532 1.234 1.165 2.83 1.745 4.801 1.745h.001c1.985 0 3.594-.584 4.829-1.749 1.234-1.17 1.853-2.679 1.853-4.528 0-1.853-.619-3.372-1.858-4.549-1.242-1.174-2.848-1.762-4.823-1.762zm1.98 8.789c-.493.615-1.156.924-1.98.924h-.002c-.82-.001-1.478-.309-1.974-.924-.502-.619-.75-1.443-.75-2.478 0-1.029.253-1.857.755-2.486.501-.623 1.159-.938 1.97-.938h.002c.814 0 1.474.314 1.971.938.501.629.75 1.457.75 2.486-.001 1.034-.25 1.859-.742 2.478zm65.299-2.107c-1.071.742-2.148 1.305-3.231 1.683-1.081.381-2.157.567-3.23.567-1.67 0-3.001-.496-3.987-1.495-.989-.995-1.481-2.331-1.481-4.001 0-1.723.519-3.071 1.552-4.052 1.034-.981 2.455-1.47 4.261-1.47.995 0 1.994.157 2.989.475.998.314 1.988.79 2.979 1.432v-4.192c-1.012-.493-2.037-.859-3.076-1.1-1.032-.24-2.097-.357-3.188-.357-3.041 0-5.487.85-7.341 2.547-1.853 1.7-2.778 3.938-2.778 6.716 0 1.322.235 2.556.712 3.704.47 1.152 1.16 2.16 2.062 3.02.877.824 1.902 1.452 3.071 1.879 1.172.424 2.455.637 3.854.637 1.234 0 2.412-.146 3.537-.444 1.126-.301 2.226-.754 3.297-1.37h-.001v-4.179zm12.442 3.067c-.176.042-.343.063-.508.063-.178 0-.305-.056-.384-.165-.073-.108-.112-.306-.112-.588v-4.82c0-1.479-.394-2.557-1.178-3.233-.782-.671-2.046-1.007-3.796-1.007-.182 0-.36.003-.535.01-.889.034-1.698.151-2.434.352-.882.245-1.688.615-2.422 1.108l-.053 3.014c.682-.628 1.379-1.113 2.094-1.444.721-.332 1.418-.497 2.099-.497.259 0 .497.014.716.043.456.06.818.185 1.081.371.384.278.579.707.579 1.282 0 .088-.003.157-.008.209-.004.048-.009.096-.019.14-.584.17-1.13.333-1.634.493-2.066.655-3.453 1.235-4.161 1.736-.882.628-1.321 1.427-1.321 2.398 0 1.113.295 1.954.893 2.521.598.565 1.479.851 2.647.851.592 0 1.146-.094 1.675-.249l-.002.019.11-.033c.026-.01.056-.023.083-.033.024-.009.051-.011.075-.02v-.012c.593-.231 1.303-.603 1.828-1.028.06.454.261.795.605 1.017.346.227.821.34 1.428.34.475 0 .979-.078 1.513-.23.536-.153 1.148-.397 1.836-.729v-2.118c-.287.117-.521.199-.695.239zm-4.879-.294c-.356.25-.697.437-1.02.564-.216.083-.421.14-.614.169l-.001.008v-.008c-.101.015-.197.021-.293.021-.418 0-.745-.111-.985-.344-.24-.23-.357-.541-.357-.934 0-.476.218-.886.658-1.229.218-.172.545-.359.979-.56.435-.202.979-.42 1.634-.65v2.963zm21.852-2.49h6.197v-.125c0-2.134-.55-3.805-1.649-5.018-1.099-1.216-2.598-1.822-4.496-1.822h-.052c-1.899.01-3.426.568-4.574 1.679-.685.663-1.167 1.457-1.447 2.381-.193.638-.289 1.337-.289 2.099 0 .817.096 1.561.289 2.233.285.993.781 1.83 1.485 2.509 1.114 1.073 2.627 1.644 4.536 1.707.122.004.245.006.37.008 1.043 0 2.019-.132 2.936-.389.916-.262 1.789-.66 2.612-1.194v-2.521c-.775.536-1.547.94-2.312 1.216-.766.274-1.535.41-2.301.41-.479 0-.913-.048-1.305-.146-.547-.135-1.011-.365-1.391-.69-.66-.559-.988-1.316-.988-2.281v-.056h2.379zm-1.553-3.707c.415-.423.929-.646 1.553-.663h.078c.638 0 1.16.222 1.562.663.406.444.642 1.055.711 1.839l-2.351.009-2.352.005c.1-.793.367-1.409.799-1.853zm-4.179-2.312c-.099-.063-.194-.124-.29-.179-.363-.216-.7-.382-1.004-.497-.39-.144-.761-.218-1.109-.218-.705 0-1.355.267-1.953.798-.598.531-1.222 1.414-1.867 2.639v-3.245h-3.82v12.113h3.82V24.53c.249-1.109.658-1.981 1.234-2.618.576-.641 1.226-.96 1.95-.96.313 0 .631.07.955.206.327.136.68.354 1.063.651l.73-2.489.291-.989zM13.091 33.185l-.028.055-.028.057c-.038.019-.066.037-.094.053-.028.014-.056.023-.095.023-.81.575-1.652 1.062-2.504 1.484s-1.714.774-2.561 1.074c0-.412.02-.831.038-1.244.02-.411.037-.816.037-1.201v-.302c-.018-.341-.084-.661-.195-.966-.11-.306-.266-.598-.463-.881-.65-.867-1.516-1.318-2.462-1.554s-1.972-.253-2.941-.253c.65-2.222 1.92-4.179 3.591-5.691 1.672-1.51 3.742-2.574 5.992-3.008.848-.198 1.705-.396 2.57-.509.867-.113 1.742-.141 2.626 0-.838.537-1.742.952-2.629 1.403s-1.758.941-2.53 1.629c-.838.772-1.699 1.623-2.351 2.596-.652.972-1.094 2.064-1.094 3.316-.076.207-.033.38.073.536.105.156.275.292.454.423.471.282 1.027.433 1.58.429.553-.005 1.103-.166 1.564-.504.311-.348.477-.771.582-1.222.106-.453.153-.935.229-1.395.988-.273 1.911.107 2.499.785.588.678.842 1.652.494 2.564-.321.435-.678.839-1.071 1.221-.393.383-.821.741-1.283 1.082z"/><path fill="currentColor" d="M6.747 33.297c.065.244.131.485.165.733.033.25.033.509-.033.791-.028.235-.084.434-.158.618-.073.188-.163.361-.256.55-.132.188-.273.372-.433.554-.16.18-.339.359-.546.539-.236.093-.476.188-.72.261-.246.072-.495.123-.75.135-.395.036-.799.018-1.182-.066-.38-.085-.739-.236-1.04-.462-.188-.142-.372-.287-.535-.444-.163-.159-.303-.328-.407-.516-.179-.274-.339-.604-.454-.943-.115-.342-.186-.694-.186-1.016 0 0 0-.103.01-.247.009-.143.028-.326.066-.486.029-.121.029-.121.021-.092-.007.03-.021.092-.021.092.029-.217.099-.457.2-.686.101-.227.232-.444.383-.613.151-.198.33-.364.513-.506.183-.143.372-.267.541-.379.141-.076.283-.146.433-.204.15-.055.311-.099.49-.116.141-.047.268-.069.407-.083.139-.012.289-.012.478-.012.254.048.489.112.703.204.214.093.407.21.577.361.236.092.457.225.657.39.2.16.379.354.529.57.132.17.245.345.336.521.093.18.164.364.212.552zm22.688-8.53l.047.066.046.066c0 .027.01.051.031.075.022.022.055.049.102.075.537.745.989 1.563 1.394 2.422.404.859.763 1.758 1.111 2.663-.415 0-.829-.043-1.245-.085-.417-.043-.836-.086-1.26-.086h-.226c-.329.02-.673.086-1.007.205-.334.12-.659.295-.951.529-.875.649-1.313 1.516-1.544 2.452-.231.937-.254 1.945-.301 2.877-2.175-.603-4.095-1.868-5.587-3.543-1.493-1.674-2.556-3.754-3.018-5.984-.16-.848-.333-1.719-.438-2.594-.103-.876-.136-1.757-.015-2.623.509.857.909 1.775 1.356 2.662.447.888.942 1.746 1.639 2.48.771.848 1.637 1.728 2.606 2.395.971.67 2.043 1.126 3.23 1.126.207.028.419-.038.595-.142.176-.105.317-.245.383-.368.273-.509.415-1.085.415-1.654 0-.566-.141-1.121-.433-1.584-.415-.292-.838-.456-1.276-.557-.438-.103-.889-.138-1.36-.177-.273-.998.1-1.929.77-2.53.671-.601 1.641-.871 2.563-.54.48.311.922.674 1.32 1.075.398.399.752.84 1.053 1.299z"/><path fill="currentColor" d="M29.529 31.112c.226-.075.49-.133.751-.161.261-.027.52-.027.735.01.209.029.415.076.615.151s.393.18.571.319c.217.095.41.236.578.396.167.16.308.338.42.508.16.245.273.495.352.754.077.259.12.528.139.809.028.349-.005.735-.097 1.106-.092.373-.242.729-.45 1.022-.122.187-.254.361-.402.534-.148.171-.313.341-.501.521-.291.158-.612.305-.939.412-.327.104-.661.171-.982.171 0 0-.14 0-.31-.015-.169-.014-.367-.042-.481-.099-.16-.038-.16-.038-.12-.029.041.01.12.029.12.029-.253-.038-.489-.109-.722-.209-.233-.102-.463-.234-.709-.394-.14-.141-.296-.292-.444-.459-.148-.167-.29-.35-.403-.56-.065-.13-.141-.262-.203-.402-.061-.143-.107-.292-.117-.462-.029-.198-.043-.344-.043-.48s.014-.263.043-.423c0-.227.047-.481.125-.723.077-.242.185-.473.308-.651.142-.227.306-.424.48-.612s.358-.368.536-.556c.226-.094.424-.183.609-.269.188-.081.362-.162.541-.238zM20.906 8.423l.103-.085.104-.084s.01-.005.029-.017c.019-.012.047-.031.084-.059.809-.527 1.657-.975 2.517-1.376.858-.402 1.729-.761 2.586-1.109 0 .415-.033.819-.066 1.219s-.066.795-.066 1.191V8.424c.027.358.075.692.176 1.002.101.311.257.598.501.862.612.894 1.492 1.365 2.45 1.618.957.251 1.994.284 2.916.303-.592 2.184-1.874 4.105-3.561 5.597-1.687 1.492-3.782 2.556-6.004 3.027-.838.179-1.708.348-2.577.445-.869.097-1.735.12-2.563.008.81-.556 1.714-.952 2.599-1.383.884-.431 1.75-.896 2.484-1.593.876-.791 1.757-1.652 2.418-2.625.661-.972 1.104-2.055 1.104-3.288.056-.226.023-.419-.088-.579-.11-.16-.299-.288-.553-.381-.442-.283-.984-.424-1.535-.424-.55 0-1.11.141-1.591.424-.226.386-.395.823-.515 1.276-.121.452-.191.917-.219 1.36-.999.302-1.911-.07-2.493-.743-.582-.674-.831-1.647-.501-2.552.273-.443.622-.871 1.009-1.269.39-.4.819-.767 1.252-1.086z"/><path fill="currentColor" d="M27.25 8.253c-.065-.216-.113-.457-.136-.708s-.023-.516.005-.779c.029-.16.089-.349.179-.544.089-.195.207-.398.348-.585.084-.208.198-.382.351-.533.154-.151.347-.278.591-.391.197-.188.433-.32.699-.414.265-.095.562-.151.883-.189.348-.02.71.009 1.064.109.353.098.696.267 1.006.531.198.123.382.25.544.39.163.139.304.289.417.458.18.273.339.608.455.961.114.353.185.725.185 1.073 0 0 .009.104.015.233.004.129.004.284-.015.388-.047.15-.047.15-.035.113.012-.038.035-.113.035-.113-.075.273-.159.532-.264.776-.103.245-.226.475-.376.692-.15.151-.296.292-.461.44-.165.148-.348.304-.574.483-.142.065-.292.122-.447.166-.155.045-.315.078-.476.097-.112.056-.254.084-.402.084-.149 0-.304-.028-.445-.084-.273 0-.536-.033-.777-.094-.24-.062-.457-.15-.635-.264-.198-.169-.419-.333-.626-.522-.207-.188-.399-.4-.542-.664-.16-.151-.272-.329-.36-.52-.087-.189-.148-.392-.206-.59zM4.657 16.896l-.067-.085-.065-.085c0-.028-.014-.042-.041-.05-.026-.01-.063-.016-.11-.024-.556-.8-1.017-1.633-1.415-2.488-.397-.854-.733-1.73-1.034-2.615.377 0 .782.028 1.195.057.415.028.839.057 1.253.057h.151c.046 0 .08 0 .102-.005.021-.004.03-.014.03-.033.329 0 .659-.046.974-.16.315-.112.617-.292.89-.555.895-.593 1.346-1.445 1.574-2.387.229-.942.234-1.973.234-2.924 2.221.584 4.185 1.878 5.698 3.577s2.577 3.804 3.001 6.006c.169.838.353 1.694.466 2.556.113.862.156 1.728.042 2.584-.527-.856-.933-1.769-1.374-2.652-.443-.883-.923-1.734-1.601-2.469-.8-.847-1.671-1.718-2.646-2.384-.975-.666-2.052-1.127-3.267-1.155-.253-.02-.451.052-.619.174-.167.123-.303.297-.436.485-.235.499-.376 1.055-.384 1.605-.007.55.12 1.096.421 1.576.396.217.815.358 1.265.474.449.115.929.205 1.447.318.235.913-.156 1.802-.827 2.389-.671.585-1.622.869-2.507.566-.443-.338-.866-.691-1.261-1.077-.393-.386-.76-.805-1.089-1.276z"/><path fill="currentColor" d="M4.525 10.588c-.235.094-.48.156-.722.186-.243.031-.483.031-.709.003-.263-.019-.475-.076-.673-.169-.197-.095-.381-.227-.588-.396-.188-.095-.381-.217-.553-.367-.172-.151-.323-.33-.427-.537-.141-.207-.254-.471-.339-.753-.085-.283-.141-.585-.169-.867-.028-.367.009-.743.101-1.101.092-.358.238-.697.426-.989.15-.188.296-.354.447-.499.151-.146.306-.273.476-.386.301-.244.635-.414.981-.523.346-.107.704-.155 1.052-.155 0 0 .113-.028.257-.042.143-.014.318-.014.44.042l.12.015c-.041-.005-.12-.015-.12-.015.226.038.465.114.701.226.235.113.467.264.673.452.207.141.362.278.494.433.132.156.241.33.354.546.065.113.136.264.202.421.066.157.127.322.174.463.037.133.057.274.066.427.009.153.009.318.009.497-.038.254-.118.485-.216.71-.1.227-.217.448-.33.683-.141.208-.301.414-.467.607-.168.194-.342.373-.512.523-.235.123-.418.254-.595.359-.177.107-.346.187-.553.206z"/></svg>