<svg xmlns="http://www.w3.org/2000/svg" role="img" viewBox="-4.37 -3.87 292.24 150.99"><title>CommonCircle logo</title><style>svg {enable-background:new 0 0 284 143.7}</style><path fill="#1b1159" d="M15.5 116.2c-2.2-.1-4.3.9-5.6 2.7-1.4 2.2-2.1 4.8-1.9 7.5 0 3.2.6 5.7 1.8 7.4s3.1 2.6 5.7 2.6c1.2 0 2.5-.1 3.6-.4 1.3-.3 2.7-.7 4-1.2v5.3c-1.3.5-2.6.9-3.9 1.2-1.4.3-2.9.4-4.3.4-2.7.1-5.3-.6-7.6-1.9-2-1.3-3.5-3.2-4.4-5.4-1-2.6-1.5-5.3-1.4-8.1-.1-2.8.5-5.5 1.6-8 1-2.2 2.7-4.1 4.8-5.5 2.3-1.4 5-2.1 7.7-2 1.5 0 3 .2 4.5.6 1.5.4 2.9.9 4.3 1.5l-2.1 5.2c-1.1-.5-2.2-1-3.4-1.4-1.1-.3-2.2-.5-3.4-.5zM48 129.7c0 3.8-1 6.7-3 8.8-2.2 2.1-5.1 3.3-8.2 3.1-2 0-3.9-.4-5.7-1.4-1.7-.9-3-2.3-3.9-4-1-2-1.5-4.2-1.4-6.5 0-3.8 1-6.7 3-8.8 2.2-2.1 5.1-3.2 8.2-3.1 2 0 4 .4 5.7 1.4 1.7.9 3 2.3 3.9 4 .9 2.1 1.4 4.3 1.4 6.5zm-15.8 0c-.1 1.8.3 3.6 1.1 5.1.8 1.2 2.2 1.9 3.6 1.7 1.4.1 2.8-.6 3.6-1.7.8-1.6 1.2-3.4 1.1-5.1.1-1.8-.3-3.5-1.1-5.1-.8-1.2-2.2-1.8-3.6-1.7-1.4-.1-2.8.5-3.6 1.7-.9 1.6-1.3 3.4-1.1 5.1zm47-11.8c2.6 0 4.6.7 5.9 2 1.3 1.3 2 3.5 2 6.4v14.9h-6.2v-13.4c0-3.3-1.1-4.9-3.4-4.9-1.4-.1-2.8.6-3.5 1.8-.8 1.6-1.1 3.3-1 5.1v11.5h-6.2v-13.4c0-3.3-1.1-4.9-3.4-4.9-1.5-.1-2.9.6-3.6 1.9-.7 1.8-1.1 3.7-1 5.6v10.8h-6.2v-22.9h4.8l.8 2.9h.3c.7-1.1 1.7-2 2.9-2.6 1.2-.5 2.5-.8 3.8-.8 1.5 0 2.9.2 4.3.8 1.1.5 2.1 1.4 2.7 2.5h.5c.7-1.1 1.7-2 2.9-2.6.9-.4 2.2-.7 3.6-.7zm40.1 0c2.6 0 4.6.7 5.9 2 1.3 1.3 2 3.5 2 6.4v14.9H121v-13.4c0-3.3-1.1-4.9-3.4-4.9-1.4-.1-2.8.6-3.5 1.8-.8 1.6-1.1 3.3-1 5.1v11.5h-6.2v-13.4c0-3.3-1.1-4.9-3.4-4.9-1.5-.1-2.9.6-3.6 1.9-.7 1.8-1.1 3.7-1 5.6v10.8h-6.2v-22.9h4.8l.8 2.9h.3c.7-1.1 1.7-2 2.9-2.6 1.2-.5 2.5-.8 3.8-.8 1.5 0 2.9.2 4.3.8 1.1.5 2.1 1.4 2.7 2.5h.5c.7-1.1 1.7-2 2.9-2.6 1-.4 2.3-.7 3.6-.7zm34.2 11.8c0 3.8-1 6.7-3 8.8-2.2 2.1-5.1 3.3-8.2 3.1-2 0-3.9-.4-5.7-1.4-1.7-.9-3-2.3-3.9-4-1-2-1.5-4.2-1.4-6.5 0-3.8 1-6.7 3-8.8 2.2-2.1 5.1-3.2 8.2-3.1 2 0 4 .4 5.7 1.4 1.7.9 3 2.3 3.9 4 1 2.1 1.5 4.3 1.4 6.5zm-15.8 0c-.1 1.8.3 3.6 1.1 5.1.8 1.2 2.2 1.9 3.6 1.7 1.4.1 2.8-.6 3.6-1.7.8-1.6 1.2-3.4 1.1-5.1.1-1.8-.3-3.5-1.1-5.1-.8-1.2-2.2-1.8-3.6-1.7-1.4-.1-2.8.5-3.6 1.7-.8 1.6-1.2 3.4-1.1 5.1zm33.2-11.8c2.2-.1 4.3.6 5.9 2 1.5 1.3 2.2 3.5 2.2 6.4v14.9h-6.2v-13.4c.1-1.3-.2-2.6-.9-3.7-.7-.9-1.7-1.3-2.8-1.2-1.9 0-3.2.7-3.9 1.9-.8 1.8-1.2 3.7-1 5.6v10.8H158v-22.9h4.8l.8 2.9h.3c.7-1.2 1.8-2 3-2.6 1.2-.4 2.6-.7 4-.7zm27.4-3.7c-2.9-.1-5.7 1-7.6 3.2-1.8 2.2-2.8 5.1-2.8 8.8 0 3.7.9 6.7 2.6 8.8 1.7 2.2 4.3 3.3 7.7 3.2 1.2 0 2.5-.1 3.7-.3 1.2-.2 2.3-.5 3.5-.8v3.3c-1.1.4-2.3.7-3.5.9-1.4.2-2.8.3-4.3.3-2.7.1-5.3-.6-7.6-1.9-2.1-1.3-3.7-3.1-4.6-5.4-1.1-2.6-1.6-5.4-1.5-8.2-.1-2.8.5-5.5 1.7-8 1.1-2.2 2.8-4.1 4.9-5.4 2.4-1.4 5.1-2 7.8-1.9 2.9-.1 5.7.5 8.3 1.8l-1.5 3.2c-1-.4-2-.8-3.1-1.1-1.2-.4-2.5-.5-3.7-.5zm14.4-3.9c.5 0 1.1.2 1.5.6.9 1 .9 2.5 0 3.6-.4.4-.9.6-1.5.6s-1.1-.2-1.6-.6c-.8-1-.8-2.5 0-3.6.5-.4 1.1-.6 1.6-.6zm1.8 8.5v22.5h-3.7v-22.5h3.7zm16.6-.5c.4 0 .9 0 1.3.1.4 0 .9.1 1.3.2l-.5 3.4c-.4-.1-.8-.2-1.2-.2-.4-.1-.8-.1-1.2-.1-1.1 0-2.3.3-3.2.9-1 .6-1.9 1.6-2.4 2.6-.6 1.2-.9 2.6-.9 4v12h-3.7v-22.5h3l.4 4.1h.2c.7-1.2 1.7-2.3 2.8-3.2 1.2-.8 2.6-1.3 4.1-1.3zm14.1 23.4c-1.8 0-3.7-.4-5.3-1.2-1.6-.8-2.8-2.2-3.6-3.8-1-2-1.4-4.3-1.3-6.5-.1-2.3.4-4.6 1.4-6.8.8-1.6 2.1-3 3.8-3.8 1.7-.8 3.5-1.2 5.4-1.2 1.1 0 2.2.1 3.3.4.9.2 1.8.5 2.6.9l-1.1 3.1c-.8-.3-1.6-.5-2.3-.7-.8-.2-1.7-.3-2.5-.3-4.4 0-6.6 2.8-6.6 8.5-.1 2.2.4 4.4 1.6 6.2 1.1 1.5 2.9 2.3 4.8 2.2 1.1 0 2.2-.1 3.2-.4.9-.2 1.8-.5 2.6-.9v3.3c-.8.4-1.6.7-2.5.9-1.3 0-2.4.1-3.5.1zm13.9-.5h-3.7v-31.9h3.7v31.9zm14.1-22.9c1.7 0 3.4.4 4.9 1.3 1.4.8 2.5 2.1 3.2 3.5.8 1.7 1.2 3.5 1.1 5.3v2.2H267c-.1 2.1.6 4.2 2 5.8 1.4 1.4 3.3 2.1 5.2 2 1.3 0 2.6-.1 3.8-.4 1.2-.3 2.3-.7 3.4-1.2v3.2c-1.1.5-2.2.9-3.4 1.1-1.3.3-2.6.4-4 .4-2 0-3.9-.4-5.7-1.3-1.6-.9-3-2.2-3.8-3.9-1-2-1.4-4.1-1.4-6.3-.1-2.2.4-4.3 1.2-6.3.7-1.7 2-3.1 3.5-4.1 1.8-.8 3.6-1.3 5.4-1.3zm0 3.1c-1.6-.1-3.1.5-4.2 1.7-1.1 1.3-1.7 3-1.8 4.7h11.4c0-1.6-.4-3.3-1.3-4.6-1-1.3-2.5-2-4.1-1.8z"/><linearGradient id="a" x1="131.868" x2="156.966" y1="47.376" y2="141.042" gradientTransform="matrix(1 0 0 -1 0 146)" gradientUnits="userSpaceOnUse"><stop offset="0" stop-color="#4b2e83"/><stop offset=".013" stop-color="#4c2f85"/><stop offset=".306" stop-color="#5840ab"/><stop offset=".578" stop-color="#614cc6"/><stop offset=".818" stop-color="#6653d6"/><stop offset="1" stop-color="#6856dc"/></linearGradient><path fill="url(#a)" d="M176.2 34.9l-1-.7v-.3c-1-18.6-17-32.9-35.6-31.9-16.9.9-30.5 14.2-31.8 31.1l-.1 1.2c-.1 0-.1.1-.2.1C92.1 45 88.3 66 98.8 81.4c9.2 13.3 26.4 18.3 41.3 11.8.2-.1.3-.1.4-.2l.1-.1.8-.4c.1 0 .2.1.3.1 16.8 8.2 37 1.2 45.2-15.5 7.2-14.8 2.7-32.7-10.7-42.2zm-4.7 16.3l.6.9c5.7 8.6 3.3 20.1-5.3 25.8-3.3 2.2-7.2 3.2-11.1 3-2.2-.1-4.4-.6-6.5-1.5-.8-.3-1.6-.7-2.4-1.2-.5-.3-.9-.6-1.3-.9-1.7-1.2-3.2-2.8-4.4-4.5-1.3-1.9-2.3-4.1-2.8-6.4v-.2c2.2-6.7-1.5-14-8.3-16.2-1.3-.4-2.6-.6-4-.6-.4 0-.8 0-1.2.1-7.1.6-12.3 6.8-11.7 13.9.5 6.2 5.4 11.1 11.6 11.7h.3l.1.3c.7 1.6 1.5 3.2 2.4 4.7.1.2.3.5.4.7l-1.1.1c-10.3.2-18.8-8-19-18.3-.1-6.8 3.5-13.2 9.4-16.6.5-.3 1-.6 1.6-.8 1.9-.8 4-1.3 6.1-1.5.7 0 1.5-.1 2.2 0 1.5.1 3 .3 4.5.7h.1l.1.1c.4.5.9.9 1.5 1.3 3 2.4 6.9 3.3 10.6 2.5 1.3-.3 2.5-.7 3.6-1.3.6-.3 1.2-.7 1.7-1.2 1.6-1.3 2.8-2.9 3.7-4.8.4-.9.7-1.9.9-2.9.2-1.3.3-2.6.1-4-.2-1.6-.7-3.2-1.5-4.7-.2-.3-.4-.7-.6-1-3.8-5.5-11.1-7.2-16.9-4-1.7 1-3.2 2.3-4.3 3.9l-.2.2h-.3c-1.3-.2-2.6-.2-3.9-.2h-1.6c-.3 0-.6 0-.8.1l.5-1C127.4 21 133.9 17 141 17h.4c10.3.3 18.4 8.8 18.2 19.1-.1 2.9-.8 5.7-2.2 8.2l-.9 1.5c-.8 1.3-1.8 2.5-2.9 3.5l-.1.1h-.1c-1.9.4-3.7 1.3-5.2 2.5-.6.4-1.1.9-1.6 1.4-1.1 1.2-1.9 2.6-2.5 4.1-.3.8-.5 1.6-.7 2.4-1 6.1 2.5 12.1 8.3 14.2 1.3.5 2.7.7 4.1.8.7 0 1.3 0 2-.1 6.3-.9 11-6.1 11.2-12.4 0-2-.4-3.9-1.2-5.7l-.1-.3.2-.2c1-1.4 2-2.8 2.8-4.3.5-.1.7-.3.8-.6zM142.1 7.1c15.9.4 28.4 13.5 28 29.4V37.4c-.2 3.6-1.1 7.1-2.6 10.4-1.4 3.1-3.4 6-5.9 8.4 1.6 1.4 2.6 3.3 2.7 5.4v.7c-.1 2.7-1.5 5.1-3.8 6.5-2 1.2-4.5 1.5-6.7.6-.6-.2-1.1-.5-1.6-.8-1.9-1.3-3.2-3.3-3.4-5.6 0-.3-.1-.7-.1-1.1 0-.9.2-1.9.6-2.7l.3-.7c.1-.2.2-.4.3-.5l.1-.1c.1-.1.1-.2.2-.3l.5-.6c1.4-1.6 3.4-2.6 5.5-2.7 3-2.4 5.3-5.4 6.9-8.9 1.3-2.9 2-5.9 2.1-9.1v-.4-.3c-.2-13.1-10.8-23.6-23.9-23.5-10.2.1-19.2 6.6-22.3 16.3l-.3 1.1c-.1 0-.2 0-.3.1-1.5.4-3 .9-4.5 1.5-.3.1-.6.2-.8.4l.2-1.1c2.6-13.9 14.8-23.7 28.8-23.3zm-6.9 82.6c-15.2 4.6-31.3-3.9-35.9-19.1-3.9-12.9 1.6-26.8 13.4-33.4.1 0 .2-.1.2-.1l.1-.1c4.7-2.5 10.1-3.7 15.4-3.4 1.9.1 3.7.4 5.5.9.4-2.1 1.6-3.9 3.3-5.1.2-.1.4-.2.6-.4 3.8-2.1 8.5-.8 10.6 3 .5 1 .9 2 1 3.1.2 1.8-.3 3.5-1.3 5-.5.7-1.1 1.4-1.8 1.9l-.9.6c-1.1.6-2.3.9-3.5 1h-.4c-2.5-.1-4.9-1.4-6.3-3.5-3.7-1.4-7.7-1.9-11.6-1.4-3 .4-5.8 1.4-8.4 2.8-.2.1-.4.3-.6.4l-.3.2c-11.1 6.9-14.5 21.5-7.5 32.6 5.1 8.2 14.7 12.4 24.2 10.8l1.1-.2.2.2c1.1 1.2 2.3 2.2 3.5 3.2.2.2.5.4.7.5l-1.3.5zm45.9-12.4c-8.3 13.5-25.9 17.7-39.5 9.6l-.3-.2c-3.1-1.9-5.8-4.5-7.9-7.4-2.1-2.9-3.7-6.2-4.6-9.6-2 .7-4.2.6-6.1-.4l-.6-.3c-3.7-2.2-4.8-7-2.6-10.7 2.2-3.7 7-4.8 10.7-2.6 3.5 2.1 4.7 6.6 2.9 10.2.6 3.9 2.2 7.7 4.6 10.9 1.8 2.3 4 4.3 6.5 5.9.3.2.5.3.8.4l.4.2c11.5 6.2 25.8 1.9 32-9.6 4.7-8.7 3.5-19.3-3-26.8l-.7-.9c0-.1 0-.1.1-.2.5-1.5.8-3 1.1-4.6.1-.3.1-.6.1-.9l.9.8c10.1 9.2 12.4 24.4 5.2 36.2z"/></svg>