<svg xmlns="http://www.w3.org/2000/svg" role="img" viewBox="0.30 -0.95 334.65 400.40"><title>Corona-Warn-App logo</title><defs><linearGradient id="linear-gradient" x1="154.79" x2="154.79" y1="235.612" y2="6.737" gradientUnits="userSpaceOnUse"><stop offset="0" stop-color="#b62316"/><stop offset=".14" stop-color="#ab4c49"/><stop offset=".296" stop-color="#a0737b"/><stop offset=".45" stop-color="#9694a4"/><stop offset=".6" stop-color="#8faec4"/><stop offset=".744" stop-color="#8ac0db"/><stop offset=".881" stop-color="#87cbe8"/><stop offset="1" stop-color="#86cfed"/></linearGradient><style>.cls-1{fill:#404040}</style></defs><path d="M52.09385 360.96485L58.26 380.4592l9.36044-19.4832 9.02039 19.4832 6.63864-19.49435h4.77882l-10.32188 31.01564-10.21-19.23653L58.27886 392 47.315 360.96485zm56.15106 23.50806h-12.4857l-3.24859 7.08391h-4.74119l14.43122-30.99613 13.92115 30.99613h-4.81714zm-1.79433-4.13635l-4.32588-9.91581-4.53284 9.91581zm20.28302 11.22026h-4.65339v-29.97737h11.61257c6.17038 0 10.01336 3.57331 10.01336 9.16184a8.60075 8.60075 0 0 1-5.81708 8.55839l6.71041 12.25714h-5.36l-6.10766-11.52965h-6.39821zm0-15.28971h6.523c3.59422 0 5.65055-1.97341 5.65055-5.40178 0-3.34476-2.18106-5.37949-5.77528-5.37949h-6.39827zm25.79671 15.28971v-31.148l19.84276 20.82389v-20.26786h4.40114v30.94038l-19.84276-20.76675v20.41834zm33.77896-15.76746h8.4246v3.70153h-8.4246zm33.55654 8.68355h-12.48569l-3.25 7.08391h-4.74119l14.43122-30.99613 13.92116 30.99613h-4.81645zm-1.795-4.13635l-4.32588-9.91581-4.53354 9.91581zm25.73509-19.31318a17.13873 17.13873 0 0 1 5.10354.6801 9.88929 9.88929 0 0 1 3.59282 1.92463 7.61755 7.61755 0 0 1 2.11556 3.00889 10.63227 10.63227 0 0 1 .69125 3.912 10.20135 10.20135 0 0 1-.74421 3.944 8.44566 8.44566 0 0 1-2.18942 3.0939 10.02081 10.02081 0 0 1-3.604 2.00964 15.82859 15.82859 0 0 1-4.96557.71216h-4.72029v11.24813h-4.52935v-30.53345zm0 15.71339a9.39083 9.39083 0 0 0 3.02979-.446 6.05578 6.05578 0 0 0 2.19081-1.26543 5.24622 5.24622 0 0 0 1.32815-1.95669 6.83005 6.83005 0 0 0 .44736-2.51971 5.659 5.659 0 0 0-1.7337-4.38024 7.55061 7.55061 0 0 0-5.26241-1.59433h-4.72029v12.16237zm28.9182-15.71339a17.13873 17.13873 0 0 1 5.10354.6801 9.88929 9.88929 0 0 1 3.59282 1.92463 7.61755 7.61755 0 0 1 2.11554 3.00889 10.63227 10.63227 0 0 1 .69125 3.912 10.20135 10.20135 0 0 1-.74421 3.944 8.44566 8.44566 0 0 1-2.18942 3.0939 10.02081 10.02081 0 0 1-3.604 2.00964 15.82859 15.82859 0 0 1-4.96557.71216h-4.72029v11.24813h-4.52936v-30.53345zm0 15.71339a9.39083 9.39083 0 0 0 3.02979-.446 6.05578 6.05578 0 0 0 2.19081-1.26543 5.24622 5.24622 0 0 0 1.32815-1.95669 6.83005 6.83005 0 0 0 .44736-2.51971 5.659 5.659 0 0 0-1.7337-4.38024 7.55061 7.55061 0 0 0-5.26241-1.59433h-4.72029v12.16237zM34.63244 337.01094a26.48426 26.48426 0 0 1-18.65332-44.88086 25.05314 25.05314 0 0 1 18.65332-7.57348q11.36022 0 18.44314 8.20479l-4.62858 4.48823a17.13962 17.13962 0 0 0-13.81453-6.52179 18.94533 18.94533 0 0 0-13.9549 5.60974q-5.541 5.541-5.53992 14.44584 0 8.90664 5.53992 14.44583a18.93745 18.93745 0 0 0 13.9549 5.61047q8.76481 0 15.21751-7.36329l4.69843 4.55806a24.35875 24.35875 0 0 1-8.76627 6.62725 26.72279 26.72279 0 0 1-11.1497 2.34921z" class="cls-1"/><path d="M34.63255 337.546a27.01949 27.01949 0 0 1-19.03166-45.7946 25.67587 25.67587 0 0 1 19.03166-7.72987 23.82339 23.82339 0 0 1 18.8477 8.38977l.33029.38255-5.40666 5.24291-.36862-.446a16.7012 16.7012 0 0 0-13.40271-6.32786 18.50982 18.50982 0 0 0-13.57692 5.45335c-3.57192 3.57192-5.383 8.30474-5.383 14.06678 0 5.76413 1.811 10.497 5.383 14.06749a18.501 18.501 0 0 0 13.57692 5.454c5.654 0 10.63841-2.41589 14.81448-7.18077l.37141-.42367 5.45961 5.29586-.31914.38186a24.99923 24.99923 0 0 1-8.95559 6.77174 27.38647 27.38647 0 0 1-11.37077 2.39646zm0-52.45413a24.6431 24.6431 0 0 0-18.27143 7.41281 25.65917 25.65917 0 0 0 18.27143 43.971 26.31306 26.31306 0 0 0 10.929-2.30161 23.9533 23.9533 0 0 0 8.25388-6.10557l-3.93845-3.82c-4.31125 4.72935-9.43779 7.12642-15.24442 7.12642a19.537 19.537 0 0 1-14.33367-5.76761c-3.78027-3.77818-5.69654-8.76605-5.69654-14.82424 0-6.0561 1.91627-11.044 5.69654-14.82354a19.54429 19.54429 0 0 1 14.33367-5.76691 17.67106 17.67106 0 0 1 13.85216 6.2749l3.852-3.73567a22.79407 22.79407 0 0 0-17.70417-7.63999zm27.63865 25.25285a24.27041 24.27041 0 0 1 7.67043-17.97272 25.24643 25.24643 0 0 1 18.35773-7.50969 25.91543 25.91543 0 0 1 25.77171 25.77171 24.366 24.366 0 0 1-7.63828 18.13269 26.18423 26.18423 0 0 1-35.7532.83441q-8.40839-7.34853-8.40839-19.2564zm7.54183.09644a17.9094 17.9094 0 0 0 5.52011 13.512 18.285 18.285 0 0 0 25.836-.09645 19.23374 19.23374 0 0 0 .0643-26.574 18.4802 18.4802 0 0 0-26.09246 0 17.87772 17.87772 0 0 0-5.32798 13.15845zm63.91221 24.94676h-7.325v-49.90644h18.28043c9.71186 0 15.76154 5.94909 15.76154 15.252 0 6.74421-3.40074 12.20834-9.15647 14.24916l10.56255 20.40526h-8.43649l-9.61433-19.19467h-10.07223zm0-25.45465h10.26861c5.65684 0 8.89435-3.28578 8.89435-8.992 0-5.568-3.43325-8.95766-9.09077-8.95766h-10.07219zm100.77555 25.02652v-50.47236l32.74558 34.33643.25393-33.66372h7.16961v51.24974l-33.03782-34.53739v33.0873zm80.18884-9.62286H294.458l-3.98082 10.051h-8.96617l23.384-51.65487 22.55759 51.65487h-8.37527zm-2.90715-6.70275l-7.01005-17.49656-7.34592 17.49656zm-140.41603-8.67991a24.27043 24.27043 0 0 1 7.67042-17.97268 25.2465 25.2465 0 0 1 18.35774-7.50968 25.9154 25.9154 0 0 1 25.7717 25.7717 24.36592 24.36592 0 0 1-7.63831 18.13269 26.18419 26.18419 0 0 1-35.75319.83441q-8.40837-7.34857-8.40836-19.25644zm7.54183.09645a17.90938 17.90938 0 0 0 5.52011 13.512 18.285 18.285 0 0 0 25.836-.09645 19.23373 19.23373 0 0 0 .06429-26.574 18.4802 18.4802 0 0 0-26.09246 0 17.87772 17.87772 0 0 0-5.32794 13.15845z" class="cls-1"/><path fill="url(#linear-gradient)" d="M123.75579 117.86455c-2.53708.00276-5.076-.05459-7.61055.02451a3.26493 3.26493 0 0 1-3.241-1.783 9.14051 9.14051 0 0 0-9.9539-4.39212 9.29382 9.29382 0 0 0-7.33633 7.803 9.432 9.432 0 0 0 5.66075 10.07294c4.16861 1.63161 9.30213.18761 11.35551-3.54 1.03515-1.87914 2.29353-2.32588 4.23631-2.28475 4.71967.09993 9.44481.11218 14.16377-.00309 2.14207-.05234 3.03443.50881 3.33744 2.86007a35.1884 35.1884 0 0 0 7.33009 17.31946c1.00733 1.2916.91657 2.10753-.20788 3.20433-3.68267 3.59224-7.33981 7.214-10.89938 10.92732a3.67349 3.67349 0 0 1-4.07508 1.17661 9.12241 9.12241 0 0 0-11.05626 6.708 9.32229 9.32229 0 0 0 17.91112 5.14872 9.13924 9.13924 0 0 0-.03006-5.61832 2.15614 2.15614 0 0 1 .64153-2.455q6.08944-6.02039 12.11566-12.1045a1.50435 1.50435 0 0 1 2.34942-.14368 37.23276 37.23276 0 0 0 18.49838 7.71538c1.48717.17427 1.99386.96416 1.98178 2.41578-.04519 5.42684-.066 10.8552.023 16.281.02621 1.59814-.92169 2.15109-2.04206 2.84224a9.14217 9.14217 0 0 0-3.99337 10.47055 9.5268 9.5268 0 0 0 8.791 6.7478 9.378 9.378 0 0 0 9.04413-6.667 9.09924 9.09924 0 0 0-4.26522-10.71392 2.889 2.889 0 0 1-1.73615-2.8098q.09133-8.03417.01105-16.0698c-.01613-1.55715.54487-2.33261 2.11488-2.5248a36.98975 36.98975 0 0 0 20.40943-9.40086c1.377-1.22257 2.12869-.931 3.27536.21909q25.304 25.37932 50.70162 50.66508c1.4608 1.45263 1.42926 2.33241-.04432 3.718-17.54994 16.50245-38.11912 26.96259-61.96674 30.53778-28.61472 4.2899-55.37357-1.23713-79.58038-17.08454-27.961-18.30509-44.943-44.20539-50.7328-77.18894C55.136 118.28718 57.8025 97.25883 66.174 76.97492a114.6064 114.6064 0 0 1 20.88412-32.82318c5.422-6.05933 11.68769-11.0269 18.12485-15.89161a95.73134 95.73134 0 0 1 16.561-9.84277 106.73217 106.73217 0 0 1 31.08375-9.83c3.6719-.52082 7.43847-.68294 11.007-1.35741 3.897-.73656 7.67683.00588 11.50953-.42842 3.00633-.34066 6.15008.76829 9.24947.95191a78.7657 78.7657 0 0 1 10.82008 1.6453 108.40907 108.40907 0 0 1 19.05769 5.716 121.47581 121.47581 0 0 1 21.32513 11.20306 115.917 115.917 0 0 1 15.35568 12.05236c1.243 1.15242 1.37324 1.95331.08337 3.23893q-25.45809 25.37464-50.81428 50.85149c-1.17851 1.18321-2.012 1.36537-3.31635.12367a35.17835 35.17835 0 0 0-19.95589-9.33689c-1.84507-.25536-2.35461-1.02625-2.33458-2.72555.06074-5.14461.05026-10.29058.00873-15.43555a2.92573 2.92573 0 0 1 1.63515-2.88517 9.38509 9.38509 0 0 0 4.564-10.81542 9.7921 9.7921 0 0 0-8.809-7.07993c-3.81163-.27368-8.04181 2.7101-9.38371 6.61882a9.49746 9.49746 0 0 0 4.04789 11.05872 3.51415 3.51415 0 0 1 1.99568 3.53889c-.07546 5.0032-.06555 10.00879-.00292 15.01236.0214 1.7094-.5066 2.47216-2.34608 2.71391a35.18005 35.18005 0 0 0-17.38168 7.15656c-1.35969 1.0631-2.27065 1.14789-3.54771-.192-3.64593-3.82539-7.4144-7.53546-11.1865-11.23806a2.74105 2.74105 0 0 1-.82245-2.972c1.1735-5.10926-1.22968-9.731-5.72452-11.372a9.303 9.303 0 0 0-11.62469 4.312 8.98438 8.98438 0 0 0 .54475 9.99336c2.33284 3.22064 5.54768 4.819 9.562 3.81175a3.91928 3.91928 0 0 1 4.28795 1.25427c3.51354 3.65982 7.12275 7.23 10.76427 10.7633 1.06572 1.03408 1.20444 1.83764.26954 3.04123a36.38174 36.38174 0 0 0-7.434 18.16262 1.88517 1.88517 0 0 1-2.23015 1.90332c-2.74801-.03679-5.49685-.01102-8.24533-.00824z"/></svg>