<svg xmlns="http://www.w3.org/2000/svg" role="img" viewBox="1.98 -1.02 260.78 45.78"><title>COVID Shield logo</title><path fill="#002D42" d="M68.4776 34.288c-2.176 0-4.0853-.4694-5.728-1.408-1.6213-.9387-2.8693-2.2827-3.744-4.032-.8747-1.7494-1.312-3.7974-1.312-6.144 0-2.3467.4373-4.384 1.312-6.112.8747-1.7494 2.1227-3.0934 3.744-4.032 1.6427-.9387 3.552-1.408 5.728-1.408 1.408 0 2.7307.2133 3.968.64 1.2373.4053 2.336 1.0026 3.296 1.792.2773.2133.4693.4373.576.672.1067.2346.16.5226.16.864 0 .4693-.128.864-.384 1.184-.256.32-.5653.48-.928.48-.4267 0-.864-.1494-1.312-.448-.9173-.6827-1.7707-1.152-2.56-1.408-.7893-.2774-1.664-.416-2.624-.416-2.2187 0-3.904.6933-5.056 2.08-1.1307 1.3866-1.696 3.424-1.696 6.112 0 2.7093.5653 4.7573 1.696 6.144 1.152 1.3866 2.8373 2.08 5.056 2.08.9173 0 1.76-.1387 2.528-.416.7893-.2774 1.6747-.7467 2.656-1.408.2133-.128.4267-.2347.64-.32.2133-.0854.4373-.128.672-.128.3627 0 .672.16.928.48.256.32.384.7146.384 1.184 0 .32-.0533.608-.16.864-.1067.2346-.2987.4586-.576.672-.96.7893-2.0587 1.3973-3.296 1.824-1.2373.4053-2.56.608-3.968.608zm21.2493 0c-2.1974 0-4.1067-.4694-5.728-1.408-1.6-.9387-2.8374-2.2827-3.712-4.032-.8747-1.7494-1.312-3.7974-1.312-6.144 0-2.3467.4266-4.384 1.28-6.112.8746-1.7494 2.1226-3.0934 3.744-4.032 1.6213-.9387 3.5306-1.408 5.728-1.408 2.1973 0 4.096.4693 5.696 1.408 1.6213.9386 2.8586 2.2826 3.712 4.032.8751 1.728 1.3121 3.7653 1.3121 6.112 0 2.3466-.437 4.3946-1.3121 6.144-.8747 1.7493-2.1227 3.0933-3.744 4.032-1.6.9386-3.488 1.408-5.664 1.408zm0-3.296c2.0693 0 3.68-.7147 4.832-2.144 1.1733-1.4294 1.76-3.4774 1.76-6.144 0-2.6667-.5867-4.704-1.76-6.112-1.152-1.4294-2.7627-2.144-4.832-2.144-2.0907 0-3.7227.7146-4.896 2.144-1.152 1.408-1.728 3.4453-1.728 6.112 0 2.6666.576 4.7146 1.728 6.144 1.1733 1.4293 2.8053 2.144 4.896 2.144zm31.3051-18.656c.342-.7254.907-1.088 1.696-1.088.534 0 1.014.1706 1.44.512.427.3413.64.768.64 1.28 0 .2346-.064.5013-.192.8l-8.864 19.072c-.192.4053-.49.7253-.896.96-.384.2133-.8.32-1.248.32-.448 0-.874-.1067-1.28-.32-.384-.2347-.672-.5547-.864-.96l-8.832-19.072c-.128-.2987-.192-.5547-.192-.768 0-.5334.214-.9707.64-1.312.448-.3414.95-.512 1.504-.512.363 0 .694.096.992.288.32.1706.566.4373.736.8l7.36 16.352 7.36-16.352zm9.076 21.856c-.619 0-1.12-.192-1.504-.576-.363-.384-.544-.8854-.544-1.504V13.328c0-.6187.181-1.1094.544-1.472.384-.384.885-.576 1.504-.576.64 0 1.141.192 1.504.576.384.3626.576.8533.576 1.472v18.784c0 .6186-.192 1.12-.576 1.504-.363.384-.864.576-1.504.576zm9.936-.192c-.619 0-1.109-.1707-1.472-.512-.341-.3414-.512-.8214-.512-1.44V13.392c0-.6187.171-1.0987.512-1.44.363-.3414.853-.512 1.472-.512h6.336c3.691 0 6.549.992 8.576 2.976 2.048 1.9626 3.072 4.7253 3.072 8.288 0 3.584-1.024 6.368-3.072 8.352-2.027 1.9626-4.885 2.944-8.576 2.944h-6.336zm6.08-3.36c5.184 0 7.776-2.6454 7.776-7.936 0-5.2694-2.592-7.904-7.776-7.904h-3.936v15.84h3.936zm32.557 3.648c-1.643 0-3.2-.2134-4.672-.64-1.451-.448-2.635-1.0454-3.552-1.792-.491-.3627-.736-.8747-.736-1.536 0-.448.128-.832.384-1.152.277-.3414.597-.512.96-.512.384 0 .821.1493 1.312.448.917.6613 1.877 1.1413 2.88 1.44 1.002.2986 2.112.448 3.328.448 1.557 0 2.752-.2667 3.584-.8.832-.5547 1.248-1.3547 1.248-2.4 0-.8107-.395-1.4294-1.184-1.856-.768-.448-2.059-.8747-3.872-1.28-1.878-.4054-3.403-.8747-4.576-1.408-1.174-.5334-2.059-1.216-2.656-2.048-.598-.832-.896-1.888-.896-3.168 0-1.3227.373-2.5067 1.12-3.552.746-1.0454 1.781-1.856 3.104-2.432 1.344-.5974 2.848-.896 4.512-.896 3.05 0 5.536.8106 7.456 2.432.277.2346.469.4693.576.704.128.2133.192.4906.192.832 0 .448-.139.8426-.416 1.184-.256.32-.566.48-.928.48-.214 0-.416-.032-.608-.096-.171-.064-.406-.1814-.704-.352-.875-.64-1.728-1.1094-2.56-1.408-.811-.32-1.814-.48-3.008-.48-1.451 0-2.603.2986-3.456.896-.832.576-1.248 1.3866-1.248 2.432 0 .8746.373 1.5466 1.12 2.016.746.4693 2.016.9066 3.808 1.312 1.898.4266 3.434.9066 4.608 1.44 1.194.512 2.101 1.1733 2.72 1.984.64.8106.96 1.824.96 3.04 0 1.3226-.374 2.496-1.12 3.52-.726 1.0026-1.76 1.792-3.104 2.368-1.323.5546-2.848.832-4.576.832zm21.398-16.32c3.669 0 5.504 2.144 5.504 6.432v7.872c0 .5973-.181 1.0666-.544 1.408-.341.3413-.821.512-1.44.512s-1.109-.1707-1.472-.512c-.363-.3414-.544-.8107-.544-1.408V24.4c0-1.1307-.235-1.952-.704-2.464-.448-.5334-1.163-.8-2.144-.8-1.152 0-2.08.3626-2.784 1.088-.683.7253-1.024 1.696-1.024 2.912v7.136c0 .5973-.181 1.0666-.544 1.408-.363.3413-.853.512-1.472.512s-1.109-.1707-1.472-.512c-.341-.3414-.512-.8107-.512-1.408V13.136c0-.5547.181-1.0027.544-1.344.384-.3414.875-.512 1.472-.512s1.077.16 1.44.48c.363.32.544.7573.544 1.312v7.456c.533-.832 1.237-1.4614 2.112-1.888.896-.448 1.909-.672 3.04-.672zm11.551 16.224c-.576 0-1.056-.16-1.44-.48-.363-.3414-.544-.8214-.544-1.44V19.92c0-.6187.181-1.088.544-1.408.384-.32.864-.48 1.44-.48s1.056.16 1.44.48c.384.32.576.7893.576 1.408v12.352c0 .6186-.192 1.0986-.576 1.44-.384.32-.864.48-1.44.48zm0-19.008c-.726 0-1.302-.192-1.728-.576-.427-.4054-.64-.928-.64-1.568s.213-1.152.64-1.536c.426-.384 1.002-.576 1.728-.576.704 0 1.269.192 1.696.576.448.384.672.896.672 1.536s-.214 1.1626-.64 1.568c-.427.384-1.003.576-1.728.576zm18.525 14.528c.362 0 .65.1386.864.416.234.2773.352.6506.352 1.12 0 .6613-.395 1.216-1.184 1.664-.726.4053-1.547.736-2.464.992-.918.2346-1.792.352-2.624.352-2.518 0-4.512-.7254-5.984-2.176-1.472-1.4507-2.208-3.4347-2.208-5.952 0-1.6.32-3.0187.96-4.256.64-1.2374 1.536-2.1974 2.688-2.88 1.173-.6827 2.496-1.024 3.968-1.024 1.408 0 2.634.3093 3.68.928 1.045.6186 1.856 1.4933 2.432 2.624.576 1.1306.864 2.464.864 4 0 .9173-.406 1.376-1.216 1.376h-9.44c.128 1.472.544 2.56 1.248 3.264.704.6826 1.728 1.024 3.072 1.024.682 0 1.28-.0854 1.792-.256.533-.1707 1.13-.4054 1.792-.704.64-.3414 1.109-.512 1.408-.512zm-5.536-8.928c-1.088 0-1.963.3413-2.624 1.024-.64.6826-1.024 1.664-1.152 2.944h7.232c-.043-1.3014-.363-2.2827-.96-2.944-.598-.6827-1.43-1.024-2.496-1.024zm12.136 13.408c-.576 0-1.056-.16-1.44-.48-.363-.3414-.544-.8214-.544-1.44V13.168c0-.6187.181-1.088.544-1.408.384-.32.864-.48 1.44-.48s1.056.16 1.44.48c.384.32.576.7893.576 1.408v19.104c0 .6186-.192 1.0986-.576 1.44-.384.32-.864.48-1.44.48zm19.197-22.912c.597 0 1.088.1706 1.472.512.384.3413.576.7893.576 1.344v19.136c0 .576-.182 1.0346-.544 1.376-.363.3413-.843.512-1.44.512-.598 0-1.078-.1707-1.44-.512-.363-.3414-.544-.8-.544-1.376v-.8c-.47.8746-1.152 1.5573-2.048 2.048-.875.4906-1.878.736-3.008.736-1.344 0-2.55-.3414-3.616-1.024-1.046-.6827-1.867-1.6427-2.464-2.88-.576-1.2587-.864-2.6987-.864-4.32 0-1.6214.288-3.04.864-4.256.597-1.216 1.418-2.1547 2.464-2.816 1.045-.6614 2.25-.992 3.616-.992 1.13 0 2.133.2346 3.008.704.874.4693 1.546 1.1306 2.016 1.984v-7.584c0-.5334.17-.96.512-1.28.362-.3414.842-.512 1.44-.512zm-5.92 19.872c1.28 0 2.261-.4374 2.944-1.312.704-.8747 1.056-2.1227 1.056-3.744 0-1.6214-.352-2.8587-1.056-3.712-.683-.8747-1.654-1.312-2.912-1.312-1.28 0-2.272.4266-2.976 1.28-.704.8533-1.056 2.08-1.056 3.68 0 1.6213.352 2.88 1.056 3.776.704.896 1.685 1.344 2.944 1.344z"/><path fill="#15A3A6" d="M23 4L7 8v12c0 12 16 20 16 20s16-8 16-20V8L23 4z"/><path fill="#fff" fill-rule="evenodd" d="M17 20c0-3.3137 2.6863-6 6-6 2.1846 0 4.0964 1.1675 5.1457 2.9126l3.4305-2.0583C29.8274 11.9458 26.6409 10 23 10c-5.5228 0-10 4.4772-10 10s4.4772 10 10 10c3.6409 0 6.8274-1.9458 8.5762-4.8543l-3.4305-2.0583C27.0964 24.8325 25.1846 26 23 26c-3.3137 0-6-2.6863-6-6z" clip-rule="evenodd"/></svg>