<svg xmlns="http://www.w3.org/2000/svg" role="img" viewBox="-2.76 -2.76 143.52 37.90"><title>Covid Near You logo</title><defs><clipPath id="clip-path" transform="translate(0 -6.8)"><path fill="none" d="M0 5h36v36H0z"/></clipPath><style>.cls-3{fill:#2b2b2b}</style></defs><g clip-path="url(#clip-path)"><path d="M33.43 13.63A2.57 2.57 0 0 0 31 15.46h-5.82l-2.92-5.07 2.93-5a2.88 2.88 0 0 0 .59.07 2.57 2.57 0 0 0 1.3-4.78 2.57 2.57 0 0 0-3.78 2.86 2.61 2.61 0 0 0 .61 1.09l-2.92 5h-5.92l-2.9-5a2.47 2.47 0 0 0 .61-1.08 2.56 2.56 0 0 0-.25-1.95A2.59 2.59 0 0 0 10.3.25 2.48 2.48 0 0 0 9 .6a2.56 2.56 0 0 0 1.28 4.79 2.87 2.87 0 0 0 .58-.07l2.89 5-3 5.11H5a2.57 2.57 0 1 0 0 1.48h5.81l2.92 5.07-2.93 5a2.88 2.88 0 0 0-.59-.07 2.57 2.57 0 0 0-1.3 4.78 2.57 2.57 0 0 0 3.78-2.86 2.61 2.61 0 0 0-.61-1.09l2.92-5h5.92l2.9 5a2.55 2.55 0 1 0 1.86-.82 2.32 2.32 0 0 0-.58.08l-2.89-5 3-5.11H31a2.57 2.57 0 1 0 2.45-3.32z" class="cls-3"/></g><path d="M58.32 14.44a4.8 4.8 0 0 1-4.16-1.88 9.2 9.2 0 0 1-1.34-5.36 9.09 9.09 0 0 1 1.34-5.3A4.77 4.77 0 0 1 58.32 0a5.53 5.53 0 0 1 1.9.3 4.06 4.06 0 0 1 2.42 2.06 6.8 6.8 0 0 1 .62 1.66l-2.8.68a7.13 7.13 0 0 0-.28-.92 2.53 2.53 0 0 0-.42-.72 1.6 1.6 0 0 0-.62-.46 1.94 1.94 0 0 0-.88-.18 1.83 1.83 0 0 0-1.74 1A5.7 5.7 0 0 0 56 6v2.44a5.82 5.82 0 0 0 .5 2.64 1.83 1.83 0 0 0 1.74.94 1.72 1.72 0 0 0 1.5-.64 4.26 4.26 0 0 0 .7-1.64l2.8.68a6.8 6.8 0 0 1-.62 1.66 4.41 4.41 0 0 1-1 1.28 4.2 4.2 0 0 1-1.44.8 5.8 5.8 0 0 1-1.86.28zm18.37 0a4.73 4.73 0 0 1-4.14-1.9 9.24 9.24 0 0 1-1.32-5.34 9.24 9.24 0 0 1 1.32-5.3A4.73 4.73 0 0 1 76.69 0a4.66 4.66 0 0 1 4.12 1.9 9.08 9.08 0 0 1 1.34 5.3 9.08 9.08 0 0 1-1.34 5.32 4.66 4.66 0 0 1-4.12 1.92zm0-2.42a1.78 1.78 0 0 0 1.76-.94 5.75 5.75 0 0 0 .5-2.66V6a5.57 5.57 0 0 0-.5-2.62 1.78 1.78 0 0 0-1.76-1 1.84 1.84 0 0 0-1.78 1A5.86 5.86 0 0 0 74.43 6v2.44a6 6 0 0 0 .48 2.64 1.84 1.84 0 0 0 1.78.94zm16.57 2.18l-3.7-14h3.34l1.64 7.1.82 4h.16l.84-4L98 .2h3.18l-3.68 14zm16.32 0v-2.22h3V2.46h-3V.2h9v2.26h-3v9.52h3v2.22zm18.47-14h4.5a4.91 4.91 0 0 1 4.18 1.8 8.52 8.52 0 0 1 1.36 5.2 8.52 8.52 0 0 1-1.36 5.18 4.91 4.91 0 0 1-4.18 1.8h-4.5zm4.3 11.6a2.26 2.26 0 0 0 2-.86 4.27 4.27 0 0 0 .62-2.5v-2.5a4.22 4.22 0 0 0-.62-2.48 2.26 2.26 0 0 0-2-.86H131v9.24zM54.51 24.68h-.13v7.52H53v-9.77h2l2.87 7.52H58v-7.52h1.37v9.77h-2zm9.89 7.52v-9.77h6.12v1.31H66v2.85h4.38v1.31H66v3h4.55v1.3zm16.46 0l-.74-2.6H77l-.73 2.6h-1.6l2.86-9.77h2.14l2.85 9.77zm-2.24-8.19h-.11l-1.21 4.28h2.52zm9.69 8.19h-1.55v-9.77h3.65a2.76 2.76 0 0 1 2.13.78 3 3 0 0 1 .74 2.16 3 3 0 0 1-.54 1.83 2.37 2.37 0 0 1-1.57.89l2.25 4.11h-1.73l-2.07-4h-1.31zm1.88-5.21c1 0 1.46-.44 1.46-1.33v-.6c0-.89-.49-1.33-1.46-1.33h-1.88v3.26zm21.2 5.21v-3.68l-3.25-6.09h1.75l1.25 2.43 1 2.09h.09l1-2.09 1.25-2.43h1.71L113 28.52v3.68zm12 .17a3.51 3.51 0 0 1-1.61-.34 3 3 0 0 1-1.12-1 4.64 4.64 0 0 1-.65-1.58 9.92 9.92 0 0 1-.21-2.15 9.69 9.69 0 0 1 .2-2.1 4.58 4.58 0 0 1 .65-1.6 2.92 2.92 0 0 1 1.12-1 3.51 3.51 0 0 1 1.61-.35 3.45 3.45 0 0 1 1.59.35 2.79 2.79 0 0 1 1.12 1 4.41 4.41 0 0 1 .66 1.6 9.69 9.69 0 0 1 .21 2.12 9.92 9.92 0 0 1-.21 2.15 4.46 4.46 0 0 1-.66 1.58 2.89 2.89 0 0 1-1.12 1 3.45 3.45 0 0 1-1.6.32zm0-1.3a1.56 1.56 0 0 0 1.48-.79 4.5 4.5 0 0 0 .44-2.15v-1.64a4.39 4.39 0 0 0-.44-2.13 1.78 1.78 0 0 0-3 0 4.4 4.4 0 0 0-.43 2.13v1.65a4.47 4.47 0 0 0 .43 2.14 1.57 1.57 0 0 0 1.5.79zm9.53-8.64v7.1a2.59 2.59 0 0 0 .21.84 1.2 1.2 0 0 0 .51.51 1.83 1.83 0 0 0 .92.19 1.89 1.89 0 0 0 .93-.19 1.17 1.17 0 0 0 .5-.51 2.36 2.36 0 0 0 .2-.84v-7.1h1.57v5.77a12.46 12.46 0 0 1-.13 1.85 3.23 3.23 0 0 1-.46 1.32 2.25 2.25 0 0 1-1 .78 4.24 4.24 0 0 1-1.65.27 4.29 4.29 0 0 1-1.66-.27 2.19 2.19 0 0 1-1-.78 3.24 3.24 0 0 1-.48-1.32 14.27 14.27 0 0 1-.11-1.85v-5.77z" class="cls-3"/></svg>