<svg xmlns="http://www.w3.org/2000/svg" role="img" viewBox="-5.30 -5.30 275.34 54.34"><title>Covid Watch logo</title><path fill="#2C58B1" d="M42.7154 24.1826c-.54.4209-1.2133.6339-1.8972.6001a2.85639 2.85639 0 0 1-1.8287-.7843c-.591-.5674-1.1905-1.1113-1.9957-1.3576-1.2997-.3983-2.5845-.1777-3.8158.2441l-.0985.0364a.85658.85658 0 0 0-.5246.6788 10.72207 10.72207 0 0 1-1.9015 4.651.85646.85646 0 0 0-.1552.3612.85467.85467 0 0 0 .0225.3925c.0704.2271.172.4432.3019.6424a11.3059 11.3059 0 0 0 1.334 1.713c.8715.9037 2 1.152 3.212 1.1628a2.86663 2.86663 0 0 1 1.5858.4763 2.86706 2.86706 0 0 1 1.2354 2.9198 2.86646 2.86646 0 0 1-.7624 1.4699 2.86664 2.86664 0 0 1-1.4478.8032 2.86675 2.86675 0 0 1-1.6506-.1312 2.86742 2.86742 0 0 1-1.3028-1.0219 2.8679 2.8679 0 0 1-.5206-1.5719c-.0171-.8201-.0556-1.6295-.4496-2.3704-.6424-1.2012-1.7024-1.955-2.8694-2.5267l-.0235-.0107a.85588.85588 0 0 0-.4506-.0799.8568.8568 0 0 0-.4274.1634 10.70628 10.70628 0 0 1-4.6894 1.9614.87708.87708 0 0 0-.3784.1604.87721.87721 0 0 0-.264.315 2.56733 2.56733 0 0 0-.2141.6081 11.36523 11.36523 0 0 0-.2634 2.1413c-.0236 1.2548.5995 2.227 1.4561 3.0985a2.86747 2.86747 0 0 1 .6318 3.1067 2.86693 2.86693 0 0 1-1.0386 1.2894 2.86617 2.86617 0 0 1-1.5782.5003 2.86643 2.86643 0 0 1-1.5917-.4556 2.86762 2.86762 0 0 1-1.0745-1.2597 2.86696 2.86696 0 0 1-.1988-1.6437 2.86713 2.86713 0 0 1 .7429-1.4796c.5675-.591 1.1135-1.1906 1.3598-1.9957.3961-1.2998.1756-2.5845-.2441-3.8158v-.015a.85637.85637 0 0 0-.2677-.3762.85648.85648 0 0 0-.424-.1827 10.70643 10.70643 0 0 1-4.6787-1.9421.87842.87842 0 0 0-.3829-.1601.87835.87835 0 0 0-.4137.0337c-.2085.0709-.4071.168-.591.2891-.612.3894-1.1856.836-1.713 1.334-.9037.8716-1.1521 2-1.1628 3.212a2.86523 2.86523 0 0 1-.4768 1.5838c-.3112.4696-.7539.837-1.27283 1.0563a2.8646 2.8646 0 0 1-1.64454.1767 2.86411 2.86411 0 0 1-1.46819-.7617 2.86478 2.86478 0 0 1-.80253-1.4462 2.86519 2.86519 0 0 1 .13061-1.6489 2.86561 2.86561 0 0 1 1.02021-1.3019 2.86546 2.86546 0 0 1 1.5698-.521c.82012-.0171 1.62954-.0557 2.37257-.4497 1.2013-.6424 1.9529-1.7023 2.5267-2.8693 0-.0129.0107-.0236.015-.0343a.85633.85633 0 0 0 .0797-.448.85742.85742 0 0 0-.161-.4257 10.70558 10.70558 0 0 1-1.9272-4.6573.87362.87362 0 0 0-.4283-.6274 2.51517 2.51517 0 0 0-.7023-.257 11.35722 11.35722 0 0 0-2.14133-.2633c-1.25481-.0236-2.2291.5995-3.10061 1.4561a2.86662 2.86662 0 0 1-1.45849.7835 2.86733 2.86733 0 0 1-1.64854-.1533 2.86773 2.86773 0 0 1-1.2889-1.0392 2.86753 2.86753 0 0 1-.49947-1.5786 2.86745 2.86745 0 0 1 .4565-1.5915 2.86741 2.86741 0 0 1 1.26025-1.0737 2.86706 2.86706 0 0 1 1.64378-.198c.55548.097 1.07.3557 1.4792.7437.591.5675 1.19056 1.1135 1.99569 1.3598 1.29978.3961 2.58456.1755 3.81362-.2442.0407-.0149.0814-.0278.1178-.0449a.85569.85569 0 0 0 .3502-.2658.85601.85601 0 0 0 .1723-.4044 10.72813 10.72813 0 0 1 1.9079-4.5782.85586.85586 0 0 0 .1529-.3492.85674.85674 0 0 0-.0137-.3809 2.47583 2.47583 0 0 0-.3319-.7409 11.4258 11.4258 0 0 0-1.3319-1.7131c-.8715-.9036-1.99999-1.152-3.21197-1.1627a2.865 2.865 0 0 1-1.58599-.474 2.86503 2.86503 0 0 1-.47647-4.38758 2.86499 2.86499 0 0 1 1.44728-.80338 2.865 2.865 0 0 1 1.65009.13122A2.86556 2.86556 0 0 1 10.798 6.7845a2.86479 2.86479 0 0 1 .5194 1.57168c.0172.82012.0557 1.62953.4518 2.37252.6424 1.2013 1.7131 1.9529 2.8694 2.5268.0642.03.1263.0578.1884.0814.133.0485.276.0634.4161.0432a.85463.85463 0 0 0 .3869-.1589c1.3463-.974 2.9015-1.62 4.5417-1.8865a.85615.85615 0 0 0 .3323-.1264.8566.8566 0 0 0 .2523-.2504c.1598-.2524.2722-.5318.3319-.8244a11.34936 11.34936 0 0 0 .2634-2.14134c.0235-1.25481-.6017-2.2291-1.4561-3.10061a2.86497 2.86497 0 0 1-.7826-1.45742A2.86473 2.86473 0 0 1 20.3048.49928 2.86487 2.86487 0 0 1 21.882.00026a2.8651 2.8651 0 0 1 2.8612 3.3575 2.86552 2.86552 0 0 1-.7428 1.47811c-.5675.591-1.1114 1.19057-1.3576 1.9957-.3983 1.29977-.1777 2.58456.2441 3.81363.0229.073.05.1445.0814.2142.0615.1271.1536.237.2679.3199.1143.083.2474.1364.3873.1554 1.6396.2615 3.196.9008 4.546 1.8673a.87484.87484 0 0 0 .3457.148.87325.87325 0 0 0 .3759-.011c.2701-.0707.5269-.185.7602-.3383.6124-.388 1.1861-.834 1.713-1.3319.9037-.8715 1.1521-2 1.1628-3.21198a2.86643 2.86643 0 0 1 .4763-1.58579 2.86712 2.86712 0 0 1 4.3897-.47308c.4043.39313.6837.89677.8032 1.44789a2.86671 2.86671 0 0 1-.1312 1.65057 2.86745 2.86745 0 0 1-1.0219 1.30279 2.86693 2.86693 0 0 1-1.5718.5205c-.8202.0172-1.6296.0557-2.3705.4519-1.2012.6424-1.955 1.713-2.5267 2.8693-.0278.0578-.0535.1156-.075.1735a.85782.85782 0 0 0-.0412.4166.85522.85522 0 0 0 .1612.3863 10.70661 10.70661 0 0 1 1.9271 4.576.87004.87004 0 0 0 .1437.3582.87055.87055 0 0 0 .2846.2607c.2264.1257.4703.2166.7238.2698.7038.1554 1.4208.2436 2.1413.2633 1.2548.0236 2.2269-.6017 3.0984-1.4561a2.8685 2.8685 0 0 1 .9715-.6646 2.86873 2.86873 0 0 1 1.1567-.2182c.3965.008.787.0982 1.1469.2649.3599.1666.6812.4061.9438.7033.2626.2972.4607.6457.5817 1.0233.121.3777.1624.7763.1215 1.1708a2.868 2.868 0 0 1-.3591 1.121c-.196.3448-.4613.6452-.7793.8822l-.0064.0107zm31.2117 2.7837a6.6663 6.6663 0 0 1-1.8501 1.1563 7.05332 7.05332 0 0 1-2.9143.531 6.77004 6.77004 0 0 1-2.6445-.4903 5.69013 5.69013 0 0 1-2.0086-1.4026 6.23061 6.23061 0 0 1-1.2848-2.182 8.3711 8.3711 0 0 1-.4475-2.8051 7.14079 7.14079 0 0 1 .4903-2.6745 6.9405 6.9405 0 0 1 1.3448-2.152 6.06664 6.06664 0 0 1 1.9657-1.4325 5.56772 5.56772 0 0 1 2.3276-.5054 6.1437 6.1437 0 0 1 2.7601.5932c.6766.3195 1.3218.7016 1.9272 1.1413l1.6467-3.9593a13.08216 13.08216 0 0 0-2.7002-1.2355 11.42012 11.42012 0 0 0-3.788-.5782 10.70745 10.70745 0 0 0-4.2205.7923 9.48306 9.48306 0 0 0-3.2805 2.2848 10.17148 10.17148 0 0 0-2.1113 3.4967 12.94409 12.94409 0 0 0-.7366 4.4518c-.0083 1.3889.237 2.7676.7238 4.0685a10.23658 10.23658 0 0 0 2.0942 3.3811 9.8637 9.8637 0 0 0 3.3532 2.3276c1.4265.5896 2.9533.8986 4.4968.9101a10.5651 10.5651 0 0 0 2.9978-.3469 11.777 11.777 0 0 0 2.2976-.8566 8.17235 8.17235 0 0 0 1.2848-.7794l-1.7237-3.7344zm5.4624-.8566c1.1032 2.605 3.1766 4.6784 5.7816 5.7816a10.98674 10.98674 0 0 0 8.4131 0 11.23534 11.23534 0 0 0 3.4818-2.3555 10.80348 10.80348 0 0 0 2.3704-3.4539c.5746-1.3323.8666-2.7695.8566-4.2205.006-1.4319-.286-2.8495-.8566-4.1627a11.13389 11.13389 0 0 0-2.3704-3.4839 11.36913 11.36913 0 0 0-3.4818-2.3854 10.6346 10.6346 0 0 0-4.2065-.8673c-1.4466 0-2.878.2951-4.2066.8673a10.9981 10.9981 0 0 0-3.454 2.3854 11.18436 11.18436 0 0 0-2.3276 3.4839 10.49396 10.49396 0 0 0-.8372 4.1627 10.6462 10.6462 0 0 0 .8372 4.2205v.0278zm3.9893-6.9378a6.67827 6.67827 0 0 1 1.3875-2.182 6.3978 6.3978 0 0 1 2.0814-1.4603 6.6195 6.6195 0 0 1 2.5696-.519c.8825 0 1.7562.1764 2.5695.519a6.2245 6.2245 0 0 1 2.0664 1.4603 6.97471 6.97471 0 0 1 1.3876 2.182 7.14568 7.14568 0 0 1 .41 3.941 7.14497 7.14497 0 0 1-1.7526 3.5536 6.12271 6.12271 0 0 1-2.0743 1.476 6.12196 6.12196 0 0 1-2.4953.5047 6.44622 6.44622 0 0 1-2.5681-.5007 6.44721 6.44721 0 0 1-2.1577-1.48c-1.2508-1.2876-1.9433-3.0165-1.9272-4.8115a7.2521 7.2521 0 0 1 .5032-2.6831zm17.8372-7.9785l9.713 22.2696 9.713-22.2696h-4.972l-5.638 14.8307 2.428.4904-6.21-15.3211h-5.034zm23.096 21.276h4.193v-21.276h-4.193v21.276zm17.083 0c1.4.0084 2.79-.2316 4.105-.7088a10.2006 10.2006 0 0 0 3.411-2.0513c.991-.9072 1.784-2.0095 2.328-3.2377.586-1.3439.878-2.7974.856-4.2633-.004-1.346-.221-2.6829-.642-3.9614-.423-1.3081-1.106-2.5172-2.009-3.5546a9.652 9.652 0 0 0-3.623-2.5439c-1.503-.6352-3.324-.9536-5.464-.955h-6.36v21.276h7.398zm-3.212-17.2568h3.411a7.0756 7.0756 0 0 1 1.763.2741c.735.203 1.425.5414 2.036.9979.712.5368 1.287 1.2347 1.677 2.0364.452.8779.679 2.0106.679 3.3982.017.9633-.155 1.9207-.506 2.818-.312.7851-.808 1.484-1.445 2.0385-.656.5563-1.418.9737-2.24 1.227-.935.2932-1.911.4377-2.891.4282h-2.479l-.005-13.2183zm34.227 18.2397l6.128-13.1519-1.927-5.7537-3.959 9.85.664.2891-4.544-13.3511h-4.914l8.552 22.1176zm10.955-.0578l8.214-22.0598h-4.51l-3.901 12.805.751.1157-5.233-12.9207h-4.171l8.85 22.0598zm10.726-.9251l7.342-17.6336-3.036 2.0813 6.128 15.5523h4.857l-9.6-22.1132h-.214l-9.608 22.1132h4.131zm1.126-4.1627h9.165l-1.476-3.5267h-6.383l-1.306 3.5267zm14.079-13.0619h4.972v17.2246h4.191V15.2405h5.175v-4.0471h-14.346l.008 4.0514zm31.884 11.7086c-.549.4844-1.174.8751-1.85 1.1563-.923.3881-1.918.575-2.919.5482-.905.015-1.804-.1517-2.644-.4904a5.7035 5.7035 0 0 1-2.011-1.4025c-.573-.6316-1.01-1.3743-1.285-2.182a8.38681 8.38681 0 0 1-.449-2.8051c-.009-.9148.158-1.8228.492-2.6745a6.9318 6.9318 0 0 1 1.345-2.152 6.07386 6.07386 0 0 1 1.966-1.4326c.729-.334 1.523-.5064 2.325-.5053.955-.0193 1.9.1838 2.762.5931.677.3194 1.322.7016 1.928 1.1414l1.648-3.9593c-.847-.5137-1.75-.9297-2.691-1.2398-1.22-.4047-2.5-.6002-3.786-.5782-1.446-.0236-2.882.2459-4.221.7923-1.243.5198-2.361 1.2987-3.28 2.2848a10.16917 10.16917 0 0 0-2.111 3.4967c-.505 1.4294-.754 2.9362-.737 4.4518-.009 1.3888.236 2.7675.722 4.0685a10.24102 10.24102 0 0 0 2.096 3.3811c.943 1.0012 2.086 1.794 3.353 2.3276 1.427.5899 2.954.8989 4.497.9101 1.011.0284 2.02-.0884 2.998-.3469.794-.2048 1.565-.4918 2.3-.8566.451-.2195.881-.4804 1.284-.7794l-1.732-3.7473zm19.629-15.76V19.78h-9.507v-8.5866h-4.197v21.276h4.191v-8.6423h9.513v8.6423H265v-21.276h-4.191z"/></svg>