<svg xmlns="http://www.w3.org/2000/svg" role="img" xmlns:xlink="http://www.w3.org/1999/xlink" viewBox="-201.40 -201.40 10472.80 5432.80"><title>COVIDSafe (Australia) logo</title><defs><clipPath id="b"><path d="M0 0h6v3H0z"/></clipPath><clipPath id="c"><path d="M0 0v1.5h6V3zm6 0H3v3H0z"/></clipPath><path id="a" d="M0-360l69.4214 215.84498 212.03793-80.3013L155.98847-35.60336 350.97405 80.10754 125.09304 99.75837l31.1051 224.59042L0 160l-156.19815 164.3488 31.10511-224.59043-225.881-19.65083 194.98557-115.71089-125.47086-188.85298 212.03793 80.30131z"/><path id="e" d="M0-210L54.85996-75.50825l144.8619 10.61468L88.76529 28.8416l34.66962 141.05198L0 93.33333l-123.4349 76.56024 34.66962-141.05198-110.95659-93.73516 144.86191-10.61468z"/><use id="d" transform="scale(2.1)" xlink:href="#a"/></defs><path fill="#00008b" d="M0 0h10080v5040H0z"/><path stroke="#fff" stroke-width=".6" d="M0 0l6 3m0-3L0 3" clip-path="url(#b)" transform="scale(840)"/><path stroke="red" stroke-width=".4" d="M0 0l6 3m0-3L0 3" clip-path="url(#c)" transform="scale(840)"/><path stroke="#fff" d="M2520 0v2520M0 1260h5040" stroke-width="840"/><path stroke="red" stroke-width="504" d="M2520 0v2520M0 1260h5040"/><g fill="#fff"><use x="2520" y="3780" xlink:href="#d"/><use x="7560" y="4200" xlink:href="#a"/><use x="6300" y="2205" xlink:href="#a"/><use x="7560" y="840" xlink:href="#a"/><use x="8680" y="1869" xlink:href="#a"/><use x="8064" y="2730" xlink:href="#e"/></g></svg>