<svg xmlns="http://www.w3.org/2000/svg" role="img" viewBox="-6.40 -6.40 332.54 60.54"><title>Covid Safe Paths logo</title><path fill="currentColor" d="M82.1727 36.2249c-2.8087 0-4.8994-.9926-6.2721-2.9777-1.3515-1.985-2.0273-4.8043-2.0273-8.4577 0-3.6534.6758-6.4727 2.0273-8.4578 1.3727-1.985 3.4634-2.9776 6.2721-2.9776 1.077 0 2.0062.1478 2.7875.4435.8025.2745 1.4888.6652 2.059 1.172.5702.4858 1.0454 1.0665 1.4255 1.7423.4012.6546.7286 1.3621.982 2.1223l-3.1994 1.077c-.1689-.5068-.359-.9819-.5702-1.4254-.2112-.4435-.4751-.8236-.7919-1.1404-.3168-.3168-.6969-.5702-1.1404-.7602-.4223-.1901-.9503-.2851-1.5838-.2851-1.5628 0-2.7031.6018-3.4211 1.8056-.718 1.1826-1.0771 2.7875-1.0771 4.8149v3.7378c0 2.0274.3591 3.6429 1.0771 4.8466.718 1.1826 1.8583 1.7739 3.4211 1.7739.6335 0 1.1615-.095 1.5838-.2851.4435-.19.8236-.4435 1.1404-.7602.3168-.3168.5807-.6969.7919-1.1404.2112-.4435.4013-.9186.5702-1.4255l3.1994 1.0771c-.2534.7602-.5808 1.4782-.982 2.154-.3801.6547-.8553 1.2354-1.4255 1.7422-.5702.4857-1.2565.8764-2.059 1.1721-.7813.2745-1.7105.4118-2.7875.4118zm18.3603 0c-1.3939 0-2.6082-.2534-3.6429-.7603-1.0137-.5279-1.8584-1.2776-2.5342-2.249-.6547-.9715-1.1404-2.1646-1.4571-3.5795-.3168-1.4149-.4752-3.0305-.4752-4.8466 0-1.795.1584-3.4.4752-4.8149.3167-1.436.8024-2.6397 1.4571-3.6112.6758-.9714 1.5205-1.7105 2.5342-2.2174 1.0347-.5279 2.249-.7919 3.6429-.7919 1.394 0 2.597.264 3.611.7919 1.035.5069 1.88 1.246 2.534 2.2174.676.9715 1.172 2.1752 1.489 3.6112.317 1.4149.475 3.0199.475 4.8149 0 1.8161-.158 3.4317-.475 4.8466-.317 1.4149-.813 2.608-1.489 3.5795-.654.9714-1.499 1.7211-2.534 2.249-1.014.5069-2.217.7603-3.611.7603zm0-2.946c1.584 0 2.703-.5913 3.358-1.7739.654-1.2037.982-2.8298.982-4.8782v-3.7062c0-2.0274-.328-3.6323-.982-4.8149-.655-1.2038-1.774-1.8056-3.358-1.8056-1.5839 0-2.7032.6018-3.3578 1.8056-.6547 1.1826-.982 2.7875-.982 4.8149v3.7378c0 2.0274.3273 3.6429.982 4.8466.6546 1.1826 1.7739 1.7739 3.3578 1.7739zm16.523 2.5659l-6.24-22.1106h3.832l2.915 11.1503 1.932 7.5075h.19l1.932-7.5075 2.946-11.1503h3.675l-6.24 22.1106h-4.942zm14.496 0v-2.6926h5.195V16.4268h-5.195v-2.6926h13.937v2.6926h-5.195v16.7254h5.195v2.6926h-13.937zm19.057-22.1106h6.589c2.829 0 4.92.9398 6.272 2.8193 1.372 1.8795 2.059 4.6248 2.059 8.236 0 3.6112-.687 6.3565-2.059 8.236-1.352 1.8795-3.443 2.8193-6.272 2.8193h-6.589V13.7342zm6.367 19.1963c1.626 0 2.83-.5385 3.611-1.6156.802-1.0981 1.204-2.6608 1.204-4.6881v-3.6746c0-2.0273-.402-3.5795-1.204-4.6565-.781-1.0981-1.985-1.6472-3.611-1.6472h-2.851v16.282h2.851zm26.86 3.2944c-1.859 0-3.442-.3379-4.752-1.0137-1.288-.6758-2.397-1.5838-3.326-2.7242l2.471-2.3124c.781.9503 1.637 1.6683 2.566 2.154.95.4857 2.027.7286 3.231.7286 1.415 0 2.481-.3168 3.199-.9503.718-.6336 1.077-1.4888 1.077-2.5659 0-.8658-.253-1.5521-.76-2.059-.507-.5068-1.404-.8869-2.692-1.1403l-1.964-.3485c-2.154-.4012-3.77-1.1087-4.847-2.1223-1.077-1.0137-1.616-2.4075-1.616-4.1814 0-.9714.18-1.8478.539-2.6292.38-.8025.897-1.4677 1.552-1.9956.676-.5491 1.489-.9715 2.439-1.2671.951-.2957 2.017-.4435 3.2-.4435 1.668 0 3.115.2957 4.339.887 1.225.5702 2.271 1.4043 3.136 2.5024l-2.502 2.2174c-.57-.7391-1.267-1.3304-2.091-1.7739-.823-.4434-1.848-.6652-3.072-.6652-1.267 0-2.249.2534-2.946.7603-.697.5068-1.046 1.2459-1.046 2.2173 0 .9292.285 1.6261.856 2.0907.57.4435 1.457.7814 2.66 1.0137l1.964.4118c2.218.4223 3.833 1.1404 4.847 2.154 1.035 1.0137 1.552 2.4075 1.552 4.1814 0 1.0348-.179 1.9745-.538 2.8192-.359.8447-.887 1.5733-1.584 2.1857-.676.5913-1.51 1.0559-2.503 1.3938-.992.3168-2.122.4752-3.389.4752zm24.127-.3801c-.908 0-1.605-.2535-2.091-.7603-.486-.5279-.781-1.1932-.887-1.9956h-.158c-.317 1.0347-.898 1.8161-1.742 2.3441-.845.5279-1.869.7919-3.073.7919-1.711 0-3.031-.4435-3.96-1.3305-.908-.8869-1.362-2.0801-1.362-3.5795 0-1.6472.591-2.8826 1.774-3.7062 1.204-.8236 2.957-1.2354 5.258-1.2354h2.978v-1.3937c0-1.0137-.274-1.7951-.824-2.3441-.549-.5491-1.404-.8236-2.565-.8236-.972 0-1.764.2111-2.376.6335-.613.4224-1.13.9609-1.552 1.6155l-2.059-1.8689c.549-.9292 1.32-1.6895 2.312-2.2808.993-.6124 2.291-.9186 3.896-.9186 2.133 0 3.77.4963 4.91 1.4888 1.141.9926 1.711 2.418 1.711 4.2764v8.2677h1.742v2.8193h-1.932zm-6.969-2.2491c1.077 0 1.964-.2323 2.661-.6969.697-.4857 1.045-1.1298 1.045-1.9323v-2.3758h-2.914c-2.387 0-3.58.7392-3.58 2.2174v.5702c0 .7391.243 1.2988.729 1.6789.507.359 1.193.5385 2.059.5385zm13.14-11.4037h-2.502v-2.8193h2.502v-2.7242c0-1.3304.349-2.3652 1.046-3.1043.697-.7603 1.742-1.1404 3.136-1.1404h2.724v2.8193h-3.453v4.1496h3.453v2.8193h-3.453v13.6528h-3.453V22.192zm16.249 14.0329c-1.183 0-2.239-.2006-3.168-.6019-.929-.4012-1.721-.9714-2.376-1.7105-.654-.7603-1.161-1.6684-1.52-2.7243-.338-1.077-.507-2.2701-.507-3.5795 0-1.3093.169-2.4919.507-3.5478.359-1.077.866-1.9851 1.52-2.7242.655-.7602 1.447-1.341 2.376-1.7422.929-.4013 1.985-.6019 3.168-.6019 1.203 0 2.259.2112 3.167.6336.93.4223 1.7 1.0136 2.313 1.7739.612.7391 1.066 1.6049 1.362 2.5975.317.9925.475 2.059.475 3.1993v1.2988h-11.309v.5385c0 1.2671.37 2.3124 1.109 3.136.76.8025 1.837 1.2038 3.231 1.2038 1.014 0 1.869-.2218 2.566-.6653.697-.4434 1.288-1.0453 1.774-1.8056l2.027 1.9957c-.612 1.0137-1.499 1.8267-2.661 2.4391-1.161.5913-2.513.887-4.054.887zm0-14.5397c-.592 0-1.141.1055-1.648.3167-.485.2112-.908.5069-1.267.887-.337.3801-.601.8341-.792 1.3621-.19.5279-.285 1.1087-.285 1.7422v.2218h7.666v-.3168c0-1.2671-.327-2.2808-.982-3.041-.654-.7814-1.552-1.172-2.692-1.172zm11.393 14.1596V13.7342h9.503c2.048 0 3.632.6019 4.751 1.8056 1.12 1.2037 1.679 2.8193 1.679 4.8466 0 2.0273-.559 3.6428-1.679 4.8466-1.119 1.2037-2.703 1.8056-4.751 1.8056h-5.924v8.8062h-3.579zm3.579-11.9423h5.702c.908 0 1.616-.2323 2.122-.6969.507-.4857.761-1.172.761-2.059v-1.5204c0-.887-.254-1.5628-.761-2.0274-.506-.4857-1.214-.7285-2.122-.7285h-5.702v7.0322zm27.725 11.9423c-.908 0-1.605-.2535-2.091-.7603-.485-.5279-.781-1.1932-.887-1.9956h-.158c-.317 1.0347-.898 1.8161-1.742 2.3441-.845.5279-1.869.7919-3.073.7919-1.71 0-3.03-.4435-3.96-1.3305-.908-.8869-1.362-2.0801-1.362-3.5795 0-1.6472.592-2.8826 1.774-3.7062 1.204-.8236 2.957-1.2354 5.259-1.2354h2.977v-1.3937c0-1.0137-.274-1.7951-.823-2.3441-.549-.5491-1.405-.8236-2.566-.8236-.972 0-1.764.2111-2.376.6335-.612.4224-1.13.9609-1.552 1.6155l-2.059-1.8689c.549-.9292 1.32-1.6895 2.312-2.2808.993-.6124 2.292-.9186 3.897-.9186 2.132 0 3.769.4963 4.909 1.4888 1.141.9926 1.711 2.418 1.711 4.2764v8.2677h1.742v2.8193h-1.932zm-6.969-2.2491c1.077 0 1.964-.2323 2.661-.6969.697-.4857 1.045-1.1298 1.045-1.9323v-2.3758h-2.914c-2.386 0-3.58.7392-3.58 2.2174v.5702c0 .7391.243 1.2988.729 1.6789.507.359 1.193.5385 2.059.5385zm16.754 2.2491c-1.204 0-2.112-.3063-2.724-.9187-.613-.6335-.919-1.5205-.919-2.6608V22.192h-2.566v-2.8193h1.394c.57 0 .961-.1267 1.172-.3801.232-.2534.349-.6652.349-1.2354v-2.8826h3.104v4.4981h3.453v2.8193h-3.453v10.8335h3.199v2.8193h-3.009zm7.008-23.441h3.453v9.6932h.158c.359-.887.898-1.6261 1.616-2.2174.739-.5913 1.742-.887 3.009-.887 1.689 0 2.999.5596 3.928 1.6789.95 1.0981 1.425 2.6714 1.425 4.7199v10.4534h-3.452V25.8032c0-2.5553-1.035-3.833-3.105-3.833-.443 0-.887.0634-1.33.1901-.423.1056-.803.2745-1.141.5068-.337.2323-.612.528-.823.887-.19.359-.285.7708-.285 1.2354v11.0553h-3.453v-23.441zm23.602 23.8211c-1.563 0-2.872-.2746-3.928-.8236-1.056-.5491-1.975-1.3093-2.756-2.2808l2.217-2.0273c.613.7391 1.289 1.3199 2.028 1.7422.76.4013 1.636.6019 2.629.6019 1.014 0 1.763-.1901 2.249-.5702.507-.4012.76-.9503.76-1.6472 0-.5279-.179-.9714-.538-1.3304-.338-.3801-.94-.623-1.806-.7286l-1.52-.19c-1.69-.2112-3.02-.6969-3.992-1.4572-.95-.7814-1.425-1.9323-1.425-3.4528 0-.8025.148-1.5099.443-2.1223.296-.6336.708-1.1615 1.236-1.5839.549-.4435 1.193-.7813 1.932-1.0136.76-.2323 1.594-.3485 2.502-.3485 1.479 0 2.682.2323 3.612.6969.95.4646 1.795 1.1087 2.534 1.9323l-2.123 2.0273c-.422-.5068-.982-.9397-1.678-1.2987-.676-.3802-1.458-.5702-2.345-.5702-.95 0-1.657.19-2.122.5702-.443.3801-.665.8764-.665 1.4888 0 .6335.201 1.1087.602 1.4255.401.3167 1.045.549 1.932.6968l1.521.1901c1.816.2745 3.136.813 3.959 1.6155.845.7814 1.267 1.8373 1.267 3.1677 0 .8025-.158 1.5311-.475 2.1857-.296.6336-.728 1.1826-1.299 1.6472-.57.4646-1.256.8236-2.059 1.0771-.802.2534-1.7.3801-2.692.3801zM36.4676 15.1664c-.4255-2.4793-1.3435-4.7353-2.6421-6.72325-1.2987.80411-2.4406 1.85395-3.3586 3.10475.7612 1.3625 1.2986 2.8367 1.5673 4.4003.4926 2.8144-.112 6.5892-1.7017 10.9895-.8508 2.3006-1.9704 4.78-3.3362 7.371-.5598 1.0721-1.1419 2.0773-1.7017 3.0377-1.0076 1.6976-1.9704 3.2165-2.7988 4.445-1.8809-1.3849-4.3214-3.2835-6.8068-5.4948C9.35243 30.5562 5.45645 25.0391 4.69516 20.7505c-.64933-3.6408.17913-7.3263 2.30624-10.3641 2.12712-3.03773 5.3066-5.07034 8.9563-5.69576.806-.13402 1.6345-.22336 2.4406-.22336 2.6197 0 5.1946.75943 7.4113 2.16662.9852-1.18382 2.1047-2.23363 3.3586-3.12709C26.1007 1.27317 22.3614 0 18.3983 0c-1.0524 0-2.1271.08935-3.2243.29037C5.18776 2.03261-1.48467 11.5479.2842 21.5323c2.32863 13.1561 23.3311 26.4462 23.3311 26.4462s1.8808-2.457 4.2318-6.1871c.112-.1787.2239-.3798.3583-.5584.0896-.1564.2015-.3128.2911-.4915.2239-.3573.4478-.7371.6717-1.1391.1791-.2904.3582-.6031.5374-.9158.0447-.0893.1119-.1787.1567-.268.112-.1787.2015-.3574.3135-.5361.0671-.1117.1119-.2234.1791-.3351.0896-.1786.1791-.335.2687-.5137.0448-.0893.1119-.1787.1567-.2904.3135-.5807.627-1.1615.918-1.7645.112-.2011.2016-.4021.3135-.6255.0896-.1786.1791-.3797.2687-.5584.2015-.4244.4254-.8711.6269-1.3178 2.5974-5.6735 4.5006-12.017 3.5602-17.3107z"/><path fill="currentColor" d="M43.1624.29037C42.0876.08935 41.0129 0 39.9381 0c-3.1123 0-6.1126.8041-8.7324 2.2113-.1791.08935-.3358.17869-.4926.29037-.1567.08935-.3134.17869-.4478.26804-.1791.11168-.3806.2457-.5597.35738-.1344.08935-.2687.17869-.4031.26804-.0224.02234-.0447.02234-.0671.04467-.1568.11168-.2911.22337-.4479.33505-.1343.11168-.291.22336-.4254.33504-.0224.02234-.0448.04468-.0671.06701-.1344.11168-.2463.20103-.3807.31271-.0224.02234-.0448.04467-.0672.04467-.1343.11169-.2463.22337-.3806.33505-.0224.02234-.0448.04467-.0672.04467-.1119.11168-.2463.22337-.3582.35738l-.0224.02234c-.1344.13402-.2687.26804-.4031.40206v.02233c-.1119.11168-.2015.20103-.291.31271-.1344.15636-.2687.31271-.4031.46906-.0447.06701-.1119.11169-.1567.1787-.0448.067-.112.13401-.1567.20102-.0448.06701-.112.13402-.1568.20103-.0895.11168-.1567.20103-.2463.31271-.0447.06701-.1119.13402-.1567.20103-.0672.08934-.1343.17869-.2015.29037-.1344.17869-.2463.35738-.3807.55841-1.2762 1.98795-2.1942 4.24395-2.6197 6.72325-.9404 5.2937.9628 11.6372 3.5825 17.333 1.0076-1.9432 1.8585-3.8195 2.5302-5.5841-1.6121-4.3779-2.1943-8.1527-1.7017-10.9895.2687-1.5858.8285-3.06 1.5673-4.4002 1.5002-2.6804 3.8736-4.78002 6.6949-5.98618 1.6569-.69243 3.4929-1.09448 5.3961-1.09448.8061 0 1.6345.06701 2.4406.22336 3.6497.64776 6.8516 2.65803 8.9787 5.6958 2.1271 3.0377 2.9556 6.7232 2.3062 10.3641-.7613 4.3109-4.6796 9.8056-11.0386 15.5237-2.4854 2.2337-4.9259 4.1323-6.8068 5.4948-1.1867-1.7869-2.6869-4.1322-4.1199-6.7903-.8284 1.6306-1.7016 3.1941-2.5301 4.6013 2.9108 4.9364 5.5529 8.3762 5.5529 8.3762s21.0472-13.2455 23.3759-26.4016c1.7465-9.9844-4.926-19.49969-14.9122-21.24193z"/></svg>