<svg xmlns="http://www.w3.org/2000/svg" role="img" viewBox="8.16 3.66 641.68 589.18"><title>Crush Covid (Rhode Island) logo</title><defs><style>.cls-5{fill:#fec500}.cls-4{stroke:#fff;fill:#003271;stroke-linejoin:round}</style></defs><g id="Anchor" fill="#fec500" stroke-width="1.5"><path id="Body" stroke="#fec500" d="M325.03024 156.62553s-1.06 118.22-1.06 126.82 0 20.42-9.5 18.27c-9.48-2.15-21.09-2.15-37.97-13.97-16.87-11.82-16.87-13.97-16.87-13.97l15.82-5.38s-15.82-3.22-26.37-10.74c-10.55-7.53-18.99-13.98-18.99-13.98s-1.05 16.13 4.22 27.95c5.28 11.82 15.82 22.57 15.82 22.57v-13.97s14.77 13.97 20.05 17.2c5.27 3.22 26.37 11.82 34.8 17.2 8.44 5.36 23.9043 20.41 23.9043 20.41s16.1857-17.2 26.73572-21.5 24.26-10.74 30.59-15.04 23.2-20.42 23.2-20.42v18.27s11.6-13.97 14.77-23.65c3.17-9.67 4.22-26.87 4.22-26.87s-8.44 6.45-15.82 9.68c-7.39 3.22-28.48 11.82-28.48 11.82l16.87 4.3s-27.42 21.5-36.91 25.8c-17.28641 8.31119-29.54 6.44-29.54-4.3s1.06-136.5 1.06-136.5zm1.05-39.77h7.38v32.24h-7.38z"/><path id="Stock" stroke="#fff" d="M273.35025 149.10553s29.53-6.45 56.95-6.45 55.9 6.44 55.9 6.44v11.83s-37.97 5.37-60.12 5.37-52.73822-6.45-52.73822-6.45z"/><path id="Shackle" fill-rule="evenodd" stroke="#fff" d="M347.1702 143.18553a18.12959 18.12959 0 0 0-4.945-12.54 16.88373 16.88373 0 0 0-5.36563-3.7978c-1.00968-.44827-.83078-.61936-1.92948-.85535l.03229 6.14246c1.32422.65314 1.6322 1.30319 2.6341 2.47069a14.0017 14.0017 0 0 1 3.24374 9.12c0 7.12-4.96 11.7321-11.07 11.7321s-11.07-4.6121-11.07-11.7321a14.00169 14.00169 0 0 1 3.24374-9.12c1.00189-1.1675 1.30987-1.81757 2.63409-2.47069l.03229-6.14246c-1.09866.236-.91977.40706-1.92947.85535a16.88362 16.88362 0 0 0-5.36563 3.7978 18.12959 18.12959 0 0 0-4.945 12.54 17.40322 17.40322 0 1 0 34.79993 0z"/></g><g id="Banner"><path id="path18" d="M426.88025 349.47552s-14.01 12.8-27.72 14.62c-13.71 1.83-35.3 8.27-35.3 8.27s-.57 19.72.1 21.43 1.1 2.16 3.07 2.23a154.72548 154.72548 0 0 0 38.88-3.69c22.13-5.15 43.84-18.47 43.84-18.47-5.06-2.08-17.3-3.91-25.2-5.87zm-41.03 30.45c1.5 4-22.18 7.7-21.89 13.87m-132.34-44.32s14.01 12.8 27.72 14.62c13.71 1.83 35.3 8.27 35.3 8.27s.57 19.72-.1 21.43-1.1 2.16-3.07 2.23a154.72545 154.72545 0 0 1-38.88-3.69c-22.13-5.15-43.84-18.47-43.84-18.47 5.06-2.08 17.3-3.91 25.2-5.87zm41.03 30.45c-1.5 4 22.18 7.7 21.89 13.87" class="cls-4"/><path id="path20" d="M276.51025 379.09552a3.72775 3.72775 0 0 0-3.86.83v-34.16s1.48-1.34 4.06-.21c9.1 3.97 32.56 12.02 52.54 12.02s43.44-8.05 52.54-12.02c2.58-1.13 4.06.2 4.06.2v34.17a3.70515 3.70515 0 0 0-3.86-.83c-9.7 3.01-35.06 10.5-52.74 10.5s-43.04-7.49-52.74-10.49z" class="cls-4"/></g><g id="Stars"><path id="star" d="M329.25024 16.10553l23.5116 72.3608-61.554-44.7216h76.0848l-61.554 44.7216z" class="cls-5"/><g id="half"><path id="star-2" d="M443.09869 44.16421l-12.80623 74.99921-33.723-68.20322 67.37117 35.35566-75.28603 10.99647z" class="cls-5" data-name="star"/><path id="star-3" d="M530.87007 121.91342l-46.19078 60.459 1.83237-76.06286 43.22613 62.61308-71.77379-25.24739z" class="cls-5" data-name="star"/><path id="star-4" d="M572.46551 231.58711l-69.00092 32.0586 36.97958-66.49381 9.167 75.53055-51.81205-55.7174z" class="cls-5" data-name="star"/><path id="star-5" d="M558.32806 347.98679l-75.9958-3.67679 63.64333-41.69465-26.981 71.14017-19.98709-73.41276z" class="cls-5" data-name="star"/><path id="star-6" d="M491.7202 444.48631l-65.5838-38.57 75.72954-7.34528-56.94894 50.45508 16.41594-74.29289z" class="cls-5" data-name="star"/><path id="star-7" d="M387.89857 498.98233l-40.14981-64.62873 70.46986 28.6865-73.87269 18.21325 49.05887-58.15621z" class="cls-5" data-name="star"/></g><g id="half-2" data-name="half"><path id="star-8" d="M215.4018 44.16421l12.8062 74.99921 33.723-68.20322-67.37119 35.35566 75.28608 10.99647z" class="cls-5" data-name="star"/><path id="star-9" d="M127.63041 121.91342l46.19079 60.459-1.83237-76.06286-43.22613 62.61309 71.77384-25.2474z" class="cls-5" data-name="star"/><path id="star-10" d="M86.035 231.58711l69.00092 32.0586-36.97961-66.49381-9.16695 75.53055 51.81205-55.7174z" class="cls-5" data-name="star"/><path id="star-11" d="M100.17243 347.98679l75.9958-3.67678-63.64333-41.69465 26.981 71.14017 19.9871-73.41276z" class="cls-5" data-name="star"/><path id="star-12" d="M166.78029 444.48631l65.5838-38.57-75.72954-7.34531 56.94894 50.45508-16.41594-74.29289z" class="cls-5" data-name="star"/><path id="star-13" d="M270.60191 498.98233l40.14982-64.62873-70.46986 28.6865 73.87269 18.21325-49.05887-58.15621z" class="cls-5" data-name="star"/></g></g><path id="HOPE" d="M362.49792 356.32632c5.63739-1.53479 11.22406-3.25876 16.78913-5.04056q.11251 2.58751.17837 5.18854c-3.53613 1.08868-7.06854 2.1665-10.60589 3.19608q.0135 1.91458.0177 3.83221c3.293-.94678 6.58636-1.93018 9.88769-2.91724q.02729 2.49079.01432 4.99329c-3.31244.955-6.61286 1.91751-9.9101 2.85049q-.012 2.3833-.04059 4.77128c3.64917-1.0163 7.30179-2.05933 10.97144-3.07355q-.06075 2.7988-.17493 5.61316c-5.74707 1.51385-11.46039 3.14526-17.2 4.65139q.12808-12.0579.07291-24.06509zm-25.9952 5.12814c3.60528-.33148 7.19336-.87417 10.75851-1.5523 2.333-.44376 4.06415-.19086 5.21289.83392a4.31964 4.31964 0 0 1 1.01489 1.34982 8.344 8.344 0 0 1 .70911 3.71183 10.88575 10.88575 0 0 1-.71979 4.03912 8.62285 8.62285 0 0 1-1.16388 2.07114 8.77414 8.77414 0 0 1-5.71978 3.18426q-1.75182.30945-3.5159.5686-.01859 4.43647-.08011 8.87861-3.24079.45519-6.50476.7109.15916-11.915.009-23.79587zm6.58346 9.36387q.78973-.11807 1.57709-.24674a4.23311 4.23311 0 0 0 2.60315-1.18863 3.092 3.092 0 0 0 .74472-2.053 2.44211 2.44211 0 0 0-.6557-1.78851c-.43671-.44232-1.25229-.54919-2.45572-.34616q-.91617.15454-1.83505.29526.01845 2.66285.02151 5.32772zm-36.92929.11691c-.01959-3.90048.91611-6.71533 2.80948-8.50357 1.902-1.79636 4.5376-2.36435 7.949-1.89618a12.38409 12.38409 0 0 1 8.09689 3.96164c1.9078 2.208 2.87967 5.16861 2.88129 8.984a15.75747 15.75747 0 0 1-1.26526 6.79226 8.69583 8.69583 0 0 1-3.595 3.95127 9.28534 9.28534 0 0 1-5.7988.89734 12.45566 12.45566 0 0 1-5.84543-2.15558 12.16492 12.16492 0 0 1-3.75958-4.76511 17.11381 17.11381 0 0 1-1.4726-7.26608zm6.40189 1.28393a9.83445 9.83445 0 0 0 1.19488 5.365 4.446 4.446 0 0 0 3.21717 2.03153 3.31412 3.31412 0 0 0 3.22607-1.16638c.76132-.94815 1.13931-2.75394 1.13562-5.40528a8.50933 8.50933 0 0 0-1.21176-5.00241 4.55616 4.55616 0 0 0-3.24213-1.94134 3.2914 3.2914 0 0 0-3.146 1.10528q-1.18377 1.38166-1.17382 5.01358zm-34.1861-21.32373q3.07833 1.1044 6.18439 2.1312-.09962 4.182-.1239 8.395 3.45474 1.09341 6.91534 2.105-.003-4.19041.02881-8.36051 3.14928.935 6.32529 1.77594-.006 11.91692.12924 23.9314-3.18127-.81528-6.34943-1.70773-.07951-4.88751-.11188-9.74787-3.46733-.996-6.93432-2.068.033 4.89515.16647 9.83172-3.14181-.92633-6.27319-1.86511-.51183-12.38319.0433-24.421z" class="cls-5"/><path d="M25.19336 542.66314a13.99129 13.99129 0 0 1 10.44824-4.19629q8.48585 0 12.40918 5.626a12.25877 12.25877 0 0 1 2.32715 6.34082h-7.10254a9.66639 9.66639 0 0 0-1.73926-3.68945 6.99918 6.99918 0 0 0-5.624-2.21289 6.93189 6.93189 0 0 0-5.98731 3.124q-2.18994 3.12451-2.19042 8.84277 0 5.71875 2.31152 8.56641a7.24681 7.24681 0 0 0 5.876 2.84766 6.656 6.656 0 0 0 5.57128-2.44434 10.72953 10.72953 0 0 0 1.75977-3.94238h7.05566a15.3077 15.3077 0 0 1-4.665 9.03906 13.57651 13.57651 0 0 1-9.61523 3.48145q-7.25391 0-11.40625-4.70411-4.15137-4.727-4.15137-12.959-.00008-8.90036 4.72258-13.71971zm44.28906 4.71586q.126.01173.56446.03418v6.7334q-.62256-.06885-1.10645-.09277c-.32324-.01465-.584-.02246-.78418-.02246q-3.9668 0-5.32617 2.582a10.04214 10.04214 0 0 0-.76074 4.47363v12.01367h-6.61817v-25.1338h6.27149v4.38086a13.8991 13.8991 0 0 1 2.65234-3.43554 7.21555 7.21555 0 0 1 4.7959-1.54493c.1231 0 .22656.00391.31152.01176zm10.96387.58785v15.14942a7.96034 7.96034 0 0 0 .50488 3.22851 3.49046 3.49046 0 0 0 3.50977 1.91309 4.58678 4.58678 0 0 0 4.58984-2.7207 9.90077 9.90077 0 0 0 .6416-3.89649v-13.67383h6.66407v25.13379h-6.38672v-3.55078q-.0923.11573-.46.69141a4.59387 4.59387 0 0 1-.874 1.01465 9.10041 9.10041 0 0 1-2.97754 1.89062 10.12844 10.12844 0 0 1-3.36816.50781q-5.56494 0-7.49609-4.01269a15.38357 15.38357 0 0 1-1.08106-6.52539v-15.14942zm27.39355 17.10938a4.37827 4.37827 0 0 0 .9043 2.49023q1.22754 1.314 4.541 1.31446a6.9588 6.9588 0 0 0 3.09277-.57618 1.93126 1.93126 0 0 0 .22363-3.41308q-.92432-.57569-6.876-1.9834-4.2832-1.05908-6.03614-2.65137a5.74918 5.74918 0 0 1-1.75195-4.51953 7.82886 7.82886 0 0 1 2.73828-5.9834q2.7378-2.502 7.70606-2.50195a14.16244 14.16244 0 0 1 7.68359 1.87891q2.96923 1.8794 3.4082 6.49121h-6.57129a3.87936 3.87936 0 0 0-.71679-2.00586 4.51694 4.51694 0 0 0-3.69922-1.33789 5.335 5.335 0 0 0-3.06445.66894 1.92562 1.92562 0 0 0-.91309 1.56836 1.71521 1.71521 0 0 0 .97168 1.63672 42.03787 42.03787 0 0 0 6.86133 1.82129 12.57728 12.57728 0 0 1 5.88672 2.791 6.33048 6.33048 0 0 1 1.9375 4.72656 7.63228 7.63228 0 0 1-2.78418 6.09863q-2.78467 2.36426-8.60645 2.36426-5.93847 0-8.76855-2.50195a8.12943 8.12943 0 0 1-2.83008-6.376zm39.23145-16.9707a7.38461 7.38461 0 0 1 3.11133 2.46972 6.58607 6.58607 0 0 1 1.26269 2.89649 35.97829 35.97829 0 0 1 .22949 4.8584v14.7705h-6.71V557.795a6.78766 6.78766 0 0 0-.68652-3.27734 3.44141 3.44141 0 0 0-3.3877-1.75489 4.64623 4.64623 0 0 0-3.92578 1.74317 8.02658 8.02658 0 0 0-1.33886 4.97461v13.62011h-6.57227v-33.873h6.57233v11.99023a8.047 8.047 0 0 1 3.29394-3.05566 9.28661 9.28661 0 0 1 3.93848-.86426 10.64186 10.64186 0 0 1 4.21287.80756zm27.68071-5.44239a13.99283 13.99283 0 0 1 10.44825-4.19629q8.48583 0 12.41015 5.626a12.27589 12.27589 0 0 1 2.32715 6.34082H192.835a9.69539 9.69539 0 0 0-1.73926-3.68945 7.00262 7.00262 0 0 0-5.625-2.21289 6.93019 6.93019 0 0 0-5.98632 3.124q-2.19141 3.12451-2.19141 8.84277 0 5.71875 2.3125 8.56641a7.24549 7.24549 0 0 0 5.876 2.84766 6.656 6.656 0 0 0 5.57128-2.44434 10.73014 10.73014 0 0 0 1.75879-3.94238h7.05664a15.3131 15.3131 0 0 1-4.665 9.03906 13.57815 13.57815 0 0 1-9.61523 3.48145q-7.25536 0-11.40625-4.70411-4.15137-4.727-4.15137-12.959-.0001-8.90036 4.72163-13.71971zm51.28706 27.36231q-3.18164 3.92871-9.66113 3.92871-6.48047 0-9.66211-3.92871a15.595 15.595 0 0 1 0-18.87988q3.18163-3.98585 9.66211-3.98633 6.479 0 9.66113 3.98633a15.59113 15.59113 0 0 1 0 18.87988zm-5.25683-3.63184a11.73245 11.73245 0 0 0 0-11.63867 5.84032 5.84032 0 0 0-8.86621 0 11.6558 11.6558 0 0 0 0 11.63867 5.82042 5.82042 0 0 0 8.86621 0zm28.62695-18.42676h7.05664l-9.07617 25.13379H240.46l-9.01367-25.13379h7.37891l5.23437 18.53907zm17.53613-2.99804h-6.66406v-6.06446h6.66406zm-6.66406 2.998h6.66406v25.13379h-6.66406zm26.35645.40336a7.98964 7.98964 0 0 1 2.88281 2.77832v-11.99023h6.66308v33.94238h-6.38671v-3.48144a9.27558 9.27558 0 0 1-3.20508 3.251 9.0061 9.0061 0 0 1-4.47364 1.01465 9.33878 9.33878 0 0 1-7.41308-3.5625 13.67723 13.67723 0 0 1-3.00977-9.14258q0-6.43359 2.96289-10.123a9.64024 9.64024 0 0 1 7.9209-3.68946 8.10322 8.10322 0 0 1 4.0586 1.00286zm1.61425 17.90528a9.16819 9.16819 0 0 0 1.45215-5.37305q0-4.61133-2.32812-6.59473a5.01884 5.01884 0 0 0-3.32129-1.19921 4.61282 4.61282 0 0 0-4.23047 2.17968 11.74467 11.74467 0 0 0 .02246 10.97559 4.64094 4.64094 0 0 0 4.16211 2.08691 4.85193 4.85193 0 0 0 4.24321-2.07519zM316.96 545.68951a49.38361 49.38361 0 0 1 5.32617-9.13086h4.958l-1.40625 2.583a38.43209 38.43209 0 0 0-4.03613 11.16016 44.12638 44.12638 0 0 0-.73731 8.34667 39.43767 39.43767 0 0 0 2.05176 12.98243 59.27154 59.27154 0 0 0 4.24317 8.99316h-4.86524l-1.63769-2.2373a29.97278 29.97278 0 0 1-3.38965-6.041 34.40472 34.40472 0 0 1-3.20508-14.1123 31.30564 31.30564 0 0 1 2.69825-12.54396zm36.35445-5.70117a8.39182 8.39182 0 0 1 3.18164 2.375 10.56328 10.56328 0 0 1 1.709 2.85937 9.52671 9.52671 0 0 1 .62988 3.57422 10.18646 10.18646 0 0 1-1.22168 4.76172 6.83133 6.83133 0 0 1-4.03516 3.30859 6.35761 6.35761 0 0 1 3.332 2.68653 11.18485 11.18485 0 0 1 .97949 5.31445v2.2832a17.187 17.187 0 0 0 .1875 3.15918 2.835 2.835 0 0 0 1.31152 1.93653v.85351h-7.83984q-.32373-1.1294-.46094-1.82129a16.66217 16.66217 0 0 1-.2998-2.92871l-.04688-3.15918q-.04248-3.252-1.12305-4.335-1.07958-1.084-4.04589-1.084h-6.93653v13.32812h-6.94043v-33.98822h16.25684a14.79629 14.79629 0 0 1 5.36233.87598zm-14.67871 5.02637v9.13183h7.64356a8.13179 8.13179 0 0 0 3.416-.55371q2.01417-.96827 2.01465-3.82715 0-3.09081-1.94922-4.15136a7.04375 7.04375 0 0 0-3.28418-.59961zm44.53418 3.09082a7.38449 7.38449 0 0 1 3.11133 2.46972 6.58609 6.58609 0 0 1 1.2627 2.89649 35.81459 35.81459 0 0 1 .22949 4.8584v14.7705h-6.71V557.795a6.78765 6.78765 0 0 0-.68653-3.27734 3.44141 3.44141 0 0 0-3.38769-1.75489 4.64621 4.64621 0 0 0-3.92578 1.74317 8.02651 8.02651 0 0 0-1.33887 4.97461v13.62011h-6.57129v-33.873h6.57129v11.99023a8.04309 8.04309 0 0 1 3.29492-3.05566 9.279 9.279 0 0 1 3.9375-.86426 10.64182 10.64182 0 0 1 4.21293.80756zm31.74414 21.91992q-3.18163 3.92871-9.66211 3.92871-6.479 0-9.66113-3.92871a15.59113 15.59113 0 0 1 0-18.87988q3.18163-3.98585 9.66113-3.98633 6.48048 0 9.66211 3.98633a15.595 15.595 0 0 1 0 18.87988zm-5.25781-3.63184a11.73245 11.73245 0 0 0 0-11.63867 5.84032 5.84032 0 0 0-8.86621 0 11.66216 11.66216 0 0 0 0 11.63867 5.82042 5.82042 0 0 0 8.86621 0zm26.47075-18.02344a7.98967 7.98967 0 0 1 2.88282 2.77832v-11.99023h6.66406v33.94238h-6.3877v-3.48144a9.26744 9.26744 0 0 1-3.20508 3.251 9.00606 9.00606 0 0 1-4.47363 1.01465 9.33878 9.33878 0 0 1-7.41308-3.5625 13.68181 13.68181 0 0 1-3.00879-9.14258q0-6.43359 2.96289-10.123a9.63707 9.63707 0 0 1 7.91992-3.68946 8.10316 8.10316 0 0 1 4.05859 1.00286zm1.61426 17.90528a9.16836 9.16836 0 0 0 1.45313-5.37305q0-4.61133-2.32911-6.59473a5.01628 5.01628 0 0 0-3.32031-1.19921 4.61546 4.61546 0 0 0-4.23144 2.17968 11.75208 11.75208 0 0 0 .02246 10.97559 4.642 4.642 0 0 0 4.16211 2.08691 4.85193 4.85193 0 0 0 4.24311-2.07519zm30.28315-17.79981a10.22114 10.22114 0 0 1 4.34278 3.71875 12.35309 12.35309 0 0 1 2.00293 5.19532 32.15987 32.15987 0 0 1 .21679 4.98828h-18.30664q.15381 3.78222 2.62891 5.30371a6.66987 6.66987 0 0 0 3.62305.94531 5.10254 5.10254 0 0 0 5.00195-2.88184h6.709a8.20287 8.20287 0 0 1-2.43554 4.542q-3.37794 3.6665-9.45606 3.667a13.70038 13.70038 0 0 1-8.85351-3.09277q-3.835-3.0923-3.835-10.0625 0-6.53028 3.46191-10.01563a12.11894 12.11894 0 0 1 8.98828-3.48535 14.31188 14.31188 0 0 1 5.91115 1.17772zm-9.832 5.67676a6.83169 6.83169 0 0 0-1.75 3.89063h11.32129a5.48161 5.48161 0 0 0-1.75-3.97168 5.76548 5.76548 0 0 0-3.89844-1.3545 5.21346 5.21346 0 0 0-3.92288 1.43555zm39.84859 18.94824h-7.05664v-33.98828h7.05664zm11.20607-8.02441a4.37853 4.37853 0 0 0 .90332 2.49023q1.22754 1.314 4.541 1.31446a6.953 6.953 0 0 0 3.09277-.57618 1.93126 1.93126 0 0 0 .22363-3.41308q-.92431-.57569-6.875-1.9834-4.28466-1.05908-6.03613-2.65137a5.7464 5.7464 0 0 1-1.75293-4.51953 7.83215 7.83215 0 0 1 2.73828-5.9834q2.7378-2.502 7.707-2.50195a14.16118 14.16118 0 0 1 7.68262 1.87891q2.96924 1.8794 3.40918 6.49121h-6.57227a3.87936 3.87936 0 0 0-.71679-2.00586 4.51694 4.51694 0 0 0-3.69922-1.33789 5.32928 5.32928 0 0 0-3.06348.66894 1.92439 1.92439 0 0 0-.91406 1.56836 1.71521 1.71521 0 0 0 .97168 1.63672 42.07114 42.07114 0 0 0 6.86133 1.82129 12.58125 12.58125 0 0 1 5.88769 2.791 6.33329 6.33329 0 0 1 1.93653 4.72656 7.62933 7.62933 0 0 1-2.78418 6.09863q-2.78467 2.36426-8.60645 2.36426-5.93847 0-8.76855-2.50195a8.13257 8.13257 0 0 1-2.83008-6.376zm27.87793 8.02441h-6.57227v-33.98828h6.57227zm16.36523-15.28808a10.38483 10.38483 0 0 0 2.625-.57617 1.97784 1.97784 0 0 0 1.417-1.86817 2.20918 2.20918 0 0 0-1.08692-2.13281 6.87465 6.87465 0 0 0-3.19043-.58789 4.18916 4.18916 0 0 0-3.34277 1.15332 4.74483 4.74483 0 0 0-.93457 2.30566h-6.34082a9.61171 9.61171 0 0 1 1.85254-5.41894q2.61621-3.3208 8.98535-3.32032a16.0297 16.0297 0 0 1 7.36426 1.63672q3.21972 1.6377 3.21875 6.17969V566.713q0 1.1997.0459 2.90625a3.65341 3.65341 0 0 0 .39257 1.75195 2.34636 2.34636 0 0 0 .96875.76074v.96875h-7.14843a7.22971 7.22971 0 0 1-.415-1.42968q-.11573-.668-.18457-1.52149a13.56684 13.56684 0 0 1-3.1543 2.5127 9.52735 9.52735 0 0 1-4.82422 1.22265 8.32424 8.32424 0 0 1-5.6709-1.94824 6.92962 6.92962 0 0 1-2.23828-5.52344 7.156 7.156 0 0 1 3.60059-6.71 16.09039 16.09039 0 0 1 5.80761-1.61426zm4.01856 3.06738a7.30162 7.30162 0 0 1-1.27441.63379 10.74053 10.74053 0 0 1-1.76465.44922l-1.49512.27734a9.844 9.844 0 0 0-3.02149.89942 2.99929 2.99929 0 0 0-1.55175 2.79 2.914 2.914 0 0 0 .94824 2.43262 3.60523 3.60523 0 0 0 2.30566.749 6.86819 6.86819 0 0 0 3.96875-1.24512q1.81494-1.24512 1.88477-4.543zm32.55762-11.47168q2.46825 2.04052 2.46875 6.76758v16.9248h-6.7334v-15.28808a7.01855 7.01855 0 0 0-.52637-3.04395 3.69693 3.69693 0 0 0-3.66211-1.93652 4.54042 4.54042 0 0 0-4.55566 2.83594 9.8204 9.8204 0 0 0-.64063 3.82812v13.60449h-6.57129v-25.08789h6.3643v3.666a11.13582 11.13582 0 0 1 2.3877-2.79 8.27228 8.27228 0 0 1 5.12011-1.52149 9.62908 9.62908 0 0 1 6.3486 2.041zm21.90625-1.03809a7.98964 7.98964 0 0 1 2.88281 2.77832v-11.99023h6.66406v33.94238h-6.38769v-3.48144a9.26744 9.26744 0 0 1-3.20508 3.251 9.0061 9.0061 0 0 1-4.47364 1.01465 9.33878 9.33878 0 0 1-7.41308-3.5625 13.68181 13.68181 0 0 1-3.00879-9.14258q0-6.43359 2.96289-10.123a9.63709 9.63709 0 0 1 7.91992-3.68946 8.10322 8.10322 0 0 1 4.0586 1.00286zm1.61425 17.90528a9.16836 9.16836 0 0 0 1.45309-5.37305q0-4.61133-2.3291-6.59473a5.01633 5.01633 0 0 0-3.32032-1.19921 4.61546 4.61546 0 0 0-4.23144 2.17968 11.75216 11.75216 0 0 0 .02246 10.97559 4.642 4.642 0 0 0 4.16211 2.08691 4.85193 4.85193 0 0 0 4.2432-2.07519zM635.29 545.68951a31.34834 31.34834 0 0 1 2.69336 12.54395 34.45744 34.45744 0 0 1-3.19922 14.1123 29.99883 29.99883 0 0 1-3.38379 6.041l-1.63477 2.2373h-4.85644a59.40817 59.40817 0 0 0 4.22754-8.99316 39.59231 39.59231 0 0 0 2.04394-12.98243 44.37855 44.37855 0 0 0-.73437-8.34667 38.56576 38.56576 0 0 0-4.02051-11.16016l-1.40137-2.583h4.94825a49.40944 49.40944 0 0 1 5.31738 9.13087z"/></svg>