<svg xmlns="http://www.w3.org/2000/svg" role="img" viewBox="-18.52 -19.02 937.04 766.54"><title>Cyprus (CovTracer) logo</title><path fill="#3044b5" d="M-.486-.9h901.118v120.149H-.486z" data-name="blue field"/><path fill="#fff" d="M-.486 119.249h901.118v360.447H-.486z" data-name="white fields"/><path fill="#ffc61e" d="M-.486 149.286h901.118v300.373H-.486z" data-name="yellow field"/><path fill="#d81e05" d="M-.486 479.696h901.118v120.149H-.486z" data-name="red field"/><path d="M134.92278 669.81934a20.7387 20.7387 0 0 1 15.48633-6.22071q12.58008 0 18.39649 8.33985a18.18705 18.18705 0 0 1 3.44824 9.39941h-10.52735a14.3364 14.3364 0 0 0-2.5791-5.46875q-2.8125-3.28125-8.33593-3.28125a10.2759 10.2759 0 0 0-8.875 4.63086q-3.2461 4.63184-3.24708 13.1084 0 8.47706 3.42676 12.69726a10.7394 10.7394 0 0 0 8.709 4.22168q5.417 0 8.25976-3.623a15.91783 15.91783 0 0 0 2.60742-5.84473h10.459a22.69787 22.69787 0 0 1-6.915 13.39844q-5.562 5.16065-14.25293 5.16113-10.752 0-16.90625-6.97266-6.15528-7.00633-6.1543-19.209-.00006-13.19387 6.99994-20.33693zm46.42285 52.26074l1.23047.06836a15.47646 15.47646 0 0 0 2.73438-.10254 4.91289 4.91289 0 0 0 2.1875-.78613 5.26282 5.26282 0 0 0 1.58887-2.42676 5.84471 5.84471 0 0 0 .63281-2.25586l-13.68945-38.89649h10.83593l8.13477 27.48047 7.68945-27.48047h10.35742l-12.77343 36.64063q-3.70167 10.59522-5.85743 13.1416-2.15625 2.5459-8.623 2.54688-1.30078 0-2.08789-.01758-.78663-.01758-2.36036-.11914zm68.792-40.40039q4.55712 4.81933 4.55761 14.15039 0 9.84375-4.45507 15.00488a14.46127 14.46127 0 0 1-11.47266 5.16113 12.03261 12.03261 0 0 1-7.43066-2.22168 14.35292 14.35292 0 0 1-3.165-3.58886v19.41406h-9.63868v-51.91895h9.33106v5.50293a15.64823 15.64823 0 0 1 3.37109-3.82812 12.43764 12.43764 0 0 1 7.77344-2.49512 14.73452 14.73452 0 0 1 11.12887 4.81934zm-7.47657 7.00683q-1.98631-3.31494-6.43945-3.31543a7.3249 7.3249 0 0 0-7.35547 5.02442 18.86171 18.86171 0 0 0-1.03613 6.76758q0 6.49365 3.48535 9.126a7.99736 7.99736 0 0 0 4.9043 1.53809 7.12845 7.12845 0 0 0 6.26758-3.14453 16.46817 16.46817 0 0 0 .17382-15.9961zm39.59961-11.87793q.1875.01758.83789.05176v9.98047q-.92284-.10254-1.64062-.13672-.71778-.03369-1.16211-.03418-5.87988 0-7.89551 3.82813a14.89115 14.89115 0 0 0-1.12793 6.63086v17.80761h-9.80957v-37.25586h9.29688v6.49414a20.57955 20.57955 0 0 1 3.93066-5.09277 10.70041 10.70041 0 0 1 7.10938-2.29c.18164-.00003.33593.00582.46093.01656zm16.25293.87207v22.45606a11.80526 11.80526 0 0 0 .748 4.78516q1.32716 2.8374 5.2041 2.83691 4.96436 0 6.80176-4.0332a14.68368 14.68368 0 0 0 .95215-5.77637v-20.26856h9.87793v37.25586h-9.46778v-5.26367q-.13623.17139-.68164 1.02539a6.84485 6.84485 0 0 1-1.29492 1.50391 13.51918 13.51918 0 0 1-4.41406 2.80273 15.00848 15.00848 0 0 1-4.99316.752q-8.24855 0-11.11133-5.94727-1.60108-3.28125-1.60157-9.67285v-22.4561zm40.60547 25.36134a6.49807 6.49807 0 0 0 1.33887 3.69141q1.8208 1.94825 6.73242 1.94824a10.306 10.306 0 0 0 4.584-.85449 2.86258 2.86258 0 0 0 .331-5.0586q-1.36963-.854-10.19043-2.93945-6.35155-1.57178-8.94824-3.93066a8.52277 8.52277 0 0 1-2.59766-6.69922 11.61014 11.61014 0 0 1 4.0586-8.87012q4.05908-3.70752 11.42382-3.708 6.98731 0 11.38868 2.78516 4.40186 2.78613 5.05273 9.62207h-9.74121a5.751 5.751 0 0 0-1.0625-2.97363q-1.61133-1.98194-5.48438-1.98242a7.89268 7.89268 0 0 0-4.541.99121 2.85185 2.85185 0 0 0-1.35352 2.32422 2.54227 2.54227 0 0 0 1.43946 2.42675q1.43847.78663 10.17089 2.7002 5.81984 1.3667 8.72657 4.13574a9.38922 9.38922 0 0 1 2.87109 7.00684 11.31142 11.31142 0 0 1-4.12695 9.04q-4.12794 3.50389-12.75684 3.5039-8.80371 0-12.998-3.709a12.05255 12.05255 0 0 1-4.19532-9.4502zm53.32031-25.77149a73.25408 73.25408 0 0 1 7.89551-13.53516h7.34864l-2.085 3.82813a56.99448 56.99448 0 0 0-5.98144 16.543 65.41849 65.41849 0 0 0-1.09375 12.373 58.45208 58.45208 0 0 0 3.042 19.24317 87.81034 87.81034 0 0 0 6.28906 13.33007h-7.21191l-2.42676-3.31543a44.4405 44.4405 0 0 1-5.02441-8.95507 51.00907 51.00907 0 0 1-4.751-20.918 46.4005 46.4005 0 0 1 3.99906-18.59371zm26.41407-7.45117a20.73935 20.73935 0 0 1 15.4873-6.22071q12.57861 0 18.39453 8.33985a18.18007 18.18007 0 0 1 3.44922 9.39941h-10.52734a14.35105 14.35105 0 0 0-2.57813-5.46875q-2.8125-3.28125-8.33789-3.28125a10.27258 10.27258 0 0 0-8.873 4.63086q-3.249 4.63184-3.24805 13.1084 0 8.47706 3.42773 12.69726a10.73808 10.73808 0 0 0 8.709 4.22168q5.41552 0 8.25781-3.623a15.8853 15.8853 0 0 0 2.6084-5.84473h10.459a22.69247 22.69247 0 0 1-6.915 13.39844q-5.56347 5.16065-14.252 5.16113-10.75341 0-16.9082-6.97266-6.15234-7.00633-6.15332-19.209-.00006-13.19387 6.99994-20.33693zm76.02246 40.55957q-4.71679 5.82129-14.32129 5.82226-9.605 0-14.32129-5.82226a23.11486 23.11486 0 0 1 0-27.98633q4.71679-5.90772 14.32129-5.9082 9.605 0 14.32129 5.9082a23.11486 23.11486 0 0 1 0 27.98633zm-7.793-5.38379q2.28955-3.03809 2.29-8.63574 0-5.59717-2.29-8.61719a8.65835 8.65835 0 0 0-13.14258 0q-2.30566 3.0205-2.30664 8.61719 0 5.59863 2.30664 8.63574a8.62758 8.62758 0 0 0 13.14258 0zm42.43362-27.31446h10.459l-13.45313 37.25586h-10.27149l-13.35938-37.25586H513.829l7.75782 27.48047zm53.37207-13.125v8.9209h-15.07324v41.46h-10.5957v-41.46h-15.1416v-8.9209zm22.2334 12.25293q.1875.01758.83789.05176v9.98047q-.92284-.10254-1.64062-.13672-.71778-.03369-1.16211-.03418-5.87988 0-7.89551 3.82813a14.89115 14.89115 0 0 0-1.12793 6.63086v17.80761h-9.80957v-37.25586h9.29685v6.49414a20.57955 20.57955 0 0 1 3.93066-5.09277 10.7004 10.7004 0 0 1 7.10937-2.29c.18168-.00003.33597.00582.46097.01656zm21.30176 15.4668a15.39294 15.39294 0 0 0 3.89062-.85449 2.93165 2.93165 0 0 0 2.10059-2.76856 3.27414 3.27414 0 0 0-1.61133-3.16211 10.18229 10.18229 0 0 0-4.72851-.87109q-3.49951 0-4.95508 1.709a7.04077 7.04077 0 0 0-1.38574 3.418h-9.39942a14.24835 14.24835 0 0 1 2.7461-8.03222q3.87889-4.92187 13.31933-4.92188a23.74187 23.74187 0 0 1 10.916 2.42676q4.771 2.42724 4.77148 9.16016v17.08984q0 1.77686.06836 4.30664a5.41121 5.41121 0 0 0 .58106 2.59766 3.47853 3.47853 0 0 0 1.43554 1.12793v1.43554h-10.5957a10.75418 10.75418 0 0 1-.61523-2.11914q-.17139-.99169-.27344-2.25586a20.109 20.109 0 0 1-4.67578 3.72559 14.13376 14.13376 0 0 1-7.15039 1.81152A12.3386 12.3386 0 0 1 612.456 713.21q-3.31788-2.8872-3.31739-8.18555 0-6.8701 5.33692-9.94629a23.83426 23.83426 0 0 1 8.6084-2.39257zm5.95605 4.5459a10.727 10.727 0 0 1-1.88867.93945 15.91723 15.91723 0 0 1-2.61523.667l-2.2168.41016a14.56147 14.56147 0 0 0-4.47851 1.333 4.45063 4.45063 0 0 0-2.30079 4.13574 4.31935 4.31935 0 0 0 1.40625 3.60547 5.33513 5.33513 0 0 0 3.418 1.11133 10.18008 10.18008 0 0 0 5.88282-1.84571q2.68944-1.84569 2.793-6.73339zm40.50391-5.77637a8.62851 8.62851 0 0 0-1.4043-3.75976 5.89814 5.89814 0 0 0-5.10546-2.25586q-4.93361 0-6.75 4.88769a20.28775 20.28775 0 0 0-.959 6.88672 18.65644 18.65644 0 0 0 .959 6.58008 6.51489 6.51489 0 0 0 6.57812 4.64844q3.42774 0 4.86523-1.84571a9.16329 9.16329 0 0 0 1.74805-4.78515h9.94629a16.29211 16.29211 0 0 1-3.21582 8.4082q-4.585 6.39111-13.583 6.3916-8.99853 0-13.24121-5.332-4.24218-5.332-4.24219-13.82715 0-9.58593 4.6875-14.918 4.686-5.332 12.93262-5.332 7.01367 0 11.47852 3.14453 4.46484 3.145 5.28613 11.1084zm40.92285-12.61035a15.16789 15.16789 0 0 1 6.43848 5.51172 18.32339 18.32339 0 0 1 2.96777 7.70215 47.57847 47.57847 0 0 1 .32129 7.39453h-27.13476q.227 5.606 3.89648 7.86133a9.89057 9.89057 0 0 0 5.37109 1.40136 7.56554 7.56554 0 0 0 7.41308-4.27246h9.94531a12.16747 12.16747 0 0 1-3.61133 6.7334q-5.00536 5.43457-14.0166 5.43457a20.31209 20.31209 0 0 1-13.123-4.584q-5.68361-4.58351-5.68457-14.916 0-9.67968 5.13183-14.8457 5.13282-5.16651 13.32324-5.166a21.22178 21.22178 0 0 1 8.76169 1.7451zm-14.57324 8.416a10.11886 10.11886 0 0 0-2.59473 5.7666h16.78223a8.12646 8.12646 0 0 0-2.5957-5.88672 8.53585 8.53585 0 0 0-5.77735-2.00879 7.72654 7.72654 0 0 0-5.81445 2.12893zm49.92188-10.04198q.1875.01758.83789.05176v9.98047q-.92286-.10254-1.64063-.13672-.71777-.03369-1.16211-.03418-5.87988 0-7.89551 3.82813a14.89115 14.89115 0 0 0-1.12793 6.63086v17.80761h-9.80957v-37.25586h9.29688v6.49414a20.5798 20.5798 0 0 1 3.93066-5.09277 10.70043 10.70043 0 0 1 7.10938-2.29c.18164-.00003.33594.00582.46094.01656zm18.10546.46192a46.47333 46.47333 0 0 1 3.99219 18.59375 51.08793 51.08793 0 0 1-4.74219 20.918 44.57477 44.57477 0 0 1-5.01562 8.95507l-2.42285 3.31543h-7.1992a88.08347 88.08347 0 0 0 6.2666-13.33007 58.684 58.684 0 0 0 3.03027-19.24317 65.75795 65.75795 0 0 0-1.08886-12.373 57.17117 57.17117 0 0 0-5.96-16.543l-2.07715-3.82813h7.33593a73.33211 73.33211 0 0 1 7.88088 13.53512z"/></svg>