<svg xmlns="http://www.w3.org/2000/svg" role="img" viewBox="-17.99 -17.99 935.48 766.98"><title>Czech Republic (eRouška) logo</title><path fill="#d7141a" d="M0 0h900v600H0z"/><path fill="#fff" d="M0 0h900v300H0z"/><path fill="#11457e" d="M450 300L0 0v600z"/><path d="M23.58131 671.37012a20.73936 20.73936 0 0 1 15.4873-6.22071q12.57861 0 18.39453 8.33985a18.18 18.18 0 0 1 3.44922 9.39941H50.385a14.35105 14.35105 0 0 0-2.57813-5.46875q-2.8125-3.28125-8.33789-3.28125a10.27258 10.27258 0 0 0-8.873 4.63086q-3.249 4.63184-3.24805 13.1084 0 8.47706 3.42773 12.69727a10.73811 10.73811 0 0 0 8.709 4.22168q5.41552 0 8.25781-3.62305a15.8853 15.8853 0 0 0 2.6084-5.84473h10.459a22.69247 22.69247 0 0 1-6.915 13.39844q-5.56347 5.16065-14.25195 5.16113-10.75341 0-16.9082-6.97265-6.15234-7.00635-6.15332-19.209-.00009-13.19384 6.99991-20.3369zm42.83398 15.79101v-7.92968h29.46289v8.10055l-18.28027 21.15726H96.5276v7.998H65.11646v-7.58789l18.46778-21.73828zm61.39649-7.17578a15.16792 15.16792 0 0 1 6.43847 5.51172 18.32353 18.32353 0 0 1 2.96778 7.70215 47.57973 47.57973 0 0 1 .32129 7.39453h-27.13477q.22706 5.606 3.89648 7.86133a9.89064 9.89064 0 0 0 5.3711 1.40137 7.56556 7.56556 0 0 0 7.41308-4.27247h9.94532a12.1675 12.1675 0 0 1-3.61133 6.7334q-5.00538 5.43457-14.0166 5.43457a20.31214 20.31214 0 0 1-13.12305-4.584q-5.68359-4.5835-5.68457-14.916 0-9.67968 5.13184-14.8457 5.1328-5.16651 13.32324-5.166a21.222 21.222 0 0 1 8.76172 1.7451zm-14.57325 8.416a10.11879 10.11879 0 0 0-2.59472 5.7666H127.426a8.12646 8.12646 0 0 0-2.5957-5.88672 8.53581 8.53581 0 0 0-5.77734-2.00879 7.72658 7.72658 0 0 0-5.81443 2.12893zm51.51172 4.19435a8.6285 8.6285 0 0 0-1.40429-3.75976 5.89817 5.89817 0 0 0-5.10547-2.25586q-4.93359 0-6.75 4.88769a20.28775 20.28775 0 0 0-.959 6.88672 18.65644 18.65644 0 0 0 .959 6.58008 6.5149 6.5149 0 0 0 6.57812 4.64844q3.42774 0 4.86524-1.84571a9.16325 9.16325 0 0 0 1.748-4.78515h9.94629a16.292 16.292 0 0 1-3.21582 8.4082q-4.585 6.39111-13.583 6.3916-8.99853 0-13.24121-5.332-4.24218-5.332-4.24218-13.82715 0-9.58593 4.6875-14.918 4.686-5.332 12.93261-5.332 7.01367 0 11.47852 3.14453 4.46484 3.145 5.28613 11.1084zm43.41993-13.1582a10.92878 10.92878 0 0 1 4.6123 3.66016 9.76863 9.76863 0 0 1 1.87109 4.29394 53.0003 53.0003 0 0 1 .34082 7.20117v21.89453h-9.94629v-22.68652a10.047 10.047 0 0 0-1.01855-4.85937q-1.32276-2.6001-5.02051-2.60059a6.88964 6.88964 0 0 0-5.81933 2.584q-1.98487 2.58252-1.98438 7.37305v20.18943h-9.74121v-50.21h9.74121v17.77344a11.9156 11.9156 0 0 1 4.88281-4.5293 13.75617 13.75617 0 0 1 5.83789-1.28125 15.76673 15.76673 0 0 1 6.24415 1.19731zm68.50488-12.03223a12.447 12.447 0 0 1 4.71582 3.52051 15.67582 15.67582 0 0 1 2.5332 4.23828 14.12854 14.12854 0 0 1 .9336 5.29785 15.08727 15.08727 0 0 1-1.81153 7.05762 10.12546 10.12546 0 0 1-5.98144 4.90527 9.41325 9.41325 0 0 1 4.93945 3.98145q1.45165 2.58105 1.45215 7.87891v3.38384a25.43353 25.43353 0 0 0 .27832 4.68261 4.20171 4.20171 0 0 0 1.94336 2.8711v1.26464h-11.6211q-.479-1.67431-.68359-2.70019a24.77825 24.77825 0 0 1-.44434-4.34082l-.06836-4.68262q-.06591-4.81934-1.665-6.42578-1.60109-1.60694-5.998-1.60644h-10.28133v19.7558h-10.28809v-50.38085h24.09766a21.93949 21.93949 0 0 1 7.94922 1.29882zm-21.75879 7.45118v13.53515h11.33008a12.0571 12.0571 0 0 0 5.06347-.82031q2.98682-1.43555 2.98633-5.67383 0-4.58057-2.88965-6.15234a10.43465 10.43465 0 0 0-4.86914-.88867zm63.51562 5.1289a15.15967 15.15967 0 0 1 6.4375 5.51172 18.31154 18.31154 0 0 1 2.96875 7.70215 47.60377 47.60377 0 0 1 .32032 7.39453h-27.13379q.227 5.606 3.89551 7.86133a9.89525 9.89525 0 0 0 5.37109 1.40137 7.56573 7.56573 0 0 0 7.41406-4.27247h9.94531a12.16125 12.16125 0 0 1-3.61132 6.7334q-5.00683 5.43457-14.01563 5.43457a20.30649 20.30649 0 0 1-13.123-4.584q-5.68652-4.5835-5.68554-14.916 0-9.67968 5.13281-14.8457 5.13135-5.16651 13.32227-5.166a21.22193 21.22193 0 0 1 8.76166 1.7451zm-14.57226 8.416a10.11957 10.11957 0 0 0-2.5957 5.7666h16.78222a8.12586 8.12586 0 0 0-2.59472-5.88672 8.53585 8.53585 0 0 0-5.77735-2.00879 7.72208 7.72208 0 0 0-5.81445 2.12893zm60.55664-5.17088q4.55712 4.81934 4.55762 14.15039 0 9.84375-4.45508 15.00488a14.46128 14.46128 0 0 1-11.47266 5.16114 12.0327 12.0327 0 0 1-7.43066-2.22168 14.35336 14.35336 0 0 1-3.165-3.58887v19.41406h-9.63867v-51.91894h9.33105v5.50293a15.64813 15.64813 0 0 1 3.3711-3.82813 12.43761 12.43761 0 0 1 7.77343-2.49512 14.73451 14.73451 0 0 1 11.12887 4.81934zm-7.47656 7.00683q-1.98633-3.31494-6.43946-3.31542a7.3249 7.3249 0 0 0-7.35547 5.02441 18.86171 18.86171 0 0 0-1.03613 6.76758q0 6.49365 3.48535 9.126a7.99736 7.99736 0 0 0 4.9043 1.53809 7.12843 7.12843 0 0 0 6.26758-3.14453 16.46821 16.46821 0 0 0 .17383-15.9961zm28.61129-11.00585v22.45605a11.8221 11.8221 0 0 0 .748 4.78516q1.32716 2.8374 5.20313 2.83691 4.96581 0 6.80273-4.0332a14.66587 14.66587 0 0 0 .95215-5.77637v-20.26855h9.87799v37.25585h-9.46777v-5.26367q-.13623.17139-.68165 1.02539a6.84485 6.84485 0 0 1-1.29492 1.50391 13.51918 13.51918 0 0 1-4.41406 2.80273 15.0166 15.0166 0 0 1-4.99316.752q-8.24855 0-11.11133-5.94727-1.60254-3.28125-1.60156-9.67285v-22.45609zm64.86332 4.47755q4.1792 5.29835 4.17968 13.67188 0 8.68214-4.123 14.38965a14.96541 14.96541 0 0 1-18.96387 3.8623 14.8375 14.8375 0 0 1-3.6416-3.82812v4.68261H418.261V666.1748h9.74121v17.9102a14.25512 14.25512 0 0 1 4.09375-3.96484 12.21684 12.21684 0 0 1 6.74218-1.709q7.396-.00003 11.57618 5.29784zm-8.14258 22.69532a13.80574 13.80574 0 0 0 2.10254-7.99805 17.88868 17.88868 0 0 0-1.03418-6.5625 7.19829 7.19829 0 0 0-7.23633-4.92187 7.30772 7.30772 0 0 0-7.34082 4.81933 17.92653 17.92653 0 0 0-1.03418 6.63086 13.80141 13.80141 0 0 0 2.13672 7.92969 7.33543 7.33543 0 0 0 6.51367 3.14453 6.756 6.756 0 0 0 5.89258-3.04201zm29.03613 10.08298h-9.74121v-50.38085h9.74121zm19.5166-41.69921h-9.87793v-8.98926h9.87793zm-9.87793 4.44336h9.87793v37.25585h-9.87793zm41.59668 13.36425a8.62862 8.62862 0 0 0-1.40429-3.75976 5.89817 5.89817 0 0 0-5.10547-2.25586q-4.93361 0-6.75 4.88769a20.28775 20.28775 0 0 0-.959 6.88672 18.65644 18.65644 0 0 0 .959 6.58008 6.5149 6.5149 0 0 0 6.57812 4.64844q3.42774 0 4.86524-1.84571a9.16333 9.16333 0 0 0 1.748-4.78515h9.94629a16.292 16.292 0 0 1-3.21582 8.4082q-4.585 6.39111-13.583 6.3916-8.99853 0-13.24121-5.332-4.24218-5.332-4.24218-13.82715 0-9.58593 4.6875-14.918 4.686-5.332 12.93261-5.332 7.01367 0 11.47852 3.14453 4.46484 3.145 5.28613 11.1084zm38.58887-13.77441a73.25327 73.25327 0 0 1 7.89551-13.53516h7.34863l-2.085 3.82813a56.9945 56.9945 0 0 0-5.98145 16.543 65.41849 65.41849 0 0 0-1.09375 12.373 58.45208 58.45208 0 0 0 3.042 19.24317 87.81082 87.81082 0 0 0 6.28906 13.33008h-7.21192l-2.42675-3.31543a44.44087 44.44087 0 0 1-5.02442-8.95508 51.00906 51.00906 0 0 1-4.751-20.918 46.40036 46.40036 0 0 1 3.99909-18.59371zm45.09277 1.16406a15.15967 15.15967 0 0 1 6.4375 5.51172 18.31154 18.31154 0 0 1 2.96875 7.70215 47.60377 47.60377 0 0 1 .32032 7.39453h-27.13379q.227 5.606 3.8955 7.86133a9.89528 9.89528 0 0 0 5.3711 1.40137 7.56573 7.56573 0 0 0 7.41406-4.27247h9.94531a12.16127 12.16127 0 0 1-3.61133 6.7334q-5.00684 5.43457-14.01562 5.43457a20.30649 20.30649 0 0 1-13.123-4.584q-5.68652-4.5835-5.68554-14.916 0-9.67968 5.13281-14.8457 5.13135-5.16651 13.32226-5.166a21.22194 21.22194 0 0 1 8.76167 1.7451zm-14.57226 8.416a10.11958 10.11958 0 0 0-2.59571 5.7666h16.78223a8.12583 8.12583 0 0 0-2.59473-5.88672 8.53581 8.53581 0 0 0-5.77734-2.00879 7.72208 7.72208 0 0 0-5.81445 2.12893zm62.29785-20.99608a12.447 12.447 0 0 1 4.71582 3.52051 15.67556 15.67556 0 0 1 2.5332 4.23828 14.12854 14.12854 0 0 1 .9336 5.29785 15.08727 15.08727 0 0 1-1.81153 7.05762 10.12546 10.12546 0 0 1-5.98144 4.90527 9.41325 9.41325 0 0 1 4.93945 3.98145q1.45165 2.58105 1.45215 7.87891v3.38384a25.43353 25.43353 0 0 0 .27832 4.68261 4.20171 4.20171 0 0 0 1.94336 2.8711v1.26464h-11.6211q-.479-1.67431-.68359-2.70019a24.77825 24.77825 0 0 1-.44434-4.34082l-.06835-4.68262q-.06592-4.81934-1.665-6.42578-1.60109-1.60694-5.99805-1.60644h-10.28129v19.7558h-10.28809v-50.38085h24.09766a21.93949 21.93949 0 0 1 7.94922 1.29882zm-21.75879 7.45118v13.53515h11.33008a12.0571 12.0571 0 0 0 5.06347-.82031q2.98683-1.43555 2.98633-5.67383 0-4.58057-2.88965-6.15234a10.43465 10.43465 0 0 0-4.86914-.88867zm70.30762 37.07324q-4.7168 5.82129-14.32129 5.82226-9.605 0-14.32129-5.82226a23.11486 23.11486 0 0 1 0-27.98633q4.71679-5.90772 14.32129-5.9082 9.60351 0 14.32129 5.9082a23.1149 23.1149 0 0 1 0 27.98633zm-7.793-5.38379q2.28955-3.03809 2.29-8.63574 0-5.59717-2.29-8.61719a8.65729 8.65729 0 0 0-13.1416 0q-2.30861 3.02051-2.30762 8.61719 0 5.59863 2.30762 8.63574a8.62652 8.62652 0 0 0 13.1416 0zm29.18948-27.31445v22.45605a11.80508 11.80508 0 0 0 .74805 4.78516q1.32714 2.8374 5.2041 2.83691 4.96436 0 6.80176-4.0332a14.68368 14.68368 0 0 0 .95215-5.77637v-20.26855h9.87793v37.25585H738.012v-5.26367q-.13623.17139-.68164 1.02539a6.84485 6.84485 0 0 1-1.29492 1.50391 13.51918 13.51918 0 0 1-4.41406 2.80273 15.00854 15.00854 0 0 1-4.99317.752q-8.24853 0-11.11133-5.94727-1.60107-3.28125-1.60156-9.67285v-22.45609zm40.60547 25.36132a6.498 6.498 0 0 0 1.33887 3.69141q1.82079 1.94824 6.73242 1.94824a10.30582 10.30582 0 0 0 4.584-.85449 2.86257 2.86257 0 0 0 .33106-5.05859q-1.36964-.854-10.19043-2.93946-6.35157-1.57177-8.94824-3.93066a8.52277 8.52277 0 0 1-2.59766-6.69922 11.61016 11.61016 0 0 1 4.05859-8.87012q4.05909-3.70752 11.42383-3.708 6.9873 0 11.38867 2.78515 4.40186 2.78613 5.05274 9.62207h-9.74121a5.751 5.751 0 0 0-1.0625-2.97363q-1.61133-1.98194-5.48438-1.98242a7.89268 7.89268 0 0 0-4.541.99121 2.85183 2.85183 0 0 0-1.35352 2.32422 2.54226 2.54226 0 0 0 1.43945 2.42675q1.43849.78663 10.1709 2.7002 5.81983 1.36669 8.72656 4.13574a9.38921 9.38921 0 0 1 2.8711 7.00684 11.3114 11.3114 0 0 1-4.127 9.04q-4.12794 3.50389-12.75684 3.5039-8.80371 0-12.998-3.709a12.05257 12.05257 0 0 1-4.19531-9.4502zm3.11035-30.38574l-8.03223-10.21973h7.92965l4.47754 5.77637 4.44336-5.77637h7.92969l-7.99801 10.2197zm28.16406-7.92969h9.57036v27.17774l12.28711-14.05274h12.11328l-13.35352 13.87891L830.263 716.4873h-11.85552l-9.02637-15.918-4.03515 4.19433v11.72367h-9.57032zm53.78907 27.54883a15.40373 15.40373 0 0 0 3.89062-.85449 2.93165 2.93165 0 0 0 2.10059-2.76856 3.27411 3.27411 0 0 0-1.61133-3.1621 10.18118 10.18118 0 0 0-4.72949-.8711q-3.498 0-4.9541 1.709a7.05 7.05 0 0 0-1.38575 3.418h-9.39941a14.2556 14.2556 0 0 1 2.74609-8.03223q3.87891-4.92187 13.31934-4.92188a23.74753 23.74753 0 0 1 10.916 2.42676q4.77247 2.42725 4.77149 9.16016v17.08984q0 1.77686.06836 4.30664a5.41136 5.41136 0 0 0 .58105 2.59766 3.49136 3.49136 0 0 0 1.43555 1.12793v1.43554H856.718a10.88879 10.88879 0 0 1-.61524-2.11914q-.17139-.99169-.27344-2.25586a20.12918 20.12918 0 0 1-4.67578 3.72559 14.13477 14.13477 0 0 1-7.15136 1.81152 12.33607 12.33607 0 0 1-8.40528-2.88867q-3.31786-2.8872-3.31738-8.18554 0-6.87012 5.33691-9.94629a23.84036 23.84036 0 0 1 8.6084-2.39258zm5.957 4.5459a10.827 10.827 0 0 1-1.88867.93945 15.98731 15.98731 0 0 1-2.61622.667l-2.21777.41015a14.5551 14.5551 0 0 0-4.47656 1.333 4.4479 4.4479 0 0 0-2.30176 4.13574 4.31894 4.31894 0 0 0 1.40527 3.60547 5.33977 5.33977 0 0 0 3.41895 1.11133 10.18231 10.18231 0 0 0 5.88281-1.8457q2.68945-1.8457 2.79395-6.7334zm29.77737-19.55078a46.47353 46.47353 0 0 1 3.99219 18.59375 51.08809 51.08809 0 0 1-4.74219 20.918 44.57519 44.57519 0 0 1-5.01562 8.95508l-2.42286 3.31543h-7.19921a88.084 88.084 0 0 0 6.2666-13.33008 58.684 58.684 0 0 0 3.03027-19.24317 65.75708 65.75708 0 0 0-1.08887-12.373 57.17117 57.17117 0 0 0-5.96-16.543l-2.07715-3.82813h7.33594a73.333 73.333 0 0 1 7.8809 13.53512z"/></svg>