<svg xmlns="http://www.w3.org/2000/svg" role="img" viewBox="-17.99 -17.99 935.48 765.98"><title>Czech Republic (eRouška) logo</title><path d="M36.06373 677.23145a15.64791 15.64791 0 0 1 6.65039 5.69335 18.91243 18.91243 0 0 1 3.06641 7.95606 49.07154 49.07154 0 0 1 .332 7.63769H18.08326q.23291 5.79054 4.02442 8.1211a10.22122 10.22122 0 0 0 5.54785 1.44726 7.81767 7.81767 0 0 0 7.6582-4.41308h10.27344a12.56448 12.56448 0 0 1-3.73047 6.95508q-5.1709 5.61474-14.47852 5.61425a20.97972 20.97972 0 0 1-13.55566-4.73535Q7.95 706.77344 7.94947 696.10059q0-10.0005 5.30176-15.33594 5.30127-5.33643 13.76172-5.33692a21.907 21.907 0 0 1 9.05078 1.80372zM21.011 685.92383a10.45083 10.45083 0 0 0-2.68067 5.957h17.33594a8.40021 8.40021 0 0 0-2.68067-6.08106 8.82114 8.82114 0 0 0-5.96875-2.07519 7.9772 7.9772 0 0 0-6.00585 2.19925zm63.6289-21.68848a12.84974 12.84974 0 0 1 4.87207 3.63672 16.222 16.222 0 0 1 2.61719 4.37793 14.59733 14.59733 0 0 1 .96387 5.47266 15.5955 15.5955 0 0 1-1.8711 7.291 10.458 10.458 0 0 1-6.17871 5.06641 9.72764 9.72764 0 0 1 5.10156 4.11328q1.5 2.666 1.501 8.13867v3.49512a26.327 26.327 0 0 0 .28613 4.83691 4.34008 4.34008 0 0 0 2.00879 2.96582v1.30664H81.9358q-.49512-1.73-.70605-2.78906a25.63689 25.63689 0 0 1-.459-4.48437l-.07031-4.83692q-.06738-4.979-1.7207-6.63769-1.65235-1.65967-6.19532-1.65918h-10.6201v20.40722H51.53639v-52.043H76.429a22.6935 22.6935 0 0 1 8.2109 1.34184zm-22.47558 7.69727v13.98144h11.70312a12.44559 12.44559 0 0 0 5.23047-.84765q3.085-1.48244 3.085-5.86036 0-4.73144-2.98437-6.35546a10.77589 10.77589 0 0 0-5.0293-.918zm71.90332 38.2959q-4.87208 6.01464-14.794 6.01464-9.92139 0-14.793-6.01464a23.87433 23.87433 0 0 1 0-28.90918q4.87207-6.10254 14.793-6.10352 9.92139 0 14.794 6.10352a23.87811 23.87811 0 0 1 0 28.90918zm-8.04981-5.56153q2.36425-3.13769 2.36524-8.91992 0-5.78174-2.36524-8.90137a8.94227 8.94227 0 0 0-13.57617 0q-2.3833 3.11865-2.38281 8.90137 0 5.7832 2.38281 8.91992a8.9115 8.9115 0 0 0 13.57617 0zm29.42871-28.21484v23.19629a12.19023 12.19023 0 0 0 .77344 4.94336q1.36964 2.93115 5.375 2.93066 5.12842 0 7.02637-4.167a15.15585 15.15585 0 0 0 .9834-5.9668v-20.93651h10.2041v38.48437h-9.78028V709.499q-.14062.17726-.7041 1.05957a7.05424 7.05424 0 0 1-1.33789 1.55371 13.95168 13.95168 0 0 1-4.55957 2.89454 15.49945 15.49945 0 0 1-5.15723.77734q-8.521 0-11.47851-6.14356-1.65381-3.38964-1.6543-9.99218v-23.19627zm41.22266 26.19726a6.70454 6.70454 0 0 0 1.38281 3.81348q1.88086 2.0127 6.9541 2.0127a10.632 10.632 0 0 0 4.73535-.88282 2.95653 2.95653 0 0 0 .3418-5.22558q-1.415-.88184-10.52734-3.03614-6.55957-1.6245-9.24219-4.06054-2.68359-2.40088-2.68359-6.91992a11.99268 11.99268 0 0 1 4.19238-9.16211q4.19385-3.83056 11.80078-3.83106 7.21728 0 11.76465 2.877 4.54541 2.87841 5.21875 9.93945h-10.0625a5.95062 5.95062 0 0 0-1.09668-3.07227q-1.66553-2.04639-5.665-2.04687-3.293 0-4.69141 1.02343a2.94649 2.94649 0 0 0-1.39843 2.40137 2.623 2.623 0 0 0 1.4873 2.50586q1.48682.813 10.50586 2.79 6.01318 1.41212 9.01465 4.27149a9.69924 9.69924 0 0 1 2.96582 7.23828 11.68285 11.68285 0 0 1-4.26367 9.33886q-4.2627 3.61816-13.17774 3.61914-9.09228 0-13.42578-3.83105a12.45 12.45 0 0 1-4.334-9.7627zm3.21289-31.38769l-8.29785-10.55664h8.1914l4.626 5.9668 4.58984-5.9668h8.19043l-8.26171 10.55664zm28.37012-8.19141h9.88579v28.0752l12.69238-14.51758H263.343l-13.79395 14.33691 14.32813 23.97168h-12.24704l-9.32422-16.44238-4.168 4.332v12.11035h-9.88574zm54.83979 28.45801a15.93163 15.93163 0 0 0 4.01855-.88281 3.02747 3.02747 0 0 0 2.16993-2.86035 3.382 3.382 0 0 0-1.66407-3.26563 10.51363 10.51363 0 0 0-4.88476-.90039q-3.61524 0-5.11817 1.76563a7.28145 7.28145 0 0 0-1.43164 3.53027h-9.709a14.72 14.72 0 0 1 2.83594-8.29688q4.00781-5.08446 13.75879-5.084A24.52448 24.52448 0 0 1 294.344 678.041q4.92921 2.50633 4.92871 9.46191v17.65332q0 1.83691.07032 4.44922a5.58677 5.58677 0 0 0 .60058 2.68262 3.59357 3.59357 0 0 0 1.48242 1.166v1.48242H290.4817a11.10629 11.10629 0 0 1-.63574-2.18945q-.17725-1.02246-.28223-2.33008a20.80305 20.80305 0 0 1-4.83008 3.84863 14.60067 14.60067 0 0 1-7.38672 1.8711 12.74542 12.74542 0 0 1-8.68359-2.9834q-3.42774-2.98242-3.42676-8.45605 0-7.0957 5.5127-10.27442a24.65848 24.65848 0 0 1 8.89257-2.47168zm6.15332 4.69531a11.13263 11.13263 0 0 1-1.95117.97071 16.50358 16.50358 0 0 1-2.70215.68847l-2.29.42383a15.08427 15.08427 0 0 0-4.626 1.37695 4.59609 4.59609 0 0 0-2.377 4.27246 4.46294 4.46294 0 0 0 1.45215 3.72461 5.51378 5.51378 0 0 0 3.53125 1.14746 10.52121 10.52121 0 0 0 6.07715-1.90624q2.77881-1.90724 2.88574-6.95508zm40.04009-20.19531a75.60958 75.60958 0 0 1 8.15625-13.98144h7.59082l-2.1543 3.9541a58.88271 58.88271 0 0 0-6.17871 17.08886 67.62914 67.62914 0 0 0-1.12988 12.78125 60.396 60.396 0 0 0 3.14258 19.87793 90.74237 90.74237 0 0 0 6.49609 13.76953H337.759l-2.50683-3.4248a45.8913 45.8913 0 0 1-5.19043-9.251 52.68192 52.68192 0 0 1-4.90723-21.60742 47.93168 47.93168 0 0 1 4.1309-19.20701zm26.5625-7.69727a21.42591 21.42591 0 0 1 15.99707-6.42578q12.99463 0 19.00195 8.61524a18.77836 18.77836 0 0 1 3.56348 9.709h-10.875a14.83034 14.83034 0 0 0-2.66309-5.64941q-2.90625-3.38819-8.6123-3.38867a10.61191 10.61191 0 0 0-9.167 4.78418q-3.3545 4.78418-3.3545 13.54 0 8.75685 3.54 13.11622a11.09321 11.09321 0 0 0 8.99707 4.36035q5.59425 0 8.53028-3.74219a16.42871 16.42871 0 0 0 2.69433-6.03809h10.8038a23.44378 23.44378 0 0 1-7.14257 13.84082q-5.74659 5.332-14.72266 5.33106-11.10791 0-17.46484-7.20215-6.35744-7.23779-6.35743-19.84277-.00004-13.62886 7.23141-21.00781zm43.52344 16.31153v-8.19043h30.43457v8.36719l-18.88379 21.85546h19.55469v8.26172h-32.44727v-7.83789l19.07715-22.45605zm62.69824-7.41113a15.64791 15.64791 0 0 1 6.65041 5.69335 18.91243 18.91243 0 0 1 3.06641 7.95606 49.07154 49.07154 0 0 1 .332 7.63769h-28.0293q.23291 5.79054 4.02441 8.1211a10.22128 10.22128 0 0 0 5.54786 1.44726 7.81767 7.81767 0 0 0 7.6582-4.41308H471.593a12.56448 12.56448 0 0 1-3.73047 6.95508q-5.1709 5.61474-14.47852 5.61425a20.97972 20.97972 0 0 1-13.55566-4.73535q-5.87256-4.73437-5.873-15.40722 0-10.0005 5.30176-15.33594 5.30127-5.33643 13.76172-5.33692a21.907 21.907 0 0 1 9.05076 1.80372zm-15.05274 8.69238a10.45089 10.45089 0 0 0-2.68066 5.957h17.33594a8.40025 8.40025 0 0 0-2.68067-6.08106 8.82114 8.82114 0 0 0-5.96875-2.07519 7.97724 7.97724 0 0 0-6.00586 2.19925zm52.48633 4.33301a8.91723 8.91723 0 0 0-1.45019-3.88379 6.09227 6.09227 0 0 0-5.27344-2.33008q-5.09766 0-6.97266 5.04883a20.94348 20.94348 0 0 0-.99121 7.11328 19.2626 19.2626 0 0 0 .99121 6.79785 6.72877 6.72877 0 0 0 6.79493 4.80176q3.53906 0 5.02636-1.90723a9.48261 9.48261 0 0 0 1.80469-4.94238h10.27441a16.83769 16.83769 0 0 1-3.32226 8.68554q-4.7373 6.60206-14.03027 6.60254-9.29591 0-13.67774-5.50781-4.38281-5.50781-4.38281-14.2832 0-9.90234 4.8418-15.41016 4.8413-5.50781 13.35937-5.50781 7.24512 0 11.85742 3.24805 4.61133 3.249 5.46 11.47461zm44.12989-13.59184a11.29664 11.29664 0 0 1 4.76464 3.78125 10.08615 10.08615 0 0 1 1.93262 4.43555 54.86847 54.86847 0 0 1 .35156 7.4375v22.61718h-10.27441V691.501a10.3882 10.3882 0 0 0-1.05078-5.01856q-1.36817-2.68652-5.1875-2.68652a7.11563 7.11563 0 0 0-6.01074 2.66894q-2.05078 2.669-2.04981 7.61719v20.85449h-10.0625v-51.86623h10.0625v18.35938a12.31381 12.31381 0 0 1 5.04395-4.67774 14.20509 14.20509 0 0 1 6.02929-1.32422 16.2919 16.2919 0 0 1 6.45118 1.23727zm69.31738-12.42965a12.84982 12.84982 0 0 1 4.87207 3.63672 16.222 16.222 0 0 1 2.61719 4.37793 14.59753 14.59753 0 0 1 .96386 5.47266 15.59548 15.59548 0 0 1-1.87109 7.291 10.458 10.458 0 0 1-6.17871 5.06641 9.72768 9.72768 0 0 1 5.10156 4.11328q1.5 2.666 1.501 8.13867v3.49512a26.32612 26.32612 0 0 0 .28613 4.83691 4.34008 4.34008 0 0 0 2.00879 2.96582v1.30664h-12.0049q-.49512-1.73-.70606-2.78906a25.63784 25.63784 0 0 1-.459-4.48437l-.07031-4.83692q-.0674-4.979-1.72071-6.63769-1.65234-1.65967-6.19531-1.65918h-10.6201v20.40722h-10.62793v-52.043h24.89258a22.69355 22.69355 0 0 1 8.21094 1.34184zm-22.47559 7.69727v13.98144H602.178a12.44559 12.44559 0 0 0 5.23047-.84765q3.085-1.48244 3.085-5.86036 0-4.73144-2.98438-6.35546a10.77584 10.77584 0 0 0-5.02929-.918zm64.88672 5.29883a15.64785 15.64785 0 0 1 6.65039 5.69335 18.91243 18.91243 0 0 1 3.06641 7.95606 49.07154 49.07154 0 0 1 .332 7.63769h-28.0293q.23292 5.79054 4.02442 8.1211a10.22122 10.22122 0 0 0 5.54785 1.44726 7.81767 7.81767 0 0 0 7.6582-4.41308H664.885a12.56448 12.56448 0 0 1-3.73047 6.95508q-5.1709 5.61474-14.47852 5.61425a20.97972 20.97972 0 0 1-13.55566-4.73535q-5.87256-4.73437-5.87305-15.40722 0-10.0005 5.30176-15.33594 5.30127-5.33643 13.76172-5.33692a21.907 21.907 0 0 1 9.0508 1.80372zm-15.05273 8.69238a10.4509 10.4509 0 0 0-2.68067 5.957h17.33594a8.40024 8.40024 0 0 0-2.68066-6.08106 8.82116 8.82116 0 0 0-5.96875-2.07519 7.97722 7.97722 0 0 0-6.00586 2.19925zm61.83008-5.34083q4.70946 4.97754 4.709 14.61719 0 10.16748-4.60254 15.499a14.93642 14.93642 0 0 1-11.85059 5.332 12.42785 12.42785 0 0 1-7.67578-2.29492 14.82381 14.82381 0 0 1-3.26953-3.707V730.083h-9.957v-53.63085h9.63867v5.68457a16.20462 16.20462 0 0 1 3.48242-3.95508 12.85069 12.85069 0 0 1 8.03125-2.57715 15.21561 15.21561 0 0 1 11.4941 4.97851zm-7.72266 7.2373q-2.05079-3.42333-6.65234-3.4248a7.56673 7.56673 0 0 0-7.59766 5.19043 19.49117 19.49117 0 0 0-1.07031 6.99121q0 6.70752 3.59961 9.42676a8.26017 8.26017 0 0 0 5.0664 1.58886 7.36512 7.36512 0 0 0 6.47559-3.248 17.016 17.016 0 0 0 .17871-16.52442zm28.83203-11.36815v23.19629a12.19023 12.19023 0 0 0 .77344 4.94336q1.36962 2.93115 5.375 2.93066 5.12841 0 7.02636-4.167a15.15567 15.15567 0 0 0 .9834-5.9668v-20.93651h10.2041v38.48437h-9.78027V709.499q-.14062.17726-.7041 1.05957a7.05424 7.05424 0 0 1-1.33789 1.55371 13.95178 13.95178 0 0 1-4.55957 2.89454 15.49945 15.49945 0 0 1-5.15723.77734q-8.521 0-11.47851-6.14356-1.65381-3.38964-1.6543-9.99218v-23.19627zm66.28027 4.625q4.3169 5.47266 4.31739 14.12305 0 8.96777-4.25879 14.86425a15.46 15.46 0 0 1-19.58887 3.98926 15.3223 15.3223 0 0 1-3.7627-3.9541v4.83691h-9.92089v-51.97168h10.0625v18.501a14.71546 14.71546 0 0 1 4.22851-4.0957 12.62379 12.62379 0 0 1 6.96485-1.76563q7.63916-.00002 11.958 5.47264zm-8.41113 23.44336a14.261 14.261 0 0 0 2.17188-8.26172 18.48733 18.48733 0 0 0-1.06836-6.77832 7.43724 7.43724 0 0 0-7.47559-5.085 7.5507 7.5507 0 0 0-7.583 4.97851 18.54969 18.54969 0 0 0-1.06738 6.84961 14.25583 14.25583 0 0 0 2.207 8.19141 7.57738 7.57738 0 0 0 6.72852 3.24805 6.978 6.978 0 0 0 6.08693-3.14254zm29.27056 10.41601h-10.0625v-52.043h10.0625zm19.43745-43.07422h-10.2041v-9.28613h10.2041zm-10.2041 4.58985h10.2041v38.48437h-10.2041zm42.24609 13.80469a8.91735 8.91735 0 0 0-1.45019-3.88379 6.09228 6.09228 0 0 0-5.27344-2.33008q-5.09766 0-6.97266 5.04883a20.94348 20.94348 0 0 0-.99121 7.11328 19.2626 19.2626 0 0 0 .99121 6.79785 6.72877 6.72877 0 0 0 6.79492 4.80176q3.53907 0 5.02637-1.90723a9.48261 9.48261 0 0 0 1.80469-4.94238h10.27441a16.83778 16.83778 0 0 1-3.32226 8.68554q-4.73732 6.60206-14.03028 6.60254-9.29589 0-13.67773-5.50781-4.38282-5.50781-4.38281-14.2832 0-9.90234 4.84179-15.41016 4.84131-5.50781 13.35938-5.50781 7.24512 0 11.85742 3.24805 4.61133 3.249 5.46 11.47461zm28.41211-14.22852a48.00483 48.00483 0 0 1 4.124 19.207 52.747 52.747 0 0 1-4.89941 21.60742 45.983 45.983 0 0 1-5.18066 9.251l-2.50293 3.4248H874.384a90.89767 90.89767 0 0 0 6.4727-13.76954 60.60248 60.60248 0 0 0 3.13086-19.87793 67.88742 67.88742 0 0 0-1.125-12.78125 59.02867 59.02867 0 0 0-6.15625-17.08886l-2.14649-3.9541h7.57818a75.74475 75.74475 0 0 1 8.14155 13.98146z"/><path fill="#d7141a" d="M0 0h900v600H0z"/><path fill="#fff" d="M0 0h900v300H0z"/><path fill="#11457e" d="M450 300L0 0v600z"/></svg>