<svg xmlns="http://www.w3.org/2000/svg" role="img" viewBox="-0.74 -0.74 38.41 32.98"><title>Denmark (Smittestop) logo</title><path fill="#c60c30" d="M0 0h37v28H0z"/><path fill="#fff" d="M0 12h12V0h4v12h21v4H16v12h-4V16H0z"/><path d="M3.75464 29.15792h.40958c.20192 0 .33694.05787.40465.17401.06772.11574.10178.28195.10178.49823 0 .15677-.02257.2922-.06771.40548-.0829.20684-.229.31026-.43872.31026h-.40958zm.81341-.32298c-.08741-.02914-.19699-.04432-.32873-.04638H3.3229v2.1267h.91642c.32135 0 .55897-.13215.71287-.39686.11327-.19617.1699-.43543.1699-.7182 0-.11163-.01313-.229-.04022-.35212-.02708-.12312-.07756-.23762-.15143-.3435-.09234-.13092-.213-.2208-.36239-.26964zm1.2546.89426c.05253-.0595.1264-.08947.22161-.08947.08742 0 .16088.02832.21998.08455.0591.05622.09193.13871.0989.24747h-.6394c.01354-.1022.04678-.18263.0989-.24255zm.57497-.355c-.10466-.04883-.22244-.07346-.35336-.07346-.22038 0-.39932.07264-.53762.21793-.1379.14528-.20684.35417-.20684.62627 0 .29056.07633.50027.22941.62914.15267.12887.32955.1933.52942.1933.24254 0 .43092-.07675.56553-.22942.0866-.09644.13502-.19124.14569-.2844H6.35c-.02216.04637-.0476.08249-.07633.10834-.05295.04802-.1219.07223-.20644.07223-.07961 0-.14815-.0197-.20479-.0595-.09316-.0632-.14281-.17401-.14856-.3316h1.07607c.00205-.13585-.00205-.23968-.01272-.31191-.01847-.12312-.05828-.23106-.11984-.32463-.06813-.10547-.15472-.18304-.25978-.23228zm-.32463-.07346zm2.26459.13215c-.10342-.08536-.2364-.12763-.39891-.12763-.12969 0-.23721.0316-.32176.09521-.0472.0353-.09726.09357-.1502.17442v-.22941h-.39645v1.56978h.40958v-.85117c0-.09727.01354-.17688.04022-.23968.05212-.1182.14774-.17729.28728-.17729.11368 0 .19043.04022.23106.12107.02175.04432.03283.10793.03283.19043v.95664h.42148v-1.05883c0-.1974-.05171-.33858-.15513-.42354zm-.55035-.13215zm3.04722.04761c-.0673-.02668-.13584-.04022-.20479-.04022-.10424 0-.19822.02134-.28276.06484-.08003.0431-.14693.11122-.20069.20356-.03078-.07715-.07592-.13994-.13584-.1892-.07387-.05293-.17114-.0792-.29139-.0792-.12681 0-.23023.03078-.31026.09234-.04514.03447-.09316.09275-.14405.17442v-.22941h-.39973v1.56978h.41697v-.94638c0-.08578.01108-.15021.03324-.1933.04022-.07593.11902-.1141.23639-.1141.10096 0 .16908.03817.20356.1141.01929.04227.02873.10998.02873.20356v.93612h.41409v-.93612c0-.0706.01108-.13051.03324-.18058.0435-.0944.1219-.14118.23516-.14118.09809 0 .1654.03653.20192.10958.01929.03817.02914.08741.02914.14692v1.00138h.42107l.00287-.99112c0-.10219-.00451-.17934-.01436-.23228-.01519-.08003-.04515-.14734-.08947-.20192-.05458-.0673-.11573-.1145-.18304-.14159zm1.53202.80233v.15308c-.00287.13749-.04145.23229-.11614.284-.07428.05212-.15595.07797-.2446.07797-.0554 0-.103-.0156-.142-.04678-.03898-.0312-.05827-.08208-.05827-.15226 0-.0788.0316-.13707.09521-.17483.03735-.02216.09932-.04063.18591-.05622l.09234-.01724c.04638-.00862.0825-.01806.10917-.0279a.4549.4549 0 0 0 .07838-.03982zm-.24952-.19206l-.13995.01723c-.15882.02052-.27907.05417-.36074.10137-.14897.0866-.22367.22654-.22367.41984 0 .14898.04638.2643.13954.34556.09275.08126.21013.12189.35253.12189.11163 0 .21177-.02545.3-.07675a.84306.84306 0 0 0 .19659-.15718c.00287.0357.00656.0673.01149.09521.00451.0279.01313.05787.02585.08947h.44734v-.06074c-.02709-.01231-.0472-.02832-.06074-.0476-.01354-.01889-.02175-.05541-.02462-.10958-.00164-.071-.00288-.13174-.00288-.18181v-.72107c0-.18961-.0669-.31848-.20027-.38701-.1338-.06813-.28687-.1022-.45883-.1022-.2647 0-.45144.06896-.55978.20767-.06854.08865-.10712.2015-.11574.339h.39686c.00985-.06075.02873-.10876.05787-.14406.04022-.04843.10916-.07223.20643-.07223.08618 0 .15185.01231.19658.03653.04473.02462.0673.06935.0673.13379 0 .05294-.02954.09152-.08823.11655-.03242.01477-.087.02668-.16293.03612zm.02175-.65788zm1.87758.00493c-.00492-.00041-.01149-.00041-.01929-.00041-.12312 0-.22325.03201-.3.09644-.0472.03858-.1026.1104-.16621.21505v-.27415h-.39234v1.57266h.41409v-.75144c0-.1264.016-.21957.0476-.2803.05705-.10753.16786-.1613.33325-.1613a1.2605 1.2605 0 0 1 .04925.00124 1.42526 1.42526 0 0 1 .06936.00574v-.42107c-.01847-.00123-.03037-.00164-.0357-.00246zm.2721-.50972v2.1193h.40424v-.49493l.1699-.1773.37675.67224h.49618l-.57128-.96362.54994-.60165h-.50931l-.51218.59139v-1.14543zm2.5654.5048c-.12516.2885-.18755.57332-.18755.85404 0 .24336.04802.4855.14447.726.08166.20684.20027.41696.35622.63037h.24378l-.08783-.1617c-.12147-.22285-.2056-.45636-.2528-.69973-.03078-.15842-.04597-.33201-.04597-.5208 0-.2922.03981-.55691.11984-.7933.04802-.14159.13872-.33448.2725-.57867l-.23638-.00287-.1026.14118c-.08003.1108-.15432.24583-.22367.40547zm1.24229.95828h-.42436c0 .2212.07962.3948.23804.5212.15882.12682.37674.19002.65376.19002.27128 0 .481-.06443.62997-.19289.14856-.12804.22284-.28974.22284-.48386 0-.1896-.0636-.33447-.19042-.4342-.08208-.06443-.20315-.11614-.36362-.15431l-.36648-.08824c-.14159-.03365-.23393-.06279-.27702-.08782-.0673-.03776-.10096-.0944-.10096-.17032 0-.0829.03406-.14733.10219-.1933.06854-.04637.15964-.06936.27415-.06936.103 0 .18919.01765.25855.05336.10383.05376.15964.14487.16703.2725h.42723c-.0078-.22572-.0907-.39809-.2487-.5171-.15842-.1186-.34967-.17812-.57374-.17812-.2684 0-.47196.0628-.61027.18879-.13871.1264-.20766.2844-.20766.47483 0 .2089.0714.36238.21505.46047.08454.05869.2372.11286.45883.16293l.2249.05048c.13173.02873.22859.06197.29015.09973.06156.03816.09234.09275.09234.16292 0 .12025-.06238.20233-.18632.24665-.06526.02299-.15062.03448-.25527.03448-.17524 0-.29877-.0435-.371-.13133-.0394-.04802-.06567-.12066-.07921-.21751zm.43133-1.5353zm3.14695.62462c-.06731-.02668-.13585-.04022-.2052-.04022-.10384 0-.19782.02134-.28277.06484-.07962.0431-.14651.11122-.20028.20356-.03078-.07715-.07592-.13994-.13584-.1892-.07387-.05293-.17113-.0792-.29138-.0792-.12682 0-.23024.03078-.31026.09234-.04515.03447-.09316.09275-.14405.17442v-.22941h-.39973v1.56978h.41696v-.94638c0-.08578.01108-.15021.03324-.1933.04022-.07593.11902-.1141.2364-.1141.10095 0 .16908.03817.20355.1141.0193.04227.02873.10998.02873.20356v.93612h.4141v-.93612c0-.0706.01108-.13051.03324-.18058.0435-.0944.12189-.14118.23516-.14118.09808 0 .16539.03653.20191.10958.0193.03817.02914.08741.02914.14692v1.00138h.42107l.00288-.99112c0-.10219-.00452-.17934-.01437-.23228-.01518-.08003-.04514-.14734-.08947-.20192-.05458-.0673-.11573-.1145-.18303-.14159zm1.08756-.1933v-.37962h-.41697v.37962zm-.41697.18755v1.57266h.41697V29.3426zm.65377.3074h.21915v.96813c0 .09808.0234.17072.06936.21792.0714.07387.20397.10753.39809.10096l.19494-.00739v-.30739a.6678.6678 0 0 1-.04104.00246c-.01396.00041-.0271.00083-.03981.00083-.08372 0-.1338-.00821-.1498-.02422-.01642-.0156-.02462-.05581-.02462-.12025V29.65h.25527v-.29302h-.25527v-.4383h-.40712v.4383h-.21915zm.98414 0h.21915v.96813c0 .09808.02298.17072.06936.21792.071.07387.20397.10753.39808.10096l.19494-.00739v-.30739a.6678.6678 0 0 1-.04104.00246c-.01395.00041-.0275.00083-.0398.00083-.08373 0-.1338-.00821-.15021-.02422-.01642-.0156-.02462-.05581-.02462-.12025V29.65h.25567v-.29302h-.25567v-.4383H24.202v.4383h-.21915zm1.54433.0792c.05253-.0595.1264-.08947.22162-.08947.08741 0 .16087.02832.21997.08455.0591.05622.09193.13871.0989.24747h-.6394c.01355-.1022.04638-.18263.09891-.24255zm.57497-.355c-.10465-.04883-.22244-.07346-.35335-.07346-.22039 0-.39932.07264-.53763.21793-.1379.14528-.20684.35417-.20684.62627 0 .29056.07634.50027.22941.62914.15267.12887.32915.1933.52942.1933.24255 0 .43092-.07675.56553-.22942.0866-.09644.13502-.19124.1457-.2844h-.41985c-.02216.04637-.0476.08249-.07633.10834-.05294.04802-.12189.07223-.20643.07223-.07962 0-.14816-.0197-.20479-.0595-.09357-.0632-.14282-.17401-.14857-.3316h1.07607c.00206-.13585-.00205-.23968-.01272-.31191-.01847-.12312-.05828-.23106-.11984-.32463-.06812-.10547-.15472-.18304-.25978-.23228zm-.32463-.07346zm1.31452 1.1126h-.41697c0 .16129.05869.29426.17647.3989.1182.10425.30041.15637.54789.15637.24213 0 .42148-.04925.5372-.14774.11615-.0985.17402-.22572.17402-.38168 0-.1182-.04063-.2171-.12107-.2959-.08208-.07797-.20438-.13584-.36813-.17441-.24542-.05377-.38824-.09193-.42846-.1141-.04021-.02093-.06073-.0554-.06073-.10219 0-.03775.01928-.07058.05704-.0985.03817-.02749.10178-.04144.19125-.04144.10875 0 .1855.0275.23064.0833.02422.03079.03899.07265.04474.1256h.41122c-.01806-.19208-.08906-.3275-.2126-.4059-.12352-.07838-.28358-.11778-.47975-.11778-.20684 0-.3673.05212-.4814.15677-.11368.10425-.17072.229-.17072.37429 0 .12312.03652.21751.10957.28276.07305.06649.19864.12148.37675.1658.24706.0587.38988.10014.42846.12436.03858.0238.05745.0591.05745.10506 0 .04802-.0238.08413-.0714.10835-.04761.0238-.11163.03611-.19248.03611-.13749 0-.23188-.0275-.28277-.08249-.02873-.03078-.0476-.08249-.05622-.15554zm.31436-1.1126zm.84707.34925h.21915v.96814c0 .09808.0234.17072.06936.21792.071.07387.20397.10753.39809.10096l.19494-.00739v-.30739a.6678.6678 0 0 1-.04104.00246c-.01396.00041-.02709.00083-.03981.00083-.08372 0-.1338-.00821-.1502-.02422-.01601-.0156-.02422-.05581-.02422-.12025V29.65h.25527v-.29302h-.25527v-.4383h-.40712v.4383h-.21915zm2.12792.84707c-.06443.08536-.15677.12846-.27702.12846-.11983 0-.21259-.0431-.27743-.12846-.06484-.08577-.09767-.20725-.09767-.36526 0-.15759.03283-.27907.09767-.36443.06484-.08495.1576-.12764.27743-.12764.12025 0 .21259.04269.27702.12764.06485.08536.09686.20684.09686.36443 0 .158-.03201.27949-.09686.36526zm.32914.22695c.13256-.16375.19905-.36115.19905-.5922 0-.22696-.06649-.42354-.19905-.59016-.13256-.16621-.33406-.24952-.60452-.24952-.27045 0-.47196.0833-.60452.24952-.13255.16662-.19904.3632-.19904.59015 0 .23106.06649.42846.19904.59221.13256.16416.33407.24624.60452.24624.27046 0 .47196-.08208.60452-.24624zm-.60452-1.42327zm2.09838.50644c.0554.09316.08331.20068.08331.32175 0 .14733-.03037.26512-.09029.35336-.06033.08864-.14733.13297-.26183.13297-.0788 0-.14734-.02176-.2048-.06485-.09726-.07428-.14568-.20274-.14568-.38536 0-.11533.01436-.21054.04309-.28564.05581-.14159.15841-.21218.30739-.21218.12394 0 .21382.04679.2688.13995zm.316-.2959c-.12722-.13543-.28276-.20315-.46662-.20315-.126 0-.23475.03489-.32586.10506-.05006.0394-.09726.09357-.14158.1617v-.23229h-.39399v2.19154h.40712v-.81957c.0431.06649.08741.11697.13256.15185.0829.06238.18673.09357.3115.09357.19657 0 .35663-.07264.4814-.21792.12434-.14528.18672-.35623.18672-.63325 0-.26265-.0636-.4617-.19124-.59754zm.97758-.18591c-.07592-.17688-.18714-.36731-.33325-.57128h-.31026l.08824.16129c.12107.22244.2052.45513.2524.6985.03077.15964.04596.33365.04596.52244 0 .29426-.04268.56512-.12805.81218-.05006.1461-.13871.33366-.26552.56266h.3041l.1026-.13995c.06649-.08454.13708-.21053.21218-.37798.13379-.29918.20068-.59343.20068-.88318 0-.26347-.05663-.5249-.16908-.78468z"/></svg>