<svg xmlns="http://www.w3.org/2000/svg" role="img" viewBox="-0.74 -0.74 38.38 33.18"><title>Denmark (Smittestop) logo</title><path fill="#c60c30" d="M0 0h37v28H0z"/><path fill="#fff" d="M0 12h12V0h4v12h21v4H16v12h-4V16H0z"/><path d="M4.20784 30.80882H3.6606v-1.73865h.54417c.24776 0 .42754.07761.53892.23284.11138.15523.16707.37317.16707.65337 0 .07323-.00746.15216-.0228.23766-.02675.14296-.0706.26003-.13111.35124-.0763.11401-.17365.19119-.29292.23153-.06665.02149-.15216.03201-.25609.03201zm-.85551-2.00219v2.26441h.91427c.38851 0 .66214-.17145.82175-.5148.09033-.19425.1355-.41175.1355-.65204 0-.31134-.07674-.56698-.22978-.76606-.17145-.221-.41306-.33151-.7244-.33151zm3.25762.65907c-.11007-.05526-.22364-.08244-.34072-.08244-.2324 0-.42052.08244-.56435.24819-.14383.16531-.21574.38062-.21574.6459 0 .26925.07148.47841.21399.62794.14295.14953.31703.22451.5227.22451.08418 0 .16004-.00833.2267-.025.12453-.0285.22845-.08418.31308-.16618.05043-.04736.0956-.10831.13638-.18286.04034-.07454.06446-.14207.07147-.20258h-.27274c-.02061.07279-.0557.13725-.1048.1925-.08639.09559-.20215.14339-.34686.14339-.15523 0-.26968-.05043-.34378-.15172-.0741-.1013-.11357-.23548-.11884-.40299H6.9967c0-.16663-.00833-.28809-.02455-.36395-.01842-.11094-.0557-.20829-.11094-.29116-.05788-.0877-.14164-.15874-.25126-.21355zm.10173.6481h-.91734c.00526-.14164.05086-.25872.13725-.3508.08638-.09209.19294-.13813.32054-.13813.1776 0 .30476.0671.38062.20083.04122.07192.06753.16795.07893.2881zm-.46876-.73361zm1.0945.0399v1.65095h.27757v-.86472c0-.10787.00701-.19075.0206-.24907.01404-.05788.04386-.11444.09034-.16882.05744-.06797.12453-.11313.2004-.1355.04209-.01359.09603-.02017.1618-.02017.12936 0 .21881.0513.26836.15436.02982.06139.04473.1425.04473.24336v1.04056h.28195v-1.05897c0-.16663-.02236-.29468-.06796-.3837-.082-.16355-.2403-.24511-.47446-.24511-.107 0-.20434.02105-.2916.06314-.08726.0421-.17014.11138-.2482.20785v-.23416zm.65205-.0399zm1.1037.0399v1.65095h.27757v-.87568c0-.21267.04298-.35957.12892-.4407.0855-.08112.1811-.1219.2859-.1219.11489 0 .19382.0386.23592.11577.02674.0513.0399.13286.0399.24512v1.0774h.28196v-.96032c0-.17058.03946-.29248.11795-.36527.07893-.07323.17277-.10963.28152-.10963.07893 0 .14602.02061.20127.06183.05481.04078.08244.11664.08244.2267v1.14668h.2881v-1.09888c0-.14602-.0215-.26222-.06447-.3486-.08024-.1605-.23152-.2403-.4534-.2403-.10393 0-.19733.02105-.28065.06358-.08331.04297-.15566.1083-.2175.19689-.03683-.07192-.07804-.12673-.12321-.16356-.08025-.0649-.18592-.09691-.31747-.09691-.1162 0-.22013.03113-.31134.09384-.0535.03683-.11313.09603-.1789.17715v-.23416zm2.9305 1.40145c-.05832-.04648-.0877-.10963-.0877-.18987 0-.10568.04253-.18286.12804-.2311.05043-.02893.12585-.04998.2267-.06314l.16795-.02192a1.08903 1.08903 0 0 0 .15698-.0307c.0535-.01447.09735-.03245.13111-.05393v.22363c0 .17058-.07673.29336-.23109.36834-.09164.04517-.18592.06797-.2837.06797-.08025 0-.14953-.02324-.2083-.06928zm.58452-.75071l-.44245.05525c-.15523.01973-.28064.07147-.37623.15566-.0956.0842-.1434.20303-.1434.35607 0 .13988.04868.25608.1456.34948.09734.09296.22231.13944.37535.13944.1276 0 .24424-.02718.34992-.082.10612-.05437.18724-.1184.2438-.1925.00921.06578.025.11664.0478.1526.04298.06797.1127.10173.20829.10173.03903 0 .06972-.00175.09208-.00482.0228-.00307.0557-.01052.09867-.0228v-.20522a.77775.77775 0 0 1-.04911.00702c-.01535.00131-.02938.00219-.04166.00219-.03815 0-.06315-.00877-.07455-.02631-.01184-.0171-.01798-.04034-.01798-.06929v-.9511c0-.1561-.06007-.27143-.18022-.3451-.12146-.0741-.27932-.11094-.47358-.11094-.1675 0-.3144.03946-.44157.11927-.12673.0798-.19294.221-.19776.4249h.25871c.01053-.0855.03245-.14952.06622-.19293.06095-.07806.16356-.11708.30826-.11708.12541 0 .22188.02148.28941.06402.0671.04253.10086.11094.10086.20565 0 .04649-.00614.08157-.01842.10656-.02193.04517-.06446.07191-.12804.08025zm-.22978-.69064zm1.10853.0399v1.65095h.27757v-.94935c0-.11752.03728-.221.11226-.3109.07498-.08989.18241-.13461.3223-.13461a.72726.72726 0 0 1 .0456.00131c.0136.00088.02894.00307.04517.00614v-.29292c-.02982-.00307-.05087-.00526-.06315-.00614-.01228-.00087-.02105-.00131-.02587-.00131-.11006 0-.20741.03946-.2916.11927-.0842.0798-.13725.14734-.15874.20259v-.28503zm1.0375-.61346v2.26441h.2666v-.6196l.23284-.21267.5148.83227h.35475l-.66784-1.03266.63232-.61829h-.35475l-.71212.7016v-1.31506zm3.19271-.03727h-.19294c-.19206.30125-.31835.52751-.3793.67836-.0956.23766-.1434.50822-.1434.81254.00001.08112.00571.16663.01711.25608.0228.17233.0627.33502.12015.48674.0421.11138.08112.19908.11752.26397.03596.06446.12892.214.27888.44859h.18637c-.15085-.2859-.25214-.50471-.30345-.65687-.08331-.24644-.12497-.51919-.12497-.81693 0-.29511.0364-.55514.10919-.7801.04867-.1482.15347-.37885.31484-.69238zm.55777 1.57114h-.2881c-.00306.24469.075.43806.23417.58102.15961.14382.37974.21574.66126.21574.24161 0 .45384-.05394.63626-.1618.18242-.10788.27362-.28723.27362-.53805 0-.20127-.07191-.35518-.21574-.46086-.08331-.06051-.2017-.10831-.35475-.1434l-.31747-.07234c-.21399-.04955-.35124-.09034-.41175-.12322-.09252-.05175-.13857-.13287-.13857-.2438 0-.10086.03947-.189.1184-.2653.07937-.07586.20916-.11401.39026-.11401.22408 0 .38281.0592.47621.1776.05043.06445.08332.15741.09867.27888h.28853c0-.2517-.08331-.435-.24907-.54944-.16619-.11489-.3679-.1719-.60513-.1719-.25784 0-.45735.0649-.59811.19558-.14076.13067-.21136.29774-.21136.5012 0 .18812.07191.32931.21574.4236.08332.0548.2254.10436.42579.14952l.3065.06972c.16664.03771.28898.08244.36703.13418.07718.05218.11577.13988.11577.26354 0 .16444-.09165.27845-.2745.34203-.09472.03289-.19952.04955-.3144.04955-.25697 0-.43632-.07498-.53805-.22539-.0535-.0798-.08375-.18417-.0912-.31265zm.62004-1.5957zm1.24841.6753v1.65094h.27757v-.87568c0-.21267.04298-.35957.12892-.4407.0855-.08112.1811-.1219.2859-.1219.11489 0 .19382.0386.23592.11577.02674.0513.0399.13286.0399.24512v1.0774h.28196v-.96032c0-.17058.03946-.29248.11795-.36527.07893-.07323.17277-.10963.28152-.10963.07893 0 .14602.02061.20127.06183.05481.04078.08244.11664.08244.2267v1.14668h.2881v-1.09888c0-.14602-.0215-.26222-.06447-.3486-.08024-.1605-.23152-.2403-.4534-.2403-.10393 0-.19733.02105-.28065.06358-.08331.04297-.15566.1083-.2175.19689-.03683-.07192-.07804-.12673-.12321-.16356-.08025-.0649-.18592-.09691-.31747-.09691-.1162 0-.22013.03113-.31134.09384-.0535.03683-.11313.09603-.1789.17715v-.23416zm2.63012.00745v1.6435h.28196v-1.6435zm0-.62092v.3144h.28196v-.3144zm.75686.1526v.46086h-.22364v.2267h.22364v1.09275c0 .10612.02324.19206.06928.25827.04648.06622.13418.09954.26354.09954.04034 0 .07761-.00219.11181-.00613.03465-.00439.06753-.01097.09954-.02018v-.2188c-.0206.00219-.03858.0035-.05393.00394-.01535.00044-.02982.00044-.04297.00044-.05043 0-.08639-.00526-.10788-.01667-.03946-.01973-.05875-.05832-.05875-.11576v-1.0774h.26353v-.2267H23.811v-.46086zm.877 0v.46086h-.2232v.2267h.2232v1.09275c0 .10612.02324.19206.06972.25827.04604.06622.13418.09954.26354.09954a.98814.98814 0 0 0 .11181-.00613c.0342-.00439.06753-.01097.09954-.02018v-.2188c-.0206.00219-.03859.0035-.05437.00394-.01535.00044-.02982.00044-.04297.00044-.05043 0-.08639-.00526-.10788-.01667-.03902-.01973-.05875-.05832-.05875-.11576v-1.0774h.26397v-.2267H24.688v-.46086zm1.85003.50647c-.11007-.05526-.22364-.08244-.34072-.08244-.23196 0-.42008.08244-.5639.24819-.14427.16531-.21619.38062-.21619.6459 0 .26925.07148.47841.21443.62794.14295.14953.31703.22451.52269.22451.0842 0 .15961-.00833.2267-.025.1241-.0285.22846-.08418.31265-.16618.05043-.04736.09604-.10831.13638-.18286.04078-.07454.0649-.14207.07191-.20258h-.27274c-.02061.07279-.0557.13725-.1048.1925-.0864.09559-.20215.14339-.34686.14339-.15523 0-.27012-.05043-.34378-.15172-.07411-.1013-.11358-.23548-.11884-.40299h1.21026c0-.16663-.00833-.28809-.025-.36395-.0184-.11094-.05524-.20829-.11093-.29116-.05745-.0877-.1412-.15874-.25126-.21355zm.10173.6481h-.91734c.00526-.14164.05086-.25872.13725-.3508.08638-.09209.19338-.13813.32098-.13813.1776 0 .30476.0671.38062.20083.04122.07192.06709.16795.07849.2881zm-.46832-.73361zm1.25937 1.17299h-.2666c.00701.16443.06182.30256.164.41394.10216.11138.27625.16707.52181.16707.22802 0 .39816-.0535.50954-.16005.11138-.107.16706-.23416.16706-.38106 0-.15216-.05393-.26354-.1618-.33458-.06753-.04516-.20127-.09164-.40079-.14032l-.1833-.04428c-.08024-.01974-.14075-.04254-.18197-.06797-.07104-.04341-.10656-.10086-.10656-.17277 0-.06578.0272-.11883.08113-.15874.05393-.0399.1333-.06007.2381-.06007.15742 0 .26792.0364.3315.10918.03903.05175.06096.10875.06622.17146h.26222c.0022-.107-.03157-.20654-.10041-.29906-.10963-.14602-.28897-.21925-.53804-.21925-.18987 0-.34115.04867-.45385.14514-.1127.09647-.16882.2232-.16882.3793 0 .13243.05963.23636.1789.31134.06666.04297.17058.082.31134.11708l.22057.05569c.11795.02982.19732.05569.23723.0785.0627.03683.09427.09076.09427.1618 0 .0934-.03902.16268-.11752.2074-.07805.04474-.16838.0671-.27099.0671-.17277 0-.29423-.04473-.36395-.13418-.03815-.04911-.06095-.12015-.06929-.21267zm.41-1.173zm1.05898-.42095v.46086h-.22364v.2267h.22364v1.09275c0 .10611.02324.19206.06928.25827.04648.06622.13418.09954.26398.09954a.97442.97442 0 0 0 .11138-.00613c.03464-.00439.06796-.01097.09954-.02018v-.2188c-.02061.00218-.0386.0035-.05394.00394-.01535.00044-.02982.00044-.04297.00044-.05043 0-.08639-.00526-.10787-.01667-.03903-.01973-.05876-.05832-.05876-.11576v-1.0774h.26354v-.2267h-.26354v-.46086zm1.8553 1.72418c-.06841.13944-.19426.20873-.37843.20873-.16751 0-.28985-.05832-.36703-.1754-.07674-.11752-.11532-.26398-.11532-.43938 0-.1833.03858-.3394.11532-.46876.07718-.12936.2004-.19425.3701-.19425.19118 0 .3258.07586.40385.22802.04955.0969.07411.22188.07411.37623 0 .17058-.0342.32537-.1026.46481zm.17188-1.09844c-.1469-.14164-.32668-.21268-.53935-.21268-.23767 0-.42666.082-.56742.24644-.14076.16444-.21136.38544-.21136.66301 0 .25916.0671.46525.2004.61917.13374.15347.31396.2302.5411.2302.27231 0 .47359-.08681.60294-.26046.12936-.17365.19426-.39377.19426-.65994 0-.27538-.07367-.48367-.22057-.62574zm-.54856-.20478zm2.11883 1.3418c-.08594.10832-.19338.1627-.32317.1627-.19119 0-.32274-.08552-.39465-.2561-.03771-.08945-.057-.19776-.057-.32536 0-.1583.01929-.28853.057-.39158.07103-.19206.20258-.2881.39465-.2881.19118 0 .32273.09077.39465.27275.03815.09472.057.20785.057.3394 0 .21574-.04253.37799-.12848.4863zm-1.04144-1.29444v2.30168h.27758V30.886c.0605.07498.11576.12804.16487.15873.0842.05482.18856.082.31309.082.1583 0 .29686-.0491.41614-.14646.18811-.15435.28195-.4113.28195-.77088 0-.26617-.06533-.47095-.19557-.61434-.13067-.14339-.2894-.21486-.47621-.21486-.12673 0-.23679.0307-.33019.09208-.06578.04122-.12629.09954-.18198.17453v-.21925zm1.6834 2.28809h.19295c.19118-.29818.31703-.52357.37754-.67705.09647-.2381.14471-.50953.14471-.81385 0-.1162-.01052-.2368-.03157-.3622-.02105-.12541-.05613-.25258-.10524-.38062-.03947-.10392-.07542-.18549-.10875-.24468-.03376-.05876-.12936-.21487-.28766-.46788h-.18636c.15085.2859.25214.50471.30344.65687.08332.24644.12498.5183.12498.81561 0 .29687-.03596.55602-.10788.77702-.04735.14558-.1526.37799-.31615.69678z"/></svg>