<svg xmlns="http://www.w3.org/2000/svg" role="img" viewBox="-0.09 -9.09 517.68 524.68"><title>DP-3T App logo</title><path fill="#bb1f85" d="M93.84622 249.80453c7.315-7.28051 14.39486-14.30231 21.44775-21.35116q37.03146-37.01012 74.07419-74.00891c1.45814-1.45364 1.63278-2.23556-.03339-3.75692q-38.73951-35.37252-77.39324-70.839c-1.65414-1.51037-.42682-2.03431.39235-2.85365q27.38265-27.3886 54.77882-54.76368c4.072-4.07046 8.21011-8.07851 12.1701-12.25529a3.35315 3.35315 0 0 1 4.22566-.94592 127.98939 127.98939 0 0 1 42.418 26.13847c20.75563 19.28158 34.07654 42.84124 39.09334 70.68533 6.5 36.076-.74084 69.4441-22.37115 99.16673-21.0553 28.93246-49.66907 45.97494-84.99109 51.6537-20.37427 3.27557-46.98622.39182-63.81133-6.8697zm312.59634 16.622l11.08292-24.15366c-6.25485 0-12.14475-.1627-18.01868.0726-2.702.10825-3.35571-.71518-3.16415-3.27591a93.01548 93.01548 0 0 0 .0184-9.71243c-.04517-1.50256.4017-2.04916 1.96646-2.04466q20.38027.05877 40.76077-.022c1.92188-.00721 1.53562.8004.9813 1.94864-3.74875 7.76548-7.45478 15.5516-11.21235 23.31282-1.5787 3.26083-1.52859 3.0054 1.89557 4.34225 3.76014 1.46805 6.12647 4.552 7.86719 8.146 4.7601 9.82815 2.82214 21.85885-5.04239 28.9703-6.09173 5.5084-13.45828 7.32672-21.54034 6.20484-3.3573-.466-3.40976-.49747-3.48081 3.0036-.42035 20.70923-14.54788 38.69046-34.15966 42.89657-13.58127 2.91281-25.45307-.44671-35.14414-11.38253-.05926 1.232-.14227 2.15945-.14273 3.08694-.00824 17.54614-.05905 35.09265.05328 52.63806.01554 2.42551-.63192 3.01117-3.00073 2.94235-6.20355-.18026-12.417-.12506-18.62393-.01538-1.82645.03226-2.24078-.572-2.239-2.30886q.06715-67.08033 0-134.16062c-.002-1.91653.35083-2.679 2.494-2.62772 6.29511.15052 12.59717.10209 18.89463.00782 1.83377-.02744 2.589.45758 2.465 2.41134-.15912 2.50617-.03866 5.03006-.03866 7.47513.511.38474.70443.02637.91812-.21951 9.71545-11.18108 22.02737-14.02985 35.9147-10.5853 13.24851 3.2861 22.2684 11.907 28.14789 24.01944 2.5817 5.31867 9.12106 8.29383 14.17847 6.44422 3.93026-1.43741 6.01983-4.987 5.69159-9.66843-.264-3.76444-2.4618-6.0484-6.60709-7.08341-3.46033-.86389-6.9884-.315-10.91559-.66253zm-67.34527 33.34662q0 6.074.003 12.148a3.69385 3.69385 0 0 0 .60131 2.54648c5.66071 7.09945 13.027 10.99621 22.07383 10.13592 15.68481-1.49151 25.20889-14.91015 21.963-30.32748-2.03339-9.65827-7.74719-16.03311-17.38327-18.58679-9.72867-2.5781-17.817.60348-24.83014 7.3489a7.68686 7.68686 0 0 0-2.47928 6.4802c.22388 3.40466.05435 6.83526.05155 10.2547z"/><path fill="#39bacc" d="M280.79559 335.7a31.517 31.517 0 0 1-17.76776 10.3385c-21.373 4.41473-41.54637-5.70023-49.01814-27.289-5.01206-14.48175-4.53862-28.99433 2.02494-42.94681 6.246-13.27737 16.7374-21.19022 31.4097-23.32761a39.01382 39.01382 0 0 1 24.49533 4.29425 34.177 34.177 0 0 1 8.26856 6.75049c.971-.38955.54367-1.11468.54449-1.65658.02567-17.00229.06308-34.00476-.00513-51.00681-.00836-2.08233.507-2.79684 2.69132-2.745 6.29388.14943 12.5943.11886 18.89017.02589 1.78186-.02631 2.27429.51823 2.27246 2.29131q-.06849 65.85072.01343 131.70147c.0032 2.16639-.623 2.761-2.72846 2.71494-6.11471-.134-12.237-.18344-18.3497-.01868-2.36526.06372-2.9852-.74554-2.77563-2.92563.16967-1.76458.03442-3.55859.03442-6.20071zm-.0087-36.02442h.0195c0-3.95938-.06149-7.92019.0318-11.87738a4.51671 4.51671 0 0 0-1.46716-3.55719c-7.03766-7.12851-15.48267-10.31735-25.44112-8.95541a19.50967 19.50967 0 0 0-14.51489 9.21548c-4.52943 7.24-4.83664 15.13779-2.97859 23.148 1.77784 7.66428 6.16232 13.38584 14.04034 15.55219 11.42874 3.14267 20.98972-.65979 29.36173-8.43292a3.53119 3.53119 0 0 0 .95541-2.94449c-.01767-4.04932-.007-8.09879-.007-12.1482zM72.9945 116.56237c0 4.144-.0008 7.54864.00012 10.95325q.01482 54.66537.0067 109.33073c-.00039.82719.46445 1.96864-.47065 2.44325-.77945.39556-1.44555-.5079-2.10759-.92344a127.22915 127.22915 0 0 1-41.54367-42.20441 119.19251 119.19251 0 0 1-10.77612-22.24938 2.93088 2.93088 0 0 1 .70346-3.55749q25.79125-25.66749 51.49951-51.41831c.676-.67524 1.43243-1.27 2.68824-2.37425zm368.87094 137.80687c3.47745 0 6.5691-.04959 9.65845.01257 3.84686.07739 3.85111.11722 3.85556-3.73506.00482-4.13521.04328-8.27119-.02774-12.40521a2.73584 2.73584 0 0 1 1.6647-2.74671c6.683-3.6625 13.37128-7.31961 19.95945-11.14773 1.99426-1.15879 2.17978-.51519 2.17035 1.31213-.04352 8.45253.08511 16.90775-.09626 25.35668-.05661 2.63867.91278 3.5245 3.33054 3.49032 5.84286-.08258 11.69043-.01132 17.52768-.22873 2.43768-.09079 3.09622.7262 3.01217 3.07321-.17056 4.76014-.13269 9.53208-.02548 14.29566.04151 1.84335-.44308 2.48074-2.39578 2.44369-6.38263-.12133-12.77011.02716-19.15356-.07068-1.80487-.02764-2.28513.55961-2.27713 2.30072.0599 13.03907-.02958 26.07895.05734 39.11774.04535 6.80637 4.30737 10.51276 11.15561 9.942a26.46914 26.46914 0 0 0 9.48086-2.76984c3.03461-1.4877 3.09928-1.46832 3.9545 1.63254 1.3353 4.84143 2.64639 9.68967 4.01154 14.52267.29806 1.055.325 1.75226-.79435 2.45847-11.13308 7.02414-29.964 8.32037-40.93423.32568-7.52478-5.48379-10.50134-13.23306-10.60522-22.186-.16269-14.02649-.14682-28.05634-.03806-42.0835.0199-2.567-.58212-3.71808-3.2406-3.23514-1.92535.34971-2.60861-.40487-2.84619-2.41815a30.44323 30.44323 0 0 0-6.58676-15.93438c-.20813-.25629-.35254-.56434-.81745-1.323zM10.3932 129.05684c.264-28.73278 8.89488-54.64015 26.25061-77.62091 1.35507-1.79425 2.12194-.9636 3.14558-.027q8.241 7.54005 16.45827 15.106c4.2292 3.88576 8.42213 7.812 12.70489 11.63779 1.20461 1.076 1.34328 1.6835.09464 2.92737q-28.224 28.11623-56.35222 56.3286c-.47694.4769-.95035 1.27-1.76773.90881-.66785-.29513-.50789-1.11018-.51727-1.70657-.03962-2.51753-.01677-5.036-.01677-7.55414zm90.5388 74.10534c0-2.95719.00005-5.193 0-7.42879q-.00114-41.95322-.00173-83.90639a10.54832 10.54832 0 0 1 .0307-1.616c.08838-.56543-.32225-1.40773.49282-1.6229.639-.16867 1.11508.44057 1.57672.86039 3.31746 3.01684 6.64824 6.01919 9.95208 9.05089q17.94543 16.46723 35.90253 32.92155c1.52616 1.38979 2.01027 2.23081.2525 3.91535-5.43739 5.21089-10.69683 10.60776-16.01416 15.9436Q119.16928 185.2827 105.2196 199.29c-1.18561 1.187-2.48981 2.25545-4.28762 3.87213zm-.00352-154.94048c0-1.521.0012-2.91469-.00019-4.30841-.01188-11.85741.00724-23.715-.07865-35.57191-.01007-1.3887.40605-1.7698 1.68357-2.135a131.1909 131.1909 0 0 1 40.13288-5.1311c1.664.04878 3.32226.29143 4.85177.43214zM72.86809 19.1543v24.23186c-1.50162-.25711-2.20675-1.49057-3.15021-2.33728-3.4625-3.10746-6.83862-6.31326-10.3553-9.35722-1.43758-1.24433-1.63958-2.00723.01521-3.25166 4.21566-3.17025 8.50888-6.21165 13.4903-9.2857z"/><path d="M190.83236 413.02246h16.94873l25.36182 71.68454h-16.24317l-4.73047-14.73633h-26.39843l-4.85938 14.73633H165.243zm-.98731 44.59668h18.35889l-9.05517-28.207zm95.87647-20.23242q6.48633 6.85839 6.48633 20.13476 0 14.00685-6.33985 21.34961a20.57314 20.57314 0 0 1-16.32422 7.34375 17.11913 17.11913 0 0 1-10.57226-3.16113 20.45084 20.45084 0 0 1-4.50391-5.10644v27.623h-13.71386v-73.873h13.27636v7.83007a22.3076 22.3076 0 0 1 4.79688-5.44726 17.70191 17.70191 0 0 1 11.06152-3.54981 20.96761 20.96761 0 0 1 15.83301 6.85645zm-10.6377 9.9707q-2.82568-4.71679-9.16308-4.71777-7.61572 0-10.46485 7.14941a26.8621 26.8621 0 0 0-1.47461 9.62891q0 9.24022 4.959 12.98437a11.38066 11.38066 0 0 0 6.97851 2.18946 10.14444 10.14444 0 0 0 8.91895-4.47461q3.07177-4.47363 3.07129-11.915a20.69138 20.69138 0 0 0-2.82521-10.84477zm71.47754-9.9707q6.48633 6.85839 6.48633 20.13476 0 14.00685-6.33984 21.34961a20.57317 20.57317 0 0 1-16.32422 7.34375 17.11914 17.11914 0 0 1-10.57227-3.16113 20.45083 20.45083 0 0 1-4.5039-5.10644v27.623h-13.71387v-73.873H314.87v7.83007a22.30758 22.30758 0 0 1 4.79687-5.44726 17.70191 17.70191 0 0 1 11.06152-3.54981 20.96761 20.96761 0 0 1 15.83297 6.85645zm-10.63769 9.9707q-2.82569-4.71679-9.16309-4.71777-7.61572 0-10.46484 7.14941a26.8621 26.8621 0 0 0-1.47461 9.62891q0 9.24022 4.959 12.98437a11.38071 11.38071 0 0 0 6.97852 2.18946 10.14444 10.14444 0 0 0 8.91894-4.47461q3.07179-4.47363 3.07129-11.915a20.69138 20.69138 0 0 0-2.82521-10.84477z"/></svg>