<svg xmlns="http://www.w3.org/2000/svg" role="img" viewBox="-3.47 -3.47 180.18 87.43"><title>FLAAT API logo</title><g fill="#fff"><path d="M25.026 0C15.71 0 7.258 6.175 7.258 18.309v16.467H0v6.391h7.258v38.46h7.584v-38.46h11.483v-6.391H14.842V18.417c0-8.126 4.225-11.593 10.183-11.593s9.967 3.467 9.967 11.593v61.21h7.584V17.875C42.577 5.526 34.234 0 25.026 0z"/><path d="M72.804 33.801c-8.559 0-14.409 3.358-18.309 8.667l4.658 4.225a15.313 15.313 0 0 1 13.109-6.5c6.608 0 10.509 3.358 10.509 12.026v1.083H68.795c-9.425 0-17.009 4.333-17.009 13.543 0 9.316 6.933 13.65 16.467 13.65 7.15 0 11.81-3.034 14.842-7.583l-.324 6.717h7.583V52.111c0-12.46-7.583-18.31-17.55-18.31zm9.967 30.876c0 5.85-5.851 9.642-12.785 9.642-7.042 0-10.833-2.709-10.833-7.8 0-5.417 4.442-7.475 10.183-7.475h13.435z"/><path d="M119.499 33.801c-8.559 0-14.409 3.358-18.309 8.667l4.659 4.225a15.313 15.313 0 0 1 13.109-6.5c6.608 0 10.509 3.358 10.509 12.026v1.083H115.49c-9.425 0-17.009 4.333-17.009 13.543 0 9.316 6.933 13.65 16.467 13.65 7.15 0 11.809-3.034 14.842-7.583l-.324 6.717h7.583V52.111c0-12.46-7.583-18.31-17.55-18.31zm9.967 30.876c0 5.85-5.851 9.642-12.785 9.642-7.041 0-10.833-2.709-10.833-7.8 0-5.417 4.442-7.475 10.184-7.475h13.434z"/><path d="M169.227 71.394a8.17 8.17 0 0 1-6.067 2.6c-3.25 0-5.309-1.841-5.309-7.8V41.167h12.568v-6.391h-12.567v-23.4h-7.475v23.4h-6.934v6.391h6.934v24.918c0 10.617 5.2 14.517 12.025 14.517a14.565 14.565 0 0 0 10.942-4.442z"/></g></svg>