<svg xmlns="http://www.w3.org/2000/svg" role="img" viewBox="-21.63 -25.63 942.76 781.76"><title>France (StopCovid) logo</title><path fill="#002395" d="M-3.121-7.155h302.074v604.149H-3.121z"/><path fill="#fff" d="M298.953-7.155h302.074v604.149H298.953z"/><path fill="#ed2939" d="M601.028-7.155h302.074v604.149H601.028z"/><path d="M70.54491 661.0696h42.79395v10.54589h-30.334v13.80372h26.58887V695.843H83.00487v25.16309h-12.46zm74.65625 14.5166c.14844.01367.48145.03418.99707.06054v11.88965q-1.09863-.12158-1.9541-.16308c-.57031-.02637-1.03222-.041-1.38476-.041q-7.00343 0-9.40528 4.56055-1.34472 2.56494-1.34375 7.89941v21.21387h-11.68652v-44.38186H131.499v7.73633a24.54918 24.54918 0 0 1 4.68261-6.06738 12.74886 12.74886 0 0 1 8.46973-2.72754c.21682 0 .39943.00684.54982.02051zm25.37598 18.4238a18.32841 18.32841 0 0 0 4.63477-1.01758 3.49057 3.49057 0 0 0 2.502-3.29785 3.90032 3.90032 0 0 0-1.919-3.76661 12.13243 12.13243 0 0 0-5.63379-1.03808q-4.16894 0-5.90234 2.03613a8.3926 8.3926 0 0 0-1.65137 4.07129h-11.19726a16.98017 16.98017 0 0 1 3.27148-9.56836q4.62159-5.86377 15.86719-5.86328a28.29841 28.29841 0 0 1 13.00391 2.89062q5.68506 2.89161 5.68457 10.91211v20.35941q0 2.11669.08105 5.12988a6.436 6.436 0 0 0 .69238 3.09473 4.15746 4.15746 0 0 0 1.71 1.34375v1.71h-12.62211a12.88264 12.88264 0 0 1-.73339-2.52441q-.20362-1.18066-.3252-2.6875a23.98982 23.98982 0 0 1-5.57031 4.43847 16.83244 16.83244 0 0 1-8.51856 2.1582 14.6972 14.6972 0 0 1-10.01367-3.4414q-3.95214-3.43945-3.95215-9.751 0-8.18554 6.35743-11.84961 3.48779-1.99365 10.25488-2.84961zm7.0957 5.416a12.76544 12.76544 0 0 1-2.25 1.11914 18.97815 18.97815 0 0 1-3.11621.79395l-2.6416.48925a17.391 17.391 0 0 0-5.334 1.5879 5.299 5.299 0 0 0-2.74121 4.92675 5.14565 5.14565 0 0 0 1.6748 4.2959 6.36427 6.36427 0 0 0 4.07227 1.32324 12.12884 12.12884 0 0 0 7.00781-2.19921q3.20508-2.19874 3.32812-8.02149zm57.49121-20.25679q4.35792 3.60351 4.3584 11.95019v29.88672h-11.88867V694.01a12.40647 12.40647 0 0 0-.92969-5.374q-1.69922-3.4204-6.46777-3.4209-5.86085 0-8.043 5.00879a17.30919 17.30919 0 0 0-1.13183 6.75879v24.02344H199.457v-44.30078h11.2383V683.18a19.62375 19.62375 0 0 1 4.2168-4.92676 14.60406 14.60406 0 0 1 9.041-2.6875q6.85256-.00005 11.21095 3.60347zm41.69629 13.375a10.2785 10.2785 0 0 0-1.67285-4.47852q-1.96-2.688-6.082-2.6875-5.87841 0-8.041 5.82227a24.18191 24.18191 0 0 0-1.14258 8.2041 22.22553 22.22553 0 0 0 1.14258 7.83886q2.08153 5.53858 7.83691 5.53809 4.08252 0 5.7959-2.19922a10.93017 10.93017 0 0 0 2.082-5.70019h11.84863a19.40826 19.40826 0 0 1-3.83105 10.0166q-5.4624 7.61426-16.18067 7.61426-10.71972 0-15.77343-6.35254-5.05518-6.35157-5.05469-16.47071 0-11.41992 5.584-17.77246 5.584-6.35155 15.40723-6.35156 8.354 0 13.67383 3.74609 5.31885 3.74561 6.29687 13.23243zm48.75-15.02149a18.062 18.062 0 0 1 7.66993 6.56641 21.8243 21.8243 0 0 1 3.53613 9.1748 56.67539 56.67539 0 0 1 .38183 8.8086H304.874q.26952 6.67821 4.6416 9.36523a11.78333 11.78333 0 0 0 6.39746 1.66895 9.01145 9.01145 0 0 0 8.832-5.08985h11.84766q-.46875 3.95069-4.30176 8.02149-5.96339 6.4746-16.69727 6.47461a24.18928 24.18928 0 0 1-15.63281-5.46094q-6.77345-5.46094-6.77246-17.76856 0-11.5327 6.11328-17.68652 6.11426-6.15234 15.87109-6.15332a25.27773 25.27773 0 0 1 10.43755 2.0791zM308.25 687.54811a12.05618 12.05618 0 0 0-3.09082 6.86914h19.99219a9.67917 9.67917 0 0 0-3.0918-7.01269 10.1681 10.1681 0 0 0-6.88183-2.39258 9.20532 9.20532 0 0 0-6.92774 2.53613zm60.958-11.41311a87.2946 87.2946 0 0 1 9.40625-16.124h8.75391l-2.4834 4.56055a67.88928 67.88928 0 0 0-7.126 19.707 77.935 77.935 0 0 0-1.30273 14.74023 69.60787 69.60787 0 0 0 3.624 22.92383 104.55209 104.55209 0 0 0 7.49121 15.87989h-8.59082l-2.89062-3.94922a52.99646 52.99646 0 0 1-5.98633-10.668 60.75516 60.75516 0 0 1-5.65918-24.91992A55.28506 55.28506 0 0 1 369.208 676.135zm34.77344 26.34475a12.16547 12.16547 0 0 0 2.28613 6.14844q3.1172 3.706 10.68457 3.70508a22.99316 22.99316 0 0 0 7.3584-.97754q5.36279-1.87207 5.36328-6.96192a5.13122 5.13122 0 0 0-2.62695-4.60156 28.51536 28.51536 0 0 0-8.333-2.80957l-6.49805-1.4248q-9.57861-2.11671-13.16113-4.60157-6.06885-4.15283-6.06738-12.98828a17.24826 17.24826 0 0 1 5.93554-13.39648q5.93554-5.3335 17.43555-5.334a26.74255 26.74255 0 0 1 16.38477 5.02832q6.7793 5.03028 7.11035 14.59766h-12.05275a8.59306 8.59306 0 0 0-4.84179-7.69531 16.59405 16.59405 0 0 0-7.47168-1.50684 14.22283 14.22283 0 0 0-7.93164 1.9541 6.18408 6.18408 0 0 0-2.96387 5.45606 5.14569 5.14569 0 0 0 2.92187 4.80469 36.252 36.252 0 0 0 7.97364 2.48437l10.53222 2.4834q6.92578 1.62891 10.38086 4.35645 5.36573 4.23631 5.36621 12.25683a17.21941 17.21941 0 0 1-6.35839 13.66016q-6.35889 5.436-17.96387 5.43554-11.85352 0-18.64356-5.35351-6.791-5.354-6.791-14.71973zm41.08301-17.18262v-8.26562h6.18847v-12.37793h11.48242v12.37793h7.207v8.26562h-7.207v23.45313q0 2.72754.69239 3.39941.6914.67238 4.23437.67188a32.3168 32.3168 0 0 0 1.12012-.01953q.58887-.0205 1.16015-.06153v8.67286l-5.49707.20312q-8.22508.28565-11.2373-2.84961-1.95557-1.99512-1.95508-6.14844v-27.32129zm69.34179 30.2793q-5.61914 6.936-17.06054 6.93653-11.4419 0-17.06055-6.93653a27.53482 27.53482 0 0 1 0-33.33887q5.61914-7.03857 17.06055-7.03906 11.44042 0 17.06054 7.03906a27.53482 27.53482 0 0 1 0 33.33887zm-9.28418-6.41308q2.72754-3.61964 2.72852-10.28711 0-6.668-2.72852-10.26563a10.31253 10.31253 0 0 0-15.65527 0q-2.748 3.59766-2.749 10.26563 0 6.668 2.749 10.28711a10.27634 10.27634 0 0 0 15.65527 0zm60.53223-27.77535q5.43018 5.74071 5.43066 16.85742 0 11.72607-5.30761 17.875a17.22783 17.22783 0 0 1-13.667 6.14843 14.32913 14.32913 0 0 1-8.85254-2.64746 17.08466 17.08466 0 0 1-3.76953-4.27539v23.12793h-11.48242v-61.84965h11.11524V683.18a18.66534 18.66534 0 0 1 4.0166-4.56055 14.81627 14.81627 0 0 1 9.26074-2.97266 17.55 17.55 0 0 1 13.25586 5.74121zm-8.90625 8.34667q-2.36572-3.94775-7.6709-3.94921a8.72471 8.72471 0 0 0-8.76172 5.98535 22.47906 22.47906 0 0 0-1.23437 8.0625q0 7.73583 4.15136 10.87109a9.52582 9.52582 0 0 0 5.8418 1.833 8.49422 8.49422 0 0 0 7.46777-3.74609q2.57081-3.7456 2.57227-9.97657a17.32913 17.32913 0 0 0-2.36625-9.08011zm29.19043-22.47562q7.251-7.41065 18.44922-7.41016 14.98535 0 21.91406 9.93457a21.66179 21.66179 0 0 1 4.1084 11.19727h-12.541a17.09851 17.09851 0 0 0-3.07129-6.51465q-3.35155-3.90821-9.93261-3.90918a12.24 12.24 0 0 0-10.57129 5.51758q-3.86865 5.51806-3.86817 15.61523 0 10.09863 4.082 15.126a12.79276 12.79276 0 0 0 10.376 5.0293q6.45117 0 9.83789-4.31641a18.937 18.937 0 0 0 3.10645-6.96289h12.46a27.03852 27.03852 0 0 1-8.23828 15.96191q-6.6255 6.148-16.97852 6.14746-12.80859 0-20.14062-8.30566-7.33155-8.34668-7.33106-22.88379-.00005-15.71633 8.33882-24.22658zm90.56445 48.31738q-5.61914 6.936-17.06055 6.93653-11.44188 0-17.06054-6.93653a27.53482 27.53482 0 0 1 0-33.33887q5.61913-7.03857 17.06054-7.03906 11.44044 0 17.06055 7.03906a27.53482 27.53482 0 0 1 0 33.33887zm-9.28418-6.41308q2.72754-3.61964 2.72852-10.28711 0-6.668-2.72852-10.26563a10.31253 10.31253 0 0 0-15.65527 0q-2.748 3.59766-2.749 10.26563 0 6.668 2.749 10.28711a10.27634 10.27634 0 0 0 15.65527 0zm50.55078-32.53907h12.46l-16.02636 44.38184h-12.23637l-15.916-44.38184h13.03028l9.24218 32.73633zm30.96582-5.29394h-11.76757v-10.708h11.76757zm-11.76757 5.29394h11.76757v44.38184h-11.76757zm46.54003.71192a14.1083 14.1083 0 0 1 5.08985 4.90722V661.0696h11.76758v59.93652h-11.2793v-6.14844a16.36515 16.36515 0 0 1-5.65918 5.74121 15.8938 15.8938 0 0 1-7.89941 1.792 16.49326 16.49326 0 0 1-13.09082-6.291q-5.31445-6.29151-5.31348-16.14453 0-11.35986 5.23242-17.875a17.02111 17.02111 0 0 1 13.98633-6.51465 14.316 14.316 0 0 1 7.16601 1.77049zm2.85059 31.61718a16.18661 16.18661 0 0 0 2.56445-9.48632q0-8.14453-4.1123-11.64551a8.85422 8.85422 0 0 0-5.86328-2.11719q-5.09034 0-7.47168 3.84766a17.82782 17.82782 0 0 0-2.38184 9.54785q0 6.14941 2.42285 9.834a8.19356 8.19356 0 0 0 7.34961 3.68457 8.569 8.569 0 0 0 7.49219-3.66506zm38.32324-32.81838a55.37192 55.37192 0 0 1 4.75489 22.15039 60.84822 60.84822 0 0 1-5.64942 24.91992 53.04821 53.04821 0 0 1-5.97461 10.668l-2.88574 3.94922h-8.57617a104.81467 104.81467 0 0 0 7.46387-15.87989 69.86533 69.86533 0 0 0 3.61132-22.92383 78.27331 78.27331 0 0 0-1.29785-14.74023 68.11121 68.11121 0 0 0-7.09961-19.707l-2.47558-4.56055h8.73927a87.41053 87.41053 0 0 1 9.38963 16.12397z"/></svg>