<svg xmlns="http://www.w3.org/2000/svg" role="img" viewBox="-17.99 -17.99 935.48 717.48"><title>France (TousAntiCovid) logo</title><path fill="#ED2939" d="M0 0h900v600H0z"/><path fill="#fff" d="M0 0h600v600H0z"/><path fill="#002395" d="M0 0h300v600H0z"/><path d="M80.58382 620.87417v47.46096h9.8682v-19.92901h20.86449v-8.25408H90.45203v-10.9229h23.82678v-8.35497zm59.11755 11.49152c-.11922-.00917-.2568-.00917-.43104-.00917-2.75136 0-4.98914.71535-6.70415 2.15523-1.05469.86209-2.2928 2.46705-3.71434 4.8057v-6.12636h-8.76766v35.14404h9.25374v-16.79246c0-2.82473.35767-4.9066 1.06386-6.26393 1.26562-2.40286 3.75102-3.60429 7.44701-3.60429.2843 0 .65116.00918 1.10054.02752.4494.02751.96298.0642 1.54077.1284v-9.40966c-.40354-.02751-.6695-.03668-.78873-.05502zm25.55097 18.8835v3.42085c-.0642 3.07236-.9263 5.1909-2.59545 6.34648-1.66 1.16474-3.48506 1.74252-5.45687 1.74252-1.24728 0-2.31114-.3485-3.1824-1.04551-.87127-.69701-1.30231-1.83424-1.30231-3.40252 0-1.76087.70618-3.06318 2.12771-3.90693.83458-.49524 2.2286-.90795 4.15456-1.25645l2.06352-.3852c1.03634-.19259 1.8434-.40353 2.43954-.62364.58695-.22928 1.17391-.52275 1.7517-.8896zm-5.5761-4.29212l-3.12737.38519c-3.54009.45856-6.22725 1.2106-8.06149 2.26528-3.32914 1.93513-4.9983 5.0625-4.9983 9.38214 0 3.32915 1.04552 5.90625 3.1182 7.72215 2.0727 1.8159 4.69566 2.72385 7.87807 2.72385 2.49456 0 4.73234-.56862 6.71332-1.71502 1.65081-.96297 3.10903-2.13689 4.38383-3.51257.0642.7979.14674 1.50408.2568 2.12772.10088.62364.30264 1.29314.57778 1.99932h9.9966v-1.35733c-.6053-.27514-1.05468-.63282-1.35733-1.06386-.30265-.42188-.48607-1.23812-.55027-2.44871-.03669-1.58662-.0642-2.94396-.0642-4.06285v-16.1138c0-4.23709-1.48574-7.11685-4.47555-8.64844-2.9898-1.52242-6.41067-2.28362-10.2534-2.28362-5.91542 0-10.07915 1.54076-12.50952 4.64062-1.53159 1.98098-2.3845 4.50306-2.58627 7.57541h8.86855c.2201-1.35733.65115-2.43036 1.29314-3.21909.89877-1.0822 2.43953-1.61413 4.6131-1.61413 1.93513 0 3.40252.27514 4.40219.81624.99048.55027 1.4949 1.54993 1.4949 2.9898 0 1.1831-.65115 2.04519-1.96264 2.60463-.7337.33016-1.95346.59613-3.65013.80707zm.48608-14.70144zm50.82679 2.95313c-2.31114-1.90761-5.28261-2.85224-8.9144-2.85224-2.8981 0-5.29179.70618-7.19023 2.12771-1.05468.78873-2.1644 2.09104-3.34748 3.89776v-5.1267h-8.86856v35.07984h9.15286v-19.02107c0-2.17357.30265-3.95278.90795-5.35598 1.15557-2.6413 3.30163-3.96196 6.41067-3.96196 2.54042 0 4.25544.89878 5.16339 2.7055.49524.9905.74286 2.41203.74286 4.25545v21.37806h9.40965v-23.6617c0-4.41134-1.15557-7.56623-3.46671-9.46467zm-12.29858-2.95313zm45.24153 13.54586h9.40965c-.51359-5.00747-2.17357-8.5017-4.97996-10.48268-2.80639-1.9718-6.41067-2.9623-10.81284-2.9623-5.18173 0-9.24457 1.67833-12.18853 5.02582-2.94395 3.35666-4.42052 8.05232-4.42052 14.08697 0 5.35598 1.32983 9.7123 3.99865 13.05978 2.66881 3.35666 6.82337 5.035 12.47283 5.035 5.65863 0 9.92324-2.0085 12.803-6.03466 1.80672-2.49456 2.81555-5.13587 3.03566-7.93308h-9.38214c-.20176 1.85258-.74286 3.35666-1.65081 4.5214-.89878 1.15557-2.43037 1.74253-4.57643 1.74253-3.0265 0-5.09002-1.4674-6.19056-4.393-.6053-1.56828-.89878-3.64098-.89878-6.21808 0-2.7055.29348-4.87908.89878-6.51155 1.13723-3.07236 3.25577-4.61312 6.35564-4.61312 2.1644 0 3.76936.70618 4.79654 2.12772.71535 1.05469 1.15557 2.23777 1.32982 3.54925zm-6.22724-13.54586zm30.87026 9.57473c1.1739-1.32982 2.82472-1.99932 4.95244-1.99932 1.95347 0 3.59511.63282 4.91577 1.88927 1.32065 1.25645 2.05435 3.09987 2.21026 5.53023h-14.28873c.30265-2.28362 1.04551-4.08118 2.21026-5.42018zm12.84885-7.93308c-2.33866-1.09138-4.9708-1.64165-7.8964-1.64165-4.92494 0-8.92358 1.6233-12.01428 4.8699-3.08152 3.24661-4.62228 7.91475-4.62228 13.99526 0 6.49321 1.70584 11.1797 5.1267 14.05945 3.42085 2.87976 7.36447 4.31964 11.83085 4.31964 5.42017 0 9.62976-1.71502 12.6379-5.1267 1.93513-2.15524 3.0265-4.27378 3.25578-6.35565h-9.38213c-.49525 1.03635-1.06386 1.84341-1.70585 2.4212-1.18308 1.07303-2.72384 1.61413-4.61311 1.61413-1.77921 0-3.3108-.44022-4.57643-1.32982-2.08186-1.41237-3.19158-3.8886-3.31997-7.41033h24.05605c.03669-3.03567-.05502-5.35598-.29347-6.97011-.4127-2.75136-1.30231-5.16339-2.678-7.25442-1.52241-2.357-3.45754-4.09036-5.80536-5.1909zm-7.25442-1.64165zm42.71945 0c-2.78805 6.44736-4.19124 12.81217-4.19124 19.08527 0 5.43852 1.0822 10.84953 3.22826 16.22385 1.82507 4.62229 4.48472 9.31794 7.9606 14.08697h5.4477l-1.96264-3.61346c-2.7055-4.97996-4.5856-10.19837-5.64029-15.6369-.68784-3.54008-1.03635-7.4195-1.03635-11.63825 0-6.5299.89878-12.44531 2.678-17.72793 1.07303-3.16406 3.10903-7.47452 6.09884-12.93139l-5.29178-.0642-2.2928 3.1549c-1.77921 2.47622-3.44837 5.49355-4.9983 9.06114zm55.10974-11.44566H333.498v8.41917h14.27956v39.106h9.9966v-39.106h14.22454zm27.01835 38.17971c-1.43988 1.90761-3.5034 2.87059-6.19056 2.87059-2.68716 0-4.75985-.96298-6.2089-2.87059-1.44905-1.91678-2.17357-4.63146-2.17357-8.16237 0-3.52174.72452-6.23641 2.17357-8.14402 1.44905-1.89844 3.52174-2.85225 6.2089-2.85225s4.75068.9538 6.19056 2.85225c1.43988 1.9076 2.15523 4.62228 2.15523 8.14402 0 3.53091-.71535 6.24559-2.15523 8.16237zm7.34613 5.07167c2.97147-3.6593 4.44804-8.07065 4.44804-13.23404 0-5.07167-1.47657-9.46468-4.44804-13.18818-2.9623-3.71434-7.46535-5.5761-13.50917-5.5761-6.03465 0-10.53771 1.86176-13.50918 5.5761-2.9623 3.7235-4.44803 8.1165-4.44803 13.18818 0 5.16339 1.48573 9.57473 4.44803 13.23404 2.97147 3.66848 7.47453 5.50272 13.50918 5.50272 6.04382 0 10.54688-1.83424 13.50917-5.50272zm-13.50917-31.80572zm33.69499.93546h-9.40966v21.18548c0 4.01698.50442 7.06182 1.51325 9.12534 1.80673 3.74185 5.31013 5.61277 10.5102 5.61277 1.80672 0 3.375-.23845 4.72317-.71535 1.33899-.46773 2.73301-1.34817 4.1729-2.6413.4769-.4127.88043-.88044 1.22893-1.42154.33934-.53193.55945-.8621.64199-.96298v4.96162h8.93274V633.1911h-9.31793v19.12196c0 2.25611-.30265 4.072-.90795 5.44769-1.15557 2.54042-3.30164 3.80605-6.44736 3.80605-2.4487 0-4.09035-.8896-4.9341-2.678-.46773-1.00883-.70618-2.5129-.70618-4.51222zm6.44735-.93546zm31.88826 24.86313h-9.31794c0 3.60428 1.32065 6.57575 3.95279 8.9144 2.63213 2.32949 6.71332 3.49423 12.23438 3.49423 5.42018 0 9.41882-1.10055 12.01427-3.30163 2.58628-2.2011 3.87942-5.04416 3.87942-8.52922 0-2.6413-.89878-4.85156-2.7055-6.61243-1.82507-1.74253-4.56726-3.03567-8.22657-3.89776-5.4752-1.20143-8.66678-2.05435-9.57473-2.5496-.89878-.46773-1.34817-1.23811-1.34817-2.28363 0-.84375.42188-1.57744 1.26563-2.20108.85292-.61448 2.27445-.9263 4.27377-.9263 2.43037 0 4.15456.61447 5.16339 1.86176.53193.68784.87126 1.6233.99966 2.80638h9.18954c-.4127-4.29212-1.99932-7.31861-4.75985-9.07031-2.76053-1.7517-6.3373-2.63214-10.72113-2.63214-4.62229 0-8.19905 1.16475-10.74865 3.5034-2.5496 2.32949-3.82439 5.11753-3.82439 8.36414 0 2.75136.81624 4.86073 2.44871 6.31895 1.63248 1.48574 4.43886 2.71468 8.41916 3.70517 5.52107 1.31148 8.71264 2.23777 9.57474 2.77887.86209.53193 1.29314 1.32065 1.29314 2.34783 0 1.07303-.53193 1.8801-1.5958 2.4212-1.06385.53193-2.50373.80706-4.31046.80706-3.07235 0-5.18173-.61447-6.31895-1.84341-.64199-.68784-1.06386-1.84341-1.25646-3.47588zm7.03431-24.86313zm36.2721 18.1223l6.12636-18.70008 5.93377 18.70007zm.6053-29.56796l-16.95755 47.52516h10.3818l3.29246-9.76733h17.50782l3.06318 9.76733h10.76699l-16.82915-47.52516zm5.54857 0zm56.18277 14.39879c-2.31114-1.90761-5.2826-2.85224-8.9144-2.85224-2.8981 0-5.30096.70618-7.19022 2.12771-1.0547.78873-2.17358 2.09104-3.35666 3.89776v-5.1267H542.207v35.07984h9.15286v-19.02107c0-2.17357.30265-3.95278.90794-5.35598 1.15558-2.6413 3.29247-3.96196 6.41067-3.96196 2.54043 0 4.25544.89878 5.16339 2.7055.49524.9905.7337 2.41203.7337 4.25545v21.37806h9.41882v-23.6617c0-4.41134-1.15557-7.56623-3.46672-9.46467zm-12.29858-2.95313zm20.6352 7.8047h4.89743v21.63485c0 2.19192.52275 3.81522 1.54993 4.86991 1.58662 1.65082 4.55808 2.40286 8.89606 2.25612l4.35632-.16509v-6.86922a14.92323 14.92323 0 0 1-.91712.05502c-.31182.00917-.6053.01835-.8896.01835-1.87093 0-2.98982-.18343-3.35666-.5411-.35768-.34851-.5411-1.24729-.5411-2.68717v-18.57168h5.70448v-6.54823h-5.70448v-9.79485h-9.09783v9.79485h-4.89743zm35.04316-11.06047v-8.48336h-9.31794v8.48336zm-9.31794 4.19123v35.14404h9.31794V633.1911zm23.56998-7.41033c-4.44803 4.48472-6.66746 10.88622-6.66746 19.17698 0 7.6763 1.95347 13.72012 5.8604 18.1223 3.9161 4.38383 9.29042 6.57575 16.12297 6.57575 5.53023 0 10.0608-1.6233 13.59172-4.86991 3.54008-3.23744 5.732-7.45619 6.59409-12.63792h-9.83153c-.6695 2.44872-1.50407 4.29213-2.5129 5.5119-1.83425 2.28362-4.48472 3.42085-7.96978 3.42085-3.39334 0-6.19056-1.32982-8.40082-3.9803-2.20109-2.65965-3.30163-6.64912-3.30163-11.97758 0-5.32847 1.04552-9.45551 3.12738-12.36278 2.08186-2.91644 4.9341-4.37466 8.54756-4.37466 3.54008 0 6.21807 1.03634 8.0248 3.09986 1.00883 1.15557 1.83424 2.87976 2.4854 5.15422h9.9324c-.1559-2.9623-1.24728-5.91543-3.29246-8.86855-3.696-5.23676-9.54722-7.85972-17.5445-7.85972-5.97045 0-10.89539 1.95346-14.76564 5.86956zm14.48133-6.41984zm49.80879 39.62876c-1.43988 1.90761-3.5034 2.87059-6.19056 2.87059-2.68716 0-4.75068-.96298-6.19973-2.87059-1.45823-1.91678-2.18275-4.63146-2.18275-8.16237 0-3.52174.72452-6.23641 2.18275-8.14402 1.44905-1.89844 3.51257-2.85225 6.19973-2.85225 2.68716 0 4.75068.9538 6.19056 2.85225 1.43988 1.9076 2.1644 4.62228 2.1644 8.14402 0 3.53091-.72452 6.24559-2.1644 8.16237zm7.3553 5.07167c2.9623-3.6593 4.44803-8.07065 4.44803-13.23404 0-5.07167-1.48573-9.46468-4.44803-13.18818-2.9623-3.71434-7.46536-5.5761-13.50918-5.5761s-10.54688 1.86176-13.50918 5.5761c-2.97146 3.7235-4.44803 8.1165-4.44803 13.18818 0 5.16339 1.47657 9.57473 4.44803 13.23404 2.9623 3.66848 7.46536 5.50272 13.50918 5.50272s10.54688-1.83424 13.50918-5.50272zm-13.50918-31.80572zm46.2045.93546l-7.4837 25.92699-7.31861-25.92699h-10.3176l12.6104 35.14404h9.70313l12.6746-35.14404zm24.50545-4.19123v-8.48336h-9.31794v8.48336zm-9.31794 4.19123v35.14404h9.31794V633.1911zm36.84989.56862c-1.65082-.93546-3.54926-1.4032-5.67698-1.4032-4.62228 0-8.3091 1.71502-11.06964 5.15422-2.76053 3.4392-4.14538 8.16237-4.14538 14.16033 0 5.20007 1.4032 9.45551 4.20958 12.78466 2.80639 3.31997 6.25476 4.97996 10.36346 4.97996 2.49457 0 4.57643-.4769 6.25476-1.42154 1.67833-.94463 3.17323-2.45788 4.48471-4.54891v4.8699h8.93275v-47.46096h-9.31794v16.76496c-1.03634-1.65082-2.37534-2.94396-4.03532-3.87942zm2.25611 25.03737c-1.34817 1.92596-3.32914 2.8981-5.93377 2.8981-2.59544 0-4.53974-.97214-5.81454-2.91644-1.28396-1.9443-1.91678-4.53974-1.91678-7.78635 0-3.00815.62364-5.53023 1.8801-7.56624 1.25645-2.02683 3.22826-3.04483 5.91542-3.04483 1.77004 0 3.3108.55944 4.6498 1.67832 2.1644 1.84342 3.25578 4.92494 3.25578 9.21706 0 3.08152-.67867 5.58526-2.036 7.52038zm30.37502-25.99118c-1.69668-3.95278-4.18207-8.20822-7.44702-12.7663h-6.93343l1.96264 3.60428c2.71468 4.97079 4.59477 10.17086 5.64946 15.60938.68784 3.5676 1.02717 7.45618 1.02717 11.67494 0 6.57575-.9538 12.62874-2.87058 18.1498-1.11889 3.26495-3.0907 7.45619-5.93377 12.57372h6.80503l2.2928-3.12738c1.47657-1.88927 3.06318-4.70483 4.74151-8.44668 2.98064-6.6858 4.47555-13.26155 4.47555-19.73642 0-5.88791-1.25646-11.72997-3.76936-17.53534z"/></svg>