<svg xmlns="http://www.w3.org/2000/svg" role="img" xmlns:xlink="http://www.w3.org/1999/xlink" viewBox="-17.19 -17.19 789.88 789.88"><title>GAEN Explorer logo</title><style>svg {enable-background:new 0 0 756 756}</style><style>.st4{fill-rule:evenodd;clip-rule:evenodd}</style><g><defs><path id="SVGID_1_" d="M718.2,754.2H37.8c-19.9,0-36-16.1-36-36V37.8c0-19.9,16.1-36,36-36h680.4c19.9,0,36,16.1,36,36v680.4 C754.2,738.1,738.1,754.2,718.2,754.2z"/></defs><clipPath id="SVGID_2_"><use overflow="visible" xlink:href="#SVGID_1_"/></clipPath><g clip-path="url(#SVGID_2_)"><linearGradient id="SVGID_3_" x1="757.5" x2="0" y1="758" y2=".5" gradientTransform="matrix(1 0 0 -1 0 758)" gradientUnits="userSpaceOnUse"><stop offset="0" stop-color="#b6d4ee"/><stop offset=".253" stop-color="#d5e8c1"/><stop offset=".5" stop-color="#fffaca"/><stop offset=".758" stop-color="#fde1d4"/><stop offset=".989" stop-color="#f9c9dd"/></linearGradient><path fill="url(#SVGID_3_)" d="M0 0H757.5V757.5H0z"/><g><g><path fill="#e82828" fill-rule="evenodd" d="M167.5,597.4c-4.8,8.7,0.5,16.3-5.9,22.7c-7.6,7.5-18.3,0.1-22.8-4.6c-4.7-4.8-11.8-15.8-4-23.5 c6-6,13.5-0.5,22.2-5.1c-9.5-10.5-17.7-22.2-24.1-34.9c-18.3,6.4-35.4,12.3-39.9,14.2c-19.1,8.1-12.8,23.8-25.8,29.2 c-13.1,5.5-22.7-9-25.8-17c-3.4-8.3-6.7-25.2,6.8-30.8c12.3-5,19.2,10.5,38.2,2.7c6.7-2.9,22.1-10.2,38.2-18 c-4.8-13.9-7.8-28.5-8.6-43.7c-8.5,3.3-10.2,11.7-18.8,11.8c-10.6,0-13.3-12.8-13.2-19.3c0.1-6.7,2.6-19.6,13.5-19.6 c8.1-0.1,9.9,8.4,18.4,11.5c0.7-15,3.4-29.5,8-43.2c-17.8-8.6-34.5-16.6-38.9-18.5c-19.2-7.8-25.8,7.8-39,2.4 s-9.7-22.4-6.3-30.3c3.5-8.2,13.2-22.6,26.7-17c12.3,5,6.2,21,25.2,28.9c6.8,2.8,23.4,8.6,40.6,14.6 c6.7-13.8,15.4-26.4,25.7-37.5c-8.4-3.9-15.5,0.8-21.6-5.4c-7.6-7.6-0.3-18.4,4.5-22.9c4.8-4.7,15.7-11.8,23.4-3.9 c5.7,5.8,0.9,12.9,4.8,21.3c10.7-9.6,22.7-17.7,35.6-24.1c-6.5-18.5-12.5-35.9-14.3-40.4c-8.1-19.1-23.8-12.8-29.2-25.8 c-5.4-13.1,9.1-22.7,17-25.8c8.4-3.4,25.3-6.6,30.9,6.8c5,12.3-10.5,19.2-2.7,38.2c2.9,6.8,10.4,22.5,18.2,38.9 c13.6-4.5,27.9-7.3,42.8-8.1c-3-9.2-11.8-10.7-11.9-19.7c-0.1-10.7,12.7-13.3,19.1-13.3c6.6,0.1,19.4,2.6,19.5,13.6 c0.1,8.4-8.8,10.1-11.8,19.4c15.6,0.8,30.6,3.6,44.7,8.5c8.6-17.9,16.8-34.8,18.6-39.3c7.8-19.2-7.8-25.8-2.4-38.9 c5.4-13.1,22.4-9.7,30.3-6.3c8.2,3.5,22.6,13.2,17,26.7c-5,12.4-21,6.2-28.9,25.2c-2.9,6.9-8.8,23.8-14.9,41.1 c13.1,6.7,25.3,15,35.9,24.9c4.7-8.7-0.6-16.2,5.8-22.5c7.6-7.5,18.3-0.1,22.8,4.6c4.7,4.8,11.8,15.8,4,23.5 c-6,6-13.4,0.7-22.1,5.1c10,11,18.4,23.5,25,37c19.1-6.6,37.3-12.9,42-14.9c19.1-8.1,12.8-23.8,25.8-29.2 c13.1-5.5,22.7,9,25.8,17c3.4,8.3,6.6,25.2-6.8,30.8c-12.3,5-19.2-10.5-38.2-2.7c-7,2.9-23.7,10.8-40.5,19.1 c4.3,12.9,6.8,26.5,7.6,40.7c9.9-2.9,11.2-12.2,20.3-12.3c10.6-0.1,13.3,12.8,13.2,19.2c-0.1,6.7-2.6,19.6-13.5,19.6 c-8.6,0.1-10.2-9.3-19.9-12c-0.6,15.9-3.4,31.1-8.4,45.5c18.5,9,36.4,17.6,41,19.6c19.2,7.8,25.8-7.8,38.9-2.4 c13.1,5.4,9.7,22.4,6.3,30.3c-3.5,8.2-13.2,22.6-26.7,17c-12.4-5-6.2-21-25.2-28.9c-7.1-2.8-24.9-9.1-43-15.4 c-6.8,13.4-15.4,25.7-25.6,36.7c9.1,5.4,16.8-0.3,23.3,6.3c7.6,7.6,0.3,18.4-4.5,22.9c-4.8,4.7-15.7,11.8-23.4,3.9 c-6.1-6.2-0.3-14-5.6-23.1c-10.5,9.6-22.4,17.7-35.2,24.1c6.7,19.6,13.3,38.5,15.4,43.1c8.1,19.1,23.8,12.8,29.2,25.8 c5.4,13.1-9.1,22.7-17,25.8c-8.4,3.4-25.3,6.6-30.9-6.8c-5-12.3,10.5-19.2,2.7-38.2c-2.9-7.1-11.2-24.3-19.6-41.5 c-13.3,4.5-27.4,7.3-41.9,8.1c2.9,10.1,12.2,11.4,12.3,20.6c0.1,10.7-12.7,13.3-19.1,13.3c-6.6-0.1-19.4-2.6-19.5-13.6 c-0.1-8.6,9.2-10.2,11.9-20.1c-15.4-0.6-30.1-3.2-44.1-7.8c-8.9,18.4-17.5,36.1-19.4,40.8c-7.8,19.2,7.8,25.8,2.4,39 c-5.4,13.1-22.4,9.7-30.3,6.3c-8.2-3.5-22.6-13.2-17-26.7c5-12.3,21-6.2,28.9-25.2c2.9-7,9.1-24.5,15.3-42.4 C191.5,616.3,178.8,607.7,167.5,597.4z" clip-rule="evenodd"/><g><g opacity=".2" transform="translate(-3269.79 -3330.1) scale(3.52522)"><g id="circle833" transform="translate(636.17 595.185) scale(.43175)"><circle cx="820.5" cy="1176.7" r="11.5" class="st4"/></g><g id="circle835" transform="translate(817.472 581.312) scale(.43175)"><circle cx="436.3" cy="1157.7" r="30.9" class="st4"/></g><g id="circle837" transform="translate(701.54 791.604) scale(.37094)"><circle cx="793.8" cy="708.8" r="12.8" class="st4"/></g><g id="circle839" transform="translate(1235.46 1065.38) scale(.1874)"><circle cx="-1090.2" cy="136.9" r="21.2" class="st4"/></g><g id="circle8391" transform="translate(830.801 1185.47) scale(.18326)"><circle cx="814.8" cy="-590.4" r="21.2" class="st4"/></g><g id="circle841" transform="translate(618.83 618.83) scale(.43175)"><circle cx="910.4" cy="1139.1" r="5" class="st4"/></g><g id="circle8411" transform="translate(1000 822.788) scale(.32065)"><circle cx="92" cy="884" r="5" class="st4"/></g><g id="circle8412" transform="translate(353.652 1040.56) scale(.43175)"><circle cx="1449.1" cy="42.3" r="5" class="st4"/></g><g id="circle8413" transform="translate(300.196 771.909) scale(.43175)"><circle cx="1557.7" cy="740.9" r="5" class="st4"/></g><g id="circle843" transform="translate(1222.74 1217.1) scale(.22696)"><circle cx="-851.9" cy="-671.1" r="12.8" class="st4"/></g><g id="circle845" transform="translate(834.516 979.057) scale(.33076)"><circle cx="548.6" cy="210.1" r="8.7" class="st4"/></g></g></g></g><g><path fill="#111" d="M652.2,222.9c4.2-10.9,6.6-22.8,6.6-35.1c0-12.4-2.5-24.4-6.7-35.4l-35.2,35.2 C616.7,187.5,652.2,222.9,652.2,222.9z M719.5,188.9c0-29.6-8.6-57.2-23.4-80.8l-18.2,18.2c9.5,18.4,15,39,15,61.2 s-5.5,42.8-15,61.2l19.2,19.2C711.3,245,719.5,218,719.5,188.9z M573.8,187.6l65.2-65.3l-86.7-86.7H537v115.3l-69.7-69.7 l-21.5,21.5l84.9,84.9l-84.8,84.9l21.5,21.5l69.7-69.7v115.3h15.2l86.7-86.7C639.1,253,573.8,187.6,573.8,187.6z M567.5,224.4 l28.6,28.5l-28.6,28.6V224.4z M567.5,151V93.9l28.6,28.5L567.5,151z"/></g><g stroke="#111" stroke-linecap="square" stroke-miterlimit="10" stroke-width="16.157"><path fill="#fff" d="M283.3 84.1H471.4V675.2H283.3z" transform="rotate(-45.001 377.338 379.613)"/><circle cx="196.8" cy="237.1" r="19" fill="#fff"/><path fill="none" d="M386.8 370.1L443.8 313.1M462.8 408.1L500.8 370.1M272.8 256.1L329.8 199.1M348.8 294.1L386.8 256.1M500.8 484.1L557.8 427.1"/></g></g></g></g><path fill="none" stroke="#000" stroke-miterlimit="10" stroke-width="7.166" d="M718.2,754.2H37.8c-19.9,0-36-16.1-36-36V37.8c0-19.9,16.1-36,36-36h680.4c19.9,0,36,16.1,36,36v680.4	C754.2,738.1,738.1,754.2,718.2,754.2z"/></svg>