<svg xmlns="http://www.w3.org/2000/svg" role="img" viewBox="-20.23 -20.23 795.96 947.96"><title>GAEN Explorer logo</title><defs><clipPath id="clip-path"><rect width="752.4" height="752.4" x="1.8" y="1.8" class="cls-1" rx="36"/></clipPath><clipPath id="clip-path-2"><path d="M0 0H757.5V757.5H0z" class="cls-1"/></clipPath><style>.cls-1{fill:none}.cls-89{fill:#fffaca}.cls-113{fill:#fde1d4}.cls-136{fill:#f9c9dd}.cls-139{fill:#111}.cls-140{fill:#fff}</style></defs><g clip-path="url(#clip-path)"><g clip-path="url(#clip-path-2)"><path fill="#b6d4ee" d="M757.5,8.51093,748.98907,0Z"/><path fill="#b7d4ed" d="M757.5 17.022L740.478 0 748.989 0 757.5 8.511 757.5 17.022z"/><path fill="#b7d5ec" d="M757.5 25.533L731.967 0 740.478 0 757.5 17.022 757.5 25.533z"/><path fill="#b8d5eb" d="M757.5 34.044L723.456 0 731.967 0 757.5 25.533 757.5 34.044z"/><path fill="#b9d6ea" d="M757.5 42.555L714.945 0 723.456 0 757.5 34.044 757.5 42.555z"/><path fill="#bad6e9" d="M757.5 51.066L706.434 0 714.945 0 757.5 42.555 757.5 51.066z"/><path fill="#bad7e8" d="M757.5 59.577L697.923 0 706.434 0 757.5 51.066 757.5 59.577z"/><path fill="#bbd7e7" d="M757.5 68.087L689.413 0 697.923 0 757.5 59.577 757.5 68.087z"/><path fill="#bcd8e6" d="M757.5 76.598L680.902 0 689.413 0 757.5 68.087 757.5 76.598z"/><path fill="#bcd8e5" d="M757.5 85.109L672.391 0 680.902 0 757.5 76.598 757.5 85.109z"/><path fill="#bdd9e4" d="M757.5 93.62L663.88 0 672.391 0 757.5 85.109 757.5 93.62z"/><path fill="#bed9e3" d="M757.5 102.131L655.369 0 663.88 0 757.5 93.62 757.5 102.131z"/><path fill="#bed9e2" d="M757.5 110.642L646.858 0 655.369 0 757.5 102.131 757.5 110.642z"/><path fill="#bfdae1" d="M757.5 119.153L638.347 0 646.858 0 757.5 110.642 757.5 119.153z"/><path fill="#c0dae0" d="M757.5 127.664L629.836 0 638.347 0 757.5 119.153 757.5 127.664z"/><path fill="#c1dbdf" d="M757.5 136.175L621.325 0 629.836 0 757.5 127.664 757.5 136.175z"/><path fill="#c1dbde" d="M757.5 144.686L612.814 0 621.325 0 757.5 136.175 757.5 144.686z"/><path fill="#c2dcdd" d="M757.5 153.197L604.303 0 612.814 0 757.5 144.686 757.5 153.197z"/><path fill="#c3dcdc" d="M757.5 161.708L595.792 0 604.303 0 757.5 153.197 757.5 161.708z"/><path fill="#c3dddb" d="M757.5 170.219L587.281 0 595.792 0 757.5 161.708 757.5 170.219z"/><path fill="#c4ddda" d="M757.5 178.73L578.77 0 587.281 0 757.5 170.219 757.5 178.73z"/><path fill="#c5ded9" d="M757.5 187.241L570.259 0 578.77 0 757.5 178.73 757.5 187.241z"/><path fill="#c6ded8" d="M757.5 195.751L561.749 0 570.259 0 757.5 187.241 757.5 195.751z"/><path fill="#c6ded6" d="M757.5 204.262L553.238 0 561.749 0 757.5 195.751 757.5 204.262z"/><path fill="#c7dfd5" d="M757.5 212.773L544.727 0 553.238 0 757.5 204.262 757.5 212.773z"/><path fill="#c8dfd4" d="M757.5 221.284L536.216 0 544.727 0 757.5 212.773 757.5 221.284z"/><path fill="#c8e0d3" d="M757.5 229.795L527.705 0 536.216 0 757.5 221.284 757.5 229.795z"/><path fill="#c9e0d2" d="M757.5 238.306L519.194 0 527.705 0 757.5 229.795 757.5 238.306z"/><path fill="#cae1d1" d="M757.5 246.817L510.683 0 519.194 0 757.5 238.306 757.5 246.817z"/><path fill="#cae1d0" d="M757.5 255.328L502.172 0 510.683 0 757.5 246.817 757.5 255.328z"/><path fill="#cbe2cf" d="M757.5 263.839L493.661 0 502.172 0 757.5 255.328 757.5 263.839z"/><path fill="#cce2ce" d="M757.5 272.35L485.15 0 493.661 0 757.5 263.839 757.5 272.35z"/><path fill="#cde3cd" d="M757.5 280.861L476.639 0 485.15 0 757.5 272.35 757.5 280.861z"/><path fill="#cde3cc" d="M757.5 289.372L468.128 0 476.639 0 757.5 280.861 757.5 289.372z"/><path fill="#cee3cb" d="M757.5 297.883L459.617 0 468.128 0 757.5 289.372 757.5 297.883z"/><path fill="#cfe4ca" d="M757.5 306.394L451.106 0 459.617 0 757.5 297.883 757.5 306.394z"/><path fill="#cfe4c9" d="M757.5 314.905L442.595 0 451.106 0 757.5 306.394 757.5 314.905z"/><path fill="#d0e5c8" d="M757.5 323.415L434.085 0 442.595 0 757.5 314.905 757.5 323.415z"/><path fill="#d1e5c7" d="M757.5 331.926L425.574 0 434.085 0 757.5 323.415 757.5 331.926z"/><path fill="#d1e6c6" d="M757.5 340.437L417.063 0 425.574 0 757.5 331.926 757.5 340.437z"/><path fill="#d2e6c5" d="M757.5 348.948L408.552 0 417.063 0 757.5 340.437 757.5 348.948z"/><path fill="#d3e7c4" d="M757.5 357.459L400.041 0 408.552 0 757.5 348.948 757.5 357.459z"/><path fill="#d4e7c3" d="M757.5 365.97L391.53 0 400.041 0 757.5 357.459 757.5 365.97z"/><path fill="#d4e8c2" d="M757.5 374.481L383.019 0 391.53 0 757.5 365.97 757.5 374.481z"/><path fill="#d5e8c1" d="M757.5 382.992L374.508 0 383.019 0 757.5 374.481 757.5 382.992zM757.5 391.909L365.591 0 374.508 0 757.5 382.992 757.5 391.909z"/><path fill="#d6e8c1" d="M757.5 400.826L356.674 0 365.591 0 757.5 391.909 757.5 400.826z"/><path fill="#d7e9c1" d="M757.5 409.743L347.757 0 356.674 0 757.5 400.826 757.5 409.743z"/><path fill="#d8e9c2" d="M757.5 418.659L338.841 0 347.757 0 757.5 409.743 757.5 418.659z"/><path fill="#d9eac2" d="M757.5 427.576L329.924 0 338.841 0 757.5 418.659 757.5 427.576z"/><path fill="#daeac2" d="M757.5 436.493L321.007 0 329.924 0 757.5 427.576 757.5 436.493z"/><path fill="#dbebc2" d="M757.5 445.41L312.09 0 321.007 0 757.5 436.493 757.5 445.41z"/><path fill="#dcebc3" d="M757.5 454.327L303.173 0 312.09 0 757.5 445.41 757.5 454.327z"/><path fill="#ddecc3" d="M757.5 463.244L294.256 0 303.173 0 757.5 454.327 757.5 463.244z"/><path fill="#deecc3" d="M757.5 472.161L285.339 0 294.256 0 757.5 463.244 757.5 472.161z"/><path fill="#dfecc3" d="M757.5 481.077L276.423 0 285.339 0 757.5 472.161 757.5 481.077z"/><path fill="#e0edc3" d="M757.5 489.994L267.506 0 276.423 0 757.5 481.077 757.5 489.994z"/><path fill="#e1edc4" d="M757.5 498.911L258.589 0 267.506 0 757.5 489.994 757.5 498.911z"/><path fill="#e2eec4" d="M757.5 507.828L249.672 0 258.589 0 757.5 498.911 757.5 507.828z"/><path fill="#e3eec4" d="M757.5 516.745L240.755 0 249.672 0 757.5 507.828 757.5 516.745z"/><path fill="#e4efc4" d="M757.5 525.662L231.838 0 240.755 0 757.5 516.745 757.5 525.662z"/><path fill="#e5efc5" d="M757.5 534.579L222.921 0 231.838 0 757.5 525.662 757.5 534.579z"/><path fill="#e6efc5" d="M757.5 543.495L214.005 0 222.921 0 757.5 534.579 757.5 543.495z"/><path fill="#e7f0c5" d="M757.5 552.412L205.088 0 214.005 0 757.5 543.495 757.5 552.412z"/><path fill="#e8f0c5" d="M757.5 561.329L196.171 0 205.088 0 757.5 552.412 757.5 561.329z"/><path fill="#e9f1c5" d="M757.5 570.246L187.254 0 196.171 0 757.5 561.329 757.5 570.246z"/><path fill="#ebf1c6" d="M757.5 579.163L178.337 0 187.254 0 757.5 570.246 757.5 579.163z"/><path fill="#ecf2c6" d="M757.5 588.08L169.42 0 178.337 0 757.5 579.163 757.5 588.08z"/><path fill="#edf2c6" d="M757.5 596.997L160.503 0 169.42 0 757.5 588.08 757.5 596.997z"/><path fill="#eef3c6" d="M757.5 605.913L151.587 0 160.503 0 757.5 596.997 757.5 605.913z"/><path fill="#eff3c6" d="M757.5 614.83L142.67 0 151.587 0 757.5 605.913 757.5 614.83z"/><path fill="#f0f3c7" d="M757.5 623.747L133.753 0 142.67 0 757.5 614.83 757.5 623.747z"/><path fill="#f1f4c7" d="M757.5 632.664L124.836 0 133.753 0 757.5 623.747 757.5 632.664z"/><path fill="#f2f4c7" d="M757.5 641.581L115.919 0 124.836 0 757.5 632.664 757.5 641.581z"/><path fill="#f3f5c7" d="M757.5 650.498L107.002 0 115.919 0 757.5 641.581 757.5 650.498z"/><path fill="#f4f5c8" d="M757.5 659.415L98.085 0 107.002 0 757.5 650.498 757.5 659.415z"/><path fill="#f5f6c8" d="M757.5 668.331L89.169 0 98.085 0 757.5 659.415 757.5 668.331z"/><path fill="#f6f6c8" d="M757.5 677.248L80.252 0 89.169 0 757.5 668.331 757.5 677.248z"/><path fill="#f7f6c8" d="M757.5 686.165L71.335 0 80.252 0 757.5 677.248 757.5 686.165z"/><path fill="#f8f7c8" d="M757.5 695.082L62.418 0 71.335 0 757.5 686.165 757.5 695.082z"/><path fill="#f9f7c9" d="M757.5 703.999L53.501 0 62.418 0 757.5 695.082 757.5 703.999z"/><path fill="#faf8c9" d="M757.5 712.916L44.584 0 53.501 0 757.5 703.999 757.5 712.916z"/><path fill="#fbf8c9" d="M757.5 721.833L35.667 0 44.584 0 757.5 712.916 757.5 721.833z"/><path fill="#fcf9c9" d="M757.5 730.749L26.751 0 35.667 0 757.5 721.833 757.5 730.749z"/><path fill="#fdf9ca" d="M757.5 739.666L17.834 0 26.751 0 757.5 730.749 757.5 739.666z"/><path fill="#fefaca" d="M757.5 748.583L8.917 0 17.834 0 757.5 739.666 757.5 748.583z"/><path d="M757.5 757.5L0 0 8.917 0 757.5 748.583 757.5 757.5z" class="cls-89"/><path d="M741.841 757.5L0 15.659 0 0 757.5 757.5 741.841 757.5z" class="cls-89"/><path fill="#fff9ca" d="M726.182 757.5L0 31.318 0 15.659 741.841 757.5 726.182 757.5z"/><path fill="#fff8cb" d="M710.523 757.5L0 46.977 0 31.318 726.182 757.5 710.523 757.5z"/><path fill="#fff7cb" d="M694.864 757.5L0 62.636 0 46.977 710.523 757.5 694.864 757.5z"/><path fill="#fff6cc" d="M679.205 757.5L0 78.295 0 62.636 694.864 757.5 679.205 757.5z"/><path fill="#fff5cc" d="M663.546 757.5L0 93.954 0 78.295 679.205 757.5 663.546 757.5z"/><path fill="#fff4cd" d="M647.887 757.5L0 109.613 0 93.954 663.546 757.5 647.887 757.5z"/><path fill="#fef3cd" d="M632.228 757.5L0 125.272 0 109.613 647.887 757.5 632.228 757.5z"/><path fill="#fef2cd" d="M616.569 757.5L0 140.931 0 125.272 632.228 757.5 616.569 757.5z"/><path fill="#fef1ce" d="M600.91 757.5L0 156.59 0 140.931 616.569 757.5 600.91 757.5z"/><path fill="#fef0ce" d="M585.251 757.5L0 172.249 0 156.59 600.91 757.5 585.251 757.5z"/><path fill="#feefcf" d="M569.591 757.5L0 187.909 0 172.249 585.251 757.5 569.591 757.5z"/><path fill="#feeecf" d="M553.932 757.5L0 203.568 0 187.909 569.591 757.5 553.932 757.5z"/><path fill="#feeccf" d="M538.273 757.5L0 219.227 0 203.568 553.932 757.5 538.273 757.5z"/><path fill="#feebd0" d="M522.614 757.5L0 234.886 0 219.227 538.273 757.5 522.614 757.5z"/><path fill="#feead0" d="M506.955 757.5L0 250.545 0 234.886 522.614 757.5 506.955 757.5z"/><path fill="#fee9d1" d="M491.296 757.5L0 266.204 0 250.545 506.955 757.5 491.296 757.5z"/><path fill="#fee8d1" d="M475.637 757.5L0 281.863 0 266.204 491.296 757.5 475.637 757.5z"/><path fill="#fee7d2" d="M459.978 757.5L0 297.522 0 281.863 475.637 757.5 459.978 757.5z"/><path fill="#fde6d2" d="M444.319 757.5L0 313.181 0 297.522 459.978 757.5 444.319 757.5z"/><path fill="#fde5d2" d="M428.66 757.5L0 328.84 0 313.181 444.319 757.5 428.66 757.5z"/><path fill="#fde4d3" d="M413.001 757.5L0 344.499 0 328.84 428.66 757.5 413.001 757.5z"/><path fill="#fde3d3" d="M397.342 757.5L0 360.158 0 344.499 413.001 757.5 397.342 757.5z"/><path fill="#fde2d4" d="M381.683 757.5L0 375.817 0 360.158 397.342 757.5 381.683 757.5z"/><path d="M366.024 757.5L0 391.476 0 375.817 381.683 757.5 366.024 757.5z" class="cls-113"/><path d="M351.48 757.5L0 406.02 0 391.476 366.024 757.5 351.48 757.5z" class="cls-113"/><path fill="#fde0d4" d="M336.936 757.5L0 420.564 0 406.02 351.48 757.5 336.936 757.5z"/><path fill="#fddfd5" d="M322.392 757.5L0 435.108 0 420.564 336.936 757.5 322.392 757.5z"/><path fill="#fcded5" d="M307.848 757.5L0 449.652 0 435.108 322.392 757.5 307.848 757.5z"/><path fill="#fcddd6" d="M293.304 757.5L0 464.196 0 449.652 307.848 757.5 293.304 757.5z"/><path fill="#fcdcd6" d="M278.76 757.5L0 478.74 0 464.196 293.304 757.5 278.76 757.5z"/><path fill="#fcdbd6" d="M264.216 757.5L0 493.284 0 478.74 278.76 757.5 264.216 757.5z"/><path fill="#fcdad7" d="M249.672 757.5L0 507.828 0 493.284 264.216 757.5 249.672 757.5z"/><path fill="#fcd9d7" d="M235.128 757.5L0 522.372 0 507.828 249.672 757.5 235.128 757.5z"/><path fill="#fbd8d8" d="M220.584 757.5L0 536.916 0 522.372 235.128 757.5 220.584 757.5z"/><path fill="#fbd7d8" d="M206.04 757.5L0 551.46 0 536.916 220.584 757.5 206.04 757.5z"/><path fill="#fbd6d8" d="M191.496 757.5L0 566.004 0 551.46 206.04 757.5 191.496 757.5z"/><path fill="#fbd4d9" d="M176.952 757.5L0 580.548 0 566.004 191.496 757.5 176.952 757.5z"/><path fill="#fbd3d9" d="M162.408 757.5L0 595.092 0 580.548 176.952 757.5 162.408 757.5z"/><path fill="#fbd2d9" d="M147.864 757.5L0 609.636 0 595.092 162.408 757.5 147.864 757.5z"/><path fill="#fad1da" d="M133.32 757.5L0 624.18 0 609.636 147.864 757.5 133.32 757.5z"/><path fill="#fad0da" d="M118.776 757.5L0 638.724 0 624.18 133.32 757.5 118.776 757.5z"/><path fill="#facfdb" d="M104.232 757.5L0 653.268 0 638.724 118.776 757.5 104.232 757.5z"/><path fill="#facedb" d="M89.688 757.5L0 667.812 0 653.268 104.232 757.5 89.688 757.5z"/><path fill="#facddb" d="M75.144 757.5L0 682.356 0 667.812 89.688 757.5 75.144 757.5z"/><path fill="#faccdc" d="M60.6 757.5L0 696.9 0 682.356 75.144 757.5 60.6 757.5z"/><path fill="#f9cbdc" d="M46.056 757.5L0 711.444 0 696.9 60.6 757.5 46.056 757.5z"/><path fill="#f9cadd" d="M31.512 757.5L0 725.988 0 711.444 46.056 757.5 31.512 757.5z"/><path d="M16.968 757.5L0 740.532 0 725.988 31.512 757.5 16.968 757.5z" class="cls-136"/><path d="M0 740.532L16.968 757.5 0 757.5 0 740.532z" class="cls-136"/></g><path fill="#e82828" fill-rule="evenodd" d="M167.5,597.4c-4.8,8.7.5,16.3-5.9,22.7-7.6,7.5-18.3.1-22.8-4.6-4.7-4.8-11.8-15.8-4-23.5,6-6,13.5-.5,22.2-5.1a158.46253,158.46253,0,0,1-24.1-34.9c-18.3,6.4-35.4,12.3-39.9,14.2-19.1,8.1-12.8,23.8-25.8,29.2-13.1,5.5-22.7-9-25.8-17-3.4-8.3-6.7-25.2,6.8-30.8,12.3-5,19.2,10.5,38.2,2.7,6.7-2.9,22.1-10.2,38.2-18a159.11892,159.11892,0,0,1-8.6-43.7c-8.5,3.3-10.2,11.7-18.8,11.8-10.6,0-13.3-12.8-13.2-19.3.1-6.7,2.6-19.6,13.5-19.6,8.1-.1,9.9,8.4,18.4,11.5a158.77679,158.77679,0,0,1,8-43.2c-17.8-8.6-34.5-16.6-38.9-18.5-19.2-7.8-25.8,7.8-39,2.4s-9.7-22.4-6.3-30.3c3.5-8.2,13.2-22.6,26.7-17,12.3,5,6.2,21,25.2,28.9,6.8,2.8,23.4,8.6,40.6,14.6a154.07309,154.07309,0,0,1,25.7-37.5c-8.4-3.9-15.5.8-21.6-5.4-7.6-7.6-.3-18.4,4.5-22.9,4.8-4.7,15.7-11.8,23.4-3.9,5.7,5.8.9,12.9,4.8,21.3a159.37432,159.37432,0,0,1,35.6-24.1c-6.5-18.5-12.5-35.9-14.3-40.4-8.1-19.1-23.8-12.8-29.2-25.8-5.4-13.1,9.1-22.7,17-25.8,8.4-3.4,25.3-6.6,30.9,6.8,5,12.3-10.5,19.2-2.7,38.2,2.9,6.8,10.4,22.5,18.2,38.9a163.83985,163.83985,0,0,1,42.8-8.1c-3-9.2-11.8-10.7-11.9-19.7-.1-10.7,12.7-13.3,19.1-13.3,6.6.1,19.4,2.6,19.5,13.6.1,8.4-8.8,10.1-11.8,19.4a160.9782,160.9782,0,0,1,44.7,8.5c8.6-17.9,16.8-34.8,18.6-39.3,7.8-19.2-7.8-25.8-2.4-38.9s22.4-9.7,30.3-6.3c8.2,3.5,22.6,13.2,17,26.7-5,12.4-21,6.2-28.9,25.2-2.9,6.9-8.8,23.8-14.9,41.1a157.69869,157.69869,0,0,1,35.9,24.9c4.7-8.7-.6-16.2,5.8-22.5,7.6-7.5,18.3-.1,22.8,4.6,4.7,4.8,11.8,15.8,4,23.5-6,6-13.4.7-22.1,5.1a158.41148,158.41148,0,0,1,25,37c19.1-6.6,37.3-12.9,42-14.9,19.1-8.1,12.8-23.8,25.8-29.2,13.1-5.5,22.7,9,25.8,17,3.4,8.3,6.6,25.2-6.8,30.8-12.3,5-19.2-10.5-38.2-2.7-7,2.9-23.7,10.8-40.5,19.1a155.98285,155.98285,0,0,1,7.6,40.7c9.9-2.9,11.2-12.2,20.3-12.3,10.6-.1,13.3,12.8,13.2,19.2-.1,6.7-2.6,19.6-13.5,19.6-8.6.1-10.2-9.3-19.9-12a156.00254,156.00254,0,0,1-8.4,45.5c18.5,9,36.4,17.6,41,19.6,19.2,7.8,25.8-7.8,38.9-2.4s9.7,22.4,6.3,30.3c-3.5,8.2-13.2,22.6-26.7,17-12.4-5-6.2-21-25.2-28.9-7.1-2.8-24.9-9.1-43-15.4a161.15177,161.15177,0,0,1-25.6,36.7c9.1,5.4,16.8-.3,23.3,6.3,7.6,7.6.3,18.4-4.5,22.9-4.8,4.7-15.7,11.8-23.4,3.9-6.1-6.2-.3-14-5.6-23.1a154.70961,154.70961,0,0,1-35.2,24.1c6.7,19.6,13.3,38.5,15.4,43.1,8.1,19.1,23.8,12.8,29.2,25.8,5.4,13.1-9.1,22.7-17,25.8-8.4,3.4-25.3,6.6-30.9-6.8-5-12.3,10.5-19.2,2.7-38.2-2.9-7.1-11.2-24.3-19.6-41.5a157.96425,157.96425,0,0,1-41.9,8.1c2.9,10.1,12.2,11.4,12.3,20.6.1,10.7-12.7,13.3-19.1,13.3-6.6-.1-19.4-2.6-19.5-13.6-.1-8.6,9.2-10.2,11.9-20.1a160.60112,160.60112,0,0,1-44.1-7.8c-8.9,18.4-17.5,36.1-19.4,40.8-7.8,19.2,7.8,25.8,2.4,39-5.4,13.1-22.4,9.7-30.3,6.3-8.2-3.5-22.6-13.2-17-26.7,5-12.3,21-6.2,28.9-25.2,2.9-7,9.1-24.5,15.3-42.4A167.55122,167.55122,0,0,1,167.5,597.4Z"/><g opacity=".2"><g id="circle833"><circle cx="221.65" cy="558.995" r="17.503"/></g><g id="circle835"><circle cx="276.027" cy="481.171" r="47.03"/></g><g id="circle837"><circle cx="241.312" cy="387.347" r="16.738"/></g><g id="circle839"><circle cx="365.233" cy="516.042" r="14.006"/></g><g id="circle8391"><circle cx="185.35" cy="467.527" r="13.696"/></g><g id="circle841"><circle cx="297.35" cy="585.122" r="7.61"/></g><g id="circle8411"><circle cx="359.424" cy="569.655" r="5.652"/></g><g id="circle8412"><circle cx="182.441" cy="402.484" r="7.61"/></g><g id="circle8413"><circle cx="159.286" cy="518.698" r="7.61"/></g><g id="circle843"><circle cx="359.034" cy="423.499" r="10.241"/></g><g id="circle845"><circle cx="311.731" cy="366.268" r="10.144"/></g></g><path d="M652.2,222.9a97.74127,97.74127,0,0,0,6.6-35.1,99.43407,99.43407,0,0,0-6.7-35.4l-35.2,35.2C616.7,187.5,652.2,222.9,652.2,222.9Zm67.3-34a151.43643,151.43643,0,0,0-23.4-80.8l-18.2,18.2a132.348,132.348,0,0,1,0,122.4l19.2,19.2A149.22358,149.22358,0,0,0,719.5,188.9Zm-145.7-1.3L639,122.3,552.3,35.6H537V150.9L467.3,81.2l-21.5,21.5,84.9,84.9-84.8,84.9L467.4,294l69.7-69.7V339.6h15.2l86.7-86.7C639.1,253,573.8,187.6,573.8,187.6Zm-6.3,36.8,28.6,28.5-28.6,28.6Zm0-73.4V93.9l28.6,28.5Z" class="cls-139"/><path d="M283.324 84.083H471.422V675.177H283.324z" class="cls-140" transform="rotate(-45 377.373 379.63)"/><path d="M519.85352,666.542l-5.7129-5.71191L90.46191,237.1499,234.89209,92.71973,664.2832,522.11133ZM113.31152,237.1499l406.542,406.54248,121.58007-121.581-406.5415-406.542Z" class="cls-139"/><circle cx="196.8" cy="237.1" r="19" class="cls-140"/><path d="M196.7998,264.17871a27.07862,27.07862,0,1,1,27.07862-27.07861A27.10934,27.10934,0,0,1,196.7998,264.17871Zm0-38a10.92139,10.92139,0,1,0,10.92139,10.92139A10.93388,10.93388,0,0,0,196.7998,226.17871Z" class="cls-139"/><path d="M366.916 333.521H463.68399999999997V349.67900000000003H366.916z" class="cls-139" transform="rotate(-45 415.3 341.6)"/><path d="M446.851 381.021H516.748V397.178H446.851z" class="cls-139" transform="rotate(-45 481.8 389.1)"/><path d="M252.916 219.521H349.68399999999997V235.67899999999997H252.916z" class="cls-139" transform="rotate(-45 301.3 227.6)"/><path d="M332.851 267.021H402.749V283.17900000000003H332.851z" class="cls-139" transform="rotate(-45 367.8 275.1)"/><path d="M480.916 447.521H577.683V463.678H480.916z" class="cls-139" transform="rotate(-45 529.3 455.6)"/></g><path d="M718.2002 757.7832H37.7998a39.62779 39.62779 0 0 1-39.583-39.583V37.7998a39.62779 39.62779 0 0 1 39.583-39.583H718.2002a39.62779 39.62779 0 0 1 39.583 39.583V718.2002A39.62779 39.62779 0 0 1 718.2002 757.7832zM37.7998 5.38281a32.45343 32.45343 0 0 0-32.417 32.417V718.2002a32.45343 32.45343 0 0 0 32.417 32.417H718.2002a32.45343 32.45343 0 0 0 32.417-32.417V37.7998a32.45343 32.45343 0 0 0-32.417-32.417zM61.85254 836.63086a14.6087 14.6087 0 0 0-8.65479-10.67969 21.25922 21.25922 0 0 0-8.55322-1.66992 18.58808 18.58808 0 0 0-14.8042 6.79492q-5.79639 6.79395-5.79541 20.43262 0 13.7417 6.27588 19.44824a20.62843 20.62843 0 0 0 14.273 5.708q7.845 0 12.85547-4.501a19.42322 19.42322 0 0 0 6.1748-11.7959H46.36523V847.917H77.44141v40.03516H67.1167l-1.56934-9.3125a35.71273 35.71273 0 0 1-8.09814 7.457q-6.175 3.77783-15.1836 3.77832-14.83006 0-24.29443-10.26758-9.86938-10.31835-9.86914-28.22363 0-18.10693 9.9707-29.0332 9.97047-10.92482 26.36914-10.92481 14.22218 0 22.85157 7.21192a26.82053 26.82053 0 0 1 9.895 17.99316zM113.65527 813.34863H131.294l26.39453 74.60352H140.78369l-4.92285-15.33594H108.3877l-5.05762 15.33594H87.02393zm-1.02734 46.41211h19.10645l-9.42432-29.35547zM222.34619 826.55859h-39.478v15.8418h36.23877v12.957H182.86816V874.54h41.3003v13.41211H167.63379V813.34863h54.7124zM236.0625 813.34863h16.34229L282.019 865.36816V813.34863h14.52588v74.60352H280.95947l-30.37109-52.9336v52.9336H236.0625zM395.13867 826.55859H355.66016v15.8418h36.23828v12.957H355.66016V874.54h41.30078v13.41211H340.42578V813.34863h54.71289zM402.45215 887.95215l18.82812-27.93848-18.01855-27.12793h17.66406l9.21582 15.97949 9.00488-15.97949h17.15723l-18.11914 26.875 18.82813 28.19141H439.04492l-9.49414-16.58594-9.58691 16.58594zM511.98535 838.70605q6.75 7.13673 6.75 20.95313 0 14.57665-6.59668 22.21973a21.41681 21.41681 0 0 1-16.98926 7.64257 17.81359 17.81359 0 0 1-11.00293-3.29A21.2501 21.2501 0 0 1 479.46 880.917v28.748H465.18652V832.78418h13.81739v8.14844a23.24856 23.24856 0 0 1 4.99218-5.66895 18.424 18.424 0 0 1 11.51172-3.69433A21.81486 21.81486 0 0 1 511.98535 838.70605zm-11.07031 10.375q-2.94141-4.90869-9.53613-4.90917-7.92627 0-10.89063 7.44042a27.93653 27.93653 0 0 0-1.53418 10.02149q0 9.6167 5.16016 13.51367a11.84788 11.84788 0 0 0 7.26172 2.27734 10.55712 10.55712 0 0 0 9.28222-4.65625q3.19629-4.65674 3.19727-12.40039A21.54242 21.54242 0 0 0 500.915 849.08105zM543.63672 887.95215H529.21191V813.34863h14.42481zM603.71387 881.20312q-6.98437 8.62208-21.20606 8.62208-14.22363 0-21.207-8.62208-6.98437-8.62206-6.98437-20.75878a32.14694 32.14694 0 0 1 6.98437-20.68262q6.98438-8.748 21.207-8.749 14.22071 0 21.20606 8.749a32.14772 32.14772 0 0 1 6.98535 20.68262Q610.69922 872.582 603.71387 881.20312zm-11.53907-7.97265q3.38965-4.49707 3.39063-12.78613 0-8.28809-3.39063-12.76075-3.39256-4.47216-9.71777-4.47363-6.32812 0-9.74316 4.47363-3.416 4.47217-3.416 12.76075 0 8.28954 3.416 12.78613 3.416 4.49853 9.74316 4.49805Q588.78223 877.72852 592.1748 873.23047zM651.66992 831.49316c.18457.01758.59863.043 1.23926.07618v14.77929q-1.36524-.15234-2.42871-.20312-1.06348-.04981-1.7207-.04981-8.707 0-11.69239 5.668-1.66992 3.189-1.66992 9.81934v26.36914H620.87207v-55.168h13.7666v9.61621q3.33984-5.51514 5.82031-7.541 4.04883-3.39112 10.52735-3.39161Q651.39063 831.46777 651.66992 831.49316zM697.31152 833.90137a22.44316 22.44316 0 0 1 9.53321 8.16113 27.10766 27.10766 0 0 1 4.3955 11.40527 70.43917 70.43917 0 0 1 .47559 10.94922H671.53516q.33691 8.30127 5.76953 11.6416a14.65132 14.65132 0 0 0 7.95312 2.07422 11.20229 11.20229 0 0 0 10.97852-6.32617h14.72656q-.583 4.91016-5.34766 9.9707-7.4121 8.04786-20.75488 8.04786a30.0725 30.0725 0 0 1-19.43262-6.78809q-8.41845-6.78809-8.418-22.08691 0-14.335 7.59961-21.98438 7.5996-7.64794 19.72851-7.64941A31.41574 31.41574 0 0 1 697.31152 833.90137zm-21.5791 12.46093a14.98542 14.98542 0 0 0-3.84277 8.54h24.85156q-.394-5.74365-3.84277-8.71777a12.64284 12.64284 0 0 0-8.55567-2.97461Q678.78955 843.21 675.73242 846.3623zM749.65625 831.49316c.18457.01758.59863.043 1.23926.07618v14.77929q-1.36524-.15234-2.42871-.20312-1.06349-.04981-1.72071-.04981-8.707 0-11.69238 5.668-1.66992 3.189-1.66992 9.81934v26.36914H718.8584v-55.168H732.625v9.61621q3.33984-5.51514 5.82031-7.541 4.04883-3.39112 10.52735-3.39161Q749.377 831.46777 749.65625 831.49316z"/></svg>