<svg xmlns="http://www.w3.org/2000/svg" role="img" viewBox="-191.18 -24.18 1257.36 776.36"><title>Germany (Corona-Warn-App) logo</title><path d="M-166.03372 202.42823c0-65.10518.09016-130.21071-.15929-195.31493-.02157-5.6309 1.13767-6.76021 6.76594-6.75784q597.42435.25118 1194.84871 0c5.62834-.00237 6.78758 1.12694 6.766 6.75784-.24955 65.10422-.15934 130.20975-.15934 195.31493-3.44408-.15424-6.88816-.44339-10.33224-.44356q-593.69874-.03046-1187.39754 0c-3.44407.00017-6.88815.28933-10.33224.44356z"/><path fill="#ffce00" d="M1042.02834 402.46154c0 64.79065-.12085 129.58188.1871 194.37106.03065 6.46637-1.275 7.7307-7.73748 7.72748q-600.25549-.29734-1200.51143-.17813-.00037-100.96017-.00025-201.92041c3.44351.15687 6.887.45107 10.33053.45124q593.70053.031 1187.401 0c3.44352-.00023 6.88703-.29437 10.33053-.45124z"/><path fill="#d00" d="M1042.02834 402.46154c-3.4435.15687-6.887.451-10.33051.45119q-593.70056.031-1187.401 0c-3.44352-.00017-6.887-.29437-10.33053-.45124V202.42823c3.44409-.15424 6.88817-.44339 10.33228-.44357q593.69876-.03045 1187.39754 0c3.44408.00017 6.88816.28932 10.33224.44356z"/><path d="M44.7094 683.85305a8.98047 8.98047 0 0 0-5.32031-6.56446 13.0644 13.0644 0 0 0-5.25781-1.02734 11.42694 11.42694 0 0 0-9.10059 4.17773q-3.5625 4.17627-3.5625 12.55957 0 8.44776 3.8584 11.95606A12.67708 12.67708 0 0 0 34.1 708.4634a11.3747 11.3747 0 0 0 7.90234-2.7666 11.94243 11.94243 0 0 0 3.7959-7.252H35.18889v-7.65332h19.10352v24.61035h-6.34668l-.96484-5.7246a21.95145 21.95145 0 0 1-4.97852 4.584 17.56741 17.56741 0 0 1-9.334 2.32324 19.39751 19.39751 0 0 1-14.9336-6.3125q-6.06738-6.34276-6.06738-17.34961 0-11.13135 6.12891-17.84765 6.13036-6.71631 16.21-6.71582 8.74365 0 14.04785 4.43359a16.49154 16.49154 0 0 1 6.083 11.06055zm40.11426-1.67774a13.79539 13.79539 0 0 1 5.86035 5.01758 16.68015 16.68015 0 0 1 2.70215 7.01074 43.37488 43.37488 0 0 1 .292 6.73047H68.978q.20654 5.10351 3.54687 7.15625a9.00538 9.00538 0 0 0 4.88867 1.27539 6.88839 6.88839 0 0 0 6.749-3.88867h9.05273a11.0817 11.0817 0 0 1-3.28711 6.12891q-4.55712 4.94677-12.75879 4.94726a18.48268 18.48268 0 0 1-11.94531-4.17285q-5.17529-4.17187-5.17578-13.57715 0-8.8125 4.67187-13.51465a16.34989 16.34989 0 0 1 12.12793-4.70215 19.32288 19.32288 0 0 1 7.97558 1.58887zM71.558 689.83547a9.22131 9.22131 0 0 0-2.36231 5.25H84.4721a7.39637 7.39637 0 0 0-2.36231-5.35938A7.76815 7.76815 0 0 0 76.851 687.898a7.03419 7.03419 0 0 0-5.293 1.93747zm45.44242-9.14063q.17139.01612.76269.04688v9.085q-.83935-.09228-1.49316-.124c-.43555-.02051-.78906-.03125-1.05859-.03125q-5.35108 0-7.18653 3.48437a13.55747 13.55747 0 0 0-1.02636 6.03613v16.21h-8.92969v-33.91318h8.46289v5.91113a18.75648 18.75648 0 0 1 3.57715-4.63574 9.74184 9.74184 0 0 1 6.47168-2.084c.16601.00001.30566.0049.41992.01466zm48.27246.91797a9.86635 9.86635 0 0 1 3.95117 3.04981 9.73889 9.73889 0 0 1 1.92871 4.35547 30.13651 30.13651 0 0 1 .31153 5.00878l-.0625 21.375h-9.085V693.8091a7.09545 7.09545 0 0 0-.62207-3.17285 4.42335 4.42335 0 0 0-4.35644-2.36523 5.09681 5.09681 0 0 0-5.07129 3.0498 9.5649 9.5649 0 0 0-.71582 3.88867v20.19238h-8.92871v-20.19238a11.35758 11.35758 0 0 0-.62207-4.38672q-1.1206-2.458-4.3877-2.458-3.7954 0-5.10254 2.458a9.46593 9.46593 0 0 0-.71484 4.16895v20.41015h-8.99219v-33.85058h8.61817v4.94629a14.2929 14.2929 0 0 1 3.11132-3.76465 12.30939 12.30939 0 0 1 12.97461-.2793 9.96264 9.96264 0 0 1 2.92481 4.0752 11.27162 11.27162 0 0 1 4.32422-4.38672 13.19615 13.19615 0 0 1 6.09863-1.40039 11.81959 11.81959 0 0 1 4.418.87109zm27.77539 13.16113a13.98105 13.98105 0 0 0 3.541-.77832 2.66648 2.66648 0 0 0 1.9121-2.51953 2.97934 2.97934 0 0 0-1.46679-2.87793 9.261 9.261 0 0 0-4.30469-.79394q-3.18457 0-4.50977 1.55566a6.41592 6.41592 0 0 0-1.26171 3.11133h-8.55567a12.97 12.97 0 0 1 2.5-7.31152q3.53028-4.47949 12.124-4.4795a21.61769 21.61769 0 0 1 9.93652 2.209q4.34327 2.209 4.34375 8.33789v15.55664q0 1.61719.06152 3.91992a4.926 4.926 0 0 0 .5293 2.36524 3.17132 3.17132 0 0 0 1.30664 1.02636v1.30664H199.559a9.86637 9.86637 0 0 1-.55957-1.92871q-.15673-.90234-.249-2.05371a18.31124 18.31124 0 0 1-4.25586 3.3916 12.87093 12.87093 0 0 1-6.50977 1.64844 11.23068 11.23068 0 0 1-7.65136-2.6289 9.34825 9.34825 0 0 1-3.01954-7.45118q0-6.25488 4.85743-9.05468a21.71115 21.71115 0 0 1 7.83691-2.17774zm5.42187 4.1377a9.77956 9.77956 0 0 1-1.71875.85547 14.52924 14.52924 0 0 1-2.38183.60742l-2.01856.373a13.26011 13.26011 0 0 0-4.07519 1.21386 4.04907 4.04907 0 0 0-2.09473 3.76465 3.9319 3.9319 0 0 0 1.2793 3.28223 4.86225 4.86225 0 0 0 3.11133 1.01074 9.26768 9.26768 0 0 0 5.35547-1.67969q2.44775-1.68017 2.543-6.12988zm43.93067-15.47852q3.3296 2.75391 3.33008 9.13184v22.83691h-9.085v-20.62793a9.48069 9.48069 0 0 0-.71-4.10742q-1.29786-2.61327-4.94239-2.61328a6.125 6.125 0 0 0-6.14551 3.82715 13.223 13.223 0 0 0-.86523 5.165v18.35644h-8.86719v-33.85054h8.58692v4.94629a15.02137 15.02137 0 0 1 3.22265-3.76465 11.162 11.162 0 0 1 6.90918-2.05274 12.99877 12.99877 0 0 1 8.56649 2.75293zm12.91211 38.47168l1.12012.06153a13.94832 13.94832 0 0 0 2.48925-.09278 4.481 4.481 0 0 0 1.99121-.71582 4.78614 4.78614 0 0 0 1.44727-2.209 5.32544 5.32544 0 0 0 .5752-2.05371L250.475 681.48879h9.86328l7.4043 25.01465 7.001-25.01465h9.42676l-11.626 33.35351q-3.37061 9.64453-5.333 11.96289-1.96143 2.31739-7.84864 2.31739-1.18359 0-1.90039-.01563-.71631-.01611-2.14941-.1084zm54.07519-40.78906a66.68426 66.68426 0 0 1 7.1875-12.32129h6.68946l-1.89844 3.48438a51.87823 51.87823 0 0 0-5.44434 15.05957 59.53748 59.53748 0 0 0-.99609 11.26269 53.20021 53.20021 0 0 0 2.76953 17.5166 79.84173 79.84173 0 0 0 5.72461 12.13379h-6.56543l-2.209-3.01757a40.505 40.505 0 0 1-4.57325-8.15235 46.42444 46.42444 0 0 1-4.32421-19.041 42.23326 42.23326 0 0 1 3.63966-16.92482zm24.04395-6.7832a18.88142 18.88142 0 0 1 14.09766-5.66211q11.44921 0 16.74414 7.59082a16.5428 16.5428 0 0 1 3.13964 8.55664h-9.583a13.05556 13.05556 0 0 0-2.34668-4.97852q-2.56054-2.98682-7.58887-2.98632a9.35231 9.35231 0 0 0-8.07813 4.21582q-2.95605 4.21581-2.95605 11.93164 0 7.7168 3.11914 11.55859a9.77822 9.77822 0 0 0 7.92871 3.84277 8.98177 8.98177 0 0 0 7.51758-3.29882 14.48473 14.48473 0 0 0 2.374-5.32032h9.52051a20.65891 20.65891 0 0 1-6.29492 12.19629q-5.064 4.69923-12.97363 4.69825-9.78809 0-15.39063-6.34668-5.60153-6.37794-5.60153-17.48536 0-12.01023 6.37206-18.51269zm69.20215 36.9209q-4.29346 5.2998-13.03614 5.2998-8.74365 0-13.0371-5.2998a21.04377 21.04377 0 0 1 0-25.47559q4.29345-5.37744 13.0371-5.37793 8.74219 0 13.03614 5.37793a21.04 21.04 0 0 1 0 25.47559zm-7.09375-4.90137q2.08448-2.76415 2.084-7.86035 0-5.09473-2.084-7.84375a7.88 7.88 0 0 0-11.96289 0q-2.10058 2.748-2.10059 7.84375 0 5.09619 2.10059 7.86035a7.85288 7.85288 0 0 0 11.96289 0zm36.57226-25.65723q.17139.01612.7627.04688v9.085q-.83936-.09228-1.49317-.124c-.43554-.02051-.78906-.03125-1.05859-.03125q-5.35107 0-7.18652 3.48437a13.55744 13.55744 0 0 0-1.02637 6.03613v16.21h-8.92969v-33.91318h8.46292v5.91113a18.757 18.757 0 0 1 3.57715-4.63574 9.74188 9.74188 0 0 1 6.47168-2.084c.16599.00001.30564.0049.41989.01466zm34.24121 30.5586q-4.29345 5.2998-13.03613 5.2998-8.74365 0-13.03711-5.2998a21.04377 21.04377 0 0 1 0-25.47559q4.29346-5.37744 13.03711-5.37793 8.7422 0 13.03613 5.37793a21.03995 21.03995 0 0 1 0 25.47559zm-7.09375-4.90137q2.08447-2.76415 2.084-7.86035 0-5.09473-2.084-7.84375a7.88 7.88 0 0 0-11.96289 0q-2.10058 2.748-2.10058 7.84375 0 5.09619 2.10058 7.86035a7.85288 7.85288 0 0 0 11.96289 0zm45.08106-22.91895q3.32959 2.75391 3.33008 9.13184v22.83691h-9.085v-20.62793a9.48052 9.48052 0 0 0-.71-4.10742q-1.29784-2.61327-4.94238-2.61328a6.125 6.125 0 0 0-6.14551 3.82715 13.223 13.223 0 0 0-.86523 5.165v18.35644h-8.86719v-33.85054h8.58699v4.94629a15.02137 15.02137 0 0 1 3.22265-3.76465 11.162 11.162 0 0 1 6.90918-2.05274 12.99877 12.99877 0 0 1 8.56641 2.75293zm25.00781 11.34082a13.981 13.981 0 0 0 3.541-.77832 2.66649 2.66649 0 0 0 1.91211-2.51953 2.97935 2.97935 0 0 0-1.4668-2.87793 9.261 9.261 0 0 0-4.30469-.79394q-3.18457 0-4.50976 1.55566a6.41583 6.41583 0 0 0-1.26172 3.11133h-8.55567a12.97 12.97 0 0 1 2.5-7.31152q3.53028-4.47949 12.124-4.4795a21.61769 21.61769 0 0 1 9.93652 2.209q4.34326 2.209 4.34375 8.33789v15.55664q0 1.61719.06152 3.91992a4.926 4.926 0 0 0 .5293 2.36524 3.17132 3.17132 0 0 0 1.30664 1.02636v1.30664h-9.64551a9.86637 9.86637 0 0 1-.55957-1.92871q-.15673-.90234-.249-2.05371a18.311 18.311 0 0 1-4.25586 3.3916 12.87093 12.87093 0 0 1-6.50977 1.64844 11.23068 11.23068 0 0 1-7.65136-2.6289 9.34828 9.34828 0 0 1-3.01953-7.45118q0-6.25488 4.85742-9.05468a21.71121 21.71121 0 0 1 7.83693-2.17774zm5.42188 4.1377a9.78025 9.78025 0 0 1-1.71875.85547 14.5294 14.5294 0 0 1-2.38184.60742l-2.01855.373a13.26019 13.26019 0 0 0-4.0752 1.21386 4.04909 4.04909 0 0 0-2.09473 3.76465 3.9319 3.9319 0 0 0 1.2793 3.28223 4.86225 4.86225 0 0 0 3.11133 1.01074 9.26766 9.26766 0 0 0 5.35547-1.67969q2.44774-1.68017 2.543-6.12988zm13.90722-5.47559h17.36133v8.40039h-17.36133zm30.84864-23.89453l6.05468 26.26172 1.31934 7.3086 1.32226-7.15821 5.17969-26.41211h10.11231l5.44922 26.25782 1.3955 7.3125 1.416-7.02735 6.11328-26.543h9.75684l-12.90137 45.86035h-9.17578l-5.53809-26.81933-1.61816-8.86719-1.61817 8.86719-5.53808 26.81933h-8.89942L569.353 669.54152zm64.2871 25.23242a13.98084 13.98084 0 0 0 3.541-.77832 2.66649 2.66649 0 0 0 1.91211-2.51953 2.97935 2.97935 0 0 0-1.4668-2.87793 9.261 9.261 0 0 0-4.30468-.79394q-3.18458 0-4.50977 1.55566a6.41583 6.41583 0 0 0-1.26172 3.11133h-8.55566a12.96982 12.96982 0 0 1 2.5-7.31152q3.53026-4.47949 12.124-4.4795a21.61763 21.61763 0 0 1 9.93652 2.209q4.34327 2.209 4.34375 8.33789v15.55664q0 1.61719.06153 3.91992a4.92619 4.92619 0 0 0 .52929 2.36524 3.17132 3.17132 0 0 0 1.30664 1.02636v1.30664h-9.6455a9.86568 9.86568 0 0 1-.55957-1.92871q-.15675-.90234-.249-2.05371a18.311 18.311 0 0 1-4.25586 3.3916 12.87092 12.87092 0 0 1-6.50976 1.64844 11.23071 11.23071 0 0 1-7.65137-2.6289 9.34828 9.34828 0 0 1-3.01953-7.45118q0-6.25488 4.85742-9.05468a21.71121 21.71121 0 0 1 7.83692-2.17774zm5.42188 4.1377a9.78025 9.78025 0 0 1-1.71875.85547 14.52912 14.52912 0 0 1-2.38184.60742l-2.01855.373a13.26028 13.26028 0 0 0-4.0752 1.21386 4.04908 4.04908 0 0 0-2.09472 3.76465 3.93192 3.93192 0 0 0 1.27929 3.28223 4.86225 4.86225 0 0 0 3.11133 1.01074 9.26764 9.26764 0 0 0 5.35547-1.67969q2.44776-1.68017 2.543-6.12988zm35.42187-18.2168q.17139.01612.7627.04688v9.085q-.83935-.09228-1.49316-.124c-.43555-.02051-.78907-.03125-1.0586-.03125q-5.35107 0-7.18652 3.48437a13.55744 13.55744 0 0 0-1.02637 6.03613v16.21H665.726v-33.91318h8.46289v5.91113a18.757 18.757 0 0 1 3.57715-4.63574 9.74188 9.74188 0 0 1 6.47168-2.084c.16602.00001.30567.0049.41992.01466zm33.30567 2.73828q3.3296 2.75391 3.33008 9.13184v22.83691h-9.085v-20.62793a9.48069 9.48069 0 0 0-.71-4.10742q-1.29786-2.61327-4.94239-2.61328a6.125 6.125 0 0 0-6.14551 3.82715 13.223 13.223 0 0 0-.86523 5.165v18.35644h-8.86719v-33.85054h8.58692v4.94629a15.02137 15.02137 0 0 1 3.22265-3.76465 11.162 11.162 0 0 1 6.90918-2.05274 12.99877 12.99877 0 0 1 8.56649 2.75293zm8.89941 10.00293h17.36133v8.40039h-17.36133zm37.72461-23.89453h10.84278l16.22558 45.86035h-10.3916l-3.02637-9.42773h-16.88867l-3.1084 9.42773h-10.02441zm-.63183 28.53028h11.74511l-5.793-18.0459zm61.33789-12.94336q4.1499 4.3872 4.14941 12.88086 0 8.96044-4.05566 13.65918a13.16375 13.16375 0 0 1-10.44336 4.69824 10.95077 10.95077 0 0 1-6.76367-2.02246 13.06374 13.06374 0 0 1-2.88086-3.26758v17.67285h-8.77442v-47.26074h8.49417v5.00879a14.27085 14.27085 0 0 1 3.06836-3.48438 11.32665 11.32665 0 0 1 7.07715-2.27148 13.413 13.413 0 0 1 10.12888 4.38672zm-6.80567 6.3789a6.30867 6.30867 0 0 0-5.86133-3.01855 6.66771 6.66771 0 0 0-6.69531 4.57422 17.17462 17.17462 0 0 0-.94336 6.16015q0 5.91212 3.17285 8.30664a7.27819 7.27819 0 0 0 4.46387 1.40039 6.48941 6.48941 0 0 0 5.70606-2.8623 14.9905 14.9905 0 0 0 .15722-14.56055zm45.72754-6.3789q4.1499 4.3872 4.14942 12.88086 0 8.96044-4.05567 13.65918a13.16374 13.16374 0 0 1-10.44336 4.69824 10.95079 10.95079 0 0 1-6.76367-2.02246 13.06394 13.06394 0 0 1-2.88086-3.26758v17.67285h-8.77441v-47.26074h8.49414v5.00879a14.27085 14.27085 0 0 1 3.06836-3.48438 11.32663 11.32663 0 0 1 7.07715-2.27148 13.413 13.413 0 0 1 10.1289 4.38672zm-6.80566 6.3789a6.30868 6.30868 0 0 0-5.86133-3.01855 6.6677 6.6677 0 0 0-6.69527 4.57421 17.1744 17.1744 0 0 0-.94336 6.16015q0 5.91212 3.17285 8.30664a7.27819 7.27819 0 0 0 4.46387 1.40039 6.48939 6.48939 0 0 0 5.70605-2.8623 14.99046 14.99046 0 0 0 .15723-14.56055zm27.7314-10.3916a42.29242 42.29242 0 0 1 3.63477 16.92481 46.49107 46.49107 0 0 1-4.31738 19.041 40.53978 40.53978 0 0 1-4.56543 8.15235l-2.20508 3.01757h-6.55371a80.1574 80.1574 0 0 0 5.7041-12.13379 53.4062 53.4062 0 0 0 2.75879-17.5166 59.79229 59.79229 0 0 0-.99219-11.26269 52.0022 52.0022 0 0 0-5.4248-15.05957l-1.89063-3.48438h6.67774a66.71722 66.71722 0 0 1 7.17382 12.3213z"/></svg>