<svg xmlns="http://www.w3.org/2000/svg" role="img" viewBox="-19.00 -20.00 936.00 766.50"><title>Ghana (GH COVID-19 Tracker) logo</title><path fill="#006b3f" d="M-.5863-1.96884h900v600h-900z"/><path fill="#fcd116" d="M-.5863-1.96884h900v400h-900z"/><path fill="#ce1126" d="M-.5863-1.96884h900v200h-900z"/><path d="M449.4137 198.03116l64.98 200-170.13-123.61h210.3l-170.12994 123.61zM43.8335 685.01135a8.88035 8.88035 0 0 0-5.26026-6.49121 12.91909 12.91909 0 0 0-5.19873-1.01465 11.29586 11.29586 0 0 0-8.99756 4.12989q-3.52294 4.1294-3.52246 12.418 0 8.35253 3.81446 11.82128a12.53837 12.53837 0 0 0 8.6748 3.46875 11.24662 11.24662 0 0 0 7.81348-2.73535 11.80782 11.80782 0 0 0 3.75293-7.16992H34.42041v-7.56738h18.8877v24.333h-6.2754l-.95361-5.66016a21.704 21.704 0 0 1-4.92187 4.53223 17.37335 17.37335 0 0 1-9.22852 2.29687 19.17706 19.17706 0 0 1-14.76562-6.24121q-5.99855-6.271-5.99854-17.15332 0-11.00536 6.06006-17.64648 6.06006-6.64014 16.02685-6.63965 8.644 0 13.88916 4.38379a16.2989 16.2989 0 0 1 6.01368 10.93554zm41.2788-2.15235a9.84641 9.84641 0 0 1 4.1504 3.29394 8.78749 8.78749 0 0 1 1.68408 3.86426 47.83237 47.83237 0 0 1 .30664 6.48145v19.70508h-8.95166v-20.418a9.04538 9.04538 0 0 0-.916-4.373q-1.19091-2.34082-4.519-2.34082a6.19982 6.19982 0 0 0-5.23731 2.3252 10.70465 10.70465 0 0 0-1.78613 6.63671v18.16993h-8.76715v-45.18947h8.76709v15.9961a10.71613 10.71613 0 0 1 4.395-4.0752 12.36978 12.36978 0 0 1 5.25293-1.1543 14.18654 14.18654 0 0 1 5.62111 1.07812zm27.0357 12.94923a13.834 13.834 0 0 0 3.50146-.76856 2.63873 2.63873 0 0 0 1.89063-2.49218 2.945 2.945 0 0 0-1.4502-2.84473 9.1546 9.1546 0 0 0-4.25586-.78516q-3.1494 0-4.45947 1.53809a6.34347 6.34347 0 0 0-1.24707 3.07617H97.668a12.8227 12.8227 0 0 1 2.47168-7.22851q3.49073-4.42969 11.9873-4.42969a21.37587 21.37587 0 0 1 9.82471 2.18359q4.29418 2.18555 4.29395 8.24414v15.38086q0 1.59961.06152 3.876a4.8645 4.8645 0 0 0 .52295 2.33789 3.136 3.136 0 0 0 1.292 1.01562v1.292h-9.53613a9.76522 9.76522 0 0 1-.55371-1.90723q-.15455-.8921-.2461-2.03027a18.10171 18.10171 0 0 1-4.208 3.35254 12.71779 12.71779 0 0 1-6.436 1.63085 11.106 11.106 0 0 1-7.56494-2.5996 9.24276 9.24276 0 0 1-2.98584-7.36719q0-6.1831 4.80322-8.95215a21.47009 21.47009 0 0 1 7.74756-2.15332zm5.36084 4.0918a9.68148 9.68148 0 0 1-1.69971.8457 14.32807 14.32807 0 0 1-2.354.59961l-1.99561.36914a13.11152 13.11152 0 0 0-4.02978 1.20019 4.00425 4.00425 0 0 0-2.07129 3.72168 3.89037 3.89037 0 0 0 1.26514 3.2461 4.80914 4.80914 0 0 0 3.07666.999 9.16311 9.16311 0 0 0 5.29443-1.66113q2.42066-1.66113 2.51416-6.05957zm42.80416-15.30372q3.293 2.72169 3.293 9.02832v22.57911h-8.98242v-20.39551a9.3665 9.3665 0 0 0-.70215-4.06055q-1.2832-2.584-4.88575-2.584a6.05665 6.05665 0 0 0-6.07714 3.78418 13.08535 13.08535 0 0 0-.855 5.10644v18.14942h-8.76709V682.735h8.49023v4.89062a14.85141 14.85141 0 0 1 3.18555-3.72168 11.03846 11.03846 0 0 1 6.831-2.03027 12.851 12.851 0 0 1 8.46977 2.72264zm24.0952 11.21192a13.83421 13.83421 0 0 0 3.50147-.76856 2.63873 2.63873 0 0 0 1.89062-2.49218 2.945 2.945 0 0 0-1.45019-2.84473 9.15466 9.15466 0 0 0-4.25586-.78516q-3.14942 0-4.45947 1.53809a6.34328 6.34328 0 0 0-1.24707 3.07617h-8.45948a12.8227 12.8227 0 0 1 2.47168-7.22851q3.49072-4.42969 11.98731-4.42969a21.37585 21.37585 0 0 1 9.8247 2.18359q4.2942 2.18555 4.294 8.24414v15.38086q0 1.59961.06152 3.876a4.86462 4.86462 0 0 0 .52295 2.33789 3.136 3.136 0 0 0 1.292 1.01562v1.292h-9.53613a9.76522 9.76522 0 0 1-.55371-1.90723q-.15455-.8921-.24609-2.03027a18.10213 18.10213 0 0 1-4.208 3.35254 12.71785 12.71785 0 0 1-6.436 1.63085 11.106 11.106 0 0 1-7.56494-2.5996 9.24276 9.24276 0 0 1-2.98584-7.36719q0-6.1831 4.80323-8.95215a21.47 21.47 0 0 1 7.74755-2.15332zM189.769 699.9a9.68175 9.68175 0 0 1-1.6997.8457 14.32822 14.32822 0 0 1-2.354.59961l-1.9956.36914a13.11151 13.11151 0 0 0-4.02979 1.20019 4.00425 4.00425 0 0 0-2.07129 3.72168 3.89037 3.89037 0 0 0 1.26514 3.2461 4.80914 4.80914 0 0 0 3.07666.999 9.16311 9.16311 0 0 0 5.29443-1.66113q2.42065-1.66113 2.51416-6.05957zm34.88579-17.59568a65.88671 65.88671 0 0 1 7.106-12.18164h6.61377l-1.87646 3.44531a51.286 51.286 0 0 0-5.3833 14.88868 58.86027 58.86027 0 0 0-.98438 11.13574 52.59763 52.59763 0 0 0 2.73779 17.31836 78.95858 78.95858 0 0 0 5.66016 11.99707h-6.49077l-2.18408-2.9834a39.97993 39.97993 0 0 1-4.522-8.05957 45.90144 45.90144 0 0 1-4.27588-18.82617 41.75929 41.75929 0 0 1 3.59915-16.73438zm49.29589 2.70703a8.88034 8.88034 0 0 0-5.26025-6.49121 12.91909 12.91909 0 0 0-5.19873-1.01465 11.29586 11.29586 0 0 0-8.99756 4.12989q-3.52294 4.1294-3.52246 12.418 0 8.35253 3.81445 11.82128a12.53837 12.53837 0 0 0 8.67481 3.46875 11.24658 11.24658 0 0 0 7.81347-2.73535 11.80772 11.80772 0 0 0 3.75293-7.16992H264.5376v-7.56738h18.88769v24.333h-6.27539l-.95361-5.66016a21.70378 21.70378 0 0 1-4.92188 4.53223 17.37331 17.37331 0 0 1-9.22851 2.29687 19.17709 19.17709 0 0 1-14.76563-6.24121q-5.99853-6.271-5.99853-17.15332 0-11.00536 6.06006-17.64648 6.06006-6.64014 16.02685-6.63965 8.644 0 13.88916 4.38379a16.29885 16.29885 0 0 1 6.01367 10.93554zm17.82715 31.19239V670.861h9.41309v17.28809h17.62646V670.861h9.41309v45.34278h-9.41309v-20.24125h-17.62646v20.24121zm66.13281-40.60547a18.66665 18.66665 0 0 1 13.93848-5.59864q11.321 0 16.55567 7.50586a16.35831 16.35831 0 0 1 3.104 8.459h-9.47461a12.90962 12.90962 0 0 0-2.3208-4.92188q-2.53125-2.95312-7.50342-2.95312a9.24562 9.24562 0 0 0-7.98633 4.16894q-2.9231 4.16748-2.92285 11.79688 0 7.62891 3.08447 11.42773a9.664 9.664 0 0 0 7.83838 3.79883 8.88049 8.88049 0 0 0 7.43262-3.26074 14.3087 14.3087 0 0 0 2.34717-5.25977h9.41308a20.4266 20.4266 0 0 1-6.22363 12.0586q-5.0061 4.645-12.82715 4.64453-9.67749 0-15.21631-6.27539-5.53857-6.30469-5.53857-17.28809 0-11.87401 6.2998-18.30274zm75.44971 36.57519q-5.13793 5.291-14.85791 5.291-9.7207 0-14.85791-5.291-6.89136-6.48925-6.89062-18.70312 0-12.4585 6.89062-18.70313 5.13722-5.28954 14.85791-5.291 9.72 0 14.85791 5.291 6.85914 6.24611 6.85986 18.70313 0 12.2124-6.85986 18.70312zm-5.92139-6.89062q3.30617-4.15284 3.30665-11.8125 0-7.62891-3.30665-11.79688a10.80933 10.80933 0 0 0-8.93652-4.168 10.95057 10.95057 0 0 0-8.98242 4.15235q-3.353 4.15283-3.353 11.8125t3.353 11.8125a10.9514 10.9514 0 0 0 8.98242 4.15332 10.82417 10.82417 0 0 0 8.93656-4.15329zm45.9126-34.42184h9.84375l-15.459 45.34278h-8.95117l-15.334-45.34278h10.12012l9.84375 34.42188zm23.50293 45.34274h-9.41308V670.861h9.41308zm34.79785-44.3584a14.98825 14.98825 0 0 1 7.72754 5.752 20.19044 20.19044 0 0 1 3.23242 7.32129 35.15652 35.15652 0 0 1 .86231 7.50586q0 9.04395-3.63281 15.31934-4.92627 8.46093-15.209 8.46H505.084V670.861h19.54883a23.86923 23.86923 0 0 1 7.01951.98434zm-17.37109 6.89066v29.59278h8.751q6.71631 0 9.36523-6.61426a23.27885 23.27885 0 0 0 1.44824-8.64356q0-6.92138-2.17187-10.62793-2.17236-3.70752-8.6416-3.707zm32.31543 15.75h17.165v8.30567h-17.165zm23.27246-9.044v-5.96778a38.668 38.668 0 0 0 5.79883-.55371 8.175 8.175 0 0 0 4.2959-2.33789 7.70426 7.70426 0 0 0 1.71875-3.19922 7.37214 7.37214 0 0 0 .33691-1.78418h7.32129v44.6045h-8.98242V685.442zm36.05274-9.76658a14.01344 14.01344 0 0 1 10.75195-4.44532q10.18067 0 13.96582 9.0127 2.15185 5.10645 2.15332 13.44336a38.24883 38.24883 0 0 1-2.06152 13.5039q-3.9375 10.30665-14.458 10.30567a14.74444 14.74444 0 0 1-9.0127-2.96875 11.70254 11.70254 0 0 1-4.584-8.65918h8.73633a5.278 5.278 0 0 0 1.66113 3.19922 5.14591 5.14591 0 0 0 3.59961 1.23047q4.3374 0 6.09082-4.79883a28.04311 28.04311 0 0 0 1.19922-7.72168 9.48126 9.48126 0 0 1-2.55274 2.30762 11.5923 11.5923 0 0 1-6.06054 1.47656 13.7822 13.7822 0 0 1-9.44336-3.67578q-4.12355-3.67677-4.12207-10.59766.00001-7.16748 4.13673-11.6123zm14.751 17.70312q2.98242-1.90722 2.9834-6.61426a9.35015 9.35015 0 0 0-1.76855-5.998 5.86543 5.86543 0 0 0-4.84473-2.21485 6.02165 6.02165 0 0 0-3.8457 1.26074q-2.52247 1.96875-2.52247 6.67579 0 3.96825 1.61524 5.95214a6.02658 6.02658 0 0 0 4.96777 1.98438 6.1313 6.1313 0 0 0 3.41501-1.04594zm68.26071-22.51754v8.02832h-13.56543v37.31446H665.832v-37.3145h-13.6279V670.861zm19.38086 11.02828c.11231.00977.36426.02539.75391.0459v8.98242q-.83056-.09228-1.47656-.123c-.43067-.02051-.78028-.03125-1.0459-.03125q-5.291 0-7.10645 3.44531a13.404 13.404 0 0 0-1.01465 5.96777v16.02735h-8.8291v-33.53032h8.36719v5.84473a18.53985 18.53985 0 0 1 3.53809-4.584 9.63361 9.63361 0 0 1 6.39843-2.06054c.16407.00001.30176.00489.41504.01563zm18.54102 13.91895a13.84442 13.84442 0 0 0 3.502-.76856 2.63936 2.63936 0 0 0 1.89063-2.49218 2.945 2.945 0 0 0-1.4502-2.84473 9.15737 9.15737 0 0 0-4.25586-.78516q-3.14942 0-4.46 1.53809a6.3528 6.3528 0 0 0-1.24707 3.07617h-8.459a12.81906 12.81906 0 0 1 2.47168-7.22851q3.49071-4.42969 11.9873-4.42969a21.37383 21.37383 0 0 1 9.82422 2.18359q4.29492 2.18555 4.29394 8.24414v15.38086q0 1.59961.06153 3.876a4.85753 4.85753 0 0 0 .52344 2.33789 3.136 3.136 0 0 0 1.292 1.01562v1.292H733.294a9.7646 9.7646 0 0 1-.55372-1.90723q-.15526-.8921-.24609-2.03027a18.10213 18.10213 0 0 1-4.208 3.35254 12.7209 12.7209 0 0 1-6.43652 1.63085 11.10555 11.10555 0 0 1-7.56445-2.5996 9.24149 9.24149 0 0 1-2.98633-7.36719q0-6.1831 4.80371-8.95215a21.46705 21.46705 0 0 1 7.74707-2.15332zM732.2168 699.9a9.669 9.669 0 0 1-1.7002.8457 14.32027 14.32027 0 0 1-2.35351.59961l-1.9961.36914a13.10749 13.10749 0 0 0-4.02929 1.20019 4.00425 4.00425 0 0 0-2.07129 3.72168 3.89016 3.89016 0 0 0 1.26464 3.2461 4.81057 4.81057 0 0 0 3.07715.999 9.16161 9.16161 0 0 0 5.29395-1.66113q2.42139-1.66113 2.51465-6.05957zm35.8232-5.19919a7.77741 7.77741 0 0 0-1.26465-3.38379 5.307 5.307 0 0 0-4.59473-2.03028q-4.43994 0-6.07421 4.39942a18.24574 18.24574 0 0 0-.86329 6.19824 16.77629 16.77629 0 0 0 .86329 5.92188 5.86222 5.86222 0 0 0 5.91992 4.18359q3.085 0 4.3789-1.66113a8.26231 8.26231 0 0 0 1.57325-4.30664h8.95117a14.65472 14.65472 0 0 1-2.89453 7.56738q-4.12647 5.75244-12.22461 5.75195-8.09766 0-11.916-4.79883-3.81885-4.79883-3.81836-12.44336 0-8.62793 4.21778-13.42675 4.21875-4.79883 11.63964-4.79883a17.53766 17.53766 0 0 1 10.33106 2.83008q4.01807 2.83006 4.75781 9.99707zm14.25785-23.68653h8.61328v24.46094l11.0586-12.64844h10.90136L800.85352 695.318l12.48339 20.88575H802.667l-8.124-14.32618-3.63184 3.77442v10.55176h-8.61328zm56.34961 12.33789a13.635 13.635 0 0 1 5.79395 4.96094 16.46571 16.46571 0 0 1 2.67187 6.93164 42.83531 42.83531 0 0 1 .28906 6.6543h-24.42089q.20361 5.04639 3.50585 7.07519a8.89789 8.89789 0 0 0 4.834 1.26172 6.80934 6.80934 0 0 0 6.67285-3.8457h8.9502a10.94659 10.94659 0 0 1-3.25 6.06055q-4.50587 4.89111-12.61426 4.89062a18.27756 18.27756 0 0 1-11.81055-4.125q-5.1167-4.125-5.11719-13.42383 0-8.71288 4.61914-13.3623a16.16747 16.16747 0 0 1 11.99024-4.64942 19.09958 19.09958 0 0 1 7.88573 1.57129zm-13.11523 7.57422a9.107 9.107 0 0 0-2.33594 5.18946h15.10449a7.31792 7.31792 0 0 0-2.33594-5.29786 7.68164 7.68164 0 0 0-5.19922-1.80761 6.95075 6.95075 0 0 0-5.23339 1.91601zm44.29977-9.03711c.11231.00977.36426.02539.75391.0459v8.98242q-.83057-.09228-1.47656-.123c-.43067-.02051-.78028-.03125-1.0459-.03125q-5.291 0-7.10645 3.44531a13.4039 13.4039 0 0 0-1.01465 5.96777v16.02735h-8.8291v-33.53032h8.36719v5.84473a18.53986 18.53986 0 0 1 3.53808-4.584 9.63365 9.63365 0 0 1 6.39844-2.06054c.16409.00001.30179.00489.41504.01563zm15.66507.41504a41.83314 41.83314 0 0 1 3.59277 16.73438 45.9672 45.9672 0 0 1-4.26855 18.82617 40.01614 40.01614 0 0 1-4.51367 8.05957l-2.18067 2.9834h-6.47949a79.12964 79.12964 0 0 0 5.63965-11.99707 52.79068 52.79068 0 0 0 2.72754-17.31836 59.07437 59.07437 0 0 0-.98047-11.13574 51.45216 51.45216 0 0 0-5.36328-14.88867l-1.87012-3.44531h6.60254a66.04526 66.04526 0 0 1 7.09375 12.18163z"/></svg>