<svg xmlns="http://www.w3.org/2000/svg" role="img" viewBox="-12.77 -11.77 612.04 261.04"><title>Go.Data logo</title><defs><style>.cls-1{fill:#009cde}</style></defs><g id="Layer_2" data-name="Layer 2"><g id="Layer_1-2" data-name="Layer 1-2"><path d="M249.38122 42.8h-.1l-8 41.8h-11l-10.4-51h8.8l7.2 39.3h.1l7.7-39.3h11.4l7.6 39.3h.1l7.5-39.3h8.5l-10.5 51h-11.2zM291.98123 46.3c7.7 0 16.5 4 16.5 19.3 0 15.8-8.8 19.4-16.5 19.4s-16.6-3.7-16.6-19.4C275.48123 50.3 284.38122 46.3 291.98123 46.3zm0 32.4c5.8 0 7.2-6.7 7.2-13s-1.3-12.9-7.2-12.9-7.2 6.6-7.2 12.9S286.18121 78.7 291.98123 78.7zM312.98123 53.1c0-2.1-.1-4.1-.3-6.2h8.2c.1 2.3.3 4.6.3 6.9h.1c1.1-2.9 3.9-7.4 9.6-7.4a7.71914 7.71914 0 0 1 1.5.2v8.5a10.8553 10.8553 0 0 0-2.5-.4c-3.7 0-7.8 2.3-7.8 9.3V84.6h-9zM336.28121 29.8h9.1V84.5h-9.1zM382.28121 29.8V78.1c0 2.1.1 4.3.3 6.4h-8.5a56.32634 56.32634 0 0 1-.3-5.8h-.2a10.20284 10.20284 0 0 1-10 6.4c-9.3 0-13.2-8.9-13.2-19.3 0-12.3 4.9-19.4 13-19.4a10.07752 10.07752 0 0 1 9.7 6h.1V29.8zm-16.3 48.6c5.3 0 7.1-5.8 7.1-12.8 0-7.3-2-12.6-7-12.6s-6.8 4.9-6.8 12.4C359.38122 74.1 360.78121 78.4 365.98123 78.4zM409.18121 33.6h9.4V54.3h15.1V33.6h9.3v51h-9.3V62h-15.1V84.5h-9.4zM476.08123 82.7a27.179 27.179 0 0 1-11.2 2.4c-12.1 0-17.4-8.7-17.4-18.8 0-11.2 5.9-19.9 15.5-19.9 8.1 0 15 4.7 15 20.1v1.8h-21.7c0 6.4 2.6 10.3 9.6 10.3 5.5 0 8.2-1.7 9.9-2.9zm-6.9-20.2c0-6.6-2.2-10-6.3-10-4.8 0-6.7 5-6.7 10zM483.78121 49.1a27.36465 27.36465 0 0 1 11.9-2.8c11.7 0 14.4 5.7 14.4 15.1V77.8a48.87453 48.87453 0 0 0 .5 6.6h-8.2a17.683 17.683 0 0 1-.5-5.1h-.1c-2.3 3.1-5.1 5.7-10.5 5.7-5.8 0-11.2-4-11.2-11 0-10.2 8.3-12.8 19.8-12.8h1.8V59.8c0-3.7-1.8-7.2-7-7.2a17.73783 17.73783 0 0 0-10.3 3.7zm17.8 17h-.8c-7.7 0-12.3 1.6-12.3 7.1a5.47342 5.47342 0 0 0 5.1 5.8h.7c5.4 0 7.4-4 7.4-10.7V66.1zM518.38122 29.8h9V84.5h-9zM537.78124 39.2l9-2.8V46.9h7.5v6.6h-7.5V73.1c0 4 1.5 5.2 4.1 5.2a7.7344 7.7344 0 0 0 3.4-.8v6.4a15.79752 15.79752 0 0 1-6.1 1.2c-6.7 0-10.5-3.1-10.5-11V53.6h-6V47h6V39.2zM557.18121 29.8h9v22h.2c1.6-2.3 3.7-5.4 9.3-5.4 8.5 0 11.1 6.3 11.1 13.9V84.5h-9V62c0-5.8-1.5-8.2-5.2-8.2-4.7 0-6.4 4-6.4 8.8V84.5h-9zM240.58122 98.1c10.6 0 20.3 7.9 20.3 26.2s-9.7 26.2-20.3 26.2-20.3-7.9-20.3-26.2S229.98123 98.1 240.58122 98.1zm0 45.3c5.9 0 10.7-5 10.7-19.1s-4.8-19-10.7-19-10.7 5-10.7 19 4.8 19.1 10.7 19.1zM264.68121 118.4c0-2.1-.1-4.1-.3-6.2h8.2c.1 2.3.3 4.6.3 6.9h.1c1.1-2.9 4-7.4 9.6-7.4a7.71912 7.71912 0 0 1 1.5.2v8.5a10.87184 10.87184 0 0 0-2.6-.4c-3.7 0-7.8 2.3-7.8 9.3v20.6h-9zM288.48123 155.7a23.01556 23.01556 0 0 0 11.1 3.2c8.5 0 9.9-5.9 9.9-11.8v-3.6h-.1c-1.5 2.9-4 6.4-9.9 6.4-5.2 0-13.1-3.5-13.1-18.7 0-10.4 3.7-19.5 13.6-19.5 5.5 0 8 3.1 9.9 6.4h.3c0-2 .2-3.9.3-5.8h8.2c-.1 2-.3 3.9-.3 5.9v27.7c0 11.8-3.6 20.1-17.4 20.1a37.70949 37.70949 0 0 1-12.9-2.3zm13.1-12.5c5.7 0 8-4.1 8-12.6 0-7.9-3-12.1-7.3-12-4.8.1-6.6 4.5-6.6 12.1C295.68121 139.5 298.48123 143.2 301.58123 143.2zM326.38122 114.4a26.02778 26.02778 0 0 1 11.9-2.8c11.7 0 14.4 5.7 14.4 15.1v16.4a48.875 48.875 0 0 0 .5 6.6h-8.2a17.6827 17.6827 0 0 1-.5-5.1h-.1c-2.3 3.1-5.1 5.7-10.5 5.7-5.8 0-11.2-4-11.2-11 0-10.2 8.3-12.8 19.8-12.8h1.8v-1.4c0-3.7-1.8-7.2-7-7.2a17.73782 17.73782 0 0 0-10.3 3.7zm17.8 17h-.8c-7.7 0-12.3 1.6-12.3 7.1a5.47343 5.47343 0 0 0 5.1 5.8h.7c5.4 0 7.4-4 7.4-10.7zM359.98123 118.4c0-2.1-.1-4.1-.3-6.2h8.5c.1 1.9.3 3.9.3 5.8h.1c1.3-2.3 3.9-6.3 10-6.3 8.5 0 11.1 6.3 11.1 13.9v24.2h-9.1V127.2c0-5.8-1.5-8.2-5.2-8.2-4.7 0-6.4 4-6.4 8.8v21.9h-9zM396.58123 96.2h9.4v8.9h-9.4zm.2 16h9v37.6h-9zM412.88122 142l16.1-22.9h-15.6v-6.9h24.6v7.7l-15.8 23h16.3v6.9h-25.7V142zM445.38122 114.4a26.02778 26.02778 0 0 1 11.9-2.8c11.7 0 14.4 5.7 14.4 15.1v16.4a48.875 48.875 0 0 0 .5 6.6h-8.2a17.6827 17.6827 0 0 1-.5-5.1h-.1c-2.3 3.1-5.1 5.7-10.5 5.7-5.8 0-11.2-4-11.2-11 0-10.2 8.3-12.8 19.8-12.8h1.8v-1.4c0-3.7-1.8-7.2-7-7.2a17.73782 17.73782 0 0 0-10.3 3.7zm17.8 17h-.8c-7.7 0-12.3 1.6-12.3 7.1a5.47343 5.47343 0 0 0 5.1 5.8h.7c5.4 0 7.4-4 7.4-10.7v-2.2zM481.48123 104.5l9-2.8v10.5h7.5v6.6h-7.5v19.5c0 4 1.5 5.2 4.1 5.2a6.57352 6.57352 0 0 0 3.4-.8v6.4a12.82432 12.82432 0 0 1-6.1 1.2c-6.7 0-10.5-3.1-10.5-10.9V118.8h-6v-6.6h6zM503.48123 96.2h9.3v8.9h-9.3zm.2 16h9.1v37.6h-9zM534.28124 111.6c7.7 0 16.5 4 16.5 19.3 0 15.8-8.8 19.4-16.5 19.4s-16.6-3.6-16.6-19.4C517.78124 115.7 526.68121 111.6 534.28124 111.6zm0 32.4c5.8 0 7.2-6.7 7.2-13s-1.3-12.9-7.2-12.9-7.2 6.6-7.2 12.9S528.4812 144 534.28124 144zM557.9812 118.4c0-2.1-.1-4.1-.3-6.2h8.5c.1 1.9.3 3.9.3 5.8h.1c1.3-2.3 3.9-6.3 10-6.3 8.5 0 11.1 6.3 11.1 13.9v24.2h-9V127.2c0-5.8-1.5-8.2-5.2-8.2-4.7 0-6.4 4-6.4 8.8v21.9h-9z" class="cls-1"/><g id="g640"><g id="path642"><path d="M165.28121,33.1c3.9,4.7,10.7,7.4,14.7,12.1-2.9-13.8-13.5-25.1-26.1-27.8,6.2,4.6,7.5,11,11.4,15.7m-151.2,35c8.7-18.9,21.6-14.9,27.1-32.8-3.2,5.4-17.3,7.7-23.8,21.8,3.4-8.4,1.7-21.2,7.3-28.2-16.9,12.6-9.7,32.8-10.6,39.2m15.6,45.2c1.6,7.3-3,18,4.3,28.1-7.5-8.4-23.5-10.6-30-23.4,8.1,31.3,29.3,24.9,38.8,31.7-7.8-11.3-1.4-18.8-13.1-36.4m-2.4,19.7c-4.7-17.5,3.6-23.6-2.7-40.4-.6,9.5-7,14.1-2.7,31.4-7.5-14.7-19.1-20.2-22.5-30.2.2,27.5,22.3,31.6,27.9,39.2m33.9,29.3c-6.5-9-2.1-14.1-20.3-30.4,3.9,6-.1,13.5,12.2,25.1-12-7.1-28.7-4.1-36.7-13.6,13.8,26.4,38,15.6,44.8,18.9m88.5-5.3c12.3-11.7,8.3-19.2,12.2-25.1-18.3,16.3-13.8,21.4-20.4,30.4,6.9-3.3,31.1,7.5,44.8-18.9-7.9,9.6-24.6,6.5-36.6,13.6m19.1-15.6c7.3-10.1,2.7-20.7,4.2-28.1-11.7,17.6-5.3,25.1-13.1,36.4,9.6-6.8,30.7-.4,38.8-31.7-6.5,12.8-22.4,15-29.9,23.4m-29.2,22.2a89.51465,89.51465,0,0,0-20-3,49.10541,49.10541,0,0,0-18.2,3.1,49.10626,49.10626,0,0,0-18.2-3.1,89.51465,89.51465,0,0,0-20,3c-11,2.9-20.5,5.2-28.8,1,7.9,7,17.2,9.6,30.6,8.1,11.1-1.2,20.1-6.8,30.6-6.7h.4a55.50639,55.50639,0,0,0-17.3,13.5l5.1.7s5.3-10.7,17.6-13.5c12.3,2.8,17.6,13.5,17.6,13.5l5.1-.7a55.50628,55.50628,0,0,0-17.3-13.5h.4c10.5-.1,19.5,5.5,30.6,6.7,13.4,1.4,22.6-1.1,30.6-8.1-8.3,4.2-17.8,1.9-28.8-1m-114.2-90c-4.5,8.7-11.6,10.7-10.8,28.6-3.8-15.9-12.9-21.9-12.8-32-6.3,26.6,10.5,29.7,14.9,40.9-.7-16,9.5-19.2,8.7-37.5m6.3-20.5c-1.6,2.2-2.7,3.2-6.9,6.6a33.674,33.674,0,0,0-12.2,20c.4-9.8-5.6-23.8-1.6-34-15.5,21.9.9,35,1.5,43,3.9-15.3,13.2-15.4,19.2-35.6m158.5,26.6a34.16231,34.16231,0,0,0-12.2-20c-4.2-3.5-5.3-4.4-6.9-6.6,6,20.2,15.3,20.3,19.3,35.6.6-7.9,17-21,1.5-43,4,10.2-2,24.2-1.7,34m13.2,14.1c-3.4,10.1-15,15.5-22.5,30.2,4.3-17.3-2.1-21.9-2.7-31.4-6.3,16.8,2,22.9-2.7,40.4,5.6-7.6,27.7-11.7,27.9-39.2m-26-20.2c-.9,18.3,9.4,21.5,8.7,37.5,4.3-11.1,21.2-14.3,14.9-40.9.1,10.2-9,16.1-12.8,32.1.8-18.1-6.2-20-10.8-28.7m-139.9-40.5c3.9-4.7,5.2-11.1,11.4-15.7-12.7,2.7-23.3,13.9-26.2,27.7,4-4.7,10.9-7.4,14.8-12m124.2,2c5.5,18,18.4,14,27.1,32.8-.9-6.3,6.3-26.6-10.6-39,5.7,6.9,4,19.8,7.3,28.2-6.6-14.1-20.7-16.4-23.8-22m-44,10.3a41.40886,41.40886,0,0,0-10.3-2.8v2.3a43.00491,43.00491,0,0,1,9.5,2.6,6.04955,6.04955,0,0,0,.8-2.1m-2.6-22.3.7-.6-1.3-.6-3.5-.1-.9.6-2-.2v.5a32.91023,32.91023,0,0,1,3.6.4l1.7-.1Zm-6.6,74.6c0-.6-.8-1.2-1.9-1.7h-.2c0,.5-.1,2.8-.1,4,1.3-.7,2.2-1.3,2.2-2.3m-40.1-43.9c.1-.4.2-.9.3-1.3a3.32892,3.32892,0,0,1-1.4.1Zm-16.1-16.1,8.2,8.2a56.64374,56.64374,0,0,0-15.7,38.4h-11.6a67.92239,67.92239,0,0,1,19.1-46.6m-5,63.8-.7-.1-.7-.7-3.3-.3,1,1.4-3-.6.8-.7-.7-.7-2.2.9-.8,1.4.3,3.3,2.5,6,1.2,1.9.7.2-1.9-3.6-.4-1.8.4-.4-.3-1,1.1.2,1.8,2.6.4.2v-1.9l.7.4.2,1,1.8.5.8-.6.3.2v1.4l.8,1,1,.2,2.2,3.6,1.3.4.4-1.7a56.89285,56.89285,0,0,0,8,10.3l-8.2,8.2a67.67162,67.67162,0,0,1-19.6-46.1h11.6a54.08265,54.08265,0,0,0,2.5,14.9m11.4-15a20.414,20.414,0,0,0,.3,3.4l-1.4.3-.3,1.4-3,3.8.1,5.2-3,1h-1.7a54.96965,54.96965,0,0,1-2.6-15.1Zm2.6,32.7,2.6,1.5.5.4-1.9,1.9a33.29,33.29,0,0,1-2.5-2.8Zm10.6-61.9,8.2,8.2a27.03085,27.03085,0,0,0-4.3,6.3h-.6l-1.2.3h-.4l-1.2,1.1,1.6-.2,1.4-.3-.3.4-1.2.8h-.6l-1.8,1.4-1.7-.2-2.5,4.7.5.9-1.4,1.6-.2,2h-5.2a39.80867,39.80867,0,0,1,10.9-27m8.4,33.9.6-.3,1.5,1.1-.7.5,1.7,1.1-.1-1.2.9-1.5,1,1,1,1.4-1.8.5.8,1.6,1.2-.7-.2-.5.9-.6.5-2.5a16.19,16.19,0,0,0,2.7,4.1l-8.2,8.2a26.95728,26.95728,0,0,1-7.2-15.4l1.7,1.8h1.6Zm-11.8-8.7.2-2.3,1.4-.8,2.5.4.4.4c-.2,1.3-.3,2.7-.4,4h-2.8Zm-3.8,8-1.1,1.7h-1.9l-.1-.1a51.35617,51.35617,0,0,1-.6-5.5h3.5l-.8,2.8Zm7.7,22.6c-.8-.9-1.7-1.8-2.4-2.7l.4-2.9-1.2-2.8-.3-4.4-1.4-2.7.3-1.7-1.7-3.2-1.4-.7.6-1.7-.6-1.3.6-1.5h1.6l.6-.9h2.7l.4.8-.6,2.7-.3.5,1,2.2-.7.4-.5-.6-.2.2.5,1.3.8,1.5h.4l.2-1.4-.4-.5v-.9l-.1-1.9.6-3.4-.6-.9h1.9a28.89688,28.89688,0,0,0,8,18.4Zm69.8,11.2a56.04345,56.04345,0,0,0,15.9-37.8h11.6a67.874,67.874,0,0,1-19.4,46Zm-3.2-3.2.9-1-.9-4.5-.6-.2.4-.8-1.9-.6-.4,1.6-.2,2-.4.4-3.5-3.5a42.62621,42.62621,0,0,0,11.9-28h11.6a53.85865,53.85865,0,0,1-15.3,36.2Zm-10.2,10.9,1.1-2.3-.4-1,1.6-1.4v-.8l-1.4-.9,1.1-2.3,1.7-2.2-1.7-1.8h-1.3l-.8-1.3c.7-.6,1.4-1.2,2-1.8l8.2,8.2a50.43233,50.43233,0,0,1-10.1,7.6m-1.6-22.6-1.1-1.1.8-1.1,1.1-2.2-.4-.6.7-1.6-.1-1.5-.4-1.5-1-.3-.4.8-.6-.2a34.9783,34.9783,0,0,0,2.4-4.2l1-.4.6-.8.3.3.7-.8-.6-.7.5-.1.9.4h1.8l1.1-.6,2.8-.8-.5-.9-.2-1.1,1.5.7.6-.3-.3-1.2-1.9.7-2-.4-1.6-3.2h8.9a40.55413,40.55413,0,0,1-11.2,26.4l-1.2-1.2.5-1.6-.9-3.6Zm-4.2-43.6,8.2-8.2a48.25991,48.25991,0,0,1,5.1,6.8l-1,.3.1,1.8,3,1.9a32.37938,32.37938,0,0,1,1.9,5.2l-.5.8-1.1.8-.3,1.7-.8.4-.6.8-.6-.3h-1.1l.6-.9.5-2.3.8-.5-2.2-2.1-1.6.6-.4,1.6-1,1.1-1.1-.9-.4-1,.6-.4.3.6.5-.2-.2-1h-.7v.4l-.5.1-2.5-3-.9-.7.3-.3.8-.3-.8-.3s-.9.2-1,.2l.5.7h-1.3a17.95951,17.95951,0,0,0-2.6-3.4m1.3,44.7-2.5-.7-.8.3-1.4-1.1-1.3-.5c.7-.5,1.3-1,1.9-1.5l2.1,1.5,1.6.8.8.8Zm-4.4-38.5,1-.2v-.2l-1-.7.3-2.2,1.2-1.3a30.12741,30.12741,0,0,1,2.2,2.8l-.4,1.3-1.1-.8-.9.2.4.8h.4l-.5,1.2-.3-.5Zm13.9,8,2.1-1.1,2.1-.3.5-1,1.2-.7.5-1,.4-1.7c.2.6.3,1.2.5,1.8l-1.1,3.3v1.1l1.4-2.3c.3,2,.5,4.1.6,6.1h-10.2l-.2-.9,1.2-.9.2-.6.5-.4,1.4-.2.1-.6Zm2.3-27.2,2.8.1.7.8-.3,1.2,3.9,2.4.8-.1,4.9,5.7,2-.7a54.44551,54.44551,0,0,1,5,22.1h-11.6a37.21368,37.21368,0,0,0-1.1-8.8l.5-.7.7-3.7-.5-3.9-1.4-4.5-3.2-4.7.8.4.4-.4-2.6-1.8-.2.6,2.6,3.7,1.5,3,1,3,.3,2,.5,3.4-1,.1s-1.1-2.1-1.5-3l.5-.8-1-1.4V65.5l-.7-.9-.9.1a9.4965,9.4965,0,0,0-1-1.7l.6.3.2-.2-.3-.7.8-.4-.3-.4-1.1.4.4-1.8-.7-.4-.6,1.4a55.63692,55.63692,0,0,0-4.2-5.4Zm14.8-14.9a68.071,68.071,0,0,1,18.9,46.4h-11.6a56.30452,56.30452,0,0,0-6-24.8l.1-.2.8.4.2-.6-2.1-3.6-2.5-3.4-2.9-2.4c-1-1.2-2-2.4-3.1-3.6Zm-34.2,68.9h0m-15.2,48.7a70.63586,70.63586,0,0,0,7.1-140.9l-.1.4c-.1.7-.3,1.3-.4,1.9a68.03732,68.03732,0,0,1,41.1,19.2l-7.8,7.8.3-1.4-1-.5-1.3.1.3-.9-.9-3.2-1.9-2.1-6.1-3.2-.5.6-1.1.3a17.85652,17.85652,0,0,1,3.2,10.2v1.4l3,3.8-1.4.3.9,1.4-2.7,2.7-1.1-2a18.69994,18.69994,0,0,1-2,4l.6.5-8.3,8.2c-.5-.5-1-.9-1.5-1.4a24.42542,24.42542,0,0,1-2.4,1l.7.5-.4.4-1,.5-.4,1-.6-.6-1.7.6.5.8,1.2-.3.8.1.1-.4.6-.3.2-.3,1.1-.3h.8l.5.4-3.2,3.3-.2-.3-3.4.6-.8.8-.7.1,2.1-2-.8-.4-2,2.6.6-.1v1l.7.3.1,1-1.2-.2-1.2.2-3-1.5s-.2,8-.2,12c7,2.4,14.5,5.8,14.5,14.8a11.13686,11.13686,0,0,1-5.1,9.5h0l-.2.1h0l-.2.2c-2.8,1.9-6.5,2.9-9.7,3.9l-.1,6.3c5.1,2.5,11.2,6.2,10.6,16.6-.1,2.6-1.1,3.3-1.9,3.5h0a57.2674,57.2674,0,0,1-9.1,1.4v2.3a56.74025,56.74025,0,0,0,35.2-15.5l8.2,8.2a68.19228,68.19228,0,0,1-94.4.2l8.2-8.2a57.36992,57.36992,0,0,0,34.8,15.3v-2.3a53.81164,53.81164,0,0,1-33-14.7l2.1-2.2,3,.3,1.6-1.7,4.2.2.6-1.5-.2-.6a42.71885,42.71885,0,0,0,21.4,8.5v-2.3a40.6792,40.6792,0,0,1-23-10.5l8.2-8.2a28.09358,28.09358,0,0,0,6.7,4.5,8.26421,8.26421,0,0,1,.8-2.2,29.43227,29.43227,0,0,1-5.8-3.9l8.2-8.2a15.23377,15.23377,0,0,0,4.3,2.4V96.9a12.03019,12.03019,0,0,1-2.7-1.6l2.3-2.3a22.50387,22.50387,0,0,1-2.4-.8l-1.6,1.6a13.67144,13.67144,0,0,1-2-2.9,23.21468,23.21468,0,0,1-4.1-2.2,15.88361,15.88361,0,0,1-7.6-13.9,16.71688,16.71688,0,0,1,3.3-10.6l-8.2-8.2a40.618,40.618,0,0,1,21.9-10.8V42.9a42.841,42.841,0,0,0-23.5,11.5l-1.4-1.4a19.01808,19.01808,0,0,0-1.1,2.1l.9.9a42.5889,42.5889,0,0,0-11.6,28.5h-11.7a54.47237,54.47237,0,0,1,15-36.8l3.7,3.7h.5a7.27439,7.27439,0,0,0,2.1-.6l-4.7-4.7a56.26979,56.26979,0,0,1,8.1-6.5,8.50982,8.50982,0,0,1,.6-1.7,18.76318,18.76318,0,0,1,1.8-2.4,54.9598,54.9598,0,0,0-12,8.9l-8.2-8.2a68.43259,68.43259,0,0,1,40.7-19,1.21332,1.21332,0,0,0-.1-.5c-.1-.6-.2-1.1-.3-1.8a70.48415,70.48415,0,0,0,7.2,140.6m34.7-122.1-.7-1.1-1.5-.8-1.2.9,1.5.8,1.7,1.2Zm-7,32.8.1.9,2-.6.6-1.2-1.4-1.8.7-1.1,1.9,1.3.3-.3-.4-.3-.4-.8.8-.4-.8-1-1.8.9-.6,1.1-.4,1,.8,1.3-.3.6Zm-83.8,52,.1-.5-1-2.3-1.2-.5Zm47.3-43.6c0,2,1.2,3.3,3.3,4.5v-.9l-1.3-1.4.7-1.3.6-.2c-.1-2.3-.1-4.8-.1-5.2h-.1c-2,1.2-3,2.6-3.1,4.5" class="cls-1"/></g></g><g id="g644"><g id="path646"><path d="M105.68122,124.9c3.6,1.8,7,4.4,8.4,9.2.6-8-3.9-11.4-8.3-13.8l-.1,4.6" class="cls-1"/></g></g><g id="g648"><g id="path650"><path d="M129.88122,43.8c0-7.3-5.3-15.3-18.2-18.1-1.3-.2-2.6-.4-3.9-.5,0,1.1-.1,3.6-.1,3.6,0,.8-.1,3.7-.1,4.3.8.1,1.7.2,2.5.3,7.5,1.8,10.2,6.1,10.2,10.3,0,6.9-5.9,9.5-13.1,11.5l-2.4.6c-2.2.5-4.5,1.1-6.7,1.7a21.71849,21.71849,0,0,0-2.4.7c-8,2.4-14.9,6.3-14.9,16.2s7.9,13.5,15.6,15.9c0-2.8-.1-5.7-.2-8.5-3.5-1.6-5.8-3.7-5.8-7.2s2.2-5.5,5.5-7q1.05-.45,2.4-.9c1.9-.7,4.1-1.2,6.3-1.8l2.4-.6c10.8-2.6,23-6,22.9-20.5" class="cls-1"/></g></g><g id="g652"><g id="path654"><path d="M90.98122,113.1c0,4,2.9,6.1,5.8,7.8,0-.7-.1-6.8-.1-6.9a3.16033,3.16033,0,0,1,2.2-2.4,37.98274,37.98274,0,0,1,4.7-1.8c.9-.3,1.6-.6,2.4-.8,5.9-1.8,12.7-4,12.7-11.2s-5.8-10.1-12.2-12.3c-.1,2.3-.1,5.6-.2,7.9,2.7,1,4.5,2.3,4.5,4.4,0,2.6-2.7,4-4.7,4.8-.8.3-2,.7-2.4.8-1.6.5-3.2,1-4.8,1.6a24.42542,24.42542,0,0,0-2.4,1c-2.6,1.4-5.5,3.5-5.5,7.1" class="cls-1"/></g></g><g id="g656"><g id="path658"><path d="M94.98122,26.3a48.1166,48.1166,0,0,0-7.1,2.9c-2.5.8-6.1,1-9.8,5-1.2,1.4-2.3,2.9-3.4,4.4-1.1,1.6-1.2,4.2-2,5.5a4.64732,4.64732,0,0,0-.9,3.2h0a6.00246,6.00246,0,0,1-1.3,2.5,5.19794,5.19794,0,0,1-4.8,1.8c1.7.8,4-.3,4-.3a20.2457,20.2457,0,0,0-.9,3.3c1.9-4.3,3.6-5.8,4.2-6.3.8.2,2.5.1,5.6-1.7,3.5-2,8.8-5.3,10.3-7.4a13.73253,13.73253,0,0,1,6.2-4.7c0-3-.1-5.8-.1-8.2m-14.8,13.3-1.8.4,2.2-3.6,2.5.1-2.9,3.1" class="cls-1"/></g></g><g id="g660"><g id="path662"><path d="M102.28122,112.6c-.3.1-1.2.5-1.8.7s-1.3.5-1.3.7c0,0,.6,30.8.6,31.4,0,6.3,3.2,6.4,3.2,0,0-.4.7-33.3.7-33.3s-.9.3-1.4.5" class="cls-1"/></g></g><g id="g664"><g id="path666"><path d="M98.88122,102.4c1-.3,2-.7,2.9-.9.7-.2,1.3-.4,2-.6,0-1.9.6-28.7.7-33.5a63.20294,63.20294,0,0,0-6.2,1.8c.1,3.6.6,30.3.6,33.2" class="cls-1"/></g></g><g id="g668"><g id="path670"><path d="M101.58122.1c-9,0-5.2,13.4-4.5,17.8,0,.2.7,30.3.9,37.2,1.4-.4,2.7-.7,4.1-1l2.7-.7c.1-6.7.8-35.4.8-35.6.6-4.6,5.3-17.7-4-17.7" class="cls-1"/></g></g></g></g><path d="M215.5082 208.07266a8.10379 8.10379 0 0 0-4.80078-5.92383 11.78538 11.78538 0 0 0-4.74512-.92676 10.31116 10.31116 0 0 0-8.21191 3.76856q-3.21533 3.7705-3.21484 11.335 0 7.623 3.48144 10.78808a11.44093 11.44093 0 0 0 7.91748 3.167 10.26528 10.26528 0 0 0 7.13135-2.49707 10.7744 10.7744 0 0 0 3.42481-6.54394h-9.57374V214.3334h17.23877v22.208h-5.72753l-.87061-5.166a19.78454 19.78454 0 0 1-4.4917 4.13672 15.8585 15.8585 0 0 1-8.42285 2.0957 17.5055 17.5055 0 0 1-13.47656-5.69531q-5.47486-5.72314-5.4751-15.65625 0-10.04443 5.53125-16.10547 5.53052-6.06006 14.62744-6.06055 7.88892 0 12.67627 4.001a14.876 14.876 0 0 1 5.48877 9.98145zM257.28555 232.79727q-3.87452 4.7827-11.76416 4.7832-7.88966 0-11.76368-4.7832a18.98651 18.98651 0 0 1 0-22.98829q3.87452-4.853 11.76368-4.85351 7.88964 0 11.76416 4.85351a18.98651 18.98651 0 0 1 0 22.98829zm-6.40137-4.42188q1.88013-2.49609 1.88086-7.09375 0-4.59668-1.88086-7.07812a7.11132 7.11132 0 0 0-10.79541 0q-1.89477 2.48-1.895 7.07812 0 4.59962 1.895 7.09375a7.086 7.086 0 0 0 10.79541 0zM266.747 228.14688h8.50684v8.39453H266.747zM307.75723 196.05605a13.67524 13.67524 0 0 1 7.05273 5.25 18.4127 18.4127 0 0 1 2.9502 6.68165 32.0676 32.0676 0 0 1 .78711 6.85058 27.49562 27.49562 0 0 1-3.31543 13.98242q-4.49707 7.72119-13.88086 7.72071H283.5082V195.15762H301.351A21.77438 21.77438 0 0 1 307.75723 196.05605zm-15.8545 6.28907v27.00879h7.98633q6.13038 0 8.54883-6.03614a21.26888 21.26888 0 0 0 1.32129-7.88964q0-6.31641-1.98242-9.7002-1.98194-3.38232-7.8877-3.38281zM336.5082 217.92715a12.6091 12.6091 0 0 0 3.19532-.70215 2.40694 2.40694 0 0 0 1.72558-2.27441 2.69006 2.69006 0 0 0-1.32324-2.59668 8.36446 8.36446 0 0 0-3.88477-.71582q-2.874 0-4.07031 1.40332a5.793 5.793 0 0 0-1.13769 2.80761h-7.72168a11.70966 11.70966 0 0 1 2.25586-6.59765q3.186-4.043 10.9414-4.043a19.52043 19.52043 0 0 1 8.9668 1.99316q3.91845 1.99512 3.91894 7.52442v14.03808q0 1.46046.05664 3.53809a4.448 4.448 0 0 0 .47657 2.13379 2.8679 2.8679 0 0 0 1.17968.92676v1.17871h-8.7041a8.91515 8.91515 0 0 1-.50488-1.74024q-.14062-.81446-.22461-1.85351a16.54621 16.54621 0 0 1-3.84082 3.06054 11.61525 11.61525 0 0 1-5.874 1.48731 10.13212 10.13212 0 0 1-6.9043-2.37207 8.43343 8.43343 0 0 1-2.72559-6.72364q0-5.644 4.38379-8.17089a19.59434 19.59434 0 0 1 7.07129-1.96485zm4.89258 3.73437a8.859 8.859 0 0 1-1.55176.77149 13.16069 13.16069 0 0 1-2.14843.54785l-1.82129.33691a11.96969 11.96969 0 0 0-3.67774 1.09473 3.65432 3.65432 0 0 0-1.89062 3.39746 3.55025 3.55025 0 0 0 1.15429 2.96192 4.38868 4.38868 0 0 0 2.8086.9121 8.36432 8.36432 0 0 0 4.832-1.51562q2.209-1.51611 2.29492-5.53125zM353.22109 211.91836v-5.69922h4.26758V197.684h7.917v8.53516h4.96973v5.69922h-4.96973v16.17187a3.64008 3.64008 0 0 0 .47754 2.34473q.47754.46289 2.91993.46289c.24316 0 .5-.0039.77148-.01367s.53809-.02344.80078-.042v5.97949l-3.79.14062q-5.67187.19629-7.749-1.96484a5.85061 5.85061 0 0 1-1.34766-4.23926V211.91836zM387.63418 217.92715a12.60889 12.60889 0 0 0 3.19531-.70215 2.407 2.407 0 0 0 1.72559-2.27441 2.69008 2.69008 0 0 0-1.32324-2.59668 8.36451 8.36451 0 0 0-3.88477-.71582q-2.874 0-4.07031 1.40332a5.793 5.793 0 0 0-1.1377 2.80761h-7.72168a11.70981 11.70981 0 0 1 2.25586-6.59765q3.186-4.043 10.94141-4.043a19.52046 19.52046 0 0 1 8.9668 1.99316q3.91845 1.99512 3.91894 7.52442v14.03808q0 1.46046.05664 3.53809a4.44814 4.44814 0 0 0 .47656 2.13379 2.86793 2.86793 0 0 0 1.17969.92676v1.17871h-8.7041a8.91515 8.91515 0 0 1-.50488-1.74024q-.14062-.81446-.22461-1.85351a16.54621 16.54621 0 0 1-3.84082 3.06054 11.61526 11.61526 0 0 1-5.874 1.48731 10.13209 10.13209 0 0 1-6.90429-2.37207 8.4334 8.4334 0 0 1-2.72559-6.72364q0-5.644 4.38379-8.17089a19.59434 19.59434 0 0 1 7.07129-1.96485zm4.89258 3.73437a8.85972 8.85972 0 0 1-1.55176.77149 13.16058 13.16058 0 0 1-2.14844.54785l-1.82129.33691a11.9697 11.9697 0 0 0-3.67773 1.09473 3.65433 3.65433 0 0 0-1.89063 3.39746 3.55026 3.55026 0 0 0 1.1543 2.96192 4.38866 4.38866 0 0 0 2.80859.9121 8.36437 8.36437 0 0 0 4.832-1.51562q2.209-1.51611 2.29492-5.53125z"/></svg>