<svg xmlns="http://www.w3.org/2000/svg" role="img" viewBox="-16.93 -16.43 854.36 542.86"><title>Guam (Guam Covid Alert) logo</title><defs><style>.cls-1{fill:#c62139}.cls-4{fill:#008ce7}.cls-5{fill:#ffde52}.cls-6{fill:#9c8431}.cls-8{fill:#8c4200}.cls-10{fill:#feffff}.cls-11{fill:#fefeff}</style></defs><path d="M-.077 0h821.259v440H-.077z" class="cls-1"/><path fill="#00297b" d="M19.789 19.897h781.526v401.396H19.789z"/><path d="M482.78349 215.26257v8.07557a.217.217 0 0 0-.05543.152c.01813 1.5122-.05931 3.02188-.10577 4.53266a47.679 47.679 0 0 1-.54133 5.22856 105.41668 105.41668 0 0 1-2.5 12.28333 123.9576 123.9576 0 0 1-6.16338 17.59132c-1.02819 2.365-2.11311 4.705-3.28 7.00385a164.2472 164.2472 0 0 1-11.69306 19.49326q-3.84238 5.52045-8.057 10.76-3.17706 3.94979-6.55363 7.7338c-1.79357 2.00359-3.621 3.97438-5.4649 5.932-2.29485 2.43642-4.66258 4.80014-7.06934 7.1206q-4.49423 4.33307-9.23794 8.40176-4.71969 4.05237-9.6539 7.83484a4.86169 4.86169 0 0 1-1.40708.78447h-.22432a7.20721 7.20721 0 0 1-2.28335-1.57813c-2.34773-1.90671-4.64109-3.8791-6.89681-5.89342-1.54538-1.38-3.05949-2.79543-4.58469-4.19808-3.13749-2.88541-6.141-5.90641-9.13024-8.94107-2.10921-2.14125-4.14369-4.35495-6.16974-6.57664q-3.3223-3.64314-6.49-7.41814-4.71526-5.58994-9.03456-11.49281c-2.27014-3.08518-4.43292-6.24443-6.52121-9.454q-3.485-5.35631-6.54232-10.97026-2.41478-4.43142-4.54125-9.00536c-1.50622-3.23621-2.8568-6.53837-4.07936-9.89235a111.58609 111.58609 0 0 1-3.74353-12.439 102.76183 102.76183 0 0 1-1.86082-10.18559 55.78973 55.78973 0 0 1-.46575-7.53616c-.07776-2.27809-.07369-4.555 0-6.83073a66.669 66.669 0 0 1 1.27505-12.67483 103.84853 103.84853 0 0 1 4.22154-15.7821 125.54318 125.54318 0 0 1 4.77816-11.66088 159.47126 159.47126 0 0 1 12.87975-22.36068q4.00765-5.87988 8.45368-11.44119 3.36453-4.23224 6.90761-8.31318c1.50477-1.7334 3.05192-3.43013 4.61418-5.11323 1.5758-1.69768 3.22119-3.33012 4.78607-5.03445 2.177-2.371 4.56111-4.52523 6.85044-6.77731 1.83532-1.80546 3.74735-3.53611 5.67283-5.24757 3.37722-3.00184 6.81359-5.93422 10.363-8.73247a6.10337 6.10337 0 0 1 1.54125-.99707h.22432a17.86207 17.86207 0 0 1 3.675 2.52715c3.14833 2.36909 6.19331 4.86824 9.1751 7.44548 2.13322 1.8438 4.22772 3.72858 6.30916 5.63058 3.24339 2.96378 6.33473 6.08148 9.39725 9.22545 2.25183 2.31174 4.41 4.71561 6.53739 7.14675q5.44469 6.22218 10.3544 12.86939 4.34913 5.91541 8.17907 12.18208a147.88314 147.88314 0 0 1 7.369 13.654 120.52356 120.52356 0 0 1 5.12114 12.54746 110.53334 110.53334 0 0 1 4.13531 15.34234c.50942 2.67608.94455 5.36409 1.212 8.07766.20887 2.11907.26049 4.243.26535 6.36987a1.07278 1.07278 0 0 0 .05266.60047z" class="cls-1"/><path d="M338.32062 216.72066c.18511-.35521.02937-.77234.20511-1.12925a14.50187 14.50187 0 0 1-.05276 2.06129c-.067 1.49-.00565 2.97793.06951 4.46584a2.17969 2.17969 0 0 1-.01645.66732c-.17763-.35686-.01728-.77517-.20541-1.13013z" class="cls-1"/><path fill="#91dafb" d="M353.87919 253.74968c-.5618-1.16072-.99465-2.37407-1.44966-3.57776a96.27571 96.27571 0 0 1-4.404-15.21238c-.53032-2.65695-.93784-5.33219-1.20476-8.02969a75.12073 75.12073 0 0 1-.38943-8.67481 80.09633 80.09633 0 0 1 .71826-9.4389 95.13957 95.13957 0 0 1 7.15694-24.96317A140.54866 140.54866 0 0 1 369.1781 157.946a201.48023 201.48023 0 0 1 19.727-23.44523A222.012 222.012 0 0 1 407.335 117.533q1.49651-1.22518 3.02883-2.40639c.54954-.42514.36332-.47746 1.02437-.00354 3.35908 2.40815 6.58681 4.98417 9.73733 7.65709a193.6925 193.6925 0 0 1 25.1654 25.59006 146.17442 146.17442 0 0 1 17.605 26.98828 107.25354 107.25354 0 0 1 8.62712 23.68758 93.56557 93.56557 0 0 1 1.76075 10.15078 86.49867 86.49867 0 0 1 .00081 20.13314 94.76155 94.76155 0 0 1-2.15519 11.84118c-.03129.1262-.07781.2486-.11723.37277a3.46924 3.46924 0 0 1-2.03587 1.29643 37.76933 37.76933 0 0 1-7.92494 1.9421c-1.99074.31008-3.99014.55593-5.99461.74988q-2.4214.23428-4.852.37452-4.10609.244-8.21711.36652c-1.08122.03392-2.163.05626-3.24466.07983-3.26718.0712-6.535.18462-9.80252.10351-2.83785-.07044-5.676-.07451-8.51319-.13023-1.06116-.02084-2.1249-.07287-3.18821-.08734a3.14053 3.14053 0 0 1-.77227-.12477c-.47915-.28769-.55887-.82341-.76032-1.27208a47.33214 47.33214 0 0 1-3.05351-8.41046 71.17609 71.17609 0 0 1-1.34317-8.16583c-.26294-2.24066-.46086-4.48719-.62325-6.73525-.10872-1.50484-.19164-3.01384-.2589-4.52243q-.15578-3.49341-.2587-6.98872c-.03349-1.11812-.046-2.23721-.07958-3.3555-.22651-7.54316-.10781-15.08833-.08648-22.63213.00765-2.70462.06678-5.41179.09359-8.118.007-.70845.12292-.83132.76578-.91775a2.55972 2.55972 0 0 0 1.03824.1291c.4745-.07346.67857.14731.687.64428q.01894 1.12129-.00052 2.24293c-.0075.40455.144.59722.55747.56328a3.05378 3.05378 0 0 1 .33629.00219c.71527.02062.88475.19072.9021.90641.00408.16818.01024.33709-.00181.50453-.02153.29934.03514.49695.40492.51771.435.02442.59133.32621.60328.7338a4.05806 4.05806 0 0 1-.331 1.57991c-.126.32818-.08109.46219.31265.47513.95678.03146 1.01257.122 1.16291 1.04934a9.97991 9.97991 0 0 1-.00392 2.79036 2.42036 2.42036 0 0 0 .7764-.44409c.60671-.36887.965-.20284.99194.5116.03733.98981.006 1.98116.01482 2.97178a1.24964 1.24964 0 0 0 .05831.60713c.17239.04473.27344-.08908.39694-.15692.54858-.30134.90659-.12982.8659.49038-.05132.78223-.06114 1.5665-.12785 2.34636-.03129.3658.10778.4774.42916.476.056-.00025.11214.00206.16818.00361a2.3739 2.3739 0 0 1 2.50945 2.47407 6.14641 6.14641 0 0 1 .06831.81029c-.1169-1.28756-.2201-2.65848-.39585-4.0208-.13558-1.05093-.0963-1.16923.90864-1.55569a7.31153 7.31153 0 0 1-1.36777-2.096 5.24716 5.24716 0 0 1-.33553-1.06683.78723.78723 0 0 1 .64042-1.05292c.60414-.1974.60379-.197.14381-.66195-.30232-.30556-.62729-.59044-.90109-.92209-.44124-.5345-.32244-.907.34009-1.11941a3.46708 3.46708 0 0 1 .38023-.09423c.17943-.03593.41023-.046.44161-.27059a.55529.55529 0 0 0-.26619-.46857c-.40311-.33376-.84747-.61222-1.26124-.93221a2.98212 2.98212 0 0 1-.46028-.40823c-.40258-.472-.28364-.87528.31144-1.04652.21434-.06169.43569-.0988.71671-.15322a12.31848 12.31848 0 0 0-1.74227-.94509 4.63341 4.63341 0 0 1-1.29844-.86749c-.45911-.48387-.41268-.88624.14789-1.23646a5.92213 5.92213 0 0 1 .85951-.4087c.157-.06593.42738-.04281.4211-.28917-.00532-.209-.23971-.26673-.39922-.35348a7.65777 7.65777 0 0 0-1.13528-.47662 8.9072 8.9072 0 0 1-1.57166-.73489c-.69072-.40659-.68736-.83368-.01-1.24813.69029-.42236.68319-.41394.05815-.94006a12.5949 12.5949 0 0 1-1.49073-1.35632c-.18888-.21914-.369-.4613-.20091-.75509a.64884.64884 0 0 1 .79417-.2434 6.32535 6.32535 0 0 1 1.79365.77082c.50284.29529.58093.24263.6004-.34793a3.63393 3.63393 0 0 1 .01493-.392.65541.65541 0 0 1 .97409-.569 2.29949 2.29949 0 0 1 .76471.558c.59742.59214 1.18245 1.19678 1.7892 1.7794.10123.09721.19674.2599.37314.17478.13739-.06631.11052-.22443.128-.35061.05647-.4072.14652-.80806.23375-1.209.07693-.3536.17764-.7277.60114-.78979.409-.06.65318.23651.83955.548a9.94107 9.94107 0 0 1 .69019 1.28115 7.19207 7.19207 0 0 0 .75531 1.43554c.05369.07541.105.16962.214.14306.11035-.02688.11811-.13732.12384-.22784a4.66756 4.66756 0 0 1 .1222-.83018c.09347-.37771.11353-.864.58977-.915.50873-.05451.62755.43606.79787.80562.19578.42481.31993.87737.50985 1.30447a2.16993 2.16993 0 0 0 .10443.25955c.10318.16921.12376.47339.344.4638.24338-.01059.20536-.30827.25345-.4975.023-.09059.04347-.18155.07546-.26958.07837-.21553.16433-.4422.4338-.45266.25585-.00993.3949.18422.50854.38459a2.93236 2.93236 0 0 1 .21145.51815c.14906.44242.28108.89133.4528 1.32511.10521.26576.15054.68552.48274.66929.24455-.01194.22907-.42265.30856-.66444.02916-.08868.05556-.17839.08668-.26647.11292-.31961.20927-.68217.62821-.69178.40775-.00936.54933.34072.694.64329.19448.40664.24238.86225.40348 1.28068.05228.13578.085.32494.249.34477.2024.02448.17155-.20566.25166-.31764a.53537.53537 0 0 0 .03654-.10546c.12938-.30324.19331-.72141.61412-.70148.47467.02247.5225.46977.60789.82826.147.61706.23084 1.24857.40579 1.85912.05409.18879.02759.46113.2616.52292.2516.06642.31487-.21187.448-.35428.051-.05452.09334-.1167.13984-.17518.1815-.22826.39061-.42757.71006-.34162.33462.09.436.37616.50217.68077.12713.58534.08956 1.19091.22295 1.77551a2.46466 2.46466 0 0 0 .07085.32793c.14161.377.29.40856.54034.11235.06032-.07136.09866-.1584.15336-.23436.16756-.23264.34587-.46488.67279-.42248.3247.0421.44965.31324.55379.57537.25519.64232.42491 1.31566.68889 1.95461.25108.60776.37129.62387.764.121.19768-.2531.3839-.55014.75225-.49526.38814.05784.5073.40843.62547.72451.26187.70048.41472 1.43455.67716 2.13993a20.03953 20.03953 0 0 0-1.20958-8.41382 9.132 9.132 0 0 0-2.66108-3.41427 31.39758 31.39758 0 0 0-15.66192-6.96652c-1.06768-.18233-2.15307-.202-3.22489-.34707a1.14328 1.14328 0 0 1-.38167-.07987c-.08532-.04343-.1765-.095-.19114-.19065-.0198-.12926.083-.20231.183-.25334a3.26081 3.26081 0 0 1 .74892-.22625 14.76385 14.76385 0 0 0 1.65459-.52418 1.04486 1.04486 0 0 0 .66351-.47875 2.0518 2.0518 0 0 1 2.28545-1.03348c1.068.08882 1.06473.1282 1.0769-.921.01089-.9384.29965-1.15031 1.22465-.92688a14.80776 14.80776 0 0 1 1.96689.86343 3.4108 3.4108 0 0 0-.16443-.8385c-.07668-.58992.15351-.81667.68577-.58953a19.39835 19.39835 0 0 1 3.13139 1.43848 3.35505 3.35505 0 0 0-.11313-.78112c-.04162-.59383.18983-.79769.771-.63087a3.30908 3.30908 0 0 1 1.41221.88043 1.5925 1.5925 0 0 0 .36466.32158 3.817 3.817 0 0 0 .03453-.66634c.04114-.60912.31821-.818.8874-.6106a5.90439 5.90439 0 0 1 1.71094.94245.57842.57842 0 0 0 .26966.17176c.16739-.14717.14208-.35231.20475-.52364a.67641.67641 0 0 1 1.06105-.42688 3.43417 3.43417 0 0 1 1.085.95818 1.65771 1.65771 0 0 0 .5415.53668.11675.11675 0 0 0 .06716-.09924c.08815-1.03889.25977-1.14584 1.26795-.82135.76623.24659 1.48183.61511 2.31024.95575a7.74052 7.74052 0 0 0-2.14052-2.20339 18.26358 18.26358 0 0 0-7.2167-2.75314 32.34112 32.34112 0 0 0-7.31614-.32957 36.99451 36.99451 0 0 0-7.3425 1.13957 20.74264 20.74264 0 0 1-2.92074.50783 3.557 3.557 0 0 1-.44844.004c-.26118-.00983-.56348.01467-.67658-.28066-.11386-.29733.12416-.47372.32322-.65a7.33107 7.33107 0 0 1 1.52762-1.0339 21.25177 21.25177 0 0 1 4.44494-1.514c.23039-.05964.57623-.05112.62973-.28388.0695-.30236-.313-.35755-.50257-.514-.21619-.17835-.48073-.28819-.70523-.456-.19548-.14612-.41762-.30341-.35039-.58667.06534-.27523.32313-.35035.56525-.39093.71782-.12028 1.445-.16434 2.16758-.24654.037-.00422.07557.00218.11191-.00448.15536-.02845.385.06056.43531-.14951.04626-.19307-.17271-.26341-.3031-.35858-.24135-.17614-.48544-.34917-.718-.53636a.90957.90957 0 0 1 .25787-1.68817 5.63951 5.63951 0 0 1 2.04816-.21012c.98489-.00595 1.96722.09348 3.04014.14525a4.36894 4.36894 0 0 0-.96167-.84547 3.02544 3.02544 0 0 1-.41911-.36852c-.2644-.345-.19764-.63.20054-.80493a2.14806 2.14806 0 0 1 1.10346-.06866 27.59853 27.59853 0 0 0 2.80633.28051 11.98169 11.98169 0 0 0-1.22178-1.05327c-.20929-.18819-.48944-.34735-.44246-.66449.0522-.35235.39716-.41306.67424-.51022.80886-.28362 1.64926-.46544 2.50366-.75182-.14282-.21989-.37308-.25751-.54825-.36879-.218-.13851-.50982-.23585-.49946-.54663.01075-.32251.28489-.46878.54409-.582.6-.262 1.23274-.43371 1.85116-.645a5.08081 5.08081 0 0 1 .55488-.15546 11.06492 11.06492 0 0 0-4.26394-.03024 28.68859 28.68859 0 0 0-12.748 6.23489 17.3294 17.3294 0 0 0-3.92528 4.33991 15.06273 15.06273 0 0 0-.81946 1.59258 3.34986 3.34986 0 0 1-.13417.308c-.15066.25808-.2941.58169-.65821.49432-.33221-.07972-.33495-.40811-.3462-.693a20.76783 20.76783 0 0 1 .17908-3.18243 24.30536 24.30536 0 0 0 .03826-2.59189.19843.19843 0 0 0-.25268.04815c-.21523.178-.42625.41856-.73722.27532-.31622-.14565-.35-.46509-.34494-.77123a19.22788 19.22788 0 0 1 .2807-2.38785 10.01925 10.01925 0 0 0 .04162-1.34239c.00075-.091.01016-.20368-.08-.255-.1264-.072-.20375.04273-.282.11412-.19331.17632-.36987.3705-.56657.54326a.65216.65216 0 0 1-.65714.2194.63351.63351 0 0 1-.39778-.62552 11.80653 11.80653 0 0 1 .03069-2.23758 14.55536 14.55536 0 0 0 .15849-2.735c-.00648-.12319.03118-.29021-.13393-.33253-.11644-.02985-.19634.08774-.27621.16379-.203.19332-.389.40521-.60609.58286-.55938.45764-1.00509.33127-1.22611-.364a4.30367 4.30367 0 0 1-.20443-1.32337c.0048-.76778-.07541-1.528-.1283-2.29093-.00873-.12594.03818-.297-.09633-.35651-.17262-.07643-.25094.11363-.35822.20437a4.96775 4.96775 0 0 0-.32552.38433c-.43293.44864-.79948.37476-.9823-.221a17.60459 17.60459 0 0 1-.48035-2.35654 13.81586 13.81586 0 0 1-.12609-1.84184.44066.44066 0 0 0-.12435-.32754 11.59655 11.59655 0 0 0-.99936 1.10309c-.55128.53861-.88289.44786-1.08933-.29594-.20312-.73184-.33339-1.48334-.54411-2.22937a1.55587 1.55587 0 0 1-2.3244-.251 10.52692 10.52692 0 0 1-1.22876-1.30428.49383.49383 0 0 0-.38221-.26144 1.12315 1.12315 0 0 0 .282.58668 12.70251 12.70251 0 0 1 .95992 1.446c.31392.61321.08907 1.05247-.58555 1.20075-.26516.05828-.56478-.05166-.83637.18014a7.10757 7.10757 0 0 0 1.32928 1.09666c.50253.358.988.73688 1.46962 1.12134a2.09315 2.09315 0 0 1 .46152.48649.60586.60586 0 0 1-.34411 1.01214 3.36048 3.36048 0 0 1-1.15831.17474.53566.53566 0 0 0-.4603.104 6.338 6.338 0 0 0 1.2639.80287 6.54534 6.54534 0 0 1 1.17808.75295c.55.47266.49963.97533-.11825 1.34945-.82318.49844-.83771.66367-.07 1.28428.47908.3873.94144.79508 1.43465 1.16524a2.513 2.513 0 0 1 .513.51514.83761.83761 0 0 1-.33218 1.41667c-.14966.0782-.3105.12861-.46285.20025-.69229.32556-.71046.47331-.12974.94769.59338.48474 1.22271.92045 1.84256 1.369a8.592 8.592 0 0 1 .96275.76787.75587.75587 0 0 1-.349 1.3681c-.32733.09964-.67143.0325-1.00024.11208-.54344.13154-.62785.34151-.2446.76038a15.41651 15.41651 0 0 0 1.70046 1.45319 10.24835 10.24835 0 0 1 .9451.78976c.21024.21853.42354.46084.29326.79077-.126.31924-.43131.37689-.73882.41762-.2276.03016-.57032-.1002-.64561.18262-.07584.28484.19935.50044.41337.68051a9.01526 9.01526 0 0 1 1.6717 1.72418 1.97194 1.97194 0 0 1 .38306 1.209.62829.62829 0 0 1-.95788.615 2.965 2.965 0 0 1-.87223-.60311c-2.07735-1.96191-4.09212-3.98685-6.01587-6.09958a20.55085 20.55085 0 0 0-6.87187-5.37063 17.7646 17.7646 0 0 0-4.88223-1.38658.23176.23176 0 0 0-.27248.11661c.43276.415.8649.84617 1.29545 1.27887a3.05294 3.05294 0 0 1 .50739.59618c.25454.43727.20678.7466-.23946.98145-.4717.24824-.25355.3743.0402.52407.56582.28848 1.12882.58231 1.71.8401.64847.28765.71179.47292.40939 1.12494-.24625.531-.20872.62018.35987.77766.5577.15447 1.1217.28655 1.67331.46264.21478.06856.4486.14176.49153.40191.03918.23746-.15127.35879-.31286.49-.5388.43755-.52989.47972.09677.81243.36429.19342.75.33558 1.12863.49492.25661.108.60763.17275.614.49516.00738.37574-.39372.38921-.65359.50818a1.044 1.044 0 0 0-.49074.27206 11.83154 11.83154 0 0 0 1.72.88379c.44257.19958.90022.36688 1.33527.58235.59506.29471.63622.58295.17591 1.07588-.53724.57532-.52958.588.249.81521.57376.16744 1.15722.29842 1.72907.471.19467.05874.42015.1369.425.38512.00474.24042-.20752.33684-.39447.42529a10.19228 10.19228 0 0 0-1.03155.4066 5.38215 5.38215 0 0 0 1.37032.74015 6.05193 6.05193 0 0 1 1.1937.72453 1.69643 1.69643 0 0 1 .46516.55508.8238.8238 0 0 1 .01091.94981.73747.73747 0 0 1-.873.18332c-.826-.24028-1.61718-.579-2.42245-.87717a35.12043 35.12043 0 0 0-8.31362-1.96445 42.02156 42.02156 0 0 0-6.04118-.18289 24.77364 24.77364 0 0 0-10.29326 2.56935 33.92858 33.92858 0 0 0-9.69792 7.12613 14.79457 14.79457 0 0 0-1.19895 1.46786 14.36709 14.36709 0 0 1 2.84311-1.66411c.78456-.32605 1.12794-.11153 1.3037.73087.06455.3094.07155.62724.14768.98032a7.5352 7.5352 0 0 0 1.50154-1.08777c.53255-.40936 1.03475-.858 1.55743-1.27989.57085-.46081.81133-.35723.9579.36261a3.72375 3.72375 0 0 1 .07994.49719.739.739 0 0 0 .11191.49638c.57877-.53039 1.12718-1.0822 1.71729-1.58566.45514-.38831.9146-.76952 1.39652-1.12278a.66748.66748 0 0 1 .72456-.16477c.26847.13659.30275.405.31348.67473.01628.40948-.012.81968.016 1.31176.63952-.67379 1.21965-1.31687 1.79406-1.96438a5.7149 5.7149 0 0 1 .69756-.72653c.41586-.32853.73221-.20074.83713.32407a6.39472 6.39472 0 0 0 .089 1.0287 5.07145 5.07145 0 0 0 1.11783-.732c.84718-.61255 1.66087-1.27136 2.51732-1.87113.77712-.54422 1.205-.37554 1.46164.54161a3.14113 3.14113 0 0 1 .10779.60528c.047.60171.13816.646.67687.33789.77817-.445 1.54676-.90729 2.33858-1.32785.571-.3033.80053-.19033.96344.43439.07112.2727.07321.5539.12471.82981.06914.37049.24318.45334.58682.36481.86709-.22335 1.72591-.48253 2.61293-.62349a7.33823 7.33823 0 0 1 1.611-.17341 1.47694 1.47694 0 0 1 .54726.10084c.44516.20725.48758.56538.09912.85869a2.179 2.179 0 0 1-.49648.25775 36.79722 36.79722 0 0 0-9.80116 5.795 25.78245 25.78245 0 0 0-7.68105 10.24861 9.09271 9.09271 0 0 0-.50249 2.05154 8.22041 8.22041 0 0 1 1.76344-2.341 2.47665 2.47665 0 0 1 .53478-.404.60938.60938 0 0 1 .96148.4 3.43888 3.43888 0 0 0 .18831.64564c.22263-.4512.413-.88.59695-1.31294a10.87069 10.87069 0 0 1 .87111-1.62941c.43807-.68066.78647-.66766 1.1618.03215.04158.07753.04714.18314.1929.22053a15.96617 15.96617 0 0 1 .97449-1.92941 2.73547 2.73547 0 0 1 .14644-.23862c.2175-.27019.36888-.69441.77348-.65361.429.04327.43885.49391.55442.82143.04629.1312.04868.3282.23933.3364.13841.00595.214-.13417.29277-.23832.67855-.89684 1.17834-1.90389 1.76343-2.85837.19234-.31379.35739-.74233.811-.64146.41166.09152.41447.52283.47492.873a5.98243 5.98243 0 0 1 .1224.78949c.49543-.75561.84944-1.45916 1.27735-2.1157a6.82173 6.82173 0 0 1 1.13347-1.45283c.54924-.48525 1.06643-.31587 1.23611.40178.05943.25131.08762.50994.17851.815a31.713 31.713 0 0 0 2.24089-2.834 11.11212 11.11212 0 0 1 .67-.89676c.32143-.36071.63235-.29142.79.16468a3.87719 3.87719 0 0 1 .07876 1.11331c.01941.40474-.07241.97692.26122 1.13336.34733.16286.701-.30821 1.01738-.55263.60579-.468 1.19485-.95783 1.79842-1.4288.25162-.19635.54365-.40138.86615-.18071a.766.766 0 0 1 .20966.96394 5.91715 5.91715 0 0 1-1.32473 1.78573c-.7057.86207-1.48151 1.66622-2.16883 2.538.15141.17008.31145.118.453.1355a.81647.81647 0 0 1 .76716.47226.82882.82882 0 0 1-.2653.86332 10.07271 10.07271 0 0 1-1.38106 1.22555 4.57 4.57 0 0 0-.79978.66381c-.01975.062-.00811.10009.03446.11105.30148.07761.68556.05851.79784.41985.12.38606-.21566.60518-.44256.84371-.82409.86629-1.52848 1.83182-2.29735 2.6938.01076.09411.032.12173.07066.13629.88956.33464 1.01973.59786.65693 1.47135a22.45852 22.45852 0 0 1-1.47775 2.7648c-.19676.3333-.2867.518.21644.63826.54352.12988.6965.49012.52431 1.03776a7.46062 7.46062 0 0 1-.83936 1.57832 12.26359 12.26359 0 0 0-.71157 1.269c-.22129.4889-.14733.59654.3767.62185.24263.01171.48616-.002.72884.01038a1.05362 1.05362 0 0 1 1.12964.88777 20.17866 20.17866 0 0 1 .58361 3.16082 12.40329 12.40329 0 0 1 .40619-2.143c.17972-.82027.37875-1.637.62523-2.44062.10383-.33851.1813-.72087.60239-.8033.41286-.08081.64064.23371.88334.492.06381.06789.11149.14929.22646.26721a4.937 4.937 0 0 0-.03369-.943 10.56921 10.56921 0 0 1 .05218-2.902c.05529-.283.17215-.5097.49828-.50133.27176.007.29967-.14158.2958-.35438a7.22047 7.22047 0 0 1 .09524-1.67451c.05539-.256.03988-.54657.34933-.64215.27722-.08564.44983.11755.68049.34663-.1791-.81678-.29247-1.57711-.40739-2.33724a2.91347 2.91347 0 0 1-.01053-1.00334.51469.51469 0 0 1 .36253-.4572c.23543-.05673.38605.09794.51233.2678a3.54007 3.54007 0 0 1 .3181.58205 9.51337 9.51337 0 0 1 .07093-1.77844c.16653-.72036.50671-.82029 1.03938-.31848a3.19587 3.19587 0 0 0 .40366.38035 6.32419 6.32419 0 0 0 .16527-1.39979 16.90289 16.90289 0 0 1 .12432-2.23469.66618.66618 0 0 1 .31562-.61821c.28138-.13381.49817.04715.70744.20928a3.63874 3.63874 0 0 0 .63663.536 18.28226 18.28226 0 0 0-.24147-2.005c-.00575-.11024-.05066-.21837-.056-.33091-.01271-.26552-.02578-.54308.24128-.69949a.68579.68579 0 0 1 .74188.09011c.28125.18071.54425.3907.83177.56691.015.01316.02593.02926.04063.04026 1.24285.92972 1.17215 2.22976.9985 3.55611a4.27538 4.27538 0 0 0-.04012.61415c.07443 5.45329-.12 10.90448-.14013 16.35738-.011 2.96687-.08851 5.93534-.0844 8.90356.0038 2.744.10669 5.4866.13729 8.23061.022 1.97381.09387 3.95278.21221 5.925.26457 4.40946.552 8.81749 1.20677 13.19309a50.65084 50.65084 0 0 0 3.17165 11.87256 1.64152 1.64152 0 0 1 .19121.75215.544.544 0 0 1-.6458.40492c-1.09573-.06875-2.19353-.08349-3.289-.143-.29439-.016-.59057-.06635-.88839-.06588-1.3589.00209-2.71423-.08129-4.06589-.20576-.52842-.04866-.6698.28743-.81988.661-.66648 1.65886-1.2843 3.3372-1.97184 4.9873a9.41291 9.41291 0 0 1-1.16512 2.58133c-.28313.23828-.61782.10859-.93117.13147-.3184-.057-.42962-.333-.58324-.56087q-2.03274-3.01587-4.33649-5.83a44.48371 44.48371 0 0 0-3.82776-4.15243 34.16958 34.16958 0 0 0-9.02514-6.33786 9.61336 9.61336 0 0 0-.98824-.39013c-.29779-.09956-.45316.00826-.40608.31086.25542 1.64177.25664 3.3031.39369 4.95381a14.40407 14.40407 0 0 1 .01 2.127 54.6309 54.6309 0 0 1-.55284 5.9485c-.20693 1.17489-.44745 2.34279-.74084 3.499-.06854.2701-.15044.565-.54428.50557a12.20245 12.20245 0 0 0-1.28927-.03337q-10.62078-.00162-21.24157-.00413c-.38406-.0003-.79428.07984-1.11848-.23062z"/><path d="M398.10249 253.84273c.27346-.21495.59667-.05546.89035-.11831a1.3266 1.3266 0 0 1 .95071-.241c1.92355-.08045 3.84031.13537 5.76343.11917 3.00634-.02533 6.013-.00731 9.0196-.006a3.95545 3.95545 0 0 1 1.00149.06818c.47751.01269.64479.39928.84411.728 1.38423 2.28295 2.89307 4.48421 4.37728 6.70168 1.96142 2.93048 4.02438 5.792 5.96027 8.73942a23.53 23.53 0 0 1 3.23008 6.73595c.087.32144.21118.65259-.064.954-.446.36823-1.00792.26273-1.50758.30748a74.19347 74.19347 0 0 1-7.48556.36982 30.48339 30.48339 0 0 1-6.6021-.72785 11.41465 11.41465 0 0 0-3.78524-.25653 4.49616 4.49616 0 0 0-3.30638 1.875 1.01393 1.01393 0 0 0 .14983 1.50331 3.37365 3.37365 0 0 0 1.43519.84275 17.15423 17.15423 0 0 0 4.05756.77414c2.86878.246 5.7452.16628 8.618.23988a15.25072 15.25072 0 0 1 5.33285.86175 11.98257 11.98257 0 0 1 5.76081 4.4448 4.67994 4.67994 0 0 1 .81112 2.18292 3.63916 3.63916 0 0 1-1.79246 3.49283 12.18926 12.18926 0 0 1-4.47689 1.68375c-2.38592.52583-4.7737 1.04762-7.19164 1.408-1.8428.27468-3.68549.53618-5.55026.65652-1.15846.07476-2.31328.05148-3.46917.08933a17.87122 17.87122 0 0 1-3.39988-.25079 10.42588 10.42588 0 0 0-4.15106.35984 42.296 42.296 0 0 0-5.09938 2.01519 10.259 10.259 0 0 1-3.42761.7598 9.26219 9.26219 0 0 0-4.982 1.63716c-.63937.42161-1.27575.84773-1.91363 1.27158a.91482.91482 0 0 1-.73.20836c-1.09061-1.09495-2.11-2.25589-3.1452-3.402q-2.56429-2.839-5.01369-5.778c-.10677-.12761-.19744-.26868-.29561-.40349-.01079-.33707.25409-.48632.46884-.65377a17.8157 17.8157 0 0 1 5.94508-3.05466 36.07831 36.07831 0 0 1 6.88348-1.16079 20.81789 20.81789 0 0 1 2.50537-.2209 41.42239 41.42239 0 0 1 6.483.8366c2.36489.43909 4.7177.95313 7.1049 1.25658a10.4605 10.4605 0 0 0 4.59446-.28073c.45064-.14584.99488-.26306 1.06526-.8585.06988-.59113-.32546-.95706-.75577-1.28594a12.20163 12.20163 0 0 0-4.77475-1.98157 31.919 31.919 0 0 0-5.99-.703 17.7073 17.7073 0 0 1-5.73421-1.41783 63.00471 63.00471 0 0 0-5.90846-2.26025 13.92466 13.92466 0 0 0-3.8648-.55646 34.3245 34.3245 0 0 1-6.68893-.464 16.39044 16.39044 0 0 1-4.43923-1.51286 22.93078 22.93078 0 0 0-6.10259-2.32873c-.9719-.19-1.95445-.28761-2.93516-.40153a1.40709 1.40709 0 0 1-.7285-.24334c-.48517-.61779-.87718-1.29768-1.2972-1.95835a136.48094 136.48094 0 0 1-10.65886-20.11309 2.10866 2.10866 0 0 1-.20854-.57662c.20544-.00533.41087-.01532.61631-.01533q11.272-.00122 22.54395-.00037c.14946 0 .29892.00685.44837.00661.147-.00022.18054.10257.20522.216.22427.23382.1128.49056.0393.73616a28.35174 28.35174 0 0 1-3.41114 7.52216c-.30367.462-.61782.91735-.97293 1.43656a4.89422 4.89422 0 0 0 1.34719.03413c1.82716-.20078 3.66005-.0203 5.48666-.10812 1.97828-.09511 3.95615-.113 5.93526-.1.31166.002.64686-.04752.87994.24934a2.71155 2.71155 0 0 1 .01149 1.7499.73416.73416 0 0 1-.69644.26974c-2.31776.00886-4.63793.07329-6.95255-.02044-1.95692-.07925-3.91737-.06775-5.871-.20923-1.30191-.0943-2.605-.16026-3.90791-.23338-.154-.00863-.34941-.1576-.45225.05187-.08193.16684.05815.32147.1421.46151a5.13623 5.13623 0 0 0 1.95027 1.804 14.75407 14.75407 0 0 0 5.44453 1.60089c.628.08537 1.26381.09195 1.88776.2212a.87551.87551 0 0 1 .71207.62787 3.237 3.237 0 0 1 .08508 1.49715.68537.68537 0 0 1-.71556.58732 4.81386 4.81386 0 0 0-1.041.06983c.09431.2658.32021.3586.523.4642a12.51767 12.51767 0 0 0 3.97094 1.12028 38.20659 38.20659 0 0 0 5.46744.35783 43.57656 43.57656 0 0 0 7.078-.35539 11.75014 11.75014 0 0 0 3.79913-1.10856 2.23269 2.23269 0 0 0 .90044-.70132 10.74363 10.74363 0 0 1-1.33853.044c-.92132-.03777-1.27957-.47582-1.13974-1.37266a5.46234 5.46234 0 0 1 .25129-.85839 1.25107 1.25107 0 0 1 1.16479-.8144 29.19351 29.19351 0 0 0 4.37844-.91635 5.725 5.725 0 0 0 3.52519-2.39826 1.86306 1.86306 0 0 0 .30391-1.00417c-.01215-.46019-.18417-.62013-.6361-.53266-1.33694.25876-2.67878.48368-4.029.661-1.62626.21359-3.25566.39277-4.89151.51845-1.84033.14137-3.68148.26579-5.52618.32577-.34384.0112-.72026.08446-1.00767-.21422a3.31365 3.31365 0 0 1-.09657-1.80965.58074.58074 0 0 1 .48374-.23542c.09332-.00554.1867-.01191.28013-.01081 2.78335.03241 5.56323-.20125 8.347-.112.63788.02047 1.26541-.088 1.89834-.10325.374-.009.44593-.11748.32488-.46918-.4682-1.36042-.98264-2.70274-1.51758-4.03789-.56328-1.40591-1.20551-2.77481-1.89987-4.12-.11077-.21461-.25731-.42369-.10536-.67922z" class="cls-4"/><path d="M387.37023 303.2729c1.01083-.70517 2.01765-1.41617 3.07826-2.04666a8.81618 8.81618 0 0 1 4.40127-1.30751 10.66867 10.66867 0 0 0 3.90218-.92631c1.04993-.44015 2.086-.914 3.14065-1.34212a13.24883 13.24883 0 0 1 4.52233-.96695 8.273 8.273 0 0 1 1.44825.1127 34.03419 34.03419 0 0 0 7.93721.03527 96.257 96.257 0 0 0 12.72257-2.27263 10.35172 10.35172 0 0 0 2.15619-.77654 6.37793 6.37793 0 0 0 1.36705-.87 3.32127 3.32127 0 0 0 1.00375-4.0363 7.25746 7.25746 0 0 0-1.83373-2.58584 12.26008 12.26008 0 0 0-7.32059-3.41886c-1.71379-.17317-3.42908-.20925-5.14764-.21911-1.98-.01136-3.96-.02567-5.93428-.20092a17.11182 17.11182 0 0 1-3.62632-.67534 5.77271 5.77271 0 0 1-1.37812-.61156 1.50436 1.50436 0 0 1-.3193-2.63343 5.4321 5.4321 0 0 1 3.92585-1.63831 15.64419 15.64419 0 0 1 3.60819.4287 32.8939 32.8939 0 0 0 8.41386.58666q2.99757-.08543 5.97979-.40587c.22265-.02365.444-.06.66587-.09044.32531.01224.34537.29148.42564.50414.20407.54061.35808 1.09859.572 1.63655a6.31618 6.31618 0 0 0 3.84166 3.66416 8.85315 8.85315 0 0 0 6.75039.238 6.93569 6.93569 0 0 0 3.11-2.19882 3.25158 3.25158 0 0 0-.27546-4.38315 18.548 18.548 0 0 0-2.38577-2.10885c-.256-.19157-.6021-.3489-.53683-.77586a1.96192 1.96192 0 0 1 .97656-.61637 8.199 8.199 0 0 1 3.12237-.55909 13.69952 13.69952 0 0 0 8.15387-3.3077c1.0713-.87134 2.1-1.79254 3.18306-2.65117a6.8767 6.8767 0 0 1 5.19456-1.4602c.20665.02141.41773.03.49863.27623-.43669 1.01388-.99438 1.96553-1.5247 2.93014a161.47176 161.47176 0 0 1-19.884 28.15 202.177 202.177 0 0 1-25.81825 24.85146q-2.05264 1.65225-4.17547 3.21432c-.45445.33318-.45851.33429-.89754-.0145-3.55772-2.82637-6.97812-5.81264-10.32279-8.88631q-6.44283-5.92075-12.43018-12.30241c-.1018-.10856-.19427-.22592-.29104-.3392z" class="cls-5"/><path d="M462.71419 265.66948c-.69066-.022-1.3813-.06062-2.072-.06178a4.87328 4.87328 0 0 0-2.428.77016 16.04082 16.04082 0 0 0-2.388 1.75956c-.79792.6767-1.57555 1.37712-2.40589 2.01569a13.793 13.793 0 0 1-8.19151 2.94137 7.64865 7.64865 0 0 0-3.57636.9942c-.24308.116-.439-.01541-.62246-.13806-2.08137-1.39167-4.31073-2.54211-6.38877-3.94114a23.45944 23.45944 0 0 1-4.23975-3.81229 74.74385 74.74385 0 0 1-6.824-8.942c-.58786-.88735-1.16178-1.78474-1.7028-2.70156-.17464-.296-.4145-.63766.07041-.90316a4.98191 4.98191 0 0 1 1.06292-.05358c5.02827-.00216 10.05817-.08361 15.08446.01628 9.606.19094 19.2117.02421 28.8171.10346.378.0031.84615-.17558 1.09637.31917-.5741 1.59553-1.25243 3.14841-1.93317 4.69986q-1.44843 3.30093-3.102 6.50463c-.07626.14783-.17062.28634-.25655.42919z" class="cls-4"/><path d="M468.00592 254.03578a11.06178 11.06178 0 0 0-1.73085-.0565q-10.81755-.02486-21.6351-.04138-11.01306-.03017-22.02606-.08034c-.28024-.001-.56048.00274-.84073.00427-.33415.04933-.44935-.2156-.57847-.42817-1.34167-2.20893-2.51629-4.50753-3.64277-6.83135-.09426-.19445-.2095-.40675-.03381-.62455q5.23857.09488 10.47717.18873c3.11937.05237 6.23862.04158 9.35812-.01272 2.46532-.04292 4.9308-.07694 7.39466-.17311 3.45223-.13474 6.90143-.31655 10.34364-.62743 2.95748-.26713 5.90473-.60441 8.82431-1.15174a29.81221 29.81221 0 0 0 6.66421-1.89463c.49671-.22022.95989-.4993 1.43208-.763-.29818 1.42328-.71965 2.81387-1.13349 4.2052-.8186 2.75222-1.7646 5.46187-2.7904 8.14361a1.02256 1.02256 0 0 1-.08251.14311z" class="cls-6"/><path d="M366.04378 276.39774a19.00544 19.00544 0 0 1 8.61537 2.1349 21.30123 21.30123 0 0 0 5.42619 2.06186 26.39525 26.39525 0 0 0 4.67312.4866c1.0827.03628 2.168.01477 3.24916.07315a15.88092 15.88092 0 0 1 4.7211 1.12376c1.6952.63641 3.33944 1.4 5.04533 2.01039a18.62579 18.62579 0 0 0 5.74572 1.10717 23.10812 23.10812 0 0 1 7.35171 1.34174 10.00889 10.00889 0 0 1 2.15167 1.069 3.87458 3.87458 0 0 1 .91812.8152 1.07447 1.07447 0 0 1-.3679 1.80633 5.69865 5.69865 0 0 1-2.15508.55111 19.53816 19.53816 0 0 1-5.51136-.40295c-2.44535-.426-4.87067-.961-7.324-1.34411-1.10782-.173-2.22069-.298-3.33937-.3682a18.56169 18.56169 0 0 0-3.07105.19811c-1.67156.17243-3.33859.37787-4.98768.70951a18.68144 18.68144 0 0 0-7.95624 3.68261c-.10263.0806-.20848.15708-.31284.23551a20.84868 20.84868 0 0 1-1.44791-1.7077 186.46549 186.46549 0 0 1-11.11265-15.0551c-.11268-.17044-.20799-.35234-.31141-.52889z" class="cls-5"/><path fill="#109421" d="M405.94354 176.19215c-.30343-.18221-.597-.38433-.913-.54116-.33625-.1669-.45288-.09017-.41165.29352.06579.612.17744 1.219.26814 1.82834.044.29556.0914.59091.12314.88787.01318.12332.06391.28523-.07025.36086-.17156.09671-.26995-.07359-.37-.1687-.23014-.21874-.44332-.45522-.67029-.67743a2.58088 2.58088 0 0 0-.3445-.28317c-.09319-.06389-.16955-.02607-.21764.07991a1.36014 1.36014 0 0 0-.08286.49453c-.07032 1.1375-.13515 2.27536-.20876 3.41265a1.075 1.075 0 0 1-.15724.67127c-.44155-.3107-.72407-.78734-1.19124-1.15912a10.19955 10.19955 0 0 0-.2135 3.05919c-.2678-.08859-.3086-.32715-.40978-.50681-.16468-.29238-.29921-.60224-.4719-.88943-.08747-.14546-.21408-.14277-.27661.044a2.59079 2.59079 0 0 0-.04583 1.11116 20.3177 20.3177 0 0 0 .44869 2.53613.76552.76552 0 0 1 .02017.56459c-.34245-.12969-.46146-.44233-.65878-.67576-.07-.08279-.12637-.21447-.25419-.191-.16674.03059-.14437.19526-.16334.31685a10.05108 10.05108 0 0 0-.0517 2.23681c.03063.4534.00977.4606-.41925.28467a.49453.49453 0 0 0-.409-.07265 33.36267 33.36267 0 0 0-.01089 4.82158.90391.90391 0 0 1-.34108-.34594c-.13749-.177-.25718-.36911-.40522-.5364-.16853-.19041-.319-.48108-.61536-.41329-.27009.06177-.27146.37577-.33972.59932-.5243 1.71721-.87131 3.47623-1.22112 5.23442a.45369.45369 0 0 1-.16054.35582c-.06092-.40095-.1159-.76775-.17247-1.1343a30.18331 30.18331 0 0 0-.57345-2.96877c-.14439-.55779-.19445-.59712-.7551-.63034-.429-.02541-.85974-.022-1.28842-.0506-.389-.026-.47436-.13831-.35608-.4962a4.24424 4.24424 0 0 1 .348-.76229c.36085-.63281.74483-1.25242 1.10662-1.8847a4.20406 4.20406 0 0 0 .32543-.71153c.13481-.39055.04459-.5436-.361-.65355a2.37393 2.37393 0 0 0-.44238-.06053c-.12938-.00971-.26007-.002-.402-.002-.01134-.25022.14927-.39841.248-.56934a30.66932 30.66932 0 0 0 1.68563-3.1634c.3306-.767.23887-.91892-.59812-1.06091-.1277-.02166-.25817-.02695-.39265-.04034a27.19137 27.19137 0 0 1 3.15234-3.80015c-.42017-.32124-.92951-.13606-1.404-.26119.0568-.272.2744-.3988.452-.54516.54794-.45163 1.10954-.8867 1.65717-1.33869a3.34932 3.34932 0 0 0 .73352-.76728c.22032-.34872.13028-.55937-.27941-.635a3.10554 3.10554 0 0 0-.55869-.01914 2.71058 2.71058 0 0 1-.67564-.03036c-.07616-.2113.11443-.29652.21226-.41036q1.57146-1.8286 3.1565-3.64551a1.89438 1.89438 0 0 0 .4473-.76639.96563.96563 0 0 0-.00291-.55216c-.08067-.24722-.1922-.29708-.41293-.14714-.24671.16761-.4763.361-.709.54848-.6983.56273-1.37077 1.15869-2.11441 1.6632-.69972.47472-.79971.43089-.88454-.40843-.04881-.48284-.0685-.96881-.094-1.45375a2.82779 2.82779 0 0 0-.12424-.83894c-.236.00289-.28308.21783-.382.35464-.77725 1.07538-1.54355 2.159-2.40507 3.17-.25186.29557-.52111.57631-.84839.93647-.0535-.45117-.08836-.8101-.14073-1.16644-.0429-.29187-.03832-.66742-.35673-.76736-.33262-.10441-.51619.247-.70535.45788a13.392 13.392 0 0 0-1.59336 2.36664c-.26473.46414-.51854.93451-.81179 1.46447-.403-.72983-.22432-1.53794-.59338-2.21043-.29209.10984-.39819.35955-.52764.5748-.48131.80033-.93918 1.61491-1.42876 2.41a4.33657 4.33657 0 0 1-1.04677 1.26549c-.37358-.50406-.29058-1.16062-.64144-1.70615a10.834 10.834 0 0 0-1.864 3.43866c-.45027-.34921-.39426-.94121-.798-1.34334a22.15254 22.15254 0 0 0-2.09763 4.08577.46224.46224 0 0 1-.19665-.341c-.05272-.23687-.09356-.4764-.13805-.71507-.14433-.7744-.25617-.82164-.90482-.34325a6.32866 6.32866 0 0 0-1.533 1.7701c-.25791.4059-.49249.82662-.75846 1.276a1.17154 1.17154 0 0 1-.1019-.7919 10.07259 10.07259 0 0 1 1.09217-3.39675 27.73528 27.73528 0 0 1 7.51428-9.23325 38.3908 38.3908 0 0 1 9.454-5.52016c.17233-.072.34672-.13973.51589-.21857.13272-.06187.31261-.12093.28127-.29965-.03071-.17511-.226-.17746-.367-.20364a4.0896 4.0896 0 0 0-1.22772-.0041 24.33218 24.33218 0 0 0-3.06435.6585c-.21735.05428-.43267.11828-.652.16276-.41249.08368-.437.06387-.501-.34352-.08339-.53087-.16465-1.06207-.2574-1.66142-1.30231.62854-2.43547 1.46418-3.77684 2.06412-.03726-.3624-.06864-.65558-.09724-.949a3.259 3.259 0 0 0-.26927-1.08267c-.15516-.32971-.30782-.37345-.61089-.15929-.57973.40966-1.14483.84-1.71758 1.25958q-1.15305.8447-2.30979 1.68432a.33773.33773 0 0 1-.33274.09982c-.14732-.58462.08735-1.23425-.22326-1.91016l-3.24276 3.54426c0-.25407-.01223-.39093.00215-.52492a13.80459 13.80459 0 0 0 .04327-1.62449c-.00159-.1483.025-.334-.11476-.41335-.17194-.09761-.30485.07149-.43678.1582-.17138.11264-.33311.24083-.49349.3692-.92.73641-1.78385 1.53665-2.65129 2.333a1.36367 1.36367 0 0 1-.52649.39691l-.12806-2.08671c-1.39915 1.007-2.56136 2.20139-4.04565 3.14066-.03266-.54929-.0225-1.01-.08743-1.46382-.121-.84587-.244-.926-1.04491-.57213a18.67011 18.67011 0 0 0-2.70042 1.59193c-.2152.14215-.42684.2897-.71312.48441a1.51557 1.51557 0 0 1 .36718-.808 16.325 16.325 0 0 1 2.10393-2.39944 32.24085 32.24085 0 0 1 12.32225-7.64942 22.69064 22.69064 0 0 1 5.92918-1.10821 46.79919 46.79919 0 0 1 6.16159.02448 34.56277 34.56277 0 0 1 9.6375 2.18661q.99566.3765 1.99279.74905c.26544.099.56628.22143.76781-.05939.1891-.26349.0268-.538-.129-.777a2.50289 2.50289 0 0 0-.82221-.74831 15.006 15.006 0 0 0-1.56318-.75452 4.08987 4.08987 0 0 1-1.064-.63444c.669-.33126 1.37051-.43365 2.07519-.78871a27.12613 27.12613 0 0 1-3.34321-1.03247c.28079-.5334.81185-.78859 1.18137-1.24921a30.00512 30.00512 0 0 1-4.14621-2.0123c.59089-.32872 1.17287-.40343 1.70359-.66257-.125-.19111-.344-.1988-.52161-.26831a9.3593 9.3593 0 0 1-1.908-.93468c-.24921-.17036-.25306-.23159-.01563-.4127.29352-.2239.60378-.42586.94889-.66667a2.62694 2.62694 0 0 0-.85559-.31787c-.5726-.17-1.15671-.30273-1.72507-.48511-.4852-.15569-.49964-.23-.26389-.66856.13259-.24663.26921-.49111.40079-.73828a.5407.5407 0 0 0 .0209-.141 13.42175 13.42175 0 0 1-3.11306-1.679 5.82421 5.82421 0 0 1 .92494-.36886c.27906-.13349.31515-.20761.14513-.46922a3.79114 3.79114 0 0 0-.49346-.60678c-.43556-.43639-.88772-.85619-1.3319-1.284a2.15925 2.15925 0 0 1-.48387-.60072 2.1119 2.1119 0 0 1 .92377-.01443 17.06157 17.06157 0 0 1 10.33714 5.24181c2.20488 2.31364 4.38552 4.65058 6.68583 6.87115a13.29566 13.29566 0 0 0 1.383 1.22688c.21976.15979.467.39158.75349.20834.31489-.2014.1843-.53791.11991-.81943a2.60678 2.60678 0 0 0-.75972-1.28632c-.3878-.3784-.78843-.74362-1.18135-1.11681a2.85221 2.85221 0 0 1-.55658-.62656c-.20813-.36545-.11657-.56949.29-.63369.18343-.029.37288-.0184.55932-.03018a2.557 2.557 0 0 0 .44429-.04224c.31089-.076.36724-.22883.16851-.4782a4.9701 4.9701 0 0 0-.778-.72493c-.63731-.5193-1.30137-1.00636-1.90077-1.57132a2.65945 2.65945 0 0 1-.5465-.635c-.17733-.32446-.102-.52942.25221-.64666a3.0077 3.0077 0 0 1 .88188-.14637 2.15208 2.15208 0 0 0 .77026-.12957c.38242-.15513.45893-.43872.18209-.73865a4.63161 4.63161 0 0 0-.63024-.554c-.67293-.50412-1.35652-.994-2.03263-1.4939a4.1917 4.1917 0 0 1-.7928-.70784c-.20994-.25951-.192-.42559.09586-.59647a7.40484 7.40484 0 0 1 .86043-.40435c.92143-.39689.978-.64033.24489-1.32557-.46339-.4331-.973-.81636-1.45423-1.23093a8.42461 8.42461 0 0 1-.777-.72647c-.402-.44665-.3496-.68022.17737-.94547.2-.10068.41467-.17441.60789-.286.36216-.20913.39073-.39821.11683-.71393a3.5627 3.5627 0 0 0-.94645-.6912c-.51612-.30119-1.04013-.58911-1.55159-.89791a1.14046 1.14046 0 0 1-.57184-.68027c.39729 0 .74274-.00172 1.08816.00047a3.89292 3.89292 0 0 0 1.05352-.13548c.44353-.12129.50661-.32672.219-.67727a4.752 4.752 0 0 0-.8312-.74933c-.65553-.49628-1.31831-.98306-1.97047-1.4837a2.6837 2.6837 0 0 1-.79609-.8629c.42087-.04763.78349-.0824 1.14429-.13076.84188-.11283.95008-.31964.50024-1.036-.31756-.50568-.68009-.983-1.019-1.4754a1.71409 1.71409 0 0 1-.32282-.64753c-.0426-.23245.11253-.35843.33408-.27282a1.47444 1.47444 0 0 1 .52029.418c.40778.43731.80868.881 1.21529 1.31945a2.86287 2.86287 0 0 0 .6504.52905.93144.93144 0 0 0 1.37413-.25745c.09045-.11332.12-.27909.31078-.34812.38585 1.08439.49755 2.24231.892 3.38016.72244-.60811 1.19126-1.37807 1.88744-1.97449a22.74832 22.74832 0 0 0 .87566 5.52032 1.85423 1.85423 0 0 0 .5996-.53813c.20639-.216.39677-.44941.61847-.64806.19815-.17755.32616-.12417.38222.14417a4.06441 4.06441 0 0 1 .04524.50181c.08606 1.06114.044 2.1304.204 3.187a2.65417 2.65417 0 0 0 .20021.75492c.13485.28306.26732.32224.532.16616a2.58127 2.58127 0 0 0 .53463-.49184c.1797-.19013.35205-.38739.53574-.57351.10195-.10331.2112-.26013.37261-.19073.14791.06358.13932.25121.159.394.02539.1846.0292.37242.03759.55907a16.48708 16.48708 0 0 1-.17949 2.7374 8.708 8.708 0 0 0-.039 2.12425c.02206.17922.01764.41773.19442.497.231.10358.36167-.13336.50354-.26861.25691-.24492.49824-.50608.75118-.75528.10448-.10294.21357-.25551.37347-.204.16228.05229.152.23914.16557.38327a7.67506 7.67506 0 0 1-.02891 1.73418c-.0786.59239-.17326 1.18281-.2419 1.77629a2.48253 2.48253 0 0 0 .09155 1.2858c.47367-.15329.64805-.68746 1.18331-.85462.02577.41918.06573.79985.06944 1.18088a28.2475 28.2475 0 0 1-.21949 3.24137 12.76278 12.76278 0 0 0-.06758 2.01471 1.288 1.288 0 0 0 .06744.38258.138.138 0 0 0 .25849.039 1.46183 1.46183 0 0 0 .2301-.382 14.8067 14.8067 0 0 1 4.33282-5.83949 29.7759 29.7759 0 0 1 12.29692-6.5584 12.89318 12.89318 0 0 1 4.3304-.41679 5.32727 5.32727 0 0 1 1.72965.41179c-.03365.21067-.20108.16107-.30811.19377-.78562.24-1.5808.4506-2.3453.75521a1.80675 1.80675 0 0 0-.80425.46876 14.4602 14.4602 0 0 1 1.665.964c-1.2868.4361-2.57182.68711-3.84351 1.17226.728.68927 1.49726 1.21486 2.20547 1.79552-.10751.2492-.294.20266-.45109.20786a14.43867 14.43867 0 0 1-2.00713-.1807c-.50121-.05338-1.00353-.09975-1.50646-.13188a1.142 1.142 0 0 0-.834.231c.58983.67274 1.42565.999 2.01981 1.655a.68408.68408 0 0 1-.66844.20033c-.83979-.03631-1.67886-.09007-2.51791-.14206a9.66837 9.66837 0 0 0-1.62361.03339 2.24562 2.24562 0 0 0-1.007.3161c-.44517.289-.47291.57344-.09959.95086a7.75191 7.75191 0 0 0 .88642.68413 4.06074 4.06074 0 0 1 .55588.46711c.21766.23676.15654.405-.16425.44612-.537.06881-1.07808.10541-1.617.15943a12.47943 12.47943 0 0 0-1.76015.23965c-.062.19562.07782.25621.18.32173.3931.252.79933.484 1.18676.74422.23995.16115.624.29107.574.61587-.0448.2911-.43623.29326-.69641.36651-.79072.2226-1.59014.415-2.37787.6473a10.67345 10.67345 0 0 0-3.70589 1.80311 1.84262 1.84262 0 0 0-.60183.63419 3.70554 3.70554 0 0 0 1.47515-.03093c1.38622-.20483 2.75573-.49816 4.11965-.81787a33.03052 33.03052 0 0 1 6.60657-.81854 29.72953 29.72953 0 0 1 7.52531.55721 18.66042 18.66042 0 0 1 5.58427 2.10587 9.04107 9.04107 0 0 1 2.57776 2.21659 3.92668 3.92668 0 0 1 .65207 1.13669.64415.64415 0 0 1-.43229-.13382 17.77448 17.77448 0 0 0-2.94637-1.221c-.45373-.13356-.49169-.1063-.46652.35625.01813.333.0715.664.11188 1.02-.2849.0402-.42359-.15738-.56946-.30063-.34643-.34023-.672-.70161-1.00884-1.05172a2.92537 2.92537 0 0 0-.59913-.50353c-.42493-.25329-.54456-.21909-.6772.24742-.10095.355-.15885.72224-.23642 1.0865-.18631.037-.208-.13645-.28788-.21961a6.17881 6.17881 0 0 0-2.252-1.32552c-.21105-.08578-.27353.02916-.27306.20926.00092.355.01657.71.01234 1.06486a.84147.84147 0 0 1-.10984.58814 6.57739 6.57739 0 0 0-.72638-.84783 3.63546 3.63546 0 0 0-1.46636-.90087c-.35538-.1-.42055-.02583-.34428.34866.06334.311.13579.62019.19781.93145a.86346.86346 0 0 1-.00759.53748c-1.14042-1.01915-2.63066-1.2576-3.97008-2.038.035.73319.38242 1.31052.438 1.95528a.9451.9451 0 0 1-.58647-.24538 8.23336 8.23336 0 0 0-1.75947-.85452c-.08937-.02713-.17923-.05361-.27027-.07411-.65563-.14771-.70244-.10837-.70312.54232-.00039.37356-.00024.74807-.02582 1.1204-.03005.43743-.04109.4303-.468.36639a5.51229 5.51229 0 0 0-1.78277-.07854 1.2515 1.2515 0 0 0-1.16258.89414c-.0788.2878-.34249.38081-.57911.48705a12.95287 12.95287 0 0 1-2.13577.66774 2.33 2.33 0 0 0-.57483.20151c.88989.08132 1.784.13091 2.669.24908a31.91991 31.91991 0 0 1 16.13215 6.58942c.37871.30342.72485.64712 1.094.963a9.081 9.081 0 0 1 2.89551 4.884 22.8658 22.8658 0 0 1 .60191 7.17343c-.00857.1193.0316.26935-.1405.3519a1.06017 1.06017 0 0 1-.31-.62421c-.23726-.74754-.45056-1.5027-.69019-2.24944-.0778-.24245-.11046-.5974-.37691-.647-.31959-.0595-.41273.3159-.58314.525-.18305.22459-.29639.57379-.66111.52242-.363-.05112-.39155-.41768-.49183-.68472-.23622-.62907-.44462-1.26854-.66851-1.90232a3.21846 3.21846 0 0 0-.195-.46417c-.15922-.29353-.30209-.30839-.48737-.04048-.15894.22981-.27331.49069-.43444.71869-.27933.39524-.59136.36087-.78419-.08775a4.36155 4.36155 0 0 1-.2232-1.20771c-.04651-.37054-.07754-.743-.11885-1.11422a1.604 1.604 0 0 0-.05823-.33022c-.05078-.1519-.053-.35276-.26682-.38589-.17347-.02687-.27261.10516-.36436.22091-.12746.16078-.23534.33709-.36264.498-.15786.19956-.2661.52449-.56155.48831-.337-.04127-.35488-.40008-.41642-.66064-.16729-.70842-.29149-1.42725-.46777-2.1332-.06751-.27034-.04679-.71658-.37642-.7278-.27884-.00949-.28523.42869-.3894.67942-.093.22373-.15038.46317-.25357.68146-.10718.22673-.2134.23353-.37335.04633a2.01169 2.01169 0 0 1-.37816-.74448c-.11831-.39338-.2182-.7928-.35028-1.18136-.08908-.262-.18878-.62148-.49186-.61643-.33359.00557-.32471.40315-.41036.65507-.114.33536-.19431.682-.29757 1.02125-.04269.14025-.08139.30983-.261.32775-.17525.0175-.24939-.143-.33605-.25941a4.105 4.105 0 0 1-.54716-1.16088c-.15645-.45955-.30212-.923-.46937-1.37853a1.07254 1.07254 0 0 0-.35757-.57211c-.22451.20721-.18237.49136-.26149.72736-.07683.22918-.09921.47766-.185.7026-.13471.35321-.33316.37064-.54744.04482a4.06429 4.06429 0 0 1-.3558-.697c-.23293-.57041-.43967-1.15158-.67569-1.72065-.09716-.2343-.17784-.59907-.45138-.58113-.32987.02164-.3079.4195-.37395.676-.14314.5559-.12214 1.14334-.28923 1.71752-.31995-.03977-.45425-.27326-.59565-.48511a12.34284 12.34284 0 0 1-.762-1.43385c-.19773-.40207-.40134-.80154-.61436-1.19567a2.52011 2.52011 0 0 0-.31562-.461c-.35539-.4056-.54446-.36084-.71323.16645a9.82873 9.82873 0 0 0-.319 1.59089 2.04628 2.04628 0 0 1-.15744.69567 1.48937 1.48937 0 0 1-.816-.51122c-.54212-.54136-1.06809-1.09885-1.60282-1.64766a3.9497 3.9497 0 0 0-.72194-.61909c-.46255-.28834-.69994-.179-.73024.35664-.02411.42605-.00486.85456-.00486 1.28454a1.12614 1.12614 0 0 1-.7242-.22054 15.78249 15.78249 0 0 0-1.56029-.76065 1.8266 1.8266 0 0 0-.81728-.15928c-.25823.02392-.33.1612-.19255.37936a2.62277 2.62277 0 0 0 .3581.42808c.52582.53439 1.13075.97675 1.70508 1.45487a1.768 1.768 0 0 1 .56455.56481c-.49019.33456-1.11613.43133-1.54929.88363.11727.26834.375.36026.59306.487a12.70333 12.70333 0 0 0 1.79347.78789 6.12035 6.12035 0 0 1 1.21566.56843 1.96077 1.96077 0 0 1 .339.29046c.14445.15524.14879.2929-.08583.37441q-.44967.15624-.895.325a3.17531 3.17531 0 0 0-.79769.40344c-.31658.23808-.3181.37359-.01774.672a4.254 4.254 0 0 0 1.052.73795c.5797.30184 1.16955.58425 1.74819.88806a2.18043 2.18043 0 0 1 .81629.64382c-.43945.05218-.80375.09192-1.16687.14046a1.70532 1.70532 0 0 0-.3802.08757c-.25632.09775-.28089.19562-.09847.40967a4.087 4.087 0 0 0 .7108.63209c.31661.23184.63969.45507.95192.6926a2.14587 2.14587 0 0 1 .61129.64807c.21292.38452.15444.50724-.27456.60287-.36416.08118-.73337.14629-1.08969.2538-.26227.07913-.27938.17633-.1116.40792a6.111 6.111 0 0 0 .90038.91944 3.01692 3.01692 0 0 1 .9099 1.16761c-.36323.08325-.70052.02531-1.02013.1109-.47519.12724-.56212.22936-.443.709a5.94588 5.94588 0 0 0 1.87738 3.24235c.06807.0576.15615.1034.15042.236-.21124.17248-.4901.11723-.73838.1644-.57968.11014-.59419.10083-.51777.66409.11305.83331.1981 1.66892.27035 2.50657a18.735 18.735 0 0 1 .04376 2.12871 1.26011 1.26011 0 0 1-.17989.65923c-.05469-.52153-.04464-.97433-.13413-1.41668a4.7273 4.7273 0 0 0-.7367-1.80054 1.0762 1.0762 0 0 0-.979-.52994c-.35445.0135-.7097.00689-1.06459.00777-.40854.001-.45717-.02952-.44132-.44323.02862-.74669.08476-1.49231.12566-2.23857.01327-.24226.0239-.48534.019-.72771-.00424-.20915-.11912-.26832-.29269-.15119-.1387.09359-.262.21-.39251.31577a1.19431 1.19431 0 0 1-.52453.35346.81462.81462 0 0 1-.09677-.57049c-.00263-1.02789.01558-2.05584.01076-3.0837a2.63267 2.63267 0 0 0-.13292-1.08424c-.611.25978-1.052.76227-1.67118 1.072a5.80028 5.80028 0 0 1 .05607-1.05514 11.95393 11.95393 0 0 0-.07676-2.68369c-.03431-.29528-.15923-.41213-.46837-.40338a5.86133 5.86133 0 0 1-1.23983.01832 2.11475 2.11475 0 0 1 .25032-.686 4.55009 4.55009 0 0 0 .36643-1.74285c-.01363-.40532-.02477-.4213-.41139-.39563-.22008.01461-.439.04726-.73149.08a4.48085 4.48085 0 0 0 .1566-1.44987c-.02862-.5313-.026-.53387-.5404-.5387-.26158-.00246-.52333.0108-.7849.00792-.49848-.00551-.49572-.00838-.52556-.49066a24.27628 24.27628 0 0 1 .03978-2.57674c.00495-.11181.01219-.22352.02007-.36615-.46612-.13714-.964.00662-1.4238-.14938.03054-.36875.37346-.3795.60154-.50276a2.62835 2.62835 0 0 0 1.04572-3.77288 2.29316 2.29316 0 0 0-2.72325-.82441c-.80471.263-.818.25687-1.15067-.53111a2.13808 2.13808 0 0 0-3.58439-.79072 2.17038 2.17038 0 0 0 .08145 2.818c.10944.1272.22721.24767.34866.36322a.60049.60049 0 0 1 .03023.93467 2.754 2.754 0 0 0-.62685 2.70126c.05414.19398.14118.39585-.04863.57152z"/><path d="M405.94354 176.19215a3.17279 3.17279 0 0 1-.15531-2.34315 3.12382 3.12382 0 0 1 .68065-1.14521c.25589-.269.25085-.27977-.051-.53681a2.77711 2.77711 0 0 1-.84033-1.16763 2.28037 2.28037 0 0 1 1.90669-3.13405 2.525 2.525 0 0 1 2.48489 1.64745c.07653.205.13344.41741.209.65683.34085-.11729.62874-.29183.95617-.3705a2.51346 2.51346 0 0 1 3.14074 2.3854 2.85548 2.85548 0 0 1-2.05012 2.93057c-.08743.02928-.17.07317-.25515.11026-.61036.00552-.60911.00553-.61467.58711-.06734 7.04421-.16486 14.08815-.14364 21.13306q.02312 7.67983.26477 15.35544c.11432 3.45419.28434 6.90681.55516 10.35266A112.828 112.828 0 0 0 413.45 234.269a42.58161 42.58161 0 0 0 2.75932 8.79839c.41256.98051.82639 1.961 1.30883 2.91034.98984 2.12191 2.06293 4.20082 3.23538 6.22752a11.46513 11.46513 0 0 0 1.01979 1.65648 8.76413 8.76413 0 0 0 .84065 1.44568 83.05938 83.05938 0 0 0 7.50439 10.23426 25.98954 25.98954 0 0 0 6.91263 5.70561c1.57436.89034 3.12155 1.82829 4.62147 2.84139a30.76862 30.76862 0 0 1 2.57971 2.148 5.96969 5.96969 0 0 1 .96631 1.15711 3.28481 3.28481 0 0 1-.06648 3.7884 6.6399 6.6399 0 0 1-3.05218 2.37123 8.04594 8.04594 0 0 1-5.629.40209c-.57209-.17143-1.142-.34609-1.70278-.55232a6.41337 6.41337 0 0 1-3.97678-3.98373c-.24391-.6639-.45926-1.33829-.68765-2.00789a13.12249 13.12249 0 0 0-.95861-3.02965 30.7753 30.7753 0 0 0-2.93306-5.20855c-2.41831-3.56621-4.85681-7.11874-7.278-10.683-.96433-1.41961-1.87458-2.87464-2.76413-4.34239-.0673-.111-.14615-.215-.21964-.32234a1.15844 1.15844 0 0 1-.59287-.569 70.822 70.822 0 0 1-3.46249-6.77935 1.4417 1.4417 0 0 1-.08365-.811 47.06448 47.06448 0 0 1-3.15116-10.54423c-.61417-3.5359-.99124-7.09818-1.25269-10.67581-.35551-4.86478-.49857-9.73657-.57629-14.6124q-.088-5.52083-.034-11.041c.0477-4.96892.1283-9.93751.18947-14.90632.02507-2.03617.03-4.07261.05984-6.1087a.78966.78966 0 0 0-.3804-.79332 2.92615 2.92615 0 0 1-.70239-.79235z" class="cls-8"/><path fill="#fdf9ff" d="M386.9196 263.72183c-1.58536-.04459-3.16994.013-4.75466.04q-4.50417.07693-9.00815.16449c-.08947.00163-.17914-.00851-.36332-.01808a27.98125 27.98125 0 0 0 4.89955-9.9516 26.967 26.967 0 0 0 .662-2.82423 45.978 45.978 0 0 0 .72195-6.38814c.08286-1.593-.01173-3.17345-.07056-4.75663a23.76073 23.76073 0 0 0-.2785-2.895c-.14537-.90211-.06064-.96785.80161-.63207a26.11967 26.11967 0 0 1 5.52833 3.05728 40.6029 40.6029 0 0 1 6.26195 5.50265 56.1499 56.1499 0 0 1 4.9276 6.09631 24.57174 24.57174 0 0 1 1.5442 2.19832c.09857.1787.207.35194.31094.52764a53.88884 53.88884 0 0 1 4.00355 9.49775 2.33856 2.33856 0 0 1-.83917.09053q-5.28755.0953-10.5752.18429c-.09272.00161-.18525.01409-.27787.02151a9.81272 9.81272 0 0 1-3.37564.20208.4563.4563 0 0 1-.11861-.1171z"/><path d="M411.79109 245.6663a63.82513 63.82513 0 0 0 3.87735 7.66645c.094.16037.17481.32845.26171.4929l-12.5275-.03022q-1.87365-.00455-3.7473-.01127a1.57946 1.57946 0 0 1-.66251-.05972q1.56231-3.98467 3.1253-7.96907c.16979-.43242.17421-.43951.64837-.41647 2.60878.12675 5.21711.26324 7.82622.38248a2.28193 2.28193 0 0 0 1.19836-.05508z" class="cls-6"/><path d="M442.61577 222.48769c.20592-.57059.4058-1.1089.59492-1.651.99019-2.83814 1.96278-5.68251 2.97214-8.51379.52916-1.48434.24609-1.14321 1.75905-1.28668a8.34709 8.34709 0 0 1 1.84551.05112c.57349.07356.7009.19174.70295.78605q.00776 2.24212.00175 4.4843-.0063 5.15693-.01589 10.31384a4.20712 4.20712 0 0 1-.01428.50386.64618.64618 0 0 1-.70634.63516q-.8685.017-1.73757.00056c-.594-.01021-.77992-.22169-.81011-.819-.12835-2.539-.038-5.07995-.0745-7.61969a1.28323 1.28323 0 0 0-.1077-.60628c-.12681.34243-.2587.68309-.37963 1.02758q-1.2429 3.541-2.4826 7.083c-.04937.14078-.106.27921-.16388.41677a.78614.78614 0 0 1-.78532.5211c-.411-.00079-.82212.00587-1.23314.00326-.79562-.00505-.95557-.10923-1.225-.8743-.32253-.91571-.62255-1.83935-.93545-2.75848q-.83034-2.439-1.66556-4.87641c-.07721-.2252-.16964-.44519-.28912-.7564a3.888 3.888 0 0 0-.15248 1.229q-.00685 3.47532-.01614 6.95062c-.004.94956-.13389 1.074-1.0662 1.07471-.44831.00036-.89834.01605-1.34452-.01684-.68779-.05068-.84129-.22682-.84367-.91371q-.009-2.57846-.00663-5.15693.00475-4.79256.01585-9.58514c.00027-.14946-.00755-.29982.00579-.44821a.5949.5949 0 0 1 .53532-.61907 2.28636 2.28636 0 0 1 .49968-.0511c.80339-.00369 1.60691-.00608 2.41023.004.65931.00831.78691.10715 1.00357.75012q1.699 5.04212 3.39737 10.08447a1.14124 1.14124 0 0 0 .3116.63351z" class="cls-10"/><path d="M383.01971 218.42758c1.00924 0 2.01851-.00384 3.02772.00133.69281.00354.94369.254.945.94686.00321 1.6447-.01389 3.28958.00573 4.934a1.54361 1.54361 0 0 1-.7315 1.40342 11.07965 11.07965 0 0 1-4.68095 2.04769 9.22729 9.22729 0 0 1-7.31606-1.69375 7.06159 7.06159 0 0 1-2.52506-3.94251 10.17013 10.17013 0 0 1 .95485-7.90391 6.64123 6.64123 0 0 1 3.88525-3.11961 9.68166 9.68166 0 0 1 6.37645.06691 5.8409 5.8409 0 0 1 3.73844 4.48718.641.641 0 0 1-.45022.841 13.03379 13.03379 0 0 1-1.88976.51391c-.34318.0738-.57841-.076-.74843-.43994-.11043-.23637-.2057-.48073-.29365-.72656a3.06669 3.06669 0 0 0-2.32037-1.98825 5.47714 5.47714 0 0 0-3.56148.30944 4.03812 4.03812 0 0 0-2.29279 2.81326 8.24388 8.24388 0 0 0 .02351 4.64448 4.03834 4.03834 0 0 0 2.827 2.79665 6.40758 6.40758 0 0 0 5.32295-.75733.56015.56015 0 0 0 .30777-.54988c-.01007-.33607.00726-.67291-.00021-1.00911-.0094-.423-.03019-.44959-.44394-.46293-.98913-.0319-1.97862-.05326-2.968-.07785-.14944-.00371-.29949.00533-.44844-.00424-.42314-.02718-.60906-.19645-.62255-.628-.01866-.59743-.01761-1.19625-.00058-1.79379.0139-.488.24239-.70714.73942-.712 1.04654-.01022 2.09324-.00312 3.13987-.00312z" class="cls-11"/><path d="M391.24934 216.9399q.00043-2.32685.00069-4.65368c.0001-.20556-.005-.41195.01082-.6165a.62609.62609 0 0 1 .67177-.66343q.95262-.02286 1.90614-.00075c.54558.01354.77645.25535.77951.80167.008 1.42038.00587 2.84081.008 4.26122.00262 1.75682.01119 3.51366.00422 5.27044a7.87779 7.87779 0 0 0 .13548 1.33574 2.441 2.441 0 0 0 2.19158 2.07973 6.479 6.479 0 0 0 2.33984-.07726 2.164 2.164 0 0 0 1.73551-1.70052 6.4048 6.4048 0 0 0 .21642-1.5467q-.00539-2.41086.02-4.82178c.01779-1.58746.05182-3.17475.08549-4.762.0139-.65569.19263-.82857.84221-.83394.56063-.00463 1.1217-.01051 1.68194.00581.61585.01793.8338.24423.83392.86818.00059 3.08378.01135 6.16775-.02006 9.25123a10.81118 10.81118 0 0 1-.30724 2.55152 5.24724 5.24724 0 0 1-3.62911 3.9321 8.94229 8.94229 0 0 1-5.78033-.04572 5.09008 5.09008 0 0 1-3.47771-3.98536 10.17893 10.17893 0 0 1-.25342-2.27671c.01411-1.45763.00399-2.9155.00433-4.37329z" class="cls-10"/><path d="M420.76411 223.12c-.69126 0-1.38252-.00209-2.07378.00062-.63062.00248-.62909.00534-.8399.57593-.41407 1.12075-.82333 2.24334-1.24772 3.36017-.2511.66076-.3819.74265-1.07394.74969q-.7566.00771-1.51332.00057c-.85369-.007-1.13788-.38456-.84511-1.16773q.87273-2.33459 1.77813-4.65694 1.94491-5.013 3.90148-10.02149c.34263-.87917.42507-.93751 1.35045-.94224.4669-.00239.93393.0041 1.40078.01286a.99081.99081 0 0 1 .99644.7285c.48113 1.25488 1.02187 2.48677 1.5283 3.7321q2.19458 5.39651 4.37991 10.79678a6.60542 6.60542 0 0 1 .22777.6318.6199.6199 0 0 1-.60965.88355c-.48429.02731-.97121.01405-1.4569.00953-1.28593-.01193-1.24786.20161-1.804-1.24006-.37628-.97545-.77034-1.94466-1.11793-2.93025a.70334.70334 0 0 0-.79527-.52766c-.7281.01969-1.45712.00553-2.18576.00553z" class="cls-11"/><path d="M390.42281 265.39436c1.32839.04559 2.65131-.0774 3.97461-.15154q2.3772-.13319 4.74691-.38721c2.22961-.23605 4.44906-.53421 6.64649-.98394.69678-.14261.9565.06867.96378.7839a2.11658 2.11658 0 0 1-.31676 1.06076 4.67971 4.67971 0 0 1-2.00112 1.90258 13.10639 13.10639 0 0 1-3.50453 1.13928c-1.007.1999-2.01961.37342-3.03347.53537a.52536.52536 0 0 0-.48292.37772 5.9441 5.9441 0 0 0-.37046 1.3464.52713.52713 0 0 0 .42611.67629 3.29991 3.29991 0 0 0 1.553.04493c.27242-.03886.542-.09779.86389-.15706a1.74954 1.74954 0 0 1-.77192.98294 7.02563 7.02563 0 0 1-2.28932 1.02408 20.2635 20.2635 0 0 1-3.85932.65831 57.716 57.716 0 0 1-7.72937.10023 25.22974 25.22974 0 0 1-5.42676-.76317 8.16847 8.16847 0 0 1-1.925-.75371 2.90914 2.90914 0 0 1-.97734-.80662c.12065-.18452.28434-.1.41758-.09775a10.9452 10.9452 0 0 0 1.28777.01279c.45187-.04541.52268-.10926.547-.539a4.705 4.705 0 0 0-.13041-1.33394.48655.48655 0 0 0-.497-.42463c-.92906-.09061-1.85934-.18245-2.78215-.3206a13.18181 13.18181 0 0 1-4.765-1.551 5.07069 5.07069 0 0 1-2.11648-2.1756 1.36909 1.36909 0 0 1-.20351-.7173c.6231.06189 1.22361.17367 1.8341.211 2.64866.16194 5.299.26815 7.95117.35071 2.74671.0855 5.4932.08756 8.24029.07039.0743-.00047.14852-.01328.22277-.02033a.70737.70737 0 0 1 .60005-.21889 16.75051 16.75051 0 0 0 2.26339-.09353.5881.5881 0 0 1 .64393.21814z" class="cls-8"/><path fill="#010202" d="M390.42281 265.39436a29.31508 29.31508 0 0 1-3.50729.09435q.00208-.88347.00406-1.76686c1.16345-.07778 2.328-.10871 3.49408-.08505q.00471.87882.00915 1.75756z"/><path fill="#bd0728" d="M447.74318 214.58275c-.10051.27751-.20361.55411-.30112.83267l-3.90372 11.15246c-.21145.60294-.08705.55642-.77548.54583-.40573-.00624-.88572.15784-1.1975-.07971-.28956-.22064-.29473-.70549-.42022-1.07535q-1.889-5.56779-3.77167-11.13771a.88567.88567 0 0 0-.25439-.43021c-.01388.66386-.037 1.32768-.04007 1.99159q-.02351 5.07391-.03842 10.14789c-.00021.05607.0012.11219-.0003.16821-.01089.4069-.011.41524-.39333.41721-.41087.00212-.82189-.02117-1.23273-.01826-.22018.00156-.303-.09327-.2891-.30334.00737-.11164.00066-.2242.00073-.33634q.00408-6.925.00855-13.85c.00067-.9161.00235-.91777.91867-.91509.56058.00165 1.12221.032 1.68133.006a.5083.5083 0 0 1 .59175.43069c.674 2.077 1.37158 4.14637 2.05866 6.21916q1.00428 3.0297 2.0029 6.06131c.04043.1225.047.26044.17817.34805a1.57976 1.57976 0 0 0 .20753-.493q2.05759-5.95434 4.11714-11.908c.2289-.66051.08-.6243.8981-.62728.57941-.0021 1.15908.00748 1.73806-.00876.22733-.00637.2954.07912.293.29025-.00659.57935-.001 1.15882-.00192 1.73823q-.00972 6.36414-.02012 12.72826c-.00009.05607.00057.11216-.00018.16822-.00646.4818-.00652.48331-.49437.48677-.35511.00253-.71163-.019-1.065.00613-.31382.02233-.39389-.11757-.37181-.39439.0163-.20454.01574-.41075.01579-.6162q.0013-5.43908.00072-10.87816v-.65171zm-64.70079 4.54988c.953 0 1.906-.004 2.859.00192.40066.00251.41093.01208.4113.40259.00155 1.64477-.00922 3.28958-.00047 4.9343a.61714.61714 0 0 1-.28956.55593 10.23839 10.23839 0 0 1-4.60882 2.06015 8.99307 8.99307 0 0 1-5.51233-.78577 6.63183 6.63183 0 0 1-3.464-4.266 9.52126 9.52126 0 0 1 .62686-7.02919 6.2906 6.2906 0 0 1 4.29055-3.4021 8.82861 8.82861 0 0 1 5.24069.17165 5.23788 5.23788 0 0 1 3.37454 3.75957c.06376.21622.038.3502-.21535.40833-.39995.09175-.79431.20859-1.18926.32106a.29392.29392 0 0 1-.42313-.22323c-.06484-.21342-.1594-.418-.24461-.625a3.59241 3.59241 0 0 0-2.43092-2.14959 6.24541 6.24541 0 0 0-3.96534.12425 4.82214 4.82214 0 0 0-3.05491 3.47714 8.74691 8.74691 0 0 0-.08442 4.4913 4.97977 4.97977 0 0 0 4.63316 3.98644 7.20928 7.20928 0 0 0 4.99181-1.285.65457.65457 0 0 0 .33734-.63879c-.01941-.67221.001-1.34549-.00017-2.01834-.00087-.49322-.00468-.49752-.48108-.49911-.93454-.00312-1.8691-.001-2.80364-.001-.243 0-.486.00069-.72895-.00015-.57727-.002-.54482.04409-.54593-.54623-.00056-.299.01072-.59858-.0025-.897-.01191-.26887.102-.35748.36433-.35477.97183.01 1.94382.004 2.91575.004zm18.97587-2.05855q0-2.46626.001-4.93251c.00071-.46252.00615-.46524.4499-.46695.33628-.00128.67259.00712 1.00889.00836.58794.00218.55951-.04024.558.53509q-.0039 1.54153-.008 3.08307c-.0034 2.09229.01468 4.18478-.06069 6.27641a10.35739 10.35739 0 0 1-.21142 1.721 4.61939 4.61939 0 0 1-3.72088 3.81218 8.736 8.736 0 0 1-4.59811-.105 4.70454 4.70454 0 0 1-3.38993-4.23612 17.50176 17.50176 0 0 1-.12058-2.40458q-.00858-4.03614-.00228-8.0723c0-.11208.01178-.22465.00461-.33613-.01373-.2135.07572-.29966.29249-.29545.48565.00941.97164.0069 1.4574.00152.18905-.00209.27329.07333.26306.265-.008.149-.00045.29888-.0001.44836q.0104 4.48444.01966 8.96889a8.14848 8.14848 0 0 0 .10515 1.3954 3.05367 3.05367 0 0 0 2.42664 2.62476 6.07944 6.07944 0 0 0 3.31656-.1116 2.60166 2.60166 0 0 0 1.77838-1.72168 5.93765 5.93765 0 0 0 .34637-1.807q.06405-2.32507.08388-4.65072zm11.71001 10.04376c.20676-.54675.36822-.98156.53525-1.41421q2.59117-6.71193 5.18629-13.42234c.23141-.59741.10033-.54574.78673-.55236.33613-.00324.67223-.02251 1.00824-.02.66487.005.55731-.08594.80647.52539q1.70127 4.174 3.39947 8.34935 1.21316 2.98217 2.42077 5.96658c.067.16587.195.32215.13552.55229-.66289.07142-1.33088.01586-1.997.02817-.232.00429-.25448-.1865-.31181-.3346q-.56591-1.462-1.12266-2.9275c-.05337-.13948-.09721-.28318-.159-.41878-.13772-.30242-.14779-.70525-.41681-.89276-.24988-.17418-.61783-.07156-.93125-.07516-1.71878-.01975-3.43794-.01016-5.15663-.03448-.31391-.00443-.41392.14339-.50213.39032q-.68751 1.92439-1.38992 3.84349c-.1577.43344-.16121.434-.63721.43608-.5181.00224-1.03629.00052-1.65432.00052z"/><path d="M388.90287 272.25434a45.04157 45.04157 0 0 1-5.885-.23248c-.29606-.03619-.59292-.06947-.88662-.12024a.80217.80217 0 0 1-.74033-.78321 7.5063 7.5063 0 0 1 .00817-.89367c.00652-.27716.12532-.39084.4248-.35909.66737.0708 1.338.11244 2.00773.15937a60.84217 60.84217 0 0 0 10.11718-.11543c.99522-.09606 1.03007-.06462.97733.93321-.00295.05586-.00581.11183-.01222.16734-.07861.68052-.1677.787-.8411.89548-.51509.083-1.033.16246-1.55283.19921-1.24687.08817-2.49478.16957-3.61711.14951z" class="cls-4"/><path fill="#fefefe" d="M420.70565 213.507c.86088 2.4058 1.76718 4.78491 2.6921 7.26245-1.76187.04134-3.44737.02893-5.21317-.00108.82115-2.45437 1.90923-4.76731 2.52107-7.26137z"/><path fill="#93dbfc" d="M420.83367 215.92673c.18124.47747.36561.95909.54694 1.44185.28874.76875.58321 1.53548.8595 2.30867.12262.34321.08074.40422-.273.40854-.80295.00982-1.60613.00036-2.40922-.0015-.21189-.00049-.38917-.03014-.27833-.31679.49073-1.2691.92057-2.56145 1.45826-3.81253.00463-.01068.03398-.01075.09585-.02824z"/><path d="M99.81851 471.29891h8.27856c-.4582-3.87523-2.23661-7.11365-5.34301-9.7075-3.09863-2.58607-7.20685-3.883-12.32464-3.883-5.8944 0-10.63942 1.9648-14.22731 5.8944-3.58013 3.9296-5.37408 9.15611-5.37408 15.67179 0 6.44578 1.77065 11.51697 5.31971 15.23689 3.40928 3.68885 7.77377 5.53716 13.10901 5.53716 3.23842 0 5.97206-.68341 8.19313-2.04246 1.28916-.78437 2.7414-2.13565 4.3645-4.04609l.84649 5.0246h5.56822v-21.59724H91.47006v6.71759h9.30367c-.4116 2.64044-1.52214 4.77609-3.32385 6.40695-1.80171 1.6231-4.11598 2.43852-6.93504 2.43852-2.88118 0-5.44396-1.02511-7.70387-3.0831-2.25214-2.05799-3.38597-5.56046-3.38597-10.51516 0-4.90812 1.04064-8.5892 3.1297-11.04326 2.08128-2.44629 4.74502-3.67331 7.98344-3.67331 1.69299 0 3.23066.30287 4.613.90862 2.47736 1.08724 4.03056 3.00544 4.66737 5.7546zm-9.41239-13.5905zm32.97444 11.51698h-7.96792v17.93946c0 3.40151.42713 5.97982 1.28139 7.72717 1.5299 3.16853 4.49651 4.7528 8.89984 4.7528 1.5299 0 2.86565-.20192 3.99949-.60575 1.1416-.39607 2.31426-1.1416 3.53353-2.23661.40383-.34947.7533-.74554 1.04064-1.20373.2951-.45043.47373-.73.54362-.81543v4.2014h7.56408v-29.7593h-7.89025v16.1921c0 1.91044-.25628 3.4481-.76107 4.613-.98628 2.15119-2.80353 3.2229-5.4595 3.2229-2.08129 0-3.4714-.7533-4.1781-2.26768-.40384-.85426-.60575-2.12788-.60575-3.82087zm5.46726-.79213zm37.3467 16.08339v2.89671c-.05437 2.60161-.78437 4.39556-2.19778 5.37408-1.41342.98628-2.95108 1.47554-4.62854 1.47554-1.05618 0-1.94927-.29511-2.68704-.88533-.73777-.59021-1.11053-1.5532-1.11053-2.88118 0-1.49108.60574-2.59385 1.8017-3.30832.71448-.41936 1.88715-.76883 3.52577-1.06394l1.74735-.32617c.8698-.16309 1.56097-.3417 2.058-.5281.50478-.19414 1.0018-.44265 1.49106-.7533zm-4.72173-3.6345l-2.64821.32618c-3.00544.3883-5.28088 1.02511-6.82631 1.9182-2.81906 1.63863-4.23247 4.28683-4.23247 7.94462 0 2.81906.87755 5.0013 2.63267 6.53897 1.75512 1.53767 3.98396 2.3065 6.67876 2.3065 2.11235 0 3.99949-.48149 5.67695-1.45224 1.39788-.81543 2.64044-1.80948 3.71214-2.97438.05437.67565.12426 1.27363.21745 1.80172.0932.52808.25628 1.095.48926 1.69298h8.46494v-1.14936c-.50479-.23298-.89309-.53586-1.1416-.90086-.25628-.35724-.4116-1.04841-.46596-2.07352-.03883-1.34352-.05436-2.49289-.05436-3.44034v-13.64486c0-3.5879-1.26586-6.02642-3.79758-7.32334-2.53171-1.28916-5.42067-1.93373-8.68239-1.93373-5.0013 0-8.53483 1.30468-10.59282 3.9296-1.28916 1.67745-2.01916 3.8131-2.18225 6.4147h7.50973c.17861-1.14936.54362-2.05798 1.08724-2.72586.76883-.91639 2.06575-1.36681 3.9063-1.36681 1.63862 0 2.88118.23298 3.72767.69117.8465.46596 1.26586 1.31245 1.26586 2.53172 0 1.00181-.55138 1.73181-1.66192 2.20554-.62128.27958-1.6464.50479-3.0831.6834zm.40383-12.44889zm56.14041.90086c-1.28139-.5048-2.57054-.76107-3.883-.76107-1.9648 0-3.74321.40383-5.35077 1.22703-1.5066.81543-2.77246 2.10458-3.78981 3.85193-.58245-1.46-1.44448-2.6482-2.57055-3.58012-1.39788-1.00182-3.23842-1.49884-5.51386-1.49884-2.39969 0-4.35672.58245-5.8711 1.74735-.85425.65234-1.76287 1.75511-2.72586 3.30055v-4.3412H180.748v29.70495h7.89025v-17.9084c0-1.62309.20969-2.84235.62905-3.65778.76107-1.4367 2.25214-2.15895 4.47322-2.15895 1.91043 0 3.19959.72224 3.85193 2.15895.365.7999.54362 2.08129.54362 3.85194v17.71424h7.8359v-17.71424c0-1.33575.20968-2.46959.62904-3.41704.8232-1.78618 2.3065-2.6715 4.44992-2.6715 1.85607 0 3.1297.69117 3.82087 2.07352.365.72223.55139 1.65415.55139 2.78022v18.94904h7.96791l.05437-18.75489c0-1.93373-.0932-3.39374-.27181-4.39555-.28735-1.51437-.85426-2.788-1.693-3.82087-1.04064-1.27363-2.19-2.16672-3.46363-2.67927zm29.9457-.90086c-2.36087 5.4595-3.54906 10.8491-3.54906 16.16105 0 4.60523.90862 9.18717 2.73363 13.73805 1.54543 3.91406 3.7898 7.89026 6.74089 11.92858h4.613l-1.66192-3.0598c-2.29874-4.21695-3.89077-8.6358-4.7761-13.24104-.58244-2.99767-.87755-6.2827-.87755-9.85505 0-5.5294.7533-10.53846 2.26767-15.01168.90862-2.67927 2.63267-6.32929 5.15662-10.95006l-4.47321-.05436-1.9415 2.6715c-1.5066 2.09682-2.92002 4.65184-4.23247 7.67281zm44.47588 2.86565h8.27079c-.45043-3.87523-2.22884-7.11365-5.33524-9.7075-3.1064-2.58607-7.21462-3.883-12.32464-3.883-5.90216 0-10.63942 1.9648-14.22732 5.8944-3.58789 3.9296-5.37407 9.15611-5.37407 15.67179 0 6.44578 1.77065 11.51697 5.31971 15.23689 3.40151 3.68885 7.77377 5.53716 13.10901 5.53716 3.23842 0 5.96429-.68341 8.18536-2.04246 1.29693-.78437 2.74917-2.13565 4.37226-4.04609l.8465 5.0246h5.56822v-21.59724h-16.7668v6.71759h9.31144c-.41937 2.64044-1.5299 4.77609-3.33162 6.40695-1.8017 1.6231-4.10821 2.43852-6.93503 2.43852-2.87342 0-5.4362-1.02511-7.69611-3.0831-2.2599-2.05799-3.38598-5.56046-3.38598-10.51516 0-4.90812 1.04065-8.5892 3.1297-11.04326 2.08129-2.44629 4.74503-3.67331 7.98345-3.67331 1.69299 0 3.23066.30287 4.613.90862 2.47736 1.08724 4.03056 3.00544 4.66737 5.7546zm-9.42016-13.5905zm32.9822 11.51698h-7.96791v17.93946c0 3.40151.42713 5.97982 1.28139 7.72717 1.5299 3.16853 4.49651 4.7528 8.89983 4.7528 1.5299 0 2.8579-.20192 3.9995-.60575 1.13383-.39607 2.31426-1.1416 3.53352-2.23661.40384-.34947.74554-.74554 1.04065-1.20373.28734-.45043.47372-.73.54362-.81543v4.2014h7.56408v-29.7593h-7.89025v16.1921c0 1.91044-.25628 3.4481-.76107 4.613-.98628 2.15119-2.80353 3.2229-5.46727 3.2229-2.07352 0-3.46363-.7533-4.1781-2.26768-.39607-.85426-.59799-2.12788-.59799-3.82087zm5.4595-.79213zm37.35446 16.08339v2.89671c-.05436 2.60161-.79213 4.39556-2.19778 5.37408-1.4134.98628-2.95884 1.47554-4.62853 1.47554-1.05618 0-1.95703-.29511-2.6948-.88533-.73-.59021-1.10278-1.5532-1.10278-2.88118 0-1.49108.59799-2.59385 1.80172-3.30832.71447-.41936 1.88713-.76883 3.52576-1.06394l1.74735-.32617c.8698-.16309 1.56097-.3417 2.05799-.5281.49702-.19414.99405-.44265 1.49107-.7533zm-4.7295-3.6345l-2.6482.32618c-2.99767.3883-5.27311 1.02511-6.81855 1.9182-2.82682 1.63863-4.23247 4.28683-4.23247 7.94462 0 2.81906.87756 5.0013 2.63268 6.53897 1.75511 1.53767 3.98396 2.3065 6.671 2.3065 2.11234 0 4.00725-.48149 5.6847-1.45224 1.39788-.81543 2.64044-1.80948 3.71215-2.97438.05436.67565.12426 1.27363.21745 1.80172.0932.52808.25628 1.095.48926 1.69298h8.46494v-1.14936c-.51256-.23298-.8931-.53586-1.14937-.90086-.24851-.35724-.40383-1.04841-.4582-2.07352-.03882-1.34352-.05436-2.49289-.05436-3.44034v-13.64486c0-3.5879-1.26585-6.02642-3.79757-7.32334-2.53172-1.28916-5.42843-1.93373-8.68239-1.93373-5.00907 0-8.53483 1.30468-10.59282 3.9296-1.29692 1.67745-2.01916 3.8131-2.18225 6.4147h7.50196c.18638-1.14936.55138-2.05798 1.095-2.72586.76884-.91639 2.06576-1.36681 3.9063-1.36681 1.63863 0 2.88119.23298 3.72768.69117.8465.46596 1.26586 1.31245 1.26586 2.53172 0 1.00181-.55139 1.73181-1.66192 2.20554-.62128.27958-1.6464.50479-3.09087.6834zm.4116-12.44889zm56.13265.90086c-1.27362-.5048-2.56278-.76107-3.87523-.76107-1.9648 0-3.75098.40383-5.35077 1.22703-1.51437.81543-2.77247 2.10458-3.79758 3.85193-.58245-1.46-1.4367-2.6482-2.56278-3.58012-1.40564-1.00182-3.23842-1.49884-5.51386-1.49884-2.40746 0-4.36449.58245-5.8711 1.74735-.85425.65234-1.76288 1.75511-2.73363 3.30055v-4.3412h-7.56408v29.70495h7.89026v-17.9084c0-1.62309.20968-2.84235.62904-3.65778.76884-1.4367 2.2599-2.15895 4.48098-2.15895 1.91044 0 3.19183.72224 3.85194 2.15895.35724.7999.54362 2.08129.54362 3.85194v17.71424h7.8359v-17.71424c0-1.33575.20968-2.46959.62904-3.41704.81543-1.78618 2.29874-2.6715 4.44992-2.6715 1.85607 0 3.1297.69117 3.82087 2.07352.365.72223.54362 1.65415.54362 2.78022v18.94904h7.97568l.05436-18.75489c0-1.93373-.09319-3.39374-.2718-4.39555-.29511-1.51437-.85427-2.788-1.693-3.82087-1.04064-1.27363-2.19777-2.16672-3.4714-2.67927zm32.65603-6.38366c-3.7665 3.79758-5.65364 9.21825-5.65364 16.23871 0 6.50014 1.66192 11.61794 4.97024 15.34562 3.31608 3.71214 7.86695 5.56822 13.65262 5.56822 4.67514 0 8.51154-1.37458 11.50922-4.12375 2.9899-2.7414 4.85375-6.31376 5.58375-10.70155h-8.33292c-.55915 2.07353-1.27362 3.6345-2.12788 4.66737-1.54544 1.93373-3.78981 2.89672-6.74089 2.89672-2.87342 0-5.24982-1.12607-7.11366-3.37045-1.86384-2.25214-2.79576-5.63035-2.79576-10.1424 0-4.51204.87756-8.00674 2.64821-10.46856 1.76288-2.46959 4.1781-3.70438 7.23015-3.70438 3.00544 0 5.27311.87756 6.80301 2.6249.85426.97852 1.5532 2.43853 2.09682 4.3645h8.41058c-.12426-2.50842-1.05618-5.00907-2.78023-7.50972-3.1297-4.43439-8.0844-6.65547-14.85636-6.65547-5.05566 0-9.226 1.65416-12.50326 4.97024zm12.26252-5.4362zm42.17714 33.55689c-1.21926 1.61533-2.9666 2.43076-5.24205 2.43076-2.27543 0-4.02278-.81543-5.25758-2.43076-1.22703-1.6231-1.84054-3.92183-1.84054-6.91174 0-2.98214.61351-5.28088 1.84054-6.8962 1.2348-1.60757 2.98215-2.41523 5.25758-2.41523 2.27544 0 4.0228.80766 5.24205 2.41522 1.21927 1.61533 1.83278 3.91407 1.83278 6.89621 0 2.98991-.61351 5.28865-1.83278 6.91174zm6.22834 4.2946c2.50841-3.09864 3.7665-6.83408 3.7665-11.20634 0-4.2946-1.25809-8.01451-3.7665-11.1675-2.51619-3.14524-6.3293-4.72174-11.43932-4.72174-5.1178 0-8.9309 1.5765-11.43932 4.72173-2.51618 3.153-3.77428 6.87291-3.77428 11.16751 0 4.37226 1.2581 8.1077 3.77428 11.20634 2.50842 3.1064 6.32152 4.6596 11.43932 4.6596 5.11003 0 8.92313-1.5532 11.43932-4.6596zm-11.43932-26.93249zm39.1251.79213l-6.33705 21.95448-6.19727-21.95448h-8.73675l10.67049 29.75931h8.22419l10.72485-29.7593zm20.743-3.54906v-7.18355h-7.89026v7.18355zm-7.89026 3.54906v29.75931h7.89025v-29.7593zm31.21155.4815c-1.40565-.79214-3.00544-1.1882-4.80715-1.1882-3.91407 0-7.036 1.45224-9.38133 4.36449-2.33757 2.91225-3.50247 6.91174-3.50247 11.9907 0 4.40332 1.1882 8.00675 3.55683 10.8258 2.3764 2.8113 5.30418 4.21694 8.78335 4.21694 2.11235 0 3.87523-.40383 5.2964-1.20373 1.42119-.7999 2.67928-2.08128 3.78982-3.85193v4.12374h7.56408v-40.18905h-7.89026v14.19625c-.86979-1.39788-2.01139-2.49288-3.40927-3.28502zm1.91044 21.20117c-1.14937 1.63086-2.81906 2.45406-5.0246 2.45406-2.20555 0-3.84418-.8232-4.93142-2.46959-1.07947-1.64639-1.62309-3.84417-1.62309-6.59333 0-2.54725.53585-4.6829 1.5998-6.40695 1.06394-1.71629 2.73363-2.57831 5.00907-2.57831 1.49107 0 2.80352.47372 3.9296 1.42117 1.84053 1.56097 2.75692 4.17035 2.75692 7.80483 0 2.60938-.56692 4.7295-1.71628 6.36812zm43.62938-7.12918l5.1877-15.83488 5.0246 15.83488zm.52033-25.03759l-14.3671 40.24341h8.7911l2.788-8.27079h14.8253l2.59384 8.2708h9.11728l-14.2506-40.24342zm4.69066 0zm31.48336 40.24341v-40.2434h-7.78153v40.2434zm15.13594-22.44374c.99405-1.12607 2.39193-1.69298 4.19364-1.69298 1.65416 0 3.04427.53585 4.16257 1.5998 1.1183 1.06393 1.73959 2.6249 1.87161 4.68289h-12.09943c.25628-1.93373.88533-3.45587 1.8716-4.5897zm10.88016-6.71759c-1.98033-.92415-4.20917-1.39011-6.68652-1.39011-4.17034 0-7.55632 1.37458-10.17346 4.12375-2.60938 2.74916-3.91407 6.70205-3.91407 11.85091 0 5.49833 1.44448 9.46676 4.3412 11.90528 2.88895 2.43852 6.2361 3.65779 10.01814 3.65779 4.5897 0 8.1543-1.45225 10.70155-4.3412 1.63862-1.825 2.55501-3.61895 2.75693-5.38184h-7.94462c-.41937.87756-.90086 1.56097-1.44448 2.05023-1.00181.90862-2.3065 1.36681-3.9063 1.36681-1.5066 0-2.80352-.37276-3.87523-1.12607-1.76288-1.19596-2.70257-3.29278-2.8113-6.27492h20.36246c.03883-2.57055-.03883-4.53535-.24075-5.90216-.34947-2.3298-1.10277-4.37226-2.26767-6.14291-1.28915-1.99586-2.92778-3.46364-4.91588-4.39556zm-6.1429-1.39011zm35.34306.0932c-.10095-.00777-.22521-.00777-.365-.00777-2.3298 0-4.2247.60574-5.68471 1.825-.88532.73001-1.93373 2.08906-3.13746 4.06939v-5.18769h-7.4243v29.75931h7.8359v-14.21954c0-2.39193.30287-4.15481.90085-5.30418 1.0717-2.0347 3.1763-3.05204 6.306-3.05204.24074 0 .54361.00777.93191.0233.38054.0233.81543.05436 1.30469.10872v-7.96791c-.3417-.0233-.56692-.03107-.66788-.0466zm2.17448 6.51567h4.14705v18.31999c0 1.85607.4349 3.23066 1.31245 4.12375 1.34352 1.39788 3.8597 2.03469 7.53302 1.91043l3.68885-.13979v-5.81673a12.63671 12.63671 0 0 1-.7766.0466c-.26404.00776-.52032.01553-.7533.01553-1.58426 0-2.53172-.15532-2.84236-.4582-.31064-.2951-.46596-1.05617-.46596-2.27543v-15.72615h4.83822v-5.54493h-4.83822v-8.29409h-7.6961v8.2941h-4.14705zm30.93198-6.14291c-1.4367-3.34715-3.5413-6.95057-6.30599-10.81027h-5.8711l1.66193 3.05204c2.29873 4.20917 3.89076 8.61249 4.78385 13.21773.58245 3.02097.8698 6.31376.8698 9.88612 0 5.56822-.80767 10.69378-2.43076 15.36891-.94745 2.7647-2.61714 6.31376-5.0246 10.64719h5.76237l1.9415-2.64821c1.25032-1.5998 2.59384-3.98396 4.01502-7.15249 2.52395-5.66141 3.7898-11.22963 3.7898-16.71243 0-4.98577-1.06393-9.93271-3.19182-14.84859z"/></svg>