<svg xmlns="http://www.w3.org/2000/svg" role="img" viewBox="-1.53 -2.03 209.82 98.32"><title>Healthy Together logo</title><path fill="#012D6A" d="M90.999 34.0875h3.9794v-7.7367h8.0776v7.7367h3.971V15.3584h-3.971v7.7276h-8.0776v-7.7276H90.999v18.7291zm25.669.2745c3.492 0 5.845-1.6918 6.396-4.2982l-3.621-.2377c-.395 1.07-1.406 1.6278-2.711 1.6278-1.957 0-3.198-1.2895-3.198-3.3837v-.0091h9.613v-1.07c0-4.7737-2.904-7.1332-6.635-7.1332-4.154 0-6.847 2.9356-6.847 7.2704 0 4.4537 2.656 7.2337 7.003 7.2337zm-3.134-8.7152c.083-1.6004 1.305-2.8807 3.042-2.8807 1.7 0 2.877 1.2071 2.886 2.8807h-5.928zm16.193 8.7061c2.086 0 3.437-.9053 4.126-2.2131h.111v1.9479h3.713v-9.4743c0-3.3471-2.849-4.7555-5.992-4.7555-3.382 0-5.606 1.6095-6.149 4.1702l3.621.2926c.267-.9328 1.103-1.6187 2.509-1.6187 1.333 0 2.095.6676 2.095 1.8199v.0549c0 .9053-.964 1.0242-3.418 1.262-2.794.2561-5.303 1.1889-5.303 4.3256 0 2.7802 1.994 4.1885 4.687 4.1885zm1.121-2.6887c-1.204 0-2.068-.5578-2.068-1.6278 0-1.0974.91-1.637 2.289-1.829.855-.1189 2.252-.3201 2.72-.631v1.4906c0 1.4724-1.222 2.5972-2.941 2.5972zm13.781-16.3058h-3.915v18.7291h3.915V15.3584zm10.644 4.6828h-2.656v-3.3654h-3.915v3.3654h-1.93v2.9264h1.93v7.3161c-.018 2.7526 1.866 4.1153 4.706 3.9964 1.011-.0366 1.727-.2378 2.122-.3658l-.615-2.899c-.193.0366-.607.128-.974.128-.782 0-1.324-.2926-1.324-1.3718v-6.8039h2.656v-2.9264zm6.769 5.9255c.009-1.8107 1.121-2.8716 2.72-2.8716 1.59 0 2.528 1.0151 2.518 2.7436v8.2488h3.915v-8.9438c.01-3.2923-1.939-5.2859-4.879-5.2859-2.142 0-3.576 1.0059-4.219 2.6612h-.165v-7.1606h-3.805v18.7291h3.915v-8.1208zm14.146 13.3613c2.913 0 4.466-1.4724 5.257-3.722l5.486-15.5467-4.145-.0183-2.95 10.3156h-.147l-2.922-10.3156h-4.118l5.064 14.4492-.229.5945c-.552 1.2711-1.498 1.3626-2.877.9328l-.882 2.9173c.56.2286 1.47.3932 2.463.3932zm-85.9048 8.4817h5.7621V63.274h3.9336V47.8097h5.7621v-3.2648H90.2832v3.2648zm22.2598 15.7386c4.283 0 6.948-2.9173 6.948-7.2429 0-4.3531-2.665-7.261-6.948-7.261-4.282 0-6.947 2.9079-6.947 7.261 0 4.3256 2.665 7.2429 6.947 7.2429zm.019-3.0178c-1.976 0-2.987-1.8014-2.987-4.2526 0-2.4508 1.011-4.2616 2.987-4.2616 1.939 0 2.95 1.8108 2.95 4.2616 0 2.4512-1.011 4.2526-2.95 4.2526zm15.834 8.2125c4.034 0 6.902-1.8293 6.902-5.3316V49.2273h-3.888v2.3593h-.147c-.523-1.1429-1.672-2.5422-4.034-2.5422-3.097 0-5.716 2.3959-5.716 7.179 0 4.6728 2.545 6.8493 5.725 6.8493 2.252 0 3.511-1.1245 4.025-2.2859h.166v2.5696c0 1.8383-1.241 2.5882-2.941 2.5882-1.728 0-2.601-.7499-2.923-1.5091l-3.621.4846c.469 2.122 2.647 3.8229 6.452 3.8229zm.083-8.5966c-1.921 0-2.969-1.5181-2.969-3.9415 0-2.3868 1.03-4.0603 2.969-4.0603 1.902 0 2.968 1.6001 2.968 4.0603 0 2.4783-1.084 3.9415-2.968 3.9415zm16.368 3.4019c3.492 0 5.845-1.6915 6.396-4.2981l-3.621-.2378c-.395 1.07-1.406 1.628-2.711 1.628-1.957 0-3.198-1.2893-3.198-3.3839v-.009h9.613v-1.07c0-4.7737-2.904-7.1331-6.635-7.1331-4.154 0-6.847 2.9354-6.847 7.2704 0 4.4535 2.656 7.2335 7.003 7.2335zm-3.134-8.7151c.083-1.6005 1.305-2.8809 3.042-2.8809 1.7 0 2.876 1.2074 2.885 2.8809h-5.927zm19.676-5.6055h-2.656v-3.3654h-3.915v3.3654h-1.93v2.9264h1.93V59.47c-.019 2.7529 1.865 4.1157 4.705 3.9968 1.011-.0369 1.728-.2378 2.123-.3661l-.616-2.8989c-.193.0365-.606.1279-.974.1279-.781 0-1.323-.2923-1.323-1.3718v-6.8038h2.656v-2.9264zm6.77 5.9257c.009-1.8109 1.121-2.8719 2.72-2.8719 1.59 0 2.528 1.0151 2.518 2.7435v8.249h3.915v-8.9439c.009-3.292-1.939-5.2857-4.88-5.2857-2.141 0-3.574 1.0057-4.218 2.6611h-.165v-7.1606h-3.805V63.274h3.915v-8.1206zm18.666 8.3949c3.493 0 5.845-1.6915 6.397-4.2981l-3.621-.2378c-.396 1.07-1.406 1.628-2.711 1.628-1.958 0-3.199-1.2893-3.199-3.3839v-.009h9.613v-1.07c0-4.7737-2.904-7.1331-6.635-7.1331-4.154 0-6.847 2.9354-6.847 7.2704 0 4.4535 2.656 7.2335 7.003 7.2335zm-3.134-8.7151c.083-1.6005 1.305-2.8809 3.042-2.8809 1.701 0 2.877 1.2074 2.886 2.8809h-5.928zm12.167 8.4412h3.915v-7.9468c0-1.7284 1.269-2.9173 2.996-2.9173.542 0 1.287.0914 1.655.2103v-3.4569c-.35-.0824-.837-.1373-1.232-.1373-1.581 0-2.877.9146-3.391 2.6521h-.147v-2.4508h-3.796v14.0467z"/><g filter="url(#filter0_d)"><path fill="#fff" d="M79.012 39.2386c0-17.0673-13.9039-30.90315-31.0553-30.90315S16.9014 22.1713 16.9014 39.2386s13.9039 30.9031 31.0553 30.9031S79.012 56.3059 79.012 39.2386z"/></g><mask id="a" width="64" height="63" x="16" y="8" maskUnits="userSpaceOnUse"><path fill="#fff" d="M79.012 39.2386c0-17.0673-13.9039-30.90315-31.0553-30.90315S16.9014 22.1713 16.9014 39.2386s13.9039 30.9031 31.0553 30.9031S79.012 56.3059 79.012 39.2386z"/></mask><g mask="url(#a)"><path fill="url(#paint0_linear)" d="M79.012 39.2386c0-17.0673-13.9039-30.90315-31.0553-30.90315S16.9014 22.1713 16.9014 39.2386s13.9039 30.9031 31.0553 30.9031S79.012 56.3059 79.012 39.2386z"/><path fill="#9EEDFE" d="M48.0022 61.1485c10.98 5.2565 31.0098 4.7681 31.0098 4.7681v4.2251H16.9014V31.696c1.7258-2.6505 3.7049-4.3479 6.3649-4.3479 5.0819 0 7.4218 6.0456 10.1762 13.1618 3.0007 7.7528 6.4934 16.777 14.5597 20.6386z"/><path fill="url(#paint1_linear)" d="M48.0022 61.1485c10.98 5.2565 31.0098 4.7681 31.0098 4.7681v4.2251H16.9014V31.696c1.7258-2.6505 3.7049-4.3479 6.3649-4.3479 5.0819 0 7.4218 6.0456 10.1762 13.1618 3.0007 7.7528 6.4934 16.777 14.5597 20.6386z"/><path fill="url(#paint2_linear)" d="M58.5962 55.033c4.616 3.3191 10.0692 7.2399 20.4158 9.5015v5.6072H16.9014v-8.2872c5.291-2.0633 8.8222-4.6076 11.9718-6.8768 4.4307-3.1925 8.1063-5.8407 14.8635-5.8407 6.6596 0 10.3625 2.6624 14.8595 5.896z"/><g filter="url(#filter1_di)"><path fill="url(#paint3_linear)" d="M56.6911 42.8599c.2743 0 .6668-.1827.9541-.3523 7.3597-4.6985 12.0262-10.1669 12.0262-15.7267 0-4.6202-3.1767-7.883-7.2812-7.883-2.5487 0-4.5095 1.4096-5.6991 3.563-1.1633-2.1404-3.1504-3.563-5.6992-3.563-4.1045 0-7.281 3.2628-7.281 7.883 0 5.5598 4.6667 11.0282 12.0391 15.7267.2743.1696.6668.3523.9411.3523z"/></g></g><defs><linearGradient id="paint0_linear" x1="47.957" x2="17.145" y1="8.335" y2="70.263" gradientUnits="userSpaceOnUse"><stop stop-color="#fff"/><stop offset="1" stop-color="#F0FBFB"/></linearGradient><linearGradient id="paint1_linear" x1="33.157" x2="22.493" y1="83.24" y2="23.494" gradientUnits="userSpaceOnUse"><stop stop-color="#4541FE"/><stop offset=".718" stop-color="#41DCFE" stop-opacity="0"/></linearGradient><linearGradient id="paint2_linear" x1="45.536" x2="50.568" y1="71.509" y2="49.944" gradientUnits="userSpaceOnUse"><stop stop-color="#4541FE"/><stop offset=".975" stop-color="#41DCFE" stop-opacity=".5"/></linearGradient><linearGradient id="paint3_linear" x1="59.418" x2="74.593" y1="52.751" y2="25.906" gradientUnits="userSpaceOnUse"><stop stop-color="#F919E3"/><stop offset="1" stop-color="#FA3939"/></linearGradient><filter id="filter0_d" width="94.111" height="93.806" x=".901" y=".335" color-interpolation-filters="sRGB" filterUnits="userSpaceOnUse"><feFlood flood-opacity="0" result="BackgroundImageFix"/><feColorMatrix in="SourceAlpha" values="0 0 0 0 0 0 0 0 0 0 0 0 0 0 0 0 0 0 127 0"/><feOffset dy="8"/><feGaussianBlur stdDeviation="8"/><feColorMatrix values="0 0 0 0 0.0313726 0 0 0 0 0.137255 0 0 0 0 0.188235 0 0 0 0.1 0"/><feBlend in2="BackgroundImageFix" mode="multiply" result="effect1_dropShadow"/><feBlend in="SourceGraphic" in2="effect1_dropShadow" result="shape"/></filter><filter id="filter1_di" width="54.086" height="52.087" x="29.648" y="10.46" color-interpolation-filters="sRGB" filterUnits="userSpaceOnUse"><feFlood flood-opacity="0" result="BackgroundImageFix"/><feColorMatrix in="SourceAlpha" values="0 0 0 0 0 0 0 0 0 0 0 0 0 0 0 0 0 0 127 0"/><feOffset dy="5.625"/><feGaussianBlur stdDeviation="7.031"/><feColorMatrix values="0 0 0 0 0.98678 0 0 0 0 0.49322 0 0 0 0 0.938305 0 0 0 0.2 0"/><feBlend in2="BackgroundImageFix" result="effect1_dropShadow"/><feBlend in="SourceGraphic" in2="effect1_dropShadow" result="shape"/><feColorMatrix in="SourceAlpha" result="hardAlpha" values="0 0 0 0 0 0 0 0 0 0 0 0 0 0 0 0 0 0 127 0"/><feOffset/><feGaussianBlur stdDeviation=".633"/><feComposite in2="hardAlpha" k2="-1" k3="1" operator="arithmetic"/><feColorMatrix values="0 0 0 0 0.980392 0 0 0 0 0.223529 0 0 0 0 0.223529 0 0 0 1 0"/><feBlend in2="shape" result="effect2_innerShadow"/></filter></defs></svg>