<svg xmlns="http://www.w3.org/2000/svg" role="img" viewBox="52.81 18.81 243.88 189.38"><title>Herald logo</title><defs><style>.cls-4{fill:#ec7700}.cls-5{fill:#794499}.cls-6{fill:#1e4488}</style></defs><path fill="#706f73" d="M91.17 162.4v41.22h-4.68v-18.78h-24.3v18.78h-4.68V162.4h4.68v18h24.3v-18zm16.02 4.44v13.56h22.38v4.44h-22.38v14.34H132v4.44h-29.55V162.4H132v4.44zm63.21 15a13.18 13.18 0 0 1-4.59 4.62 16 16 0 0 1-6.6 2.22l10.5 14.94h-5.34l-10.44-14.82h-9.12v14.82h-4.68V162.4h16.74a17.43 17.43 0 0 1 7.68 1.68 13.45 13.45 0 0 1 5.49 4.71 12.58 12.58 0 0 1 .36 13.05zm-25.59 2.52H156a13.23 13.23 0 0 0 8.19-2.34 8.21 8.21 0 0 0 0-12.84 13.23 13.23 0 0 0-8.19-2.34h-11.19zm62.1 9.9h-23l-4.14 9.36h-5.1l18.18-41.22H198l18.18 41.22h-5.1zm-1.91-4.44l-9.54-21.66-9.6 21.66zm44.57 9.36v4.44h-27.18V162.4h4.68v36.78zm6.24-36.78h13.92a24.64 24.64 0 0 1 11.55 2.6 19.73 19.73 0 0 1 7.92 7.32 21.27 21.27 0 0 1 0 21.27 19.66 19.66 0 0 1-7.92 7.35 24.64 24.64 0 0 1-11.55 2.64h-13.92zm13.92 37a19.22 19.22 0 0 0 9.09-2.1 15.65 15.65 0 0 0 6.24-5.82 17 17 0 0 0 0-16.89 15.72 15.72 0 0 0-6.24-5.79 19.22 19.22 0 0 0-9.09-2.1h-9.24v32.7z"/><path fill="#727174" d="M174.24 26.38a52.5 52.5 0 1 0 52.5 52.5 52.51 52.51 0 0 0-52.5-52.5zm.19 98.09a45.75 45.75 0 1 1 45.75-45.75 45.75 45.75 0 0 1-45.75 45.75z"/><circle cx="174.43" cy="78.72" r="45.75" fill="#fff"/><path d="M145.27724 68.55312l2.48647-1.2208 1.32217 2.69293-2.48647 1.2208z" class="cls-4"/><path d="M150.25351 66.11213l2.48647-1.2208 1.32217 2.69293-2.48647 1.2208z" class="cls-4"/><path d="M140.3022 71.01272l2.4869-1.21993 1.32123 2.6934-2.4869 1.21993z" class="cls-4"/><path d="M137.82 72.22l-1.61.79a11 11 0 1 0-.11 11.83l1.7.82 1.3-2.7-1.72-.83a10.85 10.85 0 0 0 .06-6.38l1.7-.83z" class="cls-4"/><path d="M140.3202 86.87436l1.29956-2.70391 2.52365 1.21292-1.29956 2.70391z" class="cls-4"/><path d="M150.41267 91.72029l1.29956-2.70391 2.52365 1.21292-1.29956 2.70391z" class="cls-4"/><path d="M145.35822 89.28931l1.29956-2.7039 2.52365 1.21292-1.29956 2.7039z" class="cls-4"/><path d="M175.93373 48.59247l2.26274-2.26274 2.12132 2.12132-2.26274 2.26274z" class="cls-5"/><path d="M180.45355 44.07005l2.26275-2.26274 2.12132 2.12132-2.26274 2.26274z" class="cls-5"/><path d="M180.35327 113.0819l2.09487-2.14745 2.20471 2.15073-2.09487 2.14745z" class="cls-5"/><path d="M175.94293 108.8112l2.0945-2.14782 2.21224 2.15733-2.0945 2.14781z" class="cls-5"/><path d="M182.96023 74.55803l1.62072-2.52453 2.59185 1.66394-1.62072 2.52453z" class="cls-5"/><path d="M193.57778 81.1146l1.62292-2.52313 2.5904 1.6662-1.62292 2.52312z" class="cls-5"/><path d="M188.39426 77.78037l1.62248-2.5234 2.5907 1.66575-1.6225 2.5234z" class="cls-5"/><path d="M178.04472 71.11098l1.62292-2.52312 2.5904 1.6662-1.62292 2.52312z" class="cls-5"/><path d="M203.9318 87.76189l1.6225-2.5234 2.59068 1.66574-1.62248 2.5234z" class="cls-5"/><path d="M198.75892 84.43892l1.62249-2.5234 2.59069 1.66575-1.62249 2.5234z" class="cls-5"/><path d="M199.36742 71.824l2.58384-1.76654 1.69317 2.47652-2.58384 1.76654z" class="cls-5"/><path d="M184.99458 81.57823l2.58414-1.7661 1.69274 2.47683-2.58414 1.76609z" class="cls-5"/><path d="M194.2101 75.3507l2.58385-1.76655 1.69317 2.47652-2.58384 1.76655z" class="cls-5"/><path d="M179.84032 85.0994l2.58384-1.76655 1.69317 2.47652-2.58384 1.76654z" class="cls-5"/><path d="M174.67364 88.63579l2.58384-1.76655 1.69317 2.47653-2.58384 1.76654z" class="cls-5"/><path d="M204.53824 68.30065l2.58384-1.76654 1.69317 2.47652-2.58384 1.76655z" class="cls-5"/><path d="M164.82 72.13a11 11 0 0 0 8.52-4l2.11 1.36 1.63-2.53-2.18-1.4a10.95 10.95 0 0 0-1-10.63l1.9-1.93-2.12-2.12-1.83 1.83a11 11 0 1 0-7 19.45zm11.36 24.4a11 11 0 1 0-4.06 8.53l1.61 1.57 2.1-2.14-1.66-1.63a11 11 0 0 0 2.01-6.33z" class="cls-5"/><circle cx="192.78" cy="122.53" r="11" class="cls-6" transform="rotate(-67.5 192.774 122.53)"/><circle cx="192.78" cy="34.49" r="11" class="cls-6" transform="rotate(-13.28 192.797 34.502)"/><circle cx="218.21" cy="61.13" r="11" class="cls-6" transform="rotate(-45 218.209 61.125)"/><circle cx="218.21" cy="96.53" r="11" class="cls-6" transform="rotate(-45 218.211 96.524)"/></svg>