<svg xmlns="http://www.w3.org/2000/svg" role="img" viewBox="-2.76 -3.51 297.01 338.26"><title>How We Feel logo</title><path fill="#073ff5" d="M3.93494 327.42383v-36.97266h7.67529v14.09668h14.37256v-14.09668h7.67578v36.97266h-7.67578V310.919H11.61023v16.50488zm59.88525-3.34473q-3.46143 4.27294-10.50977 4.27246-7.04881 0-10.51025-4.27246a16.96332 16.96332 0 0 1 0-20.53808q3.46216-4.33594 10.51025-4.33594t10.50977 4.33592a16.96328 16.96328 0 0 1 0 20.53808zm-5.71919-3.95117a12.763 12.763 0 0 0 0-12.66113 5.68206 5.68206 0 0 0-4.816-2.2168 5.7165 5.7165 0 0 0-4.82861 2.2168 12.68314 12.68314 0 0 0 0 12.66113 5.703 5.703 0 0 0 4.82861 2.22949 5.6687 5.6687 0 0 0 4.816-2.22949zM85.80457 300.083h7.249l4.16406 19.69043 4.26416-19.69043h7.44971l-7.92627 27.34082h-7.34959l-4.28906-19.916-4.33936 19.916h-7.4248l-7.6753-27.34082h7.6753l4.26416 19.61523zm33.18457-9.63183L123.871 311.624l1.063 5.8916 1.06641-5.77148 4.17578-21.293h8.15234l4.39307 21.16992 1.125 5.89453 1.1416-5.666 4.92871-21.39844h7.86621l-10.40185 36.97266h-7.39747l-4.46484-21.62207-1.3042-7.14844-1.3042 7.14844-4.46484 21.62207h-7.17481L110.787 290.45117zm60.30664 10.18555a11.12328 11.12328 0 0 1 4.72461 4.04492 13.44552 13.44552 0 0 1 2.17773 5.65234 34.9356 34.9356 0 0 1 .23633 5.42579h-19.91309q.16553 4.11474 2.8584 5.76953a7.26758 7.26758 0 0 0 3.94238 1.02832 5.55179 5.55179 0 0 0 5.44043-3.13574h7.29785a8.92255 8.92255 0 0 1-2.64941 4.9414q-3.67383 3.98877-10.28613 3.98828a14.90788 14.90788 0 0 1-9.63086-3.36328q-4.17187-3.36474-4.17188-10.94629 0-7.10449 3.76661-10.89551a13.1837 13.1837 0 0 1 9.77734-3.791 15.57546 15.57546 0 0 1 6.42969 1.28124zm-10.69434 6.17578a7.4207 7.4207 0 0 0-1.9043 4.23242h12.31543a5.9625 5.9625 0 0 0-1.90429-4.32031A6.2657 6.2657 0 0 0 172.868 305.25a5.6689 5.6689 0 0 0-4.26656 1.5625zm22.53809-16.3105h26.3623v6.4961h-18.6875v8.5029h16.37988v6.42187h-16.37988v15.501h-7.6748zm49.13183 10.13472a11.12322 11.12322 0 0 1 4.72461 4.04492 13.44567 13.44567 0 0 1 2.17774 5.65234 34.93459 34.93459 0 0 1 .23632 5.42579H227.497q.16553 4.11474 2.8584 5.76953a7.26758 7.26758 0 0 0 3.94238 1.02832 5.55179 5.55179 0 0 0 5.44043-3.13574h7.29779a8.92255 8.92255 0 0 1-2.64941 4.9414q-3.67383 3.98877-10.28614 3.98828a14.90788 14.90788 0 0 1-9.63086-3.36328q-4.17187-3.36474-4.17187-10.94629 0-7.10449 3.7666-10.89551a13.1837 13.1837 0 0 1 9.77734-3.791 15.57543 15.57543 0 0 1 6.4297 1.28124zM229.577 306.8125a7.42063 7.42063 0 0 0-1.9043 4.23242h12.31543a5.96247 5.96247 0 0 0-1.9043-4.32031 6.26567 6.26567 0 0 0-4.24023-1.47461 5.66889 5.66889 0 0 0-4.2666 1.5625zm39.77835-6.17578a11.12328 11.12328 0 0 1 4.72461 4.04492 13.44552 13.44552 0 0 1 2.17773 5.65234 34.9356 34.9356 0 0 1 .23633 5.42579h-19.91309q.16552 4.11474 2.8584 5.76953a7.26758 7.26758 0 0 0 3.94238 1.02832 5.55179 5.55179 0 0 0 5.44043-3.13574H276.12a8.92263 8.92263 0 0 1-2.64942 4.9414q-3.67383 3.98877-10.28613 3.98828a14.90788 14.90788 0 0 1-9.63086-3.36328q-4.17187-3.36474-4.17188-10.94629 0-7.10449 3.76661-10.89551a13.1837 13.1837 0 0 1 9.77734-3.791 15.57546 15.57546 0 0 1 6.42969 1.28124zM258.661 306.8125a7.4207 7.4207 0 0 0-1.9043 4.23242h12.31543a5.96246 5.96246 0 0 0-1.90429-4.32031 6.2657 6.2657 0 0 0-4.24024-1.47461 5.6689 5.6689 0 0 0-4.2666 1.5625zm29.25978 20.61133h-7.14844v-36.97266h7.14844zM7.105 3v115.877h35.566V75.28h32.124v43.597h34.419V3H75.943v28.682H41.524V3H7.105zm120.466 0l28.683 115.877h33.271l18.357-60.807 14.915 60.807h33.271L284.751 3h-39.008l-9.179 57.938L220.502 3H191.82l-17.21 57.938L165.432 3h-37.861zM7.105 145.265v118.171h41.303v-34.419h39.008v-28.108H47.26v-23.52h58.512v-32.124H7.105zm194.67646 12.09645c.61129-.48913 1.20013-.74852 1.4601-1.19861 13.11632-22.71173 45.83755-18.58351 59.54188 2.27509 9.78511 14.89336 10.23766 30.8313 3.89264 47.11689-4.7974 12.3132-12.77 22.50474-21.96867 31.82392a198.6593 198.6593 0 0 1-35.39441 27.98093c-4.61309 2.92533-9.009 3.483-13.85581.40139-16.51314-10.49893-31.93561-22.29977-44.35-37.5896-11.097-13.66744-18.72294-28.66852-17.59517-47.08235 1.5151-24.73821 22.42672-43.045 45.72851-39.73437 10.23708 1.45448 17.15372 7.58361 22.54093 16.00671z"/></svg>