<svg xmlns="http://www.w3.org/2000/svg" role="img" viewBox="-18.01 -20.01 936.52 807.02"><title>Iceland (Rakning C-19) logo</title><path d="M110.99925 704.985a12.442 12.442 0 0 1 4.71582 3.5205 15.66569 15.66569 0 0 1 2.5332 4.23829 14.12847 14.12847 0 0 1 .93359 5.29785 15.08725 15.08725 0 0 1-1.81152 7.05761 10.12259 10.12259 0 0 1-5.98144 4.90528 9.41327 9.41327 0 0 1 4.93945 3.98144q1.45166 2.58107 1.45215 7.87891v3.38379a25.43366 25.43366 0 0 0 .27832 4.68262 4.20172 4.20172 0 0 0 1.94336 2.87109v1.26462h-11.6211q-.479-1.67431-.68359-2.7002a24.76754 24.76754 0 0 1-.44434-4.34082l-.06836-4.68262q-.06444-4.81934-1.665-6.42578-1.60108-1.60546-5.99707-1.60644H89.24046V754.067H78.95237v-50.38084H103.05a21.9395 21.9395 0 0 1 7.94925 1.29884zm-21.75879 7.45117v13.53515h11.33008a12.05694 12.05694 0 0 0 5.06347-.82031q2.98681-1.43554 2.98633-5.67383 0-4.58057-2.88867-6.15234a10.43481 10.43481 0 0 0-4.86914-.88867zm53.99414 18.96971a15.39249 15.39249 0 0 0 3.89062-.85449 2.93078 2.93078 0 0 0 2.10059-2.76855 3.27507 3.27507 0 0 0-1.61133-3.16211 10.192 10.192 0 0 0-4.72851-.8711q-3.49951 0-4.95508 1.709a7.054 7.054 0 0 0-1.38574 3.418h-9.39942a14.25831 14.25831 0 0 1 2.7461-8.03223q3.87889-4.92187 13.31933-4.92187a23.75426 23.75426 0 0 1 10.916 2.42675q4.77246 2.42725 4.77148 9.16016v17.08984q0 1.77832.06836 4.30664a5.408 5.408 0 0 0 .58106 2.59766 3.49124 3.49124 0 0 0 1.43554 1.12793v1.43549h-10.5957a10.88841 10.88841 0 0 1-.61523-2.11914q-.17139-.99171-.27344-2.25586a20.10913 20.10913 0 0 1-4.67578 3.72558 14.13376 14.13376 0 0 1-7.15039 1.81153 12.34277 12.34277 0 0 1-8.40625-2.8877q-3.31788-2.88867-3.31739-8.18652 0-6.87012 5.33692-9.94629a23.8405 23.8405 0 0 1 8.6084-2.39258zm5.957 4.5459a10.86826 10.86826 0 0 1-1.88867.94043 16.0754 16.0754 0 0 1-2.61621.666l-2.2168.41015a14.58142 14.58142 0 0 0-4.47754 1.333 4.44967 4.44967 0 0 0-2.30176 4.13574 4.31809 4.31809 0 0 0 1.40625 3.60547 5.337 5.337 0 0 0 3.418 1.11133 10.18007 10.18007 0 0 0 5.88282-1.8457q2.68944-1.8457 2.79394-6.7334zm18.11526-32.09472h9.57032v27.17773l12.28711-14.05273h12.11328L187.92405 730.861l13.87012 23.206H189.9387l-9.02637-15.917-4.03515 4.19335V754.067h-9.57032zM236.383 718.9469q3.6577 3.02637 3.6582 10.03223V754.067h-9.98047v-22.66112a10.4076 10.4076 0 0 0-.78027-4.51171q-1.4253-2.87111-5.42871-2.8711-4.92042 0-6.752 4.2041a14.54524 14.54524 0 0 0-.95019 5.67383v20.166h-9.74121v-37.1875h9.43365v5.43457a16.50244 16.50244 0 0 1 3.54-4.13574 12.26272 12.26272 0 0 1 7.58984-2.25586 14.28825 14.28825 0 0 1 9.41116 3.02443zm22.73051-6.5791h-9.87793v-8.98926h9.87793zm-9.87793 4.44336h9.87793V754.067h-9.87793zm49.35449 2.13574q3.65771 3.02637 3.6582 10.03223V754.067h-9.98047v-22.66112a10.4076 10.4076 0 0 0-.78027-4.51171q-1.4253-2.87111-5.42871-2.8711-4.92042 0-6.752 4.2041a14.54524 14.54524 0 0 0-.95019 5.67383v20.166h-9.74121v-37.1875h9.43359v5.43457a16.50244 16.50244 0 0 1 3.54-4.13574 12.26275 12.26275 0 0 1 7.58985-2.25586 14.28822 14.28822 0 0 1 9.41121 3.02443zm31.14648-2.1699a11.70284 11.70284 0 0 1 5.73438 5.40039v-5.36621h9.50195V752.153q0 7.21143-2.42676 10.86915-4.1704 6.28857-15.99609 6.28906-7.144 0-11.65527-2.80274a10.34127 10.34127 0 0 1-4.99024-8.374h10.5957a4.39122 4.39122 0 0 0 1.333 2.46094q1.57177 1.333 5.29785 1.333 5.26318 0 7.041-3.52051 1.16161-2.25586 1.16211-7.58789v-2.39258a11.87494 11.87494 0 0 1-3.00781 3.58887 12.09294 12.09294 0 0 1-7.55371 2.22168 14.29175 14.29175 0 0 1-11.4668-5.041q-4.29053-5.042-4.29-13.65527a23.03521 23.03521 0 0 1 4.13086-13.96192q4.12939-5.65722 11.708-5.65722a12.81126 12.81126 0 0 1 4.88183.85443zm3.31739 26.71094q2.3496-2.5796 2.34863-8.21973 0-5.29835-2.22949-8.06641a7.27491 7.27491 0 0 0-5.97266-2.76855 7.03974 7.03974 0 0 0-7.0459 4.81933 17.15908 17.15908 0 0 0-1.02148 6.32325 14.49125 14.49125 0 0 0 1.08886 5.77636 7.09927 7.09927 0 0 0 7.08008 4.7168 7.47968 7.47968 0 0 0 5.75196-2.58107zm46.05761-34.53811a20.73938 20.73938 0 0 1 15.48731-6.2207q12.57861 0 18.3955 8.33984a18.187 18.187 0 0 1 3.44825 9.39941h-10.52735a14.35113 14.35113 0 0 0-2.57812-5.46875q-2.8125-3.28125-8.33692-3.28125a10.27426 10.27426 0 0 0-8.874 4.63086q-3.24756 4.63184-3.248 13.1084 0 8.47706 3.42774 12.69824a10.73716 10.73716 0 0 0 8.709 4.22071q5.41553 0 8.25879-3.623a15.90185 15.90185 0 0 0 2.60742-5.84473h10.459a22.69249 22.69249 0 0 1-6.915 13.39844q-5.562 5.16065-14.25195 5.16113-10.75343 0-16.90723-6.97265-6.15381-7.00635-6.1543-19.209-.00014-13.19242 6.99986-20.33695zm42.01367 20.98633h19.07227v9.22851h-19.07227zm26.55762-10.04883v-6.63086a42.9483 42.9483 0 0 0 6.44336-.61523 9.07605 9.07605 0 0 0 4.77344-2.59766 8.55638 8.55638 0 0 0 1.90918-3.55469 8.18129 8.18129 0 0 0 .375-1.98242h8.13476V754.067h-9.98047v-34.17967zm40.75977-10.85254a15.57111 15.57111 0 0 1 11.94531-4.93848q11.313 0 15.51758 10.01465 2.39208 5.67482 2.39258 14.93653a42.50664 42.50664 0 0 1-2.29 15.00488q-4.3755 11.45068-16.06446 11.45019a16.38648 16.38648 0 0 1-10.01464-3.29785 13.00486 13.00486 0 0 1-5.09278-9.62207h9.707a5.861 5.861 0 0 0 1.84571 3.55469 5.71888 5.71888 0 0 0 3.999 1.36719q4.81934 0 6.76758-5.332a31.13639 31.13639 0 0 0 1.333-8.57911 10.52341 10.52341 0 0 1-2.83692 2.56348 12.87637 12.87637 0 0 1-6.7334 1.64063 15.3101 15.3101 0 0 1-10.49316-4.085q-4.58056-4.084-4.58008-11.77442.00007-7.96434 4.59768-12.90331zm16.38867 19.6709q3.31494-2.11964 3.31543-7.34863a10.3912 10.3912 0 0 0-1.96485-6.665 6.5173 6.5173 0 0 0-5.38378-2.46094 6.69335 6.69335 0 0 0-4.27247 1.40137q-2.80224 2.18847-2.80273 7.417 0 4.40918 1.79492 6.61426 1.79443 2.20313 5.51953 2.2041a6.81194 6.81194 0 0 0 3.79395-1.16216zm42.34863-12.30469a73.25346 73.25346 0 0 1 7.89551-13.53515h7.34863l-2.085 3.82812a56.99448 56.99448 0 0 0-5.98144 16.543A65.41785 65.41785 0 0 0 553.2639 735.61a58.44788 58.44788 0 0 0 3.042 19.24316 87.81082 87.81082 0 0 0 6.28906 13.33008H555.383l-2.42676-3.31543a44.413 44.413 0 0 1-5.02442-8.95508 51.009 51.009 0 0 1-4.751-20.918 46.40057 46.40057 0 0 1 3.99909-18.59373zm31.20609 37.666h-10.459v-50.38084h10.459zm31.34274-23.89158a8.63315 8.63315 0 0 0-1.4043-3.75977 5.897 5.897 0 0 0-5.10547-2.25586q-4.93359 0-6.75 4.8877a20.288 20.288 0 0 0-.959 6.88671 18.6567 18.6567 0 0 0 .959 6.58008 6.516 6.516 0 0 0 6.57911 4.64844q3.42627 0 4.86523-1.8457a9.1713 9.1713 0 0 0 1.74707-4.78516h9.94629a16.29216 16.29216 0 0 1-3.21582 8.4082q-4.585 6.39112-13.583 6.39161-8.99853 0-13.24023-5.332-4.24365-5.332-4.24317-13.82617 0-9.58593 4.6875-14.91894 4.686-5.332 12.93262-5.332 7.01367 0 11.47852 3.14453 4.46484 3.145 5.28613 11.1084zm40.92285-12.60942a15.15451 15.15451 0 0 1 6.43848 5.51172 18.31413 18.31413 0 0 1 2.96777 7.70117 47.57854 47.57854 0 0 1 .32129 7.39453h-27.13477q.22705 5.606 3.89649 7.86133a9.89058 9.89058 0 0 0 5.37109 1.40137 7.56558 7.56558 0 0 0 7.41309-4.27246h9.94531a12.15823 12.15823 0 0 1-3.61133 6.7334q-5.00536 5.43456-14.01562 5.43457a20.303 20.303 0 0 1-13.123-4.584q-5.68506-4.58349-5.68555-14.916 0-9.6797 5.13282-14.84571 5.13135-5.165 13.32226-5.166a21.20644 21.20644 0 0 1 8.76167 1.74608zm-14.57226 8.415a10.11961 10.11961 0 0 0-2.59571 5.7666h16.78223a8.12583 8.12583 0 0 0-2.59473-5.88672 8.53586 8.53586 0 0 0-5.77734-2.00879 7.72356 7.72356 0 0 0-5.81445 2.12899zm39.17187 28.086H665.51v-50.38084h9.74121zm24.2578-22.66112a15.39271 15.39271 0 0 0 3.89063-.85449 2.93077 2.93077 0 0 0 2.10058-2.76855 3.27508 3.27508 0 0 0-1.61132-3.16211 10.192 10.192 0 0 0-4.72852-.8711q-3.49952 0-4.95508 1.709a7.05413 7.05413 0 0 0-1.38574 3.418h-9.39941a14.25823 14.25823 0 0 1 2.74609-8.03223q3.87891-4.92187 13.31934-4.92187a23.75419 23.75419 0 0 1 10.916 2.42675q4.77246 2.42725 4.77149 9.16016v17.08984q0 1.77832.06836 4.30664a5.40787 5.40787 0 0 0 .58105 2.59766 3.49128 3.49128 0 0 0 1.43555 1.12793v1.43549h-10.59569a10.88981 10.88981 0 0 1-.61523-2.11914q-.17139-.99171-.27344-2.25586a20.10892 20.10892 0 0 1-4.67578 3.72558 14.13376 14.13376 0 0 1-7.15039 1.81153 12.34277 12.34277 0 0 1-8.40625-2.8877q-3.31786-2.88867-3.31738-8.18652 0-6.87012 5.33691-9.94629a23.8405 23.8405 0 0 1 8.6084-2.39258zm5.957 4.5459a10.86791 10.86791 0 0 1-1.88867.94043 16.07512 16.07512 0 0 1-2.61621.666l-2.2168.41015a14.58134 14.58134 0 0 0-4.47753 1.333 4.44967 4.44967 0 0 0-2.30176 4.13574 4.31809 4.31809 0 0 0 1.40625 3.60547 5.337 5.337 0 0 0 3.418 1.11133 10.18006 10.18006 0 0 0 5.88281-1.8457q2.68945-1.8457 2.79394-6.7334zm48.26079-17.00488q3.6577 3.02637 3.6582 10.03223V754.067h-9.98047v-22.66112a10.4076 10.4076 0 0 0-.78027-4.51171q-1.4253-2.87111-5.42871-2.8711-4.92042 0-6.752 4.2041a14.54524 14.54524 0 0 0-.95019 5.67383v20.166h-9.74121v-37.1875h9.43359v5.43457a16.50244 16.50244 0 0 1 3.54-4.13574 12.26272 12.26272 0 0 1 7.58984-2.25586 14.28825 14.28825 0 0 1 9.41122 3.02443zm32.47168-1.53711a11.81774 11.81774 0 0 1 4.27246 4.11816v-17.77343h9.87793V754.067h-9.46778v-5.16114a13.73465 13.73465 0 0 1-4.751 4.81934 13.33371 13.33371 0 0 1-6.63086 1.50391 13.84585 13.84585 0 0 1-10.98828-5.28028q-4.46046-5.28222-4.46094-13.55273 0-9.53613 4.39258-15.00488a14.28828 14.28828 0 0 1 11.74023-5.46875 12.00716 12.00716 0 0 1 6.01566 1.48732zm2.39257 26.54a13.58968 13.58968 0 0 0 2.15332-7.96387q0-6.835-3.45214-9.77539a7.43242 7.43242 0 0 0-4.92188-1.77734 6.83915 6.83915 0 0 0-6.27148 3.23047 17.41062 17.41062 0 0 0 .03418 16.26953 6.87825 6.87825 0 0 0 6.16896 3.09281 7.19241 7.19241 0 0 0 6.289-3.07617zM820.761 716.401a46.47355 46.47355 0 0 1 3.99218 18.59375 51.088 51.088 0 0 1-4.74218 20.918 44.4994 44.4994 0 0 1-5.01563 8.95508l-2.42285 3.31543h-7.19922a87.9873 87.9873 0 0 0 6.2666-13.33008 58.654 58.654 0 0 0 3.03025-19.24318 65.7581 65.7581 0 0 0-1.08887-12.37305 57.17117 57.17117 0 0 0-5.96-16.543l-2.07715-3.82812h7.33594A73.3332 73.3332 0 0 1 820.761 716.401z"/><path fill="#02529c" d="M.48369-1.96884h900.38038V646.305H.48369z"/><path d="M.48369 322.16809h900.38038M324.62063-1.96884V646.305"/><path fill="#fff" d="M424.619 646.307h-200V422.168H.484v-200h224.135V-1.967h200v224.135h476.245v200H424.619v224.139z"/><path d="M.48369 322.16809h900.38038M324.62063-1.96884V646.305"/><path fill="#dc1e35" d="M374.621 646.304h-100V372.168H.485v-100h274.136V-1.969h100v274.137h526.243v100H374.621v274.136z"/></svg>