<svg xmlns="http://www.w3.org/2000/svg" role="img" viewBox="-17.47 -19.47 934.44 769.44"><title>India (Aarogya Setu) logo</title><defs><style>.cls-2{fill:#fff}.cls-4{fill:#008}</style></defs><path fill="#f93" d="M.675-1.519h898.65v599.1H.675z"/><path d="M.675 198.181h898.65v199.7H.675z" class="cls-2"/><path fill="#128807" d="M.675 397.881h898.65v199.7H.675z"/><circle cx="450" cy="298.031" r="79.88" class="cls-4"/><circle cx="450" cy="298.031" r="69.895" class="cls-2"/><circle cx="450" cy="298.031" r="13.979" class="cls-4"/><g id="d"><g id="c"><g id="b"><g id="a"><circle cx="519.297" cy="307.154" r="3.495" class="cls-4"/><path d="M450 367.92616l2.3964-41.937-2.3964-19.97-2.3964 19.97z" class="cls-4"/></g><g id="a-2" data-name="a"><circle cx="514.575" cy="324.779" r="3.495" class="cls-4"/><path d="M431.90984 365.54454l13.16884-39.88779 2.85387-19.90977-7.48336 18.6693z" class="cls-4"/></g></g><g id="b-2" data-name="b"><g id="a-3" data-name="a"><circle cx="505.451" cy="340.581" r="3.495" class="cls-4"/><path d="M415.0525 358.562l23.04384-35.1203 7.90966-18.4927-12.06034 16.0963z" class="cls-4"/></g><g id="a-4" data-name="a"><circle cx="492.549" cy="353.483" r="3.495" class="cls-4"/><path d="M400.57677 347.45439l31.34845-27.95939 12.42641-15.81543-15.81543 12.42637z" class="cls-4"/></g></g></g><g id="c-2" data-name="c"><g id="b-3" data-name="b"><g id="a-5" data-name="a"><circle cx="476.748" cy="362.606" r="3.495" class="cls-4"/><path d="M389.46916 332.97866l37.5167-18.89316 16.09633-12.06034-18.49273 7.90966z" class="cls-4"/></g><g id="a-6" data-name="a"><circle cx="459.123" cy="367.328" r="3.495" class="cls-4"/><path d="M382.48662 316.12132l41.12826-8.53935 18.6693-7.48336-19.90977 2.85387z" class="cls-4"/></g></g><g id="b-4" data-name="b"><g id="a-7" data-name="a"><circle cx="440.877" cy="367.328" r="3.495" class="cls-4"/><path d="M380.105 298.03116l41.937 2.3964 19.97-2.3964-19.97-2.3964z" class="cls-4"/></g><g id="a-8" data-name="a"><circle cx="423.252" cy="362.606" r="3.495" class="cls-4"/><path d="M382.48662 279.941l39.88779 13.16884 19.90977 2.85387-18.6693-7.48336z" class="cls-4"/></g></g></g></g><g id="d-2" data-name="d"><g id="c-3" data-name="c"><g id="b-5" data-name="b"><g id="a-9" data-name="a"><circle cx="407.451" cy="353.483" r="3.495" class="cls-4"/><path d="M389.46916 263.08366l35.1203 23.04384 18.49273 7.90966-16.09633-12.06034z" class="cls-4"/></g><g id="a-10" data-name="a"><circle cx="394.549" cy="340.581" r="3.495" class="cls-4"/><path d="M400.57677 248.60793l27.95943 31.34845 15.81543 12.42641-12.42641-15.81543z" class="cls-4"/></g></g><g id="b-6" data-name="b"><g id="a-11" data-name="a"><circle cx="385.425" cy="324.779" r="3.495" class="cls-4"/><path d="M415.0525 237.50032l18.89316 37.5167 12.06034 16.09633-7.90966-18.49273z" class="cls-4"/></g><g id="a-12" data-name="a"><circle cx="380.703" cy="307.154" r="3.495" class="cls-4"/><path d="M431.90984 230.51778l8.53935 41.12826 7.48336 18.6693-2.85387-19.90977z" class="cls-4"/></g></g></g><g id="c-4" data-name="c"><g id="b-7" data-name="b"><g id="a-13" data-name="a"><circle cx="380.703" cy="288.908" r="3.495" class="cls-4"/><path d="M450 228.13616l-2.3964 41.937 2.3964 19.97 2.3964-19.97z" class="cls-4"/></g><g id="a-14" data-name="a"><circle cx="385.425" cy="271.284" r="3.495" class="cls-4"/><path d="M468.09016 230.51778l-13.16884 39.88779-2.85387 19.90978 7.48336-18.66931z" class="cls-4"/></g></g><g id="b-8" data-name="b"><g id="a-15" data-name="a"><circle cx="394.549" cy="255.482" r="3.495" class="cls-4"/><path d="M484.9475 237.50032l-23.04384 35.1203-7.90966 18.49273 12.06034-16.09635z" class="cls-4"/></g><g id="a-16" data-name="a"><circle cx="407.451" cy="242.58" r="3.495" class="cls-4"/><path d="M499.42323 248.60793l-31.34845 27.95943-12.42641 15.81543 15.81543-12.42641z" class="cls-4"/></g></g></g></g><g id="d-3" data-name="d"><g id="c-5" data-name="c"><g id="b-9" data-name="b"><g id="a-17" data-name="a"><circle cx="423.252" cy="233.457" r="3.495" class="cls-4"/><path d="M510.53084 263.08366l-37.5167 18.89316-16.09633 12.06034 18.49273-7.90966z" class="cls-4"/></g><g id="a-18" data-name="a"><circle cx="440.877" cy="228.734" r="3.495" class="cls-4"/><path d="M517.51338 279.941l-41.12826 8.53935-18.6693 7.48336 19.90977-2.85387z" class="cls-4"/></g></g><g id="b-10" data-name="b"><g id="a-19" data-name="a"><circle cx="459.123" cy="228.734" r="3.495" class="cls-4"/><path d="M519.895 298.03116l-41.937-2.3964-19.97 2.3964 19.97 2.3964z" class="cls-4"/></g><g id="a-20" data-name="a"><circle cx="476.748" cy="233.457" r="3.495" class="cls-4"/><path d="M517.51338 316.12132l-39.88779-13.16884-19.90977-2.85387 18.6693 7.48336z" class="cls-4"/></g></g></g><g id="c-6" data-name="c"><g id="b-11" data-name="b"><g id="a-21" data-name="a"><circle cx="492.549" cy="242.58" r="3.495" class="cls-4"/><path d="M510.53084 332.97866l-35.1203-23.04384-18.49273-7.90966 16.09633 12.06034z" class="cls-4"/></g><g id="a-22" data-name="a"><circle cx="505.451" cy="255.482" r="3.495" class="cls-4"/><path d="M499.42323 347.45439l-27.95943-31.34845-15.81543-12.42641 12.42641 15.81547z" class="cls-4"/></g></g><g id="b-12" data-name="b"><g id="a-23" data-name="a"><circle cx="514.575" cy="271.284" r="3.495" class="cls-4"/><path d="M484.9475 358.562l-18.89316-37.5167L453.994 304.949l7.90966 18.49273z" class="cls-4"/></g><g id="a-24" data-name="a"><circle cx="519.297" cy="288.908" r="3.495" class="cls-4"/><path d="M468.09016 365.54454l-8.53935-41.12826-7.48336-18.6693 2.85387 19.90977z" class="cls-4"/></g></g></g></g><path d="M131.35353 717.20276h-10.459V666.8219h10.459zm39.0996-35.11914q3.65919 3.0249 3.65918 10.03125v25.08789h-9.98046V694.5426a10.41637 10.41637 0 0 0-.78028-4.51172q-1.42676-2.87109-5.42871-2.87109-4.9204 0-6.75195 4.20313a14.5338 14.5338 0 0 0-.9502 5.67382v20.166h-9.74121v-37.1875h9.4336v5.43555a16.52682 16.52682 0 0 1 3.53906-4.13672 12.26764 12.26764 0 0 1 7.59082-2.25586 14.28067 14.28067 0 0 1 9.41015 3.02541zm32.47266-1.53809a11.84129 11.84129 0 0 1 4.27246 4.11817v-17.77344h9.87793v50.3125h-9.46777v-5.16016a13.73932 13.73932 0 0 1-4.751 4.81836 13.33623 13.33623 0 0 1-6.63086 1.50391 13.84484 13.84484 0 0 1-10.98926-5.28027q-4.46045-5.28077-4.46-13.55176 0-9.53613 4.3916-15.00586a14.2929 14.2929 0 0 1 11.74122-5.46875 12.01727 12.01727 0 0 1 6.01568 1.4873zm2.39258 26.54a13.58854 13.58854 0 0 0 2.15332-7.96289q0-6.83643-3.45215-9.77539a7.42736 7.42736 0 0 0-4.92187-1.77734 6.842 6.842 0 0 0-6.27247 3.22949 17.4181 17.4181 0 0 0 .03418 16.26953 6.87884 6.87884 0 0 0 6.16993 3.09277 7.19243 7.19243 0 0 0 6.28906-3.07613zm30.625-31.58199h-9.87793v-8.98828h9.87793zm-9.87793 4.44336h9.87793v37.25586h-9.87793zm34.06738 14.5957a15.43794 15.43794 0 0 0 3.89063-.85547 2.92964 2.92964 0 0 0 2.10058-2.76757 3.27317 3.27317 0 0 0-1.61133-3.16211 10.18389 10.18389 0 0 0-4.72949-.8711q-3.498 0-4.9541 1.709a7.04069 7.04069 0 0 0-1.38574 3.418H244.044a14.25425 14.25425 0 0 1 2.7461-8.03321q3.87891-4.92187 13.31933-4.92187a23.74785 23.74785 0 0 1 10.916 2.42773q4.771 2.42579 4.77148 9.16016V707.736q0 1.77686.06836 4.30664a5.41447 5.41447 0 0 0 .58106 2.59766 3.47679 3.47679 0 0 0 1.43555 1.12695v1.43555h-10.59574a10.73537 10.73537 0 0 1-.61523-2.11914q-.17139-.99024-.27344-2.25586a20.1079 20.1079 0 0 1-4.67578 3.72656 14.13424 14.13424 0 0 1-7.15137 1.81055 12.34019 12.34019 0 0 1-8.40527-2.8877q-3.31788-2.8872-3.31738-8.18652 0-6.87012 5.33691-9.94531a23.81462 23.81462 0 0 1 8.6084-2.39258zm5.95606 4.54493a10.69843 10.69843 0 0 1-1.88868.94042 15.94448 15.94448 0 0 1-2.61523.667l-2.21777.41015a14.5949 14.5949 0 0 0-4.47754 1.332 4.44939 4.44939 0 0 0-2.30078 4.13672 4.31894 4.31894 0 0 0 1.40527 3.60547 5.34342 5.34342 0 0 0 3.41895 1.11133 10.18228 10.18228 0 0 0 5.88281-1.8457q2.68946-1.8457 2.793-6.73438zm40.16212-19.55079a73.31711 73.31711 0 0 1 7.8955-13.53515h7.34864l-2.085 3.82812a57.0045 57.0045 0 0 0-5.98145 16.543 65.43338 65.43338 0 0 0-1.09375 12.37305 58.458 58.458 0 0 0 3.042 19.24414 87.81006 87.81006 0 0 0 6.28907 13.33008h-7.21192l-2.42676-3.31641a44.41276 44.41276 0 0 1-5.02441-8.95508 50.98642 50.98642 0 0 1-4.751-20.918 46.40391 46.40391 0 0 1 3.99908-18.59375zm36.0078-12.71484h11.91211l17.82422 50.38086h-11.416l-3.32422-10.35547h-18.55275l-3.416 10.35547h-11.01174zm-.69336 31.34375h12.90234l-6.36425-19.82422zm50.80856-3.62305a15.43794 15.43794 0 0 0 3.89063-.85547 2.92964 2.92964 0 0 0 2.10058-2.76757 3.27318 3.27318 0 0 0-1.61132-3.16211 10.18394 10.18394 0 0 0-4.7295-.8711q-3.498 0-4.9541 1.709a7.04069 7.04069 0 0 0-1.38574 3.418h-9.39941a14.25417 14.25417 0 0 1 2.74609-8.03321q3.87891-4.92187 13.31934-4.92187a23.74783 23.74783 0 0 1 10.916 2.42773q4.771 2.42579 4.77149 9.16016V707.736q0 1.77686.06835 4.30664a5.41447 5.41447 0 0 0 .58106 2.59766 3.47679 3.47679 0 0 0 1.43555 1.12695v1.43555h-10.59567a10.73537 10.73537 0 0 1-.61523-2.11914q-.17139-.99024-.27344-2.25586a20.1079 20.1079 0 0 1-4.67578 3.72656 14.13424 14.13424 0 0 1-7.15137 1.81055 12.34019 12.34019 0 0 1-8.40527-2.8877q-3.31786-2.8872-3.31738-8.18652 0-6.87012 5.33691-9.94531a23.81462 23.81462 0 0 1 8.6084-2.39258zm5.95606 4.54493a10.69868 10.69868 0 0 1-1.88867.94042 15.94491 15.94491 0 0 1-2.61524.667l-2.21777.41015a14.5949 14.5949 0 0 0-4.47754 1.332 4.44939 4.44939 0 0 0-2.30078 4.13672 4.31894 4.31894 0 0 0 1.40527 3.60547 5.34342 5.34342 0 0 0 3.41895 1.11133 10.18228 10.18228 0 0 0 5.88281-1.8457q2.68945-1.8457 2.793-6.73438zm38.91409-20.01172c.125.01172.4043.02929.83789.05078v9.98047q-.92284-.10254-1.64062-.13672-.71778-.03224-1.16211-.03321-5.8799 0-7.89551 3.82813a14.89121 14.89121 0 0 0-1.12793 6.63086v17.80664h-9.80957V679.9469h9.29687v6.4941a20.58981 20.58981 0 0 1 3.93067-5.0918 10.6957 10.6957 0 0 1 7.10937-2.291c.18164.00003.33594.00589.46094.01761zm37.61523 33.57031q-4.71679 5.82129-14.32128 5.82226-9.605 0-14.32129-5.82226a23.11486 23.11486 0 0 1 0-27.98633q4.71679-5.90918 14.32129-5.9082 9.60351 0 14.32128 5.9082a23.11486 23.11486 0 0 1 0 27.98633zm-7.793-5.38477q2.28954-3.03809 2.29-8.63476 0-5.59717-2.29-8.61719a8.65654 8.65654 0 0 0-13.14258 0q-2.30714 3.0205-2.30664 8.61719 0 5.59863 2.30664 8.63476a8.62758 8.62758 0 0 0 13.14258 0zm37.91215-27.34765a11.69193 11.69193 0 0 1 5.73535 5.40039v-5.36719h9.50195v35.3418q0 7.21289-2.42676 10.86914-4.17041 6.29-15.99609 6.28906-7.144 0-11.65528-2.80273a10.33869 10.33869 0 0 1-4.99023-8.37305h10.5957a4.39122 4.39122 0 0 0 1.333 2.46094q1.57178 1.333 5.29785 1.332 5.26318 0 7.041-3.51953 1.16161-2.25587 1.16211-7.58789v-2.39258a11.88381 11.88381 0 0 1-3.00781 3.58789 12.08908 12.08908 0 0 1-7.55372 2.22265 14.2945 14.2945 0 0 1-11.46777-5.042q-4.28906-5.04052-4.28906-13.65527a23.04125 23.04125 0 0 1 4.12988-13.96192q4.13086-5.65575 11.709-5.65722a12.78334 12.78334 0 0 1 4.88088.85551zm3.31835 26.71093q2.34814-2.58105 2.34864-8.2207 0-5.29687-2.22949-8.0664a7.27467 7.27467 0 0 0-5.97364-2.76758 7.04053 7.04053 0 0 0-7.0459 4.81836 17.1622 17.1622 0 0 0-1.0205 6.32422 14.46945 14.46945 0 0 0 1.08886 5.77539 7.09844 7.09844 0 0 0 7.08008 4.71679 7.48014 7.48014 0 0 0 5.75195-2.58008zm22.48047 17.72266l1.23047.06836a15.38111 15.38111 0 0 0 2.73438-.10352 4.90493 4.90493 0 0 0 2.1875-.78515 5.27233 5.27233 0 0 0 1.58886-2.42774 5.84457 5.84457 0 0 0 .63282-2.25586l-13.68946-38.89648h10.835l8.13477 27.48047 7.69043-27.48047h10.35645l-12.77247 36.64063q-3.70165 10.59668-5.85742 13.14257-2.15625 2.5459-8.623 2.54688-1.30078 0-2.0879-.01758-.78661-.01758-2.36035-.11914zm52.2168-29.80469a15.43794 15.43794 0 0 0 3.89063-.85547 2.92964 2.92964 0 0 0 2.10058-2.76757 3.27317 3.27317 0 0 0-1.61133-3.16211 10.18392 10.18392 0 0 0-4.72949-.8711q-3.498 0-4.9541 1.709a7.04069 7.04069 0 0 0-1.38574 3.418h-9.39942a14.25425 14.25425 0 0 1 2.7461-8.03321q3.87889-4.92187 13.31933-4.92187a23.74785 23.74785 0 0 1 10.916 2.42773q4.771 2.42579 4.77148 9.16016V707.736q0 1.77686.06836 4.30664a5.41447 5.41447 0 0 0 .58106 2.59766 3.47682 3.47682 0 0 0 1.43554 1.12695v1.43555h-10.5957a10.73537 10.73537 0 0 1-.61523-2.11914q-.17139-.99024-.27344-2.25586a20.1079 20.1079 0 0 1-4.67578 3.72656 14.13424 14.13424 0 0 1-7.15137 1.81055 12.34019 12.34019 0 0 1-8.40527-2.8877q-3.31788-2.8872-3.31739-8.18652 0-6.87012 5.33692-9.94531a23.81462 23.81462 0 0 1 8.6084-2.39258zm5.95605 4.54493a10.698 10.698 0 0 1-1.88867.94042 15.94448 15.94448 0 0 1-2.61523.667l-2.21777.41015a14.5949 14.5949 0 0 0-4.47754 1.332 4.4494 4.4494 0 0 0-2.30079 4.13672 4.319 4.319 0 0 0 1.40528 3.60547 5.34342 5.34342 0 0 0 3.41894 1.11133 10.18229 10.18229 0 0 0 5.88282-1.8457q2.68944-1.8457 2.793-6.73438zm46.04102 2.56447a10.21669 10.21669 0 0 0 1.91895 5.16015q2.61766 3.11133 8.96875 3.11133a19.30187 19.30187 0 0 0 6.17773-.82031q4.50147-1.57325 4.50195-5.8457a4.30612 4.30612 0 0 0-2.20507-3.86133 23.92786 23.92786 0 0 0-6.99512-2.35938l-5.4541-1.19531q-8.042-1.77832-11.04883-3.86328-5.09326-3.48633-5.09278-10.90234a14.48218 14.48218 0 0 1 4.98243-11.2461q4.98194-4.47655 14.63574-4.47656a22.44124 22.44124 0 0 1 13.75391 4.2207q5.69091 4.22169 5.96875 12.25391h-10.11719a7.21483 7.21483 0 0 0-4.06543-6.46094 13.93768 13.93768 0 0 0-6.27149-1.26367 11.94052 11.94052 0 0 0-6.6582 1.64063 5.19119 5.19119 0 0 0-2.4873 4.58007 4.32054 4.32054 0 0 0 2.45312 4.03321 30.48535 30.48535 0 0 0 6.69336 2.084l8.84082 2.08594a22.51026 22.51026 0 0 1 8.71387 3.65625q4.5044 3.55664 4.50488 10.28906a14.45528 14.45528 0 0 1-5.33789 11.4668q-5.33789 4.563-15.08008 4.5625-9.94922 0-15.64941-4.49414-5.70117-4.49415-5.7002-12.35547zm62.59278-20.95022a15.153 15.153 0 0 1 6.4375 5.51172 18.30651 18.30651 0 0 1 2.96875 7.70215 47.59021 47.59021 0 0 1 .32032 7.39453h-27.1338q.227 5.6045 3.89551 7.86133a9.9034 9.9034 0 0 0 5.37109 1.40039 7.56733 7.56733 0 0 0 7.41406-4.27148h9.94531a12.16212 12.16212 0 0 1-3.61132 6.73242q-5.00684 5.43456-14.01661 5.43554a20.31024 20.31024 0 0 1-13.123-4.584q-5.68506-4.585-5.68457-14.916 0-9.67968 5.13183-14.8457 5.13282-5.16649 13.32325-5.166a21.22193 21.22193 0 0 1 8.76168 1.7451zm-14.57324 8.415a10.12479 10.12479 0 0 0-2.59472 5.76758h16.78222a8.12469 8.12469 0 0 0-2.5957-5.88672 8.5317 8.5317 0 0 0-5.77735-2.00976 7.72881 7.72881 0 0 0-5.81446 2.12894zm25.39843-1.88863v-6.93945h5.19531v-10.39063h9.63867v10.39063h6.04983v6.93945h-6.04981v19.6875q0 2.28955.58106 2.85352.58008.564 3.55469.56445.44383 0 .93945-.01758.49512-.01758.97461-.05078v7.2793l-4.61426.17187q-6.90528.2373-9.43359-2.39258-1.64062-1.67577-1.64063-5.16211v-22.93359zm36.8457-7.28125v22.457a11.80526 11.80526 0 0 0 .748 4.78516q1.32714 2.83593 5.20312 2.83594 4.96582 0 6.80274-4.03321a14.6751 14.6751 0 0 0 .95215-5.77539v-20.2695h9.87793v37.25586h-9.46773v-5.26367q-.13623.17284-.68164 1.02539a6.80036 6.80036 0 0 1-1.29492 1.5039 13.503 13.503 0 0 1-4.41406 2.80274 14.99171 14.99171 0 0 1-4.99317.75195q-8.24853 0-11.11132-5.94726-1.60254-3.28125-1.60157-9.67188v-22.457zm44.61133-.41016a46.47707 46.47707 0 0 1 3.99219 18.59375 51.08113 51.08113 0 0 1-4.74219 20.918 44.49486 44.49486 0 0 1-5.0166 8.95508l-2.42188 3.31641h-7.19921a88.0623 88.0623 0 0 0 6.26562-13.33008 58.664 58.664 0 0 0 3.03125-19.24414 65.68826 65.68826 0 0 0-1.08984-12.37305 57.17918 57.17918 0 0 0-5.959-16.543l-2.07812-3.82812h7.33593a73.35026 73.35026 0 0 1 7.88185 13.53515z"/></svg>