<svg xmlns="http://www.w3.org/2000/svg" role="img" viewBox="-23.98 -23.98 1246.96 755.96"><title>Ireland (COVID Tracker) logo</title><path fill="#169b62" d="M0 0h1200v600H0z"/><path fill="#fff" d="M400 0h800v600H400z"/><path fill="#ff883e" d="M800 0h400v600H800z"/><path d="M119.62951 691.06864V627.4259h-13.2149v63.64274zm-6.60745-64.89545zm44.152 16.7274c-.15966-.01228-.35617-.01228-.58952-.01228-3.68445 0-6.68113.95796-8.97777 2.88615-1.41238 1.15446-3.07038 3.30373-4.96173 6.43551v-8.20404h-11.7534v47.0627h12.39204v-22.48742c0-3.7827.47898-6.5706 1.42465-8.38826 1.70713-3.21776 5.02314-4.82663 9.98486-4.82663.36845 0 .8597.01228 1.4615.03684.6018.03684 1.30184.08597 2.07557.17194v-12.60082c-.55266-.03684-.89654-.04912-1.0562-.07369zm20.20306 12.67451c1.57204-1.78082 3.7827-2.67737 6.63201-2.67737 2.61596 0 4.81435.84743 6.58289 2.53 1.76853 1.68256 2.75105 4.15114 2.95984 7.40574h-19.13458c.4053-3.0581 1.38781-5.46527 2.95984-7.25837zm17.20638-10.6235c-3.14406-1.4615-6.66885-2.19839-10.57437-2.19839-6.59516 0-11.96218 2.17383-16.08876 6.52148-4.12659 4.34765-6.18988 10.59894-6.18988 18.74157 0 8.6953 2.28436 14.97115 6.86536 18.82754 4.56872 3.8564 9.84976 5.78459 15.84314 5.78459 7.24608 0 12.89557-2.29664 16.9239-6.86536 2.5914-2.88615 4.04062-5.72318 4.35994-8.51108h-12.56398c-.6632 1.3878-1.42465 2.46858-2.28436 3.24231-1.58431 1.43694-3.6476 2.16155-6.1776 2.16155-2.39489 0-4.43361-.58951-6.12846-1.78082-2.80018-1.89135-4.27396-5.20736-4.4459-9.92345h32.20209c.0614-4.06518-.07369-7.1724-.38073-9.33394-.55267-3.68445-1.74397-6.91449-3.5862-9.71467-2.051-3.15634-4.6424-5.47755-7.77419-6.95133zm-9.71466-2.19839zm42.30977 48.31543V627.4259h-12.30607v63.64274zm37.96211-22.88044v4.581c-.09825 4.1143-1.25271 6.95133-3.48794 8.4988-2.22296 1.55975-4.66697 2.33348-7.3075 2.33348-1.67028 0-3.09493-.4667-4.26168-1.40009-1.16674-.9334-1.74397-2.4563-1.74397-4.55643 0-2.35805.94568-4.10202 2.8493-5.23192 1.11762-.6632 2.98441-1.21587 5.56353-1.68257l2.76333-.51582c1.38781-.25791 2.46859-.54039 3.26688-.83514.78602-.30704 1.57204-.70005 2.35805-1.1913zm-7.47943-5.74774l-4.188.51582c-4.74065.61408-8.33913 1.62116-10.79543 3.03353-4.45819 2.5914-6.69342 6.7794-6.69342 12.56398 0 4.45818 1.4001 7.90928 4.17571 10.34102 2.77562 2.43174 6.28813 3.6476 10.54981 3.6476 3.34057 0 6.33725-.76145 8.99006-2.29663 2.21067-1.28956 4.16343-2.8616 5.87055-4.70382.08598 1.0685.1965 2.01417.34389 2.8493.1351.83515.40529 1.7317.77373 2.67738h13.38684v-1.81767c-.81058-.36844-1.41238-.84742-1.81767-1.42465-.40529-.56495-.63863-1.658-.73689-3.27916-.04912-2.1247-.08597-3.94236-.08597-5.4407v-21.5786c0-5.67405-1.9896-9.53044-5.99337-11.58146-4.00377-2.03872-8.58477-3.05809-13.73072-3.05809-7.92156 0-13.49736 2.0633-16.75196 6.21444-2.05101 2.6528-3.1932 6.03022-3.4511 10.14452h11.86393c.29475-1.81766.87198-3.2546 1.73169-4.3108 1.20358-1.44922 3.26688-2.16155 6.1776-2.16155 2.59139 0 4.55643.36844 5.89511 1.09305 1.33869.7369 2.00189 2.07558 2.00189 4.00377 0 1.58431-.87199 2.73878-2.62824 3.48795-.98252.44213-2.61596.7983-4.88804 1.08077zm.65092-19.68725zm68.06407 3.95465c-3.09494-2.55455-7.07414-3.81955-11.93762-3.81955-3.88095 0-7.08642.94568-9.6287 2.8493-1.40008 1.05622-2.89843 2.8002-4.48274 5.21965v-6.86536H288.451v46.97674h12.25694V665.5968c0-2.91072.40529-5.29333 1.21586-7.1724 1.54747-3.53707 4.42134-5.3056 8.58477-5.3056 3.40198 0 5.69862 1.20358 6.91449 3.62303.6632 1.3264.9948 3.23004.9948 5.69862v28.62818h12.60082v-31.68627c0-5.9074-1.54747-10.13224-4.6424-12.67451zm-16.46949-3.95464zm57.4283 2.01416c-2.21068-1.25271-4.75295-1.87907-7.60225-1.87907-6.18988 0-11.12704 2.29664-14.82378 6.9022-3.709 4.60557-5.55123 10.93054-5.55123 18.96264 0 6.96361 1.87907 12.66223 5.6372 17.12041 3.75814 4.4459 8.37599 6.66886 13.8781 6.66886 3.34057 0 6.12847-.63864 8.37598-1.90364 2.24752-1.265 4.2494-3.29144 6.00566-6.09162v6.52148h11.9499v-63.55677h-12.478v22.45059c-1.37554-2.21067-3.18092-3.94237-5.39159-5.19508zm3.02124 33.5285c-1.81766 2.57911-4.45818 3.88095-7.94613 3.88095-3.47566 0-6.07934-1.30184-7.78647-3.90552-1.7194-2.60368-2.57911-6.07934-2.57911-10.427 0-4.02832.84742-7.40573 2.52999-10.13223 1.68256-2.71421 4.32308-4.07746 7.92156-4.07746 2.35805 0 4.43362.74918 6.21444 2.24752 2.91072 2.46858 4.37222 6.59516 4.37222 12.3429 0 4.12659-.90884 7.47944-2.7265 10.07084zm53.49822-35.54266c-3.74586 8.63389-5.61265 17.15725-5.61265 25.5578 0 7.28293 1.43694 14.52901 4.3108 21.72597 2.4563 6.18988 6.00566 12.478 10.67263 18.86438h7.29521l-2.62824-4.8389c-3.63532-6.66886-6.15303-13.65703-7.5654-20.93996-.92112-4.74066-1.37553-9.93574-1.37553-15.58523 0-8.74443 1.1913-16.666 3.5862-23.74014 1.43693-4.23712 4.15114-10.00942 8.15491-17.31691l-7.08642-.08597-3.0581 4.22483c-2.39489 3.316-4.61784 7.35662-6.69341 12.13412zm33.725-8.67074c-5.96881 6.00565-8.94094 14.57814-8.94094 25.68061 0 10.27962 2.61596 18.37313 7.86016 24.26825 5.23192 5.87055 12.42888 8.80583 21.59088 8.80583 7.39346 0 13.46052-2.17382 18.1889-6.52147 4.74066-4.33537 7.68822-9.98486 8.8304-16.92391h-13.16577c-.89655 3.27916-2.01416 5.74774-3.36513 7.38118-2.44402 3.0581-6.00565 4.581-10.66034 4.581-4.55644 0-8.3023-1.78082-11.24985-5.33017-2.95985-3.56164-4.43363-8.90409-4.43363-16.03964 0-7.13555 1.4001-12.66223 4.188-16.55546 2.80018-3.90552 6.60744-5.85828 11.44635-5.85828 4.75294 0 8.33914 1.38781 10.74632 4.15115 1.36324 1.54747 2.46858 3.85639 3.32828 6.9022h13.30087c-.20879-3.96692-1.67029-7.92157-4.40906-11.8762-4.94945-7.01274-12.77276-10.52525-23.48223-10.52525-8.00754 0-14.59042 2.61596-19.77321 7.86016zm19.3802-8.59705zm78.99461 50.2559c-3.09494 3.89323-7.27065 5.8337-12.53941 5.8337s-9.46904-1.94047-12.6131-5.8337c-3.13178-3.88096-4.70382-9.40763-4.70382-16.58003 0-7.16012 1.57204-12.68679 4.70382-16.58003 3.14406-3.88095 7.34434-5.8337 12.6131-5.8337 5.26876 0 9.44447 1.95275 12.53941 5.85827 3.09494 3.89323 4.6424 9.4199 4.6424 16.55546 0 7.1724-1.54746 12.69907-4.6424 16.58002zm8.31458 9.67782c6.41094-6.07935 9.6287-14.82377 9.6287-26.25785 0-11.65514-3.21776-20.41185-9.6287-26.24557-4.81435-4.96172-11.76568-7.4303-20.854-7.4303-9.10058 0-16.05191 2.46858-20.85398 7.4303-6.44779 5.83372-9.67782 14.59043-9.67782 26.24557 0 11.43408 3.23003 20.1785 9.67782 26.25785 4.80207 4.94944 11.7534 7.41802 20.85399 7.41802 9.0883 0 16.03964-2.46858 20.85399-7.41802zm-20.854-59.93372zm77.88928 1.94047l-13.95178 48.31542-13.81669-48.31542h-14.19741l21.49262 63.64274h12.57626l21.71369-63.64274zm33.89694 63.64274V627.4259h-13.2149v63.64274zm-6.60745-64.89545zm31.90734 12.30606H692.758c6.0425 0 10.08311 1.7317 12.10956 5.20736 2.03873 3.46338 3.04581 8.43739 3.04581 14.90974 0 4.69153-.67548 8.74443-2.02645 12.13412-2.48086 6.18988-6.85307 9.28482-13.12892 9.28482h-12.25694zm24.35422-9.66554c-2.62824-.87198-5.9074-1.3264-9.84977-1.3878h-27.4123v63.64273h27.4123c9.61642 0 16.7274-3.95465 21.33297-11.87621 3.3897-5.87056 5.09682-13.03068 5.09682-21.49263 0-3.34057-.40529-6.85308-1.21587-10.53753-.7983-3.68445-2.30892-7.11098-4.53187-10.27961-2.76334-3.9178-6.3741-6.60745-10.83228-8.06895zm97.40457-1.3878h-51.55773v11.27441h19.13457v52.36832h13.37456v-52.36832h19.0486zm32.9267 15.47468c-.15966-.01228-.35616-.01228-.5895-.01228-3.68446 0-6.68114.95796-8.97778 2.88615-1.41238 1.15447-3.07038 3.30373-4.96173 6.43551v-8.20404h-11.7534v47.0627h12.39204v-22.48742c0-3.7827.47898-6.5706 1.42465-8.38826 1.70713-3.21776 5.02314-4.82663 9.97258-4.82663.38073 0 .87199.01228 1.47378.03684.6018.03684 1.28956.08597 2.07557.17194v-12.60082c-.55266-.03684-.90883-.04912-1.0562-.07369zm34.21626 25.28761v4.581c-.08597 4.1143-1.25271 6.95133-3.47566 8.4988-2.23523 1.55975-4.67925 2.33348-7.31978 2.33348-1.67028 0-3.09493-.4667-4.26168-1.40009-1.15446-.9334-1.74397-2.4563-1.74397-4.55643 0-2.35805.94568-4.10202 2.8493-5.23192 1.1299-.6632 2.98441-1.21587 5.57581-1.68257l2.76334-.51582c1.37553-.25791 2.46858-.54039 3.2546-.83514.7983-.30704 1.57203-.70005 2.35804-1.1913zm-7.47943-5.74774l-4.188.51582c-4.74065.61408-8.33913 1.62116-10.78315 3.03353-4.47046 2.5914-6.69342 6.7794-6.69342 12.56398 0 4.45818 1.38781 7.90928 4.16343 10.34102 2.77562 2.43174 6.30041 3.6476 10.54981 3.6476 3.34057 0 6.33725-.76145 8.99006-2.29663 2.21067-1.28956 4.1757-2.8616 5.87056-4.70382.08597 1.0685.1965 2.01417.34388 2.8493.14738.83515.40529 1.7317.77373 2.67738h13.38684v-1.81767c-.81058-.36844-1.41238-.84742-1.81766-1.42465-.39301-.56495-.63864-1.658-.72461-3.27916-.06141-2.1247-.08597-3.94236-.08597-5.4407v-21.5786c0-5.67405-2.00189-9.53044-6.00566-11.58146-4.00377-2.03872-8.57248-3.05809-13.73071-3.05809-7.92157 0-13.49737 2.0633-16.75197 6.21444-2.03873 2.6528-3.19319 6.03022-3.4511 10.14452h11.86393c.29475-1.81766.87198-3.2546 1.73169-4.3108 1.21587-1.44922 3.26688-2.16155 6.1776-2.16155 2.59139 0 4.55643.36844 5.89511 1.09305 1.33869.7369 2.00189 2.07558 2.00189 4.00377 0 1.58431-.87199 2.73878-2.62824 3.48795-.98252.44213-2.60368.7983-4.88804 1.08077zm.65092-19.68724zm58.16518 18.13977h12.60082c-.68776-6.7057-2.91071-11.38495-6.66885-14.03775-3.75814-2.64053-8.58477-3.96693-14.4799-3.96693-6.93904 0-12.37974 2.24752-16.3221 6.73026-3.94237 4.49503-5.91969 10.78316-5.91969 18.86439 0 7.1724 1.78082 13.0061 5.35474 17.48885 3.57391 4.49503 9.13743 6.74255 16.71512 6.74255 7.5654 0 13.2763-2.68965 17.1327-8.08123 2.41945-3.34057 3.77041-6.87764 4.06517-10.6235H920.6535c-.2579 2.48087-.9948 4.49503-2.21067 6.05478-1.20358 1.54747-3.24231 2.33349-6.12847 2.33349-4.0529 0-6.81623-1.96504-8.29-5.88284-.7983-2.10014-1.2036-4.87576-1.2036-8.32686 0-3.62304.4053-6.53376 1.2036-8.71986 1.5229-4.1143 4.35992-6.1776 8.51107-6.1776 2.89844 0 5.0477.94568 6.4355 2.84931.94568 1.41237 1.5352 2.99669 1.76854 4.75294zm-8.33914-18.13977zm29.2791-15.10625v63.42167h12.085v-14.8115l5.09682-5.3056 11.27442 20.1171H984.984l-17.09585-28.83697 16.44493-18.00468h-15.24134l-15.32731 17.69765v-34.27767zm61.24784 27.92813c1.55975-1.78082 3.77042-2.67737 6.61973-2.67737 2.62824 0 4.81435.84743 6.59517 2.53 1.76853 1.68256 2.75105 4.15114 2.94756 7.40574h-19.1223c.40529-3.0581 1.3878-5.46527 2.95984-7.25837zm17.20638-10.6235c-3.14406-1.4615-6.66885-2.19838-10.58665-2.19838-6.58288 0-11.9499 2.17382-16.07648 6.52147-4.13887 4.34765-6.20216 10.59894-6.20216 18.74157 0 8.6953 2.29664 14.97115 6.86536 18.82754 4.581 3.8564 9.86204 5.78459 15.85541 5.78459 7.24609 0 12.89558-2.29664 16.92391-6.86536 2.5914-2.88615 4.04061-5.72318 4.35993-8.51108H1018.709c-.6632 1.3878-1.42465 2.46858-2.29664 3.24231-1.58432 1.43694-3.63533 2.16155-6.16531 2.16155-2.3949 0-4.43363-.58951-6.14075-1.78082-2.7879-1.89135-4.27397-5.20735-4.4459-9.92345h32.21437c.0614-4.06518-.0737-7.1724-.39301-9.33394-.54039-3.68445-1.7317-6.91449-3.57392-9.71467-2.051-3.15634-4.6424-5.47755-7.77419-6.95133zm-9.71466-2.19838zm55.8931.14737c-.15966-.01228-.35616-.01228-.5895-.01228-3.68446 0-6.68115.95796-8.97779 2.88615-1.41237 1.15447-3.07037 3.30373-4.96172 6.43551v-8.20404h-11.7534v47.0627h12.39204v-22.48742c0-3.7827.47897-6.5706 1.42465-8.38826 1.70713-3.21776 5.02313-4.82663 9.98486-4.82663.36844 0 .8597.01228 1.4615.03684.6018.03684 1.30184.08597 2.07557.17194v-12.60082c-.55267-.03684-.89655-.04912-1.0562-.07369zm22.905.58952c-2.27208-5.29333-5.60036-10.99195-9.97258-17.09585h-9.28481l2.62824 4.82663c3.63532 6.65657 6.15303 13.62018 7.55312 20.9031.92111 4.77751 1.38781 9.98487 1.38781 15.63436 0 8.80583-1.27727 16.91162-3.8441 24.30509-1.49835 4.37221-4.13887 9.98486-7.94614 16.83793h9.11287l3.07038-4.18799c1.97732-2.52999 4.10202-6.3004 6.33725-11.31126 4.00377-8.95321 6.00566-17.75905 6.00566-26.42979 0-7.88472-1.68257-15.70804-5.0477-23.48223z"/></svg>