<svg xmlns="http://www.w3.org/2000/svg" role="img" viewBox="-17.97 -19.47 934.44 759.44"><title>Israel (Hamagen) logo</title><defs><style>.cls-2{fill:#0f4d92}.cls-3{opacity:0}</style></defs><path fill="#fff" d="M0.346 -1.168H898.871V652.305H0.346z"/><path d="M.346 60.095H898.871V162.2H.346zM.346 488.937H898.871V591.042H.346z" class="cls-2"/><g id="triangle"><g class="cls-3"><path d="M449.609 206.551L346.537 385.077 552.682 385.077 449.609 206.551z"/></g><path d="M572.13434,396.30962H327.08327l122.5262-212.22186ZM365.98959,373.84649H533.228L449.60947,229.014Z" class="cls-2"/></g><g id="triangle-2" data-name="triangle"><g class="cls-3"><path d="M449.609 444.586L552.682 266.06 346.537 266.06 449.609 444.586z"/></g><path d="M449.60947,467.04936,327.08327,254.8275H572.13434ZM365.98959,277.29063l83.61988,144.83245L533.228,277.29063Z" class="cls-2"/></g><path d="M169.82235 707.00136V656.6205h10.459v19.209h19.585v-19.209h10.459v50.38086h-10.459V684.51112h-19.585v22.49024zM234.41219 684.34023a15.39285 15.39285 0 0 0 3.89062-.8545 2.92989 2.92989 0 0 0 2.10059-2.76855 3.2716 3.2716 0 0 0-1.61133-3.16113 10.16811 10.16811 0 0 0-4.72851-.87207q-3.49952 0-4.95508 1.709a7.04472 7.04472 0 0 0-1.38574 3.418h-9.39942a14.25831 14.25831 0 0 1 2.7461-8.03223q3.87889-4.92187 13.31933-4.92187a23.757 23.757 0 0 1 10.916 2.42676q4.771 2.42724 4.77148 9.16015v17.08985q0 1.77831.06836 4.30664a5.40795 5.40795 0 0 0 .58106 2.59765 3.47845 3.47845 0 0 0 1.43554 1.12793v1.43555h-10.5957a10.7537 10.7537 0 0 1-.61523-2.11914q-.17139-.99024-.27344-2.25586a20.104 20.104 0 0 1-4.67578 3.72558 14.13474 14.13474 0 0 1-7.15137 1.81153 12.33776 12.33776 0 0 1-8.40527-2.88867q-3.31788-2.88721-3.31739-8.18555 0-6.87012 5.33692-9.94629a23.8405 23.8405 0 0 1 8.6084-2.39258zm5.956 4.54589a10.68428 10.68428 0 0 1-1.88769.93946 15.888 15.888 0 0 1-2.61621.667l-2.21778.41016a14.62672 14.62672 0 0 0-4.47753 1.333 4.4489 4.4489 0 0 0-2.30079 4.13575 4.32259 4.32259 0 0 0 1.40528 3.60644 5.34657 5.34657 0 0 0 3.41894 1.11035 10.18229 10.18229 0 0 0 5.88282-1.8457q2.68944-1.8457 2.793-6.7334zM305.07137 669.88222a10.839 10.839 0 0 1 4.34082 3.34961 10.71637 10.71637 0 0 1 2.11914 4.78515 33.11743 33.11743 0 0 1 .3418 5.50293l-.06836 23.48145H301.8243v-23.7207a7.79853 7.79853 0 0 0-.68359-3.48633q-1.29933-2.59717-4.78516-2.59766a5.59939 5.59939 0 0 0-5.57129 3.34961 10.51679 10.51679 0 0 0-.78613 4.27246v22.18262h-9.80957V684.81874a12.47315 12.47315 0 0 0-.6836-4.81933q-1.23046-2.69971-4.81933-2.7002-4.17042 0-5.60547 2.7002a10.4012 10.4012 0 0 0-.78613 4.58007v22.42188H258.4161v-37.1875h9.46777v5.43457a15.66325 15.66325 0 0 1 3.418-4.13574 13.52394 13.52394 0 0 1 14.25293-.30762 10.94825 10.94825 0 0 1 3.21289 4.47754 12.38008 12.38008 0 0 1 4.751-4.81934 14.497 14.497 0 0 1 6.69922-1.53808A12.97687 12.97687 0 0 1 305.07137 669.88222zM335.58406 684.34023a15.393 15.393 0 0 0 3.89063-.8545 2.9299 2.9299 0 0 0 2.10059-2.76855 3.2716 3.2716 0 0 0-1.61133-3.16113 10.16812 10.16812 0 0 0-4.72852-.87207q-3.49952 0-4.95508 1.709a7.04472 7.04472 0 0 0-1.38574 3.418H319.4952a14.25823 14.25823 0 0 1 2.74609-8.03223q3.87891-4.92187 13.31934-4.92187a23.75693 23.75693 0 0 1 10.916 2.42676q4.771 2.42724 4.77149 9.16015v17.08985q0 1.77831.06836 4.30664a5.40809 5.40809 0 0 0 .58105 2.59765 3.47848 3.47848 0 0 0 1.43555 1.12793v1.43555H342.73738a10.75438 10.75438 0 0 1-.61523-2.11914q-.17139-.99024-.27344-2.25586a20.104 20.104 0 0 1-4.67578 3.72558 14.13474 14.13474 0 0 1-7.15137 1.81153 12.33778 12.33778 0 0 1-8.40527-2.88867q-3.31786-2.88721-3.31738-8.18555 0-6.87012 5.33691-9.94629a23.8405 23.8405 0 0 1 8.6084-2.39258zm5.95606 4.54589a10.68437 10.68437 0 0 1-1.8877.93946 15.888 15.888 0 0 1-2.61621.667l-2.21777.41016a14.6268 14.6268 0 0 0-4.47754 1.333 4.44889 4.44889 0 0 0-2.30078 4.13575 4.32262 4.32262 0 0 0 1.40527 3.60644 5.34658 5.34658 0 0 0 3.419 1.11035 10.18226 10.18226 0 0 0 5.88281-1.8457q2.68946-1.8457 2.793-6.7334zM378.18953 669.71132a11.70284 11.70284 0 0 1 5.73438 5.40039V669.7455h9.502v35.3418q0 7.21141-2.42676 10.86914-4.1704 6.28857-15.99609 6.28906-7.144 0-11.65527-2.80274a10.34035 10.34035 0 0 1-4.99024-8.374h10.59571a4.39112 4.39112 0 0 0 1.333 2.46094q1.57178 1.333 5.29785 1.333 5.26318 0 7.041-3.52051 1.16161-2.25586 1.16211-7.58789v-2.39258a11.8768 11.8768 0 0 1-3.00781 3.58887 12.09486 12.09486 0 0 1-7.55371 2.22168 14.29153 14.29153 0 0 1-11.46778-5.042q-4.28905-5.04053-4.28906-13.65429a23.04021 23.04021 0 0 1 4.13086-13.96289q4.12939-5.65576 11.708-5.65625A12.81126 12.81126 0 0 1 378.18953 669.71132zm3.31739 26.71191q2.34814-2.581 2.34863-8.2207 0-5.29687-2.22949-8.06641a7.27491 7.27491 0 0 0-5.97266-2.76855 7.03974 7.03974 0 0 0-7.0459 4.81934 17.13866 17.13866 0 0 0-1.02148 6.32324 14.4709 14.4709 0 0 0 1.08886 5.77636 7.09926 7.09926 0 0 0 7.08008 4.7168A7.48018 7.48018 0 0 0 381.50692 696.42323zM426.795 670.50038a15.15067 15.15067 0 0 1 6.4375 5.51074 18.31063 18.31063 0 0 1 2.96875 7.70313 47.6816 47.6816 0 0 1 .32129 7.39355H409.38778q.227 5.606 3.8955 7.86133a9.89526 9.89526 0 0 0 5.3711 1.40137 7.56575 7.56575 0 0 0 7.41406-4.27246h9.94531a12.16436 12.16436 0 0 1-3.61133 6.7334q-5.00536 5.43456-14.0166 5.43457a20.312 20.312 0 0 1-13.123-4.584q-5.68506-4.58349-5.68457-14.915 0-9.68115 5.13183-14.84668 5.13282-5.165 13.32324-5.166A21.20644 21.20644 0 0 1 426.795 670.50038zm-14.57324 8.415a10.1189 10.1189 0 0 0-2.59473 5.7666h16.78223a8.12956 8.12956 0 0 0-2.59473-5.88672 8.53937 8.53937 0 0 0-5.77734-2.00879A7.72741 7.72741 0 0 0 412.22176 678.91542zM471.49031 671.88222q3.65919 3.02343 3.65918 10.03125v25.08789H465.169V684.34023a10.40763 10.40763 0 0 0-.78028-4.51172q-1.42529-2.87111-5.42871-2.8711-4.9204 0-6.75195 4.2041a14.53052 14.53052 0 0 0-.9502 5.67383v20.166h-9.74121v-37.1875h9.4336v5.43457a16.50027 16.50027 0 0 1 3.54-4.13574 12.26275 12.26275 0 0 1 7.58985-2.25586A14.27538 14.27538 0 0 1 471.49031 671.88222zM506.15047 669.33534a73.25346 73.25346 0 0 1 7.89551-13.53515h7.34863l-2.085 3.82812a56.99448 56.99448 0 0 0-5.98144 16.543 65.4252 65.4252 0 0 0-1.09375 12.373 58.44788 58.44788 0 0 0 3.042 19.24316 87.81082 87.81082 0 0 0 6.28906 13.33008H514.3536l-2.42676-3.31543a44.44058 44.44058 0 0 1-5.02442-8.95508 50.9866 50.9866 0 0 1-4.751-20.918A46.40057 46.40057 0 0 1 506.15047 669.33534zM537.35653 707.00136h-10.459V656.6205h10.459zM553.96785 695.10683a6.47792 6.47792 0 0 0 1.33985 3.6914q1.81934 1.94825 6.73047 1.94825a10.291 10.291 0 0 0 4.585-.8545 2.73645 2.73645 0 0 0 1.70019-2.56347 2.765 2.765 0 0 0-1.36914-2.49512q-1.36962-.854-10.1914-2.93945-6.3501-1.57178-8.94727-3.93067a8.51809 8.51809 0 0 1-2.59766-6.69922 11.61157 11.61157 0 0 1 4.0586-8.87011q4.05908-3.70752 11.42383-3.708 6.9873 0 11.38867 2.78613 4.40185 2.78613 5.05273 9.6211h-9.74121a5.75958 5.75958 0 0 0-1.0625-2.97364q-1.61133-1.98194-5.48437-1.98242a7.90281 7.90281 0 0 0-4.541.99121 2.85187 2.85187 0 0 0-1.35352 2.32422 2.54135 2.54135 0 0 0 1.43946 2.42676q1.43994.78661 10.1709 2.70019 5.82129 1.36816 8.72656 4.13575a9.39074 9.39074 0 0 1 2.87109 7.00683 11.31465 11.31465 0 0 1-4.12695 9.041q-4.12792 3.50244-12.75684 3.50293-8.80371 0-12.998-3.708a12.05594 12.05594 0 0 1-4.19532-9.45117zM606.0411 668.87441q.186.01756.83691.05078v9.98047q-.92284-.10254-1.64063-.13672-.71777-.03369-1.1621-.03418-5.8799 0-7.89551 3.82812a14.89394 14.89394 0 0 0-1.12793 6.63086v17.80762h-9.80957V669.7455h9.29687v6.49414a20.59884 20.59884 0 0 1 3.93067-5.09277 10.70038 10.70038 0 0 1 7.10937-2.29C605.76082 668.85683 605.91512 668.86269 606.0411 668.87441zM627.34188 684.34023a15.393 15.393 0 0 0 3.89062-.8545 2.9299 2.9299 0 0 0 2.10059-2.76855 3.2716 3.2716 0 0 0-1.61133-3.16113 10.16812 10.16812 0 0 0-4.72852-.87207q-3.4995 0-4.95507 1.709a7.04472 7.04472 0 0 0-1.38575 3.418H611.253a14.25823 14.25823 0 0 1 2.74609-8.03223q3.87891-4.92187 13.31934-4.92187a23.757 23.757 0 0 1 10.916 2.42676q4.771 2.42724 4.77148 9.16015v17.08985q0 1.77831.06836 4.30664a5.40809 5.40809 0 0 0 .58105 2.59765 3.47848 3.47848 0 0 0 1.43555 1.12793v1.43555H634.4952a10.75377 10.75377 0 0 1-.61524-2.11914q-.17137-.99024-.27343-2.25586a20.10409 20.10409 0 0 1-4.67579 3.72558 14.13468 14.13468 0 0 1-7.15136 1.81153 12.3378 12.3378 0 0 1-8.40528-2.88867q-3.31786-2.88721-3.31738-8.18555 0-6.87012 5.33691-9.94629a23.84056 23.84056 0 0 1 8.6084-2.39258zm5.95605 4.54589a10.68462 10.68462 0 0 1-1.88769.93946 15.88856 15.88856 0 0 1-2.61621.667l-2.21778.41016a14.62689 14.62689 0 0 0-4.47754 1.333 4.44889 4.44889 0 0 0-2.30078 4.13575 4.32259 4.32259 0 0 0 1.40528 3.60644 5.34655 5.34655 0 0 0 3.41894 1.11035 10.18224 10.18224 0 0 0 5.88281-1.8457q2.68945-1.8457 2.793-6.7334zM675.794 670.50038a15.15073 15.15073 0 0 1 6.4375 5.51074 18.31089 18.31089 0 0 1 2.96875 7.70313 47.68185 47.68185 0 0 1 .32128 7.39355H658.3868q.22706 5.606 3.89551 7.86133a9.89525 9.89525 0 0 0 5.37109 1.40137 7.56575 7.56575 0 0 0 7.41406-4.27246h9.94532a12.16442 12.16442 0 0 1-3.61133 6.7334q-5.00538 5.43456-14.0166 5.43457a20.31208 20.31208 0 0 1-13.12305-4.584q-5.68506-4.58349-5.68457-14.915 0-9.68115 5.13183-14.84668 5.13282-5.165 13.32325-5.166A21.2065 21.2065 0 0 1 675.794 670.50038zm-14.57325 8.415a10.11882 10.11882 0 0 0-2.59472 5.7666h16.78222a8.12959 8.12959 0 0 0-2.59472-5.88672 8.5394 8.5394 0 0 0-5.77735-2.00879A7.72744 7.72744 0 0 0 661.22078 678.91542zM700.39363 707.00136h-9.74121V656.6205h9.74121zM721.45516 669.33534a46.47357 46.47357 0 0 1 3.99219 18.59375 51.08117 51.08117 0 0 1-4.74219 20.918 44.57486 44.57486 0 0 1-5.01563 8.95508l-2.42285 3.31543h-7.19922a87.9669 87.9669 0 0 0 6.26563-13.33008 58.65384 58.65384 0 0 0 3.03125-19.24316 65.68 65.68 0 0 0-1.08985-12.373 57.14012 57.14012 0 0 0-5.959-16.543l-2.07813-3.82812h7.33594A73.287 73.287 0 0 1 721.45516 669.33534z"/></svg>