<svg xmlns="http://www.w3.org/2000/svg" role="img" viewBox="-21.62 -25.62 942.24 783.24"><title>Italy (Immuni) logo</title><defs><style>.cls-1{fill:#fff}.cls-2{fill:#0f4d92}.cls-3{opacity:0}</style></defs><path d="M.045-1.168H898.57v653.473H.045z" class="cls-1"/><path d="M.045 60.095H898.57V162.2H.045zm0 428.842H898.57v102.105H.045z" class="cls-2"/><g id="triangle"><path d="M449.308 206.551L346.235 385.077H552.38L449.308 206.551z" class=""/><path d="M571.83271 396.30962H326.78165l122.5262-212.22186zM365.688 373.84649h167.23839L449.30785 229.014z" class="cls-2"/></g><g id="triangle-2" data-name="triangle"><path d="M449.308 444.586L552.38 266.06H346.235l103.073 178.526z" class=""/><path d="M449.30785 467.04936L326.78165 254.8275h245.05106zM365.688 277.29063l83.61988 144.83245 83.61854-144.83245z" class="cls-2"/></g><path fill="#009246" d="M-3.289-7.155h302.074v604.149H-3.289z"/><path d="M298.785-7.155h302.074v604.149H298.785z" class="cls-1"/><path fill="#ce2b37" d="M600.86-7.155h302.074v604.149H600.86z"/><path d="M184.2507 720.84645h-13.0664V657.907h13.0664zm6.53223-37.44824v-8.668h6.49023v-12.98044h12.042v12.98047h7.55762v8.668h-7.55762v24.5957q0 2.86085.72559 3.56543.7251.7046 4.44043.7041.55518 0 1.17481-.02148.61815-.0205 1.21679-.06348v9.09473l-5.76465.21387q-8.625.29736-11.78515-2.98926-2.04931-2.0918-2.04981-6.44727v-28.65237zm52.33887 9.13769a19.20165 19.20165 0 0 0 4.86035-1.06738q2.625-1.10889 2.624-3.458a4.08954 4.08954 0 0 0-2.01269-3.95019 12.72592 12.72592 0 0 0-5.90821-1.08887q-4.37109 0-6.18945 2.13477a8.81943 8.81943 0 0 0-1.73145 4.2705h-11.74216a17.80411 17.80411 0 0 1 3.43066-10.03418q4.84571-6.14941 16.63965-6.14941a29.66837 29.66837 0 0 1 13.63769 3.03223q5.96046 3.03222 5.96 11.44336v21.34961q0 2.22069.08594 5.38085a6.76248 6.76248 0 0 0 .72559 3.24512 4.35947 4.35947 0 0 0 1.79394 1.40918v1.793h-13.2373a13.48981 13.48981 0 0 1-.76856-2.64746q-.21386-1.2378-.34179-2.81836a25.134 25.134 0 0 1-5.84082 4.6543 17.65227 17.65227 0 0 1-8.9336 2.26367 15.4138 15.4138 0 0 1-10.501-3.6084q-4.14552-3.6079-4.14453-10.22656 0-8.58252 6.667-12.42578 3.65625-2.0918 10.7539-2.98926zm7.4414 5.67969a13.46848 13.46848 0 0 1-2.35937 1.17383 19.92648 19.92648 0 0 1-3.26758.833l-2.77051.51269a18.21986 18.21986 0 0 0-5.59375 1.665 5.55825 5.55825 0 0 0-2.875 5.167q0 3.11719 1.75586 4.50489a6.67878 6.67878 0 0 0 4.27148 1.38769 12.71186 12.71186 0 0 0 7.34864-2.30664q3.36034-2.30566 3.49023-8.41113zm35.18457 22.63086h-12.16894V657.907h12.16894zm13.70801 8.92383l1.53711.08594a19.28178 19.28178 0 0 0 3.416-.12793 6.13407 6.13407 0 0 0 2.73243-.98243 6.575 6.575 0 0 0 1.98535-3.03125 7.31718 7.31718 0 0 0 .791-2.81835l-17.10254-48.59278h13.53614l10.16308 34.33106 9.60743-34.33106h12.9375l-15.95604 45.77442q-4.626 13.23631-7.31836 16.418-2.69385 3.18018-10.77246 3.18165-1.62451 0-2.60742-.02149-.98437-.022-2.94922-.14941zm74.21094-55.97949a91.53685 91.53685 0 0 1 9.86426-16.90918h9.18066l-2.60547 4.78222a71.21174 71.21174 0 0 0-7.47266 20.667 81.754 81.754 0 0 0-1.36621 15.458 73.02011 73.02011 0 0 0 3.80078 24.04 109.61031 109.61031 0 0 0 7.85645 16.65235h-9.00977l-3.03125-4.14161a55.47509 55.47509 0 0 1-6.27734-11.1875 63.707 63.707 0 0 1-5.93457-26.13183 57.97864 57.97864 0 0 1 4.99512-23.22945zm38.98633 47.05566h-13.06641V657.907h13.06641zm69.38671-46.37207a13.52947 13.52947 0 0 1 5.42286 4.18457 13.37347 13.37347 0 0 1 2.64746 5.97754 41.39477 41.39477 0 0 1 .42675 6.875l-.085 29.335h-12.46871v-29.63383a9.74127 9.74127 0 0 0-.85351-4.35547q-1.623-3.24462-5.97852-3.24511-5.03906 0-6.96 4.18457a13.13427 13.13427 0 0 0-.98242 5.33789v27.71191h-12.25484v-27.71191a15.57336 15.57336 0 0 0-.85352-6.02149q-1.53661-3.37206-6.02051-3.373-5.21044 0-7.00293 3.373a12.99227 12.99227 0 0 0-.98242 5.72266v28.01074h-12.33984v-46.458h11.82812v6.79a19.55907 19.55907 0 0 1 4.26953-5.167 16.89832 16.89832 0 0 1 17.80567-.38477 13.674 13.674 0 0 1 4.01367 5.59375 15.47887 15.47887 0 0 1 5.93555-6.0205 18.10816 18.10816 0 0 1 8.36914-1.9209 16.20571 16.20571 0 0 1 6.06347 1.19535zm77.75684 0a13.52944 13.52944 0 0 1 5.42285 4.18457 13.37336 13.37336 0 0 1 2.64746 5.97754 41.39455 41.39455 0 0 1 .42676 6.875l-.085 29.335H555.74v-29.63383a9.74126 9.74126 0 0 0-.85352-4.35547q-1.623-3.24462-5.97851-3.24511-5.03907 0-6.96 4.18457a13.13411 13.13411 0 0 0-.98242 5.33789v27.71191h-12.25489v-27.71191a15.5736 15.5736 0 0 0-.85351-6.02149q-1.53663-3.37206-6.02051-3.373-5.21044 0-7.00293 3.373a12.99227 12.99227 0 0 0-.98242 5.72266v28.01074h-12.33985v-46.458h11.82813v6.79a19.55888 19.55888 0 0 1 4.26953-5.167 16.8983 16.8983 0 0 1 17.80566-.38477 13.67412 13.67412 0 0 1 4.01368 5.59375A15.47878 15.47878 0 0 1 545.364 675.2a18.10819 18.10819 0 0 1 8.36914-1.9209 16.20572 16.20572 0 0 1 6.06346 1.19528zm31.81152-.1709v28.05371a14.75558 14.75558 0 0 0 .93457 5.97852q1.6582 3.54492 6.501 3.54394 6.20215 0 8.49805-5.03906a18.33626 18.33626 0 0 0 1.18945-7.21582v-25.32129H621.071v46.543h-11.82713v-6.57617q-.17139.21533-.85157 1.28125a8.55225 8.55225 0 0 1-1.61816 1.8789 16.87212 16.87212 0 0 1-5.51465 3.501 18.753 18.753 0 0 1-6.23828.93945q-10.30371 0-13.87988-7.42968-2.00244-4.09863-2.001-12.084v-28.05375zm78.82129 2.66895q4.57178 3.77929 4.57129 12.53222v31.3418H662.532V692.5359a12.99525 12.99525 0 0 0-.97461-5.63574q-1.78125-3.5874-6.78222-3.58691-6.14649 0-8.43457 5.25195a18.16157 18.16157 0 0 0-1.1875 7.08789v25.19336h-12.169v-46.458h11.78516v6.79a20.633 20.633 0 0 1 4.42187-5.167 15.32164 15.32164 0 0 1 9.48242-2.81836q7.18506.00004 11.75586 3.77934zm28.39844-8.21973H686.487v-11.23047h12.34082zm-12.34085 5.55078h12.34082v46.543H686.487zm38.56644-.51269a58.0504 58.0504 0 0 1 4.9873 23.22949 63.8 63.8 0 0 1-5.9248 26.13183 55.57414 55.57414 0 0 1-6.26563 11.1875l-3.02637 4.14161h-8.99414a109.84894 109.84894 0 0 0 7.82813-16.65235 73.27789 73.27789 0 0 0 3.78613-24.04 82.09554 82.09554 0 0 0-1.36035-15.458 71.43138 71.43138 0 0 0-7.44531-20.667l-2.59571-4.78222h9.165a91.63437 91.63437 0 0 1 9.84575 16.90914z"/></svg>