<svg xmlns="http://www.w3.org/2000/svg" role="img" viewBox="-1.74 -7.74 974.48 381.48"><title>ito-app logo</title><path fill="none" d="M215.56338 269.62626c-4.98274-6.75456-12.80452-15.84043-12.80452-15.84043s-11.02927 6.87326-15.84115 9.37666c-20.94962 10.89922-41.90285 4.42037-59.4835-10.08417-17.1973-14.18813-23.459-40.35085-15.9206-59.062a58.40559 58.40559 0 0 1 4.04848-7.908 104.56567 104.56567 0 0 1 6.16069-9.11232s-4.41707-4.28618-9.85557-9.5468c-3.80841-3.68383-8.1135-7.8415-11.7714-11.35664l-9.92312-8.86656-2.05632-1.83731-5.95243-5.31858s-5.17984 6.23352-7.58883 9.81973c-12.1345 18.06472-20.24055 37.3954-19.12438 59.66965-.13264 82.01941 86.41829 137.38986 158.22492 101.22364 5.18521-2.61156 10.24646-5.613 14.30806-8.16855 5.25556-3.30688 8.8365-5.8671 8.8365-5.8671s-7.41208-9.64453-14.79327-19.03989c-2.131-2.71234-4.41768-5.3081-6.46356-8.08133zM217.615 52.31049c-14.99563-1.14861-28.97386 2.23224-42.23372 8.27919-4.22523 1.92678-8.45687 4.00562-12.3943 6.01452-10.51432 5.36475-18.861 10.21423-18.861 10.21423s6.78008 8.55066 15.2104 18.06771c2.25094 2.54111 4.61272 5.1471 7.0027 7.68252l3.54437 3.91967 12.54013 13.86767s8.19107-6.41088 13.204-9.07781c20.82545-11.07979 44.78041-4.9063 62.66663 13.45676 17.17694 17.63467 22.00122 40.746 10.768 61.69135-2.37067 4.42058-7.9539 11.48629-7.9539 11.48629s3.519 3.69034 7.7132 7.69946c1.42339 1.36048 2.92374 2.75732 4.39176 4.05954 4.72076 4.18773 9.26943 8.65407 13.958 12.93136 2.02316 1.84579 4.03557 3.56555 5.89448 5.09648 4.80548 3.95768 8.55087 6.61211 8.55087 6.61211s2.29618-2.99667 5.092-7.05992c1.83938-2.67334 3.89291-5.80378 5.65864-8.86223 21.03267-36.43066 21.48162-73.39085.14648-109.55686-21.12025-35.80103-53.14098-54.7686-94.89874-56.52204zm617.50741 114.50686c-34.78022-.11146-60.77311 26.87127-61.09975 63.42662-.32292 36.16921 25.91893 64.42843 59.91819 64.52471 36.25547.10237 61.11246-25.15646 61.30274-62.29392.19927-38.86321-24.23067-65.54254-60.12118-65.65741z"/><path fill="#91e5d2" d="M426.065 114.609h59.931v235.664h-59.931zM302.3643 21.60778q-108.36075-.2442-216.72262-.01043c-38.47686.076-68.21721 29.40514-68.33332 67.50691q-.29535 96.746-.00847 193.49345c.10247 39.18231 28.01274 67.36064 67.357 67.78428 35.82739.38573 71.66211.08161 107.49353.08429q54.61392.00419 109.22816-.00185c1.155-.00021 2.31043-.06333 3.46524-.10723 35.6118-1.358 62.74338-27.53973 63.02-62.5749q.79816-101.05785.05527-202.12572c-.28352-36.1721-29.28259-63.96729-65.55479-64.0488zm-74.38059 281.00684c-4.0616 2.55557-9.12285 5.557-14.30806 8.16855C141.869 346.94939 55.31809 291.57894 55.45073 209.55953c-1.11617-22.27425 6.98988-41.60493 19.12438-59.66965 2.409-3.58621 7.58883-9.81973 7.58883-9.81973l5.95243 5.31858 2.05632 1.83731 9.92312 8.86646c3.6579 3.51514 7.963 7.67281 11.7714 11.35664 5.4385 5.26062 9.85557 9.5468 9.85557 9.5468a104.56567 104.56567 0 0 0-6.16069 9.11232 58.40559 58.40559 0 0 0-4.04848 7.908c-7.53842 18.71118-1.2767 44.8739 15.9206 59.062 17.58065 14.50454 38.53388 20.98339 59.4835 10.08417 4.81188-2.5034 15.84115-9.37666 15.84115-9.37666s7.82178 9.08587 12.80452 15.84043c2.04588 2.77323 4.33256 5.369 6.46356 8.08137 7.38119 9.39536 14.79327 19.03989 14.79327 19.03989s-3.58094 2.56028-8.8365 5.86716zm84.38357-84.22521c-1.76573 3.05845-3.81926 6.18889-5.65864 8.86223-2.79586 4.06325-5.092 7.05992-5.092 7.05992s-3.74539-2.65443-8.55087-6.61211c-1.85891-1.53093-3.87132-3.25069-5.89448-5.09648-4.68854-4.27729-9.23721-8.74363-13.958-12.93136-1.468-1.30222-2.96837-2.69906-4.39176-4.05954-4.19424-4.00912-7.7132-7.69946-7.7132-7.69946s5.58323-7.06571 7.9539-11.48629c11.23319-20.94538 6.40891-44.05668-10.768-61.69135-17.88622-18.36306-41.84118-24.53655-62.66663-13.45676-5.01291 2.66693-13.204 9.07781-13.204 9.07781l-12.54006-13.86769-3.54437-3.91967c-2.39-2.53542-4.75176-5.14141-7.0027-7.68252-8.43032-9.517-15.2104-18.06771-15.2104-18.06771S152.4727 71.969 162.987 66.6042c3.93743-2.0089 8.16907-4.08774 12.3943-6.01452 13.25986-6.047 27.23809-9.4278 42.23372-8.27919 41.75772 1.75344 73.77845 20.721 94.89872 56.52206 21.33516 36.16601 20.88626 73.1262-.14646 109.55686zm524.47954-111.91286C763.885 105.44509 714.6311 162.33831 714.26045 230.643c-.37725 69.54763 51.4636 125.31156 120.37169 125.05135 73.56255-.27737 121.90593-58.50844 119.84279-124.90652 3.62507-64.70547-43.78314-123.26711-117.62811-124.31128zm-2.906 188.29213c-33.99926-.09628-60.24111-28.3555-59.91819-64.52471.32664-36.55535 26.31953-63.53808 61.09975-63.42662 35.89051.11487 60.32045 26.7942 60.12118 65.65741-.19025 37.13746-25.04724 62.39629-61.30271 62.29392zM455.09648 11.20523c-22.29181-.2004-38.94482 16.33587-39.1069 38.83253-.16358 22.74706 15.80232 40.03072 37.58713 40.68854 21.80309.65844 41.63757-17.85254 42.06885-39.26185.44017-21.84782-17.89871-40.05551-40.54908-40.25922zm191.35614 280.09138c-25.72865-.4227-44.87669-18.31594-45.89493-44.21246-.03-.76236-.05661-1.56377-.08161-2.38378v-70.24016h93.46613v-59.93142h-93.46613v-93.5967h-59.93131v93.5967h-30.63969v59.93142h31.47127c-.61279 20.68568-.93984 55.71475.09256 74.877 2.05931 38.21943 19.48253 67.36642 52.85041 87.56628 17.09328 10.34769 35.074 12.83684 53.31652 13.27381l49.46512.09534V291.193l-49.46512.10516c-.39441 0-.78902.00484-1.18322-.00155z"/></svg>