<svg xmlns="http://www.w3.org/2000/svg" role="img" viewBox="-17.99 -17.99 935.48 700.98"><title>Japan (COCOA) logo</title><path fill="#fff" d="M0 0h900v600H0z"/><circle cx="450" cy="300" r="180" fill="#bc002d"/><path d="M486.54297 627.22461c-4.11459 0-7.25911 1.11979-9.43359 3.35937-2.91667 2.64323-4.375 6.60156-4.375 11.875 0 5.16928 1.45833 9.12761 4.375 11.875 2.17448 2.23958 5.319 3.35938 9.43359 3.35938 4.11458 0 7.25911-1.1198 9.43359-3.35938 2.90365-2.74739 4.35547-6.70572 4.35547-11.875 0-5.27344-1.45182-9.23177-4.35547-11.875-2.17448-2.23958-5.31901-3.35937-9.43359-3.35937zm60 0c-4.11459 0-7.25912 1.11979-9.43359 3.35937-2.91667 2.64323-4.375 6.60156-4.375 11.875 0 5.16928 1.45833 9.12761 4.375 11.875 2.17447 2.23958 5.319 3.35938 9.43359 3.35938 4.11458 0 7.25911-1.1198 9.43359-3.35938 2.90365-2.74739 4.35547-6.70572 4.35547-11.875 0-5.27344-1.45182-9.23177-4.35547-11.875-2.17448-2.23958-5.31901-3.35937-9.43359-3.35937zm-89.90235.33203c-3.61978 0-6.60155 1.1849-8.94531 3.55469-2.69531 2.72135-4.04297 6.59505-4.04297 11.62109 0 4.64844 1.1849 8.30729 3.55469 10.97656 2.36979 2.65625 5.625 3.98438 9.76563 3.98438 3.34635 0 6.08724-.98308 8.22265-2.94922 2.14844-1.96615 3.48308-4.51823 4.00391-7.65625h-5.95703c-.40365 1.48437-.91146 2.59766-1.52344 3.33984-1.10677 1.38021-2.71485 2.07032-4.82422 2.07032-2.05729 0-3.75651-.80079-5.09765-2.40235-1.32813-1.61458-1.99219-4.03646-1.99219-7.26562 0-3.22917.63151-5.72266 1.89453-7.48047 1.26302-1.77083 2.98828-2.65625 5.17578-2.65625 2.14844 0 3.76953.625 4.86328 1.875.61198.70313 1.11328 1.74479 1.50391 3.125h6.01562c-.0911-1.79687-.7552-3.58724-1.99219-5.37109-2.23958-3.17708-5.78124-4.76563-10.625-4.76563zm60 0c-3.61978 0-6.60155 1.1849-8.94531 3.55469-2.69531 2.72135-4.04297 6.59505-4.04297 11.62109 0 4.64844 1.1849 8.30729 3.55469 10.97656 2.36979 2.65625 5.625 3.98438 9.76563 3.98438 3.34635 0 6.08724-.98308 8.22265-2.94922 2.14844-1.96615 3.48308-4.51823 4.00391-7.65625h-5.95703c-.40365 1.48437-.91146 2.59766-1.52344 3.33984-1.10677 1.38021-2.71485 2.07032-4.82422 2.07032-2.05729 0-3.75651-.80079-5.09765-2.40235-1.32813-1.61458-1.99219-4.03646-1.99219-7.26562 0-3.22917.63151-5.72266 1.89453-7.48047 1.26302-1.77083 2.98828-2.65625 5.17578-2.65625 2.14844 0 3.76953.625 4.86328 1.875.61198.70313 1.11328 1.74479 1.50391 3.125h6.01562c-.0911-1.79687-.75521-3.58724-1.99219-5.37109-2.23957-3.17708-5.78124-4.76563-10.625-4.76563zm-79.60937.0781c-1.97917 2.76042-3.48307 5.33854-4.51172 7.73437-1.52344 3.51562-2.28515 7.05729-2.28515 10.625-.00001 3.91927.90494 7.90365 2.71484 11.95313 1.01563 2.26562 1.97266 3.97135 2.87109 5.11718l1.38672 1.89453h4.12109c-1.71874-3.09896-2.91666-5.63802-3.59374-7.61718-1.15886-3.34636-1.73829-7.01172-1.73829-10.9961 0-2.55208.20834-4.90886.625-7.07031.63802-3.29427 1.77735-6.44531 3.41797-9.45312l1.19141-2.1875zm154.23828 0l1.19141 2.1875c1.64062 3.00781 2.77994 6.15885 3.41797 9.45312.41666 2.16145.625 4.51823.625 7.07031 0 3.98438-.57942 7.64974-1.73829 10.9961-.67708 1.97916-1.87499 4.51822-3.59374 7.61718h4.12109l1.38672-1.89453c.89843-1.14583 1.85546-2.85156 2.87109-5.11718 1.80989-4.04948 2.71484-8.03386 2.71484-11.95313 0-3.56771-.76172-7.10938-2.28515-10.625-1.02865-2.39583-2.53255-4.97395-4.51172-7.73437zm-276.25.46875v20.13671c0 1.39323-.13671 2.38281-.41015 2.96875-.45573.98958-1.39323 1.48438-2.8125 1.48438-1.43229 0-2.36979-.44922-2.8125-1.34766-.4297-.91146-.67059-2.48047-.72266-4.70703v-.66406h-5.6836v.66406c0 3.38542.63802 6.0612 1.91407 8.02735 1.27604 1.95312 3.78255 2.92968 7.51953 2.92968 3.73698 0 6.32162-1.21094 7.7539-3.63281.84637-1.43229 1.26954-3.37239 1.26954-5.82031v-20.03906zm258.125 0l-10.27344 28.78906h6.28907l1.99218-5.91797h10.60547l1.85547 5.91797h6.52344l-10.19531-28.78906zm-86.60156 4.21875c2.38281 0 4.27083.88541 5.66406 2.65625 1.40625 1.75781 2.10938 4.2513 2.10938 7.48046 0 3.24219-.70313 5.74219-2.10938 7.5-1.39323 1.75782-3.28125 2.63672-5.66406 2.63672s-4.28385-.8789-5.70313-2.63672c-1.41926-1.75781-2.1289-4.25781-2.1289-7.5 0-3.24218.70964-5.74218 2.1289-7.5 1.41928-1.75781 3.32032-2.63671 5.70313-2.63671zm60 0c2.38281 0 4.27083.88541 5.66406 2.65625 1.40625 1.75781 2.10938 4.2513 2.10938 7.48046 0 3.24219-.70313 5.74219-2.10938 7.5-1.39323 1.75782-3.28125 2.63672-5.66406 2.63672s-4.28385-.8789-5.70313-2.63672c-1.41926-1.75781-2.1289-4.25781-2.1289-7.5 0-3.24218.70964-5.74218 2.1289-7.5 1.41928-1.75781 3.32032-2.63671 5.70313-2.63671zm29.94141 2.36328l3.59374 11.32812h-7.30468zm-241.54297.41015c-3.58074 0-6.10678.9375-7.57813 2.8125-.92448 1.19792-1.44531 2.72787-1.5625 4.58985h5.3711c.13021-.82032.39062-1.47136.78124-1.95313.54688-.65104 1.47787-.97656 2.79297-.97656 1.17188 0 2.0573.16927 2.65625.50781.61198.32552.91797.92448.91797 1.79688 0 .71614-.39714 1.24349-1.1914 1.58203-.44272.19531-1.17839.35807-2.20703.48828l-1.89454.23437c-2.14843.27344-3.77604.72917-4.88281 1.36719-2.01823 1.17188-3.02734 3.06641-3.02734 5.6836 0 2.01822.625 3.58072 1.875 4.6875 1.26302 1.09375 2.85807 1.64062 4.78515 1.64062 1.51042 0 2.86459-.34505 4.0625-1.03516 1.00261-.58594 1.88803-1.29557 2.65625-2.1289.0391.48177.0912.91145.15625 1.28906.0651.3776.18229.78125.35157 1.21094h6.05468v-.82031c-.36458-.16928-.63802-.38412-.82031-.64454-.18229-.26042-.29296-.7552-.33203-1.48437-.0261-.96354-.0391-1.78386-.0391-2.46094v-9.76562c0-2.5651-.90495-4.3099-2.71485-5.23438-1.80989-.92448-3.88021-1.38672-6.21093-1.38672zm46.71875 0c-3.58074 0-6.10678.9375-7.57813 2.8125-.92448 1.19792-1.44531 2.72787-1.5625 4.58985h5.37109c.13022-.82032.39064-1.47136.78126-1.95313.54687-.65104 1.47786-.97656 2.79296-.97656 1.17188 0 2.0573.16927 2.65625.50781.61198.32552.91797.92448.91797 1.79688 0 .71614-.39714 1.24349-1.1914 1.58203-.44272.19531-1.17839.35807-2.20704.48828l-1.89453.23437c-2.14843.27344-3.77604.72917-4.88281 1.36719-2.01823 1.17188-3.02734 3.06641-3.02734 5.6836 0 2.01822.625 3.58072 1.875 4.6875 1.26302 1.09375 2.85807 1.64062 4.78515 1.64062 1.51042 0 2.86459-.34505 4.0625-1.03516 1.00261-.58594 1.88803-1.29557 2.65625-2.1289.0391.48177.0912.91145.15625 1.28906.0651.3776.18229.78125.35157 1.21094h6.05468v-.82031c-.36458-.16928-.63802-.38412-.82031-.64454-.18229-.26042-.29296-.7552-.33203-1.48437-.0261-.96354-.0391-1.78386-.0391-2.46094v-9.76562c0-2.5651-.90495-4.3099-2.71485-5.23438-1.80989-.92448-3.88021-1.38672-6.21093-1.38672zm25.68359 0c-1.75781 0-3.20964.42969-4.35547 1.28907-.63802.48177-1.3151 1.26953-2.03125 2.36328v-3.10547h-5.37109v21.25h5.54687v-11.52344c0-1.31511.18229-2.39583.54688-3.24219.70312-1.60156 1.99869-2.40234 3.88672-2.40234 1.53645 0 2.57812.54687 3.125 1.64062.29947.59896.44921 1.45834.44921 2.57813v12.94922h5.70313v-14.33594c0-2.66927-.70312-4.57682-2.10937-5.72266-1.39323-1.15885-3.19011-1.73828-5.39063-1.73828zm-47.01172.0391c-1.70573 0-3.17708.47526-4.41406 1.42578-.67709.53385-1.31511 1.26302-1.91406 2.1875v-3.14453h-5.33203v29.66796h5.50781v-11.09375c.58593.89844 1.18489 1.58204 1.79687 2.05079 1.1198.84635 2.52605 1.26953 4.21875 1.26953 2.65626 0 4.82422-.98308 6.50391-2.94922 1.69271-1.96615 2.53906-4.82422 2.53906-8.57422 0-3.55469-.86588-6.25-2.59766-8.08594-1.71874-1.83594-3.82161-2.7539-6.30859-2.7539zm-1.60156 4.86328c1.67969 0 2.89062.63151 3.63281 1.89453.75521 1.26302 1.13281 2.71484 1.13281 4.35547 0 1.99218-.41015 3.58723-1.23047 4.78515-.80728 1.19792-1.98567 1.79688-3.53515 1.79688-1.06771 0-1.99219-.29297-2.77344-.87891-1.31511-1.0026-1.97265-2.74088-1.97265-5.21484 0-1.5625.19531-2.85157.58593-3.86719.75521-1.91407 2.14193-2.87109 4.16016-2.87109zm-20.42969 6.54297v2.07031c-.0391 1.86198-.5664 3.14453-1.58203 3.84765-1.00261.70313-2.10287 1.05469-3.30078 1.05469-.75521 0-1.39973-.20833-1.93359-.625-.52084-.42968-.78126-1.11978-.78126-2.07031 0-1.06771.42969-1.85547 1.28907-2.36328.50781-.29948 1.34766-.55339 2.51953-.76172l1.25-.23438c.625-.11718 1.11328-.24088 1.46484-.37109.36459-.14323.72266-.32552 1.07422-.54687zm46.71875 0v2.07031c-.0391 1.86198-.5664 3.14453-1.58203 3.84765-1.00261.70313-2.10287 1.05469-3.30078 1.05469-.75521 0-1.39973-.20833-1.9336-.625-.52083-.42968-.78124-1.11978-.78124-2.07031-.00001-1.06771.42968-1.85547 1.28906-2.36328.50781-.29948 1.34766-.55339 2.51953-.76172l1.25-.23438c.625-.11718 1.11328-.24088 1.46484-.37109.36459-.14323.72266-.32552 1.07422-.54687z" style="" text-anchor="middle"/></svg>