<svg xmlns="http://www.w3.org/2000/svg" role="img" viewBox="-19.00 -17.00 936.00 735.00"><title>Japan (COCOA) logo</title><path d="M520.50585 621.2954q-12.85764 0-19.6526 6.99845-9.11422 8.25984-9.11425 24.73868 0 16.15331 9.11425 24.73868 6.795 6.99837 19.6526 6.99844t19.6526-6.99844q9.07359-8.58523 9.07356-24.73868 0-16.47889-9.07356-24.73868-6.79497-6.99839-19.6526-6.99845zm124.99543 0q-12.85753 0-19.6526 6.99845-9.11431 8.25984-9.11425 24.73868 0 16.15331 9.11425 24.73868 6.79506 6.99837 19.6526 6.99844t19.6526-6.99844q9.0735-8.58523 9.07357-24.73868 0-16.47889-9.07357-24.73868-6.79506-6.99839-19.6526-6.99845zm-187.28971.69171q-11.3114 0-18.63538 7.40533-8.42255 8.504-8.42255 24.20973 0 14.52584 7.40533 22.867 7.4053 8.30048 20.34431 8.30048 10.457 0 17.12991-6.144a26.87055 26.87055 0 0 0 8.34117-15.94994h-12.41a18.73559 18.73559 0 0 1-3.17372 6.95775q-3.45855 4.31294-10.05008 4.313a13.25763 13.25763 0 0 1-10.61973-5.0047q-4.15024-5.04533-4.15024-15.13617t3.94679-15.58374a12.54571 12.54571 0 0 1 10.78249-5.53365q6.71362 0 10.13146 3.9061a16.92745 16.92745 0 0 1 3.133 6.51018h12.53209a21.49193 21.49193 0 0 0-4.15024-11.18937q-6.99848-9.92794-22.13461-9.928zm124.99544 0q-11.3113 0-18.63539 7.40533-8.42255 8.504-8.42254 24.20973 0 14.52584 7.40533 22.867 7.40529 8.30048 20.3443 8.30048 10.457 0 17.12991-6.144a26.87055 26.87055 0 0 0 8.34117-15.94994h-12.41a18.73353 18.73353 0 0 1-3.17371 6.95775q-3.45848 4.31294-10.05009 4.313a13.25747 13.25747 0 0 1-10.61973-5.0047q-4.15025-5.04533-4.15024-15.13617t3.9468-15.58374a12.54562 12.54562 0 0 1 10.78248-5.53365q6.71362 0 10.13147 3.9061a16.92645 16.92645 0 0 1 3.133 6.51018h12.5321a21.49262 21.49262 0 0 0-4.15024-11.18937q-6.9984-9.92794-22.13463-9.928zm-165.84681.16275a87.22767 87.22767 0 0 0-9.39907 16.1127 55.23538 55.23538 0 0 0-4.76057 22.13461 60.71382 60.71382 0 0 0 5.65572 24.90143 52.88047 52.88047 0 0 0 5.98123 10.66042l2.88889 3.94679h8.5853a104.49869 104.49869 0 0 1-7.48671-15.86856 69.59083 69.59083 0 0 1-3.62128-22.90769 77.91019 77.91019 0 0 1 1.302-14.72928 67.85639 67.85639 0 0 1 7.12051-19.69329l2.482-4.55713zm321.318 0l2.482 4.55713a67.85435 67.85435 0 0 1 7.12051 19.69329 77.90439 77.90439 0 0 1 1.302 14.72928 69.59083 69.59083 0 0 1-3.62129 22.90769 104.49282 104.49282 0 0 1-7.48671 15.86856h8.5853l2.88899-3.94681a52.88047 52.88047 0 0 0 5.98123-10.66042 60.71478 60.71478 0 0 0 5.65572-24.90143 55.23538 55.23538 0 0 0-4.76057-22.13461 87.21974 87.21974 0 0 0-9.39907-16.1127zm-575.49981.97653v41.95a15.92011 15.92011 0 0 1-.85446 6.18467q-1.42407 3.09226-5.85917 3.09233-4.47571 0-5.85916-2.80751-1.34273-2.84814-1.50548-9.806v-1.38341h-11.84036v1.38341q0 10.57911 3.98748 16.723 3.98745 6.10329 15.66512 6.10329t16.15338-7.56808q2.64483-4.47581 2.64476-12.12521v-41.74649zm537.74077 0l-21.40221 59.975h13.10175l4.15024-12.32865h22.09392l3.86542 12.32865h13.59l-21.23946-59.975zm-180.41333 8.78874a14.21824 14.21824 0 0 1 11.7997 5.53366q4.39437 5.493 4.39437 15.58374 0 10.13147-4.39437 15.62442a14.25865 14.25865 0 0 1-11.7997 5.493 14.4858 14.4858 0 0 1-11.88108-5.493q-4.435-5.493-4.43506-15.62442t4.43506-15.62443a14.4858 14.4858 0 0 1 11.8811-5.49297zm124.99543 0a14.21832 14.21832 0 0 1 11.7997 5.53366q4.39437 5.493 4.39437 15.58374 0 10.13147-4.39437 15.62442a14.25873 14.25873 0 0 1-11.7997 5.493 14.48568 14.48568 0 0 1-11.88107-5.493q-4.435-5.493-4.43506-15.62442t4.43506-15.62443a14.48568 14.48568 0 0 1 11.88109-5.49297zm62.37565 4.92333l7.48671 23.59939H700.1461zm-503.19613.85446q-11.18945 0-15.78719 5.85916a17.01833 17.01833 0 0 0-3.25509 9.56182h11.18937a8.456 8.456 0 0 1 1.62755-4.06886q1.70892-2.03449 5.81847-2.03443a11.49657 11.49657 0 0 1 5.53365 1.0579 3.854 3.854 0 0 1 1.91237 3.74336 3.48637 3.48637 0 0 1-2.482 3.29578 18.09839 18.09839 0 0 1-4.59781 1.01721l-3.9468.48826q-6.71363.85446-10.17215 2.84821-6.30671 3.662-6.30674 11.84039 0 6.30679 3.90611 9.76526a14.68222 14.68222 0 0 0 9.96871 3.41785 16.64447 16.64447 0 0 0 8.46323-2.1565 23.82476 23.82476 0 0 0 5.53365-4.43506q.12218 1.50541.32551 2.68545a12.91236 12.91236 0 0 0 .7324 2.52269h12.61348v-1.70892a4.15634 4.15634 0 0 1-1.70892-1.34272 6.44662 6.44662 0 0 1-.69171-3.09234q-.08154-3.011-.08144-5.12676v-20.34431q0-8.01573-5.65572-10.90455a28.04781 28.04781 0 0 0-12.939-2.88889zm97.32717 0q-11.18943 0-15.78718 5.85916a17.01825 17.01825 0 0 0-3.25509 9.56182h11.18937a8.456 8.456 0 0 1 1.62754-4.06886q1.70892-2.03449 5.81847-2.03443a11.49664 11.49664 0 0 1 5.53366 1.0579 3.854 3.854 0 0 1 1.91236 3.74336 3.48636 3.48636 0 0 1-2.482 3.29578 18.09849 18.09849 0 0 1-4.59782 1.01721l-3.94679.48826q-6.71362.85446-10.17216 2.84821-6.3067 3.662-6.30673 11.84039 0 6.30679 3.9061 9.76526a14.68222 14.68222 0 0 0 9.96871 3.41785 16.64453 16.64453 0 0 0 8.46324-2.1565 23.82517 23.82517 0 0 0 5.53365-4.43506q.12216 1.50541.32551 2.68545a12.913 12.913 0 0 0 .73239 2.52269h12.61347v-1.70892a4.15634 4.15634 0 0 1-1.70892-1.34272 6.44653 6.44653 0 0 1-.6917-3.09234q-.08154-3.011-.08144-5.12676v-20.34431q0-8.01573-5.65572-10.90455a28.04787 28.04787 0 0 0-12.939-2.88889zm53.50553 0a14.706 14.706 0 0 0-9.07356 2.68545 19.68526 19.68526 0 0 0-4.23162 4.92332v-6.46949H331.019v44.26921h11.55557v-24.00628a17.19 17.19 0 0 1 1.13928-6.75431q2.19718-5.0047 8.097-5.0047 4.80119 0 6.51018 3.41784a12.30957 12.30957 0 0 1 .93584 5.3709v26.97655h11.88107V653.236q0-8.34111-4.39437-11.92177-4.35365-3.62137-11.23007-3.62131zm-97.9375.0815a14.65087 14.65087 0 0 0-9.19563 2.97027 18.61549 18.61549 0 0 0-3.98748 4.55713V638.751h-11.108v61.806h11.47419v-23.11118a17.05052 17.05052 0 0 0 3.74336 4.27231 14.162 14.162 0 0 0 8.78874 2.64476 16.998 16.998 0 0 0 13.54931-6.144Q276.13 672.075 276.13 660.3566q0-11.108-5.41159-16.84508a17.31182 17.31182 0 0 0-13.14241-5.7371zm-3.33647 10.13147q5.24883 0 7.56809 3.94679a17.33664 17.33664 0 0 1 2.35994 9.07356q0 6.22536-2.56339 9.96872a8.322 8.322 0 0 1-7.36464 3.74335 9.3582 9.3582 0 0 1-5.77778-1.831q-4.10961-3.13308-4.10955-10.86386a22.68485 22.68485 0 0 1 1.22066-8.05635q2.35999-5.98121 8.66669-5.98121zm-42.56029 13.63068v4.313q-.12216 5.81853-3.29578 8.01566a11.71918 11.71918 0 0 1-6.87638 2.19718 6.34857 6.34857 0 0 1-4.02817-1.302 6.13269 6.13269 0 0 1 1.05791-9.23631 16.81272 16.81272 0 0 1 5.24883-1.58686l2.60407-.48826a19.57948 19.57948 0 0 0 3.05164-.77308 13.38517 13.38517 0 0 0 2.2379-1.13933zm97.32717 0v4.313q-.12216 5.81853-3.29578 8.01566a11.71915 11.71915 0 0 1-6.87637 2.19718 6.34858 6.34858 0 0 1-4.02818-1.302 6.13269 6.13269 0 0 1 1.05791-9.23631 16.81272 16.81272 0 0 1 5.24883-1.58686l2.60407-.48826a19.57965 19.57965 0 0 0 3.05165-.77308 13.38508 13.38508 0 0 0 2.23789-1.13933z"/><path fill="#fff" d="M-.57717 1.28541h900v600h-900z"/><circle cx="449.423" cy="301.285" r="180" fill="#bc002d"/></svg>