<svg xmlns="http://www.w3.org/2000/svg" role="img" viewBox="-17.00 -20.50 936.00 724.50"><title>Malaysia (MyTrace) logo</title><defs><style>.cls-2{fill:#fff}.cls-4{fill:#fc0}</style></defs><path fill="#cc0001" d="M1.21838-2.155h900.18907v600.126H1.21838z"/><path d="M1.21838 555.10494h900.18907v42.86614H1.21838z" class="cls-2" id="a"/><path d="M1.21838 469.37265h900.18907v42.86614H1.21838z" class="cls-2" id="a-2" data-name="a"/><path d="M1.21838 383.64035h900.18907v42.86615H1.21838z" class="cls-2" id="a-3" data-name="a"/><path d="M1.21838 297.90806h900.18907v42.86615H1.21838z" class="cls-2" id="a-4" data-name="a"/><path d="M1.21838 212.17577h900.18907v42.86615H1.21838z" class="cls-2" id="a-5" data-name="a"/><path d="M1.21838 126.44348h900.18907v42.86615H1.21838z" class="cls-2" id="a-6" data-name="a"/><path d="M1.21838 40.71119h900.18907v42.86614H1.21838z" class="cls-2" id="a-7" data-name="a"/><path fill="#010066" d="M1.21838-2.155h450.09453v342.92921H1.21838z"/><path d="M173.11163 40.71119c-71.2221 0-129.0271 57.61209-129.0271 128.59844s57.805 128.59843 129.0271 128.59843a128.67182 128.67182 0 0 0 69.8418-20.48145 114.45547 114.45547 0 0 1-37.40928 6.25844c-63.15468 0-114.40974-51.08358-114.40974-114.02395 0-62.94893 51.25506-114.03251 114.40974-114.03251a114.2229 114.2229 0 0 1 39.69406 7.06 128.662 128.662 0 0 0-72.12658-21.9774z" class="cls-4"/><path d="M387.08656 236.25368l-54.35427-28.356 16.07481 58.04076-36.35049-48.5502-11.34668 59.08676-11.15378-59.121-36.50483 48.43874 16.25484-57.98932-54.44 28.19306 40.43994-45.36525-61.5901 2.35765 56.61761-23.75641-56.54043-23.92789 61.5815 2.54625-40.29418-45.481 54.34571 28.35166-16.0748-58.04076 36.35907 48.5502 11.34239-59.08669 11.15378 59.121 36.50483-48.43874-16.25483 57.98932 54.44-28.19306-40.43993 45.36524 61.59007-2.35764-56.61761 23.75641 56.54043 23.92789-61.58149-2.54625z" class="cls-4"/><path d="M170.99827 620.77213h15.14844V671.153h-9.80957v-34.07716q0-1.46923.03418-4.11914.03369-2.64845.03418-4.084l-9.54785 42.2803H156.6262l-9.47851-42.28027q0 1.43555.03417 4.084.0337 2.6499.03418 4.11914V671.153h-9.80957v-50.38087h15.31836l9.1709 39.61426zm38.85938 27.71973a15.40364 15.40364 0 0 0 3.89062-.8545 2.93077 2.93077 0 0 0 2.10059-2.76855 3.27507 3.27507 0 0 0-1.61133-3.16211 10.19652 10.19652 0 0 0-4.72949-.87109q-3.498 0-4.9541 1.709a7.04472 7.04472 0 0 0-1.38575 3.418h-9.39941a14.251 14.251 0 0 1 2.74609-8.03223q3.87891-4.92187 13.31934-4.92187a23.7598 23.7598 0 0 1 10.916 2.42676q4.771 2.42724 4.77149 9.16015v17.08985q0 1.77831.06836 4.30664a5.40809 5.40809 0 0 0 .58105 2.59765 3.47848 3.47848 0 0 0 1.43555 1.12793v1.43551H217.011a10.75377 10.75377 0 0 1-.61524-2.11914q-.17139-.9917-.27344-2.25586a20.12915 20.12915 0 0 1-4.67578 3.72558 14.1347 14.1347 0 0 1-7.15136 1.81153 12.34023 12.34023 0 0 1-8.40528-2.8877q-3.31786-2.88867-3.31738-8.18652 0-6.87012 5.33691-9.94629a23.83457 23.83457 0 0 1 8.6084-2.39258zm5.95605 4.54589a10.834 10.834 0 0 1-1.88867.94043 16.05873 16.05873 0 0 1-2.61524.666l-2.21777.41016a14.59022 14.59022 0 0 0-4.47754 1.333 4.44889 4.44889 0 0 0-2.30078 4.13575 4.31767 4.31767 0 0 0 1.40527 3.60546 5.33784 5.33784 0 0 0 3.41895 1.11133 10.18224 10.18224 0 0 0 5.88281-1.8457q2.68946-1.8457 2.793-6.7334zm28.16504 18.11525h-9.74121v-50.38087h9.74121zm24.25781-22.66114a15.40363 15.40363 0 0 0 3.89063-.8545 2.93076 2.93076 0 0 0 2.10058-2.76855 3.27508 3.27508 0 0 0-1.61132-3.16211 10.19657 10.19657 0 0 0-4.7295-.87109q-3.498 0-4.9541 1.709a7.04472 7.04472 0 0 0-1.38574 3.418h-9.39941a14.25093 14.25093 0 0 1 2.74609-8.03223q3.87891-4.92187 13.31933-4.92187a23.75981 23.75981 0 0 1 10.916 2.42676q4.771 2.42724 4.77148 9.16015v17.08985q0 1.77831.06836 4.30664a5.40795 5.40795 0 0 0 .58106 2.59765 3.47842 3.47842 0 0 0 1.43555 1.12793v1.43551h-10.59569a10.75438 10.75438 0 0 1-.61523-2.11914q-.17139-.9917-.27344-2.25586a20.12935 20.12935 0 0 1-4.67578 3.72558 14.13474 14.13474 0 0 1-7.15137 1.81153 12.34019 12.34019 0 0 1-8.40527-2.8877q-3.31788-2.88867-3.31738-8.18652 0-6.87012 5.33691-9.94629a23.83444 23.83444 0 0 1 8.6084-2.39258zm5.95606 4.54589a10.83431 10.83431 0 0 1-1.88867.94043 16.05873 16.05873 0 0 1-2.61524.666l-2.21777.41016a14.59013 14.59013 0 0 0-4.47754 1.333 4.44889 4.44889 0 0 0-2.30078 4.13575 4.31767 4.31767 0 0 0 1.40527 3.60546 5.3378 5.3378 0 0 0 3.419 1.11133 10.18228 10.18228 0 0 0 5.88281-1.8457q2.68946-1.8457 2.793-6.7334zm19.68847 25.25879l1.23047.06836a15.38355 15.38355 0 0 0 2.73438-.10254 4.9171 4.9171 0 0 0 2.1875-.78613 5.26268 5.26268 0 0 0 1.58886-2.42676 5.84461 5.84461 0 0 0 .63282-2.25586l-13.68946-38.89648h10.835l8.13477 27.48047 7.69043-27.48047h10.35645l-12.77247 36.64062q-3.70166 10.59522-5.85742 13.14161-2.15625 2.54589-8.623 2.54687-1.30079 0-2.08789-.01758-.78663-.01758-2.36036-.11914zm45.01465-19.03808a6.49106 6.49106 0 0 0 1.33887 3.6914q1.8208 1.94825 6.73144 1.94825a10.30757 10.30757 0 0 0 4.585-.8545 2.73646 2.73646 0 0 0 1.70019-2.56347 2.764 2.764 0 0 0-1.36914-2.49512q-1.37109-.854-10.19141-2.93945-6.35008-1.57178-8.94726-3.93067a8.51809 8.51809 0 0 1-2.59766-6.69922 11.60815 11.60815 0 0 1 4.0586-8.86914q4.05907-3.709 11.42382-3.709 6.98731 0 11.38868 2.78516 4.40038 2.78613 5.05273 9.62207h-9.74121a5.75967 5.75967 0 0 0-1.0625-2.97364q-1.61133-1.98194-5.48438-1.98242a7.89276 7.89276 0 0 0-4.541.99121 2.85184 2.85184 0 0 0-1.35352 2.32422 2.54229 2.54229 0 0 0 1.43946 2.42676q1.43847.78661 10.17089 2.70019 5.81984 1.36671 8.72657 4.13575a9.39074 9.39074 0 0 1 2.87109 7.00683 11.31139 11.31139 0 0 1-4.12695 9.04q-4.12794 3.50391-12.75781 3.50391-8.80226 0-12.99708-3.709a12.04943 12.04943 0 0 1-4.19531-9.45019zm41.3916-29.80469h-9.87793v-8.98926h9.87793zm-9.87793 4.44336h9.87793V671.153h-9.87793zm34.06739 14.59473a15.40364 15.40364 0 0 0 3.89062-.8545 2.93077 2.93077 0 0 0 2.10059-2.76855 3.27507 3.27507 0 0 0-1.61133-3.16211 10.19652 10.19652 0 0 0-4.72949-.87109q-3.498 0-4.9541 1.709a7.04472 7.04472 0 0 0-1.38575 3.418h-9.39941a14.251 14.251 0 0 1 2.74609-8.03223q3.87891-4.92187 13.31934-4.92187a23.7598 23.7598 0 0 1 10.916 2.42676q4.771 2.42724 4.77149 9.16015v17.08985q0 1.77831.06836 4.30664a5.40809 5.40809 0 0 0 .58105 2.59765 3.47848 3.47848 0 0 0 1.43555 1.12793v1.43551h-10.5957a10.75377 10.75377 0 0 1-.61524-2.11914q-.17139-.9917-.27343-2.25586a20.12941 20.12941 0 0 1-4.67579 3.72558 14.13468 14.13468 0 0 1-7.15136 1.81153 12.34023 12.34023 0 0 1-8.40528-2.8877q-3.31786-2.88867-3.31738-8.18652 0-6.87012 5.33691-9.94629a23.83457 23.83457 0 0 1 8.6084-2.39258zm5.95605 4.54589a10.834 10.834 0 0 1-1.88867.94043 16.05885 16.05885 0 0 1-2.61523.666l-2.21778.41016a14.59022 14.59022 0 0 0-4.47754 1.333 4.44889 4.44889 0 0 0-2.30078 4.13575 4.31767 4.31767 0 0 0 1.40527 3.60546 5.33784 5.33784 0 0 0 3.419 1.11133 10.18224 10.18224 0 0 0 5.88281-1.8457q2.68946-1.8457 2.793-6.7334zM450.595 633.487a73.25346 73.25346 0 0 1 7.89551-13.53515h7.34863l-2.085 3.82812a56.99448 56.99448 0 0 0-5.98144 16.543 65.41785 65.41785 0 0 0-1.09375 12.37305 58.44788 58.44788 0 0 0 3.042 19.24316A87.81082 87.81082 0 0 0 466.01 685.2692h-7.21191l-2.42676-3.31543a44.41272 44.41272 0 0 1-5.02442-8.95508 50.99347 50.99347 0 0 1-4.751-20.918A46.40057 46.40057 0 0 1 450.595 633.487zm55.02241-12.71487h15.14844V671.153h-9.80957v-34.07716q0-1.46923.03418-4.11914.03369-2.64845.03418-4.084l-9.54785 42.2803h-10.23145l-9.47851-42.28027q0 1.43555.03418 4.084.03369 2.6499.03418 4.11914V671.153h-9.80958v-50.38087H487.344l9.1709 39.61426zm25.57324 57.52441l1.23047.06836a15.38355 15.38355 0 0 0 2.73438-.10254 4.9171 4.9171 0 0 0 2.1875-.78613 5.26268 5.26268 0 0 0 1.58886-2.42676 5.84461 5.84461 0 0 0 .63282-2.25586l-13.68946-38.89648h10.835l8.13478 27.48047 7.69043-27.48047h10.35645l-12.77247 36.64062q-3.70165 10.59522-5.85742 13.14161-2.15625 2.54589-8.623 2.54687-1.30079 0-2.08789-.01758-.78663-.01758-2.36036-.11914zm74.85352-57.52441v8.9209h-15.07324v41.46h-10.59571v-41.46h-15.1416v-8.9209zm22.2334 12.25293q.1875.01758.83789.05176v9.98047q-.92286-.10254-1.64063-.13672-.71776-.03369-1.16211-.03418-5.87988 0-7.8955 3.82812a14.89394 14.89394 0 0 0-1.12793 6.63086V671.153h-9.80957v-37.25587h9.29687v6.49414a20.59884 20.59884 0 0 1 3.93067-5.09277 10.70038 10.70038 0 0 1 7.10937-2.29c.18164-.00004.33594.00582.46094.01656zm21.30176 15.4668a15.40364 15.40364 0 0 0 3.89062-.8545 2.93077 2.93077 0 0 0 2.10059-2.76855 3.27507 3.27507 0 0 0-1.61133-3.16211 10.19652 10.19652 0 0 0-4.72949-.87109q-3.498 0-4.95411 1.709a7.04481 7.04481 0 0 0-1.38574 3.418h-9.39941a14.251 14.251 0 0 1 2.74609-8.03223q3.87891-4.92187 13.31934-4.92187a23.7598 23.7598 0 0 1 10.916 2.42676q4.771 2.42724 4.77149 9.16015v17.08985q0 1.77831.06836 4.30664a5.40809 5.40809 0 0 0 .58105 2.59765 3.47848 3.47848 0 0 0 1.43555 1.12793v1.43551h-10.5957a10.75377 10.75377 0 0 1-.61524-2.11914q-.17139-.9917-.27344-2.25586a20.12915 20.12915 0 0 1-4.67578 3.72558 14.1347 14.1347 0 0 1-7.15136 1.81153 12.34023 12.34023 0 0 1-8.40528-2.8877q-3.31786-2.88867-3.31738-8.18652 0-6.87012 5.33691-9.94629a23.83457 23.83457 0 0 1 8.6084-2.39258zm5.95605 4.54589a10.834 10.834 0 0 1-1.88867.94043 16.05873 16.05873 0 0 1-2.61524.666l-2.21777.41016a14.59022 14.59022 0 0 0-4.47754 1.333 4.44889 4.44889 0 0 0-2.30078 4.13575 4.31767 4.31767 0 0 0 1.40527 3.60546 5.33784 5.33784 0 0 0 3.41895 1.11133 10.18224 10.18224 0 0 0 5.88281-1.8457q2.68946-1.8457 2.793-6.7334zm40.50391-5.77636a8.63444 8.63444 0 0 0-1.40528-3.75977 5.89514 5.89514 0 0 0-5.10449-2.25586q-4.93506 0-6.75 4.8877a20.28778 20.28778 0 0 0-.959 6.88672 18.65641 18.65641 0 0 0 .959 6.58007 6.51489 6.51489 0 0 0 6.57813 4.64844q3.42627 0 4.86523-1.8457a9.17181 9.17181 0 0 0 1.748-4.78516h9.94629a16.29366 16.29366 0 0 1-3.2168 8.40821q-4.585 6.39111-13.582 6.3916-8.99854 0-13.24121-5.332-4.2422-5.332-4.24219-13.82618 0-9.58593 4.68652-14.91894 4.6875-5.332 12.9336-5.332 7.01367 0 11.47851 3.14453 4.46486 3.145 5.28614 11.1084zm40.92285-12.60939a15.1463 15.1463 0 0 1 6.4375 5.51172 18.30242 18.30242 0 0 1 2.96875 7.70117 47.60283 47.60283 0 0 1 .32031 7.39453h-27.13379q.22706 5.606 3.89551 7.86133a9.89525 9.89525 0 0 0 5.37109 1.40137 7.56578 7.56578 0 0 0 7.41407-4.27246h9.94531a12.16442 12.16442 0 0 1-3.61133 6.7334q-5.00684 5.43456-14.0166 5.43457a20.30486 20.30486 0 0 1-13.12305-4.584q-5.68506-4.58349-5.68457-14.916 0-9.67969 5.13184-14.84571 5.1328-5.165 13.32324-5.166a21.20644 21.20644 0 0 1 8.76172 1.74608zm-14.57324 8.415a10.11883 10.11883 0 0 0-2.59473 5.7666h16.78223a8.12653 8.12653 0 0 0-2.59571-5.88672 8.53586 8.53586 0 0 0-5.77734-2.00879 7.72509 7.72509 0 0 0-5.81445 2.12896zm40.7861-9.58a46.47357 46.47357 0 0 1 3.99219 18.59375 51.08806 51.08806 0 0 1-4.74219 20.918 44.49486 44.49486 0 0 1-5.0166 8.95508l-2.42188 3.31543h-7.19922a88.06252 88.06252 0 0 0 6.26563-13.33008 58.65384 58.65384 0 0 0 3.03125-19.24316 65.67263 65.67263 0 0 0-1.08985-12.37305 57.16883 57.16883 0 0 0-5.959-16.543l-2.07812-3.82812h7.33593A73.287 73.287 0 0 1 763.175 633.487z"/></svg>