<svg xmlns="http://www.w3.org/2000/svg" role="img" viewBox="68.19 -2.31 446.62 666.12"><title>MedCreds logo</title><g fill-rule="evenodd" clip-rule="evenodd"><path fill="#005C9D" d="M288.362 53.419c-16.241.52-31.651 4.156-45.899 12.185-11.716 6.602-21.454 15.428-29.457 26.198-7.653 10.3-13.193 21.678-17.139 33.855-1.502 4.634-2.794 9.329-3.729 14.114-.252 1.291-.367 2.613-.692 3.883-1.845 7.185-5.851 12.761-12.481 16.25-4.95 2.603-10.188 3.137-15.493 1.315-6.165-2.115-10.049-6.57-12.07-12.674-1.442-4.358-1.563-8.814-.38-13.242 1.631-6.101 3.239-12.214 5.123-18.238 4.921-15.729 11.731-30.593 20.828-44.37 9.753-14.774 21.65-27.508 36.157-37.724 14.227-10.019 29.861-16.856 46.852-20.607 4.756-1.05 9.549-1.846 14.388-2.415 4.91-.579 9.835-.84 14.769-1.028.458-.019.917-.003 1.313-.003.909-.003 1.877-.006 3.327.017 1.5-.033 3.133-.033 4.77.105.786.066 1.574.146 2.363.169 4.084.127 8.132.612 12.178 1.153 7.385.988 14.631 2.589 21.743 4.794 20.46 6.338 38.23 17.139 53.427 32.21 11.563 11.469 20.799 24.618 28.197 39.092 7.321 14.32 12.543 29.391 16.168 45.039 1.59 6.865 2.854 13.792 3.813 20.769.563 4.106.93 8.24 1.344 12.365.719 7.148 1.021 14.321 1.073 21.5.042 5.795-.104 11.59-.151 17.385-.05 5.797-.065 11.595-.138 17.39-.014 1.131.327 1.974 1.137 2.791 5.524 5.57 10.713 11.443 15.558 17.615 17.465 22.246 29.979 46.983 37.454 74.268 2.142 7.816 3.811 15.732 5.017 23.74.804 5.338 1.42 10.7 1.763 16.093.389 6.115.769 12.229.584 18.356-.174 5.79-.425 11.576-.987 17.351-.987 10.174-2.689 20.214-5.134 30.137-4.741 19.238-12.078 37.431-22.053 54.545-17.303 29.692-40.479 53.761-69.491 72.173-19.274 12.231-40.035 21.008-62.229 26.395-5.629 1.366-11.303 2.495-17.018 3.396-3.571.565-7.177.922-10.77 1.339-9.241 1.076-18.52 1.319-27.81 1.087-3.551-.088-7.1-.366-10.643-.639-3.214-.246-6.426-.547-9.626-.924-2.874-.339-5.742-.745-8.592-1.24-7.455-1.295-14.835-2.922-22.12-4.986-27.477-7.784-52.332-20.648-74.52-38.604-25.521-20.652-45.164-45.917-58.91-75.742-6.499-14.103-11.309-28.768-14.497-43.969-1.271-6.058-2.273-12.16-3.016-18.303-.425-3.527-.649-7.079-.939-10.622-.662-8.089-.587-16.191-.277-24.287.167-4.337.583-8.671 1.052-12.988.469-4.316 1.025-8.63 1.753-12.909 1.67-9.808 4.039-19.455 7.14-28.912 10.142-30.936 26.529-58.113 49.263-81.414 24.378-24.986 53.223-42.81 86.473-53.473 8.903-2.856 17.967-5.073 27.187-6.651 4.734-.81 9.475-1.56 14.264-1.965 3.212-.271 6.428-.508 9.64-.782 6.642-.565 13.296-.408 19.946-.278 3.286.063 6.569.366 9.85.633 3.083.25 6.165.522 9.231.918 3.651.473 7.301.997 10.922 1.658 8.806 1.606 17.482 3.755 26.019 6.472 12.833 4.086 25.147 9.37 36.965 15.823.61.333 1.169.857 2.08.797.079-.448.223-.88.226-1.313.028-6.521.154-13.044.019-19.561-.121-5.924-.632-11.835-1.45-17.709-2.233-16.037-6.633-31.404-14.274-45.747-6.358-11.933-14.563-22.395-25.067-30.977-11.099-9.068-23.666-15.138-37.62-18.388-4.561-1.061-9.173-1.757-13.819-2.232-2.487-.254-4.994-.319-7.493-.443M455.64 374.637c-.162-93.01-75.47-165.692-165.222-166.033-91.142-.346-165.945 73.219-166.576 164.635-.318 46.114 18.061 88.305 48.597 118.493 32.265 31.899 71.313 47.956 116.678 48.652 91.971.185 166.274-73.885 166.523-165.747z"/><path fill="#FFF" d="M455.64 374.637c-.249 91.862-74.552 165.933-166.524 165.747-45.365-.696-84.413-16.753-116.678-48.652-30.536-30.188-48.915-72.379-48.597-118.493.631-91.416 75.434-164.981 166.576-164.635 89.753.34 165.061 73.023 165.223 166.033zm-130.91 34.657c.839-.329 1.636-.202 2.419-.202 16.071-.007 32.143-.018 48.216.006 2.908.004 5.789-.216 8.633-.787 7.285-1.462 13.689-4.629 18.856-10.053 4.938-5.185 7.528-11.351 7.539-18.549.004-3.162.03-6.325-.009-9.484-.044-3.528-.741-6.927-2.188-10.158-2.473-5.527-6.424-9.755-11.492-12.967-6.168-3.909-12.961-5.742-20.229-5.764-13.173-.04-26.346-.012-39.52-.013-3.493 0-6.983.004-10.476-.005-.575-.002-1.147-.073-1.669-.109-.505-1.008-.345-1.946-.346-2.855-.011-16.137-.011-32.274-.005-48.413 0-3.171-.254-6.313-.988-9.404-1.393-5.868-3.906-11.185-7.962-15.683-5.527-6.124-12.308-9.539-20.711-9.365-2.962.062-5.928 0-8.892.017-1.119.006-2.25-.019-3.353.132-4.593.631-8.747 2.359-12.438 5.173-4.784 3.644-8.177 8.347-10.449 13.877-1.976 4.811-2.872 9.821-2.86 15.028.035 16.072.013 32.143.012 48.215 0 .726.024 1.453-.029 2.173-.027.367-.203.722-.342 1.186-.912.013-1.762.033-2.611.033-16.27.002-32.54.006-48.809-.002-4.249-.002-8.394.642-12.418 1.987-6.458 2.159-11.985 5.714-16.181 11.151-3.302 4.281-5.304 9.096-5.419 14.554-.09 4.279-.066 8.562.025 12.841.082 3.826 1.296 7.363 3.147 10.69 2.186 3.925 5.188 7.119 8.835 9.71 6.49 4.607 13.791 6.774 21.686 6.81 16.269.074 32.539.021 48.808.022.659 0 1.319-.018 1.976.017.372.019.739.129 1.106.198.326.938.222 1.8.222 2.645.007 16.203.02 32.407-.006 48.611-.005 3.512.356 6.964 1.256 10.356 1.656 6.237 4.6 11.757 9.27 16.267 5.247 5.066 11.457 7.827 18.842 7.732 3.227-.04 6.455-.001 9.682-.013.857-.003 1.719.005 2.566-.104 5.37-.691 10.1-2.843 14.188-6.387 4.27-3.701 7.292-8.271 9.317-13.525 1.773-4.603 2.537-9.379 2.532-14.302-.016-16.007-.004-32.013-.004-48.019 0-.725-.016-1.45.029-2.174.026-.377.164-.748.244-1.094z"/><path fill="#26B2FC" d="M324.73 409.294c-.08.346-.219.717-.242 1.095-.045.724-.029 1.449-.029 2.174 0 16.006-.012 32.012.004 48.019.005 4.923-.759 9.699-2.532 14.302-2.025 5.254-5.048 9.824-9.317 13.525-4.089 3.544-8.818 5.695-14.188 6.387-.848.109-1.709.102-2.566.104-3.227.012-6.455-.027-9.682.013-7.385.095-13.595-2.666-18.842-7.732-4.67-4.51-7.614-10.029-9.27-16.267-.9-3.393-1.261-6.845-1.256-10.356.026-16.204.013-32.408.006-48.611 0-.845.104-1.706-.222-2.645-.367-.069-.734-.18-1.106-.198-.657-.034-1.317-.017-1.976-.017-16.27-.001-32.539.052-48.808-.022-7.896-.035-15.196-2.202-21.686-6.81-3.647-2.591-6.649-5.785-8.835-9.71-1.851-3.327-3.065-6.864-3.147-10.69-.091-4.279-.115-8.562-.025-12.841.115-5.458 2.117-10.272 5.419-14.554 4.196-5.438 9.723-8.992 16.181-11.151 4.024-1.346 8.169-1.989 12.418-1.987 16.27.008 32.54.004 48.809.002.849 0 1.699-.021 2.611-.033.139-.464.314-.818.342-1.186.053-.72.029-1.447.029-2.173.001-16.072.023-32.144-.012-48.215-.011-5.207.885-10.217 2.86-15.028 2.272-5.53 5.665-10.233 10.449-13.877 3.691-2.813 7.845-4.542 12.438-5.173 1.102-.151 2.234-.126 3.353-.132 2.964-.017 5.93.045 8.892-.017 8.403-.174 15.184 3.241 20.711 9.365 4.056 4.498 6.569 9.815 7.962 15.683.734 3.091.988 6.233.988 9.404-.006 16.138-.006 32.276.005 48.413.001.909-.159 1.848.346 2.855.521.036 1.094.107 1.669.109 3.492.009 6.982.005 10.476.005 13.174.001 26.347-.027 39.52.013 7.269.021 14.062 1.854 20.229 5.764 5.068 3.212 9.02 7.439 11.492 12.967 1.446 3.231 2.144 6.63 2.188 10.158.039 3.159.013 6.322.009 9.484-.011 7.198-2.601 13.364-7.539 18.549-5.167 5.424-11.571 8.591-18.856 10.053-2.844.571-5.725.791-8.633.787-16.073-.023-32.145-.013-48.216-.006-.785-.001-1.582-.128-2.421.201z"/><path fill="#005C9D" d="M289.59 53.442c-2.499.124-5.006.189-7.493.443-4.646.475-9.259 1.171-13.819 2.232-13.954 3.25-26.521 9.32-37.62 18.388-10.505 8.582-18.709 19.043-25.067 30.977-7.642 14.343-12.041 29.71-14.274 45.747-.818 5.875-1.329 11.785-1.45 17.709-.136 6.517-.01 13.04.019 19.561.003.433.146.865.226 1.313.911.06 1.47-.464 2.08-.797 11.817-6.453 24.132-11.737 36.965-15.823 8.536-2.717 17.213-4.866 26.019-6.472 3.621-.661 7.271-1.185 10.922-1.658 3.066-.396 6.148-.667 9.231-.918 3.28-.267 6.563-.57 9.85-.633 6.65-.129 13.305-.287 19.946.278 3.212.273 6.428.511 9.64.782 4.789.405 9.529 1.155 14.264 1.965 9.221 1.578 18.283 3.795 27.188 6.651 33.25 10.663 62.095 28.487 86.473 53.473 22.734 23.301 39.121 50.479 49.264 81.414 3.1 9.457 5.469 19.104 7.139 28.912.729 4.279 1.285 8.593 1.754 12.909.469 4.317.885 8.651 1.053 12.988.309 8.096.384 16.198-.277 24.287-.29 3.543-.514 7.095-.939 10.622-.742 6.143-1.744 12.245-3.016 18.303-3.188 15.201-7.998 29.866-14.497 43.969-13.745 29.825-33.389 55.09-58.909 75.742-22.188 17.956-47.044 30.82-74.521 38.604-7.285 2.064-14.665 3.691-22.12 4.986-2.85.495-5.719.901-8.592 1.24-3.201.377-6.412.678-9.627.924-3.543.272-7.092.551-10.643.639-9.29.232-18.568-.011-27.81-1.087-3.593-.417-7.198-.773-10.77-1.339-5.715-.901-11.389-2.03-17.018-3.396-22.193-5.387-42.954-14.163-62.229-26.395-29.012-18.412-52.188-42.48-69.491-72.173-9.975-17.114-17.312-35.307-22.053-54.545-2.444-9.923-4.146-19.963-5.134-30.137-.563-5.774-.813-11.561-.987-17.351-.185-6.128.195-12.241.584-18.356.343-5.393.959-10.755 1.763-16.093 1.206-8.008 2.875-15.924 5.017-23.74 7.476-27.284 19.989-52.022 37.454-74.268 4.845-6.172 10.033-12.045 15.558-17.615.81-.817 1.15-1.66 1.137-2.791-.072-5.795-.088-11.593-.138-17.39-.048-5.795-.193-11.59-.151-17.385.052-7.178.354-14.352 1.073-21.5.414-4.125.78-8.259 1.344-12.365.96-6.977 2.224-13.903 3.813-20.769 3.625-15.648 8.847-30.719 16.168-45.039 7.398-14.474 16.634-27.623 28.197-39.092 15.196-15.071 32.967-25.872 53.427-32.21 7.112-2.205 14.358-3.806 21.743-4.794 4.046-.541 8.094-1.026 12.178-1.153.789-.023 1.577-.104 2.363-.169 1.637-.138 3.27-.138 4.77-.105 1.449-.022 2.418-.02 3.326-.017.396 0 .855-.016 1.314.003 4.934.188 9.857.449 14.768 1.028 4.84.569 9.633 1.365 14.389 2.415 16.99 3.751 32.625 10.588 46.852 20.607 14.507 10.215 26.404 22.949 36.157 37.724 9.097 13.777 15.907 28.641 20.827 44.37 1.885 6.024 3.492 12.137 5.123 18.238 1.184 4.427 1.063 8.884-.379 13.242-2.021 6.104-5.906 10.559-12.07 12.674-5.305 1.821-10.543 1.287-15.493-1.315-6.63-3.488-10.636-9.065-12.481-16.25-.325-1.27-.439-2.593-.691-3.883-.936-4.786-2.229-9.48-3.73-14.114-3.945-12.177-9.485-23.555-17.139-33.855-8.003-10.77-17.741-19.596-29.457-26.198-14.248-8.028-29.658-11.665-45.898-12.185m-.76 486.967c45.364-.696 84.412-16.753 116.678-48.652 30.535-30.188 48.914-72.379 48.596-118.493-.631-91.416-75.434-164.981-166.576-164.635-89.752.341-165.06 73.023-165.222 166.033.248 91.862 74.551 165.932 166.524 165.747z"/></g><path d="M154.58778 597.12287l-9.53822 41.5703-9.60962-41.5703h-16.06705v52.86314H129.666v-35.75556c0-1.03033-.0102-2.46871-.0408-4.32535-.0204-1.84644-.0306-3.27462-.0306-4.28455l9.93606 44.36546h10.72157l10.00747-44.36546c0 1.00993-.0102 2.43811-.0408 4.28455-.0204 1.85664-.0306 3.29502-.0306 4.32535v35.75556h10.2931v-52.86314zm35.23529 23.38138c1.30576-1.47919 3.142-2.22388 5.5087-2.22388 2.17288 0 3.99891.70389 5.4679 2.10146 1.46898 1.39758 2.28509 3.44804 2.45851 6.15139h-15.89363c.33665-2.54013 1.16295-4.53958 2.45852-6.02897zm14.29202-8.82412c-2.60133-1.21396-5.5291-1.82604-8.78332-1.82604-5.4781 0-9.92586 1.80563-13.3637 5.4169-3.42764 3.61125-5.14146 8.80372-5.14146 15.56718 0 7.22252 1.89744 12.43538 5.70253 15.63859 3.80508 3.2032 8.19164 4.80481 13.15968 4.80481 6.02896 0 10.71136-1.90764 14.05739-5.70252 2.15247-2.39731 3.36643-4.75381 3.62146-7.0695h-10.43593c-.55087 1.15274-1.18335 2.05046-1.89744 2.69314-1.31597 1.19355-3.02979 1.79543-5.13126 1.79543-1.97905 0-3.68267-.48967-5.09045-1.4792-2.3157-1.571-3.55005-4.32534-3.69287-8.24264h26.75801c.0408-3.37663-.0612-5.95756-.32644-7.75299-.45906-3.06039-1.44858-5.74333-2.97878-8.06923-1.69341-2.62173-3.84589-4.54978-6.45742-5.77393zm-8.06923-1.82604zm45.4468 1.67302c-1.84644-1.04054-3.94791-1.5608-6.31461-1.5608-5.14146 0-9.25258 1.90764-12.32317 5.73313-3.0706 3.82549-4.61099 9.07915-4.61099 15.7508 0 5.78414 1.5608 10.51755 4.6824 14.22062 3.1216 3.69287 6.96748 5.5393 11.53767 5.5393 2.76455 0 5.09045-.53046 6.95728-1.5812 1.85664-1.05073 3.51945-2.73395 4.97824-5.05984v5.41689h9.93606v-52.79173h-10.36452v18.64798c-1.14254-1.83624-2.64213-3.27462-4.47837-4.31515zm2.50951 27.84955c-1.50979 2.14227-3.71327 3.2236-6.60024 3.2236-2.89717 0-5.04964-1.08133-6.47782-3.244-1.41798-2.16268-2.13208-5.04965-2.13208-8.66091 0-3.34603.7039-6.15139 2.10147-8.41607 1.39758-2.2545 3.59086-3.38684 6.57984-3.38684 1.95865 0 3.68267.62228 5.16186 1.86684 2.4177 2.05046 3.62146 5.4781 3.62146 10.2523 0 3.42765-.7549 6.2126-2.25449 8.36508zm27.57412-36.72468c-4.94763 4.98843-7.42655 12.10894-7.42655 21.33091 0 8.5385 2.18308 15.26115 6.52883 20.15777 4.35596 4.87622 10.33392 7.31433 17.93389 7.31433 6.14118 0 11.18062-1.80563 15.11832-5.41689 3.9275-3.60105 6.37582-8.29365 7.33474-14.05739h-10.9358c-.74469 2.72375-1.673 4.77421-2.80535 6.13098-2.03006 2.54013-4.97824 3.80509-8.85473 3.80509-3.77448 0-6.89608-1.47919-9.3444-4.42737-2.4483-2.95837-3.67246-7.39594-3.67246-13.3229 0-5.92695 1.16295-10.51753 3.47864-13.75135 2.3157-3.244 5.4883-4.86602 9.50762-4.86602 3.9377 0 6.91648 1.15275 8.92613 3.44804 1.12215 1.28537 2.04026 3.20321 2.76456 5.73313h11.0378c-.16322-3.29502-1.38738-6.57983-3.65206-9.86465-4.11113-5.82495-10.61956-8.74252-19.5151-8.74252-6.64104 0-12.11914 2.17288-16.42408 6.52884zm16.10785-7.14091zm52.69991 14.46544c-.13261-.0102-.29583-.0102-.48966-.0102-3.06039 0-5.5393.7957-7.45715 2.3973-1.17315.95892-2.54012 2.74415-4.12132 5.34548v-6.81446h-9.75245V649.986h10.29312v-18.67858c0-3.142.38765-5.4577 1.18335-6.9675 1.40778-2.67273 4.17233-4.0091 8.28345-4.0091.30604 0 .7141.0102 1.21396.0306.51006.0306 1.08133.07141 1.72402.14282v-10.46653c-.45906-.0306-.7447-.0408-.87732-.06121zm16.78114 10.52774c1.30577-1.47919 3.142-2.22388 5.5087-2.22388 2.17288 0 3.99891.70389 5.4679 2.10146 1.46899 1.39758 2.2851 3.44804 2.45852 6.15139h-15.89363c.33664-2.54013 1.15275-4.53958 2.45851-6.02897zm14.29202-8.82412c-2.60133-1.21396-5.5291-1.82604-8.78331-1.82604-5.4781 0-9.92587 1.80563-13.3637 5.4169-3.42764 3.61125-5.14146 8.80372-5.14146 15.56718 0 7.22252 1.89744 12.43538 5.70252 15.63859 3.79489 3.2032 8.19165 4.80481 13.15968 4.80481 6.02897 0 10.71137-1.90764 14.0574-5.70252 2.15247-2.39731 3.35622-4.75381 3.62145-7.0695h-10.43593c-.55087 1.15274-1.18335 2.05046-1.89744 2.69314-1.31597 1.19355-3.02978 1.79543-5.13125 1.79543-1.97905 0-3.68267-.48967-5.09045-1.4792-2.3157-1.571-3.55005-4.32534-3.69287-8.24264h26.7478c.05101-3.37663-.051-5.95756-.31623-7.75299-.45906-3.06039-1.44859-5.74333-2.97878-8.06923-1.69342-2.62173-3.8459-4.54978-6.45743-5.77393zm-8.06922-1.82604zm45.43659 1.67302c-1.83624-1.04054-3.9377-1.5608-6.3044-1.5608-5.14146 0-9.25259 1.90764-12.32318 5.73313-3.07059 3.82549-4.61098 9.07915-4.61098 15.7508 0 5.78414 1.5608 10.51755 4.6824 14.22062 3.12159 3.69287 6.96748 5.5393 11.52746 5.5393 2.77475 0 5.10065-.53046 6.95729-1.5812 1.86684-1.05073 3.52965-2.73395 4.98843-5.05984v5.41689h9.93607v-52.79173h-10.36452v18.64798c-1.15275-1.83624-2.64214-3.27462-4.48857-4.31515zm2.51972 27.84955c-1.5098 2.14227-3.71328 3.2236-6.60024 3.2236-2.89717 0-5.04965-1.08133-6.47783-3.244-1.41798-2.16268-2.13207-5.04965-2.13207-8.66091 0-3.34603.69369-6.15139 2.10147-8.41607 1.39758-2.2545 3.59085-3.38684 6.57984-3.38684 1.95865 0 3.68266.62228 5.16185 1.86684 2.41771 2.05046 3.62146 5.4781 3.62146 10.2523 0 3.42765-.7549 6.2126-2.25448 8.36508zm29.58377-1.86684h-10.36452c0 4.0091 1.45878 7.31433 4.39676 9.91566 2.92777 2.59113 7.45715 3.8867 13.60853 3.8867 6.01877 0 10.47674-1.22416 13.3535-3.67247 2.88697-2.44831 4.32535-5.61072 4.32535-9.48721 0-2.93798-.99972-5.39649-3.00938-7.35514-2.04026-1.93825-5.08025-3.37663-9.15057-4.33555-6.09017-1.33637-9.65043-2.2851-10.65015-2.83596-.99973-.52027-1.5098-1.37718-1.5098-2.54013 0-.93852.47947-1.75462 1.41799-2.4483.94872-.6835 2.52992-1.03034 4.7538-1.03034 2.70335 0 4.61099.68349 5.74333 2.07086.59168.7651.96913 1.80563 1.11195 3.1216h10.2217c-.45906-4.7742-2.22389-8.14063-5.29448-10.08908-3.07059-1.94845-7.0491-2.92778-11.92532-2.92778-5.14145 0-9.13016 1.29557-11.95592 3.8969-2.83596 2.59113-4.25394 5.69233-4.25394 9.30359 0 3.06039.90791 5.40669 2.72374 7.0287 1.81584 1.6526 4.93743 3.01958 9.3648 4.12132 6.14118 1.45878 9.69123 2.48911 10.65016 3.091.95892.59167 1.42818 1.46898 1.42818 2.61152 0 1.19356-.59168 2.09127-1.77503 2.69315-1.18335.59167-2.77475.89771-4.7844.89771-3.41744 0-5.76374-.68349-7.0287-2.05046-.7141-.7651-1.18336-2.05046-1.39758-3.8663zm7.8142-27.65573z"/></svg>