<svg xmlns="http://www.w3.org/2000/svg" role="img" viewBox="-20.42 -20.42 1061.84 973.84"><title>Model Data Protection Agreement (DPA) logo</title><defs><style>.cls-1{fill:#a80c2f}</style></defs><g id="g3072"><path id="path2882" d="M0 .07352v305.20113h64.43018V.07352z" class="cls-1"/><path id="path2888" d="M105.17132.07352v208.50475h64.43021V.07352z" class="cls-1"/><g id="use2886"><path id="path2882-2" d="M210.24056.07352v305.20113h64.43021V.07352z" class="cls-1" data-name="path2882"/></g><path id="path2982" d="M315.00348.07352v61.06064h64.83864V.07352z" class="cls-1"/><path id="path2486" fill="#918f90" d="M315.514 96.46357v208.50475h64.43021V96.46357z"/><path id="path2416" d="M420.07272.07352v61.06064h170.01V.07352z" class="cls-1"/><g id="use2984"><path id="path2888-2" d="M420.48115 96.76989v208.50476h64.43021V96.76989z" class="cls-1" data-name="path2888"/></g></g><g id="g3036"><path id="M" d="M420.27693 485.4953v60.55011h14.70357l-.81686-38.18828c-.25747-5.7548-.25323-6.7351-.51054-11.53822l2.65481 10.82346 11.02767 38.90319h12.96773l11.43611-40.639c.68619-2.57723.75963-3.0061 1.53162-6.43281l.51054-2.14427-.102 6.02438-1.02108 43.19173h14.49935v-60.55014h-22.05531l-9.70027 36.14627c-.68619 2.83046-.67387 3.25121-1.53162 7.45389l-2.14427-9.59816-9.29184-34.002h-22.15746z" class="cls-1"/><path id="a" d="M518.09371 500.09377c-5.228 0-10.47675.61973-14.59373 3.875-4.03123 3.17762-4.43014 6.91229-4.6875 10h13.15624c.34715-1.62964 1.101-5.28126 6.93751-5.28121 4.71737 0 4.94941 3.44157 5.125 5.5v2.43744c-5.57511 1.02926-14.08508 2.54583-17.68748 4.09375-3.69225 1.5398-9.5 5.67034-9.5 12.875 0 6.26125 4.42216 13.68752 14.71873 13.68747 6.60028 0 10.34652-2.82114 13.68752-5.31252v4.06249h12.96873C537.18947 544.48736 536.875 543.799 536.875 539v-26.03128c0-11.575-13.28787-12.8751-18.78126-12.875zm5.93747 24.5c-.08595 4.63161-.34456 8.6928-4.71871 11.43751a8.43322 8.43322 0 0 1-4.46872 1.53127 4.88271 4.88271 0 0 1-5.03127-4.59377c0-3.43084 3.399-4.63824 5.625-5.5l8.59373-2.875z" class="cls-1"/><path id="s" d="M564.96412 499.79044c-12.52255 0-18.89 7.62959-18.89 15.00989a12.02742 12.02742 0 0 0 3.36957 8.37286 16.7805 16.7805 0 0 0 7.45389 3.88011 51.4917 51.4917 0 0 0 6.02438 1.42952c2.57723.42887 5.6854.60851 7.65811 1.63373a2.86621 2.86621 0 0 1 1.73583 2.65481c0 3.345-4.889 4.3906-8.06654 4.39064-4.97064 0-9.36941-2.712-12.96773-6.22859l-8.37286 7.556c2.83046 2.6589 9.31228 8.67919 21.749 8.67919 10.55388 0 21.13632-5.17895 21.13637-15.72465 0-10.64377-10.39458-13.074-19.40054-14.70357-4.28445-.77194-7.14756-1.20076-7.14756-3.778 0-1.28657 1.18446-3.36956 6.3307-3.36956 3.08777 0 7.025 1.22943 11.23189 4.49275l8.16865-7.556a32.83528 32.83528 0 0 0-20.01316-6.73913z" class="cls-1"/><g id="s2"><path id="s-2" d="M609.68747 499.79044c-12.52255 0-18.89 7.62959-18.89 15.00989a12.02742 12.02742 0 0 0 3.36957 8.37286 16.7805 16.7805 0 0 0 7.45389 3.88011 51.4917 51.4917 0 0 0 6.02438 1.42952c2.57723.42887 5.6854.60851 7.65811 1.63373a2.86621 2.86621 0 0 1 1.73583 2.65481c0 3.345-4.889 4.3906-8.06654 4.39064-4.97064 0-9.36941-2.712-12.96773-6.22859l-8.37286 7.556c2.83046 2.6589 9.31228 8.67919 21.749 8.67919 10.55388 0 21.13632-5.17895 21.13637-15.72465 0-10.64377-10.39458-13.074-19.40054-14.70357-4.28445-.77194-7.14756-1.20076-7.14756-3.778 0-1.28657 1.18446-3.36956 6.3307-3.36956 3.08777 0 7.025 1.22943 11.23189 4.49275l8.16865-7.556a32.83528 32.83528 0 0 0-20.01316-6.73913z" class="cls-1" data-name="s"/></g><g id="a2"><path id="a-2" d="M657.48433 500.09377c-5.22795 0-10.47675.61973-14.59373 3.875-4.03122 3.17762-4.43013 6.91229-4.6875 10h13.15624c.34716-1.62964 1.101-5.28126 6.93752-5.28121 4.71737 0 4.9494 3.44157 5.125 5.5v2.43744c-5.57511 1.02926-14.08508 2.54583-17.68749 4.09375-3.69224 1.5398-9.5 5.67034-9.5 12.875 0 6.26125 4.42216 13.68752 14.71873 13.68747 6.60028 0 10.34652-2.82114 13.68752-5.31252v4.06249h12.96872c-1.02924-1.54383-1.34374-2.23219-1.34374-7.03119v-26.03128c0-11.575-13.28787-12.8751-18.78127-12.875zm5.93748 24.5c-.086 4.63161-.34456 8.6928-4.71871 11.43751a8.43325 8.43325 0 0 1-4.46872 1.53127 4.88271 4.88271 0 0 1-5.03127-4.59377c0-3.43084 3.399-4.63824 5.625-5.5l8.59373-2.875z" class="cls-1" data-name="a"/></g><path id="c" d="M707.81336 500.09691c-14.92414 0-22.46373 10.95813-22.46378 23.99541 0 18.26917 13.58033 23.3828 22.15746 23.38275a22.24458 22.24458 0 0 0 12.86562-3.98221 25.57351 25.57351 0 0 0 7.04546-7.96444l-9.90449-5.20751a9.52464 9.52464 0 0 1-2.04216 3.57379 8.92137 8.92137 0 0 1-6.637 3.16535c-7.03319 0-10.00664-7.45793-10.00659-13.37617 0-5.39946 2.47921-13.58037 9.59816-13.58037a8.49673 8.49673 0 0 1 4.90119 1.53162 10.81145 10.81145 0 0 1 3.778 4.697l9.80238-5.51384a21.3663 21.3663 0 0 0-19.09425-10.72138z" class="cls-1"/><path id="h" d="M729.46028 485.39334v60.65222h13.274V523.786c0-3.85966.01636-7.59274 1.73584-9.90448a6.841 6.841 0 0 1 5.41173-2.55271 6.084 6.084 0 0 1 6.12649 4.39065c.51463 1.54389.61265 3.341.61265 6.94335v23.38276h13.06983v-29.40714c0-5.83652-.64939-10.03108-4.59486-13.37617a14.90937 14.90937 0 0 0-9.49596-3.16535c-7.11491 0-10.97861 4.03935-12.86562 5.92227v-20.62584z" class="cls-1"/><path id="u" d="M780.92276 501.2201v28.18184c0 7.28642.44109 9.92089 2.75692 13.17194 3.08778 4.29263 8.5199 4.799 11.43611 4.79909a18.51575 18.51575 0 0 0 8.475-2.14428 12.27211 12.27211 0 0 0 4.49276-3.47167v4.28854h13.17195V501.2201h-13.17198v27.87551c-.086 2.3975-.22875 4.71742-3.06324 6.43281a8.662 8.662 0 0 1-4.49276 1.12319 6.48335 6.48335 0 0 1-5.20751-2.24637c-1.02517-1.37233-1.021-3.33288-1.02108-5.30963V501.2201z" class="cls-1"/><g id="s3"><path id="s-3" d="M849.131 499.79052c-12.52255 0-18.89 7.62959-18.89 15.00989a12.02742 12.02742 0 0 0 3.36957 8.37287 16.78054 16.78054 0 0 0 7.45389 3.8801 51.49123 51.49123 0 0 0 6.02438 1.42952c2.57723.42887 5.68539.60851 7.6581 1.63373a2.8662 2.8662 0 0 1 1.73584 2.65481c0 3.345-4.889 4.3906-8.06654 4.39065-4.97064 0-9.36941-2.712-12.96773-6.2286l-8.37286 7.556c2.83046 2.6589 9.31228 8.67919 21.749 8.67919 10.55388 0 21.13633-5.17894 21.13638-15.72465 0-10.64377-10.39458-13.074-19.40054-14.70356-4.28445-.77195-7.14756-1.20077-7.14756-3.778 0-1.28658 1.18446-3.36957 6.3307-3.36957 3.08777 0 7.025 1.22943 11.23189 4.49275l8.16865-7.556a32.83535 32.83535 0 0 0-20.01317-6.73913z" class="cls-1" data-name="s"/></g><path id="e" d="M897.75 499.78126c-17.66879 0-23 13.91164-23 24.71874 0 14.66682 9.26811 23.18752 22.5625 23.18752a24.78045 24.78045 0 0 0 16.9688-6.34372 35.29623 35.29623 0 0 0 5.40624-6.75l-10-5c-1.62964 3.17353-4.139 7.875-11.34377 7.875-7.11487 0-10.30864-5.54984-10.21879-11.125h32.06254c-.16732-5.05639-.47614-13.86781-6.31245-20.125-5.74675-6.17962-13.46219-6.43754-16.12507-6.43754zm-.12514 9.5a9.29279 9.29279 0 0 1 6.4375 2.46874c1.88292 1.97271 2.21148 4.42146 2.46874 6.3125h-18.28125a11.64593 11.64593 0 0 1 2.65621-5.90626 9.106 9.106 0 0 1 6.71879-2.87498z" class="cls-1"/><path id="t" d="M929.49006 488.354v13.8867h-6.53492v8.06654h6.53492V531.852c0 4.28037.04088 7.44986 1.83794 10.10871 2.83041 4.12107 7.80918 4.3907 12.35509 4.39065a41.155 41.155 0 0 0 6.94335-.61265v-10.31289l-4.697.102c-3.50847 0-3.45123-2.25865-3.36956-5.0033v-20.21745h8.67919v-7.96443h-8.67917v-13.98881h-13.06984z" class="cls-1"/><g id="t2"><path id="t-2" d="M956.4466 488.35431V502.241h-6.53492v8.06654h6.53492v21.54481c0 4.28036.04088 7.44985 1.83794 10.1087 2.83041 4.12107 7.80918 4.3907 12.35509 4.39065a41.154 41.154 0 0 0 6.94335-.61265v-10.31291l-4.697.102c-3.50847 0-3.45123-2.25864-3.36956-5.00329V510.3074h8.67919v-7.9644h-8.67919v-13.98884H956.4466z" class="cls-1" data-name="t"/></g><g id="s4"><path id="s-4" d="M1001.17 499.79044c-12.52255 0-18.89 7.62959-18.89 15.00989a12.02738 12.02738 0 0 0 3.36957 8.37286 16.78045 16.78045 0 0 0 7.45389 3.88011 51.49123 51.49123 0 0 0 6.02438 1.42952c2.57723.42887 5.68539.60851 7.6581 1.63373a2.8662 2.8662 0 0 1 1.73584 2.65481c0 3.345-4.889 4.3906-8.06654 4.39064-4.97064 0-9.36941-2.712-12.96773-6.22859l-8.37286 7.556c2.83046 2.6589 9.31228 8.67919 21.749 8.67919 10.55388 0 21.13633-5.17895 21.13638-15.72465 0-10.64377-10.39458-13.074-19.40054-14.70357-4.28445-.77194-7.14756-1.20076-7.14756-3.778 0-1.28657 1.18446-3.36956 6.3307-3.36956 3.08777 0 7.025 1.22943 11.23189 4.49275l8.16865-7.556a32.83528 32.83528 0 0 0-20.01317-6.73913z" class="cls-1" data-name="s"/></g><path id="I" d="M420.17483 588.42027v60.55011h15.112v-60.55011z" class="cls-1"/><g id="n"><path id="u-2" d="M487.362 649.12319v-28.18183c0-7.28642-.44109-9.92089-2.75692-13.172-3.08777-4.29263-8.51989-4.799-11.43611-4.79908a18.51574 18.51574 0 0 0-8.475 2.14427 12.27221 12.27221 0 0 0-4.49276 3.47168v-4.28854h-13.17195v44.82545h13.17194v-27.87546c.086-2.3975.22875-4.71741 3.06325-6.43281a8.662 8.662 0 0 1 4.49275-1.12319 6.48336 6.48336 0 0 1 5.20752 2.24638c1.02517 1.37233 1.021 3.33287 1.02108 5.30962v27.87551z" class="cls-1" data-name="u"/></g><g id="s5"><path id="s-5" d="M515.03326 602.71549c-12.52256 0-18.89005 7.62959-18.89 15.00989a12.02746 12.02746 0 0 0 3.36956 8.37287 16.78057 16.78057 0 0 0 7.4539 3.8801 51.49107 51.49107 0 0 0 6.02437 1.42952c2.57724.42887 5.6854.60851 7.65811 1.63373a2.86622 2.86622 0 0 1 1.73584 2.65481c0 3.345-4.889 4.3906-8.06654 4.39065-4.97064 0-9.36942-2.712-12.96773-6.2286l-8.37286 7.556c2.83045 2.6589 9.31227 8.67919 21.749 8.67919 10.55388 0 21.13633-5.17894 21.13638-15.72465 0-10.64377-10.39459-13.074-19.40054-14.70356-4.28445-.77195-7.14757-1.20077-7.14757-3.778 0-1.28658 1.18447-3.36957 6.3307-3.36957 3.08778 0 7.025 1.22943 11.2319 4.49275l8.16865-7.556a32.8353 32.8353 0 0 0-20.01317-6.73913z" class="cls-1" data-name="s"/></g><g id="t3"><path id="t-3" d="M545.25726 591.27928V605.166h-6.53492v8.06654h6.53492v21.54481c0 4.28036.04088 7.44985 1.83794 10.1087 2.83041 4.12107 7.80918 4.3907 12.35508 4.39065a41.15481 41.15481 0 0 0 6.94335-.61265v-10.31294l-4.697.102c-3.50847 0-3.45123-2.25864-3.36957-5.0033v-20.2174h8.67919v-7.96443h-8.67919v-13.98885h-13.0698z" class="cls-1" data-name="t"/></g><path id="i-2" d="M574.15622 588.31248v10.21875h13.0625v-10.21875zm0 15.84375v44.8125h13.0625v-44.8125z" class="cls-1" data-name="i"/><g id="t4"><path id="t-4" d="M600.702 591.27928V605.166h-6.535v8.06654h6.535v21.54481c0 4.28036.04088 7.44985 1.83794 10.1087 2.83041 4.12107 7.80918 4.3907 12.35508 4.39065a41.155 41.155 0 0 0 6.94336-.61265v-10.31294l-4.697.102c-3.50847 0-3.45123-2.25864-3.36957-5.0033v-20.2174h8.67919v-7.96443h-8.67919v-13.98885H600.702z" class="cls-1" data-name="t"/></g><g id="u2"><path id="u-3" d="M629.037 604.14458v28.18184c0 7.28642.44109 9.92089 2.75692 13.17194 3.08777 4.29263 8.51989 4.799 11.4361 4.79908a18.51575 18.51575 0 0 0 8.475-2.14427 12.27215 12.27215 0 0 0 4.49275-3.47167v4.2885h13.17195v-44.82542h-13.17201v27.87551c-.086 2.3975-.22874 4.71742-3.06324 6.43281a8.662 8.662 0 0 1-4.49276 1.12319 6.48332 6.48332 0 0 1-5.20751-2.24638c-1.02517-1.37232-1.021-3.33287-1.02108-5.30962v-27.87551z" class="cls-1" data-name="u"/></g><g id="t5"><path id="t-5" d="M682.84793 591.27928V605.166H676.313v8.06654h6.53492v21.54481c0 4.28036.04088 7.44985 1.83794 10.1087 2.83041 4.12107 7.80918 4.3907 12.35509 4.39065a41.155 41.155 0 0 0 6.94335-.61265v-10.31294l-4.697.102c-3.50847 0-3.45123-2.25864-3.36956-5.0033v-20.2174h8.67926v-7.96443h-8.67919v-13.98885h-13.06988z" class="cls-1" data-name="t"/></g><g id="e2"><path id="e-2" d="M731.48436 602.70314c-17.6688 0-23 13.91164-23.00006 24.71874 0 14.66682 9.26811 23.18752 22.56251 23.18752a24.78044 24.78044 0 0 0 16.96879-6.34372 35.29623 35.29623 0 0 0 5.40624-6.75l-10-5c-1.62964 3.17353-4.139 7.875-11.34377 7.875-7.11486 0-10.30863-5.54984-10.21879-11.125h32.06254c-.16732-5.05639-.47614-13.86781-6.31245-20.125-5.74668-6.17962-13.46213-6.43754-16.12501-6.43754zm-.12515 9.5a9.29279 9.29279 0 0 1 6.4375 2.46874c1.88292 1.97271 2.21148 4.42146 2.46874 6.3125h-18.28124a11.646 11.646 0 0 1 2.65621-5.90626 9.106 9.106 0 0 1 6.71879-2.87498z" class="cls-1" data-name="e"/></g><path id="o" d="M805.96872 602.78123c-.53156.003-1.05951.0149-1.5625.03119-15.08922.46958-22.65622 10.8219-22.65622 23.6875 0 16.55377 11.48547 23.81256 24.09375 23.8125 17.49725 0 24-12.49072 24-23.8125 0-8.15228-4.012-22.65826-22.28125-23.6875-.53622-.0296-1.06223-.0346-1.59378-.03119zm-.1875 10.40625a9.59165 9.59165 0 0 1 7 2.59375c2.48737 2.40155 3.6875 6.27527 3.6875 11.25 0 7.02912-3.51007 12.75-10.625 12.75-7.37628 0-10.84375-6.26013-10.84375-13.375a16.38064 16.38064 0 0 1 2.25-8.78125c1.8053-2.83044 4.01141-4.149 7.78125-4.40625.23639-.02142.47821-.024.75-.03119z" class="cls-1"/><path id="f" d="M853.93006 587.50145c-6.17555 0-9.90857 2.36893-11.53822 4.59487-1.71539 2.39749-1.83794 5.42808-1.83794 7.6581v5.51384h-7.14757v7.96443h7.04546v35.73784h13.172v-35.73784h8.67918v-7.96443h-8.78129c-.08985-6.00394.13461-7.04541 5.1054-7.04546h3.16535v-9.90448a59.56445 59.56445 0 0 0-7.86237-.81687z" class="cls-1"/><path id="T-6" d="M404.7565 691.24329V703.292h15.82676v48.6035h15.112V703.292h15.72465v-12.04871z" class="cls-1" data-name="T"/><g id="e5"><path id="e-3" d="M471.10169 705.6316c-17.66879 0-23 13.91164-23.00005 24.71874 0 14.66682 9.26811 23.18752 22.5625 23.18752a24.78041 24.78041 0 0 0 16.96879-6.34372 35.29591 35.29591 0 0 0 5.40625-6.75l-10-5c-1.62964 3.17353-4.139 7.875-11.34377 7.875-7.11487 0-10.30864-5.54984-10.21879-11.125h32.06254c-.16732-5.05639-.47614-13.86781-6.31245-20.125-5.74671-6.17962-13.46213-6.43754-16.12502-6.43754zm-.12514 9.5a9.29279 9.29279 0 0 1 6.4375 2.46874c1.88291 1.97271 2.21148 4.42146 2.46874 6.3125h-18.28124a11.64593 11.64593 0 0 1 2.65621-5.90626 9.106 9.106 0 0 1 6.71879-2.87498z" class="cls-1" data-name="e"/></g><g id="c2"><path id="c-2" d="M520.6492 705.94653c-14.92413 0-22.46373 10.95812-22.46378 23.9954 0 18.26918 13.58033 23.38281 22.15746 23.38276a22.24449 22.24449 0 0 0 12.86562-3.98222 25.57337 25.57337 0 0 0 7.0455-7.96447l-9.90449-5.20751a9.52453 9.52453 0 0 1-2.04216 3.57378 8.92133 8.92133 0 0 1-6.637 3.16535c-7.03319 0-10.00664-7.45793-10.00659-13.37616 0-5.39946 2.47921-13.58038 9.59816-13.58038a8.49668 8.49668 0 0 1 4.90119 1.53163 10.81139 10.81139 0 0 1 3.778 4.697l9.80238-5.51384a21.3663 21.3663 0 0 0-19.09429-10.72134z" class="cls-1" data-name="c"/></g><g id="h2"><path id="h-2" d="M542.39823 691.24329v60.65221h13.274v-22.25957c0-3.85966.01636-7.59274 1.73584-9.90448a6.841 6.841 0 0 1 5.41173-2.5527 6.084 6.084 0 0 1 6.12649 4.39064c.51463 1.54389.61264 3.341.61264 6.94336v23.38275h13.06984v-29.40713c0-5.83652-.64939-10.03108-4.59486-13.37616a14.90932 14.90932 0 0 0-9.49606-3.16536c-7.11491 0-10.97861 4.03936-12.86562 5.92227v-20.62583z" class="cls-1" data-name="h"/></g><g id="n2"><path id="u-4" d="M634.44869 752.04817v-28.18184c0-7.28642-.44109-9.92089-2.75692-13.17195-3.08778-4.29263-8.5199-4.799-11.43611-4.79908a18.51574 18.51574 0 0 0-8.475 2.14427 12.27223 12.27223 0 0 0-4.49276 3.47168v-4.28854H594.116v44.82546h13.17195v-27.87552c.086-2.39749.22875-4.71741 3.06324-6.43281a8.66206 8.66206 0 0 1 4.49276-1.12319 6.48332 6.48332 0 0 1 5.20751 2.24638c1.02517 1.37233 1.021 3.33287 1.02108 5.30962v27.87552z" class="cls-1" data-name="u"/></g><g id="o2"><path id="o-2" d="M667.09372 705.70311c-.53156.003-1.05951.0149-1.5625.03119-15.08924.46961-22.65625 10.8219-22.65625 23.6875 0 16.55377 11.48547 23.81256 24.09375 23.8125 17.49725 0 24-12.49072 24-23.8125 0-8.15228-4.012-22.65826-22.28125-23.6875-.5362-.0296-1.0622-.03461-1.59375-.03119zm-.1875 10.40625a9.59165 9.59165 0 0 1 7 2.59375c2.48736 2.40155 3.6875 6.27527 3.6875 11.25 0 7.02912-3.51007 12.75-10.625 12.75-7.37628 0-10.84375-6.26013-10.84375-13.375a16.38064 16.38064 0 0 1 2.25-8.78125c1.8053-2.83044 4.01141-4.149 7.78125-4.40625.23639-.02142.47821-.024.75-.03119z" class="cls-1" data-name="o"/></g><path id="l" d="M699.5426 691.34525v60.5501h13.27406v-60.5501z" class="cls-1"/><g id="o3"><path id="o-3" d="M745.76521 705.69969c-.53156.003-1.05951.01489-1.5625.03118-15.08923.46961-22.65625 10.8219-22.65625 23.6875 0 16.55378 11.48547 23.81257 24.09375 23.8125 17.49725 0 24-12.49072 24-23.8125 0-8.15228-4.012-22.65826-22.28125-23.6875-.53619-.0296-1.0622-.0346-1.59375-.03118zm-.1875 10.40625a9.59157 9.59157 0 0 1 7 2.59375c2.48737 2.40155 3.6875 6.27526 3.6875 11.25 0 7.02911-3.51007 12.75-10.625 12.75-7.37628 0-10.84375-6.26014-10.84375-13.375a16.38064 16.38064 0 0 1 2.25-8.78125c1.8053-2.83045 4.01141-4.149 7.78125-4.40625.23639-.02143.47821-.024.75-.03119z" class="cls-1" data-name="o"/></g><path id="g" d="M794.09372 706.34373c-14.83838 0-19 12.95874-19 21.96875 0 7.71936 2.27319 14.60913 8.28125 18.46875a18.28347 18.28347 0 0 0 10.21875 2.96877 19.02316 19.02316 0 0 0 11.84375-3.78125v4.8125c0 3.6922.009 8.375-7.96875 8.375a9.02894 9.02894 0 0 1-4.1875-.84375c-3.52069-1.63372-3.70343-4.42944-3.875-6.40625h-13.6875c0 2.40155-.05188 6.88959 3.46875 10.40625 2.39752 2.49146 8.232 5.625 17.15625 5.625 4.02716 0 10.76666-.72809 15.3125-3.46875 6.51855-3.778 6.67224-9.51727 6.84375-14.40625v-43h-12.34375v4.1875a15.70051 15.70051 0 0 0-12.0625-4.90627zm2.4375 9.8125a7.781 7.781 0 0 1 7.15625 3.28125c1.45813 2.14838 1.625 6.637 1.625 8.78125 0 6.347-1.46606 11.53125-8.15625 11.53125-8.14825 0-8.46875-7.75323-8.46875-11.53125 0-6.34704 1.58661-11.79693 7.84375-12.0625z" class="cls-1"/><path id="y" d="M824.2166 707.06939l13.37616 43.29384a11.961 11.961 0 0 1 .61265 3.16535c0 3.16944-3.36957 3.17752-5.51384 3.26746h-4.59486v10.415h9.496c3.42671-.086 6.40828-.22481 9.49606-3.57378 2.22593-2.48734 3.149-5.25239 4.18643-8.16865l15.8268-48.39922h-14.09091l-7.35179 32.16406-7.35178-32.16406z" class="cls-1"/></g><path d="M414.93115 832.09082a14.66793 14.66793 0 0 1 10.95362-4.40039q8.896 0 13.00976 5.89844a12.85713 12.85713 0 0 1 2.43945 6.64843h-7.4458a10.14991 10.14991 0 0 0-1.82324-3.86816 7.3397 7.3397 0 0 0-5.89648-2.32031 7.26623 7.26623 0 0 0-6.27637 3.27539q-2.29687 3.27538-2.29688 9.27051 0 5.99561 2.42383 8.98047a7.59275 7.59275 0 0 0 6.15967 2.98535 6.97806 6.97806 0 0 0 5.84131-2.5625 11.2392 11.2392 0 0 0 1.84424-4.13379h7.39746a16.05244 16.05244 0 0 1-4.89111 9.47656 14.23323 14.23323 0 0 1-10.08008 3.65039q-7.60474 0-11.95752-4.93164-4.35279-4.95557-4.35254-13.58594 0-9.33105 4.95068-14.38281zm59.78711 28.74218q-4.0371 4.15869-11.67578 4.1582-7.63916 0-11.67627-4.1582-5.41553-5.10058-5.415-14.69727 0-9.791 5.415-14.69824 4.03711-4.15722 11.67627-4.1582 7.63844 0 11.67578 4.1582 5.39063 4.90722 5.39112 14.69824 0 9.5962-5.39112 14.69727zm-4.65332-5.415q2.59791-3.26367 2.59863-9.28223 0-5.9956-2.59863-9.27148a8.49268 8.49268 0 0 0-7.02246-3.27539 8.60627 8.60627 0 0 0-7.05908 3.26367q-2.63526 3.26367-2.63477 9.2832 0 6.019 2.63477 9.28223a8.60627 8.60627 0 0 0 7.05908 3.26367 8.50456 8.50456 0 0 0 7.02246-3.26367zm36.5752-27.05081h7.73586L502.22754 864h-7.03418l-12.05029-35.63281h7.95312L498.832 855.418zM525.60449 864H518.207v-35.63281h7.39746zm27.8418-34.85938a11.77711 11.77711 0 0 1 6.07226 4.52149 15.85261 15.85261 0 0 1 2.54 5.75293 27.57154 27.57154 0 0 1 .67774 5.89844 23.67947 23.67947 0 0 1-2.85449 12.03906Q556.01025 864 547.92969 864h-15.36231v-35.63281h15.36231a18.80034 18.80034 0 0 1 5.5166.77343zm-13.65137 5.415v23.25586h6.877q5.27783 0 7.35937-5.19726a18.30114 18.30114 0 0 0 1.13867-6.793q0-5.439-1.707-8.35254-1.70654-2.91212-6.791-2.91309zm25.88965 12.37797h13.48926V853.46h-13.48926zm18.7832-7.10742v-4.68945a30.38294 30.38294 0 0 0 4.55762-.43555 6.42672 6.42672 0 0 0 3.376-1.83691 6.048 6.048 0 0 0 1.34961-2.51465 5.78607 5.78607 0 0 0 .26562-1.40234h5.75293V864h-7.05859v-24.17383zm28.82715-7.67578a11.01678 11.01678 0 0 1 8.44922-3.49316q8.001 0 10.97461 7.083a27.58735 27.58735 0 0 1 1.69238 10.56446A30.07538 30.07538 0 0 1 632.792 856.917q-3.09521 8.09913-11.3623 8.09863a11.58964 11.58964 0 0 1-7.083-2.333 9.19466 9.19466 0 0 1-3.60156-6.80469h6.86523a4.1424 4.1424 0 0 0 1.30567 2.51367 4.042 4.042 0 0 0 2.82812.9668q3.40869 0 4.78613-3.77051a22.03 22.03 0 0 0 .94336-6.06836 7.45361 7.45361 0 0 1-2.00683 1.81348 9.107 9.107 0 0 1-4.76172 1.16015 10.829 10.829 0 0 1-7.42188-2.88867q-3.24022-2.88867-3.23925-8.32812a12.86165 12.86165 0 0 1 3.25095-9.12599zm11.5918 13.91211q2.34522-1.49853 2.34473-5.19727a7.3453 7.3453 0 0 0-1.38965-4.71386 4.60939 4.60939 0 0 0-3.80762-1.74024 4.7276 4.7276 0 0 0-3.02148.99121q-1.9834 1.54688-1.98243 5.24512a7.29245 7.29245 0 0 0 1.26953 4.67774 4.7341 4.7341 0 0 0 3.90332 1.55957 4.81024 4.81024 0 0 0 2.6836-.82227zm32.14648-13.97168a14.66759 14.66759 0 0 1 10.95313-4.40039q8.89746 0 13.01074 5.89844a12.86146 12.86146 0 0 1 2.43945 6.64843h-7.44629a10.15716 10.15716 0 0 0-1.82324-3.86816 7.3397 7.3397 0 0 0-5.89648-2.32031 7.26565 7.26565 0 0 0-6.27637 3.27539q-2.29687 3.27538-2.29687 9.27051 0 5.99561 2.42382 8.98047a7.59366 7.59366 0 0 0 6.16016 2.98535 6.97647 6.97647 0 0 0 5.84082-2.5625 11.23951 11.23951 0 0 0 1.84375-4.13379h7.39746a16.04647 16.04647 0 0 1-4.89062 9.47656 14.23405 14.23405 0 0 1-10.08008 3.65039q-7.60546 0-11.958-4.93164-4.35206-4.95557-4.35254-13.58594-.00004-9.33105 4.95116-14.38281zm53.76856 28.68555q-3.33691 4.11766-10.12891 4.11816-6.794 0-10.1289-4.11816a16.34751 16.34751 0 0 1 0-19.793q3.33544-4.17919 10.1289-4.17871 6.79248 0 10.12891 4.17871a16.34751 16.34751 0 0 1 0 19.793zm-5.51176-3.80762a12.30428 12.30428 0 0 0 0-12.20215 6.12257 6.12257 0 0 0-9.29492 0 12.22117 12.22117 0 0 0 0 12.20215 6.10086 6.10086 0 0 0 9.29492 0zm35.02641-17.80762q2.58691 2.14014 2.58789 7.09473V864h-7.0586v-16.02734a7.37809 7.37809 0 0 0-.55175-3.19141 3.87794 3.87794 0 0 0-3.83985-2.03027 4.75816 4.75816 0 0 0-4.77539 2.97363 10.27435 10.27435 0 0 0-.67187 4.01269V864h-6.88965v-26.30176h6.67187v3.84376a11.65912 11.65912 0 0 1 2.50391-2.9248 8.67275 8.67275 0 0 1 5.36816-1.59571 10.10224 10.10224 0 0 1 6.65528 2.13964zm6.28711 3.63867v-4.90722h3.67382V830.543h6.81739v7.34961h4.27927v4.90722h-4.27929v13.92383a3.13189 3.13189 0 0 0 .41113 2.01856 4.528 4.528 0 0 0 2.51367.39843c.21 0 .43164-.00292.665-.01171q.3501-.01173.68945-.03614v5.14942l-3.26367.12011q-4.88379.16994-6.67187-1.6914a5.04026 5.04026 0 0 1-1.16114-3.65039V842.7998zm29.62988 5.17286a10.89124 10.89124 0 0 0 2.752-.6045 2.0725 2.0725 0 0 0 1.48535-1.958 2.31606 2.31606 0 0 0-1.13965-2.23633 7.19849 7.19849 0 0 0-3.34472-.61621 4.39149 4.39149 0 0 0-3.50391 1.209 4.98586 4.98586 0 0 0-.98047 2.417h-6.64746a10.07832 10.07832 0 0 1 1.94239-5.68066q2.74365-3.48046 9.41992-3.48145a16.79308 16.79308 0 0 1 7.7207 1.7168q3.375 1.71679 3.375 6.47852v12.08691q0 1.25684.04785 3.0459a3.8281 3.8281 0 0 0 .41113 1.83691 2.4535 2.4535 0 0 0 1.01563.79786V864H781.293a7.68055 7.68055 0 0 1-.43555-1.499q-.12158-.7002-.19336-1.59571a14.20951 14.20951 0 0 1-3.30664 2.63575 10.0001 10.0001 0 0 1-5.05762 1.28125 8.72994 8.72994 0 0 1-5.94531-2.043 7.26438 7.26438 0 0 1-2.34668-5.79q0-4.85889 3.77539-7.03418a16.85254 16.85254 0 0 1 6.08789-1.69238zm4.21289 3.21484a7.59874 7.59874 0 0 1-1.33594.665 11.35451 11.35451 0 0 1-1.84961.47168l-1.56836.29a10.32769 10.32769 0 0 0-3.167.94238 3.14727 3.14727 0 0 0-1.62793 2.92481 3.05835 3.05835 0 0 0 .99414 2.55078 3.78192 3.78192 0 0 0 2.418.78613 7.20336 7.20336 0 0 0 4.16113-1.30566q1.90137-1.30518 1.97559-4.7627zm28.64648-4.08496a6.0998 6.0998 0 0 0-.99316-2.65918 4.17177 4.17177 0 0 0-3.61035-1.5957 4.75325 4.75325 0 0 0-4.77442 3.457 14.35731 14.35731 0 0 0-.67871 4.87109 13.19575 13.19575 0 0 0 .67871 4.65332 4.60763 4.60763 0 0 0 4.65235 3.28809 4.108 4.108 0 0 0 3.4414-1.30567 6.48613 6.48613 0 0 0 1.23633-3.38476h7.03418a11.52946 11.52946 0 0 1-2.27441 5.94726q-3.24317 4.52052-9.60645 4.52051-6.36474 0-9.36523-3.77148a15.23132 15.23132 0 0 1-3-9.7793q0-6.7793 3.31445-10.55078a11.54629 11.54629 0 0 1 9.14746-3.77149 13.78534 13.78534 0 0 1 8.11817 2.22461q3.15673 2.22365 3.73828 7.85645zm9.06543-4.30274v-4.90722h3.6738V830.543h6.81738v7.34961h4.2793v4.90722h-4.2793v13.92383a3.13181 3.13181 0 0 0 .41114 2.01856 4.52793 4.52793 0 0 0 2.51367.39843c.21 0 .43164-.00292.665-.01171q.3501-.01173.68945-.03614v5.14942l-3.26367.12011q-4.88379.16994-6.67188-1.6914a5.04031 5.04031 0 0 1-1.16113-3.65039V842.7998zm59.39453-14.43261v6.30957h-10.66015V864h-7.49414v-29.32324h-10.709v-6.30957zm15.72559 8.66699c.08789.00781.28613.02051.5918.03613v7.0586q-.65186-.07179-1.16016-.09668c-.33789-.01563-.6123-.02442-.82129-.02442q-4.15869 0-5.585 2.708a10.5368 10.5368 0 0 0-.79785 4.68945V864h-6.9375v-26.34961h6.57519v4.59277a14.56284 14.56284 0 0 1 2.78028-3.60156 7.56542 7.56542 0 0 1 5.02832-1.62012c.12894 0 .23734.00489.32621.0127zm15.06543 10.93848a10.89113 10.89113 0 0 0 2.75195-.6045 2.0725 2.0725 0 0 0 1.48535-1.958 2.31607 2.31607 0 0 0-1.13964-2.23633 7.19857 7.19857 0 0 0-3.34473-.61621 4.39151 4.39151 0 0 0-3.50391 1.209 4.98586 4.98586 0 0 0-.98047 2.417h-6.64746a10.07832 10.07832 0 0 1 1.94239-5.68066q2.74365-3.48046 9.41992-3.48145a16.79308 16.79308 0 0 1 7.7207 1.7168q3.375 1.71679 3.375 6.47852v12.08691q0 1.25684.04785 3.0459a3.828 3.828 0 0 0 .41114 1.83691 2.4534 2.4534 0 0 0 1.01562.79786V864h-7.49414a7.68055 7.68055 0 0 1-.43555-1.499q-.12158-.7002-.19336-1.59571a14.20951 14.20951 0 0 1-3.30664 2.63575 10.00009 10.00009 0 0 1-5.05761 1.28125 8.73 8.73 0 0 1-5.94532-2.043 7.26438 7.26438 0 0 1-2.34668-5.79q0-4.85889 3.77539-7.03418a16.85254 16.85254 0 0 1 6.0879-1.69238zm4.21289 3.21484a7.59874 7.59874 0 0 1-1.33594.665 11.35451 11.35451 0 0 1-1.84961.47168l-1.56836.29a10.32769 10.32769 0 0 0-3.167.94238 3.14727 3.14727 0 0 0-1.62793 2.92481 3.05835 3.05835 0 0 0 .99414 2.55078 3.78192 3.78192 0 0 0 2.418.78613 7.20336 7.20336 0 0 0 4.16113-1.30566q1.90137-1.30518 1.97559-4.7627zm28.64648-4.08496a6.0998 6.0998 0 0 0-.99316-2.65918 4.17177 4.17177 0 0 0-3.61035-1.5957 4.75323 4.75323 0 0 0-4.77441 3.457 14.357 14.357 0 0 0-.67872 4.87109 13.1955 13.1955 0 0 0 .67872 4.65332 4.60762 4.60762 0 0 0 4.65234 3.28809 4.108 4.108 0 0 0 3.44141-1.30567 6.486 6.486 0 0 0 1.23632-3.38476h7.03418a11.52946 11.52946 0 0 1-2.27445 5.94727q-3.24316 4.52052-9.60645 4.52051-6.36474 0-9.36523-3.77148a15.23132 15.23132 0 0 1-3-9.7793q0-6.7793 3.31445-10.55078a11.54629 11.54629 0 0 1 9.14746-3.77149 13.78534 13.78534 0 0 1 8.11817 2.22461q3.15673 2.22365 3.73828 7.85645zm18.85547-12.59473h-6.98632v-6.35742h6.98632zm-6.98632 3.14258h6.98632V864h-6.98632zm34.90722 1.51074q2.58691 2.14014 2.58789 7.09473V864h-7.05859v-16.02734a7.37792 7.37792 0 0 0-.55176-3.19141 3.87793 3.87793 0 0 0-3.83984-2.03027 4.75816 4.75816 0 0 0-4.77539 2.97363 10.27415 10.27415 0 0 0-.67188 4.01269V864h-6.88965v-26.30176h6.67188v3.84376a11.65911 11.65911 0 0 1 2.5039-2.9248 8.6728 8.6728 0 0 1 5.36817-1.59571 10.10221 10.10221 0 0 1 6.65527 2.13964zm22.02832-1.53513a8.27657 8.27657 0 0 1 4.05567 3.81933v-3.79492h6.7207v24.99609q0 5.1006-1.71582 7.6875-2.9502 4.44727-11.31348 4.44727a15.42926 15.42926 0 0 1-8.24414-1.98145 7.31692 7.31692 0 0 1-3.52929-5.92285h7.49414a3.09952 3.09952 0 0 0 .94336 1.74024 5.81715 5.81715 0 0 0 3.74609.94238q3.72363 0 4.98047-2.48926a12.6153 12.6153 0 0 0 .82129-5.36719v-1.6914a8.39329 8.39329 0 0 1-2.127 2.53808 8.55254 8.55254 0 0 1-5.34277 1.57129 10.11087 10.11087 0 0 1-8.11035-3.56543q-3.03369-3.56543-3.0332-9.6582a16.297 16.297 0 0 1 2.92089-9.875 9.64778 9.64778 0 0 1 8.28125-4.001 9.06339 9.06339 0 0 1 3.45219.60452zm2.34668 18.89257q1.66113-1.82519 1.66113-5.81445a8.92054 8.92054 0 0 0-1.57714-5.70508 5.14611 5.14611 0 0 0-4.22461-1.958 4.97872 4.97872 0 0 0-4.98242 3.4082 12.11744 12.11744 0 0 0-.72266 4.47266 10.23672 10.23672 0 0 0 .77051 4.085 5.02033 5.02033 0 0 0 5.00683 3.33691 5.29123 5.29123 0 0 0 4.06836-1.82526zM435.44922 907.9873q-3.12891 2.61036-8.936 2.61036h-7.41943v12.8125h-7.397v-35.63282h15.29931a12.34913 12.34913 0 0 1 8.43653 2.75586q3.14576 2.75684 3.1455 8.53418-.00001 6.30909-3.12891 8.91992zm-5.68262-12.83691a6.00043 6.00043 0 0 0-3.96289-1.18457h-6.71V904.458h6.71a5.69042 5.69042 0 0 0 3.96289-1.28125 5.232 5.232 0 0 0 1.41455-4.06153 4.91562 4.91562 0 0 0-1.41455-3.96483zm28.86377 1.29395c.08838.00781.28565.0205.59229.03613v7.05859q-.65259-.07177-1.16065-.09668c-.33838-.01562-.6123-.02441-.82178-.02441q-4.158 0-5.584 2.708a10.52979 10.52979 0 0 0-.79785 4.68945v12.59473h-6.938v-26.3496h6.5752v4.59277a14.57443 14.57443 0 0 1 2.78027-3.60156 7.56542 7.56542 0 0 1 5.02832-1.62012c.12845 0 .23733.00488.3262.0127zm11.7124-2.52634h-6.98632v-6.35742h6.98632zm-6.98632 3.14258h6.98632v26.34961h-6.98632zm29.89111-.00003h7.39744l-9.51514 26.34961h-7.26416l-9.4497-26.34961h7.73584l5.48779 19.43554zm21.73779 10.32226a10.89078 10.89078 0 0 0 2.75195-.60449 2.07252 2.07252 0 0 0 1.48536-1.958 2.3161 2.3161 0 0 0-1.13966-2.23632 7.19857 7.19857 0 0 0-3.34473-.61621 4.39144 4.39144 0 0 0-3.5039 1.209 4.98549 4.98549 0 0 0-.98 2.417h-6.64794a10.0816 10.0816 0 0 1 1.94189-5.68066q2.74365-3.48048 9.42041-3.48145a16.79308 16.79308 0 0 1 7.7207 1.7168q3.375 1.71679 3.375 6.47851v12.08692q0 1.25683.04785 3.0459a3.828 3.828 0 0 0 .41114 1.83691 2.45338 2.45338 0 0 0 1.01562.79785v1.01563h-7.49414a7.67967 7.67967 0 0 1-.43554-1.499q-.12159-.70018-.19336-1.5957a14.20962 14.20962 0 0 1-3.30664 2.63574 10.00005 10.00005 0 0 1-5.05762 1.28125 8.72986 8.72986 0 0 1-5.94531-2.043 7.264 7.264 0 0 1-2.3462-5.79q0-4.85887 3.77442-7.03418a16.85894 16.85894 0 0 1 6.08838-1.69238zm4.21289 3.21485a7.59839 7.59839 0 0 1-1.33594.665 11.35407 11.35407 0 0 1-1.8496.47168l-1.56836.29a10.32792 10.32792 0 0 0-3.167.94239 3.14685 3.14685 0 0 0-1.62744 2.9248 3.05549 3.05549 0 0 0 .99414 2.55078 3.78049 3.78049 0 0 0 2.41748.78614 7.20335 7.20335 0 0 0 4.16114-1.30567q1.90135-1.30518 1.97558-4.76269zm28.64649-4.08496a6.09977 6.09977 0 0 0-.99317-2.65918 4.17176 4.17176 0 0 0-3.61035-1.59571 4.75325 4.75325 0 0 0-4.77441 3.457 14.35712 14.35712 0 0 0-.67871 4.8711 13.19552 13.19552 0 0 0 .67871 4.65332 4.60762 4.60762 0 0 0 4.65234 3.28808 4.108 4.108 0 0 0 3.44141-1.30566 6.4862 6.4862 0 0 0 1.23633-3.38477h7.03417a11.52938 11.52938 0 0 1-2.27441 5.94727q-3.24316 4.52051-9.60644 4.52051-6.36475 0-9.36524-3.77149a15.23129 15.23129 0 0 1-3-9.77929q0-6.7793 3.31445-10.55079a11.54631 11.54631 0 0 1 9.14747-3.77148 13.78531 13.78531 0 0 1 8.11816 2.22461q3.15674 2.22363 3.73828 7.85645zm12.8125 21.95019l.87011.04785a10.903 10.903 0 0 0 1.9336-.07226 3.477 3.477 0 0 0 1.54687-.55567 3.72843 3.72843 0 0 0 1.125-1.71679 4.16138 4.16138 0 0 0 .44727-1.59571l-9.68262-27.50976h7.66406l5.75293 19.43554 5.43946-19.43554h7.32421l-9.0332 25.91406q-2.61914 7.49413-4.14355 9.29492-1.5249 1.80175-6.09864 1.80176-.91845 0-1.47558-.0127-.5581-.01171-1.66992-.084zm64.72656-20.47559q-3.12744 2.61036-8.93555 2.61036h-7.41894v12.8125h-7.39746v-35.63282h15.2998a12.34734 12.34734 0 0 1 8.43555 2.75586q3.14647 2.75684 3.14648 8.53418 0 6.30909-3.12988 8.91992zm-5.68262-12.83691a5.99848 5.99848 0 0 0-3.96191-1.18457h-6.71V904.458h6.71a5.68863 5.68863 0 0 0 3.96191-1.28125 5.2286 5.2286 0 0 0 1.415-4.06153 4.91252 4.91252 0 0 0-1.415-3.96483zm28.86426 1.29395c.08789.00781.28613.0205.5918.03613v7.05859q-.65186-.07177-1.16016-.09668c-.33789-.01562-.6123-.02441-.82129-.02441q-4.15869 0-5.585 2.708a10.53674 10.53674 0 0 0-.79785 4.68945v12.59473h-6.9375v-26.3496h6.57519v4.59277a14.56284 14.56284 0 0 1 2.78028-3.60156 7.56542 7.56542 0 0 1 5.02832-1.62012c.12894 0 .23734.00488.32621.0127zm11.71191-2.52634H653.291v-6.35742h6.98632zm-6.98632 3.14258h6.98632v26.34961H653.291zm34.90625 1.51071q2.58691 2.14014 2.58789 7.09473v17.74414h-7.0586v-16.02735a7.37787 7.37787 0 0 0-.55176-3.1914 3.87792 3.87792 0 0 0-3.83984-2.03028 4.75815 4.75815 0 0 0-4.77539 2.97364 10.27432 10.27432 0 0 0-.67187 4.01269v14.2627h-6.88965V897.1084h6.67187v3.84375a11.659 11.659 0 0 1 2.50391-2.92481 8.67281 8.67281 0 0 1 5.36816-1.5957 10.10224 10.10224 0 0 1 6.65528 2.13965zm24.75585 7.94141a6.09976 6.09976 0 0 0-.99316-2.65918 4.17177 4.17177 0 0 0-3.61035-1.59571 4.75324 4.75324 0 0 0-4.77441 3.457 14.35709 14.35709 0 0 0-.67872 4.8711 13.1955 13.1955 0 0 0 .67872 4.65332 4.60761 4.60761 0 0 0 4.65234 3.28808 4.108 4.108 0 0 0 3.44141-1.30566 6.4861 6.4861 0 0 0 1.23632-3.38477h7.03418a11.52946 11.52946 0 0 1-2.27441 5.94727q-3.24316 4.52051-9.60645 4.52051-6.36474 0-9.36523-3.77149a15.23129 15.23129 0 0 1-3-9.77929q0-6.7793 3.31445-10.55079a11.54629 11.54629 0 0 1 9.14746-3.77148 13.78534 13.78534 0 0 1 8.11817 2.22461q3.15673 2.22363 3.73828 7.85645zm18.85547-12.5947h-6.98632v-6.35742h6.98632zm-6.98632 3.14258h6.98632v26.34961h-6.98632zm35.81738 2.82809q3.22411 3.40869 3.22363 10.00781 0 6.96242-3.15039 10.61329a10.22735 10.22735 0 0 1-8.11426 3.64941 8.5039 8.5039 0 0 1-5.25586-1.57129 10.12818 10.12818 0 0 1-2.23828-2.53809v13.73145h-6.81738v-36.7207h6.59961v3.8916a11.094 11.094 0 0 1 2.38476-2.707 8.79274 8.79274 0 0 1 5.49805-1.76465 10.41965 10.41965 0 0 1 7.87012 3.40817zm-5.28809 4.95606a4.89967 4.89967 0 0 0-4.55371-2.34473 5.18013 5.18013 0 0 0-5.20215 3.55371 13.33219 13.33219 0 0 0-.7334 4.78613q0 4.5923 2.46485 6.45411a5.65388 5.65388 0 0 0 3.46875 1.08789 5.04308 5.04308 0 0 0 4.43359-2.22364 11.64932 11.64932 0 0 0 .12207-11.31347zm20.40528 18.56543h-6.88965v-35.63282h6.88965zm23.89062-25.81641a10.72307 10.72307 0 0 1 4.55274 3.89844 12.95418 12.95418 0 0 1 2.0996 5.44726 33.753 33.753 0 0 1 .22754 5.2295h-19.1914q.15966 3.96533 2.75488 5.56054a6.99937 6.99937 0 0 0 3.79883.99121 5.351 5.351 0 0 0 5.24414-3.02246h7.0332a8.60152 8.60152 0 0 1-2.55371 4.7627q-3.54053 3.84375-9.91308 3.84375a14.36416 14.36416 0 0 1-9.28125-3.24219q-4.021-3.24169-4.02149-10.54883 0-6.84668 3.62988-10.501a12.70469 12.70469 0 0 1 9.42286-3.65332 15.01719 15.01719 0 0 1 6.19726 1.2344zm-10.30664 5.95215a7.1547 7.1547 0 0 0-1.83594 4.0791H799.374a5.74693 5.74693 0 0 0-1.835-4.16406 6.03569 6.03569 0 0 0-4.08594-1.4209 5.46094 5.46094 0 0 0-4.11224 1.50586zm26.0127 11.45215a4.58793 4.58793 0 0 0 .94726 2.61035q1.2876 1.37841 4.76074 1.37793a7.28332 7.28332 0 0 0 3.24317-.60449 2.024 2.024 0 0 0 .2334-3.57715q-.96827-.605-7.208-2.0791-4.49121-1.11181-6.32813-2.78028a6.02681 6.02681 0 0 1-1.83696-4.73831 8.21347 8.21347 0 0 1 2.87012-6.27344q2.87109-2.62206 8.08007-2.62207a14.84729 14.84729 0 0 1 8.05469 1.96973q3.1128 1.97022 3.57324 6.80469h-6.88964a4.06306 4.06306 0 0 0-.751-2.10254q-1.13966-1.40185-3.87891-1.40235a5.58249 5.58249 0 0 0-3.21191.70118 2.01849 2.01849 0 0 0-.957 1.64355 1.7975 1.7975 0 0 0 1.01855 1.7168 44.05871 44.05871 0 0 0 7.19336 1.90918 13.20368 13.20368 0 0 1 6.17188 2.92578 6.63969 6.63969 0 0 1 2.03027 4.95508 8.00053 8.00053 0 0 1-2.91895 6.39453q-2.91942 2.47706-9.02246 2.47754-6.22559 0-9.19238-2.62305a8.52378 8.52378 0 0 1-2.96777-6.68359z"/></svg>