<svg xmlns="http://www.w3.org/2000/svg" role="img" viewBox="-19.51 -20.51 936.52 732.52"><title>MyTrace (Malaysia) logo</title><defs><style>.cls-2{fill:#fff}.cls-4{fill:#fc0}</style></defs><path d="M156.76976 626.21256h15.79589v52.53613h-10.22851v-35.53418q0-1.53222.03515-4.29492t.03614-4.25977l-9.95606 44.08887h-10.66894l-9.88477-44.08887q0 1.49708.03613 4.25977.03516 2.7627.03516 4.29492v35.53418h-10.22851v-52.53613h15.97363l9.56347 41.30859zm26.66699 59.98535l1.2832.07129a16.03341 16.03341 0 0 0 2.85059-.10742 5.12283 5.12283 0 0 0 2.28125-.81934 5.48217 5.48217 0 0 0 1.65722-2.53027 6.12722 6.12722 0 0 0 .66016-2.35254l-14.27539-40.55957h11.29883l8.48242 28.65527 8.01953-28.65527h10.7998l-13.31933 38.207q-3.86133 11.04785-6.1084 13.7041-2.24853 2.65576-8.99219 2.65528-1.355 0-2.17578-.01758-.82178-.01758-2.46191-.125zm78.05469-59.98535v9.30273h-15.71778v43.2334h-11.04883v-43.2334h-15.78906v-9.30273zm23.18456 12.77832q.19627.019.873.05371v10.40625q-.9624-.10546-1.71094-.14258-.74706-.03516-1.21093-.03515-6.13184 0-8.2334 3.99218-1.17627 2.24415-1.17676 6.91407v18.56933h-10.22846v-38.84863h9.69433v6.77148a21.50128 21.50128 0 0 1 4.09863-5.31054 11.1583 11.1583 0 0 1 7.41309-2.38868c.19044 0 .35059.00684.48144.01856zm22.2129 16.12793a16.09977 16.09977 0 0 0 4.05664-.8916 3.05535 3.05535 0 0 0 2.19043-2.88672 3.41413 3.41413 0 0 0-1.68067-3.29688 10.60637 10.60637 0 0 0-4.93066-.90918q-3.64893 0-5.167 1.78223a7.349 7.349 0 0 0-1.44434 3.56445h-9.80176a14.86937 14.86937 0 0 1 2.86328-8.376q4.04443-5.13282 13.88965-5.13282a24.75864 24.75864 0 0 1 11.38281 2.53125q4.97461 2.53125 4.97559 9.55176v17.82129q0 1.853.07129 4.49024a5.64121 5.64121 0 0 0 .60547 2.709 3.63514 3.63514 0 0 0 1.49707 1.17578v1.49707h-11.04882a11.21892 11.21892 0 0 1-.6416-2.21q-.17871-1.03272-.28516-2.35156a21.01588 21.01588 0 0 1-4.876 3.88476 14.7374 14.7374 0 0 1-7.457 1.88868 12.86417 12.86417 0 0 1-8.76464-3.01172q-3.46-3.01173-3.459-8.53614 0-7.16454 5.56446-10.37207a24.84293 24.84293 0 0 1 8.97656-2.49414zm6.21093 4.74023a11.27912 11.27912 0 0 1-1.96972.98047 16.69339 16.69339 0 0 1-2.72754.69434l-2.31153.42773a15.21637 15.21637 0 0 0-4.66992 1.38965 4.64139 4.64139 0 0 0-2.39941 4.3125 4.50556 4.50556 0 0 0 1.46582 3.76074 5.56778 5.56778 0 0 0 3.56445 1.15821 10.61753 10.61753 0 0 0 6.13477-1.92481q2.80516-1.9248 2.91308-7.02148zm42.23536-6.02343a9.00433 9.00433 0 0 0-1.46485-3.9209 6.14786 6.14786 0 0 0-5.32324-2.35254q-5.14454 0-7.03809 5.09765a21.15135 21.15135 0 0 0-1 7.18067 19.44923 19.44923 0 0 0 1 6.86133 6.79266 6.79266 0 0 0 6.85938 4.84668q3.57275 0 5.07324-1.92383a9.55683 9.55683 0 0 0 1.82227-4.99024h10.3721a16.98954 16.98954 0 0 1-3.35352 8.76758q-4.78125 6.665-14.16406 6.666-9.38379 0-13.80664-5.56055-4.42383-5.56055-4.42383-14.418 0-9.99609 4.88672-15.55664 4.88819-5.56055 13.48633-5.56055 7.314 0 11.96972 3.2793 4.65528 3.27978 5.51172 11.584zm42.67281-13.14942a15.79816 15.79816 0 0 1 6.71289 5.74707 19.09856 19.09856 0 0 1 3.0957 8.03125 49.69047 49.69047 0 0 1 .335 7.71094h-28.29492q.23584 5.84472 4.0625 8.19727a10.31581 10.31581 0 0 0 5.60059 1.46093 7.88355 7.88355 0 0 0 7.73046-4.45508h10.3711a12.68448 12.68448 0 0 1-3.76563 7.02149q-5.2207 5.66748-14.61621 5.668a21.17647 21.17647 0 0 1-13.68359-4.78028q-5.92969-4.77978-5.92871-15.55371 0-10.09424 5.35156-15.48144 5.35107-5.38623 13.89258-5.38672a22.11482 22.11482 0 0 1 9.13668 1.82028zm-15.19629 8.77539a10.55568 10.55568 0 0 0-2.70606 6.0127h17.5a8.47411 8.47411 0 0 0-2.70605-6.13867 8.90271 8.90271 0 0 0-6.02442-2.09375 8.057 8.057 0 0 0-6.06343 2.21972zm53.35844-9.98926a76.42042 76.42042 0 0 1 8.23339-14.11523h7.66309l-2.1748 3.99219a59.46876 59.46876 0 0 0-6.23731 17.251 68.21276 68.21276 0 0 0-1.13965 12.90137 60.94014 60.94014 0 0 0 3.17188 20.06641 91.50527 91.50527 0 0 0 6.55761 13.90039h-7.5205l-2.53028-3.457a46.33478 46.33478 0 0 1-5.23925-9.33789 53.18178 53.18178 0 0 1-4.95411-21.8125 48.37916 48.37916 0 0 1 4.16993-19.38874zm57.37597-13.25976H509.342v52.53613h-10.22947v-35.53418q0-1.53222.03613-4.29492.03516-2.7627.03516-4.25977l-9.95508 44.08887h-10.66992l-9.88382-44.08887q0 1.49708.03516 4.25977t.03613 4.29492v35.53418h-10.22946v-52.53613h15.97461l9.5625 41.30859zm40.52051 28.90625a16.10968 16.10968 0 0 0 4.05762-.8916 3.05436 3.05436 0 0 0 2.18945-2.88672 3.41352 3.41352 0 0 0-1.67969-3.29688 10.61085 10.61085 0 0 0-4.93164-.90918q-3.64891 0-5.166 1.78223a7.34955 7.34955 0 0 0-1.44532 3.56445h-9.80175a14.8625 14.8625 0 0 1 2.86425-8.376q4.04444-5.13282 13.88868-5.13282a24.75867 24.75867 0 0 1 11.38281 2.53125q4.97607 2.53125 4.97558 9.55176v17.82129q0 1.853.07129 4.49024a5.64121 5.64121 0 0 0 .60547 2.709 3.64806 3.64806 0 0 0 1.49707 1.17578v1.49707h-11.04884a11.35418 11.35418 0 0 1-.6416-2.21q-.17871-1.03272-.28515-2.35156a21.01083 21.01083 0 0 1-4.875 3.88476 14.73994 14.73994 0 0 1-7.457 1.88868 12.86418 12.86418 0 0 1-8.76465-3.01172q-3.46-3.01173-3.46-8.53614 0-7.16454 5.56543-10.37207a24.83091 24.83091 0 0 1 8.97656-2.49414zm6.21094 4.74023a11.27113 11.27113 0 0 1-1.96875.98047 16.72028 16.72028 0 0 1-2.72754.69434l-2.3125.42773a15.21751 15.21751 0 0 0-4.66895 1.38965 4.64139 4.64139 0 0 0-2.39941 4.3125 4.50556 4.50556 0 0 0 1.46582 3.76074 5.56778 5.56778 0 0 0 3.56445 1.15821 10.61453 10.61453 0 0 0 6.13379-1.92481q2.80518-1.9248 2.91309-7.02148zm29.36914 18.88965h-10.15723v-52.53613h10.15723zm25.2959-23.62988a16.10958 16.10958 0 0 0 4.05761-.8916 3.05436 3.05436 0 0 0 2.18946-2.88672 3.41352 3.41352 0 0 0-1.67969-3.29688 10.61088 10.61088 0 0 0-4.93164-.90918q-3.64893 0-5.166 1.78223a7.34964 7.34964 0 0 0-1.44531 3.56445h-9.80176a14.86258 14.86258 0 0 1 2.86426-8.376q4.04444-5.13282 13.88867-5.13282a24.75872 24.75872 0 0 1 11.38282 2.53125q4.97607 2.53125 4.97558 9.55176v17.82129q0 1.853.07129 4.49024a5.64121 5.64121 0 0 0 .60547 2.709 3.64806 3.64806 0 0 0 1.49707 1.17578v1.49707h-11.04885a11.35418 11.35418 0 0 1-.6416-2.21q-.17871-1.03272-.28516-2.35156a21.01041 21.01041 0 0 1-4.875 3.88476 14.73994 14.73994 0 0 1-7.457 1.88868 12.8642 12.8642 0 0 1-8.76465-3.01172q-3.46-3.01173-3.46-8.53614 0-7.16454 5.56543-10.37207a24.831 24.831 0 0 1 8.97657-2.49414zm6.21093 4.74023a11.27113 11.27113 0 0 1-1.96875.98047 16.71985 16.71985 0 0 1-2.72753.69434l-2.3125.42773a15.21732 15.21732 0 0 0-4.66895 1.38965 4.64139 4.64139 0 0 0-2.39941 4.3125 4.50556 4.50556 0 0 0 1.46582 3.76074 5.56778 5.56778 0 0 0 3.56445 1.15821 10.61453 10.61453 0 0 0 6.13379-1.92481q2.80518-1.9248 2.91308-7.02148zm20.53028 26.33887l1.2832.07129a16.03341 16.03341 0 0 0 2.85059-.10742 5.12283 5.12283 0 0 0 2.28125-.81934 5.48217 5.48217 0 0 0 1.65722-2.53027 6.12722 6.12722 0 0 0 .66016-2.35254l-14.27539-40.55957h11.29883l8.48242 28.65527 8.01953-28.65527h10.79981l-13.31934 38.207q-3.86133 11.04785-6.1084 13.7041-2.24853 2.65576-8.99219 2.65528-1.355 0-2.17578-.01758-.82177-.01758-2.46191-.125zm46.93945-19.85254a6.76379 6.76379 0 0 0 1.39649 3.84961q1.89843 2.03028 7.01953 2.03125a10.75068 10.75068 0 0 0 4.78125-.89062 2.98553 2.98553 0 0 0 .34472-5.27539q-1.42968-.89062-10.62695-3.06446-6.62256-1.64062-9.33008-4.09961-2.71-2.42285-2.709-6.98535a12.10348 12.10348 0 0 1 4.23242-9.249q4.23193-3.86719 11.91211-3.86719 7.28613 0 11.876 2.9043 4.58935 2.90625 5.26855 10.0332h-10.1582a5.99608 5.99608 0 0 0-1.10742-3.10059q-1.68018-2.06689-5.71875-2.06738-3.32374 0-4.73536 1.03418a2.97106 2.97106 0 0 0-1.41113 2.42285 2.65105 2.65105 0 0 0 1.501 2.53125q1.5.82032 10.60547 2.81543 6.07031 1.4253 9.09961 4.3125a9.79057 9.79057 0 0 1 2.99414 7.30664 11.79592 11.79592 0 0 1-4.30371 9.42676q-4.30372 3.65332-13.30274 3.6543-9.17871 0-13.55273-3.86719a12.56634 12.56634 0 0 1-4.375-9.85547zm43.16211-31.0791H701.4846v-9.374h10.30078zm-10.30078 4.63379h10.30078v38.84863H701.4846zm35.5244 15.21875a16.10957 16.10957 0 0 0 4.05762-.8916 3.05436 3.05436 0 0 0 2.18945-2.88672 3.41353 3.41353 0 0 0-1.67968-3.29688 10.6109 10.6109 0 0 0-4.93164-.90918q-3.64893 0-5.166 1.78223a7.34945 7.34945 0 0 0-1.44531 3.56445h-9.80176a14.86243 14.86243 0 0 1 2.86426-8.376q4.04444-5.13282 13.88867-5.13282a24.75867 24.75867 0 0 1 11.38281 2.53125q4.97607 2.53125 4.97559 9.55176v17.82129q0 1.853.07129 4.49024a5.64121 5.64121 0 0 0 .60547 2.709 3.648 3.648 0 0 0 1.49707 1.17578v1.49707H744.468a11.35348 11.35348 0 0 1-.6416-2.21q-.17871-1.03272-.28516-2.35156a21.01083 21.01083 0 0 1-4.875 3.88476 14.73994 14.73994 0 0 1-7.457 1.88868 12.86418 12.86418 0 0 1-8.76465-3.01172q-3.46-3.01173-3.46-8.53614 0-7.16454 5.56543-10.37207a24.831 24.831 0 0 1 8.97656-2.49414zm6.211 4.74019a11.27113 11.27113 0 0 1-1.96875.98047 16.72028 16.72028 0 0 1-2.72754.69434l-2.3125.42773a15.21733 15.21733 0 0 0-4.66894 1.38965 4.6414 4.6414 0 0 0-2.39942 4.3125 4.50556 4.50556 0 0 0 1.46582 3.76074 5.56781 5.56781 0 0 0 3.56446 1.15821 10.6145 10.6145 0 0 0 6.13378-1.92481q2.80518-1.9248 2.91309-7.02148zm31.05171-20.38668a48.45228 48.45228 0 0 1 4.16308 19.38868 53.26076 53.26076 0 0 1-4.94531 21.8125 46.42022 46.42022 0 0 1-5.23047 9.33789l-2.52636 3.457h-7.50684A91.75661 91.75661 0 0 0 764.76 679.568a61.17192 61.17192 0 0 0 3.16016-20.06641 68.46666 68.46666 0 0 0-1.13575-12.90137 59.58611 59.58611 0 0 0-6.21484-17.251l-2.166-3.99219h7.64943a76.49972 76.49972 0 0 1 8.21871 14.11529z"/><path fill="#cc0001" d="M-1.02167-2.155H899.1674v600.126H-1.02167z"/><path d="M-1.02167 555.10494H899.1674v42.86614H-1.02167z" class="cls-2" id="a"/><path d="M-1.02167 469.37265H899.1674v42.86614H-1.02167z" class="cls-2" id="a-2" data-name="a"/><path d="M-1.02167 383.64035H899.1674v42.86615H-1.02167z" class="cls-2" id="a-3" data-name="a"/><path d="M-1.02167 297.90806H899.1674v42.86615H-1.02167z" class="cls-2" id="a-4" data-name="a"/><path d="M-1.02167 212.17577H899.1674v42.86615H-1.02167z" class="cls-2" id="a-5" data-name="a"/><path d="M-1.02167 126.44348H899.1674v42.86615H-1.02167z" class="cls-2" id="a-6" data-name="a"/><path d="M-1.02167 40.71119H899.1674v42.86614H-1.02167z" class="cls-2" id="a-7" data-name="a"/><path fill="#010066" d="M-1.02167-2.155h450.09454v342.92921H-1.02167z"/><path d="M170.87158 40.71119c-71.2221 0-129.0271 57.61209-129.0271 128.59844s57.805 128.59843 129.0271 128.59843a128.67185 128.67185 0 0 0 69.84181-20.48145 114.45547 114.45547 0 0 1-37.40928 6.25844c-63.15469 0-114.40974-51.08358-114.40974-114.02395 0-62.94893 51.25505-114.03251 114.40974-114.03251a114.22284 114.22284 0 0 1 39.69405 7.06 128.662 128.662 0 0 0-72.12658-21.9774z" class="cls-4"/><path d="M384.84651 236.25368l-54.35427-28.356 16.07481 58.04076-36.35049-48.5502-11.34668 59.08676-11.15378-59.121-36.50482 48.43874 16.25483-57.98932-54.44 28.19306 40.43989-45.36524-61.59 2.35764 56.61762-23.75641-56.54043-23.92789 61.58149 2.54625-40.29418-45.481 54.34572 28.35166-16.07485-58.04074 36.35907 48.5502 11.34239-59.08669 11.15378 59.121 36.50482-48.43876-16.25483 57.98932 54.44-28.19306-40.43993 45.36524 61.59008-2.35764-56.61762 23.75641 56.54043 23.92789-61.58149-2.54625z" class="cls-4"/></svg>