<svg xmlns="http://www.w3.org/2000/svg" role="img" viewBox="-16.94 -17.44 932.88 758.88"><title>New Zealand (NZ COVID Tracer) logo</title><defs><style>.cls-2,.cls-4{fill-rule:evenodd}.cls-2{fill:#fff}.cls-4{fill:#d32928}</style></defs><g id="Layer_1-2" data-name="Layer_1"><path fill="#282878" fill-rule="evenodd" d="M1.187.577h897.006v598.004H1.187V.577z"/><path d="M680.479 53.809l11.61 35.961 37.79-.073-30.618 22.153 11.749 35.915-30.531-22.27-30.53 22.27 11.745-35.915-30.614-22.153 37.79.073 11.609-35.961z" class="cls-2"/><path fill="none" d="M802.305 180.59l10.437 32.337 33.982-.065-27.528 19.919 10.561 32.297-27.452-20.026-27.453 20.026 10.561-32.297-27.528-19.919 33.983.065 10.437-32.337z"/><path d="M802.305 180.59l10.437 32.337 33.982-.065-27.528 19.919 10.561 32.297-27.452-20.026-27.453 20.026 10.561-32.297-27.528-19.919 33.983.065 10.437-32.337zm-262.871 32.509l11.609 35.96 37.786-.072-30.613 22.152 11.748 35.915-30.53-22.269-30.53 22.269 11.745-35.915-30.614-22.152 37.79.072 11.609-35.96zm140.415 209.187l12.786 39.603 41.617-.083-33.716 24.398 12.933 39.556-33.62-24.526-33.623 24.526 12.937-39.556-33.716-24.398 41.617.083 12.785-39.603z" class="cls-2"/><path d="M135.738 100.245h14.95L1.187.577v19.934l119.601 79.734h14.95zm194.351 99.667h-29.9l149.501 99.667v-19.933l-119.601-79.734zm-44.85-99.667h14.95L449.69.577h-29.9l-149.501 99.668h14.95zM16.137 299.579h14.95l149.501-99.667h-29.9L1.187 299.579h14.95z" class="cls-4"/><path d="M105.838 199.912L1.187 269.679v29.9l149.501-99.667h24.917v3.322L31.087 299.579h14.95l129.568-86.378v86.378h99.667v-86.378l129.568 86.378h44.85l-149.501-99.667h29.9l119.601 79.734v-9.967l-104.651-69.767H449.69v-99.667H345.039L449.69 30.478V.577l-149.501 99.668h-24.917v-3.322L419.79.577h-14.95L275.272 86.956V.577h-99.667v86.379L46.037.577H1.187l149.501 99.668h-29.9L1.187 20.511v9.967l104.651 69.767H1.187v99.667h104.651z" class="cls-2"/><path d="M195.538 299.579V179.978H1.187v-59.8h194.351V.577h59.801v119.601H449.69v59.8H255.339v119.601h-59.801zm484.311 142.76l8.197 25.395 26.687-.052-21.62 15.648 8.297 25.363-21.561-15.727-21.56 15.727 8.293-25.363-21.62-15.648 26.687.052 8.2-25.395zM539.434 233.134l7.025 21.768 22.875-.044-18.53 13.41 7.109 21.74-18.479-13.48-18.482 13.48 7.112-21.74-18.534-13.41 22.876.044 7.028-21.768zm262.871-32.497l5.852 18.136 19.061-.037-15.441 11.171 5.924 18.113-15.396-11.231-15.397 11.231 5.924-18.113-15.44-11.171 19.056.037 5.857-18.136zM680.479 73.845l7.029 21.768 22.872-.044-18.531 13.409 7.109 21.741-18.479-13.48-18.482 13.48 7.112-21.741-18.53-13.409 22.872.044 7.028-21.768z" class="cls-4"/></g><path d="M12.09181 668.88443H21.499l17.045 29.94141v-29.94141h8.36036v42.94043H37.9336l-17.48047-30.46777v30.46777h-8.36132zM74.749 680.71451a12.91736 12.91736 0 0 1 5.48731 4.69727 15.61461 15.61461 0 0 1 2.52929 6.56445 40.66357 40.66357 0 0 1 .2744 6.30277H59.9131q.1919 4.77685 3.32031 6.70019a8.436 8.436 0 0 0 4.57715 1.19434 6.45056 6.45056 0 0 0 6.31933-3.64161h8.47656a10.37419 10.37419 0 0 1-3.07812 5.73926Q75.26124 712.903 67.582 712.903a17.31 17.31 0 0 1-11.18457-3.90723q-4.8457-3.90674-4.8457-12.71289 0-8.25 4.374-12.65332a15.30711 15.30711 0 0 1 11.35547-4.40332 18.073 18.073 0 0 1 7.4678 1.48827zm-12.4209 7.17188a8.63492 8.63492 0 0 0-2.21191 4.915h14.30374a6.92094 6.92094 0 0 0-2.21191-5.01661 7.273 7.273 0 0 0-4.92383-1.71289 6.58649 6.58649 0 0 0-4.95606 1.8145zm39.28714-7.81539h8.41895l4.83594 22.86914 4.95215-22.86914h8.65234l-9.20606 31.7539h-8.53515L105.752 688.694l-5.04 23.13086h-8.623L83.17481 680.071h8.91407l4.95212 22.78121zm44.45606 24.17964l21.94824-27.76264H146.625v-7.60352h32.54v7.19532l-22.23242 28.17089h22.291v7.57422H146.0713zm58.89844-23.53613a12.91739 12.91739 0 0 1 5.4873 4.69727 15.61449 15.61449 0 0 1 2.5293 6.56445 40.66509 40.66509 0 0 1 .27441 6.30274H190.1338q.19189 4.77685 3.32031 6.70019a8.436 8.436 0 0 0 4.57715 1.19434 6.45059 6.45059 0 0 0 6.31934-3.64161h8.47656a10.37415 10.37415 0 0 1-3.07813 5.73926q-4.26703 4.63185-11.94629 4.63185a17.31 17.31 0 0 1-11.18457-3.90723q-4.8457-3.90674-4.8457-12.71289 0-8.25 4.374-12.65332a15.30713 15.30713 0 0 1 11.35547-4.40332 18.073 18.073 0 0 1 7.4678 1.48827zm-12.4209 7.17188a8.63492 8.63492 0 0 0-2.21192 4.915h14.30371a6.92094 6.92094 0 0 0-2.21191-5.01661 7.273 7.273 0 0 0-4.92383-1.71289 6.58645 6.58645 0 0 0-4.95605 1.8145zm36.89062 4.62402a13.07382 13.07382 0 0 0 3.31641-.72852 2.49755 2.49755 0 0 0 1.79-2.35937 2.79013 2.79013 0 0 0-1.37305-2.69434 8.68443 8.68443 0 0 0-4.03125-.74316q-2.98242 0-4.22266 1.457a6.00171 6.00171 0 0 0-1.18066 2.91309h-8.01172a12.14911 12.14911 0 0 1 2.34082-6.84668q3.30615-4.19385 11.35254-4.19434a20.24242 20.24242 0 0 1 9.30371 2.06836q4.06641 2.06837 4.06641 7.80664v14.56641q0 1.51464.05859 3.6709a4.60037 4.60037 0 0 0 .49512 2.21386 2.96616 2.96616 0 0 0 1.22363.96094v1.22363h-9.03125a9.16139 9.16139 0 0 1-.52441-1.80664q-.14649-.84375-.23242-1.92187a17.15794 17.15794 0 0 1-3.98536 3.1748 12.04189 12.04189 0 0 1-6.09472 1.54395 10.52081 10.52081 0 0 1-7.165-2.46094 8.75646 8.75646 0 0 1-2.82715-6.97754q0-5.855 4.54883-8.47754a20.3261 20.3261 0 0 1 7.33691-2.03906zm5.07715 3.875a9.22174 9.22174 0 0 1-1.61035.80078 13.566 13.566 0 0 1-2.22949.56836l-1.88965.34961a12.43436 12.43436 0 0 0-3.81641 1.13574 3.79234 3.79234 0 0 0-1.96093 3.52539 3.68178 3.68178 0 0 0 1.19824 3.07325 4.55249 4.55249 0 0 0 2.91308.94628 8.67558 8.67558 0 0 0 5.01368-1.57324q2.29394-1.57325 2.38183-5.73828zm23.40723 15.43945h-8.30274v-42.94043h8.30274zm20.0791-19.31445a13.07382 13.07382 0 0 0 3.31641-.72852 2.49755 2.49755 0 0 0 1.79-2.35937 2.79012 2.79012 0 0 0-1.373-2.69434 8.68449 8.68449 0 0 0-4.03125-.74316q-2.98242 0-4.22266 1.457a6.00171 6.00171 0 0 0-1.18066 2.91309h-8.01172a12.14911 12.14911 0 0 1 2.34082-6.84668q3.30615-4.19385 11.35254-4.19434a20.24245 20.24245 0 0 1 9.30371 2.06836q4.06641 2.06837 4.06641 7.80664v14.56641q0 1.51464.05859 3.6709a4.60037 4.60037 0 0 0 .49512 2.21386 2.96609 2.96609 0 0 0 1.22363.96094v1.22363h-9.03125a9.16146 9.16146 0 0 1-.52442-1.80664q-.14648-.84375-.23242-1.92187a17.15788 17.15788 0 0 1-3.98535 3.1748 12.0419 12.0419 0 0 1-6.09473 1.54395 10.52079 10.52079 0 0 1-7.165-2.46094 8.75646 8.75646 0 0 1-2.82715-6.97754q0-5.855 4.54883-8.47754a20.326 20.326 0 0 1 7.33691-2.03906zm5.07715 3.875a9.22174 9.22174 0 0 1-1.61035.80078 13.56589 13.56589 0 0 1-2.2295.56836l-1.88964.34961a12.43436 12.43436 0 0 0-3.81641 1.13574 3.79233 3.79233 0 0 0-1.96094 3.52539 3.68181 3.68181 0 0 0 1.19824 3.07325 4.55254 4.55254 0 0 0 2.91309.94628 8.67554 8.67554 0 0 0 5.01367-1.57324q2.294-1.57325 2.38184-5.73828zm40.53613-14.49316q3.11865 2.57813 3.11914 8.5498v21.38281h-8.50683v-19.31445a8.87429 8.87429 0 0 0-.665-3.8457q-1.21582-2.44629-4.627-2.44629a5.735 5.735 0 0 0-5.75488 3.583 12.38489 12.38489 0 0 0-.80957 4.83593v17.1875h-8.30273v-31.6953h8.04v4.63184a14.06964 14.06964 0 0 1 3.01765-3.52439 10.4497 10.4497 0 0 1 6.46875-1.92285 12.1702 12.1702 0 0 1 8.02047 2.5781zm27.08008-1.31153a10.09359 10.09359 0 0 1 3.6416 3.51075V668.943h8.41895v42.88183h-8.06934v-4.39843a11.72038 11.72038 0 0 1-4.04981 4.10742 11.3671 11.3671 0 0 1-5.65136 1.28125 11.79991 11.79991 0 0 1-9.36621-4.501q-3.80127-4.5-3.80176-11.55078 0-8.127 3.74414-12.78809a12.17669 12.17669 0 0 1 10.00684-4.66113 10.24532 10.24532 0 0 1 5.12695 1.26665zm2.03906 22.6211a11.58175 11.58175 0 0 0 1.835-6.78809q0-5.82569-2.94238-8.33105a6.33247 6.33247 0 0 0-4.19434-1.51465 5.82862 5.82862 0 0 0-5.3457 2.75293 14.84164 14.84164 0 0 0 .0293 13.86621 5.8631 5.8631 0 0 0 5.25781 2.63672 6.13043 6.13043 0 0 0 5.36031-2.62207zm35.0752-23.48047a62.47236 62.47236 0 0 1 6.72949-11.53613h6.26367l-1.77734 3.26269a48.5617 48.5617 0 0 0-5.09766 14.10059 55.72578 55.72578 0 0 0-.93262 10.54492 49.8235 49.8235 0 0 0 2.59278 16.40137 74.80585 74.80585 0 0 0 5.36035 11.36132h-6.14649l-2.06836-2.82519a37.89893 37.89893 0 0 1-4.2832-7.63281 43.47263 43.47263 0 0 1-4.04883-17.82911 39.54856 39.54856 0 0 1 3.40821-15.84765zm17.66894-10.83692h9.40723l17.04492 29.94141v-29.94141h8.36035v42.94043h-8.9707l-17.48047-30.46777v30.46777h-8.36133zm39.6055 35.36621l21.94821-27.76264h-21.39453v-7.60352h32.54v7.19532l-22.23238 28.17084h22.291v7.57422H445.085zm58.958-30.87988a17.67845 17.67845 0 0 1 13.1992-5.30176q10.72119 0 15.67871 7.1084a15.49517 15.49517 0 0 1 2.93945 8.01074h-8.97266a12.22654 12.22654 0 0 0-2.19726-4.66113q-2.39794-2.79639-7.10645-2.7959a8.75385 8.75385 0 0 0-7.5625 3.94727q-2.76855 3.94776-2.76855 11.17187 0 7.22462 2.9209 10.82227a9.154 9.154 0 0 0 7.42285 3.59766 8.409 8.409 0 0 0 7.03906-3.08789 13.5587 13.5587 0 0 0 2.22266-4.98145h8.915a19.34525 19.34525 0 0 1-5.89453 11.41992 17.15125 17.15125 0 0 1-12.14747 4.39844q-9.16406 0-14.41015-5.94238-5.24415-5.97217-5.24512-16.37207.00004-11.2456 5.96686-17.33399zm71.45213 34.6377q-4.86621 5.01123-14.07129 5.01074-9.20508 0-14.07031-5.01074-6.52589-6.14649-6.5254-17.71192 0-11.79785 6.5254-17.71191 4.86474-5.01123 14.07031-5.01074 9.20508 0 14.07129 5.01074 6.4951 5.91357 6.49609 17.71191 0 11.56494-6.49609 17.71192zm-5.6084-6.52539q3.13184-3.93311 3.13183-11.18653 0-7.2246-3.13183-11.17187a10.23323 10.23323 0 0 0-8.46289-3.94727 10.369 10.369 0 0 0-8.50584 3.9326q-3.17578 3.9331-3.17578 11.18652 0 7.25391 3.17578 11.18653a10.369 10.369 0 0 0 8.50586 3.93261 10.248 10.248 0 0 0 8.46287-3.93259zm43.48047-32.59864h9.32226l-14.63965 42.94043h-8.47753l-14.52149-42.94043h9.585l9.32129 32.59864zm22.2568 42.94043h-8.914v-42.94043h8.914zm32.95413-42.00781a14.18964 14.18964 0 0 1 7.31836 5.44727 19.1118 19.1118 0 0 1 3.06055 6.93359 33.22263 33.22263 0 0 1 .81738 7.1084 28.52864 28.52864 0 0 1-3.44043 14.50781q-4.66552 8.01123-14.40234 8.01074H643.418v-42.94043h18.51367a22.59418 22.59418 0 0 1 6.64646.93262zm-16.45019 6.52539v28.02442h8.28706q6.36034 0 8.86914-6.2627a22.06521 22.06521 0 0 0 1.37207-8.18652q0-6.55371-2.05762-10.06446-2.05664-3.51123-8.18359-3.51074zm80.95898-7.45801v7.60357h-12.84765v35.33691H711.209V676.488h-12.90626v-7.60352zm18.35254 10.44434q.15967.01466.71387.043v8.50683q-.78661-.08789-1.39844-.11621-.6123-.02929-.99023-.02929-5.01123 0-6.72949 3.26269a12.6953 12.6953 0 0 0-.96192 5.65137v15.17773h-8.36035V680.071h7.92383v5.53515a17.57649 17.57649 0 0 1 3.35058-4.34082 9.1192 9.1192 0 0 1 6.0586-1.95117c.15527-.00004.28709.00484.39355.01461zm17.5586 13.18164a13.07372 13.07372 0 0 0 3.3164-.72852 2.49755 2.49755 0 0 0 1.79-2.35937 2.79013 2.79013 0 0 0-1.37305-2.69434 8.68443 8.68443 0 0 0-4.03125-.74316q-2.98242 0-4.22265 1.457a6.00171 6.00171 0 0 0-1.18067 2.91309h-8.01171a12.149 12.149 0 0 1 2.34082-6.84668q3.30615-4.19385 11.35254-4.19434a20.24245 20.24245 0 0 1 9.30371 2.06836q4.06639 2.06837 4.0664 7.80664v14.56641q0 1.51464.0586 3.6709a4.60027 4.60027 0 0 0 .49511 2.21386 2.96619 2.96619 0 0 0 1.22364.96094v1.22363h-9.03125a9.16146 9.16146 0 0 1-.52442-1.80664q-.14648-.84375-.23242-1.92187a17.15809 17.15809 0 0 1-3.98535 3.1748 12.04193 12.04193 0 0 1-6.09473 1.54395 10.52083 10.52083 0 0 1-7.165-2.46094 8.75649 8.75649 0 0 1-2.82715-6.97754q0-5.855 4.54883-8.47754a20.32616 20.32616 0 0 1 7.33692-2.03906zm5.07714 3.875a9.221 9.221 0 0 1-1.61035.80078 13.56573 13.56573 0 0 1-2.22949.56836l-1.88965.34961a12.43438 12.43438 0 0 0-3.8164 1.13574 3.79233 3.79233 0 0 0-1.96094 3.52539 3.68178 3.68178 0 0 0 1.19824 3.07325 4.5525 4.5525 0 0 0 2.91309.94628 8.67554 8.67554 0 0 0 5.01367-1.57324q2.29395-1.57325 2.38183-5.73828zM808 691.46158a7.34661 7.34661 0 0 0-1.19727-3.2041 5.02344 5.02344 0 0 0-4.35058-1.92285 5.72814 5.72814 0 0 0-5.75293 4.166 17.27468 17.27468 0 0 0-.81738 5.86915 15.88309 15.88309 0 0 0 .81738 5.60839 5.55116 5.55116 0 0 0 5.60644 3.96192q2.9209 0 4.14649-1.57324a7.815 7.815 0 0 0 1.49023-4.07813h8.47662a13.87977 13.87977 0 0 1-2.74121 7.166q-3.90819 5.44775-11.57617 5.44824-7.66992 0-11.28515-4.54492-3.61671-4.54395-3.61622-11.78418 0-8.17091 3.99512-12.71582 3.99464-4.54395 11.02246-4.54395a16.61336 16.61336 0 0 1 9.78321 2.67969q3.80566 2.68066 4.50586 9.46777zm34.28224-10.74707a12.91739 12.91739 0 0 1 5.4873 4.69727 15.61449 15.61449 0 0 1 2.5293 6.56445 40.66509 40.66509 0 0 1 .27441 6.30274h-23.127q.1919 4.77685 3.32031 6.70019a8.436 8.436 0 0 0 4.57715 1.19434 6.45059 6.45059 0 0 0 6.31934-3.64161h8.47656a10.37415 10.37415 0 0 1-3.07813 5.73926q-4.26708 4.63184-11.94629 4.63184a17.31 17.31 0 0 1-11.18457-3.90723q-4.8457-3.90674-4.8457-12.71289 0-8.25 4.374-12.65332a15.30713 15.30713 0 0 1 11.35547-4.40332 18.073 18.073 0 0 1 7.46785 1.48828zm-12.4209 7.17188a8.63492 8.63492 0 0 0-2.21192 4.915h14.30371a6.92094 6.92094 0 0 0-2.21191-5.01661 7.273 7.273 0 0 0-4.92383-1.71289 6.58645 6.58645 0 0 0-4.95605 1.8145zm41.95312-8.55762q.15967.01466.71387.043v8.50683q-.78661-.08789-1.39844-.11621-.6123-.02929-.99023-.02929-5.01123 0-6.72949 3.26269a12.6953 12.6953 0 0 0-.96192 5.65137v15.17773h-8.36035V680.071h7.92383v5.53515a17.57649 17.57649 0 0 1 3.35058-4.34082 9.1192 9.1192 0 0 1 6.0586-1.95117c.15527-.00004.28709.00484.39355.01461zm14.83399.39258a39.60787 39.60787 0 0 1 3.40332 15.84765 43.53942 43.53942 0 0 1-4.042 17.82911 37.98069 37.98069 0 0 1-4.2754 7.63281l-2.06445 2.82519h-6.13672a74.85623 74.85623 0 0 0 5.34082-11.36132 49.97822 49.97822 0 0 0 2.583-16.40137 56.06519 56.06519 0 0 0-.92773-10.54492 48.71961 48.71961 0 0 0-5.08008-14.10059l-1.77051-3.26269h6.25293a62.51555 62.51555 0 0 1 6.71682 11.53613z"/></svg>