<svg xmlns="http://www.w3.org/2000/svg" role="img" viewBox="-17.99 -18.49 935.48 596.48"><title>NHS Covid-19 App (United Kingdom) logo</title><defs><clipPath id="clip-path"><path d="M0-.452h900v450H0z" class="cls-1"/></clipPath><clipPath id="clip-path-2"><path d="M450 224.548h450v225H0v-450h900l-450 225z" class="cls-1"/></clipPath><style>.cls-1{fill:none}.cls-4{fill:#fff}.cls-6{fill:#c8102e}</style></defs><path d="M15.67252 507.658h8.81641l15.97656 28.06348V507.658h7.83692v40.248H39.8942l-16.38476-28.55754v28.55762h-7.83692zm40.4668 40.24808V507.658h8.35547v15.3457H80.1403V507.658h8.35546v40.248H80.1403v-17.9668H64.49479v17.9668zm46.50098-12.42383a8.16956 8.16956 0 0 0 1.5332 4.12305q2.09179 2.48438 7.165 2.48437a15.39621 15.39621 0 0 0 4.93457-.65527q3.59766-1.25538 3.59668-4.66895a3.44112 3.44112 0 0 0-1.76172-3.08594 19.13278 19.13278 0 0 0-5.58789-1.88378l-4.35742-.95508q-6.42335-1.41943-8.82617-3.08594-4.06935-2.78467-4.06836-8.71a11.56784 11.56784 0 0 1 3.97949-8.9834q3.98144-3.57716 11.69336-3.57715a17.93064 17.93064 0 0 1 10.9873 3.37207q4.54688 3.37207 4.76758 9.78906h-8.082a5.76222 5.76222 0 0 0-3.24707-5.16113 11.1312 11.1312 0 0 0-5.01074-1.00976 9.5346 9.5346 0 0 0-5.31836 1.31054 4.14582 4.14582 0 0 0-1.98731 3.65821 3.45134 3.45134 0 0 0 1.959 3.22265 24.32834 24.32834 0 0 0 5.34765 1.665l7.0625 1.666a17.98059 17.98059 0 0 1 6.96192 2.92187q3.59764 2.84034 3.59863 8.21875a11.55056 11.55056 0 0 1-4.26465 9.16113q-4.26416 3.64454-12.04687 3.64551-7.94825 0-12.502-3.59082a11.88085 11.88085 0 0 1-4.55371-9.87109zm50.61914-23.61914a16.56661 16.56661 0 0 1 12.37207-4.96973q10.04883 0 14.69531 6.66211a14.522 14.522 0 0 1 2.75488 7.50977h-8.41015a11.45154 11.45154 0 0 0-2.05957-4.36914q-2.24707-2.62207-6.66016-2.6211a8.208 8.208 0 0 0-7.08887 3.69922q-2.59423 3.7002-2.59472 10.47168 0 6.772 2.7373 10.14453a8.58027 8.58027 0 0 0 6.958 3.37207 7.88255 7.88255 0 0 0 6.59765-2.89453 12.70723 12.70723 0 0 0 2.084-4.66894h8.35449a18.12485 18.12485 0 0 1-5.52344 10.70312 16.07768 16.07768 0 0 1-11.38574 4.12305q-8.59131 0-13.50683-5.57032-4.91748-5.59716-4.917-15.34472 0-10.54103 5.59278-16.24707zm67.53027 32.46582q-4.56006 4.69629-13.18848 4.69629-8.62793 0-13.18847-4.69629-6.11719-5.76123-6.11621-16.60156 0-11.0581 6.11621-16.60157 4.56006-4.69629 13.18847-4.69629 8.62794 0 13.18848 4.69629 6.08935 5.543 6.08887 16.60157 0 10.83984-6.08887 16.60156zm-5.25586-6.11621q2.93409-3.68555 2.93555-10.48535 0-6.772-2.93555-10.47168a9.59642 9.59642 0 0 0-7.93262-3.7002 9.72087 9.72087 0 0 0-7.97265 3.68652q-2.97657 3.687-2.97657 10.48536 0 6.7998 2.97657 10.48535a9.72087 9.72087 0 0 0 7.97265 3.68652 9.60937 9.60937 0 0 0 7.93262-3.68652zm41.31348-30.55472h8.7373l-13.72168 40.248h-7.94531l-13.61133-40.248h8.9834l8.73828 30.55469zm21.4209 40.24808h-8.35547V507.658h8.35547zm31.44726-39.37403a13.301 13.301 0 0 1 6.85938 5.10547 17.92725 17.92725 0 0 1 2.86914 6.499 31.13307 31.13307 0 0 1 .76562 6.6621 26.7389 26.7389 0 0 1-3.22461 13.59864q-4.37256 7.50879-13.5 7.50879h-17.35254V507.658H303.485a21.18377 21.18377 0 0 1 6.23049.87405zm-15.41894 6.11621v26.26758h7.76757q5.96191 0 8.31348-5.87011a20.6897 20.6897 0 0 0 1.28516-7.67286q0-6.145-1.92774-9.43457-1.92919-3.29-7.6709-3.29zm29.24316 13.98047H338.776v7.37207h-15.23629zm21.2168-8.02832v-5.29687a34.4446 34.4446 0 0 0 5.14746-.49121 7.2585 7.2585 0 0 0 3.81347-2.0752 6.83258 6.83258 0 0 0 1.5254-2.83984 6.5165 6.5165 0 0 0 .2998-1.584h6.499v39.59278H354.068v-27.30566zm32.56149-8.66894a12.4394 12.4394 0 0 1 9.54395-3.94629q9.03661 0 12.39648 8.001a31.16933 31.16933 0 0 1 1.91113 11.93262 33.97586 33.97586 0 0 1-1.8291 11.98731q-3.49658 9.14648-12.834 9.14648a13.0854 13.0854 0 0 1-8-2.63476 10.3859 10.3859 0 0 1-4.06934-7.68653h7.75488a4.68249 4.68249 0 0 0 1.47461 2.83985 4.566 4.566 0 0 0 3.19532 1.09277q3.8496 0 5.40625-4.25977a24.88558 24.88558 0 0 0 1.06445-6.85351 8.42727 8.42727 0 0 1-2.26563 2.04785 10.29725 10.29725 0 0 1-5.37988 1.31055 12.23157 12.23157 0 0 1-8.38281-3.26368q-3.65917-3.2622-3.6582-9.40625a14.52408 14.52408 0 0 1 3.67189-10.30764zm13.09277 15.71386q2.64844-1.6919 2.64942-5.87011a8.2988 8.2988 0 0 0-1.57031-5.3252 5.206 5.206 0 0 0-4.30079-1.96582 5.33914 5.33914 0 0 0-3.41308 1.12012q-2.23976 1.74756-2.23926 5.9248a8.24333 8.24333 0 0 0 1.43359 5.28321 5.35093 5.35093 0 0 0 4.41016 1.76172 5.43878 5.43878 0 0 0 3.0303-.92872zm33.83207-9.83007a58.49594 58.49594 0 0 1 6.30761-10.8125h5.87012l-1.665 3.05859a45.512 45.512 0 0 0-4.77832 13.21484 52.25256 52.25256 0 0 0-.874 9.88477 46.70018 46.70018 0 0 0 2.42968 15.373 70.19734 70.19734 0 0 0 5.02442 10.64941h-5.76172l-1.93848-2.64844a35.53359 35.53359 0 0 1-4.01367-7.15429 40.744 40.744 0 0 1-3.7959-16.71094 37.07061 37.07061 0 0 1 3.19526-14.85444zm17.25683-10.15726h8.54688v24.71875a13.98461 13.98461 0 0 0 .97949 6.05664q1.522 3.38379 6.63867 3.38379 5.0874 0 6.61133-3.38379a13.99948 13.99948 0 0 0 .97949-6.05664V507.658h8.5459v24.73828q0 6.41748-1.98926 9.99414-3.70752 6.55371-14.14746 6.55371-10.44141 0-14.17578-6.55371-1.98925-3.57714-1.98926-9.99414zm63.75684 12.19144q2.92236 2.417 2.92285 8.01464v20.042h-7.97363v-18.10352a8.31176 8.31176 0 0 0-.62305-3.60449q-1.13818-2.294-4.33692-2.293a5.37462 5.37462 0 0 0-5.39355 3.3584 11.614 11.614 0 0 0-.75977 4.53223v16.11035h-7.78125v-29.708h7.53614v4.3418a13.1746 13.1746 0 0 1 2.82812-3.30469 9.79868 9.79868 0 0 1 6.06348-1.80176 11.41311 11.41311 0 0 1 7.51758 2.41604zm18.1582-5.25586h-7.89062v-7.18164h7.89062zm-7.89062 3.5498h7.89062v29.7627h-7.89062zm12.36914 5.81543v-5.543h4.15039v-8.30078h7.70019v8.30078h4.833v5.543h-4.833v15.72852a3.5438 3.5438 0 0 0 .46387 2.28027q.46436.4497 2.83984.4502c.23633 0 .48731-.00391.751-.01368q.39551-.01319.77832-.041v5.8164l-3.68652.13575q-5.51514.1919-7.53614-1.91114a5.69381 5.69381 0 0 1-1.31054-4.123v-18.32232zm41.07519-5.21289a12.10628 12.10628 0 0 1 5.14258 4.40332 14.6268 14.6268 0 0 1 2.37207 6.15332 38.14393 38.14393 0 0 1 .25586 5.90625h-21.67676q.18164 4.4795 3.11231 6.28027a7.90072 7.90072 0 0 0 4.291 1.12012 6.047 6.047 0 0 0 5.92285-3.41308h7.94434a9.71473 9.71473 0 0 1-2.88477 5.3789q-3.999 4.3418-11.19726 4.3418a16.22188 16.22188 0 0 1-10.4834-3.66211q-4.54248-3.66211-4.542-11.916 0-7.73291 4.10058-11.86035a14.34617 14.34617 0 0 1 10.64258-4.12695 16.94574 16.94574 0 0 1 7.00002 1.39451zm-11.64258 6.72266a8.08539 8.08539 0 0 0-2.07226 4.60742h13.40625a6.48975 6.48975 0 0 0-2.07324-4.70313 6.81867 6.81867 0 0 0-4.61524-1.60449 6.17214 6.17214 0 0 0-4.64551 1.7002zm39.13086-6.84766a9.45961 9.45961 0 0 1 3.41309 3.29v-14.1982h7.8916v40.19336h-7.56348v-4.123a10.98271 10.98271 0 0 1-3.7959 3.84961 10.65665 10.65665 0 0 1-5.29687 1.20215 11.06109 11.06109 0 0 1-8.7793-4.21875 16.20248 16.20248 0 0 1-3.5625-10.82715q0-7.6172 3.50782-11.98633a11.41427 11.41427 0 0 1 9.37988-4.36914 9.6004 9.6004 0 0 1 4.80566 1.18745zm1.91114 21.20313a10.85292 10.85292 0 0 0 1.7207-6.36231q0-5.46093-2.75781-7.80957a5.93818 5.93818 0 0 0-3.93262-1.41992 5.465 5.465 0 0 0-5.00977 2.58008 13.911 13.911 0 0 0 .02735 12.998 5.49439 5.49439 0 0 0 4.92871 2.47071 5.74552 5.74552 0 0 0 5.02344-2.45699zm32.76757-32.16605h8.27344v16.583l15.54981-16.583h10.86718l-16.51562 16.55273 17.3623 23.69532H655.86l-12.40039-17.56934-4.05078 4.10742v13.46192h-8.27344zm47.62012 6.93558h-7.89062v-7.18164h7.89062zm-7.89062 3.5498h7.89062v29.7627h-7.89062zm39.42675 1.70606q2.92237 2.417 2.92285 8.01464v20.042h-7.97363v-18.10352a8.31177 8.31177 0 0 0-.623-3.60449q-1.13818-2.294-4.33692-2.293a5.3746 5.3746 0 0 0-5.39355 3.3584 11.614 11.614 0 0 0-.75977 4.53223v16.11035h-7.78125v-29.708h7.53613v4.3418a13.17481 13.17481 0 0 1 2.82813-3.30469 9.79868 9.79868 0 0 1 6.06348-1.80176 11.41309 11.41309 0 0 1 7.51753 2.41604zm24.88282-1.73344a9.34558 9.34558 0 0 1 4.58105 4.31445v-4.28711h7.59082v28.2334q0 5.76123-1.93848 8.68359-3.33252 5.023-12.77929 5.02344a17.41379 17.41379 0 0 1-9.31055-2.23828 8.2628 8.2628 0 0 1-3.9873-6.69043h8.46484a3.50164 3.50164 0 0 0 1.06543 1.96582 6.5756 6.5756 0 0 0 4.23242 1.06543q4.20411 0 5.624-2.8125.92872-1.80175.92872-6.06152v-1.91211a9.48024 9.48024 0 0 1-2.40235 2.86718 9.66355 9.66355 0 0 1-6.03515 1.7754 11.42272 11.42272 0 0 1-9.16114-4.02735q-3.42627-4.02833-3.42676-10.90918a18.4117 18.4117 0 0 1 3.29981-11.15429 10.90052 10.90052 0 0 1 9.35449-4.51856 10.22917 10.22917 0 0 1 3.89944.68262zm2.65039 21.33886q1.87645-2.061 1.876-6.5664 0-4.23194-1.78125-6.44434a5.812 5.812 0 0 0-4.77148-2.21191 5.62379 5.62379 0 0 0-5.62891 3.85058 13.70071 13.70071 0 0 0-.81543 5.05079 11.5571 11.5571 0 0 0 .87012 4.61523 5.67038 5.67038 0 0 0 5.65527 3.76758 5.97523 5.97523 0 0 0 4.59568-2.06149zm32.56738-20.83394a9.45961 9.45961 0 0 1 3.41309 3.29v-14.1982h7.8916v40.19336h-7.56348v-4.123a10.98288 10.98288 0 0 1-3.7959 3.84961 10.65667 10.65667 0 0 1-5.29687 1.20215 11.06109 11.06109 0 0 1-8.7793-4.21875 16.20248 16.20248 0 0 1-3.5625-10.82715q0-7.6172 3.50781-11.98633a11.41429 11.41429 0 0 1 9.37989-4.36914 9.60042 9.60042 0 0 1 4.80566 1.18745zm1.91113 21.20313a10.85292 10.85292 0 0 0 1.72071-6.36231q0-5.46093-2.75782-7.80957a5.93813 5.93813 0 0 0-3.93261-1.41992 5.46493 5.46493 0 0 0-5.00977 2.58008 13.91093 13.91093 0 0 0 .02734 12.998 5.4944 5.4944 0 0 0 4.92871 2.47071 5.74551 5.74551 0 0 0 5.02344-2.45699zm41.28613 4.4414q-3.76756 4.65089-11.4414 4.65137-7.67286 0-11.44043-4.65137a18.464 18.464 0 0 1 0-22.35742q3.76758-4.72119 11.44043-4.7207 7.67284 0 11.4414 4.7207a18.464 18.464 0 0 1 0 22.35742zm-6.22558-4.30176q1.8296-2.42577 1.8291-6.89843 0-4.4707-1.8291-6.88379a6.91651 6.91651 0 0 0-10.499 0q-1.84278 2.4126-1.84278 6.88379 0 4.47216 1.84278 6.89843a6.89118 6.89118 0 0 0 10.499 0zm52.69922-21.71093a8.70922 8.70922 0 0 1 5.16113 6.498 26.48832 26.48832 0 0 1 .27246 4.39649l-.05371 18.75879h-7.97363v-18.9502a6.23389 6.23389 0 0 0-.5459-2.78515 3.882 3.882 0 0 0-3.82324-2.0752 4.47374 4.47374 0 0 0-4.4502 2.67578 8.405 8.405 0 0 0-.62793 3.41406v17.72071h-7.83691v-17.72067a9.97508 9.97508 0 0 0-.5459-3.85058 3.81394 3.81394 0 0 0-3.85059-2.15723q-3.33105 0-4.47754 2.15723a8.30982 8.30982 0 0 0-.62793 3.65918v17.91211h-7.8916v-29.708h7.56348v4.3418a12.52179 12.52179 0 0 1 2.73047-3.30469 10.80545 10.80545 0 0 1 11.38672-.24512 8.74044 8.74044 0 0 1 2.5664 3.57617 9.8948 9.8948 0 0 1 3.7959-3.84961 11.578 11.578 0 0 1 5.35156-1.22851 10.35768 10.35768 0 0 1 3.87696.76464zm21.82226-.4375a37.12855 37.12855 0 0 1 3.18946 14.85449 40.7949 40.7949 0 0 1-3.78907 16.71094 35.51584 35.51584 0 0 1-4.0068 7.15431l-1.93555 2.64844h-5.751a70.26822 70.26822 0 0 0 5.00585-10.64944 46.85456 46.85456 0 0 0 2.4209-15.373 52.50832 52.50832 0 0 0-.87011-9.88477 45.64092 45.64092 0 0 0-4.76075-13.21484l-1.65918-3.05859h5.86035a58.60357 58.60357 0 0 1 6.2959 10.81246z"/><g clip-path="url(#clip-path)"><path fill="#012169" d="M0-.45235v450h900v-450z"/><path d="M0-.45235l900 450m0-450l-900 450"/><path d="M873.167 503.213L450 291.63 26.833 503.213l-53.666-107.33 342.669-171.335L-26.833 53.213l53.666-107.33L450 157.466 873.167-54.117l53.666 107.33-342.669 171.335 342.669 171.335-53.666 107.33z" class="cls-4"/><g clip-path="url(#clip-path-2)"><path d="M0-.45235l900 450m0-450l-900 450"/><path d="M882.112 485.325L450 269.269 17.887 485.325l-35.775-71.555 378.445-189.222L-17.888 35.325 17.887-36.23 450 179.826 882.112-36.23l35.775 71.555-378.445 189.223L917.887 413.77l-35.775 71.555z" class="cls-6"/></g><path d="M450-.45235v450m-450-225h900"/><path d="M550 449.548H350v-125H0v-200h350v-125h200v125h350v200H550v125z" class="cls-4"/><path d="M450-.45235v450m-450-225h900"/><path d="M510 449.548H390v-165H0v-120h390v-165h120v165h390v120H510v165z" class="cls-6"/></g></svg>