<svg xmlns="http://www.w3.org/2000/svg" role="img" viewBox="-1.20 -1.20 62.34 36.65"><title>Northern Ireland (StopCOVID NI) logo</title><clipPath id="a"><path d="M0 0v30h60V0z"/></clipPath><clipPath id="b"><path d="M30 15h30v15zv15H0zH0V0zV0h30z"/></clipPath><g clip-path="url(#a)"><path fill="#012169" d="M0 0v30h60V0z"/><path stroke="#fff" stroke-width="6" d="M0 0l60 30m0-30L0 30"/><path stroke="#C8102E" stroke-width="4" d="M0 0l60 30m0-30L0 30" clip-path="url(#b)"/><path stroke="#fff" stroke-width="10" d="M30 0v30M0 15h60"/><path stroke="#C8102E" stroke-width="6" d="M30 0v30M0 15h60"/></g><path d="M5.26884 31.26283v2.33086h.45385v-1.65571l.95178 1.65571h.48713v-2.33086h-.45385v1.62737l-.92838-1.62737zm.96437-.0045zm2.42263 1.87701c-.07062.09356-.17183.1408-.30362.1408s-.233-.04724-.30406-.1408c-.07152-.094-.10705-.22714-.10705-.40032 0-.17272.03553-.30586.10705-.39942.07107-.0931.17227-.13989.30406-.13989.1318 0 .233.04678.30362.1399.07062.09355.10615.22669.10615.39941 0 .17318-.03553.30632-.10615.40032zm.36074.24874c.14528-.17947.21815-.39582.21815-.64906 0-.24874-.07287-.4642-.21815-.6468-.14574-.18218-.36659-.27349-.66256-.27349-.29642 0-.51727.09131-.66255.27348-.14574.18262-.21816.39807-.21816.64681 0 .25324.07242.4696.21816.64906.14528.17992.36613.26988.66255.26988.29597 0 .51682-.08996.66256-.26988zm-.66256-1.5599zm2.16084.0054c-.00585-.00045-.01304-.00045-.02159-.00045-.13494 0-.24424.03508-.3288.1057-.05173.04228-.112.121-.18172.2357v-.30047h-.43001v1.72363h.45385v-.82358c0-.13854.01709-.24065.05217-.30722.06208-.11784.18397-.17677.36524-.17677.0135 0 .03149.00045.05353.00135a1.47522 1.47522 0 0 1 .07601.0063v-.4615c-.01979-.00135-.03283-.0018-.03868-.0027zm.1255.37738h.24064v1.06108c0 .1075.02519.18711.07601.23884.07782.08096.2231.11785.43631.11065l.2132-.0081v-.3369a.7111.7111 0 0 1-.04497.0027c-.0153.00045-.0297.0009-.04318.0009-.09176 0-.14664-.009-.16463-.02654-.018-.01709-.02699-.06117-.02699-.13179v-.91084h.27978v-.32116h-.27978v-.48039H10.881v.4804h-.24064zm2.49639-.32566c-.08727-.03688-.18397-.05532-.29013-.05532-.0949 0-.18531.01979-.27122.05937-.08592.03913-.16148.1093-.22715.20916v-.82359h-.4489v2.32277h.4489v-.93288c0-.14754.03103-.26134.09265-.34095.06163-.07962.15204-.1192.27123-.1192.1147 0 .19297.04003.2339.1201.03194.05712.04768.13179.04768.22445v1.04848h.46014v-1.01205c0-.15383-.0054-.26493-.01574-.33285-.0108-.06792-.03958-.13404-.08726-.19836-.05577-.07602-.1273-.13224-.2141-.16913zm1.17487.41247c.05758-.06522.13854-.09806.2429-.09806.0958 0 .17632.03104.24109.09266.06477.06162.10075.15203.1084.27123h-.70079c.01484-.112.05083-.20016.1084-.26583zm.63017-.38908c-.11515-.05352-.24424-.08051-.38727-.08051-.24155 0-.43811.07961-.58924.23884-.15114.15923-.2267.38818-.2267.6864 0 .31846.08366.5483.25144.68954.16732.14124.36074.21186.58024.21186.26538 0 .47229-.08412.61982-.25144.09491-.1057.14799-.2096.15968-.31171h-.46014c-.0243.05082-.05218.0904-.08367.11874-.05802.05263-.13359.07917-.22625.07917-.0877 0-.16237-.0216-.22445-.06522-.10255-.06927-.15653-.19072-.16282-.36344h1.17937c.00225-.14888-.0027-.26268-.01394-.34185-.02024-.13494-.06387-.25324-.13134-.3558-.07512-.11559-.17003-.2006-.28473-.25458zm-.35579-.08051zm2.04704.0054c-.00585-.00045-.01304-.00045-.02159-.00045-.13494 0-.24424.03508-.3288.1057-.05173.04228-.112.121-.18172.2357v-.30047h-.43001v1.72363h.45385v-.82358c0-.13854.01709-.24065.05217-.30722.06208-.11784.18397-.17677.36524-.17677.0135 0 .03149.00045.05353.00135a1.47522 1.47522 0 0 1 .07601.0063v-.4615c-.02024-.00135-.03283-.0018-.03868-.0027zm1.6953.13943c-.11335-.09355-.25909-.13988-.4372-.13988-.1426 0-.26.03463-.35265.10435-.05173.03868-.1066.10255-.16463.19116v-.25143h-.43496v1.72048h.44936v-.93288c0-.1066.01439-.19387.04408-.26269.05712-.12954.16192-.19431.31486-.19431.12414 0 .2087.04408.25278.13269.0243.04858.03644.1183.03644.2087v1.0485h.46194v-1.1605c0-.21635-.05667-.37108-.17002-.46419zm-.60363-.14483zm2.5715 1.76951v-2.33086h-.48398v2.33086zm-.24199-2.37674zm1.61703.61263c-.00585-.00045-.01304-.00045-.02159-.00045-.13494 0-.2447.03508-.3288.1057-.05173.04228-.11245.121-.18172.2357v-.30047h-.43046v1.72363h.45385v-.82358c0-.13854.01754-.24065.05217-.30722.06253-.11784.18397-.17677.3657-.17677.01349 0 .03148.00045.05352.00135a1.51742 1.51742 0 0 1 .07601.0063v-.4615c-.02024-.00135-.03283-.0018-.03868-.0027zm.73992.46419c.05758-.06522.13854-.09806.2429-.09806.0958 0 .17632.03104.24109.09266.06477.06162.10075.15203.1084.27123h-.70079c.01484-.112.05083-.20016.1084-.26583zm.63017-.38908c-.11515-.05352-.24424-.08051-.38728-.08051-.24154 0-.4381.07961-.58923.23884-.15114.15923-.2267.38818-.2267.6864 0 .31845.08366.5483.25143.68954.16733.14124.36074.21186.58025.21186.26538 0 .47229-.08412.61982-.25144.0949-.1057.14799-.2096.15968-.31171h-.46015c-.02428.05082-.05217.0904-.08366.11874-.05802.05263-.13359.07917-.22625.07917-.0877 0-.16238-.0216-.22445-.06522-.10255-.06927-.15653-.19072-.16283-.36344h1.17938c.00225-.14889-.0027-.26268-.01394-.34185-.02024-.13494-.06388-.25324-.13135-.3558-.07511-.11559-.17002-.2006-.28472-.25458zm-.35579-.08051zm1.54956 1.76951v-2.33086h-.4507v2.33086zm1.39033-.83798v.16778c-.0036.15068-.04588.25459-.12774.31126-.08141.05713-.17092.08546-.26763.08546-.06117 0-.11335-.01709-.15608-.05127-.04273-.03419-.06387-.08996-.06387-.16688 0-.08636.03463-.15023.10435-.19162.04093-.02428.1093-.04453.20376-.06162l.1012-.01889c.05083-.00945.09041-.01979.11965-.03059a.51904.51904 0 0 0 .08636-.04363zm-.27393-.2105l-.15338.01889c-.17362.02249-.30541.05937-.39537.1111-.16328.0949-.24514.24829-.24514.46014 0 .16328.05127.28968.15293.37874.10165.08906.2303.13359.38638.13359.12234 0 .2321-.02789.32925-.08412a.93098.93098 0 0 0 .215-.17227c.00315.03913.0072.07377.0126.10435.00495.0306.01484.06343.02834.09806h.49028v-.06657c-.02969-.0135-.05173-.03104-.06657-.05218-.01484-.02069-.0234-.06072-.02699-.1201-.0018-.0778-.00315-.14438-.00315-.19925v-.7903c0-.20781-.07287-.34905-.2195-.42416-.14664-.07467-.31441-.112-.50288-.112-.29012 0-.49433.07556-.61352.2276-.07512.09715-.11695.22085-.1264.37153h.4345c.0108-.06657.03195-.1192.06343-.15788.04408-.05308.11965-.07917.22625-.07917.0949 0 .16688.0135.2159.04004.04903.02698.07332.07601.07332.14663 0 .05803-.03193.1003-.09626.12774-.03598.0162-.0958.02924-.17902.03959zm.02384-.72103zm2.4928.14483c-.11335-.09355-.25909-.13988-.43721-.13988-.14214 0-.25954.03463-.35264.10435-.05128.03868-.10616.10255-.16418.19116v-.25143h-.43496v1.72048h.4489v-.93288c0-.1066.01485-.19387.04453-.26269.05668-.12954.16193-.19431.31441-.19431.1246 0 .20871.04408.25324.13269.02429.04858.03643.1183.03643.2087v1.0485h.4615v-1.1605c0-.21635-.05668-.37108-.17002-.46419zm-.60319-.14483zm2.10327.07377c-.08097-.04588-.17407-.06882-.27843-.06882-.2267 0-.40752.0841-.5429.25278-.13585.16868-.20332.40033-.20332.6945 0 .25503.06882.46374.20646.62702.13764.16282.30677.24424.50828.24424.12234 0 .22445-.0234.30676-.06972.08231-.04633.15563-.12055.21995-.2231v.23884h.43766v-2.32771h-.457v.82223c-.05038-.08096-.1165-.14439-.19746-.19026zm.11065 1.22795c-.06657.09446-.16328.14214-.29102.14214-.1273 0-.22265-.04768-.28517-.14304-.06298-.09536-.09446-.22265-.09446-.38188 0-.14753.03103-.27123.09266-.37109.06162-.0994.15833-.14933.29012-.14933.08636 0 .16237.02744.2276.08231.1066.09041.16012.24155.16012.45205 0 .15114-.03328.27393-.09985.36884zm1.95933-1.30172c-.1372.3162-.20556.62837-.20556.93603 0 .26673.05263.53212.15788.7957.08996.2267.21995.457.39088.6909h.26718l-.09626-.17723c-.13314-.24424-.22535-.50018-.27708-.7669-.03373-.17363-.05038-.3639-.05038-.5708 0-.32026.04364-.61038.13135-.86947.05262-.15518.15203-.36659.29866-.63422l-.25953-.00315-.112.15474c-.08771.12144-.16913.26943-.24514.4444zm1.36154 1.05028h-.4651c0 .24244.08727.4327.2609.57125.17407.13899.41291.20825.71652.20825.29732 0 .52717-.07061.69045-.2114.16283-.14034.24424-.31756.24424-.53032 0-.2078-.06972-.36658-.2087-.47588-.08997-.07062-.22266-.1273-.39853-.16913l-.40167-.0967c-.15518-.03689-.25639-.06883-.30362-.09626-.07376-.04138-.11065-.10346-.11065-.18667 0-.09086.03734-.16148.112-.21186.07512-.05082.17497-.07601.30047-.07601.1129 0 .20736.01934.28337.05847.1138.05893.17497.15878.18307.29867h.46824c-.00854-.2474-.0994-.4363-.27303-.56675-.17317-.13-.38278-.19521-.62837-.19521-.29417 0-.51727.06882-.66885.2069-.15203.13854-.2276.31172-.2276.52042 0 .22895.07827.39718.2357.50468.09266.06432.25998.1237.50242.17857l.24694.05533c.14439.03148.25054.06792.31801.1093.06747.04183.1012.10165.1012.17857 0 .13179-.06836.22175-.2042.27033-.07152.02519-.16508.03778-.27978.03778-.19206 0-.32745-.04768-.40662-.14394-.04318-.05262-.07196-.13224-.0868-.23839zm.47274-1.6827zm1.12135 1.0152h.2402v1.06108c0 .1075.02519.18711.07601.23884.07782.08096.22355.11785.4363.11065l.21366-.0081v-.3369a.74675.74675 0 0 1-.04543.0027c-.01484.00045-.02968.0009-.04318.0009-.09176 0-.14663-.009-.16462-.02654-.018-.01709-.027-.06117-.027-.13179v-.91084h.28023v-.32116h-.28022v-.48039h-.44575v.4804h-.2402zm2.33222.92838c-.07062.09356-.17183.1408-.30362.1408s-.233-.04724-.30451-.1408c-.07107-.094-.1066-.22714-.1066-.40032 0-.17272.03553-.30586.1066-.39942.07152-.0931.17272-.13989.30451-.13989.1318 0 .233.04678.30362.1399.07062.09355.10615.22669.10615.39941 0 .17318-.03553.30632-.10615.40032zm.36074.24874c.14528-.17947.21815-.39582.21815-.64906 0-.24874-.07287-.4642-.21815-.6468-.14574-.18218-.3666-.27349-.66256-.27349-.29642 0-.51727.09131-.66255.27348-.14574.18262-.21816.39807-.21816.64681 0 .25324.07242.4696.21816.64906.14528.17992.36613.26988.66255.26988.29597 0 .51682-.08996.66256-.26988zm-.66256-1.5599zm2.29983.55505c.06072.1021.09086.21995.09086.35264 0 .16148-.03284.29058-.0985.38728-.06613.09716-.16194.14574-.28698.14574-.08681 0-.16148-.02384-.2249-.07107-.10615-.08141-.15968-.2222-.15968-.42236 0-.1264.01574-.23075.04768-.31306.06117-.15519.17317-.23255.3369-.23255.13584 0 .2339.05128.29462.15338zm.34634-.3243c-.13943-.14844-.31036-.22266-.51142-.22266-.13809 0-.25728.03824-.35759.11515-.05488.04318-.10615.10256-.15473.17722v-.25458h-.4318v2.40193h.44574v-.89825c.04768.07287.09626.1282.14574.16643.0904.06836.2042.10255.3414.10255.215 0 .39087-.07962.52761-.23884.1363-.15923.20466-.39043.20466-.69405 0-.28787-.06972-.50602-.2096-.6549zm.79795-.54831c-.21815.21995-.32746.53391-.32746.94053 0 .37648.09581.6729.28788.8888.19161.21501.4552.32251.79075.32251.27077 0 .49298-.07961.66615-.23884.17362-.15878.28157-.36569.3234-.61983h-.48218c-.03239.1201-.07377.21051-.12325.27033-.0895.112-.21995.16778-.39042.16778-.16688 0-.30407-.06522-.41202-.19521-.10795-.13045-.16238-.3261-.16238-.58744 0-.26134.05128-.46375.15339-.60633.10255-.14304.24199-.21456.4192-.21456.17408 0 .30542.05083.39358.15203.04993.05668.09041.14124.1219.2528h.48713c-.0072-.1453-.06117-.29013-.16148-.43496-.18126-.25684-.46779-.38548-.86001-.38548-.29327 0-.53437.0958-.72418.28787zm.70978-.31486zm2.89312 1.84058c-.11335.14259-.26628.21366-.45925.21366-.19296 0-.3468-.07107-.46194-.21366-.1147-.14214-.17228-.34455-.17228-.60723 0-.26223.05758-.46464.17228-.60723.11515-.14214.26898-.21365.46194-.21365.19297 0 .3459.07151.45925.21455.11335.14259.17002.345.17002.60633 0 .26268-.05667.4651-.17002.60723zm.30451.35444c.23525-.22265.35265-.5429.35265-.96167 0-.42686-.1174-.74757-.35265-.96122-.17632-.18172-.4309-.27213-.76376-.27213-.3333 0-.58789.0904-.76376.27213-.23614.21365-.35444.53436-.35444.96122 0 .41876.1183.73902.35444.96167.17587.18127.43046.27168.76376.27168.33285 0 .58744-.0904.76376-.27168zm-.76376-2.19502zm2.85263.07107l-.51097 1.76951-.50602-1.76951h-.51997l.7876 2.33086h.46014l.79525-2.33086zm1.24145 2.33086v-2.33086h-.48398v2.33086zm-.242-2.37674zm1.16859.4507h.4489c.22175 0 .36929.06342.4435.19071.07467.12685.11155.30902.11155.54606 0 .17182-.02474.32026-.07421.4444-.09041.2267-.251.34005-.48084.34005h-.4489zm.89195-.354c-.09625-.03193-.21635-.04857-.36074-.05082h-1.00395v2.33086h1.00395c.3522 0 .61263-.14483.7813-.43496.12415-.215.18667-.47723.18667-.78715 0-.12234-.01484-.25098-.04453-.38592-.02923-.13494-.08456-.26044-.16597-.37649-.1012-.14348-.23345-.24199-.39673-.29551zm1.86577-.05082v2.33086h.45385v-1.65571l.95223 1.65571h.48668v-2.33086h-.45385v1.62737l-.92793-1.62737zm.96482-.0045zm1.828 2.33536v-2.33086h-.484v2.33086zm-.242-2.37674zm1.19557.63422c-.08322-.19387-.20511-.40257-.36524-.62613h-.34005l.09626.17678c.13269.24379.22535.49882.27662.76556.03374.17497.05083.36568.05083.5726 0 .3225-.04678.61937-.14079.89014-.05487.16013-.15158.3657-.29102.61668h.33376l.11245-.15338c.07241-.09266.15023-.23075.2321-.41427.14663-.3279.21994-.6504.21994-.96797 0-.28877-.06162-.5753-.18486-.86001z"/></svg>