<svg xmlns="http://www.w3.org/2000/svg" role="img" viewBox="-7.59 -7.59 304.94 394.94"><title>Novid logo</title><circle cx="143.636" cy="134.007" r="134.007" fill="#5854CC"/><path fill="#fff" fill-rule="evenodd" d="M120.855 49.5827c0 3.0875-1.74 5.7686-4.293 7.1158l18.823 50.8615c2.858-.946 5.914-1.459 9.09-1.459 3.328 0 6.523.563 9.498 1.597l13.433-33.5827c-3.741-1.6732-6.348-5.4279-6.348-9.7915 0-5.9209 4.799-10.7206 10.72-10.7206s10.721 4.7997 10.721 10.7206c0 5.9208-4.8 10.7206-10.721 10.7206-.821 0-1.62-.0923-2.388-.267l-13.471 33.6786c5.974 2.579 10.904 7.117 13.982 12.804l46.497-22.2718c-.258-.7877-.397-1.6289-.397-2.5027 0-4.4406 3.6-8.0404 8.04-8.0404 4.441 0 8.041 3.5998 8.041 8.0404 0 4.4405-3.6 8.0405-8.041 8.0405-2.823 0-5.306-1.455-6.74-3.655l-46.473 22.26c1.632 3.619 2.54 7.635 2.54 11.863 0 5.087-1.315 9.867-3.623 14.019l35.018 21.419c1.957-2.59 5.062-4.263 8.558-4.263 5.92 0 10.72 4.8 10.72 10.721s-4.8 10.72-10.72 10.72c-5.921 0-10.721-4.799-10.721-10.72 0-1.677.385-3.265 1.072-4.678L168.665 150.8c-4.461 6.812-11.722 11.626-20.148 12.806l4.529 41.453c4.484.356 8.011 4.107 8.011 8.683 0 4.81-3.9 8.71-8.71 8.71-4.811 0-8.711-3.9-8.711-8.71 0-4.337 3.17-7.934 7.318-8.6l-4.514-41.322c-.649.044-1.304.066-1.965.066-4.534 0-8.824-1.044-12.643-2.906l-11.022 21.237c1.653 1.22 2.725 3.182 2.725 5.394 0 3.7-3 6.7-6.7 6.7-3.701 0-6.7-3-6.7-6.7 0-3.701 2.999-6.701 6.7-6.701.742 0 1.456.121 2.123.344l11.031-21.256c-3.744-2.174-6.955-5.165-9.389-8.728l-34.1807 21.533c.5986 1.235.9343 2.622.9343 4.086 0 5.181-4.1998 9.381-9.3805 9.381s-9.3805-4.2-9.3805-9.381 4.1998-9.38 9.3805-9.38c2.9674 0 5.6131 1.378 7.332 3.528l34.1809-21.533c-2.463-4.231-3.881-9.145-3.903-14.389l-57.9179-1.223c-.8647 3.9-4.3437 6.816-8.5039 6.816-4.8107 0-8.7105-3.9-8.7105-8.71 0-4.811 3.8998-8.711 8.7105-8.711 4.7471 0 8.6073 3.798 8.7084 8.521l57.7794 1.22c.247-3.672 1.18-7.157 2.672-10.327l-25.5323-12.916c-1.217 1.685-3.198 2.781-5.435 2.781-3.7005 0-6.7004-3-6.7004-6.7 0-3.701 2.9999-6.7007 6.7004-6.7007 3.7005 0 6.7004 2.9997 6.7004 6.7007 0 .717-.1128 1.408-.3217 2.057l25.5456 12.923c3.161-5.617 8.145-10.07 14.15-12.557l-18.824-50.8656c-.576.1307-1.175.1997-1.789.1997-4.441 0-8.041-3.5998-8.041-8.0404s3.6-8.0405 8.041-8.0405c4.44 0 8.04 3.5999 8.04 8.0405z" clip-rule="evenodd"/><path fill="#5854CC" d="M0 378.971h12.5727v-39.467l30.1413 39.467h10.9075v-60.615h-12.656v38.217l-29.2254-38.217H0v60.615zm98.3716.999c18.6514 0 32.2224-14.154 32.2224-31.307v-.166c0-17.236-13.405-31.141-32.0559-31.141s-32.2228 14.155-32.2228 31.307v.167c0 17.235 13.4053 31.14 32.0563 31.14zm.1665-11.74c-10.9907 0-18.8175-8.909-18.8175-19.567v-.166c0-10.658 7.6603-19.4 18.651-19.4 10.9904 0 18.8174 8.909 18.8174 19.566v.167c0 10.658-7.66 19.4-18.6509 19.4zm60.2889 11.158h11.324l24.646-61.032h-13.822l-16.319 43.463-16.32-43.463h-14.155l24.646 61.032zm46.749-.417h12.823v-60.615h-12.823v60.615zm28.8 0h23.397c19.067 0 32.223-13.239 32.223-30.308v-.166c0-17.069-13.156-30.141-32.223-30.141h-23.397v60.615zm23.397-49.042c11.241 0 18.818 7.744 18.818 18.734v.167c0 10.991-7.577 18.568-18.818 18.568h-10.658v-37.469h10.658z"/></svg>