<svg xmlns="http://www.w3.org/2000/svg" role="img" viewBox="19.38 15.38 344.24 210.99"><title>OHIOH logo</title><g fill-rule="evenodd"><path fill="#050505" d="M239.594 96.908c-16.052 2.019-27.336 13.317-30.315 30.353-4.652 26.594 11.119 47.933 35.424 47.933 20.558 0 34.669-13.921 36.145-35.659 1.833-26.999-16.325-45.762-41.254-42.627m-127.708 39.009v37.985h9.816l.066-17.894.067-17.894 19.702-.067 19.703-.066v35.921h10.078V97.933H161.24v31.266h-39.535V97.933H111.886v37.984m182.171 0v37.985h10.077v-35.918h39.535v35.918H353.488V97.933H343.669v31.266h-39.535V97.933h-10.077v37.984m-42.662-29.703c15.147 3.913 22.926 21.75 17.983 41.234-6.021 23.738-38.941 26.256-48.046 3.675-3.674-9.112-3.279-23.427.888-32.198 4.838-10.181 17.542-15.716 29.175-12.711m-64.573 40.168v27.52h9.044v-55.039h-9.044v27.519"/><path fill="#94d454" d="M65.36 22.648c-.279.735-.133 1.125.423 1.125 1.303 0 9.572 3.108 13.745 5.167C105.442 41.725 120 67.867 114.971 92.584c-.558 2.74-.522 3.023.388 3.023.7 0 .958-.796 1.579-4.87 4.506-29.585-16.81-58.99-49.444-68.208l-1.886-.532-.248.651m22.785 29.711c-.17.374-.276.708-.235.743.041.036.54.301 1.108.59 13.961 7.102 19.585 25.248 12.636 40.771-.112.251 1.141 1.02 1.339.821.327-.326 1.778-4.221 2.309-6.195 3.748-13.936-2.114-28.568-14.542-36.296-2.072-1.289-2.214-1.313-2.615-.434m-55.237 8.888c-2.595.522-5.002 2.434-6.128 4.871l-.553 1.195v111.369l.724 1.474c.901 1.835 2.751 3.529 4.596 4.211 1.368.505 2.037.517 30.081.517 28.043 0 28.713-.012 30.081-.517 1.845-.682 3.695-2.376 4.596-4.211l.723-1.474V67.313l-.596-1.198c-.963-1.936-2.246-3.228-4.125-4.153l-1.727-.851-28.3-.039c-15.566-.022-28.783.057-29.372.175m49.053 19.165c1.901 1.45 1.76-1.688 1.76 39.292v36.809l-.588.872c-.323.479-.979 1.136-1.459 1.459l-.872.588H61.047c-22.154 0-20.922.104-22.246-1.895l-.687-1.039-.077-35.807c-.085-39.339-.118-38.134 1.061-39.477 1.49-1.696.404-1.62 22.163-1.556l19.787.058.913.696m-20.256 89.977c3.329 1.732 2.359 6.445-1.325 6.44-3.751-.005-5.242-4.582-2.042-6.271 1.147-.606 2.407-.669 3.367-.169"/><path fill="#868685" d="M182.508 88.392c-1.137.563-2.915 2.315-3.417 3.367-.291.611-.289.61.165-.025 2.307-3.231 5.187-4.405 7.962-3.246.492.206.896.316.896.245 0-.874-4.033-1.12-5.606-.341m13.725-.17c-.998.434-2.531 1.769-3.25 2.829-.302.445-.009.209.65-.524 2.212-2.461 4.955-3.1 7.556-1.762.696.358 1.033.462.749.231-1.39-1.131-4.056-1.492-5.705-.774m8.356 4.284c.105.356.185 1.635.177 2.843-.009 1.27.062 1.924.168 1.55.315-1.115.226-3.456-.163-4.263-.282-.587-.327-.618-.182-.13m38.896 4.068c.822.051 2.101.051 2.842-.001.741-.052.068-.094-1.495-.094-1.563.001-2.169.043-1.347.095m-3.495.25c.322.061.787.059 1.034-.006.247-.064-.016-.115-.585-.112-.568.003-.77.056-.449.118m8.653-.005c.249.065.656.065.905 0s.045-.118-.452-.118c-.498 0-.701.053-.453.118m-136.887 39.228l.001 37.984h10.078l.066-17.892.066-17.893 19.701-.069 19.702-.068-19.768.002-19.767.003-.067 17.894-.066 17.894h-9.814l-.067-37.92-.066-37.92.001 37.985m10.071-22.481c0 8.669.032 12.178.072 7.798.04-4.381.04-11.474 0-15.762-.04-4.289-.072-.705-.072 7.964m182.429 0c0 8.669.032 12.178.072 7.798.04-4.381.04-11.474 0-15.762-.04-4.289-.072-.705-.072 7.964m39.276 0c0 8.669.033 12.178.073 7.798.039-4.381.039-11.474-.001-15.762-.039-4.289-.072-.705-.072 7.964m10.02 22.287l-.064 38.049H343.669v-35.918h-39.535v35.907l-4.974.078-4.974.078 5.039-.008 5.039-.008.066-17.894.066-17.894H343.407l.067 17.894.066 17.894 4.98.07c3.844.054 5.009-.005 5.105-.258.069-.181.095-17.364.058-38.184l-.067-37.855-.064 38.049m-174.341-37.08c.096.319.282.695.412.834.13.138.105-.123-.055-.582-.327-.939-.629-1.152-.357-.252m24.328 1.101c-.236.496-.377.901-.311.901.176 0 .961-1.582.843-1.7-.057-.056-.296.303-.532.799m23.194.926c-1.273.724-2.489 1.494-2.702 1.709-.213.216.134.07.773-.325.638-.395 1.975-1.163 2.971-1.706.996-.543 1.69-.989 1.542-.991-.148-.002-1.311.589-2.584 1.313m35.928.232c1.28.744 2.494 1.485 2.699 1.646.279.22.328.219.193-.005-.198-.331-3.886-2.542-4.7-2.818-.285-.097.529.433 1.808 1.177m-82.179.244c.216.417.51.831.654.92.143.088.016-.253-.283-.759-.654-1.11-.921-1.225-.371-.161m85.409 1.647c0 .064.427.442.949.84.522.398.867.592.767.43-.204-.331-1.716-1.449-1.716-1.27m2.585 2.075c.355.404.878.854 1.162 1.001.544.28.528.263-.903-.962l-.904-.773.645.734m-49.501 1.785c-.854.888-1.777 1.906-2.05 2.261l-.498.646.526-.517c1.128-1.108 3.795-4.005 3.688-4.005-.062 0-.812.727-1.666 1.615m24.51-1.165c.822.051 2.101.051 2.842-.001.741-.052.068-.095-1.495-.094-1.563.001-2.169.043-1.347.095m-44.918 1.165l-1.022 1.098 1.098-1.021c1.022-.95 1.217-1.175 1.022-1.175-.042 0-.537.494-1.098 1.098m-12.262 1.615c1.344 1.35 2.503 2.455 2.574 2.455.071 0-.971-1.105-2.316-2.455-1.344-1.35-2.502-2.455-2.573-2.455-.072 0 .97 1.105 2.315 2.455m50.129-1.711c-.782.252-1.77.66-2.196.907-.427.247-.543.363-.259.258.285-.105 1.447-.512 2.584-.906 2.264-.783 2.158-.995-.129-.259m15.116-.227c.285.122.692.222.905.222.244 0 .196-.082-.129-.222-.285-.122-.692-.222-.905-.222-.244 0-.196.082.129.222m2.162.656c.478.208.943.373 1.033.368.337-.018-1.143-.747-1.515-.746-.213 0 .004.17.482.378m17.089-.011c0 .08.611.869 1.358 1.753.746.884 1.747 2.218 2.223 2.964.738 1.157 1.471 1.988.911 1.033-1.111-1.895-4.492-6.222-4.492-5.75m-15.741.486c.265.239 2.304 1.192 2.304 1.076 0-.147-1.95-1.173-2.229-1.173-.1 0-.134.043-.075.097m-23.325 1.204c-.524.276-1.021.613-1.104.749-.084.135.374-.048 1.017-.408.643-.359 1.169-.701 1.169-.76 0-.15-.018-.143-1.082.419m-36.652 1.476l-1.672 1.745 1.744-1.673c.959-.919 1.744-1.704 1.744-1.744 0-.19-.263.052-1.816 1.672m64.995.231c2.328 2.251 4.001 3.686 2.713 2.327-.782-.825-1.77-1.742-2.197-2.038-.426-.296-.659-.426-.516-.289m-69.693 1.578c.626.604 1.269 1.098 1.429 1.098.16 0 .003-.192-.348-.426-.352-.235-.995-.729-1.429-1.099-.435-.369-.278-.177.348.427m35.407 1.421c-1.095 1.177-2.256 2.765-2.788 3.812-.451.888-.041.4 1.088-1.292.521-.782 1.422-1.916 2.003-2.52.581-.604.98-1.098.887-1.098-.092 0-.628.494-1.19 1.098m-13.174 2.406c-.717 1.501-1.261 2.771-1.209 2.823.051.052.694-1.176 1.428-2.729.734-1.552 1.278-2.823 1.209-2.823-.068 0-.711 1.228-1.428 2.729m54.518 3.704c.666 1.407 1.256 2.514 1.313 2.46.122-.115-2.222-5.017-2.4-5.017-.068 0 .421 1.151 1.087 2.557m-80.509 26.707l.066 27.713h9.302l.066-27.713.065-27.713H186.561l.066 27.713m9.239.064v27.52h-9.044v-55.039h9.044v27.519m82.234-27.196c.71 1.927 1.396 4.379 1.889 6.751.329 1.581.602 2.584.609 2.228.025-1.466-2.065-9.302-2.481-9.302-.075 0-.083.145-.017.323m-67.217.736c-.159.455-.28.955-.27 1.111.01.157.184-.17.388-.726.204-.556.325-1.056.27-1.112-.055-.055-.23.272-.388.727m69.934 11.99c.073 1.706.175 3.149.227 3.209.171.198.05-3.709-.156-5.018-.128-.812-.154-.141-.071 1.809m-61.63-1.292c.002.569.055.771.117.449.062-.321.06-.786-.005-1.033-.065-.247-.115.016-.112.584m-10.595 1.292c.003.569.056.771.118.449.062-.321.059-.786-.005-1.033-.065-.247-.116.016-.113.584m10.325 4.651c-.013 2.701.059 5.375.161 5.943.102.569.149-1.35.104-4.263-.107-6.99-.236-7.803-.265-1.68m51.719-.387c0 1.35.043 1.902.097 1.227.053-.675.053-1.78 0-2.455-.054-.675-.097-.122-.097 1.228m10.293 2.223c-.028.867-.104 2.321-.17 3.23l-.119 1.653.253-1.551c.139-.852.216-2.306.17-3.23l-.083-1.679-.051 1.577m-.808 7.098c-.187 1.056-.667 3.022-1.066 4.37-.399 1.348-.682 2.493-.63 2.546.296.296 2.347-7.902 2.135-8.536-.054-.164-.252.565-.439 1.62m-11.929 4.949c-.822 2.164-.832 2.197-.513 1.75.372-.52 1.358-3.142 1.23-3.27-.056-.056-.378.628-.717 1.52m-57.339 1.095c0 .349 2.097 5.162 2.369 5.436.141.142-.054-.44-.433-1.292-.378-.853-.921-2.132-1.205-2.843-.521-1.304-.731-1.678-.731-1.301m10.852.493c0 .279 1.027 2.23 1.174 2.23.071 0-.12-.495-.425-1.099-.599-1.187-.749-1.414-.749-1.131m43.97 3.457c-.597.959-.807 1.41-.465 1.002.632-.754 1.829-2.746 1.65-2.746-.054 0-.587.785-1.185 1.744m-42.266-.233c.271.476.876 1.29 1.344 1.809.602.668.501.453-.348-.736-1.412-1.979-1.669-2.257-.996-1.073m40.27 2.946l-.759.84.84-.759c.782-.707.958-.921.759-.921-.045 0-.423.378-.84.84m-37.075 1.034c.634.675 1.186 1.227 1.228 1.227.194 0-.012-.232-1.152-1.303l-1.228-1.152 1.152 1.228m48.688-.517c-.889 1.509-.947 1.638-.494 1.098.525-.625.977-1.421.808-1.421-.068 0-.209.145-.314.323m-14.956 2.559c-.853.71-2.364 1.746-3.359 2.302-.995.556-1.69 1.012-1.545 1.014.524.007 4.158-2.308 5.421-3.453 1.715-1.555 1.421-1.478-.517.137m12.552.967c-1.597 2.154-4.228 4.677-6.637 6.363-1.954 1.368-2.74 2.038-1.522 1.298 3.033-1.845 7.042-5.559 8.876-8.224 1.265-1.84.784-1.462-.717.563m-43.502-.564c.998.897 4.206 2.858 4.206 2.571 0-.067-.611-.467-1.357-.888s-1.938-1.192-2.648-1.714l-1.292-.95 1.091.981m-12.619.777c.459.599 1.36 1.646 2.003 2.325.753.797.599.548-.434-.702-1.867-2.259-2.776-3.199-1.569-1.623m4.152 4.312c.411.507 3.009 2.534 3.629 2.833.213.102.047-.081-.369-.407-.415-.326-1.404-1.11-2.196-1.741-.792-.631-1.271-.939-1.064-.685m20.748-.186c.248.065.655.065.904 0s.045-.118-.452-.118c-.498 0-.701.053-.452.118m5.168 0c.248.065.655.065.904 0s.045-.118-.452-.118c-.498 0-.701.053-.452.118m14.922 4.732c-.782.413-1.33.756-1.219.763.275.016 2.769-1.257 2.769-1.414 0-.172.036-.187-1.55.651m-97.984 2.777c1.465.046 3.79.046 5.168-.001 1.378-.046.18-.084-2.662-.084-2.842.001-3.97.039-2.506.085m70.371-.086c.234.255 4.848 1.182 5.778 1.16.427-.009-.387-.227-1.808-.482-1.421-.256-2.933-.553-3.359-.661-.427-.108-.701-.116-.611-.017m20.335.021c-.07.071-1.398.352-2.95.626-1.551.273-2.472.504-2.046.514.85.019 5.527-.895 5.757-1.125.079-.079-.031-.143-.244-.143s-.446.058-.517.128m-11.779 1.356c1.102.048 2.904.048 4.005 0 1.102-.049.201-.088-2.002-.088s-3.104.039-2.003.088m-99.969 21.711c-.477.309-4.778 22.103-4.409 22.337.395.251 1.768.254 2.16.005.325-.207 4.788-21.99 4.576-22.333-.159-.259-1.933-.265-2.327-.009m19.12 0c-.422.272-4.678 21.988-4.37 22.296.294.294 1.694.318 2.136.037.173-.11.667-1.972 1.097-4.139 1.229-6.183 3.238-9.089 6.284-9.089 2.027 0 2.126 1.063.741 7.949-.695 3.453-.913 5.026-.724 5.216.329.329 1.71.351 2.208.035.447-.282 2.326-9.634 2.342-11.65.033-4.355-4.361-5.596-8.124-2.295l-.996.874.194-.775c.598-2.386 1.676-8.231 1.555-8.427-.17-.276-1.928-.3-2.343-.032m180.908.125c-.12.325-1.674 7.809-1.674 8.06 0 .073-.522-.234-1.16-.684-4.681-3.299-10.984 2.289-10.984 9.738 0 5.322 4.777 7.339 8.863 3.743l1.141-1.004-.199 1.085c-.109.598-.144 1.174-.077 1.282.211.341 1.823.212 2.141-.172.308-.37 4.41-20.611 4.41-21.757 0-.696-2.215-.958-2.461-.291m-307.557 1.37c-8.415 2.265-12.289 17.26-5.289 20.465 7.677 3.514 15.823-3.355 15.823-13.342 0-5.822-4.376-8.781-10.534-7.123m189.61-.003c-8.792 2.466-12.344 18.502-4.615 20.839 7.496 2.268 14.347-3.356 15.101-12.397.554-6.64-3.959-10.273-10.486-8.442m-136.385.184c-.352.426-4.259 20.053-4.083 20.511.173.45 2.057.475 2.42.031.145-.177.632-2.183 1.081-4.457.45-2.274.876-4.338.948-4.587.117-.404 9.657-.766 9.657-.366 0 .047-.409 2.109-.909 4.584-.499 2.474-.851 4.645-.783 4.824.163.423 2.064.425 2.406.002.504-.624 4.356-19.816 4.107-20.465-.188-.49-1.706-.542-2.278-.077-.31.251-2.027 7.493-2.027 8.548 0 .095-2.163.173-4.808.173H89.35l.138-.582c.642-2.696 1.505-7.735 1.381-8.059-.191-.496-2.048-.557-2.442-.08m98.333 0c-.463.358-4.482 19.84-4.229 20.501.177.46 2.056.492 2.424.041.385-.471 4.301-19.95 4.111-20.446-.195-.508-1.691-.571-2.306-.096m91.326.004c-.371.447-4.275 19.993-4.09 20.476.183.475 1.702.517 2.297.062.292-.222.691-1.732 1.281-4.845l.858-4.522 4.847-.07 4.847-.07-.132.587c-1.865 8.293-1.91 9.243-.437 9.243 1.445 0 1.348.291 3.52-10.553 2.17-10.838 2.157-10.635.694-10.635-1.385 0-1.431.093-2.378 4.845l-.837 4.199h-4.743c-3.622 0-4.743-.077-4.744-.323-.001-.178.36-2.041.8-4.141.441-2.1.736-3.99.655-4.199-.183-.478-2.052-.519-2.438-.054m-127.329 1.204c-.417.177-.609.633-.864 2.061l-.328 1.834h-1.107c-2.089 0-2.508 2.128-.448 2.276.902.065 1.086.163.982.517-1.247 4.228-1.969 10.927-1.284 11.905 1.545 2.206 6.039 1.567 6.039-.859 0-.654-.024-.662-1.417-.499-2.549.3-2.662-.272-1.329-6.751l.851-4.134 1.991-.129c2.147-.14 2.477-.354 2.484-1.615l.004-.711h-1.938c-2.177 0-2.098.104-1.643-2.159.163-.809.241-1.525.175-1.591-.264-.265-1.665-.358-2.168-.145m-109.994 1.483c3.699 2.762 1.812 12.185-3.008 15.019-2.565 1.508-6.378.906-7.612-1.201-1.428-2.44-.264-8.867 2.161-11.929 1.859-2.346 6.468-3.376 8.459-1.889m189.082-.203c4.317 1.983 2.692 12.213-2.417 15.217-3.797 2.232-7.995.395-8.239-3.606-.48-7.898 5.219-14.108 10.656-11.611m-157.364 2.784c-.427.224-1.217.83-1.756 1.346l-.981.939.076-1.163c.076-1.149.067-1.163-.796-1.245-1.284-.123-1.262-.185-2.863 7.803-1.576 7.857-1.577 7.916-.153 7.909 1.27-.006 1.37-.205 2.191-4.384 1.226-6.234 3.253-9.288 5.951-8.969 1.309.155 1.819-.303 1.819-1.633 0-1.017-2.03-1.368-3.488-.603m38.44.106c-4.948 1.951-7.683 10.895-4.399 14.39 1.982 2.111 9.198 1.629 9.853-.658.359-1.255.015-1.406-1.868-.82-4.32 1.344-6.497.32-6.497-3.058v-1.524l2.649-.162c5.642-.345 8.205-1.844 8.203-4.799-.003-3.186-4.05-4.903-7.941-3.369m15.887-.165c-5.181 1.849-7.748 12.235-3.76 15.212 1.621 1.21 4.689.692 6.774-1.144l1.181-1.039-.164.859c-.09.473-.204.907-.254.965-.049.058.04.262.198.452.468.564 1.714.426 2.125-.234.54-.868 3.133-14.644 2.816-14.961-.597-.597-1.989-.133-2.278.758-.272.843-.278.845-.744.33-1.262-1.394-3.863-1.923-5.894-1.198m72.091.001c-1.063.379-1.449.636-2.715 1.804l-.844.779.167-.895c.177-.944.179-.967.131-1.476-.033-.35-1.512-.442-2.007-.125-.354.227-3.291 14.675-3.09 15.2.177.46 2.064.492 2.403.041.133-.177.564-1.951.957-3.94 1.218-6.158 3.221-9.182 6.073-9.169 2.388.01 2.463.873.778 8.936-.433 2.075-.725 3.935-.649 4.134.176.458 2.061.488 2.412.039.407-.52 2.138-9.997 2.136-11.692-.004-3.263-2.455-4.812-5.752-3.636m63.246.035c-.427.221-1.221.83-1.765 1.355l-.99.954.085-1.163c.085-1.152.077-1.164-.787-1.246-1.237-.119-1.339.069-2.113 3.891-.382 1.885-1.066 5.217-1.522 7.405-.902 4.336-.891 4.412.632 4.412 1.235 0 1.316-.166 2.162-4.454 1.293-6.554 3.19-9.296 6.127-8.856l1.115.168.296-1.099c.454-1.686-1.241-2.402-3.24-1.367m38.09-.05c-5.173 1.849-7.766 12.352-3.768 15.264 1.652 1.202 4.765.614 6.886-1.302l.996-.9-.043 1.237c-.044 1.283.817 1.825 1.836 1.158.31-.203 3.151-13.688 3.157-14.986.006-1.069-2.058-.712-2.437.421l-.288.858-.509-.572c-1.213-1.362-3.834-1.892-5.83-1.178m19.403.182c-.639.289-1.6.951-2.135 1.472l-.973.946.068-1.283.069-1.284-.97-.08c-1.233-.102-1.094-.504-2.772 8.017-1.474 7.486-1.48 7.698-.207 7.692 1.351-.006 1.454-.205 2.284-4.379.805-4.054 1.053-4.753 2.355-6.657 1.437-2.101 4.336-3.11 5.238-1.822.603.86.497 2.177-.599 7.483-1.073 5.198-1.061 5.382.343 5.375 1.368-.007 1.464-.215 2.497-5.462 1.106-5.608 1.219-7.409.551-8.746-.87-1.741-3.447-2.312-5.749-1.272m31.396-.236c-4.792 1.795-4.859 6.322-.13 8.8 4.739 2.485 1.064 6.486-3.855 4.196-1.588-.739-1.819-.619-1.825.951-.013 2.958 7.761 2.579 9.913-.484 1.953-2.778 1.074-5.075-2.669-6.976-4.295-2.182-1.406-5.962 3.021-3.953 1.236.561 1.617.295 1.617-1.131 0-1.277-3.964-2.193-6.072-1.403m-300.575.281c-.398.514-2.139 10.066-2.138 11.732.003 4.296 4.513 5.389 8.262 2.003l.996-.9-.043 1.237c-.041 1.199-.018 1.24.733 1.305 1.314.115 1.384-.072 2.871-7.673 1.587-8.114 1.585-8.027.103-8.027-1.291 0-1.297.013-2.208 4.651-1.123 5.716-3.269 8.786-6.14 8.786-2.052 0-2.189-1.106-.912-7.401.582-2.872.988-5.406.902-5.629-.191-.5-2.054-.564-2.426-.084m189.664 0c-1.008 1.3-2.48 12.563-1.812 13.864 1.221 2.375 5.086 2.371 7.79-.009l1.181-1.039-.164.859c-.09.473-.204.907-.254.965-.231.271.561.799 1.198.799 1.116 0 1.215-.285 2.736-7.87 1.59-7.925 1.589-7.892.146-7.892-1.353 0-1.406.102-2.216 4.264-1.209 6.211-3.251 9.173-6.324 9.173-2.033 0-2.126-.897-.791-7.649.575-2.906.975-5.398.889-5.536-.225-.365-2.084-.31-2.379.071m-124.677 2.146c.848.594.802 2.224-.082 2.919-1.141.898-6.578 1.561-6.578.803 0-2.603 4.593-5.17 6.66-3.722m15.625.507c1.406.956 1.489 1.267.945 3.543-1.663 6.961-7.985 9.912-7.985 3.727 0-5.806 3.649-9.574 7.04-7.27m173.012-.287c.383.199.97.655 1.304 1.012l.607.65-.423 1.894c-1.715 7.674-8.643 10.33-8.089 3.101.385-5.036 3.561-8.239 6.601-6.657m34.367 0c2.132 1.109 2.309 3.18.58 6.781-2.912 6.066-8.162 5.038-6.851-1.341.946-4.602 3.546-6.858 6.271-5.44"/><path fill="#c40505" d="M182.49 88.659c-7.094 3.512-4.303 12.583 6.882 22.369 2.663 2.329 2.271 2.366 5.363-.498 9.415-8.719 12.315-15.459 8.627-20.049-2.836-3.529-7.378-3.125-10.339.918-1.382 1.888-1.4 1.894-2.042.655-1.731-3.338-5.533-4.859-8.491-3.395"/></g></svg>