<svg xmlns="http://www.w3.org/2000/svg" role="img" viewBox="-7.13 -7.13 383.76 276.51"><title>OpenTrace logo</title><path fill="#274a9f" d="M104.124 131.79c-.163-5.674 1.369-11.268 4.401-16.067 3.031-4.798 7.424-8.582 12.616-10.867 5.192-2.286 10.948-2.969 16.53-1.963 5.583 1.007 10.738 3.657 14.807 7.612 4.069 3.955 6.867 9.035 8.035 14.59 1.168 5.556.653 11.333-1.478 16.594-2.132 5.261-5.783 9.766-10.487 12.938-4.703 3.173-10.246 4.869-15.918 4.871-3.711.136-7.411-.481-10.877-1.814-3.466-1.334-6.627-3.356-9.29-5.946-2.664-2.589-4.776-5.691-6.209-9.12-1.434-3.428-2.158-7.112-2.13-10.828zm46.479 0c0-3.558-1.054-7.035-3.029-9.993a17.97693 17.97693 0 0 0-8.066-6.626c-3.284-1.361-6.898-1.717-10.385-1.023-3.486.694-6.689 2.407-9.203 4.923-2.513 2.515-4.225 5.721-4.919 9.21-.693 3.489-.337 7.106 1.023 10.393 1.361 3.287 3.664 6.096 6.62 8.073 2.956 1.976 6.431 3.031 9.986 3.031 2.369.034 4.722-.408 6.918-1.3 2.196-.892 4.191-2.216 5.867-3.893 1.676-1.677 2.998-3.673 3.889-5.871.892-2.198 1.333-4.552 1.299-6.924z"/><path fill="#274a9f" d="M209.635 122.133c.058 2.319-.368 4.624-1.252 6.769-.883 2.144-2.204 4.08-3.878 5.684-1.674 1.605-3.664 2.841-5.844 3.631-2.179.79-4.499 1.116-6.811.957h-12.613v19.629h-10.658v-54.027h23.019c2.349-.149 4.703.192 6.912 1.002 2.21.81 4.227 2.072 5.923 3.704 1.697 1.632 3.035 3.6 3.931 5.778.895 2.178 1.328 4.519 1.271 6.873zm-10.154 0c.047-1.187-.165-2.369-.623-3.465a8.1478 8.1478 0 0 0-2.027-2.878c-.878-.8-1.919-1.398-3.052-1.752-1.133-.355-2.329-.457-3.505-.299h-11.289v16.725h11.036c6.055-.126 9.208-3.282 9.208-8.457l.252.126z"/><path fill="#274a9f" d="M226.663 114.116v13.128h18.919v9.214h-18.919v13.002h21.757v9.341h-32.479v-54.027h32.227v9.342h-21.505z"/><path fill="#274a9f" d="M308.139 104.774v54.027h-9.902l-30.776-38.689v38.689h-10.279v-54.027h9.838l30.902 38.564v-38.564h10.217z"/><path fill="#499dd6" d="M179.807 181.146h-13.874v44.56h-10.406v-44.56h-13.875v-9.278h38.155v9.278z"/><path fill="#499dd6" d="M205.219 202.985h-8.766v22.721h-10.406v-53.837h21.001c2.204-.215 4.429.04 6.527.75s4.022 1.858 5.643 3.367c1.622 1.51 2.905 3.347 3.764 5.39.859 2.043 1.275 4.245 1.22 6.461.057 2.994-.809 5.932-2.478 8.417-1.67 2.484-4.064 4.393-6.856 5.469l14.19 23.983h-11.352l-12.487-22.721zm-8.766-8.395h9.901c4.982 0 7.694-2.587 7.694-6.879.047-.994-.126-1.985-.506-2.904-.38-.919-.958-1.742-1.693-2.412-.735-.669-1.609-1.167-2.559-1.46-.95-.292-1.952-.37-2.936-.23h-9.901v13.885z"/><path fill="#499dd6" d="M267.904 214.661H244.57l-4.036 11.045h-10.847l20.496-53.838h12.108l20.497 53.838H271.94l-4.036-11.045zm-3.153-8.837l-8.514-23.479-8.766 23.479h17.28z"/><path fill="#499dd6" d="M281.968 199.07c-.064-3.74.637-7.454 2.06-10.913 1.422-3.459 3.536-6.591 6.211-9.203 2.675-2.613 5.855-4.65 9.346-5.988 3.49-1.338 7.217-1.948 10.951-1.793 7.723-.027 15.14 3.015 20.623 8.458l-7.568 6.816c-1.689-1.824-3.738-3.277-6.018-4.266a17.887 17.887 0 0 0-7.226-1.477c-4.574.271-8.873 2.281-12.016 5.619-3.143 3.337-4.893 7.751-4.893 12.337 0 4.586 1.75 8.999 4.893 12.337 3.143 3.338 7.442 5.348 12.016 5.619 2.479.011 4.933-.487 7.211-1.464 2.278-.977 4.332-2.412 6.033-4.216l7.379 7.069c-5.443 5.379-12.784 8.395-20.434 8.394-3.688.162-7.371-.425-10.827-1.725-3.456-1.3-6.614-3.286-9.283-5.839a27.41393 27.41393 0 0 1-6.248-9.017c-1.453-3.397-2.205-7.053-2.21-10.748z"/><path fill="#499dd6" d="M347.624 181.146v13.128h18.92v9.152h-18.92v13.002h21.695v9.278h-32.164v-53.838h32.164v9.278h-21.695z"/><path fill="#274a9f" d="M131.305 9.723c25.532.017 50.409 8.08 71.103 23.046 20.693 14.966 36.152 36.074 44.181 60.33h9.964c-7.055-23.205-20.41-43.993-38.577-60.048-18.166-16.054-40.431-26.745-64.312-30.879-23.882-4.134-48.441-1.55-70.941 7.465s-42.056 24.105-56.489 43.59C11.801 72.712 3.058 95.826.98 119.992c-2.078 24.165 2.59 48.434 13.485 70.1 10.895 21.667 27.587 39.879 48.217 52.609 20.63 12.729 44.387 19.474 68.623 19.484v-9.467c-31.727-.724-61.91-13.845-84.093-36.558-22.183-22.712-34.603-53.211-34.603-84.971 0-31.76 12.42-62.259 34.603-84.971C69.395 23.505 99.578 10.384 131.305 9.66v.063z"/><path fill="#274a9f" d="M131.307 36.359c18.387.022 36.37 5.406 51.748 15.494 15.379 10.089 27.486 24.444 34.841 41.31h10.216c-6.896-17.633-18.467-33.05-33.469-44.589-15.002-11.539-32.865-18.763-51.665-20.895-18.8-2.131-37.825.91-55.026 8.798-17.201 7.887-31.926 20.322-42.589 35.964s-16.86 33.899-17.923 52.805c-1.064 18.905 3.047 37.743 11.888 54.484 8.842 16.741 22.079 30.751 38.287 40.52 16.208 9.77 34.771 14.929 53.692 14.923v-9.468c-25.089 0-49.151-9.974-66.891-27.729-17.741-17.754-27.707-41.835-27.707-66.944s9.966-49.189 27.707-66.944c17.74-17.755 41.802-27.729 66.891-27.729z"/><path fill="#274a9f" d="M131.303 63.246c11.074 0 21.977 2.723 31.753 7.928 9.776 5.206 18.125 12.735 24.312 21.926h11.1c-6.67-11.83-16.34-21.688-28.034-28.581-11.694-6.892-24.999-10.575-38.57-10.675-13.572-.1-26.929 3.385-38.724 10.104-11.795 6.719-21.609 16.433-28.452 28.163-6.844 11.729-10.473 25.058-10.522 38.641-.05 13.582 3.483 26.937 10.241 38.716 6.757 11.779 16.501 21.565 28.247 28.369 11.746 6.805 25.077 10.387 38.649 10.385v-9.53c-17.947 0-35.159-7.135-47.849-19.836-12.691-12.7-19.82-29.926-19.82-47.887 0-17.961 7.129-35.187 19.82-47.887 12.69-12.701 29.902-19.836 47.849-19.836z"/><path fill="#499dd6" d="M131.304 90.134c5.125.033 10.197 1.04 14.946 2.967h17.785c-6.143-5.421-13.513-9.264-21.472-11.196-7.958-1.933-16.268-1.897-24.21.104-7.942 2-15.278 5.906-21.375 11.379-6.096 5.473-10.769 12.35-13.616 20.035-2.847 7.685-3.782 15.948-2.723 24.076 1.058 8.128 4.078 15.875 8.798 22.574 4.719 6.698 10.998 12.146 18.292 15.872 7.294 3.727 15.386 5.621 23.575 5.517v-9.656c-10.822 0-21.2-4.303-28.853-11.961C94.799 152.187 90.5 141.8 90.5 130.97c0-10.83 4.299-21.217 11.951-28.875 7.653-7.659 18.031-11.961 28.853-11.961z"/><path fill="#499dd6" d="M180.561 171.803h-49.317v9.658l49.317-.191v-9.467z"/></svg>