<svg xmlns="http://www.w3.org/2000/svg" role="img" viewBox="-4.80 -4.80 249.34 150.09"><title>Philippines (StaySafe PH) logo</title><path fill="#0038a8" d="M0 0h240v120H0z"/><path fill="#ce1126" d="M0 60h240v60H0z"/><path fill="#fff" d="M103.92307 60L0 120V0"/><path fill="#fcd116" d="M6 10.3923l3.61208 3.12145 4.18214-2.30225-1.85248 4.39987 3.48192 3.26601-4.75698-.40218-2.0302 4.32075L7.549 18.14752l-4.73664-.59564 4.08488-2.4707zm81.3165 43.26732l.09726 4.77295L91.92304 60l-4.50928 1.56742-.09726 4.77295-2.88416-3.80422-4.56942 1.38241L82.5897 60l-2.72678-3.91857 4.56942 1.38242zM8.63648 97.20404l2.0302 4.32075 4.75698-.40218-3.48192 3.26601 1.85248 4.39987-4.18214-2.30224L6 109.60769l.89724-4.68887-4.08488-2.47071 4.73664-.59564zm28.69686-62.53738l-1.558 1.558.77266 11.80059a12.01368 12.01368 0 0 0-.78058.076l-1.41866-10.76826-1.27142 1.27141 1.91426 9.62508c-1.57464.31158-3.03812.93012-4.32568 1.79234l-5.4514-8.1589h-1.79868l6.612 8.61808c-.20746.15949-.4084.32631-.60482.49874l-7.7995-8.89358h-2.204v2.204l8.89358 7.7995c-.17262.19667-.33912.3987-.49874.60642l-8.61808-6.61359v1.79867l8.16048 5.453c-.86198 1.28733-1.4824 2.74984-1.7939 4.32409l-9.6251-1.91426-1.2714 1.27142 10.76824 1.41867a12.01919 12.01919 0 0 0-.076.78058L13.558 58.442 12 60l1.558 1.558 11.8006-.77267c.017.26278.0424.52428.076.78216l-10.76824 1.4171 1.2714 1.2714 9.6251-1.91425c.31152 1.57455.92998 3.03787 1.79232 4.32567l-8.15892 5.45141v1.79867l8.6181-6.612c.15948.20755.32632.40833.49874.60484l-8.89358 7.7995v2.204h2.204l7.7995-8.89358c.19672.17273.39864.33895.6064.49875l-6.61358 8.61808h1.79868l5.453-8.1605c1.287.86274 2.74966 1.48399 4.32408 1.7955l-1.91426 9.6235 1.27142 1.27142 1.41866-10.76826c.25774.0336.5179.05906.78058.076l-.77266 11.80059 1.558 1.558 1.558-1.558-.77266-11.80059a12.10972 12.10972 0 0 0 .78058-.076L40.31792 82.667l1.27142-1.27142-1.91424-9.6251c1.57462-.31155 3.0381-.9301 4.32566-1.79232l5.4514 8.15891h1.79868l-6.612-8.61807c.20746-.1595.40842-.32632.60484-.49875l7.7995 8.89357h2.204v-2.204l-8.89358-7.7995c.17262-.19666.3391-.39868.49876-.6064l8.61808 6.61357v-1.79867l-8.16052-5.453c.86198-1.28732 1.48244-2.74982 1.79392-4.32408l9.6251 1.91426 1.27142-1.27142-10.76828-1.41867a12.03386 12.03386 0 0 0 .076-.78058l11.8006.77267 1.558-1.558-1.558-1.558-11.8006.77266a11.92842 11.92842 0 0 0-.07598-.78058l10.76826-1.41867-1.27142-1.27142-9.62508 1.91426c-.31158-1.57463-.93012-3.03812-1.79236-4.32567l8.15894-5.45142v-1.79867l-8.61808 6.612c-.1595-.20745-.32632-.4084-.49876-.60483l8.89358-7.7995v-2.204h-2.204l-7.7995 8.89358c-.19666-.17261-.39868-.3391-.60642-.49874l6.61358-8.61808h-1.79868l-5.45298 8.16049c-1.28734-.86197-2.74984-1.48242-4.32408-1.79392l1.91424-9.62508-1.27142-1.27141-1.41866 10.76825a12.0318 12.0318 0 0 0-.78058-.076l.77266-11.80059z"/><path d="M27.54206 127.80464c.32327.26181.48264.69892.48264 1.3136 0 .6124-.15937 1.0609-.48264 1.34547-.32328.2823-.77632.42345-1.35686.42345h-2.29709v-3.4741h2.2971c.58053 0 1.03357.13205 1.35685.39158zm1.86909 4.25042c.70346-.57598 1.05634-1.55947 1.05634-2.95275 0-1.2749-.35288-2.21741-1.05634-2.82526-.70575-.60786-1.65054-.91292-2.83437-.91292h-5.13829v11.79734h2.44962v-4.2413h2.50426c1.30677 0 2.31303-.28913 3.01878-.86511zm8.9994-3.5606c-.43939-.18669-.92886-.28003-1.46841-.28003-.48036 0-.93796.10017-1.3728.30051-.43482.19807-.8173.55322-1.14967 1.05862v-4.16845h-2.27205v11.75636h2.27205v-4.72167c0-.74672.15708-1.3227.46897-1.72566.3119-.40296.7695-.6033 1.3728-.6033.58053 0 .97666.20262 1.18383.60785.16164.28913.24132.66705.24132 1.13603v5.30675h2.32896v-5.12235c0-.7786-.02732-1.34092-.07968-1.68468-.05464-.34377-.20034-.67843-.44166-1.00398-.2823-.38475-.64428-.66932-1.08367-.856zm6.07852-1.09733v-2.10585h-2.31303v2.10585zm-2.31303 1.0404v8.72394h2.31303v-8.72393zm6.8503 8.72394v-11.79734h-2.28116v11.79734zm4.5714-9.76434v-2.10585h-2.31302v2.10585zm-2.31302 1.0404v8.72394h2.31302v-8.72393zm10.07168 2.57712c.30734.51679.45987 1.11326.45987 1.78485 0 .8173-.1662 1.47069-.49858 1.96016-.33466.49174-.81957.73762-1.45247.73762-.43938 0-.8173-.12066-1.1383-.3597-.53727-.41207-.80819-1.12465-.80819-2.13773 0-.63973.07968-1.1679.24132-1.58452.30962-.78543.8765-1.177 1.70517-1.177.68754 0 1.18384.25953 1.49118.77632zm1.75298-1.64143c-.70575-.75128-1.57086-1.12692-2.5885-1.12692-.69891 0-1.30221.19352-1.8099.58281-.27774.21856-.53727.51907-.78314.89698v-1.28855H55.7423v12.15704h2.25611v-4.54637c.24132.36881.4872.64883.73762.84234.4576.34605 1.03585.51907 1.72794.51907 1.08821 0 1.97836-.40296 2.67045-1.20887.68981-.80592 1.03585-1.9761 1.03585-3.5128 0-1.45702-.35287-2.56117-1.0609-3.31473zm8.2595 1.64143c.30734.51679.45988 1.11326.45988 1.78485 0 .8173-.1662 1.47069-.49858 1.96016-.33466.49174-.8173.73762-1.45247.73762-.43938 0-.8173-.12066-1.1383-.3597-.53728-.41207-.8082-1.12465-.8082-2.13773 0-.63973.07969-1.1679.24133-1.58452.30961-.78543.87649-1.177 1.70517-1.177.68753 0 1.1861.25953 1.49117.77632zm1.75299-1.64143c-.70575-.75128-1.56858-1.12692-2.5885-1.12692-.69892 0-1.30221.19352-1.8099.58281-.27774.21856-.53727.51907-.78315.89698v-1.28855H65.7548v12.15704h2.2561v-4.54637c.24133.36881.4872.64883.73763.84234.4576.34605 1.03585.51907 1.72794.51907 1.08821 0 1.97836-.40296 2.67045-1.20887.6898-.80592 1.03585-1.9761 1.03585-3.5128 0-1.45702-.35287-2.56117-1.0609-3.31473zm5.05405-1.97609v-2.10585h-2.31303v2.10585zm-2.31303 1.0404v8.72394h2.31303v-8.72393zm11.56968.50086c-.5737-.47353-1.31132-.70802-2.21285-.70802-.7194 0-1.31588.1753-1.78486.52817-.2618.19579-.53955.51906-.83323.96755v-1.27261h-2.1992v8.70799h2.27205v-4.72167c0-.53955.07513-.98121.22538-1.32953.28685-.65566.8173-.9835 1.59135-.9835.63061 0 1.05634.22311 1.28172.6716.12294.24588.1844.59875.1844 1.05635v5.30675h2.3358v-5.87363c0-1.09504-.28685-1.8782-.86056-2.34945zm-3.05292-.73306zm8.23219 2.37677c.28913-.33011.69891-.4963 1.22709-.4963.48719 0 .89242.15708 1.22253.46898.32783.3119.50996.76949.54638 1.37279h-3.54466c.07512-.56688.25725-1.01309.54866-1.34547zm3.18951-1.96926c-.5828-.27092-1.23619-.40751-1.96242-.40751-1.22026 0-2.21514.40295-2.98007 1.20887-.76722.80592-1.14969 1.9647-1.14969 3.4741 0 1.61183.42573 2.77517 1.27262 3.49002.84917.71485 1.82811 1.07228 2.9391 1.07228 1.34319 0 2.39042-.42573 3.13715-1.27262.48036-.535.749-1.0609.80819-1.57768h-2.32896c-.12294.25725-.26409.4576-.42573.60102-.29368.26636-.67387.40068-1.14285.40068-.44394 0-.82185-.10928-1.1383-.3301-.51679-.3506-.79226-.96529-.82413-1.8395h5.97152c.01139-.75355-.01366-1.32953-.07285-1.73022-.10017-.68298-.321-1.28172-.66249-1.80079-.38019-.58508-.86055-1.01536-1.44109-1.28855zm-1.80079-.40751zm7.28968 6.17186H98.9772c0 .8947.32783 1.63232.98122 2.21285.65338.57826 1.66647.86739 3.03698.86739 1.34547 0 2.33807-.2732 2.98235-.81958.642-.54638.963-1.25213.963-2.11724 0-.65566-.2231-1.20432-.6716-1.64142-.45304-.43256-1.13375-.75356-2.03983-.96756-1.3614-.29823-2.15367-.50996-2.37677-.6329-.22539-.1161-.33694-.30734-.33694-.56687 0-.20944.10472-.39157.31645-.54638.20944-.15253.5646-.22994 1.0609-.22994.60102 0 1.02902.15253 1.27944.46215.13432.17075.21628.40296.24815.69664h2.28116c-.10245-1.06545-.49403-1.81673-1.18156-2.25156-.68526-.43483-1.57085-.65338-2.65907-.65338-1.1474 0-2.03756.28913-2.67045.86966-.6329.57826-.94934 1.27034-.94934 2.07626 0 .68298.20261 1.2066.61013 1.56858.40523.3688 1.10187.67387 2.08764.91974 1.37279.32556 2.16504.5555 2.37677.68981.214.13205.321.32783.321.58281 0 .26637-.13204.4667-.39613.60103-.26409.13204-.62151.20034-1.06772.20034-.76494 0-1.28628-.15254-1.56858-.4576-.16164-.17074-.26409-.4576-.31417-.86283zm1.74615-6.17186zm10.68408 0c-.69208 1.60045-1.0404 3.1804-1.0404 4.7376 0 1.35002.26636 2.69322.80136 4.0273.45304 1.14741 1.11098 2.31303 1.97609 3.49686h1.3523l-.4872-.89698c-.67387-1.2362-1.14057-2.53158-1.4001-3.8816-.17075-.87877-.25726-1.84177-.25726-2.889 0-1.62094.22083-3.08935.66477-4.40067.26636-.78543.77177-1.85543 1.51166-3.21l-1.31132-.01595-.56915.78316c-.44166.61468-.856 1.36368-1.24075 2.24928zm6.89127 5.31586h-2.35173c0 1.22708.43939 2.19009 1.32043 2.89128.87877.70347 2.08764 1.05406 3.62435 1.05406 1.50483 0 2.67045-.35742 3.49458-1.07.82413-.7103 1.2362-1.60728 1.2362-2.6841 0-1.0518-.35288-1.85544-1.05635-2.40865-.45304-.35743-1.12692-.64428-2.01707-.856l-2.033-.48947c-.78543-.18668-1.29766-.34832-1.5367-.4872-.37337-.20944-.56005-.52361-.56005-.94478 0-.45988.18896-.8173.56915-1.07228.37792-.25726.8856-.38475 1.5185-.38475.57142 0 1.0495.0979 1.43425.29596.57598.29824.8856.80364.92885 1.51166h2.36767c-.04326-1.25213-.50313-2.2083-1.37962-2.86851-.87877-.65794-1.93966-.98805-3.18269-.98805-1.4889 0-2.61581.34832-3.3853 1.04724-.76722.7012-1.15196 1.57768-1.15196 2.63402 0 1.1588.3984 2.01024 1.19294 2.55435.46898.32555 1.31815.62606 2.54523.90381l1.24758.28002c.73079.15936 1.26807.34377 1.60956.55322.34149.21172.51223.5145.51223.9038 0 .66705-.34376 1.12237-1.03357 1.36824-.36198.1275-.83324.19124-1.41605.19124-.9721 0-1.65736-.24132-2.05577-.72851-.22083-.26637-.36653-.66933-.44166-1.2066zm2.3927-8.51676zm5.67557 5.13828h1.2157v5.3705c0 .5441.12977.94707.38475 1.20888.39385.40978 1.13147.59647 2.2083.56004l1.08139-.04098v-1.70517a3.70445 3.70445 0 0 1-.22766.01366c-.0774.00227-.15026.00455-.22083.00455-.46443 0-.74217-.04553-.83324-.13432-.08878-.0865-.13432-.30962-.13432-.66704v-4.61012h1.41605v-1.62549h-1.41605v-2.4314h-2.25838v2.4314h-1.2157zm11.16445 2.77745v.84918c-.01594.76266-.22994 1.28855-.64428 1.5754-.41206.28913-.8651.43256-1.35685.43256-.30962 0-.57143-.08651-.7877-.25953-.21628-.17303-.32328-.45532-.32328-.84462 0-.43711.1753-.76039.52817-.96983.20717-.12294.55093-.22539 1.0313-.3119l.51223-.09562c.25726-.0478.4576-.10017.60558-.1548.1457-.05692.2914-.12977.43483-.22084zm-1.38417-1.06544l-.77633.09561c-.88104.11383-1.54808.30051-2.00113.56232-.8264.48037-1.24074 1.25669-1.24074 2.32896 0 .82641.25725 1.46614.77176 1.9169.5168.45077 1.1679.67615 1.95788.67615.61923 0 1.17473-.14115 1.6642-.42572.41206-.23904.77404-.53045 1.0882-.87194a6.6124 6.6124 0 0 0 .06375.52817c.02732.15481.07513.321.1457.4963h2.4815v-.33694c-.15026-.0683-.2618-.15708-.33694-.26408-.07512-.10473-.12066-.30734-.1366-.60785-.0091-.39386-.01593-.7308-.01593-1.00854v-3.99998c0-1.0518-.37108-1.76665-1.11326-2.14684-.7399-.37791-1.58906-.56687-2.54296-.56687-1.4684 0-2.50426.38247-3.10756 1.15196-.37791.49174-.59191 1.1178-.63972 1.88047h2.20147c.05236-.33694.15936-.6033.321-.79909.2231-.26864.60558-.40068 1.14285-.40068.48037 0 .84462.0683 1.09277.20262.24815.1366.37336.38474.37336.74217 0 .29368-.16391.50768-.48946.64655-.17986.08196-.48264.14798-.90381.20035zm.12065-3.6494zm5.92144 10.62945v1.82356c.24587.01821.43028.02732.55322.0296.12293.00227.28457.00455.48719.00455 1.00853 0 1.6824-.20034 2.01707-.59647.33693-.3984.79225-1.42515 1.36823-3.07797l2.99373-8.5805h-2.42458l-1.80079 6.43595-1.90551-6.43595h-2.53614l3.2009 9.10868c.0205.06374-.02504.23904-.13887.52817-.1161.28685-.23904.47808-.37336.56915-.13887.09561-.30962.15708-.51224.18213-.20261.02731-.41661.03642-.63972.02504zm3.08935-10.62944zm7.64482 5.31586h-2.354c0 1.22708.44166 2.19009 1.32042 2.89128.88105.70347 2.08992 1.05406 3.62663 1.05406 1.50483 0 2.66817-.35742 3.4923-1.07.82413-.7103 1.23847-1.60728 1.23847-2.6841 0-1.0518-.35287-1.85544-1.05862-2.40865-.45304-.35743-1.12464-.64428-2.01479-.856l-2.033-.48947c-.78543-.18668-1.29766-.34832-1.5367-.4872-.37337-.20944-.56233-.52361-.56233-.94478 0-.45988.19124-.8173.56915-1.07228.37792-.25726.8856-.38475 1.52077-.38475.57143 0 1.04952.0979 1.43198.29596.57598.29824.8856.80364.92886 1.51166h2.36994c-.04326-1.25213-.50313-2.2083-1.3819-2.86851-.87649-.65794-1.93739-.98805-3.1804-.98805-1.4889 0-2.6181.34832-3.38531 1.04724-.7695.7012-1.15196 1.57768-1.15196 2.63402 0 1.1588.39613 2.01024 1.19066 2.55435.47126.32555 1.31815.62607 2.54524.90381l1.24985.28002c.73079.15936 1.2658.34377 1.60728.55322.3415.21172.51224.5145.51224.9038 0 .66705-.34377 1.12237-1.0313 1.36824-.36198.1275-.83552.19124-1.41605.19124-.9721 0-1.65736-.24132-2.05805-.72851-.21855-.26637-.36425-.66933-.43938-1.2066zm2.3927-8.51676zm11.38073 7.91573v.84918c-.01594.76266-.22994 1.28855-.64428 1.5754-.41434.28913-.8651.43256-1.35685.43256-.30962 0-.57143-.08651-.7877-.25953-.21628-.17303-.32328-.45532-.32328-.84462 0-.43711.1753-.76039.52817-.96983.20717-.12294.55094-.22539 1.0313-.3119l.51223-.09562c.25726-.0478.4576-.10017.60558-.1548.1457-.05692.2914-.12977.43483-.22084zm-1.38417-1.06544l-.77632.09561c-.88105.11383-1.5481.30051-2.00113.56232-.82641.48037-1.24075 1.25669-1.24075 2.32896 0 .82641.25725 1.46614.77177 1.9169.51678.45077 1.1679.67615 1.95787.67615.61924 0 1.17473-.14115 1.6642-.42572.41206-.23904.77404-.53045 1.08821-.87194a6.6124 6.6124 0 0 0 .06375.52817c.02732.15481.07512.321.1457.4963h2.4815v-.33694c-.15026-.0683-.26182-.15708-.33694-.26408-.07513-.10473-.12066-.30734-.1366-.60785-.01138-.39386-.01594-.7308-.01594-1.00854v-3.99998c0-1.0518-.37108-1.76665-1.11325-2.14684-.7399-.37791-1.58907-.56687-2.54524-.56687-1.46613 0-2.50199.38247-3.10529 1.15196-.37791.49174-.59191 1.1178-.63972 1.88047h2.20147c.05236-.33694.15936-.6033.321-.79909.22311-.26864.60558-.40068 1.14286-.40068.48036 0 .84461.0683 1.09276.20262.24815.1366.37337.38474.37337.74217 0 .29368-.16392.50768-.48947.64655-.17985.08196-.48264.14798-.90381.20035zm.12066-3.6494zm9.17925-2.9482c-.1161-.0091-.24815-.01365-.39158-.01365-1.26579 0-2.0626.2618-2.3927.78543-.31645.35287-.47354.99487-.47354 1.92828v.56004h-1.24757v1.60956h1.27262v7.03469h2.27204v-7.0347h1.498v-1.60955h-1.498v-.73534c0-.17075.05692-.32783.17303-.46898.11383-.14115.32327-.20717.62378-.20034.30051.0091.5168.02049.64428.03642v-1.8577c-.20262-.01594-.36198-.02732-.48036-.03415zm4.06145 5.32498c.2914-.33011.7012-.4963 1.22937-.4963.48491 0 .89242.15708 1.22025.46898.32784.3119.50996.76949.54867 1.37279h-3.54695c.07513-.56688.25953-1.01309.54866-1.34547zm3.18952-1.96926c-.58053-.27092-1.23392-.40751-1.96015-.40751-1.22254 0-2.21513.40295-2.98235 1.20887-.76494.80592-1.1474 1.9647-1.1474 3.4741 0 1.61183.42344 2.77517 1.27261 3.49002.84918.71485 1.82811 1.07228 2.93682 1.07228 1.34547 0 2.39043-.42573 3.13715-1.27262.48037-.535.75128-1.0609.8082-1.57768h-2.32897c-.12293.25725-.26408.4576-.42344.60102-.29369.26636-.67615.40068-1.14513.40068-.44166 0-.82186-.10928-1.13603-.3301-.51679-.3506-.79225-.96529-.82413-1.8395h5.97153c.0091-.75355-.01366-1.32953-.07286-1.73022-.10244-.68298-.32327-1.28172-.66476-1.80079-.37792-.58508-.85828-1.01536-1.44109-1.28855zm-1.8008-.40751zm16.41202-.40069c.32328.26181.48491.69892.48491 1.3136 0 .6124-.16163 1.0609-.48491 1.34547-.32328.2823-.77405.42345-1.35686.42345h-2.29708v-3.4741h2.29708c.58281 0 1.03358.13205 1.35686.39158zm1.86909 4.25042c.70347-.57598 1.05634-1.55947 1.05634-2.95275 0-1.2749-.35287-2.21741-1.05634-2.82526-.70347-.60786-1.64826-.91292-2.83437-.91292h-5.13829v11.79734h2.44963v-4.2413h2.50653c1.30677 0 2.31303-.28913 3.0165-.86511zm2.889 5.10641h2.44052v-5.26578h4.61011v5.26578h2.44962v-11.79734h-2.44962v4.49856h-4.61011v-4.49856H203.546zm14.38356-8.81955c-.42345-.98121-1.03813-2.03755-1.8486-3.16903h-1.7211l.48718.8947c.6716 1.23393 1.14058 2.52476 1.40011 3.87478.17075.8856.25726 1.85088.25726 2.89811 0 1.63233-.23677 3.13488-.71258 4.5054-.27774.81046-.76949 1.85087-1.47296 3.12121h1.68924l.56915-.77632c.36653-.46898.7581-1.1679 1.17473-2.09675.74217-1.65964 1.11325-3.29196 1.11325-4.89924 0-1.46158-.31189-2.91177-.93568-4.35286z"/></svg>