<svg xmlns="http://www.w3.org/2000/svg" role="img" viewBox="-0.32 -0.32 16.57 12.07"><title>Poland (STOP COVID) logo</title><path fill="#fff" d="M0 0h16v10H0z"/><path fill="#dc143c" d="M0 5h16v5H0z"/><path d="M1.91068 10.50281c.02503.02028.03738.05413.03738.10173 0 .04742-.01235.08216-.03738.1042-.02503.02185-.06012.03278-.10507.03278h-.1779v-.26903h.1779c.04495 0 .08004.01023.10507.03032zm.14474.32916c.05448-.0446.0818-.12077.0818-.22866 0-.09873-.02732-.17172-.0818-.2188-.05465-.04707-.12782-.07069-.2195-.07069h-.3979v.91359h.1897v-.32845h.19393c.1012 0 .17912-.02239.23377-.067zm.63274.21579c-.02768.03667-.06734.05518-.119.05518s-.09132-.01851-.11935-.05518c-.02786-.03685-.04179-.08903-.04179-.15691 0-.0677.01393-.11988.04179-.15655.02803-.0365.0677-.05483.11935-.05483.05166 0 .09132.01833.119.05483.02768.03667.04161.08885.04161.15655 0 .06788-.01393.12006-.0416.1569zm.1414.0975c.05694-.07035.0855-.15515.0855-.25441 0-.0975-.02856-.18194-.0855-.25352-.05713-.0714-.14369-.10719-.2597-.10719-.11618 0-.20274.03579-.25968.1072-.05713.07157-.08569.15602-.08569.25351 0 .09926.02856.18406.08569.2544.05694.07052.1435.10578.25969.10578.116 0 .20256-.03526.25969-.10578zm-.2597-.61142zm.65196.69357v-.91359h-.17665v.91359zm.54477-.32845v.06576c-.00123.05906-.0178.09979-.0499.122-.0319.02239-.06699.0335-.10507.0335-.02397 0-.04425-.0067-.061-.0201-.01675-.0134-.02503-.03526-.02503-.0654 0-.03386.01357-.0589.0409-.07511.01604-.00952.04266-.01746.07986-.02416l.03967-.0074c.01992-.0037.03544-.00776.0469-.01199a.19541.19541 0 0 0 .03367-.0171zm-.10719-.0825l-.06012.0074c-.06823.00881-.11988.02327-.15497.04354-.064.0372-.09608.09732-.09608.18036 0 .064.01992.11353.05977.14844.04002.0349.09044.05236.15161.05236.04796 0 .09097-.01093.12888-.03296a.35761.35761 0 0 0 .08427-.06753.43772.43772 0 0 0 .00511.0409c.00194.012.00565.02486.01111.03844h.19217v-.0261c-.01164-.00528-.02028-.01216-.0261-.02045-.00581-.0081-.00934-.0238-.01057-.04707-.0007-.0305-.00124-.05659-.00124-.0781v-.30976c0-.08145-.02873-.1368-.08603-.16625-.05748-.02926-.12324-.0439-.1971-.0439-.11372 0-.19393.02962-.24048.08921-.02944.03808-.04601.08656-.04971.14562h.17048c.00405-.02609.01234-.04672.02486-.06188.01727-.0208.0469-.03103.0885-.03103.0372 0 .0654.0053.08462.0157.01922.01057.02892.02979.02892.05747 0 .02274-.0127.03931-.0379.05007-.01394.00634-.03738.01146-.07.01551zm.00934-.28262zm.97706.05677c-.04443-.03667-.10155-.05483-.17137-.05483-.0557 0-.1019.01358-.13821.0409-.02028.01517-.04179.0402-.06453.07493v-.09855h-.1703v.67435h.17594v-.36565c0-.04178.00582-.07598.01746-.10296.0222-.05077.06329-.07616.12323-.07616.04883 0 .0818.01728.09926.052.00952.01905.01428.04638.01428.08181v.41096h.18088v-.45486c0-.0848-.02221-.14544-.06664-.18194zm-.23642-.05677zm.82438.02892c-.03191-.01799-.06823-.02698-.10913-.02698-.08886 0-.15973.03297-.21297.09908-.05307.06612-.07951.15691-.07951.27221 0 .09996.02697.18177.08074.24576.05395.06382.12042.09573.1994.09573.04795 0 .08797-.00916.12023-.02732.03227-.01816.06083-.04725.08604-.08745v.09362h.17172v-.91236h-.17913v.32228c-.01974-.03173-.04566-.0566-.0774-.07457zm.04337.4813c-.0261.03702-.064.0557-.11407.0557s-.08727-.01868-.11195-.05606c-.0245-.03737-.03684-.08727-.03684-.14968 0-.05782.01216-.1063.03631-.14544.02416-.03897.06206-.05854.11372-.05854.03385 0 .06364.01076.0892.03227.04179.03543.0626.09467.0626.17718 0 .05924-.01306.10737-.03897.14457zm.76796-.51022c-.05377.12394-.08057.2463-.08057.36688 0 .10455.02063.20857.06188.31188.03509.08885.08621.17912.1532.2708h.10473l-.0379-.06947c-.05201-.09573-.08815-.19604-.10843-.30059-.01322-.06805-.01974-.14263-.01974-.22372 0-.12553.0171-.23924.0513-.3408.0208-.06082.05977-.14368.11724-.24857l-.10173-.00124-.0439.06065c-.03437.0476-.06646.1056-.09608.17418zm.53366.41166h-.1823c0 .09503.03403.1696.10226.2239.06823.05448.16184.08163.28085.08163.11653 0 .20662-.02768.27044-.08286.06382-.055.09573-.12447.09573-.20786 0-.08145-.02715-.14368-.0818-.18652-.03508-.02768-.0871-.0499-.1562-.0663l-.15744-.0379c-.06065-.01445-.10031-.02697-.119-.03772-.02891-.01622-.04337-.04055-.04337-.07317 0-.03561.0148-.06329.04407-.08304.02927-.01992.06858-.0298.11777-.0298.04425 0 .08128.00759.1109.02293.0446.0231.06858.06223.07193.11706h.18352c-.00335-.09696-.03896-.17101-.10701-.22214-.06788-.05095-.15003-.07651-.2463-.07651-.1153 0-.20274.02697-.26215.0811-.05959.0543-.08938.12217-.08938.20398 0 .08973.03085.15567.09238.1978.0365.02522.10208.04849.1971.07l.09679.02168c.0566.01234.09802.02662.12447.04284.02644.0164.03967.03985.03967.07 0 .05165-.02663.0869-.07987.10595-.0282.00987-.0647.0148-.10966.0148-.07528 0-.12834-.01868-.15937-.0564-.01693-.02063-.02839-.05184-.03403-.09345zm.1853-.65953zm1.18684.02785h-.73993v.16184h.2745v.75175h.19217v-.75175h.27326zm.69586.69356c-.04443.0559-.10455.08375-.18018.08375s-.13593-.02786-.18088-.08375c-.04513-.0557-.0677-.13504-.0677-.238 0-.10278.02257-.18212.0677-.238.04495-.05572.10525-.08375.18088-.08375.07563 0 .13575.02803.18018.0841.04425.05588.06647.13522.06647.23765 0 .10296-.02222.1823-.06647.238zm.11918.13893c.0922-.08727.13822-.2128.13822-.37693 0-.1673-.04602-.29301-.13822-.37675-.06893-.07123-.16872-.10666-.29936-.10666-.13046 0-.23025.03543-.29936.10666-.09255.08374-.13874.20944-.13874.37675 0 .16414.04619.28966.13874.37693.06911.07105.1689.10648.29936.10648.13064 0 .23043-.03543.29936-.10648zm-.29936-.86034zm1.06027.21684c.02503.02028.03738.05413.03738.10173 0 .04742-.01235.08216-.03738.1042-.02503.02185-.06012.03278-.10507.03278h-.1779v-.26903h.1779c.04495 0 .08004.01023.10507.03032zm.14474.32916c.05448-.0446.0818-.12077.0818-.22866 0-.09873-.02732-.17172-.0818-.2188-.05465-.04707-.12781-.07069-.2195-.07069h-.3979v.91359h.1897v-.32845h.19393c.1012 0 .17912-.02239.23377-.067zm.66624-.4226c-.0855.08622-.12835.20927-.12835.36865 0 .14756.03756.26374.11284.34837.07528.08427.17859.1264.30993.1264.10613 0 .19323-.0312.26128-.09361.06787-.06223.11019-.14333.12676-.24294h-.18917c-.0127.04707-.02892.0825-.0483.10595-.0351.0439-.08622.06576-.15304.06576-.0654 0-.11918-.02556-.16149-.07651-.04231-.05113-.06347-.12782-.06347-.23025 0-.10243.01993-.18176.06012-.23765.04002-.05606.09485-.0841.16414-.0841.06823 0 .1197.01993.15444.0596.01939.0222.03526.05535.0476.09907h.19093c-.00282-.05694-.02398-.1137-.06311-.17048-.07123-.10066-.18353-.15109-.33727-.15109-.11477 0-.20944.03756-.28384.11284zm.2782-.1234zm1.13396.72141c-.04442.0559-.10437.08375-.18.08375-.07563 0-.13593-.02786-.18106-.08375-.04496-.0557-.06752-.13504-.06752-.238 0-.10278.02256-.18212.06752-.238.04513-.05572.10543-.08375.18106-.08375s.13558.02803.18.0841c.04443.05588.06664.13522.06664.23765 0 .10296-.0222.1823-.06664.238zm.11936.13893c.0922-.08727.13822-.2128.13822-.37693 0-.1673-.04602-.29301-.13822-.37675-.06893-.07123-.16872-.10666-.29936-.10666s-.23042.03543-.29936.10666c-.09255.08374-.13892.20944-.13892.37675 0 .16414.04637.28966.13892.37693.06894.07105.16872.10648.29936.10648s.23043-.03543.29936-.10648zm-.29936-.86034zm1.1181.02785l-.2001.69356-.19834-.69356h-.20398l.3087.91359h.18035l.3117-.91359zm.48658.91359v-.91359h-.1897v.91359zm-.09485-.93157zm.45803.17665h.17613c.08673 0 .14456.02486.17383.07475.02909.04972.04372.12112.04372.21403 0 .06735-.00987.12553-.02927.17418-.03543.08886-.09837.13329-.18828.13329h-.17613zm.3496-.13875c-.03755-.01251-.0848-.01904-.14139-.01992h-.3935v.91359h.3935c.13804 0 .24012-.05677.30623-.17048.04884-.08428.07317-.18706.07317-.30853 0-.04795-.00582-.09838-.01745-.15127-.01146-.05289-.03315-.10207-.06506-.14756-.03967-.05624-.0915-.09485-.1555-.11583zm.57756.21068c-.03261-.07598-.08021-.15779-.14315-.2454h-.13329l.0379.06928c.05202.09555.08816.19551.10843.30006.01323.06858.01993.14333.01993.22443 0 .1264-.01852.24276-.05519.3489-.0215.06276-.05959.14333-.11406.2417h.13081l.0439-.06011c.02856-.03632.05889-.09045.09115-.16238.05747-.12852.0862-.25493.0862-.3794 0-.11318-.02414-.22548-.07263-.33708z"/></svg>