<svg xmlns="http://www.w3.org/2000/svg" role="img" viewBox="-20.00 -18.00 936.00 729.50"><title>Poland (ProteGO) logo</title><path d="M182.718 656.40321q-4.6128 3.84962-13.17578 3.84961h-10.93845v18.89063h-10.90625v-52.53614h22.55762q7.80029 0 12.43847 4.06348 4.6377 4.06349 4.6377 12.58106 0 9.30321-4.61331 13.15136zm-8.37891-18.92578a8.84819 8.84819 0 0 0-5.84277-1.74609h-9.89258v15.46875h9.89258a8.38988 8.38988 0 0 0 5.84277-1.88867q2.08447-1.88965 2.08594-5.98829.00003-4.09863-2.08591-5.8457zm42.55667 1.9082q.19482.01758.87305.05274v10.40723q-.9624-.10693-1.71094-.14258-.74853-.03516-1.21191-.03614-6.13038 0-8.2334 3.99219-1.17627 2.2456-1.17578 6.91406v18.57032h-10.2295v-38.84961h9.69434v6.77148a21.47607 21.47607 0 0 1 4.09961-5.31054 11.15605 11.15605 0 0 1 7.41309-2.3877c.18945 0 .35058.00684.48144.01855zm39.22266 35.00489q-4.91748 6.07177-14.9336 6.07129-10.01513 0-14.93359-6.07129a24.10468 24.10468 0 0 1 0-29.18262q4.919-6.16113 14.93359-6.16211 10.01514 0 14.9336 6.16211a24.1009 24.1009 0 0 1 0 29.18262zm-8.126-5.61426q2.3877-3.167 2.3877-9.00391 0-5.8374-2.3877-8.98632a9.02672 9.02672 0 0 0-13.7041 0q-2.40528 3.1494-2.40527 8.98632 0 5.83595 2.40527 9.00391a8.996 8.996 0 0 0 13.7041 0zm16.32424-20.89063v-7.23535h5.417v-10.835h10.05078v10.835h6.3086v7.23535h-6.3086v20.5293q0 2.3877.60645 2.97656.605.58741 3.70605.58789.4629 0 .98047-.01757a25.92441 25.92441 0 0 0 1.01563-.05469v7.5918l-4.81153.17871q-7.1997.249-9.83691-2.49512-1.71094-1.74609-1.71094-5.38184v-23.915zm53.61426-6.80463a15.79947 15.79947 0 0 1 6.71386 5.74707 19.0871 19.0871 0 0 1 3.09473 8.03125 49.67644 49.67644 0 0 1 .335 7.71h-28.29496q.2373 5.84619 4.0625 8.19726a10.31842 10.31842 0 0 0 5.60059 1.46192 7.89078 7.89078 0 0 0 7.73144-4.45508h10.37012a12.68134 12.68134 0 0 1-3.76563 7.02148q-5.21923 5.66748-14.61523 5.667a21.18173 21.18173 0 0 1-13.68457-4.7793q-5.92823-4.78125-5.92774-15.55469 0-10.09276 5.35157-15.48047 5.35107-5.38768 13.89258-5.38672a22.1102 22.1102 0 0 1 9.13574 1.82028zm-15.19532 8.77539a10.5401 10.5401 0 0 0-2.70605 6.01269h17.5a8.47808 8.47808 0 0 0-2.706-6.13867 8.9069 8.9069 0 0 0-6.02442-2.09473 8.05235 8.05235 0 0 0-6.06353 2.22066zm66.61622-6.85357a10.28549 10.28549 0 0 0-6.09473-7.52051 14.96658 14.96658 0 0 0-6.02344-1.17675 13.09255 13.09255 0 0 0-10.4248 4.78515q-4.08106 4.78419-4.08106 14.38867 0 9.67677 4.41992 13.69532a14.5251 14.5251 0 0 0 10.05079 4.01953 13.03236 13.03236 0 0 0 9.05273-3.16895 13.67967 13.67967 0 0 0 4.34863-8.30761h-12.15429v-8.76758h21.88378v28.19336h-7.2705l-1.10547-6.5586a25.132 25.132 0 0 1-5.70215 5.252 20.13642 20.13642 0 0 1-10.69238 2.66015 22.223 22.223 0 0 1-17.1084-7.23047q-6.94922-7.26562-6.9502-19.875 0-12.75 7.02149-20.44531 7.021-7.69335 18.56933-7.69336 10.01514 0 16.09278 5.0791a18.8883 18.8883 0 0 1 6.96777 12.6709zm61.90918 31.47071q-5.95312 6.13184-17.21485 6.13085-11.26319 0-17.21484-6.13085-7.9834-7.519-7.9834-21.66993 0-14.43456 7.9834-21.66992 5.95166-6.12891 17.21484-6.12988 11.26171 0 17.21485 6.12988 7.94823 7.23633 7.94824 21.66992 0 14.1504-7.94824 21.66993zm-6.86036-7.9834q3.83056-4.812 3.83106-13.68653 0-8.83885-3.83106-13.668a12.52291 12.52291 0 0 0-10.35449-4.83007 12.68936 12.68936 0 0 0-10.40722 4.8125q-3.88478 4.81055-3.88477 13.68554 0 8.8755 3.88477 13.68653a12.68858 12.68858 0 0 0 10.40722 4.81152 12.53991 12.53991 0 0 0 10.35449-4.81149zm45.2461-26.62403a76.41487 76.41487 0 0 1 8.2334-14.11425h7.66308l-2.1748 3.99218a59.45882 59.45882 0 0 0-6.23731 17.251 68.19791 68.19791 0 0 0-1.13965 12.90137 60.94843 60.94843 0 0 0 3.17188 20.0664 91.45766 91.45766 0 0 0 6.55766 13.8994h-7.52051l-2.53027-3.457a46.30639 46.30639 0 0 1-5.23926-9.33789 53.17835 53.17835 0 0 1-4.9541-21.8125 48.38265 48.38265 0 0 1 4.16988-19.38871zm57.79492 16.53711q-4.6128 3.84962-13.17481 3.84961h-10.93847v18.89063h-10.90625v-52.53614h22.55664q7.80028 0 12.43848 4.06348 4.63769 4.06349 4.63769 12.58106 0 9.30321-4.61328 13.15136zm-8.37793-18.92578a8.85 8.85 0 0 0-5.84277-1.74609h-9.89258v15.46875h9.89262a8.39155 8.39155 0 0 0 5.84277-1.88867q2.08448-1.88965 2.085-5.98829-.00008-4.09863-2.08504-5.8457zm53.37305 36.91309q-4.91895 6.07177-14.9336 6.07129-10.01659 0-14.93359-6.07129a24.10086 24.10086 0 0 1 0-29.18262q4.91748-6.16113 14.93359-6.16211 10.01514 0 14.9336 6.16211a24.1009 24.1009 0 0 1 0 29.18262zm-8.126-5.61426q2.38623-3.167 2.3877-9.00391 0-5.8374-2.3877-8.98632a9.02672 9.02672 0 0 0-13.7041 0q-2.40674 3.1494-2.40625 8.98632 0 5.83595 2.40625 9.00391a8.996 8.996 0 0 0 13.7041 0zm30.68654 10.36719H584.8401v-52.53614h10.15722zm25.2959-23.63086a16.11861 16.11861 0 0 0 4.05762-.89063 3.05522 3.05522 0 0 0 2.18945-2.88672 3.41256 3.41256 0 0 0-1.67969-3.29687 10.61072 10.61072 0 0 0-4.93164-.90918q-3.64891 0-5.166 1.78223a7.34139 7.34139 0 0 0-1.44531 3.56445h-9.80176a14.86567 14.86567 0 0 1 2.86426-8.37695q4.04444-5.13135 13.88867-5.13184a24.77076 24.77076 0 0 1 11.38281 2.53027q4.97607 2.53125 4.97559 9.55274v17.82031q0 1.85449.07129 4.49023a5.638 5.638 0 0 0 .60546 2.709 3.64024 3.64024 0 0 0 1.49707 1.17578v1.49805h-11.04883a11.38186 11.38186 0 0 1-.64161-2.21094q-.17871-1.03125-.28515-2.35156a20.95987 20.95987 0 0 1-4.875 3.88476 14.73 14.73 0 0 1-7.457 1.88867 12.86417 12.86417 0 0 1-8.76465-3.01171q-3.46-3.01173-3.46-8.53516 0-7.16455 5.56543-10.37207a24.84862 24.84862 0 0 1 8.97656-2.49512zm6.21094 4.74023a11.27113 11.27113 0 0 1-1.96875.98047 16.70648 16.70648 0 0 1-2.72754.69531l-2.3125.42774a15.21705 15.21705 0 0 0-4.66894 1.38965 4.63937 4.63937 0 0 0-2.39942 4.3125 4.50556 4.50556 0 0 0 1.46582 3.76074 5.57341 5.57341 0 0 0 3.56445 1.1582 10.6155 10.6155 0 0 0 6.13379-1.92578q2.80518-1.92335 2.91309-7.02051zm50.32422-17.73144q3.81591 3.15381 3.81543 10.46093v26.16114h-10.40723v-23.63086a10.86614 10.86614 0 0 0-.81348-4.70508q-1.48681-2.99414-5.66113-2.99316-5.12988 0-7.041 4.38378a15.16348 15.16348 0 0 0-.99024 5.916v21.0293h-10.1582v-38.7783h9.83691v5.667a17.227 17.227 0 0 1 3.69141-4.3125 12.78968 12.78968 0 0 1 7.915-2.35254 14.89268 14.89268 0 0 1 9.81253 3.15429zm33.8623-1.6045a12.35172 12.35172 0 0 1 4.45508 4.29493V626.6786h10.29981v52.46485h-9.87207v-5.38282a14.32887 14.32887 0 0 1-4.95411 5.0254 13.908 13.908 0 0 1-6.915 1.56835 14.43724 14.43724 0 0 1-11.459-5.50585q-4.65089-5.50782-4.65039-14.13282 0-9.94335 4.5791-15.64648a14.90277 14.90277 0 0 1 12.24317-5.70215 12.53676 12.53676 0 0 1 6.27341 1.5498zm2.49414 27.67579a14.17064 14.17064 0 0 0 2.2461-8.30469q0-7.12792-3.60059-10.19336a7.75328 7.75328 0 0 0-5.13183-1.85352 7.1326 7.1326 0 0 0-6.54 3.36914 18.1605 18.1605 0 0 0 .03515 16.96485 7.17532 7.17532 0 0 0 6.4336 3.22558 7.49891 7.49891 0 0 0 6.55757-3.208zm33.5459-28.72657a48.4558 48.4558 0 0 1 4.16309 19.38868 53.25749 53.25749 0 0 1-4.94531 21.8125 46.39325 46.39325 0 0 1-5.23047 9.33789l-2.52637 3.457h-7.50684a91.70858 91.70858 0 0 0 6.53418-13.89942 61.18026 61.18026 0 0 0 3.16016-20.0664 68.45262 68.45262 0 0 0-1.13574-12.90137 59.57618 59.57618 0 0 0-6.21485-17.251l-2.166-3.99218h7.64943a76.49462 76.49462 0 0 1 8.21872 14.1143z"/><path fill="#fff" d="M-1.934.321h900v562.5h-900z"/><path fill="#dc143c" d="M-1.934 281.571h900v281.25h-900z"/></svg>