<svg xmlns="http://www.w3.org/2000/svg" role="img" viewBox="57.48 19.23 286.78 162.53"><title>RareCamp logo</title><path fill="#000" fill-opacity="1" stroke="none" stroke-width=".1" d="M133 56.5V88h7V64h14.6l5 12 4.9 12h3.8c2 0 3.7-.1 3.7-.3 0-.2-2.5-6-5.5-13L161 61.9l3.7-3.2c2-1.7 4.2-4.6 4.9-6.4 1.9-4.5 1.7-12.1-.5-16.9-3.5-7.8-10-10.4-25.8-10.4l-10.25312.1875zm27.1-21.7c2.5 2.3 3.3 3.8 3.6 7.8 1 10.1-4 14.4-16.7 14.4h-7V32h8.5c7.9 0 8.7.2 11.6 2.8z"/><path fill="#000" fill-opacity="1" stroke="none" stroke-width=".1" d="M189.4 55c-5.7 16.5-10.5 31.81111-10.9 32.71111 2.76389-.11944 3.71111.11111 6.81111-.18889C186.51111 84.44444 185.5 87.4 188.1 80l2.6-7.5h23.8l2.4 7.7c2.4 7.8 1.41312 4.83695 2.32778 7.45278 3.69243-.0231 3.02419-.14988 6.76389-.0667C223.41192 79.26655 221.5 72.5 215.8 55.9c-10.3-30.2-8.35555-23.80278-10.8-30.90833L199.6 24.9zm23.325 10.68611c.1.5-4.825.31389-10.025.31389-6.3 0-2.65583-.12998-9.70833-.12778 2.60027-8.05335 8.09444-25.91111 9.39444-29.01111.5-1.2 9.06667 24.38333 10.33889 28.825z"/><path fill="#000" fill-opacity="1" stroke="none" stroke-width=".1" d="M236 56.4V88h7V64h14.5l4.9 12 4.8 12h4c2.1 0 3.7-.3 3.5-.8-.3-.4-2.8-6.2-5.6-13L264 62l3.4-3.1c6.9-6 8.5-18 3.4-25.5-4.2-6.2-8.7-7.8-22.5-8.2l-12.20624.1625zm25.1-22.8c5.3 2.7 7.3 10.6 4.3 16.9-2.1 4.6-6.6 6.5-15.3 6.5H243V32h7.5c4.9 0 8.7.6 10.6 1.6z"/><path fill="#000" fill-opacity="1" stroke="none" stroke-width=".1" d="M287 56.5V88h35v-7h-28V59h22v-7h-22V32h28v-7h-35z"/><path fill="#f35e5e" fill-opacity="1" stroke="none" stroke-width=".1" d="M64 28.4c-1.8 2.2-.3 11.6 3.1 18.6 1.8 3.8 5.2 8.3 9.4 12.4l6.5 6.5-5.5 5.2c-10.7 10.1-15.3 20.8-14.1 33.3.9 10.1 4.9 18 13 26l6.6 6.5-5.5 5.2c-6.7 6.3-10.8 12.7-12.9 19.8-2.1 7.3-2.1 11.8.2 13 2.3 1.2 5.2-.4 5.2-2.9 0-1.9.8-2 18.9-2 18.9 0 19 0 19.3 2.2.4 2.8 3.7 3.6 5.3 1.4 1.7-2.3 0-11.8-3.2-18.5-1.4-2.9-5.5-8.3-9-11.9l-6.3-6.5 6.3-6.6c10.6-11 14.5-21.8 12.6-34.6-1.4-8.6-5.2-15.8-12.5-23.3L95 65.7l6.8-7.1c7.6-8 10.7-13.8 12.1-22.3 1-6.8.1-9.6-3.2-9.1-1.6.2-2.3 1.1-2.5 3l-.3 2.8h-19C71.4 33 70 32.9 70 31.2c0-3.7-3.7-5.4-6-2.8zm43 9c0 .1-.5 1.7-1.1 3.5l-1.1 3.1H73l-1-2.6c-.6-1.4-1-3-1-3.5s7.5-.9 18-.9c9.9 0 18 .2 18 .4zm-7.4 13.9c-2.5 3.3-9.9 9.7-11.1 9.7-1 0-12.5-11.2-12.5-12.2 0-.4 5.9-.8 13.1-.8h13zM96 76.4l4.4 4.6H89.2C83 81 78 80.7 78 80.2c0-.4 2.3-2.8 5.2-5.4 6-5.2 6.1-5.2 12.8 1.6zm8.4 11c.9 1.9 1.6 3.9 1.6 4.5 0 .8-5.5 1.1-17.5 1.1-9.6 0-17.5-.2-17.5-.5s.9-2.4 2-4.5l2-4h27.8zm3.2 12c.3 1.9.3 3.9-.1 4.5-.4.7-7.1 1.1-19.1 1.1H70v-9h36.9zm-.6 9.1c0 .2-.7 2.3-1.6 4.5l-1.6 4H73.9l-1.5-3.5c-.7-1.9-1.4-3.9-1.4-4.5 0-.6 6.3-1 18-1 9.9 0 18 .2 18 .5zm-7.6 13.9c-.8 1.4-3.5 4.1-6 6.1-5.1 4.2-5.5 4.1-12.9-3.4l-4.9-5.1H101zM97 148.7l5.5 5.8-7.3.3c-4 .2-10.3.2-14 0l-6.7-.3 6.9-6.7c7.9-7.8 7.5-7.8 15.6.9zm8.6 12.8c.7 1.9 1.4 3.7 1.4 4 0 .3-8.1.5-18 .5-19.5 0-19.3.1-16.8-5.5l1.1-2.5h30.8z"/><path fill="#000" fill-opacity="1" stroke="none" stroke-width=".1" d="M145.8 113.6c-6.1 1.9-11.3 7.8-12.7 14.6-1.4 6.4-1.4 27.7 0 33.3 1.4 5.6 6.9 12 11.7 13.6 6.6 2.2 14.5 1.5 20.4-1.8 2.8-1.7 5.3-3.4 5.5-3.9.1-.5-.9-1.7-2.2-2.7-2.4-1.7-2.6-1.7-5.5.5-2.5 1.8-4.56944 2.99444-9.56944 2.99444-5.7 0-6.63056-.99444-9.33056-3.59444-4.2-4.1-5.1-8-5.1-23 0-15.4 1.6-20.2 7.7-23.1 4.6-2.2 12.4-1.6 16.3 1.3l2.8 2.1 1.8-2.6c1.6-2.6 1.6-2.7-.9-4.9-2.4-2-9.49661-4.32074-13.59722-4.3-4.10061.0207-4.70278.7-7.30278 1.5z"/><path fill="#000" fill-opacity="1" stroke="none" stroke-width=".1" d="M189.2 143c-5.7 16.5-10.5 31.81111-10.9 32.71111 2.76389-.11944 3.71111.11111 6.81111-.18889 1.2-3.07778.18889-.12222 2.78889-7.52222l2.6-7.5h23.8l2.4 7.7c2.4 7.8 1.41312 4.83695 2.32778 7.45278 3.69243-.0231 3.02419-.14988 6.76389-.0667C223.21192 167.26655 221.3 160.5 215.6 143.9c-10.3-30.2-8.35555-23.80278-10.8-30.90833l-5.4-.09167zm23.325 10.68611c.1.5-4.825.31389-10.025.31389-6.3 0-2.65583-.12998-9.70833-.12778 2.60027-8.05335 8.09444-25.91111 9.39444-29.01111.5-1.2 9.06667 24.38333 10.33889 28.825z"/><path fill="#000" fill-opacity="1" stroke="none" stroke-width=".1" d="M235 144.5V176h7l.2-23.3.3-23.2 7.8 15.2c3.8 7.5 6.34119 12.09277 8.27941 15.04277 4.04972.0528 2.53927-.0322 6.0523.0261 2.277-4.49014.06829-.06887 7.56829-15.06887l7.7-15.2v23.2l.1 23.3h7v-63s-1.0176-.0563-5.23247-.0246C280.03244 115.68345 280.7 113.9 271.3 132c-5.4 10.4-10 19-10.3 19-.3 0-4.8-8.6-10-19-9.4-18.9-7.52082-15.22934-9.59747-19.05157C237.4599 113.05456 235 113 235 113z"/><path fill="#000" fill-opacity="1" stroke="none" stroke-width=".1" d="M301 144.4V176h7v-22h5c17.6 0 26.5-7.7 25.8-22.2-.3-5.7-.8-7.3-3.4-10.5-5-6.3-9.1-7.7-22.6-8.1l-11.76685.13033zm25-22.7c4.4 2.6 6.4 7.1 5.8 13.2-.8 8.6-5.9 12.1-17.3 12.1H308v-27h7.6c5.3 0 8.4.5 10.4 1.7z"/></svg>