<svg xmlns="http://www.w3.org/2000/svg" role="img" viewBox="-3.62 -3.62 188.11 39.11"><title>SaferMe logo</title><path d="M43.69997 24c0-2.42051-1.83556-3.28205-5.22115-4.4718-4.2014-1.47692-8.93307-3.77435-8.93307-9.10769 0-4.06154 3.58954-8.12307 9.34097-8.12307 5.95538 0 9.30018 4.55384 9.30018 4.55384l-3.3856 3.3641s-2.36583-3.24102-5.91458-3.24102c-2.44742 0-4.36456 1.51795-4.36456 3.44615 0 2.50257 2.24347 3.28205 6.15933 4.75898 4.36456 1.64102 7.9949 3.61025 7.9949 8.82051s-4.56852 8-9.95283 8c-7.1383 0-10.44231-5.86667-10.44231-5.86667l3.67112-3.11795s2.44742 4.3077 6.77119 4.3077c2.44741 0 4.97641-.98462 4.97641-3.32308zm23.37282-11.93846h4.52772v19.44615H67.0728V28.9641S65.4004 32 61.2398 32c-5.0172 0-9.42256-4.22564-9.42256-10.21538 0-5.98975 4.40535-10.21539 9.42255-10.21539 4.03824 0 5.83301 3.0359 5.83301 3.0359v-2.5436zm-.36711 12.6359v-5.82565s-1.42766-2.70769-4.56851-2.70769c-3.30401 0-5.34353 2.42052-5.34353 5.62052s2.03952 5.6205 5.34353 5.6205c3.14085 0 4.5685-2.70768 4.5685-2.70768zm7.9949-8.20513v-4.43077h3.83428V7.30256C78.53486 1.88718 82.32835 0 85.4692 0c2.69216 0 4.28298 1.02564 4.28298 1.02564l-1.83556 4.1436s-.73423-.57437-1.95794-.57437c-.93817 0-2.529.53334-2.529 2.95385v4.51282h4.73168v4.43077h-4.73167v15.01538h-4.89483V16.49231h-3.83429zm25.33074-4.92308c5.30274 0 9.74888 4.1436 9.74888 10.13333 0 .36923 0 1.1077-.0408 1.84616H95.29966c.36712 1.72307 2.36584 3.93846 5.42511 3.93846 3.3856 0 5.30273-1.96923 5.30273-1.96923l2.44742 3.6923S105.41564 32 100.72476 32c-5.8738 0-10.40152-4.51282-10.40152-10.21538 0-5.70257 4.11982-10.21539 9.70808-10.21539zm-4.73167 8.41026h9.58572c-.08158-1.68205-1.63161-3.93846-4.85404-3.93846-3.14086 0-4.56851 2.21538-4.73168 3.93846zm27.98213-8.41026c1.75398 0 3.3448.61539 3.3448.61539l-1.7132 4.43076s-.89738-.45128-2.32504-.45128c-2.97769 0-4.32377 2.62564-4.32377 2.62564V31.5077h-4.89483V12.06154h4.6501v2.83077s1.6724-3.32308 5.26194-3.32308zm6.44486-8.77949h4.52772l9.30018 14.44103 9.30018-14.44103h4.52772V31.5077h-4.89483V12.22564l-8.93307 13.66154-8.93307-13.66154V31.5077h-4.89483V2.78974zm41.52449 8.7795c5.30273 0 9.74887 4.14358 9.74887 10.13332 0 .36923 0 1.1077-.04079 1.84616h-14.43975c.3671 1.72307 2.36583 3.93846 5.4251 3.93846 3.3856 0 5.30274-1.96923 5.30274-1.96923l2.44741 3.6923S176.63544 32 171.94456 32c-5.8738 0-10.40152-4.51282-10.40152-10.21538 0-5.70257 4.11982-10.21539 9.70809-10.21539zm-4.73167 8.41025h9.5857c-.08157-1.68205-1.6316-3.93846-4.85403-3.93846-3.14085 0-4.56851 2.21538-4.73167 3.93846zM2.8949 4.82217C6.75436.90377 13.0091.90106 16.87121 4.82215l.03077.03125c3.85944 3.91838 3.86028 10.27048-.00002 14.18974l-6.98815 7.09488-7.01892-7.12611C-.96455 15.09353-.96539 8.74143 2.89491 4.82217zm7.00353 11.12395c2.18803 0 3.96179-1.79689 3.96179-4.01347 0-2.21657-1.77376-4.01346-3.9618-4.01346-2.18803 0-3.96178 1.79689-3.96178 4.01346 0 2.21658 1.77375 4.01347 3.96179 4.01347zm0 16.05388c-1.09402 0-1.9809-.89845-1.9809-2.00673 0-1.1083.88688-2.00674 1.9809-2.00674s1.9809.89845 1.9809 2.00674c0 1.10828-.88688 2.00673-1.9809 2.00673z" fill-rule="nonzero" fill="currentColor"/></svg>