<svg xmlns="http://www.w3.org/2000/svg" role="img" viewBox="-11.80 -12.80 1601.60 424.60"><title>Sara Alert logo</title><defs><style>.cls-1{fill:#72c06d}.cls-2{fill:#fefefe}.cls-3{fill:#72a475}.cls-4{fill:#f6ba19}.cls-5{fill:#fad648}</style></defs><path d="M206.90536 315.43091c-1.71191 22.44949-11.54989 35.70485-27.44945 44.97461-20.77473 12.11209-43.9 15.79863-67.35059 17.33866-28.24974 1.85518-56.4805.29969-84.67406-2.06659-6.72566-.56452-9.37777-1.511-5.63244-9.12534 9.86563-20.05689 9.47926-19.94733 31.68407-17.88309 28.52409 2.65174 57.11369 4.50194 85.66254.28376 24.98335-3.69142 48.55514-10.67092 67.75993-33.52201z" class="cls-1"/><path d="M86.01775 379.64735c-20.75 0-40.85159-1.38826-58.67718-2.884-3.58821-.30159-6.65462-.72179-7.84235-2.8212-.95583-1.68826-.56009-4.04245 1.32284-7.87054l.41169-.83668c9.621-19.5713 9.91782-19.73831 31.89544-17.69315l.45584.04255c25.94506 2.41323 56.0815 4.62222 85.40254.291 23.26322-3.43715 47.49131-9.83166 67.08494-33.14541l2.1776-2.59089-.25744 3.37491c-1.6074 21.07392-10.50025 35.6379-27.98756 45.83231-22.19356 12.94009-46.74186 16.10064-67.82747 17.48518-8.7519.57443-17.51284.81592-26.15889.81592zM40.712 348.86039c-3.08662 0-5.29986.3702-7.08492 1.36007-3.55363 1.97069-5.85463 6.65089-10.43908 15.97564l-.4117.83722c-1.4457 2.93875-1.91058 4.90253-1.38241 5.836.59786 1.05636 2.78823 1.44252 6.12857 1.72283 25.17274 2.11218 54.90015 4.01 84.51161 2.06484 20.83243-1.36752 45.069-4.4802 66.87271-17.19263 16.098-9.38486 24.39564-22.04357 26.58866-40.75532-19.641 21.77018-43.37864 27.95086-66.19081 31.32152-29.55986 4.36691-59.85109 2.14729-85.92275-.27712l-.4553-.042c-5.22272-.48564-9.14921-.85105-12.21458-.85105z" class="cls-2"/><path d="M274.59423 241.34c20.77988-10.252 38.68886-7.58776 55.84926 3.2485 16.6487 10.51313 29.27007 25.16521 40.61631 40.93715 18.3172 25.46185 32.2492 53.37635 45.50474 81.68717 3.27521 6.995 1.782 8.63232-5.64508 9.04-21.6719 1.18972-21.66527 1.48058-30.83426-18.82548-9.18554-20.34263-19.047-40.37134-31.62846-58.836-18.03592-26.46961-38.18668-50.62671-73.86251-57.25134z" class="cls-1"/><path d="M400.36322 377.76442c-12.01458 0-13.76719-3.27013-21.27125-19.88884-8.20032-18.16123-18.35962-39.33408-31.53534-58.6708-17.05487-25.0302-36.75276-50.03326-73.16138-56.79372l-3.22172-.59839 2.93875-1.45c19.79363-9.76411 37.87879-8.71467 56.91234 3.3047 18.29526 11.55235 31.47842 28.09819 40.91913 41.22232 19.23407 26.736 33.62678 56.27352 45.60732 81.86115 1.851 3.95255 2.19994 6.24345 1.20529 7.90724-1.15795 1.93558-3.94671 2.47227-7.77746 2.68237l-.88455.04841c-3.87011.21333-7.05567.37556-9.73113.37556zM278.04409 240.93078c35.2012 7.812 55.24589 33.46773 71.31249 57.04743 13.2704 19.47449 23.48236 40.75372 31.72151 59.00058C389.813 376.324 389.8119 376.323 409.97414 375.214l.88561-.04893c3.61427-.1984 5.47326-.69945 6.027-1.62549.55-.91966.134-2.78344-1.309-5.86474-11.93852-25.4988-26.27751-54.92835-45.402-81.51276-9.32636-12.964-22.33665-29.30029-40.31384-40.65212-17.37404-10.97157-33.91991-12.45504-51.81782-4.57918z" class="cls-2"/><path d="M170.757 217.34782c-20.79778-12.93414-28.88555-34.59936-24.221-60.6636 5.818-32.50929 21.3415-60.8314 38.373-88.4204 8.77637-14.21668 18.50309-27.84767 28.88152-43.35917 5.83608 8.60681 11.01832 15.97367 15.89343 23.53812 3.13115 4.85843-1.6567 7.60618-3.84628 10.5244-16.55553 22.0648-32.04761 44.80035-43.99849 69.72108-9.371 19.54095-16.85607 39.63872-16.429 61.89715.16566 8.62968 1.84768 16.8519 5.34682 26.76242z" class="cls-1"/><path d="M172.8176 219.91218l-2.6361-1.63932c-20.7585-12.90977-29.537-34.85068-24.718-61.78083 5.52326-30.86195 19.39258-57.81922 38.51814-88.80032 5.994-9.70826 12.40765-19.11227 19.1979-29.06839 3.14725-4.61477 6.402-9.387 9.70559-14.32462l.89945-1.34412.90742 1.3388c1.78825 2.63663 3.5148 5.15731 5.18976 7.603 3.769 5.50145 7.32906 10.69812 10.7178 15.956 2.91588 4.52435-.09095 7.66895-2.28611 9.96463a21.18883 21.18883 0 0 0-1.60474 1.80368c-13.59911 18.12453-30.87685 42.40846-43.88715 69.53913-8.32106 17.35008-16.76711 38.21389-16.32191 61.40477.1601 8.37638 1.79038 16.52457 5.28443 26.42059zm40.97871-193.05983c-2.99992 4.469-5.9525 8.79871-8.81679 12.9986-6.77589 9.93484-13.17625 19.31917-19.14365 28.98541-18.99524 30.76887-32.76509 57.516-38.22772 88.03971-4.44137 24.82009 3.04088 45.22221 21.09519 57.815a80.53061 80.53061 0 0 1-4.38233-24.085c-.45371-23.64619 8.10458-44.80733 16.53574-62.38879 13.09274-27.30194 30.45026-51.69917 44.10948-69.904a22.91013 22.91013 0 0 1 1.77229-2.00154c2.49834-2.6127 3.88128-4.40627 2.02974-7.27907-3.37225-5.23231-6.92376-10.41621-10.68376-15.90543-1.39199-2.03191-2.81908-4.1159-4.28819-6.27489z" class="cls-2"/><path d="M201.65223 313.36132c-11.17118 15.2104-25.95982 22.39533-42.28683 26.74224-39.292 10.461-78.93394 7.11507-118.56155 2.27626-1.66092-.20278-3.74139.383-4.57824-2.07863-2.12465-6.24987 12.617-23.79479 19.356-23.076 38.854 4.14422 77.7378 8.29817 116.781 2.65812 9.41878-1.36064 18.63689-4.1081 29.28962-6.52199z" class="cls-3"/><path d="M102.13222 348.0652c-20.85371 0-41.48774-2.16537-61.46009-4.60414-.308-.03776-.6319-.04308-.95848-.05053-1.4372-.03351-3.60948-.08351-4.51957-2.759-1.55687-4.57967 4.07383-12.12628 5.83655-14.32994 3.993-4.99136 10.22261-10.662 14.66664-10.17952 38.19793 4.07383 77.62456 8.28116 116.50971 2.66323 6.31153-.91168 12.58158-2.46377 19.22024-4.10734 3.20576-.7936 6.52057-1.61432 9.98431-2.39888l2.84673-.64519-1.72761 2.35206c-9.93378 13.52518-23.16 21.89837-42.88505 27.15036-19.12183 5.09085-38.41016 6.90889-57.51338 6.90889zM55.21324 318.299c-2.93024 0-8.06415 3.8616-12.48106 9.38379-4.04883 5.06157-6.2493 9.99123-5.47539 12.26777.40265 1.18348 1.05955 1.24837 2.50685 1.28188.4.009.79573.02021 1.17231.066 38.05752 4.64669 78.52826 8.30138 118.149-2.24728 18.01389-4.79615 30.44122-12.23638 39.85108-23.94139-2.39036.56594-4.7153 1.14146-6.98545 1.70315-6.69238 1.65687-13.01349 3.22172-19.43194 4.14882-39.15536 5.65677-78.71974 1.4356-116.98363-2.6462a3.00864 3.00864 0 0 0-.32177-.01654z" class="cls-2"/><path d="M175.95645 216.21944c-9.71264-22.96924-6.26279-42.78869.56494-62.40409 12.52687-35.98845 34.05635-66.71341 57.64029-97.92208 4.97649 7.2819 9.40927 13.9 13.98482 20.41809 3.16971 4.51538-.915 6.83732-2.914 9.53447-16.63084 22.43871-32.85132 45.12627-46.5311 69.55042-10.23926 18.28132-18.5887 37.22294-22.74495 60.82319z" class="cls-3"/><path d="M176.38931 220.04037l-1.43613-3.39672c-10.36941-24.52276-5.54613-45.702.53935-63.18611 12.94221-37.18254 35.65066-68.91043 57.80008-98.22136l.9138-1.209.85477 1.251c1.51591 2.21856 2.9813 4.37542 4.41637 6.48653 3.28236 4.83126 6.38334 9.39444 9.56039 13.92038 3.018 4.29989.36275 7.15939-1.576 9.24763a19.533 19.533 0 0 0-1.35422 1.56166c-14.98525 20.21862-32.16884 43.92545-46.4557 69.43435-12.2401 21.85368-19.00588 39.941-22.62281 60.47926zm57.72774-162.28032c-21.75421 28.83541-43.90576 60.03885-56.56713 96.41343-5.94133 17.07083-10.20877 35.89267-1.96963 58.14368 4.88392-24.49084 14.3475-43.485 22.1707-57.45327 14.34962-25.62008 31.58108-49.39392 46.60675-69.66626a21.16114 21.16114 0 0 1 1.50794-1.7473c2.168-2.335 3.30151-3.78873 1.38933-6.51312-3.18715-4.53978-6.29239-9.10987-9.57954-13.948q-1.7433-2.56513-3.55842-5.22916z" class="cls-2"/><path d="M383.16029 376.09568c-1.3907 1.13586-1.62758 1.498-1.90421 1.5314-25.509 3.07911-25.47408 3.06189-35.77294-20.21017-13.57115-30.66626-28.253-60.70185-48.84318-87.48146-6.37111-8.28623-14.33936-14.96145-22.48761-23.10233 14.58568 1.14485 26.08953 6.90524 36.08446 15.30681 36.29619 30.50996 54.33695 72.54143 72.92348 113.95575z" class="cls-3"/><path d="M365.5503 380.12819c-11.06726 0-13.28422-4.6919-21.01381-22.159l-.04946-.11116c-12.94647-29.25456-27.80831-60.07343-48.711-87.25888-4.4568-5.79666-9.72847-10.81887-15.31023-16.13575-2.30686-2.19782-4.69243-4.4701-7.08333-6.8594l-2.08984-2.08771 2.94461.23085c13.50124 1.05954 25.50571 6.14877 36.70063 15.55863 35.25492 29.63486 53.59168 70.55347 71.32472 110.12477l2.23345 4.98125-.64679.52765c-.55849.45637-.925.78349-1.18188 1.01327a2.315 2.315 0 0 1-1.28029.75583 146.77617 146.77617 0 0 1-15.83678 1.41965zm-88.4264-131.89388c1.63453 1.593 3.25843 3.14034 4.84509 4.65147 5.644 5.377 10.97471 10.45558 15.5347 16.38574 21.042 27.36684 35.974 58.32613 48.97584 87.70461l.04893.11117c5.02168 11.347 7.54236 17.04264 11.69278 19.37928 4.14085 2.33079 10.36622 1.59251 22.726.10053.06968-.058.15478-.13776.26861-.23936.159-.142.358-.31967.61328-.53828l-1.55474-3.46746c-17.63252-39.34791-35.86555-80.03514-70.73857-109.3482-9.98006-8.38914-20.61116-13.2289-32.41192-14.7395zm103.73771 128.39875z" class="cls-2"/><path d="M230.76562 316.93219c24.32957 32.40917 56.51334 38.20938 91.18671 35.21592 10.2734-.887 15.98279.493 18.93375 10.70525 1.6084 5.56624 4.74348 10.69212 7.841 17.43335-29.7291.39325-57.606-1.25419-83.75667-13.391-20.03323-9.29758-31.69175-24.95778-34.20479-49.96352z" class="cls-4"/><path d="M341.55785 381.42549c-29.01679 0-53.56349-2.643-77.04585-13.54166-20.97711-9.73592-32.37043-26.36633-34.83047-50.84282l-.39041-3.88766 2.34568 3.12438c20.758 27.65194 48.5817 38.38038 90.2221 34.78526 10.60238-.91487 16.94051.64466 20.07394 11.48747a66.50728 66.50728 0 0 0 4.7786 11.09438c.9771 1.95208 1.98718 3.97118 3.00524 6.18708l.69945 1.52176-1.675.02234q-3.63656.04788-7.18328.04947zM232.323 320.70634c3.14034 21.78879 13.73475 36.21075 33.106 45.20094 24.57861 11.40768 50.445 13.62624 81.5952 13.31029-.76381-1.60528-1.52177-3.12066-2.26112-4.59775a68.06216 68.06216 0 0 1-4.92327-11.46406c-2.74727-9.50667-7.92479-10.77206-17.79368-9.92261-40.87659 3.53285-68.73543-6.52164-89.72313-32.52681z" class="cls-2"/><path d="M257.93645 218.07366c16.31726-37.137 5.18458-67.29821-14.18164-95.12675-7.11332-10.2216-7.14137-17.06231.86715-25.48677 3.27294-3.443 5.70106-7.6877 9.393-12.781 16.52418 28.76623 32.01594 56.46665 30.31388 89.93907-.90329 17.76428-9.19949 31.65546-26.39239 43.45545z" class="cls-4"/><path d="M255.40213 221.135l1.5372-3.49938c17.62613-40.116 1.73453-71.34334-14.07889-94.06615-7.56735-10.87471-7.30353-18.15431.97232-26.85993a61.14716 61.14716 0 0 0 5.95835-7.86894c1.03827-1.526 2.11218-3.10418 3.34193-4.80094l.98774-1.36326.83881 1.46007c15.83522 27.56736 32.20979 56.07352 30.45718 90.537-.92976 18.28144-9.46624 32.35766-26.86366 44.29884zm-1.48666-134.4422c-.82019 1.16487-1.58081 2.28239-2.32281 3.37332a62.64927 62.64927 0 0 1-6.18122 8.14447c-7.478 7.86681-7.678 14.17675-.76275 24.11426 15.6698 22.51643 31.40609 53.23158 15.77459 92.62469 14.70759-11.03907 21.98187-23.95628 22.818-40.3867 1.6888-33.21668-13.91611-61.03138-29.32581-87.87004z" class="cls-2"/><path d="M237.14807 317.17522c25.98617 11.3749 50.38989 10.91493 74.74938 6.92369 8.62666-1.41349 13.27557.285 15.78533 8.53285 1.36929 4.49979 5.23514 8.09079 5.2308 13.18737-40.60386 7.74181-72.39071-1.183-95.76551-28.64391z" class="cls-5"/><path d="M306.19388 349.60611c-28.79126.00107-51.80023-10.49015-69.87582-31.72523l-3.06375-3.59937 4.33021 1.89569c27.82214 12.17841 53.089 10.296 74.13688 6.84663 8.104-1.32709 14.0991-.25637 17.00328 9.29072a24.32777 24.32777 0 0 0 2.26536 4.76583c1.48294 2.62546 3.01588 5.34028 3.01269 8.73966l-.00106.90051-.884.16861a144.05435 144.05435 0 0 1-26.92379 2.71695zm-65.06956-29.60667c22.33239 23.90682 52.04863 32.06672 90.65613 24.92382-.23989-2.4377-1.43241-4.54935-2.68717-6.77163a26.29564 26.29564 0 0 1-2.45259-5.20306c-2.20207-7.236-5.877-9.19869-14.56717-7.77479-20.24788 3.31746-44.35522 5.20146-70.9492-5.17434z" class="cls-2"/><path fill="#fad547" d="M232.23272 113.85863c20.83923 29.54484 37.17432 58.33263 24.53708 95.75016-5.07523-4.64379-3.26279-10.31444-4.65115-14.90846a129.1325 129.1325 0 0 0-26.8729-48.15925c-7.46976-8.49561-7.49251-14.69531-.33029-22.404 2.48184-2.67117 4.28909-5.96808 7.31726-10.27845z"/><path d="M257.267 211.54059l-1.233-1.12816c-3.769-3.44885-4.06266-7.43757-4.32116-10.95716a20.85727 20.85727 0 0 0-.63669-4.44031 127.97846 127.97846 0 0 0-26.64823-47.7546c-7.76469-8.83062-7.85459-15.7448-.3101-23.8648a46.61162 46.61162 0 0 0 4.48658-6.10835c.82126-1.24571 1.70953-2.59248 2.73663-4.05468l.88987-1.26645.892 1.26486c20.43563 28.97264 37.70007 58.17134 24.67861 96.72618zm-25.02647-95.77781c-.65424.95955-1.25157 1.86591-1.817 2.72387a48.07674 48.07674 0 0 1-4.71 6.39185c-6.85248 7.37534-6.761 12.85605.35052 20.9436a130.1316 130.1316 0 0 1 27.09716 48.56256 22.74815 22.74815 0 0 1 .72445 4.911c.21436 2.91588.41861 5.69453 2.41962 8.22638 11.42632-36.17933-4.6722-64.12168-24.06477-91.75926z" class="cls-2"/><path d="M166.00932 239.44218c-40.24786 4.732-61.44553 29.63378-76.29422 61.10947-4.39951 9.326-8.46336 13.567-18.77441 10.98231-5.62007-1.40884-11.62722-1.27664-19.01171-1.98923 14.6099-25.8945 30.05231-49.16185 53.69321-65.66229 18.11056-12.6405 37.50937-14.84267 60.38713-4.44026z" class="cls-4"/><path d="M76.28183 313.36664a23.19716 23.19716 0 0 1-5.60623-.776 66.55982 66.55982 0 0 0-11.99543-1.44837c-2.1776-.13723-4.42967-.27872-6.8562-.51275l-1.667-.16117.82285-1.45847c15.82033-28.03916 31.06089-49.99709 54.01879-66.02061 18.9644-13.23529 39.06972-14.71982 61.46169-4.53871l3.55682 1.617-3.88075.45637c-34.33952 4.03766-57.60487 22.69409-75.43632 60.49256-3.67435 7.7891-7.34659 12.35015-14.41822 12.35015zm-22.57228-4.75573c1.77017.14681 3.46.25319 5.10785.35691a68.1202 68.1202 0 0 1 12.388 1.509c9.60028 2.40845 13.29912-1.43241 17.52454-10.39015 17.5038-37.10435 40.20161-56.13257 73.23372-61.1968-20.41117-8.24127-38.20538-6.33707-55.71822 5.88549-22.21966 15.50916-37.1581 36.75701-52.53589 63.83555z" class="cls-2"/><path d="M162.58972 244.83671c-22.89966 16.74142-34.77392 38.0664-43.57365 61.12892-3.11631 8.16736-6.92222 11.33158-15.31342 9.35336-4.578-1.07924-9.626.45646-14.02908-2.1102 13.72665-38.98959 37.42552-61.97697 72.91615-68.37208z" class="cls-5"/><path d="M108.01558 316.966a19.95992 19.95992 0 0 1-4.56318-.58668 24.2699 24.2699 0 0 0-5.25944-.43882c-3.01481-.03883-6.13175-.07872-9.06785-1.79091l-.77817-.45318.29893-.84945c14.11293-40.08618 38.2373-62.68346 73.75073-69.08276l4.65147-.83774-3.81533 2.78929c-24.518 17.92506-35.59587 40.71223-43.19939 60.6383-2.41856 6.3408-5.53018 10.61195-12.01777 10.61195zm-16.99849-4.286c2.2276 1.01805 4.65253 1.0489 7.20353 1.08188a26.3126 26.3126 0 0 1 5.73176.49733c7.3647 1.73453 10.9077-.45531 14.04591-8.68169 7.31364-19.16864 17.80858-40.95477 40.15054-58.724-31.89544 7.28116-53.8922 28.86411-67.13174 65.82648z" class="cls-2"/><path d="M1528.06367 152.33167c.90194 5.01594 1.00258 10.24691-7.92013 9.02225-6.33992-.87017-13.78567 2.86909-14.17976-9.379-1.19185-37.03286-15.0574-69.55492-40.14278-96.68663-8.944-9.67365.38044-12.12946 4.191-17.27712 5.48374-7.408 8.50267-1.24215 11.7476 2.20085 26.46647 28.08217 44.91396 72.45423 46.30407 112.11965z" class="cls-4"/><path d="M1481.19193 161.27045c-7.0567 1.71921-8.79817-1.75692-9.45227-9.48212-2.31964-27.40534-11.84169-52.30814-30.921-72.5171-9.50648-10.06919 1.80975-12.16817 5.2307-17.103 4.82213-6.956 7.79928-1.17406 10.83816 2.28486q34.03164 38.73627 36.44858 90.23222c.3142 6.68783.26845 6.68998-12.14417 6.58514z" class="cls-4"/><path fill="#f6bb19" d="M1448.06585 160.92505c-8.31655 1.76451-11.10567-.9545-11.53841-9.05547a74.06215 74.06215 0 0 0-19.89127-47.47232c-9.64549-10.30822 1.07318-13.14475 5.26866-18.06293 6.36055-7.45635 8.82194.97107 11.47259 4.07587 14.42488 16.89632 21.93289 36.84088 25.0795 58.69243 1.31638 9.14083.4595 15.27756-10.39107 11.82242z"/><path d="M508.41186 190.54828q-25.82127-7.422-37.581-18.24137a34.853 34.853 0 0 1-11.76024-26.71022q0-17.978 14.373-29.74044 14.37356-11.76078 37.37224-11.76024 15.68159 0 27.96471 6.06261a45.98141 45.98141 0 0 1 19.02488 16.72681 42.76787 42.76787 0 0 1 6.74339 23.31176h-20.17549q0-13.84905-8.78138-21.76879-8.78084-7.91865-24.776-7.92029-14.844 0-23.1544 6.5467t-8.31046 18.16819q0 9.3234 7.89188 15.76191 7.89243 6.4418 26.8665 11.78209 18.973 5.34193 29.688 11.77008 10.715 6.43032 15.88976 15.00135a38.28727 38.28727 0 0 1 5.17529 20.17554q0 18.50418-14.42656 29.63663-14.426 11.133-38.57427 11.133a71.56087 71.56087 0 0 1-29.27056-6.01016q-13.59-6.01071-20.96014-16.46564a40.17421 40.17421 0 0 1-7.36955-23.72919H474.437q0 13.79822 10.19323 21.7961 10.19212 7.99734 27.23147 7.99679 15.88976 0 24.35752-6.48114t8.46777-17.66658q0-11.18544-7.84053-17.3016-7.83998-6.11564-28.4346-12.0739z"/><path d="M511.86179 260.75538a72.14711 72.14711 0 0 1-29.38061-6.03282c-9.06306-4.00841-16.1533-9.57954-21.07232-16.55808a40.61718 40.61718 0 0 1-7.41949-23.88607v-.27234h20.7202v.27234c0 9.06838 3.39406 16.32989 10.08857 21.58294 6.71472 5.26689 15.82033 7.93809 27.06365 7.93809 10.48377 0 18.62292-2.16164 24.19192-6.42536 5.54773-4.24563 8.361-10.11676 8.361-17.45008 0-7.33438-2.60259-13.08316-7.736-17.08678-5.17486-4.0366-14.71025-8.0833-28.34234-12.02734h.00053c-17.173-4.93551-29.85347-11.09333-37.6905-18.30218a35.26622 35.26622 0 0 1-11.84809-26.911c0-12.01617 4.86955-22.093 14.473-29.95134 9.587-7.84448 22.21857-11.8215 37.54476-11.8215a62.935 62.935 0 0 1 28.08544 6.0908 46.45636 46.45636 0 0 1 19.13407 16.82509 43.227 43.227 0 0 1 6.78546 23.45736v.27233h-20.7202v-.27233c0-9.10774-2.92439-16.3634-8.69126-21.56645-5.77645-5.20891-14.05123-7.85033-24.59351-7.85033-9.787 0-17.52081 2.18292-22.9861 6.48813-5.4456 4.29031-8.20669 10.33111-8.20669 17.95431 0 6.102 2.6212 11.33428 7.79181 15.55119 5.20944 4.251 14.21559 8.19766 26.76845 11.73054 12.613 3.55151 22.62387 7.52162 29.754 11.79916 7.14875 4.28978 12.52574 9.36837 15.98256 15.09376a38.72592 38.72592 0 0 1 5.21476 20.31648c0 12.3667-4.88976 22.41005-14.5326 29.85241-9.62102 7.42427-22.65472 11.18907-38.74047 11.18907zm-57.32722-46.20464a40.0476 40.0476 0 0 0 7.319 23.29992c4.86211 6.89663 11.87628 12.40606 20.84786 16.374a71.60714 71.60714 0 0 0 29.1604 5.986c15.96235 0 28.88435-3.72649 38.4075-11.0763 9.503-7.33279 14.3209-17.23146 14.3209-29.42051a38.19384 38.19384 0 0 0-5.136-20.03458c-3.41055-5.64932-8.7253-10.66514-15.7964-14.90865-7.08917-4.25255-17.0554-8.20351-29.62209-11.74171-12.6252-3.5531-21.6973-7.53438-26.96525-11.83267-5.303-4.32542-7.99181-9.69974-7.99181-15.97352 0-7.79873 2.83078-13.98367 8.41414-18.382 5.56368-4.38286 13.41082-6.60515 23.32332-6.60515 10.68164 0 19.07876 2.68823 24.95839 7.99075 5.82857 5.25837 8.812 12.55765 8.87 21.69837h19.6314a42.67373 42.67373 0 0 0-6.70089-22.89355 45.91 45.91 0 0 0-18.91504-16.6282 62.39146 62.39146 0 0 0-27.844-6.03441c-15.19694 0-27.7131 3.93606-37.20008 11.69809-9.471 7.7498-14.273 17.68518-14.273 29.53008a34.74 34.74 0 0 0 11.67256 26.50994c7.77373 7.15088 20.38085 13.26774 37.47136 18.17984h.00053c13.69911 3.96373 23.29673 8.04181 28.52638 12.121 5.2722 4.11266 7.94554 10.00612 7.94554 17.51656 0 7.512-2.885 13.52784-8.57478 17.882-5.66581 4.33819-13.91665 6.53813-24.52276 6.53813-11.36832 0-20.58722-2.7095-27.39981-8.05511-6.76525-5.30731-10.22846-12.61988-10.296-21.73826zm204.98464 43.84237q-1.67357-3.34383-2.71878-11.91759-13.48515 14.00967-32.197 14.008-16.72735 0-27.44128-9.46a30.606 30.606 0 0 1-10.71557-23.99145q0-17.66494 13.43325-27.44128 13.43106-9.77415 37.79077-9.7747h18.81616v-8.8852q0-10.138-6.06261-16.15093-6.06479-6.0107-17.87639-6.01125-10.34949 0-17.353 5.22665-7.004 5.22884-7.00347 12.64974h-19.4445q0-8.46776 6.01125-16.36073a41.043 41.043 0 0 1 16.3072-12.49239 54.87731 54.87731 0 0 1 22.63315-4.59941q19.54667 0 30.62885 9.7747 11.07891 9.7758 11.49907 26.91785v52.06q0 15.57833 3.97217 24.77495v1.673zm-32.09315-14.74018a33.98657 33.98657 0 0 0 17.24806-4.70431 28.44918 28.44918 0 0 0 11.81269-12.23012v-23.208H641.3292q-35.543 0-35.543 20.80389 0 9.0939 6.06371 14.21675 6.06153 5.12234 15.57615 5.12179z"/><path d="M624.60351 260.75538c-11.16832 0-20.46169-3.20524-27.62161-9.52741a30.99957 30.99957 0 0 1-10.8077-24.19617c0-11.81352 4.55733-21.12019 13.54539-27.661 8.95987-6.52057 21.72869-9.82687 37.95113-9.82687h18.54366v-8.61307c0-6.65142-2.01271-12.02043-5.98229-15.957-3.97117-3.9366-9.921-5.93282-17.68411-5.93282-6.80673 0-12.59062 1.74038-17.1905 5.1722-4.57435 3.41587-6.894 7.59821-6.894 12.43212v.27234h-19.98881v-.27234c0-5.67963 2.04091-11.24013 6.06687-16.52563a41.49239 41.49239 0 0 1 16.41286-12.57626 55.394 55.394 0 0 1 22.74409-4.62329c13.038 0 23.40364 3.31162 30.80929 9.84283 7.412 6.54026 11.31194 15.66342 11.59119 27.11578v52.06671c0 10.30185 1.32869 18.60057 3.94936 24.66637l.02234.10851v1.94462H659.351l-.07553-.15c-1.08827-2.17441-1.98771-6.02324-2.67546-11.44225-8.92317 9.07956-19.68565 13.68263-31.9965 13.68263zm13.06721-70.66676c-16.10489 0-28.76573 3.27119-37.63092 9.72261-8.83913 6.43228-13.32093 15.59108-13.32093 27.22057a30.47447 30.47447 0 0 0 10.62366 23.78767c7.05779 6.23175 16.22936 9.39124 27.261 9.39124 12.3401 0 23.10684-4.685 32.00076-13.9241l.39733-.41275.06914.56913c.67339 5.52858 1.55369 9.45507 2.618 11.67735H679.526v-1.34358c-2.63557-6.13069-3.97171-14.48473-3.97171-24.83126v-52.06034c-.27552-11.28747-4.11319-20.27766-11.40715-26.71366-7.303-6.44079-17.54741-9.70666-30.44866-9.70666a54.8594 54.8594 0 0 0-22.52175 4.57541 40.9741 40.9741 0 0 0-16.20223 12.40925c-3.8866 5.10412-5.8892 10.45983-5.95356 15.92352h18.9c.08564-4.89934 2.47653-9.13593 7.111-12.59595 4.69563-3.50416 10.58909-5.28071 17.516-5.28071 7.9115 0 13.99059 2.04888 18.06762 6.09027 4.07648 4.04351 6.14345 9.5423 6.14345 16.34425v9.15774zM627.42631 243.925c-6.38068 0-11.68054-1.74463-15.75171-5.185-4.08766-3.451-6.16048-8.3051-6.16048-14.42515 0-13.98527 12.04968-21.07658 35.815-21.07658h15.42991l-.02766 23.59885a28.84027 28.84027 0 0 1-11.921 12.34755 34.40807 34.40807 0 0 1-17.38406 4.74033zm13.90283-40.142c-23.40364 0-35.27035 6.9078-35.27035 20.53191 0 5.953 2.00739 10.66567 5.96686 14.00814 3.97064 3.35629 9.15242 5.05731 15.40066 5.05731a33.86484 33.86484 0 0 0 17.11179-4.668 28.32821 28.32821 0 0 0 11.67628-12.05713v-22.87229zm121.62704-41.14588a58.00238 58.00238 0 0 0-9.51244-.73215q-19.02705 0-25.82072 16.20338v80.28476h-19.33959v-113.11h18.81725l.31362 13.06717q9.51025-15.15543 26.97031-15.15762 5.64517 0 8.57157 1.4632z"/><path d="M727.89548 258.665H708.0109V145.01055h19.35587l.2984 12.44488c6.34132-9.646 15.32672-14.53526 26.71951-14.53526 3.78554 0 6.71046.50212 8.69339 1.492l.15053.075v18.47132l-.317-.05266a58.009 58.009 0 0 0-9.46783-.7287c-12.48531 0-21.08083 5.37858-25.54827 15.98628zm-19.33992-.54467h18.79525v-80.0665l.02128-.05053c4.55467-10.863 13.32625-16.37085 26.07166-16.37085a58.989 58.989 0 0 1 9.24018.68456V144.826a20.06335 20.06335 0 0 0-8.29925-1.36114c-11.48481 0-20.48138 5.05678-26.73972 15.02993l-.48137.767-.32872-13.70656h-18.27931zm139.96344.27278q-1.67355-3.34383-2.71877-11.91759-13.48516 14.00967-32.197 14.008-16.72735 0-27.44128-9.46a30.606 30.606 0 0 1-10.71556-23.99145q0-17.66494 13.43324-27.44128 13.43107-9.77415 37.79077-9.7747h18.81617v-8.8852q0-10.138-6.06261-16.15093-6.0648-6.0107-17.87639-6.01125-10.34949 0-17.353 5.22665-7.004 5.22884-7.00348 12.64974h-19.44446q0-8.46776 6.01125-16.36073a41.04294 41.04294 0 0 1 16.30719-12.49237 54.87736 54.87736 0 0 1 22.63316-4.59941q19.54667 0 30.62885 9.7747 11.0789 9.7758 11.49907 26.91785v52.06q0 15.57833 3.97216 24.77495v1.673zm-32.09314-14.74018a33.98657 33.98657 0 0 0 17.24806-4.70431 28.44924 28.44924 0 0 0 11.81269-12.23012v-23.208h-15.15767q-35.543 0-35.543 20.80389 0 9.0939 6.0637 14.21675 6.06155 5.12234 15.57617 5.12179z"/><path d="M813.60334 260.75538c-11.16833 0-20.4617-3.20524-27.62162-9.52741A30.99956 30.99956 0 0 1 775.174 227.0318c0-11.81352 4.55732-21.12019 13.54539-27.661 8.95987-6.52057 21.72868-9.82687 37.95113-9.82687h18.54366v-8.61307c0-6.65142-2.01271-12.02043-5.98229-15.957-3.97117-3.9366-9.921-5.93282-17.68411-5.93282-6.80674 0-12.59063 1.74038-17.19051 5.1722-4.57434 3.41587-6.894 7.59821-6.894 12.43212v.27234H777.4745v-.27234c0-5.6807 2.0409-11.24066 6.06686-16.52563a41.49811 41.49811 0 0 1 16.41234-12.57626 55.40007 55.40007 0 0 1 22.74461-4.62329c13.038 0 23.40364 3.31162 30.8093 9.84283 7.412 6.54079 11.31194 15.66342 11.59065 27.11578v52.06671c0 10.30079 1.32869 18.59951 3.9499 24.66637l.02234.10851v1.94462h-20.71967l-.07553-.15c-1.08827-2.17334-1.98771-6.02218-2.67546-11.44225-8.92317 9.07956-19.68565 13.68263-31.9965 13.68263zm13.06721-70.66676c-16.1049 0-28.76574 3.27119-37.63093 9.72261-8.83913 6.43228-13.32093 15.59108-13.32093 27.22057a30.4745 30.4745 0 0 0 10.62366 23.78767c7.0578 6.23175 16.22936 9.39124 27.261 9.39124 12.3401 0 23.10684-4.685 32.00075-13.9241l.39733-.41275.06915.56913c.67339 5.52964 1.55368 9.45613 2.618 11.67735h19.83724v-1.34358c-2.6361-6.13175-3.97223-14.48473-3.97223-24.83126v-52.06034c-.275-11.28747-4.11266-20.27766-11.40662-26.71366-7.303-6.44079-17.54741-9.70666-30.44867-9.70666a54.86551 54.86551 0 0 0-22.52228 4.57541 40.96624 40.96624 0 0 0-16.2017 12.40925c-3.88713 5.10359-5.88921 10.4593-5.95357 15.92352h18.9c.08563-4.89934 2.47653-9.13593 7.111-12.59595 4.69562-3.50416 10.58908-5.28071 17.516-5.28071 7.91149 0 13.99059 2.04888 18.06761 6.09027 4.07649 4.04351 6.14346 9.5423 6.14346 16.34425v9.15774zM816.4256 243.925c-6.38015 0-11.68-1.74463-15.75171-5.185-4.08766-3.452-6.16048-8.3051-6.16048-14.42515 0-13.98527 12.05022-21.07658 35.81555-21.07658h15.42992l-.02766 23.59885a28.84639 28.84639 0 0 1-11.921 12.34755 34.40992 34.40992 0 0 1-17.38462 4.74033zm13.90336-40.142c-23.40417 0-35.27088 6.9078-35.27088 20.53191 0 5.952 2.00739 10.66567 5.96686 14.00814 3.97118 3.35629 9.153 5.05731 15.40066 5.05731a33.86671 33.86671 0 0 0 17.11232-4.668 28.3313 28.3313 0 0 0 11.67629-12.05713v-22.87229zm209.17527 14.78135h-63.76775l-14.32166 39.82876h-20.69789l58.12259-152.20666h17.56167l58.22749 152.20666h-20.59407zm-57.70405-16.41209h51.74526l-25.92454-71.19085z"/><path d="M1075.02467 258.665h-21.1803l-.06489-.17872-14.46558-39.64948h-63.3861l-14.32143 39.8282h-21.28508l.14148-.36914 58.1889-152.38164h17.93677l.067.175zm-20.79946-.54467h20.008L1016.214 106.4589h-17.18681l-57.91443 151.66144h20.11064l14.32143-39.82821h64.14991l.0649.17925zm-20.291-55.69588H981.4117l26.20889-72.26033zm-51.746-.54466h50.96835l-25.535-70.121zm133.05055 56.51332h-19.3385V97.82359h19.3385z"/><path d="M1115.51084 258.665h-19.88246V97.55115h19.88246zm-19.33779-.54467h18.79312V98.09582h-18.79312zm99.08821 2.36323q-22.99869 0-37.4247-15.10517-14.426-15.10461-14.42547-40.40355v-3.55473q0-16.829 6.42869-30.05406a50.15735 50.15735 0 0 1 17.9802-20.699 45.21665 45.21665 0 0 1 25.03722-7.47445q22.05618 0 34.28848 14.53038 12.23122 14.53256 12.23013 41.60667v8.04924h-76.62513q.41634 16.72736 9.77361 27.02275 9.35454 10.29869 23.78274 10.297 10.24294 0 17.353-4.182a43.60366 43.60366 0 0 0 12.43993-11.08054l11.81269 9.19882q-14.21789 21.85136-42.65139 21.84864zm-2.40406-101.40118a25.7924 25.7924 0 0 0-19.65321 8.52022q-7.94488 8.52021-9.82606 23.88655h56.65938V190.026q-.83923-14.74072-7.94543-22.84188-7.11055-8.10063-19.23468-8.10174z"/><path d="M1195.26087 260.75538c-15.33789 0-27.995-5.1105-37.62135-15.189-9.62209-10.07527-14.50068-23.73236-14.50068-40.59149v-3.55469c0-11.20982 2.17228-21.36115 6.45621-30.17315a50.65122 50.65122 0 0 1 18.07719-20.8085 45.68588 45.68588 0 0 1 25.18444-7.51842c14.7177 0 26.32484 4.92115 34.498 14.62728 8.15723 9.69283 12.2933 23.75044 12.2933 41.78241v8.32159h-76.61714c.32233 10.905 3.58395 19.842 9.69442 26.56739 6.152 6.77323 14.0858 10.20718 23.5813 10.20718 6.74982 0 12.54222-1.39464 17.21551-4.14457a43.47923 43.47923 0 0 0 12.36137-11.01248l.16808-.21595 12.22628 9.52-.13617.21064c-9.48695 14.57938-23.91423 21.97176-42.88076 21.97176zm-2.40419-117.29054a45.14322 45.14322 0 0 0-24.88868 7.43116 50.12027 50.12027 0 0 0-17.88357 20.58935c-4.24776 8.737-6.4009 18.80855-6.4009 29.93486v3.55469c0 16.71445 4.82754 30.24495 14.34963 40.2149 9.52 9.96676 22.04516 15.02088 37.22774 15.02088 18.6793 0 32.90552-7.23917 42.28719-21.51539l-11.40076-8.87743a43.99251 43.99251 0 0 1-12.34862 10.93376c-4.75838 2.79993-10.64333 4.219-17.49209 4.219-9.65507 0-17.72507-3.49459-23.98341-10.3859-6.25409-6.88173-9.56677-16.03309-9.84443-27.19875l-.00638-.27925h76.631v-7.77693c0-17.90059-4.09351-31.84012-12.16564-41.43135-8.06476-9.57734-19.53146-14.4336-34.08108-14.4336zm27.45247 48.29661h-57.23892l.03723-.30532c1.25529-10.25451 4.585-18.3426 9.89761-24.03926a26.16366 26.16366 0 0 1 19.85161-8.60669c8.12638 0 14.66664 2.75685 19.43992 8.19394 4.75732 5.42273 7.453 13.16295 8.01255 23.00631zm-56.623-.54467h56.07831v-1.19093c-.55211-9.70347-3.202-17.33358-7.87638-22.66217-4.66584-5.31422-11.06886-8.00883-19.03142-8.00883a25.639 25.639 0 0 0-19.45374 8.43329c-5.17857 5.55411-8.44763 13.43586-9.71675 23.42864zm154.87401-28.57966a58.00238 58.00238 0 0 0-9.51244-.73215q-19.02705 0-25.82072 16.20338v80.28476h-19.33959v-113.11h18.81725l.31362 13.06717q9.51025-15.15543 26.97031-15.15762 5.64518 0 8.57157 1.4632z"/><path d="M1283.499 258.665h-19.88352V145.01055h19.35481l.29893 12.44488c6.34132-9.64549 15.32619-14.53526 26.71951-14.53526 3.78607 0 6.71046.50212 8.69233 1.492l.15106.075v18.47132l-.317-.05266a58.00894 58.00894 0 0 0-9.46783-.7287c-12.48478 0-21.0803 5.37858-25.54827 15.98628zm-19.33885-.54467h18.79419v-80.0665l.02127-.05053c4.5552-10.863 13.32625-16.37085 26.07166-16.37085a58.99387 58.99387 0 0 1 9.24018.68456V144.826a20.06055 20.06055 0 0 0-8.29872-1.36114c-11.4848 0-20.48137 5.05678-26.73972 15.02993l-.48084.767-.32978-13.70656h-18.27824zm105.7792-140.22609v27.38883h21.11641V160.232h-21.11641v70.2336q0 6.804 2.82259 10.20524t9.61734 3.40066a46.85909 46.85909 0 0 0 9.19882-1.25449v15.58926a56.37861 56.37861 0 0 1-14.844 2.07733q-12.9639 0-19.5483-7.84053-6.586-7.84-6.586-22.266V160.232h-20.59408v-14.94893h20.59408v-27.38883z"/><path d="M1376.73377 260.75538c-8.68488 0-15.33258-2.67014-19.75693-7.937-4.41265-5.25305-6.64982-12.80285-6.64982-22.4409v-69.87319h-20.59415v-15.49374h20.59413V117.6219h19.88458v27.38865h21.11647v15.49374h-21.11645v69.96146c0 4.44882.9287 7.82426 2.7595 10.03165 1.8191 2.19037 4.985 3.302 9.40827 3.302a46.84073 46.84073 0 0 0 9.14124-1.2489l.32978-.07128V258.615l-.20106.05425a56.94312 56.94312 0 0 1-14.91556 2.08613zm-46.45623-100.79576h20.59414v70.41783c0 9.50614 2.19463 16.93786 6.52217 22.08985 4.31585 5.13816 10.82312 7.74341 19.33992 7.74341a56.31491 56.31491 0 0 0 14.572-2.01271v-15.04535a46.28032 46.28032 0 0 1-8.92636 1.19146c-4.5935 0-7.8998-1.17763-9.82741-3.49885-1.91484-2.30845-2.885-5.79984-2.885-10.37951v-70.50613h21.11647v-14.40441H1369.667v-27.38864h-18.79525v27.38864h-20.59414z"/><path fill="#636363" d="M467.3909 311.71959q-5.87137-1.68666-8.54426-4.147a7.92233 7.92233 0 0 1-2.674-6.07353 8.36914 8.36914 0 0 1 3.26734-6.762 12.9923 12.9923 0 0 1 8.49836-2.674 14.17753 14.17753 0 0 1 6.35765 1.37906 10.45208 10.45208 0 0 1 4.32622 3.80279 9.72683 9.72683 0 0 1 1.53314 5.29986H475.568a6.32747 6.32747 0 0 0-1.99646-4.94909 8.1182 8.1182 0 0 0-5.63316-1.80086 8.309 8.309 0 0 0-5.26489 1.48834 4.964 4.964 0 0 0-1.89047 4.13061 4.46552 4.46552 0 0 0 1.7954 3.58424 17.58056 17.58056 0 0 0 6.1085 2.67944 28.28038 28.28038 0 0 1 6.75 2.67616 10.2307 10.2307 0 0 1 3.61265 3.41049 8.70214 8.70214 0 0 1 1.1769 4.58739 8.08518 8.08518 0 0 1-3.28045 6.739q-3.27992 2.53081-8.77046 2.53082a16.2616 16.2616 0 0 1-6.65488-1.367 11.18455 11.18455 0 0 1-4.76551-3.74378 9.12576 9.12576 0 0 1-1.67629-5.39493h4.58739a5.95966 5.95966 0 0 0 2.31774 4.95565 9.75883 9.75883 0 0 0 6.19155 1.81834 8.9622 8.9622 0 0 0 5.53809-1.47413 4.78371 4.78371 0 0 0 1.92543-4.017 4.69921 4.69921 0 0 0-1.78228-3.93282 20.55019 20.55019 0 0 0-6.4659-2.74605zm29.15254 15.90178a11.23286 11.23286 0 0 1-8.50929-3.43453A12.74382 12.74382 0 0 1 484.7537 315v-.80864a15.43188 15.43188 0 0 1 1.4621-6.833 11.39577 11.39577 0 0 1 4.088-4.7065 10.28484 10.28484 0 0 1 5.69217-1.69923 9.6349 9.6349 0 0 1 7.79681 3.3034q2.78 3.3045 2.78106 9.46v1.83036H489.151a9.13932 9.13932 0 0 0 2.22266 6.14457 6.98156 6.98156 0 0 0 5.407 2.34177 7.66033 7.66033 0 0 0 3.94594-.95069 9.90713 9.90713 0 0 0 2.828-2.5199l2.686 2.09153q-3.23241 4.96825-9.69716 4.9677zm-.54747-23.05605a5.86435 5.86435 0 0 0-4.46828 1.93746 9.415 9.415 0 0 0-2.23469 5.431h12.88359v-.3322a8.38938 8.38938 0 0 0-1.80632-5.19386 5.52507 5.52507 0 0 0-4.37427-1.8424zm26.46654 19.46744a6.32813 6.32813 0 0 0 4.112-1.42714 5.01659 5.01659 0 0 0 1.94948-3.56457h4.159a7.96665 7.96665 0 0 1-1.52111 4.20711 9.998 9.998 0 0 1-3.74378 3.18429 10.80153 10.80153 0 0 1-4.95565 1.18892 10.59134 10.59134 0 0 1-8.35412-3.50556q-3.10287-3.5061-3.10233-9.59111v-.73652a15.48186 15.48186 0 0 1 1.37906-6.67892 10.49931 10.49931 0 0 1 3.95687-4.5404 11.24492 11.24492 0 0 1 6.09757-1.61619 10.315 10.315 0 0 1 7.18924 2.59092 9.25656 9.25656 0 0 1 3.05425 6.727h-4.159a6.06529 6.06529 0 0 0-1.88938-4.10111 5.883 5.883 0 0 0-4.19509-1.60417 6.15332 6.15332 0 0 0-5.19387 2.4128q-1.84237 2.41281-1.84238 6.97616v.83158q0 4.44534 1.83036 6.84612a6.18386 6.18386 0 0 0 5.22888 2.40079zm31.52928.57042q-2.56689 3.01764-7.53455 3.01819a7.9979 7.9979 0 0 1-6.26368-2.38876q-2.15054-2.38823-2.17458-7.07122V301.428h4.39725v16.61426q0 5.84679 4.75349 5.84733 5.04033 0 6.703-3.7558V301.428h4.39725v25.718h-4.18307zm23.87562-19.22918a13.11461 13.11461 0 0 0-2.16256-.16719 5.79477 5.79477 0 0 0-5.87138 3.68477V327.146h-4.39725v-25.718h4.27814l.07212 2.9712a6.8476 6.8476 0 0 1 6.13255-3.44655 4.50665 4.50665 0 0 1 1.94838.3322zm14.74892 22.24737a11.23289 11.23289 0 0 1-8.50929-3.43453A12.74387 12.74387 0 0 1 580.82659 315v-.80864a15.43174 15.43174 0 0 1 1.46211-6.833 11.39563 11.39563 0 0 1 4.088-4.7065 10.2848 10.2848 0 0 1 5.69216-1.69923 9.63489 9.63489 0 0 1 7.79681 3.3034q2.78 3.3045 2.78107 9.46v1.83036h-17.4229a9.13932 9.13932 0 0 0 2.22267 6.14457 6.98155 6.98155 0 0 0 5.407 2.34177 7.6603 7.6603 0 0 0 3.94594-.95069 9.90686 9.90686 0 0 0 2.828-2.5199l2.686 2.09153q-3.23238 4.96825-9.69712 4.9677zm-.54747-23.05605a5.86437 5.86437 0 0 0-4.46828 1.93746 9.415 9.415 0 0 0-2.23468 5.431h12.88359v-.3322a8.38932 8.38932 0 0 0-1.80633-5.19386 5.52506 5.52506 0 0 0-4.3743-1.8424zm32.8242-3.13732l.11911 2.85209a9.4969 9.4969 0 0 1 7.62962-3.32744q5.39439 0 7.34441 4.13608a9.74618 9.74618 0 0 1 3.33946-2.99524 9.86266 9.86266 0 0 1 4.86058-1.14084q8.4612 0 8.60436 8.9606V327.146h-4.39725v-16.97047a5.90386 5.90386 0 0 0-1.26-4.12406q-1.25886-1.367-4.23006-1.367a5.83058 5.83058 0 0 0-4.065 1.46211 5.92621 5.92621 0 0 0-1.87735 3.93392v17.0655h-4.42129v-16.85245q0-5.60911-5.49-5.60912a5.88477 5.88477 0 0 0-5.91945 3.68368V327.146h-4.39725v-25.718zm37.85087 12.62135a15.18115 15.18115 0 0 1 1.48615-6.798 11.0716 11.0716 0 0 1 4.13608-4.65841 11.24808 11.24808 0 0 1 6.0484-1.64023 10.84322 10.84322 0 0 1 8.49727 3.63669q3.24547 3.63724 3.24439 9.67417v.30925a15.3256 15.3256 0 0 1-1.437 6.73793 10.91786 10.91786 0 0 1-4.112 4.6464 11.382 11.382 0 0 1-6.14457 1.66426 10.81866 10.81866 0 0 1-8.47432-3.63669q-3.24384-3.63723-3.24439-9.62608zm4.42129.52343a11.00192 11.00192 0 0 0 1.98444 6.86906 6.72549 6.72549 0 0 0 10.63689-.03606q1.9735-2.6259 1.97242-7.35643a10.97738 10.97738 0 0 0-2.00848-6.85705 6.38589 6.38589 0 0 0-5.33593-2.627 6.31535 6.31535 0 0 0-5.25288 2.59092q-1.99645 2.59149-1.99646 7.41656zm29.15253-13.14478l.14206 3.23237a9.37191 9.37191 0 0 1 7.70174-3.70772q8.15142 0 8.22408 9.19882V327.146h-4.39724v-17.01855a5.924 5.924 0 0 0-1.272-4.112 5.09574 5.09574 0 0 0-3.88584-1.331 6.34526 6.34526 0 0 0-3.7558 1.14084 7.74994 7.74994 0 0 0-2.5199 2.99524V327.146h-4.39725v-25.718zm23.20904-6.82206a2.62515 2.62515 0 0 1 .65347-1.80632 2.45707 2.45707 0 0 1 1.93746-.73652 2.49265 2.49265 0 0 1 1.94838.73652 2.59884 2.59884 0 0 1 .66549 1.80632 2.603 2.603 0 1 1-5.2048 0zm4.75349 32.54008H719.883V301.428h4.39725zm13.48898-31.94562v6.2276h4.80156v3.39847h-4.80156V320.796a3.56962 3.56962 0 0 0 .64144 2.31992 2.7002 2.7002 0 0 0 2.18661.77367 10.64533 10.64533 0 0 0 2.09153-.28521v3.5449a12.82572 12.82572 0 0 1-3.37443.47207 5.47853 5.47853 0 0 1-4.44533-1.78228 7.66275 7.66275 0 0 1-1.49707-5.06274v-15.94984h-4.68246V301.428h4.68245v-6.2276zm8.78138 18.84895a15.18115 15.18115 0 0 1 1.48615-6.798 11.07166 11.07166 0 0 1 4.13608-4.65841 11.24811 11.24811 0 0 1 6.0484-1.64023 10.84321 10.84321 0 0 1 8.49727 3.63669q3.24549 3.63724 3.24439 9.67417v.30925a15.3256 15.3256 0 0 1-1.437 6.73793 10.91786 10.91786 0 0 1-4.112 4.6464 11.382 11.382 0 0 1-6.14457 1.66426 10.81866 10.81866 0 0 1-8.47432-3.63669q-3.24384-3.63723-3.24439-9.62608zm4.42129.52343a11.00192 11.00192 0 0 0 1.98444 6.86906 6.72549 6.72549 0 0 0 10.63689-.03606q1.97352-2.6259 1.97242-7.35643a10.97731 10.97731 0 0 0-2.00848-6.85705 6.38588 6.38588 0 0 0-5.33593-2.627 6.31536 6.31536 0 0 0-5.25288 2.59092q-1.99645 2.59149-1.99646 7.41656zm37.4247-9.19878a13.11464 13.11464 0 0 0-2.16257-.16719 5.79477 5.79477 0 0 0-5.87137 3.68477V327.146h-4.39725v-25.718h4.27814l.07212 2.9712a6.84759 6.84759 0 0 1 6.13254-3.44655 4.50667 4.50667 0 0 1 1.94839.3322zm4.55137-10.76806a2.62515 2.62515 0 0 1 .65347-1.80632 2.45707 2.45707 0 0 1 1.93746-.73652 2.49264 2.49264 0 0 1 1.94838.73652 2.59884 2.59884 0 0 1 .66549 1.80632 2.603 2.603 0 1 1-5.2048 0zm4.75349 32.54008h-4.39725V301.428h4.39725zm11.6826-25.71802l.14206 3.23237a9.37191 9.37191 0 0 1 7.70174-3.70772q8.15142 0 8.22408 9.19882V327.146h-4.39725v-17.01855a5.924 5.924 0 0 0-1.272-4.112 5.09574 5.09574 0 0 0-3.88584-1.331 6.34526 6.34526 0 0 0-3.7558 1.14084 7.74994 7.74994 0 0 0-2.5199 2.99524V327.146H805.224v-25.718zm22.13923 12.64539q0-6.014 2.78107-9.56708a9.58741 9.58741 0 0 1 14.71286-.2262l.21418-2.85209h4.017v25.0995a10.464 10.464 0 0 1-2.95918 7.86784 10.92512 10.92512 0 0 1-7.95089 2.87614 13.2091 13.2091 0 0 1-5.443-1.18892 9.36938 9.36938 0 0 1-4.06505-3.25532l2.28277-2.639a8.5963 8.5963 0 0 0 6.91605 3.49463 6.74246 6.74246 0 0 0 5.00372-1.80633 6.90592 6.90592 0 0 0 1.79431-5.08677v-2.21065a9.03655 9.03655 0 0 1-7.20235 3.04223 8.78314 8.78314 0 0 1-7.30835-3.63669q-2.79314-3.63723-2.79314-9.91129zm4.42129.49939a11.53459 11.53459 0 0 0 1.78229 6.833 5.79108 5.79108 0 0 0 4.9917 2.48383 6.44229 6.44229 0 0 0 6.10851-3.77875v-11.74275a6.51691 6.51691 0 0 0-6.06042-3.68368 5.84384 5.84384 0 0 0-5.01575 2.49585q-1.80633 2.49477-1.80633 7.3925zm52.83693 12.57322a9.20021 9.20021 0 0 1-.61741-2.71 9.80947 9.80947 0 0 1-7.32146 3.18538 9.082 9.082 0 0 1-6.23964-2.15054 6.9624 6.9624 0 0 1-2.43575-5.455 7.26888 7.26888 0 0 1 3.05425-6.23963q3.0537-2.22267 8.59234-2.22267h4.27813V309.533a4.93826 4.93826 0 0 0-1.378-3.67166 5.54036 5.54036 0 0 0-4.065-1.367 6.41013 6.41013 0 0 0-3.94485 1.18892 3.50061 3.50061 0 0 0-1.59324 2.875h-4.42128a6.06907 6.06907 0 0 1 1.367-3.71974 9.33832 9.33832 0 0 1 3.70772-2.84007 12.47458 12.47458 0 0 1 5.14688-1.04577 10.1688 10.1688 0 0 1 6.96413 2.22266 8.01735 8.01735 0 0 1 2.61388 6.12053v11.83673a14.46955 14.46955 0 0 0 .9037 5.63315v.38028zm-7.29743-3.35148a7.72217 7.72217 0 0 0 3.9219-1.06981 6.46459 6.46459 0 0 0 2.686-2.78106v-5.27582h-3.44655q-8.08093 0-8.08093 4.72944a4.00091 4.00091 0 0 0 1.378 3.23237 5.29748 5.29748 0 0 0 3.54158 1.1649zm22.54574-22.36652l.14206 3.23237a9.37188 9.37188 0 0 1 7.70174-3.70772q8.1514 0 8.22408 9.19882V327.146h-4.39725v-17.01855a5.92394 5.92394 0 0 0-1.272-4.112 5.09573 5.09573 0 0 0-3.88584-1.331 6.34528 6.34528 0 0 0-3.7558 1.14084 7.74983 7.74983 0 0 0-2.51989 2.99524V327.146h-4.39725v-25.718zm22.11515 12.64539q0-5.91891 2.8051-9.52009a9.54245 9.54245 0 0 1 14.49868-.51032v-13.40592h4.39725v36.509h-4.03991l-.21418-2.757a8.95563 8.95563 0 0 1-7.34442 3.23237 8.78068 8.78068 0 0 1-7.2854-3.66073 15.23747 15.23747 0 0 1-2.81712-9.55506zm4.39725.49939a11.40646 11.40646 0 0 0 1.80632 6.845 5.84058 5.84058 0 0 0 4.99171 2.47181 6.41316 6.41316 0 0 0 6.1085-3.7558v-11.81267a6.462 6.462 0 0 0-6.06042-3.63669 5.868 5.868 0 0 0-5.03979 2.49585q-1.80627 2.49477-1.80628 7.3925zm49.58164-9.19878a13.11461 13.11461 0 0 0-2.16256-.16719 5.79477 5.79477 0 0 0-5.87138 3.68477V327.146h-4.39725v-25.718h4.27814l.07212 2.9712a6.8476 6.8476 0 0 1 6.13255-3.44655 4.50665 4.50665 0 0 1 1.94838.3322zm14.74892 22.24737a11.23285 11.23285 0 0 1-8.50928-3.43453A12.74383 12.74383 0 0 1 983.08307 315v-.80864a15.43174 15.43174 0 0 1 1.46211-6.833 11.3957 11.3957 0 0 1 4.088-4.7065 10.2848 10.2848 0 0 1 5.69216-1.69923 9.63491 9.63491 0 0 1 7.79682 3.3034q2.78 3.3045 2.78106 9.46v1.83036h-17.4229a9.13932 9.13932 0 0 0 2.22268 6.14461 6.98155 6.98155 0 0 0 5.407 2.34177 7.66028 7.66028 0 0 0 3.94594-.95069 9.90686 9.90686 0 0 0 2.828-2.5199l2.686 2.09153q-3.23239 4.96821-9.69713 4.96766zm-.54747-23.05605a5.86433 5.86433 0 0 0-4.46827 1.93746 9.415 9.415 0 0 0-2.23469 5.431h12.88362v-.3322a8.38932 8.38932 0 0 0-1.80633-5.19386 5.52506 5.52506 0 0 0-4.37433-1.8424zm37.87601 10.00746q0 5.86972-2.686 9.46a8.60994 8.60994 0 0 1-7.27338 3.58861 9.43048 9.43048 0 0 1-7.36845-2.9712v12.38311h-4.39725V301.428h4.017l.21418 2.85209a9.05746 9.05746 0 0 1 7.46352-3.32744 8.77021 8.77021 0 0 1 7.33239 3.49354q2.698 3.49462 2.698 9.72225zm-4.39725-.49939a11.36218 11.36218 0 0 0-1.85441-6.86907 5.97276 5.97276 0 0 0-5.08568-2.51989 6.46342 6.46342 0 0 0-5.99049 3.54162v12.288a6.476 6.476 0 0 0 6.03748 3.51867 5.94358 5.94358 0 0 0 5.02667-2.50787q1.86697-2.50785 1.86643-7.45146zm9.30372-.02404a15.18115 15.18115 0 0 1 1.48615-6.798 11.07166 11.07166 0 0 1 4.13608-4.65841 11.24811 11.24811 0 0 1 6.0484-1.64023 10.84321 10.84321 0 0 1 8.49727 3.63669q3.24549 3.63724 3.24439 9.67417v.30925a15.32546 15.32546 0 0 1-1.437 6.73793 10.91786 10.91786 0 0 1-4.112 4.6464 11.382 11.382 0 0 1-6.14457 1.66426 10.81866 10.81866 0 0 1-8.47432-3.63669q-3.24384-3.63723-3.24439-9.62608zm4.42129.52343a11.00186 11.00186 0 0 0 1.98445 6.86906 6.72548 6.72548 0 0 0 10.63688-.03606q1.97352-2.6259 1.97242-7.35643a10.97731 10.97731 0 0 0-2.00848-6.85705 6.38588 6.38588 0 0 0-5.33593-2.627 6.31533 6.31533 0 0 0-5.25287 2.59092q-1.99647 2.59149-1.99647 7.41656zm37.4236-9.19878a13.11443 13.11443 0 0 0-2.16256-.16719 5.79476 5.79476 0 0 0-5.87137 3.68477V327.146h-4.39725v-25.718h4.27813l.07213 2.9712a6.84759 6.84759 0 0 1 6.13254-3.44655 4.50659 4.50659 0 0 1 1.94838.3322zm11.68266-10.1736v6.2276h4.80156v3.39847h-4.80156V320.796a3.56962 3.56962 0 0 0 .64144 2.31992 2.7002 2.7002 0 0 0 2.18661.77367 10.64533 10.64533 0 0 0 2.09153-.28521v3.5449a12.82572 12.82572 0 0 1-3.37443.47207 5.47854 5.47854 0 0 1-4.44533-1.78228 7.66275 7.66275 0 0 1-1.49707-5.06274v-15.94984h-4.68246V301.428h4.68246v-6.2276zm10.44563-.59446a2.62515 2.62515 0 0 1 .65347-1.80632 2.457 2.457 0 0 1 1.93745-.73652 2.49262 2.49262 0 0 1 1.94838.73652 2.59884 2.59884 0 0 1 .66549 1.80632 2.603 2.603 0 1 1-5.20479 0zm4.75348 32.54008h-4.39724V301.428h4.39724zm11.68268-25.71802l.142 3.23237a9.37191 9.37191 0 0 1 7.70175-3.70772q8.15141 0 8.22408 9.19882V327.146h-4.39725v-17.01855a5.92394 5.92394 0 0 0-1.272-4.112 5.09574 5.09574 0 0 0-3.88584-1.331 6.34528 6.34528 0 0 0-3.7558 1.14084 7.74994 7.74994 0 0 0-2.5199 2.99524V327.146h-4.3972v-25.718zm22.13923 12.64539q0-6.014 2.78106-9.56708a9.58741 9.58741 0 0 1 14.71286-.2262l.21418-2.85209h4.017v25.0995a10.464 10.464 0 0 1-2.95918 7.86784 10.92512 10.92512 0 0 1-7.95089 2.87614 13.2091 13.2091 0 0 1-5.443-1.18892 9.36943 9.36943 0 0 1-4.065-3.25532l2.28277-2.639a8.59631 8.59631 0 0 0 6.916 3.49463 6.7425 6.7425 0 0 0 5.00373-1.80633 6.90591 6.90591 0 0 0 1.7943-5.08677v-2.21065a9.03655 9.03655 0 0 1-7.20235 3.04223 8.78316 8.78316 0 0 1-7.30835-3.63669q-2.79314-3.63723-2.79313-9.91129zm4.42129.49939a11.53459 11.53459 0 0 0 1.78228 6.833 5.79109 5.79109 0 0 0 4.99171 2.48383 6.44227 6.44227 0 0 0 6.1085-3.77875v-11.74275a6.51691 6.51691 0 0 0-6.06042-3.68368 5.84385 5.84385 0 0 0-5.01575 2.49585q-1.80633 2.49477-1.80632 7.3925zm39.12393 12.57322v-22.31951h-4.06505V301.428h4.06505v-2.63791a8.76143 8.76143 0 0 1 2.20955-6.39481 8.35464 8.35464 0 0 1 6.25165-2.25763 11.6464 11.6464 0 0 1 3.0182.401l-.23713 3.5449a12.591 12.591 0 0 0-2.37675-.21418 4.29166 4.29166 0 0 0-3.30449 1.2523 5.07768 5.07768 0 0 0-1.16378 3.58861v2.71772h5.49v3.39847h-5.49V327.146zm14.05721-13.09665a15.18128 15.18128 0 0 1 1.48614-6.798 11.07173 11.07173 0 0 1 4.13608-4.65841 11.24814 11.24814 0 0 1 6.04841-1.64023 10.84322 10.84322 0 0 1 8.49727 3.63669q3.24547 3.63724 3.24439 9.67417v.30925a15.32546 15.32546 0 0 1-1.437 6.73793 10.9178 10.9178 0 0 1-4.112 4.6464 11.38194 11.38194 0 0 1-6.14456 1.66426 10.81865 10.81865 0 0 1-8.47432-3.63669q-3.24386-3.63723-3.24439-9.62608zm4.42129.52343a11.00186 11.00186 0 0 0 1.98444 6.86906 6.72548 6.72548 0 0 0 10.63688-.03606q1.97352-2.6259 1.97243-7.35643a10.97732 10.97732 0 0 0-2.00849-6.85705 6.38586 6.38586 0 0 0-5.33592-2.627 6.31535 6.31535 0 0 0-5.25288 2.59092q-1.99647 2.59149-1.99646 7.41656zm37.42469-9.19878a13.11452 13.11452 0 0 0-2.16256-.16719 5.79477 5.79477 0 0 0-5.87138 3.68477V327.146h-4.39725v-25.718h4.27814l.07212 2.9712a6.84762 6.84762 0 0 1 6.13255-3.44655 4.50662 4.50662 0 0 1 1.94838.3322zm38.78955 9.19878q0 5.86972-2.686 9.46a8.61 8.61 0 0 1-7.27338 3.58861 9.43049 9.43049 0 0 1-7.36846-2.9712v12.38311h-4.39724V301.428h4.017l.21418 2.85209a9.05744 9.05744 0 0 1 7.46352-3.32744 8.77024 8.77024 0 0 1 7.33239 3.49354q2.698 3.49462 2.698 9.72225zm-4.39725-.49939a11.36224 11.36224 0 0 0-1.8544-6.86907 5.97279 5.97279 0 0 0-5.08569-2.51989 6.46343 6.46343 0 0 0-5.99049 3.54162v12.288a6.476 6.476 0 0 0 6.03748 3.51867 5.94361 5.94361 0 0 0 5.02668-2.50787q1.86696-2.50785 1.86642-7.45146zm26.34744 10.52979q-2.56689 3.01764-7.53456 3.01819a7.99787 7.99787 0 0 1-6.26367-2.38876q-2.15055-2.38823-2.17458-7.07122V301.428h4.39724v16.61426q0 5.84679 4.75349 5.84733 5.04035 0 6.703-3.7558V301.428h4.39725v25.718h-4.18307zm33.21646-10.0304q0 5.89432-2.70894 9.47091a8.65691 8.65691 0 0 1-7.27338 3.57768 8.96334 8.96334 0 0 1-7.53455-3.44655l-.21418 2.9712h-4.041v-36.509h4.39724v13.619a8.91494 8.91494 0 0 1 7.34442-3.3034 8.70865 8.70865 0 0 1 7.35643 3.54162q2.67505 3.54218 2.674 9.69711zm-4.39725-.49939a11.88994 11.88994 0 0 0-1.7342-6.94119 5.747 5.747 0 0 0-4.99171-2.44777 6.45665 6.45665 0 0 0-6.25166 4.041v11.12317a6.63551 6.63551 0 0 0 6.29865 4.041 5.714 5.714 0 0 0 4.92068-2.44777q1.75881-2.44883 1.75827-7.36844zm15.19917 13.07261h-4.39725v-36.509h4.39725zm7.54657-32.54006a2.62515 2.62515 0 0 1 .65347-1.80632 2.45706 2.45706 0 0 1 1.93745-.73652 2.49266 2.49266 0 0 1 1.94839.73652 2.59884 2.59884 0 0 1 .66549 1.80632 2.603 2.603 0 1 1-5.2048 0zm4.75351 32.54006h-4.39725v-25.718h4.39725zm17.83812-3.11324a6.32813 6.32813 0 0 0 4.112-1.42714 5.01659 5.01659 0 0 0 1.94948-3.56457h4.159a7.96675 7.96675 0 0 1-1.52112 4.20711 9.99794 9.99794 0 0 1-3.74378 3.18429 10.80153 10.80153 0 0 1-4.95565 1.18892 10.59134 10.59134 0 0 1-8.35412-3.50556q-3.10287-3.5061-3.10233-9.59111v-.73652a15.48186 15.48186 0 0 1 1.37906-6.67892 10.49937 10.49937 0 0 1 3.95687-4.5404 11.24492 11.24492 0 0 1 6.09757-1.61619 10.31493 10.31493 0 0 1 7.18924 2.59092 9.25657 9.25657 0 0 1 3.05426 6.727h-4.159a6.06529 6.06529 0 0 0-1.88938-4.10111 5.883 5.883 0 0 0-4.19509-1.60417 6.15329 6.15329 0 0 0-5.19386 2.4128q-1.84239 2.41281-1.84239 6.97616v.83158q0 4.44534 1.83037 6.84612a6.18384 6.18384 0 0 0 5.22887 2.40079zm32.58598-19.49148a9.35175 9.35175 0 0 1 7.60667-3.58861q8.1514 0 8.22408 9.19882V327.146h-4.39725v-17.01855a5.92394 5.92394 0 0 0-1.272-4.112 5.09573 5.09573 0 0 0-3.88584-1.331 6.34528 6.34528 0 0 0-3.7558 1.14084 7.74983 7.74983 0 0 0-2.51989 2.99524V327.146h-4.39725v-36.509h4.39725zm33.5749 23.08009a11.23285 11.23285 0 0 1-8.50928-3.43453A12.74383 12.74383 0 0 1 1428.37227 315v-.80864a15.43174 15.43174 0 0 1 1.46211-6.833 11.3957 11.3957 0 0 1 4.088-4.7065 10.2848 10.2848 0 0 1 5.69216-1.69923 9.63491 9.63491 0 0 1 7.79682 3.3034q2.78 3.3045 2.78106 9.46v1.83036h-17.4229a9.13932 9.13932 0 0 0 2.22267 6.14457 6.98155 6.98155 0 0 0 5.407 2.34177 7.66028 7.66028 0 0 0 3.94594-.95069 9.907 9.907 0 0 0 2.82806-2.5199l2.686 2.09153q-3.23244 4.96825-9.69719 4.9677zm-.54747-23.05605a5.86433 5.86433 0 0 0-4.46827 1.93746 9.415 9.415 0 0 0-2.23469 5.431h12.88359v-.3322a8.38938 8.38938 0 0 0-1.80632-5.19386 5.52508 5.52508 0 0 0-4.3743-1.8424zm32.02759 22.58068a9.20021 9.20021 0 0 1-.61741-2.71 9.80945 9.80945 0 0 1-7.32146 3.18538 9.082 9.082 0 0 1-6.23963-2.15054 6.96238 6.96238 0 0 1-2.43576-5.455 7.26888 7.26888 0 0 1 3.05426-6.23963q3.0537-2.22267 8.59233-2.22267h4.27814V309.533a4.93829 4.93829 0 0 0-1.378-3.67166 5.54038 5.54038 0 0 0-4.06505-1.367 6.41009 6.41009 0 0 0-3.94485 1.18892 3.50061 3.50061 0 0 0-1.59324 2.875h-4.42129a6.06908 6.06908 0 0 1 1.367-3.71974 9.33825 9.33825 0 0 1 3.70772-2.84007 12.47455 12.47455 0 0 1 5.14688-1.04577 10.16882 10.16882 0 0 1 6.96413 2.22266 8.01738 8.01738 0 0 1 2.61387 6.12053v11.83673a14.46934 14.46934 0 0 0 .90371 5.63315v.38028zm-7.29742-3.35148a7.72219 7.72219 0 0 0 3.9219-1.06981 6.46462 6.46462 0 0 0 2.686-2.78106v-5.27582h-3.4466q-8.08093 0-8.08093 4.72944a4.00092 4.00092 0 0 0 1.378 3.23237 5.29744 5.29744 0 0 0 3.54163 1.1649zm23.16314 3.35148h-4.39725v-36.509h4.39725zm13.48898-31.9456v6.2276h4.80157v3.39847h-4.80157V320.796a3.56962 3.56962 0 0 0 .64144 2.31992 2.7002 2.7002 0 0 0 2.18661.77367 10.64524 10.64524 0 0 0 2.09153-.28521v3.5449a12.82572 12.82572 0 0 1-3.37443.47207 5.47854 5.47854 0 0 1-4.44533-1.78228 7.66275 7.66275 0 0 1-1.49707-5.06274v-15.94984h-4.68246V301.428h4.68246v-6.2276zm14.81886 9.34088a9.35175 9.35175 0 0 1 7.60667-3.58861q8.1514 0 8.22408 9.19882V327.146h-4.39725v-17.01855a5.92394 5.92394 0 0 0-1.272-4.112 5.09573 5.09573 0 0 0-3.88584-1.331 6.34528 6.34528 0 0 0-3.7558 1.14084 7.74983 7.74983 0 0 0-2.51989 2.99524V327.146h-4.39725v-36.509h4.39725z"/><path d="M1533.9281 20.87283h-7.00456v19.44231h-2.85865V20.87283h-6.98927v-2.34942h16.85248zm7.25153-2.34942l7.12477 17.78022 7.12367-17.78022h3.72739v21.79173h-2.87395V31.8288l.26991-9.15948-7.15427 17.64582h-2.20081l-7.139-17.601.28412 9.11468v8.48634h-2.87286V18.52341z"/></svg>