<svg xmlns="http://www.w3.org/2000/svg" role="img" viewBox="2.15 1.65 140.46 200.46"><title>ShareTrace logo</title><defs><style>.cls-1{fill:#757577}</style></defs><path d="M6.30266 155.65353l1.478-1.57813a12.88691 12.88691 0 0 0 9.65576 4.44922c5.02295 0 8.188-2.6914 8.188-6.61035 0-4.10937-2.68066-5.418-5.9209-6.876l-4.98777-2.23627c-2.86572-1.2627-6.67529-3.30957-6.67529-8.18262 0-4.77832 4.09375-8.1084 9.56591-8.1084a12.585 12.585 0 0 1 9.16651 3.93945l-1.32813 1.52735a10.48922 10.48922 0 0 0-7.83838-3.37989c-4.34375 0-7.25976 2.32129-7.25976 5.88184 0 3.83887 3.28515 5.28711 5.69189 6.3457l4.97754 2.22168c3.68457 1.64258 6.92481 3.67481 6.92481 8.707 0 5.043-4.14356 8.85645-10.52442 8.85645a14.4611 14.4611 0 0 1-11.11377-4.95703zM34.853 127.11056h2.29638v14.41895h17.5942v-14.41895H57.04v32.90137h-2.29642v-16.47559H37.14934v16.47559H34.853zm39.04488 0h2.2959l11.59375 32.90137H85.351l-6.57031-19.37207c-1.33789-3.9043-2.49707-7.35352-3.65527-11.36328h-.19922c-1.14844 4.01464-2.30664 7.459-3.645 11.36328l-6.6602 19.37207h-2.3164zm-6.30127 19.68555H82.35v1.92189H67.59661zm25.37451-19.68555h9.40625c6.541 0 10.82422 2.39648 10.82422 8.68652 0 5.9961-4.2832 9.10645-10.82422 9.10645H95.268v15.1084h-2.29688zm8.80762 15.85645c5.82129 0 9.05664-2.30665 9.05664-7.16993 0-4.95215-3.23535-6.75-9.05664-6.75H95.268V142.967zm.085 1.26269l2.19629-.6582 9.7705 16.44043h-2.666zm18.26851-17.11914h18.00391v1.97656h-15.707V141.549h13.19043v1.97656h-13.19046v14.50976h16.206v1.97657h-18.50288zM6.083 172.649h8.578v25.257h7.047v-25.257h8.579v-5.911H6.083v5.911zm52.32585 3.79554c0-7.41015-5.41894-9.706-12.02978-9.706H35.154v31.168h7.04687v-11.2168h3.87452l5.95068 11.2168h7.88525l-7.05548-12.4707c3.32916-1.50384 5.55301-4.40908 5.55301-8.9913zm-16.208-4.11132h3.6045c3.70654 0 5.69726 1.02929 5.69726 4.11132 0 3.06543-1.99072 4.65137-5.69726 4.65137h-3.6045zm27.68701-5.59473l-9.78858 31.168h7.20459l1.92578-7.42481h9.50269l1.91772 7.42481h7.458l-9.78906-31.168zm.762 18.26758l.74823-2.88477c.86621-3.11621 1.69873-6.76172 2.45215-10.05273h.1914c.833 3.251 1.665 6.93652 2.53125 10.05273l.74512 2.88477zm33.64864 7.39062c-4.55566 0-7.53711-3.72363-7.53711-10.13086 0-6.249 3.375-10.0166 7.64941-10.0166a7.83205 7.83205 0 0 1 5.502 2.48047l3.71387-4.51953a13.14776 13.14776 0 0 0-9.37305-4.0459c-7.876 0-14.71289 5.99805-14.71289 16.33887 0 10.498 6.59961 15.97754 14.50488 15.97754a12.8334 12.8334 0 0 0 10.06543-4.57422l-3.71484-4.42383a8.21451 8.21451 0 0 1-6.0977 2.91406zm21.5955-.39969v-7.18h10.626v-5.911h-10.626v-6.257h12.483v-5.911h-19.53v31.168h20.008v-5.909h-12.961zm-53.26664-79.80734c-20.58985 0-44.9624-33.13379-44.96289-61.126C27.664 31.67062 36.92423 20.781 44.69279 15.06027a49.43675 49.43675 0 0 1 27.83447-9.3916 52.1665 52.1665 0 0 1 26.93652 7.959c11.665 7.59961 17.82325 19.895 17.80957 35.55615-.03418 39.03611-26.02635 63.00584-44.64599 63.00584zm-.1001-103.521a46.28024 46.28024 0 0 0-26.05566 8.80713c-10.34131 7.61524-15.80713 19.23-15.80713 33.58789 0 12.64405 5.30127 27.36182 14.18066 39.37012 8.6836 11.74414 19.06934 18.75586 27.78223 18.75586 25.39013 0 41.62451-35.541 41.646-60.00879.0127-14.80469-5.5205-25.9209-16.44726-33.04a48.99518 48.99518 0 0 0-25.29884-7.4722z" class="cls-1"/><circle cx="72.469" cy="38.545" r="15.966" fill="#70a3ba"/><g id="E4dNlI"><path d="M72.60237 76.04626a20.67 20.67 0 0 1 14.08773 5.52313 8.817 8.817 0 0 1 .70635.67132 2.61212 2.61212 0 0 1-.74391 4.15629 1.81713 1.81713 0 0 1-1.9306.06279 13.86253 13.86253 0 0 1-1.8741-1.31656 15.91425 15.91425 0 0 0-20.88493.14666 4.75116 4.75116 0 0 1-1.881 1.21024 2.56991 2.56991 0 0 1-2.89946-1.15664 2.534 2.534 0 0 1 .36573-3.09432 19.55242 19.55242 0 0 1 11.00374-5.81685 24.55394 24.55394 0 0 1 4.05045-.38606z" class="cls-1"/><path d="M71.80571 84.84008c3.74573.05386 7.0925 1.1001 9.67654 3.96691a2.55648 2.55648 0 0 1-.24646 3.88409 2.607 2.607 0 0 1-3.33629-.16408 17.246 17.246 0 0 0-1.534-1.20145 6.87732 6.87732 0 0 0-8.36591.40326c-.35509.28413-.68506.60118-1.05063.87044a2.595 2.595 0 0 1-4.2149-1.50061 2.21393 2.21393 0 0 1 .49637-2.006 11.73358 11.73358 0 0 1 6.9129-4.06321c.28018-.05375.56274-.09891.84612-.13117.27076-.03092.54406-.03971.81626-.05818zm.67235 9.1504a3.112 3.112 0 1 1-.03791 6.223 3.06146 3.06146 0 0 1-3.12162-3.17871 3.13521 3.13521 0 0 1 3.15953-3.04429z" class="cls-1"/></g></svg>