<svg xmlns="http://www.w3.org/2000/svg" role="img" viewBox="-19.00 -18.50 936.00 758.00"><title>Singapore (Trace Together) logo</title><defs><style>.cls-1{fill:#ed2939}.cls-2{fill:#fff}</style></defs><path d="M-.718-.138h900v300h-900z" class="cls-1"/><path d="M-.718 299.862h900v300h-900z" class="cls-2"/><circle cx="188.865" cy="149.862" r="110.417" class="cls-2"/><circle cx="249.282" cy="149.862" r="120.833" class="cls-1"/><path d="M249.282 59.862l15.674 48.241-41.036-29.814h50.723l-41.036 29.814 15.675-48.241z" class="cls-2" id="s"/><path d="M334.877 122.051l-41.036 29.814 15.674-48.24 15.674 48.24-41.035-29.814h50.723z" class="cls-2" id="s-2" data-name="s"/><path d="M302.182 222.674l-41.036-29.814h50.724l-41.036 29.814 15.674-48.24 15.674 48.24z" class="cls-2" id="s-3" data-name="s"/><path d="M196.381 222.674l15.674-48.24 15.674 48.24-41.035-29.814h50.723l-41.036 29.814z" class="cls-2" id="s-4" data-name="s"/><path d="M163.687 122.051h50.723l-41.036 29.814 15.674-48.24 15.674 48.24-41.035-29.814z" class="cls-2" id="s-5" data-name="s"/><path d="M33.42962 691.22248a10.2259 10.2259 0 0 0 1.919 5.16114q2.61766 3.11131 8.96972 3.11035a19.29946 19.29946 0 0 0 6.17676-.82032q4.50147-1.57177 4.502-5.84472a4.30764 4.30764 0 0 0-2.20507-3.86231 23.93172 23.93172 0 0 0-6.99512-2.35839l-5.4541-1.19629q-8.042-1.77686-11.04883-3.86231-5.09327-3.48633-5.09278-10.90332a14.47876 14.47876 0 0 1 4.98243-11.24512q4.98194-4.47655 14.63574-4.47754a22.43982 22.43982 0 0 1 13.75391 4.22168q5.69238 4.22169 5.96875 12.25293H53.42474a7.21249 7.21249 0 0 0-4.06446-6.46 13.92846 13.92846 0 0 0-6.27246-1.26465 11.94052 11.94052 0 0 0-6.6582 1.64063 5.19231 5.19231 0 0 0-2.4873 4.58008 4.31955 4.31955 0 0 0 2.45312 4.0332 30.41438 30.41438 0 0 0 6.69336 2.085l8.84082 2.085a22.50965 22.50965 0 0 1 8.71387 3.65723q4.5044 3.55518 4.50488 10.28809a14.4572 14.4572 0 0 1-5.33789 11.46777q-5.33788 4.56151-15.08008 4.5625-9.94922 0-15.64941-4.49414-5.70117-4.49415-5.7002-12.35645zM80.0097 665.075h-9.87793v-8.98926h9.87793zm-9.87793 4.44336h9.87793v37.25586h-9.87793zm47.60351 2.13674q3.65919 3.02345 3.65918 10.03125v25.08789H111.414v-22.66113a10.40763 10.40763 0 0 0-.78028-4.51172q-1.42528-2.87109-5.42871-2.87109-4.92041 0-6.752 4.2041a14.53045 14.53045 0 0 0-.9502 5.67383v20.166h-9.74116v-37.1875h9.4336v5.43457a16.50027 16.50027 0 0 1 3.54-4.13574 12.26275 12.26275 0 0 1 7.58985-2.25586 14.27538 14.27538 0 0 1 9.41018 3.0254zm29.39747-2.1709a11.70287 11.70287 0 0 1 5.73437 5.40039v-5.36621h9.50195v35.3418q0 7.21143-2.42675 10.86914-4.17042 6.28857-15.9961 6.28906-7.144 0-11.65527-2.80273a10.34039 10.34039 0 0 1-4.99024-8.374h10.59571a4.391 4.391 0 0 0 1.333 2.46094q1.57177 1.333 5.29785 1.333 5.26318 0 7.041-3.52051 1.16163-2.25586 1.16211-7.58789v-2.39258a11.87667 11.87667 0 0 1-3.00781 3.58887 12.09486 12.09486 0 0 1-7.55371 2.22168 14.29156 14.29156 0 0 1-11.46778-5.042q-4.28905-5.04052-4.28906-13.6543a23.04027 23.04027 0 0 1 4.13088-13.96286q4.12939-5.65577 11.708-5.65625a12.81154 12.81154 0 0 1 4.88185.85445zm3.31738 26.71192q2.34814-2.58106 2.34863-8.22071 0-5.29687-2.22949-8.0664a7.27489 7.27489 0 0 0-5.97266-2.76856 7.03976 7.03976 0 0 0-7.0459 4.81934 17.13866 17.13866 0 0 0-1.02148 6.32324 14.47081 14.47081 0 0 0 1.08887 5.77637 7.09925 7.09925 0 0 0 7.08008 4.71679 7.48019 7.48019 0 0 0 5.75195-2.58007zm34.0166-12.08301a15.39338 15.39338 0 0 0 3.89062-.85449 2.92991 2.92991 0 0 0 2.10059-2.76856 3.27161 3.27161 0 0 0-1.61133-3.16113 10.16823 10.16823 0 0 0-4.72851-.87207q-3.49952 0-4.95508 1.709a7.04472 7.04472 0 0 0-1.38574 3.418h-9.39942a14.25831 14.25831 0 0 1 2.7461-8.03223q3.8789-4.92187 13.31933-4.92187a23.757 23.757 0 0 1 10.916 2.42676q4.771 2.42724 4.77148 9.16015v17.08985q0 1.77831.06836 4.30664a5.40788 5.40788 0 0 0 .58106 2.59765 3.47837 3.47837 0 0 0 1.43554 1.12793v1.43555h-10.5957a10.75438 10.75438 0 0 1-.61523-2.11914q-.17139-.99024-.27344-2.25586a20.10381 20.10381 0 0 1-4.67578 3.72559 14.13484 14.13484 0 0 1-7.15137 1.81152 12.33776 12.33776 0 0 1-8.40527-2.88867q-3.31788-2.88721-3.31739-8.18555 0-6.87012 5.33692-9.94629a23.8405 23.8405 0 0 1 8.6084-2.39258zm5.956 4.5459a10.68491 10.68491 0 0 1-1.88769.93945 15.888 15.888 0 0 1-2.61621.667l-2.21778.41016a14.62639 14.62639 0 0 0-4.47753 1.333 4.44887 4.44887 0 0 0-2.30079 4.13574 4.32259 4.32259 0 0 0 1.40528 3.60644 5.34657 5.34657 0 0 0 3.41894 1.11035 10.18229 10.18229 0 0 0 5.88282-1.8457q2.68944-1.8457 2.793-6.7334zm47.79888-15.14161q4.55861 4.81935 4.5586 14.1504 0 9.84375-4.45508 15.00488a14.45827 14.45827 0 0 1-11.47266 5.16113 12.03068 12.03068 0 0 1-7.43066-2.22168 14.353 14.353 0 0 1-3.165-3.58887v19.41407h-9.63871v-51.91895h9.33105v5.50293a15.6864 15.6864 0 0 1 3.3711-3.82812 12.44044 12.44044 0 0 1 7.77441-2.49512 14.73033 14.73033 0 0 1 11.12695 4.81933zm-7.47558 7.00684q-1.98633-3.31494-6.43946-3.31543a7.32412 7.32412 0 0 0-7.35547 5.02442 18.86168 18.86168 0 0 0-1.03613 6.76757q0 6.49512 3.48438 9.126a8.00135 8.00135 0 0 0 4.90429 1.53809 7.13071 7.13071 0 0 0 6.26954-3.14454 16.47143 16.47143 0 0 0 .17285-15.99609zm48.22363 21.69238q-4.71679 5.82276-14.32129 5.82227-9.605 0-14.32129-5.82227a23.11485 23.11485 0 0 1 0-27.98632q4.7168-5.90772 14.32129-5.90821 9.60351 0 14.32129 5.90821a23.11485 23.11485 0 0 1 0 27.98632zm-7.793-5.38379q2.28955-3.03808 2.29-8.63476 0-5.59863-2.29-8.61817a8.65837 8.65837 0 0 0-13.14258 0q-2.30566 3.02052-2.30664 8.61817 0 5.59716 2.30664 8.63476a8.62758 8.62758 0 0 0 13.14258 0zm38.42874-28.18554q.186.01758.83692.05078v9.98047q-.92286-.10254-1.64063-.13672-.71777-.03369-1.16211-.03418-5.87988 0-7.89551 3.82812a14.89408 14.89408 0 0 0-1.12793 6.63086v17.80762h-9.80957v-37.25586h9.29688v6.49414a20.59886 20.59886 0 0 1 3.93066-5.09277 10.70043 10.70043 0 0 1 7.10938-2.29c.18164-.00004.33594.00582.46191.01754zm29.07227 1.62597a15.15075 15.15075 0 0 1 6.4375 5.51075 18.31085 18.31085 0 0 1 2.96875 7.70312 47.68167 47.68167 0 0 1 .32129 7.39356h-27.13477q.22705 5.606 3.89551 7.86132a9.89525 9.89525 0 0 0 5.37109 1.40137 7.56571 7.56571 0 0 0 7.41406-4.27246h9.94532a12.16442 12.16442 0 0 1-3.61133 6.7334q-5.00537 5.43457-14.0166 5.43457a20.3121 20.3121 0 0 1-13.123-4.584q-5.68506-4.58349-5.68457-14.915 0-9.68116 5.13184-14.84668 5.13281-5.165 13.32324-5.166a21.20647 21.20647 0 0 1 8.76167 1.74605zm-14.57324 8.415a10.11877 10.11877 0 0 0-2.59473 5.7666h16.78223a8.12959 8.12959 0 0 0-2.59473-5.88671 8.53933 8.53933 0 0 0-5.77735-2.00879 7.7274 7.7274 0 0 0-5.81542 2.12894zm47.66992-9.58003a73.25309 73.25309 0 0 1 7.8955-13.53516h7.34864l-2.085 3.82812a56.99432 56.99432 0 0 0-5.98145 16.543 65.4261 65.4261 0 0 0-1.09375 12.37305 58.44784 58.44784 0 0 0 3.042 19.24316 87.81006 87.81006 0 0 0 6.28907 13.33008h-7.21192l-2.42676-3.31543a44.44063 44.44063 0 0 1-5.02441-8.95508 50.98641 50.98641 0 0 1-4.751-20.918 46.40034 46.40034 0 0 1 3.99908-18.59374zm56.458-12.71485v8.9209h-15.07324v41.46h-10.5957v-41.46h-15.1416v-8.9209zm20.48438 12.25391q.186.01758.83691.05078v9.98047q-.92284-.10254-1.64062-.13672-.71778-.03369-1.16211-.03418-5.87988 0-7.89551 3.82812a14.89408 14.89408 0 0 0-1.12793 6.63086v17.80762h-9.80957v-37.25586h9.29688v6.49414a20.59862 20.59862 0 0 1 3.93066-5.09277 10.70041 10.70041 0 0 1 7.10938-2.29c.18164-.00004.33593.00582.46191.01754zm19.55078 15.46582a15.3936 15.3936 0 0 0 3.89063-.85449 2.92991 2.92991 0 0 0 2.10058-2.76856 3.27161 3.27161 0 0 0-1.61133-3.16113 10.16821 10.16821 0 0 0-4.72851-.87207q-3.49952 0-4.95508 1.709a7.04472 7.04472 0 0 0-1.38574 3.418h-9.39942a14.25831 14.25831 0 0 1 2.7461-8.03223q3.87891-4.92187 13.31933-4.92187a23.757 23.757 0 0 1 10.916 2.42676q4.771 2.42724 4.77148 9.16015v17.08985q0 1.77831.06836 4.30664a5.40788 5.40788 0 0 0 .58106 2.59765 3.47837 3.47837 0 0 0 1.43554 1.12793v1.43555h-10.5957a10.75438 10.75438 0 0 1-.61523-2.11914q-.17139-.99024-.27344-2.25586a20.10381 20.10381 0 0 1-4.67578 3.72559 14.13484 14.13484 0 0 1-7.15137 1.81152 12.33776 12.33776 0 0 1-8.40527-2.88867q-3.31788-2.88721-3.31739-8.18555 0-6.87012 5.33692-9.94629a23.8405 23.8405 0 0 1 8.6084-2.39258zm5.95606 4.5459a10.685 10.685 0 0 1-1.8877.93945 15.888 15.888 0 0 1-2.61621.667l-2.21777.41016a14.62637 14.62637 0 0 0-4.47754 1.333 4.44886 4.44886 0 0 0-2.30078 4.13574 4.32262 4.32262 0 0 0 1.40527 3.60644 5.34657 5.34657 0 0 0 3.41894 1.11035 10.18229 10.18229 0 0 0 5.88282-1.8457q2.68945-1.8457 2.793-6.7334zm38.7539-5.77637a8.64549 8.64549 0 0 0-1.40429-3.75977 5.8982 5.8982 0 0 0-5.10547-2.25586q-4.93506 0-6.75 4.8877a20.29164 20.29164 0 0 0-.959 6.88672 18.65644 18.65644 0 0 0 .959 6.58008 6.51416 6.51416 0 0 0 6.5791 4.64843q3.42627 0 4.86523-1.8457a9.17951 9.17951 0 0 0 1.74707-4.78516h9.94629a16.29419 16.29419 0 0 1-3.21582 8.40821q-4.58643 6.39258-13.583 6.3916-8.99853 0-13.24121-5.332-4.24218-5.332-4.24218-13.82715 0-9.58595 4.68652-14.918 4.6875-5.332 12.93359-5.332 7.01367 0 11.47852 3.14453 4.46484 3.145 5.28613 11.1084zm39.17285-12.60938a15.15064 15.15064 0 0 1 6.4375 5.51075 18.31059 18.31059 0 0 1 2.96875 7.70312 47.68167 47.68167 0 0 1 .32129 7.39356H534.7431q.227 5.606 3.8955 7.86132a9.89531 9.89531 0 0 0 5.3711 1.40137 7.56571 7.56571 0 0 0 7.41406-4.27246h9.94531a12.1644 12.1644 0 0 1-3.61132 6.7334q-5.00538 5.43457-14.01661 5.43457a20.31207 20.31207 0 0 1-13.123-4.584q-5.68506-4.58349-5.68457-14.915 0-9.68116 5.13183-14.84668 5.13282-5.165 13.32324-5.166a21.20644 21.20644 0 0 1 8.76168 1.74605zm-14.57324 8.415a10.1189 10.1189 0 0 0-2.59473 5.7666h16.78223a8.12952 8.12952 0 0 0-2.59473-5.88671 8.53932 8.53932 0 0 0-5.77734-2.00879 7.72741 7.72741 0 0 0-5.81543 2.12894zm82.56738-22.29488v8.9209h-15.07324v41.46h-10.5957v-41.46h-15.1416v-8.9209zm29.52442 45.82324q-4.71679 5.82276-14.32129 5.82227-9.605 0-14.32129-5.82227a23.11485 23.11485 0 0 1 0-27.98632q4.7168-5.90772 14.32129-5.90821 9.60351 0 14.32129 5.90821a23.11485 23.11485 0 0 1 0 27.98632zm-7.793-5.38379q2.28956-3.03808 2.29-8.63476 0-5.59863-2.29-8.61817a8.65837 8.65837 0 0 0-13.14258 0q-2.30566 3.02052-2.30664 8.61817 0 5.59716 2.30664 8.63476a8.62758 8.62758 0 0 0 13.14258 0zM678.039 669.4842a11.70287 11.70287 0 0 1 5.73437 5.40039v-5.36621h9.50195v35.3418q0 7.21143-2.42675 10.86914-4.17042 6.28857-15.9961 6.28906-7.144 0-11.65527-2.80273a10.34039 10.34039 0 0 1-4.99024-8.374h10.59571a4.391 4.391 0 0 0 1.333 2.46094q1.57178 1.333 5.29785 1.333 5.26319 0 7.041-3.52051 1.16163-2.25586 1.16211-7.58789v-2.39258a11.87667 11.87667 0 0 1-3.00781 3.58887 12.09486 12.09486 0 0 1-7.55371 2.22168 14.29156 14.29156 0 0 1-11.46778-5.042q-4.28905-5.04052-4.28906-13.6543a23.04027 23.04027 0 0 1 4.13086-13.96289q4.1294-5.65577 11.708-5.65625a12.81154 12.81154 0 0 1 4.88187.85448zm3.31738 26.71192q2.34815-2.58106 2.34863-8.22071 0-5.29687-2.22949-8.0664a7.27489 7.27489 0 0 0-5.97266-2.76856 7.03976 7.03976 0 0 0-7.0459 4.81934 17.13866 17.13866 0 0 0-1.02148 6.32324 14.47081 14.47081 0 0 0 1.08887 5.77637 7.09925 7.09925 0 0 0 7.08008 4.71679 7.48019 7.48019 0 0 0 5.75195-2.58007zm43.53808-25.92286a15.15064 15.15064 0 0 1 6.4375 5.51075 18.31059 18.31059 0 0 1 2.96875 7.70312 47.68167 47.68167 0 0 1 .32129 7.39356h-27.13476q.227 5.606 3.89551 7.86132a9.89525 9.89525 0 0 0 5.37109 1.40137 7.56571 7.56571 0 0 0 7.41406-4.27246h9.94531a12.1644 12.1644 0 0 1-3.61132 6.7334q-5.00538 5.43457-14.01661 5.43457a20.31207 20.31207 0 0 1-13.123-4.584q-5.68506-4.58349-5.68457-14.915 0-9.68116 5.13183-14.84668 5.13282-5.165 13.32325-5.166a21.20642 21.20642 0 0 1 8.76167 1.74605zm-14.57324 8.415a10.11882 10.11882 0 0 0-2.59472 5.7666h16.78222a8.12955 8.12955 0 0 0-2.59472-5.88671 8.53937 8.53937 0 0 0-5.77735-2.00879 7.72744 7.72744 0 0 0-5.81543 2.12894zm23.64844-1.88961v-6.93847h5.19534v-10.39063h9.63867v10.39063h6.04981v6.93847h-6.04981v19.6875q0 2.291.58106 2.8545.58008.5625 3.55469.56347c.29589 0 .60937-.00488.93945-.0166s.65527-.02832.97461-.05176v7.28024l-4.61426.1709q-6.90527.23877-9.43359-2.39258-1.64063-1.67432-1.64063-5.16109v-22.93458zm52.16406-7.07421a10.9453 10.9453 0 0 1 4.61133 3.66015 9.76213 9.76213 0 0 1 1.87109 4.29395 53.01012 53.01012 0 0 1 .34082 7.20117v21.89453h-9.94628v-22.68652a10.05888 10.05888 0 0 0-1.01758-4.85938q-1.32423-2.6001-5.02149-2.60058a6.88839 6.88839 0 0 0-5.81933 2.584q-1.98488 2.58252-1.98438 7.37305v20.18945h-9.74121v-50.21h9.74121v17.77344a11.90277 11.90277 0 0 1 4.88379-4.52832 13.73377 13.73377 0 0 1 5.83594-1.28223 15.77618 15.77618 0 0 1 6.24609 1.19729zm38.51074.54882a15.15064 15.15064 0 0 1 6.4375 5.51075 18.31059 18.31059 0 0 1 2.96875 7.70312 47.68167 47.68167 0 0 1 .32129 7.39356h-27.13476q.227 5.606 3.89551 7.86132a9.89525 9.89525 0 0 0 5.37109 1.40137 7.56571 7.56571 0 0 0 7.41406-4.27246h9.94531a12.1644 12.1644 0 0 1-3.61132 6.7334q-5.00538 5.43457-14.01661 5.43457a20.31207 20.31207 0 0 1-13.123-4.584q-5.68506-4.58349-5.68457-14.915 0-9.68116 5.13183-14.84668 5.13282-5.165 13.32325-5.166a21.20642 21.20642 0 0 1 8.76167 1.74605zm-14.57324 8.415a10.11882 10.11882 0 0 0-2.59472 5.7666h16.78222a8.12955 8.12955 0 0 0-2.59472-5.88671 8.53937 8.53937 0 0 0-5.77735-2.00879 7.72744 7.72744 0 0 0-5.81543 2.12894zm48.17285-10.04097q.186.01758.83692.05078v9.98047q-.92286-.10254-1.64063-.13672-.71777-.03369-1.16211-.03418-5.87988 0-7.8955 3.82812a14.89394 14.89394 0 0 0-1.12793 6.63086v17.80762h-9.80957v-37.25586h9.29687v6.49414a20.5991 20.5991 0 0 1 3.93066-5.09277 10.70043 10.70043 0 0 1 7.10938-2.29c.18164-.00004.33594.00582.46191.01754zm16.3545.46094a46.47348 46.47348 0 0 1 3.99218 18.59375 51.08111 51.08111 0 0 1-4.74218 20.918 44.57486 44.57486 0 0 1-5.01563 8.95508l-2.42285 3.31543h-7.19922a87.9669 87.9669 0 0 0 6.26563-13.33008 58.65406 58.65406 0 0 0 3.03125-19.24316 65.68092 65.68092 0 0 0-1.08985-12.37305 57.14022 57.14022 0 0 0-5.959-16.543l-2.07813-3.82812h7.33594a73.28677 73.28677 0 0 1 7.88186 13.53515z"/></svg>