<svg xmlns="http://www.w3.org/2000/svg" role="img" viewBox="-18.50 -18.50 936.00 774.00"><title>Singapore (Trace Together) logo</title><defs><style>.cls-1{fill:#ed2939}.cls-2{fill:#fff}</style></defs><path d="M43.72454 671.39436v9.00976H28.50091v41.876H17.79876v-41.876H2.50579v-9.00976zm21.75098 12.37597q.189.01758.8457.05176v10.08106q-.9331-.104-1.65722-.13867-.7251-.03371-1.17383-.03418-5.93848 0-7.97461 3.86621a15.03782 15.03782 0 0 0-1.13965 6.69726v17.98633h-9.90723v-37.62891h9.38965v6.5586a20.80677 20.80677 0 0 1 3.96973-5.14356 10.80844 10.80844 0 0 1 7.18066-2.31347c.18457 0 .33985.00683.4668.01757zm20.80664 15.6211a15.55816 15.55816 0 0 0 3.92969-.86231 2.96152 2.96152 0 0 0 2.12207-2.79687 3.30722 3.30722 0 0 0-1.62793-3.19336 10.284 10.284 0 0 0-4.77637-.87988q-3.53466 0-5.00391 1.72558a7.12682 7.12682 0 0 0-1.40039 3.45215h-9.49316a14.39628 14.39628 0 0 1 2.77344-8.1123q3.91845-4.97169 13.45312-4.97168a23.98824 23.98824 0 0 1 11.02539 2.45117q4.81933 2.45214 4.81934 9.25195v17.26172q0 1.79444.06933 4.34961a5.4486 5.4486 0 0 0 .58692 2.624 3.51679 3.51679 0 0 0 1.44922 1.13867v1.4502H93.50775a10.92866 10.92866 0 0 1-.62207-2.14062q-.17286-1.0005-.27637-2.27833a20.26992 20.26992 0 0 1-4.72168 3.7627 14.27452 14.27452 0 0 1-7.22363 1.83008 12.4625 12.4625 0 0 1-8.48926-2.917q-3.35157-2.91651-3.35059-8.26856 0-6.939 5.38965-10.0459a24.10043 24.10043 0 0 1 8.69531-2.416zm6.0166 4.5918a10.87217 10.87217 0 0 1-1.90723.94921 16.17861 16.17861 0 0 1-2.64257.67383l-2.23926.41406a14.7486 14.7486 0 0 0-4.52246 1.34571 4.4952 4.4952 0 0 0-2.32422 4.17773 4.36319 4.36319 0 0 0 1.41894 3.6416 5.39083 5.39083 0 0 0 3.45313 1.12207 10.27722 10.27722 0 0 0 5.94141-1.86425q2.71728-1.86328 2.82226-6.80079zm40.20215-5.83399a8.71814 8.71814 0 0 0-1.418-3.79785 5.958 5.958 0 0 0-5.15625-2.27832q-4.98486 0-6.81836 4.93652a20.509 20.509 0 0 0-.96875 6.95606 18.84868 18.84868 0 0 0 .96875 6.6455 6.57975 6.57975 0 0 0 6.64453 4.69532q3.46143 0 4.91407-1.86426a9.26786 9.26786 0 0 0 1.76562-4.833h10.0459a16.46023 16.46023 0 0 1-3.24805 8.49219q-4.63184 6.457-13.71972 6.45605-9.0879 0-13.373-5.38574-4.28467-5.38476-4.28516-13.96484 0-9.68262 4.7334-15.06836 4.73438-5.38478 13.06348-5.38574 7.084 0 11.59375 3.17675 4.50879 3.17578 5.33886 11.21973zm40.62695-12.73633a15.30954 15.30954 0 0 1 6.502 5.56641 18.496 18.496 0 0 1 2.998 7.7793 47.96674 47.96674 0 0 1 .32422 7.46875h-27.40625q.23 5.66162 3.93555 7.94043a9.99476 9.99476 0 0 0 5.4248 1.415 7.64441 7.64441 0 0 0 7.48828-4.31543h10.04395a12.28275 12.28275 0 0 1-3.64746 6.80079q-5.05518 5.48877-14.15625 5.48925a20.51106 20.51106 0 0 1-13.25488-4.62988q-5.74219-4.62891-5.74219-15.06543 0-9.77637 5.18457-14.99512 5.18262-5.2163 13.45605-5.21777a21.42046 21.42046 0 0 1 8.84961 1.7637zm-14.71875 8.5a10.2149 10.2149 0 0 0-2.62109 5.82422h16.95019a8.209 8.209 0 0 0-2.62109-5.94629 8.625 8.625 0 0 0-5.835-2.02832 7.79955 7.79955 0 0 0-5.87301 2.15039zm85.51465-22.51855v9.00976h-15.22363v41.876H217.998v-41.876h-15.293v-9.00976zm30.88184 46.28222q-4.76514 5.88135-14.46485 5.88086-9.70166 0-14.46484-5.88086a23.344 23.344 0 0 1 0-28.2666q4.76367-5.96776 14.46484-5.96777 9.7002 0 14.46485 5.96777a23.34777 23.34777 0 0 1 0 28.2666zm-7.8711-5.4375q2.31153-3.06883 2.3125-8.72168 0-5.65429-2.3125-8.7041a8.74526 8.74526 0 0 0-13.27441 0q-2.33057 3.04981-2.33008 8.7041 0 5.65431 2.33008 8.72168a8.71447 8.71447 0 0 0 13.27441 0zm37.58594-27.62308a11.82217 11.82217 0 0 1 5.792 5.45508v-5.41993h9.59668v35.69532q0 7.28466-2.45117 10.97851-4.21143 6.35157-16.15625 6.35156-7.21583 0-11.77148-2.83007a10.44617 10.44617 0 0 1-5.041-8.458h10.70215a4.43016 4.43016 0 0 0 1.34668 2.48535q1.58643 1.34619 5.35058 1.34668 5.31592 0 7.11133-3.55566 1.17334-2.27931 1.17383-7.66407v-2.417a11.98879 11.98879 0 0 1-3.03808 3.625 12.21376 12.21376 0 0 1-7.62891 2.24414 14.43694 14.43694 0 0 1-11.582-5.0918q-4.333-5.09179-4.333-13.792a23.27 23.27 0 0 1 4.17187-14.10254q4.17188-5.71289 11.82618-5.71386a12.93924 12.93924 0 0 1 4.93059.86329zm3.35059 26.97949q2.37158-2.606 2.37207-8.30273 0-5.35109-2.252-8.14747a7.34651 7.34651 0 0 0-6.0332-2.79589 7.11085 7.11085 0 0 0-7.11621 4.86718 17.33248 17.33248 0 0 0-1.03125 6.38672 14.622 14.622 0 0 0 1.09961 5.834 7.17 7.17 0 0 0 7.15137 4.76465 7.55478 7.55478 0 0 0 5.80958-2.60642zm45.03515-26.18258a15.30948 15.30948 0 0 1 6.502 5.56641 18.496 18.496 0 0 1 2.998 7.7793 47.96674 47.96674 0 0 1 .32422 7.46875h-27.40625q.23 5.66162 3.93555 7.94043a9.99476 9.99476 0 0 0 5.4248 1.415 7.64441 7.64441 0 0 0 7.48828-4.31543h10.04395a12.28275 12.28275 0 0 1-3.64746 6.80079q-5.05518 5.48877-14.15625 5.48925a20.51106 20.51106 0 0 1-13.25488-4.62988q-5.74219-4.62891-5.74219-15.06543 0-9.77637 5.18457-14.99512 5.18262-5.2163 13.45605-5.21777a21.42046 21.42046 0 0 1 8.84961 1.7637zm-14.71875 8.5a10.2149 10.2149 0 0 0-2.62109 5.82422h16.95019a8.209 8.209 0 0 0-2.62109-5.94629 8.625 8.625 0 0 0-5.835-2.02832 7.79955 7.79955 0 0 0-5.87301 2.15039zm24.94434-1.90918v-7.00781h5.248V674.5008h9.73535v10.49512h6.11035v7.00781h-6.11035v19.88477q0 2.31445.58691 2.88281.58594.56982 3.58985.56934c.29882 0 .61523-.00489.94921-.0166s.66114-.02832.98438-.05176v7.35351l-4.66113.17188q-6.97266.24169-9.52735-2.416-1.6582-1.69189-1.65722-5.21289v-23.165zm53.74707-7.14453a11.04849 11.04849 0 0 1 4.6582 3.69727 9.86164 9.86164 0 0 1 1.88965 4.33691 53.56151 53.56151 0 0 1 .34473 7.27246v22.11426h-10.04688V699.366a10.15572 10.15572 0 0 0-1.02734-4.90723q-1.3374-2.62647-5.07227-2.62695a6.95831 6.95831 0 0 0-5.877 2.60937q-2.00536 2.60889-2.00488 7.44727v20.3916h-9.83887v-50.71285h9.83887v17.95117a12.0356 12.0356 0 0 1 4.93261-4.57422 13.88743 13.88743 0 0 1 5.89551-1.29492 15.93362 15.93362 0 0 1 6.30767 1.20996zm39.95801.55371a15.30951 15.30951 0 0 1 6.50195 5.56641 18.49585 18.49585 0 0 1 2.99805 7.7793 47.96925 47.96925 0 0 1 .32422 7.46875h-27.40625q.23 5.66162 3.93554 7.94043a9.9948 9.9948 0 0 0 5.42481 1.415 7.64441 7.64441 0 0 0 7.48828-4.31543h10.04394a12.28262 12.28262 0 0 1-3.64746 6.80079q-5.05517 5.48877-14.15625 5.48925a20.51108 20.51108 0 0 1-13.25488-4.62988q-5.74218-4.62891-5.74219-15.06543 0-9.77637 5.18457-14.99512 5.18262-5.2163 13.45606-5.21777a21.42049 21.42049 0 0 1 8.84961 1.7637zm-14.71875 8.5a10.21491 10.21491 0 0 0-2.6211 5.82422h16.9502a8.209 8.209 0 0 0-2.6211-5.94629 8.625 8.625 0 0 0-5.835-2.02832 7.79954 7.79954 0 0 0-5.873 2.15039zm49.71582-10.14258q.189.01758.8457.05176v10.08106q-.93311-.104-1.65723-.13867-.72508-.03371-1.17382-.03418-5.93848 0-7.97461 3.86621a15.03782 15.03782 0 0 0-1.13965 6.69726v17.98633h-9.90723v-37.62891h9.38965v6.5586a20.80653 20.80653 0 0 1 3.96973-5.14356 10.80844 10.80844 0 0 1 7.18066-2.31347c.18457 0 .33988.00683.4668.01757zm27.35937.46582a74.06145 74.06145 0 0 1 7.97461-13.67089h7.42285l-2.10644 3.86718a57.55767 57.55767 0 0 0-6.041 16.709 66.03416 66.03416 0 0 0-1.10449 12.49707 59.03218 59.03218 0 0 0 3.07227 19.43555 88.624 88.624 0 0 0 6.35253 13.46386h-7.28515l-2.4502-3.34863a44.80816 44.80816 0 0 1-5.07519-9.04492 51.50963 51.50963 0 0 1-4.79883-21.12793 46.87551 46.87551 0 0 1 4.03904-18.78029zm28.77637 22.33594a10.31417 10.31417 0 0 0 1.93848 5.21289q2.64256 3.1421 9.05859 3.1416a19.51015 19.51015 0 0 0 6.23926-.82812q4.54688-1.58789 4.54687-5.90332a4.35152 4.35152 0 0 0-2.22754-3.90137 24.16537 24.16537 0 0 0-7.06445-2.38183l-5.50977-1.208q-8.12109-1.79443-11.15917-3.90137-5.14453-3.52149-5.14356-11.01269a14.62277 14.62277 0 0 1 5.03223-11.35743q5.03173-4.522 14.7832-4.52246a22.66577 22.66577 0 0 1 13.8916 4.26367q5.748 4.26417 6.02832 12.376H568.165a7.28452 7.28452 0 0 0-4.10547-6.52441 14.06279 14.06279 0 0 0-6.335-1.27735 12.0577 12.0577 0 0 0-6.72461 1.65625 5.24371 5.24371 0 0 0-2.51269 4.626 4.36516 4.36516 0 0 0 2.47754 4.07422 30.72924 30.72924 0 0 0 6.76074 2.10547l8.92969 2.10644q5.87109 1.38135 8.80078 3.69336 4.5498 3.5918 4.5498 10.3916a14.59819 14.59819 0 0 1-5.3916 11.582q-5.39062 4.60839-15.23047 4.60839-10.04883 0-15.80664-4.53906-5.75831-4.53955-5.75781-12.48047zm48.10644-26.40918h-9.97656v-9.0791h9.97656zm-9.97656 4.48828h9.97656v37.62891h-9.97656zm49.1416 2.15723q3.69581 3.05567 3.69629 10.13184v25.33984h-10.08105v-22.88867a10.51354 10.51354 0 0 0-.78809-4.55664q-1.43994-2.9004-5.4834-2.89942-4.96875 0-6.81933 4.2461a14.68167 14.68167 0 0 0-.96 5.73047v20.36816h-9.83887v-37.56055h9.52832v5.48926a16.67639 16.67639 0 0 1 3.5752-4.17676 12.38466 12.38466 0 0 1 7.666-2.27929 14.42206 14.42206 0 0 1 9.50493 3.05566zm30.75196-2.19242a11.82217 11.82217 0 0 1 5.792 5.45508v-5.41993h9.59668v35.69532q0 7.28466-2.45117 10.97851-4.21143 6.35157-16.15625 6.35156-7.21583 0-11.77149-2.83007a10.44617 10.44617 0 0 1-5.041-8.458H656.664a4.43 4.43 0 0 0 1.34668 2.48535q1.58642 1.34619 5.35058 1.34668 5.31592 0 7.11133-3.55566 1.17335-2.27931 1.17383-7.66407v-2.417a11.98881 11.98881 0 0 1-3.03809 3.625 12.2137 12.2137 0 0 1-7.6289 2.24414 14.437 14.437 0 0 1-11.582-5.0918q-4.333-5.09179-4.333-13.792a23.27 23.27 0 0 1 4.17187-14.10254q4.17188-5.71289 11.82617-5.71386a12.93925 12.93925 0 0 1 4.93063.86329zm3.35058 26.97949q2.37159-2.606 2.37207-8.30273 0-5.35109-2.25195-8.14747a7.34654 7.34654 0 0 0-6.0332-2.79589 7.11085 7.11085 0 0 0-7.11621 4.86718 17.33248 17.33248 0 0 0-1.03125 6.38672 14.622 14.622 0 0 0 1.09961 5.834 7.17 7.17 0 0 0 7.15136 4.76465 7.55477 7.55477 0 0 0 5.80957-2.60642zm35.41797-12.20406a15.55816 15.55816 0 0 0 3.92969-.86231 2.96152 2.96152 0 0 0 2.12207-2.79687 3.30722 3.30722 0 0 0-1.62793-3.19336 10.284 10.284 0 0 0-4.77637-.87988q-3.53466 0-5.0039 1.72558a7.12663 7.12663 0 0 0-1.40039 3.45215h-9.49317a14.39628 14.39628 0 0 1 2.77344-8.1123q3.91845-4.97169 13.45312-4.97168a23.98824 23.98824 0 0 1 11.02539 2.45117q4.81935 2.45214 4.81934 9.25195v17.26172q0 1.79444.06934 4.34961a5.44862 5.44862 0 0 0 .58691 2.624 3.51679 3.51679 0 0 0 1.44922 1.13867v1.4502h-10.70117a10.92866 10.92866 0 0 1-.62207-2.14062q-.17286-1.0005-.27637-2.27833a20.2695 20.2695 0 0 1-4.72168 3.7627 14.27452 14.27452 0 0 1-7.22363 1.83008 12.46252 12.46252 0 0 1-8.48926-2.917q-3.35157-2.91651-3.35059-8.26856 0-6.939 5.38965-10.0459a24.10043 24.10043 0 0 1 8.69531-2.416zm6.0166 4.5918a10.87244 10.87244 0 0 1-1.90722.94921 16.17877 16.17877 0 0 1-2.64258.67383l-2.23926.41406a14.7486 14.7486 0 0 0-4.52246 1.34571 4.49521 4.49521 0 0 0-2.32422 4.17773 4.36316 4.36316 0 0 0 1.41895 3.6416 5.3908 5.3908 0 0 0 3.45312 1.12207 10.27722 10.27722 0 0 0 5.94141-1.86425q2.71728-1.86328 2.82226-6.80079zm49.33887-15.29297q4.604 4.86767 4.60352 14.292 0 9.94189-4.5 15.15527a14.60343 14.60343 0 0 1-11.58692 5.21289 12.14921 12.14921 0 0 1-7.50586-2.24414 14.48232 14.48232 0 0 1-3.19629-3.625v19.60938h-9.73535v-52.43947h9.42478v5.55762a15.831 15.831 0 0 1 3.40429-3.86621 12.56542 12.56542 0 0 1 7.85254-2.52051 14.8812 14.8812 0 0 1 11.23929 4.86817zm-7.55176 7.07714q-2.00537-3.34863-6.5039-3.34863a7.39764 7.39764 0 0 0-7.42871 5.07422 19.05063 19.05063 0 0 0-1.04688 6.83594q0 6.55958 3.51953 9.2168a8.07907 8.07907 0 0 0 4.9541 1.55371 7.20122 7.20122 0 0 0 6.33106-3.17579 16.63121 16.63121 0 0 0 .1748-16.15625zm49.76856 21.90918q-4.76514 5.88135-14.46485 5.88086-9.70165 0-14.46484-5.88086a23.344 23.344 0 0 1 0-28.2666q4.76367-5.96776 14.46484-5.96777 9.7002 0 14.46485 5.96777a23.34777 23.34777 0 0 1 0 28.2666zm-7.8711-5.4375q2.31153-3.06883 2.3125-8.72168 0-5.65429-2.3125-8.7041a8.74526 8.74526 0 0 0-13.27441 0q-2.33056 3.04981-2.33008 8.7041 0 5.65431 2.33008 8.72168a8.71447 8.71447 0 0 0 13.27441 0zm39.87403-28.46875q.189.01758.8457.05176v10.08106q-.93311-.104-1.65723-.13867-.72509-.03371-1.17382-.03418-5.93848 0-7.97461 3.86621a15.03782 15.03782 0 0 0-1.13965 6.69726v17.98633H813.33v-37.62891h9.38965v6.5586a20.80653 20.80653 0 0 1 3.96973-5.14356 10.80844 10.80844 0 0 1 7.18066-2.31347c.18458 0 .33985.00683.46681.01757zm30.42383 1.64258a15.30951 15.30951 0 0 1 6.50195 5.56641 18.49611 18.49611 0 0 1 2.99805 7.7793 47.96824 47.96824 0 0 1 .32421 7.46875h-27.40625q.23 5.66162 3.93555 7.94043a9.99478 9.99478 0 0 0 5.42481 1.415 7.64441 7.64441 0 0 0 7.48828-4.31543h10.04394a12.28275 12.28275 0 0 1-3.64746 6.80079q-5.05518 5.48877-14.15625 5.48925a20.51106 20.51106 0 0 1-13.25488-4.62988q-5.7422-4.62891-5.74219-15.06543 0-9.77637 5.18457-14.99512 5.18262-5.2163 13.45606-5.21777a21.42049 21.42049 0 0 1 8.84961 1.7637zm-14.71875 8.5a10.21491 10.21491 0 0 0-2.6211 5.82422H864.371a8.209 8.209 0 0 0-2.6211-5.94629 8.625 8.625 0 0 0-5.835-2.02832 7.79951 7.79951 0 0 0-5.87297 2.15039zm40.4873-9.67676a46.93189 46.93189 0 0 1 4.03223 18.78028 51.58862 51.58862 0 0 1-4.79 21.12793 44.94613 44.94613 0 0 1-5.06543 9.04492l-2.44727 3.34863h-7.27148a88.77982 88.77982 0 0 0 6.3291-13.46386 59.23838 59.23838 0 0 0 3.06152-19.43555 66.36923 66.36923 0 0 0-1.10058-12.49707 57.70619 57.70619 0 0 0-6.01953-16.709l-2.09766-3.86718h7.40918a74.03 74.03 0 0 1 7.95992 13.6709z"/><path d="M-.051-.138h900v300h-900z" class="cls-1"/><path d="M-.051 299.862h900v300h-900z" class="cls-2"/><circle cx="189.532" cy="149.862" r="110.417" class="cls-2"/><circle cx="249.949" cy="149.862" r="120.833" class="cls-1"/><path d="M249.949 59.862l15.674 48.241-41.036-29.814h50.723l-41.036 29.814 15.675-48.241z" class="cls-2" id="s"/><path d="M335.544 122.051l-41.036 29.814 15.674-48.24 15.674 48.24-41.035-29.814h50.723z" class="cls-2" id="s-2" data-name="s"/><path d="M302.849 222.674l-41.036-29.814h50.723l-41.035 29.814 15.674-48.24 15.674 48.24z" class="cls-2" id="s-3" data-name="s"/><path d="M197.048 222.674l15.674-48.24 15.674 48.24-41.035-29.814h50.723l-41.036 29.814z" class="cls-2" id="s-4" data-name="s"/><path d="M164.353 122.051h50.723l-41.035 29.814 15.674-48.24 15.674 48.24-41.036-29.814z" class="cls-2" id="s-5" data-name="s"/></svg>