<svg xmlns="http://www.w3.org/2000/svg" role="img" viewBox="-3.84 -10.34 563.68 499.18"><title>Sormas logo</title><defs><style>.cls-2{fill:#225ca1}.cls-3{fill:#c31a25}.cls-4{fill:#245ea2}</style></defs><path fill="#8297c6" d="M254.0603 1.63158c-89.62949 13.87849-148.21736 94.85908-140.80913 178.72587C120.51287 262.56507 185.57 325.969 267.3545 332.11162c-15.54829-.2049-30.86806-2.5131-46.0519-5.58517A314.66162 314.66162 0 0 1 27.05214 199.23163c-6.97975-9.93142-13.11616-20.379-19.16891-30.88518a3.66243 3.66243 0 0 1-.01735-4.17128C24.86554 133.2899 45.98929 105.608 72.10546 81.8703A313.12726 313.12726 0 0 1 202.806 10.47708a338.40053 338.40053 0 0 1 45.979-8.82088 48.47467 48.47467 0 0 1 5.2753-.02462zm49.92664 329.21081c83.00668-13.46648 141.1974-84.91466 140.95489-165.21351C444.68621 80.9606 379.14638 8.26832 294.25334.92291c11.15938-.179 22.1213 1.68957 33.034 3.62278A316.64474 316.64474 0 0 1 482.09345 79.7235c27.05521 24.16138 48.90433 52.43618 66.40431 84.14662.85274 1.54523 1.20122 2.61782.20652 4.42361-15.78968 28.66575-35.12243 54.63864-58.8151 77.25185-38.11561 36.37906-82.73777 61.42734-133.34532 75.88528-15.49669 4.42725-31.35765 7.11363-47.29015 9.37848a37.77679 37.77679 0 0 1-5.26677.03305z"/><path d="M268.73264 180.35167c.00009 24.97077-.05281 49.94178.07034 74.91195.01467 2.96662-.80018 3.685-3.70878 3.65535-14.95877-.15244-29.92031-.1277-44.87977-.01465-2.51679.019-3.40319-.456-3.39809-3.22994q.13812-75.26544.01605-150.53116c-.00337-2.46322.66961-3.17024 3.14627-3.15239 15.19506.10954 30.39211.13466 45.58657-.01646 2.83783-.02822 3.224 1.00064 3.21609 3.46527-.07992 24.97048-.04868 49.94129-.04868 74.91203z" class="cls-2"/><path d="M308.16813 49.53217c8.36574 0 16.73225.05888 25.09678-.04191 2.05517-.02476 2.8116.285 2.67 2.6622q-2.95227 49.53966-5.683 99.0925c-.61221 10.93279-1.19794 21.86876-1.59751 32.81052-.1008 2.76124-.68359 3.86946-3.76479 3.81447-11.1901-.1997-22.38668-.14678-33.57894-.02451-2.48115.0271-3.44918-.48505-3.59348-3.22127q-3.13636-59.43417-6.49967-118.85635c-.2476-4.46723-.38119-8.95359-.9292-13.3864-.31405-2.5398.55569-2.9208 2.783-2.89226 8.36438.10723 16.73107.04297 25.09681.04301z" class="cls-3"/><path d="M153.43 219.22583c.00034-11.8842.05342-23.76886-.04609-35.65223-.01907-2.27985.30965-3.28892 2.98135-3.26581q23.12153.2 46.24574.01367c2.3025-.01475 2.98255.59782 2.97487 2.93266q-.12039 36.3582 0 72.71689c.00786 2.362-.72717 2.941-3.00887 2.9269q-23.12244-.1428-46.24609.00084c-2.3252.01484-2.97151-.65615-2.9514-2.96172.10655-12.23628.05003-24.47403.05049-36.7112z" class="cls-2"/><path d="M308.4556 210.11568c7.42005.0002 14.84114.06725 22.25964-.04243 2.10557-.03111 2.84914.51217 2.83464 2.743q-.1411 21.72735-.0101 43.456c.00984 1.98074-.54464 2.62712-2.57668 2.61705q-22.78976-.11307-45.57993.01408c-2.36749.01681-2.64348-.93056-2.63425-2.91242.06585-14.24967.08958-28.5002-.0176-42.74939-.01821-2.42431.5739-3.24254 3.11192-3.18612 7.53414.16747 15.0745.06002 22.61236.06023z" class="cls-3"/><path d="M373.58058 258.85245c-7.77052.00041-15.54286-.09114-23.31062.05592-2.3485.04447-3.06134-.66119-2.98057-2.96946.15638-4.46805.123-8.94745.01-13.41813-.0504-1.99582.31517-2.93385 2.65548-2.91911q23.48736.148 46.97593.01134c2.00408-.00932 2.63994.58157 2.5841 2.58825q-.19611 7.058-.0006 14.12463c.05713 2.041-.65235 2.59036-2.6226 2.56583-7.7693-.09672-15.5406-.03967-23.31112-.03927z" class="cls-4"/><path fill="none" d="M147.58231 420.40547c-18.89356 0-23.93457 14.14258-23.93457 22.499 0 13.80469 9.17138 22.37988 23.93457 22.37988 14.69043 0 23.81592-8.57519 23.81592-22.37988 0-8.35642-5.01612-22.499-23.81592-22.499zm297.48584 36.43359v-14.52734c-25.09473 2.48633-42.60645 5.2168-42.60645 14.707 0 7.7832 9.293 8.624 13.28906 8.624 12.05664.00005 23.20118-5.54194 29.31739-8.80366z"/><path d="M63.03006 435.16719c-11.43164-1.36328-18.92432-2.59375-18.92432-7.09473 0-6.6709 9.6753-7.667 15.44239-7.667 10.26465 0 18.17383 3.46 23.5083 10.2832l1.65869 2.1211 10.21188-9.2832-1.28369-1.80664c-6.96582-9.80273-18.07959-14.56836-33.97558-14.56836-22.30371 0-30.25049 11.11621-30.25049 21.51953 0 16.35059 17.67724 18.49512 31.88135 20.21973 12.53808 1.52148 20.15087 2.83594 20.15087 8.248 0 6.01269-9.2207 8.1455-17.11669 8.1455-11.0542 0-19.93409-4.10937-26.39356-12.21484l-1.66943-2.0957-10.93454 10.02349 1.57376 1.83593c9.18457 10.71485 20.81054 15.70508 36.58691 15.70508 20.74463 0 32.64258-8.06152 32.64258-22.11719-.00003-17.30371-18.35794-19.49409-33.10843-21.2539zm84.55225-28.01563c-22.37989 0-38.62354 14.53321-38.62354 34.55664 0 22.71778 14.79981 36.83008 38.62354 36.83008 23.75 0 38.5039-14.1123 38.5039-36.83008 0-20.02343-16.19336-34.55664-38.5039-34.55664zm23.81592 35.75293c0 13.80469-9.12549 22.37988-23.81592 22.37988-14.76319 0-23.93457-8.57519-23.93457-22.37988 0-8.35644 5.041-22.499 23.93457-22.499 18.7998-.00002 23.81592 14.14256 23.81592 22.499zm69.72021-35.75293c-10.61816 0-18.23389 5.73438-23.57568 11.07813v-9.16407h-14.689v67.5586h14.689v-39.51856c1.24072-2.86035 10.21728-15.624 21.543-15.624a31.27136 31.27136 0 0 1 6.10888.59961c.57813.10645 1.04639.18848 1.41553.22559l2.75.27636v-14.50197l-2.00879-.40234a30.993 30.993 0 0 0-6.23294-.52735zm105.37842 0c-8.9834 0-15.7168 2.61524-24.793 9.832-2.83594-4.47656-7.93652-9.832-20.541-9.832-9.3706 0-16.53711 3.64746-22.37988 7.95606v-6.042h-14.33056v67.5586h14.689v-46.63086c3.63135-3.36816 10.95215-9.58789 20.70605-9.58789 5.44727 0 11.01563 1.43652 11.01563 12.09375v44.125h14.68945v-46.63086c3.62988-3.36816 10.93164-9.58789 20.4668-9.58789 5.56543 0 11.25488 1.43652 11.25488 12.09375v44.125h14.68848v-47.71485c-.00003-13.62402-9.51956-21.75781-25.46585-21.75781zm113.26074 57.28418v-34.56933c0-14.43555-12.02832-22.71485-33.002-22.71485-22.53516 0-30.21485 9.4961-33.90528 14.05957l-1.916 2.36426 11.36621 7.82422 1.54883-1.78711c2.89648-3.34277 8.28711-9.56641 23.623-9.56641 8.11719 0 17.59571 2.415 17.59571 9.22168v.16309c-1.88379.21-3.80762.41211-5.75293.61621-23.93457 2.5166-51.06348 5.36816-51.06348 26.97168 0 13.67578 10.19727 21.51953 27.97754 21.51953a57.792 57.792 0 0 0 29.13379-7.76562c.252 1.4541.57715 2.84082.85547 3.957l.47265 1.89453h14.62793l-.54687-3.06641a47.45669 47.45669 0 0 1-1.01457-9.12204zm-57.2959-7.417c0-9.49023 17.51172-12.2207 42.60645-14.707v14.52734c-6.11621 3.26172-17.26075 8.80371-29.31739 8.80371-3.99609-.00002-13.28906-.84079-13.28906-8.62404zm110.66602-21.85155c-11.43067-1.36328-18.92383-2.59375-18.92383-7.09473 0-6.6709 9.6748-7.667 15.44238-7.667 10.26465 0 18.17383 3.46 23.50781 10.2832l1.65918 2.1211 10.21192-9.28321-1.28418-1.80664c-6.96582-9.80273-18.0791-14.56836-33.97559-14.56836-22.30371 0-30.25 11.11621-30.25 21.51953 0 16.35059 17.67676 18.49512 31.88086 20.21973 12.53809 1.52148 20.15137 2.83594 20.15137 8.248 0 6.01269-9.2207 8.1455-17.11719 8.1455-11.05371 0-19.93457-4.10937-26.39355-12.21484l-1.66992-2.0957-10.9336 10.02344 1.57324 1.83593c9.1836 10.71485 20.80957 15.70508 36.58692 15.70508 20.74511 0 32.64258-8.06152 32.64258-22.11719 0-17.30365-18.35743-19.49403-33.1084-21.25384z" class="cls-4"/></svg>