<svg xmlns="http://www.w3.org/2000/svg" role="img" viewBox="2.66 -0.59 368.94 217.19"><title>SpringML logo</title><style>svg {enable-background:new 0 0 373.91 215.28}</style><path d="M24.44 175.47c.76 1.54 1.77 2.78 3.02 3.74 1.26.95 2.73 1.66 4.43 2.12 1.69.46 3.45.69 5.26.69 1.23 0 2.54-.11 3.94-.32 1.4-.21 2.72-.63 3.94-1.25 1.23-.61 2.25-1.46 3.07-2.54.82-1.08 1.23-2.44 1.23-4.11 0-1.78-.54-3.23-1.62-4.34-1.08-1.11-2.5-2.03-4.25-2.77s-3.74-1.38-5.96-1.94c-2.22-.55-4.47-1.17-6.75-1.85-2.34-.61-4.62-1.37-6.84-2.26-2.22-.89-4.21-2.04-5.96-3.46-1.75-1.41-3.17-3.18-4.25-5.31-1.08-2.12-1.62-4.69-1.62-7.7 0-3.38.69-6.32 2.06-8.81s3.17-4.57 5.39-6.23c2.22-1.66 4.73-2.89 7.54-3.69 2.8-.8 5.61-1.2 8.41-1.2 3.27 0 6.41.38 9.42 1.15 3.01.77 5.68 2.02 8.02 3.74 2.34 1.72 4.19 3.92 5.57 6.6 1.37 2.68 2.06 5.92 2.06 9.73H47.23c-.12-1.97-.51-3.6-1.18-4.89-.67-1.29-1.56-2.31-2.67-3.04-1.11-.74-2.38-1.26-3.81-1.57-1.43-.31-3-.46-4.69-.46-1.11 0-2.22.12-3.33.37-1.11.25-2.12.68-3.02 1.29-.91.62-1.65 1.38-2.23 2.31-.58.92-.88 2.09-.88 3.51 0 1.29.23 2.34.7 3.14.47.8 1.39 1.54 2.76 2.21 1.37.68 3.27 1.35 5.7 2.03 2.42.68 5.59 1.54 9.51 2.58 1.17.25 2.79.69 4.86 1.34 2.07.65 4.13 1.68 6.18 3.09 2.04 1.42 3.81 3.31 5.3 5.67 1.49 2.37 2.23 5.4 2.23 9.09 0 3.01-.56 5.81-1.67 8.4-1.11 2.58-2.76 4.81-4.95 6.69-2.19 1.88-4.91 3.34-8.15 4.38s-7 1.57-11.26 1.57c-3.45 0-6.79-.45-10.04-1.34-3.24-.89-6.11-2.29-8.59-4.2-2.48-1.91-4.46-4.34-5.92-7.29s-2.16-6.46-2.1-10.52H23.3c0 2.23.38 4.11 1.14 5.65zm53.99-31.46v6.09h.18c1.52-2.58 3.45-4.46 5.78-5.63 2.34-1.17 4.91-1.75 7.71-1.75 3.56 0 6.63.71 9.2 2.12 2.57 1.42 4.7 3.29 6.4 5.63 1.69 2.34 2.95 5.06 3.77 8.17.82 3.11 1.23 6.35 1.23 9.73 0 3.2-.41 6.27-1.23 9.23-.82 2.95-2.06 5.57-3.73 7.84-1.67 2.28-3.74 4.09-6.22 5.44-2.48 1.35-5.39 2.03-8.72 2.03-2.8 0-5.39-.6-7.76-1.8-2.37-1.2-4.31-2.97-5.83-5.3h-.18v22.6H66.59v-64.4h11.84zm16.17 37.82c1.37-.86 2.48-1.98 3.33-3.37.85-1.38 1.45-3 1.8-4.84s.53-3.72.53-5.63c0-1.91-.19-3.78-.57-5.63-.38-1.85-1.01-3.49-1.88-4.94-.88-1.44-2-2.61-3.37-3.51-1.37-.89-3.05-1.34-5.04-1.34-2.05 0-3.75.45-5.13 1.34-1.37.89-2.48 2.05-3.33 3.46-.85 1.42-1.45 3.04-1.8 4.89s-.53 3.75-.53 5.72c0 1.91.19 3.78.57 5.63.38 1.85.99 3.46 1.84 4.84.85 1.38 1.97 2.51 3.37 3.37 1.4.86 3.1 1.29 5.08 1.29 2.05.02 3.76-.41 5.13-1.28zm34.49-37.82v8.86h.18c.58-1.48 1.37-2.84 2.37-4.11.99-1.26 2.13-2.34 3.42-3.23 1.29-.89 2.66-1.58 4.12-2.08 1.46-.49 2.98-.74 4.56-.74.82 0 1.72.15 2.72.46v12.18c-.58-.12-1.29-.23-2.1-.32-.82-.09-1.61-.14-2.37-.14-2.28 0-4.21.4-5.79 1.2-1.58.8-2.85 1.89-3.81 3.28-.96 1.38-1.65 3-2.06 4.84-.41 1.85-.61 3.84-.61 6v21.5h-12.45v-47.7h11.82zm32.17 0v47.7h-12.45v-47.7h12.45zm18.75 0v6.64h.26c1.58-2.77 3.62-4.78 6.13-6.04 2.51-1.26 5.08-1.89 7.71-1.89 3.33 0 6.06.48 8.2 1.43 2.13.95 3.81 2.28 5.04 3.97 1.23 1.69 2.09 3.75 2.58 6.18.5 2.43.75 5.12.75 8.07v29.34h-12.45v-26.94c0-3.94-.58-6.87-1.75-8.81-1.17-1.94-3.24-2.91-6.22-2.91-3.39 0-5.84 1.06-7.36 3.18s-2.28 5.61-2.28 10.47v25h-12.45V144h11.84zm80.07 51.2c-.5 2.46-1.56 4.75-3.2 6.87s-4 3.92-7.1 5.4c-3.1 1.48-7.25 2.21-12.45 2.21-2.22 0-4.49-.29-6.79-.88-2.31-.59-4.41-1.49-6.31-2.72-1.9-1.23-3.48-2.81-4.73-4.75-1.26-1.94-1.97-4.26-2.15-6.97h12.36c.58 2.46 1.72 4.17 3.42 5.12 1.69.95 3.65 1.43 5.87 1.43 3.51 0 6.06-1.11 7.67-3.32 1.61-2.21 2.38-5.01 2.32-8.4v-6.27h-.18c-1.34 2.52-3.26 4.38-5.74 5.58-2.48 1.2-5.1 1.8-7.84 1.8-3.39 0-6.31-.63-8.76-1.89-2.45-1.26-4.47-2.98-6.05-5.17-1.58-2.18-2.73-4.74-3.46-7.66s-1.1-6.01-1.1-9.27c0-3.07.42-6.04 1.27-8.9.85-2.86 2.09-5.38 3.73-7.57 1.63-2.18 3.67-3.92 6.09-5.21s5.22-1.94 8.37-1.94c2.98 0 5.59.58 7.84 1.75s4.13 3.14 5.65 5.9h.18v-6.37h11.83v44.66c0 1.93-.24 4.11-.74 6.57zm-17.05-15.87c1.34-.74 2.45-1.72 3.33-2.95.88-1.23 1.53-2.63 1.97-4.2.44-1.57.66-3.21.66-4.94 0-1.97-.18-3.83-.53-5.58s-.94-3.31-1.75-4.66c-.82-1.35-1.9-2.43-3.24-3.23-1.34-.8-3.04-1.2-5.08-1.2-1.75 0-3.26.37-4.51 1.11-1.26.74-2.31 1.74-3.16 3-.85 1.26-1.46 2.71-1.84 4.34-.38 1.63-.57 3.34-.57 5.12 0 1.72.16 3.43.48 5.12.32 1.69.88 3.21 1.67 4.57.79 1.35 1.83 2.46 3.11 3.32 1.28.86 2.89 1.29 4.82 1.29 1.75 0 3.3-.37 4.64-1.11z"/><path fill="#27aae1" d="M286.59 125.83l8.94 46.5h.18l9.03-46.5h18.67v65.88h-11.57v-52.59h-.17l-11.13 52.59h-9.82l-11.13-52.59h-.18v52.59h-11.57v-65.88h18.75zm42.95 0h12.62v54.99h22.35v10.89h-34.97v-65.88z"/><path fill="#c11c78" d="M142.72 6.6l98.6 39.63-.24 8.14-99.36-30.24zm47.71 49.74l64 11.71-.5 8.85-64.28-6.87zM153.4 84.12l-.97 17.14 88.91-8.92.51-8.86zm57.94 24.68l.81 10.74 45.79-13.75.44-7.85zm-62.52 19.05h12.43v14.4h-12.43z"/></svg>