<svg xmlns="http://www.w3.org/2000/svg" role="img" viewBox="-26.82 -25.82 952.64 764.64"><title>SwissCovid (Switzerland) logo</title><defs><style>.cls-2{fill:#fff}</style></defs><path d="M266.25008 703.77824a10.22582 10.22582 0 0 0 1.91895 5.16113q2.61766 3.11133 8.96972 3.11036a19.29946 19.29946 0 0 0 6.17676-.82032q4.50147-1.57178 4.50195-5.84472a4.30763 4.30763 0 0 0-2.20508-3.86231 23.93178 23.93178 0 0 0-6.99511-2.3584l-5.4541-1.19629q-8.042-1.77685-11.04883-3.8623-5.09327-3.48633-5.09278-10.90332A14.47874 14.47874 0 0 1 262.004 671.957q4.98194-4.47655 14.63574-4.47754a22.43977 22.43977 0 0 1 13.7539 4.22168q5.6924 4.22169 5.96875 12.25293H286.2452a7.21249 7.21249 0 0 0-4.06446-6.46 13.92846 13.92846 0 0 0-6.27246-1.26465 11.94052 11.94052 0 0 0-6.6582 1.64063 5.19231 5.19231 0 0 0-2.4873 4.58008 4.31955 4.31955 0 0 0 2.45312 4.0332 30.41438 30.41438 0 0 0 6.69336 2.085l8.84082 2.085a22.50965 22.50965 0 0 1 8.71387 3.65723q4.50439 3.55516 4.50488 10.28808a14.4572 14.4572 0 0 1-5.33789 11.46778q-5.33789 4.56151-15.08008 4.5625-9.94922 0-15.64941-4.49414-5.70117-4.49415-5.7002-12.35645zm55.88379-21.7041h9.87793l5.67383 26.831 5.81054-26.831h10.15137L342.84676 719.33h-10.01465l-5.84473-27.13867L321.0743 719.33h-10.11719l-10.459-37.25586h10.459l5.81055 26.72852zm46.89453-4.44336h-9.87793v-8.98926h9.87793zm-9.87793 4.44336h9.87793V719.33h-9.87793zm26.86524 25.36133a6.47785 6.47785 0 0 0 1.33984 3.6914q1.81934 1.94824 6.73047 1.94825a10.291 10.291 0 0 0 4.585-.8545 2.73645 2.73645 0 0 0 1.70019-2.56347 2.765 2.765 0 0 0-1.36921-2.49515q-1.36962-.854-10.1914-2.93945-6.3501-1.57178-8.94727-3.93067a8.51808 8.51808 0 0 1-2.59765-6.69922 11.61156 11.61156 0 0 1 4.05859-8.87011q4.05908-3.70752 11.42383-3.708 6.9873 0 11.38867 2.78613 4.40186 2.78613 5.05273 9.6211h-9.74121a5.75961 5.75961 0 0 0-1.0625-2.97364q-1.61133-1.98193-5.48437-1.98242a7.90281 7.90281 0 0 0-4.541.99121 2.85186 2.85186 0 0 0-1.35351 2.32422 2.54134 2.54134 0 0 0 1.43945 2.42676q1.43994.78661 10.1709 2.70019 5.82129 1.36816 8.72656 4.13575a9.39074 9.39074 0 0 1 2.87109 7.00683 11.31465 11.31465 0 0 1-4.127 9.041q-4.12792 3.50244-12.75684 3.50293-8.80371 0-12.998-3.708a12.05594 12.05594 0 0 1-4.19531-9.45117zm38.93066 0a6.47785 6.47785 0 0 0 1.33984 3.6914q1.81934 1.94824 6.73047 1.94825a10.291 10.291 0 0 0 4.585-.8545 2.73646 2.73646 0 0 0 1.7002-2.56347 2.765 2.765 0 0 0-1.36914-2.49512q-1.36964-.854-10.19141-2.93945-6.3501-1.57178-8.94726-3.93067a8.51806 8.51806 0 0 1-2.59766-6.69922 11.6116 11.6116 0 0 1 4.05859-8.87011q4.05909-3.70752 11.42383-3.708 6.9873 0 11.38867 2.78613 4.40186 2.78613 5.05274 9.6211H438.379a5.7597 5.7597 0 0 0-1.0625-2.97364q-1.61133-1.98193-5.48438-1.98242a7.90277 7.90277 0 0 0-4.541.99121 2.85184 2.85184 0 0 0-1.35352 2.32422 2.54134 2.54134 0 0 0 1.43945 2.42676q1.43994.78661 10.1709 2.70019 5.82129 1.36816 8.72656 4.13575a9.39071 9.39071 0 0 1 2.8711 7.00683 11.31466 11.31466 0 0 1-4.127 9.041q-4.12792 3.50244-12.75683 3.50293-8.80371 0-12.998-3.708a12.056 12.056 0 0 1-4.19531-9.45117zm36.97563-33.22266a20.743 20.743 0 0 1 15.4873-6.2207q12.57861 0 18.39453 8.33984a18.18007 18.18007 0 0 1 3.44922 9.39942h-10.52738a14.35113 14.35113 0 0 0-2.57813-5.46875q-2.8125-3.28125-8.33789-3.28125a10.27238 10.27238 0 0 0-8.873 4.63183q-3.24756 4.63184-3.248 13.10742 0 8.47705 3.42675 12.69727a10.73851 10.73851 0 0 0 8.71 4.22168q5.41553 0 8.25878-3.62305a15.918 15.918 0 0 0 2.60743-5.84472h10.459a22.695 22.695 0 0 1-6.915 13.39843q-5.562 5.16212-14.252 5.16114-10.75342 0-16.90723-6.97266-6.15381-7.00635-6.15429-19.209-.00009-13.19237 6.99991-20.3369zm76.02242 40.55957q-4.71681 5.82276-14.32129 5.82227-9.605 0-14.32129-5.82227a23.11486 23.11486 0 0 1 0-27.98633q4.71679-5.90771 14.32129-5.9082 9.60351 0 14.32129 5.9082a23.1149 23.1149 0 0 1 0 27.98633zm-7.793-5.38379q2.28954-3.03809 2.29-8.63476 0-5.59863-2.29-8.61817a8.65837 8.65837 0 0 0-13.14258 0q-2.30566 3.0205-2.30664 8.61817 0 5.59716 2.30664 8.63476a8.62758 8.62758 0 0 0 13.14258 0zm42.43458-27.31445h10.459L569.5909 719.33h-10.27051l-13.36133-37.25586h10.9375l7.75977 27.48047zm25.99318-4.44336h-9.87793v-8.98926h9.87793zm-9.87793 4.44336h9.87793V719.33h-9.87793zm39.06738.59766a11.852 11.852 0 0 1 4.27247 4.11914V669.0175h9.8779V719.33h-9.46778v-5.16113a13.73455 13.73455 0 0 1-4.751 4.81933 13.34668 13.34668 0 0 1-6.63086 1.50391 13.84425 13.84425 0 0 1-10.98926-5.28125q-4.459-5.2793-4.46-13.55176 0-9.53613 4.3916-15.00488a14.29015 14.29015 0 0 1 11.74121-5.46875 12.02687 12.02687 0 0 1 6.01572 1.48633zm2.39258 26.541a13.58968 13.58968 0 0 0 2.15332-7.96387q0-6.835-3.45215-9.77539a7.43239 7.43239 0 0 0-4.92187-1.77734 6.845 6.845 0 0 0-6.27246 3.22949 14.97884 14.97884 0 0 0-1.999 8.01563 14.81988 14.81988 0 0 0 2.03418 8.2539 6.87471 6.87471 0 0 0 6.16894 3.09375 7.19241 7.19241 0 0 0 6.28904-3.07616z"/><path fill="red" d="M-8.033-7.372h915.621v610.414H-8.033z"/><path d="M259.023 240.609h381.509v114.453H259.023z" class="cls-2"/><path d="M392.551 107.081h114.453V488.59H392.551z" class="cls-2"/></svg>