<svg xmlns="http://www.w3.org/2000/svg" role="img" viewBox="-4.06 -2.81 367.38 45.38"><title>TrackMyTemp logo</title><defs><style>.cls-1{fill:#454b4c}</style></defs><path d="M11.37451 34.995V10.39389H3.00635V5.03842h22.38379v5.35547h-8.36768V34.995zm18.4502-29.95658h10.91992a11.29572 11.29572 0 0 1 4.1001.71142 9.478 9.478 0 0 1 3.15918 1.96631 8.56977 8.56977 0 0 1 2.0288 2.9917 9.89571 9.89571 0 0 1 .71143 3.78614 7.87164 7.87164 0 0 1-.502 2.82421 8.46253 8.46253 0 0 1-1.38081 2.3848 10.182 10.182 0 0 1-2.04981 1.88281 10.38864 10.38864 0 0 1-2.46875 1.27637l-.0415.292L52.334 34.66v.335h-6.48488l-7.74023-11.25492h-2.63575V34.995h-5.64843zm10.87841 13.51416a4.40351 4.40351 0 0 0 3.1587-1.17188 3.91973 3.91973 0 0 0 1.23437-2.97021 4.54393 4.54393 0 0 0-.272-1.54834 3.921 3.921 0 0 0-.81592-1.33887 4.02561 4.02561 0 0 0-1.35986-.9414 4.633 4.633 0 0 0-1.86182-.35547h-5.31345v8.32617zM64.92725 5.03842h6.44287L82.625 34.995h-6.23438l-2.46826-7.1543H62.375l-2.46875 7.1543h-6.23389zm7.15429 17.61377l-2.67773-7.48877-1.08789-3.64014h-.33447l-1.0879 3.64014-2.67773 7.48877zm39.83057 7.53125a14.893 14.893 0 0 1-5.23 4.0791 16.711 16.711 0 0 1-12.94922.18848 15.19537 15.19537 0 0 1-8.26318-8.2627 15.66024 15.66024 0 0 1-1.21338-6.17187 15.66233 15.66233 0 0 1 1.21338-6.1709 15.19 15.19 0 0 1 8.26318-8.26319A15.77427 15.77427 0 0 1 99.9458 4.369a15.07734 15.07734 0 0 1 6.33887 1.25537 14.74186 14.74186 0 0 1 4.874 3.63964l-3.97461 3.84913a10.64855 10.64855 0 0 0-3.07519-2.46827 8.688 8.688 0 0 0-4.1211-.92041 10.55552 10.55552 0 0 0-3.93261.73194 9.51941 9.51941 0 0 0-3.20069 2.07129 9.76792 9.76792 0 0 0-2.15478 3.24218 10.91949 10.91949 0 0 0-.79492 4.24659 10.91675 10.91675 0 0 0 .79492 4.24707 9.75294 9.75294 0 0 0 2.15478 3.24218 9.49711 9.49711 0 0 0 3.20071 2.07129 10.53646 10.53646 0 0 0 3.93261.73242 9.41452 9.41452 0 0 0 4.45606-1.02539 10.95718 10.95718 0 0 0 3.45166-2.9082zm4.93652-25.14502h5.64844v12.84473h.33447l10.96192-12.84473h6.81982v.335l-10.83642 12.38424L141.74268 34.66v.335h-6.90332l-8.91163-12.76074-3.43066 3.97461V34.995h-5.64844z" class="cls-1"/><path fill="#1aac88" d="M145.25684 5.03842h5.56494l9.1626 15.85693h.33447l9.1626-15.85693h5.60644V34.995h-5.60644V20.22543l.335-5.02h-.335l-7.61426 13.43018H158.478l-7.65625-13.43018h-.335l.335 5.02V34.995h-5.56494zM189.103 21.06234L179.02 5.03842h6.73633l5.98291 9.916h.33447l5.77393-9.916h6.81936l-9.91553 16.02392V34.995H189.103z"/><path fill="#464a4c" d="M214.95947 34.995V10.39389h-8.36816V5.03842h22.38379v5.35547h-8.36768V34.995zm24.09864-24.60111v6.94531h12.00781v5.355h-12.00781v6.94531h13.34668V34.995h-18.99512V5.03842h18.99512v5.35547zm18.95214-5.35547h5.565l9.16259 15.85693h.33448l9.16259-15.85693h5.60645V34.995h-5.60645V20.22543l.335-5.02h-.335l-7.61425 13.43018h-3.38916l-7.6563-13.4302h-.335l.335 5.02V34.995h-5.565zM294.28418 34.995V5.03842h10.54346a11.39705 11.39705 0 0 1 3.9956.69043 9.86409 9.86409 0 0 1 3.24268 1.94531 9.04142 9.04142 0 0 1 2.97021 6.81983 9.04285 9.04285 0 0 1-2.97021 6.86132 9.85579 9.85579 0 0 1-3.24268 1.94532 11.38612 11.38612 0 0 1-3.9956.69043h-4.895V34.995zm10.627-16.3584a4.27276 4.27276 0 0 0 3.34717-1.25586 4.1865 4.1865 0 0 0 1.12988-2.88671 4.52948 4.52948 0 0 0-.272-1.54786 3.54536 3.54536 0 0 0-.83691-1.31787 4.11346 4.11346 0 0 0-1.40137-.8999 5.291 5.291 0 0 0-1.9668-.33447h-4.97851v8.24267z"/><path d="M319.01807 20.06918a1.93674 1.93674 0 0 1-1.39453-.55859 1.8025 1.8025 0 0 1-.57862-1.34619 1.7697 1.7697 0 0 1 .57862-1.33545 1.95722 1.95722 0 0 1 1.39453-.54737 1.91916 1.91916 0 0 1 1.38379.54737 1.78878 1.78878 0 0 1 .56689 1.33545 1.82224 1.82224 0 0 1-.56689 1.34619 1.89936 1.89936 0 0 1-1.38379.55859zm9.79785-11.47607a6.18208 6.18208 0 0 1 2.37012.44238 5.49832 5.49832 0 0 1 3.08447 3.0957 6.63751 6.63751 0 0 1 0 4.7627 5.49724 5.49724 0 0 1-3.08447 3.09619 6.57033 6.57033 0 0 1-4.74024 0 5.49338 5.49338 0 0 1-3.08447-3.09619 6.63737 6.63737 0 0 1 0-4.7627 5.49446 5.49446 0 0 1 3.08447-3.0957 6.182 6.182 0 0 1 2.37012-.44238zm0 9.09472a2.9119 2.9119 0 0 0 1.1001-.21533 2.80026 2.80026 0 0 0 .94091-.624 2.94811 2.94811 0 0 0 .64649-.99756 3.8765 3.8765 0 0 0 0-2.67627 2.955 2.955 0 0 0-.64649-.998 2.81361 2.81361 0 0 0-.94091-.62353 2.9119 2.9119 0 0 0-1.1001-.21533 2.88156 2.88156 0 0 0-1.11133.21533 2.83743 2.83743 0 0 0-.92969.62353 2.955 2.955 0 0 0-.64648.998 3.8765 3.8765 0 0 0 0 2.67627 2.94809 2.94809 0 0 0 .64648.99756 2.8237 2.8237 0 0 0 .92969.624 2.88156 2.88156 0 0 0 1.11133.21533zm7.80127-8.73144h2.78955v1.542h.18164a2.87582 2.87582 0 0 1 .54394-.74854 3.99029 3.99029 0 0 1 .75977-.59277 4.27532 4.27532 0 0 1 .90723-.4082 3.16563 3.16563 0 0 1 .96386-.15576 3.53883 3.53883 0 0 1 1.00928.12646 2.56469 2.56469 0 0 1 .71436.32715l-.79346 2.65381a2.81622 2.81622 0 0 0-.60107-.21533 3.47079 3.47079 0 0 0-.80518-.07959 2.53487 2.53487 0 0 0-1.11133.23974 2.44364 2.44364 0 0 0-.85058.67237 3.16562 3.16562 0 0 0-.54395 1.01464 3.98621 3.98621 0 0 0-.19287 1.26514v5.47168h-2.97119zM350.6333 25.3309a6.62268 6.62268 0 0 1-2.09766-.30664 5.98776 5.98776 0 0 1-1.59912-.793 5.35209 5.35209 0 0 1-1.13379-1.07813 4.19569 4.19569 0 0 1-.65771-1.17871l2.835-1.13379a2.69968 2.69968 0 0 0 1.043 1.37208 3.05428 3.05428 0 0 0 3.833-.42481 3.63367 3.63367 0 0 0 .8164-2.51269v-.771h-.18115a3.63631 3.63631 0 0 1-1.37207 1.145 4.48365 4.48365 0 0 1-2.00732.41992 4.8632 4.8632 0 0 1-1.939-.4043 5.06991 5.06991 0 0 1-1.667-1.15625 6.226 6.226 0 0 1-1.17969-6.53515 5.92365 5.92365 0 0 1 1.17969-1.81934 5.07882 5.07882 0 0 1 1.667-1.15674 4.87161 4.87161 0 0 1 1.939-.40429 4.49014 4.49014 0 0 1 2.00732.41992 3.64514 3.64514 0 0 1 1.37207 1.145h.18115V8.95639h2.835v10.31885a7.021 7.021 0 0 1-.43066 2.52929 5.472 5.472 0 0 1-1.20215 1.9043 5.20427 5.20427 0 0 1-1.84814 1.20215 6.53552 6.53552 0 0 1-2.39317.41992zm.11377-7.938a3.03589 3.03589 0 0 0 1.07715-.20019 2.74658 2.74658 0 0 0 .94092-.58985 2.9382 2.9382 0 0 0 .65771-.95752 3.20828 3.20828 0 0 0 .24951-1.30322 3.28689 3.28689 0 0 0-.24951-1.31348 2.9122 2.9122 0 0 0-.65771-.96875 2.754 2.754 0 0 0-.94092-.58984 3.03633 3.03633 0 0 0-1.07715-.20068 2.9461 2.9461 0 0 0-1.06641.20068 2.69819 2.69819 0 0 0-.92968.60107 3.07789 3.07789 0 0 0-.65772.96875 3.52566 3.52566 0 0 0 0 2.60547 2.94575 2.94575 0 0 0 .65772.95752 2.77035 2.77035 0 0 0 .92968.58985 2.94574 2.94574 0 0 0 1.06641.2002z" class="cls-1"/></svg>