<svg xmlns="http://www.w3.org/2000/svg" role="img" viewBox="-3.00 37.00 4616.00 5356.00"><title>Tracelinks logo</title><path fill="#4654a3" d="M324.09893 5249.17855l13.38952 22.31586q-12.11431 11.47674-30.28581 17.5339a119.17108 119.17108 0 0 1-37.937 6.05716h0q-43.35654 0-66.94761-23.90985T178.727 5204.54681h0V4887.02388H210.6068v72.686h105.841v27.41663H210.6068v214.23233q0 32.5174 15.62111 49.41371t46.22573 16.8963h0q31.24223 0 51.64529-18.49029zM488.59877 5032.39583q15.3023-36.343 47.81971-55.78967t79.06192-19.4467h0v31.24223l-7.65115-.63761q-55.47086 0-86.71309 34.749t-31.2422 96.59583h0v173.42618H457.99415V4959.70987h30.60462zM996.12534 4959.70987h31.87981v332.82522H996.763v-78.42434q-19.76543 38.89338-55.47087 59.934t-80.97475 21.04067h0q-46.54443 0-84.16268-21.67827a155.17562 155.17562 0 0 1-58.97766-59.934q-21.35948-38.25577-21.35948-87.35068h0q0-49.09491 21.35948-87.66948a152.35081 152.35081 0 0 1 58.97766-59.93406q37.61819-21.35947 84.16268-21.35948h0q44.6318 0 80.01834 21.0407t55.78967 58.65883h0zM862.23016 5266.39364q38.25575 0 68.54159-17.85269t47.81971-49.73251q17.53382-31.8798 17.53388-72.686h0q0-40.80616-17.53388-72.686T930.77175 5003.704q-30.28592-17.85268-68.54159-17.85268h0q-38.25582 0-68.54158 17.85268t-47.81971 49.73251q-17.53391 31.87982-17.53394 72.686h0q0 40.80615 17.53394 72.686t47.81971 49.73251q30.28583 17.8527 68.54158 17.85269zM1326.4002 5295.08547q-48.45726 0-86.71312-21.67827a155.53213 155.53213 0 0 1-59.934-60.25284q-21.67835-38.57459-21.67828-87.03188h0q0-49.09491 21.67828-87.66948a153.31431 153.31431 0 0 1 59.934-59.93406q38.25573-21.35947 86.71312-21.35948h0q40.16857 0 73.0048 15.62113a131.76651 131.76651 0 0 1 53.23922 45.58811h0l-23.591 17.2151a113.28594 113.28594 0 0 0-44.31292-37.29935q-26.46024-12.43314-58.34011-12.43314h0q-38.89347 0-69.81674 17.5339a124.60731 124.60731 0 0 0-48.45733 49.4137q-17.53382 31.87983-17.53387 73.32357h0q0 41.44377 17.53387 73.32356a124.60765 124.60765 0 0 0 48.45733 49.41371q30.92326 17.53389 69.81674 17.53389h0q31.87988 0 58.34011-12.43312a113.28644 113.28644 0 0 0 44.31292-37.29938h0l23.591 17.2151a131.76671 131.76671 0 0 1-53.23922 45.58813q-32.83629 15.62111-73.0048 15.6211zM1710.87077 5266.39364q32.51742 0 60.25282-11.79553a117.332 117.332 0 0 0 46.22575-34.749h0l18.49023 21.04068a137.04274 137.04274 0 0 1-54.1957 40.48736q-32.51762 13.70832-71.41071 13.70831h0q-49.73254 0-88.9447-21.67827a156.583 156.583 0 0 1-61.20918-59.934q-21.99721-38.25577-21.99715-87.35068h0q0-49.09491 20.72192-87.35069a152.0062 152.0062 0 0 1 57.70239-59.934q36.98062-21.6783 83.52519-21.67828h0q43.3565 0 78.10544 20.08428a150.95574 150.95574 0 0 1 55.47092 55.4709q20.72193 35.38658 22.63464 79.38072h0l-281.17992 54.83327q12.11436 45.90691 48.45732 72.686t87.35074 26.779zm-10.83914-281.17994q-37.61819 0-67.58529 17.5339a120.56823 120.56823 0 0 0-46.54449 49.09491q-16.5774 31.561-16.57752 71.72957h0q0 7.01358 1.27522 19.7655h0l253.76327-49.73251a132.9181 132.9181 0 0 0-21.04067-54.83328 118.49927 118.49927 0 0 0-43.35656-39.21215q-26.77911-14.346-59.934-14.34594zM2073.66294 5295.08547q-42.08141 0-64.39724-23.90985t-22.31577-65.99121h0V4819.43868h31.87981v381.92015q0 32.5174 14.66469 49.41371t43.99417 16.8963h0a82.09073 82.09073 0 0 0 31.87981-6.376h0l2.55032 26.77905a103.6794 103.6794 0 0 1-38.25579 7.01355zM2208.83339 5292.53509V4959.70987h31.87981v332.82522zm15.9399-413.79994a25.75377 25.75377 0 0 1-18.49034-7.33237 24.15636 24.15636 0 0 1-7.65109-18.17148h0a26.12263 26.12263 0 0 1 26.14143-26.14147h0a25.75369 25.75369 0 0 1 18.49035 7.33237 24.1554 24.1554 0 0 1 7.65109 18.17149h0a26.12262 26.12262 0 0 1-26.14144 26.14146zM2569.71284 4957.15946q62.48428 0 98.82737 36.343 36.34272 36.343 36.343 104.56578h0v194.46685h-31.87982V5100.61863q0-56.10846-28.373-85.43789-28.37325-29.32941-79.38066-29.32943h0q-58.659 0-92.4515 35.06777t-33.79252 94.36426h0v177.25175h-31.87982V4959.70987h30.60459v72.04835A126.59676 126.59676 0 0 1 2489.057 4976.925q34.11139-19.76552 80.65588-19.76551zM3128.247 5292.53509l-141.5462-177.88935-86.71312 79.06194v98.82741H2868.1079V4819.43868h31.87981v334.738l212.95715-194.46683H3153.751l-143.45915 134.5328 157.48634 198.29242zM3348.85551 5295.08547a240.35157 240.35157 0 0 1-76.5116-12.11432q-36.34308-12.11433-56.746-30.60462h0l14.66468-25.50385q20.40306 17.21509 52.60174 28.69183a198.84437 198.84437 0 0 0 67.26642 11.47673h0q50.36993 0 74.27978-16.5775t23.90986-45.90693h0q0-21.04068-13.0706-33.155t-32.19868-17.8527q-19.128-5.73837-52.92036-12.11432h0q-39.53137-7.01358-63.75962-15.30231a99.91928 99.91928 0 0 1-41.44385-26.77905q-17.21512-18.49029-17.21513-51.00769h0q-.00036-39.531 32.83617-65.35362 32.83629-25.82265 93.40785-25.82266h0a228.722 228.722 0 0 1 63.12214 8.92637q31.24231 8.92634 51.00765 23.591h0l-14.66469 25.50386a152.33265 152.33265 0 0 0-46.54449-22.31586 189.693 189.693 0 0 0-53.5581-7.65118h0q-46.54461 0-70.13573 17.21509t-23.591 45.26935h0q-.00036 22.31587 13.38946 34.749t32.83617 18.49029q19.44682 6.05715 54.51469 13.07073h0q38.89329 7.01355 62.803 14.9835a95.45966 95.45966 0 0 1 40.48749 25.82265q16.5774 17.8527 16.5774 49.09492h0q0 41.44376-34.43 66.31-34.43026 24.86625-96.91466 24.86625zM3597.51789 5295.08547a25.72431 25.72431 0 0 1-18.809-7.96995 26.45932 26.45932 0 0 1-7.97-19.44668h0a25.42044 25.42044 0 0 1 7.97-19.12789 26.25965 26.25965 0 0 1 18.809-7.65115h0a26.25981 26.25981 0 0 1 18.80922 7.65115 25.42132 25.42132 0 0 1 7.96995 19.12789h0a26.46024 26.46024 0 0 1-7.96995 19.44668 25.72445 25.72445 0 0 1-18.80922 7.96995zM3892.725 5295.08547q-48.45708 0-86.71312-21.67827a155.5322 155.5322 0 0 1-59.934-60.25284q-21.67852-38.57459-21.67828-87.03188h0q0-49.09491 21.67828-87.66948a153.31437 153.31437 0 0 1 59.934-59.93406q38.25555-21.35947 86.71312-21.35948h0q40.16875 0 73.0048 15.62113a131.76732 131.76732 0 0 1 53.23923 45.58811h0l-23.591 17.2151a113.28433 113.28433 0 0 0-44.31292-37.29935q-26.46006-12.43314-58.34012-12.43314h0q-38.89328 0-69.81686 17.5339a124.6078 124.6078 0 0 0-48.45721 49.4137q-17.534 31.87983-17.534 73.32357h0q0 41.44377 17.534 73.32356a124.60815 124.60815 0 0 0 48.45721 49.41371q30.92346 17.53389 69.81686 17.53389h0q31.8797 0 58.34012-12.43312a113.28483 113.28483 0 0 0 44.31292-37.29938h0l23.591 17.2151a131.76752 131.76752 0 0 1-53.23923 45.58813q-32.83629 15.62111-73.0048 15.6211zM4270.8196 5295.08547q-47.182 0-85.119-21.67827a156.17084 156.17084 0 0 1-59.61534-60.25284q-21.67815-38.57459-21.67828-87.03188h0q-.00036-48.4573 21.67828-87.03188a156.17082 156.17082 0 0 1 59.61534-60.25286q37.93705-21.6783 85.119-21.67828h0q47.182 0 85.119 21.67828a156.16694 156.16694 0 0 1 59.6151 60.25286q21.67853 38.57455 21.67852 87.03188h0q0 48.45732-21.67852 87.03188a156.167 156.167 0 0 1-59.6151 60.25284q-37.937 21.67827-85.119 21.67827zm0-28.69183q38.25519 0 68.5414-17.85269 30.28572-17.8527 47.81971-49.73251t17.534-72.686h0q0-40.80616-17.534-72.686T4339.361 5003.704q-30.28574-17.85268-68.5414-17.85268h0q-38.25593 0-68.5414 17.85268-30.28609 17.85267-47.82 49.73251t-17.53375 72.686h0q0 40.80615 17.53375 72.686 17.534 31.87981 47.82 49.73251 30.28572 17.8527 68.5414 17.85269zM2613.96473 4191.77971H1139.17142c-33.0795 0-60.64573-27.5662-60.64573-60.64556l862.823-3930.94022c0-33.07947 27.56623-60.64567 60.64562-60.64567H3476.78761c33.07939 0 60.64562 27.5662 60.64562 60.64567L2674.61015 4131.13415c0 33.07936-27.56623 60.64556-60.64563 60.64556z"/><path fill="#f95b3d" d="M1508.559 1369.00076H1263.21946L913.12831 2962.327H1158.4677zM502.39155 2962.327H739.46109l350.09114-1593.32646H852.48259L502.39144 2962.327zM678.81546 1369.00076H510.6615c-33.0795 0-60.64573 27.5662-60.64573 60.64555L102.68121 2901.68145c0 33.07936 27.56623 60.64556 60.64573 60.64556H328.72432L678.81546 1369.00055zM4452.63241 1369.00076H1682.22628L1332.13524 2962.327H4108.05453c33.07939 0 60.64563-27.5662 60.64563-60.64556L4513.278 1429.64652c0-33.07935-27.56623-60.64555-60.64562-60.64555z"/></svg>