<svg xmlns="http://www.w3.org/2000/svg" role="img" viewBox="-37.89 -18.39 956.28 755.28"><title>Turkey (Hayat Eve Sığar) logo</title><defs><style>.cls-1{fill:#fff}</style></defs><path d="M41.97314 703.44639v-50.38086h10.459v19.209h19.585v-19.209h10.459v50.38086h-10.459v-22.49024h-19.585v22.49024zm64.58986-22.66016a15.43257 15.43257 0 0 0 3.89062-.85547 2.92965 2.92965 0 0 0 2.10059-2.76757 3.27317 3.27317 0 0 0-1.61133-3.16211 10.18166 10.18166 0 0 0-4.729-.8711q-3.49878 0-4.95459 1.709a7.04529 7.04529 0 0 0-1.38574 3.418h-9.39943a14.25789 14.25789 0 0 1 2.74609-8.03321q3.87891-4.92187 13.31934-4.92187a23.745 23.745 0 0 1 10.916 2.42773q4.77173 2.42578 4.77148 9.16016v17.08984q0 1.77685.06836 4.30664a5.41461 5.41461 0 0 0 .581 2.59766 3.48327 3.48327 0 0 0 1.43555 1.127v1.43555h-10.5957a10.80171 10.80171 0 0 1-.61524-2.11914q-.17138-.99024-.27343-2.25586a20.09791 20.09791 0 0 1-4.67578 3.72656 14.1337 14.1337 0 0 1-7.15088 1.81055 12.34152 12.34152 0 0 1-8.40577-2.8877q-3.31786-2.8872-3.31738-8.18652 0-6.87012 5.33692-9.94531a23.81744 23.81744 0 0 1 8.60839-2.39258zm5.95654 4.54492a10.71441 10.71441 0 0 1-1.88867.94043 15.95257 15.95257 0 0 1-2.61572.667l-2.21729.41015a14.59048 14.59048 0 0 0-4.47754 1.332 4.44978 4.44978 0 0 0-2.30127 4.13672 4.31915 4.31915 0 0 0 1.40576 3.60547 5.343 5.343 0 0 0 3.41846 1.11133 10.18113 10.18113 0 0 0 5.88281-1.8457q2.68945-1.8457 2.79346-6.73438zm19.68798 25.25977l1.23047.06836a15.381 15.381 0 0 0 2.73437-.10352 4.90264 4.90264 0 0 0 2.1875-.78515 5.27245 5.27245 0 0 0 1.58936-2.42774 5.86445 5.86445 0 0 0 .63281-2.25586l-13.68945-38.89648h10.835l8.13472 27.48047 7.69043-27.48047h10.35645l-12.77246 36.64062q-3.70239 10.59669-5.85791 13.14258-2.15625 2.54591-8.62305 2.54688-1.3 0-2.0874-.01758t-2.36084-.11914zm52.2168-29.80469a15.43257 15.43257 0 0 0 3.89062-.85547 2.92965 2.92965 0 0 0 2.10059-2.76757 3.27317 3.27317 0 0 0-1.61133-3.16211 10.18166 10.18166 0 0 0-4.729-.8711q-3.49878 0-4.95459 1.709a7.04529 7.04529 0 0 0-1.38575 3.418h-9.39941a14.25789 14.25789 0 0 1 2.74609-8.03321q3.87891-4.92187 13.31934-4.92187a23.745 23.745 0 0 1 10.916 2.42773q4.77174 2.42578 4.77149 9.16016v17.08984q0 1.77685.06836 4.30664a5.41461 5.41461 0 0 0 .581 2.59766 3.48327 3.48327 0 0 0 1.43555 1.127v1.43555h-10.5957a10.80171 10.80171 0 0 1-.61524-2.11914q-.17139-.99024-.27344-2.25586a20.0977 20.0977 0 0 1-4.67578 3.72656 14.13365 14.13365 0 0 1-7.15088 1.81055 12.34151 12.34151 0 0 1-8.40576-2.8877q-3.31786-2.8872-3.31738-8.18652 0-6.87012 5.33691-9.94531a23.81757 23.81757 0 0 1 8.6084-2.39258zm5.95654 4.54492a10.71441 10.71441 0 0 1-1.88867.94043 15.95273 15.95273 0 0 1-2.61573.667l-2.21728.41015a14.59048 14.59048 0 0 0-4.47754 1.332 4.44978 4.44978 0 0 0-2.30127 4.13672 4.31915 4.31915 0 0 0 1.40576 3.60547 5.343 5.343 0 0 0 3.41846 1.11133 10.18113 10.18113 0 0 0 5.88281-1.8457q2.68946-1.8457 2.79346-6.73438zm14.39014-11.85937v-6.93945h5.19531V656.1417h9.63869v10.39063h6.04981v6.93945H219.605v19.6875q0 2.28956.58106 2.85352.5808.564 3.55468.56445.44385 0 .93994-.01758.49512-.01758.97413-.05078v7.2793l-4.61426.17187q-6.90454.2373-9.4336-2.39258-1.64062-1.67577-1.64062-5.16211v-22.93359zm84.6289-11.48438h-26.66015v10.69727h24.47265v8.75h-24.47265v12.95508h27.89062v9.05664h-38.17871v-50.38086h36.94824zm31.5991 4.20313h10.459l-13.45362 37.25586h-10.271l-13.36035-37.25586h10.9375l7.75879 27.48047zm40.25637.75488a15.15715 15.15715 0 0 1 6.438 5.51172 18.31238 18.31238 0 0 1 2.96826 7.70215 47.577 47.577 0 0 1 .3208 7.39453h-27.13429q.22706 5.60449 3.896 7.86133a9.90106 9.90106 0 0 0 5.37109 1.40039 7.56724 7.56724 0 0 0 7.41358-4.27148h9.94531a12.159 12.159 0 0 1-3.61133 6.73242q-5.0061 5.43456-14.01611 5.43554a20.3093 20.3093 0 0 1-13.123-4.584q-5.68506-4.585-5.68506-14.916 0-9.67968 5.13233-14.8457 5.13208-5.16651 13.32275-5.166a21.22194 21.22194 0 0 1 8.76167 1.7451zm-14.57275 8.415a10.12519 10.12519 0 0 0-2.59522 5.76758h16.78223a8.12437 8.12437 0 0 0-2.59522-5.88672 8.53166 8.53166 0 0 0-5.77734-2.00976 7.728 7.728 0 0 0-5.81445 2.12894zm57.04838 12.5352a10.21662 10.21662 0 0 0 1.91943 5.16015q2.61694 3.11133 8.96875 3.11133a19.301 19.301 0 0 0 6.17725-.82031q4.50219-1.57324 4.502-5.8457a4.30611 4.30611 0 0 0-2.20508-3.86133 23.92764 23.92764 0 0 0-6.99512-2.35938l-5.4541-1.19531q-8.042-1.77833-11.04883-3.86328-5.09325-3.48633-5.09277-10.90234a14.48221 14.48221 0 0 1 4.98242-11.2461q4.98267-4.47656 14.63623-4.47656a22.43973 22.43973 0 0 1 13.75342 4.2207q5.69166 4.22169 5.96875 12.25391h-10.11728a7.2144 7.2144 0 0 0-4.06494-6.46094 13.93974 13.93974 0 0 0-6.272-1.26367 11.93766 11.93766 0 0 0-6.65771 1.64062 5.1906 5.1906 0 0 0-2.4878 4.58008 4.32134 4.32134 0 0 0 2.45313 4.03321 30.49486 30.49486 0 0 0 6.69336 2.084l8.84131 2.08594a22.50418 22.50418 0 0 1 8.71337 3.65625q4.50439 3.55663 4.50489 10.28906a14.4553 14.4553 0 0 1-5.33789 11.4668q-5.3379 4.563-15.07959 4.5625-9.95 0-15.64991-4.49414-5.70117-4.49415-5.70019-12.35547zm38.45211-21.70508h9.87744v37.25586h-9.87744zm37.74169-.0332a11.69591 11.69591 0 0 1 5.73536 5.40039v-5.36719h9.50195v35.3418q0 7.21288-2.42773 10.86914-4.16895 6.29-15.9961 6.28906-7.14258 0-11.6543-2.80273a10.33869 10.33869 0 0 1-4.99023-8.373h10.5957a4.39058 4.39058 0 0 0 1.332 2.46094q1.57325 1.333 5.29883 1.332 5.26172 0 7.041-3.51953 1.16016-2.25587 1.16211-7.58789v-2.39258a11.8977 11.8977 0 0 1-3.00782 3.58789 12.09007 12.09007 0 0 1-7.55468 2.22265 14.29252 14.29252 0 0 1-11.4668-5.042q-4.28906-5.04053-4.28906-13.65527a23.04125 23.04125 0 0 1 4.12988-13.96192q4.12939-5.65575 11.708-5.65722a12.78494 12.78494 0 0 1 4.88189.85546zm6.55567-7.51075q-3.044 2.48585-8.30664 2.48536-5.26319 0-8.30469-2.48536-3.044-2.48583-3.48633-7.73339h4.61328a5.1073 5.1073 0 0 0 3.28125 4.27148 11.99711 11.99711 0 0 0 7.793 0 5.104 5.104 0 0 0 3.28125-4.27148h4.61524q-.44535 5.24706-3.48636 7.73339zm-3.23828 34.22168q2.3496-2.58105 2.34961-8.2207 0-5.29687-2.23047-8.06641a7.27281 7.27281 0 0 0-5.97266-2.76757 7.03973 7.03973 0 0 0-7.0459 4.81836 17.16218 17.16218 0 0 0-1.0205 6.32421 14.48635 14.48635 0 0 0 1.08789 5.7754 7.09924 7.09924 0 0 0 7.08007 4.71679 7.47727 7.47727 0 0 0 5.75196-2.58008zm35.76758-12.08203a15.44859 15.44859 0 0 0 3.89062-.85547A2.92865 2.92865 0 0 0 525 677.16319a3.27317 3.27317 0 0 0-1.61133-3.16211 10.1794 10.1794 0 0 0-4.72851-.8711q-3.49806 0-4.95508 1.709a7.04964 7.04964 0 0 0-1.38477 3.418h-9.40039a14.26155 14.26155 0 0 1 2.7461-8.03321q3.8789-4.92187 13.32031-4.92187a23.74783 23.74783 0 0 1 10.916 2.42773q4.771 2.42578 4.77149 9.16016v17.08984q0 1.77685.06836 4.30664a5.42852 5.42852 0 0 0 .58008 2.59766 3.48961 3.48961 0 0 0 1.43554 1.127v1.43555h-10.5957a10.86873 10.86873 0 0 1-.61523-2.11914q-.16994-.99024-.27344-2.25586a20.06738 20.06738 0 0 1-4.67578 3.72656 14.13061 14.13061 0 0 1-7.15039 1.81055 12.3445 12.3445 0 0 1-8.40625-2.8877q-3.31641-2.8872-3.31641-8.18652 0-6.87012 5.33594-9.94531a23.82047 23.82047 0 0 1 8.60937-2.39258zm5.95605 4.54492a10.69772 10.69772 0 0 1-1.88867.94043 15.9604 15.9604 0 0 1-2.61621.667l-2.2168.41015a14.595 14.595 0 0 0-4.47754 1.332 4.45018 4.45018 0 0 0-2.30176 4.13672 4.31935 4.31935 0 0 0 1.40625 3.60547 5.3426 5.3426 0 0 0 3.418 1.11133 10.18007 10.18007 0 0 0 5.88282-1.8457q2.68944-1.8457 2.79394-6.73438zm38.91406-20.01171c.125.01171.4043.02929.83692.05078v9.98047q-.92286-.10254-1.64063-.13672-.71777-.03223-1.16211-.03321-5.87841 0-7.89453 3.82813a14.8891 14.8891 0 0 0-1.12891 6.63086v17.80664H543.082v-37.25586h9.29688v6.49414a20.6148 20.6148 0 0 1 3.92968-5.0918 10.6993 10.6993 0 0 1 7.10938-2.291c.18265-.00001.33597.00585.46194.01757zm28.48926.46093a73.30769 73.30769 0 0 1 7.89453-13.53515h7.34961l-2.08594 3.82812a56.97391 56.97391 0 0 0-5.98046 16.543 65.35264 65.35264 0 0 0-1.09376 12.37305 58.48371 58.48371 0 0 0 3.041 19.24414 87.9069 87.9069 0 0 0 6.28906 13.33008h-7.21093l-2.42774-3.31641a44.41746 44.41746 0 0 1-5.02344-8.95508 50.98812 50.98812 0 0 1-4.75195-20.918 46.4053 46.4053 0 0 1 4.00002-18.59375zm58.20703-12.71484v8.92187h-15.07226v41.459H624.9082v-41.459h-15.14258v-8.92187zm9.91211 13.125v22.457a11.8221 11.8221 0 0 0 .748 4.78516q1.32714 2.83593 5.2041 2.83593 4.96435 0 6.80176-4.0332a14.65585 14.65585 0 0 0 .95312-5.77539v-20.2695h9.877v37.25586h-9.4668v-5.26367q-.1377.17285-.68164 1.02539a6.80036 6.80036 0 0 1-1.29492 1.5039 13.513 13.513 0 0 1-4.41407 2.80274 14.99364 14.99364 0 0 1-4.99414.75195q-8.24706 0-11.11132-5.94726-1.60108-3.28125-1.60157-9.67188v-22.457zm53.74805-.87109c.125.01171.40429.02929.83789.05078v9.98047q-.92286-.10254-1.64063-.13672c-.47851-.02149-.86718-.03321-1.16211-.03321q-5.87988 0-7.89648 3.82813a14.89332 14.89332 0 0 0-1.12695 6.63086v17.80664h-9.81055v-37.25586h9.29688v6.49414a20.588 20.588 0 0 1 3.93164-5.0918 10.69391 10.69391 0 0 1 7.10937-2.291c.18161-.00001.33594.00585.46094.01757zm6.44336-12.08204H730.25v27.17774l12.28613-14.05274h12.11328l-13.35351 13.87891 13.8701 23.20508h-11.85545l-9.02637-15.917-4.03418 4.19434v11.72266h-9.57031zm63.31054 13.70801a15.16438 15.16438 0 0 1 6.4375 5.51172 18.31942 18.31942 0 0 1 2.96875 7.70215 47.59021 47.59021 0 0 1 .32032 7.39453H766.582q.22852 5.60449 3.89649 7.86133a9.90106 9.90106 0 0 0 5.37109 1.40039 7.57052 7.57052 0 0 0 7.41406-4.27148h9.94536a12.16828 12.16828 0 0 1-3.61132 6.73242q-5.00684 5.43456-14.01661 5.43554a20.31024 20.31024 0 0 1-13.123-4.584q-5.68506-4.585-5.68457-14.916 0-9.67968 5.13183-14.8457 5.13135-5.16651 13.32325-5.166a21.22518 21.22518 0 0 1 8.76165 1.7451zm-14.57324 8.415a10.12479 10.12479 0 0 0-2.59472 5.76758h16.78125a8.12034 8.12034 0 0 0-2.59473-5.88672 8.5317 8.5317 0 0 0-5.77734-2.00976 7.72734 7.72734 0 0 0-5.81445 2.12894zm30.69629 35.23051l1.23047.06836a15.38465 15.38465 0 0 0 2.73437-.10352 4.90918 4.90918 0 0 0 2.1875-.78515 5.2799 5.2799 0 0 0 1.58887-2.42774 5.88391 5.88391 0 0 0 .63281-2.25586l-13.68945-38.89648h10.835l8.13477 27.48047 7.69043-27.48047h10.35644L819.042 702.83115q-3.70166 10.59669-5.8584 13.14258-2.15625 2.54591-8.623 2.54688-1.29932 0-2.08692-.01758-.78661-.01758-2.36035-.11914zm49.01953-44.81055a46.46043 46.46043 0 0 1 3.99219 18.59375 51.06541 51.06541 0 0 1-4.74219 20.918 44.49866 44.49866 0 0 1-5.01562 8.95508l-2.42188 3.31641h-7.19922a88.06252 88.06252 0 0 0 6.26563-13.33008 58.664 58.664 0 0 0 3.03125-19.24414 65.6874 65.6874 0 0 0-1.08985-12.37305 57.20762 57.20762 0 0 0-5.959-16.543l-2.07812-3.82812h7.336a73.39648 73.39648 0 0 1 7.88081 13.53515z"/><path d="M-19.164 0H.818v599.463h-19.982z" class="cls-1" id="white_heading_on_hoist" data-name="white heading on hoist"/><path fill="#e30a17" d="M.818 0h899.194v599.463H.818z" id="red_background" data-name="red background"/><path d="M427.18571 219.58834a119.89253 119.89253 0 1 0 0 160.2863 149.86576 149.86576 0 1 1 0-160.2863z" class="cls-1" id="crescent"/><path d="M417.944 299.731l51.777-16.823v-54.442l32 44.045 51.778-16.824-32 44.044 32 44.045-51.778-16.824-32 44.045v-54.442l-51.777-16.824z" class="cls-1" id="star"/></svg>