<svg xmlns="http://www.w3.org/2000/svg" role="img" viewBox="-17.49 -17.99 935.48 757.98"><title>Turkey (Hayat Eve Sığar) logo</title><defs><style>.cls-2{fill:#fff}</style></defs><path fill="#e30a17" d="M.818 0h899.194v599.463H.818z" id="red_background" data-name="red background"/><path d="M427.18571 219.58834a119.89253 119.89253 0 1 0 0 160.2863 149.86576 149.86576 0 1 1 0-160.2863z" class="cls-2" id="crescent"/><path d="M417.944 299.731l51.777-16.823v-54.442l32 44.045 51.778-16.824-32 44.044 32 44.045-51.778-16.824-32 44.045v-54.442l-51.777-16.824z" class="cls-2" id="star"/><path d="M80.80957 656.55967v8.92188H65.73633v41.459H55.14062v-41.459H39.999v-8.92188zm9.91211 13.125v22.457a11.80189 11.80189 0 0 0 .748 4.78516q1.32714 2.83593 5.20312 2.83594 4.96583 0 6.80274-4.03321a14.6575 14.6575 0 0 0 .95214-5.77539v-20.2695h9.87793v37.25586h-9.46777v-5.26367q-.13623.17285-.68164 1.02539a6.80036 6.80036 0 0 1-1.29492 1.5039 13.503 13.503 0 0 1-4.41406 2.80274 14.99175 14.99175 0 0 1-4.99317.752q-8.24853 0-11.11133-5.94726-1.60254-3.28125-1.60156-9.67188v-22.457zm53.74805-.87109c.124.01172.40332.02929.83691.05078v9.98047q-.92284-.10254-1.64062-.13672-.71778-.03224-1.16211-.03321-5.8799 0-7.89551 3.82813a14.89405 14.89405 0 0 0-1.12793 6.63086v17.80664h-9.80957v-37.25586h9.29687v6.49414a20.6089 20.6089 0 0 1 3.93067-5.0918 10.6957 10.6957 0 0 1 7.10937-2.291c.18164-.00001.33594.00585.46192.01757zm6.44238-12.08203h9.57031v27.17773l12.28613-14.05273h12.11426l-13.35351 13.8789 13.87011 23.20508H173.544l-9.02637-15.918-4.03516 4.19531v11.72266h-9.57031zm63.31055 13.70898a15.14831 15.14831 0 0 1 6.4375 5.50977 18.31593 18.31593 0 0 1 2.96875 7.70312 47.69 47.69 0 0 1 .32129 7.39453h-27.13477q.22706 5.60449 3.89551 7.86133a9.9034 9.9034 0 0 0 5.37109 1.40039 7.56733 7.56733 0 0 0 7.41406-4.27148h9.94532a12.15907 12.15907 0 0 1-3.61133 6.73242q-5.00538 5.43456-14.0166 5.43554a20.31748 20.31748 0 0 1-13.12305-4.584q-5.68506-4.585-5.68457-14.916 0-9.67968 5.13184-14.8457 5.13281-5.165 13.32324-5.166a21.2065 21.2065 0 0 1 8.76172 1.74608zm-14.57325 8.41406a10.12479 10.12479 0 0 0-2.59472 5.76758h16.78222a8.1278 8.1278 0 0 0-2.59472-5.88672 8.53518 8.53518 0 0 0-5.77735-2.00976 7.73115 7.73115 0 0 0-5.81543 2.1289zm30.69629 35.23047l1.23047.06836a15.473 15.473 0 0 0 2.73438-.10352 4.90493 4.90493 0 0 0 2.1875-.78515 5.28021 5.28021 0 0 0 1.58984-2.42774 5.88387 5.88387 0 0 0 .63281-2.25586l-13.68945-38.89648h10.834L244 697.16514l7.69141-27.48047h10.35547l-12.77247 36.64063q-3.70166 10.59668-5.85742 13.14257-2.15625 2.5459-8.623 2.54688-1.30078 0-2.08692-.01758-.78809-.01758-2.36133-.11914zm59.4043-44.81055a73.31664 73.31664 0 0 1 7.89551-13.53515h7.34863l-2.085 3.82812a57.00508 57.00508 0 0 0-5.98145 16.543 65.43338 65.43338 0 0 0-1.09369 12.37302 58.45381 58.45381 0 0 0 3.042 19.24414 87.81082 87.81082 0 0 0 6.28906 13.33008h-7.21192l-2.42675-3.31641a44.44058 44.44058 0 0 1-5.02442-8.95508 50.9864 50.9864 0 0 1-4.751-20.918 46.4039 46.4039 0 0 1 3.99903-18.59372zm21.5332 37.66602v-50.38086h10.459v19.209h19.585v-19.209h10.459v50.38086h-10.459V684.4503h-19.585v22.49023zm64.58985-22.66016a15.4272 15.4272 0 0 0 3.89062-.85547 2.92878 2.92878 0 0 0 2.10059-2.76757 3.27222 3.27222 0 0 0-1.61133-3.16211 10.16973 10.16973 0 0 0-4.72852-.8711q-3.4995 0-4.95507 1.709a7.04472 7.04472 0 0 0-1.38575 3.418h-9.39941a14.26408 14.26408 0 0 1 2.74609-8.03321q3.87891-4.92187 13.31934-4.92187a23.75736 23.75736 0 0 1 10.916 2.42773q4.771 2.42578 4.77149 9.16016v17.08984q0 1.77832.06836 4.30664a5.41136 5.41136 0 0 0 .581 2.59766 3.47686 3.47686 0 0 0 1.43555 1.127v1.43555h-10.5957a10.73476 10.73476 0 0 1-.61524-2.11914q-.17138-.99024-.27343-2.25586a20.108 20.108 0 0 1-4.67579 3.72656 14.13418 14.13418 0 0 1-7.15136 1.81055 12.3378 12.3378 0 0 1-8.40528-2.88867q-3.31786-2.88575-3.31738-8.18555 0-6.87012 5.33691-9.94531a23.82073 23.82073 0 0 1 8.6084-2.39258zm5.95605 4.54493a10.61848 10.61848 0 0 1-1.88769.93945 15.87494 15.87494 0 0 1-2.61621.668l-2.21778.41015a14.63169 14.63169 0 0 0-4.47754 1.332 4.44939 4.44939 0 0 0-2.30078 4.13672 4.32051 4.32051 0 0 0 1.40528 3.60547 5.3472 5.3472 0 0 0 3.41894 1.11133 10.18224 10.18224 0 0 0 5.88281-1.8457q2.68945-1.8457 2.793-6.73438zm19.68848 25.25976l1.23047.06836a15.47293 15.47293 0 0 0 2.73437-.10352 4.90484 4.90484 0 0 0 2.1875-.78515 5.28021 5.28021 0 0 0 1.58985-2.42774 5.88428 5.88428 0 0 0 .63281-2.25586l-13.68946-38.89648h10.834l8.13477 27.48047 7.6914-27.48047h10.35547l-12.77247 36.64063q-3.70165 10.59668-5.85742 13.14257-2.15625 2.5459-8.623 2.54688-1.30079 0-2.08691-.01758-.78809-.01758-2.36133-.11914zm52.2168-29.80469a15.4272 15.4272 0 0 0 3.89062-.85547 2.92878 2.92878 0 0 0 2.10059-2.76757 3.27222 3.27222 0 0 0-1.61133-3.16211 10.16973 10.16973 0 0 0-4.72852-.8711q-3.49952 0-4.95508 1.709a7.04472 7.04472 0 0 0-1.38574 3.418h-9.39941a14.26408 14.26408 0 0 1 2.74609-8.03321q3.87891-4.92187 13.31934-4.92187a23.75736 23.75736 0 0 1 10.916 2.42773q4.771 2.42578 4.77149 9.16016v17.08984q0 1.77832.06836 4.30664a5.41136 5.41136 0 0 0 .58105 2.59766 3.47686 3.47686 0 0 0 1.43555 1.127v1.43555H460.8877a10.73476 10.73476 0 0 1-.61524-2.11914q-.17139-.99024-.27344-2.25586a20.1079 20.1079 0 0 1-4.67578 3.72656 14.13423 14.13423 0 0 1-7.15136 1.81055 12.33779 12.33779 0 0 1-8.40528-2.88867q-3.31786-2.88575-3.31738-8.18555 0-6.87012 5.33691-9.94531a23.82067 23.82067 0 0 1 8.6084-2.39258zm5.95605 4.54493a10.61822 10.61822 0 0 1-1.8877.93945 15.8744 15.8744 0 0 1-2.61621.668l-2.21777.41015a14.6316 14.6316 0 0 0-4.47754 1.332 4.44939 4.44939 0 0 0-2.30078 4.13672 4.32054 4.32054 0 0 0 1.40527 3.60547 5.34723 5.34723 0 0 0 3.41895 1.11133 10.18226 10.18226 0 0 0 5.88281-1.8457q2.68945-1.8457 2.793-6.73438zm14.39062-11.85938v-6.93945h5.19532v-10.39063h9.63863v10.39063h6.0498v6.93945h-6.0498v19.6875c0 1.52734.19336 2.47656.58105 2.85352q.58008.5625 3.55469.56445.44385 0 .93945-.01758c.33008-.01172.65528-.02734.97461-.05078v7.2793l-4.61425.17187q-6.90528.2373-9.4336-2.39258-1.64062-1.67577-1.64062-5.16211v-22.93359zM558.71 665.48155h-26.6602v10.69726h24.47266v8.75H532.0498v12.95508h27.89063v9.05664h-38.17871v-50.38086H558.71zm31.59957 4.20312h10.459l-13.4541 37.25586H577.044l-13.36133-37.25586h10.9375l7.75976 27.48047zm40.25586.75586a15.14825 15.14825 0 0 1 6.4375 5.50977 18.3158 18.3158 0 0 1 2.96875 7.70312 47.68872 47.68872 0 0 1 .32129 7.39453H613.1582q.22706 5.60449 3.89551 7.86133a9.9034 9.9034 0 0 0 5.37109 1.40039 7.56736 7.56736 0 0 0 7.41407-4.27148h9.94531a12.15907 12.15907 0 0 1-3.61133 6.73242q-5.00536 5.43456-14.0166 5.43554a20.31748 20.31748 0 0 1-13.12305-4.584q-5.68506-4.585-5.68457-14.916 0-9.67968 5.13184-14.8457 5.1328-5.165 13.32324-5.166a21.20644 21.20644 0 0 1 8.76172 1.74608zm-14.57324 8.41406a10.1248 10.1248 0 0 0-2.59473 5.76758h16.78223a8.1278 8.1278 0 0 0-2.59473-5.88672 8.53517 8.53517 0 0 0-5.77734-2.00976 7.73112 7.73112 0 0 0-5.81543 2.1289zm57.04881 12.53516a10.22568 10.22568 0 0 0 1.919 5.16015q2.61768 3.11133 8.96973 3.11133a19.29957 19.29957 0 0 0 6.17676-.82031q4.50146-1.57324 4.50195-5.8457a4.30719 4.30719 0 0 0-2.20508-3.86133 23.92764 23.92764 0 0 0-6.99512-2.35938l-5.4541-1.19531q-8.042-1.77833-11.04883-3.86328-5.09325-3.48633-5.09277-10.90234a14.48221 14.48221 0 0 1 4.98242-11.2461q4.98194-4.47656 14.63574-4.47656a22.43921 22.43921 0 0 1 13.75391 4.2207q5.69238 4.22169 5.96875 12.25391h-10.11723a7.214 7.214 0 0 0-4.06445-6.46094 13.94208 13.94208 0 0 0-6.27246-1.26367 11.94052 11.94052 0 0 0-6.6582 1.64063 5.19229 5.19229 0 0 0-2.48731 4.58007 4.31956 4.31956 0 0 0 2.45313 4.03321 30.48535 30.48535 0 0 0 6.69336 2.084l8.84082 2.08594a22.52515 22.52515 0 0 1 8.71386 3.65625q4.50439 3.55663 4.50489 10.28906a14.45528 14.45528 0 0 1-5.33789 11.4668q-5.3379 4.56151-15.08008 4.5625-9.94923 0-15.64942-4.49414-5.70117-4.49415-5.70019-12.35547zm38.45216-21.70508h9.87793v37.25586h-9.87793zm37.74219-.0332a11.69845 11.69845 0 0 1 5.73438 5.40039v-5.36719h9.50195v35.3418q0 7.21288-2.42676 10.86914-4.17041 6.29-15.99609 6.28906-7.144 0-11.65528-2.80273a10.34009 10.34009 0 0 1-4.99023-8.37305H739.999a4.39122 4.39122 0 0 0 1.333 2.46094q1.57177 1.333 5.29785 1.332 5.26319 0 7.041-3.51953 1.16161-2.25587 1.16211-7.58789v-2.39258a11.87169 11.87169 0 0 1-3.00781 3.58789 12.08908 12.08908 0 0 1-7.55372 2.22265 14.28933 14.28933 0 0 1-11.46777-5.043q-4.28906-5.03907-4.28906-13.6543a23.04224 23.04224 0 0 1 4.13086-13.96289q4.1294-5.6543 11.708-5.65625a12.79194 12.79194 0 0 1 4.88189.85554zm6.55469-7.51172q-3.04248 2.4873-8.30566 2.48633-5.26466 0-8.30567-2.48633-3.04248-2.48437-3.48633-7.73242h4.61426a5.104 5.104 0 0 0 3.28125 4.27148 11.99711 11.99711 0 0 0 7.793 0 5.1073 5.1073 0 0 0 3.28125-4.27148h4.61426q-.44535 5.24706-3.4864 7.73242zm-3.23731 34.22265q2.34815-2.58105 2.34864-8.2207 0-5.29687-2.22949-8.0664a7.27408 7.27408 0 0 0-5.97266-2.76758 7.03892 7.03892 0 0 0-7.0459 4.81836 17.14416 17.14416 0 0 0-1.02148 6.32422 14.46945 14.46945 0 0 0 1.08886 5.77539 7.09926 7.09926 0 0 0 7.08008 4.71679 7.48014 7.48014 0 0 0 5.75195-2.58008zm35.76661-12.08203a15.4272 15.4272 0 0 0 3.89062-.85547 2.92878 2.92878 0 0 0 2.10059-2.76757 3.27222 3.27222 0 0 0-1.61133-3.16211 10.16973 10.16973 0 0 0-4.72852-.8711q-3.4995 0-4.95508 1.709a7.04481 7.04481 0 0 0-1.38574 3.418h-9.39941a14.26408 14.26408 0 0 1 2.74609-8.03321q3.87891-4.92187 13.31934-4.92187a23.75736 23.75736 0 0 1 10.916 2.42773q4.771 2.42578 4.77149 9.16016v17.08984q0 1.77832.06836 4.30664a5.41136 5.41136 0 0 0 .58105 2.59766 3.47686 3.47686 0 0 0 1.43555 1.127v1.43555h-10.5957a10.73476 10.73476 0 0 1-.61524-2.11914q-.17139-.99024-.27344-2.25586a20.10769 20.10769 0 0 1-4.67578 3.72656 14.13421 14.13421 0 0 1-7.15136 1.81055 12.33779 12.33779 0 0 1-8.40528-2.88867q-3.31786-2.88575-3.31738-8.18555 0-6.87012 5.33691-9.94531a23.82073 23.82073 0 0 1 8.6084-2.39258zm5.95605 4.54493a10.61848 10.61848 0 0 1-1.88769.93945 15.87482 15.87482 0 0 1-2.61622.668l-2.21777.41015a14.63169 14.63169 0 0 0-4.47754 1.332 4.44939 4.44939 0 0 0-2.30078 4.13672 4.32054 4.32054 0 0 0 1.40527 3.60547 5.34723 5.34723 0 0 0 3.41895 1.11133 10.18224 10.18224 0 0 0 5.88281-1.8457q2.68945-1.8457 2.793-6.73438zm38.91504-20.01172c.124.01172.40332.02929.83691.05078v9.98047q-.92284-.10254-1.64062-.13672-.71778-.03224-1.16211-.03321-5.87988 0-7.89551 3.82813a14.89405 14.89405 0 0 0-1.12793 6.63086v17.80664h-9.80957v-37.25586h9.29688v6.49414a20.60867 20.60867 0 0 1 3.93066-5.0918 10.69573 10.69573 0 0 1 7.10938-2.291c.18164-.00001.33593.00585.46191.01757zm18.10449.46093a46.47707 46.47707 0 0 1 3.99219 18.59375 51.08113 51.08113 0 0 1-4.74219 20.918 44.5749 44.5749 0 0 1-5.01562 8.95508l-2.42285 3.31641h-7.19922a87.9657 87.9657 0 0 0 6.26562-13.33008 58.6598 58.6598 0 0 0 3.03125-19.24414 65.68826 65.68826 0 0 0-1.08984-12.37305 57.15075 57.15075 0 0 0-5.959-16.543l-2.07812-3.82812h7.33594a73.35073 73.35073 0 0 1 7.88184 13.53515z"/></svg>