<svg xmlns="http://www.w3.org/2000/svg" role="img" viewBox="-31.75 -41.25 663.00 524.00"><title>United States - Alabama (GuideSafe) logo</title><path fill="#fff" d="M0 0h600v400H0z"/><path stroke="#b10021" stroke-width="68" d="M0 0l600 400M0 400L600 0"/><path d="M36.8785 442.28817v13.53339c0 2.34125.36543 4.16412 1.09203 5.46859 1.36396 2.388 3.9559 3.58624 7.76735 3.58624 3.8157 0 6.39914-1.19825 7.7546-3.58624.7266-1.30447 1.08778-3.12734 1.08778-5.4686v-13.53338h-4.67401v13.53339c0 1.51693-.17846 2.6217-.53539 3.31854-.56088 1.23224-1.77187 1.85261-3.63298 1.85261-1.8696 0-3.08485-.62037-3.64573-1.8526-.35692-.69686-.53538-1.80162-.53538-3.31855v-13.53339zm8.85938 0zm26.04698 6.6711c-1.07077-.88382-2.44748-1.32148-4.13012-1.32148-1.34697 0-2.45598.32718-3.3313.9858-.48864.36541-1.00703.96879-1.55517 1.80586v-2.37525H58.6594v16.25281h4.24485v-8.81263c0-1.00704.13598-1.83137.41642-2.48148.53963-1.22374 1.52967-1.8356 2.97437-1.8356 1.17275 0 1.97158.4164 2.38799 1.25348.22945.4589.34418 1.1175.34418 1.97158v9.90465h4.36382v-10.96268c0-2.04381-.53538-3.5055-1.60616-4.38507zm-5.70229-1.36822zm15.6112-1.50843v-3.93042h-4.3171v3.93042zm-4.3171 1.94184V464.307h4.3171v-16.28255zm6.76883 3.18258h2.26901v10.02362c0 1.01554.2422 1.76763.7181 2.25627.7351.76484 2.1118 1.11327 4.12163 1.04528l2.01832-.07648v-3.18258a6.91407 6.91407 0 0 1-.4249.0255c-.14448.00425-.28045.0085-.41217.0085-.86682 0-1.3852-.08499-1.55517-.2507-.16572-.16147-.2507-.57788-.2507-1.24499v-8.60442h2.64294v-3.03386h-2.64294v-4.53804h-4.2151v4.53804H84.1455zm15.98936.82007c.54388-.61612 1.30872-.9263 2.29451-.9263.90506 0 1.66565.29319 2.27752.87531.61187.58213.95605 1.4362 1.02403 2.56221h-6.61585c.13598-1.05803.48015-1.89085 1.01979-2.51122zm5.95299-3.67547c-1.08352-.50564-2.30301-.76059-3.65848-.76059-2.28176 0-4.13437.7521-5.56632 2.25627-1.4277 1.50418-2.14154 3.66698-2.14154 6.48413 0 3.00836.79033 5.17965 2.37524 6.51387 1.58492 1.33422 3.41203 2.00133 5.48134 2.00133 2.51122 0 4.46156-.79459 5.85526-2.37525.89656-.99854 1.4022-1.98008 1.50843-2.94463h-4.34683c-.22945.48015-.4929.85407-.79033 1.12177-.54813.49714-1.25773.74784-2.1373.74784-.82432 0-1.53392-.20396-2.1203-.61612-.96454-.65436-1.47869-1.80162-1.53817-3.43328h11.14539c.017-1.40645-.0255-2.48147-.13597-3.22931-.19121-1.27473-.60338-2.39224-1.24074-3.36104-.70535-1.09202-1.60191-1.8951-2.68968-2.40499zm-3.36104-.76059zm18.92974.69685c-.76909-.4334-1.6444-.6501-2.6302-.6501-2.14154 0-3.85393.79457-5.1329 2.38799-1.27898 1.5934-1.9206 3.7817-1.9206 6.5606 0 2.40925.65011 4.38083 1.95034 5.92325 1.30022 1.53818 2.90213 2.30726 4.80573 2.30726 1.1515 0 2.1203-.22095 2.89789-.6586.77333-.43767 1.46594-1.13877 2.07356-2.10756v2.25627h4.13862v-21.9891h-4.31709v7.76736c-.4759-.76484-1.10051-1.36396-1.86535-1.79737zm1.04528 11.60005c-.62887.8923-1.54667 1.34271-2.74917 1.34271-1.20674 0-2.1033-.4504-2.69818-1.35121-.59062-.90081-.88806-2.1033-.88806-3.60749 0-1.3937.29319-2.5622.87532-3.5055.58212-.93906 1.49568-1.4107 2.74066-1.4107.81583 0 1.53393.25919 2.15005.77758 1.00704.85407 1.50843 2.28177 1.50843 4.27034 0 1.4277-.31443 2.5877-.93905 3.48427zm21.18176-2.37525h-4.39357c0 2.29026.82433 4.08763 2.46448 5.39636 1.6444 1.31297 3.90067 1.96733 6.76882 1.96733 2.80865 0 4.97994-.6671 6.51812-1.99708 1.54242-1.32572 2.3115-2.99986 2.3115-5.00969 0-1.96308-.6586-3.46301-1.97158-4.49554-.84982-.66711-2.1033-1.2025-3.7647-1.59767l-3.79444-.91355c-1.46594-.34843-2.422-.65011-2.86815-.9093-.69685-.39093-1.04528-.9773-1.04528-1.76339 0-.85831.35268-1.52542 1.05803-2.00132.7096-.48015 1.6529-.7181 2.8384-.7181 1.06652 0 1.95883.18271 2.67268.55238 1.07927.55664 1.65715 1.49994 1.73364 2.8214h4.4233c-.08072-2.337-.93904-4.12162-2.5792-5.35386-1.6359-1.22799-3.61598-1.84411-5.93599-1.84411-2.7789 0-4.88646.65011-6.3184 1.95459-1.4362 1.30872-2.15005 2.94462-2.15005 4.9162 0 2.1628.73934 3.75196 2.22228 4.7675.87956.60762 2.46022 1.1685 4.75049 1.68689l2.33276.52264c1.36396.29743 2.36674.64161 3.0041 1.03253.63737.39516.95606.9603.95606 1.6869 0 1.24498-.64587 2.0948-1.9291 2.5537-.6756.23795-1.55941.35692-2.64294.35692-1.81436 0-3.09334-.4504-3.84118-1.3597-.40792-.49715-.67986-1.24924-.82008-2.25203zm4.4658-15.89588zm10.59301 9.59022h2.26902v10.02362c0 1.01554.23795 1.76763.7181 2.25627.7351.76484 2.1118 1.11327 4.12163 1.04528l2.01832-.07648v-3.18258c-.14022.01275-.28469.02125-.42916.0255-.14447.00425-.28044.0085-.40791.0085-.86682 0-1.38521-.08499-1.55517-.2507-.16997-.16147-.25495-.57788-.25495-1.24499v-8.60442h2.64719v-3.03386h-2.64719v-4.53804h-4.21086v4.53804h-2.26902zm20.83759 5.1839v1.58491c-.02974 1.42345-.42916 2.405-1.2025 2.94038-.77333.53963-1.61465.80733-2.53246.80733-.57788 0-1.06652-.16147-1.47019-.4844-.40366-.32293-.60762-.84982-.60762-1.57642 0-.81582.33143-1.4192.9858-1.81011.3909-.22945 1.03252-.42066 1.92908-.58213l.95605-.17846c.4759-.08923.85407-.18696 1.12601-.28894.2762-.10623.54814-.2422.81583-.41216zm-2.58345-1.98858l-1.44895.17846c-1.6444.21246-2.88938.56088-3.73496 1.04953-1.54242.89656-2.31576 2.3455-2.31576 4.34683 0 1.54242.48015 2.73642 1.44045 3.57774.9603.84132 2.17979 1.26198 3.65423 1.26198 1.15575 0 2.18828-.26344 3.10609-.79458.76484-.44615 1.4447-.99004 2.03107-1.6274.02974.36967.06798.69685.11897.98579.051.28894.14022.59912.2677.9263h4.63151v-.62887c-.27619-.12747-.48864-.29318-.62461-.4929-.14022-.19545-.2252-.57362-.25495-1.1345-.02124-.7351-.02974-1.36396-.02974-1.88235v-7.46567c0-1.96309-.6926-3.2973-2.07781-4.0069-1.3852-.70535-2.96587-1.05803-4.7505-1.05803-2.73642 0-4.66976.71385-5.79577 2.15005-.70535.9178-1.10476 2.0863-1.194 3.50975h4.10888c.09773-.62886.29744-1.126.59488-1.49143.42066-.5014 1.13026-.74784 2.1373-.74784.89656 0 1.57641.12747 2.03956.37817.46315.25494.6926.7181.6926 1.3852 0 .54814-.30168.94755-.9093 1.20675-.33993.15297-.90081.27619-1.6869.37392zm.22095-6.8113zm8.72765 3.61598h2.26902v10.02362c0 1.01554.23795 1.76763.7181 2.25627.7351.76484 2.1118 1.11327 4.12163 1.04528l2.01832-.07648v-3.18258c-.14022.01275-.2847.02125-.42916.0255-.14447.00425-.28044.0085-.40792.0085-.86681 0-1.3852-.08499-1.55517-.2507-.16996-.16147-.25494-.57788-.25494-1.24499v-8.60442h2.64719v-3.03386h-2.6472v-4.53804h-4.21085v4.53804h-2.26902zm15.98936.82007c.54389-.61612 1.30873-.9263 2.29452-.9263.90506 0 1.66565.29319 2.27752.87531.61187.58213.9518 1.4362 1.02403 2.5622h-6.6201c.14022-1.05802.48015-1.89084 1.02403-2.5112zm5.953-3.67547c-1.08353-.50564-2.30727-.76059-3.65848-.76059-2.28177 0-4.13863.7521-5.56632 2.25627-1.4277 1.50418-2.14155 3.66698-2.14155 6.48413 0 3.00836.79033 5.17965 2.37525 6.51387 1.58066 1.33422 3.40778 2.00133 5.48134 2.00133 2.50697 0 4.46155-.79459 5.85526-2.37525.89656-.99854 1.39795-1.98008 1.50843-2.94463h-4.34683c-.22945.48015-.4929.85407-.79034 1.12177-.54813.49714-1.26198.74784-2.1373.74784-.82857 0-1.53392-.20396-2.1203-.61612-.96879-.65436-1.47868-1.80162-1.53817-3.43328h11.14114c.02125-1.40645-.0255-2.48147-.13172-3.22931-.1912-1.27473-.60337-2.39224-1.24074-3.36104-.7096-1.09202-1.60616-1.8951-2.68968-2.40499zm-3.36104-.76059zm13.60986 11.51931h-4.31708c0 1.6699.60762 3.0466 1.82711 4.13013 1.2195 1.07927 3.11034 1.6189 5.67255 1.6189 2.50697 0 4.36382-.50989 5.56207-1.52967 1.2025-1.01979 1.80162-2.337 1.80162-3.95167 0-1.22374-.42066-2.24777-1.25774-3.0636-.84557-.80733-2.11605-1.40645-3.80719-1.80586-2.54096-.55664-4.01965-.9518-4.43606-1.18125-.42066-.2167-.62887-.57363-.62887-1.05803 0-.39092.19546-.73085.59063-1.01978.39517-.2847 1.05378-.42916 1.98008-.42916 1.12601 0 1.9206.28469 2.388.86256.2507.31869.40366.7521.46315 1.30023h4.2576c-.18697-1.98858-.92206-3.39078-2.20104-4.20236-1.27898-.81158-2.93613-1.2195-4.9672-1.2195-2.14154 0-3.80294.53964-4.9842 1.62316-1.177 1.07927-1.76762 2.371-1.76762 3.87518 0 1.27473.37817 2.25203 1.13451 2.92763.75634.68836 2.05657 1.25774 3.90068 1.71664 2.55795.60762 4.03664 1.03678 4.43606 1.28748.39516.24644.59487.61187.59487 1.08777 0 .49714-.24645.87106-.73934 1.12176-.4929.24645-1.15576.37392-1.99283.37392-1.42345 0-2.40074-.2847-2.92763-.85407-.29744-.31868-.4929-.85407-.58213-1.6104zm3.25481-11.5193zm17.65926 6.16968v4.0324h8.57469v-4.0324zm26.33592 2.22653l2.8384-8.66391 2.74917 8.66391zm.28044-13.6991l-7.85658 22.01884h4.80998l1.52543-4.5253h8.11153l1.4192 4.5253h4.98844l-7.7971-22.01884zm2.57071 0zm17.22585 22.01884v-22.01884h-4.2576v22.01884zm13.12972-7.91607v1.58491c-.02974 1.42345-.42916 2.405-1.2025 2.94038-.77333.53963-1.61465.80733-2.53246.80733-.57788 0-1.06652-.16147-1.47019-.4844-.40366-.32293-.60762-.84982-.60762-1.57642 0-.81582.33143-1.4192.9858-1.81011.39091-.22945 1.03252-.42066 1.92908-.58213l.95605-.17846c.4759-.08923.85407-.18696 1.12601-.28894.2762-.10623.54814-.2422.81583-.41216zm-2.58345-1.98858l-1.44895.17846c-1.6444.21246-2.88938.56088-3.73495 1.04953-1.54668.89656-2.31576 2.3455-2.31576 4.34683 0 1.54242.48014 2.73642 1.44044 3.57774.9603.84132 2.17979 1.26198 3.65423 1.26198 1.15575 0 2.18828-.26344 3.10609-.79458.76484-.44615 1.4447-.99004 2.03107-1.6274.02974.36967.06798.69685.11897.98579.051.28894.14022.59912.2677.9263h4.63152v-.62887c-.2762-.12747-.48865-.29318-.62462-.4929-.14022-.19545-.2252-.57362-.25495-1.1345-.02124-.7351-.02974-1.36396-.02974-1.88235v-7.46567c0-1.96309-.6926-3.2973-2.07781-4.0069-1.3852-.70535-2.96587-1.05803-4.7505-1.05803-2.73642 0-4.66976.71385-5.79577 2.15005-.70535.9178-1.10476 2.0863-1.194 3.50975h4.10889c.09772-.62886.29743-1.126.59487-1.49143.42066-.5014 1.13026-.74784 2.1373-.74784.89656 0 1.57641.12747 2.03956.37817.46316.25494.6926.7181.6926 1.3852 0 .54814-.30168.94755-.9093 1.20675-.33993.15297-.9008.27619-1.6869.37392zm.22095-6.8113zm24.22412 2.39223c-1.211-1.54667-2.88514-2.31576-5.02668-2.31576-1.1855 0-2.1628.24645-2.92763.74785-.64587.39516-1.24074.97304-1.77613 1.72938v-7.82684h-4.24485V464.307h4.16837v-2.04382c.56938.79458 1.09627 1.35122 1.58491 1.6699.81583.53964 1.8951.80733 3.24207.80733 2.1373 0 3.80719-.83283 5.00119-2.49422 1.19824-1.6614 1.79312-3.76046 1.79312-6.28867 0-2.43898-.60338-4.43181-1.81437-5.97424zm-3.56075 9.9174c-.60762.88807-1.46169 1.32997-2.55795 1.32997-1.26199 0-2.20529-.4589-2.8214-1.3767-.61613-.91356-.92631-2.06932-.92631-3.46302 0-1.1855.14872-2.15005.44616-2.89789.57787-1.40645 1.64015-2.10755 3.18257-2.10755 1.52543 0 2.5707.7181 3.14009 2.15004.29743.7606.44615 1.71664.44615 2.86814 0 1.4447-.30168 2.60895-.9093 3.49701zm17.40007-3.50975v1.58491c-.02974 1.42345-.42916 2.405-1.2025 2.94038-.76908.53963-1.61465.80733-2.53246.80733-.57788 0-1.06652-.16147-1.47019-.4844-.40366-.32293-.60337-.84982-.60337-1.57642 0-.81582.32718-1.4192.9858-1.81011.38666-.22945 1.02827-.42066 1.92483-.58213l.95605-.17846c.48015-.08923.85407-.18696 1.13026-.28894.27194-.10623.54389-.2422.81158-.41216zm-2.58345-1.98858l-1.44895.17846c-1.6444.21246-2.88938.56088-3.73496 1.04953-1.54242.89656-2.31576 2.3455-2.31576 4.34683 0 1.54242.48015 2.73642 1.44045 3.57774.96455.84132 2.17979 1.26198 3.65423 1.26198 1.15575 0 2.19253-.26344 3.10609-.79458.76908-.44615 1.4447-.99004 2.03107-1.6274.02974.36967.07223.69685.12322.98579.04674.28894.13597.59912.2677.9263h4.63151v-.62887c-.28044-.12747-.48864-.29318-.62886-.4929-.14022-.19545-.2252-.57362-.25495-1.1345-.017-.7351-.02974-1.36396-.02974-1.88235v-7.46567c0-1.96309-.6926-3.2973-2.07356-4.0069-1.38521-.70535-2.97012-1.05803-4.7505-1.05803-2.74067 0-4.674.71385-5.80002 2.15005-.70535.9178-1.10476 2.0863-1.194 3.50975h4.10888c.09773-.62886.29744-1.126.59913-1.49143.4164-.5014 1.13026-.74784 2.13305-.74784.89656 0 1.57641.12747 2.03956.37817.46315.25494.69686.7181.69686 1.3852 0 .54814-.30594.94755-.91356 1.20675-.33568.15297-.90081.27619-1.6869.37392zm.2252-6.8113zm30.7125.49289c-.69686-.2762-1.40646-.41642-2.1203-.41642-1.07503 0-2.05232.22096-2.92764.67136-.82857.44616-1.52118 1.1515-2.0778 2.10756-.31869-.79883-.7861-1.44895-1.40646-1.95884-.76484-.54813-1.77187-.82008-3.01686-.82008-1.31297 0-2.38375.31869-3.21232.95605-.4674.35693-.96455.9603-1.49143 1.80587v-2.37525h-4.13863v16.25281h4.31709v-9.79842c0-.88807.11472-1.55517.34418-2.00133.4164-.78608 1.23648-1.18125 2.45173-1.18125 1.04527 0 1.74638.39517 2.1033 1.18125.1997.43766.30169 1.13876.30169 2.10755v9.6922h4.28734v-9.6922c0-.73084.11047-1.35121.33993-1.8696.4504-.9773 1.26198-1.4617 2.43473-1.4617 1.01554 0 1.71664.37818 2.0948 1.13452.19547.39516.29744.90506.29744 1.52118v10.3678h4.35958l.034-10.26158c0-1.05802-.051-1.85685-.15297-2.40499-.15722-.82857-.4674-1.52542-.9263-2.09055-.56514-.69686-1.19825-1.1855-1.8951-1.46594zm15.86188 8.30699v1.58491c-.02974 1.42345-.42916 2.405-1.2025 2.94038-.76908.53963-1.61465.80733-2.5282.80733-.57788 0-1.07078-.16147-1.47444-.4844-.40367-.32293-.60338-.84982-.60338-1.57642 0-.81582.32718-1.4192.9858-1.81011.38666-.22945 1.03253-.42066 1.92484-.58213l.95604-.17846c.48015-.08923.85407-.18696 1.13027-.28894.27194-.10623.54388-.2422.81157-.41216zm-2.58345-1.98858l-1.44894.17846c-1.64015.21246-2.88514.56088-3.73496 1.04953-1.54242.89656-2.31576 2.3455-2.31576 4.34683 0 1.54242.4844 2.73642 1.4447 3.57774.96029.84132 2.17553 1.26198 3.64997 1.26198 1.15576 0 2.19254-.26344 3.11034-.79458.76484-.44615 1.44045-.99004 2.03107-1.6274.02974.36967.06799.69685.11898.98579.04674.28894.14022.59912.26769.9263h4.63152v-.62887c-.28044-.12747-.48865-.29318-.62887-.4929-.14022-.19545-.22095-.57362-.25494-1.1345-.017-.7351-.02975-1.36396-.02975-1.88235v-7.46567c0-1.96309-.68835-3.2973-2.07356-4.0069-1.3852-.70535-2.97012-1.05803-4.7505-1.05803-2.74066 0-4.66975.71385-5.79577 2.15005-.7096.9178-1.10476 2.0863-1.19824 3.50975h4.10888c.10198-.62886.30168-1.126.59912-1.49143.41641-.5014 1.13026-.74784 2.1373-.74784.89656 0 1.57641.12747 2.03957.37817.46315.25494.6926.7181.6926 1.3852 0 .54814-.30169.94755-.9093 1.20675-.33994.15297-.90507.27619-1.69115.37392zm.2252-6.8113zm19.89854 0c-1.29598 2.9871-1.94184 5.93598-1.94184 8.84237 0 2.51971.49714 5.02668 1.49143 7.51666.84982 2.14154 2.07781 4.31708 3.69247 6.52661h2.52397l-.91356-1.67414c-1.25348-2.30726-2.12455-4.725-2.6132-7.24472-.31868-1.64015-.4759-3.43752-.4759-5.3921 0-3.02536.41217-5.76603 1.2365-8.21352.50139-1.46594 1.44044-3.46301 2.82564-5.99123l-2.45173-.02974-1.05802 1.46169c-.82858 1.14726-1.59766 2.54521-2.31576 4.19811zm24.3346 1.5679h4.52529c-.2507-2.1203-1.22375-3.89217-2.91914-5.31137-1.69964-1.41495-3.94741-2.12455-6.74757-2.12455-3.22506 0-5.82126 1.07503-7.7801 3.22507-1.96308 2.15005-2.94463 5.00969-2.94463 8.57468 0 3.52676.97305 6.30142 2.91489 8.33674 1.8611 2.01832 4.25335 3.0296 7.16823 3.0296 1.77187 0 3.26756-.37391 4.4828-1.1175.70535-.42917 1.50418-1.1685 2.388-2.21379l.46315 2.74917h3.05085v-11.81675h-9.1738v3.67547h5.09466c-.22945 1.4447-.83707 2.6132-1.82286 3.50551-.9858.88806-2.25202 1.33422-3.79445 1.33422-1.57216 0-2.97862-.56088-4.21085-1.6869-1.2365-1.126-1.85261-3.04235-1.85261-5.75327 0-2.68544.56938-4.6995 1.70814-6.04222 1.143-1.33847 2.5962-2.00983 4.36807-2.00983.9263 0 1.76763.16572 2.52822.49715 1.3512.59487 2.20528 1.6444 2.5537 3.14858zm-5.15416-7.43592zm18.04592 6.30142h-4.36382v9.81542c0 1.8611.2337 3.2718.7011 4.22785.83707 1.73364 2.46023 2.60045 4.87372 2.60045.83282 0 1.56367-.11047 2.18828-.33143.62037-.2167 1.26624-.62461 1.93334-1.22374.2167-.1912.40792-.40791.56513-.6586.16147-.24646.2592-.39942.30169-.44616v2.29876h4.13862v-16.28255h-4.31708v8.85937c0 1.04528-.14022 1.8866-.42066 2.52397-.53539 1.177-1.53393 1.76337-2.98712 1.76337-1.13451 0-1.8951-.41216-2.28602-1.24073-.2167-.4674-.32718-1.16426-.32718-2.09056zm2.98712-.4334zm15.83215-1.50844v-3.93042h-4.31709v3.93042zm-4.31709 1.94184V464.307h4.31709v-16.28255zm17.07713.26344c-.76908-.4334-1.6444-.6501-2.63019-.6501-2.14154 0-3.84968.79457-5.13291 2.38799-1.27898 1.5934-1.91635 3.7817-1.91635 6.5606 0 2.40925.65012 4.38083 1.9461 5.92325 1.30022 1.53818 2.90213 2.30726 4.80572 2.30726 1.15576 0 2.1203-.22095 2.8979-.6586.77758-.43767 1.46593-1.13877 2.07355-2.10756v2.25627h4.13863v-21.9891h-4.31709v7.76736c-.4759-.76484-1.10052-1.36396-1.86536-1.79737zm1.04528 11.60005c-.62886.8923-1.54242 1.34271-2.74916 1.34271-1.20675 0-2.1033-.4504-2.69818-1.35121-.59063-.90081-.88806-2.1033-.88806-3.60749 0-1.3937.29318-2.5622.87531-3.5055.58213-.93906 1.49568-1.4107 2.74067-1.4107.81583 0 1.53392.25919 2.15004.77758 1.00704.85407 1.50843 2.28177 1.50843 4.27034 0 1.4277-.31018 2.5877-.93905 3.48427zm13.13822-7.86084c.54389-.61612 1.30872-.9263 2.29451-.9263.90506 0 1.66565.29319 2.27752.87531.61187.58213.9518 1.4362 1.01979 2.5622h-6.61585c.14022-1.05802.48015-1.89084 1.02403-2.5112zm5.95299-3.67547c-1.08777-.50564-2.30726-.76059-3.65848-.76059-2.28176 0-4.13862.7521-5.56632 2.25627-1.4277 1.50418-2.1458 3.66698-2.1458 6.48413 0 3.00836.79459 5.17965 2.37525 6.51387 1.58492 1.33422 3.41203 2.00133 5.4856 2.00133 2.50696 0 4.46155-.79459 5.85525-2.37525.89656-.99854 1.39796-1.98008 1.50843-2.94463h-4.34683c-.22945.48015-.4929.85407-.79033 1.12177-.54813.49714-1.26198.74784-2.1373.74784-.82857 0-1.53392-.20396-2.1203-.61612-.9688-.65436-1.47868-1.80162-1.54242-3.43328h11.14539c.02124-1.40645-.0255-2.48147-.13597-3.22931-.18696-1.27473-.59913-2.39224-1.23649-3.36104-.7096-1.09202-1.60616-1.8951-2.68968-2.40499zm-3.36104-.76059zm13.9668 9.92165h-4.39358c0 2.29026.82433 4.08763 2.46448 5.39636 1.6444 1.31297 3.90068 1.96733 6.76882 1.96733 2.80865 0 4.97994-.6671 6.52237-1.99708 1.53817-1.32572 2.30726-2.99986 2.30726-5.00969 0-1.96308-.65861-3.46301-1.97158-4.49554-.84982-.66711-2.1033-1.2025-3.7647-1.59767l-3.79445-.91355c-1.46594-.34843-2.42199-.65011-2.86815-.9093-.69685-.39093-1.04527-.9773-1.04527-1.76339 0-.85831.35267-1.52542 1.05802-2.00132.7096-.48015 1.6529-.7181 2.8384-.7181 1.06652 0 1.95884.18271 2.67693.55238 1.07503.55664 1.6529 1.49994 1.72939 2.8214h4.42331c-.08073-2.337-.93905-4.12162-2.57495-5.35386-1.64016-1.22799-3.62024-1.84411-5.94025-1.84411-2.7789 0-4.88646.65011-6.3184 1.95459-1.4362 1.30872-2.15005 2.94462-2.15005 4.9162 0 2.1628.73934 3.75196 2.22653 4.7675.87531.60762 2.45598 1.1685 4.75049 1.68689l2.3285.52264c1.36397.29743 2.36676.64161 3.00412 1.03253.63736.39516.95605.9603.95605 1.6869 0 1.24498-.64587 2.0948-1.9291 2.5537-.6756.23795-1.55941.35692-2.64293.35692-1.81437 0-3.09335-.4504-3.84119-1.3597-.40791-.49715-.67986-1.24924-.82008-2.25203zm4.4658-15.89588zm21.24125 14.77412v1.58491c-.02975 1.42345-.42916 2.405-1.2025 2.94038-.76908.53963-1.61466.80733-2.53246.80733-.57788 0-1.06652-.16147-1.47019-.4844-.40366-.32293-.60337-.84982-.60337-1.57642 0-.81582.32718-1.4192.98579-1.81011.38667-.22945 1.02828-.42066 1.92484-.58213l.95605-.17846c.48015-.08923.85407-.18696 1.13026-.28894.27194-.10623.54388-.2422.81158-.41216zm-2.58345-1.98858l-1.44895.17846c-1.6444.21246-2.88939.56088-3.73496 1.04953-1.54242.89656-2.31576 2.3455-2.31576 4.34683 0 1.54242.48015 2.73642 1.4447 3.57774.9603.84132 2.17554 1.26198 3.64997 1.26198 1.15576 0 2.19254-.26344 3.1061-.79458.76908-.44615 1.4447-.99004 2.03532-1.6274.02974.36967.06798.69685.11897.98579.04674.28894.13597.59912.2677.9263h4.63151v-.62887c-.28044-.12747-.48864-.29318-.62886-.4929-.14022-.19545-.2252-.57362-.25495-1.1345-.017-.7351-.02974-1.36396-.02974-1.88235v-7.46567c0-1.96309-.6926-3.2973-2.07356-4.0069-1.38521-.70535-2.97013-1.05803-4.7505-1.05803-2.74067 0-4.674.71385-5.79577 2.15005-.7096.9178-1.10902 2.0863-1.19825 3.50975h4.10888c.10198-.62886.29744-1.126.59913-1.49143.4164-.5014 1.13026-.74784 2.1373-.74784.8923 0 1.57216.12747 2.03531.37817.46315.25494.69685.7181.69685 1.3852 0 .54814-.30593.94755-.91355 1.20675-.33568.15297-.90081.27619-1.6869.37392zm.2252-6.8113zm17.13237-5.5026c-.2167-.01699-.46315-.02549-.73085-.02549-2.35825 0-3.84968.48865-4.4658 1.46594-.58638.65861-.88381 1.85686-.88381 3.59899v1.04528h-2.32851v3.00411h2.37525v13.12972h4.2406v-13.12972h2.7959v-3.00411h-2.7959v-1.37246c0-.31868.11048-.61187.32293-.87532.21246-.26344.60337-.38666 1.16425-.37392.56513.017.96455.03824 1.2025.06799v-3.46727c-.37817-.02974-.6756-.05099-.89656-.06373zm7.5804 9.93865c.54388-.61612 1.30872-.9263 2.2945-.9263.90507 0 1.66565.29319 2.27752.87531.61188.58213.95605 1.4362 1.02404 2.5622h-6.61585c.13597-1.05802.48015-1.89084 1.01978-2.5112zm5.95298-3.67547c-1.08352-.50564-2.30301-.76059-3.65847-.76059-2.28177 0-4.13438.7521-5.56207 2.25627-1.43195 1.50418-2.1458 3.66698-2.1458 6.48413 0 3.00836.79033 5.17965 2.37525 6.51387 1.58491 1.33422 3.41202 2.00133 5.48134 2.00133 2.51121 0 4.46155-.79459 5.85526-2.37525.89656-.99854 1.4022-1.98008 1.50843-2.94463h-4.34683c-.2252.48015-.4929.85407-.79034 1.12177-.54813.49714-1.25773.74784-2.1373.74784-.82432 0-1.53392-.20396-2.1203-.61612-.96454-.65436-1.47868-1.80162-1.53817-3.43328h11.1454c.01699-1.40645-.0255-2.48147-.13598-3.22931-.18696-1.27473-.60337-2.39224-1.24074-3.36104-.70535-1.09202-1.6019-1.8951-2.68968-2.40499zm-3.36104-.76059zm15.3605.25495c-.79033-1.83137-1.93759-3.80295-3.45452-5.91475h-3.20807l.9093 1.6699c1.2535 2.303 2.12456 4.71225 2.6132 7.23196.31869 1.6529.48015 3.45452.48015 5.4091 0 3.04661-.44615 5.85102-1.32996 8.40898-.5184 1.51268-1.4362 3.45452-2.74917 5.82551h3.15283l1.05803-1.44894c.68835-.87531 1.4192-2.17979 2.19678-3.91342 1.3852-3.0976 2.07781-6.1442 2.07781-9.14406 0-2.72793-.58213-5.4346-1.74638-8.12428z"/></svg>