<svg xmlns="http://www.w3.org/2000/svg" role="img" viewBox="-14.40 18.10 930.80 723.30"><title>United States - Rhode Island (Crush Covid) logo</title><defs><style>.cls-1{fill:#fec500}.cls-2{fill:#fff}.cls-4{fill:#003271}</style></defs><path d="M3.53494 680.824h7.09179v20.51074a11.60237 11.60237 0 0 0 .81348 5.02539q1.2627 2.8081 5.50781 2.80762 4.22169 0 5.48633-2.80762a11.61961 11.61961 0 0 0 .8125-5.02539V680.824h7.0918v20.52734q0 5.32472-1.65137 8.292-3.07617 5.439-11.73926 5.43847-8.66308 0-11.76172-5.43847-1.65087-2.96778-1.65136-8.292zm51.74316 10.11625q2.42578 2.00538 2.42578 6.65039v16.62988h-6.61621V699.199a6.9065 6.9065 0 0 0-.5166-2.99121 3.63536 3.63536 0 0 0-3.59863-1.90332 4.46184 4.46184 0 0 0-4.47657 2.78711 9.63454 9.63454 0 0 0-.62988 3.76074v13.36816H35.409v-24.65132h6.25391v3.60254a10.93648 10.93648 0 0 1 2.3457-2.74121 8.12894 8.12894 0 0 1 5.03125-1.49512 9.4659 9.4659 0 0 1 6.23824 2.00488zm13.90918-4.36133h-6.54785v-5.959h6.54785zm-6.54785 2.94532h6.54785v24.69628h-6.54785zm9.10257 4.82617v-4.59961h3.4443v-6.8877h6.3887v6.8877h4.01074v4.59961H81.575v13.05078a2.9372 2.9372 0 0 0 .38574 1.8916 4.24229 4.24229 0 0 0 2.35644.374c.19629 0 .40332-.0039.623-.01171.21875-.00782.43359-.01856.64551-.03418v4.82617l-3.0586.11328q-4.57762.1582-6.2539-1.58594a4.72418 4.72418 0 0 1-1.08692-3.4209v-15.2031zm32.92282-4.32617a10.05524 10.05524 0 0 1 4.26758 3.65332 12.14793 12.14793 0 0 1 1.96777 5.10644 31.62223 31.62223 0 0 1 .21289 4.90137h-17.9873q.15087 3.71484 2.583 5.21094a6.56031 6.56031 0 0 0 3.55957.92871 5.01562 5.01562 0 0 0 4.915-2.832h6.59278a8.05856 8.05856 0 0 1-2.39453 4.46289q-3.31788 3.60351-9.291 3.60254a13.46568 13.46568 0 0 1-8.69922-3.03809q-3.76758-3.03808-3.76855-9.8877 0-6.416 3.40234-9.84082a11.904 11.904 0 0 1 8.83106-3.4248 14.062 14.062 0 0 1 5.80861 1.1572zm-9.66016 5.57812a6.70256 6.70256 0 0 0-1.71972 3.82324h11.124a5.38751 5.38751 0 0 0-1.71973-3.90234 5.65937 5.65937 0 0 0-3.83007-1.332 5.12185 5.12185 0 0 0-3.85448 1.4111zm31.30957-5.68164a7.84165 7.84165 0 0 1 2.832 2.73047V680.869h6.54785v33.35156h-6.27637v-3.42089a9.09665 9.09665 0 0 1-3.14941 3.19433 8.84434 8.84434 0 0 1-4.39551.99707 9.17793 9.17793 0 0 1-7.28418-3.501 13.44288 13.44288 0 0 1-2.95606-8.9834q0-6.32081 2.91114-9.94629a9.47023 9.47023 0 0 1 7.78222-3.625 7.96388 7.96388 0 0 1 3.98832.98534zm1.58594 17.59375a9.01425 9.01425 0 0 0 1.42774-5.2793q0-4.53222-2.28907-6.48047a4.92682 4.92682 0 0 0-3.26269-1.17773 4.5363 4.5363 0 0 0-4.15723 2.14063 11.54708 11.54708 0 0 0 .02246 10.78515 4.56009 4.56009 0 0 0 4.08985 2.05078 4.76886 4.76886 0 0 0 4.16894-2.03906zm29.78516-3.60254a6.76625 6.76625 0 0 0 1.27246 3.4209q1.73438 2.0625 5.94531 2.06152a12.77293 12.77293 0 0 0 4.09473-.54394 3.88634 3.88634 0 0 0 2.98437-3.874 2.85514 2.85514 0 0 0-1.46191-2.56054 15.86388 15.86388 0 0 0-4.63672-1.56348l-3.61621-.793q-5.33056-1.17773-7.32324-2.55957-3.37647-2.31152-3.376-7.22754a9.59663 9.59663 0 0 1 3.30273-7.4541q3.30177-2.96923 9.70215-2.96875a14.86961 14.86961 0 0 1 9.11621 2.79883 9.9454 9.9454 0 0 1 3.957 8.12207h-6.707a4.77935 4.77935 0 0 0-2.69433-4.28223 9.23053 9.23053 0 0 0-4.15723-.83789 7.9168 7.9168 0 0 0-4.41308 1.08692 3.442 3.442 0 0 0-1.64942 3.03613 2.86428 2.86428 0 0 0 1.626 2.67383 20.20079 20.20079 0 0 0 4.43652 1.38183l5.86133 1.38184a14.92192 14.92192 0 0 1 5.77637 2.4248 8.17142 8.17142 0 0 1 2.98535 6.81934 9.58331 9.58331 0 0 1-3.53809 7.60156q-3.5376 3.0249-9.99609 3.02539-6.59474 0-10.374-2.97949a9.85754 9.85754 0 0 1-3.77833-8.19043zm21.70117-9.56152v-4.59961h3.44434v-6.8877h6.38867v6.8877h4.01074v4.59961h-4.01074v13.05078a2.9372 2.9372 0 0 0 .38574 1.8916 4.24231 4.24231 0 0 0 2.35644.374c.19629 0 .40333-.0039.62305-.01171.21875-.00782.4336-.01856.64551-.03418v4.82617l-3.05859.11328q-4.57764.1582-6.25391-1.58594a4.72418 4.72418 0 0 1-1.08691-3.4209v-15.2031zm26.61133 4.84859a10.23234 10.23234 0 0 0 2.5791-.56641 1.944 1.944 0 0 0 1.39258-1.835 2.17142 2.17142 0 0 0-1.06836-2.09668 6.75532 6.75532 0 0 0-3.13477-.57714 4.11567 4.11567 0 0 0-3.28418 1.13281 4.66635 4.66635 0 0 0-.91894 2.26562h-6.23047a9.44262 9.44262 0 0 1 1.82031-5.32422q2.57081-3.26367 8.8291-3.26269a15.74624 15.74624 0 0 1 7.23633 1.6084q3.1626 1.60839 3.16309 6.07226v11.32813q0 1.17919.04492 2.85547a3.59044 3.59044 0 0 0 .38476 1.72168 2.3153 2.3153 0 0 0 .95215.748v.95117H210.74a7.1092 7.1092 0 0 1-.40821-1.40429c-.07617-.43848-.13574-.93653-.18164-1.4961a13.33033 13.33033 0 0 1-3.09961 2.46973 9.36186 9.36186 0 0 1-4.74023 1.20117 8.17806 8.17806 0 0 1-5.57129-1.915 6.806 6.806 0 0 1-2.19922-5.42578 7.03176 7.03176 0 0 1 3.53711-6.59375 15.82616 15.82616 0 0 1 5.707-1.58594zm3.94824 3.01367a7.18458 7.18458 0 0 1-1.25195.62305 10.61152 10.61152 0 0 1-1.7334.44141l-1.46973.27148a9.70028 9.70028 0 0 0-2.96875.88379 2.94988 2.94988 0 0 0-1.52539 2.74219 2.86256 2.86256 0 0 0 .93164 2.38964 3.54093 3.54093 0 0 0 2.2666.73633 6.74455 6.74455 0 0 0 3.89942-1.22363q1.7827-1.22315 1.85156-4.46289zm8.37893-7.86226v-4.59961h3.44433v-6.8877h6.38867v6.8877h4.01075v4.59961H228.158v13.05078a2.93718 2.93718 0 0 0 .38575 1.8916 4.24229 4.24229 0 0 0 2.35644.374c.19629 0 .40332-.0039.62305-.01171.21875-.00782.43359-.01856.64551-.03418v4.82617l-3.0586.11328q-4.57764.1582-6.2539-1.58594a4.72418 4.72418 0 0 1-1.08692-3.4209v-15.2031zm32.92283-4.32617a10.0553 10.0553 0 0 1 4.26758 3.65332 12.14806 12.14806 0 0 1 1.96777 5.10644 31.62223 31.62223 0 0 1 .21289 4.90137h-17.9873q.15087 3.71484 2.583 5.21094a6.56033 6.56033 0 0 0 3.55957.92871 5.01562 5.01562 0 0 0 4.915-2.832h6.59278a8.05852 8.05852 0 0 1-2.39454 4.46289q-3.31786 3.60351-9.291 3.60254a13.46568 13.46568 0 0 1-8.69922-3.03809q-3.76758-3.03808-3.76855-9.8877 0-6.416 3.40234-9.84082a11.904 11.904 0 0 1 8.83105-3.4248 14.062 14.062 0 0 1 5.80863 1.1572zm-9.66016 5.57812a6.70257 6.70257 0 0 0-1.71973 3.82324h11.124a5.38751 5.38751 0 0 0-1.71973-3.90234 5.6594 5.6594 0 0 0-3.83008-1.332 5.12184 5.12184 0 0 0-3.85446 1.4111zm23.2207 10.7334a4.30214 4.30214 0 0 0 .8877 2.44726q1.207 1.29054 4.46191 1.291a6.8297 6.8297 0 0 0 3.04-.56641 1.81387 1.81387 0 0 0 1.127-1.69921 1.83261 1.83261 0 0 0-.90821-1.6543q-.9082-.56543-6.75488-1.94824a14.02836 14.02836 0 0 1-5.93164-2.60547 5.64636 5.64636 0 0 1-1.72168-4.44043 7.69563 7.69563 0 0 1 2.69043-5.87988q2.69091-2.458 7.57227-2.458a13.91343 13.91343 0 0 1 7.5498 1.84668q2.91651 1.8457 3.34863 6.37793h-6.457a3.81158 3.81158 0 0 0-.7041-1.97168 4.43891 4.43891 0 0 0-3.63574-1.31348 5.23938 5.23938 0 0 0-3.00977.65625 1.89067 1.89067 0 0 0-.89746 1.541 1.68382 1.68382 0 0 0 .9541 1.60839 41.31288 41.31288 0 0 0 6.74219 1.79 12.3634 12.3634 0 0 1 5.78418 2.74219 6.22 6.22 0 0 1 1.90332 4.64453 7.4963 7.4963 0 0 1-2.73535 5.99219q-2.73633 2.32325-8.457 2.32227-5.83447 0-8.61524-2.458a7.98828 7.98828 0 0 1-2.78125-6.26465zm29.42188-8.11133h12.64355v6.11719h-12.64355zm49.89648-16.53906a8.25168 8.25168 0 0 1 3.126 2.333 10.4174 10.4174 0 0 1 1.67969 2.80957 9.37229 9.37229 0 0 1 .61816 3.51172 10.01124 10.01124 0 0 1-1.20019 4.67871 6.71554 6.71554 0 0 1-3.96582 3.25195 6.23954 6.23954 0 0 1 3.27443 2.63868 10.99493 10.99493 0 0 1 .96289 5.22266v2.24316a16.97451 16.97451 0 0 0 .18359 3.10449 2.79215 2.79215 0 0 0 1.28907 1.90332v.83789h-7.70313q-.31787-1.11034-.45312-1.79a16.3627 16.3627 0 0 1-.29492-2.877l-.04493-3.10449q-.04393-3.19482-1.10449-4.25977t-3.97558-1.06445h-6.81543v13.0957h-6.81934V680.824h15.97359a14.52749 14.52749 0 0 1 5.26953.86137zm-14.42382 4.93848v8.97265h7.51074a7.99512 7.99512 0 0 0 3.35644-.54394q1.979-.95216 1.9795-3.76075 0-3.03662-1.915-4.07812a6.90859 6.90859 0 0 0-3.22754-.58984zm42.59863 3.03715a7.24877 7.24877 0 0 1 3.05762 2.42676 6.47442 6.47442 0 0 1 1.24023 2.84571 35.23069 35.23069 0 0 1 .22559 4.77343v14.51367h-6.59278v-15.03911a6.66863 6.66863 0 0 0-.6748-3.2207 3.38254 3.38254 0 0 0-3.3291-1.72363 4.56754 4.56754 0 0 0-3.85743 1.71289 7.885 7.885 0 0 0-1.31543 4.88769v13.38281h-6.457v-33.2832h6.457v11.78125a7.9001 7.9001 0 0 1 3.23731-3.00195 9.11695 9.11695 0 0 1 3.86914-.84961 10.44367 10.44367 0 0 1 4.13965.79399zm30.03027 21.538q-3.126 3.85986-9.49316 3.85938-6.36621 0-9.49317-3.85938a15.32156 15.32156 0 0 1 0-18.55176q3.126-3.91553 9.49317-3.916 6.36621 0 9.49316 3.916a15.32153 15.32153 0 0 1 0 18.55176zm-5.165-3.56836a11.532 11.532 0 0 0 0-11.43652 5.73811 5.73811 0 0 0-8.71191 0 11.45531 11.45531 0 0 0 0 11.43652 5.72 5.72 0 0 0 8.71191 0zm24.85055-17.70992a7.8417 7.8417 0 0 1 2.832 2.73047V680.869h6.54785v33.35156h-6.27637v-3.42089a9.09656 9.09656 0 0 1-3.14941 3.19433 8.84432 8.84432 0 0 1-4.39551.99707 9.17795 9.17795 0 0 1-7.28418-3.501 13.44292 13.44292 0 0 1-2.95605-8.9834q0-6.32081 2.91113-9.94629a9.47025 9.47025 0 0 1 7.78223-3.625 7.96393 7.96393 0 0 1 3.98831.98534zm1.58594 17.59375a9.01425 9.01425 0 0 0 1.42773-5.2793q0-4.53222-2.28906-6.48047a4.92687 4.92687 0 0 0-3.2627-1.17773 4.5363 4.5363 0 0 0-4.15722 2.14063 11.547 11.547 0 0 0 .02246 10.78515 4.56007 4.56007 0 0 0 4.08984 2.05078 4.76886 4.76886 0 0 0 4.16895-2.03906zm28.5947-17.49023a10.05524 10.05524 0 0 1 4.26758 3.65332 12.14793 12.14793 0 0 1 1.96777 5.10644 31.622 31.622 0 0 1 .2129 4.90137H440.659q.15089 3.71484 2.583 5.21094a6.56033 6.56033 0 0 0 3.55957.92871 5.01562 5.01562 0 0 0 4.915-2.832h6.59277a8.05856 8.05856 0 0 1-2.39453 4.46289q-3.31787 3.60351-9.291 3.60254a13.46564 13.46564 0 0 1-8.69921-3.03809q-3.76758-3.03808-3.76856-9.8877 0-6.416 3.40234-9.84082a11.904 11.904 0 0 1 8.83106-3.4248 14.062 14.062 0 0 1 5.80856 1.1572zm-9.66015 5.57812a6.7025 6.7025 0 0 0-1.71973 3.82324h11.124a5.38751 5.38751 0 0 0-1.71972-3.90234 5.6594 5.6594 0 0 0-3.83008-1.332 5.12182 5.12182 0 0 0-3.85445 1.4111zm36.83302 18.61816h-6.93359V680.824h6.93359zm9.85157-7.88476a4.30214 4.30214 0 0 0 .88769 2.44726q1.207 1.29054 4.46192 1.291a6.82973 6.82973 0 0 0 3.04-.56641 1.81388 1.81388 0 0 0 1.12695-1.69921 1.83262 1.83262 0 0 0-.9082-1.6543q-.90821-.56543-6.75489-1.94824a14.02836 14.02836 0 0 1-5.93164-2.60547 5.64636 5.64636 0 0 1-1.72168-4.44043 7.69567 7.69567 0 0 1 2.69043-5.87988q2.69092-2.458 7.57227-2.458a13.91343 13.91343 0 0 1 7.5498 1.84668q2.91651 1.8457 3.34864 6.37793h-6.457a3.81158 3.81158 0 0 0-.7041-1.97168 4.43891 4.43891 0 0 0-3.63574-1.31348 5.23942 5.23942 0 0 0-3.00977.65625 1.89067 1.89067 0 0 0-.89746 1.541 1.68383 1.68383 0 0 0 .95411 1.60839 41.31261 41.31261 0 0 0 6.74218 1.79 12.3634 12.3634 0 0 1 5.78418 2.74219 6.22 6.22 0 0 1 1.90332 4.64453 7.4963 7.4963 0 0 1-2.73535 5.99219q-2.73633 2.32325-8.457 2.32227-5.83448 0-8.61523-2.458a7.98825 7.98825 0 0 1-2.78125-6.26465zm26.23242 7.88476h-6.457V680.824h6.457zm14.91992-15.02152a10.23234 10.23234 0 0 0 2.5791-.56641 1.944 1.944 0 0 0 1.39258-1.835 2.1714 2.1714 0 0 0-1.06836-2.09668 6.75524 6.75524 0 0 0-3.13476-.57714 4.11564 4.11564 0 0 0-3.28418 1.13281 4.66626 4.66626 0 0 0-.91895 2.26562h-6.23047a9.4427 9.4427 0 0 1 1.82031-5.32422q2.57081-3.26367 8.82911-3.26269a15.7462 15.7462 0 0 1 7.23632 1.6084q3.1626 1.60839 3.16309 6.07226v11.32813q0 1.17919.04492 2.85547a3.5903 3.5903 0 0 0 .38477 1.72168 2.31516 2.31516 0 0 0 .95215.748v.95117H535.117a7.10846 7.10846 0 0 1-.4082-1.40429c-.07618-.43848-.13575-.93653-.18165-1.4961a13.33028 13.33028 0 0 1-3.0996 2.46973 9.36189 9.36189 0 0 1-4.74024 1.20117 8.17806 8.17806 0 0 1-5.57129-1.915 6.806 6.806 0 0 1-2.19922-5.42578 7.03176 7.03176 0 0 1 3.53711-6.59375 15.82622 15.82622 0 0 1 5.707-1.58594zm3.94824 3.01367a7.18423 7.18423 0 0 1-1.252.62305 10.61125 10.61125 0 0 1-1.7334.44141l-1.46973.27148a9.70037 9.70037 0 0 0-2.96875.88379 2.94988 2.94988 0 0 0-1.52539 2.74219 2.86256 2.86256 0 0 0 .93164 2.38964 3.541 3.541 0 0 0 2.26661.73633 6.74452 6.74452 0 0 0 3.89941-1.22363q1.78272-1.22315 1.85156-4.46289zm30.83106-11.27242q2.42578 2.00538 2.42578 6.65039v16.62988h-6.61621V699.199a6.90665 6.90665 0 0 0-.5166-2.99121 3.63537 3.63537 0 0 0-3.59864-1.90332 4.46184 4.46184 0 0 0-4.47656 2.78711 9.63454 9.63454 0 0 0-.62988 3.76074v13.36816h-6.457v-24.65132h6.2539v3.60254a10.93669 10.93669 0 0 1 2.34571-2.74121 8.12892 8.12892 0 0 1 5.03125-1.49512 9.4659 9.4659 0 0 1 6.23825 2.00488zm20.36621-1.01953a7.8417 7.8417 0 0 1 2.832 2.73047V680.869h6.54785v33.35156h-6.27634v-3.42089a9.09656 9.09656 0 0 1-3.14941 3.19433 8.84432 8.84432 0 0 1-4.39551.99707 9.17795 9.17795 0 0 1-7.28418-3.501 13.44292 13.44292 0 0 1-2.95605-8.9834q0-6.32081 2.91113-9.94629a9.47025 9.47025 0 0 1 7.78223-3.625 7.96393 7.96393 0 0 1 3.98828.98534zm1.58594 17.59375a9.01425 9.01425 0 0 0 1.42773-5.2793q0-4.53222-2.28906-6.48047a4.92687 4.92687 0 0 0-3.2627-1.17773 4.5363 4.5363 0 0 0-4.15722 2.14063 11.547 11.547 0 0 0 .02246 10.78515 4.56007 4.56007 0 0 0 4.08984 2.05078 4.76886 4.76886 0 0 0 4.16895-2.03906zm25.88769-18.26172a48.57974 48.57974 0 0 1 5.23438-8.97265h4.87109l-1.38184 2.53808a37.7466 37.7466 0 0 0-3.96484 10.96582 43.29266 43.29266 0 0 0-.72559 8.20215 38.74406 38.74406 0 0 0 2.01661 12.75586 58.12246 58.12246 0 0 0 4.16894 8.83594h-4.78027l-1.6094-2.19825a29.43673 29.43673 0 0 1-3.33008-5.93554 33.80543 33.80543 0 0 1-3.14941-13.86621 30.76593 30.76593 0 0 1 2.65041-12.3252zm16.34961-4.93945a13.74844 13.74844 0 0 1 10.2666-4.124q8.3379 0 12.19336 5.52833a12.04787 12.04787 0 0 1 2.28613 6.23144h-6.97851a9.50651 9.50651 0 0 0-1.709-3.626 6.88064 6.88064 0 0 0-5.52636-2.1748 6.811 6.811 0 0 0-5.88282 3.07031q-2.15185 3.07032-2.15234 8.68848 0 5.61913 2.27149 8.417a7.11743 7.11743 0 0 0 5.77343 2.79883 6.54223 6.54223 0 0 0 5.47461-2.40137 10.54874 10.54874 0 0 0 1.72852-3.875h6.93262a15.04015 15.04015 0 0 1-4.583 8.88184 13.34106 13.34106 0 0 1-9.44824 3.4209q-7.12794 0-11.207-4.62207-4.07958-4.64356-4.08007-12.7334-.00004-8.74514 4.64058-13.48049zm42.35747 4.63281q.12451.01172.55469.03418v6.61621c-.40723-.0459-.77051-.07519-1.08691-.09082q-.47608-.022-.77051-.02246-3.89795 0-5.23438 2.53711a9.88131 9.88131 0 0 0-.74707 4.39551v11.80468h-6.50293v-24.69628h6.16309v4.30468a13.65889 13.65889 0 0 1 2.60547-3.376 7.09408 7.09408 0 0 1 4.71289-1.51758c.12007.00003.2226.00393.30566.01077zm9.61323.57813V704.41a7.82043 7.82043 0 0 0 .4961 3.17187 3.42889 3.42889 0 0 0 3.44922 1.88086 4.50737 4.50737 0 0 0 4.50879-2.67383 9.7217 9.7217 0 0 0 .63085-3.8291v-13.43556h6.54786v24.69628h-6.27539v-3.48925q-.09082.11426-.45215.67968a4.5547 4.5547 0 0 1-.8584.99707 8.95262 8.95262 0 0 1-2.92578 1.85743 9.95433 9.95433 0 0 1-3.31055.499q-5.4668 0-7.36523-3.94238A15.12152 15.12152 0 0 1 674.698 704.41v-14.88576zm25.75586 16.81152a4.30214 4.30214 0 0 0 .8877 2.44726q1.207 1.29054 4.46191 1.291a6.8297 6.8297 0 0 0 3.04-.56641 1.81386 1.81386 0 0 0 1.12695-1.69921 1.8326 1.8326 0 0 0-.9082-1.6543q-.9082-.56543-6.75488-1.94824a14.02836 14.02836 0 0 1-5.93164-2.60547 5.64636 5.64636 0 0 1-1.72168-4.44043 7.69563 7.69563 0 0 1 2.69043-5.87988q2.69091-2.458 7.57226-2.458a13.91347 13.91347 0 0 1 7.54981 1.84668q2.91649 1.8457 3.34863 6.37793h-6.457a3.81167 3.81167 0 0 0-.7041-1.97168 4.43892 4.43892 0 0 0-3.63574-1.31348 5.23938 5.23938 0 0 0-3.00977.65625 1.89067 1.89067 0 0 0-.89746 1.541 1.68382 1.68382 0 0 0 .9541 1.60839 41.31288 41.31288 0 0 0 6.74219 1.79 12.36345 12.36345 0 0 1 5.78418 2.74219 6.22 6.22 0 0 1 1.90332 4.64453 7.4963 7.4963 0 0 1-2.73535 5.99219q-2.73633 2.32325-8.457 2.32227-5.83447 0-8.61524-2.458a7.98828 7.98828 0 0 1-2.78125-6.26465zm37.3877-16.67476a7.24877 7.24877 0 0 1 3.05762 2.42676 6.47442 6.47442 0 0 1 1.24023 2.84571 35.23069 35.23069 0 0 1 .22559 4.77343v14.51367h-6.59278v-15.03911a6.66863 6.66863 0 0 0-.6748-3.2207 3.38254 3.38254 0 0 0-3.3291-1.72363 4.56754 4.56754 0 0 0-3.85743 1.71289 7.885 7.885 0 0 0-1.31543 4.88769v13.38281h-6.457v-33.2832h6.457v11.78125a7.9001 7.9001 0 0 1 3.23731-3.00195 9.11695 9.11695 0 0 1 3.86914-.84961 10.44367 10.44367 0 0 1 4.13965.79399zm24.8789-5.3477a13.74846 13.74846 0 0 1 10.26661-4.124q8.33788 0 12.19336 5.52833a12.04787 12.04787 0 0 1 2.28613 6.23144h-6.97852a9.50666 9.50666 0 0 0-1.709-3.626 6.88066 6.88066 0 0 0-5.52637-2.1748 6.811 6.811 0 0 0-5.88281 3.07031q-2.15186 3.07032-2.15234 8.68848 0 5.61913 2.27148 8.417a7.11746 7.11746 0 0 0 5.77344 2.79883 6.54224 6.54224 0 0 0 5.47461-2.40137 10.54891 10.54891 0 0 0 1.72851-3.875h6.93262a15.04015 15.04015 0 0 1-4.583 8.88184 13.341 13.341 0 0 1-9.44824 3.4209q-7.12793 0-11.207-4.62207-4.0796-4.64356-4.08008-12.7334-.00002-8.74514 4.6406-13.48049zm49.2334 26.8857q-3.126 3.85986-9.49316 3.85938-6.36621 0-9.49316-3.85938a15.32153 15.32153 0 0 1 0-18.55176q3.126-3.91553 9.49316-3.916 6.36621 0 9.49316 3.916a15.32153 15.32153 0 0 1 0 18.55176zm-5.165-3.56836a11.532 11.532 0 0 0 0-11.43652 5.73811 5.73811 0 0 0-8.71191 0 11.45531 11.45531 0 0 0 0 11.43652 5.72 5.72 0 0 0 8.71191 0zm26.96871-18.1064h6.9336l-8.918 24.69628h-6.80859l-8.85645-24.69628h7.25l5.14355 18.21679zm16.07129-2.94532h-6.54785v-5.959h6.54785zm-6.54785 2.94532h6.54785v24.69628h-6.54785zm24.73633.39648a7.84162 7.84162 0 0 1 2.832 2.73047V680.869h6.54785v33.35156h-6.27636v-3.42089a9.09667 9.09667 0 0 1-3.14942 3.19433 8.84432 8.84432 0 0 1-4.39551.99707 9.17795 9.17795 0 0 1-7.28418-3.501 13.44292 13.44292 0 0 1-2.95605-8.9834q0-6.32081 2.91113-9.94629a9.47025 9.47025 0 0 1 7.78223-3.625 7.96393 7.96393 0 0 1 3.98831.98534zm1.58594 17.59375a9.01425 9.01425 0 0 0 1.42773-5.2793q0-4.53222-2.28906-6.48047a4.92683 4.92683 0 0 0-3.2627-1.17773 4.5363 4.5363 0 0 0-4.15722 2.14063 11.547 11.547 0 0 0 .02246 10.78515 4.56008 4.56008 0 0 0 4.08984 2.05078 4.76886 4.76886 0 0 0 4.16895-2.03906zm20.16504-18.26172A30.79359 30.79359 0 0 1 899.031 701.578a33.858 33.858 0 0 1-3.14355 13.86621 29.50558 29.50558 0 0 1-3.3252 5.93554l-1.60547 2.19825h-4.77246a58.37674 58.37674 0 0 0 4.1543-8.83594 38.89863 38.89863 0 0 0 2.00879-12.75586 43.54319 43.54319 0 0 0-.72266-8.20215 37.85384 37.85384 0 0 0-3.95019-10.96582l-1.377-2.53808h4.86231a48.5962 48.5962 0 0 1 5.22468 8.9726z"/><g id="Anchor"><g id="Body"><path d="M447.98357 202.2535s-1.25176 139.607-1.25176 149.76277 0 24.11416-11.21863 21.57518c-11.195-2.53894-24.90535-2.53894-44.83909-16.49729-19.92192-13.95834-19.92192-16.49729-19.92192-16.49729l18.682-6.35329s-18.682-3.80252-31.14054-12.68294c-12.45859-8.89224-22.42546-16.50909-22.42546-16.50909s-1.24 19.048 4.98344 33.00638c6.23519 13.95834 18.682 26.65311 18.682 26.65311v-16.49729s17.442 16.49729 23.67719 20.31163c6.22338 3.80253 31.14055 13.95835 41.09559 20.31164 9.96687 6.32965 28.22878 24.10234 28.22878 24.10234s19.11383-20.31164 31.57243-25.38953 28.64885-12.68294 36.124-17.76087 27.39709-24.11416 27.39709-24.11416V367.25s13.69854-16.49729 17.442-27.92847c3.74349-11.4194 4.98343-31.731 4.98343-31.731s-9.96687 7.61685-18.682 11.43118c-8.72693 3.80253-33.63228 13.95835-33.63228 13.95835l19.92191 5.07789s-32.38052 25.38952-43.58732 30.46742c-20.41366 9.81475-34.884 7.60505-34.884-5.0779s1.25176-161.194 1.25176-161.194zm1.23993-46.96472h8.71511v38.07248h-8.71511z" class="cls-1"/><path d="M452.55837 414.00861l-.54687-.53223c-.18164-.17675-18.32031-17.791-28.10742-24.00683-5.71778-3.64844-16.334-8.52735-25.7002-12.832-6.82715-3.13672-12.72363-5.84668-15.38379-7.47266-5.32031-3.25391-18.38476-15.333-22.53613-19.21777v16.59958l-1.28516-1.31055c-.126-.12793-12.61425-12.95215-18.832-26.87207-6.22754-13.9668-5.05957-33.16895-5.04687-33.36133l.09082-1.39746 1.1123.85059c.09961.07617 10.10059 7.71191 22.40625 16.49414 12.1875 8.6875 30.66895 12.52148 30.8545 12.55859l2.71582.55274-20.45508 6.95605c1.02636 1.35059 4.89648 5.39941 19.25976 15.46289 16.04395 11.23438 28.17481 13.37695 37.92285 15.09863 2.32813.41114 4.52637.79883 6.65235 1.28125 2.60156.58887 4.61719.27539 6.16211-.96 4.14062-3.30761 4.14062-12.499 4.14062-19.88379 0-10.043 1.23828-148.373 1.251-149.76953l.00684-.74316h13.958l-.00586.75586c-.01269 1.48535-1.252 148.65332-1.252 161.1875 0 3.90527 1.41309 6.77441 4.19824 8.52636 5.707 3.58692 16.77539 2.04688 29.61035-4.124 9.793-4.4375 36.27149-24.80566 42.24512-29.44238l-20.64453-5.26172 2.10742-.85938c.249-.10156 24.99707-10.19628 33.61524-13.95214 8.53222-3.7334 18.42773-11.26368 18.52734-11.33887l1.30371-.99707-.09961 1.63867c-.01269.2041-1.29 20.53906-5.01953 31.918-3.74609 11.43555-17.01562 27.49609-17.57812 28.1748l-1.32715 1.59766v-21.9043c-4.53711 4.29785-19.791 18.61524-26.22559 22.98633-7.72266 5.2461-24.21094 12.92285-36.26269 17.835-12.166 4.959-31.11914 25.00781-31.30957 25.209zM358.784 346.4715l1.26563 1.19727c.17382.16406 17.45507 16.48633 23.55273 20.21679 2.584 1.57911 8.44336 4.27149 15.22754 7.38965 9.41016 4.32422 20.07617 9.22559 25.87988 12.92969 8.94824 5.68262 24.68067 20.667 27.80274 23.66992 3.21582-3.35547 19.84961-20.34765 31.31152-25.01953 11.98144-4.88379 28.35352-12.501 35.98535-17.68652 7.33887-4.98535 27.10254-23.84668 27.30078-24.03614l1.26856-1.21191v21.2002c3.51758-4.44825 13.00683-16.957 15.97949-26.03321 3.06055-9.33691 4.44922-24.89746 4.833-29.9248-3.0166 2.19433-10.68262 7.55371-17.51856 10.5459-7.14844 3.11425-25.34472 10.57129-31.54492 13.10644l19.19629 4.89258-1.19922.94043c-1.32519 1.03906-32.58008 25.50293-43.74121 30.56055-13.4834 6.48144-24.80273 7.956-31.043 4.03418-3.20605-2.01563-4.90039-5.40332-4.90039-9.7959 0-12.07422 1.14844-148.94336 1.24609-160.44336h-10.96c-.09863 11.01953-1.24414 139.3584-1.24414 149.01269 0 7.707 0 17.29785-4.7041 21.05567-1.89746 1.5166-4.39551 1.93652-7.43066 1.251-2.09082-.47461-4.27149-.85937-6.58106-1.26757-9.89355-1.74707-22.20605-3.92188-38.52246-15.34668-18.78223-13.16016-20.24219-16.42481-20.24219-17.11231v-.53711l16.709-5.68164c-5.59863-1.39941-19.1543-5.293-28.85254-12.207-9.90918-7.07129-18.32715-13.40234-21.29981-15.65332-.13476 4.65039-.127 19.78516 4.97754 31.23535 4.93555 11.04785 13.91895 21.42188 17.248 25.06055zm99.9043-152.36035h-10.21489v-39.57227h10.21485zm-8.71485-1.5h7.21485v-36.57227h-7.21485z" class="cls-1"/></g><g id="Stock"><path d="M386.95424 193.37307s34.87222-7.61686 67.25273-7.61686 66.01277 7.605 66.01277 7.605v13.97015s-44.83909 6.34147-70.9962 6.34147-62.279-7.61685-62.279-7.61685z" class="cls-1"/><path d="M449.22341 214.42267c-25.93554 0-62.07226-7.55566-62.43359-7.63281l-.5957-.125.00976-13.89551.58985-.1289c.34961-.07618 35.32324-7.63379 67.41308-7.63379 32.09375 0 65.84082 7.54687 66.17774 7.623l.585.13184v15.22168l-.64453.09082c-.44926.06352-45.19145 6.34867-71.10161 6.34867zm-61.52929-8.97754c4.80957.98145 37.57715 7.47754 61.52929 7.47754 24.10645 0 64.64649-5.47168 70.2461-6.24414v-12.71386c-4.61426-.99805-35.65528-7.458-65.2627-7.458-29.64258 0-61.78222 6.48633-66.50293 7.47363z" class="cls-2"/></g><g id="Shackle"><path fill="#fec500" fill-rule="evenodd" d="M474.12882 186.38209a21.40933 21.40933 0 0 0-5.8396-14.80858 19.93817 19.93817 0 0 0-6.33632-4.48485c-1.19233-.52937-.98107-.73141-2.27853-1.01009l.03813 7.25369c1.56378.77129 1.92748 1.53895 3.11062 2.91765a16.53471 16.53471 0 0 1 3.83057 10.76988c0 8.40806-5.8573 13.85454-13.07267 13.85454s-13.07266-5.44648-13.07266-13.85454a16.53476 16.53476 0 0 1 3.83056-10.76988c1.18315-1.3787 1.54685-2.14637 3.11063-2.91765l.03813-7.25368c-1.29742.2787-1.08617.4807-2.27854 1.01009a19.93782 19.93782 0 0 0-6.33631 4.48486 21.40933 21.40933 0 0 0-5.8396 14.80858 20.5516 20.5516 0 0 0 41.09552.795q.00767-.39749 0-.795z"/><path d="M453.58767 208.08088c-.13965 0-.2793-.001-.41894-.00391a21.30285 21.30285 0 0 1-20.88575-21.71 22.05862 22.05862 0 0 1 6.04395-15.30859 20.59558 20.59558 0 0 1 6.57617-4.6543 5.91348 5.91348 0 0 0 .833-.44434 4.18761 4.18761 0 0 1 1.59473-.61426l.9121-.19531-.04589 8.64942-.415.20507a5.64764 5.64764 0 0 0-2.19239 1.90821c-.20214.251-.42285.52344-.68164.82519a15.79393 15.79393 0 0 0-3.64941 10.27246c0 7.60157 5.18262 13.11329 12.32227 13.11329 7.14062 0 12.32324-5.51172 12.32324-13.1045a15.8049 15.8049 0 0 0-3.65723-10.28906c-.251-.293-.4707-.56543-.67285-.81543a5.65429 5.65429 0 0 0-2.19336-1.91016l-.416-.20507-.04492-8.64942.91211.19531a4.169 4.169 0 0 1 1.59278.61426 5.94211 5.94211 0 0 0 .833.44336 20.59316 20.59316 0 0 1 6.5752 4.65332 22.06463 22.06463 0 0 1 6.0459 15.32031q.00732.40723 0 .81446a21.32654 21.32654 0 0 1-21.29107 20.88969zm-6.85547-40.96973c-.06543.03711-.13086.07715-.20508.124a7.36868 7.36868 0 0 1-1.01367.53907 19.09242 19.09242 0 0 0-6.09668 4.31543 20.56946 20.56946 0 0 0-5.63379 14.28808A19.80278 19.80278 0 0 0 453.198 206.577c.12891.00293.25977.00391.38867.00391a19.82262 19.82262 0 0 0 19.792-19.418 20.12405 20.12405 0 0 0 0-.76758v-.01758a20.56727 20.56727 0 0 0-5.63575-14.29 19.09 19.09 0 0 0-6.0957-4.31445 7.40377 7.40377 0 0 1-1.01269-.53906c-.07422-.04493-.13868-.08594-.20411-.12207l.03028 5.7666a7.38385 7.38385 0 0 1 2.28027 2.09375c.19336.24023.4043.501.65137.78906a17.30645 17.30645 0 0 1 4.01172 11.2666c0 8.4541-5.81348 14.59571-13.82324 14.59571-8.00879 0-13.82227-6.14161-13.82227-14.6045a17.29543 17.29543 0 0 1 4.00391-11.25c.25488-.29687.46679-.55859.66015-.79883a7.38626 7.38626 0 0 1 2.2793-2.09179z" class="cls-2"/></g></g><g id="Banner"><g id="path18"><path d="M568.25908 429.99164s-16.54454 15.11561-32.73478 17.26487c-16.19024 2.161-41.68605 9.7661-41.68605 9.7661s-.67312 23.28751.1181 25.30686 1.299 2.55076 3.6254 2.63343a182.717 182.717 0 0 0 45.91371-4.35755c26.13351-6.08167 51.771-21.81138 51.771-21.81138-5.9754-2.45627-20.4297-4.61735-29.75891-6.93192zm-48.45267 35.95867c1.77136 4.72363-26.19253 9.093-25.85006 16.37919M337.675 429.99164s16.54452 15.11561 32.73478 17.26487c16.19024 2.161 41.686 9.7661 41.686 9.7661s.67313 23.28751-.11809 25.30686-1.299 2.55076-3.6254 2.63343a182.71566 182.71566 0 0 1-45.91372-4.35755c-26.1335-6.08167-51.771-21.81138-51.771-21.81138 5.97539-2.45627 20.42971-4.61735 29.75888-6.93192zm48.45266 35.95867c-1.77136 4.72363 26.19254 9.093 25.8501 16.37919" class="cls-4"/><path d="M503.406 485.55549q-2.92089 0-5.83984-.09278c-2.55176-.08984-3.22461-.78027-4.0752-2.95019-.80566-2.05567-.22168-23.11035-.15234-25.50489a.50178.50178 0 0 1 .35742-.46484c.25488-.07617 25.71777-7.64062 41.76172-9.78125 15.8457-2.10449 32.2998-16.98828 32.46484-17.13867a.49979.49979 0 0 1 .833.43164l-2.69629 21.42871c3.376.82227 7.44238 1.63867 11.38086 2.42969 6.99023 1.40527 14.21777 2.85742 18.0166 4.418a.50058.50058 0 0 1 .07129.88867c-.25683.1582-26.00683 15.8418-51.91894 21.873a183.42609 183.42609 0 0 1-40.20312 4.46291zm-8.95215-3.32813c.7002 1.77149 1.07324 2.16211 3.14551 2.23535a182.09792 182.09792 0 0 0 45.78711-4.3457c23.05957-5.36621 46.01367-18.44043 50.73828-21.22363-3.90137-1.39161-10.49219-2.71582-16.88184-4-4.11816-.82715-8.376-1.68262-11.85546-2.5459a.50052.50052 0 0 1-.376-.54785l2.58887-20.57032c-3.83692 3.26172-18.11719 14.67871-32.01075 16.52344-14.94628 1.99512-38.15332 8.73242-41.26171 9.64649-.21289 7.50195-.376 18.04882-.14649 22.61132 2.10742-3.11035 8.46192-5.542 14.64746-7.9082 5.22656-2 11.15039-4.2666 10.50977-5.97656l.93554-.35156c.99024 2.64062-4.33984 4.67968-11.08886 7.26171-6.58784 2.52149-14.77534 5.6543-14.7314 9.19141zm-91.92578 3.32813a183.36362 183.36362 0 0 1-40.19922-4.46192c-25.916-6.03222-51.666-21.71582-51.92285-21.874a.50058.50058 0 0 1 .07129-.88867c3.79883-1.56055 11.02637-3.0127 18.0166-4.418 3.93848-.791 8.00488-1.60742 11.38086-2.42969l-2.69629-21.42871a.49979.49979 0 0 1 .833-.43164c.165.15039 16.61914 15.03418 32.46387 17.13769 16.04492 2.14161 41.50781 9.70606 41.76269 9.78223a.50178.50178 0 0 1 .35742.46484c.06934 2.39454.65332 23.44922-.15234 25.50489-.85059 2.16992-1.52344 2.86035-4.07324 2.95019q-2.91939.0923-5.84176.09279zm-90.71875-26.66211c4.72461 2.7832 27.67871 15.85742 50.74219 21.22461a181.99839 181.99839 0 0 0 45.78515 4.34472c2.07032-.07324 2.44336-.46386 3.14356-2.23535.04492-3.53809-8.14356-6.66992-14.73145-9.19141-6.749-2.582-12.0791-4.62109-11.08886-7.26171l.93554.35156c-.64062 1.71 5.28321 3.97656 10.50977 5.97656 6.18555 2.36621 12.54 4.79785 14.64746 7.9082.22949-4.56347.06641-15.10937-.14648-22.61132-3.1084-.91407-26.31543-7.65137-41.2627-9.64649-13.8925-1.84475-28.17282-13.26175-32.00973-16.52344l2.58886 20.57032a.50052.50052 0 0 1-.376.54785c-3.4795.86328-7.73731 1.71875-11.85547 2.5459-6.38962 1.28418-12.98044 2.60839-16.88181 4z" class="cls-2"/></g><g id="path20"><path d="M390.68591 464.97014a4.4021 4.4021 0 0 0-4.55829.98013v-40.33982s1.74776-1.58242 4.79449-.248c10.74627 4.68821 38.45037 14.19451 62.04493 14.19451s51.29865-9.5063 62.04492-14.19451c3.04673-1.33443 4.79449.2362 4.79449.2362v40.35165a4.37542 4.37542 0 0 0-4.55829-.98014c-11.45482 3.55455-41.40264 12.39954-62.28109 12.39954s-50.8263-8.845-62.28109-12.38772z" class="cls-4"/><path d="M452.96755 477.86994c-18.42871 0-44.12109-6.749-62.42871-12.41016a.504.504 0 0 1-.1123-.0498 3.92685 3.92685 0 0 0-3.95117.89941.49326.49326 0 0 1-.543.10059.499.499 0 0 1-.30469-.46v-40.33981a.50065.50065 0 0 1 .16406-.37109c.082-.07324 2.03028-1.78027 5.33008-.335 11.2207 4.89551 38.58789 14.15332 61.84473 14.15332 23.25879 0 50.625-9.25781 61.84472-14.15332 3.30274-1.44531 5.24805.25 5.32911.32226a.50109.50109 0 0 1 .166.37207V465.95a.49984.49984 0 0 1-.84961.35742 3.89652 3.89652 0 0 0-4.03711-.86719c-18.28902 5.67483-43.94527 12.42971-62.45211 12.42971zm-62.03613-13.335c18.23535 5.63476 43.76465 12.335 62.03613 12.335 14.3418 0 36.40723-4.39551 62.13184-12.37695a4.88532 4.88532 0 0 1 4.207.4375v-39.082a4.20331 4.20331 0 0 0-4.09473-.02832c-11.2871 4.92481-38.82128 14.23731-62.24511 14.23731-23.42188 0-50.957-9.3125-62.24512-14.23731a4.1828 4.1828 0 0 0-4.09375.03907v39.07617a4.94838 4.94838 0 0 1 4.22852-.43555.48235.48235 0 0 1 .07522.03514z" class="cls-2"/></g></g><g id="Stars"><path d="M452.967 36.31227l27.765 85.45147-72.68961-52.81211h89.84918L425.202 121.76374z" class="cls-1" id="star"/><g id="half"><path d="M587.41157 69.447l-15.123 88.56718-39.82376-80.54174 79.55919 41.75179-88.90587 12.98582z" class="cls-1" id="star-2"/><path d="M691.06149 161.26168l-54.54709 71.39653 2.16386-89.82325 51.04606 73.94029-84.7582-29.81485z" class="cls-1" id="star-3"/><path d="M740.18191 290.77624l-81.48375 37.85828 43.66946-78.52308 10.82538 89.19464-61.18527-65.79714z" class="cls-1" id="star-4"/><path d="M723.48688 428.23358l-89.74409-4.34195 75.15695-49.23755-31.86211 84.01-23.60292-86.69372z" class="cls-1" id="star-5"/><path d="M644.82912 542.19064L567.38067 496.643l89.42966-8.67409-67.25152 59.58285 19.38574-87.73311z" class="cls-1" id="star-6"/><path d="M522.22528 606.54546L474.812 530.22487l83.21846 33.87613-87.23686 21.50817 57.934-68.67716z" class="cls-1" id="star-7"/></g><g id="half-2"><path d="M318.52243 69.447l15.12294 88.56718 39.82378-80.54174L293.91 119.22422 382.8159 132.21z" class="cls-1" id="star-8"/><path d="M214.87248 161.26168l54.54708 71.39653-2.16386-89.82321-51.0461 73.94031 84.75832-29.81487z" class="cls-1" id="star-9"/><path d="M165.75212 290.77624l81.48375 37.85828-43.66952-78.5231-10.82535 89.19463 61.1853-65.79715z" class="cls-1" id="star-10"/><path d="M182.44713 428.23358l89.74406-4.34195-75.15693-49.23755 31.86209 84.01 23.60292-86.69372z" class="cls-1" id="star-11"/><path d="M261.10489 542.19064l77.44845-45.54764-89.42963-8.67409 67.25148 59.58281-19.38572-87.73307z" class="cls-1" id="star-12"/><path d="M383.70869 606.54546l47.41324-76.32059L347.9035 564.101l87.23686 21.50819-57.934-68.67716z" class="cls-1" id="star-13"/></g></g><path d="M492.22946 438.08181c6.65724-1.81245 13.25458-3.8483 19.82641-5.95244q.13288 3.05561.21065 6.12719c-4.17585 1.28563-8.3473 2.55844-12.52459 3.77427q.01594 2.261.0209 4.52549c3.88873-1.11806 7.77789-2.27936 11.67646-3.445q.03222 2.9414.0169 5.89662c-3.91168 1.12775-7.80917 2.2644-11.70291 3.36617q-.01412 2.8144-.04793 5.63443c4.30933-1.20015 8.62274-2.43187 12.95626-3.62958q-.07174 3.3051-.20657 6.62863c-6.78677 1.78772-13.53367 3.71427-20.31164 5.49287q.1512-14.23928.0861-28.41866zm-30.698 6.05586c4.25751-.39145 8.4947-1.03232 12.70482-1.83313 2.75507-.524 4.79939-.22538 6.156.98479a5.10075 5.10075 0 0 1 1.19849 1.594 9.85374 9.85374 0 0 1 .83739 4.38333 12.85515 12.85515 0 0 1-.85 4.76983 10.1819 10.1819 0 0 1-1.37444 2.44582 10.36132 10.36132 0 0 1-6.75454 3.76033q-2.06878.36543-4.152.67147-.02195 5.239-.0946 10.48481-3.82707.53755-7.68152.83951.18795-14.07051.01063-28.10073zm7.77447 11.05786q.93261-.13941 1.8624-.29137a4.99876 4.99876 0 0 0 3.07408-1.40366 3.65154 3.65154 0 0 0 .87944-2.42441 2.88392 2.88392 0 0 0-.77432-2.11207c-.51571-.52235-1.47884-.64855-2.9-.40879q-1.08191.1825-2.167.34867.02184 3.1446.02541 6.29156zm-43.6101.13807c-.02314-4.60611 1.08184-7.93019 3.31774-10.04194 2.24609-2.12133 5.35848-2.79208 9.387-2.23921a14.62446 14.62446 0 0 1 9.56169 4.67833c2.25294 2.60745 3.40062 6.10365 3.40253 10.60929a18.60816 18.60816 0 0 1-1.49415 8.021 10.269 10.269 0 0 1-4.24537 4.66608 10.965 10.965 0 0 1-6.84785 1.05968 14.70929 14.70929 0 0 1-6.90291-2.54554 14.36579 14.36579 0 0 1-4.43972-5.62716 20.20937 20.20937 0 0 1-1.73892-8.58053zm7.56 1.51621a11.61361 11.61361 0 0 0 1.41105 6.33556 5.25032 5.25032 0 0 0 3.79917 2.399 3.91363 3.91363 0 0 0 3.8097-1.37739c.899-1.11968 1.34542-3.25214 1.34106-6.38313a10.04857 10.04857 0 0 0-1.431-5.90739 5.38048 5.38048 0 0 0-3.82865-2.29255 3.8868 3.8868 0 0 0-3.71513 1.30524q-1.39794 1.63162-1.38619 5.92058zm-40.37064-25.18137q3.63521 1.30419 7.30319 2.51674-.11763 4.93862-.14632 9.91372 4.07975 1.29116 8.16639 2.48582-.00351-4.9485.034-9.873 3.719 1.10413 7.46958 2.09722-.00708 14.07285.15263 28.26079-3.75679-.96278-7.49809-2.01668-.0939-5.77175-.13212-11.51133-4.0946-1.17619-8.1888-2.44211.039 5.78072.19659 11.61036-3.71021-1.0939-7.40807-2.20252-.60441-14.62342.05114-28.83895z" class="cls-1" id="HOPE"/></svg>