<svg xmlns="http://www.w3.org/2000/svg" role="img" viewBox="-1.20 -1.20 62.34 35.40"><title>United Kingdom - England and Wales (NHS COVID-19) logo</title><clipPath id="a"><path d="M0 0v30h60V0z"/></clipPath><clipPath id="b"><path d="M30 15h30v15zv15H0zH0V0zV0h30z"/></clipPath><g clip-path="url(#a)"><path fill="#012169" d="M0 0v30h60V0z"/><path stroke="#fff" stroke-width="6" d="M0 0l60 30m0-30L0 30"/><path stroke="#C8102E" stroke-width="4" d="M0 0l60 30m0-30L0 30" clip-path="url(#b)"/><path stroke="#fff" stroke-width="10" d="M30 0v30M0 15h60"/><path stroke="#C8102E" stroke-width="6" d="M30 0v30M0 15h60"/></g><path d="M5.18158 31.23749v.85772c0 .14838.02316.26391.0692.34659.08645.15134.25072.22729.49229.22729.24183 0 .40556-.07595.49147-.2273.04605-.08267.06894-.1982.06894-.34658v-.85772h-.29623v.85772c0 .09614-.01131.16616-.03393.21032-.03555.0781-.1123.11742-.23025.11742-.1185 0-.19551-.03932-.23106-.11742-.02262-.04416-.03393-.11418-.03393-.21032v-.85772zm.56149 0zm1.6508.4228c-.06786-.05602-.15511-.08375-.26175-.08375-.08537 0-.15566.02073-.21113.06247-.03097.02316-.06383.0614-.09857.11446v-.15054h-.26041V32.633h.26903v-.55853c0-.06382.00862-.11607.02639-.15727.0342-.07756.09695-.11634.18851-.11634.07433 0 .12496.0264.15135.07945.01454.02908.02181.07082.02181.12495v.62774h.27657v-.6948c0-.12953-.03393-.22217-.1018-.27791zm-.3614-.08672zm.98941-.0956v-.2491h-.2736v.2491zm-.2736.12307V32.633h.2736v-1.03196zm.42899.2017h.1438v.63529c0 .06436.01536.11202.04552.143.04659.04847.13384.07055.26122.06624l.12792-.00485v-.2017a.4382.4382 0 0 1-.02693.00161c-.00916.00027-.01778.00054-.02613.00054-.05493 0-.08779-.00538-.09856-.01589-.0105-.01023-.01589-.03662-.01589-.0789v-.54533h.1675v-.19228h-.1675v-.28762h-.26714v.28762h-.14381zm1.01338.05198c.03447-.03905.08294-.0587.14542-.0587.05736 0 .10556.01858.14434.05547.03878.0369.0606.09102.0649.16239h-.4193c.00862-.06706.03043-.11984.06464-.15916zm.37728-.23294c-.06867-.03205-.14596-.0482-.23186-.0482-.14462 0-.26203.04766-.35279.143-.09048.09532-.13572.2324-.13572.41094 0 .19067.05009.32828.15054.41284.10044.08456.21624.12684.3474.12684.15915 0 .28276-.05036.37109-.15054.05682-.06328.08887-.1255.0956-.18662h-.2755c-.01454.03043-.03123.05413-.05008.0711-.03474.0315-.07972.04739-.13546.04739-.05225 0-.09722-.01293-.13438-.03905-.06113-.04147-.09372-.11418-.09749-.2176h.70637c.00108-.08913-.00161-.15727-.00861-.20466-.01212-.0808-.03824-.15162-.07864-.21302-.0447-.0692-.10152-.1201-.17047-.15242zm-.21301-.0482zm1.19973.04416c-.04874-.02747-.10422-.0412-.1667-.0412-.13572 0-.24425.05035-.32531.15134s-.12172.23968-.12172.4158c0 .1527.0412.27765.1236.3754.08241.0975.18394.14624.30458.14624.07298 0 .13438-.014.18366-.04175.04902-.02773.09291-.07217.13142-.13357v.143h.2623v-1.39363h-.2736v.49228c-.03017-.04847-.06976-.08644-.11823-.11391zm.06625.73519c-.03986.05655-.09803.0851-.17424.0851-.07648 0-.1333-.02855-.171-.08564-.03744-.0571-.05629-.1333-.05629-.22864 0-.08833.01858-.16239.05548-.22217.0369-.05951.0948-.0894.1737-.0894.0517 0 .09721.01642.13626.04927.06383.05413.0956.14462.0956.27065 0 .09049-.01993.164-.05951.22083zm1.1359-1.11544v1.3955h.28708v-.46669l.13896-.143.43088.6097h.37486l-.60107-.82083.57172-.57468h-.37675l-.5386.57468v-.57468zm1.65135.24048v-.2491h-.2736v.2491zm-.2736.12307V32.633h.2736v-1.03196zm1.36858.05925c-.06787-.05602-.15512-.08375-.26203-.08375-.0851 0-.15539.02073-.21113.06247-.0307.02316-.06356.0614-.0983.11446v-.15054h-.26041V32.633h.26876v-.55853c0-.06382.00889-.11607.02666-.15727.03393-.07756.09695-.11634.18851-.11634.07433 0 .12496.0264.15135.07945.01454.02908.02181.07082.02181.12495v.62774h.2763v-.6948c0-.12953-.03393-.22217-.10152-.27791zm-.3614-.08672zm1.31526.76643c-.04363.04767-.09695.07137-.16024.07137-.09452 0-.16023-.04336-.19685-.13062-.0202-.04658-.03017-.0999-.03017-.15996 0-.06948.00943-.12765.02828-.17504.03609-.08914.10126-.13358.19605-.13358.06948 0 .12469.02559.16616.07675.0412.05117.06194.1255.06194.22352 0 .10395-.02182.1799-.06517.22756zm-.09183-.73977c-.03851-.01588-.08376-.0237-.13546-.0237-.1403 0-.2483.05225-.32478.15674-.07648.10422-.11445.23321-.11445.38671 0 .15889.03959.28492.11876.3781.07918.09318.18501.13977.3175.13977.08591 0 .15566-.02047.20925-.06167.02962-.02209.05736-.05521.08348-.09937v.06624c0 .09857-.01077.16858-.03231.21033-.03286.0649-.09776.09748-.19497.09748-.06895 0-.11769-.01238-.14677-.0369-.01697-.014-.02936-.03662-.0369-.06812h-.29353c.00888.10287.05493.18016.13815.23186.08348.0517.19093.07756.32289.07756.2184 0 .36598-.05817.443-.17424.04497-.06759.06732-.16777.06732-.30107v-.9789h-.2623v.14865c-.0404-.07245-.09344-.12254-.15888-.14947zm-.04929-.02666zm1.26948.04417c-.04847-.02747-.10421-.0412-.1667-.0412-.13572 0-.24398.05035-.32504.15134s-.12172.23968-.12172.4158c0 .1527.0412.27765.1236.3754.08241.0975.18367.14624.30432.14624.07325 0 .13438-.014.18366-.04175.04928-.02773.09318-.07217.13169-.13357v.143h.2623v-1.39363h-.27361v.49228c-.03043-.04847-.06975-.08644-.1185-.11391zm.06625.73519c-.03959.05655-.09775.0851-.17424.0851-.0762 0-.1333-.02855-.17073-.08564-.0377-.0571-.05629-.1333-.05629-.22864 0-.08833.01832-.16239.05521-.22217.0369-.05951.0948-.0894.1737-.0894.05197 0 .09722.01642.13654.04927.06355.05413.0956.14462.0956.27065 0 .09049-.01993.164-.05979.22083zm1.21562.00565c-.04228.05602-.10287.0843-.18178.0843-.0789 0-.1395-.02828-.18204-.0843-.04282-.05628-.0641-.136-.0641-.23967 0-.10342.02128-.18313.0641-.23914.04255-.05575.10314-.08376.18204-.08376.07891 0 .1395.02801.18178.08376.04228.05601.06356.13572.06356.23914 0 .10368-.02128.18339-.06356.23967zm.21598.14893c.08698-.10746.13061-.23699.13061-.3886 0-.14893-.04363-.27792-.1306-.38726-.08726-.10906-.21949-.16373-.39669-.16373-.17747 0-.3097.05467-.39668.16373-.08725.10934-.1306.23833-.1306.38726 0 .15161.04335.28114.1306.3886.08699.10772.21921.16158.39668.16158.1772 0 .30943-.05386.39668-.16158zm-.39668-.93394zm2.0079.03124c-.04416-.0175-.08887-.02639-.13438-.02639-.06813 0-.13007.014-.18555.04255-.05224.02828-.09614.07298-.13141.13357-.0202-.05063-.0501-.09183-.08914-.12414-.04848-.03474-.1123-.05198-.1912-.05198-.08322 0-.15108.0202-.2036.0606-.02962.02261-.06113.06085-.09479.11445v-.15054h-.26203V32.633h.27361v-.621c0-.05629.00727-.09857.02181-.12685.0264-.04982.0781-.07486.15512-.07486.06625 0 .11068.02504.13357.07486.01266.02774.01885.07218.01885.13358v.61427h.27173v-.61427c0-.04632.00727-.08564.02181-.1185.02828-.06194.07971-.09264.15431-.09264.06436 0 .10853.02397.1325.0719.01265.02505.01885.05737.01885.09642v.65709h.27657l.00188-.65036c0-.06706-.00323-.11768-.00942-.15242-.01024-.05252-.02963-.09668-.05871-.1325-.03609-.04416-.07594-.07513-.12038-.0929zm.8938.35979v.25556h.54346v-.25556zm2.31949-.4799v-.24721h-1.02334v1.3955h1.05754v-.2507h-.77262v-.35899h.67783v-.24237h-.67783v-.29623zm-.5044-.24721zm1.57756.4228c-.06786-.05602-.15512-.08375-.26176-.08375-.0851 0-.15538.02073-.21113.06247-.0307.02316-.06355.0614-.0983.11446v-.15054h-.2604V32.633h.26875v-.55853c0-.06382.0089-.11607.02666-.15727.03394-.07756.09695-.11634.18825-.11634.0746 0 .12522.0264.15161.07945.01454.02908.02181.07082.02181.12495v.62774h.2763v-.6948c0-.12953-.03393-.22217-.10179-.27791zm-.36113-.08672zm1.315.76643c-.04337.04767-.09669.07137-.15997.07137-.09453 0-.16024-.04336-.19686-.13062-.0202-.04658-.03016-.0999-.03016-.15996 0-.06948.00942-.12765.02827-.17504.03609-.08914.10126-.13358.19605-.13358.06948 0 .12469.02559.16616.07675.0412.05117.06194.1255.06194.22352 0 .10395-.02181.1799-.06544.22756zm-.09184-.73977c-.03851-.01588-.08348-.0237-.13519-.0237-.1403 0-.24856.05225-.32477.15674-.07649.10422-.11473.23321-.11473.38671 0 .15889.03986.28492.11903.3781.07918.09318.18501.13977.3175.13977.08592 0 .15566-.02047.20926-.06167.02962-.02209.05736-.05521.0832-.09937v.06624c0 .09857-.0105.16858-.03204.21033-.03285.0649-.09775.09748-.19497.09748-.06894 0-.11769-.01238-.14677-.0369-.01697-.014-.02935-.03662-.0369-.06812H24.293c.00889.10287.05494.18016.13815.23186.08348.0517.19093.07756.3229.07756.2184 0 .36597-.05817.44299-.17424.04497-.06759.06732-.16777.06732-.30107v-.9789h-.2623v.14865c-.04039-.07245-.09344-.12254-.15915-.14947zm-.04901-.02666zm.99775 1.05943v-1.39551h-.26983v1.3955zm.83214-.5017v.10044c-.00188.09022-.0272.15243-.07621.18636-.04874.0342-.10233.05116-.1605.05116-.03663 0-.0676-.01023-.09318-.0307-.02559-.02046-.03824-.05386-.03824-.0999 0-.05171.02073-.08995.06248-.11473.0245-.01454.06517-.02666.12199-.0369l.0606-.0113c.03042-.00566.05412-.01185.07162-.01831a.2985.2985 0 0 0 .05144-.02613zm-.16373-.12604l-.09183.01131c-.10422.01347-.18313.03555-.23672.06652-.09776.05682-.14677.14865-.14677.2755 0 .09775.03043.17342.09156.22674.06087.05332.13789.07999.23133.07999.07325 0 .13896-.0167.19686-.05036a.54626.54626 0 0 0 .12873-.10315c.00215.02343.00457.04417.0078.06248.00297.01831.00862.03797.01697.0587h.29354v-.03985c-.01777-.00808-.03097-.01858-.03986-.03124-.00888-.01238-.01427-.03635-.01616-.0719-.00107-.04659-.00188-.08644-.00188-.1193v-.47316c0-.12442-.0439-.20898-.13142-.25395-.0878-.0447-.18824-.06705-.30108-.06705-.1737 0-.29623.04524-.36732.13626-.04497.05817-.07029.13223-.07594.22244h.2604c.00647-.03985.01886-.07136.03798-.09452.0264-.03178.07163-.0474.13519-.0474.05682 0 .0999.00808.12926.02397.02936.01616.04417.04551.04417.0878 0 .03473-.0194.06005-.0579.07647-.02128.0097-.0571.0175-.10691.0237zm.01427-.43169zm1.49246.08672c-.06786-.05602-.15512-.08375-.26176-.08375-.0851 0-.15565.02073-.21113.06247-.03097.02316-.06382.0614-.0983.11446v-.15054h-.2604V32.633h.26875v-.55853c0-.06382.00889-.11607.02666-.15727.03394-.07756.09668-.11634.18824-.11634.0746 0 .12496.0264.15162.07945.01454.02908.02181.07082.02181.12495v.62774h.2763v-.6948c0-.12953-.03393-.22217-.10179-.27791zm-.36113-.08672zm1.25925.04417c-.04875-.02747-.10422-.0412-.1667-.0412-.13573 0-.24399.05035-.32532.15134-.08105.10099-.12145.23968-.12145.4158 0 .1527.0412.27765.12334.3754.0824.0975.18393.14624.30458.14624.07325 0 .13438-.014.18366-.04175.04928-.02773.0929-.07217.13142-.13357v.143h.2623v-1.39363h-.27361v.49228c-.03016-.04847-.06975-.08644-.11822-.11391zm.06624.73519c-.03985.05655-.09775.0851-.17423.0851-.07648 0-.1333-.02855-.171-.08564-.03744-.0571-.0563-.1333-.0563-.22864 0-.08833.01859-.16239.05548-.22217.0369-.05951.0948-.0894.1737-.0894.0517 0 .09722.01642.13627.04927.06382.05413.0956.14462.0956.27065 0 .09049-.01966.164-.05952.22083zm1.67855-.22164v.10045c-.00188.09022-.0272.15243-.07621.18636-.04901.0342-.10234.05116-.1605.05116-.03663 0-.0676-.01023-.09318-.0307-.02559-.02046-.03824-.05386-.03824-.0999 0-.05171.02073-.08995.06247-.11473.02451-.01454.06518-.02666.122-.0369l.06059-.0113c.03043-.00566.05413-.01185.07136-.01831a.2913.2913 0 0 0 .05171-.02613zm-.16373-.12603l-.09184.01131c-.10421.01347-.18312.03555-.23671.06652-.09776.05682-.14677.14865-.14677.2755 0 .09775.03043.17342.0913.22674.06086.05332.13814.07999.2316.07999.07324 0 .13895-.0167.19685-.05036a.54626.54626 0 0 0 .12873-.10315.78218.78218 0 0 0 .00754.06248c.00323.01831.00888.03797.01723.0587h.29354v-.03985c-.01778-.00808-.03097-.01858-.03986-.03124-.00888-.01238-.01427-.03635-.01616-.0719a4.17068 4.17068 0 0 1-.00188-.1193v-.47316c0-.12442-.0439-.20898-.13169-.25395-.08752-.0447-.18797-.06705-.30108-.06705-.17343 0-.29596.04524-.36732.13626-.0447.05817-.07002.13223-.07567.22244h.2604c.0062-.03985.01886-.07136.03798-.09452.0264-.03178.07163-.0474.13519-.0474.05682 0 .0999.00808.12926.02397.02936.01616.04417.04551.04417.0878 0 .03473-.0194.06005-.0579.07647-.02155.0097-.0571.0175-.10691.0237zm.01427-.43169zm1.49246.08672c-.06786-.05602-.15512-.08375-.26176-.08375-.0851 0-.15566.02073-.21113.06247-.03097.02316-.06383.0614-.09857.11446v-.15054h-.26014V32.633h.26876v-.55853c0-.06382.00889-.11607.0264-.15727.0342-.07756.09694-.11634.1885-.11634.0746 0 .12496.0264.15162.07945.01427.02908.02154.07082.02154.12495v.62774h.27657v-.6948c0-.12953-.03393-.22217-.1018-.27791zm-.36113-.08672zm1.25924.04417c-.04874-.02747-.10421-.0412-.1667-.0412-.13572 0-.24425.05035-.3253.15134-.08107.10099-.12173.23968-.12173.4158 0 .1527.0412.27765.1236.3754.08241.0975.18394.14624.30459.14624.07298 0 .13438-.014.18366-.04175.04901-.02773.0929-.07217.13142-.13357v.143h.2623v-1.39363h-.27361v.49228c-.03016-.04847-.06975-.08644-.11823-.11391zm.06625.73519c-.03985.05655-.09802.0851-.17423.0851-.07649 0-.1333-.02855-.17101-.08564-.03743-.0571-.05628-.1333-.05628-.22864 0-.08833.01858-.16239.05547-.22217.0369-.05951.0948-.0894.1737-.0894.0517 0 .09722.01642.13627.04927.06382.05413.0956.14462.0956.27065 0 .09049-.01993.164-.05952.22083zm1.32146-1.11544h-.30943l.3956 1.3955h.27092l.16858-.81597.04901-.26984.04929.26984.16858.81598h.27845l.39291-1.39551h-.2965l-.18635.80763-.04282.21382-.04255-.22244-.16562-.79901h-.30781l-.157.80386-.04067.2176-.03985-.22245zm2.18725.8938v.10045c-.00188.09022-.02747.15243-.07621.18636-.04901.0342-.1026.05116-.1605.05116-.03663 0-.06787-.01023-.09345-.0307-.02558-.02046-.03824-.05386-.03824-.0999 0-.05171.02074-.08995.06248-.11473.0245-.01454.06544-.02666.12226-.0369l.0606-.0113c.03015-.00566.05412-.01185.07136-.01831a.31076.31076 0 0 0 .0517-.02613zm-.164-.12603l-.09183.01131c-.10395.01347-.18286.03555-.23672.06652-.09775.05682-.1465.14865-.1465.2755 0 .09775.03043.17342.0913.22674.06086.05332.13788.07999.23132.07999.07325 0 .13896-.0167.19713-.05036a.55738.55738 0 0 0 .12873-.10315c.00188.02343.0043.04417.00754.06248.00323.01831.00889.03797.01696.0587h.29354v-.03985c-.01777-.00808-.03097-.01858-.03986-.03124-.00861-.01238-.014-.03635-.01588-.0719a4.17068 4.17068 0 0 1-.00189-.1193v-.47316c0-.12442-.0439-.20898-.13169-.25395-.08779-.0447-.18824-.06705-.30107-.06705-.1737 0-.29596.04524-.36733.13626-.04497.05817-.07002.13223-.07567.22244h.26014c.00646-.03985.01912-.07136.03797-.09452.0264-.03178.07164-.0474.13546-.0474.05682 0 .09991.00808.12926.02397.02936.01616.0439.04551.0439.0878 0 .03473-.01912.06005-.05763.07647-.02154.0097-.0571.0175-.10718.0237zm.01427-.43169zm.93447 1.05943v-1.39551h-.26984v1.3955zm.52487-.77828c.03447-.03905.08294-.0587.14542-.0587.05736 0 .10557.01858.14435.05547.03877.0369.06059.09102.0649.16239h-.4193c.00861-.06706.03043-.11984.06463-.15916zm.37729-.23294c-.06867-.03205-.14596-.0482-.23187-.0482-.14461 0-.26203.04766-.35251.143-.09076.09532-.136.2324-.136.41094 0 .19067.05009.32828.15054.41284.10045.08456.21625.12684.3474.12684.15915 0 .28276-.05036.3711-.15054.05681-.06328.08886-.1255.0956-.18662h-.2755c-.01427.03043-.03124.05413-.0501.0711-.03473.0315-.0797.04739-.13545.04739-.05224 0-.09722-.01293-.13438-.03905-.06113-.04147-.09372-.11418-.09749-.2176h.70638c.00107-.08913-.00162-.15727-.00862-.20466-.01212-.0808-.03824-.15162-.07864-.21302-.0447-.0692-.10152-.1201-.17046-.15242zm-.21302-.0482zm.86257.73007h-.27361c0 .10583.03878.19308.11607.26175.07729.0684.19713.1026.35924.1026.15916 0 .27658-.0323.35279-.09694.07594-.06463.11391-.14811.11391-.25045 0-.07756-.02639-.14246-.07944-.19416-.0536-.05117-.13411-.08914-.24156-.11446-.16078-.03527-.2545-.06032-.28115-.07486-.0264-.01374-.03959-.03636-.03959-.06706 0-.02477.01239-.04632.03716-.06463.02505-.01804.06679-.0272.1255-.0272.07136 0 .12199.01804.15161.05467.01562.0202.02559.04767.02936.0824h.26984c-.01212-.12603-.05871-.2149-.13977-.26633-.08106-.05144-.18609-.0773-.31481-.0773-.13573 0-.24103.0342-.31562.10288-.07487.0684-.1123.15027-.1123.2456 0 .0808.02397.14273.0719.18555.04794.04363.13034.07971.24722.1088.16212.0385.25583.0657.28115.0816.02531.01561.03797.03877.03797.06894 0 .0315-.01562.0552-.04686.0711-.03124.01561-.07352.02369-.12657.02369-.09021 0-.15215-.01804-.18555-.05413-.01885-.0202-.03124-.05413-.0369-.10206zm.20655-.73008zm1.26383 0c-.08214.18932-.12307.37622-.12307.56042 0 .1597.0315.31858.09452.47639.05386.13573.13169.2736.23402.41364h.15997l-.0579-.1061c-.07945-.14623-.13465-.29946-.16562-.45916-.0202-.10395-.03016-.21786-.03016-.34174 0-.19174.02612-.36544.07863-.52056.03151-.0929.09103-.21948.17882-.3797l-.15539-.0019-.06705.09264c-.05252.07272-.10126.16132-.14677.26607zm.59919-.33608v1.3955h.27172v-.99128l.57011.99129h.29165v-1.39551h-.27172v.97432l-.55584-.97432zm.57765-.0027zm.8254 1.3982h.28896v-.62288h.54533v.62289h.28977v-1.39551h-.28977v.53213h-.54533v-.53213h-.28896zm1.61338-.4306h-.27846c0 .14515.05225.25907.15647.34201.10395.08321.24694.12469.42872.12469.178 0 .3159-.04228.41338-.12658.09748-.08402.14623-.19012.14623-.3175 0-.12442-.04174-.21948-.12496-.28492-.05359-.04228-.1333-.07621-.2386-.10126l-.24048-.0579c-.09291-.02208-.1535-.0412-.18178-.05763-.04417-.02477-.06625-.06194-.06625-.11176 0-.0544.02235-.09667.06706-.12684.04497-.03043.10476-.0455.17989-.0455.0676 0 .12415.01157.16966.035.06813.03528.10476.09506.10987.17882h.28008c-.00512-.14812-.05952-.26122-.1632-.33932-.10395-.07783-.22944-.11688-.37648-.11688-.17612 0-.30943.0412-.40045.12388-.09076.08294-.13627.18663-.13627.31158 0 .13707.04686.2378.14112.30216.05547.0385.15592.07405.30107.1069l.14758.03313c.08645.01885.15.04067.1904.06544.04039.02505.06059.06086.06059.10691 0 .0789-.04067.13277-.12226.16185-.04282.01508-.09884.02262-.1675.02262-.115 0-.19606-.02854-.24346-.08617-.02585-.03151-.04308-.07918-.05197-.14273zm.28303-1.00745zm1.47334.1885c-.13088.1317-.19605.31967-.19605.56311 0 .2254.05736.40288.17236.53214.11472.12873.27253.19309.47316.19309.16238 0 .29542-.04767.3991-.143.10395-.09506.16858-.21894.19362-.3711h-.28868c-.01966.0719-.04417.12604-.0738.16185-.05358.06706-.13168.10045-.23401.10045-.09965 0-.18178-.03905-.24641-.11687-.0649-.0781-.09722-.19525-.09722-.3517 0-.15647.0307-.27766.09183-.36303.0614-.08563.14488-.12845.25099-.12845.10422 0 .18258.03043.23563.09102.02963.03393.05413.08456.07299.15135h.29165c-.00458-.08699-.03663-.1737-.09668-.26041-.10853-.15377-.28007-.2308-.5149-.2308-.17559 0-.3202.05737-.43358.17236zm.42496-.1885zm1.73214 1.10197c-.06787.08537-.15943.12792-.27496.12792s-.20763-.04255-.27657-.12792c-.06867-.0851-.10314-.20628-.10314-.36355 0-.157.03447-.27819.10314-.36356.06894-.0851.16104-.12791.27657-.12791s.2071.04281.27496.12845c.06786.08537.1018.20655.1018.36302 0 .15727-.03394.27845-.1018.36355zm.18231.21221c.14058-.1333.21113-.32504.21113-.57576 0-.25557-.07055-.44758-.21113-.5755-.10556-.1088-.25799-.16292-.45727-.16292-.19955 0-.35197.05413-.45727.16292-.14138.12792-.2122.31993-.2122.5755 0 .25072.07082.44246.2122.57576.1053.10853.25772.16266.45727.16266.19928 0 .3517-.05413.45727-.16266zm-.45727-1.31418zm1.7079.04255l-.30592 1.05942-.30297-1.05942h-.3113l.47127 1.3955h.2755l.47638-1.3955zm.74327 1.3955v-1.3955h-.28977v1.3955zm-.14488-1.42297zm.69964.26984h.26876c.1325 0 .2211.03797.26553.11418.0447.07594.06679.185.06679.32693 0 .10287-.01482.19174-.04444.26607-.0544.13573-.15027.20359-.28788.20359h-.26876zm.53402-.21194c-.05763-.01912-.12953-.02909-.21598-.03043h-.60108v1.3955h.60108c.21086 0 .36679-.0867.46778-.2604.07432-.12873.11175-.28573.11175-.47128 0-.07325-.00888-.15027-.02666-.23106-.01777-.08079-.0509-.15592-.09937-.2254-.06059-.0859-.13976-.14489-.23752-.17693zm.4799.69668v.25556H52.05v-.25556zm.73572-.27819h.32262v.94659h.27657v-1.3729h-.22432c0 .01213-.0035.03044-.0105.05495-.01186.0412-.02963.07405-.05306.09856-.03393.03609-.0781.06005-.1325.0719-.03393.00754-.09371.0132-.17881.01697zm1.1289-.3008c-.08482.09128-.12737.21031-.12737.35735 0 .1422.04228.25099.12684.3264.08456.0754.1815.1131.29084.1131.07379 0 .136-.01535.18636-.04551.02773-.01643.05413-.04013.07863-.0711-.00511.10422-.0175.1834-.0369.2378-.03608.09829-.09856.14757-.18742.14757-.04606 0-.08322-.01266-.11096-.0377-.02773-.02531-.0447-.05817-.0509-.09856h-.26902c.01211.1166.05897.20547.1411.2666.08214.06086.17451.0913.27739.0913.21598 0 .3641-.10584.44488-.31724.04228-.11095.06356-.24964.06356-.41553 0-.171-.02209-.30916-.06625-.41391-.07756-.18474-.2211-.27738-.4298-.27738-.13573 0-.24614.04578-.33097.1368zm.45405.54505c-.03286.02128-.06787.03205-.10503.03205-.06894 0-.11984-.02047-.15296-.06113-.03313-.04066-.04982-.1018-.04982-.18312 0-.09668.02585-.16508.07755-.20548.03286-.02585.07245-.03878.1185-.03878.06301 0 .11283.02262.14919.06813.03608.04552.0544.10692.0544.18474 0 .09641-.0307.16428-.09183.2036zm.886-.34093c-.04983-.11607-.1228-.24102-.21868-.37486h-.20359l.0579.10583c.07944.14596.13465.29865.16562.45835.0202.10476.03043.21894.03043.34282 0 .19309-.02828.37082-.0843.53294-.03285.09587-.09101.21894-.17423.36921h.19982l.06706-.09183c.04362-.05547.08994-.13815.13923-.24802.08779-.19632.13168-.38941.13168-.57954 0-.17289-.03689-.34443-.11095-.5149z"/></svg>