<svg xmlns="http://www.w3.org/2000/svg" role="img" viewBox="-17.99 -18.99 935.48 764.48"><title>United Arab Emirates (TraceCovid) logo</title><path d="M35.61723 675.17906v7.30469H23.27348v33.95215h-8.67676v-33.95215H2.19731v-7.30469zm16.77441 10.03418c.10156.00977.33106.02344.68555.042v8.17285q-.75587-.0835-1.34375-.11231c-.3916-.01758-.709-.02734-.95117-.02734q-4.81494 0-6.46582 3.13476a12.188 12.188 0 0 0-.92383 5.42969v14.583h-8.03321v-30.50878h7.61329v5.31738a16.87251 16.87251 0 0 1 3.21875-4.16992 8.76542 8.76542 0 0 1 5.82226-1.876q.22266.00002.37793.01467zm16.01074 12.66504a12.64461 12.64461 0 0 0 3.18555-.69922 2.40049 2.40049 0 0 0 1.7207-2.26757 2.68119 2.68119 0 0 0-1.31933-2.58887 8.344 8.344 0 0 0-3.87305-.71387q-2.86524 0-4.05762 1.39942a5.77614 5.77614 0 0 0-1.13476 2.79882H55.2266a11.67289 11.67289 0 0 1 2.249-6.57715q3.17577-4.03125 10.90722-4.03125a19.45812 19.45812 0 0 1 8.93946 1.98731q3.90673 1.98779 3.90722 7.502v13.9951q0 1.4546.05567 3.52637a4.43314 4.43314 0 0 0 .47656 2.12695 2.84451 2.84451 0 0 0 1.1748.92383v1.17578h-8.67672a8.95548 8.95548 0 0 1-.50391-1.73535q-.14062-.81153-.22363-1.84766a16.44408 16.44408 0 0 1-3.82911 3.05078 11.56591 11.56591 0 0 1-5.85546 1.4834 10.10729 10.10729 0 0 1-6.88379-2.36426 8.41165 8.41165 0 0 1-2.7168-6.7041q0-5.62646 4.37012-8.14453a19.52194 19.52194 0 0 1 7.0498-1.96zm4.87793 3.72266a8.77322 8.77322 0 0 1-1.54687.76953 13.05872 13.05872 0 0 1-2.1416.5459l-1.81641.33594a11.95979 11.95979 0 0 0-3.667 1.09179 3.64409 3.64409 0 0 0-1.88379 3.38672A3.53816 3.53816 0 0 0 63.375 710.684a4.37754 4.37754 0 0 0 2.7998.91015 8.33676 8.33676 0 0 0 4.81739-1.51172q2.20313-1.51171 2.28808-5.51464zm31.73438-4.73047a7.06427 7.06427 0 0 0-1.14942-3.07813 4.82984 4.82984 0 0 0-4.18066-1.84765 5.50228 5.50228 0 0 0-5.52734 4.00293 16.59133 16.59133 0 0 0-.78614 5.63867 15.259 15.259 0 0 0 .78614 5.38867 5.33331 5.33331 0 0 0 5.38673 3.80664 4.75933 4.75933 0 0 0 3.98437-1.51074 7.51225 7.51225 0 0 0 1.43066-3.91894h8.14551a13.35187 13.35187 0 0 1-2.63379 6.88574q-3.75585 5.23389-11.123 5.2334-7.36963 0-10.84278-4.36622-3.4746-4.36669-3.47461-11.32226 0-7.8501 3.83789-12.2168 3.83935-4.3667 10.5918-4.36719a15.96517 15.96517 0 0 1 9.39941 2.5752q3.65625 2.57666 4.32911 9.09668zm32.08008-10.32617a12.41949 12.41949 0 0 1 5.27246 4.51367 15.00317 15.00317 0 0 1 2.43066 6.30762 39.01075 39.01075 0 0 1 .2627 6.05468h-22.22071q.186 4.59083 3.19043 6.4375a8.10078 8.10078 0 0 0 4.39844 1.14844 6.19412 6.19412 0 0 0 6.07129-3.499h8.14453a9.95961 9.95961 0 0 1-2.958 5.51367q-4.09863 4.4502-11.47754 4.4502a16.63549 16.63549 0 0 1-10.74707-3.75293q-4.65526-3.75439-4.65527-12.21485 0-7.92773 4.20313-12.1582a14.7112 14.7112 0 0 1 10.91018-4.23049 17.38489 17.38489 0 0 1 7.17477 1.42969zm-11.9336 6.8916a8.28355 8.28355 0 0 0-2.125 4.72266h13.74317a6.65857 6.65857 0 0 0-2.125-4.82129 6.997 6.997 0 0 0-4.73145-1.64453 6.32543 6.32543 0 0 0-4.76172 1.74316zm27.08496-13.94727a16.98529 16.98529 0 0 1 12.68262-5.09375q10.30078 0 15.06348 6.83008a14.87986 14.87986 0 0 1 2.82422 7.69629h-8.6211a11.72453 11.72453 0 0 0-2.11133-4.47754q-2.30273-2.688-6.82714-2.6875a8.41256 8.41256 0 0 0-7.26661 3.793q-2.66015 3.79248-2.66015 10.73438t2.80664 10.39746a8.79435 8.79435 0 0 0 7.13183 3.457 8.08019 8.08019 0 0 0 6.76368-2.9668 13.03674 13.03674 0 0 0 2.13574-4.78613h8.56445a18.58323 18.58323 0 0 1-5.66211 10.97168 16.48027 16.48027 0 0 1-11.67187 4.22656q-8.80518 0-13.84571-5.71-5.03906-5.7378-5.03906-15.73047 0-10.80318 5.73242-16.65426zm60.82227 33.21485q-3.8628 4.76807-11.72852 4.76758-7.86474 0-11.72754-4.76758a18.92983 18.92983 0 0 1 0-22.918q3.8628-4.83839 11.72754-4.83789 7.86476 0 11.72852 4.83789a18.92983 18.92983 0 0 1 0 22.918zm-6.38184-4.40918q1.875-2.48732 1.875-7.07129 0-4.58351-1.875-7.05664a7.09033 7.09033 0 0 0-10.76269 0q-1.88966 2.47266-1.88867 7.05664 0 4.585 1.88867 7.07129a7.065 7.065 0 0 0 10.76269 0zm33.31644-22.36719h8.56543l-11.01761 30.50879h-8.41113l-10.94043-30.50879h8.957l6.35352 22.50391zm19.85349-3.63867h-8.08887v-7.36133h8.08887zm-8.08887 3.63867h8.08887v30.50879h-8.08887zm30.55957.48926a9.69014 9.69014 0 0 1 3.49805 3.373v-14.55464h8.08886v41.20117h-7.75293v-4.22656a11.23908 11.23908 0 0 1-3.89062 3.94629 10.91872 10.91872 0 0 1-5.42969 1.23144 11.33831 11.33831 0 0 1-8.999-4.32422 16.60278 16.60278 0 0 1-3.65235-11.09765q0-7.80909 3.59668-12.28809a11.7015 11.7015 0 0 1 9.61426-4.47852 9.84506 9.84506 0 0 1 4.92674 1.21778zm1.959 21.73437a11.12664 11.12664 0 0 0 1.76367-6.52148q0-5.59717-2.82714-8.00488a6.0847 6.0847 0 0 0-4.03125-1.45606 5.60263 5.60263 0 0 0-5.13575 2.64551 14.25741 14.25741 0 0 0 .02832 13.32324 5.63314 5.63314 0 0 0 5.05176 2.5332 5.89 5.89 0 0 0 5.15037-2.51953zm31.98045-22.55957a59.99412 59.99412 0 0 1 6.46582-11.084H328.75l-1.707 3.13476a46.68923 46.68923 0 0 0-4.89844 13.54688 53.637 53.637 0 0 0-.89551 10.13281 47.85606 47.85606 0 0 0 2.49121 15.75781 71.88838 71.88838 0 0 0 5.15039 10.916h-5.90625l-1.9873-2.71484a36.4112 36.4112 0 0 1-4.11426-7.333 41.76853 41.76853 0 0 1-3.89062-17.12988 38.00432 38.00432 0 0 1 3.27442-15.22654zm16.25684-10.41211h8.76074v25.33887a14.32821 14.32821 0 0 0 1.00488 6.208q1.56006 3.46875 6.80469 3.46777 5.21484 0 6.77734-3.46777a14.34542 14.34542 0 0 0 1.00391-6.208v-25.33887h8.76074v25.3584q0 6.57861-2.04 10.24414-3.7998 6.71778-14.50195 6.71778t-14.53027-6.71778q-2.04054-3.6665-2.04-10.24414zm63.92187 12.49707q2.99707 2.47706 2.99707 8.21485v20.54492h-8.17383v-18.55762a8.52639 8.52639 0 0 0-.63867-3.69433q-1.16748-2.35108-4.44531-2.35157a5.50934 5.50934 0 0 0-5.5293 3.44336 11.90508 11.90508 0 0 0-.77832 4.64649v16.51367h-7.97754v-30.45313h7.72555v4.4502a13.52246 13.52246 0 0 1 2.89844-3.38672 10.0444 10.0444 0 0 1 6.21582-1.84766 11.69376 11.69376 0 0 1 7.70609 2.47754zm17.18265-5.38769h-8.0889v-7.36133h8.0889zm-8.08887 3.63867h8.08887v30.50879h-8.0889zm11.24607 5.96189v-5.68261h4.2539v-8.50879h7.89356v8.50879h4.9541v5.68261h-4.9541v16.12207a3.62955 3.62955 0 0 0 .47558 2.33692q.47609.46143 2.91114.46191c.24218 0 .499-.0039.76953-.01367s.53613-.02344.79785-.042v5.96191l-3.77832.13965q-5.65429.19482-7.72559-1.959a5.83412 5.83412 0 0 1-1.34375-4.22657V691.889zm40.67187-5.3447a12.41949 12.41949 0 0 1 5.27246 4.51367 15.00318 15.00318 0 0 1 2.43067 6.30762 39.01226 39.01226 0 0 1 .26269 6.05468h-22.2207q.186 4.59083 3.19043 6.4375a8.10078 8.10078 0 0 0 4.39844 1.14844 6.19412 6.19412 0 0 0 6.07128-3.499h8.14454a9.95973 9.95973 0 0 1-2.958 5.51367q-4.09863 4.4502-11.47754 4.4502a16.63546 16.63546 0 0 1-10.74707-3.75293q-4.65528-3.75439-4.65527-12.21485 0-7.92773 4.20312-12.1582a14.71124 14.71124 0 0 1 10.91016-4.23047 17.38487 17.38487 0 0 1 7.17479 1.42967zm-11.93359 6.8916a8.28348 8.28348 0 0 0-2.125 4.72266h13.74316a6.65853 6.65853 0 0 0-2.125-4.82129 6.997 6.997 0 0 0-4.73144-1.64453 6.3254 6.3254 0 0 0-4.76172 1.74316zm38.67871-7.01953a9.69014 9.69014 0 0 1 3.49805 3.373v-14.55464h8.08886v41.20117h-7.75293v-4.22656a11.23908 11.23908 0 0 1-3.89062 3.94629 10.91872 10.91872 0 0 1-5.42969 1.23144 11.33831 11.33831 0 0 1-8.999-4.32422 16.60278 16.60278 0 0 1-3.65235-11.09765q0-7.80909 3.59668-12.28809a11.7015 11.7015 0 0 1 9.61426-4.47852 9.84506 9.84506 0 0 1 4.92674 1.21778zm1.959 21.73437a11.12664 11.12664 0 0 0 1.76367-6.52148q0-5.59717-2.82714-8.00488a6.0847 6.0847 0 0 0-4.03125-1.45606 5.60263 5.60263 0 0 0-5.13575 2.64551 14.25741 14.25741 0 0 0 .02832 13.32324 5.63314 5.63314 0 0 0 5.05176 2.5332 5.89 5.89 0 0 0 5.15037-2.51953zm40.28026-32.97168h9.75488L550.793 716.4359h-9.34863l-2.72266-8.48145h-15.19335l-2.79687 8.48145h-9.01758zm-.56836 25.666h10.5664l-5.21191-16.2334zm45.03906-15.63182c.10156.00977.33105.02344.68555.042v8.17285q-.75587-.0835-1.34375-.11231c-.39161-.01758-.709-.02734-.95118-.02734q-4.81494 0-6.46582 3.13476a12.188 12.188 0 0 0-.92382 5.42969v14.583h-8.03321v-30.50878h7.61328v5.31738a16.873 16.873 0 0 1 3.21875-4.16992 8.76547 8.76547 0 0 1 5.82227-1.876q.22266.00002.37793.01467zm16.01074 12.66504a12.64461 12.64461 0 0 0 3.18555-.69922 2.40049 2.40049 0 0 0 1.7207-2.26757 2.68119 2.68119 0 0 0-1.31933-2.58887 8.344 8.344 0 0 0-3.87305-.71387q-2.86524 0-4.05762 1.39942a5.77614 5.77614 0 0 0-1.13476 2.79882h-7.69727a11.673 11.673 0 0 1 2.249-6.57715q3.17579-4.03125 10.90723-4.03125a19.45808 19.45808 0 0 1 8.93945 1.98731q3.90675 1.98779 3.90723 7.502v13.9951q0 1.4546.05566 3.52637a4.43312 4.43312 0 0 0 .47657 2.12695 2.84451 2.84451 0 0 0 1.1748.92383v1.17578h-8.67676a8.95611 8.95611 0 0 1-.5039-1.73535q-.14062-.81153-.22364-1.84766a16.44381 16.44381 0 0 1-3.8291 3.05078 11.56592 11.56592 0 0 1-5.85547 1.4834 10.1073 10.1073 0 0 1-6.88379-2.36426 8.41167 8.41167 0 0 1-2.71679-6.7041q0-5.62646 4.37012-8.14453a19.52194 19.52194 0 0 1 7.0498-1.96zm4.87793 3.72266a8.77356 8.77356 0 0 1-1.54687.76953 13.05861 13.05861 0 0 1-2.14161.5459l-1.8164.33594a11.9597 11.9597 0 0 0-3.667 1.09179 3.64409 3.64409 0 0 0-1.88379 3.38672 3.53816 3.53816 0 0 0 1.15039 2.95313 4.37754 4.37754 0 0 0 2.7998.91015 8.33676 8.33676 0 0 0 4.81739-1.51172q2.20313-1.51171 2.28808-5.51464zm39.53618-12.00781q3.42188 4.33885 3.42286 11.19629a19.61786 19.61786 0 0 1-3.376 11.78417 12.256 12.256 0 0 1-15.53027 3.16211 12.15077 12.15077 0 0 1-2.98243-3.13476v3.835h-7.86526v-41.20121h7.97754v14.667a11.6623 11.6623 0 0 1 3.35254-3.24707 10.0073 10.0073 0 0 1 5.52148-1.39941 11.40508 11.40508 0 0 1 9.47954 4.33788zm-6.668 18.58593a11.30594 11.30594 0 0 0 1.72167-6.5498 14.6553 14.6553 0 0 0-.84667-5.374 5.895 5.895 0 0 0-5.92676-4.03028 5.98391 5.98391 0 0 0-6.01074 3.94629 14.70154 14.70154 0 0 0-.84668 5.42969 11.30028 11.30028 0 0 0 1.75 6.49414 6.00551 6.00551 0 0 0 5.333 2.57519 5.53263 5.53263 0 0 0 4.82618-2.49123zm59.84569-25.69531h-21.833v8.76074h20.041v7.166h-20.041v10.6084h22.83984v7.417h-31.26465v-41.25683h30.25781zm43.71484 3.55469a8.88361 8.88361 0 0 1 3.55469 2.74316 8.76724 8.76724 0 0 1 1.73535 3.91895 27.08178 27.08178 0 0 1 .28027 4.50586l-.05664 19.22949h-8.17285v-19.42481a6.38123 6.38123 0 0 0-.55957-2.85546 3.97806 3.97806 0 0 0-3.91894-2.127 4.58469 4.58469 0 0 0-4.5625 2.74317 8.62424 8.62424 0 0 0-.64356 3.499v18.165h-8.0332v-18.165a10.209 10.209 0 0 0-.55957-3.94727 3.90819 3.90819 0 0 0-3.94629-2.21093q-3.416 0-4.59082 2.21093a8.51388 8.51388 0 0 0-.64356 3.751v18.36137h-8.08886v-30.45313h7.75293v4.4502a12.84822 12.84822 0 0 1 2.79883-3.38672 11.077 11.077 0 0 1 11.67187-.25195 8.94945 8.94945 0 0 1 2.63086 3.667 10.13878 10.13878 0 0 1 3.89062-3.94629 11.87244 11.87244 0 0 1 5.48633-1.25976 10.63944 10.63944 0 0 1 3.97461.78319zm19.6709-3.75h-8.08887v-7.36133h8.08887zm-8.08887 3.63867h8.08887v30.50879h-8.08887zm31.33008-.71387c.10156.00977.33106.02344.68555.042v8.17285q-.75587-.0835-1.34375-.11231c-.3916-.01758-.709-.02734-.95117-.02734q-4.81494 0-6.46582 3.13476a12.188 12.188 0 0 0-.92383 5.42969v14.583h-8.03321v-30.50878h7.61329v5.31738a16.87251 16.87251 0 0 1 3.21875-4.16992 8.76542 8.76542 0 0 1 5.82226-1.876q.22266.00002.37793.01467zm16.00977 12.66504a12.64461 12.64461 0 0 0 3.18554-.69922 2.4005 2.4005 0 0 0 1.72071-2.26757 2.68118 2.68118 0 0 0-1.31934-2.58887 8.344 8.344 0 0 0-3.87305-.71387q-2.86523 0-4.05761 1.39942a5.776 5.776 0 0 0-1.13477 2.79882h-7.69726a11.67282 11.67282 0 0 1 2.249-6.57715q3.17579-4.03125 10.90723-4.03125a19.45808 19.45808 0 0 1 8.93945 1.98731q3.90674 1.98779 3.90723 7.502v13.9951q0 1.4546.05566 3.52637a4.43314 4.43314 0 0 0 .47656 2.12695 2.84455 2.84455 0 0 0 1.17481.92383v1.17578h-8.67676a8.95548 8.95548 0 0 1-.50391-1.73535q-.14062-.81153-.22363-1.84766a16.444 16.444 0 0 1-3.8291 3.05078 11.56592 11.56592 0 0 1-5.85547 1.4834 10.10729 10.10729 0 0 1-6.88379-2.36426 8.41168 8.41168 0 0 1-2.7168-6.7041q0-5.62646 4.37012-8.14453a19.52194 19.52194 0 0 1 7.04981-1.96zm4.87793 3.72266a8.77364 8.77364 0 0 1-1.54688.76953 13.05845 13.05845 0 0 1-2.1416.5459l-1.81641.33594a11.95989 11.95989 0 0 0-3.667 1.09179 3.64409 3.64409 0 0 0-1.88379 3.38672 3.53819 3.53819 0 0 0 1.15039 2.95313 4.37757 4.37757 0 0 0 2.79981.91015 8.33675 8.33675 0 0 0 4.81738-1.51172q2.20313-1.51171 2.28809-5.51464zm10.35156-9.71194v-5.68261h4.25391v-8.50879h7.89355v8.50879h4.9541v5.68261h-4.9541v16.12207a3.62946 3.62946 0 0 0 .47559 2.33692q.47607.46143 2.91113.46191c.24219 0 .499-.0039.76953-.01367s.53613-.02344.79785-.042v5.96191l-3.77832.13965q-5.6543.19482-7.72558-1.959a5.83412 5.83412 0 0 1-1.34375-4.22657V691.889zm40.67187-5.3447a12.41952 12.41952 0 0 1 5.27247 4.51367 15.00317 15.00317 0 0 1 2.43066 6.30762 39.011 39.011 0 0 1 .26269 6.05468h-22.2207q.186 4.59083 3.19043 6.4375a8.10078 8.10078 0 0 0 4.39844 1.14844 6.19412 6.19412 0 0 0 6.07129-3.499h8.14453a9.95961 9.95961 0 0 1-2.958 5.51367q-4.09863 4.4502-11.47754 4.4502a16.63548 16.63548 0 0 1-10.74704-3.75295q-4.65526-3.75439-4.65527-12.21485 0-7.92773 4.20312-12.1582a14.71124 14.71124 0 0 1 10.91016-4.23047 17.38484 17.38484 0 0 1 7.17476 1.42969zm-11.93359 6.8916a8.28348 8.28348 0 0 0-2.125 4.72266h13.74316a6.65849 6.65849 0 0 0-2.125-4.82129 6.99694 6.99694 0 0 0-4.73144-1.64453 6.32541 6.32541 0 0 0-4.76172 1.74316zm28.68555 13.25977a5.31777 5.31777 0 0 0 1.09668 3.02246q1.49121 1.59521 5.51269 1.5957a8.43508 8.43508 0 0 0 3.75489-.7002 2.24077 2.24077 0 0 0 1.3916-2.09863 2.26494 2.26494 0 0 0-1.1211-2.04394q-1.12206-.69873-8.3457-2.40625-5.2002-1.2876-7.32715-3.21973a6.97669 6.97669 0 0 1-2.127-5.48535 9.50691 9.50691 0 0 1 3.32324-7.26367q3.3252-3.03663 9.35547-3.03711a17.19377 17.19377 0 0 1 9.32617 2.28125q3.60351 2.28222 4.1377 7.8789h-7.97754a4.72262 4.72262 0 0 0-.86914-2.43457q-1.31984-1.623-4.49121-1.624a6.46657 6.46657 0 0 0-3.71875.8125 2.33422 2.33422 0 0 0-1.10938 1.90332 2.08255 2.08255 0 0 0 1.17969 1.9873q1.17773.64307 8.32812 2.21094a15.27268 15.27268 0 0 1 7.14649 3.38672 7.68973 7.68973 0 0 1 2.35156 5.73828 9.26551 9.26551 0 0 1-3.37988 7.40332q-3.3794 2.86816-10.44727 2.86817-7.20849 0-10.64355-3.03614a9.86936 9.86936 0 0 1-3.43555-7.73925zm33.72851-21.1045a38.06229 38.06229 0 0 1 3.26856 15.22657 41.81957 41.81957 0 0 1-3.88379 17.12988 36.44154 36.44154 0 0 1-4.10742 7.333l-1.9834 2.71484h-5.89551a72.034 72.034 0 0 0 5.13086-10.916 48.01059 48.01059 0 0 0 2.48242-15.75781 53.80787 53.80787 0 0 0-.89258-10.13281 46.816 46.816 0 0 0-4.87988-13.54688l-1.70117-3.13476h6.00683a60 60 0 0 1 6.45508 11.08397z"/><path fill="#00722f" d="M225.04445-.49421q335.61357 0 671.227-.10058c3.40374-.0017 3.73236.99024 3.72852 3.93366q-.13031 98.17475-.06655 196.34976a5.05857 5.05857 0 0 1-4.05439 1.56254c-1.62406.00961-3.2483.0342-4.87255.0342q-328.735.00141-657.47-.03224c-2.9307-.00048-6.0344.74037-8.7362-1.18678-1.82842-1.98434-1.32219-4.46532-1.3262-6.78064q-.06776-39.29367-.02654-78.58751-.00042-54.07573.02645-108.15144c.00274-2.42397-.61208-5.06787 1.57046-7.04097z"/><path d="M899.93342 399.12173q0 98.175.06655 196.3499c.00393 2.94385-.32533 3.93527-3.7287 3.93357q-335.6133-.16694-671.22682-.10063c-1.87712-1.61348-1.57285-3.8306-1.57818-5.92454-.03881-15.2337-.01794-30.4675-.01822-45.70129q-.0013-70.79962.02705-141.59918c.002-2.44058-.56131-5.04067 1.1904-7.2237a6.007 6.007 0 0 1 4.187-1.295c1.62381-.02819 3.24746-.03587 4.87127-.03592q328.64259-.00152 657.28522.04457c3.00551.00065 6.31478-1.01951 8.92443 1.55222z"/><path fill="#fe0000" d="M225.169 399.30633c-.04142 1.62131-.11893 3.24258-.11909 4.86389q-.00927 97.5672-.00549 195.13435H.08146v-3.29241Q.08146 299.40507 0 2.79805C-.00136-.19218.87374-.5584 3.53521-.55564q110.75453.11495 221.50924.06143.00006 97.56618.00538 195.13236c.00016 1.62079.07783 3.2416.11934 4.86238 1.77084 1.83227 1.456 4.15876 1.45876 6.38117q.03983 32.0486.01371 64.0972.00056 61.09854-.01979 122.19709c-.00185 2.44844.50615 5.05645-1.45285 7.13034z"/><path fill="#fefefe" d="M225.169 399.30633c-.04163-.87019-.11962-1.74038-.11969-2.61057q-.00851-97.2923 0-194.58456c.00007-.87019.07813-1.74041.1198-2.61064q334.95509.00072 669.91013.00917c1.618.00005 3.23613.11669 4.85415.1789v199.4331c-1.61775.06155-3.2354.177-4.85315.177q-334.95557.01202-669.91124.0076z"/></svg>