<svg xmlns="http://www.w3.org/2000/svg" role="img" viewBox="-17.99 -18.99 935.48 763.48"><title>United Arab Emirates (TraceCovid) logo</title><path fill="#00722f" d="M225.04445-.49421q335.61357 0 671.227-.10058c3.40374-.0017 3.73236.99024 3.72852 3.93366q-.13031 98.17475-.06655 196.34976a5.05857 5.05857 0 0 1-4.05439 1.56254c-1.62406.00961-3.2483.0342-4.87255.0342q-328.735.00141-657.47-.03224c-2.9307-.00048-6.0344.74037-8.7362-1.18678-1.82842-1.98434-1.32219-4.46532-1.3262-6.78064q-.06776-39.29367-.02654-78.58751-.00042-54.07573.02645-108.15144c.00274-2.42397-.61208-5.06787 1.57046-7.04097z"/><path d="M899.93342 399.12173q0 98.175.06655 196.3499c.00393 2.94385-.32533 3.93527-3.7287 3.93357q-335.6133-.16694-671.22682-.10063c-1.87712-1.61348-1.57285-3.8306-1.57818-5.92454-.03881-15.2337-.01794-30.4675-.01822-45.70129q-.0013-70.79962.02705-141.59918c.002-2.44058-.56131-5.04067 1.1904-7.2237a6.007 6.007 0 0 1 4.187-1.295c1.62381-.02819 3.24746-.03587 4.87127-.03592q328.64259-.00152 657.28522.04457c3.00551.00065 6.31478-1.01951 8.92443 1.55222z"/><path fill="#fe0000" d="M225.169 399.30633c-.04142 1.62131-.11893 3.24258-.11909 4.86389q-.00927 97.5672-.00549 195.13435H.08146v-3.29241Q.08146 299.40507 0 2.79805C-.00136-.19218.87374-.5584 3.53521-.55564q110.75453.11495 221.50924.06143.00006 97.56618.00538 195.13236c.00016 1.62079.07783 3.2416.11934 4.86238 1.77084 1.83227 1.456 4.15876 1.45876 6.38117q.03983 32.0486.01371 64.0972.00056 61.09854-.01979 122.19709c-.00185 2.44844.50615 5.05645-1.45285 7.13034z"/><path fill="#fefefe" d="M225.169 399.30633c-.04163-.87019-.11962-1.74038-.11969-2.61057q-.00851-97.2923 0-194.58456c.00007-.87019.07813-1.74041.1198-2.61064q334.95509.00072 669.91013.00917c1.618.00005 3.23613.11669 4.85415.1789v199.4331c-1.61775.06155-3.2354.177-4.85315.177q-334.95557.01202-669.91124.0076z"/><path d="M11.27543 674.6h8.63477v24.97363a14.1258 14.1258 0 0 0 .98925 6.11817q1.53808 3.41895 6.707 3.41894 5.14012 0 6.67968-3.41894a14.14048 14.14048 0 0 0 .98926-6.11817V674.6h8.63481v24.99317q0 6.48339-2.01075 10.09668-3.7456 6.62109-14.293 6.62011-10.54835 0-14.32129-6.62011-2.00978-3.61377-2.00977-10.09668zm63 12.31734q2.95313 2.44044 2.95313 8.09668v20.24805h-8.05469v-18.29a8.40414 8.40414 0 0 0-.62988-3.6416q-1.15137-2.31738-4.38184-2.31641a5.43006 5.43006 0 0 0-5.44922 3.39258 11.71906 11.71906 0 0 0-.76758 4.5791v16.27637H50.084V685.2484h7.61329v4.38574a13.32189 13.32189 0 0 1 2.85742-3.33789 9.89764 9.89764 0 0 1 6.126-1.82031 11.52259 11.52259 0 0 1 7.59472 2.4414zM91.21 681.6068h-7.97266v-7.25586H91.21zm-7.97266 3.58594H91.21v30.06933h-7.97266zm11.08399 5.87597v-5.59961h4.19336v-8.38672h7.7793v8.38672h4.88281v5.59961h-4.8828v15.88965a3.58107 3.58107 0 0 0 .46875 2.30371q.46875.45556 2.86914.45508c.23925 0 .49218-.00391.75878-.01367q.39991-.01318.78614-.041v5.875l-3.72364.13867q-5.57373.1919-7.61425-1.93164a5.74648 5.74648 0 0 1-1.32422-4.165v-18.5108zm40.08496-5.2666a12.22529 12.22529 0 0 1 5.19629 4.44824 14.787 14.787 0 0 1 2.39648 6.21582 38.49394 38.49394 0 0 1 .25879 5.96778h-21.90039q.1831 4.5249 3.14453 6.3457a7.98858 7.98858 0 0 0 4.335 1.13086 6.10859 6.10859 0 0 0 5.9834-3.44824h8.02735a9.82033 9.82033 0 0 1-2.915 5.43457q-4.04 4.38574-11.3125 4.38574a16.3952 16.3952 0 0 1-10.5918-3.69922q-4.58789-3.7002-4.58789-12.03906 0-7.812 4.1416-11.98242a14.49709 14.49709 0 0 1 10.75293-4.16895 17.11169 17.11169 0 0 1 7.07121 1.40918zm-11.76172 6.792a8.16949 8.16949 0 0 0-2.09375 4.6543h13.54492a6.56249 6.56249 0 0 0-2.09472-4.75195 6.89158 6.89158 0 0 0-4.66309-1.6211 6.23677 6.23677 0 0 0-4.69336 1.71874zm38.12207-6.91895a9.55781 9.55781 0 0 1 3.44824 3.32422v-14.34473h7.97266v40.60742h-7.6416v-4.166a11.0961 11.0961 0 0 1-3.835 3.89062 10.77257 10.77257 0 0 1-5.35157 1.21289 11.17327 11.17327 0 0 1-8.86914-4.26172 16.36476 16.36476 0 0 1-3.59961-10.9375q0-7.69775 3.54493-12.11133a11.5334 11.5334 0 0 1 9.47558-4.41308 9.70426 9.70426 0 0 1 4.85551 1.19921zm1.93067 21.4209a10.96011 10.96011 0 0 0 1.73828-6.42676q0-5.51806-2.78614-7.89063a5.99869 5.99869 0 0 0-3.97265-1.43359 5.52208 5.52208 0 0 0-5.0625 2.60644 12.08484 12.08484 0 0 0-1.61328 6.46875 11.964 11.964 0 0 0 1.6416 6.66211 5.55071 5.55071 0 0 0 4.97851 2.49707 5.80463 5.80463 0 0 0 5.07618-2.48339zM202.3975 674.6h9.61328l14.38672 40.66211h-9.21387L214.5 706.90367h-14.97457l-2.75586 8.3584h-8.88769zm-.56055 25.29688H212.251l-5.13672-16.001zm44.38965-15.40727c.10059.00879.32617.02344.67578.041v8.05566q-.74561-.08349-1.32422-.11035-.58006-.02784-.93847-.02832-4.74464 0-6.37207 3.08984a12.018 12.018 0 0 0-.91016 5.35254v14.37207h-7.918v-30.06931h7.50391v5.24126a16.67094 16.67094 0 0 1 3.17187-4.11036 8.64082 8.64082 0 0 1 5.73829-1.84765c.14747-.00005.27147.00385.37307.01362zm15.7793 12.48239a12.44843 12.44843 0 0 0 3.14062-.68945 2.36518 2.36518 0 0 0 1.69532-2.23438 2.64111 2.64111 0 0 0-1.30078-2.55175 8.21738 8.21738 0 0 0-3.81641-.70313q-2.82421 0-3.999 1.37891a5.67859 5.67859 0 0 0-1.11817 2.75879h-7.58691a11.507 11.507 0 0 1 2.21679-6.4834q3.13038-3.97119 10.75-3.97168a19.17021 19.17021 0 0 1 8.81055 1.958q3.85107 1.96 3.85059 7.39355v13.793q0 1.43555.05566 3.47559a4.35851 4.35851 0 0 0 .46875 2.09668 2.815 2.815 0 0 0 1.1582.91113v1.1582h-8.55175a8.72127 8.72127 0 0 1-.4961-1.71q-.13915-.7998-.2207-1.82129a16.21908 16.21908 0 0 1-3.77344 3.00684 11.40663 11.40663 0 0 1-5.77246 1.46191 9.9521 9.9521 0 0 1-6.7832-2.33105 8.28544 8.28544 0 0 1-2.67774-6.60645q0-5.54444 4.30664-8.02734a19.24569 19.24569 0 0 1 6.94825-1.93164zm4.80762 3.66895a8.68234 8.68234 0 0 1-1.52344.75879 12.94471 12.94471 0 0 1-2.11133.53808l-1.79.33106a11.76137 11.76137 0 0 0-3.61426 1.07617 3.58961 3.58961 0 0 0-1.85649 3.33795 3.488 3.488 0 0 0 1.13379 2.91016 4.31168 4.31168 0 0 0 2.75976.89648 8.214 8.214 0 0 0 4.74707-1.48926q2.17238-1.48974 2.25489-5.43457zm38.96679-11.83395q3.37355 4.27589 3.374 11.03418a19.32719 19.32719 0 0 1-3.32813 11.61426 12.08 12.08 0 0 1-15.30566 3.11719 11.97742 11.97742 0 0 1-2.93946-3.08985v3.7793h-7.751v-40.60743h7.86133v14.45508a11.5035 11.5035 0 0 1 3.30468-3.19922 9.85818 9.85818 0 0 1 5.44141-1.37988 11.23839 11.23839 0 0 1 9.34283 4.27637zm-6.57131 18.31738a11.14359 11.14359 0 0 0 1.69629-6.45508 14.45686 14.45686 0 0 0-.834-5.29688 5.8104 5.8104 0 0 0-5.84082-3.97265 5.899 5.899 0 0 0-5.92481 3.88965 14.47894 14.47894 0 0 0-.835 5.35156 11.14225 11.14225 0 0 0 1.72461 6.40039 5.92226 5.92226 0 0 0 5.25781 2.53808 5.45407 5.45407 0 0 0 4.75592-2.45507zm58.98342-25.32422h-21.51758v8.63384h19.752v7.0625h-19.752v10.45507h22.51075v7.31055h-30.81446V674.6h29.82129zm43.08399 3.50293a8.75316 8.75316 0 0 1 3.5039 2.70312 8.641 8.641 0 0 1 1.71 3.86231 26.72011 26.72011 0 0 1 .27637 4.4414l-.05566 18.95215h-8.05567v-19.14453a6.283 6.283 0 0 0-.55175-2.81445 3.91886 3.91886 0 0 0-3.86133-2.09668 4.51932 4.51932 0 0 0-4.49707 2.7041 8.49 8.49 0 0 0-.63477 3.44824v17.90332h-7.917v-17.90332a10.04841 10.04841 0 0 0-.55176-3.88965 3.85073 3.85073 0 0 0-3.88965-2.17968q-3.36621 0-4.52441 2.17968a8.39805 8.39805 0 0 0-.63379 3.69629v18.09668h-7.97266V685.2484h7.64161v4.38574a12.64618 12.64618 0 0 1 2.75878-3.33789 10.91291 10.91291 0 0 1 11.50293-.24805 8.82569 8.82569 0 0 1 2.59375 3.61329 9.99545 9.99545 0 0 1 3.834-3.88965 11.70679 11.70679 0 0 1 5.40722-1.24121 10.46979 10.46979 0 0 1 3.91696.77246zm19.38769-3.69629h-7.97265v-7.25586h7.97265zm-7.97265 3.58594h7.97265v30.06933h-7.97265zm30.87793-.70313c.10058.00879.32617.02344.67578.041v8.05566q-.74561-.08349-1.32422-.11035-.58008-.02784-.93848-.02832-4.74462 0-6.37207 3.08984a12.018 12.018 0 0 0-.91015 5.35254v14.37207h-7.918v-30.06931h7.5039v5.24126a16.67093 16.67093 0 0 1 3.17188-4.11036 8.64081 8.64081 0 0 1 5.73828-1.84765c.14749-.00005.27151.00385.37308.01362zm15.77929 12.48239a12.44864 12.44864 0 0 0 3.14063-.68945 2.36518 2.36518 0 0 0 1.69531-2.23438 2.64109 2.64109 0 0 0-1.30078-2.55175 8.21733 8.21733 0 0 0-3.81641-.70313q-2.82422 0-3.999 1.37891a5.67849 5.67849 0 0 0-1.11816 2.75879h-7.58692a11.507 11.507 0 0 1 2.2168-6.4834q3.13036-3.97119 10.75-3.97168a19.1702 19.1702 0 0 1 8.81054 1.958q3.85109 1.96 3.85059 7.39355v13.793q0 1.43555.05566 3.47559a4.35851 4.35851 0 0 0 .46875 2.09668 2.81493 2.81493 0 0 0 1.15821.91113v1.1582h-8.55176a8.72051 8.72051 0 0 1-.49609-1.71q-.13917-.7998-.22071-1.82129a16.219 16.219 0 0 1-3.77343 3.00684 11.40666 11.40666 0 0 1-5.77247 1.46191 9.9521 9.9521 0 0 1-6.7832-2.33105 8.28544 8.28544 0 0 1-2.67773-6.60645q0-5.54444 4.30664-8.02734a19.24556 19.24556 0 0 1 6.94824-1.93164zm4.80762 3.66895a8.68234 8.68234 0 0 1-1.52344.75879 12.94444 12.94444 0 0 1-2.11133.53808l-1.79.33106a11.76119 11.76119 0 0 0-3.61426 1.07617 3.58962 3.58962 0 0 0-1.85645 3.33789 3.488 3.488 0 0 0 1.13379 2.91016 4.31169 4.31169 0 0 0 2.75977.89648 8.214 8.214 0 0 0 4.74707-1.48926q2.17236-1.48974 2.25488-5.43457zm10.20215-9.57224v-5.59961h4.19336v-8.38672h7.77929v8.38672h4.88282v5.59961h-4.88282v15.88965a3.58107 3.58107 0 0 0 .46875 2.30371q.46875.45556 2.86915.45508c.23925 0 .49218-.00391.75878-.01367q.39992-.01318.78614-.041v5.875l-3.72364.13867q-5.57373.1919-7.61425-1.93164a5.74648 5.74648 0 0 1-1.32422-4.165v-18.5108zm40.08496-5.2666a12.22529 12.22529 0 0 1 5.19629 4.44824 14.787 14.787 0 0 1 2.39648 6.21582 38.49394 38.49394 0 0 1 .25879 5.96778h-21.90039q.18311 4.5249 3.14453 6.3457a7.98858 7.98858 0 0 0 4.335 1.13086 6.10859 6.10859 0 0 0 5.9834-3.44824h8.02735a9.82033 9.82033 0 0 1-2.915 5.43457q-4.04 4.38574-11.3125 4.38574a16.3952 16.3952 0 0 1-10.5918-3.69922q-4.58788-3.7002-4.58789-12.03906 0-7.812 4.1416-11.98242a14.49709 14.49709 0 0 1 10.75293-4.16895 17.11169 17.11169 0 0 1 7.07121 1.40918zm-11.76172 6.792a8.16949 8.16949 0 0 0-2.09375 4.6543h13.54492a6.56249 6.56249 0 0 0-2.09472-4.75195 6.89158 6.89158 0 0 0-4.66309-1.6211 6.23677 6.23677 0 0 0-4.69336 1.71874zm28.27344 13.06835a5.22684 5.22684 0 0 0 1.08105 2.97852q1.46924 1.57324 5.43262 1.57324a8.30759 8.30759 0 0 0 3.7002-.69043 2.31008 2.31008 0 0 0 .26757-4.082q-1.106-.68994-8.22558-2.37305-5.12548-1.26855-7.22168-3.17187a6.87933 6.87933 0 0 1-2.09668-5.40723 9.36946 9.36946 0 0 1 3.27637-7.15918q3.27539-2.99268 9.21972-2.99316a16.94254 16.94254 0 0 1 9.19238 2.249q3.55225 2.24853 4.07715 7.76563h-7.86133a4.65163 4.65163 0 0 0-.85742-2.4004q-1.30077-1.5996-4.42675-1.5996a6.37464 6.37464 0 0 0-3.665.7998 2.3005 2.3005 0 0 0-1.09278 1.876 2.05133 2.05133 0 0 0 1.16211 1.958q1.16163.63575 8.209 2.17969a15.05936 15.05936 0 0 1 7.043 3.33789 7.57858 7.57858 0 0 1 2.31738 5.65528 9.12976 9.12976 0 0 1-3.33106 7.29687q-3.331 2.82715-10.2959 2.82715-7.10448 0-10.49023-2.99316a9.72765 9.72765 0 0 1-3.38672-7.627zm40.20996-20.80078a59.11586 59.11586 0 0 1 6.37305-10.92383h5.93066l-1.68262 3.08985a46.01025 46.01025 0 0 0-4.82812 13.35156 52.79125 52.79125 0 0 0-.88281 9.98633 47.16251 47.16251 0 0 0 2.45605 15.53125 70.85705 70.85705 0 0 0 5.0752 10.75879h-5.82032l-1.959-2.67579a35.90653 35.90653 0 0 1-4.05469-7.22851 41.15439 41.15439 0 0 1-3.835-16.88281 37.45885 37.45885 0 0 1 3.2276-15.00684zM616.73246 674.6v7.2002h-12.166v33.46191h-8.55176v-33.46195H583.794V674.6zm16.53223 9.88961c.10058.00879.32617.02344.67578.041v8.05566q-.74561-.08349-1.32422-.11035-.58008-.02784-.93848-.02832-4.74462 0-6.37207 3.08984a12.018 12.018 0 0 0-.91015 5.35254v14.37207h-7.918v-30.06931h7.50391v5.24126a16.6707 16.6707 0 0 1 3.17187-4.11036 8.64081 8.64081 0 0 1 5.73828-1.84765c.14749-.00005.27152.00385.37308.01362zM649.044 696.972a12.44854 12.44854 0 0 0 3.14062-.68945 2.36518 2.36518 0 0 0 1.69531-2.23438 2.64109 2.64109 0 0 0-1.30078-2.55175 8.21731 8.21731 0 0 0-3.8164-.70313q-2.82423 0-3.999 1.37891a5.67849 5.67849 0 0 0-1.11816 2.75879h-7.58692a11.507 11.507 0 0 1 2.2168-6.4834q3.13036-3.97119 10.75-3.97168a19.17027 19.17027 0 0 1 8.81055 1.958q3.85107 1.96 3.85058 7.39355v13.793q0 1.43555.05567 3.47559a4.35827 4.35827 0 0 0 .46875 2.09668 2.81483 2.81483 0 0 0 1.1582.91113v1.1582h-8.55176a8.7212 8.7212 0 0 1-.49609-1.71q-.13915-.7998-.2207-1.82129a16.21908 16.21908 0 0 1-3.77344 3.00684 11.40665 11.40665 0 0 1-5.77246 1.46191 9.95211 9.95211 0 0 1-6.78321-2.33105 8.28544 8.28544 0 0 1-2.67773-6.60645q0-5.54444 4.30664-8.02734a19.24563 19.24563 0 0 1 6.94824-1.93164zm4.80761 3.66895a8.68234 8.68234 0 0 1-1.52344.75879 12.94455 12.94455 0 0 1-2.11132.53808l-1.79.33106a11.76128 11.76128 0 0 0-3.61426 1.07617 3.58962 3.58962 0 0 0-1.85645 3.33789 3.488 3.488 0 0 0 1.13379 2.91016 4.31169 4.31169 0 0 0 2.75977.89648 8.214 8.214 0 0 0 4.74707-1.48926q2.17236-1.48974 2.25488-5.43457zm31.27831-4.66208a6.96963 6.96963 0 0 0-1.13379-3.03418 4.75808 4.75808 0 0 0-4.12011-1.82031 5.425 5.425 0 0 0-5.44825 3.94433 16.39578 16.39578 0 0 0-.77343 5.5586 15.0722 15.0722 0 0 0 .77343 5.31054 5.25866 5.25866 0 0 0 5.30957 3.752 4.68579 4.68579 0 0 0 3.92676-1.49024 7.40345 7.40345 0 0 0 1.41114-3.86133h8.02734a13.1554 13.1554 0 0 1-2.5957 6.78614q-3.70167 5.15918-10.96289 5.1582-7.2627 0-10.68653-4.30371-3.4248-4.30226-3.42383-11.15918 0-7.7373 3.78223-12.041 3.78369-4.30224 10.43848-4.30273a15.73173 15.73173 0 0 1 9.26465 2.53711q3.60351 2.53857 4.2666 8.96582zm31.61621-10.17676a12.22529 12.22529 0 0 1 5.19629 4.44824 14.7869 14.7869 0 0 1 2.39649 6.21582 38.4952 38.4952 0 0 1 .25879 5.96778h-21.90039q.18311 4.5249 3.14453 6.3457a7.98856 7.98856 0 0 0 4.335 1.13086 6.10862 6.10862 0 0 0 5.9834-3.44824h8.02734a9.82021 9.82021 0 0 1-2.915 5.43457q-4.04 4.38574-11.3125 4.38574a16.39522 16.39522 0 0 1-10.5918-3.69922q-4.58789-3.7002-4.58789-12.03906 0-7.812 4.1416-11.98242a14.49711 14.49711 0 0 1 10.75293-4.16895 17.11169 17.11169 0 0 1 7.07121 1.40918zm-11.76172 6.792a8.16949 8.16949 0 0 0-2.09375 4.6543h13.54493a6.5625 6.5625 0 0 0-2.09473-4.75195 6.89158 6.89158 0 0 0-4.66309-1.6211 6.23678 6.23678 0 0 0-4.69336 1.71874zm26.69532-13.74611a16.74247 16.74247 0 0 1 12.5-5.02051q10.15137 0 14.84668 6.73047a14.669 14.669 0 0 1 2.7832 7.58691h-8.49609a11.58647 11.58647 0 0 0-2.08106-4.41406q-2.2705-2.64843-6.72949-2.64844a8.292 8.292 0 0 0-7.16211 3.73829q-2.62061 3.73827-2.62109 10.5791 0 6.84228 2.7666 10.248a8.66677 8.66677 0 0 0 7.02929 3.40723 7.96378 7.96378 0 0 0 6.665-2.92383 12.834 12.834 0 0 0 2.1045-4.71777h8.4414a18.3142 18.3142 0 0 1-5.58105 10.81445 16.24632 16.24632 0 0 1-11.50293 4.165q-8.67774 0-13.64551-5.62793-4.96728-5.6543-4.9668-15.50293.00004-10.64785 5.64946-16.41398zm59.94527 32.73536q-3.80714 4.69922-11.55859 4.69922-7.752 0-11.5586-4.69922a18.65353 18.65353 0 0 1 0-22.58789q3.80714-4.76806 11.5586-4.76855 7.75194 0 11.55859 4.76855a18.65732 18.65732 0 0 1 0 22.58789zm-6.29-4.34473q1.84863-2.45214 1.84863-6.96972t-1.84863-6.95508a6.986 6.986 0 0 0-10.60644 0q-1.86183 2.4375-1.86231 6.95508 0 4.51758 1.86231 6.96972a6.96244 6.96244 0 0 0 10.60644 0zm32.83691-22.04589h8.44141l-10.8584 30.06933h-8.29l-10.7832-30.06933h8.82813l6.26171 22.17968zm19.56641-3.58594h-7.97266v-7.25586h7.97266zm-7.97266 3.58594h7.97266v30.06933h-7.97266zm30.11915.48242a9.55789 9.55789 0 0 1 3.44824 3.32422v-14.34473h7.97265v40.60742h-7.6416v-4.166a11.0961 11.0961 0 0 1-3.835 3.89062 10.77256 10.77256 0 0 1-5.35156 1.21289 11.17326 11.17326 0 0 1-8.86914-4.26172 16.36476 16.36476 0 0 1-3.59961-10.9375q0-7.69775 3.54492-12.11133a11.53343 11.53343 0 0 1 9.47559-4.41308 9.70431 9.70431 0 0 1 4.85551 1.19921zm1.93066 21.4209a10.96011 10.96011 0 0 0 1.73828-6.42676q0-5.51806-2.78613-7.89063a5.99873 5.99873 0 0 0-3.97266-1.43359 5.52208 5.52208 0 0 0-5.0625 2.60644 12.08493 12.08493 0 0 0-1.61328 6.46875 11.96406 11.96406 0 0 0 1.6416 6.66211 5.55072 5.55072 0 0 0 4.97852 2.49707 5.80462 5.80462 0 0 0 5.07617-2.48339zm24.55273-22.23438a37.51681 37.51681 0 0 1 3.22168 15.00684 41.21946 41.21946 0 0 1-3.82714 16.88281 35.93265 35.93265 0 0 1-4.04883 7.22851l-1.95508 2.67579h-5.81055a71.04669 71.04669 0 0 0 5.05762-10.75879 47.34288 47.34288 0 0 0 2.44629-15.53125 52.96254 52.96254 0 0 0-.87988-9.98633 46.10891 46.10891 0 0 0-4.80957-13.35156l-1.67676-3.08985h5.9209a59.16888 59.16888 0 0 1 6.36132 10.92383z"/></svg>