<svg xmlns="http://www.w3.org/2000/svg" role="img" viewBox="-1.20 -1.20 62.34 35.52"><title>United Kingdom - Northern Ireland (StopCOVID NI) logo</title><clipPath id="a"><path d="M0 0v30h60V0z"/></clipPath><clipPath id="b"><path d="M30 15h30v15zv15H0zH0V0zV0h30z"/></clipPath><g clip-path="url(#a)"><path fill="#012169" d="M0 0v30h60V0z"/><path stroke="#fff" stroke-width="6" d="M0 0l60 30m0-30L0 30"/><path stroke="#C8102E" stroke-width="4" d="M0 0l60 30m0-30L0 30" clip-path="url(#b)"/><path stroke="#fff" stroke-width="10" d="M30 0v30M0 15h60"/><path stroke="#C8102E" stroke-width="6" d="M30 0v30M0 15h60"/></g><path d="M5.19215 31.24447v.9192c0 .15901.02482.28282.07417.37142.09264.1622.26869.24358.52756.24358.25917 0 .43464-.08138.5267-.24358.04935-.0886.07388-.2124.07388-.37143v-.91919H6.077v.9192c0 .10302-.01212.17806-.03636.2254-.0381.08368-.12035.12582-.24676.12582-.12698 0-.20952-.04214-.24761-.12583-.02425-.04733-.03637-.12237-.03637-.2254v-.91919zm.60173 0zm1.76912.4531c-.07273-.06002-.16623-.08975-.28052-.08975-.09148 0-.1668.02222-.22626.06696-.03319.02482-.0684.0658-.10563.12265v-.16133h-.27907V32.74h.2883v-.59856c0-.0684.00924-.12438.0283-.16854.03664-.08312.10389-.12468.20201-.12468.07965 0 .13391.02829.1622.08514.01558.03117.02337.0759.02337.13391V32.74h.2964v-.74459c0-.13882-.03637-.2381-.1091-.29783zm-.3873-.09292zm1.06032-.10246v-.26695H7.9428v.26695zm-.29322.1319v1.1059h.29322v-1.1059zm.45974.21615h.15411v.68081c0 .06898.01645.12006.04877.15325.04993.05195.14344.07561.27995.071l.13708-.0052v-.21616a.4696.4696 0 0 1-.02886.00173c-.00981.00029-.01905.00058-.028.00058-.05887 0-.09408-.00578-.10562-.01703-.01126-.01097-.01703-.03925-.01703-.08456v-.58442h.17951v-.20606h-.1795v-.30822h-.2863v.30822h-.15411zm1.086.0557c.03694-.04184.08889-.06291.15584-.06291.06148 0 .11314.01991.1547.05945.04155.03954.06493.09755.06955.17403h-.44935c.00923-.07186.0326-.12843.06926-.17057zm.40433-.24963c-.0736-.03435-.15642-.05166-.24849-.05166-.15497 0-.2808.05108-.37806.15324-.09697.10217-.14546.24906-.14546.4404 0 .20434.05368.35181.16133.44243.10765.09062.23175.13593.3723.13593.17056 0 .30303-.05397.39769-.16133.0609-.06782.09523-.13448.10245-.2h-.29524c-.01558.03262-.03348.05801-.05368.0762-.03723.03376-.08542.05079-.14516.05079-.056 0-.10419-.01386-.14401-.04185-.06552-.04444-.10044-.12237-.10448-.23319h.757c.00115-.09552-.00173-.16854-.00924-.21933-.01298-.08658-.04098-.16249-.08427-.22829-.0479-.07417-.1088-.12871-.18268-.16334zm-.22828-.05166zm1.28571.04733c-.05224-.02944-.11169-.04416-.17864-.04416-.14546 0-.26176.05397-.34863.1622-.08687.10822-.13045.25685-.13045.4456 0 .16363.04416.29754.13247.4023.08831.10447.19711.15671.3264.15671.07822 0 .14402-.015.19683-.04473.05252-.02973.09957-.07735.14084-.14315V32.74h.2811v-1.4935H11.077v.52755c-.03233-.05194-.07475-.09264-.1267-.12207zm.071.78787c-.04272.06061-.10505.0912-.18673.0912-.08196 0-.14286-.03059-.18326-.09177-.04012-.06119-.06032-.14286-.06032-.24502 0-.09466.01992-.17403.05945-.2381.03954-.06378.1016-.09581.18615-.09581.05541 0 .10419.0176.14603.0528.0684.05802.10246.15499.10246.29005 0 .09697-.02136.17576-.06378.23665zm1.21731-1.19538V32.74h.30765v-.50015l.14892-.15324.46176.65339h.40173l-.64416-.87965.6127-.61588h-.40375l-.5772.61588v-.61588zm1.7697.25772v-.26695h-.29322v.26695zm-.29322.1319v1.1059h.29322v-1.1059zm1.46666.06349c-.07272-.06003-.16623-.08976-.2808-.08976-.0912 0-.16653.02222-.22627.06696-.0329.02482-.0681.0658-.10534.12265v-.16133h-.27907V32.74h.28802v-.59856c0-.0684.00952-.12438.02857-.16854.03637-.08312.1039-.12468.20202-.12468.07966 0 .13391.02829.1622.08514.01558.03117.02337.0759.02337.13391V32.74h.2961v-.74459c0-.13882-.03636-.2381-.1088-.29783zm-.3873-.09293zm1.40952.82135c-.04675.05108-.1039.07648-.17171.07648-.1013 0-.17172-.04646-.21097-.13997-.02164-.04993-.03232-.10707-.03232-.17143 0-.07446.0101-.1368.0303-.18759.03867-.09553.10851-.14314.2101-.14314.07446 0 .13362.02741.17807.08225.04415.05483.06638.13448.06638.23953 0 .1114-.02338.19279-.06985.24387zm-.0984-.79278c-.04128-.01703-.08976-.0254-.14517-.0254-.15036 0-.2661.05599-.34806.16797-.08196.11168-.12265.24992-.12265.41443 0 .17027.04242.30533.12727.40519s.19827.14978.34026.14978c.09206 0 .16681-.02193.22424-.06609.03175-.02366.06148-.05916.08947-.10649v.071c0 .10562-.01154.18066-.03463.2254-.03521.06955-.10476.10447-.20895.10447-.07388 0-.12612-.01328-.15729-.03954-.01818-.01501-.03145-.03925-.03953-.07302h-.31458c.00953.11025.05888.19308.14805.24849.08947.0554.20462.08311.34604.08311.23405 0 .3922-.06233.47474-.18672.0482-.07244.07215-.1798.07215-.32266v-1.04906h-.2811v.15931c-.04328-.07763-.10014-.13131-.17027-.16017zm-.05282-.02857zm1.36046.04733c-.05195-.02944-.11169-.04416-.17865-.04416-.14545 0-.26147.05397-.34834.1622-.08686.10822-.13044.25685-.13044.4456 0 .16363.04415.29754.13246.4023.08832.10447.19683.15671.32612.15671.0785 0 .14401-.015.19683-.04473.05281-.02973.09985-.07735.14112-.14315V32.74h.2811v-1.4935h-.29322v.52755c-.0326-.05194-.07474-.09264-.12698-.12207zm.071.78787c-.04243.06061-.10477.0912-.18673.0912-.08167 0-.14286-.03059-.18297-.09177-.0404-.06119-.06032-.14286-.06032-.24502 0-.09466.01962-.17403.05916-.2381.03954-.06378.10159-.09581.18615-.09581.0557 0 .10418.0176.14632.0528.06811.05802.10245.15499.10245.29005 0 .09697-.02135.17576-.06407.23665zm1.30273.00607c-.0453.06002-.11024.09033-.1948.09033s-.1495-.0303-.1951-.09033c-.04588-.06032-.06868-.14575-.06868-.25686 0-.11082.0228-.19625.06869-.25628.0456-.05974.11053-.08975.19509-.08975.08456 0 .1495.03001.1948.08975.04531.06003.06811.14546.06811.25628 0 .11111-.0228.19654-.0681.25686zm.23146.1596c.09322-.11516.13997-.25398.13997-.41646 0-.1596-.04675-.29783-.13997-.415-.0935-.11689-.2352-.17547-.4251-.17547-.1902 0-.3319.05858-.42511.17546-.09351.11718-.13998.25542-.13998.41501 0 .16248.04647.3013.13998.41645.09321.11544.23492.17316.4251.17316.1899 0 .3316-.05772.42511-.17316zm-.4251-1.00087zm2.1518.03347c-.04734-.01876-.09524-.02828-.14402-.02828-.07301 0-.13939.015-.19884.0456-.05599.0303-.10303.07821-.14084.14315-.02164-.05426-.05368-.09842-.09552-.13305-.05195-.03723-.12035-.0557-.20491-.0557-.08918 0-.1619.02165-.21818.06494-.03175.02424-.06551.06522-.10159.12265v-.16133h-.2808V32.74h.29321v-.66551c0-.06032.0078-.10563.02338-.13593.02828-.0534.0837-.08023.16623-.08023.071 0 .11861.02684.14315.08023.01356.02972.0202.07734.0202.14314v.6583h.2912v-.6583c0-.04964.00779-.09177.02337-.12698.0303-.06638.08543-.09928.16537-.09928.06898 0 .1163.02568.142.07706.01356.02684.0202.06147.0202.10331V32.74h.29639l.00202-.69697c0-.07186-.00347-.12612-.0101-.16335-.01097-.05628-.03175-.1036-.06292-.14199-.03867-.04733-.08139-.08052-.129-.09957zm.95786.38557v.27388h.5824v-.27388zm1.37489-.77922V32.74h.2912v-1.06234l.61067 1.06234h.31256v-1.49553h-.2912v1.04416l-.59567-1.04416zm.61876-.00288zm1.5544 1.20433c-.04531.06002-.11025.09033-.1948.09033-.08457 0-.1495-.0303-.1951-.09033-.04589-.06032-.06869-.14575-.06869-.25686 0-.11082.0228-.19625.06869-.25628.0456-.05974.11053-.08975.1951-.08975.08455 0 .14949.03001.1948.08975.0453.06003.0681.14546.0681.25628 0 .11111-.0228.19654-.0681.25686zm.23145.1596c.09322-.11516.13998-.25398.13998-.41646 0-.1596-.04676-.29783-.13998-.415-.0935-.11689-.2352-.17547-.4251-.17547-.1902 0-.3319.05858-.42511.17546-.0935.11718-.13997.25542-.13997.41501 0 .16248.04646.3013.13997.41645.09322.11544.23492.17316.4251.17316.1899 0 .3316-.05772.42511-.17316zm-.4251-1.00087zm1.38643.00346c-.00375-.00029-.00837-.00029-.01356-.00029-.08658 0-.157.02251-.21126.06782-.03319.02713-.07186.07764-.1166.15123v-.19279h-.2759V32.74h.2912v-.52843c0-.08889.01097-.1544.03348-.19711.03983-.07562.11804-.11342.23434-.11342a.88368.88368 0 0 1 .03435.00086.94653.94653 0 0 1 .04877.00404v-.2961c-.0127-.00086-.02107-.00115-.02482-.00173zm.08052.24213h.1544v.68081c0 .06898.01616.12006.04877.15325.04993.05195.14315.07561.27995.071l.13708-.0052v-.21616a.47913.47913 0 0 1-.02915.00173c-.0098.00029-.01904.00058-.0277.00058-.05888 0-.09409-.00578-.10563-.01703-.01154-.01097-.01732-.03925-.01732-.08456v-.58442h.1798v-.20606h-.1798v-.30822h-.286v.30822h-.1544zm1.60173-.20894c-.0557-.02367-.11804-.0355-.18615-.0355-.0609 0-.1189.0127-.17402.0381-.05513.0251-.10361.07013-.14575.1342v-.52843h-.28802V32.74h.28802v-.59856c0-.09466.01992-.16767.05946-.21876.03953-.05108.09754-.07648.17402-.07648.0736 0 .12381.02569.15007.07706.0205.03665.0306.08456.0306.14401V32.74h.29523v-.64935c0-.0987-.00346-.16999-.0101-.21357-.00692-.04357-.0254-.086-.05599-.12727-.03578-.04877-.08167-.08485-.13737-.10851zm.75382.26464c.03694-.04184.0889-.06291.15585-.06291.06147 0 .11313.01991.15469.05945.04156.03954.06464.09755.06955.17403h-.44964c.00952-.07186.03261-.12843.06955-.17057zm.40433-.24963c-.07388-.03435-.1567-.05166-.24848-.05166-.15498 0-.2811.05108-.37807.15324-.09697.10217-.14545.24906-.14545.4404 0 .20434.05368.35181.16132.44243.10736.09062.23146.13593.3723.13593.17027 0 .30303-.05397.39769-.16133.0609-.06782.09495-.13448.10245-.2h-.29524c-.01558.03262-.03347.05801-.05368.0762-.03722.03376-.0857.05079-.14516.05079-.05628 0-.10419-.01386-.14401-.04185-.0658-.04444-.10044-.12237-.10448-.23319h.75671c.00145-.09552-.00173-.16854-.00894-.21933-.01299-.08658-.04098-.16249-.08427-.22829-.0482-.07417-.1091-.12871-.18269-.16334zm-.22828-.05166zm1.31342.00346c-.00375-.00029-.00837-.00029-.01385-.00029-.08658 0-.15671.02251-.21097.06782-.03319.02713-.07186.07764-.1166.15123v-.19279h-.2759V32.74h.2912v-.52843c0-.08889.01097-.1544.03348-.19711.03982-.07562.11804-.11342.23434-.11342a.88368.88368 0 0 1 .03434.00086.94653.94653 0 0 1 .04878.00404v-.2961c-.0127-.00086-.02107-.00115-.02482-.00173zm1.08773.08947c-.07273-.06003-.16623-.08976-.28052-.08976-.09148 0-.1668.02222-.22626.06696-.03319.02482-.0684.0658-.10563.12265v-.16133h-.27907V32.74h.2883v-.59856c0-.0684.00924-.12438.02829-.16854.03665-.08312.1039-.12468.20202-.12468.07965 0 .13391.02829.1622.08514.01558.03117.02337.0759.02337.13391V32.74h.2964v-.74459c0-.13882-.03637-.2381-.1091-.29783zm-.3873-.09293zM32.71969 32.74v-1.49553h-.31054V32.74zm-.15527-1.52496zm1.03752.39307c-.00376-.00029-.00837-.00029-.01386-.00029-.08658 0-.157.02251-.21096.06782-.0332.02713-.07215.07764-.1166.15123v-.19279h-.27619V32.74h.2912v-.52843c0-.08889.01126-.1544.03348-.19711.04011-.07562.11804-.11342.23463-.11342a.88368.88368 0 0 1 .03434.00086.9736.9736 0 0 1 .04878.00404v-.2961c-.013-.00086-.02107-.00115-.02482-.00173zm.47474.29783c.03694-.04184.0889-.06291.15585-.06291.06147 0 .11313.01991.15469.05945.04156.03954.06464.09755.06955.17403h-.44964c.00952-.07186.03261-.12843.06955-.17057zm.40433-.24963c-.0736-.03435-.1567-.05166-.24848-.05166-.15498 0-.2811.05108-.37807.15324-.09697.10217-.14545.24906-.14545.4404 0 .20434.05368.35181.16132.44243.10736.09062.23146.13593.3723.13593.17027 0 .30303-.05397.39769-.16133.0609-.06782.09495-.13448.10245-.2h-.29524c-.01558.03262-.03347.05801-.05367.0762-.03723.03376-.08572.05079-.14517.05079-.05628 0-.10419-.01386-.14401-.04185-.0658-.04444-.10043-.12237-.10448-.23319h.75671c.00145-.09552-.00173-.16854-.00894-.21933-.01299-.08658-.04098-.16249-.08427-.22829-.0482-.07417-.1091-.12871-.18269-.16334zm-.22828-.05166zm.99423 1.13535v-1.49553h-.28918V32.74zm.89206-.53766v.10764c-.0023.09669-.02944.16335-.08167.19972-.05253.03665-.10996.05483-.17201.05483-.03925 0-.07273-.01097-.10014-.0329-.02742-.02193-.04099-.05772-.04099-.10707 0-.05541.02223-.0964.06696-.12294.02626-.01559.07013-.02858.13074-.03954l.06493-.01212c.03261-.00606.058-.0127.07677-.01963a.33303.33303 0 0 0 .0554-.028zm-.17576-.13507l-.09841.01212c-.1114.01443-.19596.0381-.25368.07129-.10476.0609-.15729.1593-.15729.29524 0 .10476.0329.18585.09813.243.06522.05714.14776.08571.2479.08571.0785 0 .14892-.0179.21126-.05397a.59733.59733 0 0 0 .13795-.11053c.00202.0251.00462.04733.00808.06695.00346.01963.00952.0407.01818.06292h.31458v-.04271c-.01905-.00866-.0332-.01992-.04272-.03348-.00952-.01328-.015-.03896-.01702-.07706-.00145-.04993-.00231-.09264-.00231-.12785v-.50707c0-.13333-.04676-.22395-.14084-.27215-.09408-.0479-.20173-.07186-.32265-.07186-.18615 0-.31718.04849-.39365.14603-.0482.06234-.07504.1417-.0811.23839h.27879c.00692-.04272.02049-.07648.04069-.1013.02828-.03406.07677-.0508.14517-.0508.06089 0 .10707.00866.13852.02569.03146.01732.04705.04877.04705.09408 0 .03723-.0205.06436-.06177.08197-.02308.01038-.06147.01875-.11486.0254zm.0153-.46262zm1.59942.09293c-.07273-.06003-.16623-.08976-.28052-.08976-.0912 0-.16652.02222-.22626.06696-.0329.02482-.06811.0658-.10534.12265v-.16133h-.27908V32.74h.28802v-.59856c0-.0684.00953-.12438.02858-.16854.03636-.08312.1039-.12468.20173-.12468.07994 0 .1342.02829.16248.08514.01558.03117.02338.0759.02338.13391V32.74h.2961v-.74459c0-.13882-.03636-.2381-.1091-.29783zm-.38701-.09293zm1.34949.04733c-.05195-.02944-.11169-.04416-.17864-.04416-.14546 0-.26148.05397-.34834.1622-.08716.10822-.13045.25685-.13045.4456 0 .16363.04415.29754.13247.4023.0883.10447.19682.15671.32611.15671.0785 0 .14402-.015.19683-.04473.05281-.02973.09986-.07735.14113-.14315V32.74h.2808v-1.4935h-.29321v.52755c-.03233-.05194-.07475-.09264-.1267-.12207zm.071.78787c-.04272.06061-.10477.0912-.18673.0912-.08167 0-.14286-.03059-.18297-.09177-.0404-.06119-.0606-.14286-.0606-.24502 0-.09466.0199-.17403.05944-.2381.03954-.06378.1016-.09581.18615-.09581.05541 0 .10419.0176.14632.0528.06811.05802.10245.15499.10245.29005 0 .09697-.02135.17576-.06406.23665zm1.25714-.8352c-.08803.20288-.1319.40317-.1319.60057 0 .17114.03377.34142.1013.51054.05773.14545.14113.29321.2508.44329h.17143l-.06176-.11371c-.08543-.15671-.1446-.32093-.17778-.49207-.02165-.1114-.03232-.23347-.03232-.36623 0-.20548.02799-.39163.08427-.55786.03376-.09957.09754-.23521.19163-.40693l-.16652-.00202-.07187.09928c-.05627.07792-.1085.17287-.15728.28514zm.87359.67388h-.29841c0 .15555.05599.27763.16738.36652.1117.08918.26494.13362.45974.13362.19077 0 .33824-.0453.443-.13564.10448-.09004.15672-.20375.15672-.34026 0-.13333-.04474-.23521-.13391-.30534-.05772-.04531-.14286-.08167-.2557-.10851l-.25772-.06205c-.09957-.02367-.1645-.04416-.1948-.06176-.04734-.02655-.071-.06638-.071-.11977 0-.0583.02395-.1036.07186-.13593.0482-.03261.11226-.04878.19278-.04878.07244 0 .13305.01241.18182.03752.07302.0378.11226.10188.11746.19163h.30043c-.00548-.15873-.06378-.27994-.17489-.36363-.1114-.0834-.24589-.12526-.40346-.12526-.18875 0-.3319.04416-.42915.13276-.09755.08889-.14603.2-.14603.33391 0 .1469.05021.25483.15122.32381.05946.04127.16682.07937.32237.11457l.15844.0355c.09264.0202.16075.04358.20404.07013.0433.02684.06494.06523.06494.11458 0 .08456-.04387.14228-.13103.17344-.04588.01617-.10591.02425-.1795.02425-.12324 0-.2101-.0306-.2609-.09235-.0277-.03377-.04618-.08485-.0557-.15296zm.30332-1.07966zm.71948.65137h.15411v.68081c0 .06898.01616.12006.04877.15325.04993.05195.14344.07561.27995.071l.13708-.0052v-.21616a.4837.4837 0 0 1-.02886.00173c-.00981.00029-.01934.00058-.028.00058-.05887 0-.09408-.00578-.10562-.01703-.01155-.01097-.01732-.03925-.01732-.08456v-.58442h.1798v-.20606h-.1798v-.30822h-.286v.30822h-.15411zm1.49639.59568c-.04531.06002-.11025.09033-.1948.09033-.08457 0-.1495-.0303-.19539-.09033-.0456-.06032-.0684-.14575-.0684-.25686 0-.11082.0228-.19625.0684-.25628.04589-.05974.11082-.08975.19538-.08975s.1495.03001.1948.08975c.04532.06003.06812.14546.06812.25628 0 .11111-.0228.19654-.06811.25686zm.23146.1596c.09321-.11516.13997-.25398.13997-.41646 0-.1596-.04676-.29783-.13997-.415-.09351-.11689-.23521-.17547-.42511-.17547-.19019 0-.3319.05858-.42511.17546-.0935.11718-.13997.25542-.13997.41501 0 .16248.04646.3013.13997.41645.09322.11544.23492.17316.4251.17316.1899 0 .33161-.05772.42512-.17316zm-.42511-1.00087zm1.47561.35613c.03896.06551.0583.14112.0583.22626 0 .1036-.02107.18644-.0632.24849-.04243.06233-.1039.0935-.18413.0935-.0557 0-.10361-.0153-.1443-.0456-.06811-.05223-.10246-.14257-.10246-.271 0-.08109.0101-.14804.0306-.20086.03925-.09956.1111-.1492.21616-.1492.08715 0 .15007.0329.18903.0984zm.22222-.20808c-.08946-.09524-.19913-.14286-.32814-.14286-.0886 0-.16508.02453-.22943.07388-.03521.0277-.06811.0658-.09928.11371v-.16335h-.27706v1.54113h.286v-.57634c.0306.04676.06177.08225.09351.10679.05801.04386.13131.0658.21905.0658.13795 0 .2508-.05109.33853-.15325.08744-.10217.13131-.2505.13131-.44531 0-.1847-.04473-.32468-.13449-.4202zm.51198-.3518c-.13997.14112-.2101.34256-.2101.60346 0 .24156.06147.43174.1847.57027.12295.13795.29206.20693.50736.20693.17374 0 .3163-.05109.4277-.15325.11112-.10188.18038-.23463.20722-.3977h-.30938c-.02078.07707-.04733.13507-.07908.17346-.05743.07186-.14112.10765-.2505.10765-.10707 0-.1951-.04185-.26436-.12526-.06926-.0837-.10418-.20923-.10418-.3769 0-.16768.0329-.29755.09841-.38904.0658-.09178.15527-.13766.26898-.13766.11168 0 .19595.0326.25252.09754.03204.03637.058.09062.07821.1622h.31255c-.00461-.09322-.03924-.18615-.1036-.27908-.1163-.16479-.30015-.24733-.5518-.24733-.18817 0-.34286.06147-.46465.1847zm.4554-.20203zm1.85628 1.18096c-.07272.09148-.17085.13708-.29466.13708-.1238 0-.2225-.0456-.29639-.13708-.0736-.0912-.11053-.22107-.11053-.38961 0-.16826.03694-.29813.11053-.38961.07388-.0912.17258-.13709.2964-.13709.1238 0 .22193.04589.29465.13766.07273.09149.1091.22136.1091.38904 0 .16854-.03637.2984-.1091.3896zm.19539.22741c.15093-.14285.22626-.34834.22626-.61702 0-.27389-.07533-.47966-.22626-.61674-.11313-.1166-.27648-.1746-.49005-.1746-.21385 0-.3772.058-.49004.1746-.15151.13708-.22742.34285-.22742.61674 0 .26868.0759.47417.22742.61702.11284.1163.2762.17432.49004.17432.21357 0 .37692-.05801.49005-.17432zm-.49005-1.40837zm1.8303.0456l-.32784 1.13536-.32468-1.13536h-.33362l.50534 1.49553h.29524l.51024-1.49553zM49.9214 32.74v-1.49553h-.31053V32.74zm-.15527-1.52496zm.74979.28917h.28802c.14228 0 .23694.0407.28456.12237.0479.08138.07157.19827.07157.35036 0 .11025-.01587.20548-.04762.28514-.058.14545-.16104.21818-.30851.21818h-.28802zm.5723-.22712c-.06177-.0205-.13883-.03117-.23147-.03262h-.64415V32.74h.64415c.22598 0 .39308-.09293.5013-.27908.07966-.13795.11977-.3062.11977-.50505 0-.0785-.00952-.16104-.02857-.24762-.01876-.08658-.05426-.1671-.1065-.24155-.06493-.09207-.14978-.15527-.25454-.18961zm1.1971-.03262V32.74h.2912v-1.06234L53.1875 32.74h.31226v-1.49553h-.2912v1.04416l-.59538-1.04416zm.61905-.00288zm1.17287 1.4984v-1.49552h-.31053V32.74zm-.15527-1.52495zm.7671.40692c-.05339-.12438-.1316-.2583-.23434-.40173h-.21818l.06176.11342c.08514.15642.14459.32006.17749.4912.02164.11226.0326.23463.0326.36739 0 .20692-.03.3974-.09032.57114-.03521.10274-.09726.23463-.18673.39567h.21414l.07215-.09842c.04647-.05945.0964-.14805.14892-.2658.09409-.21039.14113-.41731.14113-.62106 0-.18529-.03954-.36912-.11862-.5518z"/></svg>