<svg xmlns="http://www.w3.org/2000/svg" role="img" xmlns:xlink="http://www.w3.org/1999/xlink" viewBox="-0.72 -0.72 37.38 27.50"><title>United States - Maryland (MD COVID Alert) logo</title><defs><path id="a" d="M0 215a32 32 0 0 0 32-32v-16h31a32 32 0 0 0 0-64H32V32h199v31a32 32 0 0 0 64 0V32h28a32 32 0 0 0 32-32H0z" transform="scale(.024)"/></defs><path d="M0 0h36v24H0z"/><path fill="#eaaa00" d="M0 24V2l3 2v20h3V0h3v24h3V0h3v24h3V0h3v24h3V0h3v24h3V0h3v24h3v-2L3 0v4l30 20z"/><g id="b"><path fill="#fff" d="M18 0h9v12h9V6H18z"/><path fill="#9d2235" d="M27 0h9v6H18v6h9z"/><g transform="translate(27 6)"><use fill="#9d2235" xlink:href="#a"/><use fill="#fff" transform="scale(-1 1)" xlink:href="#a"/><use fill="#fff" transform="scale(1 -1)" xlink:href="#a"/><use fill="#9d2235" transform="scale(-1)" xlink:href="#a"/></g></g><use x="-18" y="12" xlink:href="#b"/><path d="M3.13089 24.73457v.65611c0 .1135.01771.20188.05294.26512.06613.11578.19179.17387.37657.17387.18499 0 .31023-.0581.37595-.17387.03522-.06324.05273-.15161.05273-.26512v-.6561h-.2266v.6561c0 .07354-.00865.1271-.02595.16089-.0272.05974-.0859.08981-.17613.08981-.09064 0-.14956-.03007-.17675-.08981-.0173-.03379-.02596-.08735-.02596-.16089v-.6561zm.4295 0zm1.26279.32342c-.05191-.04285-.11866-.06406-.20023-.06406-.0653 0-.11907.01586-.1615.04779-.0237.01771-.04883.04697-.0754.08755v-.11516h-.1992v.78795h.20579v-.42724c0-.04882.00659-.08879.02019-.1203.02616-.05933.07416-.089.1442-.089.05685 0 .09558.0202.11577.06077.01112.02225.01668.05418.01668.09559v.48018h.21157v-.53148c0-.09908-.02596-.16995-.07787-.21259zm-.27645-.06633zm.75684-.07313v-.19055h-.2093v.19055zm-.2093.09414v.7894h.2093v-.7894zm.32816.1543h.11v.48595c0 .04923.01175.0857.03482.10939.03564.03708.10238.05397.19982.05067l.09785-.0037v-.1543a.3352.3352 0 0 1-.0206.00124c-.007.0002-.0136.0004-.01998.0004-.04203 0-.06716-.00411-.0754-.01215-.00803-.00782-.01215-.02801-.01215-.06035v-.41715h.12813v-.14709h-.12813v-.22h-.20435v.22h-.11zm.77518.03975c.02637-.02987.06345-.0449.11124-.0449.04388 0 .08075.01421.11042.04243.02966.02822.04635.06963.04964.12422h-.32074c.0066-.0513.02328-.09167.04944-.12175zm.2886-.17819c-.05252-.02451-.11165-.03687-.17736-.03687-.11062 0-.20044.03646-.26986.10939-.06922.07292-.10382.17777-.10382.31435 0 .14585.03831.25112.11515.3158.07684.06468.16542.09703.26574.09703.12175 0 .2163-.03853.28387-.11516.04346-.0484.06798-.096.07313-.14276h-.21074c-.01112.02328-.0239.04141-.03832.05439-.02657.0241-.06097.03625-.10361.03625-.03997 0-.07437-.00988-.1028-.02987-.04676-.03172-.07169-.08734-.07457-.16644h.54034c.00082-.06819-.00124-.1203-.0066-.15656-.00926-.0618-.02925-.11598-.06015-.16295-.0342-.05294-.07766-.09188-.1304-.1166zm-.16294-.03687zm.91773.03378c-.03729-.021-.07972-.03151-.12751-.03151-.10383 0-.18685.03852-.24885.11577s-.09311.18334-.09311.31806c0 .1168.03151.21239.09455.28717.06304.07457.1407.11185.23299.11185.05582 0 .10279-.0107.14049-.03193.03749-.02121.07107-.0552.10053-.10217v.10938h.20064v-1.06605h-.2093v.37657c-.02307-.03708-.05335-.06612-.09043-.08714zm.05068.56238c-.0305.04326-.07499.0651-.13329.0651-.0585 0-.10197-.02184-.1308-.0655-.02864-.04368-.04306-.10198-.04306-.1749 0-.06757.01421-.12422.04244-.16995.02822-.04553.0725-.0684.13287-.0684.03955 0 .07436.01257.10423.0377.04882.04141.07313.11063.07313.20703 0 .06922-.01524.12546-.04552.16892zm1.0269-.11515h-.213c0 .11103.03997.19817.11948.26162.07972.06365.18911.09538.32816.09538.13617 0 .24143-.03234.316-.09682.07478-.06427.11207-.14544.11207-.24288 0-.09517-.03193-.16789-.09559-.21794-.0412-.03235-.10197-.0583-.18251-.07746l-.18396-.04429c-.07107-.0169-.11742-.03152-.13905-.04408-.03378-.01896-.05068-.04738-.05068-.0855 0-.0416.0171-.07395.0513-.09702.0344-.02328.08013-.03481.1376-.03481.05171 0 .09497.00885.12958.02678.05232.02698.08034.07271.08405.13678h.21444c-.00391-.1133-.04552-.19982-.12504-.25956-.0793-.05953-.1753-.0894-.28778-.0894-.13472 0-.2369.03151-.30632.09476-.06963.06344-.10424.14275-.10424.23834 0 .10485.03585.1819.10774.23113.04264.02946.11927.05665.2303.08178l.1131.02534c.06613.01442.11474.0311.14564.05006.0309.01916.04635.04655.04635.08178 0 .06036-.0313.10156-.09352.1238-.03275.01154-.0756.01731-.12813.01731-.08796 0-.14997-.02184-.18623-.06592-.01977-.0241-.03296-.06056-.03975-.10918zm.21651-.77065zm.51356.46495h.11v.48595c0 .04923.01154.0857.03482.10939.03564.03708.10238.05397.19982.05067l.09785-.0037v-.1543a.342.342 0 0 1-.0208.00124c-.00701.0002-.0136.0004-.01978.0004-.04203 0-.06716-.00411-.0754-.01215-.00824-.00782-.01236-.02801-.01236-.06035v-.41715h.12834v-.14709H9.3628v-.22h-.20415v.22h-.11zm1.01022.25132v.07683c-.00144.06901-.0208.1166-.0583.14256-.03749.02616-.07827.03914-.12277.03914-.02802 0-.0517-.00783-.07128-.02349-.01957-.01565-.02945-.0412-.02945-.07642 0-.03956.01606-.0688.04779-.08776.01895-.01112.05006-.0204.09352-.02822l.04635-.00865c.02307-.00433.0414-.00907.0546-.01401a.22283.22283 0 0 0 .03954-.01998zm-.12524-.09641l-.07025.00865c-.07972.0103-.14008.0272-.18107.05088-.07478.04347-.11227.11371-.11227.21074 0 .07478.02327.13266.06983.17345.04656.04079.10568.06118.17716.06118.05603 0 .10609-.01277.15059-.03852.03708-.02163.07004-.048.09846-.0789.00145.01793.0033.03379.00577.0478.00247.014.0068.02904.01298.0449h.22454v-.03048c-.01339-.00618-.02369-.01422-.03028-.0239-.0068-.00948-.01092-.02781-.01236-.055a3.19035 3.19035 0 0 1-.00144-.09126v-.36194c0-.09517-.03358-.15986-.10074-.19426-.06715-.0342-.14379-.0513-.2303-.0513-.13267 0-.2264.03461-.28099.10424-.0342.0445-.05356.10115-.05789.17016h.1992c.00474-.03049.01443-.0546.02885-.0723.02039-.02432.0548-.03626.10361-.03626.04347 0 .07643.00618.09888.01833.02246.01236.03358.03481.03358.06716 0 .02657-.01462.04593-.04408.0585-.01648.00742-.04367.01339-.08178.01813zm.0107-.33022zm.42313.1753h.11v.48596c0 .04923.01154.0857.03482.10939.03564.03708.10238.05397.19982.05067l.09785-.0037v-.1543a.342.342 0 0 1-.0208.00124c-.00701.0002-.0136.0004-.01978.0004-.04203 0-.06716-.00411-.0754-.01215-.00824-.00782-.01236-.02801-.01236-.06035v-.41715h.12834v-.14709h-.12834v-.22h-.20414v.22h-.11zm.77518.03976c.02637-.02987.06345-.0449.11124-.0449.04388 0 .08075.01421.11042.04243.02966.02822.04614.06963.04964.12422H11.093c.0068-.0513.02328-.09167.04965-.12175zm.2886-.17819c-.05252-.02451-.11185-.03687-.17736-.03687-.11062 0-.20064.03646-.26986.10939-.06922.07292-.10382.17777-.10382.31435 0 .14585.03831.25112.11515.3158.07663.06468.16521.09703.26574.09703.12154 0 .2163-.03853.28387-.11516.04346-.0484.06777-.096.07313-.14276h-.21074c-.01112.02328-.0239.04141-.03832.05439-.02657.0241-.06118.03625-.10361.03625-.04017 0-.07437-.00988-.1028-.02987-.04697-.03172-.07169-.08734-.07457-.16644h.54013c.00103-.06819-.00123-.1203-.00638-.15656-.00927-.0618-.02926-.11598-.06016-.16295-.0344-.05294-.07786-.09188-.1304-.1166zm-.16294-.03687zm.65982.55847h-.2093c0 .08095.02946.1477.08858.20023.05912.05232.1508.07848.27501.07848.12154 0 .21156-.02472.26966-.07416.0583-.04944.08734-.1133.08734-.19158 0-.05932-.0204-.10897-.06098-.14852-.04099-.03914-.10258-.06819-.18457-.08755-.12319-.02699-.19488-.04615-.21507-.05727-.02039-.0105-.03048-.02781-.03048-.0513 0-.01895.00947-.03543.02863-.04943.01916-.0138.05109-.02081.096-.02081.05459 0 .0931.0138.11577.04182.01215.01545.01957.03646.02245.06303h.20641c-.00906-.0964-.0447-.16438-.1067-.20373-.06201-.03935-.14235-.05912-.24082-.05912-.10382 0-.18437.02616-.24164.07869-.05706.05232-.0857.11495-.0857.18787 0 .0618.01834.10918.05501.14194.03667.03337.0997.06097.1891.08322.12402.02946.1957.05026.21507.06242.01916.01195.02884.02966.02884.05273 0 .0241-.01195.04223-.03584.05439-.0239.01195-.05603.01813-.09662.01813-.069 0-.11639-.0138-.14193-.04141-.01442-.01545-.0239-.0414-.02822-.07807zm.1578-.55847zm.85613.29911v.1955h.4157v-.1955zm1.6925-.5562l-.19282.83945-.19405-.83945h-.32445v1.0675h.20785v-.72204c0-.0208-.0002-.04985-.00062-.08734a5.34228 5.34228 0 0 1-.00082-.08652l.20064.8959h.21651l.20209-.8959a8.4506 8.4506 0 0 1-.00062.08652 5.40863 5.40863 0 0 0-.00083.08734v.72203h.20786v-1.06749zm.94657.68372v.07683c-.00145.06901-.02102.1166-.0583.14256-.0375.02616-.07849.03914-.12278.03914-.02801 0-.05191-.00783-.07148-.02349-.01957-.01565-.02925-.0412-.02925-.07642 0-.03956.01586-.0688.04779-.08776.01875-.01112.05006-.0204.09352-.02822l.04635-.00865c.02308-.00433.0412-.00907.0546-.01401a.23771.23771 0 0 0 .03955-.01998zm-.12546-.09641l-.07024.00865c-.07952.0103-.13988.0272-.18108.05088-.07478.04347-.11206.11371-.11206.21074 0 .07478.02328.13266.06983.17345.04656.04079.10547.06118.17696.06118.05603 0 .1063-.01277.15079-.03852a.42637.42637 0 0 0 .09847-.0789c.00144.01793.0033.03379.00576.0478.00248.014.0068.02904.01298.0449h.22454v-.03048c-.0136-.00618-.02369-.01422-.03049-.0239-.0068-.00948-.0107-.02781-.01215-.055a3.19035 3.19035 0 0 1-.00144-.09126v-.36194c0-.09517-.03358-.15986-.10074-.19426-.06715-.0342-.14399-.0513-.2303-.0513-.13287 0-.2264.03461-.28099.10424-.0344.0445-.05356.10115-.05788.17016h.199c.00494-.03049.01462-.0546.02904-.0723.02019-.02432.0548-.03626.10362-.03626.04346 0 .07642.00618.09888.01833.02245.01236.03357.03481.03357.06716 0 .02657-.01462.04593-.04408.0585-.01648.00742-.04367.01339-.08199.01813zm.01092-.33022zm.94266.00247c-.00268-.0002-.00598-.0002-.0099-.0002-.0618 0-.11206.01606-.15058.0484-.02369.01937-.0515.05542-.08322.10795v-.1376h-.19714v.78938h.20785v-.37718c0-.06345.00803-.11021.0239-.1407.02863-.05397.08425-.08096.16747-.08096a.63076.63076 0 0 1 .02452.00062.69495.69495 0 0 1 .03481.00288v-.21135c-.00927-.00062-.01504-.00083-.01771-.00124zm.17056.95934v.16501c.02205.00165.03873.00247.04986.00268a2.3592 2.3592 0 0 0 .04429.00041c.09125 0 .15202-.01813.18251-.05397.03028-.03605.07169-.12896.1238-.27851l.2709-.77642h-.2196l-.16294.58236-.17222-.58236h-.22969l.28964.8242c.00206.00578-.00227.02164-.01257.0478-.0105.02596-.02163.04326-.03378.0515-.01257.00865-.02802.01421-.04635.01648a.31296.31296 0 0 1-.05789.00227zm.27955-.96181zm.72409.8104v-1.06749h-.20642v1.0675zm.63654-.38377v.07683c-.00145.06901-.02081.1166-.0583.14256-.03729.02616-.07828.03914-.12257.03914-.02802 0-.05191-.00783-.07148-.02349-.01957-.01565-.02926-.0412-.02926-.07642 0-.03956.01587-.0688.0478-.08776.01874-.01112.05005-.0204.09331-.02822l.04635-.00865c.02328-.00433.04141-.00907.0548-.01401a.22833.22833 0 0 0 .03935-.01998zm-.12525-.09641l-.07025.00865c-.07951.0103-.13987.0272-.18107.05088-.07478.04347-.11227.11371-.11227.21074 0 .07478.02348.13266.07004.17345.04655.04079.10547.06118.17695.06118.05603 0 .1063-.01277.1508-.03852a.42637.42637 0 0 0 .09846-.0789c.00144.01793.0033.03379.00577.0478.00227.014.0068.02904.01298.0449h.22454v-.03048c-.0136-.00618-.0237-.01422-.03049-.0239-.0068-.00948-.01071-.02781-.01236-.055-.00082-.03564-.00144-.06613-.00144-.09126v-.36194c0-.09517-.03337-.15986-.10053-.19426-.06716-.0342-.144-.0513-.2303-.0513-.13288 0-.2264.03461-.281.10424-.0344.0445-.05355.10115-.05808.17016h.1992c.00494-.03049.01462-.0546.02904-.0723.0202-.02432.0548-.03626.10362-.03626.04347 0 .07643.00618.09888.01833.02246.01236.03358.03481.03358.06716 0 .02657-.01463.04593-.04408.0585-.01648.00742-.04388.01339-.082.01813zm.01092-.33022zm1.14165.06633c-.05191-.04285-.11866-.06406-.20023-.06406-.0651 0-.11887.01586-.1615.04779-.0237.01771-.04862.04697-.0752.08755v-.11516h-.1992v.78795h.20559v-.42724c0-.04882.0068-.08879.0204-.1203.02595-.05933.07415-.089.14399-.089.05706 0 .09558.0202.11597.06077.01113.02225.01669.05418.01669.09559v.48018h.21136v-.53148c0-.09908-.02596-.16995-.07787-.21259zm-.27625-.06633zm.96326.03378c-.03708-.021-.07972-.03151-.12752-.03151-.10382 0-.18663.03852-.24864.11577-.06221.07725-.09311.18334-.09311.31806 0 .1168.03152.21239.09455.28717.06283.07457.1405.11185.23278.11185.05604 0 .1028-.0107.1405-.03193.0377-.02121.07127-.0552.10073-.10217v.10938h.20044v-1.06605h-.2093v.37657c-.02307-.03708-.05335-.06612-.09043-.08714zm.05067.56238c-.03048.04326-.07477.0651-.13328.0651-.0583 0-.10197-.02184-.1306-.0655-.02884-.04368-.04326-.10198-.04326-.1749 0-.06757.01421-.12422.04243-.16995.02823-.04553.07252-.0684.13287-.0684.03956 0 .07437.01257.10424.0377.04882.04141.07334.11063.07334.20703 0 .06922-.01525.12546-.04574.16892zm.89734-.59616c-.06283.14482-.09414.28778-.09414.42869 0 .12215.0241.2437.0723.36441.0412.10382.10074.2093.17902.31642h.12236l-.04408-.08117c-.06098-.11186-.1032-.22907-.1269-.35123-.01545-.07951-.02307-.16665-.02307-.26141 0-.14667.01998-.27954.06015-.3982.0241-.07107.06963-.16789.13679-.29046l-.11887-.00144-.05129.07086c-.04017.05562-.07746.1234-.11227.20353zm1.16967-.25709l-.19261.83945-.19426-.83945h-.32445v1.0675h.20785v-.72204c0-.0208-.0002-.04985-.00061-.08734a5.34228 5.34228 0 0 1-.00083-.08652l.20065.8959h.2165l.20209-.8959c0 .0204-.0002.04923-.00062.08652a5.40863 5.40863 0 0 0-.00082.08734v.72203h.20785v-1.06749zm.74448.1854h.20559c.10135 0 .16913.02905.20312.08735.0342.05809.05108.14152.05108.25008 0 .0787-.01133.14667-.03399.20353-.0416.10382-.11494.15573-.22021.15573h-.20559zm.4085-.16212c-.04408-.01463-.09909-.02225-.16521-.02328h-.4598v1.0675h.4598c.1613 0 .28057-.06634.35782-.1992.05686-.09848.08549-.21857.08549-.3605 0-.05604-.0068-.11496-.0204-.17676-.01359-.0618-.03893-.11927-.076-.17242-.04636-.06571-.10692-.11083-.1817-.13534zm.9616.08837c-.0999.10074-.14975.24453-.14975.43075 0 .17242.04387.30818.13163.40706.08796.09846.20868.1477.36215.1477.12422 0 .22577-.03646.30529-.10939.07952-.07272.12875-.16748.14811-.28387h-.22083c-.01504.055-.03378.09641-.05644.12381-.0412.0513-.10074.07684-.17902.07684-.07622 0-.13905-.02987-.1887-.0894-.04943-.05975-.07415-.14936-.07415-.26904 0-.11969.02348-.21239.07024-.27769.04677-.0655.11083-.09826.192-.09826.07951 0 .13966.02328.18025.06963.02266.02595.0412.06468.05582.11577h.2231c-.0035-.06654-.02802-.13287-.07395-.1992-.08302-.11763-.21445-.17655-.39408-.17655-.1341 0-.24473.04388-.33166.13184zm.32528-.1442zm1.325.84296c-.05192.0653-.12216.09785-.21054.09785-.08837 0-.15882-.03255-.21135-.09785-.05274-.0651-.0789-.1578-.0789-.2781 0-.1201.02616-.2128.0789-.2781.05253-.0651.12298-.09785.21135-.09785.08838 0 .15862.03275.21053.09826.05192.0653.07787.158.07787.27769 0 .1203-.02595.213-.07787.2781zm.13925.16232c.10774-.10197.1615-.24864.1615-.44042 0-.1955-.05376-.34238-.1615-.44023-.08055-.08322-.19714-.12463-.34979-.12463-.15244 0-.26903.04141-.34979.12463-.10815.09785-.16212.24473-.16212.44023 0 .19178.05397.33845.16212.44042.08076.08302.19735.12443.3498.12443.15264 0 .26923-.0414.34978-.12443zm-.34979-1.00528zm1.30666.03255l-.23402.8104-.23175-.8104h-.23834l.3607 1.0675h.21075l.36441-1.0675zm.56835 1.0675v-1.0675h-.22145v1.0675zm-.11082-1.08851zm.53518.20641h.2058c.10135 0 .16912.02905.20311.08735.034.05809.0511.14152.0511.25008 0 .0787-.01134.14667-.034.20353-.04161.10382-.11495.15573-.22021.15573h-.2058zm.4085-.16212c-.04388-.01463-.09888-.02225-.165-.02328h-.46v1.0675h.46c.1613 0 .28036-.06634.35761-.1992.05706-.09848.0855-.21857.0855-.3605 0-.05604-.0068-.11496-.0202-.17676-.0136-.0618-.03893-.11927-.07601-.17242-.04635-.06571-.10691-.11083-.1819-.13534zm1.1501.64087l.1376-.42004.13329.42004zm.0138-.66415l-.3809 1.0675h.2332l.07375-.2194h.39325l.0688.2194h.24185l-.37801-1.0675zm.12463 0zm.83492 1.0675v-1.0675h-.20641v1.0675zm.4015-.59535c.02636-.02987.06344-.0449.11123-.0449.04388 0 .08076.01421.11042.04243.02966.02822.04635.06963.04965.12422h-.32075c.0066-.0513.02328-.09167.04944-.12175zm.2886-.17819c-.05253-.02451-.11165-.03687-.17737-.03687-.11062 0-.20043.03646-.26965.10939-.06942.07292-.10403.17777-.10403.31435 0 .14585.03832.25112.11515.3158.07684.06468.16542.09703.26574.09703.12175 0 .2163-.03853.28387-.11516.04347-.0484.06798-.096.07334-.14276h-.21095c-.01091.02328-.0239.04141-.03831.05439-.02658.0241-.06098.03625-.10362.03625-.03996 0-.07437-.00988-.1028-.02987-.04676-.03172-.07168-.08734-.07457-.16644h.54034c.00083-.06819-.00123-.1203-.00659-.15656-.00906-.0618-.02925-.11598-.06015-.16295-.0342-.05294-.07766-.09188-.1304-.1166zm-.16295-.03687zm.93751.00247c-.00247-.0002-.00577-.0002-.00968-.0002-.0618 0-.11207.01606-.15059.0484-.02369.01937-.0515.05542-.08343.10795v-.1376h-.19693v.78938h.20785v-.37718c0-.06345.00803-.11021.0239-.1407.02842-.05397.08425-.08096.16727-.08096a.63048.63048 0 0 1 .02472.00062.7154.7154 0 0 1 .03481.00288v-.21135c-.00927-.00062-.01524-.00083-.01792-.00124zm.05768.17284h.11v.48595c0 .04923.01175.0857.03482.10939.03564.03708.10238.05397.19982.05067l.09785-.0037v-.1543a.3352.3352 0 0 1-.0206.00124c-.007.0002-.0136.0004-.01998.0004-.04203 0-.06716-.00411-.0754-.01215-.00803-.00782-.01215-.02801-.01215-.06035v-.41715h.12813v-.14709h-.12813v-.22h-.20436v.22h-.11zm.8205-.16295c-.03811-.08879-.09394-.18437-.16727-.28675h-.15574l.04429.08096c.06077.11165.103.22845.12669.3506.01545.08014.02307.16749.02307.26225 0 .1477-.02142.28366-.06448.40767-.02492.07334-.06942.16748-.13307.28243h.15264l.0515-.07025c.03338-.04244.0688-.10568.1065-.18973.06716-.15017.10053-.29787.10053-.4433 0-.13226-.02822-.26348-.08466-.39388z"/></svg>