<svg xmlns="http://www.w3.org/2000/svg" role="img" xmlns:xlink="http://www.w3.org/1999/xlink" viewBox="-15.99 -15.99 831.48 476.98"><title>United States - District of Columbia (DC CAN) logo</title><path fill="#fff" d="M0 0h800v400H0z"/><path fill="#e81b39" d="M200 20l-8.98047 27.63867h-29.0625l23.51172 17.08203-8.98047 27.64063L200 75.2793l23.51172 17.08203-8.98047-27.64063 23.51172-17.08203h-29.0625L200 20z"/><path id="a" fill="#e81b39" d="M0 120h800v80H0z"/><use y="120" xlink:href="#a"/><path fill="#e81b39" d="M399.99997 20.00067l-8.98047 27.63867H361.957l23.51172 17.08203-8.98047 27.64063 23.51172-17.08203L423.51169 92.362l-8.98047-27.64063 23.51172-17.08203h-29.0625zm199.99923.00028l-8.98047 27.63867h-29.0625l23.51172 17.08203-8.98047 27.64062 23.51172-17.08203 23.51172 17.08203-8.98047-27.64062 23.51172-17.08203h-29.0625z"/><path d="M69.50059 417.03748v13.61524c0 2.35541.36763 4.1893 1.09862 5.50166 1.37221 2.40244 3.97984 3.60793 7.81434 3.60793 3.83877 0 6.43785-1.20549 7.8015-3.60793.731-1.31236 1.09436-3.14625 1.09436-5.50166v-13.61524h-4.70228v13.61524c0 1.5261-.17954 2.63755-.53863 3.33861-.56427 1.2397-1.78259 1.86382-3.65495 1.86382-1.88091 0-3.1035-.62412-3.66778-1.86382-.35908-.70106-.53862-1.81251-.53862-3.33861v-13.61524zm8.91296 0zm26.20452 6.71143c-1.07725-.88915-2.46228-1.32946-4.1551-1.32946-1.35511 0-2.47084.32916-3.35145.99175-.4916.36764-1.01312.97466-1.56457 1.8168v-2.38962h-4.13373v16.35111h4.27052v-8.86593c0-1.01313.1368-1.84244.41893-2.49649.5429-1.23114 1.53893-1.84671 2.99236-1.84671 1.17985 0 1.9835.41893 2.40244 1.26107.23084.46167.34626 1.12427.34626 1.9835v9.96456h4.39022v-11.02898c0-2.05618-.53863-3.52671-1.61588-4.4116zm-5.73678-1.37648zm15.70562-1.51756v-3.95419h-4.3432v3.9542zm-4.3432 1.95359v16.38103h4.3432v-16.38103zm6.80976 3.20182h2.28274v10.08426c0 1.02167.24366 1.77831.72244 2.26991.73954.76947 2.12458 1.12 4.14656 1.0516l2.03053-.07694v-3.20183a6.95589 6.95589 0 0 1-.42748.02565c-.14535.00428-.28214.00855-.41466.00855-.87206 0-1.39358-.0855-1.56458-.25221-.16671-.16244-.25221-.58137-.25221-1.25252v-8.65647h2.65893v-3.0522h-2.65893v-4.5655h-4.2406v4.5655h-2.28274zm16.08607.82504c.54717-.61985 1.31664-.9319 2.30839-.9319.91053 0 1.67572.29495 2.2913.8806.61556.58565.96182 1.44488 1.03022 2.5777h-6.65586c.13679-1.06442.48305-1.90228 1.02595-2.5264zm5.989-3.6977c-1.09008-.5087-2.31695-.7652-3.68061-.7652-2.29557 0-4.15938.75665-5.59999 2.26993-1.43633 1.51328-2.1545 3.68915-2.1545 6.52334 0 3.02656.79512 5.21098 2.38962 6.55327 1.5945 1.34229 3.43266 2.01343 5.51449 2.01343 2.5264 0 4.48854-.79939 5.89067-2.38961.90199-1.00458 1.41069-1.99206 1.51756-2.96244h-4.37312c-.23084.48305-.49588.85924-.79512 1.12855-.55145.50015-1.26534.75236-2.15022.75236-.82931 0-1.5432-.20519-2.13313-.61984-.97038-.65832-1.48763-1.81252-1.54747-3.45404h11.2128c.0171-1.41496-.02565-2.49648-.1368-3.24885-.19236-1.28244-.60702-2.40671-1.24824-3.38137-.70962-1.09862-1.6116-1.90656-2.70595-2.41953zm-3.38137-.7652zm19.04423.70108c-.77374-.43603-1.65435-.65405-2.6461-.65405-2.1545 0-3.87724.79939-5.16396 2.40244-1.28671 1.60305-1.9322 3.80457-1.9322 6.60029 0 2.42381.65404 4.40732 1.96212 5.95907 1.3081 1.54748 2.9197 2.32122 4.8348 2.32122 1.15847 0 2.13313-.2223 2.91542-.6626.77801-.4403 1.4748-1.14564 2.0861-2.1203v2.26992h4.16365V417.0674h-4.3432v7.81434c-.47877-.76947-1.10717-1.37222-1.87663-1.80824zm1.0516 11.6702c-.63267.8977-1.55603 1.35084-2.7658 1.35084-1.21404 0-2.11602-.45313-2.7145-1.35939-.59419-.90626-.89343-2.11603-.89343-3.6293 0-1.40214.29497-2.57771.88061-3.52672.58565-.94473 1.50473-1.41923 2.75725-1.41923.82076 0 1.5432.26076 2.16305.78229 1.01313.85923 1.51755 2.29557 1.51755 4.29617 0 1.43634-.31633 2.60336-.94473 3.50534zm21.30988-2.38961h-4.42014c0 2.30411.8293 4.11235 2.47938 5.429 1.65435 1.3209 3.92427 1.97922 6.80976 1.97922 2.82564 0 5.01006-.67114 6.55754-2.00915 1.55175-1.33374 2.32549-3.01801 2.32549-5.04 0-1.97495-.6626-3.48395-1.9835-4.52273-.85497-.67114-2.11603-1.20977-3.78748-1.60732l-3.8174-.91909c-1.4748-.35053-2.43663-.65404-2.88549-.9148-.70106-.39328-1.0516-.9832-1.0516-1.77405 0-.8635.35481-1.53465 1.06443-2.01343.71389-.48305 1.6629-.72244 2.85556-.72244 1.07298 0 1.97069.18382 2.68885.55573 1.0858.56 1.66718 1.509 1.74412 2.83846h4.45007c-.08122-2.35114-.94473-4.14655-2.5948-5.38624-1.6458-1.23542-3.63786-1.85527-5.9719-1.85527-2.79572 0-4.91602.65405-6.35663 1.96641-1.44488 1.31664-2.16305 2.96244-2.16305 4.94594 0 2.17588.74382 3.77465 2.23572 4.79633.88489.6113 2.47511 1.17557 4.77923 1.6971l2.34687.5258c1.3722.29923 2.38106.6455 3.02228 1.03877.64122.39756.96183.9661.96183 1.6971 0 1.25251-.64977 2.10747-1.94076 2.56915-.6797.2394-1.56885.35909-2.65893.35909-1.82534 0-3.11205-.45313-3.86441-1.36794-.41039-.50015-.68397-1.2568-.82504-2.26564zm4.49281-15.99203zm10.65708 9.64822h2.28274v10.08426c0 1.02167.2394 1.77831.72244 2.26991.73954.76947 2.12458 1.12 4.14656 1.0516l2.03053-.07694v-3.20183c-.14107.01283-.28641.02138-.43175.02565-.14535.00428-.28214.00855-.41039.00855-.87205 0-1.39358-.0855-1.56457-.25221-.171-.16244-.25649-.58137-.25649-1.25252v-8.65647h2.6632v-3.0522h-2.6632v-4.5655h-4.23633v4.5655h-2.28274zm20.96362 5.21526v1.5945c-.02992 1.43206-.43176 2.41954-1.20977 2.95816-.77801.5429-1.62442.81221-2.54778.81221-.58137 0-1.07297-.16244-1.47908-.48732-.4061-.32489-.6113-.85496-.6113-1.58596 0-.82076.33344-1.42778.99176-1.82106.39328-.23084 1.03877-.4232 1.94076-.58565l.96183-.17954c.47877-.08977.85923-.18809 1.13282-.29069.27786-.10687.55145-.24366.82076-.41465zm-2.59908-2.0006l-1.4577.17953c-1.65435.21374-2.90687.56428-3.75756 1.05588-1.55175.90198-2.32976 2.35969-2.32976 4.37312 0 1.55175.48305 2.75297 1.44916 3.59938.9661.84641 2.19297 1.26962 3.67632 1.26962 1.16275 0 2.20153-.26504 3.12488-.79939.76947-.44885 1.45343-.99603 2.04336-1.63725.02992.3719.0684.70107.1197.99175.05129.2907.14106.60275.2693.93191h4.65954v-.63267c-.27787-.12824-.4916-.29496-.6284-.49588-.14107-.19664-.22656-.5771-.25649-1.14137-.02137-.73954-.02992-1.3722-.02992-1.89373V427.515c0-1.97496-.6968-3.31724-2.09038-4.03113-1.39358-.70962-2.9838-1.06443-4.77922-1.06443-2.75298 0-4.69801.71817-5.83083 2.16305-.70962.92336-1.11145 2.09893-1.20122 3.53098h4.13373c.09832-.63267.29924-1.13282.59847-1.50045.4232-.50443 1.1371-.75237 2.15023-.75237.90198 0 1.58595.12825 2.0519.38046.46595.25649.6968.72244.6968 1.39359 0 .55145-.30352.95328-.91481 1.21404-.34199.1539-.90626.27786-1.6971.37618zm.22229-6.85251zm8.78044 3.63785h2.28274v10.08426c0 1.02167.2394 1.77831.72244 2.26991.73954.76947 2.12458 1.12 4.14656 1.0516l2.03053-.07694v-3.20183c-.14107.01283-.28641.02138-.43175.02565-.14535.00428-.28214.00855-.41039.00855-.87205 0-1.39358-.0855-1.56457-.25221-.171-.16244-.25649-.58137-.25649-1.25252v-8.65647h2.6632v-3.0522h-2.6632v-4.5655h-4.23633v4.5655h-2.28274zm16.08607.82504c.54718-.61985 1.31664-.9319 2.3084-.9319.91053 0 1.67572.29495 2.29129.8806s.95755 1.44488 1.03022 2.5777h-6.66013c.14106-1.06442.48305-1.90228 1.03022-2.5264zm5.989-3.6977c-1.09008-.5087-2.32122-.7652-3.6806-.7652-2.29557 0-4.16366.75665-5.6 2.26993-1.43633 1.51328-2.1545 3.68915-2.1545 6.52334 0 3.02656.79512 5.21098 2.38962 6.55327 1.59023 1.34229 3.42839 2.01343 5.5145 2.01343 2.52212 0 4.48853-.79939 5.89067-2.38961.90198-1.00458 1.4064-1.99206 1.51755-2.96244h-4.37312c-.23084.48305-.49588.85924-.79511 1.12855-.55145.50015-1.26962.75236-2.15023.75236-.83358 0-1.5432-.20519-2.13312-.61984-.97466-.65832-1.48763-1.81252-1.54748-3.45404h11.20853c.02137-1.41496-.02565-2.49648-.13252-3.24885-.19237-1.28244-.60702-2.40671-1.24824-3.38137-.7139-1.09862-1.61588-1.90656-2.70595-2.41953zm-3.38137-.7652zm13.69218 11.589h-4.3432c0 1.67999.6113 3.06502 1.83817 4.1551 1.22687 1.0858 3.12916 1.6287 5.70686 1.6287 2.52213 0 4.39022-.51298 5.59571-1.53893 1.20977-1.02595 1.81252-2.35114 1.81252-3.97557 0-1.23114-.4232-2.26137-1.26534-3.08213-.85069-.81221-2.12885-1.41496-3.83022-1.81679-2.55633-.56-4.04396-.95755-4.4629-1.1884-.4232-.218-.63267-.57709-.63267-1.06442 0-.39328.19665-.73526.5942-1.02595.39756-.28641 1.06015-.43175 1.99206-.43175 1.13282 0 1.9322.2864 2.40244.86778.25221.32061.4061.75664.46595 1.30809h4.28335c-.1881-2.0006-.92763-3.4113-2.21435-4.22778-1.28671-.81648-2.95388-1.22687-4.99724-1.22687-2.1545 0-3.82594.5429-5.01434 1.63298-1.18412 1.0858-1.77832 2.38534-1.77832 3.89862 0 1.28244.38046 2.26564 1.14138 2.94533.76091.69252 2.069 1.26534 3.92426 1.72702 2.57343.6113 4.06106 1.04305 4.4629 1.29527.39755.24793.59847.61557.59847 1.09435 0 .50015-.24794.87633-.74382 1.12854-.49588.24794-1.16275.37618-2.00488.37618-1.43206 0-2.41526-.2864-2.94534-.85923-.29923-.32061-.49587-.85923-.58565-1.62015zm3.2745-11.589zm17.76607 6.20702v4.05678h8.62655v-4.05678zm24.93063-7.69464h4.26625c2.10748 0 3.50961.60274 4.21923 1.81251.70534 1.2055 1.05588 2.93679 1.05588 5.18961 0 1.63297-.23512 3.04366-.70534 4.2235-.85924 2.1545-2.38534 3.23175-4.56977 3.23175h-4.26625zm8.47693-3.36427c-.91053-.30351-2.05618-.46168-3.42839-.48305h-9.54135v22.15201h9.54135c3.34717 0 5.82228-1.37648 7.42533-4.13373 1.18412-2.04335 1.77404-4.53556 1.77404-7.4809 0-1.16275-.14107-2.38534-.4232-3.66778-.27787-1.28244-.80367-2.4751-1.5774-3.578-.96183-1.36367-2.21863-2.29985-3.77038-2.80855zm13.316 3.33434v-3.95419h-4.3432v3.9542zm-4.3432 1.95359v16.38103h4.3432v-16.38103zm11.8241 11.15295h-4.3432c0 1.68.61558 3.06503 1.84245 4.1551 1.22686 1.0858 3.12915 1.6287 5.70258 1.6287 2.5264 0 4.39022-.51297 5.59999-1.53892 1.2055-1.02595 1.81251-2.35114 1.81251-3.97557 0-1.23114-.4232-2.26137-1.26534-3.08213-.85068-.81221-2.12885-1.41496-3.83022-1.81679-2.55633-.56-4.04396-.95755-4.46289-1.1884-.4232-.218-.63267-.57709-.63267-1.06442 0-.39328.19664-.73526.5942-1.02595.39328-.28641 1.06015-.43175 1.99205-.43175 1.12855 0 1.93221.2864 2.40244.86778.25221.32061.4061.75664.46595 1.30809h4.28335c-.19236-2.0006-.92763-3.4113-2.21862-4.22778-1.28671-.81648-2.94961-1.22687-4.99296-1.22687-2.1545 0-3.82595.5429-5.01434 1.63298-1.1884 1.0858-1.7826 2.38534-1.7826 3.89862 0 1.28244.38474 2.26564 1.14565 2.94533.76091.69252 2.069 1.26534 3.92 1.72702 2.5777.6113 4.06533 1.04305 4.46288 1.29527.40183.24793.60275.61557.60275 1.09435 0 .50015-.24794.87633-.74382 1.12854-.49587.24794-1.16274.37618-2.00488.37618-1.43633 0-2.41526-.2864-2.94533-.85923-.30351-.32061-.49588-.85923-.58993-1.62015zm3.27878-11.58898zm8.82318 3.63785h2.28275v10.08426c0 1.02167.23938 1.77831.72244 2.26991.73954.76947 2.12457 1.12 4.14655 1.0516l2.03053-.07694v-3.20183c-.14107.01283-.2864.02138-.43175.02565-.14534.00428-.28214.00855-.41038.00855-.87206 0-1.39359-.0855-1.56458-.25221-.171-.16244-.25649-.58137-.25649-1.25252v-8.65647h2.6632v-3.0522h-2.6632v-4.5655h-4.23632v4.5655h-2.28275zm21.03202-3.58655c-.05557-.00428-.12397-.00428-.2052-.00428-1.28243 0-2.32548.33344-3.12487 1.00458-.4916.40183-1.0687 1.14992-1.72702 2.24v-2.85557h-4.09098v16.38103h4.31327v-7.82716c0-1.31664.16672-2.28702.49588-2.91969.5942-1.12 1.74839-1.68 3.4754-1.68.12825 0 .29925.00428.50871.01283.20947.01283.45313.02993.72244.05985v-4.38595c-.19236-.01282-.31206-.0171-.36763-.02564zm7.27998-1.56886v-3.95419h-4.3432v3.9542zm-4.3432 1.95359v16.38103h4.3432v-16.38103zm18.27478 5.87785h4.39022c-.24367-2.33404-1.0174-3.96274-2.3255-4.8861-1.3038-.91908-2.98808-1.38076-5.03998-1.38076-2.41527 0-4.309.78229-5.68121 2.3426-1.37221 1.56457-2.06046 3.75327-2.06046 6.56608 0 2.49649.62412 4.52702 1.86382 6.08732 1.24396 1.56458 3.18045 2.34686 5.818 2.34686 2.63328 0 4.62106-.93618 5.96762-2.81281.83786-1.16275 1.31236-2.3939 1.41068-3.6977h-4.37312c-.08977.8635-.34626 1.56457-.76519 2.10747-.4232.53863-1.13282.81221-2.1374.81221-1.41068 0-2.37251-.68397-2.88549-2.04763-.27786-.73099-.41893-1.6971-.41893-2.89831 0-1.26107.14107-2.2742.41893-3.0351.53435-1.43207 1.52183-2.15023 2.96244-2.15023 1.01313 0 1.75694.32916 2.24.99175.32915.4916.53435 1.04305.61557 1.65435zm-2.9026-6.31388zm8.55388 3.63785h2.28275v10.08426c0 1.02167.23938 1.77831.72244 2.26991.73954.76947 2.12457 1.12 4.14655 1.0516l2.03053-.07694v-3.20183a6.95589 6.95589 0 0 1-.42748.02565c-.14534.00428-.2864.00855-.41465.00855-.87206 0-1.39359-.0855-1.56458-.25221-.16672-.16244-.25221-.58137-.25221-1.25252v-8.65647h2.65892v-3.0522h-2.65892v-4.5655h-4.2406v4.5655h-2.28275zm30.71871 8.82319c-.67114.88916-1.63297 1.33801-2.88549 1.33801-1.25251 0-2.21862-.44885-2.89403-1.33801-.67542-.89343-1.01313-2.15877-1.01313-3.80457 0-1.64153.3377-2.90687 1.01313-3.79602.67541-.88489 1.64152-1.32947 2.89403-1.32947 1.25252 0 2.21435.44458 2.8855 1.32947.67114.88915 1.00457 2.1545 1.00457 3.79602 0 1.6458-.33343 2.91114-1.00458 3.80457zm3.42412 2.36396c1.38503-1.70564 2.07755-3.76182 2.07755-6.16853 0-2.36397-.69252-4.4116-2.07755-6.14716-1.38076-1.7313-3.47969-2.59908-6.29678-2.59908-2.81282 0-4.91175.86778-6.29678 2.59908-1.38076 1.73556-2.07328 3.7832-2.07328 6.14716 0 2.40671.69252 4.46289 2.07328 6.16853 1.38503 1.70992 3.48396 2.56488 6.29678 2.56488 2.8171 0 4.91602-.85496 6.29678-2.56488zm-6.29678-14.825zm18.21492-5.53587c-.21801-.0171-.46595-.02565-.73526-.02565-2.37252 0-3.87297.4916-4.49282 1.4748-.58992.6626-.88916 1.8681-.88916 3.62076v1.0516h-2.34259v3.02229h2.38962v13.20913h4.26625v-13.20913h2.81281v-3.02228h-2.81281v-1.38076c0-.32061.11114-.61558.32488-.88061.21374-.26504.60702-.38901 1.1713-.37619.56854.0171.97038.03848 1.20976.0684v-3.48824c-.38045-.02992-.67969-.0513-.90198-.06412zm14.51722 2.51786c-2.07328 2.09038-3.10778 5.07419-3.10778 8.9386 0 3.57801.91054 6.3951 2.7316 8.44701 1.82534 2.04336 4.33037 3.06503 7.5151 3.06503 2.5777 0 4.68945-.75664 6.33525-2.26992 1.65008-1.509 2.67175-3.4754 3.07358-5.89067h-4.58258c-.31206 1.14137-.70107 2.0006-1.1713 2.56915-.85496 1.06443-2.09037 1.5945-3.7148 1.5945-1.58167 0-2.88549-.61984-3.91572-1.85526-1.02595-1.2397-1.53892-3.09923-1.53892-5.58289s.48732-4.40732 1.4577-5.76243c.97038-1.35938 2.29985-2.03908 3.98412-2.03908 1.65007 0 2.89831.48305 3.74045 1.44488.47023.53863.85496 1.3423 1.15847 2.40244h4.6296c-.07267-1.38076-.58137-2.75724-1.53465-4.13373-1.72274-2.44091-4.45006-3.6635-8.17769-3.6635-2.7829 0-5.07846.91053-6.88243 2.73587zm6.74991-2.99236zm23.21644 18.47141c-.67114.88916-1.63297 1.33801-2.88549 1.33801-1.24824 0-2.21435-.44885-2.88976-1.33801-.67542-.89343-1.0174-2.15877-1.0174-3.80457 0-1.64153.34198-2.90687 1.0174-3.79602.67541-.88489 1.64152-1.32947 2.88976-1.32947 1.25252 0 2.21435.44458 2.8855 1.32947.6754.88915 1.00884 2.1545 1.00884 3.79602 0 1.6458-.33343 2.91114-1.00885 3.80457zm3.42839 2.36396c1.38076-1.70564 2.07328-3.76182 2.07328-6.16853 0-2.36397-.69252-4.4116-2.07328-6.14716-1.38076-1.7313-3.47969-2.59908-6.29678-2.59908-2.8171 0-4.91602.86778-6.29678 2.59908-1.38076 1.73556-2.07328 3.7832-2.07328 6.14716 0 2.40671.69252 4.46289 2.07328 6.16853 1.38076 1.70992 3.47969 2.56488 6.29678 2.56488 2.8171 0 4.91602-.85496 6.29678-2.56488zm-6.29678-14.825zm15.80821 16.81706v-22.15201h-4.28335v22.15201zm8.447-16.38103h-4.38594v9.87479c0 1.87236.23511 3.2916.70534 4.25342.84214 1.74412 2.47511 2.61618 4.89892 2.61618.84214 0 1.5774-.11115 2.20153-.33344.6284-.21801 1.27389-.6284 1.94503-1.23114.22229-.19236.41038-.41038.57282-.6626.15817-.24793.26077-.40182.29924-.44885v2.31267h4.16365v-16.38103h-4.3432v8.91296c0 1.0516-.14106 1.898-.41892 2.53923-.5429 1.18412-1.5432 1.77404-3.00946 1.77404-1.14137 0-1.90656-.41466-2.29557-1.24824-.22229-.47023-.33343-1.1713-.33343-2.1032zm3.00519-.43603zm31.96695.49587c-.70106-.27786-1.41068-.41893-2.13312-.41893-1.08153 0-2.06473.2223-2.94534.67542-.83358.44886-1.53038 1.15847-2.09038 2.1203-.3206-.80366-.79083-1.4577-1.41068-1.97068-.77374-.55145-1.78687-.82504-3.0351-.82504-1.3252 0-2.40245.32061-3.23176.96183-.4745.35909-.97465.9661-1.50473 1.8168v-2.38962h-4.16365v16.35111h4.3432v-9.85769c0-.89343.11542-1.56457.34625-2.01343.42321-.79084 1.24397-1.1884 2.46656-1.1884 1.0516 0 1.75695.39756 2.11603 1.1884.20092.4403.30351 1.14565.30351 2.1203v9.75082h4.31327v-9.75082c0-.73526.11542-1.35938.34626-1.88091.44886-.9832 1.26534-1.47053 2.44946-1.47053 1.02168 0 1.72275.38046 2.1032 1.14137.20092.39756.29924.91053.29924 1.53038v10.43051h4.39022l.02992-10.32364c0-1.06443-.0513-1.86809-.14961-2.41954-.16245-.83358-.4745-1.53465-.93191-2.1032-.57282-.70107-1.20977-1.19267-1.91084-1.4748zm20.83538 1.91084c-1.21404-1.55603-2.90259-2.32977-5.05709-2.32977-1.1884 0-2.1716.24794-2.94534.75237-.64977.39756-1.24396.97893-1.78686 1.73984v-7.87418h-4.26625v22.1221h4.1893v-2.05619c.57282.79939 1.1029 1.35939 1.5945 1.68.82076.5429 1.91084.81221 3.26167.81221 2.1545 0 3.8345-.83786 5.03572-2.5093 1.20122-1.67145 1.80396-3.7832 1.80396-6.32671 0-2.45374-.6113-4.45862-1.82961-6.01037zm-3.58228 9.97738c-.6113.89344-1.46626 1.33802-2.56916 1.33802-1.27389 0-2.21862-.46168-2.84274-1.38504-.61985-.91908-.9319-2.08183-.9319-3.48396 0-1.19267.15389-2.16305.45312-2.91541.58138-1.41496 1.6458-2.1203 3.20183-2.1203 1.53038 0 2.58198.72244 3.1548 2.16304.29924.7652.44885 1.72702.44885 2.8855 0 1.45343-.3035 2.62472-.9148 3.51815zm12.87997-13.90165v-3.95419h-4.3432v3.9542zm-4.3432 1.95359v16.38103h4.3432v-16.38103zm17.5224 8.41708v1.5945c-.02992 1.43206-.43175 2.41954-1.20976 2.95816-.77801.5429-1.62442.81221-2.54778.81221-.58137 0-1.07298-.16244-1.47908-.48732-.4061-.32489-.60702-.85496-.60702-1.58596 0-.82076.32916-1.42778.99175-1.82106.389-.23084 1.0345-.4232 1.93648-.58565l.96183-.17954c.48306-.08977.85924-.18809 1.1371-.29069.27359-.10687.54718-.24366.81649-.41465zm-2.59907-2.0006l-1.4577.17953c-1.65436.21374-2.90687.56428-3.75756 1.05588-1.55175.90198-2.32976 2.35969-2.32976 4.37312 0 1.55175.48305 2.75297 1.44915 3.59938.9661.84641 2.19298 1.26962 3.67633 1.26962 1.16275 0 2.2058-.26504 3.12488-.79939.77374-.44885 1.45343-.99603 2.04336-1.63725.02992.3719.07267.70107.11969.99175.0513.2907.14107.60275.27359.93191h4.65953v-.63267c-.28214-.12824-.4916-.29496-.63267-.49588-.14107-.19664-.22657-.5771-.25649-1.14137-.02137-.73954-.02992-1.3722-.02992-1.89373V427.515c0-1.97496-.6968-3.31724-2.09038-4.03113-1.38931-.70962-2.98381-1.06443-4.77923-1.06443-2.75297 0-4.698.71817-5.83082 2.16305-.70962.92336-1.11145 2.09893-1.20122 3.53098h4.13373c.09832-.63267.29924-1.13282.60275-1.50045.41893-.50443 1.1371-.75237 2.14595-.75237.90198 0 1.58595.12825 2.0519.38046.46595.25649.70107.72244.70107 1.39359 0 .55145-.30779.95328-.91909 1.21404-.34198.1539-.90625.27786-1.6971.37618zm.22656-6.85251zm20.01462 0c-1.29954 3.00518-1.95359 5.9719-1.95359 8.89586 0 2.53495.50443 5.05709 1.50473 7.56212.85069 2.1545 2.09038 4.3432 3.71053 6.5661h2.53923l-.9148-1.68428c-1.26107-2.32122-2.1374-4.75358-2.629-7.28853-.32062-1.65008-.48306-3.45832-.48306-5.42473 0-3.04365.41893-5.8009 1.24824-8.26318.50015-1.47481 1.44916-3.48397 2.84274-6.02747l-2.46656-.02993-1.0687 1.47054c-.8293 1.1542-1.60732 2.5606-2.32976 4.2235zm14.08546-1.48763h4.26625c2.1032 0 3.50961.60274 4.21496 1.81251.70534 1.2055 1.06015 2.93679 1.06015 5.18961 0 1.63297-.23512 3.04366-.70535 4.2235-.8635 2.1545-2.38533 3.23175-4.56976 3.23175h-4.26625zm8.47266-3.36427c-.91054-.30351-2.0519-.46168-3.42412-.48305h-9.54563v22.15201h9.54563c3.34717 0 5.82228-1.37648 7.42533-4.13373 1.17984-2.04335 1.76977-4.53556 1.76977-7.4809 0-1.16275-.1368-2.38534-.41893-3.66778-.28214-1.28244-.80794-2.4751-1.5774-3.578-.96183-1.36367-2.21863-2.29985-3.77465-2.80855zm11.40944 1.83389c-2.07328 2.09038-3.11206 5.07419-3.11206 8.9386 0 3.57801.91054 6.3951 2.73588 8.44701 1.82106 2.04336 4.3261 3.06503 7.5151 3.06503 2.57342 0 4.68517-.75664 6.33525-2.26992 1.6458-1.509 2.67175-3.4754 3.0693-5.89067h-4.58258c-.30779 1.14137-.70107 2.0006-1.1713 2.56915-.85068 1.06443-2.09037 1.5945-3.71052 1.5945-1.58595 0-2.88977-.61984-3.91572-1.85526-1.02595-1.2397-1.5432-3.09923-1.5432-5.58289s.48732-4.40732 1.4577-5.76243c.97466-1.35938 2.29985-2.03908 3.98412-2.03908 1.65435 0 2.90259.48305 3.74472 1.44488.47023.53863.85496 1.3423 1.1542 2.40244h4.6296c-.06839-1.38076-.58137-2.75724-1.53465-4.13373-1.72274-2.44091-4.44579-3.6635-8.17341-3.6635-2.78717 0-5.07847.91053-6.88243 2.73587zm6.74563-2.99236zm24.03293 2.99236c-2.07328 2.09038-3.11206 5.07419-3.11206 8.9386 0 3.57801.91054 6.3951 2.73588 8.44701 1.82106 2.04336 4.3261 3.06503 7.5151 3.06503 2.57342 0 4.68517-.75664 6.33525-2.26992 1.6458-1.509 2.67175-3.4754 3.0693-5.89067h-4.58258c-.30779 1.14137-.70107 2.0006-1.1713 2.56915-.85068 1.06443-2.09037 1.5945-3.71052 1.5945-1.58595 0-2.88977-.61984-3.91572-1.85526-1.02595-1.2397-1.5432-3.09923-1.5432-5.58289s.48732-4.40732 1.4577-5.76243c.97466-1.35938 2.29985-2.03908 3.98412-2.03908 1.65435 0 2.90259.48305 3.74472 1.44488.47023.53863.85496 1.3423 1.1542 2.40244h4.6296c-.06839-1.38076-.58137-2.75724-1.53465-4.13373-1.72274-2.44091-4.44579-3.6635-8.17341-3.6635-2.78717 0-5.07847.91053-6.88243 2.73587zm6.74563-2.99236zm19.38622 14.45737l2.85557-8.71631 2.7658 8.71631zm.28641-13.78195l-7.9041 22.15201h4.83907l1.53465-4.55266h8.1606l1.42778 4.55266h5.01862l-7.84426-22.15201zm2.58626 0zm13.22623 0v22.15201h4.31327v-15.73554l9.04548 15.73554h4.6296v-22.15201h-4.31327v15.46622l-8.82318-15.46622zm9.16517-.04275zm17.88576 5.63419c-.79084-1.84244-1.9493-3.82595-3.47114-5.95053h-3.23174l.9148 1.68c1.26534 2.31694 2.14168 4.74075 2.63328 7.27571.3206 1.6629.47878 3.47541.47878 5.44182 0 3.06503-.44458 5.8864-1.33802 8.45983-.52152 1.52183-1.4406 3.47541-2.7658 5.86075h3.17191l1.0687-1.4577c.68824-.88061 1.42778-2.19298 2.2058-3.9371 1.39358-3.11633 2.09037-6.18136 2.09037-9.19937 0-2.74442-.58564-5.46747-1.75694-8.17341z"/></svg>