<svg xmlns="http://www.w3.org/2000/svg" role="img" viewBox="-35.98 -35.98 1870.96 1363.96"><title>United States - Colorado (CO Exposure Notifications) logo</title><path fill="#102e82" d="M0 0h1800v1200H0z"/><path fill="#FFF" d="M0 400h1800v400H0z"/><path fill="#BF2C34" d="M1130.81 750a400 400 0 1 1 0-300L760 600z"/><circle cx="760" cy="600" r="200" fill="#F6D047"/><path d="M155.62237 1237.95683v26.19122c0 4.53103.7072 8.05883 2.11339 10.58338 2.63968 4.6215 7.65589 6.94047 15.03219 6.94047 7.38452 0 12.38429-2.31897 15.00752-6.94047 1.40619-2.52455 2.10517-6.05235 2.10517-10.58338v-26.19122H180.835v26.19122c0 2.93571-.34538 5.07377-1.03614 6.4224-1.08548 2.38475-3.42912 3.58535-7.03092 3.58535-3.61825 0-5.97012-1.2006-7.0556-3.58536-.69075-1.34862-1.03613-3.48668-1.03613-6.4224v-26.1912zm17.14558 0zm50.40883 12.91059c-2.07227-1.71045-4.73662-2.55745-7.99305-2.55745-2.60679 0-4.75307.6332-6.44707 1.9078-.94568.7072-1.94892 1.87492-3.00972 3.4949v-4.59682H197.775v31.45413h8.21508v-17.05513c0-1.94892.26315-3.54424.80588-4.8024 1.04436-2.36832 2.9604-3.55247 5.75631-3.55247 2.26964 0 3.81562.80588 4.6215 2.42587.44406.88812.66609 2.16273.66609 3.81561v19.16852h8.44533v-21.21612c0-3.9554-1.03614-6.78422-3.10841-8.48644zm-11.03567-2.6479zm30.2124-2.91928v-7.60655h-8.35487v7.60655zm-8.35487 3.75805v31.51169h8.35487v-31.51169zm13.09972 6.15925h4.39124v19.39877c0 1.96536.46873 3.42089 1.38974 4.36657 1.42263 1.4802 4.08698 2.1545 7.9766 2.02293l3.90607-.14802v-6.15925a13.38082 13.38082 0 0 1-.82233.04934c-.2796.00822-.54274.01645-.79766.01645-1.67756 0-2.6808-.16447-3.00973-.48518-.32071-.31248-.48518-1.11837-.48518-2.40943v-16.65218h5.1149v-5.87143h-5.1149v-8.78249h-8.15751v8.78249h-4.39124zm30.94428 1.5871c1.05258-1.19238 2.53277-1.79268 4.44058-1.79268 1.75156 0 3.22353.5674 4.40769 1.694 1.18415 1.1266 1.85024 2.77947 1.98181 4.95865h-12.80368c.26315-2.0476.92924-3.65937 1.9736-4.85997zm11.52084-7.11316c-2.09694-.97857-4.45703-1.47197-7.08026-1.47197-4.41591 0-8.00127 1.45553-10.77253 4.36658-2.76302 2.91104-4.14454 7.0967-4.14454 12.54875 0 5.8221 1.52954 10.0242 4.59683 12.60632 3.06729 2.58212 6.6033 3.87317 10.60805 3.87317 4.85997 0 8.63447-1.53775 11.33171-4.59682 1.73512-1.93248 2.71369-3.83206 2.91927-5.69875h-8.41243c-.44406.92924-.9539 1.65289-1.52954 2.17095-1.0608.96213-2.4341 1.4473-4.13632 1.4473-1.59532 0-2.9686-.39471-4.10342-1.19237-1.8667-1.2664-2.86171-3.48668-2.97684-6.64443h21.56972c.03289-2.72191-.04934-4.8024-.26315-6.2497-.37005-2.467-1.1677-4.62973-2.4012-6.50464-1.36507-2.11339-3.10019-3.66759-5.20535-4.65439zm-6.50463-1.47197zm36.6348 1.34862c-1.48842-.83877-3.18242-1.25816-5.09022-1.25816-4.14455 0-7.45854 1.53776-9.93375 4.6215-2.47521 3.08373-3.71693 7.31873-3.71693 12.69677 0 4.66261 1.25816 8.47822 3.7745 11.46328 2.51632 2.97683 5.6165 4.46525 9.30055 4.46525 2.22851 0 4.10342-.42761 5.60829-1.27461 1.49664-.847 2.83704-2.20384 4.01297-4.07876v4.36658h8.0095v-42.55558h-8.35488v15.03219c-.92101-1.4802-2.12984-2.63968-3.61003-3.47846zm2.02293 22.44961c-1.21705 1.7269-2.99328 2.59857-5.32047 2.59857-2.33542 0-4.07054-.87167-5.2218-2.61501-1.14304-1.74334-1.71867-4.07054-1.71867-6.98159 0-2.69724.5674-4.95864 1.694-6.78422 1.1266-1.81735 2.8946-2.73013 5.30403-2.73013 1.57887 0 2.96861.50162 4.16099 1.50486 1.94892 1.65288 2.91927 4.41591 2.91927 8.26442 0 2.76303-.60852 5.00799-1.81735 6.7431zm40.99315-4.59682h-8.50289c0 4.43236 1.59532 7.91081 4.76951 10.44359 3.18242 2.541 7.549 3.80739 13.09972 3.80739 5.4356 0 9.6377-1.29106 12.61454-3.86495 2.98506-2.56567 4.47348-5.80565 4.47348-9.69527 0-3.79917-1.27461-6.702-3.81561-8.70026-1.64466-1.29105-4.07054-2.32719-7.28585-3.09196l-7.3434-1.768c-2.83704-.67432-4.68728-1.25817-5.55073-1.7598-1.34862-.75654-2.02293-1.89135-2.02293-3.41266 0-1.6611.68253-2.95217 2.0476-3.87318 1.37329-.92923 3.19886-1.38973 5.49316-1.38973 2.06405 0 3.79094.3536 5.17246 1.06903 2.08872 1.07725 3.20709 2.90282 3.3551 5.46027h8.56046c-.15624-4.52282-1.81735-7.9766-4.99154-10.36136-3.16597-2.37654-6.99803-3.56891-11.48795-3.56891-5.37804 0-9.4568 1.25816-12.22805 3.78271-2.77947 2.53278-4.16099 5.69875-4.16099 9.51436 0 4.18566 1.43085 7.26118 4.30079 9.22654 1.70222 1.17594 4.76129 2.26141 9.19365 3.26466l4.51459 1.01146c2.63968.57563 4.58038 1.24172 5.81387 1.99826 1.2335.76477 1.85024 1.85847 1.85024 3.26465 0 2.40943-1.24994 4.05409-3.73338 4.9422-1.3075.46051-3.01795.69076-5.11489.69076-3.51135 0-5.98656-.87167-7.43386-2.63145-.78944-.96213-1.31573-2.41765-1.5871-4.35835zm8.6427-30.76337zm20.50068 18.56h4.39124v19.39876c0 1.96536.4605 3.42089 1.38974 4.36657 1.42263 1.4802 4.08698 2.1545 7.9766 2.02293l3.90607-.14802v-6.15925c-.27137.02467-.55097.04112-.83056.04934-.27959.00822-.54274.01645-.78943.01645-1.67756 0-2.6808-.16447-3.00973-.48518-.32893-.31248-.4934-1.11837-.4934-2.40943v-16.65218h5.12312v-5.87143h-5.12312v-8.78249h-8.14929v8.78249h-4.39124zm40.32706 10.03242v3.06729c-.05756 2.7548-.83055 4.65439-2.3272 5.69052-1.49663 1.04436-3.12485 1.56243-4.90108 1.56243-1.11837 0-2.06405-.31249-2.84526-.93746-.78122-.62497-1.17593-1.64466-1.17593-3.05084 0-1.57888.64141-2.74658 1.9078-3.50313.75655-.44406 1.99826-.8141 3.73338-1.12659l1.85024-.34538c.92101-.17269 1.65289-.36182 2.17918-.55918.53451-.20559 1.0608-.46873 1.57887-.79766zm-4.99977-3.8485l-2.80414.34537c-3.18242.41117-5.59185 1.08548-7.22828 2.03116-2.98506 1.73511-4.4817 4.53926-4.4817 8.41243 0 2.98506.92923 5.2958 2.7877 6.92402 1.85846 1.62821 4.21855 2.44232 7.07204 2.44232 2.23673 0 4.235-.50984 6.01123-1.53776 1.4802-.86344 2.79592-1.91602 3.93074-3.14952.05756.71543.13157 1.34862.23025 1.9078.09868.55919.27137 1.1595.51807 1.79269h8.9634v-1.21705c-.53452-.2467-.94569-.56741-1.20883-.9539-.27137-.37828-.43584-1.11015-.4934-2.19563-.04112-1.42263-.05756-2.63968-.05756-3.64292v-14.44834c0-3.79916-1.3404-6.38128-4.0212-7.75457-2.6808-1.36507-5.73986-2.0476-9.19365-2.0476-5.2958 0-9.0374 1.38151-11.21658 4.16099-1.36506 1.77623-2.13805 4.03764-2.31074 6.79244h7.95193c.18913-1.21704.57563-2.17917 1.15126-2.88637.8141-.97035 2.1874-1.4473 4.13632-1.4473 1.73512 0 3.05084.2467 3.94718.73187.89634.4934 1.3404 1.38974 1.3404 2.6808 0 1.0608-.58385 1.8338-1.75979 2.33541-.65786.29604-1.74334.53452-3.26465.72365zm.42762-13.18196zm16.89065 6.99803h4.39125v19.39877c0 1.96536.4605 3.42089 1.38973 4.36657 1.42263 1.4802 4.08698 2.1545 7.9766 2.02293l3.90607-.14802v-6.15925c-.27137.02467-.55096.04112-.83055.04934-.2796.00822-.54274.01645-.78944.01645-1.67755 0-2.6808-.16447-3.00973-.48518-.32893-.31248-.4934-1.11837-.4934-2.40943v-16.65218h5.12312v-5.87143h-5.12311v-8.78249h-8.1493v8.78249h-4.39124zm30.94428 1.5871c1.05258-1.19238 2.53278-1.79268 4.44058-1.79268 1.75157 0 3.22354.5674 4.4077 1.694 1.18415 1.1266 1.84201 2.77947 1.9818 4.95865h-12.8119c.27138-2.0476.92924-3.65937 1.98182-4.85997zm11.52085-7.11316c-2.09695-.97857-4.46526-1.47197-7.08027-1.47197-4.4159 0-8.00949 1.45553-10.77252 4.36658-2.76303 2.91104-4.14454 7.0967-4.14454 12.54875 0 5.8221 1.52953 10.0242 4.59682 12.60632 3.05907 2.58212 6.59509 3.87317 10.60806 3.87317 4.85175 0 8.63446-1.53775 11.3317-4.59682 1.73512-1.93248 2.70547-3.83206 2.91928-5.69875h-8.41244c-.44406.92924-.9539 1.65289-1.52953 2.17095-1.0608.96213-2.44232 1.4473-4.13632 1.4473-1.60354 0-2.96861-.39471-4.10343-1.19237-1.87491-1.2664-2.8617-3.48668-2.97683-6.64443h21.56149c.04112-2.72191-.04934-4.8024-.25492-6.2497-.37005-2.467-1.16771-4.62973-2.4012-6.50464-1.3733-2.11339-3.10841-3.66759-5.20535-4.65439zm-6.50464-1.47197zm26.33923 22.29337h-8.35487c0 3.23176 1.17593 5.8961 3.53602 7.99305 2.36009 2.08872 6.01946 3.13307 10.9781 3.13307 4.85175 0 8.44534-.9868 10.7643-2.96038 2.3272-1.9736 3.48669-4.52282 3.48669-7.64767 0-2.36831-.81411-4.35013-2.4341-5.929-1.63644-1.56243-4.0952-2.72191-7.36808-3.4949-4.91753-1.07726-7.77924-1.84202-8.58512-2.28608-.81411-.41939-1.21705-1.11015-1.21705-2.0476 0-.75655.37827-1.41441 1.14304-1.9736.76476-.55096 2.03938-.83055 3.83205-.83055 2.17918 0 3.71694.55096 4.6215 1.66933.48517.61675.78121 1.45553.89634 2.51633h8.23975c-.36183-3.8485-1.78446-6.5622-4.25967-8.13284-2.47522-1.57065-5.6823-2.36009-9.61304-2.36009-4.14454 0-7.35985 1.04436-9.64593 3.1413-2.27786 2.08872-3.4209 4.5886-3.4209 7.49965 0 2.46699.73188 4.35835 2.19563 5.66585 1.46374 1.33218 3.98007 2.4341 7.54899 3.32222 4.95042 1.17593 7.81213 2.00648 8.58512 2.49166.76477.47695 1.15126 1.18415 1.15126 2.10516 0 .96213-.47695 1.68578-1.43085 2.17095-.9539.47695-2.23674.72365-3.85673.72365-2.7548 0-4.64616-.55096-5.66585-1.65288-.57563-.61675-.9539-1.65288-1.1266-3.11663zm6.29905-22.29337zm34.17604 11.94023v7.80392h16.59462v-7.80392zm43.45191-17.74588c-3.99652 4.0212-5.98656 9.76106-5.98656 17.19492 0 6.8829 1.75157 12.30206 5.26291 16.24924 3.50313 3.93074 8.32198 5.89611 14.45657 5.89611 4.95042 0 9.01273-1.45552 12.1787-4.36657 3.1742-2.90283 5.14779-6.68554 5.91256-11.3317h-8.81538c-.6003 2.19561-1.34862 3.8485-2.25319 4.9422-1.63643 2.0476-4.02119 3.06728-7.14604 3.06728-3.04262 0-5.55073-1.19237-7.52432-3.5689-1.98182-2.38476-2.96861-5.9619-2.96861-10.73964 0-4.77773.93745-8.47822 2.80414-11.085 1.87491-2.61501 4.42414-3.92252 7.66412-3.92252 3.18241 0 5.5754.92923 7.19538 2.77948.90457 1.03613 1.65289 2.58211 2.22852 4.62149h8.90583c-.1398-2.65613-1.11837-5.30403-2.95216-7.95193-3.314-4.6955-8.55223-7.04737-15.72295-7.04737-5.3616 0-9.7775 1.75156-13.23952 5.26291zm12.97637-5.7563zm44.66897 35.53287c-1.29106 1.71045-3.1413 2.5739-5.55073 2.5739-2.40943 0-4.2679-.86345-5.56717-2.5739-1.29929-1.71867-1.94893-4.15276-1.94893-7.31873 0-3.15775.64964-5.59185 1.94893-7.3023 1.29928-1.70222 3.15774-2.55744 5.56717-2.55744s4.25967.85522 5.55073 2.55745c1.29106 1.71044 1.93247 4.14454 1.93247 7.30229 0 3.16597-.64141 5.60006-1.93247 7.31873zm6.58686 4.54749c2.66435-3.2811 3.9883-7.2365 3.9883-11.86622 0-4.54749-1.32395-8.48645-3.9883-11.82511-2.65612-3.33044-6.69377-4.99977-12.11292-4.99977-5.41093 0-9.44857 1.66933-12.11292 4.99977-2.65613 3.33866-3.9883 7.27762-3.9883 11.8251 0 4.62972 1.33217 8.58513 3.9883 11.86623 2.66435 3.28932 6.70199 4.93398 12.11292 4.93398 5.41915 0 9.4568-1.64466 12.11292-4.93398zm-12.11292-28.5184zm30.41799 32.35046v-42.61315h-8.23975v42.61315zm27.72074-8.37955c-1.29106 1.71045-3.1413 2.5739-5.55073 2.5739-2.40942 0-4.25967-.86345-5.56717-2.5739-1.29928-1.71867-1.94892-4.15276-1.94892-7.31873 0-3.15775.64964-5.59185 1.94892-7.3023 1.3075-1.70222 3.15775-2.55744 5.56717-2.55744 2.40943 0 4.25967.85522 5.55073 2.55745 1.29106 1.71044 1.9407 4.14454 1.9407 7.30229 0 3.16597-.64964 5.60006-1.9407 7.31873zm6.59509 4.54749c2.65612-3.2811 3.9883-7.2365 3.9883-11.86622 0-4.54749-1.33218-8.48645-3.9883-11.82511-2.66435-3.33044-6.702-4.99977-12.11292-4.99977-5.41916 0-9.4568 1.66933-12.11292 4.99977-2.66435 3.33866-3.9883 7.27762-3.9883 11.8251 0 4.62972 1.32395 8.58513 3.9883 11.86623 2.65612 3.28932 6.69376 4.93398 12.11292 4.93398 5.41093 0 9.44857-1.64466 12.11292-4.93398zm-12.11292-28.5184zm39.50473.09867c-.1069-.00822-.23848-.00822-.39472-.00822-2.46699 0-4.46525.64142-6.01123 1.93247-.94568.773-2.05583 2.21207-3.32221 4.30901v-5.49316h-7.86148v31.51169h8.29731v-15.05687c0-2.53277.31249-4.39946.9539-5.61651 1.13482-2.1545 3.36333-3.23176 6.67732-3.23176.2467 0 .57563.00823.97858.02467.40294.02467.87167.05757 1.38973.11513v-8.4371c-.37004-.02468-.6003-.0329-.7072-.04935zm22.91011 16.93178v3.06729c-.05756 2.7548-.83055 4.65439-2.32719 5.69052-1.49664 1.04436-3.12485 1.56243-4.90109 1.56243-1.11837 0-2.06405-.31249-2.84526-.93746-.78121-.62497-1.17593-1.64466-1.17593-3.05084 0-1.57888.64142-2.74658 1.9078-3.50313.75655-.44406 1.99827-.8141 3.73338-1.12659l1.85025-.34538c.921-.17269 1.65288-.36182 2.17917-.55918.53451-.20559 1.0608-.46873 1.57887-.79766zm-4.99976-3.8485l-2.80415.34537c-3.18242.41117-5.59184 1.08548-7.22828 2.03116-2.98506 1.73511-4.4817 4.53926-4.4817 8.41243 0 2.98506.92924 5.2958 2.7877 6.92402 1.85847 1.62821 4.21855 2.44232 7.07204 2.44232 2.23674 0 4.235-.50984 6.01123-1.53776 1.4802-.86344 2.79592-1.91602 3.93074-3.14952.05756.71543.1398 1.34862.23025 1.9078.09868.55919.27137 1.1595.5263 1.79269h8.95517v-1.21705c-.53452-.2467-.94568-.56741-1.20883-.9539-.27137-.37828-.43583-1.11015-.4934-2.19563-.04111-1.42263-.05756-2.63968-.05756-3.64292v-14.44834c0-3.79916-1.3404-6.38128-4.0212-7.75457-2.68079-1.36507-5.73986-2.0476-9.19364-2.0476-5.2958 0-9.0374 1.38151-11.21658 4.16099-1.36507 1.77623-2.13806 4.03764-2.31075 6.79244h7.95193c.18914-1.21704.57563-2.17917 1.15126-2.88637.8141-.97035 2.1874-1.4473 4.13632-1.4473 1.73512 0 3.05085.2467 3.94719.73187.89634.4934 1.3404 1.38974 1.3404 2.6808 0 1.0608-.58386 1.8338-1.7598 2.33541-.65786.29604-1.74333.53452-3.26464.72365zm.4276-13.18196zm36.83217 1.34862c-1.4802-.83877-3.1742-1.25816-5.082-1.25816-4.14454 0-7.45853 1.53776-9.93375 4.6215-2.4752 3.08373-3.71693 7.31873-3.71693 12.69677 0 4.66261 1.25817 8.47822 3.7745 11.46328 2.51633 2.97683 5.61651 4.46525 9.29233 4.46525 2.23673 0 4.11165-.42761 5.60829-1.27461 1.50486-.847 2.84526-2.20384 4.02119-4.07876v4.36658h8.0095v-42.55558h-8.35488v15.03219c-.92923-1.4802-2.12983-2.63968-3.61825-3.47846zm2.02293 22.44961c-1.20882 1.7269-2.98506 2.59857-5.31225 2.59857-2.33542 0-4.07876-.87167-5.2218-2.61501-1.14303-1.74334-1.71867-4.07054-1.71867-6.98159 0-2.69724.55919-4.95864 1.694-6.78422 1.1266-1.81735 2.8946-2.73013 5.30403-2.73013 1.57888 0 2.96861.50162 4.161 1.50486 1.94891 1.65288 2.91926 4.41591 2.91926 8.26442 0 2.76303-.60852 5.00799-1.82557 6.7431zm37.1282.1727c-1.29928 1.71044-3.14952 2.57389-5.55073 2.57389-2.40942 0-4.26789-.86345-5.56717-2.5739-1.29928-1.71867-1.95715-4.15276-1.95715-7.31873 0-3.15775.65787-5.59185 1.95715-7.3023 1.29928-1.70222 3.15775-2.55744 5.56717-2.55744 2.4012 0 4.25145.85522 5.55073 2.55745 1.29106 1.71044 1.93248 4.14454 1.93248 7.30229 0 3.16597-.64142 5.60006-1.93248 7.31873zm6.58686 4.54748c2.66435-3.2811 3.9883-7.2365 3.9883-11.86622 0-4.54749-1.32395-8.48645-3.9883-11.82511-2.65612-3.33044-6.69376-4.99977-12.11292-4.99977-5.41915 0-9.4568 1.66933-12.11292 4.99977-2.65612 3.33866-3.9883 7.27762-3.9883 11.8251 0 4.62972 1.33218 8.58513 3.9883 11.86623 2.65613 3.28932 6.69377 4.93398 12.11292 4.93398 5.41916 0 9.4568-1.64466 12.11292-4.93398zm-12.11292-28.5184zm40.38463 0c-2.49988 5.78097-3.75805 11.48794-3.75805 17.11268 0 4.87642.97035 9.72816 2.8946 14.54702 1.63644 4.14454 4.0212 8.35487 7.13783 12.63099h4.88464l-1.75979-3.23998c-2.42587-4.46526-4.11165-9.14431-5.05733-14.02073-.61675-3.1742-.92923-6.65265-.92923-10.43537 0-5.85499.79766-11.15902 2.4012-15.89564.96213-2.83703 2.7877-6.70199 5.46027-11.59485l-4.73662-.05756-2.05582 2.82881c-1.59532 2.2203-3.09196 4.92576-4.4817 8.12462zm22.58118-5.80566c-3.9883 4.0212-5.98656 9.76106-5.98656 17.19492 0 6.8829 1.75979 12.30206 5.26291 16.24924 3.51135 3.93074 8.3302 5.89611 14.45656 5.89611 4.95043 0 9.01274-1.45552 12.18693-4.36657 3.16597-2.90283 5.13957-6.68554 5.91256-11.3317h-8.81538c-.6003 2.19561-1.35685 3.8485-2.2614 4.9422-1.63645 2.0476-4.01298 3.06728-7.13783 3.06728-3.04262 0-5.55895-1.19237-7.53255-3.5689-1.97359-2.38476-2.96038-5.9619-2.96038-10.73964 0-4.77773.92923-8.47822 2.80414-11.085 1.86669-2.61501 4.42414-3.92252 7.6559-3.92252 3.18241 0 5.58361.92923 7.2036 2.77948.90457 1.03613 1.64466 2.58211 2.22852 4.62149h8.8976c-.13156-2.65613-1.11836-5.30403-2.94393-7.95193-3.314-4.6955-8.56046-7.04737-15.73118-7.04737-5.35336 0-9.76928 1.75156-13.2395 5.26291zm12.9846-5.7563zm52.88403 33.64974c-2.07227 2.60678-4.86819 3.90606-8.39598 3.90606-3.5278 0-6.34017-1.29928-8.43711-3.90606-2.10517-2.59857-3.15775-6.29905-3.15775-11.10146 0-4.79418 1.05258-8.49467 3.15775-11.10145 2.09694-2.59857 4.9093-3.90607 8.4371-3.90607 3.5278 0 6.32372 1.3075 8.396 3.92251 2.07227 2.60679 3.1084 6.30727 3.1084 11.08501 0 4.8024-1.03613 8.5029-3.1084 11.10146zm5.56718 6.47996c4.30078-4.07054 6.44707-9.92553 6.44707-17.58142 0-7.80391-2.14629-13.66712-6.44707-17.57319-3.21531-3.32221-7.8697-4.9751-13.96316-4.9751-6.08525 0-10.74786 1.65289-13.96317 4.9751-4.31723 3.90607-6.47174 9.76928-6.47174 17.5732 0 7.65588 2.1545 13.51087 6.47174 17.5814 3.21531 3.314 7.87792 4.96688 13.96317 4.96688 6.09346 0 10.74785-1.65288 13.96316-4.96687zm-13.96316-40.1297zm75.16918 8.84826v-7.54899h-31.25676v42.61315h32.2929v-7.6559h-23.58443v-10.96166h20.69805v-7.40097h-20.69805v-9.04563zm-15.41046-7.54899zm19.62901 42.61315h9.99954l5.4685-9.44858 5.4356 9.44858h10.26267l-10.75608-16.10123 10.35314-15.3529h-9.80217l-5.1478 9.13609-5.2629-9.13609h-10.09l10.29558 15.50092zm56.07469-22.20291c1.10192 1.86668 1.6611 4.02119 1.6611 6.44706 0 2.95217-.6003 5.31225-1.80912 7.08026-1.2006 1.77624-2.95217 2.66435-5.24647 2.66435-1.57887 0-2.95216-.43583-4.10343-1.29928-1.94892-1.48842-2.91927-4.0623-2.91927-7.72168 0-2.31074.28782-4.21855.86345-5.72341 1.11837-2.83704 3.1742-4.25145 6.15925-4.25145 2.48344 0 4.28434.93746 5.39449 2.80415zm6.33194-5.929c-2.55745-2.7137-5.67408-4.07054-9.35812-4.07054-2.52455 0-4.70373.69898-6.5293 2.10517-1.00324.78943-1.94892 1.87491-2.83704 3.23998v-4.65439h-7.89437v43.91242h8.15752v-16.42193c.86345 1.33218 1.75156 2.34364 2.65612 3.04262 1.66111 1.24994 3.7416 1.87491 6.24971 1.87491 3.93074 0 7.14605-1.45552 9.63771-4.36657 2.49988-2.91105 3.7416-7.13782 3.7416-12.68855 0-5.26291-1.27461-9.25121-3.82383-11.97312zm29.4723 19.75236c-1.29105 1.71045-3.1413 2.5739-5.55072 2.5739-2.40943 0-4.2679-.86345-5.56718-2.5739-1.29928-1.71867-1.94892-4.15276-1.94892-7.31873 0-3.15775.64964-5.59185 1.94892-7.3023 1.29928-1.70222 3.15775-2.55744 5.56718-2.55744 2.40942 0 4.25967.85522 5.55072 2.55745 1.29106 1.71044 1.93248 4.14454 1.93248 7.30229 0 3.16597-.64142 5.60006-1.93248 7.31873zm6.58687 4.54749c2.66435-3.2811 3.9883-7.2365 3.9883-11.86622 0-4.54749-1.32395-8.48645-3.9883-11.82511-2.65613-3.33044-6.69377-4.99977-12.11292-4.99977-5.41093 0-9.44858 1.66933-12.11292 4.99977-2.65613 3.33866-3.9883 7.27762-3.9883 11.8251 0 4.62972 1.33217 8.58513 3.9883 11.86623 2.66434 3.28932 6.70199 4.93398 12.11292 4.93398 5.41915 0 9.4568-1.64466 12.11292-4.93398zm-12.11292-28.5184zm28.41972 22.29336h-8.35487c0 3.23176 1.18415 5.8961 3.54424 7.99305 2.36009 2.08872 6.01946 3.13307 10.96988 3.13307 4.85997 0 8.44533-.9868 10.7643-2.96038 2.3272-1.9736 3.48668-4.52282 3.48668-7.64767 0-2.36831-.80588-4.35013-2.42587-5.929-1.63644-1.56243-4.0952-2.72191-7.3763-3.4949-4.90931-1.07726-7.77102-1.84202-8.58513-2.28608-.80588-.41939-1.20882-1.11015-1.20882-2.0476 0-.75655.37827-1.41441 1.13481-1.9736.76477-.55096 2.03938-.83055 3.83206-.83055 2.17918 0 3.72516.55096 4.62972 1.66933.47695.61675.78121 1.45553.89634 2.51633h8.23975c-.37005-3.8485-1.79268-6.5622-4.2679-8.13284-2.47521-1.57065-5.6823-2.36009-9.61303-2.36009-4.14455 0-7.35986 1.04436-9.63771 3.1413-2.28608 2.08872-3.42912 4.5886-3.42912 7.49965 0 2.46699.73188 4.35835 2.19562 5.66585 1.46375 1.33218 3.98008 2.4341 7.549 3.32222 4.95042 1.17593 7.81213 2.00648 8.58512 2.49166.77299.47695 1.15948 1.18415 1.15948 2.10516 0 .96213-.47695 1.68578-1.43085 2.17095-.9539.47695-2.24496.72365-3.86495.72365-2.7548 0-4.64617-.55096-5.66586-1.65288-.57563-.61675-.9539-1.65288-1.12659-3.11663zm6.29905-22.29337zm28.41972.83878h-8.4371v18.99582c0 3.6018.45228 6.33194 1.35684 8.18219 1.62 3.3551 4.7613 5.03266 9.4239 5.03266 1.62 0 3.0344-.21381 4.235-.64142 1.20883-.41939 2.45055-1.20883 3.7416-2.36831.42762-.37005.79767-.78944 1.10193-1.27461.31248-.47695.50162-.773.57563-.86345v4.4488h8.0095v-31.51168h-8.35488v17.14558c0 2.02293-.27137 3.65115-.80588 4.88464-1.04436 2.27785-2.96861 3.41267-5.78098 3.41267-2.20385 0-3.67582-.79766-4.42414-2.4012-.42761-.90457-.64142-2.25319-.64142-4.04587zm5.78098-.83878zm39.68565.09868c-.1069-.00822-.23848-.00822-.39472-.00822-2.46699 0-4.47347.64142-6.01123 1.93247-.94568.773-2.05583 2.21207-3.32221 4.30901v-5.49316h-7.8697v31.51169h8.2973v-15.05687c0-2.53277.32072-4.39946.95391-5.61651 1.14304-2.1545 3.36333-3.23176 6.68554-3.23176.2467 0 .57563.00823.97858.02467.40294.02467.87167.05757 1.38973.11513v-8.4371c-.37004-.02468-.6003-.0329-.7072-.04935zm13.52733 8.48645c1.05258-1.19238 2.53277-1.79268 4.44058-1.79268 1.75156 0 3.22353.5674 4.40769 1.694 1.18415 1.1266 1.84202 2.77947 1.98181 4.95865h-12.8119c.27137-2.0476.92924-3.65937 1.98182-4.85997zm11.52084-7.11316c-2.10516-.97857-4.46525-1.47197-7.08026-1.47197-4.41591 0-8.0095 1.45553-10.77252 4.36658-2.76303 2.91104-4.14455 7.0967-4.14455 12.54875 0 5.8221 1.52954 10.0242 4.59683 12.60632 3.05907 2.58212 6.59509 3.87317 10.60806 3.87317 4.85174 0 8.63446-1.53775 11.3317-4.59682 1.73512-1.93248 2.70547-3.83206 2.91927-5.69875h-8.41243c-.44406.92924-.9539 1.65289-1.52953 2.17095-1.06081.96213-2.44233 1.4473-4.13632 1.4473-1.60355 0-2.96862-.39471-4.10343-1.19237-1.87491-1.2664-2.86171-3.48668-2.97684-6.64443h21.5615c.04111-2.72191-.04934-4.8024-.25493-6.2497-.37004-2.467-1.1677-4.62973-2.4012-6.50464-1.3733-2.11339-3.1084-3.66759-5.20535-4.65439zm-6.50463-1.47197zm36.88973-10.26268v42.61315h8.2973V1250.3l17.4005 30.26997h8.90584v-42.61315h-8.2973v29.7519l-16.9729-29.7519zm17.63075-.08223zm44.2907 34.31583c-1.29106 1.71045-3.1413 2.5739-5.55073 2.5739-2.40943 0-4.25967-.86345-5.55895-2.5739-1.3075-1.71867-1.95715-4.15276-1.95715-7.31873 0-3.15775.64964-5.59185 1.95715-7.3023 1.29928-1.70222 3.14952-2.55744 5.55895-2.55744 2.40942 0 4.25967.85522 5.55072 2.55745 1.29106 1.71044 1.9407 4.14454 1.9407 7.30229 0 3.16597-.64964 5.60006-1.9407 7.31873zm6.59508 4.54749c2.65613-3.2811 3.9883-7.2365 3.9883-11.86622 0-4.54749-1.33217-8.48645-3.9883-11.82511-2.66435-3.33044-6.70199-4.99977-12.11292-4.99977-5.41915 0-9.4568 1.66933-12.11292 4.99977-2.66435 3.33866-3.9883 7.27762-3.9883 11.8251 0 4.62972 1.32395 8.58513 3.9883 11.86623 2.65612 3.28932 6.69377 4.93398 12.11292 4.93398 5.41093 0 9.44857-1.64466 12.11292-4.93398zm-12.11292-28.5184zm18.76557 6.99802h4.39124v19.39877c0 1.96536.4605 3.42089 1.38974 4.36657 1.42263 1.4802 4.07876 2.1545 7.9766 2.02293l3.90607-.14802v-6.15925c-.27137.02467-.55096.04112-.83055.04934-.2796.00822-.54274.01645-.78944.01645-1.67755 0-2.6808-.16447-3.00973-.48518-.32893-.31248-.4934-1.11837-.4934-2.40943v-16.65218h5.12312v-5.87143h-5.12312v-8.78249h-8.14929v8.78249h-4.39124zm31.42123-9.9173v-7.60655h-8.35487v7.60655zm-8.35487 3.75805v31.51169h8.35487v-31.51169zm29.37362-11.48795c-.4276-.0329-.89634-.04934-1.4144-.04934-4.57216 0-7.45031.94568-8.65091 2.83704-1.13482 1.27461-1.70223 3.59358-1.70223 6.96513v2.02294h-4.50637v5.81387h4.59683v25.41h8.20685v-25.41h5.40271v-5.81387h-5.4027v-2.65613c0-.61675.20557-1.18416.62496-1.694.41117-.50985 1.15949-.74832 2.25319-.72365 1.08547.0329 1.86669.074 2.3272.13157v-6.71021c-.73188-.05756-1.31574-.09868-1.73513-.12335zm15.14732 7.7299v-7.60655h-8.35487v7.60655zm-8.35487 3.75805v31.51169h8.35487v-31.51169zm35.1546 11.30704h8.44534c-.46873-4.48992-1.95715-7.623-4.47348-9.39923-2.5081-1.76801-5.74808-2.65613-9.69527-2.65613-4.64616 0-8.28909 1.50486-10.92876 4.50637-2.63968 3.00973-3.96364 7.22006-3.96364 12.63099 0 4.8024 1.2006 8.70847 3.58536 11.70998 2.39298 3.00972 6.11814 4.51459 11.19191 4.51459 5.06556 0 8.89762-1.8009 11.47973-5.41093 1.61177-2.23674 2.52455-4.60505 2.7137-7.11316h-8.41245c-.17268 1.6611-.66608 3.00973-1.47197 4.05409-.8141 1.03613-2.17917 1.56243-4.11165 1.56243-2.71369 0-4.56393-1.31573-5.55072-3.93897-.53452-1.40618-.80589-3.26465-.80589-5.5754 0-2.42587.27137-4.37479.80589-5.83854 1.0279-2.7548 2.9275-4.13632 5.69874-4.13632 1.94893 0 3.37978.6332 4.30901 1.90781.6332.94568 1.02792 2.00649 1.18416 3.18242zm-5.57539-12.14582zm37.06241 17.03046v3.06729c-.05756 2.7548-.83877 4.65439-2.32719 5.69052-1.49664 1.04436-3.13308 1.56243-4.90109 1.56243-1.11837 0-2.07227-.31249-2.85348-.93746-.78122-.62497-1.16771-1.64466-1.16771-3.05084 0-1.57888.6332-2.74658 1.9078-3.50313.74833-.44406 1.99827-.8141 3.73338-1.12659l1.85025-.34538c.921-.17269 1.64466-.36182 2.17917-.55918.5263-.20559 1.05258-.46873 1.57887-.79766zm-5.00799-3.8485l-2.80414.34537c-3.1742.41117-5.58362 1.08548-7.22828 2.03116-2.98506 1.73511-4.4817 4.53926-4.4817 8.41243 0 2.98506.93746 5.2958 2.79592 6.92402 1.85847 1.62821 4.21033 2.44232 7.06382 2.44232 2.23673 0 4.24322-.50984 6.01945-1.53776 1.4802-.86344 2.7877-1.91602 3.93074-3.14952.05756.71543.13157 1.34862.23025 1.9078.09868.55919.27137 1.1595.51807 1.79269h8.9634v-1.21705c-.54274-.2467-.94568-.56741-1.21705-.9539-.27137-.37828-.42761-1.11015-.48518-2.19563-.04111-1.42263-.06578-2.63968-.06578-3.64292v-14.44834c0-3.79916-1.33218-6.38128-4.01297-7.75457-2.6808-1.36507-5.74809-2.0476-9.19365-2.0476-5.30403 0-9.03741 1.38151-11.21658 4.16099-1.3733 1.77623-2.13806 4.03764-2.31075 6.79244h7.9437c.19737-1.21704.58386-2.17917 1.1595-2.88637.80588-.97035 2.18739-1.4473 4.13631-1.4473 1.73512 0 3.05085.2467 3.94719.73187.89634.4934 1.3404 1.38974 1.3404 2.6808 0 1.0608-.58386 1.8338-1.7598 2.33541-.65786.29604-1.75156.53452-3.27287.72365zm.43584-13.18196zm16.88243 6.99803h4.39947v19.39877c0 1.96536.4605 3.42089 1.38151 4.36657 1.43086 1.4802 4.08698 2.1545 7.98483 2.02293l3.89784-.14802v-6.15925a13.38082 13.38082 0 0 1-.82233.04934c-.27959.00822-.54274.01645-.79766.01645-1.67755 0-2.67257-.16447-3.0015-.48518-.32893-.31248-.4934-1.11837-.4934-2.40943v-16.65218h5.1149v-5.87143h-5.1149v-8.78249h-8.1493v8.78249h-4.39946zm31.42946-9.9173v-7.60655h-8.35488v7.60655zm-8.35488 3.75805v31.51169h8.35488v-31.51169zm36.01806 23.13214c-1.29106 1.71045-3.1413 2.5739-5.55073 2.5739-2.40943 0-4.25967-.86345-5.56717-2.5739-1.29929-1.71867-1.94893-4.15276-1.94893-7.31873 0-3.15775.64964-5.59185 1.94893-7.3023 1.3075-1.70222 3.15774-2.55744 5.56717-2.55744s4.25967.85522 5.55073 2.55745c1.29106 1.71044 1.9407 4.14454 1.9407 7.30229 0 3.16597-.64964 5.60006-1.9407 7.31873zm6.59508 4.54749c2.65613-3.2811 3.9883-7.2365 3.9883-11.86622 0-4.54749-1.33217-8.48645-3.9883-11.82511-2.66435-3.33044-6.70199-4.99977-12.11292-4.99977-5.41915 0-9.4568 1.66933-12.11292 4.99977-2.66435 3.33866-3.99652 7.27762-3.99652 11.8251 0 4.62972 1.33217 8.58513 3.99652 11.86623 2.65613 3.28932 6.69377 4.93398 12.11292 4.93398 5.41093 0 9.44857-1.64466 12.11292-4.93398zm-12.11292-28.5184zm47.45667 2.6479c-2.07227-1.71045-4.73662-2.55745-8.00127-2.55745-2.59857 0-4.74485.6332-6.44707 1.9078-.93746.7072-1.9407 1.87492-3.0015 3.4949v-4.59682h-7.95194v31.45413h8.21508v-17.05513c0-1.94892.26315-3.54424.80588-4.8024 1.04436-2.36832 2.9604-3.55247 5.75631-3.55247 2.26963 0 3.81562.80588 4.6215 2.42587.44406.88812.66609 2.16273.66609 3.81561v19.16852h8.4371v-21.21612c0-3.9554-1.03613-6.78422-3.10018-8.48644zm-11.03567-2.6479zm28.1648 22.29336h-8.35487c0 3.23176 1.17593 5.8961 3.53602 7.99305 2.36008 2.08872 6.01945 3.13307 10.96988 3.13307 4.85997 0 8.45355-.9868 10.77252-2.96038 2.31897-1.9736 3.48668-4.52282 3.48668-7.64767 0-2.36831-.8141-4.35013-2.4341-5.929-1.63643-1.56243-4.0952-2.72191-7.36807-3.4949-4.91754-1.07726-7.77924-1.84202-8.58513-2.28608-.8141-.41939-1.21705-1.11015-1.21705-2.0476 0-.75655.37828-1.41441 1.14304-1.9736.75655-.55096 2.03938-.83055 3.83206-.83055 2.17918 0 3.71693.55096 4.6215 1.66933.48517.61675.7812 1.45553.89634 2.51633h8.23974c-.36182-3.8485-1.78445-6.5622-4.25967-8.13284-2.48343-1.57065-5.6823-2.36009-9.61303-2.36009-4.14455 0-7.35986 1.04436-9.64594 3.1413-2.28607 2.08872-3.42089 4.5886-3.42089 7.49965 0 2.46699.73188 4.35835 2.19562 5.66585 1.46375 1.33218 3.98008 2.4341 7.54077 3.32222 4.95865 1.17593 7.82036 2.00648 8.58512 2.49166.773.47695 1.15949 1.18415 1.15949 2.10516 0 .96213-.47695 1.68578-1.43086 2.17095-.9539.47695-2.23673.72365-3.85672.72365-2.7548 0-4.64617-.55096-5.66586-1.65288-.58385-.61675-.9539-1.65288-1.12659-3.11663zm6.29905-22.29337zm30.00682.4934c-1.52131-3.54424-3.74982-7.35985-6.67732-11.44683h-6.21681l1.768 3.23175c2.42588 4.45703 4.11166 9.11964 5.05734 13.99606.61674 3.19886.921 6.68554.921 10.46826 0 5.8961-.85522 11.32349-2.56566 16.27391-1.00325 2.9275-2.77948 6.68555-5.32048 11.27415h6.09347l2.05582-2.80415c1.33218-1.694 2.74658-4.21855 4.25145-7.57366 2.6808-5.99478 4.02119-11.89089 4.02119-17.69654 0-5.27936-1.13481-10.5176-3.388-15.72295z"/></svg>