<svg xmlns="http://www.w3.org/2000/svg" role="img" viewBox="-20.00 -20.00 1040.00 799.00"><title>ViruSafe (Bulgaria) logo</title><path fill="#fff" d="M.181 0h1000v600H.181z"/><path fill="#00966e" d="M.181 200h1000v400H.181z"/><path fill="#d62612" d="M.181 400h1000v200H.181z"/><path d="M168.97941 681.96192h12.99218l-20.40283 59.84375h-11.814l-20.23828-59.84375h13.35742l12.9917 45.43067zm29.94238 10.31202h-11.7334V681.5962h11.7334zm-11.7334 5.27832h11.7334v44.25341h-11.7334zm47.52197-1.03565q.22266.02124.99463.061v11.855q-1.09643-.12159-1.94873-.16211-.85254-.04029-1.38037-.04053-6.98364 0-9.37842 4.54688-1.34033 2.5576-1.33984 7.87646v21.15234h-11.65234v-44.25339h11.04345v7.71386a24.45573 24.45573 0 0 1 4.66895-6.04931 12.71059 12.71059 0 0 1 8.44433-2.72022c.21631 0 .39942.00684.54834.02002zm19.30518 1.03565v26.67382a14.02129 14.02129 0 0 0 .88867 5.68409q1.57543 3.36987 6.18067 3.36963 5.89746 0 8.08007-4.791a17.42874 17.42874 0 0 0 1.13086-6.86133v-24.07521h11.7334v44.25341h-11.24609v-6.25244q-.16186.20363-.80957 1.21826a8.13387 8.13387 0 0 1-1.53809 1.78614 16.05483 16.05483 0 0 1-5.24316 3.3291 17.832 17.832 0 0 1-5.93164.89355q-9.79687 0-13.19776-7.06445-1.90356-3.89794-1.90234-11.48975v-26.67382zm49.20654 25.78074a12.13574 12.13574 0 0 0 2.27979 6.13037q3.10913 3.69507 10.65381 3.69434a22.92747 22.92747 0 0 0 7.33691-.97413q5.34814-1.86693 5.34766-6.94238a5.11659 5.11659 0 0 0-2.61914-4.58789 28.42247 28.42247 0 0 0-8.30909-2.80127l-6.47851-1.42139q-9.55226-2.11009-13.124-4.5874-6.0498-4.14111-6.04931-12.95117a17.1993 17.1993 0 0 1 5.918-13.35742q5.9187-5.31811 17.38574-5.31885a26.66121 26.66121 0 0 1 16.33685 5.01419q6.76026 5.01489 7.08936 14.55518h-12.01709a8.56732 8.56732 0 0 0-4.82861-7.67334 16.54227 16.54227 0 0 0-7.44971-1.50244 14.1839 14.1839 0 0 0-7.90869 1.94873 6.167 6.167 0 0 0-2.95508 5.44043 5.13238 5.13238 0 0 0 2.91357 4.791 36.19218 36.19218 0 0 0 7.95069 2.47656l10.502 2.47657q6.90454 1.6245 10.35059 4.34423 5.35033 4.22243 5.35058 12.22022a17.17138 17.17138 0 0 1-6.34033 13.62109q-6.34058 5.42066-17.91211 5.42041-11.81837 0-18.58936-5.33886-6.77124-5.33863-6.771-14.67676zm63.03955-8.44481a18.29656 18.29656 0 0 0 4.62158-1.01513 3.48183 3.48183 0 0 0 2.49512-3.28858 3.88809 3.88809 0 0 0-1.91406-3.75537 12.09233 12.09233 0 0 0-5.61719-1.03515q-4.15648 0-5.88525 2.02978a8.3726 8.3726 0 0 0-1.646 4.06006h-11.165a16.932 16.932 0 0 1 3.26172-9.541q4.60767-5.84619 15.82129-5.84619a28.21329 28.21329 0 0 1 12.96631 2.88233q5.66748 2.88354 5.66748 10.88086v20.2998q0 2.11158.08154 5.11572a6.42272 6.42272 0 0 0 .68994 3.08545 4.14433 4.14433 0 0 0 1.70508 1.33985v1.70507H374.7587a12.86259 12.86259 0 0 1-.73095-2.51709q-.20363-1.177-.32471-2.67968a23.88611 23.88611 0 0 1-5.5542 4.42529 16.78086 16.78086 0 0 1-8.49414 2.15186 14.65574 14.65574 0 0 1-9.98438-3.43067q-3.94116-3.43066-3.94043-9.72363 0-8.16065 6.33936-11.81445 3.4768-1.98853 10.2251-2.8418zm7.0752 5.39991a12.79267 12.79267 0 0 1-2.24317 1.11621 18.97424 18.97424 0 0 1-3.10693.792l-2.63379.48682a17.34387 17.34387 0 0 0-5.31885 1.58349 5.285 5.285 0 0 0-2.73339 4.9126 5.13164 5.13164 0 0 0 1.66943 4.2832 6.34456 6.34456 0 0 0 4.06055 1.31934 12.09125 12.09125 0 0 0 6.98779-2.19238q3.19556-2.19215 3.31836-7.99805zm39.95068-38.87452q.89283.06079 2.436.18262v9.41944q-.97413-.12159-3.26807-.18262a3.76336 3.76336 0 0 0-3.167 1.01465 3.68362 3.68362 0 0 0-.87256 2.37549v3.73484h7.5918v8.16064h-7.5918v35.687h-11.4897v-35.687h-6.49609V697.958h6.3335v-2.8418q0-7.10449 2.3955-9.78467 2.51661-3.97851 12.13916-3.97851 1.09644-.00002 1.98926.06056zm38.21582 17.03467a18.00774 18.00774 0 0 1 7.64746 6.54688 21.75116 21.75116 0 0 1 3.52588 9.14892 56.54074 56.54074 0 0 1 .38135 8.78272h-32.23145q.26953 6.65918 4.62793 9.33789a11.74989 11.74989 0 0 0 6.37989 1.66455 8.986 8.986 0 0 0 8.80615-5.07471H462.454q-.4673 3.93823-4.28956 7.998-5.94653 6.45557-16.64941 6.45508a24.1218 24.1218 0 0 1-15.5874-5.44434q-6.75366-5.44482-6.75293-17.71728 0-11.499 6.09619-17.63526 6.096-6.13549 15.8252-6.13623a25.19566 25.19566 0 0 1 10.40724 2.07378zm-17.31006 9.9961a12.02517 12.02517 0 0 0-3.08252 6.84961h19.93457a9.65415 9.65415 0 0 0-3.08252-6.99268 10.14018 10.14018 0 0 0-6.8623-2.38574 9.17687 9.17687 0 0 0-6.90723 2.52881zm60.78125-16.37935a86.91524 86.91524 0 0 1 9.37891-16.07763h8.72857l-2.47657 4.54736a67.71809 67.71809 0 0 0-7.10547 19.6499 77.66149 77.66149 0 0 0-1.29882 14.69727 69.40416 69.40416 0 0 0 3.61328 22.85742 104.208 104.208 0 0 0 7.4707 15.834h-8.56641l-2.88281-3.938a52.807 52.807 0 0 1-5.96875-10.6372 60.57953 60.57953 0 0 1-5.64306-24.84717 55.113 55.113 0 0 1 4.75043-22.08595zm70.292-3.729a15.22762 15.22762 0 0 1 2.74609 9.13476 13.32154 13.32154 0 0 1-2.77148 8.81006 14.28907 14.28907 0 0 1-4.56348 3.41065 13.32714 13.32714 0 0 1 6.91211 5.27783 15.83188 15.83188 0 0 1 2.33105 8.76953 17.49942 17.49942 0 0 1-2.66406 9.541 16.47852 16.47852 0 0 1-11 7.71386 41.39205 41.39205 0 0 1-8.45605.812h-26.96485v-59.84377h28.9209q10.94532.1626 15.50977 6.37408zm-32.49414 4.01953v13.19477h14.54492a12.02025 12.02025 0 0 0 6.32812-1.48193q2.43018-1.48168 2.43164-5.25781 0-4.18066-3.21484-5.52149a22.54863 22.54863 0 0 0-7.07227-.93359zm0 23.10107v15.95557h14.52929a14.10868 14.10868 0 0 0 6.05957-1.05566q3.93311-1.94824 3.9336-7.47022 0-4.66845-3.8125-6.41455a15.12521 15.12521 0 0 0-5.98047-1.01514zm58.5039-17.90434v26.67382a14.0383 14.0383 0 0 0 .88867 5.68409q1.57617 3.36987 6.18067 3.36963 5.89891 0 8.08008-4.791a17.41839 17.41839 0 0 0 1.13183-6.86133v-24.07521H619.29v44.25341h-11.24614v-6.25244q-.16113.20363-.80859 1.21826a8.15114 8.15114 0 0 1-1.53907 1.78614 16.04479 16.04479 0 0 1-5.24316 3.3291 17.83 17.83 0 0 1-5.93066.89355q-9.79835 0-13.19825-7.06445-1.90283-3.89794-1.90234-11.48975v-26.67382zm51.07422 44.25341h-11.57031v-59.84375h11.57031zm33.17969-44.29394a13.89741 13.89741 0 0 1 6.81152 6.41455v-6.374h11.28711v41.98q0 8.56568-2.88281 12.91064-4.95411 7.46924-19.001 7.47022-8.48585 0-13.84375-3.32911a12.2829 12.2829 0 0 1-5.92773-9.94677h12.58593a5.20965 5.20965 0 0 0 1.583 2.92285q1.86768 1.58349 6.293 1.5835 6.252 0 8.36328-4.18165 1.37988-2.67993 1.38086-9.01318v-2.8418a14.11423 14.11423 0 0 1-3.57324 4.2627 14.36432 14.36432 0 0 1-8.97168 2.63916q-8.52685 0-13.62207-5.98877-5.09472-5.98755-5.09473-16.21924 0-9.86572 4.90625-16.585 4.90577-6.71923 13.90821-6.71924a15.21573 15.21573 0 0 1 5.79785 1.01514zm3.94043 31.72851q2.79052-3.06518 2.79-9.76416 0-6.293-2.64844-9.58154a8.64183 8.64183 0 0 0-7.09473-3.28857 8.36186 8.36186 0 0 0-8.36914 5.72461 20.37716 20.37716 0 0 0-1.21289 7.51074 17.20407 17.20407 0 0 0 1.293 6.86133 8.43225 8.43225 0 0 0 8.41016 5.60254 8.88327 8.88327 0 0 0 6.83204-3.06495zm42.48538-14.35205a18.29691 18.29691 0 0 0 4.62109-1.01513 3.48183 3.48183 0 0 0 2.49512-3.28858 3.88893 3.88893 0 0 0-1.91406-3.75537 12.091 12.091 0 0 0-5.61719-1.03515q-4.15722 0-5.88477 2.02978a8.35883 8.35883 0 0 0-1.64648 4.06006h-11.165a16.92833 16.92833 0 0 1 3.26172-9.541q4.6084-5.84619 15.82129-5.84619a28.21823 28.21823 0 0 1 12.9668 2.88233q5.66748 2.88354 5.667 10.88086v20.2998q0 2.11158.08105 5.11572a6.439 6.439 0 0 0 .69043 3.08545 4.14433 4.14433 0 0 0 1.70508 1.33985v1.70507h-12.58602a12.8599 12.8599 0 0 1-.73047-2.51709q-.20361-1.177-.32519-2.67968a23.87326 23.87326 0 0 1-5.55371 4.42529 16.77959 16.77959 0 0 1-8.49414 2.15186 14.65574 14.65574 0 0 1-9.98438-3.43067q-3.94042-3.43066-3.94043-9.72363 0-8.16065 6.33887-11.81445 3.47754-1.98853 10.22559-2.8418zm7.07519 5.39991a12.82646 12.82646 0 0 1-2.24316 1.11621 18.99574 18.99574 0 0 1-3.10742.792l-2.63379.48682a17.33992 17.33992 0 0 0-5.31836 1.58349 5.284 5.284 0 0 0-2.73438 4.9126 5.13185 5.13185 0 0 0 1.66993 4.2832 6.34549 6.34549 0 0 0 4.06054 1.31934 12.0927 12.0927 0 0 0 6.98828-2.19238q3.19483-2.19215 3.31836-7.99805zm46.22165-23.77149q.22266.02124.99512.061v11.855q-1.09571-.12159-1.94922-.16211-.85254-.04029-1.37988-.04053-6.9829 0-9.37891 4.54688-1.33885 2.5576-1.33984 7.87646v21.15234h-11.65137v-44.25339h11.043v7.71386a24.44369 24.44369 0 0 1 4.66895-6.04931 12.71059 12.71059 0 0 1 8.44433-2.72022q.32517 0 .54782.02002zm19.67188-4.24267h-11.7334V681.5962h11.7334zm-11.7334 5.27832h11.7334v44.25341h-11.7334zm40.4668 17.33593a18.29691 18.29691 0 0 0 4.62109-1.01513 3.48183 3.48183 0 0 0 2.49512-3.28858 3.88893 3.88893 0 0 0-1.91406-3.75537 12.091 12.091 0 0 0-5.61719-1.03515q-4.15723 0-5.88477 2.02978a8.35873 8.35873 0 0 0-1.64648 4.06006h-11.165a16.92826 16.92826 0 0 1 3.26172-9.541q4.60839-5.84619 15.82129-5.84619a28.21815 28.21815 0 0 1 12.96679 2.88233q5.66748 2.88354 5.667 10.88086v20.2998q0 2.11158.08105 5.11572a6.43886 6.43886 0 0 0 .69043 3.08545 4.14433 4.14433 0 0 0 1.70508 1.33985v1.70507h-12.58598a12.8599 12.8599 0 0 1-.73047-2.51709q-.20361-1.177-.32519-2.67968a23.87326 23.87326 0 0 1-5.55371 4.42529 16.77959 16.77959 0 0 1-8.49414 2.15186 14.65572 14.65572 0 0 1-9.98438-3.43067q-3.94042-3.43066-3.94043-9.72363 0-8.16065 6.33887-11.81445 3.47754-1.98853 10.22558-2.8418zm7.07519 5.39991a12.82681 12.82681 0 0 1-2.24316 1.11621 18.99574 18.99574 0 0 1-3.10742.792l-2.63379.48682a17.33992 17.33992 0 0 0-5.31836 1.58349 5.284 5.284 0 0 0-2.73438 4.9126 5.13182 5.13182 0 0 0 1.66993 4.2832 6.34549 6.34549 0 0 0 4.06054 1.31934 12.09272 12.09272 0 0 0 6.98828-2.19238q3.19484-2.19215 3.31836-7.99805zm35.37012-28.2231a55.20052 55.20052 0 0 1 4.74219 22.08594 60.66556 60.66556 0 0 1-5.63379 24.84717 52.80581 52.80581 0 0 1-5.958 10.6372l-2.87695 3.938h-8.55176a104.56593 104.56593 0 0 0 7.44336-15.834 69.68751 69.68751 0 0 0 3.59961-22.85742 78.08 78.08 0 0 0-1.29395-14.69727 67.91118 67.91118 0 0 0-7.0791-19.6499l-2.46777-4.54736h8.71387a87.08624 87.08624 0 0 1 9.36229 16.07764z"/></svg>