<svg xmlns="http://www.w3.org/2000/svg" role="img" viewBox="-53.95 -51.45 2602.90 2675.40"><title>Xamarin Exposure Notification logo</title><path fill="#3498db" d="M720.45583.21875c-67.51955.14648-133.61327 38.47656-167.59768 96.94336L24.20585 1015.4824c-33.46679 58.623-33.46679 135.25389 0 193.87692l528.65234 918.3301c33.98437 58.46679 100.07809 96.80659 167.59764 96.94338h1057.30474c67.51954-.14648 133.61335-38.47659 167.59768-96.94338l528.65237-918.3301c33.46667-58.623 33.45713-135.25389 0-193.87692L1945.35825 97.16211C1911.37377 38.68555 1845.28011.35547 1777.76057.21875zm9.59963 537.23633a22.42078 22.42078 0 0 1 4.43361 0h182.36332a24.043 24.043 0 0 1 19.9414 11.836L1246.159 1100.5801a23.51213 23.51213 0 0 1 2.92971 8.88675 23.89228 23.89228 0 0 1 2.94917-8.88675l308.623-551.28906a24.12106 24.12106 0 0 1 20.67387-11.836h182.37308c16.14258.13672 28.24217 20.47852 20.67387 34.7754l-301.98246 540.1953 301.98251 539.45326c8.28132 14.375-4.10154 35.65431-20.67387 35.51752H1581.3348a24.12122 24.12122 0 0 1-20.67387-12.57807l-308.623-551.29886a23.654 23.654 0 0 1-2.93948-8.87692 23.73049 23.73049 0 0 1-2.93948 8.88676l-309.375 551.289a24.10133 24.10133 0 0 1-19.92189 12.57807H734.47931c-16.57225.14648-28.955-21.14251-20.67379-35.51752l301.98238-539.45317-301.98246-540.19537c-7.2363-13.04686 1.59182-31.99219 16.24025-34.77539z"/><path d="M47.03536 2539.4502H17.28975l39.38425-62.4004-37.47364-60.07324h30.57718l21.84326 39.88574 22.44288-39.88574h29.58007l-37.47314 59.07617 39.79932 63.39747h-31.0752l-23.27148-41.75977zm127.89209-55.0879a37.4609 37.4609 0 0 0 9.458-2.07714q5.10572-2.16065 5.106-6.73047 0-5.56641-3.917-7.68555-3.91553-2.11964-11.4961-2.11914-8.50633 0-12.04394 4.1543a17.13253 17.13253 0 0 0-3.36914 8.30957h-22.84915q.74926-11.88135 6.67529-19.52637 9.42993-11.96484 32.37891-11.96484 14.937 0 26.53662 5.89941 11.59863 5.90039 11.59863 22.26758v41.54492q0 4.32129.1665 10.46875.249 4.65528 1.4126 6.31543a8.47513 8.47513 0 0 0 3.48926 2.74219v3.48926h-25.75732a26.275 26.275 0 0 1-1.49561-5.15137q-.41674-2.40968-.66455-5.48438a48.87777 48.87777 0 0 1-11.3667 9.05664 34.349 34.349 0 0 1-17.38379 4.4043q-12.36987 0-20.4331-7.02148-8.06618-7.01953-8.065-19.89942 0-16.70069 12.97364-24.17871 7.11548-4.0708 20.92675-5.8164zm14.47949 11.05079a26.23284 26.23284 0 0 1-4.59033 2.28515 38.95032 38.95032 0 0 1-6.35889 1.62012l-5.39063.99707q-7.57909 1.33008-10.88476 3.24023a10.81524 10.81524 0 0 0-5.59424 10.05372q0 6.06591 3.417 8.76562a12.98414 12.98414 0 0 0 8.31055 2.70117 24.74884 24.74884 0 0 0 14.30029-4.4873q6.53907-4.48682 6.791-16.36817zm157.28955-46.19727a26.33412 26.33412 0 0 1 10.55224 8.14258 26.03593 26.03593 0 0 1 5.15137 11.63183 80.49745 80.49745 0 0 1 .83106 13.37793l-.16651 57.082h-24.26172v-57.66407a18.93252 18.93252 0 0 0-1.66211-8.47461q-3.15819-6.31347-11.63232-6.31543-9.80493 0-13.54346 8.14356a25.55816 25.55816 0 0 0-1.91113 10.38574v53.92481h-23.84668v-53.92481q0-8.05811-1.66162-11.71582-2.99121-6.5625-11.71533-6.56348-10.13819 0-13.627 6.56348-1.91235 3.73974-1.91113 11.13379v54.50684H233.2795v-90.40137h23.01562v13.21191q4.40332-7.062 8.30908-10.05371 6.89576-5.31738 17.86426-5.31836 10.38574 0 16.78418 4.57031a26.59688 26.59688 0 0 1 7.81006 10.88477 30.09753 30.09753 0 0 1 11.54932-11.71582 35.24882 35.24882 0 0 1 16.28564-3.73926 31.5324 31.5324 0 0 1 11.79883 2.32719zm74.1748 35.14648a37.4609 37.4609 0 0 0 9.458-2.07714q5.10572-2.16065 5.106-6.73047 0-5.56641-3.917-7.68555-3.91554-2.11964-11.4961-2.11914-8.50635 0-12.04394 4.1543a17.13253 17.13253 0 0 0-3.36914 8.30957H381.76q.74928-11.88135 6.6753-19.52637 9.42993-11.96484 32.3789-11.96484 14.937 0 26.53663 5.89941 11.59863 5.90039 11.59863 22.26758v41.54492q0 4.32129.1665 10.46875.249 4.65528 1.4126 6.31543a8.47513 8.47513 0 0 0 3.48926 2.74219v3.48926h-25.75737a26.2749 26.2749 0 0 1-1.4956-5.15137q-.41675-2.40968-.66455-5.48438a48.87777 48.87777 0 0 1-11.3667 9.05664 34.349 34.349 0 0 1-17.38379 4.4043q-12.36987 0-20.43311-7.02148-8.06616-7.01953-8.06494-19.89942 0-16.70069 12.97363-24.17871 7.11549-4.0708 20.92676-5.8164zm14.4795 11.05079a26.23258 26.23258 0 0 1-4.59034 2.28515 38.94988 38.94988 0 0 1-6.35888 1.62012l-5.39063.99707q-7.57909 1.33008-10.88476 3.24023a10.81524 10.81524 0 0 0-5.59424 10.05372q0 6.06591 3.417 8.76562a12.98412 12.98412 0 0 0 8.31055 2.70117 24.74887 24.74887 0 0 0 14.30029-4.4873q6.53906-4.48682 6.791-16.36817zm94.59863-48.64844q.45557.04248 2.03564.124v24.2627q-2.2434-.25049-3.98828-.333-1.74462-.082-2.82519-.083-14.29176 0-19.19336 9.30567-2.74219 5.23534-2.74219 16.12011v43.28907h-23.84619v-90.56739H501.99v15.78711q5.48364-9.05566 9.55517-12.37988 6.64673-5.56641 17.28272-5.56738.66352 0 1.12153.04199zm40.25683-8.68365h-24.01269v-21.85156h24.01269zm-24.01269 10.80176h24.01269v90.56739h-24.01269zm119.97705 5.19341q8.8938 7.35353 8.894 24.38672v60.98731h-24.26168v-55.0879q0-7.1455-1.897-10.96777-3.46655-6.98-13.19678-6.97949-11.96118 0-16.41406 10.21973-2.30932 5.40234-2.30957 13.793v49.02247h-23.68063v-90.40137h22.93261v13.21191q4.54982-6.98 8.605-10.05371 7.27954-5.48437 18.45118-5.48437 13.98192-.00004 22.87693 7.35347zm170.66797-15.41308H772.0295v26.00683h59.4917v21.27051h-59.4917v31.49121h67.80029v22.01856h-92.81055v-122.47364h89.81934zm12.00683 100.78711l30.90918-45.86524-29.57959-44.53613h28.99805l15.12988 26.2334 14.78223-26.2334h28.167l-29.7456 44.12109 30.90918 46.28028h-29.49708l-15.58692-27.22852-15.7373 27.22852zm179.8169-80.84571q11.08082 11.71582 11.08057 34.39844 0 23.92968-10.83008 36.47656-10.8296 12.54786-27.88965 12.54688-10.87207 0-18.064-5.40137a34.89419 34.89419 0 0 1-7.69336-8.72461v47.19531h-23.43112v-126.21289h22.68311v13.37793a38.12833 38.12833 0 0 1 8.19482-9.30664 30.23993 30.23993 0 0 1 18.89893-6.06543 35.81521 35.81521 0 0 1 27.05078 11.71582zm-18.17481 17.03321q-4.82739-8.05812-15.65429-8.05958-13.01221 0-17.87989 12.21387-2.51952 6.48193-2.51855 16.45215 0 15.78661 8.47119 22.18457a19.44693 19.44693 0 0 0 11.92188 3.73926q9.99022 0 15.23925-7.64453 5.24634-7.64357 5.24756-20.35645a35.36928 35.36928 0 0 0-4.82715-18.52929zm121.48438 52.73339q-11.4668 14.15332-34.81445 14.15332-23.34961 0-34.81446-14.15332-11.46606-14.15478-11.46631-34.08007 0-19.59083 11.46631-33.95313 11.46608-14.36278 34.81446-14.36328 23.34741 0 34.81445 14.36328 11.46606 14.36133 11.46582 33.95313 0 19.92627-11.46582 34.08007zm-18.94434-13.08789q5.56568-7.38427 5.5669-20.99218 0-13.60548-5.5669-20.94825-5.56786-7.3418-15.95312-7.34375-10.38793 0-15.99463 7.34375-5.60889 7.34179-5.60889 20.94825 0 13.60839 5.60889 20.99218 5.60815 7.38427 15.99463 7.38282 10.38501-.00002 15.95312-7.38282zm65.72315-4.74804q.75145 6.31494 3.25586 8.97363 4.42455 4.73585 16.36377 4.73633 7.0122 0 11.1455-2.07715 4.13233-2.07568 4.13233-6.23242a6.71891 6.71891 0 0 0-3.32861-6.06543q-3.33033-2.07568-24.77393-7.14551-15.43653-3.82032-21.751-9.55469-6.31568-5.6499-6.31494-16.28613 0-12.54492 9.86719-21.56152 9.86718-9.01466 27.76953-9.01465 16.98559 0 27.68555 6.77148 10.69922 6.77344 12.2832 23.38965h-23.68064a13.99884 13.99884 0 0 0-2.582-7.22852q-3.91845-4.81786-13.332-4.81933-7.74828 0-11.03906 2.40918-3.29077 2.41113-3.291 5.65039a6.17812 6.17812 0 0 0 3.5 5.89941q3.49731 1.91163 24.72412 6.56348 14.14965 3.3252 21.21386 10.05371a22.82948 22.82948 0 0 1 6.9795 17.03418 27.4971 27.4971 0 0 1-10.03321 21.97656q-10.03271 8.51661-31.01172 8.5166-21.3977 0-31.5957-9.01464a29.30139 29.30139 0 0 1-10.19922-22.97461zm99.87353-61.65235v54.58985q0 7.727 1.81836 11.63281 3.22559 6.89648 12.64942 6.89648 12.0703 0 16.53613-9.80468 2.313-5.3174 2.31445-14.042v-49.27246h24.0127v90.56739h-23.01563v-12.7959q-.33105.41748-1.65625 2.49316a16.6613 16.6613 0 0 1-3.14844 3.65527 32.85124 32.85124 0 0 1-10.73046 6.81348 36.50216 36.50216 0 0 1-12.13868 1.82813q-20.05077 0-27.01074-14.457-3.89355-7.97752-3.89355-23.51464v-54.58985zm130.65723-2.11816q.45557.04248 2.03613.124v24.2627q-2.24413-.25049-3.98828-.333-1.74609-.082-2.82519-.083-14.29248 0-19.19434 9.30567-2.74073 5.23534-2.74121 16.12011v43.28907h-23.84668v-90.56739h22.59961v15.78711q5.48438-9.05566 9.55566-12.37988 6.646-5.56641 17.28223-5.56738.66504 0 1.12207.04199zm74.92773 3.95312a36.84032 36.84032 0 0 1 15.65039 13.39746 44.50365 44.50365 0 0 1 7.21582 18.72364 115.66571 115.66571 0 0 1 .78028 17.97461h-65.96192q.55078 13.6289 9.47071 19.11035a24.04648 24.04648 0 0 0 13.05664 3.40722q8.0918 0 13.14844-4.15429a19.91728 19.91728 0 0 0 4.874-6.23242h24.17676q-.95655 8.061-8.7793 16.36914-12.16846 13.21142-34.07324 13.21093a49.36722 49.36722 0 0 1-31.90039-11.14257q-13.8208-11.14308-13.82032-36.25977 0-23.53272 12.47657-36.09082 12.4746-12.55663 32.38672-12.55762a51.56018 51.56018 0 0 1 21.29884 4.24414zm-35.42578 20.45606q-5.02 5.17528-6.30859 14.01953h40.79687q-.646-9.4292-6.30761-14.31152a20.75739 20.75739 0 0 0-14.04493-4.88282q-9.11865-.00002-14.13574 5.17481zm119.82227-54.19727h26.82812L1644.05 2502.374v-85.39746h23.84668v122.47366h-25.58593l-49.85938-86.89942v86.89942h-23.8457zm196.9209 111.39453q-11.4668 14.15332-34.81446 14.15332-23.3496 0-34.81445-14.15332-11.4668-14.15478-11.4668-34.08007 0-19.59083 11.4668-33.95313 11.46679-14.36278 34.81445-14.36328 23.34669 0 34.81446 14.36328 11.46533 14.36133 11.46582 33.95313 0 19.92627-11.46582 34.08007zm-18.94434-13.08789q5.56494-7.38427 5.56641-20.99218 0-13.60548-5.56641-20.94825-5.56786-7.3418-15.95312-7.34375-10.38721 0-15.99512 7.34375-5.60742 7.34179-5.6084 20.94825 0 13.60839 5.6084 20.99218 5.60889 7.38427 15.99512 7.38282 10.38573-.00002 15.95312-7.38282zm38.05469-48.7022v-16.86718h12.6289v-25.25879h23.43164v25.25879h14.707v16.86718h-14.707v47.85938q0 5.56786 1.41211 6.9375 1.41211 1.37109 8.64161 1.37109 1.07813 0 2.28515-.041 1.20264-.041 2.36817-.125v17.69824l-11.21778.415q-16.78417.58008-22.93261-5.81641-3.98732-4.06933-3.98829-12.5459v-55.7529zm90.31738-28.5h-24.01269v-21.85156h24.01269zm-24.01269 10.80176h24.01269v90.56739h-24.01269zm84.41894-33.02729q1.82666.12451 4.98535.374v19.27637q-1.99512-.249-6.68945-.374-4.69482-.12451-6.48047 2.07714a7.53673 7.53673 0 0 0-1.78613 4.86036v7.64453h15.53715v16.70113h-15.53711v73.03516h-23.51469V2466.415h-13.29395v-16.70117h12.96192v-5.81641q0-14.53857 4.90234-20.02441 5.1504-8.14161 24.84375-8.14258 2.24268.00004 4.07129.12504zm43.53809 22.22553h-24.0127v-21.85156h24.0127zm-24.0127 10.80176h24.0127v90.56739h-24.0127zm101.11914 32.48833a20.97962 20.97962 0 0 0-3.41406-9.13964q-4.00048-5.48437-12.41016-5.48438-11.9956 0-16.40918 11.88184-2.332 6.30028-2.33105 16.74121 0 9.94774 2.33105 15.99609 4.248 11.30127 15.99219 11.29981 8.32911 0 11.82715-4.48633a22.30209 22.30209 0 0 0 4.24805-11.63281h24.17871a39.61628 39.61628 0 0 1-7.81739 20.44042q-11.14746 15.5376-33.01953 15.53711-21.8745 0-32.1875-12.96191-10.314-12.9624-10.31347-33.6123 0-23.30274 11.39355-36.26563 11.39355-12.9624 31.44043-12.96191 17.04931 0 27.90332 7.64453 10.853 7.645 12.85059 27.0039zm76.33592 2.99121a37.461 37.461 0 0 0 9.458-2.07714q5.10643-2.16065 5.10644-6.73047 0-5.56641-3.917-7.68555-3.917-2.11964-11.49609-2.11914-8.50635 0-12.04395 4.1543a17.12322 17.12322 0 0 0-3.36914 8.30957h-22.84961q.75-11.88135 6.67578-19.52637 9.42921-11.96484 32.37891-11.96484 14.93555 0 26.53613 5.89941 11.59863 5.90039 11.59863 22.26758v41.54492q0 4.32129.166 10.46875.25048 4.65528 1.41309 6.31543a8.4751 8.4751 0 0 0 3.48925 2.74219v3.48926h-25.75781a26.33915 26.33915 0 0 1-1.49512-5.15137q-.41748-2.40968-.665-5.48438a48.85478 48.85478 0 0 1-11.36622 9.05664 34.34764 34.34764 0 0 1-17.38378 4.4043q-12.36915 0-20.4336-7.02148-8.06543-7.01953-8.06445-19.89942 0-16.70069 12.97363-24.17871 7.11621-4.0708 20.92676-5.8164zm14.47949 11.05079a26.23618 26.23618 0 0 1-4.59082 2.28515 38.92846 38.92846 0 0 1-6.3584 1.62012l-5.39062.99707q-7.57911 1.33008-10.88477 3.24023a10.81573 10.81573 0 0 0-5.59375 10.05372q0 6.06591 3.417 8.76562a12.98139 12.98139 0 0 0 8.30957 2.70117 24.75037 24.75037 0 0 0 14.30079-4.4873q6.53906-4.48682 6.791-16.36817zm34.98244-28.83209v-16.86718h12.62891v-25.25879h23.43164v25.25879h14.707v16.86718h-14.707v47.85938q0 5.56786 1.41211 6.9375 1.41212 1.37109 8.6416 1.37109 1.07813 0 2.28516-.041 1.20264-.041 2.36816-.125v17.69824l-11.21777.415q-16.78417.58008-22.93262-5.81641-3.9873-4.06933-3.98828-12.5459v-55.7529zm90.31641-28.5h-24.0127v-21.85156h24.0127zm-24.0127 10.80176h24.0127v90.56739h-24.0127zm122.47461 79.48833q-11.4668 14.15332-34.81445 14.15332-23.34961 0-34.81445-14.15332-11.46679-14.15478-11.4668-34.08007 0-19.59083 11.4668-33.95313 11.46679-14.36278 34.81445-14.36328 23.34668 0 34.81445 14.36328 11.46534 14.36133 11.46582 33.95313 0 19.92627-11.46582 34.08007zm-18.94433-13.08789q5.56494-7.38427 5.5664-20.99218 0-13.60548-5.5664-20.94825-5.56788-7.3418-15.95313-7.34375-10.3872 0-15.99511 7.34375-5.60744 7.34179-5.6084 20.94825 0 13.60839 5.6084 20.99218 5.60887 7.38427 15.99511 7.38282 10.38575-.00002 15.95313-7.38282zm120.3916-61.20703q8.89453 7.35353 8.89453 24.38672v60.98731h-24.26172v-55.0879q0-7.1455-1.89648-10.96777-3.46729-6.98-13.19727-6.97949-11.96044 0-16.41406 10.21973-2.31006 5.40234-2.30957 13.793v49.02247h-23.68066v-90.40137h22.93261v13.21191q4.54981-6.98 8.60547-10.05371 7.27881-5.48437 18.4502-5.48437 13.98343-.00004 22.87695 7.35347z"/></svg>