<svg xmlns="http://www.w3.org/2000/svg" role="img" viewBox="8.50 214.50 624.00 227.50"><title>ASTHO logo</title><style>svg {enable-background:new 0 0 652 652}</style><style>.st0{fill:#e45f06}.st1{fill:#004c78}</style><path d="M58.2 427c-21.1 0-36.3-11.5-37.6-31.5l-.1-1.2v-3.4c1.3-20 16.5-31.5 37.6-31.5h42c-1.2-18.2-20.1-25.3-35.6-26.1H29.3v-25.1h35.2c35.9.9 62.1 21.5 62.1 55.2V427H58.2m42-42.7H61.5c-9.5 0-13.4 3.3-13.5 10 .2 6.7 4 7.8 13.5 7.8h38.7v-17.8z" class="st0"/><path d="M574.2 368.6c0 36.5-28.9 61.7-61.7 61.7-32.8 0-61.5-25.2-61.5-61.7s28.6-61.7 61.5-61.7c32.8 0 61.7 25.1 61.7 61.7m-27.1 0c0-21.6-14.5-36.6-34.6-36.6s-34.6 15-34.6 36.6 14.5 36.6 34.6 36.6c20 0 34.6-15 34.6-36.6zM242 393.9c0-42.8-72.1-35.7-72.1-52.3 0-7.4 6-7.1 11.4-7.1h55v-25.1h-51.4c-27.2 0-41.9 12.9-41.9 33.1 0 41.3 71.6 34.7 71.6 52.3 0 7.1-3.8 8.3-13.6 8.3h-57.9V428h61.2c22.1.1 37.7-12.4 37.7-34.1m79.9 34.3l.2-25h-25.6c-9.4 0-15.2-.9-15.2-11.6v-57.2h40.4v-24.9h-40.4v-28.8h-25.9V389c0 23.9 12.5 39.2 36.9 39.2h29.6m118-.1v-68.9c0-38.5-22-52.1-48.4-52.1-12.1 0-21.1 3.4-27.5 9.1v-53.7h-26v165.7h26v-68.9c0-16.4 12.6-27.1 26.6-27.1 13.1 0 23.5 7.2 23.5 27.1v68.9h25.8" class="st1"/><path d="M340.2 248.7s-116.8-34.8-211.3 62.5c0 0-18-26.9-70.9-23.8 151-108.7 304.6-38.7 304.6-38.7h-22.4" class="st0"/><path d="M585.8 329.7c-2.6.2-3.8-.9-3.8-3.7v-7h3.6v-4.5H582v-5.1h-5.1v5.1h-2.4v4.5h2.4v7c0 5.5 3.1 9 8.9 8.4v-4.7m34.8-7c0-5.2-3.1-8.8-8.4-8.8-2.6 0-4.6 1.1-6.1 2.8-1.4-1.8-3.5-2.8-6-2.8-2.2 0-3.9.9-5.2 2.4v-1.9H590v19.9h5.2v-11.7c0-2.2 1.6-3.9 3.8-3.9 3.4 0 3.7 2.8 3.7 3.9v11.7h5.1v-11.7c0-2.2 1.6-3.9 3.9-3.9 3.3 0 3.7 2.8 3.7 3.9v11.7h5.1v-11.6" class="st1"/></svg>