<svg xmlns="http://www.w3.org/2000/svg" role="img" viewBox="0.46 0.96 938.08 255.08"><defs><clipPath id="a"><path fill="none" d="M27.744 103.439h165.108v130.182H27.744z"/></clipPath></defs><path fill="#fc0" d="M166.52079 99.58294a25.27155 25.27155 0 1 0-.2499.00122q.12495.00002.2499-.00122z"/><path fill="#d2e4f4" d="M18.87739 23.73013h174.94717v173.975H18.87739z"/><path fill="#fed147" d="M146.92721 61.90344a20.01655 20.01655 0 0 1 20.23863 19.792q.003.27276-.00135.54551a20.2877 20.2877 0 0 1-40.57479-.10019 20.07759 20.07759 0 0 1 19.91551-20.23835q.211-.0017.422.001z"/><g clip-path="url(#a)"><path fill="#43af5a" d="M14.43321 123.137V49.02365c0-9.37519 4.11647-13.12527 14.40764-13.12527H191.8747c9.74954 0 13.75766 3.5527 13.866 12.43447q.16253 74.45877 0 148.91754c0 8.98049-4.44147 12.9279-14.40764 12.9279-54.38072.09871-108.65313 0-163.03385 0-9.31622 0-13.866-4.24351-13.866-12.63183zm95.76207-75.00153c-25.67378 0-51.34755.09871-76.913-.09872-3.89981 0-5.63306.78949-5.63306 4.73694.10833 33.652.10833 67.20535.10833 100.85733 0 1.4803-.7583 3.454 1.29993 4.14484 1.73325.69079 2.81653-.98688 4.00814-1.77635 15.92424-11.74364 31.84847-23.38865 47.66439-35.231 2.92486-2.17109 4.87476-2.17109 7.583.39475 10.72449 10.066 21.88228 19.83594 32.71509 29.80325 2.27488 2.1711 4.11647 2.1711 6.608.39475 5.958-4.3422 12.13273-8.38836 17.98247-12.82923 3.14151-2.36847 5.52473-2.26979 8.66621-.09871 10.83281 7.40146 21.774 14.60558 32.82342 21.80968 1.29993.88818 2.59986 2.66452 4.44147 1.875s1.19161-2.76321 1.19161-4.34219q0-52.40241.10833-104.7061c0-4.04614-1.29992-5.13169-5.633-5.13169-25.67377.19736-51.34754.19736-77.02131.19736z"/></g><path d="M259.74 108.51257h-13.36771v100.846h61.15934v-10.87321h-47.79158v-89.97279zm118.024 48.83059q-.27765-11.35874-7.61945-17.83584-7.34172-6.47507-20.29285-6.47609a36.35394 36.35394 0 0 0-14.99663 3.047 27.19134 27.19134 0 0 0-10.80528 8.2773 17.6807 17.6807 0 0 0-3.98253 10.83975h12.88323q0-4.91613 4.6414-8.3807a18.68415 18.68415 0 0 1 11.49659-3.46357q7.82722 0 11.84426 3.98355 4.016 3.98355 4.017 10.69988v5.88821h-12.46763q-16.139 0-25.03765 6.47608-8.9007 6.47715-8.89967 18.18147a20.27661 20.27661 0 0 0 7.09844 15.89576q7.09945 6.26828 18.18147 6.26726a28.58541 28.58541 0 0 0 21.33285-9.28081q.69234 5.68139 1.80123 7.89617h13.43668v-1.10888q-2.6324-6.09292-2.6314-16.41471zm-12.8143 31.02927a18.85857 18.85857 0 0 1-7.82523 8.10295 22.52287 22.52287 0 0 1-11.42969 3.11792 15.43142 15.43142 0 0 1-10.31975-3.39566 11.66171 11.66171 0 0 1-4.017-9.41864q0-13.7823 23.54965-13.78332h10.042zm67.8777-55.34112a27.30718 27.30718 0 0 0-22.44178 10.80529l-.41558-9.41966H397.8511v74.94171h12.81226v-53.4a22.57374 22.57374 0 0 1 7.34273-8.72735 18.49483 18.49483 0 0 1 10.94314-3.32474q7.68835 0 11.3253 3.87918 3.63585 3.8802 3.70584 11.98211v49.59184h12.81226v-49.522q-.20679-26.80544-23.96424-26.80542zm90.5952 9.00405q-7.68843-9.00405-20.84737-9.00405a25.84342 25.84342 0 0 0-21.40277 10.4931q-8.1739 10.49309-8.1729 27.74v.969q0 17.18 8.20837 27.84441 8.2074 10.66641 21.22847 10.66541 13.71444 0 21.40178-9.41966l.6234 8.035h11.77535V102.97106H523.4226zm0 46.8905Q517.81317 199.872 505.62322 199.87a17.01272 17.01272 0 0 1-14.5456-7.20286q-5.26473-7.20288-5.26376-19.94824 0-14.26782 5.26376-21.54065 5.26179-7.27278 14.68344-7.2728 11.91114 0 17.66148 10.59749zm77.43627-17.73042a69.16042 69.16042 0 0 0-15.54911-5.12593q-9.595-2.14484-13.26433-4.50152a7.77042 7.77042 0 0 1-3.67031-6.99608 9.59287 9.59287 0 0 1 3.947-7.96509q3.94815-3.047 10.94414-3.048a16.74313 16.74313 0 0 1 11.25534 3.81023 11.56772 11.56772 0 0 1 4.46705 9.073h12.88323a20.90109 20.90109 0 0 0-7.93059-16.83031q-7.93263-6.57946-20.675-6.58049-12.122 0-19.91278 6.37273-7.79285 6.37272-7.79278 15.58455a16.56324 16.56324 0 0 0 2.73682 9.55853 21.96888 21.96888 0 0 0 8.44961 6.92512 64.53134 64.53134 0 0 0 15.44567 4.987q9.72987 2.078 13.6445 4.95259a9.437 9.437 0 0 1 3.91255 8.06851 9.04564 9.04564 0 0 1-4.39715 7.8617q-4.39923 2.94462-11.67092 2.94359-7.89612 0-12.7099-3.77474a13.26156 13.26156 0 0 1-5.1594-10.21637h-12.81526a21.44618 21.44618 0 0 0 3.91366 12.36325 25.89408 25.89408 0 0 0 10.83976 8.89969 37.74735 37.74735 0 0 0 15.93021 3.18684q12.81228 0 20.84831-6.06049a19.178 19.178 0 0 0 8.034-16.10353 17.63316 17.63316 0 0 0-2.87364-10.21643 22.68648 22.68648 0 0 0-8.83176-7.16839zm43.25356-20.60614q5.36613-7.02951 15.13447-7.03053a17.13052 17.13052 0 0 1 12.22436 4.67587 17.66364 17.66364 0 0 1 5.506 11.94769h12.12109q-.5553-12.05106-8.89967-19.60054-8.34729-7.5495-20.9517-7.55053a32.75769 32.75769 0 0 0-17.76586 4.71037 30.59149 30.59149 0 0 0-11.53206 13.22788 45.11476 45.11476 0 0 0-4.018 19.46372v2.14686q0 17.73141 9.03958 27.9478 9.03757 10.21738 24.34535 10.21536a31.48915 31.48915 0 0 0 14.44216-3.46256 29.20564 29.20564 0 0 0 10.90767-9.2808 23.24692 23.24692 0 0 0 4.43257-12.25883h-12.121a14.62367 14.62367 0 0 1-5.67837 10.3887 18.45831 18.45831 0 0 1-11.98317 4.15592q-9.90618 0-15.23791-6.99506-5.33466-6.99505-5.33268-19.94821v-2.42461q0-13.29779 5.36717-20.32832zm116.466 6.75383q-.27765-11.35874-7.61951-17.83581-7.34168-6.47507-20.29288-6.47609a36.35387 36.35387 0 0 0-14.99566 3.047 27.18249 27.18249 0 0 0-10.80528 8.2773 17.68221 17.68221 0 0 0-3.98356 10.83975h12.88323q0-4.91613 4.64138-8.3807a18.68534 18.68534 0 0 1 11.49758-3.46357q7.82622 0 11.84326 3.98355t4.018 10.69988v5.88822h-12.46742q-16.13907 0-25.03869 6.47609-8.89969 6.47712-8.89967 18.18147a20.27672 20.27672 0 0 0 7.09949 15.89575q7.09861 6.2683 18.18045 6.26726a28.58735 28.58735 0 0 0 21.33384-9.2808q.69029 5.68135 1.80117 7.89617h13.43668v-1.10889q-2.63353-6.09293-2.63239-16.4147zm-12.81229 31.02923a18.86563 18.86563 0 0 1-7.82727 8.103 22.52218 22.52218 0 0 1-11.42867 3.11793 15.4325 15.4325 0 0 1-10.3208-3.39567 11.6618 11.6618 0 0 1-4.016-9.41865q0-13.78236 23.54861-13.78333h10.04308zm66.97562-55.34113q-13.92124 0-21.74842 9.6974l-.6234-8.31176h-11.7054V238.172h12.81433v-36.08524q7.82508 8.65843 21.47071 8.65639 13.36681 0 21.195-10.45762 7.8251-10.45764 7.82622-27.56667V171.542q-.00017-18.146-7.86169-28.32993-7.86186-10.18089-21.36733-10.18091zm10.97763 59.94706a17.31988 17.31988 0 0 1-14.649 7.30828q-11.84216 0-17.59153-10.25185v-35.80951q5.81816-10.31977 17.45367-10.32078a17.40383 17.40383 0 0 1 14.82226 7.34172q5.40282 7.34273 5.40265 20.01713 0 14.40769-5.43812 21.714zm64.034-59.947a29.94945 29.94945 0 0 0-16.588 4.95259 33.21732 33.21732 0 0 0-11.91328 13.71436 44.97451 44.97451 0 0 0-4.26028 19.91276v2.35466q.00009 16.76239 9.55855 26.77 9.55845 10.00959 24.79645 10.00761 18.83917 0 28.25795-14.47463l-7.82517-6.095a28.87385 28.87385 0 0 1-8.24284 7.34172 22.31964 22.31964 0 0 1-11.49764 2.7703 20.356 20.356 0 0 1-15.75792-6.82172q-6.19839-6.82167-6.47505-17.90476h50.76964v-5.33371q0-17.93821-8.105-27.56668-8.10195-9.62743-22.71745-9.62744zm18.0081 31.99931h-37.53974q1.24665-10.18191 6.51052-15.8258a17.094 17.094 0 0 1 13.0211-5.64595q8.03293 0 12.74437 5.36819 4.70911 5.36919 5.26379 15.13349z" style="isolation:isolate" fill="#666" opacity=".8"/><path fill="#009ade" d="M57.16476 171.96876V95.5423h-38.2875v114.647h114.69406v-38.22054z"/><path fill="#003764" d="M209.97513 19.057H18.90262v57.33519h38.2078V57.44408h114.65873v114.52468h-19.083v38.22049h57.28906z"/><path fill="#474747" d="M246.307 22.95h18.101v43.719h26.014v15.134h-44.115V22.95zm51.731 0h45.401v15.035h-27.3v7.418h23.344v14.046h-23.344v22.453h-18.2V22.95h.099zm95.84649 16.81522c0 5.638-1.87933 9.99015-5.73692 13.05644s-9.29776 4.55-16.32055 4.55h-9.09993v24.2335h-4.15432v-58.655h14.3423c13.94663-.00005 20.96942 5.63796 20.96942 16.81506zm-31.25632 14.04556h8.11083c6.62713 0 11.37493-1.088 14.3423-3.26411s4.45106-5.73692 4.45106-10.58362q0-6.67659-4.15432-10.08907c-2.76955-2.275-7.12169-3.26411-12.95753-3.26411h-9.69342l-.0989 27.20091zm85.55922-30.86067v37.29c0 6.62713-1.97825 11.86948-5.73691 15.52924-3.75866 3.75867-9.19884 5.638-16.02382 5.638-6.72605 0-11.96841-1.87934-15.62816-5.638s-5.638-9.001-5.638-15.62816V22.95011h4.05541v37.29c0 5.53909 1.5826 9.89123 4.64888 12.95752s7.41843 4.64888 13.05643 4.64888c5.44018 0 9.6934-1.48368 12.75969-4.55 2.96738-3.06628 4.55-7.2206 4.55-12.66078V22.95011zm11.37492 0h16.02382c7.22059 0 12.56188 1.187 16.02382 3.65976s5.14345 6.13257 5.14345 11.07819a11.65645 11.65645 0 0 1-3.1652 8.40755c-2.07717 2.275-5.14346 3.75867-9.1 4.35215v.19782q6.97335 1.03858 10.38581 4.45106c2.17608 2.275 3.26409 5.44018 3.26409 9.39668 0 5.44018-1.78041 9.5945-5.44018 12.463-3.56085 2.86846-8.70428 4.35214-15.2325 4.35214h-18.00203V22.95011zm4.05541 26.11289h12.95753c5.44018 0 9.4956-.89021 12.06733-2.76954 2.47281-1.78042 3.75866-4.7478 3.75866-8.60538s-1.48369-6.726-4.25323-8.50647-7.02278-2.67061-12.66077-2.67061h-11.86952v22.552zm0 3.56085v25.22264h13.74882c10.88036 0 16.32054-4.45106 16.32054-13.25426 0-8.0119-5.7369-12.06731-17.21075-12.06731 0 .09891-12.85861.09891-12.85861.09891zm45.79643 28.78348V22.95011h4.15433v54.59964h27.89331v3.85759zm43.22472.09892V22.95011h4.15434v58.55614zm42.63125-55.0942q-10.68255 0-16.914 6.825c-4.15434 4.55-6.13258 10.78145-6.13258 18.79336 0 8.11081 1.87933 14.4412 5.7369 18.99117 3.85758 4.45106 9.39668 6.726 16.61727 6.726a46.486 46.486 0 0 0 13.15529-1.78043v3.46194a43.62546 43.62546 0 0 1-14.04557 1.97824c-8.01191 0-14.3423-2.57172-18.89228-7.71516s-6.92386-12.36405-6.92386-21.66181a34.58125 34.58125 0 0 1 3.26409-15.33142 23.47135 23.47135 0 0 1 9.39668-10.188 27.343 27.343 0 0 1 14.3423-3.56085 34.80717 34.80717 0 0 1 14.93577 3.1652l-1.5826 3.56085a27.09528 27.09528 0 0 0-12.95741-3.26409zm78.63535 54.99528h-4.15433v-28.7835h-34.12478v28.7835H631.472V22.95011h4.15433v25.91505h34.12478V22.95011h4.15433zm45.10406-.09891h-31.84981V22.95011h31.84981v3.75867h-27.89331v22.05747h26.31067v3.85758h-26.31067v25.02483h27.89331zM764.806 60.83356h-23.54119L733.154 81.40733h-4.55l23.44219-58.45722h2.5717l22.94768 58.45722h-4.64889zm-22.1564-3.65976h20.7716l-7.913-20.96943c-.6924-1.68151-1.48368-3.95649-2.47281-6.82495a51.362 51.362 0 0 1-2.37392 6.92386zm46.291 24.33245V22.95011h4.15433v54.59964h27.89331v3.85759H788.9406zm53.61046-.09892h-4.05538V26.8077h-18.99119v-3.85759h42.03777v3.85759h-18.9912v54.59963zm72.79956 0h-4.15433v-28.7835h-34.12478v28.7835h-4.15433V22.95011h4.15433v25.91505h34.12478V22.95011h4.15433v58.45722z"/></svg>