<svg xmlns="http://www.w3.org/2000/svg" role="img" viewBox="8.03 -5.97 908.44 247.44"><title>LFPH Landscape logo</title><defs><clipPath id="clip-path"><path fill="none" d="M35.568 105.037h182.308V248.78H35.568z"/></clipPath><style>.cls-2{fill:#009ade}.cls-7{fill:#003764}.cls-8{fill:#fff}</style></defs><path d="M261.435 159.653h637.592v64.601H261.435z" class="cls-2"/><path fill="#d2e4f4" d="M25.77814 17.025H218.95v192.09836H25.77814z"/><g id="gPSyY2"><path fill="#fed147" d="M167.16721 59.17491A22.10173 22.10173 0 0 1 189.51267 81.631a22.40112 22.40112 0 0 1-44.80156-.11062 22.16911 22.16911 0 0 1 22.45608-22.34548z"/><g clip-path="url(#clip-path)"><path fill="#43af5a" d="M20.871 126.78734V44.95341c0-10.35183 4.54529-14.49257 15.90852-14.49257H216.797c10.76516 0 15.19083 3.9228 15.31045 13.7298q.17945 82.21532 0 164.43063c0 9.916-4.90413 14.27464-15.90852 14.27464-60.04569.109-119.97178 0-180.01747 0-10.28671 0-15.31046-4.68557-15.31046-13.94773zM126.60883 43.9727c-28.34827 0-56.69654.109-84.92519-.109-4.30606 0-6.21987.87174-6.21987 5.2304.11961 37.15763.11961 74.20628.11961 111.36389 0 1.6345-.83729 3.81384 1.43535 4.5766 1.91381.76276 3.10994-1.08967 4.42568-1.9614 17.58311-12.967 35.16621-25.82509 52.6297-38.90109 3.22955-2.39726 5.38258-2.39726 8.37291.43587 11.84168 11.11459 24.16181 21.90229 36.1231 32.90793 2.51187 2.39726 4.5453 2.39726 7.2964.43586 6.57871-4.79453 13.39664-9.26217 19.85575-14.16566 3.46877-2.6152 6.10027-2.50624 9.569-.109 11.96129 8.17249 24.04221 16.12706 36.24272 24.08163 1.43535.98069 2.8707 2.94209 4.90414 2.07035s1.31575-3.05106 1.31575-4.79452q0-57.86128.11962-115.61359c0-4.46764-1.43535-5.66627-6.21987-5.66627-28.34826.21793-56.69653.21793-85.0448.21793z"/></g></g><path d="M68.054 180.706V96.318H25.778v126.59H152.42v-42.202H68.054z" class="cls-2"/><path d="M236.783 11.865H25.806v63.308h42.188V54.251h126.603v126.455h-21.071v42.202h63.257V11.865z" class="cls-7"/><path d="M135.78434 78.27016c0-1.08424.00549-1.98207-.00381-2.87977-.00233-.22629.0504-.31635.33976-.37287.50774-.09917 1.0243-.15013 1.53267-.24483a3.2074 3.2074 0 0 0 2.63257-2.15769 6.63668 6.63668 0 0 1 1.14028-1.95551 4.14317 4.14317 0 0 1 2.96117-1.20021 15.033 15.033 0 0 1 7.07 1.17937 35.68133 35.68133 0 0 0 6.97 1.77239c1.79717.30433 3.60853.43749 5.4236.5862 1.4597.1196 2.92117.19922 4.38229.29323 1.54069.09915 3.08483.12344 4.623.21184 1.18625.06825 2.36919.0088 3.54975.07667 3.50393.20144 7.012.01043 10.51518.11327.90756.02661 1.81668.07157 2.72585.07385.31635.0008.3662.10635.30094.35561a6.63689 6.63689 0 0 1-2.00755 3.44392 7.74687 7.74687 0 0 1-4.15182 1.89629 17.5668 17.5668 0 0 1-3.6154-.11345c-.59276-.04277-.67355-.01161-.7297.54513a4.01608 4.01608 0 0 1-3.00527 3.59806 11.43487 11.43487 0 0 1-4.86731.37583c-.47013-.04316-.7198.02065-.91856.48434a7.07171 7.07171 0 0 1-4.24875 4.17946 8.32971 8.32971 0 0 1-2.88394.68306 9.74752 9.74752 0 0 1-2.99378-.51953 12.22847 12.22847 0 0 1-3.28443-1.60782c-.21591-.15494-.37264-.22045-.50256.07133a7.32062 7.32062 0 0 1-2.52458 2.64448 11.1584 11.1584 0 0 1-4.78147 2.10028 15.95815 15.95815 0 0 1-4.23641.30834c-1.42144-.11127-2.84883-.191-4.26914-.32852-1.59459-.15439-3.16295-.45738-4.74084-.70485-.253-.03967-.40309-.13793-.41614-.44558-.12946-3.04689-.14578-6.09567-.06859-9.14157.02978-1.16822.04582-2.33827.08299-3.32075zm-30.21717 8.63038a13.41478 13.41478 0 0 1-3.64491 1.80311 8.06567 8.06567 0 0 1-5.79353-.14523 7.03013 7.03013 0 0 1-4.23219-4.25642c-.15707-.43187-.434-.5013-.85251-.43994a13.17741 13.17741 0 0 1-4.27671-.12344 4.16823 4.16823 0 0 1-3.64184-3.76647c-.07055-.62512-.23512-.68731-.94011-.60584a9.66 9.66 0 0 1-5.8417-.60657 6.86122 6.86122 0 0 1-3.7454-4.70687c-.0694-.32274.18715-.27333.40394-.28326 2.69864-.12345 5.39949-.09432 8.09988-.09687 1.04191-.001 2.08657.04247 3.12516-.01 1.60309-.081 3.20833-.03682 4.8086-.1029 1.5417-.06367 3.08487-.11178 4.62559-.18969 1.89557-.09585 3.78885-.23894 5.68048-.3882a63.9932 63.9932 0 0 0 7.56133-1.07419 30.0745 30.0745 0 0 0 4.50525-1.40527 18.35474 18.35474 0 0 1 3.92283-1.0065 10.10855 10.10855 0 0 1 4.17705.20706 3.67108 3.67108 0 0 1 2.459 2.38881 3.6962 3.6962 0 0 0 2.15168 2.45375 7.9925 7.9925 0 0 0 1.92652.40584c.36466.03629.7579-.01476.7549.553q-.04025 7.58778-.00617 15.17609a.4467.4467 0 0 1-.45768.51117c-1.97239.26574-3.9231.64392-5.91629.80788-1.46.12013-2.92154.27754-4.38263.262a13.48193 13.48193 0 0 1-7.28456-2.072 9.305 9.305 0 0 1-3.18598-3.28905zm54.4741 14.75391a6.93787 6.93787 0 0 0-4.28966-5.45836 17.60416 17.60416 0 0 0-4.89526-1.40059c-1.59146-.23808-3.19038-.31124-4.78577-.44536a13.55031 13.55031 0 0 0-3.83006.28146 7.45057 7.45057 0 0 0-4.42912 2.61279 6.2409 6.2409 0 0 0-1.48766 4.35179 1.77269 1.77269 0 0 0 .8921 1.46135 8.67107 8.67107 0 0 0 4.52774 1.03124 8.1188 8.1188 0 0 0 4.9984-1.648 5.9658 5.9658 0 0 1 1.79-1.14006 8.99722 8.99722 0 0 1 2.80987-.1999c.79113.03682.78945.06463.78945.75812a11.07036 11.07036 0 0 0 .00587 1.12583 2.11988 2.11988 0 0 1-1.417 2.20713 30.6209 30.6209 0 0 1-5.636 2.149 72.64774 72.64774 0 0 1-10.33218 1.70028c-1.50555.1454-3.01295.04738-4.52.15721-1.09836.08021-2.193.1454-3.279.317a24.35838 24.35838 0 0 0-8.0858 2.80433 17.3167 17.3167 0 0 0-4.81926 3.919 9.17279 9.17279 0 0 0-1.83992 3.12965 12.42275 12.42275 0 0 0-.48155 4.98235 7.09019 7.09019 0 0 0 2.74173 4.66236c.62468.55413 1.35807 1.00912 2.02075 1.53072a3.00332 3.00332 0 0 0 3.45349.26135 13.01548 13.01548 0 0 1 1.87009-.94414c1.81764-.87836 3.78383-1.47729 5.62243-2.38225-1.03258-.65182-2.10916-1.228-3.10776-1.90609a3.72345 3.72345 0 0 1-1.464-1.99179 7.46243 7.46243 0 0 1-.12237-2.715 1.99327 1.99327 0 0 1 .98164-1.59832 6.92934 6.92934 0 0 1 1.86757-.84437 39.98382 39.98382 0 0 1 8.01893-1.25542c1.17353-.06949 2.34842-.14163 3.52264-.19321a41.86133 41.86133 0 0 0 5.10807-.75414 35.54082 35.54082 0 0 0 7.52564-2.41271 26.19033 26.19033 0 0 0 6.29554-3.76207A14.13576 14.13576 0 0 0 159.247 106.29a4.07489 4.07489 0 0 0 .66387-1.3619 9.761 9.761 0 0 0 .1304-3.27365z" class="cls-7"/><path d="M137.63878 118.329a24.59161 24.59161 0 0 0 4.09931-.27484 29.12517 29.12517 0 0 0 5.22293-1.28425c.4846-.16114 1.021-.51642 1.44087-.42869.45918.096.54012.73963.76618 1.15145a10.10652 10.10652 0 0 1 1.4106 5.73274 7.71724 7.71724 0 0 1-1.838 4.24516 13.73509 13.73509 0 0 1-3.55694 3.00755 34.06561 34.06561 0 0 1-7.69274 3.41731c-2.48318.77856-4.9967 1.48006-7.47931 2.25993a19.09784 19.09784 0 0 0-4.08931 1.91577 2.56851 2.56851 0 0 0-1.09886 2.07361 3.34061 3.34061 0 0 0 1.6929 3.30915c.60931.42114 1.22118.83891 1.88985 1.24543a2.257 2.257 0 0 1-.94542.30373 20.56687 20.56687 0 0 0-6.86654 3.19826.41116.41116 0 0 1-.54865.03218 13.31569 13.31569 0 0 1-4.99036-4.86376 5.92009 5.92009 0 0 1-.47834-3.54231 8.21269 8.21269 0 0 1 2.49472-4.39651 15.11 15.11 0 0 1 2.80655-2.19459 38.63724 38.63724 0 0 1 11.40913-4.72989 16.98755 16.98755 0 0 0 6.25776-2.90369 4.14589 4.14589 0 0 0 1.68363-4.20209 6.28192 6.28192 0 0 0-1.58996-3.07165zm-6.62399-10.57633c-.62154-.00014-1.24373-.015-1.86439.006-.322.011-.43164-.09483-.38825-.36414a.51562.51562 0 0 0 .00047-.09782c-.18752-5.73885.12051-11.48734-.16459-17.21657-.317-6.36941-.20027-12.73375-.26417-19.10034-.00344-.34186-.2492-.421-.48342-.551a8.41872 8.41872 0 0 1-3.69687-3.49626 2.65476 2.65476 0 0 1-.33157-1.255 7.55808 7.55808 0 0 1 .11217-2.5864 6.85838 6.85838 0 0 1 2.23025-3.1995 6.98625 6.98625 0 0 1 3.11336-1.43493 7.44332 7.44332 0 0 1 6.4979 1.35354 6.46658 6.46658 0 0 1 2.50784 5.26 5.80088 5.80088 0 0 1-1.53042 3.47555 6.47016 6.47016 0 0 1-2.12489 1.68942 1.48409 1.48409 0 0 0-.815 1.56815c-.028 1.25613-.0084 2.51311-.00823 3.76973.00047 5.255.09862 10.51187-.02705 15.76448-.11667 4.87606-.01248 9.75032-.08537 14.62487a5.79816 5.79816 0 0 1-.35605 1.55421c-.06309.21068-.23317.24469-.45707.24031-.62133-.01214-1.24308-.00417-1.86465-.0043z" class="cls-7"/><path d="M128.762 141.01813c.00076-.70174.01182-1.40366-.00481-2.10507a.57085.57085 0 0 1 .3569-.57858 25.61188 25.61188 0 0 1 6.3698-2.15835 51.1593 51.1593 0 0 0 6.09273-2.01471 1.92674 1.92674 0 0 1 2.06922.33215 10.24587 10.24587 0 0 1 2.88411 3.92266 6.02913 6.02913 0 0 1 .43012 3.09814 8.12026 8.12026 0 0 1-1.09417 3.49545 9.66412 9.66412 0 0 1-4.259 3.77623 56.529 56.529 0 0 1-8.947 3.0267 22.92206 22.92206 0 0 0-5.19569 2.16513 1.68726 1.68726 0 0 0-.8543 1.95452c.15875.55849.324 1.11613.51378 1.66666.06639.19271.10317.28964-.14912.41184a51.186 51.186 0 0 0-4.78742 2.66473 1.27775 1.27775 0 0 1-1.64869-.3045 6.01289 6.01289 0 0 1-2.00109-3.43911 7.73174 7.73174 0 0 1 1.68835-5.79328 10.32338 10.32338 0 0 1 3.21241-2.62756 27.5594 27.5594 0 0 1 5.38962-2.26429c1.64045-.60953 3.39868-.91526 5.02624-1.56148a11.93366 11.93366 0 0 0 2.82765-1.46763 3.48669 3.48669 0 0 0 1.24315-1.9344c.13168-.51422-.303-.99429-.59923-1.45a7.2806 7.2806 0 0 0-3.359-2.32517c-.38353-.17608-.3462.15261-.36578.281a15.3448 15.3448 0 0 0-.2228 1.96964 27.43212 27.43212 0 0 0-.117 3.06535c.02439.27073-.09071.39585-.36611.49776a27.05442 27.05442 0 0 1-3.74392 1.03969c-.311.06658-.25512-.11521-.28151-.2755a21.03837 21.03837 0 0 1-.10744-3.06802zm-4.98961-32.53606c-.80593.24251-1.49315.41794-2.15344.65363a24.48344 24.48344 0 0 0-6.3743 3.27142 11.41264 11.41264 0 0 0-1.59486 1.44349.45187.45187 0 0 1-.62546.1051 39.49125 39.49125 0 0 1-6.61834-3.58925 14.86579 14.86579 0 0 1-2.86769-2.87871 6.40262 6.40262 0 0 1-1.47611-2.7485 7.8515 7.8515 0 0 1 .80273-5.84005 8.14877 8.14877 0 0 1 3.05515-2.68651 15.47259 15.47259 0 0 1 6.31984-1.78289c1.88642-.16871 3.775-.19477 5.66726-.19129a8.40561 8.40561 0 0 1 4.47468 1.20269 6.396 6.396 0 0 1 3.28138 5.41694c.06815 1.46763-.803 2.17251-2.30706 2.58138a15.08973 15.08973 0 0 1-4.76314.26695 4.88239 4.88239 0 0 1-2.23434-.88752 11.19013 11.19013 0 0 0-2.88959-1.64685 9.30284 9.30284 0 0 0-3.39232-.07875c-.13935.0128-.17189.07713-.19052.188a3.90223 3.90223 0 0 0 .20179 2.607c.40686.76677 1.26019 1.02236 1.97991 1.40455a29.21478 29.21478 0 0 0 7.8972 2.45978c1.21876.25165 2.44628.46976 3.80723.72939z" class="cls-7"/><path d="M133.77792 155.01628c-1.5727 1.21086-3.3219 2.04646-5.03834 3.161a26.85737 26.85737 0 0 1 .11275-3.015c.053-.24656.1849-.31331.39552-.37536 1.83632-.54088 3.7-.99854 5.55544-1.48261a24.8635 24.8635 0 0 0 4.93635-1.7591 7.39906 7.39906 0 0 0 1.04018-.68567c.23951-.17658.35133-.13689.49164.10149a5.72891 5.72891 0 0 1 .53987 1.70666 4.1723 4.1723 0 0 1-.92634 3.61094 10.05157 10.05157 0 0 1-3.08954 2.6202 58.17992 58.17992 0 0 1-7.64033 3.32687c-1.90625.70142-3.8303 1.36586-5.69324 2.1591-1.52118.6477-3.08847 1.20038-4.63736 1.79112-.4107.15662-.40968-.1838-.5706-.28047-.53029-.318-.51946-.42712-.01067-.79433q1.13215-.81708 2.29428-1.601c2.57842-1.74744 5.46494-3.05833 8.19828-4.58631a24.45511 24.45511 0 0 0 2.881-1.76553 2.47309 2.47309 0 0 0 1.16111-2.132zm.0435 7.93627c-.15156 1.21084-.25446 2.41488-.36074 3.62011-.16163 1.83271-.26213 3.67015-.52121 5.49707-.15162 1.06925-.2702 2.14246-.448 3.20929-.02145.12879-.00052.22741-.20933.27482a7.63361 7.63361 0 0 1-2.11565.068c-.33958-.018-.27635-.40143-.29815-.62939-.14156-1.478-.47418-2.93463-.57551-4.41829-.12638-1.8505-.58137-3.6744-.54612-5.54233a1.27558 1.27558 0 0 1 .85553-1.2279c1.68729-.78847 3.48987-1.3504 5.19276-2.10875.62546-.27852 1.25335-.54807 1.90863-.77769a1.73646 1.73646 0 0 1 1.46667.13236 20.46624 20.46624 0 0 1 2.7789 1.742c.898.64037 1.67456 1.39831 2.49819 2.1107.18695.16167.15387.20376-.025.3709a1.26924 1.26924 0 0 1-1.30392.34565 43.65991 43.65991 0 0 1-8.12272-2.61431c-.04863-.01979-.10193-.03079-.17433-.05224zm-5.05886-35.71587c0-2.05786.01495-4.08068-.01-6.10307a14.59863 14.59863 0 0 0 .119-1.59673c-.03519-.28831.25877-.26854.40185-.28941a16.38918 16.38918 0 0 1 2.03908-.23118 8.89366 8.89366 0 0 0 1.95991-.08635c.26181-.06365.435.00217.43011.31714-.01881 1.224.0657 2.453-.03306 3.67086-.06735.83041-.06764 1.65665-.07376 2.48444-.00206.27707-.13025.3789-.37969.4957a20.52144 20.52144 0 0 1-4.45344 1.3386z" class="cls-7"/><path d="M140.02918 99.05172c.0809-.11777.13939-.30875.25175-.33874a3.35442 3.35442 0 0 1 3.01207.19938c.31956.23432.01279.49565-.26154.68214-.70515.47932-1.51141.33923-3.00228-.54278zm-17.96695 0c-.0809-.11777-.13936-.30875-.25172-.33874a3.35441 3.35441 0 0 0-3.01193.19938c-.31959.23432-.01279.49565.26154.68214.70501.47932 1.51127.33923 3.00211-.54278z" class="cls-8"/><path d="M276.56034 120.83977h10.10388c14.60556 0 19.78877-9.95637 19.78877-18.48207s-5.18321-18.48206-19.78877-18.48206h-25.22886v55.53915h15.125zm0-24.38154h6.98582c6.01425 0 8.14659 1.54365 8.14659 5.89947 0 4.3521-2.13234 5.89582-8.14659 5.89582h-6.98571zm74.49692 21.50015c0 7.10053-2.156 9.37867-8.872 9.37867-7.32831 0-8.80089-3.58855-8.80089-9.37867V83.87565h-15.125v34.08273c0 14.63293 8.49654 22.69027 23.92591 22.69027 15.47307 0 23.99515-8.05734 23.99515-22.69027V83.87565h-15.1232zm66.72386-8.90478a12.90264 12.90264 0 0 0 4.86064-10.47029c0-9.75955-6.19289-14.70765-18.40735-14.70765h-26.246v55.53913H404.958c12.24179 0 20.15148-6.62847 20.15148-16.88558a14.592 14.592 0 0 0-7.32836-13.47561zm-7.79487 12.8214c0 2.45127-.77821 4.9554-6.55192 4.9554h-10.32064v-10.48858h10.53957c5.6131 0 6.33299 2.95611 6.33299 5.53318zm-16.87256-17.02953v-8.38723h8.79543c4.95722 0 5.97236 1.633 5.97236 4.08424 0 1.06432 0 4.30293-5.09756 4.30293zM477.293 126.106h-25.251v-42.23h-15.124v55.54h40.375v-13.31zm11.805-42.23h15.125v55.539h-15.125zm64.37629 31.85165l-.20776 1.62931a9.98443 9.98443 0 0 1-9.9017 9.98006c-11.33054 0-12.21081-11.84449-12.21081-15.47494 0-3.7325.88027-15.9105 12.21081-15.9105a9.37733 9.37733 0 0 1 9.46976 7.46318l.226 1.60564h14.74228l-.23886-2.07948c-1.39593-12.14156-11.12095-20.29912-24.19928-20.29912-16.34973 0-27.334 11.74244-27.334 29.22028 0 16.94926 11.23941 28.78655 27.334 28.78655a23.68989 23.68989 0 0 0 24.63366-22.707q.00367-.09.00667-.18013l.18225-2.03392zM626.197 104.94h-17.27V85.023h-15.154v55.644h15.154v-22.391h17.27v22.391h15.154V85.023h-15.154v19.917zm41.011 13.411h25.149v-12.609h-25.149V98.36h27.404V85.023h-42.558v55.644h43.136v-13.332h-27.982v-8.984zm53.362-33.32843l-21.12155 55.646h15.59439l4.07216-11.55867h16.74641l3.92774 11.55869h15.88436l-20.81129-55.646zm11.031 31.84023h-8.18233l4.15783-11.71571zm44.627-31.8398h-15.154v55.644h40.45v-13.332h-25.296V85.023zm21.276 13.337h15.553v42.307h15.154V98.36h15.557V85.023h-46.264V98.36zm86.37 6.58h-17.271V85.023h-15.154v55.644h15.154v-22.391h17.271v22.391h15.154V85.023h-15.154v19.917z" class="cls-2"/><path d="M434.708 209.44141h-23.28515v-34.85547h8.86475V202.292h14.4204zm29.72755-7.65723h-11.40039l-2.22217 7.65723h-9.03369l11.71484-34.85547h10.84473l11.71582 34.85547h-9.4209zm-9.68555-6.37695h7.94727l-3.86475-13.42969h-.19336zm29.582 14.03418v-34.85547h7.07715l14.7832 20.26562h.19336v-20.26562h8.40529v34.85547h-7.00489l-14.85547-20.459h-.19238v20.459zm54.82425-34.85547c10.53223 0 16.71582 6.11133 16.71582 17.22265 0 11.13477-6.208 17.63282-16.71582 17.63282H525.002v-34.85547zm-5.28906 27.70606h4.12988c5.77344 0 8.86523-3.50293 8.86523-10.459 0-6.5459-3.26074-10.09668-8.86523-10.09668h-4.12988zm38.35058-3.11622c.41016 2.48828 3.0918 3.9375 6.49707 3.9375 3.45508 0 5.70118-1.5459 5.70118-3.67187 0-1.93262-1.49805-2.92286-5.62793-3.71973l-3.5752-.67676c-6.95605-1.30371-10.55566-4.71-10.55566-10.02344 0-6.71582 5.82129-11.03906 13.84082-11.03906 8.76757 0 13.9375 4.29981 14.03418 10.94238h-8.23731c-.14453-2.51269-2.51172-4.00976-5.72461-4.00976s-5.12109 1.44922-5.12109 3.50195c0 1.83594 1.59473 2.85059 5.38672 3.5752l3.57519.67578c7.43946 1.42578 10.82129 4.44531 10.82129 9.92773 0 7.00489-5.4834 11.44922-14.68652 11.44922-8.69531 0-14.44434-4.00976-14.56445-10.86914zM601.294 192.002c0-11.37695 6.54589-18.01953 16.93164-18.01953 8.81738 0 15.50781 5.67676 15.77343 13.91309h-8.52636c-.43457-4.10645-3.35743-6.81153-7.24707-6.81153-4.83008 0-7.89844 4.12989-7.89844 10.89356 0 6.83594 3.04394 10.96582 7.92285 10.96582 3.88867 0 6.71484-2.55957 7.27051-6.6416h8.52637c-.41016 8.28418-6.835 13.74316-15.82129 13.74316-10.43464-.00005-16.93164-6.64263-16.93164-18.04297zm60.74116 9.78218h-11.40039l-2.22266 7.65723h-9.03418l11.71484-34.85547h10.84571l11.71484 34.85547h-9.41992zm-9.68555-6.37695h7.94629l-3.86426-13.42969h-.19336zm44.67969-20.82129c7.48828 0 12.56054 4.85547 12.56054 12.34375 0 7.43945-5.33789 12.29394-13.09179 12.29394h-5.7002v10.21778h-8.86523v-34.85547zm-6.23145 17.97168h3.83985c3.76855 0 5.99023-1.957 5.99023-5.6045 0-3.623-2.22168-5.5791-5.94141-5.5791h-3.88867zm51.5625 16.88379h-23.88867v-34.85547h23.88867v7.15039h-15.02344v6.93167h14.12989v6.52246h-14.12989v7.10154h15.02344z" class="cls-8"/><path d="M261.43536 15.165H276.206v35.65012h21.21543V63.1014h-35.98607zm45.64957 0h14.77068v47.9364h-14.77068zm25.77993 0h15.10529L361.935 40.81154h.13476V15.165h13.96394v47.9364h-14.3673l-14.70284-26.18376h-.13476V63.1014h-13.96394zm97.74665 29.40659c0 13.36026-7.04889 19.67117-21.81957 19.67117-14.76976 0-21.88649-6.31091-21.88649-19.67117V15.165h14.76976v26.11683c0 4.83357-.06693 11.01063 7.18365 11.01063 6.98289 0 6.98289-6.17706 6.98289-11.01063V15.165h14.76976zm23.49449-6.98243L438.32871 15.165h17.32108l7.25057 13.02472 7.11673-13.02472h16.38141l-15.3739 22.55847L488.144 63.1014h-17.79138l-8.19024-14.3004-8.45977 14.3004H436.784zm52.56444-21.44292h29.64777v3.79625h-25.1984v16.88607h22.3834v3.79624h-22.3834v22.25231h-4.44937zm54.719-.98124c14.6606 0 21.9909 11.519 21.9909 24.34668 0 12.82842-7.3303 24.34746-21.9909 24.34746-14.72654 0-22.05684-11.519-22.05684-24.34746 0-12.82768 7.3303-24.34668 22.05684-24.34668zm0 44.8979c12.304 0 17.54-10.34077 17.54-20.55122 0-10.20967-5.23593-20.55122-17.54-20.55122-12.37 0-17.60591 10.34155-17.60591 20.55122 0 10.21045 5.23593 20.55122 17.60591 20.55122zm28.47969-43.91666h4.44936V45.075c0 10.7992 5.03968 14.98795 13.67936 14.98795 8.70561 0 13.74372-4.18875 13.74372-14.98795V16.14624h4.45093V46.057c0 9.62092-5.17 17.80216-18.19465 17.80216-12.89279 0-18.12872-8.18124-18.12872-17.80216zm45.23152 0h4.97374l27.22683 39.53166h.13031V16.14624h4.45094v46.73087h-4.97375l-27.22683-39.53166h-.13031v39.53166h-4.45093zm46.14997 0h16.16465c14.1378.32735 21.4681 7.91984 21.4681 23.36544 0 15.44638-7.3303 23.03809-21.4681 23.36543h-16.16465zM685.7 59.08087h9.49061c13.41717 0 19.24185-5.56328 19.24185-19.56919s-5.82468-19.56919-19.24185-19.56919H685.7zm54.069-42.93463h4.97374l18.32654 46.73087h-4.77749l-5.69437-14.52951h-21.27028l-5.63 14.52951h-4.77749zm-7.06811 28.40512h18.3909l-9.03217-23.95418zm25.13874-28.40512h37.044v3.79625H778.5871v42.93462h-4.45094V19.94249h-16.29653zm41.76183 0h4.45094v46.73087h-4.45094zm33.77214-.98124c14.6606 0 21.9909 11.519 21.9909 24.34668 0 12.82842-7.3303 24.34746-21.9909 24.34746-14.72654 0-22.05684-11.519-22.05684-24.34746 0-12.82768 7.3303-24.34668 22.05684-24.34668zm0 44.8979c12.304 0 17.54-10.34077 17.54-20.55122 0-10.20967-5.23593-20.55122-17.54-20.55122-12.37 0-17.60591 10.34155-17.60591 20.55122 0 10.21045 5.23593 20.55122 17.60591 20.55122zm28.87219-43.91666h4.97374l27.22683 39.53166h.13031V16.14624h4.45093v46.73087h-4.97374L866.827 23.34545h-.13031v39.53166h-4.45093z" class="cls-7"/></svg>