<svg xmlns="http://www.w3.org/2000/svg" role="img" viewBox="12.01 12.01 207.74 207.74"><path fill="#FFF" d="M0 0h232v232H0z"/><path d="M80 16h8v8h-8z"/><path d="M88 16h8v8h-8z"/><path d="M96 16h8v8h-8z"/><path d="M128 16h8v8h-8z"/><path d="M136 16h8v8h-8z"/><path d="M144 16h8v8h-8z"/><path d="M80 24h8v8h-8z"/><path d="M96 24h8v8h-8z"/><path d="M112 24h8v8h-8z"/><path d="M144 24h8v8h-8z"/><path d="M80 32h8v8h-8z"/><path d="M88 32h8v8h-8z"/><path d="M112 32h8v8h-8z"/><path d="M88 40h8v8h-8z"/><path d="M104 40h8v8h-8z"/><path d="M136 40h8v8h-8z"/><path d="M144 40h8v8h-8z"/><path d="M80 48h8v8h-8z"/><path d="M96 48h8v8h-8z"/><path d="M128 48h8v8h-8z"/><path d="M144 48h8v8h-8z"/><path d="M96 56h8v8h-8z"/><path d="M104 56h8v8h-8z"/><path d="M112 56h8v8h-8z"/><path d="M80 64h8v8h-8z"/><path d="M96 64h8v8h-8z"/><path d="M112 64h8v8h-8z"/><path d="M128 64h8v8h-8z"/><path d="M144 64h8v8h-8z"/><path d="M104 72h8v8h-8z"/><path d="M112 72h8v8h-8z"/><path d="M120 72h8v8h-8z"/><path d="M16 80h8v8h-8z"/><path d="M40 80h8v8h-8z"/><path d="M48 80h8v8h-8z"/><path d="M56 80h8v8h-8z"/><path d="M64 80h8v8h-8z"/><path d="M72 80h8v8h-8z"/><path d="M80 80h8v8h-8z"/><path d="M88 80h8v8h-8z"/><path d="M112 80h8v8h-8z"/><path d="M120 80h8v8h-8z"/><path d="M144 80h8v8h-8z"/><path d="M152 80h8v8h-8z"/><path d="M176 80h8v8h-8z"/><path d="M192 80h8v8h-8z"/><path d="M200 80h8v8h-8z"/><path d="M208 80h8v8h-8z"/><path d="M32 88h8v8h-8z"/><path d="M56 88h8v8h-8z"/><path d="M72 88h8v8h-8z"/><path d="M80 88h8v8h-8z"/><path d="M96 88h8v8h-8z"/><path d="M120 88h8v8h-8z"/><path d="M136 88h8v8h-8z"/><path d="M176 88h8v8h-8z"/><path d="M184 88h8v8h-8z"/><path d="M192 88h8v8h-8z"/><path d="M200 88h8v8h-8z"/><path d="M24 96h8v8h-8z"/><path d="M32 96h8v8h-8z"/><path d="M40 96h8v8h-8z"/><path d="M48 96h8v8h-8z"/><path d="M64 96h8v8h-8z"/><path d="M72 96h8v8h-8z"/><path d="M80 96h8v8h-8z"/><path d="M112 96h8v8h-8z"/><path d="M120 96h8v8h-8z"/><path d="M136 96h8v8h-8z"/><path d="M176 96h8v8h-8z"/><path d="M184 96h8v8h-8z"/><path d="M208 96h8v8h-8z"/><path d="M16 104h8v8h-8z"/><path d="M24 104h8v8h-8z"/><path d="M40 104h8v8h-8z"/><path d="M72 104h8v8h-8z"/><path d="M80 104h8v8h-8z"/><path d="M104 104h8v8h-8z"/><path d="M120 104h8v8h-8z"/><path d="M136 104h8v8h-8z"/><path d="M152 104h8v8h-8z"/><path d="M168 104h8v8h-8z"/><path d="M176 104h8v8h-8z"/><path d="M184 104h8v8h-8z"/><path d="M192 104h8v8h-8z"/><path d="M200 104h8v8h-8z"/><path d="M208 104h8v8h-8z"/><path d="M16 112h8v8h-8z"/><path d="M24 112h8v8h-8z"/><path d="M40 112h8v8h-8z"/><path d="M48 112h8v8h-8z"/><path d="M56 112h8v8h-8z"/><path d="M64 112h8v8h-8z"/><path d="M80 112h8v8h-8z"/><path d="M88 112h8v8h-8z"/><path d="M96 112h8v8h-8z"/><path d="M104 112h8v8h-8z"/><path d="M112 112h8v8h-8z"/><path d="M120 112h8v8h-8z"/><path d="M144 112h8v8h-8z"/><path d="M160 112h8v8h-8z"/><path d="M168 112h8v8h-8z"/><path d="M208 112h8v8h-8z"/><path d="M16 120h8v8h-8z"/><path d="M24 120h8v8h-8z"/><path d="M32 120h8v8h-8z"/><path d="M40 120h8v8h-8z"/><path d="M48 120h8v8h-8z"/><path d="M96 120h8v8h-8z"/><path d="M120 120h8v8h-8z"/><path d="M128 120h8v8h-8z"/><path d="M136 120h8v8h-8z"/><path d="M176 120h8v8h-8z"/><path d="M200 120h8v8h-8z"/><path d="M16 128h8v8h-8z"/><path d="M24 128h8v8h-8z"/><path d="M48 128h8v8h-8z"/><path d="M56 128h8v8h-8z"/><path d="M64 128h8v8h-8z"/><path d="M72 128h8v8h-8z"/><path d="M96 128h8v8h-8z"/><path d="M104 128h8v8h-8z"/><path d="M112 128h8v8h-8z"/><path d="M120 128h8v8h-8z"/><path d="M136 128h8v8h-8z"/><path d="M144 128h8v8h-8z"/><path d="M152 128h8v8h-8z"/><path d="M176 128h8v8h-8z"/><path d="M184 128h8v8h-8z"/><path d="M192 128h8v8h-8z"/><path d="M200 128h8v8h-8z"/><path d="M208 128h8v8h-8z"/><path d="M16 136h8v8h-8z"/><path d="M32 136h8v8h-8z"/><path d="M48 136h8v8h-8z"/><path d="M56 136h8v8h-8z"/><path d="M88 136h8v8h-8z"/><path d="M96 136h8v8h-8z"/><path d="M104 136h8v8h-8z"/><path d="M144 136h8v8h-8z"/><path d="M160 136h8v8h-8z"/><path d="M168 136h8v8h-8z"/><path d="M184 136h8v8h-8z"/><path d="M192 136h8v8h-8z"/><path d="M208 136h8v8h-8z"/><path d="M16 144h8v8h-8z"/><path d="M32 144h8v8h-8z"/><path d="M40 144h8v8h-8z"/><path d="M48 144h8v8h-8z"/><path d="M64 144h8v8h-8z"/><path d="M80 144h8v8h-8z"/><path d="M96 144h8v8h-8z"/><path d="M128 144h8v8h-8z"/><path d="M144 144h8v8h-8z"/><path d="M152 144h8v8h-8z"/><path d="M160 144h8v8h-8z"/><path d="M168 144h8v8h-8z"/><path d="M176 144h8v8h-8z"/><path d="M192 144h8v8h-8z"/><path d="M200 144h8v8h-8z"/><path d="M80 152h8v8h-8z"/><path d="M88 152h8v8h-8z"/><path d="M104 152h8v8h-8z"/><path d="M112 152h8v8h-8z"/><path d="M120 152h8v8h-8z"/><path d="M128 152h8v8h-8z"/><path d="M144 152h8v8h-8z"/><path d="M176 152h8v8h-8z"/><path d="M192 152h8v8h-8z"/><path d="M200 152h8v8h-8z"/><path d="M80 160h8v8h-8z"/><path d="M104 160h8v8h-8z"/><path d="M144 160h8v8h-8z"/><path d="M160 160h8v8h-8z"/><path d="M176 160h8v8h-8z"/><path d="M208 160h8v8h-8z"/><path d="M80 168h8v8h-8z"/><path d="M88 168h8v8h-8z"/><path d="M112 168h8v8h-8z"/><path d="M128 168h8v8h-8z"/><path d="M136 168h8v8h-8z"/><path d="M144 168h8v8h-8z"/><path d="M176 168h8v8h-8z"/><path d="M200 168h8v8h-8z"/><path d="M208 168h8v8h-8z"/><path d="M80 176h8v8h-8z"/><path d="M88 176h8v8h-8z"/><path d="M112 176h8v8h-8z"/><path d="M120 176h8v8h-8z"/><path d="M128 176h8v8h-8z"/><path d="M136 176h8v8h-8z"/><path d="M144 176h8v8h-8z"/><path d="M152 176h8v8h-8z"/><path d="M160 176h8v8h-8z"/><path d="M168 176h8v8h-8z"/><path d="M176 176h8v8h-8z"/><path d="M208 176h8v8h-8z"/><path d="M80 184h8v8h-8z"/><path d="M96 184h8v8h-8z"/><path d="M128 184h8v8h-8z"/><path d="M144 184h8v8h-8z"/><path d="M152 184h8v8h-8z"/><path d="M160 184h8v8h-8z"/><path d="M200 184h8v8h-8z"/><path d="M208 184h8v8h-8z"/><path d="M88 192h8v8h-8z"/><path d="M96 192h8v8h-8z"/><path d="M112 192h8v8h-8z"/><path d="M128 192h8v8h-8z"/><path d="M136 192h8v8h-8z"/><path d="M152 192h8v8h-8z"/><path d="M176 192h8v8h-8z"/><path d="M184 192h8v8h-8z"/><path d="M192 192h8v8h-8z"/><path d="M200 192h8v8h-8z"/><path d="M208 192h8v8h-8z"/><path d="M96 200h8v8h-8z"/><path d="M128 200h8v8h-8z"/><path d="M136 200h8v8h-8z"/><path d="M160 200h8v8h-8z"/><path d="M168 200h8v8h-8z"/><path d="M176 200h8v8h-8z"/><path d="M192 200h8v8h-8z"/><path d="M200 200h8v8h-8z"/><path d="M208 200h8v8h-8z"/><path d="M80 208h8v8h-8z"/><path d="M88 208h8v8h-8z"/><path d="M120 208h8v8h-8z"/><path d="M128 208h8v8h-8z"/><path d="M144 208h8v8h-8z"/><path d="M152 208h8v8h-8z"/><path d="M184 208h8v8h-8z"/><path d="M208 208h8v8h-8z"/><path fill="none" d="M24.4 24.4h39.2v39.2H24.4z"/><path d="M63.6 16H16v56h56V16h-8.4zm0 47.6H24.4V24.4h39.2v39.2z"/><path fill="none" d="M168.4 24.4h39.2v39.2h-39.2z"/><path d="M207.6 16H160v56h56V16h-8.4zm0 47.6h-39.2V24.4h39.2v39.2z"/><path fill="none" d="M24.4 168.4h39.2v39.2H24.4z"/><path d="M63.6 160H16v56h56v-56h-8.4zm0 47.6H24.4v-39.2h39.2v39.2z"/><g><path d="M32 32h24v24H32z"/></g><g><path d="M176 32h24v24h-24z"/></g><g><path d="M32 176h24v24H32z"/></g></svg>