<svg id="Layer_1" data-name="Layer 1" xmlns="http://www.w3.org/2000/svg" viewBox="0 0 748.59998 174.39999"><defs><style>.cls-1{fill:#1d98d5;}.cls-2{fill:#183a64;}.cls-3{fill:#2298d5;}</style></defs><polygon class="cls-1" points="16.1 61.7 16.1 30.5 0.8 30.5 0.8 77.3 46.6 77.3 46.6 61.7 16.1 61.7"/><polygon class="cls-2" points="77.9 -0.1 0.8 -0.1 0.8 23.1 16.1 23.1 16.1 15.5 62.6 15.5 62.6 61.8 54.8 61.8 54.8 77.3 77.9 77.3 77.9 -0.1"/><polygon class="cls-2" points="97.4 -0.1 121.2 -0.1 121.2 57.4 155.3 57.4 155.3 77.2 97.4 77.2 97.4 -0.1"/><polygon class="cls-2" points="165.4 -0.1 225 -0.1 225 19.7 189.1 19.7 189.1 29.4 219.8 29.4 219.8 47.9 189.1 47.9 189.1 77.4 165.3 77.4 165.3 -0.1 165.4 -0.1"/><path class="cls-3" d="M48.15054,117.84557c0,7.56018-2.52,13.3961-7.69281,17.50777s-12.46764,6.10119-21.88471,6.10119H6.37065V173.95H.8V95.2977H20.032C38.73347,95.2977,48.15054,102.85787,48.15054,117.84557ZM6.238,136.67968H17.114c8.88651,0,15.253-1.459,19.232-4.37694s5.96855-7.6928,5.96855-14.1919q0-8.95282-5.57065-13.52872c-3.71377-3.0506-9.54968-4.37694-17.37513-4.37694H6.37063L6.238,136.67968Z"/><path class="cls-3" d="M120.9669,95.2977v50.00323c0,8.88652-2.65269,15.91615-7.69279,20.82363-5.04009,5.04011-12.335,7.56017-21.48681,7.56017-9.01916,0-16.04879-2.52006-20.95627-7.56017s-7.56016-12.06975-7.56016-20.95626V95.2977h5.438v50.00323c0,7.42753,2.12216,13.26346,6.23382,17.37513s9.9476,6.23383,17.50776,6.23383c7.2949,0,12.99817-1.98952,17.10985-6.10119,3.979-4.11167,6.1012-9.68232,6.1012-16.97722V95.2977Z"/><path class="cls-3" d="M136.21988,95.2977h21.48681c9.68231,0,16.84461,1.59161,21.48682,4.90748s6.897,8.22334,6.897,14.85507a15.63047,15.63047,0,0,1-4.24432,11.27394c-2.78533,3.05059-6.897,5.04011-12.2024,5.83592v.26527q9.35077,1.39266,13.92663,5.96855c2.918,3.0506,4.37693,7.2949,4.37693,12.60029,0,7.2949-2.38741,12.86555-7.2949,16.712-4.77486,3.8464-11.67183,5.83592-20.42572,5.83592h-24.1395V95.2977Zm5.438,35.01552H159.033c7.2949,0,12.73293-1.19371,16.18143-3.71376,3.31587-2.38743,5.0401-6.36646,5.0401-11.53921s-1.98952-9.01915-5.70327-11.40657-9.41706-3.58114-16.97721-3.58114H141.6579v30.24068Zm0,4.77485v33.82181h18.4362c14.5898,0,21.8847-5.96855,21.8847-17.773,0-10.7434-7.69279-16.18142-23.0784-16.18142C158.9004,135.08807,141.6579,135.08807,141.6579,135.08807Z"/><path class="cls-3" d="M203.06769,173.68472V95.2977h5.57067V168.512h37.403v5.17275Z"/><path class="cls-3" d="M261.029,173.81736V95.2977h5.57067v78.51966Z"/><path class="cls-3" d="M318.19452,99.93991q-14.32457,0-22.68052,9.15178c-5.57067,6.10119-8.22336,14.45717-8.22336,25.20057,0,10.876,2.52005,19.36465,7.69279,25.46583,5.17274,5.96856,12.60028,9.01915,22.28259,9.01915a62.33423,62.33423,0,0,0,17.64038-2.38742V171.032a58.49859,58.49859,0,0,1-18.83413,2.65269c-10.7434,0-19.232-3.44849-25.33321-10.34549s-9.28441-16.57932-9.28441-29.047a46.37094,46.37094,0,0,1,4.37692-20.55836,31.47341,31.47341,0,0,1,12.60028-13.66136c5.57067-3.31586,11.93711-4.77484,19.232-4.77484a46.67408,46.67408,0,0,1,20.02782,4.2443l-2.12216,4.77485A36.333,36.333,0,0,0,318.19452,99.93991Z"/><path class="cls-3" d="M423.639,173.68472h-5.57067V135.08807H372.3094v38.59665h-5.57066V95.2977h5.57066v34.75025h45.75893V95.2977H423.639Z"/><path class="cls-3" d="M484.12037,173.55209H441.412V95.2977h42.70835v5.04011h-37.403v29.57751h35.28076v5.17275H446.7174v33.55654h37.403Z"/><path class="cls-3" d="M545.53015,146.09674h-31.567l-10.876,27.588h-6.10116l31.43433-78.387h3.44847l30.77123,78.387h-6.23384ZM515.82,141.18926h27.85326l-10.61077-28.11853c-.92846-2.25479-1.98952-5.30539-3.31586-9.15179a68.87245,68.87245,0,0,1-3.18327,9.28442Z"/><path class="cls-3" d="M577.893,173.81736V95.2977h5.57067V168.512h37.403v5.17275H577.893Z"/><path class="cls-3" d="M649.78089,173.68472h-5.438V100.47045H618.87705V95.2977h56.36969v5.17275H649.78089v73.21427Z"/><path class="cls-3" d="M747.4,173.68472h-5.57067V135.08807H696.07038v38.59665h-5.57066V95.2977h5.57066v34.75025h45.75893V95.2977H747.4v78.387Z"/></svg>