<svg xmlns="http://www.w3.org/2000/svg" role="img" viewBox="8.49 9.74 175.89 83.64"><title>LF Public Health logo</title><defs><style>.cls-1{fill:#009ade}.cls-2{fill:#003764}</style></defs><path d="M27.317 74.736V43.974H11.906V90.12h46.165V74.736H27.317z" class="cls-1"/><path d="M88.824 13.188H11.916v23.078h15.379v-7.627h46.151v46.097h-7.681V90.12h23.059V13.188z" class="cls-2"/><path d="M52.00686 37.39485c0-.39524.002-.72253-.00139-1.04977-.00085-.08249.01837-.11532.12385-.13592.18509-.03615.37339-.05473.55871-.08925a1.16921 1.16921 0 0 0 .95966-.78655 2.41919 2.41919 0 0 1 .41567-.71285 1.51032 1.51032 0 0 1 1.07944-.43751 5.48 5.48 0 0 1 2.57726.42992 13.00706 13.00706 0 0 0 2.5408.64609c.65513.11094 1.31543.15948 1.97708.21369.53211.0436 1.06486.07262 1.59749.10689.56163.03614 1.12452.045 1.68523.07722.43243.02488.86365.00321 1.294.02795 1.2773.07343 2.55611.0038 3.83313.04129.33083.0097.66224.02609.99366.02692.11532.00029.13349.03877.1097.12963a2.41939 2.41939 0 0 1-.73182 1.25542 2.824 2.824 0 0 1-1.51347.69126 6.40331 6.40331 0 0 1-1.31793-.04136c-.21608-.01559-.24553-.00423-.266.19872a1.464 1.464 0 0 1-1.09552 1.31161 4.16836 4.16836 0 0 1-1.77429.137c-.17138-.01573-.26239.00753-.33485.17656a2.57787 2.57787 0 0 1-1.54881 1.52355 3.0365 3.0365 0 0 1-1.05129.249 3.55334 3.55334 0 0 1-1.09133-.18939 4.45761 4.45761 0 0 1-1.19728-.5861c-.07871-.05648-.13584-.08036-.1832.026a2.66859 2.66859 0 0 1-.92029.964 4.06762 4.06762 0 0 1-1.743.76562 5.81734 5.81734 0 0 1-1.54431.1124c-.51816-.04056-1.03849-.06963-1.55624-.11976-.58128-.05628-1.153-.16673-1.72819-.25694-.09224-.01446-.14694-.05028-.1517-.16243-.04719-1.11069-.05314-2.22207-.025-3.3324.01083-.42584.01668-.85236.03023-1.21051zm-11.01515 3.14606a4.89015 4.89015 0 0 1-1.32869.65729 2.94019 2.94019 0 0 1-2.11193-.05294 2.56273 2.56273 0 0 1-1.54277-1.55162c-.05726-.15743-.15821-.18274-.31077-.16037a4.80364 4.80364 0 0 1-1.559-.045 1.51946 1.51946 0 0 1-1.32757-1.373c-.02572-.22788-.08571-.25055-.3427-.22085a3.52139 3.52139 0 0 1-2.12949-.22111 2.50113 2.50113 0 0 1-1.36532-1.71581c-.0253-.11765.06822-.09964.14725-.10326.98374-.045 1.96829-.03438 2.95267-.03531.37981-.00036.76062.01548 1.13922-.00366.58438-.02954 1.16954-.01342 1.75289-.03751.562-.02321 1.12454-.04075 1.68618-.06915.691-.03494 1.38116-.0871 2.07072-.14151a23.3276 23.3276 0 0 0 2.75635-.39158 10.96311 10.96311 0 0 0 1.64231-.51227 6.69106 6.69106 0 0 1 1.43-.3669 3.68487 3.68487 0 0 1 1.52267.07548 1.33822 1.33822 0 0 1 .89638.8708 1.34738 1.34738 0 0 0 .78436.89447 2.91348 2.91348 0 0 0 .70228.14794c.13293.01323.27628-.00538.27519.20158q-.01467 2.766-.00225 5.53218a.16285.16285 0 0 1-.16684.18634c-.719.09687-1.4301.23473-2.15668.2945-.53221.04379-1.065.10117-1.59761.09551a4.91461 4.91461 0 0 1-2.65546-.7553 3.392 3.392 0 0 1-1.16139-1.19894zm19.85759 5.37828a2.52907 2.52907 0 0 0-1.56372-1.98975 6.41728 6.41728 0 0 0-1.78448-.51056c-.58014-.08679-1.163-.11346-1.74457-.16235a4.93963 4.93963 0 0 0-1.39618.1026 2.716 2.716 0 0 0-1.61456.95245 2.275 2.275 0 0 0-.5423 1.58637.6462.6462 0 0 0 .3252.53271 3.16092 3.16092 0 0 0 1.65051.37592 2.95956 2.95956 0 0 0 1.82208-.60077 2.17475 2.17475 0 0 1 .65253-.41559 3.27973 3.27973 0 0 1 1.02429-.07287c.28839.01342.28778.02356.28778.27636a4.03434 4.03434 0 0 0 .00214.4104.77276.77276 0 0 1-.51654.80457 11.16235 11.16235 0 0 1-2.05451.78339 26.48308 26.48308 0 0 1-3.76642.61981c-.54882.053-1.09832.01727-1.6477.05731-.40039.02924-.79944.053-1.19531.11554A8.87949 8.87949 0 0 0 45.84 49.807a6.31259 6.31259 0 0 0-1.75678 1.42859 3.34387 3.34387 0 0 0-.67071 1.14086 4.52857 4.52857 0 0 0-.17554 1.81623 2.58461 2.58461 0 0 0 .99945 1.69958c.22772.202.49506.36786.73663.558a1.09481 1.09481 0 0 0 1.25891.09527 4.74424 4.74424 0 0 1 .68171-.34417c.66259-.32019 1.37933-.53852 2.04956-.86841-.37641-.23761-.76886-.44763-1.13288-.69483a1.3573 1.3573 0 0 1-.53369-.72607 2.72031 2.72031 0 0 1-.04461-.98969.72662.72662 0 0 1 .35784-.58264 2.52605 2.52605 0 0 1 .68079-.3078 14.57561 14.57561 0 0 1 2.92316-.45764c.42779-.02533.85608-.05163 1.28412-.07043a15.25951 15.25951 0 0 0 1.86206-.27491 12.95578 12.95578 0 0 0 2.74334-.87951 9.5471 9.5471 0 0 0 2.29493-1.3714 5.15291 5.15291 0 0 0 1.16146-1.36903 1.48551 1.48551 0 0 0 .242-.49646 3.55808 3.55808 0 0 0 .04755-1.19335z" class="cls-2"/><path d="M52.68286 51.99761a8.9641 8.9641 0 0 0 1.49433-.10019 10.61677 10.61677 0 0 0 1.90393-.46815c.17665-.05874.37218-.18825.52524-.15627.16739.035.19689.26962.2793.41974a3.68418 3.68418 0 0 1 .51421 2.08977 2.81319 2.81319 0 0 1-.67 1.5475 5.007 5.007 0 0 1-1.29662 1.09635 12.41817 12.41817 0 0 1-2.80425 1.24572c-.9052.28381-1.82146.53953-2.72645.82382a6.962 6.962 0 0 0-1.49069.69836.93631.93631 0 0 0-.40057.7559 1.21776 1.21776 0 0 0 .61712 1.20629c.22211.15352.44516.30581.68891.454a.82277.82277 0 0 1-.34464.11072 7.49734 7.49734 0 0 0-2.50308 1.16587.14988.14988 0 0 1-.2.01173 4.85406 4.85406 0 0 1-1.81915-1.773 2.15811 2.15811 0 0 1-.17437-1.29129 2.99377 2.99377 0 0 1 .90941-1.60267 5.50793 5.50793 0 0 1 1.02308-.8 14.08449 14.08449 0 0 1 4.159-1.7242 6.19251 6.19251 0 0 0 2.28116-1.05849 1.51131 1.51131 0 0 0 .61374-1.5318 2.29 2.29 0 0 0-.57961-1.11971zm-2.41466-3.85542c-.22657-.00005-.45338-.00548-.67963.00218-.11738.004-.15735-.03457-.14153-.13274a.18789.18789 0 0 0 .00017-.03566c-.06836-2.092.04393-4.18751-.06-6.276-.11555-2.32186-.073-4.64187-.0963-6.9627-.00125-.12462-.09084-.15346-.17622-.20084a3.06885 3.06885 0 0 1-1.34763-1.2745.96776.96776 0 0 1-.12087-.45749 2.75508 2.75508 0 0 1 .04089-.94283 2.50006 2.50006 0 0 1 .813-1.16632 2.54668 2.54668 0 0 1 1.13492-.52308 2.71334 2.71334 0 0 1 2.3687.49341 2.35728 2.35728 0 0 1 .91419 1.91743A2.1146 2.1146 0 0 1 52.36 33.85a2.35865 2.35865 0 0 1-.77459.61585.541.541 0 0 0-.2971.57164c-.0102.4579-.00306.91611-.003 1.37419.00017 1.91562.03595 3.83192-.00986 5.74667-.04253 1.77748-.00455 3.55431-.03112 5.33124a2.11353 2.11353 0 0 1-.12979.56656c-.023.0768-.085.0892-.16662.0876-.22649-.00442-.45314-.00151-.67972-.00156z" class="cls-2"/><path d="M49.447 60.26854c.00028-.25581.00431-.51168-.00175-.76737a.20809.20809 0 0 1 .1301-.21091 9.3365 9.3365 0 0 1 2.322-.78679 18.64962 18.64962 0 0 0 2.221-.73443.70237.70237 0 0 1 .7543.12108 3.735 3.735 0 0 1 1.05135 1.42994 2.19782 2.19782 0 0 1 .15679 1.12937 2.96009 2.96009 0 0 1-.39886 1.27421 3.5229 3.5229 0 0 1-1.55253 1.37656 20.60671 20.60671 0 0 1-3.26147 1.10333 8.35586 8.35586 0 0 0-1.894.78926.61507.61507 0 0 0-.31142.71249c.05787.20359.11812.40687.18729.60755.0242.07025.03761.10558-.05436.15013a18.659 18.659 0 0 0-1.74517.97138.46579.46579 0 0 1-.601-.111 2.19193 2.19193 0 0 1-.72946-1.25367 2.81844 2.81844 0 0 1 .61546-2.11184A3.76318 3.76318 0 0 1 47.50629 63a10.04625 10.04625 0 0 1 1.96469-.82541c.598-.22219 1.23893-.33364 1.83223-.56921a4.35015 4.35015 0 0 0 1.03077-.535 1.271 1.271 0 0 0 .45317-.70515c.048-.18745-.11044-.36245-.21844-.52858a2.654 2.654 0 0 0-1.22445-.8476c-.13981-.06419-.1262.05563-.13334.10245a5.59418 5.59418 0 0 0-.08122.718 10.00057 10.00057 0 0 0-.04265 1.11742c.00889.09869-.03307.1443-.13346.18145a9.86249 9.86249 0 0 1-1.36478.379c-.11338.02427-.093-.042-.10262-.10043a7.66923 7.66923 0 0 1-.03919-1.1184zm-1.81889-11.86046c-.29379.0884-.5443.15235-.785.23827a8.92493 8.92493 0 0 0-2.32364 1.19254 4.15982 4.15982 0 0 0-.58138.5262.16472.16472 0 0 1-.228.03831 14.39576 14.39576 0 0 1-2.4126-1.3084 5.41893 5.41893 0 0 1-1.04537-1.04938 2.334 2.334 0 0 1-.53809-1.00192 2.86215 2.86215 0 0 1 .29262-2.12889 2.97053 2.97053 0 0 1 1.1137-.97932 5.64028 5.64028 0 0 1 2.30379-.64992c.68766-.0615 1.37612-.071 2.0659-.06973a3.06413 3.06413 0 0 1 1.63117.43842 2.33156 2.33156 0 0 1 1.19617 1.97465c.02484.535-.29272.79195-.841.941a5.50059 5.50059 0 0 1-1.73632.09731 1.77984 1.77984 0 0 1-.81449-.32353 4.07908 4.07908 0 0 0-1.05335-.60033 3.39116 3.39116 0 0 0-1.23661-.02871c-.0508.00467-.06266.02812-.06945.06855a1.4225 1.4225 0 0 0 .07356.95034c.14831.27951.45938.37268.72174.512a10.64968 10.64968 0 0 0 2.87879.89667c.44428.09172.89175.17123 1.38786.26587z" class="cls-2"/><path d="M51.27545 65.37132c-.5733.4414-1.21094.746-1.83664 1.15229a9.7909 9.7909 0 0 1 .0411-1.09907c.01932-.08988.0674-.11421.14418-.13683.6694-.19717 1.34877-.364 2.02514-.54046a9.06384 9.06384 0 0 0 1.79946-.64125 2.697 2.697 0 0 0 .37918-.24995c.08731-.06437.12807-.0499.17922.037a2.0883 2.0883 0 0 1 .1968.62213 1.52094 1.52094 0 0 1-.33768 1.31631 3.66408 3.66408 0 0 1-1.12624.95515 21.20755 21.20755 0 0 1-2.78515 1.21275c-.69489.25569-1.39627.4979-2.07537.78706-.55452.23611-1.12585.43758-1.69047.65292-.14971.05709-.14934-.067-.208-.10224-.19331-.11593-.18936-.1557-.00389-.28956q.41271-.29785.83634-.58361c.93992-.637 1.99215-1.11486 2.98854-1.67186a8.91471 8.91471 0 0 0 1.05021-.64359.90152.90152 0 0 0 .42327-.77719zm.01586 2.89303c-.05525.44139-.09276.8803-.1315 1.31965-.05892.66808-.09556 1.33789-.19 2.00386-.05527.38978-.0985.781-.16332 1.16989-.00782.04695-.00019.0829-.07631.10018a2.78251 2.78251 0 0 1-.77122.02479c-.12379-.00658-.10074-.14633-.10869-.22943-.0516-.53879-.17285-1.06977-.20979-1.61061-.04607-.67457-.21193-1.33944-.19908-2.02036a.465.465 0 0 1 .31187-.44761c.61507-.28742 1.27217-.49226 1.89293-.76871.228-.10153.45689-.19979.69576-.28349a.633.633 0 0 1 .53465.04825 7.46055 7.46055 0 0 1 1.013.635c.32736.23344.61043.50973.91067.76942.06815.05894.05609.07428-.00911.13521a.46268.46268 0 0 1-.47532.126 15.915 15.915 0 0 1-2.961-.953c-.01772-.00721-.03715-.01121-.06354-.01904zm-1.84412-13.0196c0-.75016.00545-1.48754-.00364-2.22477a5.32127 5.32127 0 0 0 .04338-.58206c-.01283-.1051.09433-.09789.14649-.1055a5.97472 5.97472 0 0 1 .74331-.08427 3.242 3.242 0 0 0 .71445-.03148c.09544-.0232.15856.00079.15679.11561-.00686.44617.02395.89421-.01205 1.33815-.02455.30271-.02466.6039-.02689.90566-.00075.101-.04748.13812-.13841.1807a7.48082 7.48082 0 0 1-1.62343.48796z" class="cls-2"/><path fill="#fff" d="M53.55424 44.97041c.02949-.04293.05081-.11255.09177-.12348a1.2228 1.2228 0 0 1 1.098.07268c.11649.08542.00466.18068-.09534.24866-.25705.17473-.55096.12366-1.09443-.19786zm-6.54954 0c-.02949-.04293-.0508-.11255-.09176-.12348a1.2228 1.2228 0 0 0-1.09795.07268c-.1165.08542-.00466.18068.09534.24866.257.17473.55091.12366 1.09437-.19786z"/><path d="M102.91838 64.78516h2.707c3.91308 0 5.30175-2.66748 5.30175-4.95166s-1.38867-4.95166-5.30175-4.95166h-6.75924v14.87988h4.05224zm0-6.53223H104.79c1.61132 0 2.18261.41357 2.18261 1.58057 0 1.166-.57129 1.57959-2.18261 1.57959h-1.87159zm19.95899 5.76025c0 1.90235-.57764 2.5127-2.37695 2.5127-1.96338 0-2.35791-.96143-2.35791-2.5127v-9.13134h-4.05225v9.13134c0 3.92041 2.27637 6.07911 6.41016 6.07911 4.1455 0 6.42871-2.1587 6.42871-6.07911v-9.13134h-4.05176zm17.87646-2.38574a3.45682 3.45682 0 0 0 1.30225-2.80517c0-2.61475-1.65918-3.94043-4.93164-3.94043h-7.03174v14.87988h7.22559c3.27978 0 5.39892-1.77588 5.39892-4.52393a3.90942 3.90942 0 0 0-1.96338-3.61035zm-2.08838 3.43506c0 .65674-.20849 1.32764-1.75537 1.32764H134.145v-2.81006h2.82373c1.50385 0 1.69672.79199 1.69672 1.48242zM134.145 60.5v-2.24707h2.35644c1.32813 0 1.6001.4375 1.6001 1.09424 0 .28515 0 1.15283-1.36572 1.15283zm22.553 5.696h-6.765V54.882h-4.052v14.88h10.817v-3.566zm3.163-11.314h4.052v14.88h-4.052zm17.24733 8.53353l-.05567.43652a2.675 2.675 0 0 1-2.65283 2.67383c-3.03564 0-3.27148-3.17334-3.27148-4.146 0-1 .23584-4.26269 3.27148-4.26269a2.51235 2.51235 0 0 1 2.53711 1.99951l.06055.43018h3.9497l-.064-.55713c-.374-3.25293-2.97949-5.43848-6.4834-5.43848-4.38037 0-7.32324 3.146-7.32324 7.82861 0 4.541 3.01123 7.71241 7.32324 7.71241a6.34693 6.34693 0 0 0 6.60156-6.13184l.04883-.54492z" class="cls-1"/><path d="M98.86614 37.9508h6.18943v.79252H99.795v3.52523h4.67288v.79252H99.795v4.64552h-.92887zm11.42344-.2048c3.06063 0 4.59094 2.40477 4.59094 5.08274 0 2.67813-1.53031 5.08291-4.59094 5.08291-3.0744 0-4.60471-2.40478-4.60471-5.08291 0-2.67802 1.53031-5.08274 4.60471-5.08274zm0 9.37313c2.56866 0 3.66174-2.1588 3.66174-4.29039 0-2.13142-1.09308-4.29038-3.66174-4.29038-2.58243 0-3.67551 2.159-3.67551 4.29038 0 2.13154 1.09308 4.29034 3.67551 4.29034zm5.94557-9.16833h.92888v6.03931c0 2.2545 1.05211 3.129 2.85578 3.129 1.81743 0 2.86921-.87447 2.86921-3.129V37.9508h.9292v6.24433a3.79229 3.79229 0 0 1-7.58307 0zm9.44279 0h1.03834l5.684 8.25284h.0272V37.9508h.9292v9.75579h-1.03834l-5.684-8.25285h-.0272v8.25285h-.9292zm9.63452 0h3.37462c2.95149.06833 4.4818 1.65338 4.4818 4.87789 0 3.22467-1.53031 4.80956-4.4818 4.8779h-3.37462zm.92887 8.96326h1.98131c2.801 0 4.017-1.16142 4.017-4.08537s-1.216-4.08537-4.017-4.08537h-1.98131zm11.28775-8.96326h1.03834l3.826 9.75579h-.99742l-1.18879-3.03326h-4.4405l-1.17535 3.03326h-.99736zm-1.47558 5.93h3.83939l-1.88561-5.0008zm5.2481-5.93h7.73351v.79252H155.633v8.96327h-.9292v-8.96327h-3.4022zm8.7184 0h.9292v9.75579h-.9292zm7.05049-.2048c3.06063 0 4.59094 2.40477 4.59094 5.08274 0 2.67813-1.53031 5.08291-4.59094 5.08291-3.07439 0-4.60471-2.40478-4.60471-5.08291 0-2.67802 1.53032-5.08274 4.60471-5.08274zm0 9.37313c2.56866 0 3.66174-2.1588 3.66174-4.29039 0-2.13142-1.09308-4.29038-3.66174-4.29038-2.58242 0-3.67551 2.159-3.67551 4.29038.00002 2.13154 1.09309 4.29034 3.67551 4.29034zm6.02751-9.16833h1.03834l5.684 8.25284h.0272V37.9508h.9292v9.75579h-1.03834l-5.684-8.25285h-.0272v8.25285h-.9292zM98.86614 14.95383h5.35555v12.92423h7.69231v4.45414H98.86614zm16.55162 0h5.35555V32.3322h-5.35555zm9.34724 0h5.47688l5.06337 9.29763h.04887v-9.29763h5.063V32.3322h-5.2093l-5.331-9.49239h-.04886v9.49239H124.765zm35.441 10.66076c0 4.84349-2.55578 7.13139-7.91133 7.13139-5.35522 0-7.93561-2.2879-7.93561-7.13139V14.95383h5.35522V24.422c0 1.75231-.02426 3.99168 2.60465 3.99168 2.53185 0 2.53185-2.23937 2.53185-3.99168v-9.46817h5.35522zm8.51864-2.53133l-5.72052-8.12943h6.28027l2.62891 4.72185 2.58039-4.72185h5.93957L174.859 23.132l6.20715 9.20025h-6.45079l-2.96962-5.18431-3.06735 5.18431H162.444z" class="cls-2"/><path d="M107.553 79.942h-4.627v-5.336h-4.06v14.908h4.06v-5.999h4.627v5.999h4.06V74.606h-4.06v5.336zm11.309 3.593h6.738v-3.378h-6.738v-1.978h7.342v-3.573h-11.402v14.908h11.557v-3.572h-7.497v-2.407zm13.97518-8.9292l-5.65882 14.90852h4.178l1.091-3.09677h4.48665l1.05231 3.09677h4.25568l-5.57569-14.90852zm2.95538 8.53054h-2.19219l1.11395-3.13884zM147.749 74.606h-4.06v14.908h10.837v-3.572h-6.777V74.606zm5.7 3.573h4.167v11.335h4.06V78.179h4.168v-3.573h-12.395v3.573zm23.14 1.763h-4.627v-5.336h-4.06v14.908h4.06v-5.999h4.627v5.999h4.06V74.606h-4.06v5.336z" class="cls-1"/></svg>